<?xml version="1.0" encoding="UTF-8"?>
<svg width="40px" height="42px" viewBox="0 0 40 42" version="1.1" xmlns="http://www.w3.org/2000/svg" xmlns:xlink="http://www.w3.org/1999/xlink">
    <!-- Generator: Sketch 53 (72520) - https://sketchapp.com -->
    <title>Group 25</title>
    <desc>Created with Sketch.</desc>
    <g id="Page-1" stroke="none" stroke-width="1" fill="none" fill-rule="evenodd">
        <g id="UI---Screen-16" transform="translate(-257.000000, -191.000000)" fill="#FFFFFF">
            <g id="Group-25" transform="translate(257.000000, 191.551724)">
                <path d="M19.5442424,24.2424242 C19.6509091,24.32 19.7381818,24.4218182 19.7939394,24.5309091 C19.8933333,24.7321212 19.910303,24.96 19.8327273,25.1709091 L19.3939394,26.3781818 L20.8921212,24.630303 L19.6387879,24.2739394 C19.6072727,24.2666667 19.5757576,24.2569697 19.5442424,24.2424242" id="Fill-1"></path>
                <path d="M18.1818182,23.4545455 L19.4448485,23.8181818 C19.4763636,23.8278788 19.5078788,23.8351515 19.5369697,23.8521212 C19.4375758,23.7818182 19.36,23.689697 19.2945455,23.5878788 C19.1951515,23.4012121 19.1709091,23.1830303 19.2339394,22.9793939 L19.5684848,21.8181818 L18.1818182,23.4545455 Z" id="Fill-3"></path>
                <polygon id="Fill-8" points="15.7575758 24.2424242 18.1818182 24.2424242 18.1818182 15.7575758 15.7575758 15.7575758"></polygon>
                <polygon id="Fill-9" points="23.030303 24.2424242 25.4545455 24.2424242 25.4545455 15.7575758 23.030303 15.7575758"></polygon>
                <polygon id="Fill-10" points="15.7575758 16.969697 18.1818182 16.969697 18.1818182 15.7575758 15.7575758 15.7575758"></polygon>
                <polygon id="Fill-11" points="23.030303 17.9466667 25.4545455 17.9466667 25.4545455 15.7575758 23.030303 15.7575758"></polygon>
                <polygon id="Fill-12" points="15.7575758 25.2193939 18.1818182 25.2193939 18.1818182 23.030303 15.7575758 23.030303"></polygon>
                <polygon id="Fill-13" points="23.030303 25.2193939 25.4545455 25.2193939 25.4545455 23.030303 23.030303 23.030303"></polygon>
                <polygon id="Fill-14" points="31.5151515 6.06060606 38.7878788 6.06060606 38.7878788 3.63636364 31.5151515 3.63636364"></polygon>
                <polygon id="Fill-15" points="1.21212121 37.5757576 8.48484848 37.5757576 8.48484848 35.1515152 1.21212121 35.1515152"></polygon>
                <polygon id="Fill-16" points="6.06060606 37.5757576 8.24969697 37.5757576 8.24969697 35.1515152 6.06060606 35.1515152"></polygon>
                <polygon id="Fill-17" points="1.21212121 37.5757576 3.40121212 37.5757576 3.40121212 35.1515152 1.21212121 35.1515152"></polygon>
                <polygon id="Fill-18" points="37.5757576 6.06060606 39.7672727 6.06060606 39.7672727 3.63636364 37.5757576 3.63636364"></polygon>
                <polygon id="Fill-19" points="31.5151515 6.06060606 33.7042424 6.06060606 33.7042424 3.63636364 31.5151515 3.63636364"></polygon>
                <path d="M23.6363636,9.6969697 C24.6410953,9.6969697 25.4545455,10.5115312 25.4545455,11.5151515 C25.4545455,12.5167605 24.6410953,13.3333333 23.6363636,13.3333333 C22.6316319,13.3333333 21.8181818,12.5167605 21.8181818,11.5151515 C21.8181818,10.5115312 22.6316319,9.6969697 23.6363636,9.6969697" id="Fill-20"></path>
                <path d="M16.3636364,9.6969697 C17.3683681,9.6969697 18.1818182,10.5115312 18.1818182,11.5151515 C18.1818182,12.5167605 17.3683681,13.3333333 16.3636364,13.3333333 C15.3589047,13.3333333 14.5454545,12.5167605 14.5454545,11.5151515 C14.5454545,10.5115312 15.3589047,9.6969697 16.3636364,9.6969697" id="Fill-21"></path>
                <path d="M15.7575758,35.0372326 C15.7575758,32.2982396 20.6060606,25.4545455 20.6060606,25.4545455 C20.6060606,25.4545455 25.4545455,32.2982396 25.4545455,35.0372326 C25.4545455,37.7781198 23.2838307,40 20.6060606,40 C17.9282905,40 15.7575758,37.7781198 15.7575758,35.0372326" id="Fill-22"></path>
                <path d="M32.5267908,4.62801803 L38.7253243,4.62801803 L38.7253243,3.85604945 L32.5267908,3.85604945 L32.5267908,4.62801803 Z M33.8841888,2.57196412 L37.535251,2.57196412 L37.535251,1.28598206 L33.8841888,1.28598206 L33.8841888,2.57196412 Z M23.6943034,23.819119 L24.4576048,23.819119 L24.4576048,16.8789887 L23.6943034,16.8789887 L23.6943034,23.819119 Z M18.2590713,22.2751819 L22.4196277,22.2751819 L22.4196277,18.4210291 L18.2590713,18.4210291 L18.2590713,22.2751819 Z M16.2210942,23.819119 L16.9843956,23.819119 L16.9843956,16.8789887 L16.2210942,16.8789887 L16.2210942,23.819119 Z M2.63395375,39.9261392 L6.28501598,39.9261392 L6.28501598,38.6401571 L2.63395375,38.6401571 L2.63395375,39.9261392 Z M1.27467569,37.3560718 L7.47320925,37.3560718 L7.47320925,36.5859999 L1.27467569,36.5859999 L1.27467569,37.3560718 Z M16.7719496,13.024836 C16.1872532,13.024836 15.7115999,12.5430669 15.7115999,11.9531843 C15.7115999,11.3633016 16.1872532,10.8815326 16.7719496,10.8815326 C17.358526,10.8815326 17.8341794,11.3633016 17.8341794,11.9531843 C17.8341794,12.5430669 17.358526,13.024836 16.7719496,13.024836 L16.7719496,13.024836 Z M23.9067494,10.8815326 C24.4914458,10.8815326 24.9670991,11.3633016 24.9670991,11.9531843 C24.9670991,12.5430669 24.4914458,13.024836 23.9067494,13.024836 C23.320173,13.024836 22.8445196,12.5430669 22.8445196,11.9531843 C22.8445196,11.3633016 23.320173,10.8815326 23.9067494,10.8815326 L23.9067494,10.8815326 Z M38.8099267,2.57196412 L38.8099267,0.64299103 C38.8099267,0.288302763 38.5260387,0 38.1744689,0 L33.248731,0 C32.8971611,0 32.6113931,0.288302763 32.6113931,0.64299103 L32.6113931,2.57196412 L31.8894529,2.57196412 C31.5378831,2.57196412 31.2521151,2.85837015 31.2521151,3.21305842 L31.2521151,5.27100906 C31.2521151,5.6238006 31.5378831,5.91400009 31.8894529,5.91400009 L32.6113931,5.91400009 L32.6113931,7.83917972 C32.6113931,8.19576472 32.8971611,8.48217075 33.248731,8.48217075 C33.6003008,8.48217075 33.8841888,8.19576472 33.8841888,7.83917972 L33.8841888,5.91400009 L37.537131,5.91400009 L37.537131,15.2079707 C37.537131,19.1057482 34.393683,22.2770786 30.5301748,22.2770786 L25.7322805,22.2770786 L25.7322805,18.4210291 L30.7012596,18.4210291 C32.4572288,18.4210291 33.8841888,16.9814121 33.8841888,15.2079707 L33.8841888,11.2665685 C33.8841888,10.9118802 33.6003008,10.6254742 33.248731,10.6254742 C32.8971611,10.6254742 32.6113931,10.9118802 32.6113931,11.2665685 L32.6113931,15.2079707 C32.6113931,16.2720355 31.7540891,17.1369438 30.7012596,17.1369438 L25.7322805,17.1369438 L25.7322805,16.2359977 C25.7322805,15.8813094 25.4465125,15.5930066 25.0949427,15.5930066 L23.0569656,15.5930066 C22.7053958,15.5930066 22.4196277,15.8813094 22.4196277,16.2359977 L22.4196277,17.1369438 L20.9757473,17.1369438 L20.9757473,12.5942786 L21.6600865,12.5942786 C21.9383343,13.584371 22.8388795,14.3089213 23.9067494,14.3089213 C25.1945854,14.3089213 26.2417748,13.2524434 26.2417748,11.9531843 C26.2417748,10.6539251 25.1945854,9.59744723 23.9067494,9.59744723 C22.8388795,9.59744723 21.9383343,10.3219976 21.6600865,11.3101932 L19.0186125,11.3101932 C18.7403647,10.3219976 17.8398195,9.59744723 16.7719496,9.59744723 C15.4841136,9.59744723 14.4369242,10.6539251 14.4369242,11.9531843 C14.4369242,13.2524434 15.4841136,14.3089213 16.7719496,14.3089213 C17.8398195,14.3089213 18.7403647,13.584371 19.0186125,12.5942786 L19.7029517,12.5942786 L19.7029517,17.1369438 L18.2590713,17.1369438 L18.2590713,16.2359977 C18.2590713,15.8813094 17.9733033,15.5930066 17.6217334,15.5930066 L15.5837563,15.5930066 C15.2321865,15.5930066 14.9464185,15.8813094 14.9464185,16.2359977 L14.9464185,17.1369438 L9.63902989,17.1369438 C5.07238203,17.1369438 1.35927806,20.882983 1.35927806,25.490137 L1.35927806,28.4035123 C1.35927806,28.7582006 1.64316601,29.0446066 1.99473585,29.0446066 C2.3463057,29.0446066 2.6320737,28.7582006 2.6320737,28.4035123 L2.6320737,25.490137 C2.6320737,21.5923595 5.77552171,18.4210291 9.63902989,18.4210291 L14.9464185,18.4210291 L14.9464185,22.2770786 L9.46982516,22.2770786 C7.71197594,22.2770786 6.28501598,23.7166957 6.28501598,25.490137 L6.28501598,35.3000179 L2.6320737,35.3000179 L2.6320737,31.8309011 C2.6320737,31.4743161 2.3463057,31.18791 1.99473585,31.18791 C1.64316601,31.18791 1.35927806,31.4743161 1.35927806,31.8309011 L1.35927806,35.3000179 L0.637337845,35.3000179 C0.285768002,35.3000179 0,35.5864239 0,35.9430089 L0,37.9990628 C0,38.3537511 0.285768002,38.6401571 0.637337845,38.6401571 L1.35927806,38.6401571 L1.35927806,40.5691302 C1.35927806,40.9238184 1.64316601,41.2121212 1.99473585,41.2121212 L6.92235383,41.2121212 C7.27392367,41.2121212 7.55781162,40.9238184 7.55781162,40.5691302 L7.55781162,38.6401571 L8.1105471,38.6401571 C8.46211694,38.6401571 8.74788494,38.3537511 8.74788494,37.9990628 L8.74788494,35.9430089 C8.74788494,35.5864239 8.46211694,35.3000179 8.1105471,35.3000179 L7.55781162,35.3000179 L7.55781162,25.490137 C7.55781162,24.4260722 8.41511562,23.5611639 9.46982516,23.5611639 L14.9464185,23.5611639 L14.9464185,24.4621101 C14.9464185,24.8149016 15.2321865,25.1051011 15.5837563,25.1051011 L17.6217334,25.1051011 C17.9733033,25.1051011 18.2590713,24.8149016 18.2590713,24.4621101 L18.2590713,23.5611639 L22.4196277,23.5611639 L22.4196277,24.4621101 C22.4196277,24.8149016 22.7053958,25.1051011 23.0569656,25.1051011 L25.0949427,25.1051011 C25.4465125,25.1051011 25.7322805,24.8149016 25.7322805,24.4621101 L25.7322805,23.5611639 L30.5301748,23.5611639 C35.0949427,23.5611639 38.8099267,19.8151247 38.8099267,15.2079707 L38.8099267,5.91400009 L39.3626622,5.91400009 C39.714232,5.91400009 40,5.6238006 40,5.27100906 L40,3.21305842 C40,2.85837015 39.714232,2.57196412 39.3626622,2.57196412 L38.8099267,2.57196412 Z" id="Fill-23"></path>
            </g>
        </g>
    </g>
</svg>