<?xml version="1.0" encoding="UTF-8"?>
<svg width="19px" height="19px" viewBox="0 0 19 19" version="1.1" xmlns="http://www.w3.org/2000/svg" xmlns:xlink="http://www.w3.org/1999/xlink">
    <!-- Generator: Sketch 53 (72520) - https://sketchapp.com -->
    <title>person</title>
    <desc>Created with Sketch.</desc>
    <g id="Page-1" stroke="none" stroke-width="1" fill="none" fill-rule="evenodd">
        <g id="UI---Screen-10" transform="translate(-16.000000, -414.000000)" fill="#98C03C">
            <g id="Group-10" transform="translate(0.000000, 331.000000)">
                <g id="person" transform="translate(16.000000, 83.000000)">
                    <path d="M18.24,9.5 C18.24,4.67303129 14.3269687,0.76 9.5,0.76 C4.67303129,0.76 0.76,4.67303129 0.76,9.5 C0.76,14.3269687 4.67303129,18.24 9.5,18.24 C14.3269687,18.24 18.24,14.3269687 18.24,9.5 Z M0,9.5 C0,4.25329488 4.25329488,0 9.5,0 C14.7467051,0 19,4.25329488 19,9.5 C19,14.7467051 14.7467051,19 9.5,19 C4.25329488,19 0,14.7467051 0,9.5 Z" id="Oval-39" fill-rule="nonzero"></path>
                    <path d="M7.98189912,3.4717794 C6.83097366,4.00395299 6.75285614,4.07281897 6.2336736,4.79076481 C5.39199655,5.95466864 5.93660113,7.39452717 5.95034467,8.48486852 C5.95272211,8.67348218 5.58409818,8.50874489 5.6042479,8.69185815 C5.63414313,8.96353494 5.80782312,9.69373043 5.85733304,9.93029784 C6.02288084,10.7213153 6.06016564,10.5259464 6.2336736,10.9218433 C6.39305563,11.2855088 6.52459266,10.8674846 6.66726902,11.2593931 C6.81672027,11.6699112 6.76933096,12.6953221 6.92861826,13.0904552 C7.30535972,14.0250121 7.67909012,14.0316247 7.41026822,15.0105742 C7.30243925,15.4032472 7.10086443,15.8366781 6.66726902,15.9784598 C6.2336736,16.1202416 4.0214768,16.7282912 4.0214768,16.7282912 C3.65457848,18.1788556 8.06651194,19.3411399 11.2929857,18.9083642 C13.6853815,18.5874657 15.1479313,16.7914062 14.9881074,16.7282912 C14.2414841,16.433447 12.5840171,15.8564481 12.052938,15.4739395 C11.7890328,15.2838623 11.3616955,14.6243939 11.6184017,13.7546032 C11.7592139,13.2774933 11.9149729,13.4251091 12.052938,13.0904552 C12.21666,12.6933245 12.1317165,11.5489524 12.3717503,11.0364956 C12.4263594,10.9199085 12.7318006,10.8817272 12.7845127,10.7452924 C12.9275046,10.3751855 13.2304218,9.05128109 13.3049347,8.69185815 C13.331597,8.56324911 12.761122,8.6140633 12.7845127,8.48486852 C12.8365352,8.19752983 12.9538591,7.93963841 12.981687,7.64692484 C13.0636374,6.78491271 12.9697499,5.41315909 12.7845127,4.79076481 C12.5404405,3.97068617 11.1321936,3.3235683 10.6340084,3.28125178 C10.2652938,3.24993266 10.1772584,3 9.78599705,3 C8.89668538,3 7.98189912,3.4717794 7.98189912,3.4717794 Z" id="Path-2"></path>
                </g>
            </g>
        </g>
    </g>
</svg>