<?xml version="1.0" encoding="UTF-8"?>
<svg width="23px" height="19px" viewBox="0 0 23 19" version="1.1" xmlns="http://www.w3.org/2000/svg" xmlns:xlink="http://www.w3.org/1999/xlink">
    <!-- Generator: Sketch 53 (72520) - https://sketchapp.com -->
    <title>Group 29</title>
    <desc>Created with Sketch.</desc>
    <g id="Page-1" stroke="none" stroke-width="1" fill="none" fill-rule="evenodd">
        <g id="UI---Screen-5" transform="translate(-12.000000, -389.000000)">
            <g id="Group-29" transform="translate(13.000000, 389.000000)">
                <path d="M5.72228,6.65217054 L11.57228,1.62751938 L20.52228,7.7244186 C20.27988,7.9799845 20.03708,8.23555039 19.79508,8.49151938 C19.20268,9.11834109 18.60948,9.74435659 18.01548,10.369969 C17.26428,11.1604496 16.51388,11.9513333 15.76388,12.7434264 C15.06708,13.4802946 14.36948,14.2159535 13.67388,14.9536279 C13.28828,15.3623721 12.91188,15.7807907 12.51628,16.1798605 C12.15428,16.5454729 11.71748,16.9352713 11.18668,17.0054109 C10.37268,17.1130388 9.98908,17.1468992 9.63908,16.626093 C9.05308,15.7545891 9.02268,13.754 11.02268,13.0316434 C11.40348,12.7603566 11.78788,13.5105271 11.72268,13.6197674 C11.64388,13.7515814 9.80588,14.5771318 10.75108,15.8702791 C10.87428,16.0383721 11.33228,16.0319225 11.52588,15.9545271 C11.94588,15.7872403 12.18628,15.4409767 12.47228,15.114062 C12.47228,15.114062 13.84708,13.5439845 12.92228,12.1331318 L15.59708,9.32029457 C15.59708,9.32029457 14.64708,8.02674419 15.74708,6.9935969 L12.77228,4.95310078 C12.77228,4.95310078 11.64748,5.78429457 10.12228,5.20503876 L7.17228,7.67403101 L5.72228,6.65217054 Z" id="Stroke-1" stroke="#98C03C" stroke-width="1.4"></path>
                <path d="M8.32816,15.2656682 C8.32816,15.660707 8.40376,16.0396217 8.54416,16.3862884 L3.27216,12.3109395 L3.26816,12.3109395 L0.29616,10.0172961 C0.23216,9.77543566 0.20016,9.52551318 0.20016,9.26349767 C0.20016,7.57853643 1.55616,6.21202481 3.22816,6.21202481 C3.31216,6.21202481 3.39616,6.21605581 3.47616,6.22411783 L6.08016,8.2355907 L11.24416,12.2182264 C9.62416,12.2746605 8.32816,13.6210171 8.32816,15.2656682 Z" id="Stroke-3" stroke="#98C03C" stroke-width="1.4"></path>
                <path d="M20.7666,7.58623256 C20.7666,7.72468657 20.6546743,7.83623256 20.5163556,7.83623256 C20.3785257,7.83623256 20.2666,7.72468657 20.2666,7.58623256 C20.2666,7.44777855 20.3785257,7.33623256 20.5163556,7.33623256 C20.6546743,7.33623256 20.7666,7.44777855 20.7666,7.58623256" id="Fill-5" fill="#83BB38"></path>
                <path d="M20.18008,7.53137364 C20.18008,7.53137364 20.38088,7.57732713 20.44088,7.31410233 C20.50128,7.05128062 20.72168,5.71661395 21.06328,5.95928062 C21.40448,6.20194729 21.26408,6.42445891 21.38448,6.40430388 C21.50488,6.38374574 21.50488,6.3635907 21.66528,6.42445891 C21.82568,6.48492403 22.14968,6.54579225 20.63288,7.43583876 C20.63288,7.43583876 20.48128,7.74824186 20.58168,7.81435039 L20.18008,7.53137364 Z" id="Fill-7" fill="#83BB38"></path>
                <path d="M18.7588,6.17989457 C18.7588,6.31834859 18.6468743,6.42989457 18.5085556,6.42989457 C18.3707257,6.42989457 18.2588,6.31834859 18.2588,6.17989457 C18.2588,6.04144056 18.3707257,5.92989457 18.5085556,5.92989457 C18.6468743,5.92989457 18.7588,6.04144056 18.7588,6.17989457" id="Fill-9" fill="#83BB38"></path>
                <path d="M18.17228,6.12503566 C18.17228,6.12503566 18.37308,6.17098915 18.43308,5.90776434 C18.49348,5.64494264 18.71388,4.31027597 19.05548,4.55294264 C19.39668,4.7956093 19.25628,5.01812093 19.37668,4.99796589 C19.49708,4.97740775 19.49708,4.95725271 19.65748,5.01812093 C19.81788,5.07858605 20.14188,5.13945426 18.62508,6.02950078 C18.62508,6.02950078 18.47348,6.34190388 18.57388,6.4080124 L18.17228,6.12503566 Z" id="Fill-11" fill="#83BB38"></path>
                <path d="M17.092,5.00070388 C17.092,5.13915789 16.9800743,5.25070388 16.8417556,5.25070388 C16.7039257,5.25070388 16.592,5.13915789 16.592,5.00070388 C16.592,4.86224986 16.7039257,4.75070388 16.8417556,4.75070388 C16.9800743,4.75070388 17.092,4.86224986 17.092,5.00070388" id="Fill-13" fill="#83BB38"></path>
                <path d="M16.50548,4.94588527 C16.50548,4.94588527 16.70628,4.99183876 16.76628,4.72861395 C16.82668,4.46579225 17.04708,3.13112558 17.38868,3.37379225 C17.72988,3.61645891 17.58948,3.83897054 17.70988,3.8188155 C17.83028,3.79825736 17.83028,3.77810233 17.99068,3.83897054 C18.15108,3.89943566 18.47508,3.96030388 16.95828,4.85035039 C16.95828,4.85035039 16.80668,5.16275349 16.90708,5.22886202 L16.50548,4.94588527 Z" id="Fill-15" fill="#83BB38"></path>
                <path d="M15.4252,3.82151318 C15.4252,3.95996719 15.3132743,4.07151318 15.1749556,4.07151318 C15.0371257,4.07151318 14.9252,3.95996719 14.9252,3.82151318 C14.9252,3.68305917 15.0371257,3.57151318 15.1749556,3.57151318 C15.3132743,3.57151318 15.4252,3.68305917 15.4252,3.82151318" id="Fill-17" fill="#83BB38"></path>
                <path d="M14.83868,3.76669457 C14.83868,3.76669457 15.03948,3.81264806 15.09948,3.54942326 C15.15988,3.28660155 15.38028,1.95193488 15.72188,2.19460155 C16.06308,2.43726822 15.92268,2.65977984 16.04308,2.63962481 C16.16348,2.61906667 16.16348,2.59891163 16.32388,2.65977984 C16.48428,2.72024496 16.80828,2.78111318 15.29148,3.67115969 C15.29148,3.67115969 15.13988,3.98356279 15.24028,4.04967132 L14.83868,3.76669457 Z" id="Fill-19" fill="#83BB38"></path>
                <path d="M13.7584,2.64232248 C13.7584,2.78077649 13.6464743,2.89232248 13.5081556,2.89232248 C13.3703257,2.89232248 13.2584,2.78077649 13.2584,2.64232248 C13.2584,2.50386847 13.3703257,2.39232248 13.5081556,2.39232248 C13.6464743,2.39232248 13.7584,2.50386847 13.7584,2.64232248" id="Fill-21" fill="#83BB38"></path>
                <path d="M13.17188,2.58750388 C13.17188,2.58750388 13.37268,2.63345736 13.43268,2.37023256 C13.49308,2.10741085 13.71348,0.772744186 14.05508,1.01541085 C14.39628,1.25807752 14.25588,1.48058915 14.37628,1.46043411 C14.49668,1.43987597 14.49668,1.41972093 14.65708,1.48058915 C14.81748,1.54105426 15.14148,1.60192248 13.62468,2.49196899 C13.62468,2.49196899 13.47308,2.80437209 13.57348,2.87048062 L13.17188,2.58750388 Z" id="Fill-23" fill="#83BB38"></path>
                <path d="M12.07988,1.6564186 C12.07988,1.79487262 11.9679543,1.9064186 11.8296356,1.9064186 C11.6918057,1.9064186 11.57988,1.79487262 11.57988,1.6564186 C11.57988,1.51796459 11.6918057,1.4064186 11.8296356,1.4064186 C11.9679543,1.4064186 12.07988,1.51796459 12.07988,1.6564186" id="Fill-25" fill="#83BB38"></path>
                <path d="M11.49336,1.6016 C11.49336,1.6016 11.69416,1.64755349 11.75416,1.38432868 C11.81456,1.12150698 12.03496,-0.21315969 12.37656,0.0295069767 C12.71776,0.272173643 12.57736,0.494685271 12.69776,0.474530233 C12.81816,0.453972093 12.81816,0.433817054 12.97856,0.494685271 C13.13896,0.555150388 13.46296,0.616018605 11.94616,1.50606512 C11.94616,1.50606512 11.79456,1.81846822 11.89496,1.88457674 L11.49336,1.6016 Z" id="Fill-27" fill="#83BB38"></path>
            </g>
        </g>
    </g>
</svg>