<?xml version="1.0" encoding="UTF-8"?>
<svg width="24px" height="24px" viewBox="0 0 24 24" version="1.1" xmlns="http://www.w3.org/2000/svg" xmlns:xlink="http://www.w3.org/1999/xlink">
    <!-- Generator: Sketch 53 (72520) - https://sketchapp.com -->
    <title>money (3)</title>
    <desc>Created with Sketch.</desc>
    <g id="Page-1" stroke="none" stroke-width="1" fill="none" fill-rule="evenodd">
        <g id="UI---Screen-14" transform="translate(-11.000000, -320.000000)" fill="#98C03C" fill-rule="nonzero">
            <g id="money-(3)" transform="translate(12.000000, 321.000000)">
                <path d="M3.6554375,19.5097115 C3.57555859,19.4299025 3.46469922,19.3840585 3.35169141,19.3840585 C3.23868359,19.3840585 3.12782422,19.4299025 3.04790234,19.5097115 C2.96798047,19.5895205 2.92200391,19.7001209 2.92200391,19.8129084 C2.92200391,19.9256959 2.9679375,20.0363392 3.04790234,20.1160624 C3.12782422,20.1958285 3.23868359,20.2417583 3.35169141,20.2417583 C3.46469922,20.2417583 3.57555859,20.1958713 3.6554375,20.1160624 C3.73535937,20.0363392 3.78137891,19.9256959 3.78137891,19.8129084 C3.78137891,19.7001209 3.73540234,19.5894776 3.6554375,19.5097115 Z" id="Shape"></path>
                <path d="M20.1748594,7.84529435 C20.0949375,7.76548538 19.9845078,7.71964133 19.8710703,7.71964133 C19.7580625,7.71964133 19.6472031,7.76548538 19.5672813,7.84529435 C19.4874023,7.92506043 19.4413828,8.0357037 19.4413828,8.14849123 C19.4413828,8.26127875 19.4873594,8.37192203 19.5672813,8.45164522 C19.6472031,8.53141131 19.7580625,8.57734113 19.8710703,8.57734113 C19.9845078,8.57734113 20.0949375,8.53145419 20.1748594,8.45164522 C20.255168,8.37192203 20.3011445,8.26127875 20.3011445,8.14849123 C20.3011445,8.0357037 20.255168,7.92506043 20.1748594,7.84529435 Z" id="Shape"></path>
                <path d="M21.8738867,0.125610136 C21.7932773,0.0452007797 21.6839648,0 21.5699688,0 L10.9999141,0.000557504873 C10.7626406,0.000557504873 10.5702695,0.192596491 10.5702695,0.429407407 L10.5702695,1.65578947 L6.49730469,2.74502534 C6.26806641,2.80635088 6.13202734,3.04148928 6.19347266,3.27023782 L8.30439844,11.1328577 L6.47826953,12.9554269 C6.24585156,12.6167212 5.85560938,12.3939766 5.41419141,12.3939766 L1.28932031,12.3939766 C0.57853125,12.3939766 0.00030078125,12.9711228 0.00030078125,13.6804834 L0.00030078125,20.6705653 C0.00030078125,21.3799688 0.57853125,21.957115 1.28932031,21.957115 L5.41423438,21.957115 C6.01807422,21.957115 6.52605078,21.5404444 6.66526953,20.9801949 L7.17616797,21.4248694 C7.57057813,21.7681209 8.07589063,21.9571579 8.59920703,21.9571579 L21.5700547,21.9571579 C21.8073281,21.9571579 21.9997422,21.7651189 21.9997422,21.528308 L21.9997422,0.428849903 C21.9996563,0.315118908 21.9544531,0.206019493 21.8738867,0.125610136 Z M5.84383594,20.6706082 C5.84383594,20.9070331 5.65107813,21.0994581 5.41414844,21.0994581 L1.28927734,21.0994581 C1.05234766,21.0994581 0.859589844,20.907076 0.859589844,20.6706082 L0.859589844,13.6805263 C0.859589844,13.4440585 1.05234766,13.2516764 1.28927734,13.2516764 L2.92204687,13.2516764 L2.92204687,18.1918129 C2.92204687,18.4286238 3.11446094,18.6206628 3.35173437,18.6206628 C3.58900781,18.6206628 3.78142187,18.4286238 3.78142187,18.1918129 L3.78142187,13.2516764 L5.41419141,13.2516764 C5.65112109,13.2516764 5.84387891,13.4440585 5.84387891,13.6805263 L5.84387891,20.6706082 L5.84383594,20.6706082 Z M7.13474609,3.46249123 L10.5702695,2.5437232 L10.5702695,4.13282651 L10.282293,4.20984795 C10.1721641,4.23930994 10.0783633,4.3111423 10.0213867,4.40964912 C9.96441016,4.50815595 9.94894141,4.62518908 9.97846094,4.73506043 C10.1435898,5.35007407 9.77659375,5.98447173 9.16037891,6.14927875 C9.05016406,6.17878363 8.95619141,6.25074464 8.89925781,6.34946589 C8.84232422,6.44814425 8.82698438,6.56539181 8.85676172,6.67534893 L10.5316406,12.8652827 L9.66925781,12.8652827 L9.22483203,11.1299844 C9.21069531,11.0747485 9.18594531,11.0238441 9.15281641,10.9795867 L7.13474609,3.46249123 Z M10.5702695,6.09948928 L10.5702695,9.71816764 L9.7865625,6.82192982 C10.1139414,6.65322027 10.3818516,6.40079922 10.5702695,6.09948928 Z M16.743332,21.0994152 L8.59912109,21.0994152 L8.59912109,21.0994152 C8.28351563,21.0994152 7.97873828,20.9854269 7.74086328,20.7784211 L6.70321094,19.8752203 L6.70321094,13.9439259 L8.57914063,12.071653 L8.91936719,13.40023 C8.96800781,13.5900819 9.13932422,13.7228538 9.33564844,13.7228538 L17.7834766,13.7233684 C18.1151953,13.7233684 18.3850391,13.9926862 18.3850391,14.3237583 C18.3850391,14.6548304 18.1151953,14.9241481 17.7834766,14.9241481 L13.4548047,14.9241481 C13.2175313,14.9241481 13.0251172,15.1161871 13.0251172,15.3529981 C13.0251172,15.589809 13.2175313,15.781848 13.4548047,15.781848 L19.1283984,15.781848 C19.4601172,15.781848 19.7299609,16.0511657 19.7299609,16.3822378 C19.7299609,16.7133099 19.4601172,16.9826277 19.1283984,16.9826277 L13.4548047,16.9826277 C13.2175313,16.9826277 13.0251172,17.1746667 13.0251172,17.4114776 C13.0251172,17.6482885 13.2175313,17.8403275 13.4548047,17.8403275 L18.2089961,17.8403275 C18.5407148,17.8403275 18.8105586,18.1096452 18.8105586,18.4407173 C18.8105586,18.7717895 18.5407148,19.0411072 18.2089961,19.0411072 L13.4548047,19.0411072 C13.2175313,19.0411072 13.0251172,19.2331462 13.0251172,19.4699571 C13.0251172,19.706768 13.2175313,19.898807 13.4548047,19.898807 L16.743332,19.898807 C17.0750508,19.898807 17.3448945,20.1681248 17.3448945,20.4991969 C17.3448516,20.8300975 17.0750078,21.0994152 16.743332,21.0994152 Z M21.1403672,21.0994152 L21.1403672,21.0994152 L18.0741172,21.0994152 C18.1574336,20.9161676 18.2042266,20.7130214 18.2042266,20.4990253 C18.2042266,20.2850292 18.1574336,20.081883 18.0741172,19.8986355 L18.2089961,19.8986355 C19.0145313,19.8986355 19.6698906,19.2445536 19.6698906,18.4405887 C19.6698906,18.2060936 19.6138164,17.9845068 19.5148164,17.7880078 C20.1333945,17.6184405 20.58925,17.0525731 20.58925,16.382152 C20.58925,16.0569123 20.4819141,15.7562456 20.3008867,15.5135166 L20.3008867,10.0782729 C20.3008867,9.84146199 20.1084727,9.649423 19.8711992,9.649423 C19.6339258,9.649423 19.4415117,9.84146199 19.4415117,10.0782729 L19.4415117,14.9582417 C19.3405352,14.9361559 19.2358203,14.9241481 19.1283125,14.9241481 L19.1142188,14.9241481 C19.1975352,14.7409006 19.2443281,14.5377544 19.2443281,14.3237583 C19.2443281,13.5197505 18.5889688,12.8657115 17.7834336,12.8657115 L17.0927109,12.8657115 C17.8261445,12.5517934 18.3412539,11.8242066 18.3412539,10.9785575 C18.3412539,9.8468655 17.4188008,8.92616764 16.2848984,8.92616764 C15.1510391,8.92616764 14.228543,9.8468655 14.228543,10.9785575 C14.228543,11.8242066 14.7436953,12.5517934 15.4770859,12.8657115 L13.1282852,12.8657115 L13.1282852,4.71147368 C13.8958789,4.54452242 14.5015664,3.94005848 14.6688008,3.17391813 L17.9009531,3.17391813 C18.0681875,3.94005848 18.673875,4.54452242 19.4414688,4.71147368 L19.4414688,6.04476803 C19.4414688,6.28157895 19.6338828,6.47361793 19.8711563,6.47361793 C20.1084297,6.47361793 20.3008438,6.28157895 20.3008438,6.04476803 L20.3008438,4.32859649 C20.3008438,4.09178558 20.1084297,3.89974659 19.8711563,3.89974659 C19.2331992,3.89974659 18.7142656,3.38173879 18.7142656,2.74506823 C18.7142656,2.50825731 18.5218516,2.31621832 18.2845781,2.31621832 L14.2852188,2.31621832 C14.0479453,2.31621832 13.8555313,2.50825731 13.8555313,2.74506823 C13.8555313,3.38178168 13.3365547,3.89974659 12.6986406,3.89974659 C12.4613672,3.89974659 12.2689531,4.09178558 12.2689531,4.32859649 L12.2689531,12.8656686 L11.4296875,12.8656686 L11.4296875,0.85817154 L21.1403672,0.857699805 L21.1403672,21.0994152 Z M16.2849844,12.1732476 C15.6249414,12.1732476 15.0880039,11.6373138 15.0880039,10.9786004 C15.0880039,10.3198869 15.6249844,9.78391033 16.2849844,9.78391033 C16.9449844,9.78391033 17.4819648,10.3198441 17.4819648,10.9785575 C17.4819648,11.637271 16.9450273,12.1732476 16.2849844,12.1732476 Z" id="Shape" stroke="#98C03C" stroke-width="0.5"></path>
            </g>
        </g>
    </g>
</svg>