<?xml version="1.0" encoding="utf-8"?>
<!-- Generator: Adobe Illustrator 16.0.0, SVG Export Plug-In . SVG Version: 6.00 Build 0)  -->
<!DOCTYPE svg PUBLIC "-//W3C//DTD SVG 1.1//EN" "http://www.w3.org/Graphics/SVG/1.1/DTD/svg11.dtd">
<svg version="1.1" id="Layer_1" xmlns="http://www.w3.org/2000/svg" xmlns:xlink="http://www.w3.org/1999/xlink" x="0px" y="0px"
	 width="400px" height="291.667px" viewBox="0 0 400 291.667" enable-background="new 0 0 400 291.667" xml:space="preserve">
<rect x="-0.914" y="-0.667" fill="#E2E2E2" width="401.828" height="293"/>
<g opacity="0.2">
	<path id="Fill-7" d="M143.331,200.809c1.44-5.361,3.937-10.401,7.351-14.376c3.653-4.665,7.127-8.356,10.732-11.553
		c7.134-6.209,13.751-9.51,15.812-10.606c2.095-1.11,5.872-3.125,10.481-5.417c4.584-2.18,10.086-5.125,14.683-8.414
		c9.443-6.34,17.034-13.035,17.034-13.035s-8.355,5.69-18.315,10.935c-5.006,2.76-10.217,4.887-15.098,6.697
		c-4.795,1.901-8.824,3.69-11.023,4.835c-4.075,2.19-28.87,13.446-38.315,38.94c-1.545,4.952-2.389,9.887-2.826,14.647
		c2.352,2.393,4.822,4.696,7.423,6.843C141.132,214.137,141.555,207.355,143.331,200.809"/>
	<path id="Fill-9" d="M200.95,56.204c-51.694,0-93.601,41.491-93.601,92.681c0,18.414,5.461,35.579,14.807,50.031
		c-0.686-12.054,2.847-29.854,21.783-43.875c26.273-19.445,58.82-21.79,73.43-28.639c14.603-6.846,19.088-17.687,19.088-17.687
		s3.698,102.154-76.693,122.861c-0.337,0.039-0.621,0.039-0.925,0.059c12.681,6.347,26.973,9.939,42.111,9.939
		c51.69,0,93.622-41.491,93.622-92.689C294.572,97.694,252.641,56.204,200.95,56.204"/>
</g>
</svg>
