<?xml version="1.0" encoding="utf-8"?>
<!-- Generator: Adobe Illustrator 16.0.0, SVG Export Plug-In . SVG Version: 6.00 Build 0)  -->
<!DOCTYPE svg PUBLIC "-//W3C//DTD SVG 1.1//EN" "http://www.w3.org/Graphics/SVG/1.1/DTD/svg11.dtd">
<svg version="1.1" id="Layer_1" xmlns="http://www.w3.org/2000/svg" xmlns:xlink="http://www.w3.org/1999/xlink" x="0px" y="0px"
	 width="443px" height="200px" viewBox="0 55 443 200" enable-background="new 0 55 443 200" xml:space="preserve">
<title>1552731948_banner</title>
<desc>Created with Sketch.</desc>
<g id="Page-1">
	<g id="_x31_552731948_x5F_banner">
		
			<linearGradient id="Rectangle-Copy-6_1_" gradientUnits="userSpaceOnUse" x1="103.6567" y1="213.4063" x2="102.3016" y2="214.1192" gradientTransform="matrix(386 0 0 -251 -39512 53786.5)">
			<stop  offset="0" style="stop-color:#64DCC2"/>
			<stop  offset="1" style="stop-color:#70BCE6"/>
		</linearGradient>
		<rect id="Rectangle-Copy-6" x="-3" fill="url(#Rectangle-Copy-6_1_)" width="445" height="251"/>
		<path id="Rectangle" opacity="0.2203" fill="#FFFFFF" enable-background="new    " d="M73.5,121h81c3.59,0,6.5,2.91,6.5,6.5l0,0
			c0,3.59-2.91,6.5-6.5,6.5h-81c-3.59,0-6.5-2.91-6.5-6.5l0,0C67,123.91,69.91,121,73.5,121z"/>
		<path id="Rectangle-Copy" opacity="0.2203" fill="#FFFFFF" enable-background="new    " d="M181.5,157h81c3.59,0,6.5,2.91,6.5,6.5
			l0,0c0,3.59-2.91,6.5-6.5,6.5h-81c-3.59,0-6.5-2.91-6.5-6.5l0,0C175,159.91,177.91,157,181.5,157z"/>
		<path id="Rectangle-Copy-2" opacity="0.2961" fill="#FFFFFF" enable-background="new    " d="M281.5,108h81
			c3.59,0,6.5,2.91,6.5,6.5l0,0c0,3.59-2.91,6.5-6.5,6.5h-81c-3.59,0-6.5-2.91-6.5-6.5l0,0C275,110.91,277.91,108,281.5,108z"/>
		<path id="Rectangle-Copy-3" opacity="0.2961" fill="#FFFFFF" enable-background="new    " d="M113.5,204h81
			c3.59,0,6.5,2.91,6.5,6.5l0,0c0,3.59-2.91,6.5-6.5,6.5h-81c-3.59,0-6.5-2.91-6.5-6.5l0,0C107,206.91,109.91,204,113.5,204z"/>
		<path id="Rectangle-Copy-4" opacity="0.2961" fill="#FFFFFF" enable-background="new    " d="M267.5,191h81
			c3.59,0,6.5,2.91,6.5,6.5l0,0c0,3.59-2.91,6.5-6.5,6.5h-81c-3.59,0-6.5-2.91-6.5-6.5l0,0C261,193.91,263.91,191,267.5,191z"/>
		<g id="Carpentry" transform="translate(0.000000, 103.000000)">
			<g id="Group" transform="translate(20.000000, 0.000000)" opacity="0.5">
				<path id="Path" fill="#AFDCC9" d="M275.5,85.2c0,2.3-1,4.1-2.2,4.1H241.4c-1.2,0-2.2-1.8-2.2-4.1l0,0c0-2.3,1-4.101,2.2-4.101
					H273.3C274.5,81.1,275.5,82.9,275.5,85.2L275.5,85.2z"/>
				<path id="Path_1_" fill="#AFDCC9" d="M39.4,40.1c0,2.301-1.1,4.102-2.4,4.102H3c-1.3,0-2.4-1.801-2.4-4.102l0,0
					C0.6,37.8,1.7,36,3,36h34C38.3,35.9,39.4,37.8,39.4,40.1L39.4,40.1z"/>
				<path id="Path_2_" fill="#AFDCC9" d="M101.6,4.1c0,2.3-1.3,4.1-3,4.1h-43c-1.6,0-3-1.8-3-4.1l0,0c0-2.3,1.3-4.1,3-4.1h43
					C100.3,0,101.6,1.8,101.6,4.1L101.6,4.1z"/>
				<path id="Path_3_" fill="#AFDCC9" d="M201.5,53c0,2.3-1,4.1-2.3,4.1h-33.7c-1.3,0-2.3-1.8-2.3-4.1l0,0c0-2.3,1-4.1,2.3-4.1h33.7
					C200.5,48.9,201.5,50.7,201.5,53L201.5,53z"/>
				<path id="Path_4_" fill="#AFDCC9" d="M417.1,33.8c0,2.3-1.1,4.101-2.398,4.101h-35.3c-1.302,0-2.4-1.801-2.4-4.101l0,0
					c0-2.3,1.1-4.1,2.4-4.1h35.3C416,29.7,417.1,31.5,417.1,33.8L417.1,33.8z"/>
			</g>
			<rect id="Rectangle_1_" x="0.9" y="139.6" fill="#AAD1D3" width="441.4" height="10.602"/>
			<g id="Group_3_" transform="translate(314.000000, 4.000000)">
				<ellipse id="Oval" opacity="0.6" fill="#9D622D" enable-background="new    " cx="57.9" cy="137.8" rx="57.5" ry="1.5"/>
				<polygon id="Path_5_" fill="#9D622D" points="19.5,138.6 13,4 97.4,1.7 91.5,138.6 87.4,138.6 84.9,135.4 25.4,135.4 
					23.2,138.6 				"/>
				<polygon id="Path_6_" fill="#563622" points="90.8,10 18.9,11.9 25.5,130.8 86.6,130.8 				"/>
				<polygon id="Path_7_" opacity="0.2" fill="#563622" enable-background="new    " points="36.6,13.3 36.6,129.5 74.1,129.5 
					75.6,13.3 				"/>
				<polygon id="Path_8_" fill="#9D622D" points="20,12.6 50.6,11.8 52.5,130.3 26.1,130.3 				"/>
				<polygon id="Path_9_" opacity="0.5" fill="#AB734B" enable-background="new    " points="97.4,1.7 13,4 13.3,10.7 97.2,7.5 				
					"/>
				<polygon id="Path_10_" fill="#C6A861" points="101.2,2.8 9,6.1 9,3.5 101.1,0.2 				"/>
				<polygon id="Path_11_" opacity="0.1" fill="#563622" enable-background="new    " points="90.8,10 75.6,13.2 74.1,129.5 
					86.6,130.8 				"/>
				<g id="Path_15_" transform="translate(43.000000, 52.000000)">
					<polygon id="Path_12_" opacity="0.8" fill="#D4BA7E" enable-background="new    " points="7.3,30.1 1.9,30.1 0.9,0.3 6.3,0.3 
											"/>
					<polygon id="Path_13_" fill="#694328" points="6.1,26.5 1.7,26.5 0.9,0.3 5.3,0.3 					"/>
					<polygon id="Path_14_" fill="#563622" points="5.3,0.3 4.4,0.3 5.3,25.3 2.6,25.3 1.7,0.3 0.9,0.3 1.7,26.5 6.1,26.5 					"/>
				</g>
				<g id="Path_19_" transform="translate(87.000000, 26.000000)">
					<polygon id="Path_16_" fill="#9D622D" points="2.5,13.5 0.3,13.5 0.8,0.9 2.9,0.9 					"/>
					<g id="Group_1_" transform="translate(0.000000, 4.000000)" opacity="0.5">
						<polygon id="Path_17_" fill="#C6A861" points="2.8,0.4 0.7,0.4 0.7,0.7 2.8,0.7 						"/>
						<polygon id="Path_18_" fill="#C6A861" points="2.6,5.6 0.5,5.6 0.5,6 2.6,6 						"/>
					</g>
				</g>
				<g id="Path_23_" transform="translate(84.000000, 100.000000)">
					<polygon id="Path_20_" fill="#9D622D" points="2.9,12.6 0.8,12.6 1.1,0 3.3,0 					"/>
					<g id="Group_2_" transform="translate(0.000000, 3.000000)" opacity="0.5">
						<polygon id="Path_21_" fill="#C6A861" points="3.2,0.5 1,0.5 1,0.8 3.2,0.8 						"/>
						<polygon id="Path_22_" fill="#C6A861" points="3,5.7 0.9,5.7 0.9,6.1 3,6.1 						"/>
					</g>
				</g>
				<polygon id="Path_24_" fill="#9D622D" points="101.2,2.8 9,6.1 9,3.5 101.1,0.2 				"/>
				<polygon id="Path_25_" opacity="0.3" fill="#9D622D" enable-background="new    " points="9,3.5 9,4.8 101.1,1.5 101.1,0.2 				
					"/>
			</g>
			<g id="Group_5_" transform="translate(235.000000, 133.000000)">
				<g id="Group_4_">
					<rect id="Rectangle_2_" x="0.8" y="10.2" fill="#B67C3B" width="25.101" height="1.2"/>
					<polygon id="Path_26_" fill="#9D622D" points="0.8,10.2 5.3,5.7 20.8,5.7 25.9,10.2 					"/>
					<polygon id="Path_27_" opacity="0.6" fill="#9D622D" enable-background="new    " points="19.4,5.7 18.7,5.7 10.9,8.4 
						18.6,10.2 18.6,11.4 42.5,16.2 					"/>
					<g id="Path_30_" transform="translate(1.000000, 5.000000)" opacity="0.1">
						<path id="Path_28_" fill="#9D622D" d="M10.8,3.6c3.3,0,6.3,0.9,9.5,1.602H24.9L22.5,3.1c-1,0.102-2.1,0.2-3.1,0.2
							C14.5,3.3,14.1,2,9.9,2C5.5,2,3.8,3.5,1.6,3.5H1.5L0.2,4.8c0.2,0,0.3,0,0.5,0C2.3,4.8,7.3,3.6,10.8,3.6z"/>
						<path id="Path_29_" fill="#9D622D" d="M8.7,1.1c3.899,0,7.3,1,11,1c0.5,0,1.1,0,1.6-0.1l-1.6-1.4H4.2L3.5,1.3
							c0.1,0,0.1,0,0.2,0C3.7,1.4,6.3,1.1,8.7,1.1z"/>
					</g>
					<polygon id="Path_31_" fill="#9D622D" points="16.7,7 29.9,0.7 49.5,6.3 42.5,14.9 					"/>
					<polygon id="Path_32_" fill="#C5944A" points="16.7,7 16.7,8.3 42.5,16.2 42.5,14.9 					"/>
					<polygon id="Path_33_" fill="#B67C3B" points="42.5,14.9 49.5,6.3 49.5,7.4 42.5,16.2 					"/>
					<g id="Path_36_" transform="translate(21.000000, 0.000000)" opacity="0.1">
						<path id="Path_34_" fill="#9D622D" d="M25.2,10.3C17,9,8.1,5.1,4.3,2.9L0.5,4.7c3.2,1.2,13.6,7.899,22,8.899L25.2,10.3z"/>
						<path id="Path_35_" fill="#9D622D" d="M28.5,6.3L8.8,0.7L6.9,1.6C15.1,6,21.3,5,26.8,8.3L28.5,6.3z"/>
					</g>
				</g>
				<path id="Path_37_" fill="#563622" d="M50.6,14.4l-0.1,0.8c0,0-0.7-0.5-0.6-1.2c0.1-0.7,0.898-0.8,0.898-0.8l-0.1,0.7l3.4,0.699
					c0,0,0.2,0.301-0.1,0.5L50.6,14.4z"/>
				<g id="Path_40_" transform="translate(53.000000, 11.000000)">
					<path id="Path_38_" fill="#563622" d="M2.3,0.6C2.4,0.9,2.2,1.2,1.8,1.4C1.4,1.5,1.1,1.4,0.9,1.1C0.8,0.8,1,0.5,1.4,0.3
						C1.8,0.1,2.1,0.3,2.3,0.6z"/>
					<path id="Path_39_" fill="#563622" d="M1.5,1.1L2.1,2.2c0,0,0.102,0.1,0.301,0c0,0,0.101-0.101,0.101-0.2L1.9,0.9L1.5,1.1z"/>
				</g>
			</g>
			<g id="Group_12_" transform="translate(213.000000, 9.000000)">
				<g id="Path_50_">
					<g id="Group_6_">
						<path id="Path_41_" fill="#86A9A9" d="M3.1,24.1L3.2,15c0-0.4-0.1-0.7-0.3-1l0,0c-0.2-0.2-0.3-0.6-0.3-0.9v-5H1.9l0.1,16H3.1z
							"/>
						<path id="Path_42_" fill="#86A9A9" d="M0.8,24.1L0.7,15c0-0.4,0.1-0.7,0.3-1l0,0c0.2-0.2,0.3-0.6,0.3-0.9v-5H2l0.1,16H0.8z"/>
						<path id="Path_43_" fill="#86A9A9" d="M2,24.1h1.1L3.2,15c0-0.4-0.1-0.7-0.3-1l0,0c-0.2-0.2-0.3-0.6-0.3-0.9v-5H1.9H1.2v5
							c0,0.3-0.1,0.7-0.3,0.9l0,0c-0.2,0.3-0.3,0.6-0.3,1l0.1,9.1H2z"/>
						<path id="Path_44_" fill="#CAD7D6" d="M2.4,14.4c0.1,0.1,0.2,0.3,0.2,0.5l-0.1,8.5H1.6l-0.1-8.5c0-0.2,0-0.4,0.2-0.6
							C1.7,14.1,2.1,14.1,2.4,14.4z"/>
						<path id="Path_45_" fill="#F15A41" d="M2,11.2V0.8l0,0c0.5,0,1.6,0.4,1.6,0.8v7.3c0,0.8-0.2,1.6-0.6,2.3H2z"/>
						<path id="Path_46_" fill="#F47E6F" d="M2.5,3.3c0.3,0.1,0.7,0.3,0.7,0.4v5.5c0,0.5-0.1,1.1-0.4,1.5H2.4L2.5,3.3z"/>
						<path id="Path_47_" fill="#ED4B24" d="M2,11.2V0.8l0,0c-0.5,0-1.6,0.4-1.6,0.8v7.3c0,0.8,0.2,1.6,0.6,2.3H2z"/>
					</g>
					<g id="Group_7_" transform="translate(0.000000, 17.000000)" opacity="0.16">
						<g id="Path_48_" transform="translate(0.000000, 1.000000)">
							<g>
								<polygon fill="#CAD7D6" points="0.8,4.5 3.1,2.1 3.2,0.8 0.7,3.2 								"/>
							</g>
						</g>
						<g id="Path_49_">
							<polygon fill="#CAD7D6" points="0.7,3.6 3.2,1.2 3.2,0.3 0.7,2.7 							"/>
						</g>
					</g>
				</g>
				<g id="Path_60_" transform="translate(5.000000, 0.000000)">
					<g id="Group_8_">
						<path id="Path_51_" fill="#86A9A9" d="M2.2,21l0.2-8c0-0.3-0.1-0.6-0.2-0.9l0,0C2.1,11.9,2,11.6,2,11.3L2.1,7H1.6L1.4,21H2.2z
							"/>
						<path id="Path_52_" fill="#86A9A9" d="M0.6,21.1v-8c0-0.3,0.1-0.6,0.2-0.9l0,0C0.9,12,1,11.7,1,11.4l0.1-4.3h0.5l-0.2,14H0.6z
							"/>
						<path id="Path_53_" fill="#86A9A9" d="M1.4,21.1h0.8l0.2-8c0-0.3-0.1-0.6-0.2-0.9l0,0C2.1,12,2,11.7,2,11.4l0.1-4.3H1.6H1.1
							L1,11.4c0,0.3-0.1,0.6-0.2,0.8l0,0c-0.2,0.2-0.2,0.6-0.2,0.9v8H1.4z"/>
						<path id="Path_54_" fill="#CAD7D6" d="M1.8,12.6c0.1,0.1,0.1,0.3,0.1,0.5l-0.2,7.4H1v-7.4c0-0.2,0-0.4,0.1-0.5
							C1.4,12.4,1.7,12.4,1.8,12.6z"/>
						<path id="Path_55_" fill="#F15A41" d="M1.6,9.9l0.1-9.1l0,0c0.4,0,1.4,0.3,1.4,0.7L3,7.8c0,0.7-0.2,1.4-0.5,2L1.6,9.9z"/>
						<path id="Path_56_" fill="#F47E6F" d="M2.2,3c0.2,0.1,0.5,0.2,0.6,0.3L2.7,8c0,0.4-0.1,0.9-0.3,1.3H2.1L2.2,3z"/>
						<path id="Path_57_" fill="#ED4B24" d="M1.6,9.9l0.1-9.1l0,0c-0.4,0-1.4,0.3-1.4,0.7L0.2,7.8c0,0.7,0.2,1.4,0.5,2L1.6,9.9z"/>
					</g>
					<g id="Group_9_" transform="translate(0.000000, 15.000000)" opacity="0.16">
						<g id="Path_58_" transform="translate(0.000000, 1.000000)">
							<g>
								<polygon fill="#CAD7D6" points="0.6,3.7 2.3,1.6 2.3,0.4 0.6,2.6 								"/>
							</g>
						</g>
						<g id="Path_59_">
							<polygon fill="#CAD7D6" points="0.6,3.1 2.4,0.9 2.4,0.1 0.6,2.3 							"/>
						</g>
					</g>
				</g>
				<g id="Path_70_" transform="translate(9.000000, 0.000000)">
					<g id="Group_10_">
						<path id="Path_61_" fill="#86A9A9" d="M1.9,18.4l0.3-6.9c0-0.3,0-0.6-0.101-0.8l0,0C2,10.5,2,10.3,2,10l0.1-3.8H1.8L1.5,18.4
							H1.9z"/>
						<path id="Path_62_" fill="#86A9A9" d="M0.8,18.4L0.9,11.5c0-0.3,0.1-0.6,0.199-0.8l0,0C1.2,10.5,1.3,10.3,1.3,10L1.4,6.2h0.3
							L1.4,18.4H0.8z"/>
						<path id="Path_63_" fill="#86A9A9" d="M1.4,18.4h0.5l0.3-6.9c0-0.3,0-0.6-0.101-0.8l0,0C2,10.5,2,10.3,2,10l0.1-3.8H1.8H1.5
							L1.4,10c0,0.3-0.102,0.5-0.2,0.7l0,0C1.1,10.9,1,11.2,1,11.5l-0.1,6.9H1.4z"/>
						<path id="Path_64_" fill="#CAD7D6" d="M1.7,11.1c0,0.1,0.1,0.3,0.1,0.4l-0.2,6.4H1.2l0.1-6.4c0-0.2,0-0.3,0.101-0.4
							C1.5,10.9,1.6,10.9,1.7,11.1z"/>
						<path id="Path_65_" fill="#F15A41" d="M1.7,8.7l0.2-7.9l0,0C2.3,0.8,3.1,1.1,3.1,1.4L2.9,6.9c0,0.6-0.2,1.2-0.5,1.8H1.7
							L1.7,8.7z"/>
						<path id="Path_66_" fill="#F47E6F" d="M2.3,2.5c0.2,0,0.4,0.1,0.5,0.2L2.7,7.2C2.7,7.6,2.6,8,2.4,8.4H2.2L2.3,2.5z"/>
						<path id="Path_67_" fill="#ED4B24" d="M1.7,8.7l0.2-7.9l0,0c-0.4,0-1.2,0.3-1.2,0.7L0.5,7c0,0.6,0.1,1.2,0.4,1.8L1.7,8.7z"/>
					</g>
					<g id="Group_11_" transform="translate(0.000000, 13.000000)" opacity="0.16">
						<g id="Path_68_" transform="translate(0.000000, 1.000000)">
							<g>
								<polygon fill="#CAD7D6" points="0.9,3.3 2,1.4 2.1,0.4 0.9,2.3 								"/>
							</g>
						</g>
						<g id="Path_69_">
							<polygon fill="#CAD7D6" points="0.9,2.8 2.1,1 2.1,0.3 0.9,2.2 							"/>
						</g>
					</g>
				</g>
			</g>
			<g id="Group_20_" transform="translate(191.000000, 118.000000)">
				<g id="Path_78_" transform="translate(16.000000, 0.000000)">
					<g id="Group_13_" transform="translate(1.000000, 2.000000)">
						<path id="Path_71_" fill="#FBB043" d="M0.6,0.1L0.2,3.7L0,9c0,0,1.3,0.7,1,2.7c-0.3,2.1-0.9,7-0.8,7.8
							c0.1,0.6,0.4,1.9,0.7,2.8C1,22.7,1.4,22.9,1.8,22.8h0.1L2.1,0L0.6,0.1z"/>
						<path id="Path_72_" fill="#F79326" d="M1.8,22.9L2.9,22.6c0.4-0.1,0.6-0.5,0.5-0.898c-0.1-0.4-0.3-1.102-0.3-1.801
							C3,18.5,3.8,11.7,4,10.3C4.2,8.9,3.5,2.5,3.5,2.5L3.3,0.2H2L1.8,22.9z"/>
					</g>
					<g id="Group_14_">
						<path id="Path_73_" fill="#86A9A9" d="M7.9,1.6C6.7,2.4,5.3,2.8,3.9,2.8H0.4v3.4h3.3c1.6,0,3.2,0.5,4.5,1.5l0.3,0.2L8.6,1.3
							L7.9,1.6z"/>
						<path id="Path_74_" fill="#CAD7D6" d="M8.8,1l0.1,0.2c0.6,1.899,0.6,4,0.1,6L8.8,8l1.6,1.2l0.5-2c0.5-2,0.5-4.101-0.1-6
							L10.5,0L8.8,1z"/>
						<path id="Path_75_" fill="#86A9A9" d="M8.8,1.2L8.7,1L8.4,1.2L8.3,7.8L8.6,8l0.2-0.8C9.4,5.2,9.4,3.1,8.8,1.2z"/>
					</g>
					<g id="Group_15_" transform="translate(5.000000, 1.000000)" opacity="0.33">
						<g id="Path_76_">
							<path fill="#CAD7D6" d="M5.7,0.2L0.6,5.3C0.9,5.4,1.1,5.4,1.3,5.5l4.6-4.6C5.8,0.8,5.8,0.5,5.7,0.2z"/>
						</g>
						<g id="Path_77_" transform="translate(1.000000, 1.000000)">
							<g>
								<path fill="#CAD7D6" d="M5,0.4L0.7,4.7C0.9,4.8,1,4.8,1.2,4.9L5.1,1C5,0.8,5,0.6,5,0.4z"/>
							</g>
						</g>
					</g>
				</g>
				<g id="Group_16_" transform="translate(0.000000, 2.000000)">
					<g id="Path_81_" transform="translate(4.000000, 3.000000)">
						<path id="Path_79_" fill="#FBB043" d="M2.8,0.9l2.5,5C5.9,7,6.4,8.1,7.2,9.1l0,0C8,10,8.5,11.2,9.1,12.3l1.6,3.2l-1.4,0.7
							L1.9,1.4L2.8,0.9z"/>
						<path id="Path_80_" fill="#F79326" d="M9.3,16.1L8,16.8l-1.6-3.2c-0.6-1.1-1.3-2.1-1.6-3.3l0,0C4.5,9.1,3.9,8,3.4,6.9l-2.5-5
							l1-0.5L9.3,16.1z"/>
					</g>
					<g id="Path_85_">
						<path id="Path_82_" fill="#86A9A9" d="M1.5,2.8C1.7,3.2,2.2,3.4,2.6,3.2L2.9,3l0,0c-0.1-0.3,0-0.6,0.2-0.7L5.8,1
							c0.3-0.1,0.6,0,0.7,0.2l0,0l0.7-0.4l1,2L7.5,3.2l0,0c0.2,0.5,0,1.1-0.4,1.3L5.3,5.4C4.8,5.6,4.2,5.4,4,5l0,0L3.7,5.2
							C3.3,5.4,3.1,5.9,3.3,6.3l0,0L2,7L0.2,3.4L1.5,2.8L1.5,2.8z"/>
						<path id="Path_83_" fill="#86A9A9" d="M12.7,2.3L12.7,2.3C10.8,0.7,9.1,0,7.3,0.9l-1.8,1l1,1.898L8.1,3C9.4,2.3,11,2,12.7,2.3
							L12.7,2.3z"/>
						<path id="Path_84_" fill="#CAD7D6" d="M4.2,4.3l0.3,0.5C4.6,4.9,4.6,5,4.8,5C4.9,5,5,5,5.1,5l1.8-0.9C7.1,4,7.2,3.7,7.1,3.5
							L6.8,3L6.3,1.9l0,0C6.2,1.7,5.9,1.6,5.6,1.7L3.9,2.5C3.7,2.6,3.6,2.9,3.7,3.2l0,0L4.2,4.3z"/>
					</g>
					
						<rect id="Rectangle_3_" x="0.975" y="3.085" transform="matrix(0.893 -0.4501 0.4501 0.893 -1.9737 1.1707)" fill="#CAD7D6" width="1" height="3.3"/>
				</g>
				<g id="Path_95_" transform="translate(11.000000, 4.000000)">
					<g id="Group_17_">
						<path id="Path_86_" fill="#86A9A9" d="M6.2,22.8L4.1,14.4C4,14.1,4,13.7,4.2,13.4l0,0C4.3,13.1,4.4,12.8,4.3,12.5L3.2,7.9
							L3.8,7.8l3.4,14.8L6.2,22.8z"/>
						<path id="Path_87_" fill="#86A9A9" d="M8.4,22.3l-1.8-8.5c-0.1-0.3-0.2-0.7-0.5-0.899l0,0c-0.2-0.199-0.4-0.5-0.5-0.801
							L4.5,7.5L3.9,7.6L7.3,22.4L8.4,22.3z"/>
						<path id="Path_88_" fill="#86A9A9" d="M7.3,22.5l-1,0.2l-2.1-8.4c-0.1-0.3-0.1-0.7,0.1-1l0,0C4.4,13,4.5,12.7,4.4,12.4
							L3.3,7.8l0.6-0.1L4.5,7.6L5.6,12.2c0.1,0.3,0.2,0.6,0.5,0.8l0,0c0.3,0.2,0.4,0.5,0.5,0.9l1.8,8.5L7.3,22.5z"/>
						<path id="Path_89_" fill="#CAD7D6" d="M4.8,13.6c-0.1,0.2-0.1,0.301,0,0.5L6.7,21.9l0.9-0.2l-1.7-7.8c0-0.2-0.1-0.4-0.3-0.5
							C5.3,13.3,5,13.4,4.8,13.6z"/>
						<path id="Path_90_" fill="#F15A41" d="M4.5,10.7L2.3,1l0,0C1.9,1.1,0.9,1.7,1,2.1l1.6,6.7c0.2,0.8,0.5,1.5,1.1,2L4.5,10.7z"/>
						<path id="Path_91_" fill="#F47E6F" d="M2.3,3.4C2,3.5,1.7,3.8,1.7,3.9L2.9,9c0.1,0.5,0.3,1,0.7,1.3l0.3-0.1L2.3,3.4z"/>
						<path id="Path_92_" fill="#ED4B24" d="M4.5,10.7L2.3,1l0,0c0.4-0.1,1.5,0,1.6,0.4L5.5,8.1C5.7,8.9,5.7,9.6,5.5,10.4L4.5,10.7z
							"/>
					</g>
					<g id="Group_18_" transform="translate(4.000000, 16.000000)" opacity="0.16">
						<g id="Path_93_" transform="translate(1.000000, 1.000000)">
							<g>
								<polygon fill="#CAD7D6" points="3,3.8 0.3,2.1 0,0.9 2.8,2.6 								"/>
							</g>
						</g>
						<g id="Path_94_">
							<polygon fill="#CAD7D6" points="3.7,3.1 0.9,1.3 0.7,0.5 3.5,2.2 							"/>
						</g>
					</g>
				</g>
				<g id="Group_19_" transform="translate(3.000000, 9.000000)">
					<rect id="Rectangle_4_" x="1.9" y="1.3" fill="#D89655" width="19.6" height="1"/>
					<g id="Path_98_" transform="translate(1.000000, 16.000000)">
						<polygon id="Path_96_" fill="#D89655" points="0.2,3.8 20.2,4.1 20.4,4 0.7,0.4 0.3,0.5 						"/>
						<polygon id="Path_97_" fill="#FDC375" points="0.7,3.6 20.6,3.8 20.6,0.6 0.7,0.3 						"/>
					</g>
					<g id="Path_101_" transform="translate(1.000000, 12.000000)">
						<polygon id="Path_99_" fill="#D89655" points="0.2,4.1 20.2,4.4 20.4,4.3 0.7,0.7 0.3,0.8 						"/>
						<polygon id="Path_100_" fill="#FDC375" points="0.7,3.9 20.6,4.2 20.6,0.9 0.7,0.6 						"/>
					</g>
					<g id="Path_104_" transform="translate(1.000000, 8.000000)">
						<polygon id="Path_102_" fill="#D89655" points="0.2,4.5 20.2,4.7 20.4,4.6 0.7,1 0.3,1.2 						"/>
						<polygon id="Path_103_" fill="#FDC375" points="0.7,4.2 20.6,4.5 20.6,1.2 0.7,0.9 						"/>
					</g>
					<g id="Rectangle_7_" transform="translate(21.000000, 0.000000)">
						<rect id="Rectangle_5_" y="5.9" fill="#D89655" width="2.1" height="14.8"/>
						<rect id="Rectangle_6_" y="0.3" fill="#E5A66C" width="2.1" height="7.101"/>
					</g>
					<g id="Rectangle_10_">
						<rect id="Rectangle_8_" y="5.9" fill="#D89655" width="2.1" height="14.8"/>
						<rect id="Rectangle_9_" y="0.3" fill="#E5A66C" width="2.1" height="7.101"/>
					</g>
				</g>
			</g>
			<g id="Group_28_" transform="translate(37.000000, 58.000000)">
				<g id="Group_21_" transform="translate(4.000000, 0.000000)">
					<g transform="translate(9.000000, 0.000000)">
						<rect id="Rectangle_11_" x="0.1" y="11.9" fill="#178D8C" width="2.2" height="1.6"/>
						<path id="Path_105_" fill="#46C1C4" d="M2.3,14.1V4.8c0-2.3,1.8-4.1,4.1-4.1H18c2.3,0,4.1,1.8,4.1,4.1v9.3h-1.4V4.8
							c0-1.5-1.2-2.7-2.7-2.7H6.4c-1.5,0-2.7,1.2-2.7,2.7v9.3H2.3L2.3,14.1z"/>
						<rect id="Rectangle_12_" x="5.1" y="10.1" fill="#86A9A9" width="1" height="4.2"/>
						<rect id="Rectangle_13_" x="19.3" y="10.1" fill="#86A9A9" width="1" height="4.2"/>
						<polygon id="Path_106_" fill="#CAD7D6" points="4.7,13.5 20.4,13.5 20.2,14.3 20,14 19.8,14.3 19.5,14 19.3,14.3 19.1,14 
							18.9,14.3 18.7,14 18.4,14.3 18.2,14 18,14.3 17.8,14 17.5,14.3 17.3,14 17.1,14.3 16.9,14 16.6,14.3 16.4,14 16.2,14.3 
							16,14 15.7,14.3 15.5,14 15.3,14.3 15.1,14 14.9,14.3 14.6,14 14.4,14.3 14.2,14 14,14.3 13.7,14 13.5,14.3 13.3,14 
							13.1,14.3 12.8,14 12.6,14.3 12.4,14 12.2,14.3 11.9,14 11.7,14.3 11.5,14 11.3,14.3 11,14 10.8,14.3 10.6,14 10.4,14.3 
							10.1,14 9.9,14.3 9.7,14 9.5,14.3 9.2,14 9,14.3 8.8,14 8.6,14.3 8.3,14 8.1,14.3 7.9,14 7.7,14.3 7.4,14 7.2,14.3 7,14 
							6.8,14.3 6.5,14 6.3,14.3 6.1,14 5.9,14.3 5.6,14 5.4,14.3 5.2,14 4.9,14.3 4.7,14 						"/>
						<rect id="Rectangle_14_" x="3.5" y="12.1" fill="#178D8C" width="2.8" height="1.102"/>
						<rect id="Rectangle_15_" x="18.6" y="12.1" fill="#178D8C" width="2.8" height="1.102"/>
					</g>
					<g id="Path_109_" transform="translate(0.000000, 11.000000)">
						<path id="Path_107_" fill="#ED4B24" d="M11,1.7H0l0,0C0,2.4,0.5,3.1,1,3.1C4,3.5,7,2.3,9.9,2.7C10.6,2.8,11,2.4,11,1.7L11,1.7
							z"/>
						<path id="Path_108_" fill="#F15A41" d="M11,1.7c0-0.7-0.5-1.101-1-1C7,1.1,4-0.1,1.1,0.3c-0.6,0.101-1,0.8-1,1.4l0,0H11
							L11,1.7z"/>
					</g>
				</g>
				<g id="Group_27_" transform="translate(0.000000, 20.000000)">
					<g transform="translate(2.000000, 0.000000)">
						<g>
							<g>
								<path id="Path_110_" fill="#86A9A9" d="M1,6.7l3.1,16.7h0.6c0.8,0,1.4-0.602,1.4-1.4V7.5L1,6.7z"/>
								<path id="Path_111_" fill="#CAD7D6" d="M0.5,6.8C0.6,7.1,1,6.9,1,7.2C1.1,7.5,0.6,7.6,0.7,7.9C0.8,8.2,1.2,8,1.2,8.3
									C1.3,8.6,0.8,8.7,0.9,9s0.5,0.1,0.5,0.4C1.5,9.7,1,9.8,1.1,10.1C1.2,10.4,1.6,10.2,1.6,10.5c0.1,0.3-0.4,0.4-0.3,0.7
									c0.1,0.3,0.5,0.1,0.5,0.399C1.9,11.9,1.4,12,1.5,12.3S2,12.4,2,12.7C2.1,13,1.6,13.1,1.7,13.4c0.1,0.3,0.5,0.1,0.5,0.398
									c0.1,0.301-0.4,0.4-0.3,0.7s0.5,0.101,0.5,0.399C2.5,15.2,2,15.3,2.1,15.6C2.2,15.9,2.6,15.7,2.6,16
									c0.1,0.3-0.4,0.4-0.3,0.7C2.4,17,2.8,16.8,2.8,17.1c0.1,0.301-0.4,0.4-0.3,0.7S3,17.9,3,18.2c0.1,0.3-0.4,0.399-0.3,0.7
									C2.8,19.2,3.2,19,3.2,19.3c0.1,0.3-0.4,0.4-0.3,0.7s0.5,0.1,0.5,0.4C3.5,20.7,3,20.8,3.1,21.1C3.2,21.4,3.6,21.2,3.6,21.5
									c0.1,0.3-0.4,0.4-0.3,0.7c0.1,0.3,0.5,0.1,0.5,0.399C3.9,22.9,3.4,23,3.5,23.3L4,23.2l0.4-0.3L1.6,6.8l-1-1.1L0.5,6.8z"/>
								<path id="Shape" fill="#D23327" d="M5.5,1.5c0-0.3,0.4-0.6,0.7-0.5h0.1c0.4,0,0.6,0.4,0.5,0.8l0,0C6.7,2.3,6.7,2.9,6.9,3.4
									c0,0.1,0,0.199,0,0.3v3.1c0,0.9-0.7,1.7-1.7,1.8L3.1,8.7c-0.5,0-1-0.2-1.3-0.601L0.5,6.3C0.4,6.1,0.3,5.9,0.3,5.6V3.8
									c0-0.3,0.1-0.6,0.3-0.8c0-0.3-0.1-0.6-0.2-0.9C0.3,1.8,0.5,1.6,0.8,1.6c0.2,0,0.4,0,0.5-0.1c0.2,0,0.4,0.1,0.5,0.4l0,0
									C1.9,2.3,2.2,2.7,2.7,2.7h1.6C4.9,2.5,5.4,2.1,5.5,1.5L5.5,1.5z M1.9,5.6l0.2,0.2C2.7,6.6,3.7,7.1,4.7,7l0,0
									c0.5,0,0.9-0.4,0.9-0.9V5.2c0,0,0-0.2-0.1-0.4C5.4,4.3,5,3.9,4.5,3.9H2.8c-0.6,0-1,0.5-1,1l0,0C1.7,5.2,1.8,5.5,1.9,5.6z"/>
							</g>
							<g id="Path_114_" transform="translate(2.000000, 13.000000)" opacity="0.34">
								<g id="Group_22_" transform="translate(0.000000, 2.000000)">
									<g id="Path_112_">
										<path fill="#CAD7D6" d="M1.1,3.3C1.2,3.6,0.7,3.7,0.8,4c0,0.2,0.3,0.2,0.4,0.3L4.1,1.4V0.1L1.1,3.3L1.1,3.3z"/>
									</g>
								</g>
								<g id="Group_23_">
									<path id="Path_113_" fill="#CAD7D6" d="M0.9,4.2C1,4.5,0.5,4.6,0.6,4.9C0.6,5,0.6,5,0.7,5l3.5-3.5V0.6L0.9,3.9
										C0.8,4.1,0.9,4.1,0.9,4.2z"/>
								</g>
							</g>
						</g>
						<g id="Path_122_" transform="translate(11.000000, 1.000000)">
							<g id="Group_24_" transform="translate(5.000000, 1.000000)">
								<path id="Path_115_" fill="#FBB043" d="M4,0.9L4.4,4.1L4.5,8.9c0,0-1.2,0.6-0.9,2.5c0.3,1.898,0.8,6.3,0.7,7
									c-0.1,0.5-0.4,1.8-0.6,2.5c-0.1,0.398-0.5,0.6-0.8,0.5H2.8V1L4,0.9z"/>
								<path id="Path_116_" fill="#F79326" d="M2.6,21.5l-1-0.3C1.2,21.1,1,20.7,1.1,20.4c0.1-0.4,0.3-1,0.3-1.602
									c0.1-1.3-0.6-7.398-0.7-8.6C0.6,9,1.2,3.1,1.2,3.1L1.4,1h1.2V21.5L2.6,21.5z"/>
							</g>
							<g id="Group_25_">
								<path id="Path_117_" fill="#86A9A9" d="M3.3,1.5c1.1,0.7,2.3,1,3.6,1H10v3H7C5.5,5.5,4.1,6,3,6.9L2.8,7.1V1.2L3.3,1.5z"/>
								<path id="Path_118_" fill="#CAD7D6" d="M2.5,1v0.2C2,3,1.9,4.8,2.4,6.6l0.2,0.7L1.2,8.4L0.8,6.6C0.4,4.8,0.4,3,0.9,1.2
									L1.2,0.1L2.5,1z"/>
								<path id="Path_119_" fill="#86A9A9" d="M2.4,1.2V1l0.3,0.2V7.1L2.4,7.3L2.2,6.6C1.9,4.8,1.9,2.9,2.4,1.2z"/>
							</g>
							<g id="Group_26_" transform="translate(0.000000, 1.000000)" opacity="0.33">
								<g id="Path_120_">
									<path fill="#CAD7D6" d="M0.7,0.2l4.6,4.6C5.1,4.9,4.8,4.9,4.6,5L0.5,0.9C0.6,0.7,0.7,0.5,0.7,0.2z"/>
								</g>
								<g id="Path_121_" transform="translate(0.000000, 1.000000)">
									<g>
										<path fill="#CAD7D6" d="M0.5,0.3l3.9,3.9C4.3,4.3,4.1,4.3,4,4.4L0.5,0.9C0.4,0.7,0.5,0.5,0.5,0.3z"/>
									</g>
								</g>
							</g>
						</g>
						<g transform="translate(22.000000, 2.000000)">
							<g id="Path_125_" transform="translate(6.000000, 3.000000)">
								<path id="Path_123_" fill="#FBB043" d="M0.8,1v6c0,1.3,0,2.6-0.3,3.9l0,0c-0.3,1.3-0.3,2.6-0.3,3.898V18.6h1.6V1H0.8z"/>
								<path id="Path_124_" fill="#F79326" d="M1.9,18.5h1.5v-3.8c0-1.3,0.2-2.601-0.1-3.9l0,0C3,9.5,3,8.2,3,6.9v-6H1.8v17.6H1.9z
									"/>
							</g>
							<g id="Path_129_">
								<path id="Path_126_" fill="#86A9A9" d="M11.3,0.4c0,0.5-0.4,0.898-0.9,0.898H10l0,0C10,1,9.8,0.8,9.5,0.8H6.3
									C6,0.8,5.8,1,5.8,1.3l0,0H5v2.4h0.9l0,0c0,0.6,0.5,1.1,1.1,1.1h2c0.6,0,1.1-0.5,1.1-1.1l0,0h0.4C11,3.7,11.4,4.1,11.4,4.6
									l0,0h1.5V0.4H11.3L11.3,0.4z"/>
								<path id="Path_127_" fill="#86A9A9" d="M0.5,5.2L0.5,5.2c1-2.5,2.3-3.9,4.4-3.9L7.1,1.4v2.3H5.3C3.6,3.7,1.9,4.2,0.5,5.2
									L0.5,5.2z"/>
								<path id="Path_128_" fill="#CAD7D6" d="M9.5,3.1V3.7c0,0.1,0,0.2-0.1,0.3S9.2,4.1,9.1,4.1H7C6.7,4.1,6.5,3.9,6.5,3.6V3V1.7
									l0,0c0-0.3,0.2-0.5,0.5-0.5h2c0.3,0,0.5,0.2,0.5,0.5l0,0V3.1L9.5,3.1z"/>
							</g>
							<rect id="Rectangle_16_" x="11.9" y="0.5" fill="#CAD7D6" width="1" height="3.5"/>
						</g>
					</g>
					
						<rect id="Rectangle_17_" x="0.8" y="26.396" transform="matrix(0.9999 -0.0116 0.0116 0.9999 -0.328 0.2338)" fill="#FDC375" stroke="#000000" stroke-width="0.5" width="38.398" height="3.999"/>
				</g>
			</g>
			<g id="Group_31_" transform="translate(66.000000, 20.000000)">
				<g id="Group_29_" transform="translate(15.000000, 0.000000)">
					<g id="Shape_3_">
						<path id="Shape_1_" fill="#5D8986" d="M2.7,1.6c0.1,0.7,0.8,1.1,1.4,0.9c0,0,0,0,0.1,0l2.9,9.4v-0.2C6.9,8.8,6.3,6,5.5,3.2
							l-0.6-2l0,0l0,0C4.7,0.6,4,0.3,3.4,0.6C2.9,0.8,2.7,1.2,2.7,1.6z M3.3,1.7C3.2,1.4,3.4,1.1,3.6,1.1C3.9,1,4.2,1.2,4.2,1.4
							C4.3,1.7,4.1,2,3.9,2C3.7,2.1,3.4,2,3.3,1.7z"/>
						<path id="Shape_2_" fill="#6F9998" d="M4.3,0.6C3.7,0.3,3,0.6,2.8,1.2l0,0l0,0l-0.6,2C1.4,6,0.9,8.8,0.7,11.7v0.2l2.8-9.4
							c0,0,0,0,0.1,0C4.2,2.7,4.9,2.3,5,1.6C4.9,1.2,4.7,0.8,4.3,0.6z M3.6,2C3.3,1.9,3.2,1.6,3.3,1.4C3.4,1.1,3.7,1,3.9,1.1
							c0.3,0.1,0.4,0.4,0.3,0.6C4.2,2,3.9,2.1,3.6,2z"/>
					</g>
					<path id="Shape_4_" fill="#AACECC" d="M6.7,1.3L6.7,1.3C6.4,1.3,6.1,1.5,6,1.9C5.7,3.2,4.6,4.1,3.3,4.1c-0.2,0-0.4,0-0.6-0.1
						C2.4,3.9,2,4.1,1.9,4.4l0,0C1.7,4.8,2,5.3,2.4,5.4C2.7,5.5,3,5.5,3.3,5.5c2,0,3.7-1.5,4.1-3.4C7.5,1.7,7.2,1.3,6.7,1.3z M7,2
						C6.6,3.8,5.1,5,3.3,5C3,5,2.7,5,2.5,4.9c-0.1,0-0.2-0.1-0.2-0.2c0,0-0.1-0.1,0-0.3l0,0c0-0.1,0.2-0.2,0.3-0.2c0,0,0,0,0.1,0
						c0.2,0.1,0.5,0.1,0.7,0.1c1.5,0,2.8-1.1,3.1-2.6c0-0.1,0.1-0.2,0.3-0.2l0,0C6.9,1.5,7,1.6,7,1.6C7,1.8,7.1,1.9,7,2z"/>
					<g transform="translate(1.000000, 3.000000)">
						<path id="Path_130_" fill="#5D8986" d="M1.8,1.7c0-0.3-0.2-0.5-0.5-0.5C1,1.2,0.8,1.4,0.8,1.7C0.8,2,1,2.2,1.3,2.2
							C1.5,2.2,1.8,2,1.8,1.7z"/>
						<path id="Shape_5_" fill="#86A9A9" d="M1.3,2.6C0.8,2.6,0.4,2.2,0.4,1.7s0.4-0.9,0.9-0.9s0.9,0.4,0.9,0.9
							C2.1,2.2,1.7,2.6,1.3,2.6z M1.3,1.5c-0.1,0-0.2,0.1-0.2,0.2c0,0.1,0.1,0.2,0.2,0.2c0.1,0,0.2-0.1,0.2-0.2
							C1.4,1.6,1.4,1.5,1.3,1.5z"/>
						<path id="Shape_6_" fill="#AACECC" d="M1.3,2.4C0.9,2.4,0.6,2.1,0.6,1.7C0.6,1.3,0.9,1,1.3,1C1.7,1,2,1.3,2,1.7
							C1.9,2.1,1.6,2.4,1.3,2.4z M1.3,1.3c-0.2,0-0.4,0.2-0.4,0.4C0.9,1.9,1.1,2.1,1.3,2.1c0.2,0,0.4-0.2,0.4-0.399
							C1.6,1.5,1.5,1.3,1.3,1.3z"/>
					</g>
				</g>
				
					<rect id="Rectangle_18_" x="0.6" y="13.999" transform="matrix(0.9999 -0.0116 0.0116 0.9999 -0.1804 0.1633)" fill="#FDC375" stroke="#000000" stroke-width="0.5" width="26.798" height="3.299"/>
				<g id="Group_30_" transform="translate(1.000000, 1.000000)">
					<path id="Shape_7_" fill="#5278BC" d="M11.1,10.5L0.9,10.3L1,0.1L11.1,10.5z M2.8,8.4l3.6,0.1L2.9,4.9L2.8,8.4z"/>
					<g id="Path_139_" transform="translate(1.000000, 9.000000)">
						<polygon id="Path_131_" fill="#FFFFFF" points="0.6,1.3 0.4,1.3 0.5,0.3 0.6,0.3 						"/>
						<polygon id="Path_132_" fill="#FFFFFF" points="1.7,1.4 1.5,1.4 1.5,0.8 1.7,0.8 						"/>
						<polygon id="Path_133_" fill="#FFFFFF" points="2.7,1.4 2.5,1.4 2.6,0.3 2.7,0.3 						"/>
						<polygon id="Path_134_" fill="#FFFFFF" points="3.8,1.4 3.6,1.4 3.6,0.8 3.8,0.8 						"/>
						<polygon id="Path_135_" fill="#FFFFFF" points="4.8,1.4 4.6,1.4 4.6,0.3 4.8,0.3 						"/>
						<polygon id="Path_136_" fill="#FFFFFF" points="5.8,1.4 5.7,1.4 5.7,0.8 5.9,0.8 						"/>
						<polygon id="Path_137_" fill="#FFFFFF" points="6.9,1.5 6.7,1.4 6.7,0.4 6.9,0.4 						"/>
						<polygon id="Path_138_" fill="#FFFFFF" points="7.9,1.5 7.8,1.5 7.8,0.9 7.9,0.9 						"/>
					</g>
				</g>
			</g>
			<g id="Group_36_" transform="translate(211.000000, 60.000000)">
				<g id="Group_32_" transform="translate(2.000000, 11.000000)">
					<polygon id="Path_140_" fill="#F79326" points="14.5,8.8 10.9,8.9 10.9,8.6 14.5,8.5 					"/>
					<path id="Path_141_" fill="#AACECC" d="M9.9,2.9L9.7,3.2L7,0.6L7.3,0.4C7.5,0.3,7.9,0.3,8.1,0.5l0,0c0.1,0.1,0.3,0.2,0.5,0.2
						h0.1c0.2,0,0.399,0,0.5,0.2L9.3,1C9.4,1.1,9.5,1.3,9.5,1.5v0.1c0,0.2,0.1,0.4,0.2,0.5l0,0C10,2.3,10,2.6,9.9,2.9z"/>
					<path id="Path_142_" fill="#ED4B24" d="M10.2,4.9C10.3,7.5,8.1,9.7,5.5,9.8C2.8,9.9,0.7,7.7,0.6,5.1C0.5,2.5,2.7,0.3,5.3,0.2
						C8,0.1,10.2,2.2,10.2,4.9z"/>
					<path id="Path_143_" fill="#ED4B24" d="M11.2,7.9v1c0,0.398-0.3,0.8-0.7,0.8L1.4,9.9C1,9.9,0.6,9.6,0.6,9.2l-0.1-4L10.1,5v1.5
						c0.2,0.2,0.4,0.4,0.602,0.6C11.1,7.2,11.2,7.5,11.2,7.9z"/>
					<path id="Path_144_" fill="#6F9998" d="M14.8,10.1h-0.2V8.8c0-0.1-0.1-0.2-0.199-0.2h-0.899V8.4H14.4
						c0.301,0,0.5,0.199,0.5,0.398L14.8,10.1z"/>
					<g transform="translate(2.000000, 1.000000)">
						<path id="Path_145_" fill="#D23327" d="M6.2,3.9c0,1.5-1.2,2.8-2.7,2.8S0.7,5.5,0.7,4s1.2-2.8,2.7-2.8S6.1,2.4,6.2,3.9z"/>
						<path id="Shape_8_" fill="#F26A55" d="M3.5,7.2C1.7,7.2,0.2,5.8,0.2,4s1.4-3.3,3.2-3.3c1.8,0,3.3,1.399,3.3,3.2
							C6.7,5.7,5.3,7.2,3.5,7.2z M3.4,1.7C2.1,1.7,1.1,2.8,1.2,4c0,1.3,1.1,2.3,2.3,2.2c1.3,0,2.3-1.101,2.2-2.3
							C5.7,2.7,4.6,1.7,3.4,1.7z"/>
					</g>
				</g>
				
					<rect id="Rectangle_19_" x="0.295" y="21.297" transform="matrix(0.9999 -0.0116 0.0116 0.9999 -0.2782 0.2101)" fill="#FDC375" stroke="#000000" stroke-width="0.5" width="35.297" height="5.5"/>
				<g id="Path_152_" transform="translate(18.000000, 0.000000)">
					<g id="Group_33_" transform="translate(0.000000, 1.000000)">
						<g id="Path_146_">
							<path fill="#ED4B24" d="M6.3,16.6l-0.6,0.2C5.4,16.9,5.1,16.7,5,16.4L0.8,3.9L0.7,3.5l1.1-0.4L6.3,16.6z"/>
							<path fill="#ED4B24" d="M1.9,3.4L1.5,3.5L0.6,0.9C0.5,0.7,0.6,0.4,0.9,0.4l0,0L1.9,3.4z"/>
							<path fill="#F79326" d="M1.5,3.6C1.4,3.6,1.4,3.4,1.1,3.5C1,3.5,1,4,0.8,3.8S0.6,3.5,0.6,3.5L0.7,1.4L1.1,1.3l0.7,2
								C1.9,3.4,1.8,3.5,1.5,3.6z"/>
						</g>
						<g id="Path_147_">
							<path fill="#F15A41" d="M6.3,16.6L6.9,16.4C7.2,16.3,7.4,16,7.3,15.7L3.1,3.2L3,2.8L1.9,3.2L6.3,16.6z"/>
							<path fill="#F15A41" d="M1.9,3.4L2.3,3.3L1.4,0.7C1.3,0.5,1.1,0.4,0.9,0.4l0,0L1.9,3.4z"/>
							<path fill="#FBB043" d="M2.3,3.4c0.101,0,0-0.2,0.2-0.301C2.6,3.1,2.9,3.4,2.9,3.2c0-0.3,0-0.4,0-0.4L1.5,1.2L1.1,1.3l0.7,2
								C1.9,3.4,2,3.5,2.3,3.4z"/>
						</g>
					</g>
					<g id="Group_34_" transform="translate(5.000000, 0.000000)">
						<g id="Path_148_">
							<path fill="#4471B7" d="M1.7,21H1c-0.4,0-0.7-0.4-0.7-0.7l0.9-16V3.8L2.6,3.9L1.7,21z"/>
							<path fill="#4471B7" d="M2.6,4.2H2.1l0.2-3.3c0-0.301,0.3-0.5,0.5-0.5l0,0L2.6,4.2z"/>
							<path fill="#F79326" d="M2.1,4.3C2,4.3,2,4.1,1.7,4C1.6,4,1.4,4.5,1.3,4.2C1.2,3.9,1.2,3.8,1.2,3.8l1.1-2.3h0.5L2.7,4.1
								C2.6,4.1,2.5,4.3,2.1,4.3z"/>
						</g>
						<g id="Path_149_" transform="translate(1.000000, 0.000000)">
							<path fill="#5278BC" d="M0.7,21h0.7C1.8,21,2.1,20.7,2.1,20.3L3,4.3V3.8L1.6,3.7L0.7,21z"/>
							<path fill="#5278BC" d="M1.6,4.2h0.5l0.2-3.3c0-0.301-0.2-0.5-0.5-0.5l0,0L1.6,4.2z"/>
							<path fill="#FBB043" d="M2.1,4.3C2.2,4.3,2.2,4.1,2.5,4.1c0.1,0,0.3,0.5,0.4,0.2C3,4,3,3.9,3,3.9L2.2,1.5H1.7L1.6,4.1
								C1.6,4.1,1.7,4.3,2.1,4.3z"/>
						</g>
					</g>
					<g id="Group_35_" transform="translate(1.000000, 9.000000)">
						<polygon id="Path_150_" fill="#F15A41" points="5.4,11.7 2.8,11.7 0.8,0.8 5.4,0.8 						"/>
						<polygon id="Path_151_" fill="#CD2927" points="5.4,11.7 7.9,11.7 9.9,0.8 5.4,0.8 						"/>
					</g>
				</g>
			</g>
			<polygon id="Path_153_" fill="none" stroke="#000000" stroke-width="0.5" points="411.4,6.9 405.5,142.6 401.4,142.6 
				398.9,139.4 339.4,139.4 337.2,142.6 333.5,142.6 327.1,10 			"/>
			<polygon id="Path_154_" fill="none" stroke="#000000" stroke-width="0.5" points="334,16.6 364.6,15.8 366.5,134.3 340.1,134.3 
							"/>
			<polygon id="Path_155_" fill="none" stroke="#000000" stroke-width="0.5" points="415.2,6.8 411.4,6.9 327.1,10 323,10.1 
				323,7.5 415.1,4.2 			"/>
			<path id="Path_156_" opacity="0.3" fill="none" stroke="#000000" stroke-width="0.5" enable-background="new    " d="M323,8.8
				l92.1-3.3"/>
			<rect id="Rectangle_20_" x="195.9" y="128.3" fill="#D89655" stroke="#000000" stroke-width="0.5" width="19.6" height="1"/>
			<polygon id="Path_157_" fill="#FDC375" stroke="#000000" stroke-width="0.5" points="195.7,146.6 215.6,146.8 215.6,143.6 
				195.7,143.3 			"/>
			<polygon id="Path_158_" fill="#FDC375" stroke="#000000" stroke-width="0.5" points="195.7,142.9 215.6,143.2 215.6,139.9 
				195.7,139.6 			"/>
			<polygon id="Path_159_" fill="#FDC375" stroke="#000000" stroke-width="0.5" points="195.7,139.2 215.6,139.5 215.6,136.2 
				195.7,135.9 			"/>
			<g id="Group_37_" transform="translate(215.000000, 127.000000)">
				<rect id="Rectangle_21_" y="5.9" fill="#D89655" stroke="#000000" stroke-width="0.5" width="2.1" height="14.8"/>
				<rect id="Rectangle_22_" y="0.3" fill="#E5A66C" stroke="#000000" stroke-width="0.5" width="2.1" height="7.101"/>
			</g>
			<g id="Group_38_" transform="translate(194.000000, 127.000000)">
				<rect id="Rectangle_23_" y="5.9" fill="#D89655" stroke="#000000" stroke-width="0.5" width="2.1" height="14.8"/>
				<rect id="Rectangle_24_" y="0.3" fill="#E5A66C" stroke="#000000" stroke-width="0.5" width="2.1" height="7.101"/>
			</g>
			<g id="Group_39_" transform="translate(84.000000, 2.000000)">
				<path id="Path_160_" fill="#273339" d="M14.2,76.9c-0.1,0-0.3,0-0.4,0l0.1-0.602c3.4,0.4,7.3-5,10.4-9.3c1.6-2.2,2.9-4,4-4.8
					c3.2-2.4,6.5-0.602,6.5-0.602l-0.3,0.5c-0.1-0.1-3-1.6-5.9,0.5c-1,0.7-2.3,2.602-3.9,4.7C21.6,71.6,17.7,76.9,14.2,76.9z"/>
				<path id="Path_161_" fill="#273339" d="M37,62.8c0,0-1.9-1.3-2.3-1.2c0,0-0.4,0.4-0.3,0.602s1.1,1.1,1.6,1.5L37,62.8z"/>
				<path id="Path_162_" fill="#273339" d="M68.7,14c0.7-2.7,2.8-4.5,4.7-4s3,3.1,2.3,5.8c-0.7,2.7-2.8,4.5-4.7,4S68.1,16.7,68.7,14
					z"/>
				<polygon id="Path_163_" fill="#006836" points="85.2,70.9 78.7,53.9 78.7,30.7 70.3,41.1 69.1,56.3 69.8,58.7 81.2,72.6 				"/>
				<polygon id="Path_164_" fill="#434343" points="65.8,71.4 38.9,70.1 38.2,148.9 43.9,148.9 50.2,87.6 54.7,87.5 65.5,148.9 
					70.9,148.9 				"/>
				<polygon id="Path_165_" opacity="0.3" fill="#434343" enable-background="new    " points="65.8,71.4 38.9,70.1 38.5,110.7 
					47.8,110.7 50.2,87.6 54.7,87.5 58.8,110.7 68.4,110.7 				"/>
				<path id="Path_166_" fill="#006836" d="M38.2,74.6V53.4L45.5,25.6l33.2,5.2L68.6,57.3l-2.1,17.4C57.9,77.1,49.9,76.8,38.2,74.6z
					"/>
				<path id="Path_167_" fill="#384850" d="M47.4,37.4l24.1,3c0,0-1.7,7-1.5,13l-1.5,3.8L66.4,74.6L68.3,99.2l-31.1-1l-1-23.601
					l1.6-21.301C37.9,53.3,43.4,48.2,47.4,37.4z"/>
				<path id="Path_168_" fill="#006836" d="M45.5,25.6l18.9-1.5l14.3,6.7C78.7,30.7,47.5,29.3,45.5,25.6z"/>
				<path id="Path_169_" fill="#B0BEC5" d="M83,74.6c0,0,0.7,1,2.5,1c1.8,0.102,8.9,0,8.9,0s-1.8-1.699-3.1-2.5
					c-1.3-0.8-4-1.1-5.5-1.699C85.9,71.4,82.8,72.7,83,74.6z"/>
				<path id="Path_170_" fill="#90A4AE" d="M92.1,75.6c0,0-1.5-1.1-3.6-0.8l0.6,0.8H92.1z"/>
				<polygon id="Path_171_" fill="#B0BEC5" points="80.5,72.6 83.1,74.7 86.1,72.6 85.9,69.9 				"/>
				<polygon id="Path_172_" fill="#006836" points="45.5,25.6 20,45.6 20,51 39.6,58.7 42,55 34.3,48.5 42.8,43.3 45.5,26.2 				"/>
				<path id="Path_173_" opacity="0.3" fill="#4896A3" enable-background="new    " d="M20,45.6V51l8,3.1l7.2-4.898l-0.8-0.7
					l6.1-3.7L38.4,53c0,0,3.6-3.8,6.4-9.4c-0.3-0.6-2.5-5.5-2.5-5.5l-10.8,8L28,44.2l3.5,4.5l-4.3,3l-6-1.7L20,45.6z"/>
				<polygon id="Path_174_" fill="#D0D9DC" points="43.4,56 39.4,52.5 36.3,57.9 39.7,58.9 				"/>
				<polygon id="Path_175_" fill="#FCB74E" points="39.3,52.7 35.1,49.2 28,54.1 36.5,57.5 				"/>
				<polygon id="Path_176_" fill="#FCB74E" points="81,72.4 85,70.4 79.9,56.9 72,61.4 				"/>
				<path id="Path_177_" fill="#FAA32C" d="M54.6,24.9c0,0,3.9,4.3,8.4,4.699c4.5,0.4,8.1-2.399,8.1-2.399L64.4,24.1L54.6,24.9z"/>
				<polygon id="Path_178_" fill="#2F160C" points="78.3,9.7 75.3,14.9 76.6,9.4 				"/>
				<path id="Path_179_" fill="#FAA32C" d="M68.2,25.9c0,0,0.7-2.5,2.6-8.2l-9.1-3.8c0,0-0.8,7.1-4.2,10.7
					C57.6,24.6,63.5,29.6,68.2,25.9z"/>
				<path id="Path_180_" fill="#2F160C" d="M60.8,17.2c-1.1-1.3-0.6-7.1,0.7-12.6c0.9-3.8,3.9-4.3,4.9-3.8c1,0,3-0.1,5.3-0.1
					c6.9-0.1,7.5,6,6.8,8.5c-0.4,1.5-2,1.8-3.1,2.2C70.5,13.5,61.9,18.5,60.8,17.2z"/>
				<path id="Path_181_" fill="#FCB74E" d="M60.5,18c-0.2,1.2,2.4,4.3,3.5,5.7c0.7,0.8,1.9,1.1,2.8,1.1c0.9,0.101,4.9-1.6,5.8-3.7
					c1-2.3,4.8-11.6,4.8-11.6L64.3,4.9C64.4,4.9,60.7,16.8,60.5,18z"/>
				<path id="Path_182_" fill="#2F160C" d="M69.4,6.7c0,0-2.9-0.5-4.1,0.8c-1.1,1.3-2.1,5.5-2.1,5.5l-1.1-0.6l0.3-5.6l2.5-3.5l5.2,2
					L69.4,6.7z"/>
				<g id="Path_185_" transform="translate(59.000000, 9.000000)">
					<path id="Path_183_" fill="#FCB74E" d="M3.8,4c-0.5,1.5-1.1,2.6-2,2.2c-0.9-0.3-1.9-2-1.4-3.4c0.5-1.5,1.7-2.4,2.6-2
						C4,1.1,4.3,2.5,3.8,4z"/>
					<path id="Path_184_" fill="#FAA32C" d="M3.1,3.7C2.8,4.5,2.5,5.2,2,5S0.9,3.9,1.2,3.1c0.3-0.8,0.9-1.3,1.5-1.2
						C3.2,2.1,3.4,2.9,3.1,3.7z"/>
				</g>
				<polygon id="Path_186_" fill="#273339" points="64.8,10.5 60.8,9.6 60.6,10.5 64.2,12.1 				"/>
				<path id="Path_187_" fill="#2F160C" d="M68.2,6.3c0,0,3.1,3.3,8.6,2.8C76.9,9.1,72,5.3,68.2,6.3z"/>
				<path id="Path_188_" fill="#2F160C" d="M78,0.8c0,0,4.3,5.3-3.4,7.2l0.8-6.7C75.3,1.3,77.5,1.9,78,0.8z"/>
				<path id="Path_189_" fill="#2F160C" d="M76.3,9.1c0,0,1.1,0.9,0.3,2.7L78,9.5l-0.5-0.9L76.3,9.1z"/>
				<path id="Path_190_" fill="#2F160C" d="M78.3,6.8c0,0,1.9-1.1,1.3-3.6c0,0,1.6,2.2-1,4.4L78.3,6.8z"/>
				<path id="Path_191_" fill="#2F160C" d="M69.5,6.5c0,0,0.8,2.5,5.8,3.4c0,0-5.6,0.3-6.7-3.4H69.5z"/>
				
					<rect id="Rectangle_25_" x="70.072" y="6.487" transform="matrix(0.3292 -0.9443 0.9443 0.3292 35.3116 75.1821)" fill="#273339" width="1.001" height="12.5"/>
				<path id="Path_192_" opacity="0.3" fill="#0DBCD4" enable-background="new    " d="M76.3,15.3c0,0-1.3,4-3.7,3.5s-1.8-2.6-2.8-3
					c-1-0.4-1.9,1.8-4.5,0.6c-2.3-1-1.2-4.2-0.8-5.2L76.3,15.3z"/>
				<path id="Path_193_" opacity="0.3" fill="#384850" enable-background="new    " d="M37.3,98.2l31.1,1L66.5,74.6L68.6,57.2
					L63.7,70c0,0-18.1-1.4-19.3,0.3c-1.2,1.7,18.2,4.9,18.2,4.9l0.6,7.7l-22.1-1.7l-2.6-6.9l-1-15.7l-1.2,15.9L37.3,98.2z"/>
				<path id="Path_194_" opacity="0.3" fill="#05808A" enable-background="new    " d="M76.1,15.2c-0.4,1-1.6,3.5-3.5,3.1
					c-2.4-0.5-1.8-2.6-2.8-3c-1-0.4-1.9,1.8-4.5,0.6c-0.8-0.3-1.2-0.9-1.3-1.6c0.1,0.9,0.4,1.7,1.4,2.1c2.7,1.1,3.6-1,4.5-0.6
					c0.9,0.4,0.4,2.5,2.8,3c2.4,0.5,3.7-3.5,3.7-3.5L76.1,15.2z"/>
				<polygon id="Path_195_" fill="#E1BF82" points="17.7,81.2 2.2,149.4 3.8,149.4 23.1,81.2 				"/>
				<polygon id="Path_196_" fill="#E1BF82" points="88.4,81.2 103.9,149.4 102.3,149.4 82.9,81.2 				"/>
				<polygon id="Path_197_" opacity="0.4" fill="#E1BF82" enable-background="new    " points="20.9,81.2 2.7,149.4 3.8,149.4 
					23.1,81.2 				"/>
				<polygon id="Path_198_" opacity="0.4" fill="#E1BF82" enable-background="new    " points="103.9,149.4 88.4,81.2 86.1,81.2 
					102.9,149.4 				"/>
				<polygon id="Path_199_" fill="#384850" points="49.1,24.9 48.6,37.9 50,38.1 50.5,24.7 				"/>
				<rect id="Rectangle_26_" x="0.8" y="75.6" fill="#E1BF82" width="103" height="5.801"/>
				<polygon id="Path_200_" fill="#384850" points="73.4,27.9 68.4,43.2 69.6,43.4 74.7,28.6 				"/>
				<path id="Path_201_" opacity="0.3" fill="#384850" enable-background="new    " d="M49.9,44.2l17.3,2.2
					C67.2,46.4,56.3,63.2,49.9,44.2z"/>
				<path id="Path_202_" opacity="0.3" fill="#384850" enable-background="new    " d="M47.4,37.4l24.1,3c0,0-0.2,1-0.4,1.699
					L46.6,39.2C46.7,39.2,47.3,37.9,47.4,37.4z"/>
				<path id="Path_203_" fill="#F4D3A8" d="M49.1,71.3c-1.6-2.8-4.7-3.5-4.7-3.5h-9.6c-1.9,0-3.4,1.5-3.4,3.4v1.6
					c0,1.601,1.3,2.9,2.9,2.9h14.8V71.3L49.1,71.3z"/>
				<path id="Path_204_" fill="#F4D3A8" d="M49.1,71.2L49.1,71.2c-0.6-0.9-1.3-1.601-2-2.2c-0.5,0.6-0.8,1.8-0.8,3.2
					c0,1.5,0.4,2.8,1,3.399h1.2c0.3-0.199,0.5-0.601,0.6-1.101V71.2L49.1,71.2z"/>
				<path id="Path_205_" fill="#F4D3A8" d="M49.1,71.3c-1.6-2.8-4.7-3.5-4.7-3.5h-9.6c-1,0-1.9,0.5-2.6,1.2c1.4-0.1,3.2-0.2,5.7-0.2
					c5.4,0,7.6,1.7,7.6,3.101c0,1.399-2.5,2.699-7.9,2.699c-2.5,0-4.4-0.1-5.7-0.3c0.5,0.8,1.4,1.4,2.4,1.4h14.8V71.3L49.1,71.3z"/>
				<path id="Path_206_" fill="#F4D3A8" d="M47.9,70.4c-0.5,0-0.8,0.898-0.8,1.898s0.4,1.9,0.8,1.9h2v-3.801h-2V70.4z"/>
				<path id="Path_207_" fill="#F4D3A8" d="M47.9,70.4c-0.5,0-0.8,0.898-0.8,1.898s0.4,1.9,0.8,1.9h2v-3.801h-2V70.4z"/>
				<polygon id="Path_208_" fill="#FFE8C8" points="62.4,75.6 46.3,75.6 47.4,73.5 61.3,73.5 				"/>
				<rect id="Rectangle_27_" x="48.2" y="73" fill="#465B65" width="12.4" height="1"/>
				<path id="Path_209_" fill="#E97924" d="M48.8,71.3c0,0-1.5-10.7,0.3-12c1.6-1.1,9.8-2.2,9.4-0.2c-0.2,0.9-2.5,2.2-2.2,3.2
					c0.2,0.8,1.7,0.2,2.2,0.5c0.5,0.2,1.1,1.101,1.2,4l0.3,5.5L48.8,71.3z"/>
				<path id="Path_210_" fill="#617D8C" d="M47.5,73h13.9c0,0,0-0.6,0-1.8c-9.4,0-13.9-0.8-13.9-0.8V73z"/>
				<path id="Path_211_" fill="#E97924" d="M48.7,59.8c0,0-13.2-0.7-12.9,5.4c0.2,4.6,13.3,3.7,13.3,3.7V67.3
					c0,0-11.2,1.101-11.2-1.8c0-2.2,10.9-2,10.9-2L48.7,59.8z"/>
				<g id="Path_217_" transform="translate(39.000000, 55.000000)">
					<path id="Path_212_" fill="#B0BEC5" d="M8.4,6.4c0,0,0,4.5-1.5,4.6c-1,0.1-0.4-3.2-0.4-3.2L8.4,6.4z"/>
					<path id="Path_213_" fill="#B0BEC5" d="M6.5,6.9c0,0,0,4.5-1.5,4.6c-1,0.1-0.5-4-0.5-4L6.5,6.9z"/>
					<path id="Path_214_" fill="#B0BEC5" d="M4.7,6.6c0,0,0,4.5-1.3,4.602c-0.9,0.1-0.5-4-0.5-4L4.7,6.6z"/>
					<path id="Path_215_" fill="#B0BEC5" d="M3.1,6.3c0,0,0,4.5-1.3,4.601c-0.9,0.101-0.5-4-0.5-4L3.1,6.3z"/>
					<path id="Path_216_" fill="#D0D9DC" d="M3,0c0,0,6.5,4.4,5.3,7C7.7,7.9,1.4,9.2,0.6,6.7C0,4.7,0.8,2.6,0.8,2.6L3,0z"/>
				</g>
				<path id="Path_218_" opacity="0.3" fill="#E97924" enable-background="new    " d="M52.4,63.7c0.8,0.5,5.2,0,6.5-0.3
					c-0.2-0.301-0.3-0.4-0.5-0.5c-0.5-0.301-2,0.3-2.2-0.5c-0.3-1,2-2.301,2.2-3.2c0-0.101,0-0.101,0-0.2c-0.2,0.2-0.8,0.5-1.9,1.2
					C54.1,61.6,51.5,63,52.4,63.7z"/>
				<path id="Path_219_" fill="#F68B29" d="M50.5,64.9c-0.3-0.102-0.7,0-1,0.199s-0.4,0.5-0.4,0.899c0,1.399,0.1,3.3,0.2,4.101
					c0,0,3,0.5,8.9,0.699c0,0,0.1-4.5-0.8-4.699C56.7,65.8,52.9,65.6,50.5,64.9z"/>
				<path id="Path_220_" fill="#F68B29" d="M49.1,62.8c0,0-0.4-2.399,0.6-3c1-0.7,6.4-1.2,6.7-0.8c0.2,0.3-2.2,1.3-3.7,2.5
					c-1.2,1-2,2.1-2.9,2.1C49.5,63.6,49.2,63.4,49.1,62.8z"/>
				<circle id="Oval_1_" fill="#E97924" cx="56.6" cy="69.5" r="1"/>
				<path id="Path_221_" fill="#E97924" d="M54.8,69.4c0,0.199-0.2,0.398-0.4,0.398c-0.2,0-0.4-0.199-0.4-0.398
					c0-0.2,0.2-0.4,0.4-0.4C54.6,69,54.8,69.2,54.8,69.4z"/>
				<g id="Path_225_" transform="translate(50.000000, 66.000000)">
					<path id="Path_222_" fill="#E97924" d="M6.6,0.9H0.7C0.6,0.9,0.5,0.8,0.5,0.7c0-0.101,0.1-0.2,0.2-0.2h5.9
						c0.1,0,0.2,0.1,0.2,0.2C6.8,0.8,6.7,0.9,6.6,0.9z"/>
					<path id="Path_223_" fill="#E97924" d="M6.6,1.7H0.7C0.6,1.7,0.5,1.6,0.5,1.5s0.1-0.2,0.2-0.2h5.9c0.1,0,0.2,0.101,0.2,0.2
						S6.7,1.7,6.6,1.7z"/>
					<path id="Path_224_" fill="#E97924" d="M6.6,2.6H0.7C0.6,2.6,0.5,2.5,0.5,2.4c0-0.102,0.1-0.2,0.2-0.2h5.9
						c0.1,0,0.2,0.1,0.2,0.2C6.8,2.5,6.7,2.6,6.6,2.6z"/>
				</g>
				<polygon id="Path_226_" opacity="0.4" fill="#E1BF82" enable-background="new    " points="23.1,81.4 17.7,81.4 14.2,96.6 
					18.8,96.6 				"/>
				<polygon id="Path_227_" opacity="0.4" fill="#E1BF82" enable-background="new    " points="88.4,81.4 83,81.4 87.3,96.6 
					91.9,96.6 				"/>
				<rect id="Rectangle_28_" x="0.8" y="75.6" opacity="0.5" fill="#E1BF82" enable-background="new    " width="103" height="1"/>
				<path id="Path_228_" opacity="0.6" fill="#E1BF82" enable-background="new    " d="M83.8,75.6c0,0,0.3,0.5,2.8,0.5
					c0,0,1.4,0.2,1.7,0.4c0.3,0.3,1.2,1.6,1.8,1.4c0.7-0.2,0.2-2.102,0.2-2.102h4.3L94.4,75.6H83.8L83.8,75.6z"/>
				<g id="Path_236_" transform="translate(0.000000, 75.000000)" opacity="0.5">
					<path id="Path_229_" fill="#D1A762" d="M5.6,2.8c0.9-0.1,1.8-0.2,2.6-0.2c2.6-0.1,5.2-0.199,7.7-0.3c2.6-0.1,5.2-0.2,7.8-0.3
						c4.9-0.1,9.8,0.1,14.5,0.4c5.5,0.3,11.1,0.5,16.7,0.3c5.9-0.2,11.8,0.1,17.5,0.5C75,3.4,77.8,3.5,80.5,3.6
						C82.2,3.7,83.8,3.7,85.4,3.7c3.3,0,6.2-0.2,9-0.5c1.2-0.101,2.7-0.101,4.3,0c1.8,0.1,3.7,0.2,5.2,0V3c-1.5,0.2-3.4,0.1-5.2,0
						c-1.6-0.1-3.1-0.2-4.3,0c-4,0.5-8.4,0.6-13.8,0.4C77.9,3.3,75.2,3.1,72.5,3C66.8,2.7,60.9,2.3,55,2.5c-5.6,0.2-11.2,0-16.7-0.3
						C33.6,2,28.6,1.7,23.8,1.8C21.2,1.9,18.6,2,16,2.1C13.5,2.2,10.8,2.3,8.3,2.4C7.5,2.4,6.7,2.5,5.7,2.6C4.1,2.7,2.4,2.9,0.9,2.8
						V3C2.3,3.1,4.1,3,5.6,2.8z"/>
					<path id="Path_230_" fill="#D1A762" d="M95.7,1.1c2.7-0.1,5.4-0.199,8.1-0.3V0.6h-3.4C98.8,0.7,97.2,0.7,95.7,0.8
						c-8.2,0.4-16.6,0.7-25-0.2h-2.2C73.2,1.2,77.8,1.4,82.4,1.4C86.9,1.5,91.4,1.3,95.7,1.1z"/>
					<path id="Path_231_" fill="#D1A762" d="M4.7,1.1h0.1C5.9,1,7,0.9,8.1,0.8C9,0.7,10,0.7,11,0.6H7.6C6.7,0.7,5.7,0.7,4.8,0.8H4.7
						C3.7,0.9,2.1,1,0.8,0.9v0.3c0.4,0.1,0.9,0.1,1.4,0.1C3.1,1.3,4.1,1.2,4.7,1.1z"/>
					<path id="Path_232_" fill="#D1A762" d="M1.9,4.5C3.8,4.3,5.6,4.1,7.4,4c4.2-0.1,8.7-0.2,13.3,0c1.9,0.1,3.8,0.2,5.7,0.3
						c8.7,0.5,17.7,1,26.7,0.5c1.4-0.1,2.8-0.2,4.1-0.3c2.6-0.2,5.3-0.4,8-0.4c3.9,0,7.7,0.4,11.7,0.801h0.2
						C81.8,5.4,86.4,5.6,90.7,5.6c2.1,0,4.2-0.1,6.2-0.199c2-0.101,4.1-0.199,6.1-0.199c0,0,0,0,0.1,0c0.3,0,0.5,0,0.8,0V4.9
						c-0.3,0-0.5,0-0.8,0C101,4.9,98.9,5,96.9,5.1c-2,0.102-4.1,0.2-6.2,0.2c-4.4,0-8.9-0.2-13.6-0.7h-0.2
						c-4-0.398-7.8-0.8-11.7-0.8c-2.7,0-5.4,0.2-8,0.4c-1.3,0.1-2.7,0.2-4.1,0.3C44.2,5,35.2,4.5,26.5,4c-1.9-0.1-3.8-0.2-5.7-0.3
						c-4.6-0.2-9.1-0.101-13.3,0C5.7,3.8,3.9,4,2,4.2c-0.3,0-0.5,0.1-0.8,0.1c-0.1,0-0.1,0-0.2,0v0.3c0.1,0,0.2,0,0.2,0
						C1.3,4.6,1.6,4.6,1.9,4.5z"/>
					<path id="Path_233_" fill="#D1A762" d="M3.3,5.6C2.7,5.6,2.1,5.7,1.5,5.8C1.2,5.8,1,5.9,0.7,5.9v0.3C1,6.2,1.2,6.1,1.5,6.1
						C2.1,6,2.7,6,3.3,5.9c2.5-0.2,5.1-0.102,8.2,0c1.9,0.1,3.9,0.3,5.8,0.5h2.1c-2.6-0.301-5.3-0.7-8-0.801
						C8.5,5.4,5.9,5.4,3.3,5.6z"/>
					<path id="Path_234_" fill="#D1A762" d="M65.8,5.2c-2.3-0.2-4.5,0-6.9,0.2c-1.5,0.1-3,0.398-4.5,0.6c-1,0.2-2.1,0.3-3.1,0.4h2
						C53.7,6.3,54.1,6.3,54.5,6.2C56,6,57.5,5.7,59,5.6C61.4,5.4,63.6,5.3,65.9,5.4C68.1,5.6,70.4,5.9,72.6,6.3h1.5
						c-0.1,0-0.2,0-0.4-0.1C71.1,5.9,68.4,5.4,65.8,5.2z"/>
					<path id="Path_235_" fill="#D1A762" d="M47.9,1.1c0.7,0,1.6,0.102,2.4,0.102c1.9,0,4-0.102,6.2-0.5h-1.9
						C52.1,1,49.7,1,47.9,0.9h-0.6c-0.8,0-1.6-0.102-2.4-0.102h-3.4c1.9,0.2,3.9,0.301,5.8,0.4L47.9,1.1z"/>
				</g>
				<path id="Path_237_" fill="#B0BEC5" d="M85.9,75.5c0,0,2.6,0.3,2.8,0.7c0.2,0.399,0.9,1.6,1.4,1.5c0.5-0.101,0.7-1.8-0.4-2.8
					C88.6,73.8,86.4,74.3,85.9,75.5z"/>
				<polygon id="Path_238_" fill="none" stroke="#000000" stroke-width="0.5" points="17.7,81.4 2.2,149.4 3.8,149.4 23.1,81.4 				
					"/>
				<polygon id="Path_239_" fill="none" stroke="#000000" stroke-width="0.5" points="88.6,81.4 103.9,149.4 102.3,149.4 83.1,81.4 
									"/>
				<rect id="Rectangle_29_" x="0.8" y="75.6" fill="none" stroke="#000000" stroke-width="0.5" width="103" height="5.801"/>
			</g>
		</g>
	</g>
</g>
</svg>
