<?xml version="1.0" encoding="utf-8"?>
<!-- Generator: Adobe Illustrator 16.0.0, SVG Export Plug-In . SVG Version: 6.00 Build 0)  -->
<!DOCTYPE svg PUBLIC "-//W3C//DTD SVG 1.1//EN" "http://www.w3.org/Graphics/SVG/1.1/DTD/svg11.dtd">
<svg version="1.1" id="Layer_1" xmlns="http://www.w3.org/2000/svg" xmlns:xlink="http://www.w3.org/1999/xlink" x="0px" y="0px"
	 width="442px" height="200px" viewBox="0 53 442 200" enable-background="new 0 53 442 200" xml:space="preserve">
<title>1552731925_banner</title>
<desc>Created with Sketch.</desc>
<g id="Page-1">
	<g id="_x31_552731925_x5F_banner">
		
			<linearGradient id="Rectangle-Copy-6_1_" gradientUnits="userSpaceOnUse" x1="103.165" y1="212.4043" x2="101.8139" y2="213.1152" gradientTransform="matrix(386 0 0 -251 -39320.5 53534.5)">
			<stop  offset="0" style="stop-color:#64DCC2"/>
			<stop  offset="1" style="stop-color:#70BCE6"/>
		</linearGradient>
		<rect id="Rectangle-Copy-6" x="0.5" fill="url(#Rectangle-Copy-6_1_)" width="443" height="251"/>
		<path id="Rectangle" opacity="0.2203" fill="#FFFFFF" enable-background="new    " d="M72.5,121h81c3.59,0,6.5,2.91,6.5,6.5l0,0
			c0,3.59-2.91,6.5-6.5,6.5h-81c-3.59,0-6.5-2.91-6.5-6.5l0,0C66,123.91,68.91,121,72.5,121z"/>
		<path id="Rectangle-Copy" opacity="0.2203" fill="#FFFFFF" enable-background="new    " d="M180.5,157h81c3.59,0,6.5,2.91,6.5,6.5
			l0,0c0,3.59-2.91,6.5-6.5,6.5h-81c-3.59,0-6.5-2.91-6.5-6.5l0,0C174,159.91,176.91,157,180.5,157z"/>
		<path id="Rectangle-Copy-2" opacity="0.2961" fill="#FFFFFF" enable-background="new    " d="M280.5,108h81
			c3.59,0,6.5,2.91,6.5,6.5l0,0c0,3.59-2.91,6.5-6.5,6.5h-81c-3.59,0-6.5-2.91-6.5-6.5l0,0C274,110.91,276.91,108,280.5,108z"/>
		<path id="Rectangle-Copy-3" opacity="0.2961" fill="#FFFFFF" enable-background="new    " d="M112.5,204h81
			c3.59,0,6.5,2.91,6.5,6.5l0,0c0,3.59-2.91,6.5-6.5,6.5h-81c-3.59,0-6.5-2.91-6.5-6.5l0,0C106,206.91,108.91,204,112.5,204z"/>
		<path id="Rectangle-Copy-4" opacity="0.2961" fill="#FFFFFF" enable-background="new    " d="M266.5,191h81
			c3.59,0,6.5,2.91,6.5,6.5l0,0c0,3.59-2.91,6.5-6.5,6.5h-81c-3.59,0-6.5-2.91-6.5-6.5l0,0C260,193.91,262.91,191,266.5,191z"/>
		<g id="Electrician" transform="translate(0.000000, 102.000000)">
			<g id="Group" transform="translate(26.000000, 0.000000)" opacity="0.5">
				<path id="Path" fill="#AFDCC9" d="M267.5,85.2c0,2.3-1,4.1-2.2,4.1H233.4c-1.2,0-2.2-1.8-2.2-4.1l0,0c0-2.3,1-4.101,2.2-4.101
					H265.3C266.5,81.1,267.5,82.9,267.5,85.2L267.5,85.2z"/>
				<path id="Path_1_" fill="#AFDCC9" d="M39.4,32.4c0,2.3-1.1,4.1-2.4,4.1H3c-1.3,0-2.4-1.8-2.4-4.1l0,0C0.6,30.1,1.7,28.3,3,28.3
					h34C38.3,28.3,39.4,30.1,39.4,32.4L39.4,32.4z"/>
				<path id="Path_2_" fill="#AFDCC9" d="M93.6,4.1c0,2.3-1.3,4.1-3,4.1h-43c-1.6,0-3-1.8-3-4.1l0,0c0-2.3,1.3-4.1,3-4.1h43
					C92.3,0,93.6,1.8,93.6,4.1L93.6,4.1z"/>
				<path id="Path_3_" fill="#AFDCC9" d="M177,49.4c0,2.3-1,4.1-2.3,4.1H141c-1.3,0-2.3-1.8-2.3-4.1l0,0c0-2.301,1-4.102,2.3-4.102
					h33.7C176,45.2,177,47.1,177,49.4L177,49.4z"/>
				<path id="Path_4_" fill="#AFDCC9" d="M348.1,5.3c0,2.3-1.1,4.1-2.398,4.1H310.4c-1.399,0-2.399-1.8-2.399-4.1l0,0
					c0-2.3,1.101-4.1,2.399-4.1h35.301C347,1.2,348.1,3,348.1,5.3L348.1,5.3z"/>
			</g>
			<rect id="Rectangle_1_" y="139.6" fill="#AAD1D3" width="441.4" height="10.602"/>
			<g id="Group_1_" transform="translate(162.000000, 53.000000)">
				<rect id="Rectangle_2_" x="0.482" y="0.59" fill="#FFFFFF" width="12.2" height="6.2"/>
				<path id="Path_5_" fill="#AEAEAE" d="M7.3,3.6c0,1.102,0.9,1.9,1.9,1.9c1.1,0,1.9-0.9,1.9-1.9c0-1.1-0.9-1.898-1.9-1.898
					C8.1,1.7,7.3,2.6,7.3,3.6z"/>
				<path id="Path_6_" fill="#AEAEAE" d="M2,3.6C2,4.7,2.9,5.5,3.9,5.5c1.1,0,1.9-0.9,1.9-1.9C5.8,2.5,4.9,1.7,3.9,1.7S2,2.6,2,3.6z
					"/>
				<path id="Path_7_" fill="#3D3D3D" d="M9.6,3.6C9.6,3.8,9.8,4,10,4s0.4-0.2,0.4-0.4C10.4,3.4,10.2,3.2,10,3.2S9.6,3.4,9.6,3.6z"
					/>
				<path id="Path_8_" fill="#3D3D3D" d="M7.9,3.6C7.9,3.8,8.1,4,8.3,4c0.2,0,0.4-0.2,0.4-0.4C8.7,3.4,8.5,3.2,8.3,3.2
					C8.1,3.2,7.9,3.4,7.9,3.6z"/>
				<path id="Path_9_" fill="#3D3D3D" d="M4.3,3.6C4.3,3.8,4.5,4,4.7,4c0.2,0,0.4-0.2,0.4-0.4C5.1,3.4,4.9,3.2,4.7,3.2
					C4.5,3.2,4.3,3.4,4.3,3.6z"/>
				<path id="Path_10_" fill="#3D3D3D" d="M2.7,3.6C2.7,3.8,2.9,4,3.1,4c0.2,0,0.4-0.2,0.4-0.4C3.5,3.4,3.3,3.2,3.1,3.2
					C2.9,3.2,2.7,3.4,2.7,3.6z"/>
			</g>
			<g id="Group_12_" transform="translate(14.000000, 5.000000)">
				<g id="Group_2_" transform="translate(133.000000, 6.000000)">
					<polygon id="Path_11_" fill="#248641" points="203.6,83.4 122.9,83.4 122.9,35.4 76.7,35.4 76.7,63.4 3.2,63.4 3.2,19.6 
						49.8,19.6 49.8,4 50.8,4 50.8,20.6 4.2,20.6 4.2,62.4 75.7,62.4 75.7,34.4 123.9,34.4 123.9,82.4 202.6,82.4 202.6,32.4 
						171.3,32.4 171.3,31.4 203.6,31.4 					"/>
					<polygon id="Path_12_" fill="#248641" points="220.2,93.1 62.7,93.1 62.7,4 63.7,4 63.7,92.1 219.2,92.1 219.2,51.9 
						138.7,51.9 138.7,5.8 139.7,5.8 139.7,50.9 220.2,50.9 					"/>
					<rect id="Rectangle_3_" x="45.9" y="0.8" fill="#248641" width="8.2" height="5.9"/>
					<rect id="Rectangle_4_" x="59.1" y="0.8" fill="#248641" width="8.2" height="5.9"/>
					<rect id="Rectangle_5_" x="135.1" y="0.8" fill="#248641" width="8.2" height="5.9"/>
					<g transform="translate(24.000000, 13.000000)">
						<polygon id="Path_13_" fill="#AFBF37" points="7.2,1.9 0.9,7.1 7.2,12.8 						"/>
						<path id="Shape" fill="#248641" d="M7.7,14L0.1,7.1l7.6-6.2V14z M1.6,7.1L6.7,11.7V2.9L1.6,7.1z"/>
					</g>
					<rect id="Rectangle_6_" x="24.4" y="15.9" fill="#248641" width="1" height="8.3"/>
					<g transform="translate(190.000000, 25.000000)">
						<polygon id="Path_14_" fill="#AFBF37" points="7.9,1.4 1.5,6.6 7.9,12.4 						"/>
						<path id="Shape_1_" fill="#248641" d="M8.4,13.5L0.8,6.6L8.4,0.4V13.5z M2.3,6.7L7.4,11.3V2.5L2.3,6.7z"/>
					</g>
					<rect id="Rectangle_7_" x="191" y="27.5" fill="#248641" width="1" height="8.3"/>
					<g transform="translate(0.000000, 33.000000)">
						<rect id="Rectangle_8_" x="0.9" y="1" fill="#AFBF37" width="6" height="15.7"/>
						<path id="Shape_2_" fill="#248641" d="M7.4,17.2h-7V0.5h7V17.2z M1.4,16.2h5V1.5h-5V16.2z"/>
					</g>
					<rect id="Rectangle_9_" x="76.2" y="62.4" fill="#248641" width="47.1" height="1"/>
					<g transform="translate(87.000000, 59.000000)">
						<rect id="Rectangle_10_" x="1" y="0.5" fill="#AFBF37" width="19.9" height="6.8"/>
						<path id="Shape_3_" fill="#248641" d="M21.5,7.8H0.6V0h20.9V7.8z M1.5,6.8h18.9V1H1.5V6.8z"/>
					</g>
					<g transform="translate(135.000000, 22.000000)">
						<rect id="Rectangle_11_" x="1.5" y="0.5" fill="#AFBF37" width="5" height="13.9"/>
						<path id="Shape_4_" fill="#248641" d="M6.9,14.9h-6V0h6V14.9z M2,13.9h4V1H2V13.9z"/>
					</g>
				</g>
				<g id="Group_3_" transform="translate(0.000000, 19.000000)">
					<rect id="Rectangle_12_" x="0.8" y="0.6" fill="#A7C1D1" width="47.4" height="61.6"/>
					<rect id="Rectangle_13_" x="5.2" y="5" fill="#CEE4EE" width="38.6" height="52.8"/>
					<path id="Path_15_" fill="#DEF2FD" d="M35.8,11.4H13.2l0,0c0-0.7,0.9-1.4,2-1.4h18.6C34.9,10,35.8,10.6,35.8,11.4L35.8,11.4z"
						/>
					<path id="Path_16_" fill="#799DAD" d="M35.8,11.4H13.2l0,0c0,0.399,0.9,0.699,2,0.699h18.6C34.9,12.1,35.8,11.8,35.8,11.4
						L35.8,11.4z"/>
					<path id="Path_17_" fill="#DEF2FD" d="M35.8,15.1H13.2l0,0c0-0.699,0.9-1.398,2-1.398h18.6C34.9,13.8,35.8,14.4,35.8,15.1
						L35.8,15.1z"/>
					<path id="Path_18_" fill="#799DAD" d="M35.8,15.1H13.2l0,0c0,0.4,0.9,0.7,2,0.7h18.6C34.9,15.8,35.8,15.5,35.8,15.1L35.8,15.1z
						"/>
					<path id="Path_19_" fill="#DEF2FD" d="M35.8,18.9H13.2l0,0c0-0.7,0.9-1.4,2-1.4h18.6C34.9,17.5,35.8,18.1,35.8,18.9L35.8,18.9z
						"/>
					<path id="Path_20_" fill="#799DAD" d="M35.8,18.9H13.2l0,0c0,0.398,0.9,0.699,2,0.699h18.6C34.9,19.6,35.8,19.3,35.8,18.9
						L35.8,18.9z"/>
					<path id="Path_21_" fill="#DEF2FD" d="M35.8,22.7H13.2l0,0c0-0.7,0.9-1.4,2-1.4h18.6C34.9,21.3,35.8,21.9,35.8,22.7L35.8,22.7z
						"/>
					<path id="Path_22_" fill="#799DAD" d="M35.8,22.7H13.2l0,0c0,0.399,0.9,0.7,2,0.7h18.6C34.9,23.3,35.8,23,35.8,22.7L35.8,22.7z
						"/>
					<path id="Path_23_" fill="#DEF2FD" d="M35.8,26.4H13.2l0,0c0-0.7,0.9-1.4,2-1.4h18.6C34.9,25.1,35.8,25.7,35.8,26.4L35.8,26.4z
						"/>
					<path id="Path_24_" fill="#799DAD" d="M35.8,26.4H13.2l0,0c0,0.398,0.9,0.699,2,0.699h18.6C34.9,27.1,35.8,26.8,35.8,26.4
						L35.8,26.4z"/>
					<g transform="translate(12.000000, 31.000000)">
						<path id="Path_25_" fill="#FCCA37" d="M12.5,21.5H1.9c-1,0-1.7-1.1-1.2-2L6,10.3l5.3-9.2c0.5-0.898,1.8-0.898,2.3,0l5.3,9.2
							l5.3,9.2c0.5,0.9-0.1,2-1.2,2H12.5z"/>
						<path id="Shape_5_" fill="#0B2337" d="M20.9,20.3H4.1c-0.5,0-0.9-0.3-1.2-0.7C2.7,19.2,2.7,18.7,2.9,18.2L11.3,3.6
							C11.5,3.2,12,2.9,12.5,2.9s0.9,0.3,1.2,0.699L22.1,18.2c0.2,0.399,0.2,0.899,0,1.399C21.9,20.1,21.4,20.3,20.9,20.3z
							 M12.5,4.1c-0.1,0-0.1,0-0.2,0.102L3.9,18.8c-0.1,0.101,0,0.2,0,0.2s0.1,0.1,0.2,0.1H21c0.1,0,0.2-0.1,0.2-0.1s0.1-0.1,0-0.2
							L12.8,4.2C12.6,4.1,12.5,4.1,12.5,4.1z"/>
						<polygon id="Path_26_" fill="#0B2337" points="11.5,13.4 14.9,8.9 12,9.2 9.4,14.6 12.1,14.3 10.5,18.2 14.8,12.9 						"/>
					</g>
					<rect id="Rectangle_14_" x="43.8" y="11.4" fill="#DEF2FD" width="1.2" height="8.5"/>
					<rect id="Rectangle_15_" x="43.8" y="39.3" fill="#DEF2FD" width="1.2" height="8.5"/>
				</g>
				<g id="Group_10_" transform="translate(342.000000, 18.000000)">
					<rect id="Rectangle_16_" x="0.2" y="0.6" fill="#92B0C6" width="74.3" height="74.3"/>
					<rect id="Rectangle_17_" x="3.3" y="3.7" fill="#335769" width="68.102" height="68.2"/>
					<polygon id="Path_27_" fill="#FCCA37" points="41.8,49.6 41.5,49.6 41.5,40.3 22.5,40.3 22.5,49.6 22.2,49.6 22.2,40 41.8,40 
											"/>
					<polygon id="Path_28_" fill="#21628C" points="49.1,50.3 48.8,50.3 48.8,45.4 32.3,45.4 32.3,32.3 22,32.3 22,26.2 22.3,26.2 
						22.3,32 32.6,32 32.6,45.1 49.1,45.1 					"/>
					<polygon id="Path_29_" fill="#FCCA37" points="56.4,50.9 56.1,50.9 56.1,35.1 37.2,35.1 37.2,19 26,19 26,18.7 37.5,18.7 
						37.5,34.8 56.4,34.8 					"/>
					<polygon id="Path_30_" fill="#EF4237" points="63.7,49.1 63.4,49.1 63.4,41.2 45.3,41.2 45.3,37 55.1,37 55.1,27.9 55.4,27.9 
						55.4,37.3 45.6,37.3 45.6,40.9 63.7,40.9 					"/>
					<g transform="translate(10.000000, 8.000000)">
						<circle id="Oval" fill="#0B2337" cx="12.29" cy="11.625" r="11.5"/>
						<path id="Path_31_" fill="#0F3751" d="M22.5,11.6c0,5.7-4.6,10.301-10.3,10.301S1.9,17.3,1.9,11.6C1.9,5.9,6.5,1.3,12.2,1.3
							S22.5,5.9,22.5,11.6z"/>
						<path id="Path_32_" fill="#7597B4" d="M19.1,16.8H5.3c-0.7,0-1.3-0.6-1.3-1.3V7.9C4,7.2,4.6,6.6,5.3,6.6h13.8
							C19.8,6.6,20.4,7.2,20.4,7.9v7.6C20.5,16.2,19.9,16.8,19.1,16.8z"/>
						<rect id="Rectangle_18_" x="5.2" y="7.8" fill="#0B2337" width="14" height="3"/>
						<rect id="Rectangle_19_" x="5.8" y="8.5" fill="#FFFFFF" width="1.8" height="1.7"/>
						<rect id="Rectangle_20_" x="8.6" y="8.5" fill="#FFFFFF" width="1.801" height="1.7"/>
						<rect id="Rectangle_21_" x="11.4" y="8.5" fill="#FFFFFF" width="1.8" height="1.7"/>
						<rect id="Rectangle_22_" x="14.2" y="8.5" fill="#FFFFFF" width="1.8" height="1.7"/>
						<rect id="Rectangle_23_" x="17" y="8.5" fill="#FFFFFF" width="1.8" height="1.7"/>
						<rect id="Rectangle_24_" x="5.2" y="12.2" fill="#0B2337" width="14" height="3"/>
						<g id="Path_35_" transform="translate(5.000000, 2.000000)" opacity="0.5">
							<g id="Group_4_">
								<path id="Path_33_" fill="#0F3751" d="M1.6,3.7c-0.699,0-1-0.9-0.5-1.3C2.8,1,4.9,0.2,7.2,0.2c2.2,0,4.399,0.8,6.1,2.2
									c0.5,0.399,0.2,1.3-0.5,1.3H1.6z"/>
							</g>
							<g id="Group_5_" transform="translate(0.000000, 15.000000)">
								<path id="Path_34_" fill="#0F3751" d="M7.2,4.1C5,4.1,2.8,3.3,1.1,1.9C0.6,1.5,0.9,0.6,1.6,0.6h11.2c0.7,0,1,0.9,0.5,1.301
									C11.6,3.3,9.5,4.1,7.2,4.1z"/>
							</g>
						</g>
					</g>
					<g transform="translate(42.000000, 8.000000)">
						<circle id="Oval_1_" fill="#0B2337" cx="12.368" cy="11.57" r="11.5"/>
						<path id="Path_36_" fill="#0F3751" d="M22.6,11.6C22.6,17.3,18,21.9,12.3,21.9S2,17.3,2,11.6C2,5.9,6.6,1.3,12.3,1.3
							S22.6,5.9,22.6,11.6z"/>
						<path id="Path_37_" fill="#7597B4" d="M19.2,16.8H5.4c-0.7,0-1.302-0.6-1.302-1.3V7.9C4.1,7.2,4.7,6.6,5.4,6.6h13.8
							c0.7,0,1.3,0.601,1.3,1.301v7.6C20.5,16.2,19.9,16.8,19.2,16.8z"/>
						<rect id="Rectangle_25_" x="5.3" y="7.8" fill="#0B2337" width="14" height="3"/>
						<rect id="Rectangle_26_" x="5.8" y="8.5" fill="#FFFFFF" width="1.8" height="1.7"/>
						<rect id="Rectangle_27_" x="8.6" y="8.5" fill="#FFFFFF" width="1.802" height="1.7"/>
						<rect id="Rectangle_28_" x="5.3" y="12.2" fill="#0B2337" width="14" height="3"/>
						<g id="Path_40_" transform="translate(5.000000, 2.000000)" opacity="0.5">
							<g id="Group_6_">
								<path id="Path_38_" fill="#0F3751" d="M1.7,3.7c-0.7,0-1-0.9-0.5-1.3C2.9,1,5,0.2,7.3,0.2c2.2,0,4.4,0.8,6.102,2.2
									c0.5,0.399,0.198,1.3-0.5,1.3H1.7z"/>
							</g>
							<g id="Group_7_" transform="translate(0.000000, 15.000000)">
								<path id="Path_39_" fill="#0F3751" d="M7.3,4.1C5.1,4.1,2.9,3.3,1.2,1.9C0.7,1.5,1,0.6,1.7,0.6h11.2
									c0.698,0,1,0.9,0.5,1.301C11.7,3.3,9.5,4.1,7.3,4.1z"/>
							</g>
						</g>
					</g>
					<g transform="translate(10.000000, 45.000000)">
						<circle id="Oval_2_" fill="#0B2337" cx="12.3" cy="11.8" r="11.5"/>
						<path id="Path_41_" fill="#0F3751" d="M22.5,11.8c0,5.7-4.6,10.3-10.3,10.3S1.9,17.5,1.9,11.8S6.5,1.5,12.2,1.5
							C17.9,1.6,22.5,6.2,22.5,11.8z"/>
						<path id="Path_42_" fill="#7597B4" d="M19.1,17H5.3C4.6,17,4,16.4,4,15.7V8c0-0.7,0.6-1.3,1.3-1.3h13.8
							C19.8,6.7,20.4,7.3,20.4,8v7.6C20.5,16.4,19.9,17,19.1,17z"/>
						<rect id="Rectangle_29_" x="5.2" y="8" fill="#0B2337" width="14" height="3"/>
						<rect id="Rectangle_30_" x="5.8" y="8.7" fill="#FFFFFF" width="1.8" height="1.7"/>
						<rect id="Rectangle_31_" x="8.6" y="8.7" fill="#FFFFFF" width="1.801" height="1.7"/>
						<rect id="Rectangle_32_" x="11.4" y="8.7" fill="#FFFFFF" width="1.8" height="1.7"/>
						<rect id="Rectangle_33_" x="14.2" y="8.7" fill="#FFFFFF" width="1.8" height="1.7"/>
						<rect id="Rectangle_34_" x="17" y="8.7" fill="#FFFFFF" width="1.8" height="1.7"/>
						<rect id="Rectangle_35_" x="5.2" y="12.4" fill="#0B2337" width="14" height="3"/>
						<g id="Path_45_" transform="translate(5.000000, 2.000000)" opacity="0.5">
							<g id="Group_8_">
								<path id="Path_43_" fill="#0F3751" d="M1.6,3.9C0.9,3.9,0.6,3,1.1,2.6C2.8,1.2,4.9,0.4,7.2,0.4c2.2,0,4.399,0.8,6.1,2.199
									C13.8,3,13.5,3.9,12.8,3.9H1.6z"/>
							</g>
							<g id="Group_9_" transform="translate(0.000000, 15.000000)">
								<path id="Path_44_" fill="#0F3751" d="M7.2,4.3C5,4.3,2.8,3.5,1.1,2.1C0.6,1.7,0.9,0.8,1.6,0.8h11.2c0.7,0,1,0.9,0.5,1.3
									C11.6,3.5,9.5,4.3,7.2,4.3z"/>
							</g>
						</g>
					</g>
					<g id="Rectangle_38_" transform="translate(38.000000, 48.000000)">
						<rect id="Rectangle_36_" x="1.5" y="0.3" fill="#92B0C6" width="4.2" height="18"/>
						<rect id="Rectangle_37_" x="0.7" y="4.2" fill="#C4D9E6" width="5.8" height="10.1"/>
					</g>
					<g id="Rectangle_41_" transform="translate(39.000000, 54.000000)">
						<rect id="Rectangle_39_" x="2" y="1.1" fill="#0B2337" width="1.2" height="1.7"/>
						<rect id="Rectangle_40_" x="0.9" y="0.3" fill="#0B2337" width="3.398" height="1.101"/>
					</g>
					<g id="Rectangle_44_" transform="translate(46.000000, 48.000000)">
						<rect id="Rectangle_42_" x="0.8" y="0.3" fill="#92B0C6" width="4.2" height="18"/>
						<rect id="Rectangle_43_" y="4.2" fill="#C4D9E6" width="5.8" height="10.1"/>
					</g>
					<g id="Rectangle_47_" transform="translate(47.000000, 54.000000)">
						<rect id="Rectangle_45_" x="1.3" y="1.1" fill="#0B2337" width="1.2" height="1.7"/>
						<rect id="Rectangle_46_" x="0.2" y="0.3" fill="#0B2337" width="3.398" height="1.101"/>
					</g>
					<rect id="Rectangle_48_" x="41" y="56.8" fill="#92B0C6" width="1.2" height="3.601"/>
					<rect id="Rectangle_49_" x="48.3" y="56.8" fill="#92B0C6" width="1.2" height="3.601"/>
				</g>
				<g id="Path_49_" transform="translate(202.000000, 0.000000)">
					<g id="Group_11_">
						<g id="Path_46_" transform="translate(17.000000, 18.000000)">
							<g transform="translate(4.000000, 25.000000)">
								<path fill="#315463" d="M1.8,5.1C2.7,5.3,3.9,5.7,4,5.7l6.3,0.2c0.4,0,1.601-0.301,2.2-0.5V5.3V3.9L12.6,0.6L1.8,0.3
									L1.7,3.6V5L1.8,5.1z"/>
								<path fill="#315463" d="M3.9,7.9c0,0-1.2-0.2-2.2-0.602L1.5,14.6L2,15.4C3.3,16.6,5,17.3,6.8,17.3H6.9
									c1.8,0.101,3.5-0.5,4.898-1.6L12.4,15.1L12.6,7.8C12,8,11.2,8.2,10.4,8.1L3.9,7.9z"/>
								<path fill="#A7CFE4" d="M12.6,3.9V5.3V5.4C12,5.6,10.8,5.9,10.4,5.9L4.1,5.7C4,5.7,2.7,5.3,1.9,5.1V5V3.6
									C0.9,4,0.3,4.6,0.3,5.5c0,0.8,0.7,1.4,1.5,1.8C2.8,7.8,4,7.9,4,7.9L10.4,8.1C11.3,8.1,12,8,12.6,7.8
									C13.6,7.4,14.2,6.8,14.2,5.9C14.1,5.1,13.6,4.4,12.6,3.9z"/>
								<path fill="#A7CFE4" d="M12.5,7.6V9v0.1c-0.6,0.2-1.8,0.5-2.2,0.5L4,9.4C3.9,9.4,2.6,9,1.8,8.8V8.7V7.3
									c-1,0.4-1.6,1-1.6,1.9C0.2,10,0.9,10.6,1.7,11c1,0.5,2.2,0.6,2.2,0.6l6.398,0.2c0.9,0,1.602-0.1,2.2-0.3
									c1-0.4,1.601-1,1.601-1.9C14,8.7,13.5,8,12.5,7.6z"/>
								<path fill="#A7CFE4" d="M12.4,11.3v1.4v0.1C11.8,13,10.6,13.3,10.2,13.3l-6.3-0.2c-0.102,0-1.4-0.398-2.2-0.6v-0.1V11
									c-1,0.4-1.601,1-1.601,1.9c0,0.8,0.699,1.398,1.5,1.8c1,0.5,2.199,0.6,2.199,0.6l6.4,0.2c0.898,0,1.6-0.1,2.199-0.3
									c1-0.4,1.601-1,1.601-1.9C13.9,12.4,13.3,11.7,12.4,11.3z"/>
							</g>
							<path fill="#FFD160" d="M0.8,10.9c0,1.399,0.2,2.8,0.8,4C2.7,17.5,4.7,20.1,5.2,22.8l0.7,5.7l5.398,0.8l0.2-8l0.3-10.2
								L12.1,0.9C6,0.8,1,5.2,0.8,10.9z"/>
							<path fill="#FFC627" d="M22.7,11.5c0,1.4-0.4,2.8-1,4c-1.2,2.5-3.4,5-4.101,7.7l-1.101,5.7L11.1,29.4l0.199-8L11.6,11.2
								L11.9,1C18.1,1.2,22.9,5.9,22.7,11.5z"/>
						</g>
						<g id="Path_47_">
							<path fill="#FFC627" d="M8.7,47.9c-0.101,0-0.3-0.102-0.4-0.2c-0.2-0.2-0.2-0.601,0-0.8l8.8-8.301
								c0.2-0.199,0.602-0.199,0.801,0s0.199,0.601,0,0.801L9.1,47.7C9,47.9,8.8,47.9,8.7,47.9z"/>
							<path fill="#FFC627" d="M13.2,28.5L1.1,28.1c-0.3,0-0.5-0.3-0.5-0.6S0.9,27,1.2,27l12.1,0.4c0.3,0,0.5,0.3,0.5,0.6
								S13.5,28.5,13.2,28.5z"/>
							<path fill="#FFC627" d="M18.1,17.6c-0.1,0-0.3-0.1-0.398-0.2L9.4,8.6C9.2,8.4,9.2,8,9.4,7.8c0.199-0.2,0.6-0.2,0.8,0l8.3,8.8
								c0.2,0.2,0.2,0.6,0,0.8C18.4,17.6,18.2,17.6,18.1,17.6z"/>
							<path fill="#FFC627" d="M29.2,13.4c-0.3,0-0.5-0.3-0.5-0.6L29.1,0.7c0-0.3,0.301-0.5,0.602-0.5c0.3,0,0.5,0.3,0.5,0.6
								l-0.4,12.1C29.8,13.2,29.5,13.4,29.2,13.4z"/>
							<path fill="#FFC627" d="M40.1,18.2c-0.1,0-0.3-0.1-0.398-0.2c-0.2-0.2-0.2-0.6,0-0.8l8.8-8.3c0.2-0.2,0.601-0.2,0.8,0
								c0.2,0.2,0.2,0.6,0,0.8L40.5,18C40.4,18.2,40.2,18.2,40.1,18.2z"/>
							<path fill="#FFC627" d="M56.4,29.7L44.3,29.3c-0.3,0-0.5-0.3-0.5-0.6s0.3-0.5,0.601-0.5L56.501,28.6
								c0.3,0,0.5,0.301,0.5,0.601C56.9,29.5,56.7,29.8,56.4,29.7z"/>
							<path fill="#FFC627" d="M47.7,49c-0.101,0-0.3-0.1-0.4-0.2L39,40c-0.2-0.2-0.2-0.6,0-0.8s0.6-0.2,0.8,0l8.3,8.8
								c0.2,0.2,0.2,0.6,0,0.8C48,49,47.9,49,47.7,49z"/>
						</g>
					</g>
					<path id="Path_48_" fill="#FFE095" d="M20.4,29.1c-0.4,0-0.7-0.3-0.7-0.699c0.1-4.301,3.7-7.7,8-7.601c0.399,0,0.7,0.3,0.7,0.7
						s-0.301,0.7-0.7,0.7C24.1,22.1,21.2,24.9,21,28.5C21.1,28.8,20.7,29.1,20.4,29.1z"/>
				</g>
			</g>
			<g id="Group_16_" transform="translate(66.000000, 22.000000)">
				<g id="Rectangle_53_">
					<rect id="Rectangle_50_" x="0.5" y="0.3" fill="#5C5C5C" width="88.1" height="64.4"/>
					<g id="Group_13_" transform="translate(3.000000, 2.000000)">
						<rect id="Rectangle_51_" y="0.9" fill="#AEAEAE" width="40.2" height="59.2"/>
						<rect id="Rectangle_52_" x="42.8" y="0.9" fill="#AEAEAE" width="40.2" height="59.2"/>
					</g>
				</g>
				<g id="Group_14_" transform="translate(3.000000, 3.000000)">
					<rect id="Rectangle_54_" x="3.7" y="4.7" fill="#FFFFFF" width="36.5" height="4.399"/>
					<rect id="Rectangle_55_" x="5.2" y="7.5" fill="#D3D3D3" width="35" height="1.6"/>
					<rect id="Rectangle_56_" x="2.1" y="1.6" fill="#5C5C5C" width="6.2" height="10.7"/>
					<rect id="Rectangle_57_" x="2.6" y="2.2" fill="#AEAEAE" width="5.4" height="9.5"/>
					<rect id="Rectangle_58_" x="3.2" y="5.9" fill="#7D7D7D" width="4" height="3.199"/>
					<rect id="Rectangle_59_" x="3.7" y="6.5" fill="#D3D3D3" width="1" height="2"/>
					<rect id="Rectangle_60_" x="4.9" y="6.5" fill="#D3D3D3" width="1" height="2"/>
					<rect id="Rectangle_61_" x="6" y="6.5" fill="#D3D3D3" width="1" height="2"/>
					<circle id="Oval_3_" fill="#3D3D3D" cx="30.1" cy="6.9" r="1.5"/>
					<circle id="Oval_4_" fill="#3D3D3D" cx="34.2" cy="6.9" r="1.3"/>
					<path id="Path_50_" fill="#F05354" d="M30.1,9.9L30.1,9.9c-0.4,0-0.7-0.301-0.7-0.7V6.9c0-0.4,0.3-0.7,0.7-0.7l0,0
						c0.4,0,0.7,0.3,0.7,0.7v2.3C30.7,9.6,30.4,9.9,30.1,9.9z"/>
					<path id="Path_51_" fill="#F05354" d="M34.2,7.7L34.2,7.7c-0.2,0-0.3-0.101-0.3-0.3v-1C33.9,6.2,34,6.1,34.2,6.1l0,0
						c0.2,0,0.3,0.101,0.3,0.301v1C34.5,7.6,34.4,7.7,34.2,7.7z"/>
					<rect id="Rectangle_62_" x="3.6" y="12.3" fill="#3D3D3D" width="1" height="1.2"/>
					<rect id="Rectangle_63_" x="4.9" y="12.3" fill="#3D3D3D" width="1" height="1.2"/>
					<rect id="Rectangle_64_" x="6.2" y="12.3" fill="#3D3D3D" width="1" height="1.2"/>
					<rect id="Rectangle_65_" x="32.3" y="10.4" fill="#D3D3D3" width="1" height="1.3"/>
					<rect id="Rectangle_66_" x="33.9" y="10.4" fill="#D3D3D3" width="1" height="1.3"/>
					<rect id="Rectangle_67_" x="35.5" y="10.4" fill="#D3D3D3" width="1" height="1.3"/>
					<rect id="Rectangle_68_" x="20.9" y="11.7" fill="#5C5C5C" width="7.9" height="10.2"/>
					<rect id="Rectangle_69_" x="20.9" y="13.6" fill="#7D7D7D" width="7.9" height="6.5"/>
					<rect id="Rectangle_70_" x="31.4" y="11.7" fill="#5C5C5C" width="5.7" height="10.2"/>
					<rect id="Rectangle_71_" x="31.4" y="13.6" fill="#7D7D7D" width="5.7" height="6.5"/>
					<rect id="Rectangle_72_" x="22.2" y="9.1" fill="#7D7D7D" width="1" height="2.601"/>
					<rect id="Rectangle_73_" x="24.5" y="9.1" fill="#7D7D7D" width="1" height="2.601"/>
					<rect id="Rectangle_74_" x="26.8" y="9.1" fill="#7D7D7D" width="1" height="2.601"/>
					<rect id="Rectangle_75_" x="21.5" y="18.1" fill="#D3D3D3" width="3.3" height="1"/>
					<rect id="Rectangle_76_" x="3.6" y="13.5" fill="#F05354" width="1" height="3.3"/>
					<rect id="Rectangle_77_" x="4.9" y="13.5" fill="#FFFFFF" width="1" height="3.3"/>
					<rect id="Rectangle_78_" x="6.2" y="13.5" fill="#6896CE" width="1" height="3.3"/>
					<path id="Path_52_" fill="#3D3D3D" d="M4.5,20v6.3c0,0.3,0.3,0.601,0.6,0.601c0.3,0,0.6-0.301,0.6-0.601V20H4.5z"/>
					<path id="Path_53_" fill="#3D3D3D" d="M9.3,20v6.3c0,0.3,0.3,0.601,0.6,0.601c0.3,0,0.6-0.301,0.6-0.601V20H9.3z"/>
					<path id="Path_54_" fill="#3D3D3D" d="M14.2,20v6.3c0,0.3,0.3,0.601,0.6,0.601c0.3,0,0.6-0.301,0.6-0.601V20H14.2z"/>
					<g id="Path_59_" transform="translate(2.000000, 48.000000)">
						<path id="Path_55_" fill="#3D3D3D" d="M0.3,8.9c0-0.102-0.8-3,1.4-4.5C3.6,3.1,3.4,1,3.4,1h0.5c0,0.1,0.2,2.4-1.9,3.8
							c-1.9,1.3-1.2,3.9-1.2,4L0.3,8.9z"/>
						<path id="Path_56_" fill="#3D3D3D" d="M6.7,9L6.5,8.5H6.4c0.1-0.2,0.2-1.4-0.9-3c-1.2-1.8-1-4.9-0.9-5h0.5c0,0-0.3,3,0.9,4.7
							C7.1,6.8,7.1,8.1,6.9,8.6C6.9,8.9,6.9,9,6.7,9z"/>
						<path id="Path_57_" fill="#3D3D3D" d="M9.5,8.3H9c0-2.8,0-7,0-7.3h0.2l0.2-0.2C9.6,0.9,9.6,0.9,9.5,8.3z"/>
						<path id="Path_58_" fill="#3D3D3D" d="M13.3,8.4L12.8,8.3c0,0,0.5-1.7-0.5-3.399c-1-2-1.3-3.699-1.3-3.801L11.5,1
							c0,0,0.3,1.8,1.3,3.7C13.8,6.5,13.3,8.3,13.3,8.4z"/>
					</g>
					<g id="Path_67_" transform="translate(16.000000, 34.000000)">
						<path id="Path_60_" fill="#3D3D3D" d="M1.2,22.8H0.7c0-5,1.8-9.6,3.2-12.5C5.3,7.4,5.2,0.4,5.2,0.3h0.5
							c0,0.3,0.1,7.2-1.4,10.2C2.9,13.4,1.2,17.9,1.2,22.8z"/>
						<path id="Path_61_" fill="#3D3D3D" d="M5.2,21.6c0-0.1-0.3-5.3,1.4-11.898C7.4,6.501,7.5,0.4,7.5,0.4H8C8,0.7,7.9,6.6,7.1,9.8
							c-1.7,6.5-1.3,11.7-1.3,11.7L5.2,21.6z"/>
						<path id="Path_62_" fill="#3D3D3D" d="M11.2,22.1c0-0.1-0.1-5.6-0.8-7.898C9.6,11.4,9.7,0.7,9.7,0.3h0.5
							c0,0.101-0.1,11.101,0.7,13.8c0.7,2.301,0.8,7.801,0.8,8H11.2z"/>
						<path id="Path_63_" fill="#3D3D3D" d="M8.1,21.6c0-0.1-0.2-2.3,0.3-4.3c0.2-1,0.9-2.5,1.6-4c0.8-1.899,1.7-3.8,1.9-4.899
							c0.3-2.199,0.3-7.801,0.3-7.899h0.5c0,0.2,0,5.7-0.3,7.899c-0.2,1.199-1,3.199-1.9,5.101c-0.7,1.601-1.4,3-1.6,3.899
							c-0.4,2-0.3,4.199-0.2,4.199H8.1z"/>
						<path id="Path_64_" fill="#3D3D3D" d="M22.6,22.1h-0.5c0.1-1.6-0.4-5.8-0.8-9.1c-0.2-1.2-0.3-2.4-0.4-3.3
							c-0.4-3.5-0.6-9.4-0.6-9.5h0.5c0,0.1,0.2,6,0.6,9.399c0.1,0.899,0.2,2.101,0.4,3.301C22.3,16.4,22.8,20.4,22.6,22.1z"/>
						<path id="Path_65_" fill="#3D3D3D" d="M14.2,22.1c0,0-0.1-2.398,0.2-4.398c0.2-1.7,0.9-3.5,1.6-5.5c0.4-1,0.8-2.102,1.2-3.301
							c0.8-2.5,0.7-8.5,0.7-8.5h0.5c0,0.199,0.1,6.101-0.8,8.699c-0.4,1.2-0.8,2.301-1.2,3.301c-0.7,2-1.4,3.801-1.6,5.399
							c-0.3,1.9-0.2,4.3-0.2,4.3H14.2z"/>
						<path id="Path_66_" fill="#3D3D3D" d="M19.1,22.1c0,0-0.1-4.3-0.3-6.699c-0.2-1.5-0.9-3.199-1.5-4.699
							c-0.4-0.9-0.7-1.7-0.9-2.4c-0.8-2.9-0.7-7.9-0.7-8.101h0.5c0,0.1-0.1,5.1,0.7,7.899c0.2,0.699,0.5,1.5,0.9,2.301
							c0.6,1.5,1.4,3.199,1.5,4.8c0.2,2.399,0.3,6.7,0.3,6.7L19.1,22.1z"/>
					</g>
					<g id="Rectangle_86_" transform="translate(2.000000, 16.000000)">
						<rect id="Rectangle_79_" x="0.1" y="0.8" fill="#FFFFFF" width="15.4" height="3.2"/>
						<rect id="Rectangle_80_" x="0.7" y="1.4" fill="#7D7D7D" width="4.3" height="2.1"/>
						<rect id="Rectangle_81_" x="5.7" y="1.4" fill="#7D7D7D" width="4.3" height="2.1"/>
						<rect id="Rectangle_82_" x="10.6" y="1.4" fill="#7D7D7D" width="4.3" height="2.1"/>
						<rect id="Rectangle_83_" x="1.6" y="1.4" fill="#3D3D3D" width="1" height="2.1"/>
						<rect id="Rectangle_84_" x="6.4" y="1.4" fill="#3D3D3D" width="1" height="2.1"/>
						<rect id="Rectangle_85_" x="11.5" y="1.4" fill="#3D3D3D" width="1" height="2.1"/>
					</g>
					<rect id="Rectangle_87_" x="4.7" y="26.7" fill="#F05354" width="1" height="8.399"/>
					<rect id="Rectangle_88_" x="9.5" y="26.7" fill="#FFFFFF" width="1" height="8.399"/>
					<rect id="Rectangle_89_" x="14.4" y="26.7" fill="#6896CE" width="1" height="8.399"/>
					<g transform="translate(0.000000, 55.000000)">
						<rect id="Rectangle_90_" y="0.4" fill="#3D3D3D" width="40.2" height="2"/>
						<circle id="Oval_5_" fill="#FFFFFF" cx="2.4" cy="1.3" r="1"/>
						<circle id="Oval_6_" fill="#FFFFFF" cx="5.6" cy="1.3" r="1"/>
						<circle id="Oval_7_" fill="#FFFFFF" cx="8.8" cy="1.3" r="1"/>
						<circle id="Oval_8_" fill="#FFFFFF" cx="12" cy="1.3" r="1"/>
						<circle id="Oval_9_" fill="#FFFFFF" cx="15.2" cy="1.3" r="1"/>
						<circle id="Oval_10_" fill="#FFFFFF" cx="18.4" cy="1.3" r="1"/>
						<circle id="Oval_11_" fill="#FFFFFF" cx="21.6" cy="1.3" r="1"/>
						<circle id="Oval_12_" fill="#FFFFFF" cx="24.8" cy="1.3" r="1"/>
						<circle id="Oval_13_" fill="#FFFFFF" cx="28" cy="1.3" r="1"/>
						<path id="Path_68_" fill="#FFFFFF" d="M31.7,1.3c0,0.3-0.2,0.5-0.5,0.5c-0.3,0-0.5-0.2-0.5-0.5s0.2-0.5,0.5-0.5
							C31.5,0.8,31.7,1,31.7,1.3z"/>
						<circle id="Oval_14_" fill="#FFFFFF" cx="34.4" cy="1.3" r="1"/>
						<circle id="Oval_15_" fill="#FFFFFF" cx="37.6" cy="1.3" r="1"/>
					</g>
					<rect id="Rectangle_91_" y="35.1" fill="#FFFFFF" width="18.8" height="1.5"/>
					<rect id="Rectangle_92_" x="20.9" y="21.9" fill="#3D3D3D" width="1.1" height="8.1"/>
					<rect id="Rectangle_93_" x="23.2" y="21.9" fill="#3D3D3D" width="1.1" height="8.1"/>
					<rect id="Rectangle_94_" x="25.4" y="21.9" fill="#3D3D3D" width="1.1" height="8.1"/>
					<rect id="Rectangle_95_" x="27.8" y="21.9" fill="#3D3D3D" width="1.1" height="8.1"/>
					<rect id="Rectangle_96_" x="31.4" y="21.9" fill="#3D3D3D" width="1.1" height="8.1"/>
					<rect id="Rectangle_97_" x="33.6" y="21.9" fill="#3D3D3D" width="1.1" height="8.1"/>
					<rect id="Rectangle_98_" x="36" y="21.9" fill="#3D3D3D" width="1.1" height="8.1"/>
					<g id="Path_72_" transform="translate(20.000000, 29.000000)">
						<path id="Path_69_" fill="#FFFFFF" d="M1.5,0.1L1.5,0.1C1,0.1,0.6,0.5,0.6,1v0.2C0.6,1.7,1,2.1,1.5,2.1l0,0
							C2,2.1,2.4,1.7,2.4,1.2V1C2.4,0.5,2,0.1,1.5,0.1z"/>
						<path id="Path_70_" fill="#7D7D7D" d="M0.6,1v3.8c0,0.5,0.4,0.9,0.9,0.9s0.9-0.4,0.9-0.9V1H0.6z"/>
						<path id="Path_71_" fill="#3D3D3D" d="M1.7,0.6c0,0.102-0.1,0.2-0.2,0.2S1.3,0.7,1.3,0.6C1.3,0.5,1.4,0.4,1.5,0.4
							S1.7,0.4,1.7,0.6z"/>
					</g>
					<g id="Path_76_" transform="translate(22.000000, 29.000000)">
						<path id="Path_73_" fill="#FFFFFF" d="M1.7,0.1L1.7,0.1C1.2,0.1,0.8,0.5,0.8,1v0.2C0.8,1.7,1.2,2.1,1.7,2.1l0,0
							C2.2,2.1,2.6,1.7,2.6,1.2V1C2.6,0.5,2.2,0.1,1.7,0.1z"/>
						<path id="Path_74_" fill="#7D7D7D" d="M0.8,1v3.8c0,0.5,0.4,0.9,0.9,0.9s0.9-0.4,0.9-0.9V1H0.8z"/>
						<path id="Path_75_" fill="#3D3D3D" d="M1.9,0.6c0,0.102-0.1,0.2-0.2,0.2c-0.1,0-0.2-0.1-0.2-0.2C1.5,0.5,1.6,0.4,1.7,0.4
							C1.8,0.4,1.9,0.4,1.9,0.6z"/>
					</g>
					<g id="Path_80_" transform="translate(25.000000, 29.000000)">
						<path id="Path_77_" fill="#FFFFFF" d="M0.9,0.1L0.9,0.1C0.4,0.1,0,0.5,0,1v0.2C0,1.7,0.4,2.1,0.9,2.1l0,0
							C1.4,2.1,1.8,1.7,1.8,1.2V1C1.8,0.5,1.4,0.1,0.9,0.1z"/>
						<path id="Path_78_" fill="#7D7D7D" d="M0,1v3.8c0,0.5,0.4,0.9,0.9,0.9s0.9-0.4,0.9-0.9V1H0z"/>
						<path id="Path_79_" fill="#3D3D3D" d="M1.1,0.6C1.1,0.7,1,0.8,0.9,0.8S0.7,0.7,0.7,0.6C0.7,0.5,0.8,0.4,0.9,0.4
							C1,0.3,1.1,0.4,1.1,0.6z"/>
					</g>
					<g id="Path_84_" transform="translate(27.000000, 29.000000)">
						<path id="Path_81_" fill="#FFFFFF" d="M1.3,0.1L1.3,0.1C0.8,0.1,0.4,0.5,0.4,1v0.2C0.4,1.7,0.8,2.1,1.3,2.1l0,0
							C1.8,2.1,2.2,1.7,2.2,1.2V1C2.2,0.5,1.8,0.1,1.3,0.1z"/>
						<path id="Path_82_" fill="#7D7D7D" d="M0.4,1v3.8c0,0.5,0.4,0.9,0.9,0.9s0.9-0.4,0.9-0.9V1H0.4z"/>
						<path id="Path_83_" fill="#3D3D3D" d="M1.5,0.6c0,0.102-0.1,0.2-0.2,0.2c-0.1,0-0.2-0.1-0.2-0.2C1.1,0.5,1.2,0.4,1.3,0.4
							C1.4,0.3,1.5,0.4,1.5,0.6z"/>
					</g>
					<g transform="translate(30.000000, 28.000000)">
						<path id="Path_85_" fill="#FFFFFF" d="M1.9,1.1L1.9,1.1C1.4,1.1,1,1.5,1,2v0.2C1,2.7,1.4,3.1,1.9,3.1l0,0
							C2.4,3.1,2.8,2.7,2.8,2.2V2C2.8,1.5,2.4,1.1,1.9,1.1z"/>
						<path id="Path_86_" fill="#7D7D7D" d="M1,2v3.8c0,0.5,0.4,0.9,0.9,0.9s0.9-0.4,0.9-0.9V2H1z"/>
						<circle id="Oval_16_" fill="#3D3D3D" cx="1.9" cy="1.6" r="1"/>
					</g>
					<g id="Path_90_" transform="translate(33.000000, 29.000000)">
						<path id="Path_87_" fill="#FFFFFF" d="M1.1,0.1L1.1,0.1C0.6,0.1,0.2,0.5,0.2,1v0.2C0.2,1.7,0.6,2.1,1.1,2.1l0,0
							C1.6,2.1,2,1.7,2,1.2V1C2,0.5,1.6,0.1,1.1,0.1z"/>
						<path id="Path_88_" fill="#7D7D7D" d="M0.2,1v3.8c0,0.5,0.4,0.9,0.9,0.9S2,5.3,2,4.8V1H0.2z"/>
						<path id="Path_89_" fill="#3D3D3D" d="M1.3,0.6c0,0.102-0.1,0.2-0.2,0.2S0.9,0.7,0.9,0.6C0.9,0.5,1,0.4,1.1,0.4
							S1.3,0.4,1.3,0.6z"/>
					</g>
					<g id="Path_94_" transform="translate(35.000000, 29.000000)">
						<path id="Path_91_" fill="#FFFFFF" d="M1.5,0.1L1.5,0.1C1,0.1,0.6,0.5,0.6,1v0.2C0.6,1.7,1,2.1,1.5,2.1l0,0
							C2,2.1,2.4,1.7,2.4,1.2V1C2.4,0.5,2,0.1,1.5,0.1z"/>
						<path id="Path_92_" fill="#7D7D7D" d="M0.6,1v3.8c0,0.5,0.4,0.9,0.9,0.9s0.9-0.4,0.9-0.9V1H0.6z"/>
						<path id="Path_93_" fill="#3D3D3D" d="M1.7,0.6c0,0.102-0.1,0.2-0.2,0.2S1.3,0.7,1.3,0.6C1.3,0.5,1.4,0.4,1.5,0.4
							C1.6,0.3,1.7,0.4,1.7,0.6z"/>
					</g>
					<rect id="Rectangle_99_" y="36.6" fill="#7D7D7D" width="18.8" height="12.7"/>
					<rect id="Rectangle_100_" x="1" y="37.8" fill="#5C5C5C" width="6.2" height="10.5"/>
					<rect id="Rectangle_101_" x="8.6" y="37.8" fill="#5C5C5C" width="9.3" height="10.5"/>
					<rect id="Rectangle_102_" x="1.9" y="38.7" fill="#FFFFFF" width="4.2" height="1.899"/>
					<rect id="Rectangle_103_" x="9.4" y="38.7" fill="#FFFFFF" width="1" height="1.899"/>
					<rect id="Rectangle_104_" x="11.1" y="38.7" fill="#FFFFFF" width="1" height="1.899"/>
					<rect id="Rectangle_105_" x="12.8" y="38.7" fill="#FFFFFF" width="1" height="1.899"/>
					<rect id="Rectangle_106_" x="14.5" y="38.7" fill="#FFFFFF" width="1" height="1.899"/>
					<rect id="Rectangle_107_" x="16.1" y="38.7" fill="#FFFFFF" width="1" height="1.899"/>
					<rect id="Rectangle_108_" x="1.8" y="41.9" fill="#3D3D3D" width="4.2" height="1"/>
					<rect id="Rectangle_109_" x="1.8" y="43.4" fill="#3D3D3D" width="4.2" height="1"/>
					<path id="Path_95_" fill="#3D3D3D" d="M5.3,46.3c0,0.7-0.6,1.3-1.3,1.3S2.7,47,2.7,46.3S3.3,45,4,45S5.3,45.6,5.3,46.3z"/>
					<path id="Path_96_" fill="#F05354" d="M4,47L4,47c-0.2,0-0.3-0.1-0.3-0.3v-1c0-0.2,0.1-0.3,0.3-0.3l0,0c0.2,0,0.3,0.1,0.3,0.3
						v1C4.3,46.9,4.1,47,4,47z"/>
					<circle id="Oval_17_" fill="#3D3D3D" cx="11.2" cy="46.3" r="1.3"/>
					<path id="Path_97_" fill="#F05354" d="M11.2,47L11.2,47c-0.2,0-0.3-0.1-0.3-0.3v-1c0-0.2,0.1-0.3,0.3-0.3l0,0
						c0.2,0,0.3,0.1,0.3,0.3v1C11.5,46.9,11.4,47,11.2,47z"/>
					<circle id="Oval_18_" fill="#3D3D3D" cx="15.3" cy="46.3" r="1.3"/>
					<path id="Path_98_" fill="#F05354" d="M15.3,47L15.3,47c-0.2,0-0.3-0.1-0.3-0.3v-1c0-0.2,0.1-0.3,0.3-0.3l0,0
						c0.2,0,0.3,0.1,0.3,0.3v1C15.6,46.9,15.5,47,15.3,47z"/>
					<path id="Path_99_" fill="#FFFFFF" d="M13.1,6.5h-0.5c0,0,0-1.1,0-3.1c0-1.301-0.4-1.9-0.7-2.101c-0.1-0.1-0.3,0-0.4,0.101
						c-0.6,0.5-0.6,2-0.6,2.5h-0.5c0-0.101-0.1-2,0.8-2.9c0.3-0.3,0.6-0.3,0.9-0.2c0.6,0.3,0.9,1.2,1,2.5
						C13.1,5.4,13.1,6.5,13.1,6.5z"/>
					<rect id="Rectangle_110_" x="10.3" y="3.4" fill="#3D3D3D" width="1" height="1.3"/>
					<path id="Path_100_" fill="#FFFFFF" d="M17,6.5h-0.5c0,0,0-1.1,0-3.1c0-1.301-0.4-1.9-0.7-2.101c-0.1-0.1-0.3,0-0.4,0.101
						c-0.6,0.5-0.6,2-0.6,2.5h-0.5c0-0.101-0.1-2,0.8-2.9c0.3-0.3,0.6-0.3,0.9-0.2c0.6,0.3,0.9,1.2,1,2.5C17.1,5.4,17,6.5,17,6.5z"
						/>
					<rect id="Rectangle_111_" x="14.3" y="3.4" fill="#3D3D3D" width="1" height="1.3"/>
					<path id="Path_101_" fill="#FFFFFF" d="M21.1,6.5h-0.5c0,0,0-1.1,0-3.1c0-1.301-0.4-1.9-0.7-2.101c-0.1-0.1-0.3,0-0.4,0.101
						c-0.6,0.5-0.6,2-0.6,2.5h-0.5c0-0.101-0.1-2,0.8-2.9c0.3-0.3,0.6-0.3,0.9-0.2c0.6,0.3,0.9,1.2,1,2.5
						C21.1,5.4,21.1,6.5,21.1,6.5z"/>
					<rect id="Rectangle_112_" x="18.4" y="3.4" fill="#3D3D3D" width="1" height="1.3"/>
					<path id="Path_102_" fill="#FFFFFF" d="M25.2,6.5h-0.5c0,0,0-1.1,0-3.1C24.7,2.1,24.3,1.5,24,1.3c-0.1-0.1-0.3,0-0.4,0.101
						C23,2,23,3.4,23,3.9h-0.5c0-0.101-0.1-2,0.8-2.9c0.3-0.3,0.6-0.3,0.9-0.2c0.6,0.3,0.9,1.2,1,2.5C25.2,5.4,25.2,6.5,25.2,6.5z"
						/>
					<rect id="Rectangle_113_" x="22.4" y="3.4" fill="#3D3D3D" width="1" height="1.3"/>
					<rect id="Rectangle_114_" x="28.2" y="3.7" fill="#5C5C5C" width="8.2" height="1.1"/>
					<rect id="Rectangle_115_" x="29.5" y="2.6" fill="#F05354" width="1" height="1.101"/>
					<rect id="Rectangle_116_" x="31.1" y="2.6" fill="#F05354" width="1" height="1.101"/>
					<rect id="Rectangle_117_" x="32.8" y="2.6" fill="#F05354" width="1" height="1.101"/>
					<rect id="Rectangle_118_" x="34.4" y="2.6" fill="#F05354" width="1" height="1.101"/>
				</g>
				<g id="Group_15_" transform="translate(45.000000, 3.000000)">
					<rect id="Rectangle_119_" x="0.822" y="4.752" fill="#FFFFFF" width="36.5" height="4.4"/>
					<rect id="Rectangle_120_" x="0.821" y="7.542" fill="#D3D3D3" width="35" height="1.601"/>
					<rect id="Rectangle_121_" x="32.682" y="1.583" fill="#5C5C5C" width="6.2" height="10.7"/>
					<rect id="Rectangle_122_" x="33.082" y="2.184" fill="#AEAEAE" width="5.4" height="9.5"/>
					<rect id="Rectangle_123_" x="33.782" y="5.917" fill="#7D7D7D" width="4" height="3.2"/>
					<rect id="Rectangle_124_" x="36.29" y="6.518" fill="#D3D3D3" width="1" height="2"/>
					<rect id="Rectangle_125_" x="35.182" y="6.518" fill="#D3D3D3" width="1" height="2"/>
					<rect id="Rectangle_126_" x="34.015" y="6.518" fill="#D3D3D3" width="1" height="2"/>
					<circle id="Oval_19_" fill="#3D3D3D" cx="11" cy="6.9" r="1.5"/>
					<path id="Path_103_" fill="#3D3D3D" d="M5.5,6.9c0,0.699,0.6,1.3,1.3,1.3c0.7,0,1.3-0.601,1.3-1.3C8.1,6.2,7.5,5.6,6.8,5.6
						C6.1,5.6,5.5,6.2,5.5,6.9z"/>
					<path id="Path_104_" fill="#F05354" d="M11,9.9L11,9.9c0.4,0,0.7-0.301,0.7-0.7V6.9c0-0.4-0.3-0.7-0.7-0.7l0,0
						c-0.4,0-0.7,0.3-0.7,0.7v2.3C10.3,9.6,10.6,9.9,11,9.9z"/>
					<path id="Path_105_" fill="#F05354" d="M6.8,7.7L6.8,7.7C7,7.7,7.1,7.6,7.1,7.4v-1C7.1,6.2,7,6.1,6.8,6.1l0,0
						C6.6,6.1,6.5,6.2,6.5,6.4v1C6.5,7.6,6.7,7.7,6.8,7.7z"/>
					<rect id="Rectangle_127_" x="36.437" y="12.252" fill="#3D3D3D" width="1" height="1.2"/>
					<rect id="Rectangle_128_" x="35.123" y="12.252" fill="#3D3D3D" width="1" height="1.2"/>
					<rect id="Rectangle_129_" x="33.809" y="12.252" fill="#3D3D3D" width="1" height="1.2"/>
					<rect id="Rectangle_130_" x="7.774" y="10.4" fill="#D3D3D3" width="1" height="1.3"/>
					<rect id="Rectangle_131_" x="6.111" y="10.4" fill="#D3D3D3" width="1" height="1.3"/>
					<rect id="Rectangle_132_" x="4.549" y="10.4" fill="#D3D3D3" width="1" height="1.3"/>
					<rect id="Rectangle_133_" x="12.234" y="11.725" fill="#5C5C5C" width="7.9" height="10.2"/>
					<rect id="Rectangle_134_" x="12.234" y="13.525" fill="#7D7D7D" width="7.9" height="6.5"/>
					<rect id="Rectangle_135_" x="3.912" y="11.725" fill="#5C5C5C" width="5.7" height="10.2"/>
					<rect id="Rectangle_136_" x="3.912" y="13.525" fill="#7D7D7D" width="5.7" height="6.5"/>
					<rect id="Rectangle_137_" x="17.825" y="9.122" fill="#7D7D7D" width="1" height="2.601"/>
					<rect id="Rectangle_138_" x="15.551" y="9.122" fill="#7D7D7D" width="1" height="2.601"/>
					<rect id="Rectangle_139_" x="13.277" y="9.122" fill="#7D7D7D" width="1" height="2.601"/>
					<rect id="Rectangle_140_" x="16.263" y="17.663" fill="#D3D3D3" width="3.3" height="1"/>
					<rect id="Rectangle_141_" x="36.437" y="13.494" fill="#F05354" width="1" height="3.3"/>
					<rect id="Rectangle_142_" x="35.123" y="13.494" fill="#FFFFFF" width="1" height="3.3"/>
					<rect id="Rectangle_143_" x="33.809" y="13.494" fill="#6896CE" width="1" height="3.3"/>
					<path id="Path_106_" fill="#3D3D3D" d="M36.6,20v6.3c0,0.3-0.3,0.601-0.6,0.601S35.4,26.6,35.4,26.3V20H36.6z"/>
					<path id="Path_107_" fill="#3D3D3D" d="M31.8,20v6.3c0,0.3-0.3,0.601-0.6,0.601c-0.3,0-0.6-0.301-0.6-0.601V20H31.8z"/>
					<path id="Path_108_" fill="#3D3D3D" d="M26.8,20v6.3c0,0.3-0.3,0.601-0.6,0.601c-0.3,0-0.6-0.301-0.6-0.601V20H26.8z"/>
					<g id="Path_113_" transform="translate(25.000000, 48.000000)">
						<path id="Path_109_" fill="#3D3D3D" d="M13.7,8.9c0-0.102,0.8-3-1.4-4.5C10.4,3.1,10.6,1,10.6,1h-0.5c0,0.1-0.2,2.4,1.9,3.8
							c1.9,1.3,1.2,3.9,1.2,4L13.7,8.9z"/>
						<path id="Path_110_" fill="#3D3D3D" d="M7.3,9l0.2-0.5h0.1c-0.1-0.2-0.2-1.4,0.9-3c1.2-1.8,1-4.9,0.9-5H8.9c0,0,0.3,3-0.9,4.7
							C6.9,6.8,6.9,8.1,7.1,8.6C7.1,8.9,7.2,9,7.3,9z"/>
						<path id="Path_111_" fill="#3D3D3D" d="M4.5,8.3H5c0-2.8,0-7,0-7.3H4.8L4.6,0.8C4.5,0.9,4.5,0.9,4.5,8.3z"/>
						<path id="Path_112_" fill="#3D3D3D" d="M0.8,8.4L1.3,8.3c0,0-0.5-1.7,0.5-3.399c1-2,1.3-3.699,1.3-3.801L2.6,1
							c0,0-0.3,1.8-1.3,3.7C0.3,6.5,0.7,8.3,0.8,8.4z"/>
					</g>
					<g id="Path_121_" transform="translate(2.000000, 34.000000)">
						<path id="Path_114_" fill="#3D3D3D" d="M21.8,22.8h0.5c0-5-1.8-9.6-3.2-12.5C17.7,7.4,17.8,0.4,17.8,0.3h-0.5
							c0,0.3-0.1,7.2,1.4,10.2C20.1,13.4,21.8,17.9,21.8,22.8z"/>
						<path id="Path_115_" fill="#3D3D3D" d="M17.8,21.6c0-0.1,0.3-5.3-1.4-11.898c-0.8-3.2-0.9-9.301-0.9-9.301H15
							C15,0.7,15.1,6.6,15.9,9.8c1.7,6.5,1.3,11.7,1.3,11.7L17.8,21.6z"/>
						<path id="Path_116_" fill="#3D3D3D" d="M11.9,22.1c0-0.1,0.1-5.6,0.8-7.898c0.8-2.801,0.7-13.5,0.7-13.9h-0.5
							c0,0.1,0.1,11.1-0.7,13.799c-0.7,2.301-0.8,7.801-0.8,8H11.9z"/>
						<path id="Path_117_" fill="#3D3D3D" d="M15,21.6c0-0.1,0.2-2.3-0.3-4.3c-0.2-1-0.9-2.5-1.6-4C12.3,11.4,11.4,9.5,11.2,8.4
							c-0.3-2.2-0.3-7.801-0.3-7.9h-0.5c0,0.2,0,5.7,0.3,7.9c0.2,1.199,1,3.199,1.9,5.1c0.7,1.6,1.4,3,1.6,3.9
							c0.4,2,0.3,4.199,0.2,4.199H15L15,21.6z"/>
						<path id="Path_118_" fill="#3D3D3D" d="M0.4,22.1h0.5c-0.1-1.6,0.4-5.8,0.8-9.1c0.2-1.2,0.3-2.4,0.4-3.3
							c0.4-3.5,0.6-9.4,0.6-9.5H2.2c0,0.1-0.2,6-0.6,9.399C1.5,10.5,1.4,11.7,1.2,12.9C0.8,16.4,0.3,20.4,0.4,22.1z"/>
						<path id="Path_119_" fill="#3D3D3D" d="M8.9,22.1c0,0,0.1-2.398-0.2-4.398c-0.2-1.7-0.9-3.5-1.6-5.5
							c-0.4-1-0.8-2.102-1.2-3.301C5.1,6.4,5.2,0.4,5.2,0.4H4.7C4.7,0.6,4.6,6.5,5.5,9.1C5.9,10.3,6.3,11.4,6.7,12.4
							c0.7,2,1.4,3.8,1.6,5.398c0.3,1.9,0.2,4.301,0.2,4.301H8.9L8.9,22.1z"/>
						<path id="Path_120_" fill="#3D3D3D" d="M4,22.1c0,0,0.1-4.3,0.3-6.699c0.2-1.5,0.9-3.199,1.5-4.699C6.2,9.8,6.5,9,6.7,8.3
							C7.5,5.4,7.4,0.4,7.4,0.2H6.9C6.9,0.3,7,5.3,6.2,8.1C6,8.8,5.7,9.6,5.3,10.4c-0.6,1.5-1.4,3.199-1.5,4.8
							c-0.2,2.399-0.3,6.7-0.3,6.7L4,22.1z"/>
					</g>
					<g id="Rectangle_151_" transform="translate(23.000000, 16.000000)">
						<rect id="Rectangle_144_" x="0.493" y="0.868" fill="#FFFFFF" width="15.4" height="3.2"/>
						<rect id="Rectangle_145_" x="11.017" y="1.387" fill="#7D7D7D" width="4.3" height="2.102"/>
						<rect id="Rectangle_146_" x="6.092" y="1.387" fill="#7D7D7D" width="4.3" height="2.102"/>
						<rect id="Rectangle_147_" x="1.108" y="1.387" fill="#7D7D7D" width="4.3" height="2.102"/>
						<rect id="Rectangle_148_" x="13.51" y="1.387" fill="#3D3D3D" width="1" height="2.102"/>
						<rect id="Rectangle_149_" x="8.65" y="1.387" fill="#3D3D3D" width="1" height="2.102"/>
						<rect id="Rectangle_150_" x="3.581" y="1.387" fill="#3D3D3D" width="1" height="2.102"/>
					</g>
					<rect id="Rectangle_152_" x="35.341" y="26.698" fill="#F05354" width="1" height="8.399"/>
					<rect id="Rectangle_153_" x="30.592" y="26.698" fill="#FFFFFF" width="1" height="8.399"/>
					<rect id="Rectangle_154_" x="25.608" y="26.698" fill="#6896CE" width="1" height="8.399"/>
					<g transform="translate(0.000000, 55.000000)">
						<rect id="Rectangle_155_" x="0.808" y="0.412" fill="#3D3D3D" width="40.2" height="2"/>
						<circle id="Oval_20_" fill="#FFFFFF" cx="38.7" cy="1.3" r="1"/>
						<path id="Path_122_" fill="#FFFFFF" d="M35,1.3c0,0.3,0.2,0.5,0.5,0.5S36,1.6,36,1.3s-0.2-0.5-0.5-0.5S35,1,35,1.3z"/>
						<circle id="Oval_21_" fill="#FFFFFF" cx="32.3" cy="1.3" r="1"/>
						<circle id="Oval_22_" fill="#FFFFFF" cx="29.1" cy="1.3" r="1"/>
						<circle id="Oval_23_" fill="#FFFFFF" cx="25.8" cy="1.3" r="1"/>
						<path id="Path_123_" fill="#FFFFFF" d="M22.1,1.3c0,0.3,0.2,0.5,0.5,0.5c0.3,0,0.5-0.2,0.5-0.5s-0.2-0.5-0.5-0.5
							C22.4,0.8,22.1,1,22.1,1.3z"/>
						<circle id="Oval_24_" fill="#FFFFFF" cx="19.4" cy="1.3" r="1"/>
						<circle id="Oval_25_" fill="#FFFFFF" cx="16.2" cy="1.3" r="1"/>
						<circle id="Oval_26_" fill="#FFFFFF" cx="13" cy="1.3" r="1"/>
						<path id="Path_124_" fill="#FFFFFF" d="M9.3,1.3c0,0.3,0.2,0.5,0.5,0.5c0.3,0,0.5-0.2,0.5-0.5s-0.2-0.5-0.5-0.5
							C9.5,0.8,9.3,1,9.3,1.3z"/>
						<circle id="Oval_27_" fill="#FFFFFF" cx="6.6" cy="1.3" r="1"/>
						<path id="Path_125_" fill="#FFFFFF" d="M2.9,1.3c0,0.3,0.2,0.5,0.5,0.5c0.3,0,0.5-0.2,0.5-0.5S3.7,0.8,3.4,0.8
							C3.1,0.8,2.9,1,2.9,1.3z"/>
					</g>
					<rect id="Rectangle_156_" x="22.248" y="35.145" fill="#FFFFFF" width="18.8" height="1.5"/>
					<rect id="Rectangle_157_" x="18.983" y="21.958" fill="#3D3D3D" width="1.1" height="8.101"/>
					<rect id="Rectangle_158_" x="16.802" y="21.958" fill="#3D3D3D" width="1.1" height="8.101"/>
					<rect id="Rectangle_159_" x="14.521" y="21.958" fill="#3D3D3D" width="1.1" height="8.101"/>
					<rect id="Rectangle_160_" x="12.186" y="21.958" fill="#3D3D3D" width="1.1" height="8.101"/>
					<rect id="Rectangle_161_" x="8.52" y="21.958" fill="#3D3D3D" width="1.1" height="8.101"/>
					<rect id="Rectangle_162_" x="6.338" y="21.958" fill="#3D3D3D" width="1.1" height="8.101"/>
					<rect id="Rectangle_163_" x="3.903" y="21.958" fill="#3D3D3D" width="1.1" height="8.101"/>
					<g transform="translate(18.000000, 28.000000)">
						<path id="Path_126_" fill="#FFFFFF" d="M1.6,1.1L1.6,1.1c0.5,0,0.9,0.4,0.9,0.9v0.2C2.5,2.7,2.1,3.1,1.6,3.1l0,0
							C1.1,3.1,0.7,2.7,0.7,2.2V2C0.7,1.5,1.1,1.1,1.6,1.1z"/>
						<path id="Path_127_" fill="#7D7D7D" d="M2.4,2v3.8c0,0.5-0.4,0.9-0.9,0.9S0.6,6.3,0.6,5.8V2H2.4z"/>
						<circle id="Oval_28_" fill="#3D3D3D" cx="1.6" cy="1.6" r="1"/>
					</g>
					<g id="Path_131_" transform="translate(16.000000, 29.000000)">
						<path id="Path_128_" fill="#FFFFFF" d="M1.4,0.1L1.4,0.1c0.5,0,0.9,0.4,0.9,0.9v0.2C2.3,1.7,1.9,2.1,1.4,2.1l0,0
							C0.9,2.1,0.5,1.7,0.5,1.2V1C0.5,0.5,0.9,0.1,1.4,0.1z"/>
						<path id="Path_129_" fill="#7D7D7D" d="M2.2,1v3.8c0,0.5-0.4,0.9-0.9,0.9S0.4,5.3,0.4,4.8V1H2.2z"/>
						<path id="Path_130_" fill="#3D3D3D" d="M1.1,0.6c0,0.102,0.1,0.2,0.2,0.2c0.1,0,0.2-0.1,0.2-0.2C1.5,0.5,1.4,0.4,1.3,0.4
							C1.2,0.3,1.1,0.4,1.1,0.6z"/>
					</g>
					<g id="Path_135_" transform="translate(14.000000, 29.000000)">
						<path id="Path_132_" fill="#FFFFFF" d="M1.1,0.1L1.1,0.1C1.6,0.1,2,0.5,2,1v0.2C2,1.7,1.6,2.1,1.1,2.1l0,0
							C0.6,2.1,0.2,1.7,0.2,1.2V1C0.2,0.5,0.6,0.1,1.1,0.1z"/>
						<path id="Path_133_" fill="#7D7D7D" d="M2,1v3.8c0,0.5-0.4,0.9-0.9,0.9S0.2,5.3,0.2,4.8V1H2z"/>
						<path id="Path_134_" fill="#3D3D3D" d="M0.9,0.6C0.9,0.7,1,0.8,1.1,0.8s0.2-0.1,0.2-0.2C1.3,0.5,1.2,0.4,1.1,0.4
							C1,0.3,0.9,0.4,0.9,0.6z"/>
					</g>
					<g transform="translate(11.000000, 28.000000)">
						<path id="Path_136_" fill="#FFFFFF" d="M1.7,1.1L1.7,1.1c0.5,0,0.9,0.4,0.9,0.9v0.2C2.6,2.7,2.2,3.1,1.7,3.1l0,0
							C1.2,3.1,0.8,2.7,0.8,2.2V2C0.9,1.5,1.3,1.1,1.7,1.1z"/>
						<path id="Path_137_" fill="#7D7D7D" d="M2.6,2v3.8c0,0.5-0.4,0.9-0.9,0.9S0.8,6.3,0.8,5.8V2H2.6z"/>
						<circle id="Oval_29_" fill="#3D3D3D" cx="1.8" cy="1.6" r="1"/>
					</g>
					<g id="Path_141_" transform="translate(8.000000, 29.000000)">
						<path id="Path_138_" fill="#FFFFFF" d="M1.2,0.1L1.2,0.1c0.5,0,0.9,0.4,0.9,0.9v0.2C2.1,1.7,1.7,2.1,1.2,2.1l0,0
							C0.7,2.1,0.3,1.7,0.3,1.2V1C0.3,0.5,0.7,0.1,1.2,0.1z"/>
						<path id="Path_139_" fill="#7D7D7D" d="M2.1,1v3.8c0,0.5-0.4,0.9-0.9,0.9S0.3,5.3,0.3,4.8V1H2.1z"/>
						<path id="Path_140_" fill="#3D3D3D" d="M1,0.6C1,0.7,1.1,0.8,1.2,0.8c0.1,0,0.2-0.1,0.2-0.2C1.4,0.5,1.3,0.4,1.2,0.4
							C1.1,0.4,1,0.4,1,0.6z"/>
					</g>
					<g transform="translate(5.000000, 28.000000)">
						<path id="Path_142_" fill="#FFFFFF" d="M1.9,1.1L1.9,1.1c0.5,0,0.9,0.4,0.9,0.9v0.2C2.8,2.7,2.4,3.1,1.9,3.1l0,0
							C1.4,3.1,1,2.7,1,2.2V2C1,1.5,1.4,1.1,1.9,1.1z"/>
						<path id="Path_143_" fill="#7D7D7D" d="M2.8,2v3.8c0,0.5-0.4,0.9-0.9,0.9S1,6.3,1,5.8V2H2.8z"/>
						<circle id="Oval_30_" fill="#3D3D3D" cx="1.9" cy="1.6" r="1"/>
					</g>
					<g id="Path_147_" transform="translate(3.000000, 29.000000)">
						<path id="Path_144_" fill="#FFFFFF" d="M1.6,0.1L1.6,0.1c0.5,0,0.9,0.4,0.9,0.9v0.2C2.5,1.7,2.1,2.1,1.6,2.1l0,0
							C1.1,2.1,0.7,1.7,0.7,1.2V1C0.7,0.5,1.1,0.1,1.6,0.1z"/>
						<path id="Path_145_" fill="#7D7D7D" d="M2.5,1v3.8c0,0.5-0.4,0.9-0.9,0.9S0.7,5.3,0.7,4.8V1H2.5z"/>
						<path id="Path_146_" fill="#3D3D3D" d="M1.4,0.6c0,0.102,0.1,0.2,0.2,0.2s0.2-0.1,0.2-0.2C1.8,0.5,1.7,0.4,1.6,0.4
							C1.5,0.3,1.4,0.4,1.4,0.6z"/>
					</g>
					<rect id="Rectangle_164_" x="22.248" y="36.721" fill="#7D7D7D" width="18.8" height="12.699"/>
					<rect id="Rectangle_165_" x="33.89" y="37.721" fill="#5C5C5C" width="6.2" height="10.5"/>
					<rect id="Rectangle_166_" x="23.162" y="37.721" fill="#5C5C5C" width="9.3" height="10.5"/>
					<rect id="Rectangle_167_" x="34.935" y="38.682" fill="#FFFFFF" width="4.2" height="1.899"/>
					<rect id="Rectangle_168_" x="30.659" y="38.682" fill="#FFFFFF" width="1" height="1.899"/>
					<rect id="Rectangle_169_" x="28.987" y="38.682" fill="#FFFFFF" width="1" height="1.899"/>
					<rect id="Rectangle_170_" x="27.316" y="38.682" fill="#FFFFFF" width="1" height="1.899"/>
					<rect id="Rectangle_171_" x="25.544" y="38.682" fill="#FFFFFF" width="1" height="1.899"/>
					<rect id="Rectangle_172_" x="23.873" y="38.682" fill="#FFFFFF" width="1" height="1.899"/>
					<rect id="Rectangle_173_" x="35.037" y="41.35" fill="#3D3D3D" width="4.2" height="1"/>
					<rect id="Rectangle_174_" x="35.037" y="42.988" fill="#3D3D3D" width="4.2" height="1"/>
					<circle id="Oval_31_" fill="#3D3D3D" cx="37.1" cy="46.3" r="1.3"/>
					<path id="Path_148_" fill="#F05354" d="M37.1,47L37.1,47c0.2,0,0.3-0.1,0.3-0.3v-1c0-0.2-0.1-0.3-0.3-0.3l0,0
						c-0.2,0-0.3,0.1-0.3,0.3v1C36.8,46.9,36.9,47,37.1,47z"/>
					<circle id="Oval_32_" fill="#3D3D3D" cx="29.8" cy="46.3" r="1.3"/>
					<path id="Path_149_" fill="#F05354" d="M29.8,47L29.8,47c0.2,0,0.3-0.1,0.3-0.3v-1c0-0.2-0.1-0.3-0.3-0.3l0,0
						c-0.2,0-0.3,0.1-0.3,0.3v1C29.6,46.9,29.7,47,29.8,47z"/>
					<circle id="Oval_33_" fill="#3D3D3D" cx="25.7" cy="46.3" r="1.3"/>
					<path id="Path_150_" fill="#F05354" d="M25.7,47L25.7,47c0.2,0,0.3-0.1,0.3-0.3v-1c0-0.2-0.1-0.3-0.3-0.3l0,0
						c-0.2,0-0.3,0.1-0.3,0.3v1C25.4,46.9,25.5,47,25.7,47z"/>
					<path id="Path_151_" fill="#FFFFFF" d="M28,6.5h0.5c0,0,0-1.1,0-3.1c0-1.301,0.4-1.9,0.7-2.101c0.1-0.1,0.3,0,0.4,0.101
						c0.6,0.5,0.6,2,0.6,2.5h0.5c0-0.101,0.1-2-0.8-2.9c-0.3-0.3-0.6-0.3-0.9-0.2c-0.6,0.3-0.9,1.2-1,2.5C27.9,5.4,28,6.5,28,6.5z"
						/>
					<rect id="Rectangle_175_" x="29.7" y="3.393" fill="#3D3D3D" width="1" height="1.299"/>
					<path id="Path_152_" fill="#FFFFFF" d="M24,6.5h0.5c0,0,0-1.1,0-3.1c0-1.301,0.4-1.9,0.7-2.101c0.1-0.1,0.3,0,0.4,0.101
						c0.6,0.5,0.6,2,0.6,2.5h0.5c0-0.101,0.1-2-0.8-2.9c-0.3-0.3-0.6-0.3-0.9-0.2c-0.6,0.3-0.9,1.2-1,2.5C24,5.4,24,6.5,24,6.5z"/>
					<rect id="Rectangle_176_" x="25.817" y="3.393" fill="#3D3D3D" width="1" height="1.299"/>
					<path id="Path_153_" fill="#FFFFFF" d="M19.9,6.5h0.5c0,0,0-1.1,0-3.1c0-1.301,0.4-1.9,0.7-2.101c0.1-0.1,0.3,0,0.4,0.101
						c0.6,0.5,0.6,2,0.6,2.5h0.5c0-0.101,0.1-2-0.8-2.9c-0.3-0.3-0.6-0.3-0.9-0.2c-0.6,0.3-0.9,1.2-1,2.5
						C19.9,5.4,19.9,6.5,19.9,6.5z"/>
					<rect id="Rectangle_177_" x="21.643" y="3.393" fill="#3D3D3D" width="1" height="1.299"/>
					<path id="Path_154_" fill="#FFFFFF" d="M15.9,6.5h0.5c0,0,0-1.1,0-3.1c0-1.301,0.4-1.9,0.7-2.101c0.1-0.1,0.3,0,0.4,0.101
						c0.6,0.5,0.6,2,0.6,2.5h0.5c0-0.101,0.1-2-0.8-2.9c-0.3-0.3-0.6-0.3-0.9-0.2c-0.6,0.3-0.9,1.2-1,2.5
						C15.8,5.4,15.9,6.5,15.9,6.5z"/>
					<rect id="Rectangle_178_" x="17.569" y="3.393" fill="#3D3D3D" width="1" height="1.299"/>
					<rect id="Rectangle_179_" x="4.647" y="3.582" fill="#5C5C5C" width="8.2" height="1.1"/>
					<rect id="Rectangle_180_" x="10.493" y="2.57" fill="#F05354" width="1" height="1.1"/>
					<rect id="Rectangle_181_" x="8.946" y="2.57" fill="#F05354" width="1" height="1.1"/>
					<rect id="Rectangle_182_" x="7.299" y="2.57" fill="#F05354" width="1" height="1.1"/>
					<rect id="Rectangle_183_" x="5.651" y="2.57" fill="#F05354" width="1" height="1.1"/>
				</g>
			</g>
			<g id="Group_17_" transform="translate(130.000000, 116.000000)">
				<rect id="Rectangle_184_" x="11.5" y="0.2" fill="#FFFFFF" width="9.9" height="1.8"/>
				<rect id="Rectangle_185_" x="11.5" y="2" fill="#E9A922" width="1.1" height="3.2"/>
				<rect id="Rectangle_186_" x="20.3" y="2" fill="#E9A922" width="1.1" height="3.2"/>
				<g id="Path_157_" transform="translate(1.000000, 8.000000)">
					<path id="Path_155_" fill="#AEAEAE" d="M0.9,10v5.9H30V10c-4,1.4-9.1,2.3-14.6,2.3C10,12.2,4.9,11.4,0.9,10z"/>
					<path id="Path_156_" fill="#7D7D7D" d="M0.9,0v10c4,1.4,9.1,2.3,14.6,2.3S26.1,11.4,30.1,10V0H0.9z"/>
				</g>
				<rect id="Rectangle_187_" x="1" y="6.3" fill="#AEAEAE" width="31" height="4.7"/>
				<path id="Path_158_" fill="#7D7D7D" d="M30,4.3H3.1c-1.1,0-2,0.9-2,2l0,0H32l0,0C32,5.2,31.1,4.3,30,4.3z"/>
				<g id="Path_167_" transform="translate(3.000000, 5.000000)">
					<path id="Path_159_" fill="#7D7D7D" d="M1.2,3.1L1.2,3.1C0.9,3.1,0.7,2.9,0.7,2.6V1.4c0-0.301,0.2-0.5,0.5-0.5l0,0
						c0.3,0,0.5,0.199,0.5,0.5V2.6C1.7,2.8,1.5,3.1,1.2,3.1z"/>
					<path id="Path_160_" fill="#7D7D7D" d="M4.7,3.1L4.7,3.1C4.4,3.1,4.2,2.9,4.2,2.6V1.4c0-0.301,0.2-0.5,0.5-0.5l0,0
						C5,0.9,5.2,1.1,5.2,1.4V2.6C5.2,2.8,5,3.1,4.7,3.1z"/>
					<path id="Path_161_" fill="#7D7D7D" d="M8.2,3.1L8.2,3.1C7.9,3.1,7.7,2.9,7.7,2.6V1.4c0-0.301,0.2-0.5,0.5-0.5l0,0
						c0.3,0,0.5,0.199,0.5,0.5V2.6C8.7,2.8,8.5,3.1,8.2,3.1z"/>
					<path id="Path_162_" fill="#7D7D7D" d="M11.7,3.1L11.7,3.1c-0.3,0-0.5-0.199-0.5-0.5V1.4c0-0.301,0.2-0.5,0.5-0.5l0,0
						c0.3,0,0.5,0.199,0.5,0.5V2.6C12.2,2.8,12,3.1,11.7,3.1z"/>
					<path id="Path_163_" fill="#7D7D7D" d="M15.2,3.1L15.2,3.1c-0.3,0-0.5-0.199-0.5-0.5V1.4c0-0.301,0.2-0.5,0.5-0.5l0,0
						c0.3,0,0.5,0.199,0.5,0.5V2.6C15.7,2.8,15.5,3.1,15.2,3.1z"/>
					<path id="Path_164_" fill="#7D7D7D" d="M18.7,3.1L18.7,3.1c-0.3,0-0.5-0.199-0.5-0.5V1.4c0-0.301,0.2-0.5,0.5-0.5l0,0
						c0.3,0,0.5,0.199,0.5,0.5V2.6C19.2,2.8,19,3.1,18.7,3.1z"/>
					<path id="Path_165_" fill="#7D7D7D" d="M22.2,3.1L22.2,3.1c-0.3,0-0.5-0.199-0.5-0.5V1.4c0-0.301,0.2-0.5,0.5-0.5l0,0
						c0.3,0,0.5,0.199,0.5,0.5V2.6C22.7,2.8,22.5,3.1,22.2,3.1z"/>
					<path id="Path_166_" fill="#7D7D7D" d="M25.7,3.1L25.7,3.1c-0.3,0-0.5-0.199-0.5-0.5V1.4c0-0.301,0.2-0.5,0.5-0.5l0,0
						c0.3,0,0.5,0.199,0.5,0.5V2.6C26.2,2.8,26,3.1,25.7,3.1z"/>
				</g>
				<rect id="Rectangle_188_" x="0.5" y="8.9" fill="#5C5C5C" width="32" height="1.3"/>
			</g>
			<g id="Group_22_" transform="translate(171.000000, 30.000000)">
				<path id="Path_168_" fill="#FBB580" d="M15.5,26.3c0,0,3.3,6.5,4.5,8.2s3.5,3.3,5.3,4.2c1.8,0.899,6.6-4.2,6.6-4.2l-2.9-5
					l-1.5,3c0,0-6.4-6.6-7.7-7.9c-1.3-1.3-3.3-1.898-4.2-1.8C14.6,23,15.5,26.3,15.5,26.3z"/>
				<g id="Path_174_" transform="translate(22.000000, 0.000000)">
					<g id="Group_18_" transform="translate(5.000000, 2.000000)">
						<path id="Path_169_" fill="#FBB580" d="M1.6,4.9C1.9,3.7,2.2,3.2,3.4,2.3c1.2-0.899,6-1.7,8.4,0.3c2.3,2,1.4,5.601,1,6.9
							c-0.4,1.4-1.2,3.2-1.5,5.1c-0.1,0.9,0.7,2.9,1,3.4l0,0c-1,1.2-2.7,1.6-4.1,1.7c-0.8,0.1-1.5,0-2.1-0.101
							C6.2,19.5,6.3,19.4,6.3,19.2C6.5,18.7,6.4,16.6,6,16.1C5.4,15.4,4.6,15.4,3.7,15.6C2.5,15.8,2.8,14.3,2,14
							c-0.5-0.2-0.2-0.4,0-0.7C1.9,13.1,1.5,13,1.5,12.9c-0.2-0.4,0.2-0.5,0.2-0.7c-0.1-0.5-1.5-0.5-1.4-1C0.5,10.3,2.1,8.6,1.9,8
							C1.4,6.9,1.4,6,1.6,4.9z"/>
						<path id="Path_170_" fill="#3D3D3D" d="M1.7,4.5c0,0,1.6-0.6,3.8,1C6.9,6.6,7,7.8,8.8,8.3C10.4,8.7,10.1,9.9,10.1,9.9
							l1.4,3.898c0,0,2.4-2.1,2.6-6.6C14.3,2.8,13,2.3,13,2.3s-2.4-1.8-7.1-1.5C3.2,1,1.7,1.9,1.7,1.9S2,3.2,1.7,4.5z"/>
						<path id="Path_171_" fill="#FBB580" d="M8.5,8.5c0,0,0.1-1.5,1.4-1.3c1.4,0.2,1.5,2.1,0,3.3S8.5,8.5,8.5,8.5z"/>
					</g>
					<g id="Group_19_">
						<path id="Path_172_" fill="#006836" d="M5.5,6.3L5.5,6.3l4-0.399c0,0-0.4-2.2-2.3-2.801C8,2,9.3,1,11.4,0.7
							c6.8-1,7.9,5.5,7.9,5.5L0.8,8.4L0.6,7.2L5.5,6.3z"/>
						<path id="Path_173_" fill="#005D32" d="M9.5,5.9L5.5,6.3l0,0L6,6.2C6,6.2,6.1,4.6,7.3,3C9.1,3.7,9.5,5.9,9.5,5.9z"/>
					</g>
				</g>
				<g id="Path_179_" transform="translate(11.000000, 109.000000)">
					<path id="Path_175_" fill="#3D3D3D" d="M23.2,6.4c-0.5-0.4-1-0.602-1.5-0.7c0.4-0.7,1-1.4,1.6-1.8c1.4-1,4.2-2.801,4.2-2.801
						L34.2,0.4C34.2,0.4,34,2.1,34,3.3c-1.3,1-3.4,2.601-5.1,3.101C26.3,7.3,24.5,7.3,23.2,6.4z"/>
					<path id="Path_176_" fill="#3D3D3D" d="M1.7,5.8C1.2,5.5,0.8,5.2,0.3,5.1C0.7,4.4,1.4,3.6,2,3.2c1.4-1,4.2-2.8,4.2-2.8l6.1,0.5
						h0.6c0,0-0.1,0.8-0.2,1.6c-1.3,1-3.5,2.7-5.3,3.3C4.9,6.7,3.1,6.8,1.7,5.8z"/>
					<path id="Path_177_" fill="#31312F" d="M34,3.9c0,1-1.8,2.199-4.3,3.398C27.2,8.499,23,8.6,21.7,8c-0.7-0.3-0.6-1.3,0-2.2
						c0.5,0.101,0.9,0.3,1.5,0.7c1.3,0.9,3.1,0.9,5.8,0c1.7-0.6,3.8-2.1,5.1-3.1C34,3.5,34,3.7,34,3.9z"/>
					<path id="Path_178_" fill="#31312F" d="M12.8,3.2c0,1-1.8,2.2-4.3,3.399C6,7.8,1.8,7.9,0.5,7.3C-0.2,7-0.1,6.1,0.4,5.2
						c0.4,0.1,0.9,0.3,1.4,0.7C3.1,6.8,4.9,6.8,7.6,5.9C9.4,5.3,11.6,3.6,12.9,2.6C12.8,2.8,12.8,3,12.8,3.2z"/>
				</g>
				<path id="Path_180_" fill="#FFFFFF" d="M42.2,110c0,0-1.9,1.9-4.2,3.4c-1.9,1.199-3.4,0.8-1.9-0.7c1.6-1.5,3-2.7,3-2.7H42.2z"/>
				<path id="Path_181_" fill="#FFFFFF" d="M20.5,110c0,0-1.9,1.9-4.2,3.4c-1.9,1.199-3.4,0.8-1.9-0.7c1.6-1.5,3-2.7,3-2.7H20.5z"/>
				<g id="Path_184_" transform="translate(26.000000, 19.000000)">
					<path id="Path_182_" fill="#006836" d="M15.2,34.9C13.8,35.8,8.3,33.4,5.8,33.8c-1.5,0.3-3.9,0.8-5.6,1.2
						C1,26.1,0.7,15.3,1.1,13.6C2.3,9.2,4.4,5.5,7,2.4C10.1,3.3,13.2,0.8,13.2,0.8s3.6,2,5.1,3.9C20.1,7,20.2,13.6,20,19.5
						c-1.4,2.8-3.1,6.3-3.8,7.7C15.3,29.8,16.6,34.1,15.2,34.9z"/>
					<path id="Path_183_" fill="#005D32" d="M20.1,38.8c0,0-9.1,0.601-12.3,0.5C5.6,39.2,0,37.8,0,37.8c0.1-0.899,0.2-1.7,0.3-2.6
						c1.6-0.4,4-0.9,5.6-1.2c2.5-0.4,8,1.9,9.4,1.1c1.4-0.898,0.1-5.199,1.2-7.699c0.6-1.399,2.4-4.899,3.8-7.699
						C20.2,21.6,20.1,23.4,20,25C19.6,30.2,20.3,35.1,20.1,38.8z"/>
				</g>
				<g id="Path_187_" transform="translate(14.000000, 53.000000)">
					<path id="Path_185_" fill="#333334" d="M13,21.6c-1.3,4.5-2.4,8.5-3.9,10.102c-1.5,1.6-4.7,4.1-3.8,5c0.9,1,1.7-0.102,2.6,0
						c0.9,0.1,0.6,2.199,0.2,4.5C7.9,42.1,6.8,51.6,6.1,57.6H0.3C0.4,51,0.7,30.6,2,27.5c1.4-3.1,8-22,10-26.9
						C12.8,0.8,15.4,1.9,16.1,2C21.2,3.2,28.6,1.4,32,0.8c0.9,4.8,0.9,10.2,1.1,12.9c0.4,5.6-1.6,19.7-1.2,23.1
						c0.3,2.8,0.1,15.7,0.4,20.7h-9.7c-0.3-5.3-1.1-19.7-1.1-22.2c0-4.2-2.6-20.1-2.6-20.1L18,13.7C18,13.9,14.3,17.2,13,21.6z"/>
					<path id="Path_186_" fill="#282829" d="M10.6,57.6H6.1c0.7-6,1.8-15.398,2-16.398c0.4-2.301,0.7-4.301-0.2-4.5
						c-0.9-0.102-1.7,1-2.6,0c-0.9-1,2.4-3.4,3.8-5C10.6,30.1,11.7,26.1,13,21.6s5-7.8,5-7.8l0.9,1.5c0,0-6.7,15.3-7.2,18.601
						C11.4,36.6,10.8,52,10.6,57.6z"/>
				</g>
				<path id="Path_188_" fill="#282829" d="M46.3,55.5L46,52.9c0,0-8.5,1.8-13.4,1.6s-6.2-1.7-6.2-1.7L25.2,55.4
					c0,0,3.2,1.898,9.8,1.5C40.9,56.7,46.3,55.5,46.3,55.5z"/>
				<path id="Path_189_" fill="#282829" d="M38,55.2c0,0,0.4,6.399,2.9,8.8c2.1,2.1,6.2,1.8,6.2,1.8l0.1,1.601
					c0,0-5.3,0.699-8.2-2.801S36.2,55.7,36.2,55.7L38,55.2z"/>
				<path id="Path_190_" fill="#282829" d="M32.9,68.3l-1.2-0.5c0,0-1.4-2.899-1.7-5.2c-0.3-2.3-0.6-6.3-0.4-6.3
					c0.2,0,1.9,0.2,1.9,0.2s0,2.9,0.3,5.8C31.9,64.4,32.9,68.3,32.9,68.3z"/>
				<path id="Path_191_" fill="#FFFFFF" d="M31,32.1c0,0.301,0.2,0.602,0.5,0.602S32,32.5,32,32.1c0-0.3-0.2-0.6-0.5-0.6
					S31,31.8,31,32.1z"/>
				<g id="Group_20_" transform="translate(0.000000, 27.000000)">
					<path id="Path_192_" fill="#EF3E4E" d="M4.8,4.3L4.8,4.3C4.9,4.2,4.9,4,4.8,3.9L1.2,0.6c-0.1-0.1-0.3-0.1-0.4,0l0,0
						C0.7,0.7,0.7,0.9,0.8,1l3.6,3.3C4.5,4.5,4.7,4.5,4.8,4.3z"/>
					
						<rect id="Rectangle_189_" x="1.004" y="0.849" transform="matrix(-0.6738 0.7389 -0.7389 -0.6738 3.6817 1.072)" fill="#EF3E4E" width="1.2" height="1"/>
				</g>
				<path id="Path_193_" fill="#EF3E4E" d="M11.6,54.3c-0.3,0-0.6,0-0.9-0.1c-3.5-0.601-3.3-4.8-3.2-8.8c0-1.102,0.1-2.301,0-3.301
					c-0.2-4.699-2.5-9-2.5-9L5.2,33c0,0,2.3,4.4,2.5,9.1c0,1.102,0,2.2,0,3.4c-0.1,3.9-0.3,7.9,3,8.5c1.2,0.2,2.3,0,3.1-0.8
					c1.7-1.5,2.6-5,2.3-9.601c-0.3-5.899-1.5-13.101-2.5-15l0.2-0.101c1,2,2.2,9,2.5,15.101c0.3,4.699-0.6,8.199-2.4,9.801
					C13.3,54,12.5,54.3,11.6,54.3z"/>
				<path id="Path_194_" fill="#FBB580" d="M32.5,31.4c0,0-5.8,5.398-6.8,6c-1,0.699-3.9-0.7-5.7-0.9C18.1,36.3,9.7,31,7.1,30.4
					c-2.6-0.602-6.9-1.2-6.2,0.1c0.4,0.8,1.4,2.7,2.1,4c0.3,0.5,2.2,2,5.3,1.9c3.1-0.102,7.3,4.3,10.1,5.5
					c2.8,1.199,7.2,3.6,9.8,2.6c2.5-1.1,9.6-6.3,9.6-6.3L32.5,31.4z"/>
				<path id="Path_195_" fill="#005D32" d="M31.5,32.1c1.1-1.199,3.5-4,4-4.5c6.3-6.699,12.1-4.3,9.6,2.602
					c-1.1,3.199-4.8,6.5-7.2,8.8C35.8,36.6,33.5,34.6,31.5,32.1z"/>
				<g id="Group_21_" transform="translate(7.000000, 17.000000)">
					<g>
						
							<rect id="Rectangle_190_" x="2.871" y="1.098" transform="matrix(-0.8913 0.4535 -0.4535 -0.8913 14.3832 9.3473)" fill="#EF3E4E" width="6.4" height="10.6"/>
						
							<rect id="Rectangle_191_" x="3.571" y="1.697" transform="matrix(-0.8913 0.4535 -0.4535 -0.8913 14.3831 9.3461)" fill="#3D3D3D" width="5" height="9.401"/>
						
							<rect id="Rectangle_192_" x="2.612" y="2.583" transform="matrix(-0.8912 0.4537 -0.4537 -0.8912 10.1627 4.3297)" fill="#989898" width="3.901" height="1.602"/>
						<g transform="translate(4.000000, 5.000000)">
							<path id="Path_196_" fill="#FEE467" d="M0.7,2.5c0.4,0.8,1.4,1.1,2.2,0.7C3.7,2.8,4,1.8,3.6,1S2.2-0.1,1.4,0.3
								C0.6,0.7,0.3,1.7,0.7,2.5z"/>
							<path id="Path_197_" fill="#FFDEAE" d="M1,2.3C1.3,2.9,2.1,3.2,2.7,2.8c0.6-0.3,0.9-1.1,0.5-1.7C2.9,0.5,2.1,0.2,1.5,0.6
								C1,0.9,0.7,1.7,1,2.3z"/>
							
								<rect id="Rectangle_193_" x="1.835" y="0.2" transform="matrix(0.8914 -0.4533 0.4533 0.8914 -0.4489 1.2266)" fill="#FEE467" width="1" height="2.699"/>
						</g>
						<path id="Path_198_" fill="#989898" d="M8.6,8.7C8.7,8.9,8.9,9,9.1,8.9C9.3,8.8,9.4,8.6,9.3,8.4C9.2,8.2,9,8.1,8.8,8.2
							C8.6,8.3,8.5,8.5,8.6,8.7z"/>
						<path id="Path_199_" fill="#713773" d="M7.1,9.4C7.2,9.6,7.4,9.7,7.6,9.6c0.2-0.1,0.3-0.3,0.2-0.5C7.7,8.9,7.5,8.8,7.3,8.9
							C7.1,9,7,9.2,7.1,9.4z"/>
						<path id="Path_200_" fill="#EF3E4E" d="M5.6,10.2c0.1,0.2,0.3,0.3,0.5,0.2C6.3,10.3,6.4,10.1,6.3,9.9C6.2,9.7,6,9.6,5.8,9.7
							C5.6,9.7,5.5,10,5.6,10.2z"/>
						<path id="Path_201_" fill="#EF3E4E" d="M6.8,11.6L6.8,11.6c0.1,0,0.1-0.199,0.1-0.3l-0.6-1.2C6.3,10,6.1,10,6,10l0,0
							c-0.1,0-0.1,0.2-0.1,0.3l0.6,1.2C6.6,11.6,6.7,11.6,6.8,11.6z"/>
					</g>
					<path id="Path_202_" fill="#FBB580" d="M12.7,7.6c0,0-1.2-1.699-1.8-2.398c-0.5-0.7-1.8-1.5-2.3-1.9C7.7,2.7,7.9,4.1,8.3,4.4
						C9.2,5.2,9.9,6.8,9.9,6.8L12.7,7.6z"/>
					<path id="Path_203_" fill="#FBB580" d="M1.9,5.9c0.4-0.301,1-0.7,1.3-0.2C3.5,6.2,2.8,6.8,2.3,7C1.7,7.2,1.1,6.5,1.9,5.9z"/>
					<path id="Path_204_" fill="#FBB580" d="M2.4,6.9c0.4-0.301,1-0.7,1.3-0.2C4,7.2,3.3,7.8,2.8,8C2.2,8.2,1.6,7.5,2.4,6.9z"/>
					<path id="Path_205_" fill="#FBB580" d="M3,7.9C3.4,7.6,4,7.2,4.3,7.7C4.6,8.2,3.9,8.8,3.4,9C2.8,9.3,2.2,8.6,3,7.9z"/>
					<path id="Path_206_" fill="#FBB580" d="M3.4,8.9c0.4-0.301,1-0.7,1.3-0.2C5,9.2,4.3,9.8,3.8,10C3.2,10.3,2.6,9.6,3.4,8.9z"/>
				</g>
				<path id="Path_207_" fill="#005D32" d="M32.1,22.9l0.3-1.602c0,0,3.5-0.5,5.6-1.398c2.5-1.102,3.1,1.199,3.1,1.199s-3.1,0.5-4,1
					C34.4,23.4,32.1,22.9,32.1,22.9z"/>
			</g>
		</g>
	</g>
</g>
</svg>
