<?xml version="1.0" encoding="utf-8"?>
<!-- Generator: Adobe Illustrator 16.0.0, SVG Export Plug-In . SVG Version: 6.00 Build 0)  -->
<!DOCTYPE svg PUBLIC "-//W3C//DTD SVG 1.1//EN" "http://www.w3.org/Graphics/SVG/1.1/DTD/svg11.dtd">
<svg version="1.1" id="Layer_1" xmlns="http://www.w3.org/2000/svg" xmlns:xlink="http://www.w3.org/1999/xlink" x="0px" y="0px"
	 width="447px" height="202px" viewBox="-2 49 447 202" enable-background="new -2 49 447 202" xml:space="preserve">
<title>1552731932_banner</title>
<desc>Created with Sketch.</desc>
<g id="Page-1">
	<g id="_x31_552731932_x5F_banner">
		
			<linearGradient id="Rectangle-Copy-6_1_" gradientUnits="userSpaceOnUse" x1="103.1655" y1="211.3984" x2="101.8064" y2="212.1135" gradientTransform="matrix(386 0 0 -251 -39319.5 53282.5)">
			<stop  offset="0" style="stop-color:#64DCC2"/>
			<stop  offset="1" style="stop-color:#70BCE6"/>
		</linearGradient>
		<rect id="Rectangle-Copy-6" x="-2" fill="url(#Rectangle-Copy-6_1_)" width="447" height="251"/>
		<path id="Rectangle" opacity="0.2203" fill="#FFFFFF" enable-background="new    " d="M73.5,121h81c3.59,0,6.5,2.91,6.5,6.5l0,0
			c0,3.59-2.91,6.5-6.5,6.5h-81c-3.59,0-6.5-2.91-6.5-6.5l0,0C67,123.91,69.91,121,73.5,121z"/>
		<path id="Rectangle-Copy" opacity="0.2203" fill="#FFFFFF" enable-background="new    " d="M181.5,157h81c3.59,0,6.5,2.91,6.5,6.5
			l0,0c0,3.59-2.91,6.5-6.5,6.5h-81c-3.59,0-6.5-2.91-6.5-6.5l0,0C175,159.91,177.91,157,181.5,157z"/>
		<path id="Rectangle-Copy-2" opacity="0.2961" fill="#FFFFFF" enable-background="new    " d="M281.5,108h81
			c3.59,0,6.5,2.91,6.5,6.5l0,0c0,3.59-2.91,6.5-6.5,6.5h-81c-3.59,0-6.5-2.91-6.5-6.5l0,0C275,110.91,277.91,108,281.5,108z"/>
		<path id="Rectangle-Copy-3" opacity="0.2961" fill="#FFFFFF" enable-background="new    " d="M113.5,204h81
			c3.59,0,6.5,2.91,6.5,6.5l0,0c0,3.59-2.91,6.5-6.5,6.5h-81c-3.59,0-6.5-2.91-6.5-6.5l0,0C107,206.91,109.91,204,113.5,204z"/>
		<path id="Rectangle-Copy-4" opacity="0.2961" fill="#FFFFFF" enable-background="new    " d="M267.5,191h81
			c3.59,0,6.5,2.91,6.5,6.5l0,0c0,3.59-2.91,6.5-6.5,6.5h-81c-3.59,0-6.5-2.91-6.5-6.5l0,0C261,193.91,263.91,191,267.5,191z"/>
		<g id="Plumbing" transform="translate(0.000000, 68.000000)">
			<g id="Group" transform="translate(9.000000, 42.000000)" opacity="0.5">
				<path id="Path" fill="#AFDCC9" d="M284.5,70.6c0,2.301-1,4.102-2.2,4.102H250.4c-1.2,0-2.2-1.801-2.2-4.102l0,0
					c0-2.3,1-4.1,2.2-4.1H282.3C283.5,66.5,284.5,68.3,284.5,70.6L284.5,70.6z"/>
				<path id="Path_1_" fill="#AFDCC9" d="M39.5,18c0,2.3-1.1,4.1-2.4,4.1h-34c-1.3,0-2.4-1.8-2.4-4.1l0,0c0-2.3,1.1-4.1,2.4-4.1h34
					C38.5,13.9,39.5,15.8,39.5,18L39.5,18z"/>
				<path id="Path_2_" fill="#AFDCC9" d="M69.4,78.8c0,2.3-1.3,4.101-3,4.101h-43c-1.6,0-3-1.801-3-4.101l0,0c0-2.3,1.3-4.1,3-4.1
					h43C68.1,74.7,69.4,76.5,69.4,78.8L69.4,78.8z"/>
				<path id="Path_3_" fill="#AFDCC9" d="M213.2,30.7c0,2.3-1,4.1-2.3,4.1h-33.7c-1.3,0-2.3-1.8-2.3-4.1l0,0
					c0-2.3,1-4.101,2.3-4.101h33.7C212.2,26.6,213.2,28.4,213.2,30.7L213.2,30.7z"/>
				<path id="Path_4_" fill="#AFDCC9" d="M418.2,4.6c0,2.3-1.102,4.1-2.4,4.1h-35.3c-1.4,0-2.4-1.8-2.4-4.1l0,0
					c0-2.3,1.102-4.1,2.4-4.1h35.3C417.1,0.5,418.2,2.3,418.2,4.6L418.2,4.6z"/>
			</g>
			<rect id="Rectangle_1_" y="166.6" fill="#AAD1D3" width="441.4" height="16"/>
			<path id="Path_5_" fill="#FFFFFF" d="M170.2,8.6L170.2,8.6c0,1.3-1.1,2.3-2.4,2.3l0,0c1.3,0,2.3,1,2.3,2.3l0,0
				c0-1.3,1-2.3,2.3-2.3l0,0C171.2,10.9,170.2,9.9,170.2,8.6z"/>
			<g id="Group_26_" transform="translate(34.000000, 0.000000)">
				<g id="Group_7_" transform="translate(10.000000, 8.000000)">
					<path id="Path_6_" fill="#F8961D" d="M73.9,88.1H12.7l0,0C7.2,87.9,2.8,83.4,2.8,77.9v-9.7H0.5v9.7c0,6.898,5.6,12.6,12.6,12.6
						h19.7l0,0H74c1.5,0,2.7,1.2,2.7,2.7v16.5c-0.5,0-1.5,0-2.7-0.101v2.5c1,0,1.9,0,3,0l0,0c0.4,0,1.1-0.199,1.5-0.699
						s0.5-1.102,0.5-1.7V93.1C78.9,90.3,76.7,88.1,73.9,88.1z"/>
					<g transform="translate(86.000000, 79.000000)">
						<g id="Path_9_">
							<path id="Path_7_" fill="#D02027" d="M17.6,33.4v-28c0-1.7-1.4-3.102-3.1-3.102l0,0H0V0.7h14.5c2.6,0,4.7,2.1,4.7,4.7l0,0v28
								H17.6L17.6,33.4z"/>
							<path id="Path_8_" fill="#F8961D" d="M14.5,0.7H0v0.6h14c2.5,0,4.6,2,4.6,4.601v27.5h0.6v-28C19.1,2.8,17.1,0.7,14.5,0.7z"/>
						</g>
						<g transform="translate(10.000000, 24.000000)">
							<path id="Path_10_" fill="#D02027" d="M9.6,2.8c0,0.2-0.2,0.3-0.5,0.3H7.6C7.3,3.1,7.1,3,7.1,2.8V0.5c0-0.2,0.2-0.3,0.5-0.3
								h1.5c0.3,0,0.5,0.1,0.5,0.3V2.8z"/>
							<g transform="translate(0.000000, 2.000000)">
								<path id="Path_11_" fill="#010101" d="M8.9,18.8c0,0.4-0.3,0.7-0.6,0.7l0,0c-0.3,0-0.6-0.3-0.6-0.7L7.5,17.4
									c0-0.4,0.5-0.7,0.8-0.7l0,0c0.3,0,0.8,0.3,0.8,0.7L8.9,18.8z"/>
								<path id="Path_12_" fill="#F15622" d="M10.5,1c0,0.5-0.4,0.9-0.9,0.9H7.1C6.6,1.9,6.2,1.5,6.2,1l0,0c0-0.5,0.4-0.9,0.9-0.9
									h2.5C10.1,0.1,10.5,0.5,10.5,1L10.5,1z"/>
								<g transform="translate(0.000000, 1.000000)">
									<path id="Path_13_" fill="#F15622" d="M15.8,14c0,1.6-1.5,2.8-3.3,2.8H4.4c-1.8,0-3.3-1.3-3.3-2.8V3.4
										C1.1,1.9,2.6,0.6,4.4,0.6h8.1c1.8,0,3.3,1.301,3.3,2.801V14z"/>
									<path id="Path_14_" fill="#F8961D" d="M15.8,14V3.4c0-1.5-1.5-2.801-3.3-2.801H6.9v16.199h5.6C14.3,16.8,15.8,15.5,15.8,14
										z"/>
									<g id="Rectangle_4_" transform="translate(0.000000, 4.000000)">
										<rect id="Rectangle_2_" x="0.9" y="1" fill="#F15622" width="14.8" height="1"/>
										<rect id="Rectangle_3_" x="0.9" y="0.6" fill="#F8961D" width="14.8" height="1"/>
									</g>
								</g>
							</g>
						</g>
					</g>
					<path id="Path_15_" fill="#8ED3F5" d="M77.3,156.1c0-1.398,1.1-2.5,2.5-2.5c1.4,0,2.5,1.102,2.5,2.5c0,1.4-1.1,2.5-2.5,2.5
						C78.4,158.6,77.3,157.5,77.3,156.1z"/>
					<path id="Path_16_" fill="#F15622" d="M85.1,124.3v-47c0-1.5-1.2-2.7-2.7-2.7l0,0H22.6v-2.3h59.8c2.8,0,5.1,2.3,5.1,5.101l0,0
						V124.3H85.1L85.1,124.3z"/>
					<path id="Path_17_" fill="#D02027" d="M79.1,156.9V155.3h3.3c1.7,0,3.1-1.399,3.1-3.1l0,0v-26.5h1.6v26.5
						c0,2.6-2.1,4.7-4.7,4.7l0,0H79.1L79.1,156.9z"/>
					<g id="Path_22_" transform="translate(92.000000, 79.000000)">
						<path id="Path_18_" fill="#BD7148" d="M3.5,2.4c0,0.199-0.1,0.3-0.2,0.3H0.2C0.1,2.7,0,2.6,0,2.4V0.8c0-0.2,0.1-0.3,0.2-0.3
							h3.1c0.1,0,0.2,0.1,0.2,0.3V2.4z"/>
						<g id="Group_1_">
							<path id="Path_19_" fill="#B4C1D1" d="M2.1,2.9C2.1,3,2,3.1,1.9,3.1H1.5C1.4,3.1,1.3,3,1.3,2.9V1.1C1.3,1,1.4,0.9,1.5,0.9
								h0.4C2,0.9,2.1,1,2.1,1.1V2.9z"/>
							<path id="Path_20_" fill="#8495B0" d="M2,3.1L1.4,3.4L1.2,3.1c0,0,0.2-0.3,0.3-0.3S1.9,2.8,2,2.9C2.1,3,2,3.1,2,3.1z"/>
							<path id="Path_21_" fill="#D02027" d="M1.7,4.5c0,0.2-0.1,0.3-0.3,0.3l0,0c-0.2,0-0.3-0.1-0.3-0.3V3c0-0.2,0.1-0.3,0.3-0.3
								l0,0c0.2,0,0.3,0.1,0.3,0.3V4.5z"/>
						</g>
					</g>
					<path id="Path_23_" fill="#C9EBFC" d="M57.2,139.1V133.9c0-2.801,2.3-5.102,5.1-5.102l0,0h1.5v2.301h-1.5
						c-1.5,0-2.7,1.199-2.7,2.699l0,0v5.2c0,1.5,1.2,2.7,2.7,2.7l0,0v2.3C59.4,144.2,57.2,141.9,57.2,139.1L57.2,139.1z"/>
					<path id="Path_24_" fill="#F8961D" d="M65.4,150.4V146.8c0-1.8-1.5-3.3-3.3-3.3l0,0v-1.2c2.5,0,4.5,2,4.5,4.5l0,0v3.601H65.4
						L65.4,150.4z"/>
					<g id="Path_27_" transform="translate(57.000000, 138.000000)">
						<path id="Path_25_" fill="#9E1C20" d="M0.4,2c0-0.8,0.6-1.4,1.4-1.4C2.6,0.6,3.2,1.2,3.2,2S2.6,3.4,1.8,3.4
							C1,3.4,0.4,2.8,0.4,2z"/>
						<path id="Path_26_" fill="#D02027" d="M1,2c0-0.4,0.4-0.8,0.8-0.8C2.2,1.2,2.6,1.6,2.6,2c0,0.5-0.4,0.8-0.8,0.8
							C1.4,2.8,1,2.4,1,2z"/>
					</g>
					<path id="Path_28_" fill="#D02027" d="M79.1,155.6v-3.5c0-1.8-1.5-3.3-3.3-3.3l0,0h-9.3v-1.2h9.3c2.5,0,4.5,2,4.5,4.5l0,0v3.5
						H79.1L79.1,155.6z"/>
					<g transform="translate(56.000000, 149.000000)">
						<rect id="Rectangle_5_" x="4.1" y="4.5" fill="#BD7148" width="1.2" height="1"/>
						<path id="Path_29_" fill="#F8961D" d="M5.3,6.1V5.8H4.1C4.1,6.2,4.2,6.5,4,6.9C3.9,7.2,3.6,7.2,3.4,7.2H1.8
							c-0.9,0-1.6,0.7-1.6,1.6V8.9C0.5,9,0.7,9,1.1,9c0.1-0.6,0.3-0.9,1.5-0.9h1.7C5.3,8.1,5.5,6.9,5.3,6.1z"/>
						<path id="Path_30_" fill="#BD7148" d="M5.7,5.7C5.7,5.9,5.5,6.1,5.2,6.1h-1C4,6.1,3.7,5.9,3.7,5.7l0,0c0-0.2,0.2-0.5,0.5-0.5
							h1C5.5,5.2,5.7,5.4,5.7,5.7L5.7,5.7z"/>
						<g id="Path_37_" transform="translate(2.000000, 4.000000)">
							<g id="Group_2_">
								<path id="Path_31_" fill="#C9EBFC" d="M4.4,0.6c0.2,0.2,0.2,0.5-0.1,0.7C4,1.4,3.7,1.4,3.5,1.1C3.3,0.9,3.4,0.6,3.6,0.5
									C3.9,0.3,4.2,0.4,4.4,0.6z"/>
								<path id="Path_32_" fill="#C9EBFC" d="M2.1,1.7C2.3,2,2.2,2.4,1.9,2.6C1.6,2.8,1.2,2.7,1,2.4C0.8,2.1,0.9,1.7,1.2,1.6
									C1.5,1.3,1.9,1.4,2.1,1.7z"/>
								<path id="Path_33_" fill="#C9EBFC" d="M4.1,0.7C4.2,0.8,3.6,1.2,2.8,1.6C2,2,1.3,2.2,1.2,2C1.1,1.9,1.7,1.5,2.5,1.1
									C3.3,0.8,4,0.6,4.1,0.7z"/>
							</g>
							<g id="Group_3_">
								<path id="Path_34_" fill="#8ED3F5" d="M4.9,2.4C4.7,2.7,4.3,2.8,3.9,2.6C3.5,2.4,3.4,2,3.5,1.7c0.2-0.3,0.6-0.4,0.9-0.2
									C4.9,1.7,5.1,2.1,4.9,2.4z"/>
								<path id="Path_35_" fill="#8ED3F5" d="M1.9,1.1C1.7,1.3,1.4,1.4,1.1,1.3C0.8,1.2,0.8,0.9,0.9,0.6C1,0.4,1.4,0.3,1.6,0.4
									C1.9,0.5,2,0.8,1.9,1.1z"/>
								<path id="Path_36_" fill="#8ED3F5" d="M4.4,2.2C4.3,2.3,3.5,2.1,2.7,1.7C1.9,1.3,1.3,0.9,1.4,0.8C1.5,0.7,2.2,0.9,3,1.3
									C3.7,1.6,4.4,2,4.4,2.2z"/>
							</g>
						</g>
						<path id="Path_38_" fill="#F8961D" d="M10.5,0.2H6.9c-1,0-1.8,0.3-2.3,0.899C4.1,1.8,4.1,2.5,4.1,3.5c0,0.4,0,0.7,0,1.2l0,0
							c0.1,0,0.3,0.1,0.6,0.1c0.3,0,0.6-0.1,0.6-0.1l0,0l0,0c0-0.4,0-0.8,0-1.101C5.3,2.7,5.4,2.2,5.6,2C5.8,1.8,6,1.6,6.9,1.6h3.6
							V0.2z"/>
					</g>
					<path id="Path_39_" fill="#F15622" d="M105.2,0v55.6c0,1.2-0.5,2.5-1.3,3.4c-0.8,0.9-1.9,1.5-2.9,1.5v0.1H21.2
						c-3.6,0-6.6,2.9-6.6,6.601V68.1c0,3.602,2.9,6.602,6.6,6.602h28.3V72.4H21.2c-2.3,0-4.2-1.899-4.3-4.301V67.2
						c0-2.3,1.9-4.2,4.3-4.3h80V62.8c3.7-0.2,6.3-3.7,6.3-7.2V0H105.2z"/>
					<g transform="translate(89.000000, 57.000000)">
						<path id="Path_40_" fill="#8ED3F5" d="M10,3.4L9,2.1L6.6,1.8C5.4,1.9,4.4,2.7,3.9,3.7L3.5,6.4L4,7.1C5.1,8.5,6.1,8.7,7,8.7
							c1.9,0,3.5-1.601,3.5-3.5C10.6,4.6,10.4,4,10,3.4z"/>
						<path id="Path_41_" fill="#8ED3F5" d="M5,3.1H1.5c-0.2,0-0.4,0.2-0.4,0.4v2.3C0.8,5.9,0.5,5.9,0.5,6s0.7,1,0.7,1l0,0
							c0.1,0.1,0.2,0.1,0.3,0.1H5c0.2,0,0.4-0.199,0.4-0.398V3.4C5.4,3.3,5.2,3.1,5,3.1z"/>
						<path id="Path_42_" fill="#C9EBFC" d="M4.9,5.9C4.9,6.1,4.7,6.3,4.5,6.3H1C0.8,6.3,0.6,6.1,0.6,5.9V2.6C0.6,2.4,0.8,2.2,1,2.2
							h3.5c0.2,0,0.4,0.2,0.4,0.399V5.9z"/>
						<g transform="translate(2.000000, 0.000000)">
							<path id="Path_43_" fill="#C9EBFC" d="M0.7,4.3c0-2,1.6-3.6,3.6-3.6s3.6,1.6,3.6,3.6S6.3,7.9,4.3,7.9S0.7,6.3,0.7,4.3z"/>
							<path id="Shape" opacity="0.4" fill="#5684C4" enable-background="new    " d="M4.3,1.4C2.7,1.4,1.4,2.7,1.4,4.3
								c0,1.601,1.3,2.9,2.9,2.9c1.6,0,2.9-1.3,2.9-2.9C7.2,2.7,5.9,1.4,4.3,1.4z M4.3,6.5c-1.2,0-2.2-1-2.2-2.2s1-2.2,2.2-2.2
								c1.2,0,2.2,1,2.2,2.2S5.5,6.5,4.3,6.5z"/>
						</g>
					</g>
					<g id="Path_48_" transform="translate(21.000000, 72.000000)">
						<path id="Path_44_" fill="#C9EBFC" d="M4.9,2.6C4.9,2.8,4.8,3,4.6,3H0.5C0.3,3,0.2,2.8,0.2,2.6V0.4C0.2,0.2,0.3,0,0.5,0h4.1
							c0.2,0,0.3,0.2,0.3,0.4V2.6L4.9,2.6z"/>
						<g id="Group_4_" transform="translate(1.000000, 0.000000)">
							<path id="Path_45_" fill="#8ED3F5" d="M2.1,3.3c0,0.2-0.1,0.3-0.3,0.3H1.3C1.1,3.6,1,3.5,1,3.3V0.9C1,0.7,1.1,0.6,1.3,0.6
								h0.5C2,0.6,2.1,0.7,2.1,0.9V3.3z"/>
							<path id="Path_46_" fill="#8495B0" d="M1.9,3.6L1.1,4L0.8,3.6c0,0,0.3-0.3,0.4-0.3c0.1,0,0.6,0,0.7,0.101
								C2,3.4,1.9,3.6,1.9,3.6z"/>
							<path id="Path_47_" fill="#F8961D" d="M1.5,5.5c0,0.2-0.2,0.4-0.4,0.4l0,0c-0.2,0-0.4-0.2-0.4-0.4V3.4C0.7,3.2,0.9,3,1.1,3
								l0,0c0.2,0,0.4,0.2,0.4,0.4V5.5z"/>
						</g>
					</g>
					<g id="Path_52_" transform="translate(29.000000, 56.000000)">
						<path id="Path_49_" fill="#C9EBFC" d="M4.7,6.8c0,0.2-0.1,0.4-0.3,0.4H0.3C0.1,7.2,0,7,0,6.8V4.6C0,4.4,0.1,4.2,0.3,4.2h4.1
							c0.2,0,0.3,0.2,0.3,0.399V6.8L4.7,6.8z"/>
						<g id="Group_5_" transform="translate(1.000000, 0.000000)">
							<path id="Path_50_" fill="#C9EBFC" d="M0.8,3.7c0,0,0.1-0.601,0.3-0.601c0.2,0,0.5,0,0.5,0S2,3.7,1.8,3.8
								C1.7,3.9,0.8,3.7,0.8,3.7z"/>
							<g id="Path_51_">
								<path fill="#8ED3F5" d="M0.7,3.7c0-0.2,0.1-0.3,0.3-0.3h0.5c0.2,0,0.3,0.1,0.3,0.3V6.1C1.8,6.3,1.7,6.4,1.5,6.4H1
									C0.8,6.4,0.7,6.3,0.7,6.1V3.7z"/>
								<path fill="#F8961D" d="M0.9,0.8C0.9,0.6,1.1,0.4,1.3,0.4l0,0C1.5,0.4,1.7,0.6,1.7,0.8V2.9C1.7,3.1,1.5,3.3,1.3,3.3l0,0
									C1.1,3.3,0.9,3.1,0.9,2.9V0.8L0.9,0.8z"/>
							</g>
						</g>
					</g>
					<g transform="translate(10.000000, 108.000000)">
						<path id="Path_53_" fill="#FFDBA8" d="M46.3,24.4c0.5,0.1,1,0.5,1.6,0.398c1.7-0.199,2.6,0.2,2.7,0.102
							c0.9-1-1.8-1.102-1.2-2.102c0.5-0.398,1-1.199,1.2-1.3c0.4-0.3,1.8-0.5,1.9-0.601c0.1-0.399-1.9-0.801-3-0.301
							c-1.9,0.7-3.7,1.301-3.7,1.301L46.3,24.4z"/>
						<path id="Path_54_" fill="#005D32" d="M31,13.7c1.5,1.5,5.5,6.899,8.1,8.399c0.8,0.399,7.5-0.5,7.5-0.5L46.4,26.7
							c0,0-6.9,1.6-8.5,1.399c-2.5-0.301-12.2-5.801-12.2-5.801L31,13.7z"/>
						<g id="Path_59_" transform="translate(26.000000, 0.000000)">
							<path id="Path_55_" fill="#E4C0AF" d="M5.4,8.9c-0.5,1-1.3,1.8-2.5,3.1c-2.6,2.6-2.6,3.1-2.6,3.1l4.2,4.2
								c0,0,3.5-3.899,5-4.2C10.8,14.8,5.4,8.9,5.4,8.9z"/>
							<path id="Path_56_" fill="#E4C0AF" d="M14.6,13.1C14.5,12.5,15,10.9,15,10.5l0,0c0.9-0.7,1.8-2.2,1.8-4
								c0-0.1-0.5-0.2-0.7-0.5C15.5,3,8.4-0.5,6,3.5c-4.4,7.4,2.4,11.6,4,12.6c0.3,0.2,1,0.301,1.9-1.1c0.6-0.5,1-0.8,1.4-1.3
								c0.5,0.1,1,0,1.2-0.3C14.6,13.2,14.6,13.1,14.6,13.1z"/>
							<path id="Path_57_" fill="#873B1E" d="M8.5,1.1c1-0.3,2-1.398,4.2,0.102c1.9,1.3,4.3,2.5,4.4,4.6c0.1,2,1.6,2.2,1.6,2.2
								s-0.6,1.2-1.9,1c-0.6-0.101-2.3-2-3.4-1.399c-0.9,0.399-2.1,0.5-2.1,0.5S9,8.2,8.7,8.8C8.6,9,7.3,10.3,6.6,10.6
								C5.3,11.1,3.2,10.7,3.2,10.7S4,9.3,4.6,6C5.2,1.9,7.1,1.4,8.5,1.1z"/>
							<path id="Path_58_" fill="#E4C0AF" d="M10.7,8c1.1-1.6-1.1-1.6-1.3-1.1C9.1,7.5,7.9,8.7,8.5,9.6C9.1,10.4,10.7,8,10.7,8z"/>
						</g>
						<path id="Path_60_" fill="#010101" d="M24.8,50c-0.3,1.9-0.5,4.4,0.9,4.4c1.4,0,1.9-0.9,3.9-0.5c1.9,0.398,7.5,1.398,7.5,0
							c0-1.4-0.9-2-1.9-2.102c-2.4-0.3-4.4-4.1-5.3-3.898C28.7,48.2,24.8,50,24.8,50z"/>
						<path id="Path_61_" fill="#010101" d="M41.5,33.6c0,0.7-0.2,1.4-0.4,2C41,35.9,40.9,36.1,40.8,36.4c-0.2,0.5-0.4,1-0.7,1.398
							c-0.5,1-1,1.9-1.5,2.9c-0.1,0.1-0.1,0.3-0.2,0.398c-0.1,0.2-0.2,0.4-0.3,0.602c-1.4,3.8-2.3,8.8-2.7,9.398
							c-0.1,0.2-0.6,0.301-1.2,0.4c-1.2,0.2-2.9,0.3-4.5,0.2c-1.8,0-3.3-0.2-3.5-0.5c-0.2-0.3-0.3-0.7-0.4-1l0,0
							c0-0.2-0.1-0.4-0.1-0.601c0-0.199,0-0.301,0-0.5c0-0.301,0-0.5,0-0.801c0.2-2,1-4.5,2-6.6c0.8-1.9,1.8-3.5,2.4-4.2
							c0.7-0.7-1,0.899-2.9,2.399C26.7,40.3,26.1,40.8,25.6,41.1C25,41.6,24.4,41.9,24,42l0.1-4.6V37.3l1.4,0.601l1.1,0.5l0,0
							l2-7.199c-0.1-0.2-0.3-0.301-0.3-0.5c-0.1-0.102-0.2-0.301-0.3-0.4c-0.2-0.3-0.4-0.6-0.6-1c-0.1-0.1-0.1-0.199-0.2-0.3
							c0.1,0,0.2,0,0.3,0c0.4,0,0.9,0,1.3-0.101c0.1,0,0.3,0,0.4,0c2.3-0.101,5-0.199,7.2-0.101c2.1,0.101,3.7,0.5,4.1,1.2
							C41.3,31.4,41.6,32.5,41.5,33.6z"/>
						<path id="Path_62_" fill="#8ED3F5" d="M20.1,35.5l3.8,1.7c0,0,0,0,0,0.1c-0.3,0.5-0.4,0.8-0.5,1.101c-0.5,0-1.7-0.801-3-1.899
							c-0.5-0.399-1-0.899-1.6-1.399C18.7,35,18.5,34.9,18.4,34.7L20.1,35.5z"/>
						<path id="Path_63_" fill="#005D32" d="M32.8,19.3c0,0.8-0.2,1.8-0.5,2.7c-0.3,1-0.7,2-1.2,3.1c-0.4,0.9-0.8,1.7-1.3,2.602
							C29.5,28.2,29.3,28.6,29,29c-0.3,0.5-0.5,0.9-0.8,1.4c-0.2-0.301-0.4-0.602-0.6-1c-0.1-0.102-0.1-0.2-0.2-0.301
							c-0.7-1.101-1.3-2.399-1.9-3.601c0-0.101-0.1-0.2-0.1-0.3c-1.4-0.602-2.7-2.5-3-7.102C21.7,19,20.9,20.2,20.1,21.7
							c-1.3,2.399-2.3,0.1-2.3,0.1c0.2-1.1,1.7-3,3.4-4.7c-0.5,0-1.1,0.102-1.4,0.102c4-5.301,7.6-5.7,9-6c0,0,0.1,0.199,0.4,0.5
							c0.4,0.5,1,1.398,1.6,2.3c0.6,1,1.3,2.2,1.6,3.2C32.6,18,32.8,18.7,32.8,19.3z"/>
						<path id="Path_64_" fill="#232121" d="M7.1,45.5c-1.6-1.4-2.5-2.5-4.2-2.3c-1.8,0.2-2.2,1.2-2.2,2.6c0,1.4-0.6,3.7-0.5,5.3
							c0.1,1.2,1.2,3.801,5.2,3.2C8,53.9,5,51.9,4.7,50.5C4.4,49.1,7.1,45.5,7.1,45.5z"/>
						<path id="Path_65_" fill="#005D32" d="M20,34.8c0,0.101,0,0.4,0.1,0.7l-1.7-0.7L12,32c1-4.3,3.5-9.5,7.4-14.8
							c0,0,0.1-0.101,0.3-0.101C20,17,20.6,17,21.1,17c-1.7,1.7-3.2,3.7-3.4,4.7c0,0,0.9,2.3,2.3-0.101
							c0.8-1.399,1.6-2.601,2.3-3.601c0.2,4.601,1.5,6.5,3,7.101c0,0.101,0.1,0.199,0.1,0.301C24.8,25.3,24.2,25.1,23.7,24.8
							C23,26.2,20.5,33,20,34.8z"/>
						<path id="Path_66_" fill="#005D32" d="M17.8,21.7c0.2-1.101,1.7-3,3.4-4.7c0.6,0,1.1,0,1.1,0.1c0,0.301,0,0.7,0,1
							C21.6,19,20.8,20.2,20,21.7C18.7,24,17.8,21.7,17.8,21.7z"/>
						<path id="Path_67_" fill="#010101" d="M25.9,50.6c0.1,1.801,0,3-0.1,3.801c-0.4,2-1.5,1.101-3.9,1.101
							c-2,0-12.7-1.899-16.8-4.2c0,0,0,0-0.1,0c-0.7-0.4-1-1.801-1-3.4c0-1.602,0.3-3.4,0.8-4.2c0.2-0.3,0.5-0.5,0.8-0.4
							c4.7,1.2,8.7,2.2,9.9,2.4c0.9,0.2,1.7,0.5,2.1,0.7c-1-0.602-3.9-2.801-5.4-6c-0.9-2-1-4.9-0.2-8.301l6.3,2.801L20,35.6
							l3.8,1.7l0.4,0.2l1.4,0.6l0,0c0,0.9,0,1.9,0,3.102c0,2.199,0.1,4.699,0.1,7.199c0,0.399,0,0.801,0,1.199V49.7
							c0,0.2,0,0.399,0,0.7l0,0l0,0C25.9,50.3,25.9,50.5,25.9,50.6z"/>
						<path id="Path_68_" fill="#010101" d="M29,24.8L28.8,25.4L27.7,29.1L27.6,29.4c-0.1-0.102-0.1-0.2-0.2-0.301
							c-0.7-1.101-1.3-2.399-1.9-3.601c0-0.101-0.1-0.2-0.1-0.3C27.1,26,29,24.8,29,24.8z"/>
						<g id="Path_72_" transform="translate(3.000000, 24.000000)">
							<path id="Path_69_" fill="#00522A" d="M25.8,7.3l-2,7.2l0,0h-0.1l-1-0.4l-1.4-0.6l-0.4-0.2l-3.8-1.7C17,11.3,17,11.1,17,10.9
								c0.4-1.801,3-8.602,3.7-10c0.5,0.3,1.1,0.5,1.7,0.6C23,2.8,23.7,4,24.3,5.1C24.4,5.2,24.4,5.3,24.5,5.4
								c0.2,0.3,0.4,0.699,0.6,1c0.1,0.1,0.2,0.3,0.3,0.398C25.5,6.9,25.7,7.1,25.8,7.3z"/>
							<path id="Path_70_" fill="#212121" d="M24.4,5.1C23.7,4,23.1,2.7,22.5,1.5c1.2,0.2,2.4,0.1,3.3,0c0.2,0,0.3-0.1,0.5-0.1
								c0.2,0,0.4-0.102,0.5-0.102c0.4-0.1,0.7-0.199,0.7-0.199l-0.7,2.699L26.4,5.1L25.8,7.4c-0.1-0.2-0.3-0.301-0.3-0.5
								C25.4,6.8,25.3,6.6,25.2,6.5c-0.2-0.3-0.4-0.6-0.6-1C24.5,5.3,24.4,5.2,24.4,5.1z"/>
							<path id="Path_71_" fill="#212121" d="M26.7,26.4c0.1,0.5,0.1,0.898,0.1,1.398c0,0.9-0.1,1.602-0.4,2.102
								c-0.9,2.1-3.5,2.3-5.9,2.3c-3.2,0-9.4-0.9-17-2.5c-0.4-0.101-0.8-0.2-1.3-0.3C1.6,29.3,0.6,24.9,1,23.9
								C1,23.8,1.1,23.8,1.1,23.7c0.3,0.2,0.7,0.3,1.2,0.5c4.3,1.7,14.6,4,19,3.3c0.1,0,0.1,0,0.2-0.1c0.8-0.2,1.2-0.602,1.3-1.2
								l0,0c0-0.2,0-0.4,0-0.7v-0.1c0-0.102,0-0.301-0.1-0.4c-0.4-1.6-1.6-3.7-2.5-5.9c-0.9-2-2.2-4.8-2.9-6.699
								C17.2,12.1,17.1,11.8,17,11.6c0-0.1,0-0.1,0-0.199l3.8,1.699l0.4,0.2l1.4,0.601l1.1,0.5l0,0c0,0,0.2,0.5,0.5,1.399
								c0.1,0.5,0.3,1.101,0.5,1.8c0.4,1.5,0.9,3.7,1.5,6.5C26.4,24.8,26.6,25.6,26.7,26.4z"/>
						</g>
						<g transform="translate(36.000000, 30.000000)">
							<g id="Path_77_" transform="translate(10.000000, 0.000000)">
								<g id="Group_6_">
									<path id="Path_73_" fill="#010101" d="M0,2.1C0.1,2,0.5,1.6,0.7,0.9C0.9,0.3,1.6,0,2.3,0.2C2.9,0.3,3.7,0.8,3.6,1
										S2.7,1,2.5,1.2C2.1,1.5,2.3,2.3,2.3,2.3L2.9,4c0,0-0.7,0.3-1.2,0.2C1.4,4.1,0.5,4.4,0.4,4.5L0,2.1z"/>
									<path id="Path_74_" fill="#010101" d="M2.8,3.6C3.2,3.6,4,2.3,3.9,2C3.1,2.1,1.6,2.6,1.6,2.6L2.8,3.6z"/>
								</g>
								<path id="Path_75_" fill="#212121" d="M2.9,3.6c0.4-0.1,1-1.3,1-1.5C3.5,2.2,2.9,2.4,2.5,2.5c0,0-0.4-1,0-1.2
									C2.7,1.1,3.6,1.2,3.7,1c0.1-0.1-0.6-0.5-1.1-0.6C2,0.3,1.4,0.6,1.2,1.2C0.7,2.2,0.4,2.6,0,2.8c0,0,0.6,1.8,0.7,1.7
									c0.1-0.1,1-0.3,1.3-0.2C2.5,4.4,3.1,4.1,3.1,4.1L2.9,3.6z"/>
								<path id="Path_76_" fill="#010101" d="M0,3.2C0.2,3,0.7,2.7,0.7,2.7s0.7-0.101,0.8,0c0,0.1,0.2,0.6,0.4,1c0,0.1-0.7,0-0.8,0
									S0.3,4.2,0.3,4.2L0,3.2z"/>
							</g>
							<g id="Shape_3_" transform="translate(0.000000, 2.000000)">
								<path id="Shape_1_" fill="#9E1C20" d="M10.2,0l-9,6.6C0.7,7,0.9,8.1,1.2,8.7C1.6,9.2,2.4,9.4,3,9l8-6.5L10.2,0z M2.7,8
									C2.5,8.1,2.3,8.1,2.1,7.9C2,7.7,2,7.5,2.2,7.3C2.4,7.2,2.6,7.2,2.8,7.4C2.9,7.6,2.8,7.8,2.7,8z"/>
								<path id="Shape_2_" fill="#D02027" d="M10.3,0.4L1.5,6.8C1.2,7,1.4,7.9,1.6,8.2c0.3,0.3,0.9,0.6,1.2,0.3l8-6.4L10.3,0.4z
									 M2.7,8C2.5,8.1,2.3,8.1,2.1,7.9C2,7.7,2,7.5,2.2,7.3C2.4,7.2,2.6,7.2,2.8,7.4C2.9,7.6,2.8,7.8,2.7,8z"/>
							</g>
						</g>
						<path id="Path_78_" fill="#FFDBA8" d="M39.7,34c0.7-0.1,3.9-1.2,4.2-0.9c0.3,0.301-0.1,0.602-0.6,0.9
							c-0.5,0.4-0.2,0.3-0.2,0.3s1.1,0.4,2.5,1.3c0.7,0.5,0.9,1.4-0.4,0.801c0.5,0.5,0.7,1.301-0.3,1c0.4,0.5,0.3,1-0.6,0.801
							c0.3,0.199,0.2,0.6-0.3,0.699c-0.3,0-1.5,0.199-3.1-0.801c-1.5-0.898-2.7-1.5-2.7-1.5L39.7,34z"/>
						<path id="Path_79_" fill="#005D32" d="M41.3,33.7L38.9,37.1L38.7,37.4l-0.8,1.1l-0.1,0.1l0,0c-0.1,0-0.2-0.1-0.4-0.3
							c-1.5-1-6.7-4.7-8.7-7.1c-0.1-0.2-0.3-0.3-0.3-0.5c-0.1-0.101-0.2-0.3-0.3-0.4c-0.2-0.3-0.4-0.6-0.6-1
							c-0.1-0.1-0.1-0.2-0.2-0.3c-0.7-1.1-1.3-2.4-1.9-3.6c0-0.102-0.1-0.2-0.1-0.301c-0.8-1.801-1.5-3.5-1.8-4.801
							c0,0-0.4-1.898-0.3-3.398c0.1-0.5,0.2-0.9,0.4-1.2c0.6-0.8,1.9-1.7,3.3-1.7c0.7,0,1.4,0.3,2,0.8l0,0c0.3,0.2,0.5,0.5,0.8,0.8
							c0.1,0.2,0.3,0.4,0.4,0.602c0,0,0,0.1,0.1,0.1l0,0c0.3,0.5,0.6,1.2,0.9,2.102c0.2,0.6,0.5,1.199,0.7,1.898l0,0
							c0.2,0.5,0.4,1,0.5,1.5c0.4,1.102,0.9,2.2,1.3,3.102c0.3,0.5,0.7,1.199,1.3,1.898c0.5,0.602,1.1,1.301,1.7,2
							C38.6,31.1,40.9,33.3,41.3,33.7L41.3,33.7z"/>
					</g>
				</g>
				<g id="Path_85_" transform="translate(129.000000, 51.000000)">
					<path id="Path_80_" fill="#C0DEE1" d="M8.6,6.1l32.1,24c-0.2,2.5-0.6,4.9-1.3,7.102L4.8,11C5.9,9.2,7.2,7.6,8.6,6.1z"/>
					<path id="Path_81_" fill="#AAD1D3" d="M20.7,0.7c11.1,0,20.1,11.899,20.1,26.7c0,0.898,0,1.8-0.1,2.699L8.6,6.1
						C11.9,2.8,16.1,0.7,20.7,0.7z"/>
					<path id="Path_82_" fill="#C0DEE1" d="M17.5,42.3L0.7,30.1c-0.1-0.898-0.1-1.8-0.1-2.8c0-2.3,0.2-4.5,0.6-6.6L36.4,44
						c-2.2,3.6-5.1,6.5-8.4,8.3L7.5,39.7L17.5,42.3z"/>
					<path id="Path_83_" fill="#AAD1D3" d="M17.5,42.3l-9.9-2.7L28.1,52.2c-2.3,1.2-4.8,1.899-7.4,1.899
						c-10.4,0-18.9-10.5-20-23.899L17.5,42.3z"/>
					<path id="Path_84_" fill="#AAD1D3" d="M4.8,11l34.5,26.2c-0.7,2.5-1.7,4.8-3,6.8L1.1,20.8C1.9,17.2,3.2,13.9,4.8,11z"/>
				</g>
				<path id="Path_86_" fill="#F89B35" d="M312.8,127.8h-3.1V76.9c-0.101-12.9-28-14.602-28-5.7V76.1H278.6v-4.5
					C278.6,57.7,312.9,60.5,312.9,76.9V127.8H312.8z"/>
				<path id="Path_87_" fill="#F89B35" d="M279.8,74.3c-7.3,0-13.3,4.3-13.3,9.601h26.6C293.1,78.6,287.2,74.3,279.8,74.3
					L279.8,74.3z"/>
				<polygon id="Path_88_" fill="#2B5263" points="238.1,176.3 235.1,174.8 238.6,166 243,168.2 				"/>
				<path id="Path_89_" fill="#2B5263" d="M238.8,176.7c-0.6,1.2-2.1,1.7-3.3,1.1c-1.2-0.6-1.7-2.1-1.1-3.3c0.6-1.2,2.1-1.7,3.3-1.1
					C238.9,174,239.4,175.5,238.8,176.7L238.8,176.7z"/>
				<polygon id="Path_90_" fill="#2B5263" points="295.9,176.3 298.9,174.8 295.4,166 291,168.2 				"/>
				<path id="Path_91_" fill="#2B5263" d="M295.2,176.7c0.6,1.2,2.1,1.7,3.3,1.1c1.2-0.6,1.7-2.1,1.1-3.3c-0.6-1.2-2.1-1.7-3.3-1.1
					C295.1,174,294.6,175.5,295.2,176.7L295.2,176.7z"/>
				<path id="Path_92_" fill="#D8C9A9" stroke="#000000" stroke-width="0.25" d="M322.6,131.1c0,24.9-21.699,41.4-46,41.4h-19.3
					c-24.1,0-46-16.4-46-41.4H322.6L322.6,131.1z"/>
				<path id="Path_93_" fill="#F6F0E0" stroke="#000000" stroke-width="0.25" d="M325.4,131.1H208.7c-1.9,0-3.4-1.5-3.4-3.398l0,0
					c0-1.9,1.5-3.4,3.4-3.4h116.7c1.898,0,3.398,1.5,3.398,3.4l0,0C328.7,129.6,327.2,131.1,325.4,131.1L325.4,131.1z"/>
				<path id="Path_94_" fill="#A49571" d="M322.6,131.1c0,0.801,0,1.7-0.1,2.5h-111c-0.1-0.8-0.1-1.6-0.1-2.5H322.6L322.6,131.1z"/>
				<polygon id="Path_95_" fill="#CF7534" points="269,85.6 266.5,85.6 266.5,83.9 269,83.9 				"/>
				<polygon id="Path_96_" fill="#CF7534" points="273,85.6 270.6,85.6 270.6,83.9 273,83.9 				"/>
				<polygon id="Path_97_" fill="#CF7534" points="277,85.6 274.6,85.6 274.6,83.9 277,83.9 				"/>
				<polygon id="Path_98_" fill="#CF7534" points="281.1,85.6 278.6,85.6 278.6,83.9 281.1,83.9 				"/>
				<polygon id="Path_99_" fill="#CF7534" points="285.1,85.6 282.6,85.6 282.6,83.9 285.1,83.9 				"/>
				<polygon id="Path_100_" fill="#CF7534" points="289.1,85.6 286.6,85.6 286.6,83.9 289.1,83.9 				"/>
				<polygon id="Path_101_" fill="#CF7534" points="293.1,85.6 290.7,85.6 290.7,83.9 293.1,83.9 				"/>
				<polygon id="Path_102_" fill="#43C2CC" points="269,124.4 266.5,124.4 266.5,85.6 269,85.6 				"/>
				<polygon id="Path_103_" fill="#43C2CC" points="273,124.4 270.6,124.4 270.6,85.6 273,85.6 				"/>
				<polygon id="Path_104_" fill="#43C2CC" points="277,124.4 274.6,124.4 274.6,85.6 277,85.6 				"/>
				<polygon id="Path_105_" fill="#43C2CC" points="281.1,124.4 278.6,124.4 278.6,85.6 281.1,85.6 				"/>
				<polygon id="Path_106_" fill="#43C2CC" points="285.1,124.4 282.6,124.4 282.6,85.6 285.1,85.6 				"/>
				<polygon id="Path_107_" fill="#43C2CC" points="289.1,124.4 286.6,124.4 286.6,85.6 289.1,85.6 				"/>
				<polygon id="Path_108_" fill="#43C2CC" points="293.1,124.4 290.7,124.4 290.7,85.6 293.1,85.6 				"/>
				<path id="Path_109_" fill="#A49571" d="M370.1,33.8H187.5c-1,0-1.8-0.8-1.8-1.8l0,0c0-1,0.8-1.8,1.8-1.8h182.6
					c1,0,1.802,0.8,1.802,1.8l0,0C371.9,33,371.1,33.8,370.1,33.8L370.1,33.8z"/>
				<path id="Path_110_" fill="#BABCBE" d="M363.6,30.2v142.3c-7.6,0-37.398,0-45.1,0V30.2h4v8c0,2.4,1.9,4.4,4.4,4.4
					s4.398-2,4.398-4.4v-8h5.4v8c0,2.4,1.898,4.4,4.398,4.4s4.4-2,4.4-4.4v-8h5.4v8c0,2.3,1.898,4.4,4.398,4.4c2.4,0,4.4-2,4.4-4.4
					v-8H363.6L363.6,30.2z"/>
				<path id="Path_111_" fill="#E7E7E0" d="M343.1,42.1v130.4H338.9V42.1C340.1,42.8,341.6,42.8,343.1,42.1L343.1,42.1z"/>
				<path id="Path_112_" fill="#E7E7E0" d="M328.9,42.1v130.4h-4.2V42.1C326,42.8,327.6,42.8,328.9,42.1L328.9,42.1z"/>
				<path id="Path_113_" fill="#E7E7E0" d="M357.2,42.1v130.5H353V42.1C354.3,42.8,355.8,42.8,357.2,42.1L357.2,42.1z"/>
				<g id="Group_8_" transform="translate(0.000000, 22.000000)">
					<path id="Path_114_" fill="#47646B" d="M30.2,50c-7.2,0-14.5,0-21.7,0c0,2.1,0,2.6,0,4.7c7.2,2.1,14.5,2.1,21.7,0
						C30.2,52.6,30.2,52.2,30.2,50z"/>
					<path id="Path_115_" fill="#92C8E9" d="M38.3,5C25.6,5,13,5,0.3,5c0-1.2,0-1.7,0-2.5c0-0.6,0.4-1.1,1-1.1c11.9-1.4,24-1.4,36,0
						c0.6,0.1,1,0.5,1,1.1C38.3,3.3,38.3,3.8,38.3,5z"/>
					<rect id="Rectangle_6_" x="0.3" y="6.1" fill="#92C8E9" width="38" height="39.3"/>
					<path id="Path_116_" fill="#92C8E9" d="M38.3,46.4c-12.7,0-25.3,0-38,0c0,1.199,0,1.699,0,2.5c0,0.6,0.4,1.1,1,1.1
						c11.9,1.4,24,1.4,36,0c0.6-0.1,1-0.5,1-1.1C38.3,48.1,38.3,47.6,38.3,46.4z"/>
					<path id="Path_117_" fill="#FFFFFF" d="M5.2,49.9c1.5,0.1,3,0.3,4.5,0.399V1.1c-1.5,0.1-3,0.2-4.5,0.3V49.9z"/>
					<rect id="Rectangle_7_" x="0.3" y="45.2" fill="#5E9CC8" width="38" height="1.1"/>
					<rect id="Rectangle_8_" x="0.3" y="5" fill="#5E9CC8" width="38" height="1.1"/>
					<g id="Path_124_" transform="translate(12.000000, 18.000000)">
						<path id="Path_118_" fill="#47646B" d="M14.3,7.7c0,3.9-3.1,7-7,7c-3.9,0-7-3.1-7-7c0-3.9,3.1-7,7-7
							C11.2,0.7,14.3,3.8,14.3,7.7z"/>
						<path id="Path_119_" fill="#FFFFFF" d="M13.1,7.7c0,3.2-2.6,5.8-5.8,5.8c-3.2,0-5.8-2.6-5.8-5.8c0-3.2,2.6-5.8,5.8-5.8
							C10.5,1.8,13.1,4.5,13.1,7.7z"/>
						<path id="Path_120_" fill="#D3223A" d="M2.5,5.7L3.3,6c0.6-1.6,2.2-2.7,4-2.7V2.4C5.1,2.5,3.3,3.9,2.5,5.7z"/>
						<path id="Path_121_" fill="#3C80C2" d="M11.3,6.1l0.8-0.3c-0.8-1.9-2.6-3.2-4.8-3.2v0.9C9.1,3.4,10.6,4.5,11.3,6.1z"/>
						<polygon id="Path_122_" fill="#192F36" points="5.9,3.8 5.7,3.9 5.5,4 7.6,9.4 7.9,9.2 8.3,9.1 						"/>
						<path id="Path_123_" fill="#5E9CC8" d="M7.9,7.7c0,0.4-0.3,0.6-0.7,0.6C6.8,8.3,6.6,8,6.6,7.7c0-0.4,0.3-0.6,0.6-0.6
							C7.7,7.1,7.9,7.4,7.9,7.7z"/>
					</g>
					<path id="Path_125_" fill="none" stroke="#000000" stroke-width="0.25" d="M30.2,50.7v4c-7.2,2.1-14.5,2.1-21.7,0v-4
						C15.7,51.2,22.9,51.2,30.2,50.7z"/>
					<path id="Path_126_" fill="none" stroke="#000000" stroke-width="0.25" d="M38.3,5C25.6,5,13,5,0.3,5c0-1.2,0-1.7,0-2.5
						c0-0.6,0.4-1.1,1-1.1c11.9-1.4,24-1.4,36,0c0.6,0.1,1,0.5,1,1.1C38.3,3.3,38.3,3.8,38.3,5z"/>
					<rect id="Rectangle_9_" x="0.3" y="6.1" fill="none" stroke="#000000" stroke-width="0.25" width="38" height="39.3"/>
					<path id="Path_127_" fill="none" stroke="#000000" stroke-width="0.25" d="M38.3,46.4v2.5c0,0.6-0.4,1-1,1.1
						c-2.4,0.3-4.7,0.5-7.1,0.7c-7.2,0.5-14.5,0.5-21.7,0c-2.4-0.2-4.8-0.4-7.1-0.7c-0.6-0.1-1-0.5-1-1.1v-2.5H38.3z"/>
				</g>
				<g id="Rectangle_29_" transform="translate(347.000000, 105.000000)">
					<rect id="Rectangle_10_" x="16" y="4.4" fill="#2C5796" width="2.3" height="60.699"/>
					<rect id="Rectangle_11_" x="16" y="4.4" opacity="0.2" enable-background="new    " width="1.2" height="60.699"/>
					<rect id="Rectangle_12_" x="15.8" y="0.4" fill="#6BBE49" width="2.8" height="4.1"/>
					<rect id="Rectangle_13_" x="15.8" y="0.4" opacity="0.2" enable-background="new    " width="1.4" height="4.1"/>
					<rect id="Rectangle_14_" x="15" y="61.2" fill="#6BBE49" width="4.5" height="4.1"/>
					<rect id="Rectangle_15_" x="15" y="63.3" opacity="0.2" enable-background="new    " width="4.5" height="2.101"/>
					<rect id="Rectangle_16_" x="0.8" y="65.3" fill="#6BBE49" width="32.7" height="1.2"/>
					<rect id="Rectangle_17_" x="1.2" y="66.5" width="32" height="1"/>
					<rect id="Rectangle_18_" x="0.8" y="67" fill="#D7BA2E" width="32.7" height="6.2"/>
					<rect id="Rectangle_19_" x="2.1" y="67.7" fill="#B4A139" width="1.5" height="5.5"/>
					<rect id="Rectangle_20_" x="5" y="67.7" fill="#B4A139" width="1.5" height="5.5"/>
					<rect id="Rectangle_21_" x="7.8" y="67.7" fill="#B4A139" width="1.5" height="5.5"/>
					<rect id="Rectangle_22_" x="10.7" y="67.7" fill="#B4A139" width="1.5" height="5.5"/>
					<rect id="Rectangle_23_" x="13.5" y="67.7" fill="#B4A139" width="1.5" height="5.5"/>
					<rect id="Rectangle_24_" x="16.4" y="67.7" fill="#B4A139" width="1.5" height="5.5"/>
					<rect id="Rectangle_25_" x="19.3" y="67.7" fill="#B4A139" width="1.5" height="5.5"/>
					<rect id="Rectangle_26_" x="22.1" y="67.7" fill="#B4A139" width="1.5" height="5.5"/>
					<rect id="Rectangle_27_" x="25" y="67.7" fill="#B4A139" width="1.5" height="5.5"/>
					<rect id="Rectangle_28_" x="27.8" y="67.7" fill="#B4A139" width="1.5" height="5.5"/>
				</g>
				<g id="Group_10_" transform="translate(288.000000, 120.000000)">
					<path id="Shape_4_" fill="#B2C7CA" d="M36.4,57.9h15.1L37.7,40C36.6,40.8,36,41.3,35.6,41.5c0,0,0,0-0.1,0l-0.1,0.1l0,0l0,0
						c-1.5-1.398-1-2-0.301-3.898c0.5,0,1-0.301,1.301-0.602l1.3-1.398L35.1,33.2l0,0l2.602,2.5l1.3-1.4c0.8-0.8,0.8-2.2-0.101-3
						L36.3,28.8l0.2-0.8l0.3-1.3c0.101-0.5,0-1.101-0.2-1.5L34.9,22.1L33,18.5c-0.5-0.9-1.4-1.6-2.4-1.8L24.4,15.3l-3.7-0.8
						c0,0,0,0-0.101,0.1c-0.101,0-0.199,0-0.301,0c-0.5,0-1.1,0.2-1.5,0.7c0,0-0.199,0.2-0.398,0.4L18.3,15.8l-9.5-9L6.9,3.2
						L1.7,0.5C1.6,0.4,1.3,0.5,1.1,0.7L1,1l16.7,15.7L19,18l0,0l-1.3-1.3L1,1L0.8,1.2C0.6,1.4,0.5,1.7,0.6,1.8l3,5.101L7.3,8.6
						l9.5,9L16.7,17.7C16.5,18,16.3,18.1,16.3,18.1s0,0-0.1,0.102L14.6,18.3c0,0-1.199,3.4,3.5,3.8C17.4,22.9,16.9,23.6,16.9,23.6
						s-0.2,0.4-0.5,1C16,25.4,15.4,26.7,14.7,28c0.1,0.1,0.3,0.2,0.399,0.3c1.899,1.2,3.699-0.6,4.899-2.399
						c0.101-0.101,0.101-0.199,0.2-0.199l0,0c0,0.1,0.1,0.199,0.1,0.3c0.4,0.899,0.7,1.8,1.102,2.7c0,0.1,0.1,0.199,0.1,0.3l0,0l0,0
						L21.2,29.9l0,0c-0.4,1.301-0.9,2.801-1.101,3.699C19.9,35.2,19.9,36.7,20.2,38.1c0.2,1,0.6,2,1.2,3c1.1,1.801,2.6,3.4,4,5
						c0.5,0.602,1,1.2,1.6,1.801C26.4,48.3,25.8,48.8,25.1,49.3L30.4,57.9h5.8c0.1,0.1,0.1,0.1,0.2,0.199V57.9z"/>
					<g>
						<g id="_x38__4_">
							<path id="Path_128_" fill="#EFBD9E" d="M24.7,20.6l-1.101,1L21.4,23.4l0,0c0,0,0,0.1-0.102,0.1c-0.1,0.3-0.5,0.9-0.898,1.6
								C20.3,25.3,20.2,25.4,20.1,25.6C20,25.7,20,25.8,19.9,25.8C18.7,27.5,16.8,29.4,15,28.2c-0.1-0.101-0.3-0.2-0.4-0.3
								c0.7-1.301,1.301-2.5,1.7-3.4c0.3-0.6,0.5-1,0.5-1s0.7-1,1.601-2c1.101-1.2,2.399-2.4,3.199-2.3H21.7
								C23.2,19.8,24.7,20.6,24.7,20.6z"/>
							<path id="Path_129_" fill="#EFBD9E" d="M14.5,18.2c0,0-1.9,5.5,8.7,3.399c2.6-2.101,1.5-3.899,1.5-3.899L14.5,18.2z"/>
							<path id="Path_130_" fill="#EFBD9E" d="M36.5,28.2L36.3,29L35,33.5l-0.9,2c-0.1,0.2,1,2,0.9,2.2c-0.7,2-1.2,2.5,0.3,4
								l8.4,7.8L43.3,50l-6.5,7.3L36.1,58c-1.6-1.8-5.199-5.3-6.8-7.1C27.9,49.3,26.5,47.7,25.2,46.1c-1.3-1.6-2.9-3.199-4-5
								c-0.601-1-0.9-1.898-1.2-3c-0.3-1.5-0.3-3-0.1-4.5c0.199-1.3,1.1-3.699,1.5-5L21.2,27.7l2.7-2.3l-2.4-4L22,18.8l0.4,0.101
								L28.3,20l0.8,0.8L36.5,28.2z"/>
							<path id="Path_131_" fill="#E2A984" d="M24.7,23.6c0,0,1.2,5.7,3.2,5.4s3.5-4.3,3.5-4.3L29.2,20.6L22.1,18.2l0.2,2.399
								C22.3,20.6,24.1,21.5,24.7,23.6z"/>
							<path id="Path_132_" fill="#E2A984" d="M21.5,29l0.1-0.2c0.9,1.2,1.7,2.5,1.5,3.3c-0.5,1.602-2,4.7,0.4,8.5
								c-0.8-1.199-1.6-2-2-3.6c-0.2-0.8-0.3-5.6-0.3-7.2L21.5,29z"/>
							<path id="Path_133_" fill="#EFBD9E" d="M36.9,26.9c0.1-0.5,0-1.102-0.2-1.5L35,22.3c-1.8,0-3.6-0.1-5.4-0.399L30.7,25.3
								l3,2.3l2.7,1.5l0.199-0.8L36.9,26.9z"/>
							<g id="Group_9_">
								<path id="Path_134_" fill="#96D7E3" d="M7,3.3L1.8,0.6C1.7,0.5,1.4,0.6,1.2,0.8L1,1l16.7,15.7c0.3-0.3,0.5-0.601,0.7-0.9
									l-9.5-9L7,3.3z"/>
								<path id="Path_135_" fill="#74BDCA" d="M0.8,1.2C0.6,1.4,0.5,1.7,0.6,1.8l3,5.101L7.3,8.6l9.5,8.9
									c0.3-0.3,0.601-0.5,0.9-0.8L1,1L0.8,1.2z"/>
								<path id="Path_136_" fill="#F15F50" d="M29.6,22.5c-0.3-0.3-0.5-0.5-0.8-0.7c-3.5-1.1-6-3.399-7.7-7
									c-0.3-0.1-0.5-0.2-0.8-0.2c-0.5,0-1.1,0.2-1.5,0.7c0,0-0.2,0.2-0.399,0.4L18.3,15.8c-0.2,0.3-0.399,0.601-0.7,0.9l20.102,19
									l1.3-1.4c0.8-0.8,0.8-2.2-0.101-3L29.6,22.5z"/>
								<path id="Path_137_" fill="#EE5747" d="M16.8,17.5l-0.1,0.1C16.5,17.9,16.3,18,16.3,18c-0.399,0.4-0.6,1-0.6,1.5
									c0,0.3,0.1,0.5,0.2,0.8c3.6,1.4,6.1,3.8,7.398,7.2c0.301,0.3,0.5,0.5,0.801,0.8l9.399,8.8c0.8,0.801,2.2,0.801,3-0.1
									l1.3-1.4l-20.1-19C17.4,17,17.1,17.3,16.8,17.5z"/>
							</g>
							<path id="Path_138_" fill="#EFBD9E" d="M30.6,38.9c0.5-3.7-3-8.602-3-8.602l-2.3-5.6c-0.6-1-1.1-2.301-1.8-3.2
								c-0.7-1-1.6-1.601-3-1.2c-1.1,0.301-1.7,1-1.7,2.2c0,1.101,0.9,2.101,1.3,3l0,0c0,0.101,0.102,0.2,0.102,0.3
								c0.398,0.9,0.699,1.801,1.1,2.7c0.9,1.899,1.7,3.899,1,6c-1,3.101,1.102,5.7,1.102,5.7l0.197,0.4
								C24.2,41.1,24.7,41.5,25.2,41.9C28.8,44.5,30.2,42,30.6,38.9z"/>
							<path id="Path_139_" fill="#EFBD9E" d="M33,18.6c-0.5-0.898-1.4-1.6-2.4-1.8L24.4,15.4L20.7,14.6c0,0-0.101,0.102-0.2,0.301
								c-0.4,0.699-1,2.5,1,3.5c0.3,0.101,0.6,0.301,1,0.399c2.7,1,6.7,1.9,6.7,1.9l0.399,1.2C31.4,22.2,33.2,22.3,35,22.3L33,18.6z
								"/>
							<path id="Path_140_" fill="#E4CCB8" d="M19.1,22.3C19,23,19.7,23.7,20.2,24.5c0.399,0.7,1.3,0.9,2.1,0.6
								c1-0.398,1.4-1.5,0.9-2.3c-0.4-0.6-0.8-1.899-1.601-2.2C20.8,20.3,19.2,21.4,19.1,22.3z"/>
							<path id="Path_141_" fill="#E4CCB8" d="M24.4,15.4c-1.801,0.699-3.2,0-3.9-0.5c0.1-0.2,0.2-0.301,0.2-0.301L24.4,15.4z"/>
							<path id="Path_142_" fill="#E4CCB8" d="M16.9,25.3l-1.9,3c-0.1-0.1-0.3-0.2-0.4-0.3c0.7-1.3,1.301-2.5,1.7-3.4
								C16.6,24.9,16.9,25.3,16.9,25.3z"/>
							<path id="Path_143_" fill="#E2A984" d="M36.9,57.3L36.2,58c-1.601-1.8-5.2-5.3-6.8-7.1C28,49.3,26.6,47.7,25.3,46.1
								c-1.3-1.6-2.899-3.199-4-5c-0.6-1-0.899-1.898-1.2-3c0.602,1,1.602,2.7,3.301,4.7C25.6,45.5,33.7,53.8,36.9,57.3z"/>
						</g>
						<path id="Path_144_" fill="#E25E27" d="M37.7,40L51.6,57.9H30.3L25,49.3c7-5.1,9.5-6.899,10.3-7.5l0,0l0,0c0,0,0,0,0.101-0.1
							c0,0,0,0,0.101,0l0,0c0,0,0.101,0,0.101-0.101H35.7C36,41.3,36.6,40.8,37.7,40z"/>
					</g>
				</g>
				<g id="Group_21_" transform="translate(40.000000, 0.000000)">
					<g id="_x35__1_" transform="translate(0.000000, 37.000000)">
						<rect id="Rectangle_30_" x="2.5" y="1.4" fill="#B1BABF" width="17.7" height="5.8"/>
						<rect id="Rectangle_31_" x="2.5" y="4.4" fill="#D5D8D8" width="17.7" height="1.4"/>
						<g id="Group_11_" transform="translate(18.000000, 0.000000)">
							<path id="Path_145_" fill="#21BDC2" d="M2.2,8.3V0.4h1.2c0.3,0,0.5,0.2,0.5,0.5v7c0,0.3-0.2,0.5-0.5,0.5H2.2V8.3z"/>
							<rect id="Rectangle_32_" x="0.994" y="0.955" fill="#16B5C0" width="1.2" height="6.8"/>
						</g>
						<g id="Group_12_">
							<path id="Path_146_" fill="#21BDC2" d="M2.3,0.4v7.9H1.1c-0.3,0-0.5-0.2-0.5-0.5V0.9c0-0.3,0.2-0.5,0.5-0.5H2.3z"/>
							<rect id="Rectangle_33_" x="2.314" y="0.945" fill="#16B5C0" width="1.1" height="6.8"/>
						</g>
						<g id="Group_13_" transform="translate(19.000000, 3.000000)">
							<rect id="Rectangle_34_" x="1.2" y="0.9" fill="#8B9E9F" width="1.7" height="2.4"/>
							<rect id="Rectangle_35_" y="0.9" fill="#8B9E9F" width="1.2" height="2.4"/>
						</g>
						<g id="Group_14_" transform="translate(0.000000, 3.000000)">
							<rect id="Rectangle_36_" x="0.6" y="0.9" fill="#8B9E9F" width="1.7" height="2.4"/>
							<rect id="Rectangle_37_" x="2.3" y="0.9" fill="#8B9E9F" width="1.1" height="2.4"/>
						</g>
					</g>
					<g transform="translate(26.000000, 34.000000)">
						<path id="Path_147_" fill="#B2C7CA" d="M31,0.6h-1.6v0.9h-1.7v0.8H4.4V1.5H2.6V0.6H0.9C0.4,0.6,0,1,0,1.5v2.2v3.6v4.6
							c0,0.5,0.4,0.9,0.9,0.9h1.7v-0.9h1.8v-0.8h23.3v0.7h1.7v0.9H31c0.5,0,0.9-0.4,0.9-0.9V7.4V3.8V1.6C32,1,31.5,0.6,31,0.6z"/>
						<g id="_x38__2_">
							<rect id="Rectangle_38_" x="2.6" y="2.3" fill="#B1BABF" width="26.6" height="8.8"/>
							<rect id="Rectangle_39_" x="2.6" y="4.5" fill="#D5D8D8" width="26.6" height="2.1"/>
							<g id="Group_15_">
								<path id="Path_148_" fill="#21BDC2" d="M2.6,0.7v12H0.8c-0.4,0-0.7-0.3-0.7-0.7V1.4c0-0.4,0.3-0.7,0.7-0.7H2.6z"/>
								<rect id="Rectangle_40_" x="2.59" y="1.578" fill="#16B5C0" width="1.8" height="10.3"/>
							</g>
							<g id="Group_16_" transform="translate(27.000000, 0.000000)">
								<path id="Path_149_" fill="#21BDC2" d="M2.4,12.6v-12h1.8C4.6,0.6,5,0.9,5,1.4v10.5c0,0.4-0.3,0.8-0.8,0.8H2.4V12.6z"/>
								<rect id="Rectangle_41_" x="0.692" y="1.471" fill="#16B5C0" width="1.7" height="10.3"/>
							</g>
							<g id="Group_17_" transform="translate(0.000000, 3.000000)">
								<rect id="Rectangle_42_" y="0.7" fill="#8B9E9F" width="2.6" height="3.6"/>
								<rect id="Rectangle_43_" x="2.6" y="0.7" fill="#8B9E9F" width="1.8" height="3.6"/>
							</g>
							<g id="Group_18_" transform="translate(27.000000, 3.000000)">
								<rect id="Rectangle_44_" x="2.4" y="0.7" fill="#8B9E9F" width="2.6" height="3.6"/>
								<rect id="Rectangle_45_" x="0.7" y="0.7" fill="#8B9E9F" width="1.7" height="3.6"/>
							</g>
						</g>
					</g>
					<g transform="translate(7.000000, 0.000000)">
						<g>
							<g id="_x31_3_1_" transform="translate(0.000000, 1.000000)">
								<path id="Path_150_" fill="#E2A984" d="M18.2,27.5c0,0-0.9,3-1.8,3.5c-0.5,0.3-1,0.2-1.3,0c-0.2-0.1-0.4-0.4-0.3-0.7l1.3-4
									l-2-3.1l3.2-3.3l6.5,0.7c0,0,0.2,4,0.1,4.1c-0.2,0.1-5.3,1.3-5.3,1.3L18.2,27.5z"/>
								<path id="Path_151_" fill="#E2A984" d="M13.6,29.6c0,0,0.5,1.2,1.8,0.1c1.3-1,2.3-6.4,2.3-6.4s-2.3-0.9-2.4-0.9
									C15,22.5,13.6,29.6,13.6,29.6z"/>
								<path id="Path_152_" fill="#EFBD9E" d="M16.4,18l7.6-1.4l5,4.5c0.7,0.6,1.8,1.2,2.6,0.8l9.7-4.9l2.9,7.2
									c0.1,0.2-11,5.1-11,5.1s-1.1,0.8-2.7,1.1h-0.1h-0.1h-0.1c-0.1,0-0.1,0-0.2,0h-0.1c-0.1,0-0.1,0-0.2,0h-0.1
									c-0.1,0-0.1,0-0.2,0s-0.1,0-0.2,0c-0.1,0-0.1,0-0.2,0c-0.2,0-0.5-0.1-0.7-0.1c-0.2,0-0.4-0.1-0.6-0.2c0,0-0.1,0-0.2-0.1
									c-0.2-0.1-0.5-0.2-0.7-0.4c-2.4-1.4-3.7-1.8-3.7-1.8c-1.6-0.1-3.1-0.3-4.7-0.4c-0.8,0-1.5,0-2.3,0.1c-0.5,0-1.1,0-1.3-0.5
									c-0.4-0.9,0-1.6,0.6-1.7c0.7-0.1,5.8-0.7,6.5-1H22c0,0,0,0,0.1,0l0,0c0,0,0,0,0.1,0c0,0,0.1,0,0.1-0.1c0,0,0.1,0,0.1-0.1
									c0,0,0.1,0,0.1-0.1l0,0c0,0,0.1,0,0.1-0.1c0,0,0.1,0,0.1-0.1l0,0c0.5-0.5,0.8-1.1,0.1-1.7c-0.8-0.5-3.4-1.3-4.7-1.4
									c-0.5-0.1-1.3,0.1-1.6,0.6c-0.9,1.4-3,4.2-4.4,4.9c-0.2,0.1-0.3,0.1-0.5,0c-0.2-0.1-0.3-0.1-0.5-0.2l0,0
									c-0.1,0-0.1-0.1-0.2-0.1l0,0c-0.2-0.2-0.2-0.5,0-0.8l1.1-1.5l0.3-0.4l0,0L15,19L16.4,18z"/>
								<g id="Group_19_">
									<path id="Path_153_" fill="#26465E" d="M11.2,39.8c1.5-1.8,1.8-4.2,1-6.2L30,12.8c2.1,0.5,4.5-0.2,6-1.9
										c2.2-2.5,1.9-6.4-0.6-8.6l0,0l-2,2.3l1.3,1.1l-0.6,3.4l-3.3,1.1l-1.3-1.1L8.1,34l0,0l1.6,4.4l-3,3.4
										C8.4,41.9,10.1,41.2,11.2,39.8z"/>
									<path id="Path_154_" fill="#335368" d="M3.5,33.2l4.6,0.9L29.5,9.2l-1.3-1.1l0.6-3.4l1.6-0.6l0,0L32,3.5l1.3,1.1l2-2.3
										c-2.5-2.2-6.4-1.9-8.5,0.7c-1.5,1.8-1.8,4.2-1,6.2L8,30c-2.1-0.5-4.5,0.2-6,1.9c-1.2,1.4-1.6,3.1-1.4,4.7L3.5,33.2z"/>
								</g>
								<path id="Path_155_" fill="#E4CCB8" d="M12,23.4c0.1,0.1,0.2,0.2,0.3,0.4c0,0.1,0,0.2,0,0.3c-0.2,1-1.1,1.6-1.4,1.8
									c-0.2-0.2-0.2-0.5,0-0.8l1.1-1.5C11.9,23.5,11.9,23.5,12,23.4z"/>
								<g id="Group_20_" transform="translate(14.000000, 23.000000)">
									<path id="Path_156_" fill="#EFBD9E" d="M1.4,2.3c0.7-0.1,5.8-0.7,6.5-1H8c0,0,0,0,0.1,0l0,0c0,0,0,0,0.1,0
										c0,0,0.1,0,0.1-0.1c0,0,0.1,0,0.1-0.1c0,0,0.1,0,0.1-0.1l0,0c0,0,0.1,0,0.1-0.1c0,0,0.1,0,0.1-0.1l0,0
										c3.5,0.5,6.1,2.9,7.7,6c0.1,0.2,0.2,0.3,0.2,0.5h-0.1h-0.1h-0.1c-0.1,0-0.1,0-0.2,0H16c-0.1,0-0.1,0-0.2,0h-0.1
										c-0.1,0-0.1,0-0.2,0s-0.1,0-0.2,0c-0.1,0-0.1,0-0.2,0c-0.2,0-0.5-0.1-0.7-0.1c-0.2,0-0.4-0.1-0.6-0.2c0,0-0.1,0-0.2-0.1
										c-0.2-0.1-0.5-0.2-0.7-0.4c-2.4-1.4-3.7-1.8-3.7-1.8C7.6,4.6,5.9,4.6,4.3,4.5C3.5,4.5,2.8,4.6,2,4.6c-0.5,0-1-0.2-1.1-0.8
										C0.4,2.8,0.7,2.4,1.4,2.3z"/>
									<path id="Path_157_" fill="#E4CCB8" d="M1.5,4.5l1.1-0.2c0.5-0.1,0.9-0.5,0.9-1c0-0.6-0.6-1-1.1-0.9L1.3,2.6
										c-0.2,0-0.4,0.3-0.4,0.5l0.2,1.1C1,4.4,1.3,4.5,1.5,4.5z"/>
								</g>
								<path id="Path_158_" fill="#E2A984" d="M44,23.6l0.2,0.6c0.1,0.2-11,5.1-11,5.1s-1.1,0.8-2.7,1.1h-0.1h-0.1h-0.1
									c-0.1,0-0.1,0-0.2,0h-0.1c-0.1,0-0.1,0-0.2,0h-0.1c-0.1,0-0.1,0-0.2,0s-0.1,0-0.2,0c-0.1,0-0.1,0-0.2,0
									c-0.2,0-0.5-0.1-0.7-0.1c0.6-0.1,1.7-0.2,2.5-0.4c1.4-0.4,2.7-1.1,4.9-2.2C40.3,25.5,42.7,24.3,44,23.6z"/>
							</g>
							<polygon id="Path_159_" fill="#E25E27" points="76.4,0.4 79.7,17.6 38,30 35.1,23.8 33.5,20.4 							"/>
						</g>
						<polygon id="Path_160_" fill="#E25E27" points="79.7,17.6 117.7,1 76.4,0.4 						"/>
					</g>
				</g>
				<path id="Path_161_" fill="#FFFFFF" d="M271.3,72.7L271.3,72.7c-0.1,1.899-1.6,3.399-3.5,3.399V76.2c1.9,0,3.4,1.5,3.4,3.399
					h0.1c0-1.899,1.5-3.399,3.4-3.399V76.1C272.8,76.1,271.3,74.6,271.3,72.7z"/>
				<path id="Path_162_" fill="#FFFFFF" d="M25.6,127L25.6,127c-0.1,1.9-1.6,3.4-3.5,3.4v0.1c1.9,0,3.4,1.5,3.4,3.4h0.1
					c0-1.9,1.5-3.4,3.4-3.4v-0.1C27.1,130.4,25.6,128.8,25.6,127z"/>
				<path id="Path_163_" fill="#FFFFFF" d="M205.4,125.4L205.4,125.4c0,1.3-1.102,2.398-2.4,2.398l0,0c1.3,0,2.4,1.102,2.4,2.4l0,0
					c0-1.301,1.1-2.4,2.398-2.4l0,0C206.5,127.8,205.4,126.7,205.4,125.4z"/>
				<path id="Path_164_" fill="#FFFFFF" d="M208.5,121L208.5,121c0,1.3-1.1,2.4-2.4,2.4l0,0c1.301,0,2.4,1.1,2.4,2.398l0,0
					c0-1.3,1.1-2.398,2.4-2.398l0,0C209.5,123.4,208.5,122.3,208.5,121z"/>
				<path id="Path_165_" fill="#FFFFFF" d="M267,80.4L267,80.4c0,0.8-0.7,1.5-1.6,1.5l0,0c0.8,0,1.5,0.699,1.5,1.5l0,0
					c0-0.801,0.699-1.5,1.5-1.5l0,0C267.7,82,267,81.3,267,80.4z"/>
				<path id="Path_166_" fill="#FFFFFF" d="M38.8,51.2L38.8,51.2c0,1.2-1,2.2-2.3,2.2l0,0c1.2,0,2.2,1,2.2,2.2l0,0
					c0-1.2,1-2.2,2.2-2.2l0,0C39.8,53.4,38.8,52.4,38.8,51.2z"/>
				<path id="Path_167_" fill="#FFFFFF" d="M36.4,28.8L36.4,28.8c0,1.2-1,2.2-2.3,2.2l0,0c1.2,0,2.2,1,2.2,2.2l0,0
					c0-1.2,1-2.2,2.2-2.2l0,0C37.4,31.1,36.4,30.1,36.4,28.8z"/>
				<path id="Path_168_" fill="#FFFFFF" d="M32.9,35L32.9,35c-0.1,1.7-1.5,3.1-3.2,3.1v0.1c1.7,0,3.1,1.4,3.1,3.1h0.1
					c0-1.7,1.4-3.1,3.1-3.1v-0.1C34.3,38.1,32.9,36.7,32.9,35z"/>
				<g id="Group_23_" transform="translate(126.000000, 107.000000)">
					<ellipse id="Oval" fill="#EFEDEA" cx="25.5" cy="70.3" rx="24.9" ry="5.6"/>
					<g transform="translate(0.000000, 14.000000)">
						<g id="Path_171_" transform="translate(0.000000, 3.000000)">
							<path id="Path_169_" fill="#E7E4E0" d="M8.4,0.8c1.6,7.601,8.1,13.3,16,13.3c7.8,0,14.4-5.699,16-13.3h7.8
								C47.1,10.4,41.7,17.9,24.4,17.9C4.9,17.9,1.7,10.4,0.6,0.8H8.4L8.4,0.8z"/>
							<path id="Path_170_" fill="#D8D9D3" d="M24.4,14.1C16.6,14.1,10,8.4,8.4,0.8h32C38.8,8.4,32.2,14.1,24.4,14.1z"/>
						</g>
						<ellipse id="Oval_1_" fill="#FFFFFF" stroke="#000000" stroke-width="0.25" cx="24.4" cy="4.3" rx="23.8" ry="3.4"/>
						<g id="Path_176_" transform="translate(16.000000, 20.000000)">
							<path id="Path_172_" fill="#E7E4E0" d="M3.8,13.6C5.4,10.2,7.3,7.3,9.3,6.5v31c-5.6,0-8.8-3.8-8.8-3.8
								C3.8,28.2,4.2,20.4,3.8,13.6z"/>
							<path id="Path_173_" fill="#D8D9D3" d="M3.8,13.6C3.3,6.2,1.8,0.1,1.8,0.1h7.6v6.5C7.3,7.3,5.4,10.2,3.8,13.6z"/>
							<path id="Path_174_" fill="#EFEDEA" d="M15.2,9.8c-0.8,7.4-1,17.4,2.9,23.8c0,0-3.1,3.801-8.8,3.801v-31
								C11.8,5.5,13.8,7.3,15.2,9.8z"/>
							<path id="Path_175_" fill="#DDDDDB" d="M9.3,6.5V0h7.6c0,0-1,4.1-1.7,9.7C13.8,7.3,11.8,5.5,9.3,6.5z"/>
						</g>
					</g>
					<g transform="translate(16.000000, 0.000000)">
						<path id="Path_177_" fill="#948EA2" d="M17.3,2.7c0-0.9-0.7-1.5-1.5-1.5h-13c-0.9,0-1.5,0.7-1.5,1.5l0,0
							C1.3,3.6,2,4.2,2.8,4.2h13C16.6,4.2,17.3,3.5,17.3,2.7L17.3,2.7z"/>
						<path id="Path_178_" fill="#B6BDCD" d="M0.1,2.1C0.2,1.4,0.6,0.9,1,0.4C1.5,0.9,2.2,1.1,2.9,1.1c0.7,0,1.4-0.3,1.9-0.699
							C5.3,0.8,5.6,1.4,5.7,2.1c-1.1,0.4-2,1.5-2,2.801c0,0.199,0,0.399,0,0.5C3.4,5.5,3.1,5.6,2.7,5.6c-0.3,0-0.6-0.1-0.9-0.1
							c0-0.2,0-0.4,0-0.5C2.1,3.6,1.2,2.5,0.1,2.1z"/>
						<circle id="Oval_2_" fill="#ED1C24" cx="2.9" cy="2.7" r="1"/>
						<path id="Path_179_" fill="#B6BDCD" d="M12.7,2.1C12.8,1.4,13.2,0.9,13.6,0.4C14.1,0.9,14.8,1.1,15.5,1.1s1.4-0.3,1.9-0.699
							c0.5,0.399,0.8,1,0.9,1.699c-1.1,0.4-2,1.5-2,2.801c0,0.199,0,0.399,0,0.5C16,5.5,15.7,5.6,15.3,5.6c-0.3,0-0.6-0.1-0.9-0.1
							c0-0.2,0-0.4,0-0.5C14.7,3.6,13.8,2.5,12.7,2.1z"/>
						<circle id="Oval_3_" fill="#3A53A4" cx="15.5" cy="2.7" r="1"/>
						<g id="Path_182_" transform="translate(8.000000, 4.000000)">
							<path id="Path_180_" fill="#B6BDCD" d="M12.2,5.1c0,0-6.3,0-8.8,0C0.7,5.1,1.3,2.2,1.3,2.2v-2h1.1v2v0.1V2.4
								c0,0.3,0,1.1,0.3,1.5C2.8,4,3,4.2,3.5,4.2h8.8l0,0c0.2,0,1,0,1.8,0.6c0.7,0.5,1.6,1.601,1.6,3.8h-1.1
								C14.5,4.9,12.2,5.1,12.2,5.1z"/>
							<path id="Path_181_" fill="#948EA2" d="M0.2,2.2V0.3h1.1v2c0,0-0.5,2.9,2.1,2.9c2.5,0,8.8,0,8.8,0S14.5,5,14.5,8.6h-1.1
								c0-1-0.2-1.699-0.7-2c-0.3-0.199-0.6-0.3-0.6-0.3H3.4c-1.2,0-2-0.5-2.4-1C0.1,4.1,0.2,2.6,0.2,2.2z"/>
						</g>
						<path id="Path_183_" fill="#948EA2" d="M24.3,12.1c0-0.199-0.2-0.398-0.4-0.398h-3.1c-0.2,0-0.4,0.199-0.4,0.398V12.9
							c0,0.199,0.2,0.398,0.4,0.398h3.1c0.2,0,0.4-0.199,0.4-0.398V12.1z"/>
					</g>
					<g id="Path_189_" transform="translate(0.000000, 14.000000)">
						<g id="Group_22_" transform="translate(0.000000, 3.000000)">
							<path id="Path_184_" fill="none" stroke="#000000" stroke-width="0.25" d="M0.8,0.8C0.7,0.9,0.6,1,0.6,1.1
								c0-0.1,0-0.199,0-0.3H0.8z"/>
							<path id="Path_185_" fill="none" stroke="#000000" stroke-width="0.25" d="M48.2,0.8c0,0.101,0,0.2,0,0.3
								C48.2,1,48.1,0.9,48,0.8H48.2z"/>
						</g>
						<path id="Path_186_" fill="none" stroke="#000000" stroke-width="0.25" d="M48.2,4.1c0,0.2,0,0.4-0.1,0.5l0,0
							C47,12,43.2,18.1,32.9,20.1c-0.1,0.602-1.1,4.5-1.6,9.602c-0.9,7.398-1,17.398,2.9,23.8c0,0-3.1,3.899-8.8,3.899
							c-5.6,0-8.8-3.899-8.8-3.899c3.3-5.3,3.7-13.2,3.3-20c-0.4-6.101-1.5-11.399-1.9-13C4.7,19,1.8,12.6,0.8,4.5
							c0-0.2,0-0.3-0.1-0.5c0-0.1,0.1-0.2,0.2-0.3C2.6,2,12.5,0.8,24.5,0.8s21.9,1.3,23.6,2.9C48.1,3.9,48.1,4,48.2,4.1z"/>
						<path id="Path_187_" fill="none" stroke="#000000" stroke-width="0.25" d="M0.7,4.6C0.6,4.5,0.6,4.4,0.6,4.3
							c0-0.1,0-0.1,0-0.2C0.6,4.3,0.6,4.5,0.7,4.6z"/>
						<path id="Path_188_" fill="none" stroke="#000000" stroke-width="0.25" d="M48.2,4.3c0,0.101,0,0.2-0.1,0.3
							c0-0.199,0-0.398,0.1-0.5C48.2,4.2,48.2,4.2,48.2,4.3z"/>
					</g>
					<g transform="translate(3.000000, 3.000000)">
						<path id="Path_190_" fill="#948EA2" d="M10,1.8C9.9,1.6,9.7,1.4,9.6,1.3C9.1,1,8.6,1,8.4,1H4.6V0.7H3.5v2h1.1V2h3.8l0,0h0.1
							c0,0,0.2,0,0.4,0.1C9,2.2,9.1,2.4,9.1,2.6l1.1-0.1C10.2,2.2,10.1,2,10,1.8z"/>
						<g id="Path_193_" transform="translate(1.000000, 2.000000)">
							<path id="Path_191_" fill="#778C8B" d="M2.2,0.7C1,1,0.2,2,0.2,3.1V8.7c0,1.1,0.8,2,1.8,2.399V3C2.1,3,2,1.8,2.2,0.7z"/>
							<path id="Path_192_" fill="#649A9A" d="M3,0.6c-0.3,0-0.5,0-0.8,0.102C1.9,1.8,2,3,2,3v8.1C2.3,11.2,2.6,11.2,2.9,11.2
								c1.5,0,2.8-1.101,2.8-2.5V3.1C5.8,1.8,4.6,0.6,3,0.6z"/>
						</g>
						<g id="Rectangle_48_" transform="translate(0.000000, 10.000000)">
							<rect id="Rectangle_46_" x="0.6" fill="#557580" width="4.6" height="3.9"/>
							<rect id="Rectangle_47_" x="5.3" fill="#45646C" width="2.1" height="3.9"/>
						</g>
					</g>
				</g>
				<g id="Path_201_" transform="translate(179.000000, 76.000000)">
					<g id="Group_24_">
						<path id="Path_194_" fill="#948EA2" d="M28.7,5.4c-2.101,0-12.601,0-12.601,0H16c0,0-10.5,0-12.6,0S0.9,3.1,0.9,3.1V0.8h0.9V3
							c0,0.1,0.1,0.4,0.3,0.7c0.3,0.5,0.7,0.7,1.3,0.7h25.2c0.602,0,1-0.2,1.301-0.7C30.1,3.4,30.2,3.2,30.2,3V0.9H31.1v2.3
							C31.2,3.1,30.8,5.4,28.7,5.4z"/>
						<path id="Path_195_" fill="#B6BDCD" d="M0.9,0.9v2.3c0,0,0.5,2.3,2.5,2.3c2.1,0,12.6,0,12.6,0h0.1c0,0,10.5,0,12.602,0
							c2.1,0,2.6-2.3,2.6-2.3V0.9h0.9V3.3V3.4c0,0.1-0.2,0.8-0.7,1.6c-0.5,0.7-1.3,1.6-2.8,1.6H3.5C2.1,6.6,1.2,5.7,0.7,5
							S0,3.5,0,3.4V3.3V0.9H0.9z"/>
					</g>
					<g id="Group_25_" transform="translate(5.000000, 2.000000)">
						<path id="Path_196_" fill="#F38520" d="M15.6,19.7l-1,0.6l0,0l0,0l0.2-1l1-4.6l0,0l0,0l0,0l0,0l-1.2,0.6l1.2-5.3l0,0l0,0l0,0
							l0,0l0,0l-1.1,0.4L15.5,5.3l0,0l0,0l0,0l0,0l0,0l0,0l0,0l0,0L14.6,6L15.4,1.2H19L18.2,6l0,0l0,0L19,5l-0.8,5.1l0,0l0,0l0,0
							l0,0l0,0l0,0L19.3,9.7l-0.899,4L18.1,15l0,0l0,0l0,0l0,0l0,0l0,0l0,0l0,0l0.301-0.1l1-0.4l0,0l-0.899,0.4l0.899-0.4
							l-0.899,4.6L18.3,20.2l0,0l0,0l1-0.7v0.2l-0.7,5.2l0,0l0.801-0.7L18.8,28.8l0.8-0.6V31.1h-0.1c-1.3-0.199-2.4-0.1-3.5,0V28.2
							l-0.8,0.6l0.6-4.6l0,0L15,24.9l0.7-5.2H15.6z"/>
						<path id="Path_197_" fill="#E8BB4D" d="M19.2,19.6l-1,0.602l0,0l0,0l0.2-1l1-4.602l0,0l0,0l0,0l0,0L18.2,15.2l1.2-5.3l0,0l0,0
							l0,0l0,0l0,0L18.3,10.3L19,5l0,0l0,0l0,0l0,0l0,0l0,0l0,0l0,0l-0.9,0.7L18.9,0.9h2c0,0,0.3,0,0.5,0.3
							C21.7,1.5,21.6,1.9,21.6,2.1c0,10.4,0.5,21.602,2.4,30.5c-0.4-0.398-1.4-1-4.6-1.398v-2.9l0,0l0,0L18.6,28.9L19.2,24.3l0,0
							L18.4,25l0.699-5.2L19.2,19.6z"/>
						<path id="Path_198_" fill="#F38520" d="M6.7,30l-0.8,0.6L6.6,25.7L5.7,26.4L6.5,20.6l-1.1,0.7l1.3-6.1l0,0l0,0l0,0l0,0l0,0
							l0,0l0,0l-1.3,0.6L6.6,10.3v-0.2l0,0l0,0l0,0l0,0l0,0l-1.1,0.4l0.9-5.4l0,0l0,0l0,0l0,0l0,0l0,0l0,0l0,0l-1,0.7l0.898-5h4
							L9.8,3.9l0,0l0,0l0,0l0,0L10.4,3.5L10.8,3.2L9.9,8.7l0,0l0,0l0,0l0,0L11,8.3l0,0l0,0L9.9,8.7l0,0L11,8.3l0,0L9.7,13.9l0,0l0,0
							l0,0l0,0l0,0L10,14l1.1-0.5l0,0L10,14l-0.2,0.1l1.3-0.6L11,14.2L9.9,19.6l0,0l0,0l0,0l0,0L10.6,19.2l0.4-0.3l-0.8,5.8l0,0l0,0
							l0,0l0,0L11.1,24L10.4,28.9l0,0l0,0l0.8-0.602V32.9c-1.4,0.6-2.9,1.1-4.3,1.3l0,0l0,0L6.7,30z"/>
						<path id="Path_199_" fill="#E8BB4D" d="M10.2,28.8l0.7-4.899l0,0l0,0L10,24.6l0.8-5.8l0,0l0,0l0,0l0,0L10.4,19.1l-0.7,0.4
							l1.2-5.6l0.1-0.4l0,0l0,0l0,0l0,0l-1.3,0.6L9.8,13.7L11,8.4l0,0l0,0l0,0l0,0l0,0l0,0l0,0l0,0L9.9,8.8L10.8,3.4l0,0l0,0l0,0
							l0,0l0,0l0,0L9.8,4.1L10.3,1H14.4l0,0l0,0l0,0l0,0l0,0l0,0l0,0l0,0H15.3l-0.8,4.8l0,0l0,0l0.9-0.7L14.6,10.2l0,0l0,0l0,0l0,0
							l0,0l0,0L15.7,9.8l-0.9,4l-0.3,1.3l0,0l0,0l0,0l0,0l0,0l0,0l0,0l0,0l0.3-0.1l1-0.4l0,0L14.9,15l0.898-0.4L14.9,19.2l-0.2,1.1
							l0,0l0,0l1.1-0.7v0.2L15.1,25l0,0l0.801-0.7L15.3,28.9l0.8-0.602v2.9c-1.8,0.3-3.3,0.898-4.8,1.5v-4.6l0,0l0,0L10.2,28.8z"/>
						<path id="Path_200_" fill="#E8BB4D" d="M6.3,1L5.4,6l0,0l0,0l1-0.7l-0.9,5.4l0,0l0,0l0,0l0,0l0,0l0,0l1.2-0.4L5.5,15.9V16l0,0
							l0,0l0,0l0,0l0,0l0,0l1.3-0.6l-1.3,6.1l0,0l0,0l0,0l0,0l0,0l1.1-0.7l-0.8,5.8l0,0L6.7,25.9L6,30.8l0.8-0.6v4.1
							c-0.2,0-0.399,0-0.6,0.101c-4.3,0.199-6.1-1.899-6.1-1.899S1,16.7,1.4,2c0-0.2,0-0.3,0.2-0.6C1.8,1.1,2.3,1.1,2.3,1.1h4V1z"/>
					</g>
				</g>
				<path id="Path_202_" fill="none" stroke="#000000" stroke-width="0.25" d="M169.8,78.4c0,0.898,0,1.8-0.1,2.699
					c-0.2,2.5-0.6,4.801-1.3,7.101c-0.7,2.5-1.7,4.8-3,6.8c-2.2,3.6-5,6.5-8.3,8.3c-2.3,1.2-4.8,1.9-7.4,1.9
					c-10.4,0-18.9-10.5-20-23.9c-0.1-0.899-0.1-1.8-0.1-2.8c0-2.3,0.2-4.5,0.6-6.6c0.7-3.601,1.9-6.9,3.6-9.801
					c1.1-1.8,2.3-3.5,3.7-4.899c3.4-3.4,7.6-5.4,12.1-5.4C160.8,51.8,169.8,63.7,169.8,78.4z"/>
				<path id="Path_203_" fill="#FFFFFF" d="M162.4,55.4L162.4,55.4c0,1.2-1,2.2-2.3,2.2l0,0c1.2,0,2.2,1,2.2,2.2l0,0
					c0-1.2,1-2.2,2.2-2.2l0,0C163.4,57.6,162.4,56.6,162.4,55.4z"/>
				<path id="Path_204_" fill="#FFFFFF" d="M168.7,66.9L168.7,66.9c0,1.199-1,2.199-2.3,2.199l0,0c1.2,0,2.2,1,2.2,2.2l0,0
					c0-1.2,1-2.2,2.2-2.2l0,0C169.7,69.1,168.7,68.1,168.7,66.9z"/>
				<path id="Path_205_" fill="#FFFFFF" d="M173.1,120.8L173.1,120.8c-0.1,1.9-1.6,3.4-3.5,3.4v0.1c1.9,0,3.4,1.5,3.4,3.4h0.1
					c0-1.9,1.5-3.4,3.4-3.4v-0.1C174.7,124.2,173.1,122.7,173.1,120.8z"/>
			</g>
			<path id="Path_206_" fill="#010101" d="M80.7,154.3c-0.2-0.1-0.5-0.2-1-0.399c-0.4-0.101-0.9-0.301-1.4-0.601
				c-0.1-0.1-0.3-0.1-0.4-0.2c-1.1-0.398-2.4-1-3.8-1.5c-0.4-0.199-0.9-0.398-1.3-0.6c-2.4-1-4.9-2.2-6.8-3.1l6.3,2.8l1.7,0.7
				l3.8,1.699l0.4,0.199l1.4,0.602L80.7,154.3z"/>
		</g>
	</g>
</g>
</svg>
