<?xml version="1.0" encoding="utf-8"?>
<!-- Generator: Adobe Illustrator 16.0.0, SVG Export Plug-In . SVG Version: 6.00 Build 0)  -->
<!DOCTYPE svg PUBLIC "-//W3C//DTD SVG 1.1//EN" "http://www.w3.org/Graphics/SVG/1.1/DTD/svg11.dtd">
<svg version="1.1" id="Layer_1" xmlns="http://www.w3.org/2000/svg" xmlns:xlink="http://www.w3.org/1999/xlink" x="0px" y="0px"
	 width="24px" height="24px" viewBox="243.5 243.5 24 24" enable-background="new 243.5 243.5 24 24" xml:space="preserve">
<path fill="#333333" d="M252.842,266.338c-0.277,0-0.553-0.027-0.825-0.082l-1.332-0.268c-0.188-0.037-0.335-0.186-0.373-0.373
	l-0.267-1.332c-0.276-1.373,0.154-2.795,1.146-3.785l1.878-1.878c0.186-0.186,0.487-0.186,0.672,0l3.941,3.94
	c0.186,0.186,0.186,0.486,0,0.674l-1.88,1.875C255.018,265.896,253.953,266.338,252.842,266.338z M251.181,265.119l1.023,0.205
	c1.063,0.211,2.161-0.123,2.926-0.889l1.542-1.543l-3.268-3.268l-1.539,1.545c-0.767,0.766-1.1,1.863-0.886,2.926L251.181,265.119z"
	/>
<path fill="#333333" d="M252.739,262.889l2.299-2.299l0.672,0.672l-2.299,2.299L252.739,262.889z"/>
<path fill="#333333" d="M256.03,262.057c-0.126,0-0.247-0.051-0.336-0.139l-1.314-1.314c-0.186-0.186-0.186-0.486,0-0.672
	l7.882-7.881c0.186-0.186,0.486-0.186,0.672,0l1.313,1.314c0.187,0.186,0.187,0.487,0,0.672l-7.881,7.881
	C256.277,262.008,256.156,262.057,256.03,262.057z M255.389,260.268l0.641,0.643l7.209-7.209l-0.641-0.642L255.389,260.268z"/>
<path fill="#333333" d="M263.912,254.176c-0.126,0-0.247-0.05-0.336-0.14l-1.313-1.313c-0.142-0.141-0.179-0.355-0.096-0.536
	l1.244-2.696c0.064-0.141,0.195-0.242,0.348-0.269c0.153-0.027,0.311,0.022,0.42,0.132l2.766,2.766
	c0.11,0.11,0.159,0.267,0.132,0.419c-0.027,0.153-0.127,0.283-0.269,0.349l-2.696,1.244
	C264.049,254.161,263.98,254.176,263.912,254.176z M263.17,252.285l0.844,0.844l1.775-0.82l-1.801-1.801L263.17,252.285z"/>
<path fill="#333333" d="M255.694,259.291l0.673-0.672l1.313,1.313l-0.673,0.674L255.694,259.291z"/>
<path fill="#333333" d="M265.657,266.338h-9.513v-0.951h9.037v-1.902h-6.659v-0.951h7.135c0.263,0,0.476,0.213,0.476,0.475v2.854
	C266.133,266.125,265.92,266.338,265.657,266.338z"/>
<path fill="#333333" d="M249.486,266.338h-4.756c-0.263,0-0.476-0.213-0.476-0.477v-2.854h0.951v2.379h4.281V266.338z"/>
<path fill="#333333" d="M244.254,260.154h0.951v2.854h-0.951V260.154z"/>
<path fill="#333333" d="M260.426,260.154h0.951v2.854h-0.951V260.154z"/>
<path fill="#333333" d="M264.706,260.629h-5.708v-0.95h5.232v-1.903h-2.378v-0.951h2.854c0.263,0,0.476,0.213,0.476,0.477v2.854
	C265.182,260.418,264.969,260.629,264.706,260.629z"/>
<path fill="#333333" d="M255.669,257.775h-10.939c-0.263,0-0.476-0.212-0.476-0.475v-2.854c0-0.263,0.213-0.476,0.476-0.476h10.939
	c0.263,0,0.476,0.213,0.476,0.476v2.854C256.145,257.563,255.932,257.775,255.669,257.775z M245.205,256.824h9.988v-1.902h-9.988
	V256.824z"/>
<path fill="#333333" d="M255.669,256.824h0.476v0.951h-0.476V256.824z"/>
<path fill="#333333" d="M249.486,260.629h-4.756c-0.263,0-0.476-0.211-0.476-0.475v-2.854h0.951v2.378h4.281V260.629z"/>
<path fill="#333333" d="M244.729,262.533h4.756v0.951h-4.756V262.533z"/>
<path fill="#333333" d="M249.486,254.447h0.951v2.854h-0.951V254.447z"/>
<path fill="#333333" d="M247.108,257.301h0.951v2.854h-0.951V257.301z"/>
<path fill="#333333" d="M247.108,263.008h0.951v2.854h-0.951V263.008z"/>
<path fill="#333333" d="M257.571,246.361h0.951v2.854h-0.951V246.361z"/>
<path fill="#333333" d="M256.62,247.312h2.854v0.952h-2.854V247.312z"/>
<path fill="#333333" d="M258.522,253.971h-0.951c0-0.268-0.103-0.381-0.336-0.615c-0.389-0.314-0.615-0.787-0.615-1.288
	c0-0.5,0.227-0.973,0.615-1.287c0.233-0.233,0.336-0.347,0.336-0.615h0.951c-0.005,0.499-0.23,0.97-0.614,1.288
	c-0.233,0.233-0.337,0.347-0.337,0.615c0,0.268,0.104,0.381,0.337,0.615C258.292,253.001,258.518,253.472,258.522,253.971z"/>
<path fill="#333333" d="M252.815,243.983h0.951v2.854h-0.951V243.983z"/>
<path fill="#333333" d="M251.864,244.934h2.854v0.951h-2.854V244.934z"/>
<path fill="#333333" d="M253.767,251.593h-0.951c0-0.267-0.104-0.38-0.336-0.615c-0.389-0.314-0.615-0.788-0.615-1.288
	s0.226-0.973,0.615-1.288c0.233-0.234,0.336-0.347,0.336-0.615h0.951c-0.006,0.499-0.231,0.969-0.615,1.287
	c-0.233,0.233-0.336,0.347-0.336,0.615c0,0.268,0.103,0.38,0.336,0.615C253.536,250.623,253.761,251.094,253.767,251.593z"/>
<path fill="#333333" d="M248.059,245.885h0.951v2.854h-0.951V245.885z"/>
<path fill="#333333" d="M247.108,246.837h2.854v0.951h-2.854V246.837z"/>
<path fill="#333333" d="M249.01,253.496h-0.951c0-0.268-0.104-0.38-0.336-0.615c-0.389-0.314-0.615-0.788-0.615-1.288
	s0.226-0.973,0.615-1.287c0.233-0.235,0.336-0.348,0.336-0.615h0.951c-0.006,0.499-0.23,0.97-0.615,1.288
	c-0.233,0.234-0.336,0.348-0.336,0.615c0,0.268,0.103,0.381,0.336,0.615C248.78,252.526,249.004,252.997,249.01,253.496z"/>
</svg>
