<svg xmlns="http://www.w3.org/2000/svg" xmlns:xlink="http://www.w3.org/1999/xlink" width="40" height="41" viewBox="0 0 40 41">
    <defs>
        <path id="a" d="M0 40.629h39.945V-.001H0z"/>
    </defs>
    <g fill="none" fill-rule="evenodd">
        <path stroke="#FFF" stroke-width=".896" d="M22.168 36.506v1.475c0 .706-.566 1.28-1.262 1.28a1.272 1.272 0 0 1-1.262-1.28V26.22l2.524 10.287zm1.262-12.664v-3.508l2.523-2.56v-3.463c0-1.41-1.132-2.558-2.523-2.558h-1.262v3.573l-.262.264h-2l-.262-.264v-3.573h-1.262c-1.392 0-2.524 1.147-2.524 2.558v3.464l2.524 2.559v3.508h5.048zm-3.786 0h2.524v-3.134h-2.524v3.134z"/>
        <mask id="b" fill="#fff">
            <use xlink:href="#a"/>
        </mask>
        <path stroke="#FFF" stroke-width=".896" d="M4.267 36.766h3.517v-11.81H4.267z" mask="url(#b)"/>
        <path stroke="#FFF" stroke-width=".896" d="M7.784 26.516h6.593l2.565-2.674h7.949c.537 0 1.054.307 1.245.817.083.221.105.48-.004.766-.19.498-.698.794-1.224.794h-5.842l-2.491 2.6" mask="url(#b)"/>
        <path stroke="#FFF" stroke-width=".896" d="M23.123 28.91H27.5c.733 0 1.328-.604 1.328-1.347s-.595-1.346-1.328-1.346h-4.377c-.734 0-1.328.603-1.328 1.346 0 .743.594 1.346 1.328 1.346z" mask="url(#b)"/>
        <path stroke="#FFF" stroke-width=".896" d="M23.123 31.583H27.5c.733 0 1.328-.603 1.328-1.346 0-.743-.595-1.346-1.328-1.346h-4.377c-.734 0-1.328.603-1.328 1.346 0 .743.594 1.346 1.328 1.346z" mask="url(#b)"/>
        <path stroke="#FFF" stroke-width=".896" d="M23.123 34.22H27.5c.733 0 1.328-.603 1.328-1.346 0-.744-.595-1.347-1.328-1.347h-4.377c-.734 0-1.328.603-1.328 1.347 0 .743.594 1.346 1.328 1.346zM23.123 36.931H27.5c.733 0 1.328-.603 1.328-1.346 0-.744-.595-1.347-1.328-1.347h-4.377c-.734 0-1.328.603-1.328 1.347 0 .743.594 1.346 1.328 1.346zM16.681 23.993a8.374 8.374 0 0 1-4.098-7.225c0-4.615 3.69-8.356 8.241-8.356 4.552 0 8.242 3.74 8.242 8.356a8.377 8.377 0 0 1-3.848 7.07" mask="url(#b)"/>
        <path stroke="#FFF" stroke-width=".896" d="M14.896 25.95A11.003 11.003 0 0 1 10 16.769c0-6.061 4.846-10.975 10.824-10.975s10.824 4.914 10.824 10.975c0 4.074-2.19 7.63-5.441 9.523M8.042 12.737l-.031.009M8.016 20.754l-.014-.004M14.525 4.79l-.022-.008M9.005 10.361L9 10.352M24.815 3.788v-.004" mask="url(#b)"/>
        <path stroke="#FFF" stroke-linejoin="round" stroke-width=".896" d="M7.784 24.957l1.117-1.95.001.002s-.669-1.492-.9-2.26l-2.268-.77v-6.422l2.277-.807v-.004c.255-.838.585-1.636.989-2.394l-1.086-2.16 4.413-4.48 2.176 1.07c.796-.432 1.64-.784 2.515-1.047l.712-2.122h6.338l.743 2.17h.004c.844.272 1.653.62 2.418 1.043l2.18-1.02 4.444 4.505-1.086 2.282c.37.735.677 1.51.91 2.313l2.453.833v6.369l-2.576.922a13.546 13.546 0 0 1-.911 2.15" mask="url(#b)"/>
        <path stroke="#FFF" stroke-width=".896" d="M17.017 3.735l-.004.013M32.771 10.593l-.004.01M33.558 21.03l-.022.01M32.651 23.162l1.122 2.296-4.959 5.028" mask="url(#b)"/>
        <path stroke="#FFF" stroke-linejoin="round" stroke-width=".896" d="M7.784 34.872h5.604l1.85 1.876h3.132l.012.018v-9.823M39.505 38.623a1.55 1.55 0 0 1-1.538 1.56 1.55 1.55 0 0 1-1.538-1.56c0-.861.688-1.56 1.538-1.56.85 0 1.538.699 1.538 1.56z" mask="url(#b)"/>
        <path stroke="#FFF" stroke-width=".896" d="M37.71 34.343h.44v-.445h-.44zM37.71 31.159h.44v-.446h-.44zM37.71 27.974h.44v-.446h-.44z" mask="url(#b)"/>
        <path stroke="#FFF" stroke-linejoin="round" stroke-width=".896" d="M1.025 2.005c0-.861.69-1.56 1.539-1.56.85 0 1.538.699 1.538 1.56 0 .862-.688 1.56-1.538 1.56a1.55 1.55 0 0 1-1.539-1.56z" mask="url(#b)"/>
        <path stroke="#FFF" stroke-width=".896" d="M2.381 6.731h.44v-.446h-.44zM2.381 9.916h.44V9.47h-.44zM2.381 13.1h.44v-.445h-.44z" mask="url(#b)"/>
        <path stroke="#FFF" stroke-linecap="round" stroke-linejoin="round" stroke-width=".896" d="M38.104 8.68v2.006M39.093 9.684h-1.978M35.275 4.976v2.006M36.264 5.98h-1.978M4.505 21.076v2.005M5.495 22.078H3.516M1.429 17.455v2.005M2.418 18.457H.44" mask="url(#b)"/>
    </g>
</svg>
