<?xml version="1.0" encoding="UTF-8"?>
<svg width="70px" height="70px" viewBox="0 0 70 70" version="1.1" xmlns="http://www.w3.org/2000/svg" xmlns:xlink="http://www.w3.org/1999/xlink">
    <!-- Generator: Sketch 53 (72520) - https://sketchapp.com -->
    <title>Door lock Installation  (baby lock)</title>
    <desc>Created with Sketch.</desc>
    <defs>
        <linearGradient x1="5.63673899%" y1="-11.1485635%" x2="51.5179728%" y2="97.7255544%" id="linearGradient-1">
            <stop stop-color="#64C866" offset="0%"></stop>
            <stop stop-color="#6EDADA" offset="100%"></stop>
        </linearGradient>
    </defs>
    <g id="Page-1" stroke="none" stroke-width="1" fill="none" fill-rule="evenodd">
        <path d="M-1.42108547e-14,70 L-1.42108547e-14,-1.13686838e-13 L70,-1.13686838e-13 L70,70 L-1.42108547e-14,70 Z M5.83771162,64.1666667 L64.1622884,64.1666667 L64.1622884,5.83333333 L5.83771162,5.83333333 L5.83771162,64.1666667 Z M40.0215995,30.1084583 C40.0215995,32.4359583 39.0379451,33.6084583 37.8879159,34.346375 L38.7051956,41.722625 C38.7460595,42.090125 38.6293053,42.4605417 38.3812026,42.737625 C38.1330998,43.0147083 37.7799183,43.1722083 37.4063047,43.1722083 L32.1757151,43.1722083 C31.8050204,43.1722083 31.4518389,43.0147083 31.2037361,42.737625 C30.9556334,42.4605417 30.8359603,42.090125 30.8768243,41.722625 L31.7028605,34.311375 C30.3631057,33.3372083 29.5633392,31.7972083 29.5633392,30.1084583 C29.5633392,27.2267917 31.9100992,24.8817917 34.7910099,24.8817917 C37.6748395,24.8817917 40.0215995,27.2267917 40.0215995,30.1084583 Z M34.7311734,24.0015417 C28.6949796,24.0015417 23.7854641,28.907375 23.7854641,34.9390417 C23.7854641,40.9707083 28.6949796,45.8765417 34.7311734,45.8765417 C40.7673672,45.8765417 45.6768827,40.9707083 45.6768827,34.9390417 C45.6768827,28.907375 40.7673672,24.0015417 34.7311734,24.0015417 Z M34.7311734,51.709875 C25.4784005,51.709875 17.9477525,44.184875 17.9477525,34.9390417 C17.9477525,25.6932083 25.4784005,18.1682083 34.7311734,18.1682083 C43.9839463,18.1682083 51.5145943,25.6932083 51.5145943,34.9390417 C51.5145943,44.184875 43.9839463,51.709875 34.7311734,51.709875 Z" id="Door-lock-Installation--(baby-lock)" fill="url(#linearGradient-1)" fill-rule="nonzero"></path>
    </g>
</svg>