<?xml version="1.0" encoding="UTF-8"?>
<svg width="71px" height="71px" viewBox="0 0 71 71" version="1.1" xmlns="http://www.w3.org/2000/svg" xmlns:xlink="http://www.w3.org/1999/xlink">
    <!-- Generator: Sketch 53 (72520) - https://sketchapp.com -->
    <title>Switch / Socket</title>
    <desc>Created with Sketch.</desc>
    <defs>
        <linearGradient x1="5.63673899%" y1="-11.1485635%" x2="51.5179728%" y2="97.7255544%" id="linearGradient-1">
            <stop stop-color="#64C866" offset="0%"></stop>
            <stop stop-color="#6EDADA" offset="100%"></stop>
        </linearGradient>
    </defs>
    <g id="Page-1" stroke="none" stroke-width="1" fill="none" fill-rule="evenodd">
        <path d="M32.1248333,6.95339237 C17.4065448,8.42138212 5.87483333,20.8770831 5.87483333,35.9753608 C5.87483333,51.0736386 17.4065448,63.5293396 32.1248333,64.9973293 L32.1248333,57.4857775 C32.1248333,55.8728608 33.4285833,54.5691108 35.0415,54.5691108 C36.6544167,54.5691108 37.9581667,55.8728608 37.9581667,57.4857775 L37.9581667,64.9973293 C52.6764552,63.5293396 64.2081667,51.0736386 64.2081667,35.9753608 C64.2081667,20.8770831 52.6764552,8.42138212 37.9581667,6.95339237 L37.9581667,14.4649442 C37.9581667,16.0778608 36.6544167,17.3816108 35.0415,17.3816108 C33.4285833,17.3816108 32.1248333,16.0778608 32.1248333,14.4649442 L32.1248333,6.95339237 Z M35.0415,70.9753608 C15.7419167,70.9753608 0.0415,55.2749442 0.0415,35.9753608 C0.0415,16.6757775 15.7419167,0.97536084 35.0415,0.97536084 C54.3410833,0.97536084 70.0415,16.6757775 70.0415,35.9753608 C70.0415,55.2749442 54.3410833,70.9753608 35.0415,70.9753608 Z M30.2847083,35.9753608 C30.2847083,40.5982775 26.5367917,44.3461942 21.913875,44.3461942 C17.2909583,44.3461942 13.5430417,40.5982775 13.5430417,35.9753608 C13.5430417,31.3524442 17.2909583,27.6045275 21.913875,27.6045275 C26.5367917,27.6045275 30.2847083,31.3524442 30.2847083,35.9753608 Z M56.7884583,35.9753608 C56.7884583,40.5982775 53.0405417,44.3461942 48.417625,44.3461942 C43.7947083,44.3461942 40.0467917,40.5982775 40.0467917,35.9753608 C40.0467917,31.3524442 43.7947083,27.6045275 48.417625,27.6045275 C53.0405417,27.6045275 56.7884583,31.3524442 56.7884583,35.9753608 Z" id="Switch-/-Socket" fill="url(#linearGradient-1)" fill-rule="nonzero"></path>
    </g>
</svg>