<?xml version="1.0" encoding="utf-8"?>
<!-- Generator: Adobe Illustrator 16.0.0, SVG Export Plug-In . SVG Version: 6.00 Build 0)  -->
<!DOCTYPE svg PUBLIC "-//W3C//DTD SVG 1.1//EN" "http://www.w3.org/Graphics/SVG/1.1/DTD/svg11.dtd">
<svg version="1.1" id="Capa_1" xmlns="http://www.w3.org/2000/svg" xmlns:xlink="http://www.w3.org/1999/xlink" x="0px" y="0px"
	 width="24px" height="24px" viewBox="0 0 24 24" enable-background="new 0 0 24 24" xml:space="preserve">
<g>
	<path stroke="#000000" stroke-width="0.5" stroke-miterlimit="10" d="M21.881,14.714h-3.436V8.988h3.436
		c0.212,0,0.382-0.171,0.382-0.381V6.725l0.76-5.315c0.03-0.208-0.115-0.402-0.324-0.432c-0.018-0.002-0.035-0.004-0.054-0.004
		H11.958c-0.21,0-0.381,0.171-0.381,0.381c0,0.019,0.001,0.036,0.004,0.055l0.759,5.315v1.882c0,0.21,0.17,0.381,0.382,0.381h3.435
		v5.726h-0.381c-0.633,0-1.145,0.513-1.145,1.144c0,0.634,0.512,1.146,1.145,1.146h0.381v0.764h-2.672l0.356-5.343h0.406
		c0.213,0,0.384-0.171,0.384-0.381v-1.527c0-0.211-0.171-0.382-0.384-0.382h-2.7c-0.12-0.827-0.62-1.55-1.351-1.956
		c0.605-1.345,0.004-2.927-1.342-3.532C7.509,4.041,5.928,4.641,5.323,5.987C5.218,6.221,5.147,6.468,5.112,6.722
		C3.02,6.496,1.141,8.007,0.914,10.1c0,0.011-0.002,0.022-0.003,0.033H0.508c-0.21,0-0.381,0.171-0.381,0.382v1.527
		c0,0.21,0.171,0.381,0.381,0.381h0.407l0.739,11.093c0.013,0.2,0.18,0.356,0.381,0.356h20.609c0.21,0,0.382-0.172,0.382-0.382
		v-7.634C23.026,15.227,22.513,14.714,21.881,14.714z M12.399,1.737h1.468v2.29h0.764v-2.29h0.763V2.5h0.763V1.737h2.289v1.145
		h0.765V1.737h0.763v2.29h0.764v-2.29h1.468l-0.653,4.58h-8.498L12.399,1.737z M13.104,8.226V7.08H21.5v1.146H13.104z M17.683,8.988
		v5.726H16.92V8.988H17.683z M13.867,10.896v0.764H8.142v-0.764H13.867z M5.077,7.486C5.182,7.499,5.286,7.517,5.39,7.542
		c0.004,0,0.008,0,0.012,0C5.85,7.646,6.268,7.851,6.625,8.14l0.481-0.594C6.738,7.252,6.32,7.028,5.872,6.885
		C5.981,5.84,6.918,5.081,7.963,5.19C9.008,5.3,9.767,6.236,9.657,7.282C9.625,7.59,9.518,7.887,9.345,8.144
		c-0.117,0.175-0.071,0.412,0.104,0.53c0.027,0.018,0.057,0.032,0.087,0.043c0.631,0.223,1.099,0.76,1.233,1.417H7.76
		c-0.211,0-0.381,0.171-0.381,0.382v3.435c0,0.21-0.171,0.381-0.382,0.381c-0.211,0-0.382-0.171-0.382-0.381v-0.764
		c0-0.632-0.513-1.145-1.145-1.145c-0.633,0-1.146,0.513-1.146,1.145v2.671c0,0.211-0.17,0.383-0.381,0.383
		c-0.21,0-0.381-0.172-0.381-0.383v-5.342c0-0.211-0.171-0.382-0.382-0.382H1.679C1.886,8.464,3.408,7.279,5.077,7.486z M0.89,11.66
		v-0.764h1.909v0.764H0.89z M10.813,18.911v4.199H2.393L1.68,12.423h1.119v3.434c0,0.634,0.513,1.146,1.145,1.146
		c0.632,0,1.145-0.512,1.145-1.146v-2.671c0-0.21,0.171-0.382,0.382-0.382c0.21,0,0.381,0.172,0.381,0.382v0.764
		c0,0.633,0.513,1.144,1.146,1.144c0.632,0,1.145-0.511,1.145-1.144v-1.527h4.936l-0.355,5.343h-0.764
		C11.326,17.767,10.813,18.278,10.813,18.911z M22.263,23.11h-1.145v-1.908h-0.764v1.908H19.21v-1.908h-0.765v1.908h-1.144v-1.908
		h-0.764v1.908h-1.145v-1.908h-0.763v1.908h-1.146v-1.908h-0.763v1.908h-1.145v-3.054h10.686V23.11z M22.263,19.293H11.577v-0.382
		c0-0.21,0.171-0.382,0.381-0.382h8.396c0.634,0,1.146-0.511,1.146-1.144s-0.512-1.146-1.146-1.146h-4.579
		c-0.211,0-0.382-0.172-0.382-0.383s0.171-0.38,0.382-0.38h6.105c0.212,0,0.382,0.169,0.382,0.38V19.293z M16.92,17.767v-0.764
		h0.763v0.764H16.92z M18.445,17.767v-0.764h1.909c0.211,0,0.382,0.171,0.382,0.383c0,0.21-0.171,0.381-0.382,0.381H18.445z"/>
</g>
<g>
	<g>
		<polygon points="1.6,4 1.6,3.2 0.8,3.2 0.8,4 0,4 0,4.8 0.8,4.8 0.8,5.6 1.6,5.6 1.6,4.8 2.4,4.8 2.4,4 		"/>
	</g>
</g>
<g>
	<g>
		<polygon points="22.8,11.2 22.8,10.4 22,10.4 22,11.2 21.199,11.2 21.199,12 22,12 22,12.8 22.8,12.8 22.8,12 23.6,12 23.6,11.2 
					"/>
	</g>
</g>
<g>
	<g>
		<polygon points="7.6,0.8 7.6,0 6.8,0 6.8,0.8 6,0.8 6,1.6 6.8,1.6 6.8,2.4 7.6,2.4 7.6,1.6 8.4,1.6 8.4,0.8 		"/>
	</g>
</g>
<g>
	<g>
		<rect x="14.4" y="4" width="0.8" height="0.8"/>
	</g>
</g>
</svg>
