<?xml version="1.0" encoding="UTF-8"?>
<svg width="71px" height="70px" viewBox="0 0 71 70" version="1.1" xmlns="http://www.w3.org/2000/svg" xmlns:xlink="http://www.w3.org/1999/xlink">
    <!-- Generator: Sketch 53 (72520) - https://sketchapp.com -->
    <title>Wall Mounted Fan</title>
    <desc>Created with Sketch.</desc>
    <defs>
        <linearGradient x1="5.63673899%" y1="-11.1485635%" x2="51.5179728%" y2="97.7255544%" id="linearGradient-1">
            <stop stop-color="#64C866" offset="0%"></stop>
            <stop stop-color="#6EDADA" offset="100%"></stop>
        </linearGradient>
    </defs>
    <g id="Page-1" stroke="none" stroke-width="1" fill="none" fill-rule="evenodd">
        <path d="M22.640053,43.6701954 C17.6977499,44.7039228 12.9216481,45.7610113 8.1222199,46.6662527 C6.08989822,47.0517104 4.58242288,45.8953374 3.38693954,44.3651873 C1.50332432,41.958997 0.660654359,39.1323074 0.284514479,36.1537709 C-0.228668614,32.0947848 -0.0245617022,28.0766806 1.57621965,24.2629858 C2.15063482,22.8992833 2.93498852,21.5472613 3.91178589,20.4434507 C5.99076057,18.0985833 8.09014595,18.2358295 10.2011946,20.5076937 C12.8749951,23.3869457 15.4554897,26.383003 18.3887976,28.9731617 C19.9225152,30.3251837 20.4823513,31.3910326 20.0887166,33.4234457 C19.4997223,36.4662252 20.3132342,39.4009597 21.7740565,42.134205 C21.9985741,42.5517841 22.2405866,42.963523 22.640053,43.6701954 Z M26.328848,22.6975021 C25.3433032,17.9026423 24.3869165,13.3968757 23.4946778,8.87942867 C22.9523365,6.12866258 24.1915571,4.14297156 26.454228,2.75590798 C30.6121774,0.203710991 35.2191619,-0.386156047 39.9252842,0.21831166 C42.3833146,0.533686116 44.7917761,1.41848667 47.1535847,2.24780469 C48.1128872,2.58362008 48.9817994,3.36037569 49.7224159,4.10500982 C51.7401586,6.13158271 51.6993372,8.2778811 49.5212248,10.1146453 C45.9493539,13.1282234 42.4124727,16.1534821 39.6278712,19.9584165 C39.4325118,20.2241487 38.8580966,20.4227178 38.5256939,20.3497144 C34.283186,19.4211119 30.3410067,20.1423849 26.328848,22.6975021 Z M47.3005416,26.2904348 C52.5373418,25.2829886 57.4096654,24.2755424 62.3111471,23.4403841 C64.2939,23.1045687 65.7168167,24.3456256 66.8306573,25.8582549 C69.0175171,28.8251109 69.752302,32.2854696 69.9768196,35.8626335 C70.2130004,39.6500471 69.752302,43.3761379 68.0115616,46.781014 C67.303019,48.1622373 66.2329156,49.4704573 65.0374323,50.4603827 C63.3666714,51.8445261 61.797964,51.5817141 60.2788254,49.9405988 C58.2348405,47.7329776 56.3191513,45.3997907 54.2372608,43.2301312 C53.0680198,42.0095153 51.6421872,41.0400309 50.4000509,39.8807377 C50.0443217,39.5478425 49.6769293,38.8966526 49.7556562,38.4732332 C50.5429257,34.2740807 49.9539315,30.3523409 47.3005416,26.2904348 Z M43.7613278,47.2491115 C44.7760307,52.4557101 45.816976,57.3352538 46.6421511,62.2498391 C46.9687221,64.1975683 45.7324174,65.6605554 44.2395211,66.7964875 C42.0993144,68.423002 39.6150417,69.2114382 36.9995574,69.6319374 C32.5500267,70.34153 28.1763072,70.0903985 24.0066945,68.3032765 C22.6974945,67.745531 21.4232842,66.9191331 20.3765073,65.9496487 C18.1838159,63.9143154 18.3062801,61.8147391 20.5339612,59.8582494 C22.4671452,58.1587315 24.4878037,56.5555781 26.3276817,54.7596957 C27.7447668,53.3784724 28.9140079,51.7402773 30.2552818,50.2685299 C30.5468631,49.9502353 31.1329416,49.6202602 31.5090814,49.6903434 C35.7486736,50.5138211 39.7112635,49.9181138 43.7613278,47.2491115 Z M34.9310796,44.1266123 C29.7963329,44.0565291 25.755016,39.9654216 25.8133323,34.9019095 C25.8745644,29.6485887 30.0179347,25.6567657 35.3101353,25.7531301 C40.2961756,25.8436543 44.2908394,30.1012094 44.1946176,35.2202041 C44.1013116,40.2340739 39.978352,44.1966955 34.9310796,44.1266123 Z" id="Wall-Mounted-Fan" fill="url(#linearGradient-1)" fill-rule="nonzero"></path>
    </g>
</svg>