<?xml version="1.0" encoding="UTF-8"?>
<svg width="70px" height="71px" viewBox="0 0 70 71" version="1.1" xmlns="http://www.w3.org/2000/svg" xmlns:xlink="http://www.w3.org/1999/xlink">
    <!-- Generator: Sketch 53 (72520) - https://sketchapp.com -->
    <title>Washing machine connection (standard fittings) </title>
    <desc>Created with Sketch.</desc>
    <defs>
        <linearGradient x1="5.63673899%" y1="-11.1485635%" x2="51.5179728%" y2="97.7255544%" id="linearGradient-1">
            <stop stop-color="#64C866" offset="0%"></stop>
            <stop stop-color="#6EDADA" offset="100%"></stop>
        </linearGradient>
    </defs>
    <g id="Page-1" stroke="none" stroke-width="1" fill="none" fill-rule="evenodd">
        <path d="M64.1666667,37.6877554 L59.2695833,37.6877554 L59.2695833,63.476523 C59.2695833,65.2381823 57.68875,66.6702597 55.7316667,66.6702597 L53.9729167,66.6702597 L53.9729167,70.9872 L5.99958333,70.9872 L5.99958333,66.6702597 L3.535,66.6702597 C1.58375,66.6702597 -4.26325641e-14,65.2381823 -4.26325641e-14,63.476523 L-4.26325641e-14,4.18093669 C-4.26325641e-14,2.41636071 1.58375,0.9872 3.535,0.9872 L55.7316667,0.9872 C57.68875,0.9872 59.2695833,2.41636071 59.2695833,4.18093669 L59.2695833,31.8544464 L64.1666667,31.8544464 L64.1666667,0.987491665 L70,0.987491665 L70,70.9872 L64.1666667,70.9872 L64.1666667,37.6877554 Z M28.6292552,16.9503418 C26.5801771,16.2252732 25.1084167,14.2700684 25.1084167,11.9777375 C25.1084167,9.44348466 26.9072148,7.32348529 29.2962446,6.82050903 L18.7238664,6.82050903 C21.1148269,7.32348529 22.913625,9.44348466 22.913625,11.9777375 C22.913625,14.2700684 21.4418645,16.2252732 19.3913576,16.9503418 L28.6292552,16.9503418 Z M32.1440868,16.9503418 L53.43625,16.9503418 L53.43625,6.82050903 L31.4778039,6.82050903 C33.8643338,7.32348529 35.6609167,9.44348466 35.6609167,11.9777375 C35.6609167,14.2700684 34.1909687,16.2252732 32.1440868,16.9503418 Z M15.8735503,16.9503418 C13.8252396,16.2252732 12.3552917,14.2700684 12.3552917,11.9777375 C12.3552917,9.44348466 14.1518745,7.32348529 16.5403351,6.82050903 L5.83333333,6.82050903 L5.83333333,16.9503418 L15.8735503,16.9503418 Z M37.201909,42.6635905 C37.3680286,42.0217228 37.4564167,41.3489068 37.4564167,40.655743 C37.4564167,36.2282615 33.8455833,32.6291098 29.4064167,32.6291098 C24.96725,32.6291098 21.3535,36.2282615 21.3535,40.655743 C21.3535,41.2612689 21.4210053,41.851267 21.548897,42.4186705 C22.6869433,41.9809392 23.98646,41.5623094 25.1813333,41.3700317 C28.2263333,40.8800338 29.3025833,42.8429423 31.7584167,43.3300236 C33.1359812,43.6055353 35.1654713,43.3545295 37.201909,42.6635905 Z M53.43625,22.7836508 L5.83333333,22.7836508 L5.83333333,60.8369506 L53.43625,60.8369506 L53.43625,22.7836508 Z M29.4064167,26.7958008 C37.0655833,26.7958008 43.28975,32.9995249 43.28975,40.655743 C43.28975,48.3119611 37.0655833,54.518602 29.4064167,54.518602 C21.7385,54.518602 15.5201667,48.3119611 15.5201667,40.655743 C15.5201667,32.9995249 21.7385,26.7958008 29.4064167,26.7958008 Z M17.6315417,11.4177399 C17.3282083,11.4177399 17.0802917,11.6685722 17.0802917,11.9777375 C17.0802917,12.6077349 18.188625,12.598985 18.188625,11.9777375 C18.188625,11.6627389 17.943625,11.4177399 17.6315417,11.4177399 Z M30.3875833,11.4177399 C30.0784167,11.4177399 29.8275833,11.6685722 29.8275833,11.9777375 C29.8305,12.5960683 30.9446667,12.6019016 30.94175,11.9777375 C30.94175,11.6685722 30.6909167,11.4177399 30.3875833,11.4177399 Z M42.1254167,15.0982662 L42.1254167,9.26495718 L47.3695833,9.26495718 L47.3695833,15.0982662 L42.1254167,15.0982662 Z" id="Washing-machine-connection-(standard-fittings)-" fill="url(#linearGradient-1)" fill-rule="nonzero"></path>
    </g>
</svg>