<?xml version="1.0" encoding="utf-8"?>
<!-- Generator: Adobe Illustrator 16.0.0, SVG Export Plug-In . SVG Version: 6.00 Build 0)  -->
<!DOCTYPE svg PUBLIC "-//W3C//DTD SVG 1.1//EN" "http://www.w3.org/Graphics/SVG/1.1/DTD/svg11.dtd">
<svg version="1.1" id="Layer_1" xmlns="http://www.w3.org/2000/svg" xmlns:xlink="http://www.w3.org/1999/xlink" x="0px" y="0px"
	 width="24px" height="24px" viewBox="8 9 24 24" enable-background="new 8 9 24 24" xml:space="preserve">
<title>Group 25</title>
<desc>Created with Sketch.</desc>
<g id="Group-25" transform="translate(257.000000, 191.551724)">
	<path id="Fill-1" fill="#333333" d="M-236.479-168.076c0.059,0.043,0.108,0.101,0.14,0.161c0.057,0.113,0.065,0.241,0.021,0.359
		l-0.246,0.678l0.841-0.981l-0.703-0.199C-236.443-168.062-236.461-168.068-236.479-168.076"/>
	<path id="Fill-3" fill="#333333" d="M-237.244-168.519l0.709,0.204c0.018,0.005,0.036,0.01,0.053,0.02
		c-0.057-0.04-0.101-0.093-0.136-0.149c-0.057-0.105-0.07-0.227-0.035-0.341l0.188-0.652L-237.244-168.519z"/>
	<polygon id="Fill-8" fill="#333333" points="-238.604,-168.076 -237.244,-168.076 -237.244,-172.838 -238.604,-172.838 	"/>
	<polygon id="Fill-9" fill="#333333" points="-234.523,-168.076 -233.162,-168.076 -233.162,-172.838 -234.523,-172.838 	"/>
	<polygon id="Fill-10" fill="#333333" points="-238.604,-172.157 -237.244,-172.157 -237.244,-172.838 -238.604,-172.838 	"/>
	<polygon id="Fill-11" fill="#333333" points="-234.523,-171.609 -233.162,-171.609 -233.162,-172.838 -234.523,-172.838 	"/>
	<polygon id="Fill-12" fill="#333333" points="-238.604,-167.528 -237.244,-167.528 -237.244,-168.757 -238.604,-168.757 	"/>
	<polygon id="Fill-13" fill="#333333" points="-234.523,-167.528 -233.162,-167.528 -233.162,-168.757 -234.523,-168.757 	"/>
	<polygon id="Fill-14" fill="#333333" points="-229.762,-178.278 -225.681,-178.278 -225.681,-179.64 -229.762,-179.64 	"/>
	<polygon id="Fill-15" fill="#333333" points="-246.767,-160.595 -242.686,-160.595 -242.686,-161.955 -246.767,-161.955 	"/>
	<polygon id="Fill-16" fill="#333333" points="-244.045,-160.595 -242.817,-160.595 -242.817,-161.955 -244.045,-161.955 	"/>
	<polygon id="Fill-17" fill="#333333" points="-246.767,-160.595 -245.538,-160.595 -245.538,-161.955 -246.767,-161.955 	"/>
	<polygon id="Fill-18" fill="#333333" points="-226.36,-178.278 -225.131,-178.278 -225.131,-179.64 -226.36,-179.64 	"/>
	<polygon id="Fill-19" fill="#333333" points="-229.762,-178.278 -228.533,-178.278 -228.533,-179.64 -229.762,-179.64 	"/>
	<path id="Fill-20" fill="#333333" d="M-234.183-176.239c0.563,0,1.021,0.457,1.021,1.021c0,0.563-0.457,1.02-1.021,1.02
		s-1.021-0.457-1.021-1.02S-234.746-176.239-234.183-176.239"/>
	<path id="Fill-21" fill="#333333" d="M-238.265-176.239c0.564,0,1.021,0.457,1.021,1.021c0,0.563-0.456,1.02-1.021,1.02
		c-0.563,0-1.02-0.457-1.02-1.02S-238.827-176.239-238.265-176.239"/>
	<path id="Fill-22" fill="none" stroke="#333333" stroke-miterlimit="10" d="M-238.604-162.019c0-1.537,2.72-5.378,2.72-5.378
		s2.722,3.841,2.722,5.378c0,1.538-1.219,2.784-2.722,2.784S-238.604-160.48-238.604-162.019"/>
	<path id="Fill-23" fill="#333333" d="M-229.193-179.083h3.478v-0.433h-3.478V-179.083z M-228.432-180.237h2.048v-0.721h-2.048
		V-180.237z M-234.151-168.313h0.429v-3.895h-0.429V-168.313z M-237.2-169.181h2.335v-2.162h-2.335V-169.181z M-238.344-168.313
		h0.428v-3.895h-0.428V-168.313z M-245.969-159.275h2.049v-0.722h-2.049V-159.275z M-246.731-160.718h3.479v-0.433h-3.479V-160.718z
		 M-238.035-174.371c-0.328,0-0.596-0.271-0.596-0.602s0.268-0.602,0.596-0.602c0.329,0,0.597,0.271,0.597,0.602
		S-237.706-174.371-238.035-174.371L-238.035-174.371z M-234.031-175.574c0.328,0,0.595,0.271,0.595,0.602s-0.267,0.602-0.595,0.602
		c-0.329,0-0.597-0.271-0.597-0.602S-234.36-175.574-234.031-175.574L-234.031-175.574z M-225.668-180.237v-1.082
		c0-0.199-0.16-0.361-0.357-0.361h-2.764c-0.197,0-0.357,0.162-0.357,0.361v1.082h-0.405c-0.197,0-0.358,0.161-0.358,0.36v1.154
		c0,0.199,0.161,0.361,0.358,0.361h0.405v1.08c0,0.2,0.16,0.361,0.357,0.361s0.357-0.16,0.357-0.361v-1.08h2.049v5.216
		c0,2.188-1.765,3.966-3.932,3.966h-2.692v-2.163h2.788c0.985,0,1.787-0.807,1.787-1.803v-2.211c0-0.199-0.16-0.36-0.357-0.36
		s-0.357,0.16-0.357,0.36v2.211c0,0.597-0.481,1.082-1.072,1.082h-2.788v-0.505c0-0.199-0.161-0.361-0.358-0.361h-1.143
		c-0.198,0-0.358,0.162-0.358,0.361v0.505h-0.811v-2.548h0.385c0.156,0.555,0.661,0.962,1.261,0.962
		c0.722,0,1.311-0.593,1.311-1.322s-0.589-1.321-1.311-1.321c-0.6,0-1.104,0.406-1.261,0.96h-1.482
		c-0.156-0.554-0.662-0.96-1.261-0.96c-0.723,0-1.31,0.592-1.31,1.321s0.587,1.322,1.31,1.322c0.599,0,1.104-0.407,1.261-0.962
		h0.385v2.548h-0.811v-0.505c0-0.199-0.161-0.361-0.358-0.361h-1.143c-0.197,0-0.358,0.162-0.358,0.361v0.505h-2.979
		c-2.563,0-4.646,2.103-4.646,4.688v1.635c0,0.199,0.159,0.359,0.356,0.359c0.196,0,0.357-0.16,0.357-0.359v-1.635
		c0-2.188,1.764-3.967,3.932-3.967h2.979v2.163h-3.073c-0.986,0-1.787,0.808-1.787,1.804v5.505h-2.05v-1.947
		c0-0.2-0.161-0.36-0.357-0.36c-0.197,0-0.356,0.16-0.356,0.36v1.947h-0.405c-0.197,0-0.357,0.161-0.357,0.36v1.154
		c0,0.199,0.16,0.36,0.357,0.36h0.405v1.083c0,0.198,0.159,0.36,0.356,0.36h2.765c0.198,0,0.356-0.162,0.356-0.36v-1.083h0.311
		c0.197,0,0.358-0.161,0.358-0.36v-1.154c0-0.199-0.161-0.36-0.358-0.36h-0.311v-5.505c0-0.597,0.481-1.082,1.073-1.082h3.073v0.504
		c0,0.199,0.161,0.361,0.358,0.361h1.143c0.197,0,0.358-0.162,0.358-0.361v-0.504h2.335v0.504c0,0.199,0.16,0.361,0.357,0.361h1.144
		c0.197,0,0.357-0.162,0.357-0.361v-0.504h2.693c2.562,0,4.646-2.103,4.646-4.688v-5.216h0.311c0.197,0,0.357-0.162,0.357-0.361
		v-1.154c0-0.199-0.16-0.36-0.357-0.36H-225.668z"/>
</g>
</svg>
