<?xml version="1.0" encoding="utf-8"?>
<!-- Generator: Adobe Illustrator 16.0.0, SVG Export Plug-In . SVG Version: 6.00 Build 0)  -->
<!DOCTYPE svg PUBLIC "-//W3C//DTD SVG 1.1//EN" "http://www.w3.org/Graphics/SVG/1.1/DTD/svg11.dtd">
<svg version="1.1" id="Layer_1" xmlns="http://www.w3.org/2000/svg" xmlns:xlink="http://www.w3.org/1999/xlink" x="0px" y="0px"
	 width="24px" height="24px" viewBox="12.5 36.5 24 24" enable-background="new 12.5 36.5 24 24" xml:space="preserve">
<g>
	<g>
		<path d="M36.337,57.094c-0.97-2.389-3.212-4.049-5.763-4.289c-0.563-1.031-1.381-1.902-2.378-2.533
			c-0.97-0.615-2.074-0.975-3.218-1.053v-2.633h1.897c3.808,0,6.905-3.098,6.905-6.904v-2.376c0-0.265-0.215-0.479-0.479-0.479
			h-2.376c-2.917,0-5.417,1.817-6.427,4.38c-1.01-2.563-3.51-4.38-6.427-4.38h-2.376c-0.264,0-0.479,0.214-0.479,0.479v2.376
			c0,3.807,3.098,6.904,6.905,6.904h1.897v2.633c-1.144,0.078-2.248,0.438-3.218,1.053c-0.997,0.631-1.814,1.502-2.378,2.533
			c-2.551,0.24-4.793,1.9-5.763,4.289c-0.279,0.687-0.197,1.465,0.219,2.082c0.421,0.624,1.12,0.997,1.872,0.997h19.492
			c0.752,0,1.451-0.373,1.872-0.997C36.533,58.559,36.615,57.78,36.337,57.094z M24.979,43.732c0-3.28,2.668-5.949,5.948-5.949
			h1.897v1.898c0,3.279-2.668,5.948-5.948,5.948h-1.222l5.212-5.212c0.187-0.187,0.187-0.489,0-0.676
			c-0.187-0.188-0.489-0.188-0.677,0l-5.211,5.211V43.732z M18.134,40.418l5.212,5.212h-1.222c-3.28,0-5.948-2.669-5.948-5.948
			v-1.898h1.897c3.28,0,5.948,2.669,5.948,5.949v1.221l-5.211-5.211c-0.188-0.188-0.49-0.187-0.677,0S17.947,40.231,18.134,40.418z
			 M35.324,58.641c-0.246,0.366-0.639,0.576-1.078,0.576H14.754c-0.439,0-0.832-0.21-1.078-0.576
			c-0.242-0.357-0.287-0.791-0.127-1.188c0.865-2.133,2.908-3.59,5.203-3.714c0.172-0.009,0.326-0.11,0.402-0.265
			c1.016-2.046,3.064-3.316,5.346-3.316c2.016,0,3.848,0.992,4.947,2.633c-0.495,0.033-0.984,0.119-1.46,0.258
			c-0.253,0.073-0.399,0.338-0.325,0.592c0.061,0.209,0.251,0.345,0.459,0.345c0.043,0,0.089-0.006,0.133-0.019
			c0.539-0.157,1.101-0.236,1.668-0.236l0.326,0.009c2.295,0.124,4.338,1.581,5.203,3.714C35.611,57.85,35.566,58.283,35.324,58.641
			z"/>
	</g>
</g>
<g>
	<g>
		<path d="M26.843,54.014c-0.143-0.222-0.438-0.286-0.661-0.143c-0.078,0.051-0.157,0.104-0.234,0.157
			c-0.216,0.151-0.268,0.45-0.116,0.666c0.093,0.133,0.241,0.204,0.392,0.204c0.096,0,0.191-0.029,0.274-0.088
			c0.066-0.047,0.134-0.092,0.202-0.136C26.922,54.532,26.986,54.236,26.843,54.014z"/>
	</g>
</g>
</svg>
