<?xml version="1.0" encoding="utf-8"?>
<!-- Generator: Adobe Illustrator 16.0.0, SVG Export Plug-In . SVG Version: 6.00 Build 0)  -->
<!DOCTYPE svg PUBLIC "-//W3C//DTD SVG 1.1//EN" "http://www.w3.org/Graphics/SVG/1.1/DTD/svg11.dtd">
<svg version="1.1" id="Layer_1" xmlns="http://www.w3.org/2000/svg" xmlns:xlink="http://www.w3.org/1999/xlink" x="0px" y="0px"
	 width="24px" height="24px" viewBox="244 244 24 24" enable-background="new 244 244 24 24" xml:space="preserve">
<path fill="#99BE48" stroke="#99BF48" stroke-miterlimit="10" d="M256,264.078c-4.454,0-8.078-3.623-8.078-8.078
	c0-4.454,3.624-8.078,8.078-8.078c4.455,0,8.078,3.624,8.078,8.078C264.078,260.455,260.455,264.078,256,264.078z M256,248.729
	c-4.009,0-7.271,3.262-7.271,7.271c0,4.008,3.262,7.27,7.271,7.27c4.008,0,7.27-3.262,7.27-7.27
	C263.27,251.991,260.008,248.729,256,248.729z"/>
<path fill="#99BE48" d="M256,268.117c-0.223,0-0.404-0.181-0.404-0.404v-2.423c0-0.224,0.181-0.404,0.404-0.404
	s0.404,0.181,0.404,0.404v2.423C256.404,267.937,256.223,268.117,256,268.117z"/>
<path fill="#99BE48" d="M256,247.114c-0.223,0-0.404-0.181-0.404-0.403v-2.424c0-0.223,0.181-0.404,0.404-0.404
	s0.404,0.181,0.404,0.404v2.424C256.404,246.933,256.223,247.114,256,247.114z"/>
<path fill="#99BE48" d="M246.71,256.404h-2.424c-0.223,0-0.404-0.181-0.404-0.404s0.181-0.404,0.404-0.404h2.424
	c0.223,0,0.403,0.181,0.403,0.404S246.933,256.404,246.71,256.404z"/>
<path fill="#99BE48" d="M267.713,256.404h-2.423c-0.224,0-0.404-0.181-0.404-0.404s0.181-0.404,0.404-0.404h2.423
	c0.224,0,0.404,0.181,0.404,0.404S267.937,256.404,267.713,256.404z"/>
<path fill="#99BE48" stroke="#99BF48" stroke-miterlimit="10" d="M253.98,262.059c-0.062,0-0.125-0.014-0.183-0.044
	c-0.165-0.084-0.251-0.271-0.21-0.451l1.098-4.756h-1.916c-0.159,0-0.302-0.092-0.368-0.235c-0.065-0.144-0.041-0.313,0.063-0.433
	l5.25-6.059c0.122-0.14,0.323-0.18,0.488-0.096c0.166,0.084,0.253,0.27,0.211,0.452l-1.098,4.755h1.916
	c0.158,0,0.302,0.093,0.367,0.236c0.066,0.144,0.042,0.313-0.062,0.432l-5.251,6.059C254.207,262.01,254.095,262.059,253.98,262.059
	z M253.653,256h1.539c0.124,0,0.24,0.056,0.316,0.152c0.077,0.096,0.105,0.222,0.078,0.342l-0.847,3.667l3.606-4.162h-1.538
	c-0.123,0-0.239-0.056-0.316-0.152s-0.105-0.222-0.078-0.342l0.847-3.667L253.653,256z"/>
<path fill="#99BE48" d="M264.282,264.687c-0.104,0-0.207-0.04-0.285-0.118l-1.714-1.714c-0.158-0.158-0.158-0.413,0-0.571
	s0.413-0.158,0.571,0l1.714,1.714c0.158,0.158,0.158,0.413,0,0.571C264.49,264.646,264.386,264.687,264.282,264.687z"/>
<path fill="#99BE48" d="M249.432,249.835c-0.104,0-0.207-0.04-0.286-0.118l-1.714-1.714c-0.158-0.158-0.158-0.413,0-0.571
	c0.158-0.158,0.414-0.158,0.571,0l1.714,1.714c0.158,0.157,0.158,0.413,0,0.571C249.638,249.795,249.534,249.835,249.432,249.835z"
	/>
<path fill="#99BE48" d="M247.717,264.687c-0.103,0-0.207-0.04-0.286-0.118c-0.158-0.158-0.158-0.413,0-0.571l1.714-1.714
	c0.158-0.158,0.414-0.158,0.571,0s0.158,0.413,0,0.571l-1.714,1.714C247.924,264.646,247.821,264.687,247.717,264.687z"/>
<path fill="#99BE48" d="M262.569,249.835c-0.104,0-0.207-0.04-0.286-0.118c-0.158-0.158-0.158-0.414,0-0.571l1.714-1.714
	c0.158-0.158,0.413-0.158,0.571,0c0.158,0.158,0.158,0.414,0,0.571l-1.714,1.714C262.776,249.795,262.673,249.835,262.569,249.835z"
	/>
</svg>
