<?xml version="1.0" encoding="utf-8"?>
<!-- Generator: Adobe Illustrator 16.0.0, SVG Export Plug-In . SVG Version: 6.00 Build 0)  -->
<!DOCTYPE svg PUBLIC "-//W3C//DTD SVG 1.1//EN" "http://www.w3.org/Graphics/SVG/1.1/DTD/svg11.dtd">
<svg version="1.1" id="Layer_1" xmlns="http://www.w3.org/2000/svg" xmlns:xlink="http://www.w3.org/1999/xlink" x="0px" y="0px"
	 width="24px" height="24px" viewBox="0 0 24 24" enable-background="new 0 0 24 24" xml:space="preserve">
<path fill="#333333" d="M22.798,23.023l-1.502-2.527l-0.846-3.968c-0.012-0.059-0.043-0.111-0.088-0.15l-2.058-1.813
	c-0.201-0.869-0.525-1.741-0.951-2.558h0.744l1.979,1.979c0.052,0.053,0.122,0.081,0.196,0.081h1.314
	c0.153,0,0.277-0.123,0.277-0.277c0-0.152-0.124-0.277-0.277-0.277h-1.2l-1.979-1.979c-0.052-0.052-0.122-0.081-0.196-0.081h-1.169
	c-0.111-0.188-0.229-0.372-0.354-0.551c-0.091-0.133-0.185-0.261-0.278-0.385c0.002-0.002,0.005-0.004,0.007-0.007l2.551-3.13h1.533
	c0.153,0,0.277-0.125,0.277-0.277c0-0.153-0.124-0.277-0.277-0.277h-1.664c-0.084,0-0.163,0.038-0.216,0.102l-2.568,3.15
	c-0.48-0.555-0.993-1.005-1.521-1.336c0.013-0.081,0.019-0.162,0.019-0.242c0-0.719-0.484-1.341-1.188-1.637l0.851-1.973
	c0.016-0.035,0.023-0.072,0.023-0.11v-2.6l0.973-1.503c0.083-0.129,0.046-0.301-0.082-0.384c-0.13-0.083-0.301-0.047-0.384,0.082
	l-1.018,1.572c-0.028,0.045-0.044,0.097-0.044,0.151v2.625L12.825,6.71c-0.124-0.02-0.252-0.031-0.383-0.031
	s-0.258,0.011-0.383,0.031l-0.857-1.987V2.099c0-0.054-0.016-0.106-0.044-0.151l-1.017-1.572c-0.084-0.129-0.255-0.166-0.384-0.082
	C9.628,0.377,9.591,0.549,9.674,0.678l0.973,1.503v2.6c0,0.038,0.008,0.075,0.023,0.11l0.851,1.973
	c-0.703,0.295-1.188,0.918-1.188,1.637c0,0.081,0.006,0.162,0.019,0.242C9.814,9.08,9.29,9.541,8.8,10.112L6.205,6.928
	C6.152,6.863,6.073,6.826,5.99,6.826H4.326c-0.153,0-0.277,0.124-0.277,0.277c0,0.153,0.124,0.277,0.277,0.277h1.533l2.551,3.13
	c0.012,0.015,0.026,0.027,0.04,0.039c-0.086,0.114-0.171,0.232-0.255,0.353c-0.123,0.179-0.241,0.363-0.354,0.551H6.615
	c-0.073,0-0.144,0.029-0.196,0.081l-1.979,1.979H3.24c-0.153,0-0.277,0.125-0.277,0.277c0,0.154,0.125,0.277,0.277,0.277h1.314
	c0.073,0,0.145-0.028,0.196-0.081l1.979-1.979h0.8c-0.415,0.797-0.733,1.646-0.936,2.494l-2.129,1.876
	c-0.044,0.039-0.075,0.092-0.088,0.15l-0.846,3.968l-1.502,2.527c-0.078,0.131-0.035,0.302,0.097,0.38
	c0.044,0.026,0.093,0.039,0.142,0.039c0.095,0,0.187-0.049,0.239-0.136l1.526-2.566c0.015-0.026,0.026-0.054,0.033-0.084
	l0.836-3.923l1.523-1.342c-0.056,0.398-0.086,0.792-0.086,1.174c0,1.881,0.626,3.422,1.812,4.459
	c1.074,0.938,2.559,1.437,4.292,1.437s3.219-0.498,4.293-1.437c1.185-1.037,1.812-2.578,1.812-4.459
	c0-0.363-0.027-0.738-0.079-1.117l1.458,1.285l0.837,3.923c0.007,0.03,0.018,0.058,0.033,0.084l1.525,2.566
	c0.052,0.087,0.145,0.136,0.239,0.136c0.048,0,0.097-0.013,0.142-0.039C22.833,23.325,22.877,23.154,22.798,23.023z M11.972,9.103
	c0.159-0.033,0.316-0.05,0.47-0.05c0.154,0,0.311,0.018,0.47,0.05c0.765,0.574,1.575,2.375,1.575,4.153
	c0,1.769-0.765,2.824-2.045,2.824s-2.045-1.056-2.045-2.824C10.396,11.477,11.208,9.677,11.972,9.103z M10.161,10.721
	c-0.288,0.805-0.458,1.704-0.458,2.535c0,2.593,1.416,3.518,2.739,3.518c1.325,0,2.739-0.925,2.739-3.518
	c0-0.832-0.17-1.73-0.458-2.535c0.699,1.141,1.19,2.661,1.19,4.079c0,2.423-1.298,3.869-3.471,3.869S8.971,17.223,8.971,14.8
	C8.971,13.382,9.463,11.861,10.161,10.721z M11.047,8.304c0.117-0.528,0.698-0.931,1.395-0.931s1.277,0.403,1.394,0.931
	c-0.145-0.034-0.295-0.062-0.449-0.084c-0.316-0.091-0.633-0.138-0.945-0.138c-0.313,0-0.628,0.047-0.945,0.138
	C11.343,8.242,11.192,8.271,11.047,8.304z M12.442,21.49c-3.214,0-5.133-1.842-5.133-4.925c0-1.669,0.63-3.58,1.685-5.112
	c0.015-0.021,0.029-0.042,0.044-0.063c-0.475,1.085-0.76,2.304-0.76,3.41c0,3.364,2.151,4.563,4.165,4.563s4.165-1.198,4.165-4.563
	c0-1.105-0.284-2.324-0.76-3.41c0.015,0.021,0.029,0.042,0.044,0.063c1.056,1.532,1.686,3.443,1.686,5.112
	C17.576,19.648,15.656,21.49,12.442,21.49z"/>
</svg>
