<?xml version="1.0" encoding="UTF-8"?>
<svg width="71px" height="71px" viewBox="0 0 71 71" version="1.1" xmlns="http://www.w3.org/2000/svg" xmlns:xlink="http://www.w3.org/1999/xlink">
    <!-- Generator: Sketch 53 (72520) - https://sketchapp.com -->
    <title>Tube Light</title>
    <desc>Created with Sketch.</desc>
    <defs>
        <linearGradient x1="5.63673899%" y1="-11.1485635%" x2="51.5179728%" y2="97.7255544%" id="linearGradient-1">
            <stop stop-color="#64C866" offset="0%"></stop>
            <stop stop-color="#6EDADA" offset="100%"></stop>
        </linearGradient>
    </defs>
    <g id="Page-1" stroke="none" stroke-width="1" fill="none" fill-rule="evenodd">
        <path d="M2.91939091,40.6342539 C1.31066364,40.6342539 0.0103,38.8405422 0.0103,36.6304331 L0.0103,33.795728 C0.0103,31.5816151 1.31066364,29.7919072 2.91939091,29.7919072 C4.52811818,29.7919072 5.82848182,31.5816151 5.82848182,33.795728 L5.82848182,36.6304331 C5.82848182,38.8405422 4.52811818,40.6342539 2.91939091,40.6342539 Z M67.1012091,40.6342539 C65.4924818,40.6342539 64.1921182,38.8405422 64.1921182,36.6304331 L64.1921182,33.795728 C64.1921182,31.5816151 65.4924818,29.7919072 67.1012091,29.7919072 C68.7099364,29.7919072 70.0103,31.5816151 70.0103,33.795728 L70.0103,36.6304331 C70.0103,38.8405422 68.7099364,40.6342539 67.1012091,40.6342539 Z M58.5454545,39.0076416 L10.9090909,39.0076416 C9.30036364,39.0076416 8,37.2139299 8,35.0038208 C8,32.7937117 9.30036364,31 10.9090909,31 L58.5454545,31 C60.1541818,31 61.4545455,32.7937117 61.4545455,35.0038208 C61.4545455,37.2139299 60.1541818,39.0076416 58.5454545,39.0076416 Z M15.5131364,23.52833 C14.6345909,23.52833 13.7676818,22.9838104 13.1945909,21.9468208 L8.5575,13.5668239 C7.58586364,11.8051427 7.83313636,9.29474709 9.11313636,7.95346713 C10.3902273,6.61619098 12.2113182,6.95651575 13.1887727,8.7181969 L17.8258636,17.1021976 C18.7975,18.859875 18.5502273,21.3702706 17.2702273,22.7115506 C16.7465909,23.2640778 16.1269545,23.52833 15.5131364,23.52833 Z M54.5074636,23.52833 C53.8936455,23.52833 53.2740091,23.2640778 52.7503727,22.7115506 C51.4703727,21.3702706 51.2231,18.859875 52.1947364,17.1021976 L56.8318273,8.7181969 C57.8063727,6.95651575 59.6332818,6.61619098 60.9074636,7.95346713 C62.1874636,9.29474709 62.4347364,11.8051427 61.4631,13.5668239 L56.8260091,21.9468208 C56.2529182,22.9838104 55.3860091,23.52833 54.5074636,23.52833 Z M34.0556818,19.33673 C32.4469545,19.33673 31.1465909,17.5430183 31.1465909,15.3329092 L31.1465909,4.51058163 C31.1465909,2.30047255 32.4469545,0.50676084 34.0556818,0.50676084 C35.6644091,0.50676084 36.9647727,2.30047255 36.9647727,4.51058163 L36.9647727,15.3329092 C36.9647727,17.5430183 35.6644091,19.33673 34.0556818,19.33673 Z M10.8711,63.8752325 C10.2572818,63.8752325 9.63764545,63.6109803 9.11400909,63.058453 C7.83400909,61.7171731 7.58673636,59.2067774 8.55837273,57.4491001 L13.1954636,49.0650994 C14.1700091,47.2994144 15.9969182,46.9590896 17.2711,48.3003696 C18.5511,49.6416496 18.7983727,52.1520452 17.8267364,53.9137263 L13.1896455,62.2937233 C12.6165545,63.3307128 11.7496455,63.8752325 10.8711,63.8752325 Z M59.1495,63.8752325 C58.2709545,63.8752325 57.4040455,63.3307128 56.8309545,62.2937233 L52.1938636,53.9137263 C51.2222273,52.1520452 51.4695,49.6416496 52.7495,48.3003696 C54.0265909,46.9590896 55.8505909,47.2994144 56.8251364,49.0650994 L61.4622273,57.4491001 C62.4338636,59.2067774 62.1865909,61.7171731 60.9065909,63.058453 C60.3829545,63.6109803 59.7633182,63.8752325 59.1495,63.8752325 Z M34.0556818,70.5067608 C32.4469545,70.5067608 31.1465909,68.7170529 31.1465909,66.5029401 L31.1465909,55.6806125 C31.1465909,53.4664996 32.4469545,51.6767917 34.0556818,51.6767917 C35.6644091,51.6767917 36.9647727,53.4664996 36.9647727,55.6806125 L36.9647727,66.5029401 C36.9647727,68.7170529 35.6644091,70.5067608 34.0556818,70.5067608 Z" id="Tube-Light" fill="url(#linearGradient-1)" fill-rule="nonzero"></path>
    </g>
</svg>