<?xml version="1.0" encoding="UTF-8"?>
<svg width="48px" height="70px" viewBox="0 0 48 70" version="1.1" xmlns="http://www.w3.org/2000/svg" xmlns:xlink="http://www.w3.org/1999/xlink">
    <!-- Generator: Sketch 53 (72520) - https://sketchapp.com -->
    <title>Gas refilling for window/Split AC -till 5 Mtr pipe</title>
    <desc>Created with Sketch.</desc>
    <defs>
        <linearGradient x1="29.1402136%" y1="-11.1485635%" x2="50.713757%" y2="97.7255544%" id="linearGradient-1">
            <stop stop-color="#64C866" offset="0%"></stop>
            <stop stop-color="#6EDADA" offset="100%"></stop>
        </linearGradient>
    </defs>
    <g id="Page-1" stroke="none" stroke-width="1" fill="none" fill-rule="evenodd">
        <path d="M27.2208037,11.7339856 L32.5864564,11.7339856 L32.5864564,5.75430674 L15.4135436,5.75430674 L15.4135436,11.7339856 L20.7820204,11.7339856 C19.9037477,11.2481184 19.3050538,10.2910186 19.3050538,9.19050008 C19.3050538,7.6041144 20.5504501,6.31334671 22.0810731,6.31334671 L25.9217509,6.31334671 C27.4523739,6.31334671 28.6977702,7.6041144 28.6977702,9.19050008 C28.6977702,10.2910186 28.0990763,11.2481184 27.2208037,11.7339856 Z M11.9173972,17.4882924 C8.40713067,17.4882924 5.5520386,20.4473992 5.5520386,24.0826225 L5.5520386,49.5818699 C5.5520386,53.2170932 8.40713067,56.1762 11.9173972,56.1762 L36.0882509,56.1762 C39.5956934,56.1762 42.4507854,53.2170932 42.4507854,49.5818699 L42.4507854,24.0826225 C42.4507854,20.4473992 39.5956934,17.4882924 36.0882509,17.4882924 L11.9173972,17.4882924 Z M13.1317291,64.2456933 L34.8682709,64.2456933 L34.8682709,61.9275799 L13.1317291,61.9275799 L13.1317291,64.2456933 Z M37.6442902,70 L10.3557098,70 C8.82508678,70 7.57969053,68.7092323 7.57969053,67.1228466 L7.57969053,61.0817026 C3.02170971,59.2348219 0,54.6922562 0,49.5818699 L0,24.0826225 C0,18.0326978 4.18803318,12.936946 9.864329,11.918381 L9.864329,5.70747617 C8.56810025,5.46454257 7.57969053,4.2879244 7.57969053,2.87715337 C7.57969053,1.29076769 8.82508678,0 10.3557098,0 L37.6442902,0 C39.1749132,0 40.4203095,1.29076769 40.4203095,2.87715337 C40.4203095,4.2879244 39.4375478,5.46454257 38.1413191,5.70747617 L38.1413191,11.918381 C43.8119668,12.936946 48,18.0326978 48,24.0826225 L48,49.5818699 C48,54.6922562 44.9811143,59.2348219 40.4203095,61.0817026 L40.4203095,67.1228466 C40.4203095,68.7092323 39.1749132,70 37.6442902,70 Z" id="Gas-refilling-for-window/Split-AC--till-5-Mtr-pipe" fill="url(#linearGradient-1)" fill-rule="nonzero"></path>
    </g>
</svg>