<?xml version="1.0" encoding="UTF-8"?>
<svg width="38px" height="40px" viewBox="0 0 38 40" version="1.1" xmlns="http://www.w3.org/2000/svg" xmlns:xlink="http://www.w3.org/1999/xlink">
    <!-- Generator: Sketch 53 (72520) - https://sketchapp.com -->
    <title>Group 57</title>
    <desc>Created with Sketch.</desc>
    <defs>
        <polygon id="path-1" points="0 39.7815354 37.7668 39.7815354 37.7668 0.000121212121 0 0.000121212121"></polygon>
    </defs>
    <g id="Page-1" stroke="none" stroke-width="1" fill="none" fill-rule="evenodd">
        <g id="5--UI-v4" transform="translate(-287.000000, -304.000000)">
            <g id="Group-57" transform="translate(287.000000, 304.000000)">
                <path d="M13.56932,12.1292929 L15.10132,11.9373737 C15.00492,13.1846465 14.05092,14.2371717 12.77452,14.3971717 L11.24252,14.5890909 C11.33812,13.3418182 12.29292,12.2892929 13.56932,12.1292929 Z" id="Stroke-1" stroke="#FFFFFF" stroke-width="0.8"></path>
                <path d="M15.30664,5.86529293 C15.06424,7.06650505 14.02584,7.97357576 12.77424,8.00993939 C13.05984,7.59943434 13.23024,7.10246465 13.23024,6.56387879 C13.23024,6.35418182 13.19584,6.14771717 13.14504,5.94610101 C13.34704,5.89680808 13.55304,5.86529293 13.76264,5.86529293 L15.30664,5.86529293 Z" id="Stroke-3" stroke="#FFFFFF" stroke-width="0.8"></path>
                <path d="M8.80216,6.00949495 L10.08416,4.39050505 L11.36656,6.00989899 C11.56976,6.26606061 11.68176,6.58888889 11.68176,6.91777778 C11.68176,7.71858586 11.03616,8.37070707 10.24336,8.37070707 L9.92496,8.37070707 C9.13176,8.37070707 8.48656,7.71858586 8.48656,6.91777778 C8.48656,6.58888889 8.59816,6.26606061 8.80216,6.00949495 Z" id="Stroke-5" stroke="#FFFFFF" stroke-width="0.8"></path>
                <path d="M4.94588,5.71377778 L6.48948,5.71377778 C6.69948,5.71377778 6.90548,5.74529293 7.10788,5.79458586 C7.05668,5.99620202 7.02228,6.20266667 7.02228,6.41236364 C7.02228,6.95094949 7.19268,7.44791919 7.47748,7.85842424 C6.22668,7.82206061 5.18828,6.9149899 4.94588,5.71377778 Z" id="Stroke-7" stroke="#FFFFFF" stroke-width="0.8"></path>
                <path d="M7.75392,17.3149495 C6.46792,17.3149495 5.39192,16.3888889 5.14512,15.1634343 L6.68872,15.1634343 C7.97512,15.1634343 9.05072,16.0890909 9.29752,17.3149495 L7.75392,17.3149495 Z" id="Stroke-9" stroke="#FFFFFF" stroke-width="0.8"></path>
                <polygon id="Stroke-11" stroke="#FFFFFF" stroke-width="0.8" stroke-linejoin="round" points="5.88652 20.3115152 3.88372 22.1745455 7.88892 22.1745455"></polygon>
                <polygon id="Stroke-13" stroke="#FFFFFF" stroke-width="0.8" stroke-linejoin="round" points="7.88908 39.3775758 3.89348 39.3775758 3.88508 22.1743434 7.88908 22.1743434"></polygon>
                <polygon id="Stroke-15" stroke="#FFFFFF" stroke-width="0.8" stroke-linejoin="round" points="12.0418 20.3115152 10.039 22.1745455 14.0446 22.1745455"></polygon>
                <polyline id="Stroke-17" stroke="#FFFFFF" stroke-width="0.8" stroke-linejoin="round" points="14.04452 39.3775758 10.04852 39.3775758 10.04052 22.1743434 14.04452 22.1743434 14.04452 33.6628283"></polyline>
                <polygon id="Stroke-19" stroke="#FFFFFF" stroke-width="0.8" stroke-linejoin="round" points="18.19708 20.3115152 16.19468 22.1745455 20.19988 22.1745455"></polygon>
                <polyline id="Stroke-21" stroke="#FFFFFF" stroke-width="0.8" stroke-linejoin="round" points="16.2004 31.6199192 16.196 22.1746667 20.2 22.1746667 20.2 30.9686061"></polyline>
                <mask id="mask-2" fill="white">
                    <use xlink:href="#path-1"></use>
                </mask>
                <g id="Clip-24"></g>
                <polygon id="Stroke-23" stroke="#FFFFFF" stroke-width="0.8" mask="url(#mask-2)" points="1.314 34.2449697 3.8936 34.2449697 3.8936 31.5803232 1.314 31.5803232"></polygon>
                <polygon id="Stroke-25" stroke="#FFFFFF" stroke-width="0.8" mask="url(#mask-2)" points="7.8896 34.2449697 10.046 34.2449697 10.046 31.5803232 7.8896 31.5803232"></polygon>
                <path d="M15.79356,39.3769697 C14.07756,39.3769697 12.68676,37.9717172 12.68676,36.2387879 C12.68676,34.5054545 14.07756,33.100202 15.79356,33.100202 C17.50956,33.100202 18.90076,34.5054545 18.90076,36.2387879" id="Stroke-26" stroke="#FFFFFF" stroke-width="0.8" mask="url(#mask-2)"></path>
                <path d="M15.55916,33.6332121 C15.55916,31.8998788 16.95036,30.4946263 18.66636,30.4946263 C20.38196,30.4946263 21.77316,31.8998788 21.77316,33.6332121" id="Stroke-27" stroke="#FFFFFF" stroke-width="0.8" mask="url(#mask-2)"></path>
                <path d="M20.70352,31.2865051 C21.16112,30.1285253 22.28112,29.3103434 23.59032,29.3103434 C24.17512,29.3103434 24.72192,29.4735758 25.18912,29.7572121" id="Stroke-28" stroke="#FFFFFF" stroke-width="0.8" mask="url(#mask-2)"></path>
                <path d="M24.82148,31.0278384 C24.82148,29.2945051 26.21268,27.8892525 27.92868,27.8892525 C29.13548,27.8892525 30.18148,28.5846061 30.69628,29.6003636" id="Stroke-29" stroke="#FFFFFF" stroke-width="0.8" mask="url(#mask-2)"></path>
                <path d="M29.27676,32.2713535 C29.27676,30.5380202 30.66796,29.1327677 32.38396,29.1327677 C34.09956,29.1327677 35.49076,30.5380202 35.49076,32.2713535 C35.49076,32.596202 35.44196,32.9097374 35.35116,33.2046869" id="Stroke-30" stroke="#FFFFFF" stroke-width="0.8" mask="url(#mask-2)"></path>
                <path d="M35.36544,33.1863434 C36.53544,33.6364444 37.36664,34.7802828 37.36664,36.1200808 C37.36664,37.8534141 35.97584,39.3766465 34.25984,39.3766465" id="Stroke-31" stroke="#FFFFFF" stroke-width="0.8" mask="url(#mask-2)"></path>
                <polyline id="Stroke-32" stroke="#FFFFFF" stroke-width="0.8" mask="url(#mask-2)" points="34.25976 39.3769697 15.79336 39.3769697 2.14416 39.3769697"></polyline>
                <path d="M37.30568,17.7045657 C37.30568,20.0920404 35.39208,22.0245657 33.02848,22.0245657 C30.66488,22.0245657 28.75168,20.0920404 28.75168,17.7045657 C28.75168,17.1029495 28.87328,16.5344646 29.09408,16.0132525 C28.92488,15.9187071 28.76568,15.8096162 28.61088,15.6912323 C28.45608,15.8144646 28.29688,15.9328485 28.12288,16.0322424 C28.33888,16.5437576 28.45608,17.1122424 28.45608,17.7045657 C28.45608,20.0920404 26.53808,22.0245657 24.17408,22.0245657 C21.81528,22.0245657 19.89728,20.0920404 19.89728,17.7045657 C19.89728,16.1223434 20.73688,14.7437576 21.98888,13.9906263 C21.77288,13.4742626 21.65568,12.9106263 21.65568,12.3134545 C21.65568,10.3001212 23.02528,8.60436364 24.87768,8.1259798 C24.57768,7.53406061 24.40888,6.86577778 24.40888,6.15547475 C24.40888,3.77244444 26.32688,1.83507071 28.69048,1.83507071 C31.05448,1.83507071 32.97248,3.77244444 32.97248,6.15547475 C32.97248,6.87062626 32.80368,7.54335354 32.49848,8.13527273 C34.23408,8.68961616 35.49088,10.3239596 35.49088,12.2568889 C35.49088,12.8585051 35.36888,13.4314343 35.14848,13.9526465 C36.43808,14.6964848 37.30568,16.0985051 37.30568,17.7045657 Z" id="Stroke-33" stroke="#FFFFFF" stroke-width="0.8" mask="url(#mask-2)"></path>
                <polyline id="Stroke-34" stroke="#FFFFFF" stroke-width="0.8" mask="url(#mask-2)" points="26.93184 5.70371717 28.61224 6.92755556 28.61224 28.0079596"></polyline>
                <polyline id="Stroke-35" stroke="#FFFFFF" stroke-width="0.8" mask="url(#mask-2)" points="24.58692 12.1778182 25.48612 13.7568081 28.49532 16.2044848"></polyline>
                <path d="M30.41016,8.15123232 L28.69056,9.33547475" id="Stroke-36" stroke="#FFFFFF" stroke-width="0.8" mask="url(#mask-2)"></path>
                <path d="M31.66076,11.3093737 L28.65156,13.7962424" id="Stroke-37" stroke="#FFFFFF" stroke-width="0.8" mask="url(#mask-2)"></path>
                <polyline id="Stroke-38" stroke="#FFFFFF" stroke-width="0.8" mask="url(#mask-2)" points="34.74824 17.4676364 32.40344 16.3621818 28.76864 18.8490505"></polyline>
                <path d="M23.72716,15.5332525 L25.48596,13.7570909" id="Stroke-39" stroke="#FFFFFF" stroke-width="0.8" mask="url(#mask-2)"></path>
                <path d="M31.73888,14.3489697 L30.01928,12.5728081" id="Stroke-40" stroke="#FFFFFF" stroke-width="0.8" mask="url(#mask-2)"></path>
                <path d="M3.83456,14.2404444 L6.23816,14.2404444 C6.23816,14.2404444 7.13736,14.3050909 7.58656,14.4182222 C9.22376,14.8303434 9.86336,16.2004444 10.04696,17.8945859 C10.04736,17.9006465 10.04816,17.906303 10.04856,17.9115556 C10.10736,18.4743838 6.47256,18.2966061 5.50536,17.4974141 C4.53816,16.6978182 3.83456,14.2404444 3.83456,14.2404444 Z" id="Stroke-41" stroke="#FFFFFF" stroke-width="0.8" mask="url(#mask-2)"></path>
                <path d="M16.79728,5.08937374 L15.60608,7.19765657 C15.60608,7.19765657 15.21608,8.12573737 14.78528,8.29179798 C10.10728,10.0954343 6.03888,8.65664646 5.26968,8.02189899 C4.30368,7.22593939 3.60008,4.76735354 3.60008,4.76735354 L6.00608,4.76735354 C6.00608,4.76735354 6.90168,4.82876768 7.35208,4.94270707 C7.75048,5.04210101 8.09288,5.20331313 8.37928,5.40694949 C8.65568,4.16088889 10.18008,2.42230303 10.18008,2.42230303 L11.46488,4.47361616 C11.46488,4.47361616 11.89168,5.27886869 12.03728,5.71967677 C12.05128,5.75725253 12.06048,5.79523232 12.07008,5.82836364 C12.44968,5.40694949 12.83888,5.07038384 13.16728,4.94270707 C14.33528,4.48775758 16.79728,5.08937374 16.79728,5.08937374 Z" id="Stroke-42" stroke="#FFFFFF" stroke-width="0.8" mask="url(#mask-2)"></path>
                <path d="M16.41408,11.3346263 L15.22408,13.4441212 C15.22408,13.4441212 14.72368,14.2012929 14.40408,14.5394747 C13.23888,15.772202 11.74368,15.6550303 10.19528,14.9774545 C10.19008,14.9750303 10.18488,14.9730101 10.18008,14.9705859 C9.66688,14.7435152 11.61928,11.641697 12.78568,11.1887677 C13.95208,10.7354343 16.41408,11.3346263 16.41408,11.3346263 Z" id="Stroke-43" stroke="#FFFFFF" stroke-width="0.8" mask="url(#mask-2)"></path>
                <path d="M10.10724,9.17769697 L10.10724,22.2443636" id="Stroke-44" stroke="#FFFFFF" stroke-width="0.8" mask="url(#mask-2)"></path>
                <polygon id="Stroke-45" stroke="#FFFFFF" stroke-width="0.8" mask="url(#mask-2)" points="1.314 26.9023434 3.8868 26.9023434 3.8868 24.237697 1.314 24.237697"></polygon>
                <polygon id="Stroke-46" stroke="#FFFFFF" stroke-width="0.8" mask="url(#mask-2)" points="7.8796 26.9023434 10.0432 26.9023434 10.0432 24.237697 7.8796 24.237697"></polygon>
                <polygon id="Stroke-47" stroke="#FFFFFF" stroke-width="0.8" mask="url(#mask-2)" points="14.0432 26.9023434 16.1948 26.9023434 16.1948 24.237697 14.0432 24.237697"></polygon>
                <polygon id="Stroke-48" stroke="#FFFFFF" stroke-width="0.8" mask="url(#mask-2)" points="20.1988 26.9023434 22.646 26.9023434 22.646 24.237697 20.1988 24.237697"></polygon>
                <path d="M1.3,1.91919192 L1.3,3.73737374" id="Stroke-49" stroke="#FFFFFF" stroke-width="0.8" stroke-linecap="round" stroke-linejoin="round" mask="url(#mask-2)"></path>
                <path d="M2.2,2.82828283 L0.4,2.82828283" id="Stroke-50" stroke="#FFFFFF" stroke-width="0.8" stroke-linecap="round" stroke-linejoin="round" mask="url(#mask-2)"></path>
                <path d="M3.6,0.404040404 L3.6,2.22222222" id="Stroke-51" stroke="#FFFFFF" stroke-width="0.8" stroke-linecap="round" stroke-linejoin="round" mask="url(#mask-2)"></path>
                <path d="M4.5,1.31313131 L2.7,1.31313131" id="Stroke-52" stroke="#FFFFFF" stroke-width="0.8" stroke-linecap="round" stroke-linejoin="round" mask="url(#mask-2)"></path>
                <path d="M35.85,7.37373737 L35.85,9.19191919" id="Stroke-53" stroke="#FFFFFF" stroke-width="0.8" stroke-linecap="round" stroke-linejoin="round" mask="url(#mask-2)"></path>
                <path d="M36.75,8.28282828 L34.95,8.28282828" id="Stroke-54" stroke="#FFFFFF" stroke-width="0.8" stroke-linecap="round" stroke-linejoin="round" mask="url(#mask-2)"></path>
                <path d="M34.65,3.68686869 L34.65,5.50505051" id="Stroke-55" stroke="#FFFFFF" stroke-width="0.8" stroke-linecap="round" stroke-linejoin="round" mask="url(#mask-2)"></path>
                <path d="M35.55,4.5959596 L33.75,4.5959596" id="Stroke-56" stroke="#FFFFFF" stroke-width="0.8" stroke-linecap="round" stroke-linejoin="round" mask="url(#mask-2)"></path>
            </g>
        </g>
    </g>
</svg>