<svg xmlns="http://www.w3.org/2000/svg" xmlns:xlink="http://www.w3.org/1999/xlink" width="440.3" height="169.2" viewBox="0 0 440.3 169.2">
  <defs>
    <style>
      .cls-1, .cls-32, .cls-33 {
        fill: none;
      }

      .cls-2 {
        isolation: isolate;
      }

      .cls-3 {
        clip-path: url(#clip-path);
      }

      .cls-4 {
        fill: url(#linear-gradient);
      }

      .cls-5 {
        fill: #aedbc8;
        opacity: 0.5;
      }

      .cls-115, .cls-6 {
        fill: #fff;
      }

      .cls-7 {
        fill: #a5b2c0;
      }

      .cls-8 {
        fill: #49839d;
      }

      .cls-9 {
        opacity: 0.66;
      }

      .cls-10, .cls-114 {
        opacity: 0.44;
      }

      .cls-11 {
        fill: #cf8d34;
      }

      .cls-12 {
        fill: #f0a43e;
      }

      .cls-13 {
        fill: #534349;
      }

      .cls-14 {
        fill: #231b1e;
      }

      .cls-15 {
        fill: #ffe4ab;
      }

      .cls-16 {
        fill: #916221;
      }

      .cls-17 {
        fill: #6a8522;
      }

      .cls-18 {
        fill: #9cc437;
      }

      .cls-19 {
        fill: #769427;
      }

      .cls-20 {
        fill: #4d6316;
      }

      .cls-21 {
        fill: #8fb532;
      }

      .cls-22 {
        fill: #d85d2b;
      }

      .cls-23 {
        fill: #f26831;
      }

      .cls-24 {
        fill: #ff8950;
      }

      .cls-25 {
        fill: #c25226;
      }

      .cls-26 {
        fill: #cd5729;
      }

      .cls-27 {
        fill: #5a741c;
      }

      .cls-28 {
        fill: #8db331;
      }

      .cls-29 {
        fill: #a7d43d;
      }

      .cls-30 {
        fill: #baed45;
      }

      .cls-31 {
        fill: #d1ff6e;
      }

      .cls-32, .cls-33 {
        stroke: #231b1e;
        stroke-miterlimit: 10;
      }

      .cls-32 {
        stroke-width: 0.45px;
      }

      .cls-33 {
        stroke-width: 0.34px;
      }

      .cls-34 {
        fill: #566b34;
      }

      .cls-35 {
        fill: #cea0e0;
      }

      .cls-36 {
        fill: #9e7cad;
      }

      .cls-37 {
        fill: #ddb2ef;
      }

      .cls-38 {
        fill: #ff7e64;
      }

      .cls-39 {
        fill: #84a100;
      }

      .cls-40 {
        fill: #eee1a8;
      }

      .cls-41 {
        fill: #acacac;
      }

      .cls-42 {
        fill: #fff4b6;
      }

      .cls-43 {
        fill: #546900;
      }

      .cls-44 {
        fill: #acd100;
      }

      .cls-45 {
        fill: #eb5e3a;
      }

      .cls-46 {
        fill: #923b3b;
      }

      .cls-47 {
        fill: #ff7549;
      }

      .cls-48 {
        fill: #ff766a;
      }

      .cls-49 {
        fill: #61852a;
      }

      .cls-50 {
        fill: #82b03a;
      }

      .cls-51 {
        fill: #709630;
      }

      .cls-52 {
        fill: #8ec240;
      }

      .cls-53 {
        fill: #80d4d6;
      }

      .cls-54 {
        fill: #90f2f4;
      }

      .cls-55 {
        fill: #9c807c;
      }

      .cls-56 {
        fill: #767676;
      }

      .cls-57 {
        fill: #433011;
        opacity: 0.51;
      }

      .cls-58 {
        fill: #ffdba7;
      }

      .cls-59 {
        fill: #005e31;
      }

      .cls-60 {
        fill: #e3bfad;
      }

      .cls-61 {
        fill: #231f20;
      }

      .cls-62 {
        fill: #8dd2f4;
      }

      .cls-63 {
        fill: #232121;
      }

      .cls-64 {
        fill: #00522a;
      }

      .cls-65 {
        fill: #212120;
      }

      .cls-116, .cls-66 {
        opacity: 0.4;
      }

      .cls-100, .cls-101, .cls-102, .cls-67, .cls-98, .cls-99 {
        mix-blend-mode: multiply;
      }

      .cls-68 {
        fill: #e1e1e1;
      }

      .cls-69 {
        fill: #dcdcdc;
      }

      .cls-70 {
        fill: #d8d8d8;
      }

      .cls-71 {
        fill: #d3d3d3;
      }

      .cls-72 {
        fill: #cfcfcf;
      }

      .cls-73 {
        fill: #cacaca;
      }

      .cls-74 {
        fill: #c6c6c6;
      }

      .cls-75 {
        fill: #c1c1c1;
      }

      .cls-76 {
        fill: #bdbdbd;
      }

      .cls-77 {
        fill: #b8b8b8;
      }

      .cls-78 {
        fill: #b4b4b4;
      }

      .cls-79 {
        fill: #b0b0b0;
      }

      .cls-80 {
        fill: #ababab;
      }

      .cls-81 {
        fill: #a7a7a7;
      }

      .cls-82 {
        fill: #a2a2a2;
      }

      .cls-83 {
        fill: #9e9e9e;
      }

      .cls-84 {
        fill: #999;
      }

      .cls-85 {
        fill: #959595;
      }

      .cls-86 {
        fill: #909090;
      }

      .cls-87 {
        fill: #8c8c8c;
      }

      .cls-88 {
        fill: #888;
      }

      .cls-89 {
        fill: #838383;
      }

      .cls-90 {
        fill: #7f7f7f;
      }

      .cls-91 {
        fill: #7a7a7a;
      }

      .cls-92 {
        fill: #717171;
      }

      .cls-93 {
        fill: #6d6d6d;
      }

      .cls-94 {
        fill: #686868;
      }

      .cls-95 {
        fill: #646464;
      }

      .cls-96 {
        fill: #5f5f5f;
      }

      .cls-97 {
        fill: #5b5b5b;
      }

      .cls-108, .cls-98 {
        fill: #a1a1a1;
      }

      .cls-99 {
        fill: #ccc;
      }

      .cls-100 {
        fill: #757575;
      }

      .cls-101, .cls-116 {
        fill: #919191;
      }

      .cls-102 {
        fill: #5e5e5e;
      }

      .cls-103 {
        fill: url(#linear-gradient-2);
      }

      .cls-104 {
        fill: #7d7d7d;
      }

      .cls-105 {
        fill: url(#linear-gradient-3);
      }

      .cls-106 {
        fill: #d1d1d1;
      }

      .cls-107 {
        fill: #d4d4d4;
      }

      .cls-109 {
        fill: url(#linear-gradient-4);
      }

      .cls-110 {
        fill: url(#linear-gradient-5);
      }

      .cls-111 {
        fill: #a5d9ff;
      }

      .cls-112 {
        fill: #c4e6ff;
      }

      .cls-113 {
        fill: #8bcae3;
      }

      .cls-114 {
        fill: #d8eeff;
      }

      .cls-115 {
        opacity: 0.52;
      }

      .cls-117 {
        fill: url(#linear-gradient-6);
      }

      .cls-118 {
        fill: url(#linear-gradient-7);
      }

      .cls-119 {
        fill: url(#linear-gradient-8);
      }

      .cls-120 {
        fill: url(#linear-gradient-9);
      }
    </style>
    <clipPath id="clip-path">
      <rect class="cls-1" width="440.3" height="169.16"/>
    </clipPath>
    <linearGradient id="linear-gradient" x1="-1448.44" y1="215.18" x2="-1449.89" y2="215.53" gradientTransform="matrix(375, 0, 0, -166, 543679.51, 35835)" gradientUnits="userSpaceOnUse">
      <stop offset="0" stop-color="#64dcc2"/>
      <stop offset="1" stop-color="#70bce6"/>
    </linearGradient>
    <linearGradient id="linear-gradient-2" x1="366.85" y1="85.22" x2="422.77" y2="19.19" gradientUnits="userSpaceOnUse">
      <stop offset="0" stop-color="#fff"/>
      <stop offset="1" stop-color="#dedede"/>
    </linearGradient>
    <linearGradient id="linear-gradient-3" x1="422.6" y1="80.84" x2="366.88" y2="25.12" gradientUnits="userSpaceOnUse">
      <stop offset="0" stop-color="#fff"/>
      <stop offset="1" stop-color="#e6e6e6"/>
    </linearGradient>
    <linearGradient id="linear-gradient-4" x1="354.59" y1="88.49" x2="434.25" y2="88.49" xlink:href="#linear-gradient-2"/>
    <linearGradient id="linear-gradient-5" x1="394.42" y1="93.67" x2="394.42" y2="90" gradientUnits="userSpaceOnUse">
      <stop offset="0" stop-color="#fff"/>
      <stop offset="1" stop-color="#bfbfbf"/>
    </linearGradient>
    <linearGradient id="linear-gradient-6" x1="17.85" y1="85.22" x2="73.77" y2="19.19" xlink:href="#linear-gradient-2"/>
    <linearGradient id="linear-gradient-7" x1="73.6" y1="80.84" x2="17.88" y2="25.12" xlink:href="#linear-gradient-3"/>
    <linearGradient id="linear-gradient-8" x1="5.59" y1="88.49" x2="85.25" y2="88.49" xlink:href="#linear-gradient-2"/>
    <linearGradient id="linear-gradient-9" x1="45.42" y1="93.67" x2="45.42" y2="90" xlink:href="#linear-gradient-5"/>
  </defs>
  <title>Banners (4)</title>
  <g class="cls-2">
    <g id="Horticulture">
      <g class="cls-3">
        <g>
          <g id="Page-1">
            <g id="UI---Screen-5">
              <g id="Group-2">
                <rect id="Rectangle-Copy-6" class="cls-4" x="-4" y="-8" width="449.3" height="183"/>
              </g>
            </g>
          </g>
          <path class="cls-5" d="M75.8,114.6c0,1.8-1.1,3.3-2.4,3.3H38.6c-1.4,0-2.4-1.5-2.4-3.3h0c0-1.9,1-3.4,2.4-3.4H73.4c1.3,0,2.4,1.5,2.4,3.4Z"/>
          <path class="cls-5" d="M93.1,130c0,1.8-1.1,3.3-2.4,3.3H55.9c-1.4,0-2.5-1.5-2.5-3.3h0c0-1.9,1.1-3.4,2.5-3.4H90.7c1.3,0,2.4,1.5,2.4,3.4Z"/>
          <path class="cls-5" d="M396.1,109c0,1.8-1.1,3.3-2.4,3.3H358.9c-1.4,0-2.5-1.5-2.5-3.3h0c0-1.9,1.1-3.4,2.5-3.4h34.8c1.3,0,2.4,1.5,2.4,3.4Z"/>
          <path class="cls-5" d="M424.6,135c0,1.8-1.1,3.3-2.4,3.3H387.4c-1.4,0-2.5-1.5-2.5-3.3h0c0-1.9,1.1-3.4,2.5-3.4h34.8c1.3,0,2.4,1.5,2.4,3.4Z"/>
        </g>
        <g>
          <path class="cls-6" d="M216.3,148.7H111.1V15h.9c11.2-7.9,30.6-12.7,51.9-12.7s40,4.8,51.5,12.7h.9Zm-102.9-2.3H214V16.8C202.9,9.2,184.2,4.6,163.9,4.6s-39.7,4.6-50.5,12.2Z"/>
          <path class="cls-7" d="M201.3,26.2c-7.9-5.5-21.7-9.2-37.4-9.2s-29.9,3.5-37.8,9.2H126V147.6h75.4V26.2Z"/>
          <path class="cls-8" d="M197.6,148H129.8V28.5h.4c7.2-5.2,19.8-8.2,33.7-8.2s26,3,33.4,8.2h.3Zm-66.9-.8h66.1V29.2c-7.3-5.1-19.6-8.1-32.9-8.1s-26.2,3-33.2,8.1Z"/>
          <g class="cls-9">
            <g>
              <path class="cls-8" d="M132.8,30h12.1v.4H132.8Z"/>
              <path class="cls-8" d="M132.8,34.9h12.1v.4H132.8Z"/>
              <path class="cls-8" d="M132.8,39.8h12.1v.4H132.8Z"/>
              <path class="cls-8" d="M132.8,44.7h12.1v.4H132.8Z"/>
              <path class="cls-8" d="M132.8,49.6h12.1V50H132.8Z"/>
              <path class="cls-8" d="M132.8,54.6H143l1.9.2v.3H132.8Z"/>
              <path class="cls-8" d="M132.8,59.5H143l1.9.2v.3H132.8Z"/>
              <path class="cls-8" d="M132.8,64.4H143l1.9.2v.3H132.8Z"/>
              <path class="cls-8" d="M132.8,69.3H143l1.9.2v.3H132.8Z"/>
              <path class="cls-8" d="M132.8,74.2H143l1.9.2v.3H143l-4.1.2-4.2-.2h-1.9Z"/>
              <path class="cls-8" d="M132.8,79.1H143l1.9.2v.3H143l-4.1.2-4.2-.2h-1.9Z"/>
              <path class="cls-8" d="M132.8,84H143l1.9.2v.3H143l-4.1.2-4.2-.2h-1.9Z"/>
              <path class="cls-8" d="M132.8,88.9H143l1.9.2v.3H143l-4.1.2-4.2-.2h-1.9Z"/>
              <path class="cls-8" d="M132.8,93.8H143l1.9.2v.3H143l-4.1.2-4.2-.2h-1.9Z"/>
              <path class="cls-8" d="M132.8,98.7H143l1.9.2V99H143l-4.1.2-4.2-.2h-1.9Z"/>
              <path class="cls-8" d="M132.8,103.6H143l1.9.2v.3H143l-4.1.2-4.2-.2h-1.9Z"/>
              <path class="cls-8" d="M132.8,108.5H143l1.9.2v.3H143l-4.1.2-4.2-.2h-1.9Z"/>
              <path class="cls-8" d="M132.8,113.4H143l1.9.2v.3H143l-4.1.2-4.2-.2h-1.9Z"/>
              <path class="cls-8" d="M132.8,118.3H143l1.9.2v.3H143l-4.1.2h-4.2l-1.4-.2h-.5Z"/>
              <path class="cls-8" d="M132.8,123.2H143l1.9.2v.3H143l-4.1.2h-4.2l-1.4-.2h-.5Z"/>
              <path class="cls-8" d="M132.8,128.1H143l1.9.2v.3l-1.9.2H132.8Z"/>
              <path class="cls-8" d="M132.8,133H143l1.9.2v.3l-1.9.2H132.8Z"/>
              <path class="cls-8" d="M132.8,137.9H143l1.9.2v.3l-1.9.2H132.8Z"/>
              <path class="cls-8" d="M132.8,142.8H143l1.9.2v.3l-1.9.2H132.8Z"/>
            </g>
            <g>
              <path class="cls-8" d="M149.3,30h12.1v.4H149.3Z"/>
              <path class="cls-8" d="M149.3,34.9h12.1v.4H149.3Z"/>
              <path class="cls-8" d="M149.3,25.1h12.1v.4H149.3Z"/>
              <path class="cls-8" d="M149.3,39.8h12.1v.4H149.3Z"/>
              <path class="cls-8" d="M149.3,44.7h12.1v.4H149.3Z"/>
              <path class="cls-8" d="M149.3,49.6h12.1V50H149.3Z"/>
              <path class="cls-8" d="M149.3,54.6h10.2l1.9.2v.3H149.3Z"/>
              <path class="cls-8" d="M149.3,59.5h10.2l1.9.2v.3H149.3Z"/>
              <path class="cls-8" d="M149.3,64.4h10.2l1.9.2v.3H149.3Z"/>
              <path class="cls-8" d="M149.3,69.3h10.2l1.9.2v.3H149.3Z"/>
              <path class="cls-8" d="M149.3,74.2h10.2l1.9.2v.3h-1.9l-4.1.2-4.2-.2h-1.9Z"/>
              <path class="cls-8" d="M149.3,79.1h10.2l1.9.2v.3h-1.9l-4.1.2-4.2-.2h-1.9Z"/>
              <path class="cls-8" d="M149.3,84h10.2l1.9.2v.3h-1.9l-4.1.2-4.2-.2h-1.9Z"/>
              <path class="cls-8" d="M149.3,88.9h10.2l1.9.2v.3h-1.9l-4.1.2-4.2-.2h-1.9Z"/>
              <path class="cls-8" d="M149.3,93.8h10.2l1.9.2v.3h-1.9l-4.1.2-4.2-.2h-1.9Z"/>
              <path class="cls-8" d="M149.3,98.7h10.2l1.9.2V99h-1.9l-4.1.2-4.2-.2h-1.9Z"/>
              <path class="cls-8" d="M149.3,103.6h10.2l1.9.2v.3h-1.9l-4.1.2-4.2-.2h-1.9Z"/>
              <path class="cls-8" d="M149.3,108.5h10.2l1.9.2v.3h-1.9l-4.1.2-4.2-.2h-1.9Z"/>
              <path class="cls-8" d="M149.3,113.4h10.2l1.9.2v.3h-1.9l-4.1.2-4.2-.2h-1.9Z"/>
              <path class="cls-8" d="M149.3,118.3h10.2l1.9.2v.3h-1.9l-4.1.2h-4.2l-1.4-.2h-.5Z"/>
              <path class="cls-8" d="M149.3,123.2h10.2l1.9.2v.3h-1.9l-4.1.2h-4.2l-1.4-.2h-.5Z"/>
              <path class="cls-8" d="M149.3,128.1h10.2l1.9.2v.3l-1.9.2H149.3Z"/>
              <path class="cls-8" d="M149.3,133h10.2l1.9.2v.3l-1.9.2H149.3Z"/>
              <path class="cls-8" d="M149.3,137.9h10.2l1.9.2v.3l-1.9.2H149.3Z"/>
              <path class="cls-8" d="M149.3,142.8h10.2l1.9.2v.3l-1.9.2H149.3Z"/>
            </g>
            <g>
              <path class="cls-8" d="M165.9,30H178v.4H165.9Z"/>
              <path class="cls-8" d="M165.9,34.9H178v.4H165.9Z"/>
              <path class="cls-8" d="M165.9,39.8H178v.4H165.9Z"/>
              <path class="cls-8" d="M165.9,25.1H178v.4H165.9Z"/>
              <path class="cls-8" d="M165.9,44.7H178v.4H165.9Z"/>
              <path class="cls-8" d="M165.9,49.6H178V50H165.9Z"/>
              <path class="cls-8" d="M165.9,54.6h10.2l1.9.2v.3H165.9Z"/>
              <path class="cls-8" d="M165.9,59.5h10.2l1.9.2v.3H165.9Z"/>
              <path class="cls-8" d="M165.9,64.4h10.2l1.9.2v.3H165.9Z"/>
              <path class="cls-8" d="M165.9,69.3h10.2l1.9.2v.3H165.9Z"/>
              <path class="cls-8" d="M165.9,74.2h10.2l1.9.2v.3h-1.9l-4.2.2-4.1-.2h-1.9Z"/>
              <path class="cls-8" d="M165.9,79.1h10.2l1.9.2v.3h-1.9l-4.2.2-4.1-.2h-1.9Z"/>
              <path class="cls-8" d="M165.9,84h10.2l1.9.2v.3h-1.9l-4.2.2-4.1-.2h-1.9Z"/>
              <path class="cls-8" d="M165.9,88.9h10.2l1.9.2v.3h-1.9l-4.2.2-4.1-.2h-1.9Z"/>
              <path class="cls-8" d="M165.9,93.8h10.2l1.9.2v.3h-1.9l-4.2.2-4.1-.2h-1.9Z"/>
              <path class="cls-8" d="M165.9,98.7h10.2l1.9.2V99h-1.9l-4.2.2-4.1-.2h-1.9Z"/>
              <path class="cls-8" d="M165.9,103.6h10.2l1.9.2v.3h-1.9l-4.2.2-4.1-.2h-1.9Z"/>
              <path class="cls-8" d="M165.9,108.5h10.2l1.9.2v.3h-1.9l-4.2.2-4.1-.2h-1.9Z"/>
              <path class="cls-8" d="M165.9,113.4h10.2l1.9.2v.3h-1.9l-4.2.2-4.1-.2h-1.9Z"/>
              <path class="cls-8" d="M165.9,118.3h10.2l1.9.2v.3h-1.9l-4.2.2h-4.1l-1.4-.2h-.5Z"/>
              <path class="cls-8" d="M165.9,123.2h10.2l1.9.2v.3h-1.9l-4.2.2h-4.1l-1.4-.2h-.5Z"/>
              <path class="cls-8" d="M165.9,128.1h10.2l1.9.2v.3l-1.9.2H165.9Z"/>
              <path class="cls-8" d="M165.9,133h10.2l1.9.2v.3l-1.9.2H165.9Z"/>
              <path class="cls-8" d="M165.9,137.9h10.2l1.9.2v.3l-1.9.2H165.9Z"/>
              <path class="cls-8" d="M165.9,142.8h10.2l1.9.2v.3l-1.9.2H165.9Z"/>
            </g>
            <g>
              <path class="cls-8" d="M182.4,30h12.1v.4H182.4Z"/>
              <path class="cls-8" d="M182.4,34.9h12.1v.4H182.4Z"/>
              <path class="cls-8" d="M182.4,39.8h12.1v.4H182.4Z"/>
              <path class="cls-8" d="M182.4,44.7h12.1v.4H182.4Z"/>
              <path class="cls-8" d="M182.4,49.6h12.1V50H182.4Z"/>
              <path class="cls-8" d="M182.4,54.6h10.2l1.9.2v.3H182.4Z"/>
              <path class="cls-8" d="M182.4,59.5h10.2l1.9.2v.3H182.4Z"/>
              <path class="cls-8" d="M182.4,64.4h10.2l1.9.2v.3H182.4Z"/>
              <path class="cls-8" d="M182.4,69.3h10.2l1.9.2v.3H182.4Z"/>
              <path class="cls-8" d="M182.4,74.2h10.2l1.9.2v.3h-1.9l-4.2.2-4.1-.2h-1.9Z"/>
              <path class="cls-8" d="M182.4,79.1h10.2l1.9.2v.3h-1.9l-4.2.2-4.1-.2h-1.9Z"/>
              <path class="cls-8" d="M182.4,84h10.2l1.9.2v.3h-1.9l-4.2.2-4.1-.2h-1.9Z"/>
              <path class="cls-8" d="M182.4,88.9h10.2l1.9.2v.3h-1.9l-4.2.2-4.1-.2h-1.9Z"/>
              <path class="cls-8" d="M182.4,93.8h10.2l1.9.2v.3h-1.9l-4.2.2-4.1-.2h-1.9Z"/>
              <path class="cls-8" d="M182.4,98.7h10.2l1.9.2V99h-1.9l-4.2.2-4.1-.2h-1.9Z"/>
              <path class="cls-8" d="M182.4,103.6h10.2l1.9.2v.3h-1.9l-4.2.2-4.1-.2h-1.9Z"/>
              <path class="cls-8" d="M182.4,108.5h10.2l1.9.2v.3h-1.9l-4.2.2-4.1-.2h-1.9Z"/>
              <path class="cls-8" d="M182.4,113.4h10.2l1.9.2v.3h-1.9l-4.2.2-4.1-.2h-1.9Z"/>
              <path class="cls-8" d="M182.4,118.3h10.2l1.9.2v.3h-1.9l-4.2.2h-4.1l-1.4-.2h-.5Z"/>
              <path class="cls-8" d="M182.4,123.2h10.2l1.9.2v.3h-1.9l-4.2.2h-4.1l-1.4-.2h-.5Z"/>
              <path class="cls-8" d="M182.4,128.1h10.2l1.9.2v.3l-1.9.2H182.4Z"/>
              <path class="cls-8" d="M182.4,133h10.2l1.9.2v.3l-1.9.2H182.4Z"/>
              <path class="cls-8" d="M182.4,137.9h10.2l1.9.2v.3l-1.9.2H182.4Z"/>
              <path class="cls-8" d="M182.4,142.8h10.2l1.9.2v.3l-1.9.2H182.4Z"/>
            </g>
          </g>
          <g class="cls-10">
            <path class="cls-8" d="M146.8,25.3s0,7.5.1,18.8,0,26.3.1,41.3-.1,30.1-.1,41.4-.1,18.8-.1,18.8h-.2s-.1-7.5-.1-18.8-.1-26.3-.1-41.4,0-30,.1-41.3V25.3Z"/>
          </g>
          <g class="cls-10">
            <path class="cls-8" d="M163.8,25.3s.1,7.5.1,18.8.1,26.3.1,41.3-.1,30.1-.1,41.4-.1,18.8-.1,18.8h-.2s0-7.5-.1-18.8,0-26.3-.1-41.4.1-30,.1-41.3V25.3Z"/>
          </g>
          <g class="cls-10">
            <path class="cls-8" d="M180.6,25.3V44.1c0,11.3,0,26.3.1,41.3s-.1,30.1-.1,41.4-.1,18.8-.1,18.8h-.2s-.1-7.5-.1-18.8-.1-26.3-.1-41.4,0-30,.1-41.3.1-18.8.1-18.8Z"/>
          </g>
          <path class="cls-6" d="M332,148.7H226.8V15h.9c11.2-7.9,30.6-12.7,51.9-12.7s40,4.8,51.5,12.7h.9Zm-102.9-2.3H329.7V16.8C318.6,9.2,299.9,4.6,279.6,4.6s-39.7,4.6-50.5,12.2Z"/>
          <path class="cls-7" d="M317,26.2c-7.9-5.5-21.7-9.2-37.4-9.2s-29.9,3.5-37.8,9.2h-.1V147.6h75.4V26.2Z"/>
          <path class="cls-8" d="M313.3,148H245.5V28.5h.4c7.2-5.2,19.8-8.2,33.7-8.2s26,3,33.4,8.2h.3Zm-66.9-.8h66.1V29.2c-7.3-5.1-19.6-8.1-32.9-8.1s-26.2,3-33.2,8.1Z"/>
          <g class="cls-9">
            <g>
              <path class="cls-8" d="M248.5,30h12.1v.4H248.5Z"/>
              <path class="cls-8" d="M248.5,34.9h12.1v.4H248.5Z"/>
              <path class="cls-8" d="M248.5,39.8h12.1v.4H248.5Z"/>
              <path class="cls-8" d="M248.5,44.7h12.1v.4H248.5Z"/>
              <path class="cls-8" d="M248.5,49.6h12.1V50H248.5Z"/>
              <path class="cls-8" d="M248.5,54.6h10.2l1.9.2v.3H248.5Z"/>
              <path class="cls-8" d="M248.5,59.5h10.2l1.9.2v.3H248.5Z"/>
              <path class="cls-8" d="M248.5,64.4h10.2l1.9.2v.3H248.5Z"/>
              <path class="cls-8" d="M248.5,69.3h10.2l1.9.2v.3H248.5Z"/>
              <path class="cls-8" d="M248.5,74.2h10.2l1.9.2v.3h-1.9l-4.1.2-4.2-.2h-1.9Z"/>
              <path class="cls-8" d="M248.5,79.1h10.2l1.9.2v.3h-1.9l-4.1.2-4.2-.2h-1.9Z"/>
              <path class="cls-8" d="M248.5,84h10.2l1.9.2v.3h-1.9l-4.1.2-4.2-.2h-1.9Z"/>
              <path class="cls-8" d="M248.5,88.9h10.2l1.9.2v.3h-1.9l-4.1.2-4.2-.2h-1.9Z"/>
              <path class="cls-8" d="M248.5,93.8h10.2l1.9.2v.3h-1.9l-4.1.2-4.2-.2h-1.9Z"/>
              <path class="cls-8" d="M248.5,98.7h10.2l1.9.2V99h-1.9l-4.1.2-4.2-.2h-1.9Z"/>
              <path class="cls-8" d="M248.5,103.6h10.2l1.9.2v.3h-1.9l-4.1.2-4.2-.2h-1.9Z"/>
              <path class="cls-8" d="M248.5,108.5h10.2l1.9.2v.3h-1.9l-4.1.2-4.2-.2h-1.9Z"/>
              <path class="cls-8" d="M248.5,113.4h10.2l1.9.2v.3h-1.9l-4.1.2-4.2-.2h-1.9Z"/>
              <path class="cls-8" d="M248.5,118.3h10.2l1.9.2v.3h-1.9l-4.1.2h-4.2l-1.4-.2h-.5Z"/>
              <path class="cls-8" d="M248.5,123.2h10.2l1.9.2v.3h-1.9l-4.1.2h-4.2l-1.4-.2h-.5Z"/>
              <path class="cls-8" d="M248.5,128.1h10.2l1.9.2v.3l-1.9.2H248.5Z"/>
              <path class="cls-8" d="M248.5,133h10.2l1.9.2v.3l-1.9.2H248.5Z"/>
              <path class="cls-8" d="M248.5,137.9h10.2l1.9.2v.3l-1.9.2H248.5Z"/>
              <path class="cls-8" d="M248.5,142.8h10.2l1.9.2v.3l-1.9.2H248.5Z"/>
            </g>
            <g>
              <path class="cls-8" d="M265,30h12.1v.4H265Z"/>
              <path class="cls-8" d="M265,34.9h12.1v.4H265Z"/>
              <path class="cls-8" d="M265,25.1h12.1v.4H265Z"/>
              <path class="cls-8" d="M265,39.8h12.1v.4H265Z"/>
              <path class="cls-8" d="M265,44.7h12.1v.4H265Z"/>
              <path class="cls-8" d="M265,49.6h12.1V50H265Z"/>
              <path class="cls-8" d="M265,54.6h10.3l1.8.2v.3H265Z"/>
              <path class="cls-8" d="M265,59.5h10.3l1.8.2v.3H265Z"/>
              <path class="cls-8" d="M265,64.4h10.3l1.8.2v.3H265Z"/>
              <path class="cls-8" d="M265,69.3h10.3l1.8.2v.3H265Z"/>
              <path class="cls-8" d="M265,74.2h10.3l1.8.2v.3h-1.8l-4.2.2-4.2-.2H265Z"/>
              <path class="cls-8" d="M265,79.1h10.3l1.8.2v.3h-1.8l-4.2.2-4.2-.2H265Z"/>
              <path class="cls-8" d="M265,84h10.3l1.8.2v.3h-1.8l-4.2.2-4.2-.2H265Z"/>
              <path class="cls-8" d="M265,88.9h10.3l1.8.2v.3h-1.8l-4.2.2-4.2-.2H265Z"/>
              <path class="cls-8" d="M265,93.8h10.3l1.8.2v.3h-1.8l-4.2.2-4.2-.2H265Z"/>
              <path class="cls-8" d="M265,98.7h10.3l1.8.2V99h-1.8l-4.2.2-4.2-.2H265Z"/>
              <path class="cls-8" d="M265,103.6h10.3l1.8.2v.3h-1.8l-4.2.2-4.2-.2H265Z"/>
              <path class="cls-8" d="M265,108.5h10.3l1.8.2v.3h-1.8l-4.2.2-4.2-.2H265Z"/>
              <path class="cls-8" d="M265,113.4h10.3l1.8.2v.3h-1.8l-4.2.2-4.2-.2H265Z"/>
              <path class="cls-8" d="M265,118.3h10.3l1.8.2v.3h-1.8l-4.2.2h-4.2l-1.3-.2H265Z"/>
              <path class="cls-8" d="M265,123.2h10.3l1.8.2v.3h-1.8l-4.2.2h-4.2l-1.3-.2H265Z"/>
              <path class="cls-8" d="M265,128.1h10.3l1.8.2v.3l-1.8.2H265Z"/>
              <path class="cls-8" d="M265,133h10.3l1.8.2v.3l-1.8.2H265Z"/>
              <path class="cls-8" d="M265,137.9h10.3l1.8.2v.3l-1.8.2H265Z"/>
              <path class="cls-8" d="M265,142.8h10.3l1.8.2v.3l-1.8.2H265Z"/>
            </g>
            <g>
              <path class="cls-8" d="M281.6,30h12.1v.4H281.6Z"/>
              <path class="cls-8" d="M281.6,34.9h12.1v.4H281.6Z"/>
              <path class="cls-8" d="M281.6,39.8h12.1v.4H281.6Z"/>
              <path class="cls-8" d="M281.6,25.1h12.1v.4H281.6Z"/>
              <path class="cls-8" d="M281.6,44.7h12.1v.4H281.6Z"/>
              <path class="cls-8" d="M281.6,49.6h12.1V50H281.6Z"/>
              <path class="cls-8" d="M281.6,54.6h10.2l1.9.2v.3H281.6Z"/>
              <path class="cls-8" d="M281.6,59.5h10.2l1.9.2v.3H281.6Z"/>
              <path class="cls-8" d="M281.6,64.4h10.2l1.9.2v.3H281.6Z"/>
              <path class="cls-8" d="M281.6,69.3h10.2l1.9.2v.3H281.6Z"/>
              <path class="cls-8" d="M281.6,74.2h10.2l1.9.2v.3h-1.9l-4.2.2-4.1-.2h-1.9Z"/>
              <path class="cls-8" d="M281.6,79.1h10.2l1.9.2v.3h-1.9l-4.2.2-4.1-.2h-1.9Z"/>
              <path class="cls-8" d="M281.6,84h10.2l1.9.2v.3h-1.9l-4.2.2-4.1-.2h-1.9Z"/>
              <path class="cls-8" d="M281.6,88.9h10.2l1.9.2v.3h-1.9l-4.2.2-4.1-.2h-1.9Z"/>
              <path class="cls-8" d="M281.6,93.8h10.2l1.9.2v.3h-1.9l-4.2.2-4.1-.2h-1.9Z"/>
              <path class="cls-8" d="M281.6,98.7h10.2l1.9.2V99h-1.9l-4.2.2-4.1-.2h-1.9Z"/>
              <path class="cls-8" d="M281.6,103.6h10.2l1.9.2v.3h-1.9l-4.2.2-4.1-.2h-1.9Z"/>
              <path class="cls-8" d="M281.6,108.5h10.2l1.9.2v.3h-1.9l-4.2.2-4.1-.2h-1.9Z"/>
              <path class="cls-8" d="M281.6,113.4h10.2l1.9.2v.3h-1.9l-4.2.2-4.1-.2h-1.9Z"/>
              <path class="cls-8" d="M281.6,118.3h10.2l1.9.2v.3h-1.9l-4.2.2h-4.1l-1.4-.2h-.5Z"/>
              <path class="cls-8" d="M281.6,123.2h10.2l1.9.2v.3h-1.9l-4.2.2h-4.1l-1.4-.2h-.5Z"/>
              <path class="cls-8" d="M281.6,128.1h10.2l1.9.2v.3l-1.9.2H281.6Z"/>
              <path class="cls-8" d="M281.6,133h10.2l1.9.2v.3l-1.9.2H281.6Z"/>
              <path class="cls-8" d="M281.6,137.9h10.2l1.9.2v.3l-1.9.2H281.6Z"/>
              <path class="cls-8" d="M281.6,142.8h10.2l1.9.2v.3l-1.9.2H281.6Z"/>
            </g>
            <g>
              <path class="cls-8" d="M298.1,30h12.1v.4H298.1Z"/>
              <path class="cls-8" d="M298.1,34.9h12.1v.4H298.1Z"/>
              <path class="cls-8" d="M298.1,39.8h12.1v.4H298.1Z"/>
              <path class="cls-8" d="M298.1,44.7h12.1v.4H298.1Z"/>
              <path class="cls-8" d="M298.1,49.6h12.1V50H298.1Z"/>
              <path class="cls-8" d="M298.1,54.6h10.2l1.9.2v.3H298.1Z"/>
              <path class="cls-8" d="M298.1,59.5h10.2l1.9.2v.3H298.1Z"/>
              <path class="cls-8" d="M298.1,64.4h10.2l1.9.2v.3H298.1Z"/>
              <path class="cls-8" d="M298.1,69.3h10.2l1.9.2v.3H298.1Z"/>
              <path class="cls-8" d="M298.1,74.2h10.2l1.9.2v.3h-1.9l-4.1.2-4.2-.2h-1.9Z"/>
              <path class="cls-8" d="M298.1,79.1h10.2l1.9.2v.3h-1.9l-4.1.2-4.2-.2h-1.9Z"/>
              <path class="cls-8" d="M298.1,84h10.2l1.9.2v.3h-1.9l-4.1.2-4.2-.2h-1.9Z"/>
              <path class="cls-8" d="M298.1,88.9h10.2l1.9.2v.3h-1.9l-4.1.2-4.2-.2h-1.9Z"/>
              <path class="cls-8" d="M298.1,93.8h10.2l1.9.2v.3h-1.9l-4.1.2-4.2-.2h-1.9Z"/>
              <path class="cls-8" d="M298.1,98.7h10.2l1.9.2V99h-1.9l-4.1.2-4.2-.2h-1.9Z"/>
              <path class="cls-8" d="M298.1,103.6h10.2l1.9.2v.3h-1.9l-4.1.2L300,104h-1.9Z"/>
              <path class="cls-8" d="M298.1,108.5h10.2l1.9.2v.3h-1.9l-4.1.2-4.2-.2h-1.9Z"/>
              <path class="cls-8" d="M298.1,113.4h10.2l1.9.2v.3h-1.9l-4.1.2-4.2-.2h-1.9Z"/>
              <path class="cls-8" d="M298.1,118.3h10.2l1.9.2v.3h-1.9l-4.1.2H300l-1.4-.2h-.5Z"/>
              <path class="cls-8" d="M298.1,123.2h10.2l1.9.2v.3h-1.9l-4.1.2H300l-1.4-.2h-.5Z"/>
              <path class="cls-8" d="M298.1,128.1h10.2l1.9.2v.3l-1.9.2H298.1Z"/>
              <path class="cls-8" d="M298.1,133h10.2l1.9.2v.3l-1.9.2H298.1Z"/>
              <path class="cls-8" d="M298.1,137.9h10.2l1.9.2v.3l-1.9.2H298.1Z"/>
              <path class="cls-8" d="M298.1,142.8h10.2l1.9.2v.3l-1.9.2H298.1Z"/>
            </g>
          </g>
          <g class="cls-10">
            <path class="cls-8" d="M262.5,25.3s0,7.5.1,18.8,0,26.3.1,41.3-.1,30.1-.1,41.4-.1,18.8-.1,18.8h-.2s-.1-7.5-.1-18.8-.1-26.3-.1-41.4.1-30,.1-41.3V25.3Z"/>
          </g>
          <g class="cls-10">
            <path class="cls-8" d="M279.5,25.3s.1,7.5.1,18.8.1,26.3.1,41.3-.1,30.1-.1,41.4-.1,18.8-.1,18.8h-.2s0-7.5-.1-18.8,0-26.3-.1-41.4.1-30,.1-41.3V25.3Z"/>
          </g>
          <g class="cls-10">
            <path class="cls-8" d="M296.3,25.3V44.1c0,11.3,0,26.3.1,41.3s-.1,30.1-.1,41.4-.1,18.8-.1,18.8h-.2s-.1-7.5-.1-18.8-.1-26.3-.1-41.4,0-30,.1-41.3.1-18.8.1-18.8Z"/>
          </g>
          <rect class="cls-11" x="112" y="158" width="217.1" height="11.64"/>
          <rect class="cls-12" x="107" y="152.2" width="227" height="11.64"/>
          <rect class="cls-13" x="105" y="146.4" width="231.1" height="11.64"/>
          <rect class="cls-14" x="102.1" y="146.4" width="237" height="3.28"/>
          <path class="cls-15" d="M109.7,159.9h9.5l25.1-.3h152l25.1.3h9.5v.9h-9.5l-25.1.3h-152l-25.1-.3h-9.5Z"/>
          <path class="cls-16" d="M109.7,164l34.6-.2h152l34.6.2.2.2c0,.2-.1.2-.2.2l-34.6.2-35.4.2H144.3l-34.6-.3c-.1,0-.2,0-.2-.2Z"/>
          <g>
            <g>
              <path class="cls-17" d="M213.6,133.5l2.6-3.4-1.8-4-2.6-5.5-4.8-4.8h-5.2l-6.2,2.8-.3,5.6.6,5,2.1,4.7,14.7.6"/>
              <path class="cls-18" d="M194.1,121.5a4.2,4.2,0,0,0-3.6-.4,3.7,3.7,0,0,0,1.7,3.2,3.8,3.8,0,0,0,3.7.4A4.4,4.4,0,0,0,194.1,121.5Z"/>
              <path class="cls-18" d="M212.8,118a3.9,3.9,0,0,0,.6-3.6,4.1,4.1,0,0,0-3.3,1.5,3.9,3.9,0,0,0-.6,3.6A3.9,3.9,0,0,0,212.8,118Z"/>
              <path class="cls-18" d="M196.9,114.2a3.8,3.8,0,0,0,3.5.8,3.8,3.8,0,0,0-1.3-3.3,4,4,0,0,0-3.6-.9A4.2,4.2,0,0,0,196.9,114.2Z"/>
              <path class="cls-19" d="M204.2,122.2a5.4,5.4,0,0,0-2.2-4.3,5.3,5.3,0,0,0,0,8.6A5.4,5.4,0,0,0,204.2,122.2Z"/>
              <path class="cls-19" d="M213.4,121.8a5.1,5.1,0,0,0,.3-4.8,4.9,4.9,0,0,0-4.1,2.4,5.1,5.1,0,0,0-.4,4.8A5.1,5.1,0,0,0,213.4,121.8Z"/>
              <path class="cls-19" d="M211.6,113.5a2.8,2.8,0,0,0,.2-2.8,2.7,2.7,0,0,0-2.4,1.4,3,3,0,0,0-.2,2.9A3.2,3.2,0,0,0,211.6,113.5Z"/>
              <path class="cls-20" d="M207.2,121.6a3.1,3.1,0,0,0-2.3-1.6,2.8,2.8,0,0,0,0,2.8,3.1,3.1,0,0,0,2.3,1.6A2.8,2.8,0,0,0,207.2,121.6Z"/>
              <path class="cls-20" d="M195.7,128.7a3.2,3.2,0,0,0-2.6,1.3,3.2,3.2,0,0,0,2.5,1.4,3,3,0,0,0,2.5-1.2A3.3,3.3,0,0,0,195.7,128.7Z"/>
              <path class="cls-20" d="M197,120.9a2.9,2.9,0,0,0-2.6,1.2,2.9,2.9,0,0,0,2.4,1.4,2.9,2.9,0,0,0,2.6-1.2A2.9,2.9,0,0,0,197,120.9Z"/>
              <path class="cls-20" d="M213.4,123.1a3,3,0,0,0-1.3,2.5,3.1,3.1,0,0,0,2.8-.4,3,3,0,0,0,1.3-2.5A2.8,2.8,0,0,0,213.4,123.1Z"/>
              <path class="cls-20" d="M216.3,129.1a2.9,2.9,0,0,0-2.6,1.1,3.3,3.3,0,0,0,2.4,1.6,2.9,2.9,0,0,0,2.6-1.1A3.2,3.2,0,0,0,216.3,129.1Z"/>
              <path class="cls-20" d="M207,115.8a3.2,3.2,0,0,0-.7,2.8,3.1,3.1,0,0,0,2.7-1,3.2,3.2,0,0,0,.7-2.8A3.1,3.1,0,0,0,207,115.8Z"/>
              <path class="cls-20" d="M202.5,129a3.1,3.1,0,0,0-2.8-.4,3,3,0,0,0,1.3,2.6,2.8,2.8,0,0,0,2.8.3A2.9,2.9,0,0,0,202.5,129Z"/>
              <path class="cls-20" d="M204.6,124.7a2.8,2.8,0,0,0-2.8-.3,3,3,0,0,0,1.3,2.5,2.8,2.8,0,0,0,2.8.3A3.3,3.3,0,0,0,204.6,124.7Z"/>
              <path class="cls-20" d="M198.7,117.5a2.8,2.8,0,0,0-2.8-.3,3,3,0,0,0,1.3,2.5,2.8,2.8,0,0,0,2.8.3A3,3,0,0,0,198.7,117.5Z"/>
              <path class="cls-20" d="M201.7,114.2a2.9,2.9,0,0,0-2.5-1.3,3.1,3.1,0,0,0,.4,2.8,3,3,0,0,0,2.5,1.3A2.8,2.8,0,0,0,201.7,114.2Z"/>
              <path class="cls-19" d="M217,128.8a5.1,5.1,0,0,0,2.4-4.2,5.5,5.5,0,0,0-4.8.4,5.3,5.3,0,0,0-2.4,4.2A5.5,5.5,0,0,0,217,128.8Z"/>
              <path class="cls-19" d="M195.1,128.6a5,5,0,0,0,4.7-1.1,5,5,0,0,0-3.7-3.2,5.3,5.3,0,0,0-4.6,1.1A5.1,5.1,0,0,0,195.1,128.6Z"/>
              <path class="cls-19" d="M202.2,113.6a5,5,0,0,0,3.7,3.1,5.1,5.1,0,0,0,.4-4.8,5.5,5.5,0,0,0-3.7-3.1A5.1,5.1,0,0,0,202.2,113.6Z"/>
              <path class="cls-19" d="M193.9,119.3a4.9,4.9,0,0,0,4.4,1.9,5.1,5.1,0,0,0-.9-4.7,5.6,5.6,0,0,0-4.5-1.9A5.3,5.3,0,0,0,193.9,119.3Z"/>
              <path class="cls-19" d="M209,130.5a5.1,5.1,0,0,0,2.8-4,5.2,5.2,0,0,0-7.6,4A5.1,5.1,0,0,0,209,130.5Z"/>
              <path class="cls-21" d="M199.3,127.7a3.9,3.9,0,0,0,3.4,1.5,4.2,4.2,0,0,0-.7-3.6,4.1,4.1,0,0,0-3.4-1.4A4,4,0,0,0,199.3,127.7Z"/>
              <path class="cls-18" d="M202.5,117.8a4.1,4.1,0,0,0,3.4,1.4,4,4,0,0,0-.8-3.6,3.9,3.9,0,0,0-3.3-1.4A4.3,4.3,0,0,0,202.5,117.8Z"/>
              <path class="cls-18" d="M207.5,122.6a3.8,3.8,0,0,0-.9,3.5,4,4,0,0,0,4.3-4.9A4.1,4.1,0,0,0,207.5,122.6Z"/>
              <path class="cls-18" d="M211.5,129a3.8,3.8,0,0,0-.9,3.5,4.1,4.1,0,0,0,3.4-1.3,3.5,3.5,0,0,0,.8-3.5A3.6,3.6,0,0,0,211.5,129Z"/>
              <path class="cls-18" d="M200.6,129a3.8,3.8,0,0,0-3.6-.3,3.7,3.7,0,0,0,1.7,3.1,3.8,3.8,0,0,0,3.7.4A4.4,4.4,0,0,0,200.6,129Z"/>
            </g>
            <path class="cls-22" d="M206.3,133c-6-.1-12.1.4-11.9,1.5l2.4,9.5a3.1,3.1,0,0,0,3,2.5h12.5a3.1,3.1,0,0,0,3-2.5l2.4-9.5c.2-1.1-5.9-1.6-11.9-1.5Z"/>
            <path class="cls-23" d="M206.2,133c-4.3-.1-8.7.4-8.5,1.5l1.7,9.5a2.6,2.6,0,0,0,2.2,2.5h8.9a2.6,2.6,0,0,0,2.2-2.5l1.7-9.5c.1-1.1-4.2-1.6-8.6-1.5Z"/>
            <rect class="cls-24" x="193.2" y="132.6" width="25.6" height="2.55"/>
            <g class="cls-10">
              <path class="cls-6" d="M196.3,133.8h0Z"/>
            </g>
          </g>
          <g>
            <rect class="cls-25" x="311.1" y="130.5" width="25" height="15.73" rx="1.3" ry="1.3"/>
            <rect class="cls-26" x="313.9" y="130.5" width="19.4" height="15.73" rx="1.1" ry="1.1"/>
            <g>
              <path class="cls-19" d="M310,109.5v.2a6.4,6.4,0,0,1,.2.7c.1.6.3,1.4.5,2.4s.4,2.2.6,3.4.4,2.6.7,3.9.3,2.6.5,3.9.4,2.4.5,3.4.1.9.2,1.3.1.8.1,1a6.6,6.6,0,0,0,.2.9h0a.2.2,0,0,1-.2.2h-.3l-.3-.9c-.1-.6-.4-1.4-.6-2.4s-.5-2.1-.7-3.3-.5-2.6-.7-3.9-.4-2.7-.5-3.9-.3-2.4-.4-3.4-.1-1.9-.2-2.5a1.3,1.3,0,0,0-.1-.6v-.2h0a.2.2,0,0,1,.2-.2C309.9,109.3,310,109.4,310,109.5Z"/>
              <path class="cls-19" d="M302.9,126.4h.7l1.8-.3H308l3,.3a7,7,0,0,1,1.4.3l1.4.5,1.2.6,1,.8.4.5.3.4a2.5,2.5,0,0,1,.4.7l.2.5h0c0,.1,0,.2-.1.2a.1.1,0,0,1-.1-.1H317c0-.2-.1-.3-.2-.5a2.1,2.1,0,0,0-.4-.6l-.3-.4-.4-.3-.9-.7-1.2-.6-1.3-.4-1.5-.3a13.3,13.3,0,0,0-2.8-.3h-5.2Z"/>
              <path class="cls-19" d="M331.4,120.4h-.6l-.8.2-1,.4a5.3,5.3,0,0,0-1,.6l-1.1.8-.6.5-.5.5-.9,1.1a5.7,5.7,0,0,0-.8,1.3,5.4,5.4,0,0,0-.7,1.3l-.6,1.2c-.1.5-.3.8-.4,1.2a10.2,10.2,0,0,0-.5,1.8l-.3.7h-.2v-.7c.1-.2.1-.5.2-.8a3.8,3.8,0,0,1,.3-1l.3-1.2.6-1.3a5.9,5.9,0,0,1,.6-1.4l.9-1.3a5.8,5.8,0,0,1,1-1.2l.5-.6.6-.5,1.2-.8,1.2-.5a1.9,1.9,0,0,1,1-.3l.8-.2h.7Z"/>
              <path class="cls-19" d="M335.3,109H335l-.7.5-1.1.7-1.3,1-1.6,1.4-.8.7a6,6,0,0,1-.8.8l-.8.9-.8.9-1.5,2-.3.5-.3.5-.7,1.1-1.1,2.1a18.9,18.9,0,0,0-.9,2.1,14.6,14.6,0,0,0-.7,1.9,14.2,14.2,0,0,0-.5,1.6,9.3,9.3,0,0,0-.4,1.3,3.9,3.9,0,0,1-.3,1.1h0c0,.2-.1.2-.3.2s-.1-.1-.1-.2a9.4,9.4,0,0,1,.1-1.2,5.2,5.2,0,0,0,.2-1.4c.1-.5.3-1,.4-1.7s.3-1.3.6-2,.5-1.4.8-2.2a23.9,23.9,0,0,1,1.2-2.2l.6-1.1.4-.6.3-.5a15.6,15.6,0,0,1,1.6-2l.8-1,.9-.9,1.7-1.5,1.7-1.3,1.5-.9,1.2-.7.8-.3.3-.2h0c.1,0,.3.1.3.2A.4.4,0,0,1,335.3,109Z"/>
              <path class="cls-19" d="M324.6,130.7h0a.8.8,0,0,1,.2-.4,4.1,4.1,0,0,1,.6-1.1l1.2-1.4a10.7,10.7,0,0,1,1.6-1.4l.9-.6.8-.5.9-.5.8-.3,1.2-.4h.6c.1,0,0,.1,0,.1h0l-.5.2-.5.2-.6.3-.8.4-.8.4-.8.6-.8.6-1.6,1.3-.6.6-.6.7-.8.9c0,.2-.1.2-.1.3h-.1c0,.1,0,.1-.1.1S324.6,130.8,324.6,130.7Z"/>
              <path class="cls-19" d="M349.4,122.3c0,.1-.2,0-.3-.1l-.8-.2a15.7,15.7,0,0,0-3-.6h-2l-2.2.2a15.4,15.4,0,0,0-4.5,1.7l-2,1.5-1.8,1.5-1.7,1.5-1.4,1.5a14.2,14.2,0,0,0-1.2,1.3l-.8,1-.4.7v.3h-.3v-.2l.2-.3a4.1,4.1,0,0,1,.3-.8,20.8,20.8,0,0,1,1.8-2.6l1.4-1.5a12.9,12.9,0,0,1,1.7-1.6l1.9-1.6a11.3,11.3,0,0,1,2.1-1.5,12.2,12.2,0,0,1,4.8-1.8l2.3-.2,2.1.2a20.4,20.4,0,0,1,3,.8l.8.4h.3a.3.3,0,0,1,.1.2C349.6,122.3,349.5,122.4,349.4,122.3Z"/>
              <rect class="cls-24" x="308.6" y="130.1" width="29.8" height="2.96"/>
              <g class="cls-10">
                <path class="cls-6" d="M312.3,131.5h22.6l-3.5.2H315.8l-3.5-.2h0Z"/>
              </g>
              <path class="cls-19" d="M304.5,121.7a9.1,9.1,0,0,0,5,1.1,8.6,8.6,0,0,0-3.8-3.4,9.4,9.4,0,0,0-5.1-1.1A9.5,9.5,0,0,0,304.5,121.7Z"/>
              <path class="cls-19" d="M305.4,114.2a8.6,8.6,0,0,0,3.6,3.7,9.2,9.2,0,0,0-1.3-4.9,8.6,8.6,0,0,0-3.6-3.7A9.2,9.2,0,0,0,305.4,114.2Z"/>
              <path class="cls-19" d="M308.5,108.2a7.9,7.9,0,0,0,2.1,4.7,9,9,0,0,0,.5-5.1,9.3,9.3,0,0,0-2-4.7A9,9,0,0,0,308.5,108.2Z"/>
              <path class="cls-19" d="M311.9,113a9.3,9.3,0,0,0-1,5.1,9.5,9.5,0,0,0,3.4-3.9,9.1,9.1,0,0,0,1-5A8.6,8.6,0,0,0,311.9,113Z"/>
              <path class="cls-19" d="M313.8,118.6a8.9,8.9,0,0,0-1,5,9.5,9.5,0,0,0,3.4-3.9,9.1,9.1,0,0,0,1-5A8.9,8.9,0,0,0,313.8,118.6Z"/>
              <path class="cls-19" d="M315.2,123.1a5.8,5.8,0,0,0-1.7,2.7,6,6,0,0,0,2.8-1.5,5.6,5.6,0,0,0,1.8-2.8A5.7,5.7,0,0,0,315.2,123.1Z"/>
              <path class="cls-27" d="M305.2,127.8a5.4,5.4,0,0,0-2.2,2.4,5.9,5.9,0,0,0,3-1,5.4,5.4,0,0,0,2.2-2.4A5.9,5.9,0,0,0,305.2,127.8Z"/>
              <path class="cls-27" d="M306.2,122.8a6.2,6.2,0,0,0-3.2-.3,5.6,5.6,0,0,0,2.7,1.8,5.3,5.3,0,0,0,3.2.3A5.6,5.6,0,0,0,306.2,122.8Z"/>
              <path class="cls-27" d="M307.5,118.3a6,6,0,0,0-3.2-.2,5.6,5.6,0,0,0,2.7,1.8,6.2,6.2,0,0,0,3.2.3A6.5,6.5,0,0,0,307.5,118.3Z"/>
              <path class="cls-27" d="M321,119.8a4.9,4.9,0,0,0-1.2-3,5.2,5.2,0,0,0-.4,3.2,6.3,6.3,0,0,0,1.2,3A5.5,5.5,0,0,0,321,119.8Z"/>
              <path class="cls-27" d="M328.4,119.9a4.3,4.3,0,0,0,3-1,5.5,5.5,0,0,0-3.1-.6,6.3,6.3,0,0,0-3.1,1A5.1,5.1,0,0,0,328.4,119.9Z"/>
              <path class="cls-27" d="M335.5,109.1a4.8,4.8,0,0,0,3.1-1,5.9,5.9,0,0,0-3.2-.6,6.3,6.3,0,0,0-3.1,1A5.3,5.3,0,0,0,335.5,109.1Z"/>
              <path class="cls-27" d="M336.9,116a5.6,5.6,0,0,0,3-1,5.8,5.8,0,0,0-6.2.4A5.9,5.9,0,0,0,336.9,116Z"/>
              <path class="cls-27" d="M340.7,123.7a6,6,0,0,0,3.2.8,6.3,6.3,0,0,0-2.3-2.3,6,6,0,0,0-3.2-.8A6.3,6.3,0,0,0,340.7,123.7Z"/>
              <path class="cls-27" d="M349,123.1a5.9,5.9,0,0,0,3.1.9,5.1,5.1,0,0,0-2.3-2.3,5.5,5.5,0,0,0-3.1-.8A6.1,6.1,0,0,0,349,123.1Z"/>
              <path class="cls-27" d="M337.5,129.4a5.1,5.1,0,0,0,3.1.9,5.6,5.6,0,0,0-2.3-2.3,5.7,5.7,0,0,0-3.1-.8A5.4,5.4,0,0,0,337.5,129.4Z"/>
              <path class="cls-19" d="M327.2,110a9.4,9.4,0,0,0-1.1,5.1,9.5,9.5,0,0,0,3.4-3.9,9.3,9.3,0,0,0,1-5.1A9.4,9.4,0,0,0,327.2,110Z"/>
              <path class="cls-19" d="M330.7,115.3a8.6,8.6,0,0,0-5,.5,7.9,7.9,0,0,0,4.7,2.1,9,9,0,0,0,5.1-.6A9.3,9.3,0,0,0,330.7,115.3Z"/>
              <path class="cls-19" d="M334.7,110.8a9,9,0,0,0-5.1.6,9.3,9.3,0,0,0,4.7,2,9,9,0,0,0,5.1-.5A8.6,8.6,0,0,0,334.7,110.8Z"/>
              <path class="cls-19" d="M329,119.9a8.5,8.5,0,0,0-4.8,1.8,8.4,8.4,0,0,0,5,.8,8.5,8.5,0,0,0,4.8-1.8A8.4,8.4,0,0,0,329,119.9Z"/>
              <path class="cls-28" d="M324.9,126a7.4,7.4,0,0,0-3.8,1.4,6.9,6.9,0,0,0,4,.6,6.6,6.6,0,0,0,3.7-1.4A7.6,7.6,0,0,0,324.9,126Z"/>
              <path class="cls-28" d="M321,122.4a7,7,0,0,0,.2,3.9,7.2,7.2,0,0,0,1.8-3.5,7.4,7.4,0,0,0-.2-4A8.1,8.1,0,0,0,321,122.4Z"/>
              <path class="cls-28" d="M316.4,125a6.6,6.6,0,0,0-1.1,3.8,6.3,6.3,0,0,0,2.8-2.8,7,7,0,0,0,1.1-3.8A6.8,6.8,0,0,0,316.4,125Z"/>
              <path class="cls-28" d="M309.5,127.1a6.4,6.4,0,0,0-3.2,2.4,6.3,6.3,0,0,0,3.9-.5,7.6,7.6,0,0,0,3.2-2.3A6.9,6.9,0,0,0,309.5,127.1Z"/>
              <path class="cls-19" d="M322.1,115.8a9.3,9.3,0,0,0,.7,5,9.3,9.3,0,0,0,1.9-4.7,8.7,8.7,0,0,0-.8-5.1A8.5,8.5,0,0,0,322.1,115.8Z"/>
              <path class="cls-19" d="M339.1,124.2a8.6,8.6,0,0,0-5.1,1.1,9.6,9.6,0,0,0,5,1.5,9.3,9.3,0,0,0,5-1.1A8.6,8.6,0,0,0,339.1,124.2Z"/>
              <path class="cls-19" d="M346.2,121.4a9.4,9.4,0,0,0-5.1-1.1,8.9,8.9,0,0,0,3.9,3.4,8.2,8.2,0,0,0,5,1.1A8.6,8.6,0,0,0,346.2,121.4Z"/>
              <path class="cls-19" d="M300.9,126.6a9.2,9.2,0,0,0-4.1,3.1,8.9,8.9,0,0,0,5.1-.7,9.2,9.2,0,0,0,4.1-3.1A8.8,8.8,0,0,0,300.9,126.6Z"/>
              <path class="cls-27" d="M313.1,123.9a5.3,5.3,0,0,0,0-3.3,7.1,7.1,0,0,0-1.6,2.9,5.8,5.8,0,0,0,0,3.2A5.5,5.5,0,0,0,313.1,123.9Z"/>
              <path class="cls-27" d="M313.1,117.6a5.3,5.3,0,0,0,0-3.3,7.4,7.4,0,0,0-1.6,2.8,6.1,6.1,0,0,0,0,3.3A5.5,5.5,0,0,0,313.1,117.6Z"/>
              <path class="cls-27" d="M326.5,108.1a5.8,5.8,0,0,0-.7-3.2,6.3,6.3,0,0,0-1,3.1,6.1,6.1,0,0,0,.7,3.2A6.3,6.3,0,0,0,326.5,108.1Z"/>
              <path class="cls-27" d="M334.2,124.3a6.7,6.7,0,0,0,2.1-2.5,5.8,5.8,0,0,0-3,1.1,5.4,5.4,0,0,0-2.2,2.4A5.9,5.9,0,0,0,334.2,124.3Z"/>
              <path class="cls-27" d="M326.5,125.2a5.4,5.4,0,0,0,2.2-2.4,5.9,5.9,0,0,0-3.1,1,5.8,5.8,0,0,0-2.1,2.5A5.8,5.8,0,0,0,326.5,125.2Z"/>
              <path class="cls-28" d="M309.8,121.6a6.1,6.1,0,0,0-3.2-2.4,7.9,7.9,0,0,0,4.8,6A7,7,0,0,0,309.8,121.6Z"/>
              <path class="cls-28" d="M335.3,128.1a7.3,7.3,0,0,0-3.1-2.4,7.1,7.1,0,0,0,1.5,3.7,7.5,7.5,0,0,0,3.2,2.4A6.5,6.5,0,0,0,335.3,128.1Z"/>
              <path class="cls-28" d="M334.6,106.6a6.7,6.7,0,0,0,.8-3.9,7.2,7.2,0,0,0-2.6,3,6.7,6.7,0,0,0-.8,3.9A7.2,7.2,0,0,0,334.6,106.6Z"/>
              <path class="cls-19" d="M307.7,115.1l1.1,1.5c.2.5.6,1,.9,1.6a17.4,17.4,0,0,0,1,1.9c.3.7.5,1.4.8,2s.4,1.3.6,1.8a13,13,0,0,0,.3,1.3v.5c.1,0,0,.1-.1.1h-.1a1.6,1.6,0,0,0-.1-.4l-.5-1.3a4.1,4.1,0,0,0-.3-.8l-.3-.9-.9-1.9-.9-1.9-.8-1.7-.9-1.6a.1.1,0,0,1,.1-.1Z"/>
            </g>
          </g>
          <g>
            <g>
              <path class="cls-18" d="M117.8,129.4a4.2,4.2,0,0,1-4.2,4.2,4.3,4.3,0,1,1,0-8.5A4.2,4.2,0,0,1,117.8,129.4Z"/>
              <path class="cls-18" d="M135.6,120a4.3,4.3,0,0,1-8.5,0,4.3,4.3,0,1,1,8.5,0Z"/>
              <path class="cls-18" d="M143.9,129.8a4.3,4.3,0,1,1-4.3-4.3A4.2,4.2,0,0,1,143.9,129.8Z"/>
              <circle class="cls-18" cx="115.1" cy="123.8" r="2.8"/>
              <circle class="cls-18" cx="124.6" cy="118.7" r="2.8"/>
              <circle class="cls-18" cx="136.1" cy="122.7" r="2.8"/>
              <circle class="cls-18" cx="118.1" cy="121" r="1.8"/>
              <circle class="cls-18" cx="120.6" cy="119.4" r="1.8"/>
              <path class="cls-18" d="M142,124.6a1.8,1.8,0,0,1-3.6,0,1.8,1.8,0,1,1,3.6,0Z"/>
              <path class="cls-18" d="M140.2,130v-5.4l-3.7-2.2-4.9-1.1-4.5-1.3-2.3-.8-3,.9s-1.6-.4-2.1,0l-2.5,1.9-2.1,1.8-.7,5.6,1.2,3.7,6.3-.5,2.5.5,8.2.9"/>
              <path class="cls-29" d="M133.3,123.7a1.1,1.1,0,1,1-1.1-1.1A1.1,1.1,0,0,1,133.3,123.7Z"/>
              <path class="cls-29" d="M123,122.9a1.1,1.1,0,0,1-1.1,1.1,1.1,1.1,0,0,1,0-2.2A1.1,1.1,0,0,1,123,122.9Z"/>
              <path class="cls-29" d="M131.3,127a1.1,1.1,0,1,1-1.1-1.1A1.1,1.1,0,0,1,131.3,127Z"/>
              <path class="cls-30" d="M137.6,127.3a1.1,1.1,0,1,1-1.1-1.1A1.1,1.1,0,0,1,137.6,127.3Z"/>
              <path class="cls-30" d="M124.6,126.5a1.1,1.1,0,1,1-2.2,0,1.1,1.1,0,0,1,2.2,0Z"/>
              <circle class="cls-30" cx="126.6" cy="126.6" r="0.6"/>
              <path class="cls-31" d="M127.2,123.7a.6.6,0,1,1-.6-.6A.6.6,0,0,1,127.2,123.7Z"/>
              <path class="cls-31" d="M115.6,123.8a.5.5,0,0,1-.5.5c-.4,0-.6-.2-.6-.5a.5.5,0,0,1,.6-.6C115.4,123.2,115.6,123.4,115.6,123.8Z"/>
              <path class="cls-31" d="M120.2,120.7l-.3.3a.3.3,0,0,1-.3-.3.3.3,0,0,1,.3-.3A.3.3,0,0,1,120.2,120.7Z"/>
              <path class="cls-31" d="M124.3,118.8a.3.3,0,0,1-.3.3.3.3,0,0,1-.3-.3l.3-.3A.3.3,0,0,1,124.3,118.8Z"/>
              <path class="cls-31" d="M120.9,126.8a.3.3,0,0,1-.6,0,.3.3,0,1,1,.6,0Z"/>
              <path class="cls-31" d="M126.9,129.1a.3.3,0,1,1-.6,0,.3.3,0,0,1,.6,0Z"/>
              <path class="cls-31" d="M133.9,121a.3.3,0,0,1-.3.3.3.3,0,0,1-.3-.3.3.3,0,0,1,.3-.3Z"/>
              <path class="cls-31" d="M132.1,117.4a.3.3,0,0,1-.6,0c0-.1.1-.2.3-.2S132.1,117.3,132.1,117.4Z"/>
              <circle class="cls-31" cx="141.4" cy="128" r="0.3"/>
              <path class="cls-31" d="M129.7,124.3a.3.3,0,0,1-.6,0c0-.1.1-.2.3-.2S129.7,124.2,129.7,124.3Z"/>
              <circle class="cls-31" cx="129.1" cy="129" r="0.3"/>
              <path class="cls-31" d="M135,125.5a.3.3,0,0,1-.3.3.3.3,0,0,1-.3-.3l.3-.3A.3.3,0,0,1,135,125.5Z"/>
              <path class="cls-31" d="M115.4,129.4l-.3.3a.3.3,0,0,1-.3-.3.3.3,0,0,1,.3-.3A.3.3,0,0,1,115.4,129.4Z"/>
              <path class="cls-30" d="M121.2,130.1a.6.6,0,1,1-.6-.6A.6.6,0,0,1,121.2,130.1Z"/>
              <path class="cls-30" d="M119.3,123.7a.6.6,0,1,1-.6-.6A.6.6,0,0,1,119.3,123.7Z"/>
              <path class="cls-30" d="M113.2,128.4a.6.6,0,0,1-.6.6.6.6,0,0,1,0-1.2A.6.6,0,0,1,113.2,128.4Z"/>
              <path class="cls-30" d="M125.8,120c0,.3-.2.5-.6.5a.6.6,0,0,1-.6-.5.6.6,0,0,1,.6-.6A.5.5,0,0,1,125.8,120Z"/>
              <circle class="cls-30" cx="131.4" cy="119.4" r="0.6"/>
              <circle class="cls-30" cx="135.6" cy="123.3" r="0.6"/>
              <circle class="cls-30" cx="139.6" cy="127.7" r="0.6"/>
              <path class="cls-30" d="M140.4,124.3a.6.6,0,0,1-.6.6.6.6,0,0,1,0-1.2A.6.6,0,0,1,140.4,124.3Z"/>
              <path class="cls-30" d="M133.4,128.5a.6.6,0,0,1-1.2,0,.6.6,0,0,1,1.2,0Z"/>
              <path class="cls-30" d="M129.5,121.4a1.1,1.1,0,1,1-1.1-1.1A1.1,1.1,0,0,1,129.5,121.4Z"/>
              <path class="cls-30" d="M117.8,127.5a1.1,1.1,0,1,1-1.1-1.1A1.1,1.1,0,0,1,117.8,127.5Z"/>
            </g>
            <path class="cls-22" d="M123.3,131.7c-6.5,0-13,.5-12.8,1.6l2.5,10.3a3.5,3.5,0,0,0,3.4,2.7H138a3.5,3.5,0,0,0,3.4-2.7l2.5-10.3c.2-1.1-14.7-1.6-21.2-1.6Z"/>
            <path class="cls-23" d="M124.5,131.7c-4.5,0-9,.5-8.9,1.6l1.8,10.3c.2,1.6,1.2,2.7,2.3,2.7h15c1.1,0,2.1-1.1,2.3-2.7l1.8-10.3c.1-1.1-10.2-1.6-14.7-1.6Z"/>
            <rect class="cls-24" x="109.2" y="131.4" width="35.8" height="2.74"/>
            <g class="cls-10">
              <path class="cls-6" d="M113.6,132.6h27.3c0,.1,0,.2-.1.2H113.6c-.1,0-.1-.1-.1-.2Z"/>
            </g>
          </g>
          <rect class="cls-14" x="102" y="82.3" width="3" height="65.75"/>
          <rect class="cls-14" x="219.9" y="-40.9" width="1.5" height="244.8" transform="translate(302.1 -139.1) rotate(90)"/>
          <rect class="cls-14" x="336.1" y="82.3" width="3" height="65.75"/>
          <line class="cls-32" x1="103.5" y1="89.3" x2="337.6" y2="89.3"/>
          <rect class="cls-14" x="100.5" y="81.5" width="2.9" height="7.73"/>
          <rect class="cls-14" x="338" y="81.7" width="2.9" height="7.73"/>
          <line class="cls-33" x1="112.6" y1="82.3" x2="112.6" y2="147.6"/>
          <line class="cls-33" x1="122.4" y1="82.3" x2="122.4" y2="147.6"/>
          <line class="cls-33" x1="132.2" y1="82.3" x2="132.2" y2="147.6"/>
          <line class="cls-33" x1="142" y1="82.3" x2="142" y2="147.6"/>
          <line class="cls-33" x1="151.8" y1="82.3" x2="151.8" y2="147.6"/>
          <line class="cls-33" x1="161.6" y1="82.3" x2="161.6" y2="147.6"/>
          <line class="cls-33" x1="171.4" y1="82.3" x2="171.4" y2="147.6"/>
          <line class="cls-33" x1="181.2" y1="82.3" x2="181.2" y2="147.6"/>
          <line class="cls-33" x1="191.1" y1="82.3" x2="191.1" y2="147.6"/>
          <line class="cls-33" x1="200.9" y1="82.3" x2="200.9" y2="147.6"/>
          <line class="cls-33" x1="210.7" y1="82.3" x2="210.7" y2="147.6"/>
          <line class="cls-33" x1="220.5" y1="82.3" x2="220.5" y2="147.6"/>
          <line class="cls-33" x1="230.3" y1="82.3" x2="230.3" y2="147.6"/>
          <line class="cls-33" x1="240.1" y1="82.3" x2="240.1" y2="147.6"/>
          <line class="cls-33" x1="249.9" y1="82.3" x2="249.9" y2="147.6"/>
          <line class="cls-33" x1="259.7" y1="82.3" x2="259.7" y2="147.6"/>
          <line class="cls-33" x1="269.5" y1="82.3" x2="269.5" y2="147.6"/>
          <line class="cls-33" x1="279.3" y1="82.3" x2="279.3" y2="147.6"/>
          <line class="cls-33" x1="289.1" y1="82.3" x2="289.1" y2="147.6"/>
          <line class="cls-33" x1="298.9" y1="82.3" x2="298.9" y2="147.6"/>
          <line class="cls-33" x1="308.7" y1="82.3" x2="308.7" y2="147.6"/>
          <line class="cls-33" x1="318.5" y1="82.3" x2="318.5" y2="147.6"/>
          <line class="cls-33" x1="328.3" y1="82.3" x2="328.3" y2="147.6"/>
          <g>
            <path class="cls-34" d="M167.9,86.1a24.3,24.3,0,0,0-3.3-3.8,2.3,2.3,0,0,1,3.6.6l-1.5-4.6a7.2,7.2,0,0,1,3.3,4.3c-.1-1.3-.1-2.7-.2-4.1.9,1.1,1.9,2.1,2.8,3.1l-.6-2.7a2.1,2.1,0,0,1,2.6,2,15.7,15.7,0,0,1,.6-5.3,12.4,12.4,0,0,1,1.2,5.3,5.7,5.7,0,0,1,3.6-3.2,5.8,5.8,0,0,1-1,3.8c1.8-1.1,3.9-2.4,5.9-1.7l-2.6,2.5a15.7,15.7,0,0,1,6.1.1l-3.1.9c1.4,0,3,1,2.8,2.3a5.7,5.7,0,0,0-5.5,1.1c-.2.2-.4.4-.3.6s.5-.1.2-.2"/>
            <polygon class="cls-35" points="184.9 88.7 181.2 102.2 175.7 102.2 170.1 102.2 166.4 88.7 184.9 88.7"/>
            <path class="cls-36" d="M185.1,88.6l-1.8,6.9-1.8,6.7v.2H169.9v-.2l-3.7-13.5v-.4h19.1Zm-.3.2H166.4l.3-.4,3.7,13.5-.3-.2h11.1l-.2.2,1.9-6.7Z"/>
            <rect class="cls-37" x="165.6" y="84.4" width="20.1" height="6.18" rx="0.6" ry="0.6"/>
            <path class="cls-36" d="M166.8,84.3h17.7l.6.2a1.5,1.5,0,0,1,.9,1v4.2a1.9,1.9,0,0,1-.2.7,1.7,1.7,0,0,1-1.3.7H166.2a1.7,1.7,0,0,1-.6-.6,2.8,2.8,0,0,1-.1-.9V85.4a.5.5,0,0,1,.2-.4,1,1,0,0,1,.5-.6Zm0,.2h-.5a1,1,0,0,0-.4.5c-.2.2-.2.4-.2.8v3.2a2.2,2.2,0,0,0,.1.8,1,1,0,0,0,.6.5h18.1a1.2,1.2,0,0,0,.8-.4.6.6,0,0,0,.1-.4V85.4a.6.6,0,0,0-.5-.6H166.8Z"/>
          </g>
          <g>
            <path class="cls-34" d="M319.8,86.7a20,20,0,0,0-2.7-3.1,2,2,0,0,1,3,.5c-.4-1.3-.9-2.6-1.3-3.9a5.7,5.7,0,0,1,2.7,3.6c0-1.1-.1-2.2-.1-3.3l2.3,2.5a17.4,17.4,0,0,0-.5-2.2,1.7,1.7,0,0,1,2.1,1.6,10.9,10.9,0,0,1,.6-4.4,13.4,13.4,0,0,1,1,4.5,4.6,4.6,0,0,1,2.9-2.7,4.8,4.8,0,0,1-.8,3.1c1.5-.9,3.2-1.9,4.9-1.3l-2.2,2a12.5,12.5,0,0,1,5.1.1l-2.6.7c1.2,0,2.5.8,2.3,1.9a5.1,5.1,0,0,0-4.6.9c-.1.2-.3.3-.2.5s.4-.1.2-.1"/>
            <polygon class="cls-35" points="333.9 88.9 330.8 100 326.2 100 321.6 100 318.6 88.9 333.9 88.9"/>
            <path class="cls-36" d="M334,88.9l-3,11.2h-9.5v-.2l-3-11.2v-.2H334Zm-.2.1H318.6l.2-.3c1,3.7,2.1,7.4,3.1,11.2l-.3-.2h9.2l-.2.2C331.7,96.3,332.7,92.6,333.8,89Z"/>
            <rect class="cls-37" x="317.9" y="85.3" width="16.6" height="5.11" rx="0.5" ry="0.5"/>
            <path class="cls-36" d="M318.9,85.2h15.2a1.6,1.6,0,0,1,.7.9v3.4a1.4,1.4,0,0,1-.2.6,1.1,1.1,0,0,1-1,.6H318.5a.9.9,0,0,1-.6-.6,1.7,1.7,0,0,1-.1-.7V86.6a1.1,1.1,0,0,1,.2-.8l.4-.4Zm0,.2h-.4a1.2,1.2,0,0,0-.5,1.1v2.6c0,.3,0,.5.1.6a.7.7,0,0,0,.5.4h15a.7.7,0,0,0,.6-.3.6.6,0,0,0,.1-.4V86.2a.7.7,0,0,0-.4-.6h-15Z"/>
          </g>
          <g>
            <path class="cls-34" d="M241.2,86.5a23.8,23.8,0,0,0-3.2-3.8,2.3,2.3,0,0,1,3.6.6c-.5-1.6-1.1-3.1-1.6-4.6a6.8,6.8,0,0,1,3.3,4.3c0-1.3-.1-2.7-.2-4.1L246,82c-.2-.9-.5-1.8-.7-2.7a2.1,2.1,0,0,1,2.6,2,13.6,13.6,0,0,1,.7-5.3,16.3,16.3,0,0,1,1.2,5.3,5.6,5.6,0,0,1,3.5-3.2,5.2,5.2,0,0,1-1,3.8c1.8-1.1,3.9-2.4,6-1.7l-2.7,2.4a16.1,16.1,0,0,1,6.2.2l-3.1.9c1.3,0,2.9,1,2.7,2.3a5.8,5.8,0,0,0-5.5,1.1c-.2.2-.4.4-.3.6s.5-.2.3-.2"/>
            <polygon class="cls-35" points="258.3 89.1 254.6 102.6 249 102.6 243.4 102.6 239.7 89.1 258.3 89.1"/>
            <path class="cls-36" d="M258.4,89l-1.8,6.9-1.8,6.7v.2H243.2v-.2l-3.7-13.5v-.4h19Zm-.3.2H239.7l.3-.4,3.7,13.5-.3-.2h11.2l-.3.2,1.9-6.7Z"/>
            <rect class="cls-37" x="238.9" y="84.8" width="20.1" height="6.18" rx="0.6" ry="0.6"/>
            <path class="cls-36" d="M240.1,84.7h17.7l.7.2a1.6,1.6,0,0,1,.8,1v4.2a1.9,1.9,0,0,1-.2.7,1.4,1.4,0,0,1-1.2.7H239.6c-.3-.1-.5-.4-.7-.6a2.8,2.8,0,0,1-.1-.9V85.8l.2-.4a1,1,0,0,1,.5-.6Zm0,.2h-.5l-.4.5a1.7,1.7,0,0,0-.1.8v3.2a2.2,2.2,0,0,0,.1.8l.5.5c.2.1.5,0,.8,0h17.4a.8.8,0,0,0,.7-.4c.1-.1.1-.3.2-.4V85.8a.9.9,0,0,0-.6-.6H240.1Z"/>
          </g>
          <g>
            <path class="cls-38" d="M262.3,78.8a.9.9,0,0,0-.5,1h.3a.4.4,0,0,0,.4.6,1.2,1.2,0,0,0,.8-.4c.1.3.4.7.8.6s.5-.4.7-.4h.4a.6.6,0,0,0,.6-.8.8.8,0,0,0,.6-.4c.1-.3.1-.6-.2-.7a.4.4,0,0,0,.1-.7.7.7,0,0,0-.6-.3.6.6,0,0,0-.7.1c.2,0,.4-.1.4-.2a.9.9,0,0,0-1-.2,1,1,0,0,0-.6.9C263.8,79.1,262.9,78.5,262.3,78.8Z"/>
            <path class="cls-38" d="M275.6,78.6c-.2-.3-.7-.1-.8.2a.5.5,0,0,0,.6.7,1,1,0,0,0-.2.9.6.6,0,0,0,.8.3.4.4,0,0,0,.6.4c.3-.1.4-.4.6-.7a.6.6,0,0,0,.7.2.6.6,0,0,0,.3-.7l.2.2a.6.6,0,0,0,.1-.7l-.5-.5a2.3,2.3,0,0,0-1.6-.4.4.4,0,0,0,0-.6.6.6,0,0,0-.7.2,1.9,1.9,0,0,0-.2.8"/>
            <path class="cls-39" d="M262.7,85.7l-1.8-1.6c-.6-.6-1.4-1.6-.8-2.3a1.9,1.9,0,0,1,1.8-.4,1.7,1.7,0,0,1,2.4-1.4,2.4,2.4,0,0,1,.9-1.8,1.3,1.3,0,0,1,1.8.2,4.1,4.1,0,0,1,2-1.7.9.9,0,0,1,.7,0c.4.2.3.9.6,1.3a1.1,1.1,0,0,0,1.3.3,3.1,3.1,0,0,0,1.1-.9,1.8,1.8,0,0,1,.5,1.6,1.6,1.6,0,0,1,1.8-.5c.6.3.8,1.4.2,1.7a2.1,2.1,0,0,1,2.3-.1c.7.4.7,1.7-.1,1.9a2,2,0,0,1,1.7-.1c-.4,1.8-2.5,2.4-3.7,3.6a5.1,5.1,0,0,0-.9,1.6"/>
            <path class="cls-38" d="M264.8,82.2a.5.5,0,0,1-.6-.1l-.6-.4a.7.7,0,0,0-.8.3.7.7,0,0,0,.1.9h.1c.1.2-.1.3-.2.4a.7.7,0,0,0,.2.9c.3.2.7-.1,1.1-.2h.3c.1.1.1.3.3.4s.3,0,.4-.2.1-.2.3-.3.7,0,1.1-.1.4-.3.6-.5a1.3,1.3,0,0,0,.1-.6.3.3,0,0,0-.4-.2.6.6,0,0,0,.6-.6.8.8,0,0,0-.3-.8.8.8,0,0,0-.9.3l-.5-.2c0,.2,0,.5-.2.6h-.4c-.1.1-.2.3-.1.3"/>
            <path class="cls-38" d="M270.4,82.9c.4.2.7-.1,1.1-.2a.6.6,0,0,0,.5.6.6.6,0,0,0,.7-.3,1.1,1.1,0,0,0,1.1.3.8.8,0,0,0,.7-.8.7.7,0,0,0,.7-.2.8.8,0,0,0-.2-.8l-.9-.4a1.5,1.5,0,0,0-.2-.9.4.4,0,0,0-.7.1,1.2,1.2,0,0,0-1-.2c-.4.2-.4.8-.4,1.3S269.3,82.3,270.4,82.9Z"/>
            <path class="cls-38" d="M268.1,79.2c-.1-.2-.5-.1-.6.1a.4.4,0,0,0,.2.6h.6c.2.1.2.5.4.5s.3-.1.5-.1.5.1.7.1.5-.3.4-.5a1.3,1.3,0,0,0,1-.3c.3-.3.5-.7.3-1a.5.5,0,0,0-.5-.3.6.6,0,0,0,.3-.8,1.3,1.3,0,0,0-.7-.5c-.4-.1-1.1,0-1.2.5s-.4.1-.5.3,0,.4,0,.7a1.4,1.4,0,0,0-.8-.5,2.5,2.5,0,0,1-.2,1.2"/>
            <polygon class="cls-40" points="276.8 88.2 273.9 98.7 269.6 98.7 265.3 98.7 262.4 88.2 276.8 88.2"/>
            <path class="cls-41" d="M276.9,88.1l-1.4,5.4-1.4,5.3H265c-.9-3.5-1.9-7-2.8-10.6V88h14.8Zm-.2.2H262.4l.2-.3c.9,3.5,1.9,7,2.9,10.6l-.2-.2h8.6v.2l1.4-5.3Z"/>
            <rect class="cls-42" x="261.7" y="84.8" width="15.7" height="4.82" rx="0.5" ry="0.5"/>
            <path class="cls-41" d="M262.7,84.8H277a1.1,1.1,0,0,1,.6.9.9.9,0,0,1,.1.5v2.7a1.4,1.4,0,0,1-.2.6,1.2,1.2,0,0,1-1,.5H262.2l-.5-.5a1.7,1.7,0,0,1-.1-.7V88c0-.8.1-1.4.1-2a.9.9,0,0,1,.1-.7c.1-.2.3-.4.4-.4A.5.5,0,0,1,262.7,84.8Zm0,.1h-.4a1,1,0,0,0-.5,1v2a.7.7,0,0,1,.1.5.6.6,0,0,0,0,.6l.4.4h14.2a.6.6,0,0,0,.6-.3.4.4,0,0,0,.1-.3V85.6a.7.7,0,0,0-.4-.5H262.7Z"/>
          </g>
          <g>
            <path class="cls-39" d="M148.9,89.2l-.3-.3a11.6,11.6,0,0,0-5.3-1.8c-.4-.1-1.8-.2-.9-.6l1.4-.4h1.9a5.7,5.7,0,0,1,3.4,1.8c-.6-.7-1.3-1.3-1.8-2a14.9,14.9,0,0,1-1.4-2.4,13.4,13.4,0,0,1-1.4-5.3c0-.3-.3-1.7.1-1.9a.4.4,0,0,1,.4.2c0,.1.1.3.1.4a1.6,1.6,0,0,0,.4.7,6.3,6.3,0,0,0,.4.9,3.6,3.6,0,0,0,.4.9,10.8,10.8,0,0,0,.8,1.9,30.1,30.1,0,0,0,1.6,3.1c.6,1,1,2.1,1.5,3.1a15.7,15.7,0,0,1,.1-5.3,6.1,6.1,0,0,1,.5-1.2c.1-.1.4-.9.5-.9s.1,1.2.1,1.4-.1,1-.1,1.5a15.1,15.1,0,0,0,.2,3c0,.4.2.9.6.9s1.6-5.5,2-6.5l.7-1.4a7.5,7.5,0,0,1,.6-1.3s.1-.1.1,0h.1c.4,1.8-.5,7.3-.6,9.1,0-.1.4-.5.5-.6l.5-.7a10.1,10.1,0,0,0,.7-1.5,9.4,9.4,0,0,0,.4-1.6,7.6,7.6,0,0,0,.1-1.5.2.2,0,0,1,.2.2,18.4,18.4,0,0,1,.5,5.2c0-.3.7-1.1.8-1.5a6.6,6.6,0,0,0,.9-1.9,15.9,15.9,0,0,0,.7-2l.3-1.1c0-.1.2-.6.4-.6l.2.5a2.8,2.8,0,0,1,.1.9,7.7,7.7,0,0,1-.6,3.3,8.8,8.8,0,0,1-2.6,4.2c-1.3,1.1-3,1.8-4.2,3.1l.5-.6"/>
            <path class="cls-43" d="M153.9,91.4h0v-.2l.5-.6h.2l1.7-1.2,1.8-1.3a9.3,9.3,0,0,0,2.6-4.1,9.2,9.2,0,0,0,.6-3.3,1.9,1.9,0,0,0-.1-.8h0l-.2-.4-.2.5-.3,1.1h-.1a7.6,7.6,0,0,1-.6,2,15.4,15.4,0,0,1-.8,1.9l-.4.5a2.8,2.8,0,0,0-.5.9h-.2a22.1,22.1,0,0,0-.5-5.1v.2a3.4,3.4,0,0,1-.1,1,7.5,7.5,0,0,1-.4,1.6,7.7,7.7,0,0,1-.7,1.6l-.5.7-.2.2-.3.4H155c-.1,0-.1-.1-.1-.2s.1-1.4.2-2.4a34.2,34.2,0,0,0,.4-6.7,2.5,2.5,0,0,0-.4.9l-.2.3-.6,1.5a15.8,15.8,0,0,0-1.1,3.2c-.4,1.4-.8,2.7-1,3.2h-.1c-.5,0-.7-.5-.8-1s-.1-2-.1-3a7.1,7.1,0,0,1,.1-1.4h0v-.2c.1-.8.1-1,0-1.1s-.3.6-.3.7v.2a11.7,11.7,0,0,0-.5,1.1,15.7,15.7,0,0,0-.1,5.3h-.1c0,.1-.1,0-.1,0l-.4-.9c-.4-.8-.7-1.5-1.1-2.2s-1.1-2.1-1.6-3.1l-.9-1.9a.4.4,0,0,0-.1-.3,2.5,2.5,0,0,0-.2-.7h-.1a4.9,4.9,0,0,0-.3-.7h-.1a.4.4,0,0,0-.1-.3c-.1-.1-.1-.3-.2-.4s0-.2-.1-.2v-.3h-.2c-.2.1-.2.6-.1,1.6v.2a14.4,14.4,0,0,0,1.4,5.3,10.9,10.9,0,0,0,1.4,2.3,6.9,6.9,0,0,0,1.1,1.3l.7.7c0,.1,0,.1-.1.2H149a5.2,5.2,0,0,0-3.3-1.8,6,6,0,0,0-1.9,0l-1.3.4h-.2l.8.2h.2a12.2,12.2,0,0,1,5.3,1.9l.3.3a.1.1,0,0,1,.1.1h-.2l-.3-.3a11.6,11.6,0,0,0-5.2-1.8h-.2c-.7-.1-1-.2-1.1-.4s.2-.3.4-.4l1.3-.4h2a6.5,6.5,0,0,1,2.1.7l-.6-.8a10.9,10.9,0,0,1-1.4-2.3,14.9,14.9,0,0,1-1.4-5.4V78c0-.8-.1-1.6.2-1.8a.5.5,0,0,1,.6.2.4.4,0,0,0,.1.3v.2a.5.5,0,0,1,.2.4v.2l.4.8h.1l.3.7a.4.4,0,0,0,.1.3,15.4,15.4,0,0,0,.8,1.9c.5,1,1,2.1,1.6,3.1a15.1,15.1,0,0,1,1.1,2.2v.2a14.1,14.1,0,0,1,.2-4.6,3.3,3.3,0,0,1,.5-1.2v-.2c.3-.5.4-.8.6-.8h.2c.2.1.1.6,0,1.2v.4c0,.4-.1.9-.1,1.3a15.1,15.1,0,0,0,.2,3c0,.3.1.7.4.8a32.3,32.3,0,0,0,1-3.2c.4-1.4.8-2.7,1-3.2l.7-1.5c0-.1.1-.2.1-.3a3.6,3.6,0,0,1,.5-.9l.2-.2c.1.1.2.1.2.3s-.1,4.3-.3,6.7a19.1,19.1,0,0,0-.2,2h.1c0-.1.1-.1.1-.2l.5-.7a10.7,10.7,0,0,0,.7-1.5,7.5,7.5,0,0,0,.4-1.6,2.8,2.8,0,0,0,.1-.9V81h.1c.2,0,.3.1.3.2a19.3,19.3,0,0,1,.5,4.7l.3-.5a.5.5,0,0,0,.3-.4,16.3,16.3,0,0,0,.9-1.9,13.9,13.9,0,0,0,.6-1.9v-.2l.3-1c.2-.8.4-.7.5-.7s.1.1.3.6h0c.1.3.1.5.2.9a11.4,11.4,0,0,1-.6,3.3,9.6,9.6,0,0,1-2.7,4.3l-1.9,1.3L154,91.3C154,91.4,154,91.4,153.9,91.4Z"/>
            <path class="cls-44" d="M157.3,83.9a2.8,2.8,0,0,1,.1.8,10.4,10.4,0,0,1-.2,1.5l-.3.8a4.3,4.3,0,0,1-.4.7c-.1,0-.1.1-.2.2h-.4c0,.1-.1.1-.1,0h.1l.3-.4.3-.7a1.9,1.9,0,0,1,.2-.7l.3-1.5.2-.7Z"/>
            <path class="cls-44" d="M155,79.9a5.3,5.3,0,0,1-.2,1.3c-.1.8-.3,1.8-.4,2.8s-.4,2-.5,2.8a3.4,3.4,0,0,0-.1.9,1,1,0,0,1-.1.4h0a.1.1,0,0,1-.1-.1,1,1,0,0,1-.1-.4v-.9c.1-.8.2-1.8.4-2.9s.4-2,.6-2.7l.3-1.3s.1-.1.1,0Z"/>
            <path class="cls-44" d="M150.8,83.1a2.8,2.8,0,0,1,.1.8c0,.5.1,1.1.1,1.7a3.1,3.1,0,0,1,.1.9c.1.3.1.6.2.8a.4.4,0,0,0,.1.3c0,.1,0,.2.1.2a.3.3,0,0,0,.1.2h-.1c0,.1,0,.1-.1,0h-.1l-.2-.3c-.1,0-.1-.1-.2-.3a1.9,1.9,0,0,1-.2-.8c-.1-.3-.1-.6-.2-.9a9.7,9.7,0,0,1,.1-1.8,2.8,2.8,0,0,1,.1-.8h.1Z"/>
            <polygon class="cls-45" points="159 91.1 156.1 101.6 151.7 101.6 147.4 101.6 144.5 91.1 159 91.1"/>
            <path class="cls-46" d="M159.1,91l-1.4,5.4-1.4,5.3h-9.1c-1-3.5-1.9-7-2.9-10.6v-.2h14.8Zm-.2.2H144.5l.2-.3c1,3.5,2,7,2.9,10.6l-.2-.2h8.7l-.2.2,1.5-5.3Z"/>
            <rect class="cls-47" x="143.9" y="87.7" width="15.7" height="4.82" rx="0.5" ry="0.5"/>
            <path class="cls-46" d="M144.8,87.7h14.3a1.3,1.3,0,0,1,.7.9v3.2a.7.7,0,0,1-.2.6,1.1,1.1,0,0,1-.9.5H144.4a1.2,1.2,0,0,1-.5-.5,1.7,1.7,0,0,1-.1-.7V88.9a1.7,1.7,0,0,1,.1-.7c.1-.2.3-.4.4-.4A.5.5,0,0,1,144.8,87.7Zm0,.1h-.4a1.1,1.1,0,0,0-.4,1v2.5a1.1,1.1,0,0,0,.1.6.8.8,0,0,0,.4.4h14.2a.9.9,0,0,0,.6-.3V88.5a1,1,0,0,0-.4-.5H144.8Z"/>
          </g>
          <g>
            <path class="cls-48" d="M115.9,78.7a6.9,6.9,0,0,0,2.3-5.4,2.5,2.5,0,0,0-1.7.3,1.7,1.7,0,0,0-.5-2c-.6-.3-1.6.3-1.4,1a1.8,1.8,0,0,0-2.5-1.6,1.7,1.7,0,0,0-.3,2.8c0-.4-.8-.5-1.1-.1a2.2,2.2,0,0,0,0,1.4,11,11,0,0,0,3.9,5.5,2.8,2.8,0,0,0,.6-1.8"/>
            <path class="cls-49" d="M118.8,84.2a5.3,5.3,0,0,0,3-4.6,1.7,1.7,0,0,0-.3-1.4.9.9,0,0,0-1.3-.2,3.4,3.4,0,0,0-2.6-2.7,3.5,3.5,0,0,0-3.5,1.3,4.2,4.2,0,0,0-3.9-3,3.2,3.2,0,0,0-2.4,1.1,2.1,2.1,0,0,0-.2,2.5c.1-.6-.8-1-1.3-.8a2,2,0,0,0-1,1.5,4.3,4.3,0,0,0,.4,2.5,1.7,1.7,0,0,0-2,.2,1.5,1.5,0,0,0-.6,2,3,3,0,0,0,.8.8,15.7,15.7,0,0,0,4.5,2.2c2.3.5,4.7-.1,6.9-.6"/>
            <polygon class="cls-50" points="121.9 86.8 118.2 100.3 112.7 100.3 107.1 100.3 103.4 86.8 121.9 86.8"/>
            <path class="cls-51" d="M122.1,86.7l-1.8,6.9-1.8,6.8v.2H106.9v-.2l-3.6-13.5v-.3h19Zm-.3.2H103.4l.3-.3,3.7,13.4-.3-.2h11.1l-.2.2,1.9-6.8Z"/>
            <rect class="cls-52" x="102.6" y="82.6" width="20.1" height="6.18" rx="0.6" ry="0.6"/>
            <path class="cls-49" d="M103.8,82.4h18.3a1.4,1.4,0,0,1,.9,1.1v4.1a1.4,1.4,0,0,1-.2.7,1.3,1.3,0,0,1-1.2.7H103.3a1.6,1.6,0,0,1-.7-.7,2.5,2.5,0,0,1-.1-.8V83.5a.8.8,0,0,1,.2-.4.8.8,0,0,1,.5-.5Zm0,.3a.5.5,0,0,0-.5.1c-.1.1-.3.2-.4.4s-.2.5-.2.9.1,1.5.1,2.4v.8a1.5,1.5,0,0,0,.1.7,1.2,1.2,0,0,0,.5.5h18.2a.8.8,0,0,0,.7-.4c.1-.1.1-.2.1-.4V87c0-.8.1-1.5.1-2.3v-.6a1.6,1.6,0,0,0-.6-1.2H103.8Z"/>
          </g>
          <g>
            <path class="cls-34" d="M302.9,87.8a18,18,0,0,0-2-1.9,1.3,1.3,0,0,1,2,.1l-1.2-2.4a3.6,3.6,0,0,1,2.1,2.1l-.3-2.2,1.7,1.5-.5-1.4a1.1,1.1,0,0,1,1.5.9,10.1,10.1,0,0,1,.1-3,10,10,0,0,1,1,2.9,2.7,2.7,0,0,1,1.7-2,2.6,2.6,0,0,1-.3,2.1c.9-.7,2-1.5,3.1-1.3l-1.2,1.5a9.3,9.3,0,0,1,3.3-.3l-1.6.7c.7-.1,1.7.3,1.6,1.1a2.9,2.9,0,0,0-2.9.9c-.1.1-.2.3-.1.4s.2-.1.1-.1"/>
            <polygon class="cls-50" points="312.2 89.5 310 97.4 306.8 97.4 303.5 97.4 301.3 89.5 312.2 89.5"/>
            <path class="cls-51" d="M312.3,89.4l-1.1,4.1-1.1,3.9h-6.8l-2.1-7.9v-.2h11.1Zm-.2.1H301.3l.2-.2c.7,2.7,1.5,5.3,2.2,7.9h6.2l1.1-3.9Z"/>
            <rect class="cls-52" x="300.9" y="87" width="11.8" height="3.61" rx="0.4" ry="0.4"/>
            <path class="cls-49" d="M301.6,86.9h10.7a1,1,0,0,1,.5.6v2.4c0,.2-.1.3-.1.5a1.2,1.2,0,0,1-.8.4H301.2c-.1-.1-.3-.2-.3-.4a.7.7,0,0,1-.1-.5V87.8c0-.1,0-.4.1-.5l.3-.3Zm0,.1h-.3a.6.6,0,0,0-.3.7v2.4l.3.2h10.6l.5-.2c0-.1.1-.2.1-.3V87.6c-.1-.2-.2-.4-.3-.4H301.6Z"/>
          </g>
          <g>
            <path class="cls-34" d="M127.7,88.4a17.1,17.1,0,0,0-2-1.8,1.3,1.3,0,0,1,2,0l-1.1-2.4a4.1,4.1,0,0,1,2.1,2.2l-.4-2.2,1.8,1.4-.6-1.4a1.2,1.2,0,0,1,1.6.9,7.1,7.1,0,0,1,0-2.9,9.4,9.4,0,0,1,1,2.8,3.1,3.1,0,0,1,1.7-2,2.9,2.9,0,0,1-.3,2.2c.9-.8,2-1.6,3.2-1.3l-1.3,1.5a7.8,7.8,0,0,1,3.4-.4l-1.7.7c.8-.1,1.7.4,1.7,1.1a3.3,3.3,0,0,0-3,1c-.1.1-.2.2-.1.3s.3-.1.1-.1"/>
            <polygon class="cls-53" points="137 90.1 134.8 98 131.6 98 128.3 98 126.2 90.1 137 90.1"/>
            <path class="cls-51" d="M137.1,90.1l-1.1,4L135,98h-6.8c-.8-2.7-1.5-5.3-2.2-7.9V90h11.1Zm-.2.1H126.2v-.2c.7,2.6,1.5,5.2,2.2,7.9l-.2-.2h6.4l1.1-4Z"/>
            <rect class="cls-54" x="125.7" y="87.6" width="11.8" height="3.61" rx="0.4" ry="0.4"/>
            <path class="cls-49" d="M126.4,87.6h10.7c.3.1.4.3.5.6v2.4a.6.6,0,0,1-.1.4.8.8,0,0,1-.7.4H126.1l-.4-.4a1.1,1.1,0,0,1-.1-.5V88.5a1.3,1.3,0,0,1,.1-.6l.3-.3Zm0,.1h-.3a.6.6,0,0,0-.3.7v1.9a.6.6,0,0,0,.1.4c0,.1.1.2.2.3h10.7a.5.5,0,0,0,.4-.3c.1-.1.1-.1.1-.2V88.2c0-.2-.1-.3-.3-.4H126.4Z"/>
          </g>
          <g>
            <path class="cls-34" d="M341.1,90.8a11.9,11.9,0,0,0-2-1.9,1.3,1.3,0,0,1,2,0l-1.2-2.4a3.8,3.8,0,0,1,2.1,2.2l-.3-2.2,1.7,1.4c-.2-.4-.3-.9-.5-1.3a1,1,0,0,1,1.5.8,9.4,9.4,0,0,1,0-2.9,7.3,7.3,0,0,1,1,2.8,3.5,3.5,0,0,1,1.8-2,4.1,4.1,0,0,1-.3,2.2c.9-.8,2-1.6,3.1-1.3l-1.3,1.5a8,8,0,0,1,3.4-.4l-1.6.7c.7-.1,1.7.4,1.6,1.1a3.2,3.2,0,0,0-2.9,1c-.1.1-.2.2-.1.3s.2-.1.1-.1"/>
            <polygon class="cls-53" points="350.4 92.4 348.2 100.3 344.9 100.3 341.7 100.3 339.5 92.4 350.4 92.4"/>
            <path class="cls-51" d="M350.4,92.4l-1,4-1.1,4h-6.8l-2.1-7.9v-.2h11.1Zm-.1.1H339.5l.2-.2c.7,2.6,1.5,5.2,2.2,7.9h6.2l1.1-4Z"/>
            <rect class="cls-54" x="339.1" y="89.9" width="11.8" height="3.61" rx="0.4" ry="0.4"/>
            <path class="cls-49" d="M339.8,89.9h10.7a1,1,0,0,1,.5.6v2.4c0,.2-.1.3-.1.4a.9.9,0,0,1-.8.4H340c-.2,0-.4.1-.6,0s-.3-.2-.3-.4a1.1,1.1,0,0,1-.1-.5V90.8a.7.7,0,0,1,.1-.5q.1-.3.3-.3A.4.4,0,0,1,339.8,89.9Zm0,.1h-.3a.7.7,0,0,0-.4.7v1.5a.6.6,0,0,1,.1.4c0,.2-.1.3,0,.4l.3.3h10.6a.5.5,0,0,0,.5-.3V90.5l-.3-.4H339.8Z"/>
          </g>
          <g>
            <path class="cls-38" d="M217.2,77.2a1,1,0,0,0-.6,1.1h.4a.5.5,0,0,0,.5.8,1.1,1.1,0,0,0,.9-.5c.2.4.6.9,1,.8s.6-.6.9-.5h.4a.8.8,0,0,0,.8-1,.8.8,0,0,0,.7-.5.7.7,0,0,0-.2-.9c.3-.1.3-.5.1-.8s-.4-.3-.7-.4-.7-.1-.8.2.4-.1.4-.3a1.1,1.1,0,0,0-1.2-.2,1.1,1.1,0,0,0-.7,1C219.1,77.5,218,76.8,217.2,77.2Z"/>
            <path class="cls-38" d="M233.5,76.9a.7.7,0,0,0-1.1.3c-.1.4.3.9.7.8a1.4,1.4,0,0,0-.2,1.1.7.7,0,0,0,1,.4c-.2.3.3.6.7.5a1.3,1.3,0,0,0,.7-.9.7.7,0,0,0,.9.2.7.7,0,0,0,.4-.8.2.2,0,0,0,.2.2.6.6,0,0,0,.1-.8,1.3,1.3,0,0,0-.6-.7,3.8,3.8,0,0,0-1.9-.5c.3-.1.2-.6,0-.7a.8.8,0,0,0-.9.3,2.9,2.9,0,0,0-.2.9"/>
            <path class="cls-39" d="M217.7,85.5l-2.1-1.9c-.9-.7-1.7-1.9-1.1-2.8a2.4,2.4,0,0,1,2.2-.5,2.2,2.2,0,0,1,2.9-1.8,2.9,2.9,0,0,1,1.1-2,1.8,1.8,0,0,1,2.3.1,4.8,4.8,0,0,1,2.4-2c.2-.1.6-.2.8,0s.4,1,.8,1.5a1.2,1.2,0,0,0,1.5.4,3.6,3.6,0,0,0,1.4-1,1.8,1.8,0,0,1,.5,1.8,2.5,2.5,0,0,1,2.3-.5c.8.4,1,1.6.3,2a2.8,2.8,0,0,1,2.8-.1c.8.5.8,2.1-.1,2.3a2.1,2.1,0,0,1,1.9,0c-.4,2.1-2.9,2.8-4.4,4.4a4.2,4.2,0,0,0-1.1,1.8"/>
            <polygon class="cls-45" points="234.6 88.4 230.9 101.9 225.3 101.9 219.8 101.9 216.1 88.4 234.6 88.4"/>
            <path class="cls-55" d="M234.7,88.3l-1.8,6.9-1.8,6.7v.2H219.6v-.3l-3.7-13.5v-.3h19Zm-.3.2H216.1l.2-.3,3.8,13.5-.3-.2h11.1l-.3.2,1.9-6.7Z"/>
            <rect class="cls-47" x="215.3" y="84.1" width="20.1" height="6.18" rx="0.6" ry="0.6"/>
            <path class="cls-56" d="M216.5,84h17.6l.7.2a1.2,1.2,0,0,1,.8,1,1.8,1.8,0,0,1,.1.6v3.6a1.9,1.9,0,0,1-.2.7,1.7,1.7,0,0,1-1.3.7H215.9a1.2,1.2,0,0,1-.6-.6,1.5,1.5,0,0,1-.2-.9,1.7,1.7,0,0,1,.1-.7v-3c0-.2.1-.3.1-.5l.6-.5A.7.7,0,0,1,216.5,84Zm0,.2H216a1.2,1.2,0,0,0-.5.5,1.7,1.7,0,0,0-.1.8v3.2a1.5,1.5,0,0,0,.1.7.8.8,0,0,0,.5.5h18.2a1.2,1.2,0,0,0,.8-.4c0-.2.1-.3.1-.4V85.1c0-.3-.2-.5-.5-.7H216.5Z"/>
            <path class="cls-38" d="M220.3,81.3c-.3.2-.6,0-.8-.1l-.6-.5a1.1,1.1,0,0,0-1.1.3.9.9,0,0,0,.2,1.1v.2c.1.1-.1.3-.3.4a.8.8,0,0,0,.3,1.1c.4.2.9-.1,1.4-.2h.2c.2.1.2.3.4.5s.4-.1.5-.2a1,1,0,0,1,.4-.5c.4-.2.9.1,1.3,0a1.2,1.2,0,0,0,.7-.7.6.6,0,0,0,.2-.7c-.1-.2-.3-.4-.5-.3a1,1,0,0,0,.8-.6.9.9,0,0,0-.5-1,.8.8,0,0,0-1,.3.7.7,0,0,0-.6-.2.9.9,0,0,1-.3.7h-.4c-.2,0-.3.2-.2.3"/>
            <path class="cls-38" d="M227.1,82.1c.5.3.9-.1,1.4-.2a.8.8,0,0,0,.5.7.9.9,0,0,0,.9-.3,1.3,1.3,0,0,0,1.3.3,1.2,1.2,0,0,0,.9-1,.5.5,0,0,0,.8-.2.8.8,0,0,0-.2-1l-1.1-.4a2,2,0,0,0-.2-1.1c-.2-.3-.8-.3-.9.1s-.8-.5-1.2-.3-.5,1-.4,1.6S225.7,81.4,227.1,82.1Z"/>
            <path class="cls-38" d="M224.3,77.6a.5.5,0,0,0-.8.1.5.5,0,0,0,.4.8c.2,0,.4-.1.6.1s.3.6.6.7l.5-.2c.3-.1.6.1.9.1s.6-.4.4-.6.9-.1,1.3-.4.6-.8.4-1.2-.4-.4-.6-.4a.6.6,0,0,0,.3-.9,1,1,0,0,0-.8-.6c-.6-.2-1.4,0-1.5.6s-.5.1-.6.3a1.1,1.1,0,0,0,0,.8,2.4,2.4,0,0,0-1-.5,2.6,2.6,0,0,1-.2,1.5"/>
          </g>
          <g>
            <path class="cls-38" d="M285.6,81.4a.9.9,0,0,0-.4.8h.2c-.1.2.1.5.4.5l.6-.3c.1.2.3.5.6.5s.3-.4.6-.4h.2c.3.1.6-.3.5-.6a.9.9,0,0,0,.5-.3.6.6,0,0,0-.1-.6.4.4,0,0,0,0-.5c-.1-.2-.3-.2-.5-.3h-.5a.2.2,0,0,0,.3-.1.8.8,0,0,0-.8-.2.8.8,0,0,0-.4.7C286.8,81.7,286.1,81.2,285.6,81.4Z"/>
            <path class="cls-38" d="M295.9,81.3a.4.4,0,0,0-.7.2c-.1.2.2.5.5.5a.8.8,0,0,0-.2.7c.1.2.5.4.6.2a.4.4,0,0,0,.5.3c.2,0,.4-.3.5-.5s.3.2.5.1.3-.3.3-.5a.1.1,0,0,0,.1.1c.2-.1.2-.3.1-.5l-.4-.4a1.7,1.7,0,0,0-1.2-.3c.2-.1.1-.4,0-.5s-.4,0-.6.2a1.3,1.3,0,0,0-.1.6"/>
            <path class="cls-39" d="M285.9,86.7l-1.3-1.2c-.6-.4-1.1-1.2-.7-1.7a1.4,1.4,0,0,1,1.4-.3,1.4,1.4,0,0,1,1.8-1.2,2.1,2.1,0,0,1,.7-1.3,1.1,1.1,0,0,1,1.4.1,3.4,3.4,0,0,1,1.6-1.3h.5c.3.2.3.7.5,1a.9.9,0,0,0,1,.3l.9-.7a1.3,1.3,0,0,1,.3,1.2,1.3,1.3,0,0,1,1.4-.4.8.8,0,0,1,.2,1.3,1.9,1.9,0,0,1,1.8-.1c.5.4.5,1.3-.1,1.5a1.3,1.3,0,0,1,1.2,0c-.2,1.3-1.8,1.8-2.8,2.7a7.5,7.5,0,0,0-.7,1.2"/>
            <polygon class="cls-45" points="296.6 88.6 294.3 97.1 290.7 97.1 287.2 97.1 284.9 88.6 296.6 88.6"/>
            <path class="cls-55" d="M296.7,88.5l-1.1,4.4-1.2,4.3h-7.3c-.9-2.9-1.6-5.7-2.4-8.6v-.2h12Zm-.2.1H284.9v-.2l2.4,8.6-.2-.2h6.9l1.2-4.3Z"/>
            <rect class="cls-47" x="284.4" y="85.8" width="12.7" height="3.91" rx="0.4" ry="0.4"/>
            <path class="cls-56" d="M285.1,85.8h11.6a.9.9,0,0,1,.6.6v2.7c0,.1-.1.3-.1.4a.7.7,0,0,1-.8.4H284.8c-.2-.1-.4-.2-.4-.4a1.3,1.3,0,0,1-.1-.6v-2a1.3,1.3,0,0,1,.1-.6l.3-.3Zm0,.1h-.3c-.2.1-.4.3-.3.8v2.5l.4.3h11.5c.2,0,.3-.1.4-.3a.3.3,0,0,0,.1-.2v-.4a7.6,7.6,0,0,1,.1-1.5c-.1-.2,0-.5-.1-.7s-.1-.4-.3-.4H285.1Z"/>
            <path class="cls-38" d="M287.5,84.1c-.1.1-.3,0-.4-.1l-.5-.3a.5.5,0,0,0-.6.2.6.6,0,0,0,.1.7.1.1,0,0,1,.1.1l-.2.3a.5.5,0,0,0,.1.7c.3.1.6-.1.9-.2h.2c.1.1.1.3.2.3s.3,0,.4-.1.1-.2.2-.3.5.1.8,0a.7.7,0,0,0,.5-.4.9.9,0,0,0,.1-.5l-.3-.2a.5.5,0,0,0,.5-.4.7.7,0,0,0-.3-.6.7.7,0,0,0-.7.2h-.3c-.1.1-.1.3-.2.4h-.3c-.1,0-.2.1-.1.2"/>
            <path class="cls-38" d="M291.9,84.6c.3.1.5-.1.8-.2a.5.5,0,0,0,.4.5c.2.1.4,0,.6-.2a.8.8,0,0,0,.8.2.6.6,0,0,0,.5-.6.4.4,0,0,0,.5-.1.5.5,0,0,0-.1-.7l-.7-.3c0-.2,0-.5-.1-.6s-.5-.2-.6,0a1.1,1.1,0,0,0-.8-.2.9.9,0,0,0-.2,1C292.5,83.3,291,84.2,291.9,84.6Z"/>
            <path class="cls-38" d="M290.1,81.8a.3.3,0,0,0-.5,0c-.1.2,0,.5.2.5h.4c.2.1.2.4.4.5h.3c.2-.1.4,0,.6,0s.4-.2.3-.3.5-.1.7-.3.5-.5.3-.8a.5.5,0,0,0-.4-.2.4.4,0,0,0,.2-.6c0-.2-.3-.3-.5-.4s-.9.1-.9.4-.4.1-.4.2a.6.6,0,0,0,0,.6,1,1,0,0,0-.7-.4,1,1,0,0,1-.1.9"/>
          </g>
          <g>
            <path class="cls-34" d="M99.2,90.4a11.9,11.9,0,0,1,2-1.9,1.3,1.3,0,0,0-2,.1l1.1-2.5a4.5,4.5,0,0,0-2.1,2.2l.4-2.2-1.8,1.5.6-1.4a1.2,1.2,0,0,0-1.6.9,7.6,7.6,0,0,0,0-3,10,10,0,0,0-1,2.9,3.3,3.3,0,0,0-1.7-2.1,2.8,2.8,0,0,0,.3,2.2c-.9-.8-2-1.6-3.2-1.3l1.3,1.5a7.8,7.8,0,0,0-3.4-.3l1.7.7c-.8-.2-1.7.3-1.7,1a3.3,3.3,0,0,1,3,1c.1.1.2.2.1.4s-.3-.2-.1-.2"/>
            <polygon class="cls-40" points="89.9 92 92.1 99.9 95.3 99.9 98.6 99.9 100.7 92 89.9 92"/>
            <path class="cls-51" d="M90,92.1,91.1,96l1.1,3.9h6.2l2.2-7.9v.2H90Zm-.2-.1h11.1v.2c-.7,2.6-1.4,5.3-2.2,7.9H91.9l-1-4Z"/>
            <rect class="cls-42" x="89.4" y="89.5" width="11.8" height="3.61" rx="0.4" ry="0.4" transform="translate(190.6 182.7) rotate(180)"/>
            <path class="cls-49" d="M100.5,89.6H89.9a.5.5,0,0,0-.3.4v2.4c0,.1,0,.2.1.2a.5.5,0,0,0,.4.3h10.6a.3.3,0,0,0,.3-.3c.1-.1.1-.2.1-.4V90.4a.6.6,0,0,0-.3-.7Zm0-.1h.4l.3.3a.7.7,0,0,1,.1.5v1.9a.9.9,0,0,1-.1.5l-.4.4H90.1a.8.8,0,0,1-.7-.4c-.1-.1-.1-.2-.1-.4V90.1c.1-.3.2-.5.5-.6h10.7Z"/>
          </g>
          <path class="cls-57" d="M98.7,99.9c0,.2-1.5.4-3.3.4s-3.3-.2-3.3-.4,1.4-.4,3.3-.4S98.7,99.7,98.7,99.9Z"/>
          <path class="cls-57" d="M118.4,100.5c0,.2-2.6.4-5.8.4s-5.8-.2-5.8-.4,2.6-.4,5.8-.4S118.4,100.3,118.4,100.5Z"/>
          <ellipse class="cls-57" cx="131.6" cy="98" rx="3.5" ry="0.3"/>
          <path class="cls-57" d="M156.2,101.6c0,.3-2,.4-4.4.4s-4.3-.1-4.3-.4,1.9-.4,4.3-.4S156.2,101.4,156.2,101.6Z"/>
          <path class="cls-57" d="M181.2,102.2c0,.3-2.5.6-5.6.6s-5.7-.3-5.7-.6,2.5-.6,5.7-.6S181.2,101.9,181.2,102.2Z"/>
          <path class="cls-57" d="M207.9,102.6c0,.2-2.6.4-5.7.4s-5.7-.2-5.7-.4,2.6-.4,5.7-.4S207.9,102.4,207.9,102.6Z"/>
          <path class="cls-57" d="M231,101.9c0,.2-2.5.4-5.7.4s-5.7-.2-5.7-.4,2.6-.4,5.7-.4S231,101.6,231,101.9Z"/>
          <path class="cls-57" d="M254.6,102.5c0,.2-2.6.4-5.7.4s-5.7-.2-5.7-.4,2.5-.4,5.7-.4S254.6,102.2,254.6,102.5Z"/>
          <ellipse class="cls-57" cx="269.8" cy="98.7" rx="4.4" ry="0.3"/>
          <path class="cls-57" d="M294.3,97.1c0,.2-1.6.3-3.6.3s-3.6-.1-3.6-.3a21.8,21.8,0,0,1,7.2,0Z"/>
          <path class="cls-57" d="M310,97.4a13.4,13.4,0,0,1-3.2.2,14.6,14.6,0,0,1-3.3-.2c0-.2,1.5-.3,3.3-.3S310,97.2,310,97.4Z"/>
          <ellipse class="cls-57" cx="326.2" cy="100" rx="4.6" ry="0.4"/>
          <path class="cls-57" d="M348.3,100.3c0,.2-1.5.3-3.4.3s-3.4-.1-3.4-.3a29,29,0,0,1,6.8,0Z"/>
          <g>
            <path class="cls-6" d="M90.4,90.2h8.3l1.6.2a.3.3,0,0,1,.1.2h-.1l-1.6.2H90.4a.2.2,0,0,1-.2-.2Z"/>
            <path class="cls-6" d="M103.5,83.9h18l.2.2a.2.2,0,0,1-.2.2h-18c-.1-.1-.2-.1-.2-.2Z"/>
            <path class="cls-6" d="M126.4,88.3h10.1c.1,0,.1.1.1.2H126.4c-.1,0-.1-.1-.1-.2A.1.1,0,0,1,126.4,88.3Z"/>
            <path class="cls-6" d="M144.3,88.3H159c.1,0,.1.1.1.2H144.3a.2.2,0,0,1-.2-.2Z"/>
            <path class="cls-6" d="M165.9,85.3h18.3v.2H165.9l-.2-.2Z"/>
            <path class="cls-6" d="M192.7,85.9H211l-2.9.2H195.6l-2.9-.2h0Z"/>
            <path class="cls-6" d="M216.2,84.8h18.3c.1,0,.1.1.1.2H216.1C216.1,84.9,216.1,84.8,216.2,84.8Z"/>
            <path class="cls-6" d="M239.7,85.6H258a.1.1,0,0,1,.1.1c0,.1,0,.2-.1.2H239.7c-.1,0-.1-.1-.1-.2Z"/>
            <path class="cls-6" d="M262.5,85.3h13.7c.1,0,.1.1.1.2H262.5v-.2Z"/>
            <path class="cls-6" d="M284.6,86.5h12.2a.3.3,0,0,1,.1.2H284.5C284.5,86.6,284.5,86.5,284.6,86.5Z"/>
            <path class="cls-6" d="M301.6,87.7h10.1c0,.1,0,.1-.1.1l-1.6.2h-6.9l-1.5-.2c-.1,0-.2,0-.1-.1Z"/>
            <path class="cls-6" d="M318.4,86h15.8c.1,0,.1.1.1.2H318.2Z"/>
            <path class="cls-6" d="M339.7,90.6h10.5c.1,0,.1.1.1.2a.1.1,0,0,1-.1.1H339.7c-.1,0-.2-.1-.1-.2A.1.1,0,0,1,339.7,90.6Z"/>
          </g>
          <g>
            <path class="cls-58" d="M199.7,116.8c.5.1.9.5,1.5.4a13.7,13.7,0,0,1,2.8.1c.8-1.1-1.9-1.1-1.3-2.1a10.1,10.1,0,0,0,1.2-1.4c.5-.2,1.9-.4,1.9-.5s-1.9-.8-3-.4-3.7,1.4-3.7,1.4Z"/>
            <path class="cls-59" d="M184.3,106.1c1.5,1.4,5.5,6.9,8.1,8.3.8.5,7.5-.5,7.5-.5l-.2,5.1s-6.9,1.6-8.5,1.4-12.2-5.8-12.2-5.8Z"/>
            <g>
              <path class="cls-60" d="M184.8,101.2a12.8,12.8,0,0,1-2.6,3.1c-2.5,2.6-2.6,3.1-2.6,3.1l4.1,4.2s3.6-3.8,5-4.1S184.8,101.2,184.8,101.2Z"/>
              <path class="cls-60" d="M194,105.5a11,11,0,0,1,.4-2.7h0a5.2,5.2,0,0,0,1.7-4c0-.2-.5-.3-.7-.5-.6-3.1-7.7-6.5-10-2.6-4.4,7.4,2.4,11.7,4,12.6s1,.3,1.9-1.1a9.2,9.2,0,0,0,1.4-1.4c.6.1,1,.1,1.2-.2Z"/>
              <path class="cls-61" d="M187.9,93.4c1-.2,1.9-1.4,4.2.1s4.2,2.5,4.3,4.6a2.3,2.3,0,0,0,1.6,2.2,1.9,1.9,0,0,1-1.9,1c-.6-.1-2.3-2-3.4-1.5a5,5,0,0,1-2.1.5s-2.3.1-2.7.7a9.2,9.2,0,0,1-2,1.8,8.2,8.2,0,0,1-3.5.1,13,13,0,0,0,1.4-4.7C184.5,94.3,186.4,93.8,187.9,93.4Z"/>
              <path class="cls-60" d="M190,100.3c1.1-1.6-1.1-1.5-1.3-1s-1.6,1.7-.9,2.6S190,100.3,190,100.3Z"/>
            </g>
            <path d="M178.1,142.4c-.3,1.9-.5,4.3.9,4.3s2-.8,3.9-.5,7.5,1.4,7.5,0a1.9,1.9,0,0,0-1.8-2.1c-2.5-.3-4.5-4.1-5.4-3.8A55,55,0,0,0,178.1,142.4Z"/>
            <path d="M194.9,125.9a13,13,0,0,1-.4,2.1l-.3.8c-.2.4-.4.9-.7,1.4l-1.5,2.9c0,.1-.1.2-.1.4l-.3.6c-1.4,3.7-2.2,8.8-2.7,9.3s-.6.3-1.2.5l-4.5.2c-1.8,0-3.3-.2-3.5-.5a1.8,1.8,0,0,1-.4-1h-.1v-.6c0-.2-.1-.3-.1-.5s.1-.5.1-.8a21.6,21.6,0,0,1,2-6.6,18.5,18.5,0,0,1,2.3-4.2c.7-.7-1,.9-2.8,2.4l-1.6,1.2a5.4,5.4,0,0,1-1.6.9v-4.5h0l1.4.6,1.1.5h.1l1.9-7.2-.3-.4-.3-.4-.6-1-.2-.3h2a57.9,57.9,0,0,1,7.2-.1c2.1.1,3.7.4,4.1,1.2A6.7,6.7,0,0,1,194.9,125.9Z"/>
            <path class="cls-62" d="M173.4,127.9l3.8,1.6h0l-.5,1.1a7.9,7.9,0,0,1-3-1.9l-1.6-1.3c-.1-.1-.2-.3-.4-.4Z"/>
            <path class="cls-59" d="M186.1,111.7a9.7,9.7,0,0,1-.5,2.7,24.5,24.5,0,0,1-1.2,3.1c-.4.8-.8,1.7-1.3,2.5l-.8,1.4a10,10,0,0,1-.8,1.4l-.6-1-.2-.3c-.7-1.2-1.3-2.4-1.9-3.7l-.2-.3c-1.4-.6-2.7-2.4-2.9-7.1-.7,1-1.5,2.2-2.3,3.6s-2.3.1-2.3.1a15.1,15.1,0,0,1,3.4-4.7h-1.4c4-5.2,7.6-5.7,9-5.9a1.1,1.1,0,0,1,.4.5,21.2,21.2,0,0,1,1.6,2.3,23.9,23.9,0,0,1,1.6,3.2A5.9,5.9,0,0,1,186.1,111.7Z"/>
            <path class="cls-63" d="M160.4,137.9c-1.5-1.5-2.4-2.5-4.2-2.3s-2.1,1.2-2.1,2.6-.6,3.6-.5,5.3,1.2,3.7,5.2,3.2-.4-2.4-.7-3.8S160.4,137.9,160.4,137.9Z"/>
            <path class="cls-59" d="M173.3,127.2a2.3,2.3,0,0,0,.1.7l-1.7-.8-6.3-2.7a42.5,42.5,0,0,1,7.4-14.8h1.7a15.1,15.1,0,0,0-3.4,4.7s1,2.3,2.3-.1,1.6-2.6,2.3-3.6c.2,4.7,1.5,6.5,2.9,7.1l.2.3a6.4,6.4,0,0,1-1.8-.6C176.3,118.6,173.8,125.4,173.3,127.2Z"/>
            <path class="cls-59" d="M171.1,114.1a15.1,15.1,0,0,1,3.4-4.7h1.2v.9c-.7,1-1.5,2.2-2.3,3.6S171.1,114.1,171.1,114.1Z"/>
            <path d="M179.3,143a33.5,33.5,0,0,1-.1,3.7c-.4,2-1.5,1.1-3.9,1.2s-12.7-1.9-16.8-4.2h-.1c-.7-.3-1-1.8-1-3.4a9.5,9.5,0,0,1,.8-4.2c.3-.3.5-.5.8-.4l9.9,2.4a10.1,10.1,0,0,1,2.1.7,16.3,16.3,0,0,1-5.4-6c-1-2-1-4.9-.2-8.3l6.3,2.7,1.7.8,3.8,1.6.4.2,1.4.6h0a30.1,30.1,0,0,1,.1,3.1c0,2.2,0,4.7.1,7.2v1.2h0v.6h.1Z"/>
            <path d="M182.3,117.2l-.2.6-1.1,3.7v.3l-.2-.3c-.7-1.2-1.3-2.4-1.9-3.7l-.2-.3A4.5,4.5,0,0,0,182.3,117.2Z"/>
            <g>
              <path class="cls-64" d="M182.1,123.6l-1.9,7.2h-.1a.1.1,0,0,0-.1-.1l-1-.4-1.4-.6-.4-.2-3.8-1.6a2.3,2.3,0,0,1-.1-.7c.5-1.8,3-8.6,3.7-10a6.4,6.4,0,0,0,1.8.6c.6,1.3,1.2,2.5,1.9,3.7l.2.3.6,1,.3.4Z"/>
              <path class="cls-65" d="M180.7,121.5c-.7-1.2-1.3-2.4-1.9-3.7a12.1,12.1,0,0,0,3.3,0h1l.7-.2-.7,2.6-.4,1.4-.6,2.2-.3-.4-.3-.4-.6-1Z"/>
              <path class="cls-65" d="M183,142.7a7.8,7.8,0,0,1,.2,1.4,5.6,5.6,0,0,1-.4,2.1c-.9,2.1-3.5,2.3-5.9,2.3s-9.4-.9-17-2.5l-1.3-.2c-.6-.2-1.6-4.5-1.2-5.6h.1l1.2.5c4.3,1.7,14.6,4,19.1,3.3h.1a1.4,1.4,0,0,0,1.4-1.2h0a1.7,1.7,0,0,0-.1-.7h0a.6.6,0,0,0-.1-.4c-.3-1.6-1.6-3.7-2.5-5.9s-2.2-4.8-2.9-6.7a1.9,1.9,0,0,1-.2-.7v-.2l3.8,1.6.4.2,1.4.6,1.1.5h.1a9.9,9.9,0,0,1,.5,1.4c.1.5.3,1,.5,1.8s.9,3.7,1.4,6.5A14.3,14.3,0,0,1,183,142.7Z"/>
            </g>
            <path class="cls-58" d="M193,126.4c.7-.1,3.9-1.1,4.2-.9s-.1.6-.6,1-.2.3-.2.3a9.2,9.2,0,0,1,2.4,1.3c.8.5.9,1.4-.3.8.5.5.7,1.3-.4,1,.5.4.4,1-.5.8s.2.6-.3.7a5.3,5.3,0,0,1-3.1-.8,25.9,25.9,0,0,0-2.7-1.5Z"/>
            <path class="cls-59" d="M194.6,126.1l-2.3,3.4-.3.3-.7,1.1h-.1l-.4-.3c-1.5-1-6.7-4.7-8.7-7.1l-.3-.4-.3-.4-.6-1-.2-.3c-.7-1.2-1.3-2.4-1.9-3.7l-.2-.3a26.6,26.6,0,0,1-1.8-4.8,13.8,13.8,0,0,1-.3-3.3,3.4,3.4,0,0,1,.4-1.2,4.3,4.3,0,0,1,3.3-1.7,3.2,3.2,0,0,1,2,.8h0a2.4,2.4,0,0,1,.8.9l.4.6h.1c.2.5.5,1.3.9,2.1s.4,1.2.7,1.9h0a8.8,8.8,0,0,0,.5,1.5c.4,1.1.9,2.2,1.3,3.1l1.3,1.8,1.7,2c2.1,2.2,4.4,4.4,4.7,4.7Z"/>
          </g>
          <g>
            <path class="cls-39" d="M208.9,85.7l.6-.4c2.6-2,6-2.8,9.2-3.3.7-.1,3.1-.3,1.5-1l-2.3-.7a10.3,10.3,0,0,0-9.3,3.2c1-1.2,2.2-2.3,3.1-3.6a22.2,22.2,0,0,0,2.5-4.2,27.3,27.3,0,0,0,2.5-9.3c0-.6.4-3-.3-3.3s-.5,0-.6.2l-.3.8a6.7,6.7,0,0,1-.6,1.2,5.9,5.9,0,0,0-.7,1.6,11.1,11.1,0,0,0-.7,1.6,34.5,34.5,0,0,1-1.4,3.4,46.3,46.3,0,0,1-2.9,5.4c-1,1.8-1.8,3.7-2.7,5.5.4-3.1.7-6.3-.2-9.4a9,9,0,0,0-.8-2.1c-.1-.2-.6-1.5-.9-1.5s-.2,2-.2,2.4a24.5,24.5,0,0,1,.2,2.7,22.4,22.4,0,0,1-.3,5.2c-.1.7-.4,1.6-1.1,1.6-.8-1.7-2.9-9.7-3.6-11.4l-1.2-2.5a8,8,0,0,0-1-2.3h-.2l-.2.2c-.6,3.2.9,13,1.1,16.2,0-.2-.7-.9-.9-1.1a5.7,5.7,0,0,1-.8-1.3,11.3,11.3,0,0,1-1.3-2.7,22.9,22.9,0,0,1-.8-2.8c-.1-.8-.1-1.7-.2-2.5s-.3,0-.3.2a36.3,36.3,0,0,0-.9,9.3c0-.6-1.1-2-1.4-2.7s-1.1-2.2-1.6-3.3a22.6,22.6,0,0,1-1.1-3.7l-.6-1.8c0-.2-.4-1.2-.6-1.1s-.4.8-.5,1a7.7,7.7,0,0,0-.2,1.5,19.6,19.6,0,0,0,1,5.8,17.1,17.1,0,0,0,4.7,7.4c2.3,1.9,5.2,3.3,7.3,5.4l-.7-1"/>
            <path class="cls-43" d="M199.9,89.6h-.1a23.8,23.8,0,0,0-4-3.1,39.8,39.8,0,0,1-3.3-2.4,16.2,16.2,0,0,1-4.8-7.4,19.3,19.3,0,0,1-1-6,7.7,7.7,0,0,1,.2-1.5h.1c.2-.8.4-1,.5-1s.5-.1.9,1.2l.6,1.9v.2c.4,1.2.7,2.3,1.1,3.4l1.5,3.3a3.5,3.5,0,0,1,.6.9,2.2,2.2,0,0,1,.5.8,38.1,38.1,0,0,1,.9-8.2c.1-.3.3-.5.5-.5l.2.2a2.8,2.8,0,0,1,.1.9c0,.6.1,1.1.1,1.7s.5,1.9.8,2.8a12.6,12.6,0,0,0,1.3,2.6,5.7,5.7,0,0,0,.8,1.3l.2.3.2.2c-.1-1-.2-2.2-.4-3.6-.4-4.3-1-9.7-.6-11.9.1-.2.2-.4.3-.4a.6.6,0,0,1,.5.2,8,8,0,0,1,.8,1.6c.1.2.1.5.2.7l1.2,2.5c.4.9,1,3.2,1.8,5.7s1.3,4.6,1.7,5.6.8-.9.8-1.4a45.3,45.3,0,0,0,.3-5.2,19.4,19.4,0,0,0-.2-2.4v-.6c-.2-1.1-.2-1.9.1-2.2a.2.2,0,0,1,.3-.1c.3,0,.5.4,1,1.4v.2a14.3,14.3,0,0,1,.8,2.2,20.5,20.5,0,0,1,.4,8.2c0-.2.1-.3.2-.5s1.2-2.6,1.9-3.9a46.3,46.3,0,0,0,2.9-5.4,34.5,34.5,0,0,0,1.4-3.4l.2-.4a6.1,6.1,0,0,1,.5-1.2v-.2c.4-1,.5-1.3.7-1.4s.1-.3.2-.5l.3-.7a.4.4,0,0,0,.1-.3l.2-.5a.7.7,0,0,1,.9-.3c.6.3.5,1.7.4,3.1v.4a27.9,27.9,0,0,1-2.5,9.4,29.1,29.1,0,0,1-2.5,4.2,17.1,17.1,0,0,1-1.1,1.4,10.8,10.8,0,0,1,3.7-1.3,9.7,9.7,0,0,1,3.4,0l2.4.7c.4.2.7.4.7.7s-.7.5-1.9.7h-.3c-3,.5-6.5,1.2-9.2,3.3a1,1,0,0,0-.5.4h-.3c-.1-.1-.1-.3,0-.3l.5-.5c2.8-2.1,6.3-2.8,9.4-3.3h.4a3.2,3.2,0,0,0,1.4-.3l-.3-.2-2.3-.7a12.9,12.9,0,0,0-3.4,0,10,10,0,0,0-5.8,3.1h0a.2.2,0,0,1-.3-.3h0l1.1-1.2a22,22,0,0,0,2-2.3,25,25,0,0,0,2.5-4.1,25.6,25.6,0,0,0,2.4-9.3c0-.1.1-.2.1-.4s.1-2.6-.2-2.8-.3.1-.3.2-.1.3-.2.4a.6.6,0,0,1-.1.4l-.3.7-.3.5H215a7.3,7.3,0,0,0-.5,1.2.4.4,0,0,0-.1.3,5.4,5.4,0,0,0-.5,1.1l-.2.5c-.4,1.1-.9,2.3-1.4,3.4s-1.9,3.7-2.9,5.4-1.3,2.6-1.9,3.9-.5,1.1-.8,1.6-.1.2-.2.1a.2.2,0,0,1-.2-.2,24.2,24.2,0,0,0-.2-9.3,7.6,7.6,0,0,0-.8-2.1.3.3,0,0,0-.1-.2,3.5,3.5,0,0,0-.7-1.2,6.5,6.5,0,0,0,.1,1.9v.5c0,.8.1,1.7.1,2.5a23.6,23.6,0,0,1-.3,5.3c-.1.8-.5,1.8-1.3,1.7H203c-.4-.9-1.1-3.3-1.8-5.8s-1.4-4.8-1.8-5.6l-1.1-2.6-.3-.6a3.6,3.6,0,0,0-.8-1.5c-.4,2.2.2,7.7.7,11.7.2,1.8.3,3.4.4,4.4a.2.2,0,0,1-.2.2c-.2,0-.2-.1-.2-.2l-.6-.6-.3-.4a5.7,5.7,0,0,1-.8-1.3,11.3,11.3,0,0,1-1.3-2.7,24.5,24.5,0,0,1-.8-2.9,9.1,9.1,0,0,1-.1-1.7v-.3a34.3,34.3,0,0,0-.8,9h0l-.2.2c-.2,0-.3-.1-.3-.2h0a4.7,4.7,0,0,0-.9-1.7,4.1,4.1,0,0,1-.5-.9c-.6-1.1-1.1-2.2-1.6-3.3s-.7-2.3-1.1-3.4v-.3l-.6-1.9a1.9,1.9,0,0,0-.4-.8c0,.1-.1.3-.2.7h-.1a6.8,6.8,0,0,0-.2,1.5,17.5,17.5,0,0,0,1,5.7,15.7,15.7,0,0,0,4.7,7.3,23.5,23.5,0,0,0,3.2,2.3l3,2.2h0c.1-.1.3,0,.3,0l.8,1.1a.2.2,0,0,1,0,.3Z"/>
            <polygon class="cls-40" points="211.5 89.1 207.8 102.6 202.2 102.6 196.6 102.6 192.9 89.1 211.5 89.1"/>
            <path class="cls-41" d="M211.6,89l-1.8,6.9-1.8,6.8v.2H196.4v-.2l-3.7-13.5v-.3h19Zm-.3.2H192.9l.3-.3,3.7,13.4-.3-.2h11.2l-.3.2,1.9-6.8Z"/>
            <rect class="cls-42" x="192.1" y="84.9" width="20.1" height="6.18" rx="0.6" ry="0.6"/>
            <path class="cls-41" d="M193.3,84.7h18.4a1.5,1.5,0,0,1,.8,1.1v3.5c0,.2.1.4,0,.6a.8.8,0,0,1-.2.7,1.2,1.2,0,0,1-1.2.7H192.8a2.3,2.3,0,0,1-.7-.7,2.5,2.5,0,0,1-.1-.8V85.8c.1-.1.1-.3.2-.4s.4-.4.5-.5Zm0,.3a.5.5,0,0,0-.5.1c-.1.1-.3.2-.4.4a2.2,2.2,0,0,0-.1.9v3.2a1.5,1.5,0,0,0,.1.7,1.2,1.2,0,0,0,.5.5h18.2a.7.7,0,0,0,.7-.4.5.5,0,0,0,.2-.4v-4a1.3,1.3,0,0,0-.5-.7H193.3Z"/>
            <path class="cls-44" d="M188.2,72.5h0c.1.1.1.2.2.4l.5,1.3c.2.6.5,1.2.8,1.9a21.4,21.4,0,0,0,1,2.2,5.4,5.4,0,0,0,.5,1.1c.2.3.3.7.5,1l.6.9.5.8a1.7,1.7,0,0,0,.6.6,1,1,0,0,0,.4.5l.4.3h0c.1,0,.1.1,0,.2H194l-.5-.3-.5-.4a3.4,3.4,0,0,1-.6-.6l-.7-.8-.6-.9a8.8,8.8,0,0,1-1.2-2.1l-.5-1.1-.5-1.2-.6-2a5,5,0,0,1-.3-1.4,1.1,1.1,0,0,1-.1-.5h0v-.2c.1,0,.2,0,.2.1Z"/>
            <path class="cls-44" d="M194.3,76.5l.2,1.2.3,1.2.3,1.4a6.4,6.4,0,0,1,.2.7c.1.2.1.4.2.6a3.7,3.7,0,0,0,.5,1.1.5.5,0,0,0,.2.4l.2.3.2.3h0c.1,0,.1.1,0,.2h-.2l-.3-.2-.3-.2-.4-.4-.3-.6c-.1-.2-.3-.4-.3-.6a5.8,5.8,0,0,1-.5-1.4,9.8,9.8,0,0,1-.4-2.7V76.5h.4Z"/>
            <path class="cls-44" d="M198.4,69.4a1.5,1.5,0,0,0,.2.6l.4,1.6c.1.6.4,1.4.5,2.3a20,20,0,0,1,.5,2.6c.2.9.3,1.8.5,2.6s.1,1.7.2,2.4v1.7c0,.2-.1.3-.1.4v.2c0,.1-.1.2-.2.1s-.1,0-.1-.1h0v-.6a1.7,1.7,0,0,1-.1-.7c0-.3-.1-.6-.1-1s-.3-1.4-.4-2.2-.3-1.8-.5-2.7-.3-1.8-.5-2.6l-.3-2.3c-.2-1.3-.3-2.2-.3-2.2s0-.2.1-.2Z"/>
            <path class="cls-44" d="M205.7,75a.6.6,0,0,1,.1.4c0,.2.1.6.1,1a16,16,0,0,1,0,3.1,8.8,8.8,0,0,1-.2,1.7c-.1.3-.1.6-.2.8s-.1.5-.2.7l-.3.5-.3.4-.3.3h-.2v-.2h.1a.5.5,0,0,1,.1-.3c.1-.1.1-.3.2-.4s.1-.4.2-.5a1.7,1.7,0,0,1,.1-.7,1.7,1.7,0,0,0,.1-.7c.1-.5.1-1.1.2-1.6V77.8c0-.5.1-1,.1-1.4a12.5,12.5,0,0,0,.1-1.4.2.2,0,0,1,.2-.2V75Z"/>
            <path class="cls-44" d="M214.7,70.1a1.7,1.7,0,0,1-.2.7,13,13,0,0,1-.6,1.9,19.5,19.5,0,0,1-.9,2.5l-.6,1.3a10.1,10.1,0,0,0-.7,1.5l-.8,1.3a5.7,5.7,0,0,1-.8,1.3,12.5,12.5,0,0,1-.8,1.2l-.8,1-.8.8-.3.3-.4.2-.5.4h-.3v-.2h.1a1.7,1.7,0,0,1,.5-.5l.2-.3.3-.3.7-.8a8.6,8.6,0,0,0,.7-1l.7-1.2.8-1.3.7-1.3,1.4-2.8,1.1-2.4,1-2.4h.3Z"/>
            <path class="cls-44" d="M209.5,83.6l1.1-.6,1.1-.6,1.4-.5a14.7,14.7,0,0,1,2.7-.6H217a.2.2,0,0,1,.2.2h-1.3l-1.2.4-1.3.4-2.6.9-1.1.3c-.1.1-.2,0-.2-.1Z"/>
          </g>
        </g>
        <g class="cls-66">
          <g class="cls-67">
            <polygon class="cls-6" points="355.6 91.6 435.3 91.6 435.3 93.9 433.7 95.3 357.1 95.3 355.6 94.1 355.6 91.6"/>
            <polygon class="cls-68" points="355.6 91.6 435.3 91.6 435.3 93.9 433.7 95.3 357.1 95.3 355.6 94 355.6 91.6"/>
            <polygon class="cls-69" points="355.6 91.5 435.2 91.5 435.2 93.8 433.6 95.2 357 95.2 355.6 94 355.6 91.5"/>
            <polygon class="cls-70" points="355.5 91.4 435.2 91.4 435.2 93.7 433.6 95.2 357 95.2 355.5 93.9 355.5 91.4"/>
            <polygon class="cls-71" points="355.5 91.4 435.2 91.4 435.2 93.7 433.6 95.1 357 95.1 355.5 93.9 355.5 91.4"/>
            <polygon class="cls-72" points="355.5 91.3 435.1 91.3 435.1 93.6 433.5 95 356.9 95 355.5 93.8 355.5 91.3"/>
            <polygon class="cls-73" points="355.4 91.3 435.1 91.3 435.1 93.6 433.5 95 356.9 95 355.4 93.7 355.4 91.3"/>
            <polygon class="cls-74" points="355.4 91.2 435.1 91.2 435.1 93.5 433.5 94.9 356.9 94.9 355.4 93.7 355.4 91.2"/>
            <polygon class="cls-75" points="355.4 91.1 435 91.1 435 93.4 433.4 94.9 356.8 94.9 355.4 93.6 355.4 91.1"/>
            <polygon class="cls-76" points="355.3 91.1 435 91.1 435 93.4 433.4 94.8 356.8 94.8 355.3 93.6 355.3 91.1"/>
            <polygon class="cls-77" points="355.3 91 435 91 435 93.3 433.4 94.7 356.8 94.7 355.3 93.5 355.3 91"/>
            <polygon class="cls-78" points="355.3 91 434.9 91 434.9 93.3 433.3 94.7 356.7 94.7 355.3 93.4 355.3 91"/>
            <polygon class="cls-79" points="355.2 90.9 434.9 90.9 434.9 93.2 433.3 94.6 356.7 94.6 355.2 93.4 355.2 90.9"/>
            <polygon class="cls-80" points="355.2 90.8 434.9 90.8 434.9 93.1 433.3 94.6 356.7 94.6 355.2 93.3 355.2 90.8"/>
            <polygon class="cls-81" points="355.2 90.8 434.8 90.8 434.8 93.1 433.2 94.5 356.6 94.5 355.2 93.3 355.2 90.8"/>
            <polygon class="cls-82" points="355.1 90.7 434.8 90.7 434.8 93 433.2 94.4 356.6 94.4 355.1 93.2 355.1 90.7"/>
            <polygon class="cls-83" points="355.1 90.7 434.8 90.7 434.8 93 433.2 94.4 356.6 94.4 355.1 93.1 355.1 90.7"/>
            <polygon class="cls-84" points="355.1 90.6 434.7 90.6 434.7 92.9 433.1 94.3 356.5 94.3 355.1 93.1 355.1 90.6"/>
            <polygon class="cls-85" points="355 90.5 434.7 90.5 434.7 92.8 433.1 94.3 356.5 94.3 355 93 355 90.5"/>
            <polygon class="cls-86" points="355 90.5 434.7 90.5 434.7 92.8 433.1 94.2 356.5 94.2 355 93 355 90.5"/>
            <polygon class="cls-87" points="355 90.4 434.6 90.4 434.6 92.7 433 94.1 356.4 94.1 355 92.9 355 90.4"/>
            <polygon class="cls-88" points="354.9 90.4 434.6 90.4 434.6 92.7 433 94.1 356.4 94.1 354.9 92.8 354.9 90.4"/>
            <polygon class="cls-89" points="354.9 90.3 434.6 90.3 434.6 92.6 433 94 356.4 94 354.9 92.8 354.9 90.3"/>
            <polygon class="cls-90" points="354.9 90.2 434.5 90.2 434.5 92.5 432.9 94 356.3 94 354.9 92.7 354.9 90.2"/>
            <polygon class="cls-91" points="354.8 90.2 434.5 90.2 434.5 92.5 432.9 93.9 356.3 93.9 354.8 92.7 354.8 90.2"/>
            <polygon class="cls-56" points="354.8 90.1 434.5 90.1 434.5 92.4 432.9 93.8 356.3 93.8 354.8 92.6 354.8 90.1"/>
            <polygon class="cls-92" points="354.8 90.1 434.4 90.1 434.4 92.4 432.8 93.8 356.2 93.8 354.8 92.5 354.8 90.1"/>
            <polygon class="cls-93" points="354.7 90 434.4 90 434.4 92.3 432.8 93.7 356.2 93.7 354.7 92.5 354.7 90"/>
            <polygon class="cls-94" points="354.7 89.9 434.4 89.9 434.4 92.2 432.7 93.7 356.2 93.7 354.7 92.4 354.7 89.9"/>
            <polygon class="cls-95" points="354.7 89.9 434.3 89.9 434.3 92.2 432.7 93.6 356.1 93.6 354.7 92.4 354.7 89.9"/>
            <polygon class="cls-96" points="354.6 89.8 434.3 89.8 434.3 92.1 432.7 93.5 356.1 93.5 354.6 92.3 354.6 89.8"/>
            <polygon class="cls-97" points="354.6 89.8 434.3 89.8 434.3 92.1 432.6 93.5 356 93.5 354.6 92.2 354.6 89.8"/>
          </g>
          <polygon class="cls-98" points="430.2 15.1 358.6 15.1 359.7 18 393.9 47.5 429.1 18 430.2 15.1"/>
          <polygon class="cls-99" points="430.2 15.1 430.2 87.3 358.6 87.3 358.6 15.1 359.7 18 393.9 47.5 429.1 18 430.2 15.1"/>
          <polygon class="cls-100" points="429.1 18 429.1 18 359.7 18 359.7 18 394.4 52.7 429.1 18"/>
          <polygon class="cls-98" points="359.7 18 359.7 87.3 359.7 87.3 394.4 52.7 359.7 18"/>
          <polygon class="cls-101" points="429.1 87.3 429.1 18 394.4 52.7 429.1 87.3 429.1 87.3"/>
          <polygon class="cls-102" points="429.1 87.3 394.4 52.7 359.7 87.3 429.1 87.3"/>
          <polygon class="cls-103" points="360.2 18.5 360.2 18.5 360.2 86.9 360.2 86.9 428.6 86.9 428.6 86.9 428.6 18.5 428.6 18.5 360.2 18.5"/>
          <polygon class="cls-104" points="425.7 21.4 425.7 21.4 363.1 21.4 363.1 21.4 394.4 52.7 425.7 21.4"/>
          <polygon class="cls-83" points="363.1 21.4 363.1 84 363.1 84 394.4 52.7 363.1 21.4"/>
          <polygon class="cls-83" points="425.7 84 425.7 21.4 394.4 52.7 425.7 84 425.7 84"/>
          <polygon class="cls-104" points="425.7 84 394.4 52.7 363.1 84 425.7 84"/>
          <polygon class="cls-105" points="363.7 22 363.7 22 363.7 83.4 363.7 83.4 425.1 83.4 425.1 83.4 425.1 22 425.1 22 363.7 22"/>
          <polygon class="cls-106" points="421.5 25.6 394.4 52.7 421.5 79.8 421.5 25.6"/>
          <polygon class="cls-107" points="394.4 52.7 367.3 79.8 421.5 79.8 421.5 79.8 394.4 52.7"/>
          <polygon class="cls-87" points="421.5 25.6 367.3 25.6 367.3 25.6 394.4 52.7 421.5 25.6"/>
          <polygon class="cls-108" points="394.4 52.7 367.3 25.6 367.3 79.8 394.4 52.7"/>
          <polygon class="cls-109" points="434.3 89.6 354.6 89.6 356.8 87.3 432.1 87.3 434.3 89.6"/>
          <polygon class="cls-110" points="354.6 89.8 434.3 89.8 434.3 92.1 432.6 93.5 356 93.5 354.6 92.2 354.6 89.8"/>
          <g>
            <polygon class="cls-111" points="420.4 26.7 368.4 26.7 368.4 26.7 394.4 52.7 420.4 26.7"/>
            <polygon class="cls-111" points="368.4 26.7 368.4 78.7 368.4 78.7 394.4 52.7 368.4 26.7"/>
            <polygon class="cls-111" points="420.4 78.7 420.4 26.7 394.4 52.7 420.4 78.7 420.4 78.7"/>
            <polygon class="cls-111" points="420.4 78.7 394.4 52.7 368.4 78.7 420.4 78.7"/>
            <g>
              <path class="cls-112" d="M378,36.3c-2.2,2.8-3.3,4.9-1.9,4.8s2.7-.9,4.7-2.1Z"/>
              <path class="cls-112" d="M397.4,26.7h-11c-2.8,3-6.1,6.7-8.4,9.6l2.8,2.7C385.7,35.9,392.6,30.2,397.4,26.7Z"/>
              <path class="cls-112" d="M420.4,56.9V46.7c-4.1,4.9-12.1,14.5-13.9,18.1l1.1,1C410.2,64.7,415.6,60.8,420.4,56.9Z"/>
              <path class="cls-112" d="M406.5,64.8c-.4.8-.5,1.4,0,1.4l1.1-.4Z"/>
              <path class="cls-112" d="M391.7,55.4l3.1-2.3-.4-.4Z"/>
              <path class="cls-112" d="M398.8,57.1c-2.8,3.7-4.6,6.4-4,6.6s3.5-1.2,7.1-3.5Z"/>
              <path class="cls-112" d="M420.4,46.3V26.7l-26,26,.4.4c9.2-7.1,21-17.1,23.6-19.8s-12,13.9-19.6,23.8l3.1,3.1A201.9,201.9,0,0,0,420.4,46.3Z"/>
              <path class="cls-112" d="M420.4,26.7h-7.5c-4.4,4.8-14.3,15.1-21.4,23l2.9,3Z"/>
              <path class="cls-112" d="M391.5,49.7c-5.2,5.8-9,10.4-8.1,10.6s4.1-1.8,8.3-4.9l2.7-2.7Z"/>
              <path class="cls-112" d="M411.7,26.7H399.4c-3.4,3.5-9.9,9.9-15.3,15.6l3.9,4C396.2,40,406.2,31.4,411.7,26.7Z"/>
              <path class="cls-112" d="M384.1,42.3c-6.1,6.4-10.9,11.9-8.3,11.5s6.9-3.5,12.2-7.5Z"/>
            </g>
            <g>
              <path class="cls-113" d="M410.1,72.2a103.8,103.8,0,0,1-8.1,6.5h4.9C410.2,73.8,412.4,70.1,410.1,72.2Z"/>
              <path class="cls-113" d="M368.4,48.5v9c2.5-4.9,5.1-9.4,6.5-11C377.6,43.2,372.7,46.1,368.4,48.5Z"/>
              <path class="cls-113" d="M398.9,69.3c-3.2,2.5-7.3,6.2-11.7,9.4h6C398.4,72.2,402.5,66.6,398.9,69.3Z"/>
              <path class="cls-113" d="M370.8,78.7h5.7c4.7-6.7,13.5-16,10.8-13.3A174.1,174.1,0,0,1,370.8,78.7Z"/>
              <path class="cls-113" d="M377.3,60.6c-1.8,1.8-5.5,4.8-8.9,7.5v7.1C374.1,66.9,380.3,57.6,377.3,60.6Z"/>
            </g>
            <path class="cls-114" d="M368.6,26.7h-.2l.9.8A2.7,2.7,0,0,0,368.6,26.7Z"/>
            <path class="cls-114" d="M368.4,26.7V50.5c3.4,4.8,7.7,10.5,12.1,16L391.1,56c-8.3-10.7-16.5-21.4-21.8-28.5Z"/>
            <path class="cls-114" d="M380.5,66.5c3.4,4.3,6.8,8.5,9.9,12.2h18.3c-5.1-6.5-11.4-14.6-17.6-22.7Z"/>
            <path class="cls-114" d="M420.4,78.7V59.3c-4.2-5.5-9.4-11.9-14.4-18.2l-9.4,9.4c8,9.7,15.9,19.3,20.8,25.1l3,3.1Z"/>
            <path class="cls-114" d="M420.4,78.7l-3-3.1,2.6,3.1Z"/>
            <path class="cls-114" d="M406,41.1,394.4,26.7H377.1l19.5,23.8Z"/>
            <path class="cls-115" d="M420.4,26.7H389.3l14,17.1Z"/>
            <path class="cls-115" d="M420.4,26.7,403.3,43.8l17.1,20.9Z"/>
          </g>
          <polygon class="cls-116" points="368.4 26.7 368.4 27.5 419.4 27.5 419.4 78.7 420.4 78.7 420.4 26.7 368.4 26.7"/>
        </g>
        <g class="cls-66">
          <g class="cls-67">
            <polygon class="cls-6" points="6.7 91.6 86.3 91.6 86.3 93.9 84.7 95.3 8.1 95.3 6.7 94.1 6.7 91.6"/>
            <polygon class="cls-68" points="6.6 91.6 86.3 91.6 86.3 93.9 84.7 95.3 8.1 95.3 6.6 94 6.6 91.6"/>
            <polygon class="cls-69" points="6.6 91.5 86.2 91.5 86.2 93.8 84.6 95.2 8 95.2 6.6 94 6.6 91.5"/>
            <polygon class="cls-70" points="6.5 91.4 86.2 91.4 86.2 93.7 84.6 95.2 8 95.2 6.5 93.9 6.5 91.4"/>
            <polygon class="cls-71" points="6.5 91.4 86.2 91.4 86.2 93.7 84.6 95.1 8 95.1 6.5 93.9 6.5 91.4"/>
            <polygon class="cls-72" points="6.5 91.3 86.1 91.3 86.1 93.6 84.5 95 7.9 95 6.5 93.8 6.5 91.3"/>
            <polygon class="cls-73" points="6.4 91.3 86.1 91.3 86.1 93.6 84.5 95 7.9 95 6.4 93.7 6.4 91.3"/>
            <polygon class="cls-74" points="6.4 91.2 86.1 91.2 86.1 93.5 84.5 94.9 7.9 94.9 6.4 93.7 6.4 91.2"/>
            <polygon class="cls-75" points="6.4 91.1 86 91.1 86 93.4 84.4 94.9 7.8 94.9 6.4 93.6 6.4 91.1"/>
            <polygon class="cls-76" points="6.3 91.1 86 91.1 86 93.4 84.4 94.8 7.8 94.8 6.3 93.6 6.3 91.1"/>
            <polygon class="cls-77" points="6.3 91 86 91 86 93.3 84.4 94.7 7.8 94.7 6.3 93.5 6.3 91"/>
            <polygon class="cls-78" points="6.3 91 85.9 91 85.9 93.3 84.3 94.7 7.7 94.7 6.3 93.4 6.3 91"/>
            <polygon class="cls-79" points="6.2 90.9 85.9 90.9 85.9 93.2 84.3 94.6 7.7 94.6 6.2 93.4 6.2 90.9"/>
            <polygon class="cls-80" points="6.2 90.8 85.9 90.8 85.9 93.1 84.3 94.6 7.7 94.6 6.2 93.3 6.2 90.8"/>
            <polygon class="cls-81" points="6.2 90.8 85.8 90.8 85.8 93.1 84.2 94.5 7.6 94.5 6.2 93.3 6.2 90.8"/>
            <polygon class="cls-82" points="6.1 90.7 85.8 90.7 85.8 93 84.2 94.4 7.6 94.4 6.1 93.2 6.1 90.7"/>
            <polygon class="cls-83" points="6.1 90.7 85.8 90.7 85.8 93 84.2 94.4 7.6 94.4 6.1 93.1 6.1 90.7"/>
            <polygon class="cls-84" points="6.1 90.6 85.7 90.6 85.7 92.9 84.1 94.3 7.5 94.3 6.1 93.1 6.1 90.6"/>
            <polygon class="cls-85" points="6 90.5 85.7 90.5 85.7 92.8 84.1 94.3 7.5 94.3 6 93 6 90.5"/>
            <polygon class="cls-86" points="6 90.5 85.7 90.5 85.7 92.8 84.1 94.2 7.5 94.2 6 93 6 90.5"/>
            <polygon class="cls-87" points="6 90.4 85.6 90.4 85.6 92.7 84 94.1 7.4 94.1 6 92.9 6 90.4"/>
            <polygon class="cls-88" points="5.9 90.4 85.6 90.4 85.6 92.7 84 94.1 7.4 94.1 5.9 92.8 5.9 90.4"/>
            <polygon class="cls-89" points="5.9 90.3 85.6 90.3 85.6 92.6 84 94 7.4 94 5.9 92.8 5.9 90.3"/>
            <polygon class="cls-90" points="5.9 90.2 85.5 90.2 85.5 92.5 83.9 94 7.3 94 5.9 92.7 5.9 90.2"/>
            <polygon class="cls-91" points="5.8 90.2 85.5 90.2 85.5 92.5 83.9 93.9 7.3 93.9 5.8 92.7 5.8 90.2"/>
            <polygon class="cls-56" points="5.8 90.1 85.5 90.1 85.5 92.4 83.9 93.8 7.3 93.8 5.8 92.6 5.8 90.1"/>
            <polygon class="cls-92" points="5.8 90.1 85.4 90.1 85.4 92.4 83.8 93.8 7.2 93.8 5.8 92.5 5.8 90.1"/>
            <polygon class="cls-93" points="5.7 90 85.4 90 85.4 92.3 83.8 93.7 7.2 93.7 5.7 92.5 5.7 90"/>
            <polygon class="cls-94" points="5.7 89.9 85.4 89.9 85.4 92.2 83.7 93.7 7.2 93.7 5.7 92.4 5.7 89.9"/>
            <polygon class="cls-95" points="5.7 89.9 85.3 89.9 85.3 92.2 83.7 93.6 7.1 93.6 5.7 92.4 5.7 89.9"/>
            <polygon class="cls-96" points="5.6 89.8 85.3 89.8 85.3 92.1 83.7 93.5 7.1 93.5 5.6 92.3 5.6 89.8"/>
            <polygon class="cls-97" points="5.6 89.8 85.3 89.8 85.3 92.1 83.6 93.5 7 93.5 5.6 92.2 5.6 89.8"/>
          </g>
          <polygon class="cls-98" points="81.2 15.1 9.6 15.1 10.7 18 44.9 47.5 80.1 18 81.2 15.1"/>
          <polygon class="cls-99" points="81.2 15.1 81.2 87.3 9.6 87.3 9.6 15.1 10.7 18 44.9 47.5 80.1 18 81.2 15.1"/>
          <polygon class="cls-100" points="80.1 18 80.1 18 10.7 18 10.7 18 45.4 52.7 80.1 18"/>
          <polygon class="cls-98" points="10.7 18 10.7 87.3 10.7 87.3 45.4 52.7 10.7 18"/>
          <polygon class="cls-101" points="80.1 87.3 80.1 18 45.4 52.7 80.1 87.3 80.1 87.3"/>
          <polygon class="cls-102" points="80.1 87.3 45.4 52.7 10.7 87.3 80.1 87.3"/>
          <polygon class="cls-117" points="11.2 18.5 11.2 18.5 11.2 86.9 11.2 86.9 79.6 86.9 79.6 86.9 79.6 18.5 79.6 18.5 11.2 18.5"/>
          <polygon class="cls-104" points="76.7 21.4 76.7 21.4 14.1 21.4 14.1 21.4 45.4 52.7 76.7 21.4"/>
          <polygon class="cls-83" points="14.1 21.4 14.1 84 14.1 84 45.4 52.7 14.1 21.4"/>
          <polygon class="cls-83" points="76.7 84 76.7 21.4 45.4 52.7 76.7 84 76.7 84"/>
          <polygon class="cls-104" points="76.7 84 45.4 52.7 14.1 84 76.7 84"/>
          <polygon class="cls-118" points="14.7 22 14.7 22 14.7 83.4 14.7 83.4 76.1 83.4 76.1 83.4 76.1 22 76.1 22 14.7 22"/>
          <polygon class="cls-106" points="72.5 25.6 45.4 52.7 72.5 79.8 72.5 25.6"/>
          <polygon class="cls-107" points="45.4 52.7 18.3 79.8 72.5 79.8 72.5 79.8 45.4 52.7"/>
          <polygon class="cls-87" points="72.5 25.6 18.3 25.6 18.3 25.6 45.4 52.7 72.5 25.6"/>
          <polygon class="cls-108" points="45.4 52.7 18.3 25.6 18.3 79.8 45.4 52.7"/>
          <polygon class="cls-119" points="85.3 89.6 5.6 89.6 7.8 87.3 83.1 87.3 85.3 89.6"/>
          <polygon class="cls-120" points="5.6 89.8 85.3 89.8 85.3 92.1 83.6 93.5 7 93.5 5.6 92.2 5.6 89.8"/>
          <g>
            <polygon class="cls-111" points="71.4 26.7 19.4 26.7 19.4 26.7 45.4 52.7 71.4 26.7"/>
            <polygon class="cls-111" points="19.4 26.7 19.4 78.7 19.4 78.7 45.4 52.7 19.4 26.7"/>
            <polygon class="cls-111" points="71.4 78.7 71.4 26.7 45.4 52.7 71.4 78.7 71.4 78.7"/>
            <polygon class="cls-111" points="71.4 78.7 45.4 52.7 19.4 78.7 71.4 78.7"/>
            <g>
              <path class="cls-112" d="M29,36.3c-2.2,2.8-3.3,4.9-1.9,4.8s2.7-.9,4.7-2.1Z"/>
              <path class="cls-112" d="M48.4,26.7h-11c-2.8,3-6.1,6.7-8.4,9.6L31.8,39C36.7,35.9,43.6,30.2,48.4,26.7Z"/>
              <path class="cls-112" d="M71.4,56.9V46.7c-4.1,4.9-12.1,14.5-13.9,18.1l1.1,1C61.2,64.7,66.6,60.8,71.4,56.9Z"/>
              <path class="cls-112" d="M57.5,64.8c-.4.8-.5,1.4,0,1.4l1.1-.4Z"/>
              <path class="cls-112" d="M42.7,55.4l3.1-2.3-.4-.4Z"/>
              <path class="cls-112" d="M49.8,57.1c-2.8,3.7-4.6,6.4-4,6.6s3.5-1.2,7.1-3.5Z"/>
              <path class="cls-112" d="M71.4,46.3V26.7l-26,26,.4.4C55,46,66.8,36,69.4,33.3s-12,13.9-19.6,23.8l3.1,3.1A201.9,201.9,0,0,0,71.4,46.3Z"/>
              <path class="cls-112" d="M71.4,26.7H63.9c-4.4,4.8-14.3,15.1-21.4,23l2.9,3Z"/>
              <path class="cls-112" d="M42.5,49.7c-5.2,5.8-9,10.4-8.1,10.6s4.1-1.8,8.3-4.9l2.7-2.7Z"/>
              <path class="cls-112" d="M62.7,26.7H50.4c-3.4,3.5-9.9,9.9-15.3,15.6l3.9,4C47.2,40,57.2,31.4,62.7,26.7Z"/>
              <path class="cls-112" d="M35.1,42.3C29,48.7,24.2,54.2,26.8,53.8s6.9-3.5,12.2-7.5Z"/>
            </g>
            <g>
              <path class="cls-113" d="M61.1,72.2A103.8,103.8,0,0,1,53,78.7h4.9C61.2,73.8,63.4,70.1,61.1,72.2Z"/>
              <path class="cls-113" d="M19.4,48.5v9c2.5-4.9,5.1-9.4,6.5-11C28.6,43.2,23.7,46.1,19.4,48.5Z"/>
              <path class="cls-113" d="M49.9,69.3c-3.2,2.5-7.3,6.2-11.7,9.4h6C49.4,72.2,53.5,66.6,49.9,69.3Z"/>
              <path class="cls-113" d="M21.8,78.7h5.7C32.2,72,41,62.7,38.3,65.4A174.1,174.1,0,0,1,21.8,78.7Z"/>
              <path class="cls-113" d="M28.3,60.6c-1.8,1.8-5.5,4.8-8.9,7.5v7.1C25.1,66.9,31.3,57.6,28.3,60.6Z"/>
            </g>
            <path class="cls-114" d="M19.6,26.7h-.2l.9.8A2.7,2.7,0,0,0,19.6,26.7Z"/>
            <path class="cls-114" d="M19.4,26.7V50.5c3.4,4.8,7.7,10.5,12.1,16L42.1,56C33.8,45.3,25.6,34.6,20.3,27.5Z"/>
            <path class="cls-114" d="M31.5,66.5c3.4,4.3,6.8,8.5,9.9,12.2H59.7C54.6,72.2,48.3,64.1,42.1,56Z"/>
            <path class="cls-114" d="M71.4,78.7V59.3C67.2,53.8,62,47.4,57,41.1l-9.4,9.4c8,9.7,15.9,19.3,20.8,25.1l3,3.1Z"/>
            <path class="cls-114" d="M71.4,78.7l-3-3.1L71,78.7Z"/>
            <path class="cls-114" d="M57,41.1,45.4,26.7H28.1L47.6,50.5Z"/>
            <path class="cls-115" d="M71.4,26.7H40.3l14,17.1Z"/>
            <path class="cls-115" d="M71.4,26.7,54.3,43.8,71.4,64.7Z"/>
          </g>
          <polygon class="cls-116" points="19.4 26.7 19.4 27.5 70.4 27.5 70.4 78.7 71.4 78.7 71.4 26.7 19.4 26.7"/>
        </g>
      </g>
    </g>
  </g>
</svg>
