<?xml version="1.0" encoding="utf-8"?>
<!-- Generator: Adobe Illustrator 16.0.0, SVG Export Plug-In . SVG Version: 6.00 Build 0)  -->
<!DOCTYPE svg PUBLIC "-//W3C//DTD SVG 1.1//EN" "http://www.w3.org/Graphics/SVG/1.1/DTD/svg11.dtd">
<svg version="1.1" id="Layer_1" xmlns="http://www.w3.org/2000/svg" xmlns:xlink="http://www.w3.org/1999/xlink" x="0px" y="0px"
	 width="70px" height="70px" viewBox="-23 -23 70 70" enable-background="new -23 -23 70 70" xml:space="preserve">
<linearGradient id="SVGID_1_" gradientUnits="userSpaceOnUse" x1="-20.7656" y1="5.6182" x2="44.7715" y2="5.6182">
	<stop  offset="0" style="stop-color:#6DC067"/>
	<stop  offset="1" style="stop-color:#79CDD1"/>
</linearGradient>
<path fill="url(#SVGID_1_)" d="M36.346-3.808c4.655,0,8.426-3.807,8.426-8.464c0-4.655-3.807-8.462-8.462-8.462H23.214
	c-7.398,0-14.243,3.709-18.307,9.89l-18.39,36.515c-0.108,0.164-0.19,0.351-0.248,0.532h-1.266c-3.188,0-5.77,2.582-5.77,5.768
	h13.779V29.52c0-1.313-0.764-2.446-1.871-2.988L8.523-8.465c3.266-4.96,8.758-7.94,14.697-7.94h13.095
	c2.269,0,4.107,1.866,4.107,4.133c0,2.268-1.809,4.124-4.076,4.124c-5.212,0-9.417,4.25-9.417,9.462v14.214l3.604-0.648
	c0.242-0.042,0.438-0.069,0.727-0.086V1.314C31.259-1.51,33.521-3.808,36.346-3.808"/>
<linearGradient id="SVGID_2_" gradientUnits="userSpaceOnUse" x1="-20.7656" y1="5.6182" x2="44.7715" y2="5.6182">
	<stop  offset="0" style="stop-color:#6DC067"/>
	<stop  offset="1" style="stop-color:#79CDD1"/>
</linearGradient>
<path fill="url(#SVGID_2_)" d="M36.346-3.808c4.655,0,8.426-3.807,8.426-8.464c0-4.655-3.807-8.462-8.462-8.462H23.214
	c-7.398,0-14.243,3.709-18.307,9.89l-18.39,36.515c-0.108,0.164-0.19,0.351-0.248,0.532h-1.266c-3.188,0-5.77,2.582-5.77,5.768
	h13.779V29.52c0-1.313-0.764-2.446-1.871-2.988L8.523-8.465c3.266-4.96,8.758-7.94,14.697-7.94h13.095
	c2.269,0,4.107,1.866,4.107,4.133c0,2.268-1.809,4.124-4.076,4.124c-5.212,0-9.417,4.25-9.417,9.462v14.214l3.604-0.648
	c0.242-0.042,0.438-0.069,0.727-0.086V1.314C31.259-1.51,33.521-3.808,36.346-3.808z"/>
<linearGradient id="SVGID_3_" gradientUnits="userSpaceOnUse" x1="7.0161" y1="26.3301" x2="35.875" y2="26.3301">
	<stop  offset="0" style="stop-color:#6DC067"/>
	<stop  offset="1" style="stop-color:#79CDD1"/>
</linearGradient>
<path fill="url(#SVGID_3_)" d="M30.967,17.724l-17.408,3.114c-3.454,0.617-6.037,3.423-6.417,6.837
	c0.097-0.02,0.2-0.033,0.308-0.033h3.175c0.797,0,1.441,0.646,1.441,1.444c0,0.796-0.644,1.441-1.441,1.441H7.449
	c-0.125,0-0.288-0.017-0.433-0.051v4.525h23.051c-0.481-0.869-0.757-1.831-0.757-2.866c0-3.159,2.532-5.744,5.693-5.744
	c0.31,0,0.582,0.017,0.871,0.062v-4.569c0-1.258-0.515-2.438-1.48-3.25C33.432,17.838,32.205,17.504,30.967,17.724"/>
<linearGradient id="SVGID_4_" gradientUnits="userSpaceOnUse" x1="7.0161" y1="26.3301" x2="35.875" y2="26.3301">
	<stop  offset="0" style="stop-color:#6DC067"/>
	<stop  offset="1" style="stop-color:#79CDD1"/>
</linearGradient>
<path fill="url(#SVGID_4_)" d="M30.967,17.724l-17.408,3.114c-3.454,0.617-6.037,3.423-6.417,6.837
	c0.097-0.02,0.2-0.033,0.308-0.033h3.175c0.797,0,1.441,0.646,1.441,1.444c0,0.796-0.644,1.441-1.441,1.441H7.449
	c-0.125,0-0.288-0.017-0.433-0.051v4.525h23.051c-0.481-0.869-0.757-1.831-0.757-2.866c0-3.159,2.532-5.744,5.693-5.744
	c0.31,0,0.582,0.017,0.871,0.062v-4.569c0-1.258-0.515-2.438-1.48-3.25C33.432,17.838,32.205,17.504,30.967,17.724z"/>
<linearGradient id="SVGID_5_" gradientUnits="userSpaceOnUse" x1="32.1963" y1="32.1191" x2="37.8818" y2="32.1191">
	<stop  offset="0" style="stop-color:#6DC067"/>
	<stop  offset="1" style="stop-color:#79CDD1"/>
</linearGradient>
<path fill="url(#SVGID_5_)" d="M35.04,29.274c-1.569,0-2.844,1.272-2.844,2.845c0,1.563,1.274,2.844,2.844,2.844
	c1.57,0,2.842-1.28,2.842-2.844C37.882,30.547,36.61,29.274,35.04,29.274"/>
<linearGradient id="SVGID_6_" gradientUnits="userSpaceOnUse" x1="32.1963" y1="32.1191" x2="37.8848" y2="32.1191">
	<stop  offset="0" style="stop-color:#6DC067"/>
	<stop  offset="1" style="stop-color:#79CDD1"/>
</linearGradient>
<circle fill="url(#SVGID_6_)" cx="35.04" cy="32.119" r="2.844"/>
<linearGradient id="SVGID_7_" gradientUnits="userSpaceOnUse" x1="-22.313" y1="23.5439" x2="46.0732" y2="23.5439">
	<stop  offset="0" style="stop-color:#6DC067"/>
	<stop  offset="1" style="stop-color:#79CDD1"/>
</linearGradient>
<path fill="url(#SVGID_7_)" d="M40.375,40.311h-56.989V6.777h56.989V40.311z M46.073,1.078h-68.386V46.01h68.386V1.078z"/>
</svg>
