<?xml version="1.0" encoding="UTF-8"?>
<svg width="42px" height="43px" viewBox="0 0 42 43" version="1.1" xmlns="http://www.w3.org/2000/svg" xmlns:xlink="http://www.w3.org/1999/xlink">
    <!-- Generator: Sketch 53 (72520) - https://sketchapp.com -->
    <title>Group 43</title>
    <desc>Created with Sketch.</desc>
    <defs>
        <polygon id="path-1" points="0 42.5612245 41.9982128 42.5612245 41.9982128 0.0293979592 0 0.0293979592"></polygon>
    </defs>
    <g id="Page-1" stroke="none" stroke-width="1" fill="none" fill-rule="evenodd">
        <g id="5--UI-v4" transform="translate(-168.000000, -415.000000)">
            <g id="Group-43" transform="translate(168.000000, 415.000000)">
                <path d="M10.256266,5.35670306 L10.256266,7.33119286" id="Stroke-1" stroke="#FFFFFF" stroke-width="0.550000012" stroke-linecap="round" stroke-linejoin="round"></path>
                <path d="M11.2615851,6.34394796 L9.25094681,6.34394796" id="Stroke-2" stroke="#FFFFFF" stroke-width="0.550000012" stroke-linecap="round" stroke-linejoin="round"></path>
                <path d="M7.12860638,2.77889694 L7.12860638,4.75338673" id="Stroke-3" stroke="#FFFFFF" stroke-width="0.550000012" stroke-linecap="round" stroke-linejoin="round"></path>
                <path d="M8.13392553,3.76614184 L6.12328723,3.76614184" id="Stroke-4" stroke="#FFFFFF" stroke-width="0.550000012" stroke-linecap="round" stroke-linejoin="round"></path>
                <path d="M5.67647872,26.4912031 L5.67647872,28.4656929" id="Stroke-5" stroke="#FFFFFF" stroke-width="0.550000012" stroke-linecap="round" stroke-linejoin="round"></path>
                <path d="M6.68179787,27.478448 L4.67115957,27.478448" id="Stroke-6" stroke="#FFFFFF" stroke-width="0.550000012" stroke-linecap="round" stroke-linejoin="round"></path>
                <path d="M2.12993617,23.8311265 L2.12993617,25.8056163" id="Stroke-7" stroke="#FFFFFF" stroke-width="0.550000012" stroke-linecap="round" stroke-linejoin="round"></path>
                <path d="M3.13525532,24.8183714 L1.12461702,24.8183714" id="Stroke-8" stroke="#FFFFFF" stroke-width="0.550000012" stroke-linecap="round" stroke-linejoin="round"></path>
                <g id="Group-42" transform="translate(0.000000, 0.409509)">
                    <path d="M22.3384149,42.0785714 L10.7960106,42.0785714 C9.35639362,42.0785714 8.1897766,40.9329286 8.1897766,39.5191939 L8.1897766,21.7487857 C8.1897766,20.335051 9.35639362,19.1889694 10.7960106,19.1889694 L22.3384149,19.1889694 C23.7780319,19.1889694 24.9450957,20.335051 24.9450957,21.7487857 L24.9450957,39.5191939 C24.9450957,40.9329286 23.7780319,42.0785714 22.3384149,42.0785714 Z" id="Stroke-9" stroke="#FFFFFF" stroke-width="0.968000035"></path>
                    <path d="M11.2148936,16.9222551 L21.5938085,16.9222551" id="Stroke-11" stroke="#FFFFFF" stroke-width="0.968000035"></path>
                    <path d="M9.86530851,16.9222551 L5.4807766,16.9222551 C3.7587766,16.9222551 2.3625,18.2929898 2.3625,19.9844694 C2.3625,21.6755102 3.7587766,23.0466837 5.4807766,23.0466837 L8.1897766,23.0466837" id="Stroke-13" stroke="#FFFFFF" stroke-width="0.968000035"></path>
                    <path d="M8.18495106,31.8221939 L3.61007872,31.8221939 C1.88763191,31.8221939 0.491355319,33.1933673 0.491355319,34.8844082 C0.491355319,36.5758878 1.88763191,37.9466224 3.61007872,37.9466224 L8.19880213,37.9466224" id="Stroke-15" stroke="#FFFFFF" stroke-width="0.968000035"></path>
                    <path d="M24.9450957,38.1295918 C24.9450957,38.1295918 28.5195638,38.2757041 28.5195638,33.5957245 L28.5195638,0.0293979592" id="Stroke-17" stroke="#FFFFFF" stroke-width="0.968000035"></path>
                    <path d="M20.6257979,15.6787653 L12.4344574,15.6787653 L12.4344574,13.0096939 C12.4344574,11.6161429 13.5845426,10.4867347 15.0036064,10.4867347 L18.0566489,10.4867347 C19.4757128,10.4867347 20.6257979,11.6161429 20.6257979,13.0096939 L20.6257979,15.6787653 Z" id="Stroke-19" stroke="#FFFFFF" stroke-width="0.968000035"></path>
                    <path d="M8.1897766,36.520602 L24.9450957,36.520602" id="Stroke-21" stroke="#FFFFFF" stroke-width="0.968000035"></path>
                    <path d="M24.8704787,37.6175408 L8.11515957,37.6175408" id="Stroke-23" stroke="#FFFFFF" stroke-width="0.968000035"></path>
                    <path d="M18.3171383,8.8777449 L15.1153085,8.8777449 C13.9634362,8.8777449 13.0300532,7.96114286 13.0300532,6.83041837 L13.0300532,5.14815306 L20.4023936,5.14815306 L20.4023936,6.83041837 C20.4023936,7.96114286 19.4690106,8.8777449 18.3171383,8.8777449 Z" id="Stroke-25" stroke="#FFFFFF" stroke-width="0.968000035"></path>
                    <mask id="mask-2" fill="white">
                        <use xlink:href="#path-1"></use>
                    </mask>
                    <g id="Clip-28"></g>
                    <polygon id="Stroke-27" stroke="#FFFFFF" stroke-width="0.968000035" mask="url(#mask-2)" points="14.3702553 10.4845408 18.7637234 10.4845408 18.7637234 8.8777449 14.3702553 8.8777449"></polygon>
                    <polygon id="Stroke-29" stroke="#FFFFFF" stroke-width="0.968000035" mask="url(#mask-2)" points="12.6576383 16.9205 20.4021702 16.9205 20.4021702 15.4593776 12.6576383 15.4593776"></polygon>
                    <polygon id="Stroke-30" stroke="#FFFFFF" stroke-width="0.968000035" mask="url(#mask-2)" points="26.8808936 13.1926633 29.859766 13.1926633 29.859766 11.0716224 26.8808936 11.0716224"></polygon>
                    <polygon id="Stroke-31" stroke="#FFFFFF" stroke-width="0.968000035" mask="url(#mask-2)" points="27.4023191 10.4134592 29.5617447 10.4134592 29.5617447 2.95427551 27.4023191 2.95427551"></polygon>
                    <polygon id="Stroke-32" stroke="#FFFFFF" stroke-width="0.968000035" mask="url(#mask-2)" points="13.5512553 19.1937959 19.4339362 19.1937959 19.4339362 16.9222551 13.5512553 16.9222551"></polygon>
                    <path d="M17.4981383,11.5836735 C17.4981383,11.5836735 19.2853723,11.510398 19.6575638,12.8267245 L19.6575638,14.2163265" id="Stroke-33" stroke="#FFFFFF" stroke-width="0.968000035" mask="url(#mask-2)"></path>
                    <path d="M21.0726064,20.4324592 C21.0726064,20.4324592 23.8280745,19.7742959 23.8280745,23.2112245 L23.8280745,29.2808061" id="Stroke-34" stroke="#FFFFFF" stroke-width="0.968000035" mask="url(#mask-2)"></path>
                    <path d="M38.3703064,5.70605612 C38.2898809,5.82496429 38.2242,5.92368878 38.1629872,6.01495408 C38.2577106,6.12377041 38.3546681,6.23521939 38.4444766,6.33833163 C38.4216894,6.14351531 38.3975617,5.93509694 38.3703064,5.70605612 M36.9440936,8.59144388 C37.1876043,8.31896429 37.2926043,7.98066837 37.4163702,7.65158673 C37.4217319,7.63798469 37.4208383,7.61692347 37.4136894,7.60463776 C37.2470298,7.31153571 37.1925191,6.99430102 37.1960936,6.65951531 C36.9405191,7.39051531 36.5022,7.97935204 35.8217106,8.41198469 C35.715817,7.99427041 35.6626468,7.58752551 35.6510298,7.17683163 C35.6394128,6.76306633 35.6796255,6.35588265 35.8856043,5.97458673 C35.7658596,5.9429949 35.6617532,5.91579082 35.5576468,5.88814796 C35.5598809,5.87630102 35.5616681,5.86401531 35.5639021,5.85216837 C35.6465617,5.85918878 35.7292213,5.86971939 35.811434,5.87191327 C35.8601362,5.87322959 35.9276043,5.87893367 35.9544128,5.85172959 C36.1233064,5.68060714 36.303817,5.52922959 36.5660936,5.45332143 C36.0656681,5.01454592 35.5849021,4.59288265 35.1023489,4.16946429 C34.0746894,5.5542398 34.2569872,7.7310051 35.8972213,8.91482143 C37.4427319,10.0306276 39.4261149,9.57912755 40.2808596,8.68314796 C40.1213489,8.57301531 39.9658596,8.46419898 39.8090298,8.35757653 C39.5217319,8.16363776 39.2822426,7.92362755 39.0570511,7.66211735 C38.8930723,7.47168878 38.6888809,7.31504592 38.5012213,7.14172959 C38.4288383,7.31065816 38.3640511,7.45282143 38.3077532,7.59805612 C38.2956894,7.62877041 38.3050723,7.67352551 38.3184766,7.70731122 C38.4391149,8.01357653 38.5378596,8.33081122 38.7693064,8.58354592 C38.431966,8.41461735 38.3533277,8.06930102 38.2023064,7.77005612 C38.0874766,7.8564949 37.9730936,7.94293367 37.8537957,8.03288265 C37.7327106,7.93854592 37.6263702,7.85517857 37.512434,7.76654592 C37.3676681,8.07588265 37.2765191,8.41768878 36.9440936,8.59144388 M37.024966,5.21287245 C37.0928809,5.28790306 37.1607957,5.3624949 37.2282638,5.43752551 C37.2389872,5.4269949 37.248817,5.41646429 37.2595404,5.40593367 C37.239434,5.27781122 37.1125404,5.26684184 37.0218383,5.2155051 C36.9878809,5.17864796 36.9534766,5.14179082 36.9204128,5.10405612 C36.7340936,4.89388265 36.6273064,4.65475 36.7220298,4.37963776 C36.7600085,4.2695051 36.7466043,4.19754592 36.6782426,4.11856633 C36.6532213,4.08916837 36.6322213,4.0562602 36.6130085,4.02335204 C36.4861149,3.80045408 36.3985404,3.56439286 36.3686043,3.30727041 C36.4646681,3.45382143 36.5576043,3.60256633 36.6210511,3.76228061 C36.7122,3.99219898 36.8860085,4.21378061 36.8082638,4.47397449 C36.7443702,4.68809694 36.8127319,4.82631122 36.9659872,4.96057653 C37.0629447,5.04482143 37.1456043,5.1457398 37.2313915,5.23612755 C37.2859021,5.10844388 37.3337106,4.99743367 37.3716894,4.90836224 C37.3212,4.84561735 37.2282638,4.77804592 37.2380936,4.73109694 C37.2537319,4.65738265 37.3337106,4.59332143 37.3953702,4.53408673 C37.4445191,4.48845408 37.5034979,4.44808673 37.5647106,4.42044388 C37.6647957,4.37525 37.7756043,4.30153571 37.8734553,4.3125051 C38.1057957,4.33883163 38.2836255,4.49503571 38.452966,4.64202551 C38.5284766,4.70784184 38.494966,4.80525 38.403817,4.85088265 C38.3779021,4.86404592 38.3502,4.87413776 38.3309872,4.88203571 C38.3837106,4.99831122 38.4337532,5.10844388 38.4896043,5.23217857 C38.6383915,5.07597449 38.7867319,4.92415816 38.9283702,4.76619898 C38.9471362,4.74557653 38.9377532,4.69467857 38.9337319,4.65869898 C38.9145191,4.48318878 38.8568809,4.3089949 38.9382,4.13260714 C39.0101362,3.97815816 39.0659872,3.81668878 39.138817,3.66355612 C39.1977957,3.53982143 39.2715191,3.42266837 39.3385404,3.30244388 C39.3099447,3.63328061 39.1843915,3.92243367 38.9953915,4.18657653 C38.9766255,4.21290306 38.9587532,4.25502551 38.9667957,4.28266837 C39.0954766,4.74075 38.961434,5.05535204 38.5365191,5.29492347 C38.499434,5.31598469 38.4793277,5.36688265 38.4449234,5.41163776 C38.5753915,5.41163776 38.674583,5.41251531 38.7737745,5.41119898 C39.1392638,5.40725 39.4560511,5.52045408 39.6973277,5.7960051 C39.7639021,5.87235204 39.829583,5.88727041 39.9211787,5.87279082 C39.999817,5.8605051 40.0811362,5.86094388 40.1615617,5.8552398 L40.1642426,5.88727041 C40.0547745,5.91622959 39.9448596,5.94475 39.8711362,5.9644949 C39.9323489,6.2260051 40.0239447,6.46996429 40.0386894,6.71875 C40.0601362,7.07240306 40.0243915,7.43044388 40.0159021,7.78629082 C40.0145617,7.82929082 40.0141149,7.88808673 40.039583,7.91221939 C40.2196468,8.08290306 40.4064128,8.24656633 40.6003277,8.4207602 C41.4461362,7.40016837 41.7209234,6.25803571 41.278583,5.01893367 C40.8004979,3.68022959 39.7965191,2.89131122 38.361817,2.71711735 C37.2081574,2.57714796 36.2144553,2.96283163 35.4003702,3.79036224 C35.4320936,3.82985204 35.4477319,3.8557398 35.4696255,3.87548469 C35.8864979,4.24581122 36.3029234,4.61657653 36.7224766,4.98383163 C36.8172,5.06632143 36.9239872,5.13696429 37.024966,5.21287245 M33.9464553,6.13210714 C33.9254553,3.97728061 35.7390511,2.17347449 37.9730936,2.17786224 C40.2080298,2.18225 41.9916894,3.97552551 41.9934766,6.13868878 C41.9952638,8.30536224 40.1637957,10.13725 37.8837319,10.0920561 C35.7430723,10.0494949 33.9299234,8.31413776 33.9464553,6.13210714" id="Fill-35" fill="#FFFFFF" mask="url(#mask-2)"></path>
                    <path d="M38.8179638,26.9952245 C38.7737298,27.1255408 38.8041128,27.1742449 38.9895383,27.2712143 C38.929666,27.1711735 38.9591553,27.0369082 38.8179638,26.9952245 M35.9253255,25.2366122 C35.9293468,25.2309082 35.9338149,25.2256429 35.938283,25.2199388 C35.6621553,24.9764184 35.3855809,24.7337755 35.1085596,24.4893776 C34.5366447,25.2028265 34.1930489,26.4888776 34.7091128,27.7099898 C35.2640489,29.025 36.2912617,29.763898 37.7384745,29.8836837 C38.6973255,29.963102 39.5440277,29.6568367 40.2924319,29.0311429 C40.0104957,28.7863061 39.748666,28.559898 39.4881766,28.3317347 C39.2241128,28.1005 38.9618362,27.8666327 38.6910702,27.6266224 C38.6343255,27.7775612 38.5878574,27.9184082 38.5288787,28.0531122 C38.4198574,28.3010204 38.2867085,28.534449 38.0525809,28.6919694 C37.8948574,28.7981531 37.788517,28.8042959 37.653134,28.681 C37.5244532,28.5642857 37.4002404,28.4339694 37.3104319,28.2878571 C37.0906021,27.9302551 37.0016872,27.5270204 36.9364532,27.1180816 C36.9297511,27.0777143 36.9020489,27.0412959 36.8841766,27.0031224 C36.8546872,27.0373469 36.8180489,27.0676224 36.7970489,27.1062347 C36.6589851,27.3545816 36.5334319,27.6103878 36.3841979,27.8521531 C36.3265596,27.9451735 36.220666,28.0109898 36.129517,28.0816327 C36.1076234,28.0991837 36.0593681,28.0842653 36.0227298,28.0842653 C36.0254106,28.0456531 36.0120064,27.9921224 36.0330064,27.9701837 C36.0937723,27.9056837 36.1688362,27.8543469 36.2380915,27.7973061 C36.3153894,27.7323673 36.4145809,27.6801531 36.465517,27.5985408 C36.5745383,27.426102 36.6585383,27.2391837 36.7496872,27.0566531 C36.7613043,27.033398 36.7684532,26.9921531 36.7554957,26.974602 C36.6795383,26.8701735 36.7546021,26.8170816 36.8176021,26.7486327 C36.8587085,26.7047551 36.8859638,26.6420102 36.9020489,26.5832143 C36.9163468,26.531 36.9078574,26.4735204 36.9091979,26.4182347 C36.9141128,26.2440408 36.8095596,26.1786633 36.6455809,26.2471122 C36.5267298,26.2966939 36.4069851,26.3502245 36.2823255,26.3796224 C36.0857298,26.4252551 35.8851128,26.4603571 35.6840489,26.4831735 C35.5870915,26.4941429 35.4731553,26.4910714 35.4257936,26.3581224 C35.539283,26.2743163 35.658134,26.3146837 35.7751979,26.3247755 C35.9114745,26.3357449 36.0566872,26.3677755 36.1826872,26.3348673 C36.4150277,26.273 36.6889213,26.2615918 36.8144745,25.9877959 C36.6612191,25.8522143 36.5039426,25.7245306 36.3618574,25.5819286 C36.2394319,25.4590714 36.0960064,25.4077347 35.926666,25.3928163 C35.8431128,25.3849184 35.7550915,25.3599082 35.6813681,25.3204184 C35.6308787,25.2927755 35.6018362,25.2265204 35.5629638,25.1773776 C35.6223894,25.1721122 35.6831553,25.1536837 35.7399,25.1633367 C35.8042404,25.1751837 35.863666,25.211602 35.9253255,25.2366122 M38.9193894,26.2159592 C38.8831979,26.2440408 38.8179638,26.2712449 38.8161766,26.3010816 C38.8099213,26.4318367 38.7759638,26.5946224 38.8403043,26.6867653 C38.9193894,26.7999694 38.9770277,26.8732449 38.9797085,27.0303265 C38.9823894,27.205398 39.0802404,27.3923163 39.2401979,27.5221939 C39.3898787,27.6441735 39.529283,27.778 39.6736021,27.9061224 C39.9778787,28.1759694 40.2821553,28.4462551 40.6011766,28.7292653 C41.3781766,27.8126633 41.6645809,26.7793469 41.3705809,25.6398469 C41.0153681,24.2634082 40.0967298,23.3836633 38.6825809,23.087051 C37.4149851,22.8207143 36.3122617,23.1949898 35.3896021,24.1115918 C35.847134,24.5174592 36.2899213,24.9158673 36.7420915,25.3041837 C36.7849851,25.3410408 36.885517,25.3256837 36.9570064,25.3164694 C37.0427936,25.3055 37.1263468,25.2752245 37.2250915,25.2493367 C37.270666,25.1984388 37.3323255,25.129551 37.380134,25.0755816 C37.3984532,24.9764184 37.4056021,24.8842755 37.4333043,24.7987143 C37.4605596,24.7166633 37.4529638,24.6666429 37.3779,24.6082857 C37.2460915,24.506051 37.1187511,24.394602 37.0088362,24.2708673 C36.801517,24.0374388 36.6714957,23.7636429 36.6308362,23.4516735 C36.8636234,23.8755306 37.1093681,24.287102 37.5110489,24.5806429 C37.7952191,24.3305408 37.9024532,24.330102 38.2138787,24.5775714 C38.6133255,24.281398 38.8604106,23.8702653 39.090517,23.4442143 C39.0949851,23.478 39.0918574,23.507398 39.0856021,23.5354796 C38.9788149,23.9966327 38.7076021,24.3485306 38.3260277,24.6236429 C38.2648149,24.6675204 38.2585596,24.7008673 38.2809,24.7693163 C38.3121766,24.8667245 38.3220064,24.9715918 38.3425596,25.0808469 C38.3733894,25.115949 38.4158362,25.1620204 38.4573894,25.2089694 C38.4770489,25.2304694 38.4935809,25.266449 38.5168149,25.2708367 C38.6830277,25.3055 38.8496872,25.3476224 39.0185809,25.3616633 C39.3116872,25.3857959 39.6079213,25.4024694 39.8648362,25.2076531 C39.9157723,25.168602 39.991283,25.155 40.0578574,25.1435918 C40.0886872,25.1383265 40.1253255,25.1664082 40.159283,25.1791327 C40.1454319,25.2129184 40.1409638,25.2611837 40.1150489,25.2769796 C40.0507085,25.3164694 39.979666,25.3533265 39.9059426,25.3704388 C39.5650277,25.4494184 39.2205383,25.4538061 38.8751553,25.399398 C38.8371766,25.3936939 38.7884745,25.395449 38.7589851,25.4147551 C38.7120702,25.4467857 38.6772191,25.4959286 38.6352191,25.5398061 C38.6763255,25.6977653 38.7183255,25.8614286 38.7603255,26.0250918 C38.8130489,26.0887143 38.8657723,26.1523367 38.9193894,26.2159592 M37.9614319,22.502602 C40.1740277,22.4758367 42.0331979,24.269551 41.9974532,26.5204694 C41.9639426,28.6498469 40.1798362,30.4426837 37.8868149,30.4058265 C35.7331979,30.371602 33.9236234,28.6033367 33.9419426,26.4077041 C33.9593681,24.2805204 35.7751979,22.4718878 37.9614319,22.502602" id="Fill-36" fill="#FFFFFF" mask="url(#mask-2)"></path>
                    <path d="M39.2914021,17.1339204 C39.2914021,17.0031653 39.2954234,16.9114612 39.2891681,16.8201959 C39.286934,16.7921143 39.2637,16.7561347 39.2386787,16.7399 C39.0675511,16.6275735 38.8910617,16.5218286 38.7208277,16.4086245 C38.6189553,16.3406143 38.4996574,16.2800633 38.4312957,16.1857265 C38.299934,16.0040735 38.1994021,15.8004816 38.0850191,15.6052265 C38.0591043,15.6236551 38.0229128,15.6491041 38.0068277,15.6613898 C38.0653596,15.7579204 38.1578489,15.8434816 38.1649979,15.9356245 C38.1824234,16.1488694 38.3012745,16.2783082 38.4585511,16.3967776 C38.5398702,16.4590837 38.6118064,16.5341143 38.6886574,16.6021245 C38.8794447,16.7706143 39.0702319,16.9391041 39.2914021,17.1339204 M35.3813809,13.6754918 C35.6043383,13.8711857 35.7978064,14.0401143 35.9890404,14.2103592 C36.4152957,14.5881449 36.8402106,14.9676857 37.2660191,15.3454714 C37.3491255,15.4191857 37.4952319,15.4174306 37.530083,15.3336245 C37.5644872,15.2506959 37.5635936,15.1629408 37.4523383,15.1142367 C37.3857638,15.0857163 37.3272319,15.0400837 37.2678064,14.9975224 C37.0461894,14.8404408 36.8697,14.6561551 36.7991043,14.3814816 C36.7575511,14.2191347 36.6677426,14.069951 36.6025085,13.9133082 C36.5685511,13.8316959 36.5077851,13.8058082 36.4215511,13.7996653 C36.1186149,13.7786041 35.8415936,13.6847061 35.5904872,13.4872571 C35.5261468,13.5451755 35.4631468,13.6022163 35.3813809,13.6754918 M40.1247,13.3152571 C38.8361043,12.2709714 36.8513809,12.3863694 35.7200617,13.4069612 C35.9595511,13.4999816 36.1771468,13.6030939 36.4063596,13.6671551 C36.5855298,13.716298 36.6927638,13.8115122 36.7512957,13.9751755 C36.7727426,14.0352878 36.7964234,14.0940837 36.8187638,14.1541959 C36.8737213,14.3003082 36.8974021,14.4709918 36.9907851,14.5872673 C37.1480617,14.7847163 37.3495723,14.9488184 37.5256149,15.1199408 C37.6100617,15.0563184 37.6703809,15.0106857 37.7307,14.9654918 C37.4107851,14.6377265 37.4081043,14.4854714 37.7561681,14.400349 C37.6368702,14.2046551 37.5224872,14.017298 37.4098915,13.8330122 C37.6185511,13.9786857 37.7172957,14.1998286 37.7928064,14.4358898 C37.8035298,14.4323796 37.8142532,14.4284306 37.8249766,14.4249204 C37.8401681,14.0423082 37.8549128,13.6592571 37.8696574,13.2766449 L37.8919979,13.2753286 C37.9067426,13.6605735 37.9223809,14.0458184 37.9375723,14.4310633 C37.9496362,14.4328184 37.9617,14.4350122 37.9742106,14.4372061 C38.0376574,14.2213286 38.120317,14.017298 38.320934,13.862849 C38.2119128,14.0532776 38.1131681,14.2257163 38.0144234,14.3981551 C38.0327426,14.3946449 38.0506149,14.3915735 38.068934,14.3880633 C38.1283596,14.4407163 38.2145936,14.4824 38.244083,14.5482163 C38.3405936,14.7627776 38.1359553,14.8457061 38.0278277,14.9615429 C38.0944021,15.0133184 38.1560617,15.0607061 38.2284447,15.1168694 C38.3638277,14.9953286 38.5041255,14.8694 38.6439766,14.7430327 C38.7583596,14.6399204 38.8325298,14.517502 38.8727426,14.3674408 C38.9111681,14.220451 38.9737213,14.0796041 39.0286787,13.937002 C39.0827426,13.7970327 39.1792532,13.7110327 39.3351894,13.6750531 C39.6180191,13.6101143 39.8807426,13.4951551 40.1247,13.3152571 M40.5938489,18.2879 C41.8677,16.968502 41.774317,14.6210531 40.2399766,13.4161755 C40.0339979,13.6329306 39.7703809,13.7654408 39.4768277,13.7764102 C39.1980191,13.7869408 39.1167,13.9593796 39.0344872,14.1572673 C39.0099128,14.2160633 38.9915936,14.2770531 38.9746149,14.3384816 C38.9272532,14.5074102 38.8767638,14.6763388 38.7319979,14.7926143 C38.5854447,14.9106449 38.433083,15.0216551 38.2811681,15.1322265 C38.202083,15.1905837 38.1922532,15.3305531 38.2753596,15.3709204 C38.6877638,15.5740735 39.097934,15.780298 39.5585936,15.8711245 C39.7967426,15.9180735 40.0317638,15.9948592 40.2574021,16.0848082 C40.3923383,16.1383388 40.4334447,16.2769918 40.4035085,16.4068694 C40.3758064,16.5270939 40.2815298,16.6174816 40.1354234,16.628451 C39.9902106,16.6389816 39.840083,16.646002 39.6984447,16.618798 C39.1926574,16.5227061 38.7757851,16.2682163 38.4379979,15.8891143 C38.3361255,15.7745939 38.2481043,15.6486653 38.1538277,15.528002 C38.3397,15.8601551 38.4661468,16.2405735 38.8731894,16.3941449 C38.925466,16.4138898 38.971934,16.4463592 39.0228702,16.4687367 C39.2909553,16.5880837 39.4455511,16.775002 39.4343809,17.0803898 C39.4303596,17.2067571 39.4768277,17.3217163 39.5916574,17.4081551 C39.7252532,17.5086347 39.8427638,17.629298 39.9687638,17.7398694 C40.1765298,17.9228388 40.3856362,18.1053694 40.5938489,18.2879 M38.2972532,18.6371653 C38.1909128,18.5213286 38.1565085,18.3747776 38.1453383,18.2225224 C38.1229979,17.9219612 38.2391681,17.6573796 38.3852745,17.4028898 C38.4018064,17.3743694 38.4339766,17.334002 38.4250404,17.3142571 C38.3566787,17.1694612 38.2798277,17.0286143 38.2061043,16.886451 C38.1078064,17.2019306 38.0162106,17.4945939 37.9250617,17.7876959 C37.9098702,17.785502 37.8951255,17.7833082 37.8803809,17.7815531 C37.7181894,17.5024918 37.6542957,17.1900837 37.5837,16.8390633 C37.5059553,16.9812265 37.4492106,17.0896041 37.3875511,17.195349 C37.3379553,17.2800327 37.3392957,17.3524306 37.3942532,17.4401857 C37.5403596,17.6758082 37.6332957,17.9311755 37.6181043,18.2128694 C37.6091681,18.3708286 37.5734234,18.5226449 37.4451894,18.6376041 C37.476466,18.2690327 37.4523383,17.9070429 37.3080191,17.5687469 C37.2204447,17.3629612 37.2284872,17.1878898 37.3683383,17.0255429 C37.5457213,16.8210735 37.5948702,16.5946653 37.5685085,16.3322776 C37.5559979,16.2151245 37.5215936,16.1436041 37.4054234,16.0970939 C37.3048915,16.2787469 37.1337638,16.3647469 36.9586149,16.4546959 C36.8067,16.5323592 36.6672957,16.6359102 36.5292319,16.7372673 C36.4970617,16.7609612 36.4818702,16.8210735 36.4774021,16.8662673 C36.4572957,17.0641551 36.4626574,17.2664306 36.4246787,17.4603694 C36.3697213,17.7420633 36.1740191,17.961451 35.9532957,18.0246347 C36.1521255,17.746451 36.2982319,17.4480837 36.3147638,17.119002 C36.3321894,16.7723694 36.4957213,16.560002 36.8062532,16.431002 C36.8697,16.4046755 36.9353809,16.3765939 36.9898915,16.3371041 C37.091317,16.2616347 37.1891681,16.1800224 37.2812106,16.0940224 C37.3044447,16.0725224 37.3004234,16.0233796 37.3089128,15.9869612 C37.2704872,15.9974918 37.2204447,15.9966143 37.1945298,16.0207469 C36.9478915,16.2467163 36.6708702,16.4244204 36.3545298,16.5389408 C36.1163809,16.6253796 35.8719766,16.6718898 35.6168489,16.6315224 C35.4635936,16.6078286 35.3644021,16.5222673 35.338934,16.3858082 C35.3148064,16.2537367 35.3702106,16.1536959 35.4850404,16.0856857 C35.5404447,16.0532163 35.5958489,16.0150429 35.6566149,15.9983694 C35.8353383,15.9496653 36.0171894,15.9145633 36.195466,15.8658592 C36.4304872,15.8026755 36.6628277,15.7320327 36.9300191,15.6543694 C36.2986787,15.1010735 35.7044234,14.5798082 35.1083809,14.0567878 C34.2183383,15.2406041 34.1781255,17.1602469 35.4966574,18.4620939 C36.7959766,19.745951 38.9272532,19.7999204 40.2994021,18.5919714 C39.6551043,18.0347265 39.013934,17.4783592 38.3718702,16.9228694 C38.3642745,16.9298898 38.3557851,16.9377878 38.3481894,16.9452469 C38.3749979,16.9878082 38.4013596,17.0308082 38.4295085,17.0720531 C38.5215511,17.2071959 38.547466,17.3440939 38.4813383,17.5029306 C38.4245936,17.638951 38.3763383,17.7837469 38.3557851,17.9294204 C38.3227213,18.162849 38.3155723,18.3997878 38.2972532,18.6371653 M33.9422106,16.0115327 C33.9480191,13.8672367 35.7383809,12.0717673 37.9581255,12.0643082 C40.1707213,12.0572878 41.9731468,13.8137061 41.9972745,15.9816959 C42.0214021,18.1821551 40.2113809,19.9350633 38.0658064,19.9780633 C35.7978064,20.0236959 33.9471255,18.2405122 33.9422106,16.0115327" id="Fill-37" fill="#FFFFFF" mask="url(#mask-2)"></path>
                    <path d="M38.6286064,26.0251357 C38.7309255,25.9948602 38.8176064,25.9961765 38.8537979,26.12035 C38.8600532,26.1405337 38.8846277,26.1620337 38.9056277,26.1694929 C39.079883,26.2296051 39.2523511,26.3024418 39.4315213,26.3384214 C39.5530532,26.3625541 39.6862021,26.3371051 39.8130957,26.3261357 C39.9306064,26.3160439 40.0494574,26.2730439 40.1893085,26.3801051 C40.1218404,26.4182786 40.0749255,26.4612786 40.0217553,26.4713704 C39.7719894,26.5174418 39.5342872,26.4410949 39.2983723,26.37835 C39.166117,26.343248 39.0410106,26.2831357 38.9109894,26.2375031 C38.872117,26.223901 38.8283298,26.2225847 38.7867766,26.2160031 C38.7340532,26.1523806 38.6813298,26.0887582 38.6286064,26.0251357" id="Fill-38" fill="#FFFFFF" mask="url(#mask-2)"></path>
                    <path d="M36.8260915,36.428898 C36.2546234,35.9273776 35.6795809,35.4232245 35.1023043,34.9173163 C34.048283,36.3937959 34.3038574,38.3340612 35.6612617,39.4840918 C37.1634319,40.7569796 39.1405596,40.4963469 40.2794745,39.4577653 C40.1959213,39.384051 40.1105809,39.3138469 40.0314957,39.2366224 C39.984134,39.1909898 39.9466021,39.1962551 39.8844957,39.212051 C39.7491128,39.2467143 39.6030064,39.2905918 39.4689638,39.2730408 C38.9184957,39.2002041 38.5552404,38.8860408 38.3590915,38.3796939 C38.3354106,38.3187041 38.3099426,38.2581531 38.2947511,38.2199796 C38.1790277,38.2721939 38.0682191,38.3656531 37.9672404,38.3568776 C37.8591128,38.3476633 37.7599213,38.2419184 37.6509,38.1747857 C37.5686872,38.4823673 37.4248149,38.7579184 37.1728149,38.9689694 C36.9279638,39.1751939 36.6437936,39.3050714 36.3203043,39.2813776 C35.8953894,39.2506633 35.5768149,38.8382143 35.6197085,38.4073367 C35.6639426,37.9580306 35.8989638,37.589898 36.1599,37.2397551 C36.3663255,36.9628878 36.5977723,36.704449 36.8260915,36.428898 M38.614666,35.9497551 C38.7482617,36.0866531 38.8546021,36.198102 38.9631766,36.3069184 C39.4153468,36.7606122 39.8420489,37.2331735 40.1333681,37.8079694 C40.2620489,38.0620204 40.3884957,38.3371327 40.2986872,38.6131224 C40.2258574,38.8382143 40.3232617,38.9351837 40.4698149,39.0444388 C40.4867936,39.0567245 40.5015383,39.0729592 40.5158362,39.0891939 C40.572134,39.1528163 40.623517,39.1488673 40.672666,39.0808571 C40.761134,38.9597551 40.8580915,38.8447959 40.9367298,38.7184286 C41.4523468,37.8878265 41.6006872,37.0010612 41.3674532,36.051551 C41.2240277,35.4684184 40.9376234,34.9647041 40.5247723,34.5272449 C40.0757298,34.0502959 39.5252617,33.7299898 38.8925809,33.5579898 C38.4144957,33.4281122 37.9243468,33.4044184 37.4274957,33.4838367 C36.7237723,33.5957245 36.1120915,33.8818061 35.5933468,34.3600714 C35.3837936,34.5535714 35.3900489,34.5513776 35.6103255,34.7435612 C35.9749213,35.0621122 36.3328149,35.3872449 36.6947298,35.7079898 C36.8479851,35.8440102 37.0039213,35.9760816 37.1719213,36.1217551 C37.2259851,36.0563776 37.317134,35.9852959 37.3041766,35.9532653 C37.2773681,35.8843776 37.1969426,35.8347959 37.1469,35.7856531 C37.207666,35.7163265 37.2729,35.6224286 37.3569,35.5504694 C37.4699426,35.4535 37.5981766,35.3732041 37.723283,35.2832551 C37.6987085,35.2472755 37.653134,35.2020816 37.6370489,35.1489898 C37.6200702,35.091949 37.6147085,35.0182347 37.6383894,34.9686531 C37.653134,34.9383776 37.7340064,34.9274082 37.7849426,34.9282857 C37.8760915,34.9291633 37.9672404,34.945398 38.0557085,34.955051 C38.1705383,34.5140816 38.3380915,34.3328673 38.6039426,34.3214592 C38.5092191,34.386398 38.3814319,34.4517755 38.2822404,34.5456735 C38.1808149,34.6417653 38.1191553,34.769449 38.1285383,34.9186327 C38.3899213,34.9287245 38.4028787,34.9796224 38.2447085,35.2700918 C38.4448787,35.4460408 38.6405809,35.617602 38.8215383,35.7768776 C38.7455809,35.8405 38.6785596,35.8962245 38.614666,35.9497551 M37.9516021,40.842102 C35.7568787,40.8333265 33.9446234,39.0712041 33.943283,36.8834694 C33.9419426,34.6922245 35.7814532,32.9292245 37.9596447,32.9283469 C40.1691128,32.9274694 41.9979,34.6816939 41.9961128,36.8865408 C41.9947723,39.0786633 40.1892191,40.842102 37.9516021,40.842102" id="Fill-39" fill="#FFFFFF" mask="url(#mask-2)"></path>
                    <path d="M37.8501766,34.8970449 C37.7840489,34.6035041 37.6106872,34.4073714 37.3113255,34.3275143 C37.6075596,34.3218102 37.8617936,34.5894633 37.8501766,34.8970449" id="Fill-40" fill="#9CBD51" mask="url(#mask-2)"></path>
                    <path d="M37.7890979,14.1006214 C37.8605872,14.0014582 37.7698851,13.843499 37.9083957,13.7697847 C37.8833745,13.8882541 37.8588,14.003652 37.8342255,14.1194888 C37.819034,14.1129071 37.8042894,14.1072031 37.7890979,14.1006214" id="Fill-41" fill="#9CBD51" mask="url(#mask-2)"></path>
                </g>
            </g>
        </g>
    </g>
</svg>