<svg xmlns="http://www.w3.org/2000/svg" xmlns:xlink="http://www.w3.org/1999/xlink" width="440.3" height="169.2" viewBox="0 0 440.3 169.2">
  <defs>
    <style>
      .cls-1 {
        fill: none;
      }

      .cls-2 {
        isolation: isolate;
      }

      .cls-3 {
        clip-path: url(#clip-path);
      }

      .cls-4 {
        fill: url(#linear-gradient);
      }

      .cls-5 {
        fill: #aedbc8;
        opacity: 0.5;
      }

      .cls-6 {
        fill: #434343;
        opacity: 0.2;
        mix-blend-mode: multiply;
      }

      .cls-7 {
        fill: #ffdba7;
      }

      .cls-10, .cls-11, .cls-12, .cls-13, .cls-14, .cls-15, .cls-16, .cls-18, .cls-20, .cls-21, .cls-7, .cls-8, .cls-9 {
        fill-rule: evenodd;
      }

      .cls-8 {
        fill: #1f1c1d;
      }

      .cls-9 {
        fill: #383638;
      }

      .cls-10 {
        fill: #323031;
      }

      .cls-11 {
        fill: #f0c07c;
      }

      .cls-12 {
        fill: #62270e;
      }

      .cls-13 {
        fill: #00522a;
      }

      .cls-14 {
        fill: #005e31;
      }

      .cls-15 {
        fill: #006836;
      }

      .cls-16 {
        fill: #d95726;
      }

      .cls-17 {
        fill: #3a4d57;
      }

      .cls-18 {
        fill: #f9faed;
      }

      .cls-19 {
        fill: #1c4481;
      }

      .cls-20 {
        fill: #e3e6e9;
      }

      .cls-21 {
        fill: #b64a26;
      }

      .cls-22 {
        fill: #fff;
      }
    </style>
    <clipPath id="clip-path">
      <rect class="cls-1" width="440.3" height="169.16"/>
    </clipPath>
    <linearGradient id="linear-gradient" x1="-989.43" y1="24.88" x2="-990.84" y2="25.22" gradientTransform="matrix(375, 0, 0, -166, 371542.27, 4245.28)" gradientUnits="userSpaceOnUse">
      <stop offset="0" stop-color="#64dcc2"/>
      <stop offset="1" stop-color="#70bce6"/>
    </linearGradient>
  </defs>
  <title>Banners (4)</title>
  <g class="cls-2">
    <g id="AMC">
      <g class="cls-3">
        <g>
          <g id="Page-1">
            <g id="UI---Screen-5">
              <g id="Group-2">
                <rect id="Rectangle-Copy-6" class="cls-4" width="440.3" height="169.4"/>
              </g>
            </g>
          </g>
          <path class="cls-5" d="M313.1,138.5c0,2.3-.9,4.2-2.2,4.2H279.1c-1.2,0-2.2-1.9-2.2-4.2h0c0-2.2,1-4.1,2.2-4.1h31.8c1.3,0,2.2,1.9,2.2,4.1Z"/>
          <path class="cls-5" d="M46,47.7c0,2.3-1,4.1-2.3,4.1H9.7c-1.3,0-2.4-1.8-2.4-4.1h0c0-2.2,1.1-4.1,2.4-4.1h34c1.3,0,2.3,1.9,2.3,4.1Z"/>
          <path class="cls-5" d="M119.6,23.1c0,2.3-1.3,4.1-2.9,4.1h-43c-1.6,0-3-1.8-3-4.1h0c0-2.3,1.4-4.1,3-4.1h43c1.6,0,2.9,1.8,2.9,4.1Z"/>
          <path class="cls-5" d="M203,119.5c0,2.3-1,4.1-2.3,4.1H167c-1.3,0-2.4-1.8-2.4-4.1h0c0-2.3,1.1-4.1,2.4-4.1h33.7c1.3,0,2.3,1.8,2.3,4.1Z"/>
          <path class="cls-5" d="M435.1,52.8c0,2.3-1.1,4.1-2.4,4.1H397.4c-1.3,0-2.4-1.8-2.4-4.1h0c0-2.3,1.1-4.1,2.4-4.1h35.3c1.3,0,2.4,1.8,2.4,4.1Z"/>
        </g>
        <g>
          <ellipse class="cls-6" cx="377" cy="154.4" rx="24.2" ry="6.4"/>
          <path class="cls-7" d="M398.2,70.8c.2,6.8-.7,10-1.1,16.8l-3.3,1.7a108.9,108.9,0,0,1-1.9-18L390,64.1l5.7-2.6A60.9,60.9,0,0,1,398.2,70.8Z"/>
          <g>
            <path class="cls-8" d="M363.5,148.5a5.4,5.4,0,0,1-.6,1.6,41.1,41.1,0,0,0-1.3,5.4s1.7,3.6,7.9,1c0,0,1.8-3.6,1.6-4.9a5.9,5.9,0,0,1,.6-2.6l-1.7-1.1Z"/>
            <path class="cls-8" d="M387.8,149.4l2.4,2.9,3.7,3.3c.4.3.5,2-.2,1.9l-3.8.3a7.7,7.7,0,0,1-3.6-.9c-.8-.4-1.6-1.1-2.6-1.7l-.4.8-3.6-1.2v-2.5c-.4-2.6.6-3,1-4.8h6.2Z"/>
            <path class="cls-9" d="M367.7,76.3l-1.6,11.9a44.7,44.7,0,0,0-1.3,10.3l-1.9,49.9,4.4,1.1,5-.5,5.1-52.2,1.1-.5,1.7-19.5Z"/>
            <path class="cls-10" d="M390.3,76.7l1.5,9c1.1,6.2,1,8.5.5,14.8l-3.7,48.7-4.6.4-5.1-.2.3-52.2-.7-.9V76.8Z"/>
            <polygon class="cls-9" points="386.4 96.3 384 149.6 378.9 149.4 379.2 97.2 378.5 96.3 378.5 76.8 383.7 77.3 386.4 96.3"/>
            <path class="cls-8" d="M361.6,155.5v1s2.4,3.2,7.9.6v-.6"/>
            <path class="cls-8" d="M371.7,149v1.4l-.2.9v.3s-.3,4-2,5.5l-.8-1.6,1.5-5.1Z"/>
          </g>
          <g>
            <g>
              <path class="cls-11" d="M373.4,32.5h8.5v6.9l-2.7,6.1-6-6.1Z"/>
              <path class="cls-7" d="M377.6,35.7h-.1a3,3,0,0,1-1.7-.2c-.5-.1-.7-.6-1.3-1.2s-1.5-1-1.7-1.5a8.3,8.3,0,0,1-.3-2.4c-.5.2-1-1.1-1.1-1.6a19.8,19.8,0,0,1-.8-2.6c-.1-.4-.1-.8.1-.9s.6-.1,1.1.5a9.6,9.6,0,0,0,0-1.7,23.5,23.5,0,0,1,.1-2.8,4,4,0,0,1,1.1-2h0l1.2-.8h0c.1,0,.1,0,.1-.1h.4a.1.1,0,0,0,.1-.1h.1a8.1,8.1,0,0,1,3.8-.4,6.7,6.7,0,0,1,3.3,1.5,4,4,0,0,1,1.1,2,13,13,0,0,1,0,2.8c0,.6.1,1.2.1,1.7s.8-.7,1.1-.5a1.2,1.2,0,0,1,.1.9,19.8,19.8,0,0,1-.8,2.6c-.1.4-.6,1.8-1.1,1.6a8,8,0,0,1-.3,2.3c-.2.6-1.2,1.1-1.7,1.6s-.8,1-1.3,1.2A3.4,3.4,0,0,1,377.6,35.7Z"/>
            </g>
            <path class="cls-12" d="M373.5,20.5c-.5.5-1.5,3.7-1.3,6.9-1.4-4.9-2.2-8.4.8-10.6s8.7-1.1,9.1,0c3.2,1.1,1.9,6,1,9.9a12.7,12.7,0,0,0-1.4-6.1c-.3-.2-1.3,1.1-1.5,1.1C377.9,21.5,377,21,373.5,20.5Z"/>
          </g>
          <path class="cls-13" d="M389,41.7a5.1,5.1,0,0,1,2.1.8c1.9,1.6,2,5,2.5,7.9.8,4.7,2.7,10.1,3.5,14.9l-3.6,2L391,68.9c-1.2-4.5-3.4-8.7-4.4-13.2Z"/>
          <path class="cls-14" d="M367.6,76.9v-.4c-1-6-.3-8.6-1.4-14.6s-2.6-10.8-3.8-20l7.3-2.2,3.3-2.4a7.7,7.7,0,0,1,.2,1.5l3.3,3.4,3.2.8.7-.2,2.1-3.2-.3-.9c2.9,1.7,3.5,2.1,5.7,2.7l2,.6c1.2.4,1,1.1,1.4,2.9s.2,7.2-.3,11.4-1.3,16.9-.7,20.5Z"/>
          <path class="cls-13" d="M386.1,40.8l1.7.6,2.1.6c1.2.4,1,1.1,1.4,2.9s.4,7.2-.1,11.4-1.8,15.6-.9,20.5h-6.7c-.2-2.7.1-4.5.7-9.8A176.8,176.8,0,0,0,386.1,40.8Z"/>
          <path class="cls-15" d="M373.2,36.3c1.7,2.8,3.4,4.3,6.2,6.6a7.2,7.2,0,0,0-2.4,3.4,20.1,20.1,0,0,1-4.1-8.9Z"/>
          <path class="cls-15" d="M381.9,37.8a11.9,11.9,0,0,1-2.5,5.1,18,18,0,0,1,2.1,3.4,13.1,13.1,0,0,0,1.3-7.6Z"/>
          <path class="cls-7" d="M360.5,48.3l-4.6,15.6c-.8,4,3.1,8.9,6.7.9l3.9-8.3C366.2,55.1,363.1,39.1,360.5,48.3Z"/>
          <path class="cls-14" d="M362.5,41.8c-.9,0-2.1,3.8-2.5,5.3l-3,11.7,6.4,4.8,3.8-6.8C366.6,53.9,365.9,41.9,362.5,41.8Z"/>
          <path class="cls-16" d="M397.3,85.5v5h-.1a18.2,18.2,0,0,1,.3,5.8c0,.8.1,1.2-.7,1.3l-1.5.2c-.5.2-1.8-.2-2.7.2l-.5-2.4c1-.2.7-.1,1,.9l1.8-.3a4.1,4.1,0,0,0-.6-1.7l-.9-.2-.6-1.3a6.5,6.5,0,0,1,0-1.4,2.3,2.3,0,0,1,.8-1.2v-.2h0l-.8-4.3Z"/>
          <rect class="cls-17" x="384.4" y="98.1" width="18.4" height="22.15" rx="0.7" ry="0.7"/>
          <path class="cls-18" d="M384.6,98h18.1a.7.7,0,0,1,.7.7V108a.7.7,0,0,1-.7.7H384.6a.7.7,0,0,1-.7-.7V98.7A.7.7,0,0,1,384.6,98Z"/>
          <rect class="cls-19" x="392.8" y="94" width="2.6" height="4.85" rx="0.6" ry="0.6"/>
          <path class="cls-16" d="M394.8,91,393,94.1a2.2,2.2,0,0,1-1.2,1.1c-.4.1-.8-.3-.6-.9a11.4,11.4,0,0,1,.9-1.9,4.2,4.2,0,0,1,.6-1.4,2.4,2.4,0,0,1,1.4-.8Z"/>
          <g>
            <polygon class="cls-20" points="386.4 53.6 386.9 55 387.4 56.4 386.5 57.5 385.6 58.6 385.5 58.6 384.9 67.6 384.9 67.6 385.6 68.7 386.3 69.8 385.6 71 385 72.2 384.8 72.1 384.9 70.5 384.6 69.9 384.2 69.4 383.6 69.4 382.9 69.4 382.6 70 382.3 70.5 382.5 72.1 382.3 72.2 381.7 71.1 381 70 381.6 68.8 382.2 67.7 382.2 67.7 382.9 58.1 382.7 58.1 382.2 56.8 381.7 55.4 382.6 54.3 383.5 53.2 383.6 53.4 383.2 55 383.5 55.7 383.7 56.3 384.4 56.5 385.1 56.6 385.6 56 386 55.5 386.1 53.7 386.4 53.6"/>
            <g>
              <path class="cls-7" d="M358.5,69.6c7.1.6,10.6-1.7,18-2,0-2.3-.2-2.7.2-3.8s-10.9-.8-17-1.8C355.3,61.3,353.6,69.1,358.5,69.6Z"/>
              <path class="cls-21" d="M374.8,63.5c.7-.2,3.1.1,3.5-.5,1.2-2.2,1.1-1.3,3.1-2.9s2.3-2.3,3-1.6-.6,1.7-1.8,3.4a8,8,0,0,0,2.2-.5,2.8,2.8,0,0,0,.6-.8c.6.7,1,1.4.4,2.3s.5,1.3-.2,1.7-.2,1.1-1,1.5-.5.8-1.4,1.1l-2.9.6-1-.2-4.3.7Z"/>
            </g>
          </g>
        </g>
      </g>
      <g>
        <g>
          <path class="cls-22" d="M52.5,55.6a29,29,0,1,1-28.9,29,29,29,0,0,1,28.9-29m0-2.5A31.5,31.5,0,1,0,84,84.6,31.5,31.5,0,0,0,52.5,53.1Z"/>
          <path class="cls-22" d="M52.5,59.2A25.4,25.4,0,1,1,27.1,84.6,25.5,25.5,0,0,1,52.5,59.2m0-1.3A26.7,26.7,0,1,0,79.2,84.6,26.7,26.7,0,0,0,52.5,57.9Z"/>
          <g>
            <path class="cls-22" d="M67,87.6h0a2.5,2.5,0,0,1-.2,1.2,3.6,3.6,0,0,1-1.5,1.9,2.8,2.8,0,0,1-1.8.6h-.6a2.7,2.7,0,0,1-1.2-.3,2.1,2.1,0,0,1-1-.6,3.9,3.9,0,0,1-.8-1,4.1,4.1,0,0,1-.5-1.8V81.4a5,5,0,0,1,.2-1.2,4.1,4.1,0,0,1,.7-1.1,2.4,2.4,0,0,1,.9-.8,3.4,3.4,0,0,1,1.7-.5h.6l1.2.2,1.1.6a3.9,3.9,0,0,1,.8,1,3.4,3.4,0,0,1,.4,1.8h0a.4.4,0,0,1-.1.3l-.2.2H64.9c-.1,0-.1-.1-.2-.2s-.1-.2-.1-.3h0a1.1,1.1,0,0,0-.2-.8.8.8,0,0,0-.5-.5l-.7-.2h-.1l-.7.2-.5.5a1.2,1.2,0,0,0-.2.8v6.2a1,1,0,0,0,.2.7c.1.3.3.4.5.6l.7.2h.1l.7-.2c.2-.2.4-.3.5-.6a1,1,0,0,0,.2-.7c0-.2.1-.2.1-.3s.1-.2.2-.2h1.9l.2.2Z"/>
            <path class="cls-22" d="M46.8,90.7,44.3,78.5c0-.1-.1-.3-.2-.3l-.5-.2H41.2l-.4.2-.3.3L38.1,90.7h0a.4.4,0,0,0,.1.3h2.3c.1,0,.1-.1.1-.3l.6-3.1h2.4l.6,3.1c0,.3.2.4.5.4h1.6c.1,0,.3,0,.3-.1s.2-.2.2-.3Zm-5.3-5.2.8-4.7h.2l.8,4.7Z"/>
            <path class="cls-22" d="M57.8,78.5V91.1H55.6a.6.6,0,0,1-.1-.4V82.9L54,87.5H51.8l-.2-.2-1.4-4.6v7.8c0,.1,0,.2-.1.2v.2H48.1v-.2c-.1,0-.1-.1-.1-.2V78.5a.4.4,0,0,1,.1-.3c0-.1.1-.1.1-.2h2.7c.1.1.2.1.2.2s.1.1.1.2l1.7,5.5,1.7-5.5.3-.3h2.9C57.7,78.2,57.8,78.3,57.8,78.5Z"/>
          </g>
        </g>
        <g>
          <g>
            <g>
              <path class="cls-22" d="M238.8,58.6l15,26-15,26h-30l-15-26,15-26h30m.7-1.3H208.1L192.3,84.6l15.8,27.2h31.4l15.7-27.2L239.5,57.3Z"/>
              <path class="cls-22" d="M237.1,61.6l13.3,23-13.3,23H210.5l-13.3-23,13.3-23h26.6m.7-1.3h-28l-14,24.3,14,24.2h28l14-24.2-14-24.3Z"/>
            </g>
            <g>
              <g>
                <path class="cls-22" d="M217.7,75.3a1.4,1.4,0,0,0,.6.7c.2.2.4.3.4.2s-.3-.7-.5-1.3-.3-.9-.5-.9l-.2.4A1.8,1.8,0,0,0,217.7,75.3Z"/>
                <path class="cls-22" d="M217.2,76.5c.8-.2,1.4-.5,1.5-.3s-.4.6-1.3.9a2.6,2.6,0,0,1-1.2.1l-.7-.3C215.5,76.7,216.3,76.6,217.2,76.5Z"/>
                <path class="cls-22" d="M216.7,74.4a3.6,3.6,0,0,0,.2,1l.3.3c.2-.1,0-.7.1-1.4s.2-1.1.1-1.1S216.8,73.6,216.7,74.4Z"/>
                <path class="cls-22" d="M215.7,75.2c.9.3,1.5.3,1.5.5s-.1.2-.4.3h-1.2a2.4,2.4,0,0,1-1.2-.7.9.9,0,0,1-.4-.6C214.1,74.4,214.8,74.8,215.7,75.2Z"/>
                <path class="cls-22" d="M216.3,73.1a1.9,1.9,0,0,0-.3.9c0,.3,0,.5.1.5s.4-.6.8-1.2.6-1.1.5-1.2S216.7,72.4,216.3,73.1Z"/>
                <path class="cls-22" d="M215,73.3c.6.7,1.2,1.1,1.1,1.2h-.5a2.6,2.6,0,0,1-1-.7c-.7-.7-1-1.6-.8-1.7S214.4,72.6,215,73.3Z"/>
                <path class="cls-22" d="M216.5,71.6c-.7.5-1,1.2-.8,1.3s.6-.4,1.2-.9,1-.9.9-1S217.1,71.1,216.5,71.6Z"/>
                <path class="cls-22" d="M215.2,71.4c.3.8.6,1.4.5,1.5s-.7-.3-1.1-1.2a2.8,2.8,0,0,1-.3-1.8C214.5,69.9,214.8,70.6,215.2,71.4Z"/>
                <path class="cls-22" d="M217,70.2c-.7.4-1.2,1-1.1,1.1s.7-.2,1.4-.5,1.3-.7,1.2-.9A2.6,2.6,0,0,0,217,70.2Z"/>
                <path class="cls-22" d="M215.8,69.7c.2.9.3,1.5.1,1.6s-.5-.5-.7-1.4a2.4,2.4,0,0,1,.1-1.7C215.5,68.1,215.7,68.8,215.8,69.7Z"/>
                <path class="cls-22" d="M217.2,69.2a3.6,3.6,0,0,1-.9,1.2c-.2-.1-.1-.8.4-1.6s.9-1.2,1-1.1S217.6,68.4,217.2,69.2Z"/>
              </g>
              <g>
                <path class="cls-22" d="M229.9,75.3a2.2,2.2,0,0,1-.6.7l-.4.2c-.2-.1.2-.7.5-1.3s.3-.9.4-.9a.5.5,0,0,1,.2.4C230.1,74.6,230,74.9,229.9,75.3Z"/>
                <path class="cls-22" d="M230.4,76.5c-.9-.2-1.5-.5-1.5-.3s.4.6,1.2.9a3,3,0,0,0,1.3.1l.6-.3C232.1,76.7,231.3,76.6,230.4,76.5Z"/>
                <path class="cls-22" d="M230.9,74.4a3.6,3.6,0,0,1-.2,1l-.4.3a5.9,5.9,0,0,1,0-1.4c-.1-.6-.3-1.1-.1-1.1S230.8,73.6,230.9,74.4Z"/>
                <path class="cls-22" d="M231.9,75.2c-.9.3-1.6.3-1.6.5l.5.3h1.1a2,2,0,0,0,1.2-.7c.3-.2.5-.5.4-.6S232.8,74.8,231.9,75.2Z"/>
                <path class="cls-22" d="M231.3,73.1a1.9,1.9,0,0,1,.3.9c0,.3-.1.5-.2.5s-.3-.6-.7-1.2-.7-1.1-.5-1.2S230.9,72.4,231.3,73.1Z"/>
                <path class="cls-22" d="M232.5,73.3l-1.1,1.2h.5a2,2,0,0,0,1-.7,2.2,2.2,0,0,0,.9-1.7C233.6,71.9,233.2,72.6,232.5,73.3Z"/>
                <path class="cls-22" d="M231.1,71.6c.6.5.9,1.2.8,1.3s-.7-.4-1.2-.9-1-.9-.9-1S230.5,71.1,231.1,71.6Z"/>
                <path class="cls-22" d="M232.4,71.4c-.4.8-.7,1.4-.5,1.5s.7-.3,1.1-1.2.4-1.7.2-1.8A4.3,4.3,0,0,0,232.4,71.4Z"/>
                <path class="cls-22" d="M230.5,70.2c.8.4,1.3,1,1.1,1.1s-.7-.2-1.4-.5-1.2-.7-1.1-.9A2.3,2.3,0,0,1,230.5,70.2Z"/>
                <path class="cls-22" d="M231.7,69.7a4.9,4.9,0,0,0-.1,1.6c.2.1.6-.5.8-1.4s0-1.7-.2-1.7S231.9,68.8,231.7,69.7Z"/>
                <path class="cls-22" d="M230.4,69.2c.4.7.7,1.2.9,1.2s0-.8-.4-1.6-.9-1.2-1.1-1.1S230,68.4,230.4,69.2Z"/>
              </g>
            </g>
            <polyline class="cls-22" points="221.8 102.8 223.2 102.6 223.8 101.3 224.4 102.6 225.9 102.8 224.8 103.8 225.1 105.2 223.8 104.5 222.6 105.2 222.8 103.8"/>
            <polygon class="cls-22" points="228.5 101.7 229 102.7 230.1 102.9 229.3 103.7 229.5 104.8 228.5 104.2 227.5 104.8 227.7 103.7 226.9 102.9 228 102.7 228.5 101.7"/>
            <polygon class="cls-22" points="232.5 102.1 232.9 102.8 233.7 103 233.1 103.5 233.3 104.4 232.5 104 231.8 104.4 231.9 103.5 231.3 103 232.1 102.8 232.5 102.1"/>
            <polygon class="cls-22" points="219.1 101.7 218.6 102.7 217.5 102.9 218.3 103.7 218.1 104.8 219.1 104.2 220.1 104.8 219.9 103.7 220.7 102.9 219.6 102.7 219.1 101.7"/>
            <polygon class="cls-22" points="215.1 102.1 214.7 102.8 213.8 103 214.4 103.5 214.3 104.4 215.1 104 215.8 104.4 215.7 103.5 216.3 103 215.4 102.8 215.1 102.1"/>
            <g>
              <path class="cls-22" d="M212.4,104.4a.1.1,0,0,1-.1-.1l-7.6-13.2c-.1,0-.1-.2,0-.2a.2.2,0,0,1,.3.1l7.6,13.1c.1.1,0,.2-.1.3Z"/>
              <path class="cls-22" d="M212.4,105a.9.9,0,0,1-.7-.4l-7.6-13.1a1.7,1.7,0,0,1-.1-.7,1,1,0,0,1,.4-.5h.6a.7.7,0,0,1,.6.3l7.6,13.2a.6.6,0,0,1,0,.6.6.6,0,0,1-.3.5h-.5Zm-.3-.6Zm-6.9-13.6Z"/>
            </g>
            <g>
              <path class="cls-22" d="M242.1,77.3h-.2L235,65.1H212.6l-7,12.1h-.3s-.1-.2,0-.2l7-12.2h23l7,12.2c0,.1,0,.2-.1.2Z"/>
              <path class="cls-22" d="M242.1,77.9a1,1,0,0,1-.7-.4l-6.8-11.7H212.9l-6.7,11.7a1,1,0,0,1-.5.4H205a.5.5,0,0,1-.3-.5.9.9,0,0,1,0-.7l7-12.1a1,1,0,0,1,.7-.4h22.7a.8.8,0,0,1,.7.4l7,12.1a.9.9,0,0,1-.3,1.2h-.4Z"/>
            </g>
            <g>
              <path class="cls-22" d="M235.1,104.4H235a.2.2,0,0,1,0-.3L242.6,91c0-.1.1-.2.2-.1s.1.2.1.2l-7.6,13.2C235.3,104.4,235.2,104.4,235.1,104.4Z"/>
              <path class="cls-22" d="M235.1,105h-.4a.7.7,0,0,1-.4-.5,1.3,1.3,0,0,1,.1-.6L242,90.6a.9.9,0,0,1,.5-.3h.6a.7.7,0,0,1,.4.5.8.8,0,0,1-.1.7l-7.6,13.1A.7.7,0,0,1,235.1,105Zm.4-.6Zm7.6-13.1Zm-.8-.5Z"/>
            </g>
          </g>
          <g>
            <path class="cls-22" d="M238.3,87.6h0a5,5,0,0,1-.2,1.2l-.6,1.1-.9.8a3.2,3.2,0,0,1-1.8.6h-.6a4.9,4.9,0,0,1-2.3-.9,3.6,3.6,0,0,1-.7-1,3.1,3.1,0,0,1-.5-1.8V81.4a5,5,0,0,1,.2-1.2,2.4,2.4,0,0,1,.6-1.1,3.4,3.4,0,0,1,2.7-1.3h.6l1.2.2,1,.6a3.9,3.9,0,0,1,.8,1,3.5,3.5,0,0,1,.5,1.8h0c0,.1-.1.2-.1.3l-.2.2h-1.8l-.2-.2a.4.4,0,0,1-.1-.3h0a1.9,1.9,0,0,0-.2-.8,1.2,1.2,0,0,0-.5-.5l-.8-.2h0l-.8.2-.5.5a2.4,2.4,0,0,0-.2.8v6.2a1.9,1.9,0,0,0,.2.7c.1.3.3.4.6.6l.7.2h0l.8-.2c.2-.2.4-.3.5-.6a1.9,1.9,0,0,0,.2-.7c0-.2,0-.2.1-.3l.2-.2H238l.2.2A.4.4,0,0,1,238.3,87.6Z"/>
            <path class="cls-22" d="M218,90.7l-2.4-12.2-.3-.3-.5-.2h-2.3l-.5.2c-.1,0-.2.2-.2.3l-2.5,12.2h0a.4.4,0,0,0,.1.3h2c.1,0,.3,0,.3-.1s.2-.1.2-.3l.6-3.1h2.4l.6,3.1a.4.4,0,0,0,.4.4h2a.4.4,0,0,0,.1-.3Zm-5.2-5.2.8-4.7h.2l.8,4.7Z"/>
            <path class="cls-22" d="M229,78.5V90.7a.6.6,0,0,1-.1.4h-2l-.2-.4V82.9l-1.4,4.6h-2.2a.2.2,0,0,1-.2-.2l-1.4-4.6v8c-.1.1-.1.2-.2.2h-1.8l-.2-.2V78.2l.2-.2H222l.3.2v.2l1.7,5.5,1.7-5.5c0-.2.1-.2.2-.3h2.9C229,78.2,229,78.3,229,78.5Z"/>
          </g>
        </g>
        <g>
          <path class="cls-22" d="M332.7,70.2h0c-.3,0-.6,1-.8,2.3s0,2.4.3,2.4.6-1,.7-2.3a7.2,7.2,0,0,0,0-2.1,7.1,7.1,0,0,0,1.7,1.1c1.2.5,2.2.7,2.3.5s-.7-.9-1.9-1.4S332.8,69.9,332.7,70.2Z"/>
          <path class="cls-22" d="M333.8,72.4h0c-.2,0-.7,1-.9,2.2s-.2,2.4,0,2.4.7-.9,1-2.2a7.4,7.4,0,0,0,.1-2l1.6,1.2c1.2.6,2.2.9,2.3.7s-.7-1-1.8-1.6S334,72.1,333.8,72.4Z"/>
          <path class="cls-22" d="M334.8,74.7h0c-.3-.1-.8.9-1.1,2.1s-.5,2.3-.2,2.4.8-.9,1.1-2.1a5.6,5.6,0,0,0,.3-2,8.6,8.6,0,0,0,1.6,1.3c1,.7,2,1.1,2.2.9s-.6-1-1.7-1.7S334.9,74.5,334.8,74.7Z"/>
          <path class="cls-22" d="M337.7,78.1c-1-.8-2-1.3-2.1-1.1h-.1c-.2-.1-.8.8-1.3,2s-.6,2.3-.3,2.4.8-.9,1.3-2.1a11.5,11.5,0,0,0,.5-2,4.7,4.7,0,0,0,1.4,1.5c1,.8,1.9,1.3,2.1,1.1S338.7,79,337.7,78.1Z"/>
          <path class="cls-22" d="M336.1,79.5h0c-.3-.1-.9.7-1.5,1.9s-.8,2.2-.6,2.3.9-.7,1.5-1.9a9.3,9.3,0,0,0,.7-1.9,6.6,6.6,0,0,0,1.2,1.6c1,.9,1.9,1.4,2.1,1.2s-.4-1-1.4-1.9S336.3,79.3,336.1,79.5Z"/>
          <path class="cls-22" d="M338.4,83.4c-.9-1-1.8-1.6-2-1.5h0c-.2-.2-.9.6-1.6,1.7s-1,2.1-.8,2.3,1-.7,1.6-1.8a6.2,6.2,0,0,0,.9-1.9,4.3,4.3,0,0,0,1.1,1.7c.9,1,1.7,1.7,1.9,1.5S339.2,84.4,338.4,83.4Z"/>
          <path class="cls-22" d="M336.6,84.4h-.1c-.2-.1-1,.6-1.7,1.7s-1.2,2-1,2.1,1-.5,1.8-1.6a11.9,11.9,0,0,0,1-1.8,5,5,0,0,0,.9,1.8c.8,1.1,1.6,1.8,1.8,1.6s-.2-1.1-1-2.2S336.8,84.3,336.6,84.4Z"/>
          <path class="cls-22" d="M336.5,86.9h0c-.3-.2-1.1.5-2,1.5s-1.3,1.9-1.1,2.1,1-.5,1.9-1.5a5.2,5.2,0,0,0,1.1-1.7,7.5,7.5,0,0,0,.9,1.9c.6,1.1,1.3,1.9,1.6,1.7s-.1-1.1-.8-2.2S336.7,86.8,336.5,86.9Z"/>
          <path class="cls-22" d="M336.2,89.4h-.1c-.2-.2-1.1.4-2,1.3s-1.5,1.8-1.3,2,1.1-.4,2-1.3a7.6,7.6,0,0,0,1.3-1.6,7.8,7.8,0,0,0,.6,1.9c.6,1.2,1.3,2,1.5,1.9s0-1.2-.6-2.3S336.4,89.3,336.2,89.4Z"/>
          <path class="cls-22" d="M335.6,91.8h0c-.2-.2-1.1.3-2.1,1.1s-1.7,1.7-1.5,1.9,1.1-.3,2.1-1.1a6,6,0,0,0,1.4-1.5,7.1,7.1,0,0,0,.5,2c.5,1.2,1.1,2.1,1.3,2s.1-1.2-.4-2.4S335.9,91.7,335.6,91.8Z"/>
          <path class="cls-22" d="M334.9,94.2h0c-.2-.2-1.2.2-2.2.9s-1.9,1.5-1.7,1.7,1.1-.2,2.2-.9a7.2,7.2,0,0,0,1.5-1.3,6.8,6.8,0,0,0,.4,2c.3,1.2.8,2.2,1.1,2.1s.2-1.1-.2-2.4S335.2,94.1,334.9,94.2Z"/>
          <path class="cls-22" d="M334,96.5h-.1c-.1-.2-1.1.1-2.3.7s-1.9,1.3-1.8,1.6,1.2-.1,2.3-.7l1.7-1.2a7.4,7.4,0,0,0,.1,2c.3,1.3.7,2.2.9,2.2s.3-1.1.1-2.4S334.2,96.4,334,96.5Z"/>
          <path class="cls-22" d="M332.8,98.7h0c-.1-.2-1.2,0-2.4.5s-2,1.2-1.9,1.4,1.2,0,2.3-.5a5.7,5.7,0,0,0,1.8-1,6.5,6.5,0,0,0,0,2c.1,1.3.4,2.3.7,2.3s.4-1.1.2-2.4S333.1,98.7,332.8,98.7Z"/>
          <path class="cls-22" d="M331.5,100.8h0c-.1-.2-1.2-.1-2.4.3s-2.2,1-2.1,1.2,1.2.2,2.4-.3a4.3,4.3,0,0,0,1.8-.9,9.8,9.8,0,0,0-.2,2.1c.1,1.3.3,2.3.6,2.3s.4-1.1.4-2.4S331.8,100.8,331.5,100.8Z"/>
          <path class="cls-22" d="M330,102.8h0c-.1-.3-1.2-.2-2.4.1s-2.3.8-2.2,1,1.1.2,2.4-.1a6.3,6.3,0,0,0,1.9-.7,6.9,6.9,0,0,0-.4,2,3.9,3.9,0,0,0,.3,2.4c.3,0,.6-1,.7-2.3S330.3,102.8,330,102.8Z"/>
          <path class="cls-22" d="M328.3,104.6h0c-.1-.2-1.1-.3-2.4-.1s-2.3.6-2.3.9a3.9,3.9,0,0,0,2.4.1l2-.6a6.4,6.4,0,0,0-.5,2c-.3,1.2-.2,2.3.1,2.4s.6-1,.8-2.3S328.6,104.7,328.3,104.6Z"/>
          <path class="cls-22" d="M326.5,106.3h0c-.1-.3-1.1-.4-2.4-.3s-2.3.4-2.3.6,1.1.5,2.3.4a7.8,7.8,0,0,0,2.1-.4,4.3,4.3,0,0,0-.8,1.9c-.3,1.2-.3,2.3-.1,2.4s.8-.9,1.1-2.2S326.7,106.4,326.5,106.3Z"/>
          <path class="cls-22" d="M324.5,107.8h0c0-.2-1.1-.5-2.3-.5s-2.4.2-2.4.4,1,.6,2.3.6l2.1-.2a5.9,5.9,0,0,0-.9,1.8c-.4,1.2-.6,2.3-.3,2.4s.8-.9,1.2-2.1S324.8,107.9,324.5,107.8Z"/>
          <path class="cls-22" d="M322.4,109.2h0c0-.3-1-.6-2.3-.8s-2.3,0-2.4.3,1,.6,2.3.7h2.1a7.1,7.1,0,0,0-1.1,1.7c-.5,1.2-.7,2.2-.5,2.4s.9-.8,1.4-2,.8-2.2.5-2.3Z"/>
          <path class="cls-22" d="M320.2,110.3h0c0-.2-.9-.7-2.2-.9s-2.4-.2-2.4,0,.9.7,2.2,1a7.4,7.4,0,0,0,2,.1,16.2,16.2,0,0,0-1.2,1.6c-.6,1.2-.9,2.2-.7,2.3s1-.6,1.6-1.8,1-2.1.7-2.3Z"/>
          <path class="cls-22" d="M317.9,111.3h0c.1-.3-.9-.8-2.1-1.1s-2.3-.5-2.4-.2.9.7,2.1,1.1a4.1,4.1,0,0,0,2,.3,8.6,8.6,0,0,0-1.3,1.6c-.7,1-1.1,2-.9,2.2s1-.6,1.7-1.7S318.2,111.4,317.9,111.3Z"/>
          <path class="cls-22" d="M315.6,112.1h-.1c.1-.2-.8-.8-2-1.3s-2.2-.6-2.3-.3.8.8,2,1.3l2,.5a4.7,4.7,0,0,0-1.5,1.4c-.8,1-1.3,1.9-1.1,2.1s1-.5,1.9-1.5S315.8,112.2,315.6,112.1Z"/>
          <path class="cls-22" d="M313.1,112.6h0c.1-.3-.7-.9-1.9-1.5s-2.2-.8-2.3-.6.7.9,1.9,1.5a9.3,9.3,0,0,0,1.9.7,6.6,6.6,0,0,0-1.6,1.2c-.9,1-1.4,1.9-1.2,2.1s1-.4,1.9-1.4S313.3,112.8,313.1,112.6Z"/>
          <path class="cls-22" d="M310.7,112.9h-.1c.2-.2-.6-.9-1.7-1.6s-2.1-1-2.3-.8.7,1,1.8,1.6a6.2,6.2,0,0,0,1.9.9,4.3,4.3,0,0,0-1.7,1.1c-1,.8-1.7,1.7-1.5,1.9s1.1-.3,2.1-1.2S310.8,113.1,310.7,112.9Z"/>
          <path class="cls-22" d="M308.2,113h0c.1-.2-.6-1-1.6-1.8s-2.1-1.2-2.2-.9.5,1,1.6,1.7a4.7,4.7,0,0,0,1.8,1,8.5,8.5,0,0,0-1.8,1c-1.1.8-1.8,1.6-1.6,1.8s1.1-.2,2.2-1S308.3,113.3,308.2,113Z"/>
          <path class="cls-22" d="M305.7,112.9h0c.2-.2-.5-1-1.5-1.9s-1.9-1.4-2.1-1.2.5,1.1,1.5,2a7.7,7.7,0,0,0,1.7,1.1l-1.9.8c-1.1.7-1.9,1.4-1.7,1.6s1.1-.1,2.2-.7S305.8,113.2,305.7,112.9Z"/>
          <path class="cls-22" d="M303.2,112.6h0c.2-.2-.4-1.1-1.3-2s-1.7-1.6-1.9-1.4.3,1.1,1.2,2.1a4.7,4.7,0,0,0,1.6,1.2,9.3,9.3,0,0,0-1.9.7c-1.2.6-2,1.2-1.9,1.5s1.2,0,2.3-.6S303.3,112.9,303.2,112.6Z"/>
          <path class="cls-22" d="M300.8,112.1h0c.2-.2-.3-1.2-1.1-2.2s-1.7-1.7-1.9-1.5.3,1.1,1.1,2.2a8.8,8.8,0,0,0,1.5,1.4l-2,.5c-1.2.4-2.1,1-2,1.3s1.2,0,2.4-.4S300.9,112.3,300.8,112.1Z"/>
          <path class="cls-22" d="M298.4,111.4h0c.2-.1-.2-1.1-.9-2.2s-1.5-1.8-1.7-1.7.2,1.2.9,2.3a7.2,7.2,0,0,0,1.3,1.5l-2,.3c-1.2.4-2.2.9-2.1,1.1s1.1.2,2.4-.1S298.5,111.6,298.4,111.4Z"/>
          <path class="cls-22" d="M296.1,110.4h0c.2-.2-.1-1.2-.7-2.3s-1.3-2-1.6-1.8.1,1.1.7,2.3a16.2,16.2,0,0,0,1.2,1.6,8.7,8.7,0,0,0-2,.2c-1.2.2-2.2.6-2.2.9s1.1.3,2.4,0S296.2,110.7,296.1,110.4Z"/>
          <path class="cls-22" d="M293.9,109.3h0c.2-.1,0-1.1-.5-2.3s-1.1-2.1-1.4-2,0,1.2.5,2.4a7.1,7.1,0,0,0,1.1,1.7h-2.1c-1.3.1-2.3.5-2.3.7s1.1.4,2.4.3S293.9,109.5,293.9,109.3Z"/>
          <path class="cls-22" d="M291.8,107.9h0c.3-.1.1-1.2-.3-2.4s-1-2.1-1.2-2-.1,1.1.3,2.3a5.6,5.6,0,0,0,.9,1.9,5.6,5.6,0,0,0-2-.2c-1.3,0-2.4.2-2.4.5s1.1.5,2.4.4S291.8,108.2,291.8,107.9Z"/>
          <path class="cls-22" d="M289.8,106.4h0c.3-.1.3-1.1-.1-2.4s-.7-2.2-1-2.2-.2,1.2.1,2.4a6.3,6.3,0,0,0,.7,1.9,7.7,7.7,0,0,0-2-.3c-1.3-.1-2.3,0-2.3.3s1,.5,2.3.6S289.8,106.7,289.8,106.4Z"/>
          <path class="cls-22" d="M288,104.7h0c.3,0,.3-1.1.1-2.4s-.6-2.3-.8-2.2-.3,1.1-.1,2.4a5.6,5.6,0,0,0,.5,1.9,6.4,6.4,0,0,0-1.9-.5c-1.3-.2-2.4-.2-2.4.1s.9.6,2.2.8S288,105,288,104.7Z"/>
          <path class="cls-22" d="M286.3,102.9h0c.3,0,.4-1.1.3-2.4s-.3-2.3-.6-2.3-.4,1.1-.3,2.4a5,5,0,0,0,.4,2,5.8,5.8,0,0,0-1.9-.7c-1.3-.4-2.4-.4-2.4-.2s.9.8,2.1,1.1S286.2,103.2,286.3,102.9Z"/>
          <path class="cls-22" d="M284.8,100.9h0c.3,0,.5-1,.5-2.3s-.1-2.4-.4-2.4-.5,1.1-.5,2.4a4,4,0,0,0,.2,2,6.7,6.7,0,0,0-1.9-.9c-1.2-.4-2.2-.6-2.3-.3s.8.8,2,1.2S284.7,101.2,284.8,100.9Z"/>
          <path class="cls-22" d="M283.5,98.8h0c.2,0,.6-1,.7-2.3a4.3,4.3,0,0,0-.2-2.4c-.3,0-.6,1-.8,2.3a6.4,6.4,0,0,0,.1,2.1l-1.8-1.1c-1.2-.5-2.2-.7-2.3-.5s.7.9,1.9,1.4S283.3,99.1,283.5,98.8Z"/>
          <path class="cls-22" d="M282.3,96.6h0c.3.1.7-.9,1-2.2s.2-2.3-.1-2.4-.7.9-.9,2.2a9,9,0,0,0-.2,2.1,3.7,3.7,0,0,0-1.6-1.2c-1.1-.7-2.2-1-2.3-.8s.7,1,1.8,1.6S282.2,96.9,282.3,96.6Z"/>
          <path class="cls-22" d="M281.4,94.3h0c.2.1.7-.9,1.1-2.1s.4-2.3.2-2.4-.8.9-1.2,2.1a10.6,10.6,0,0,0-.3,2,7.2,7.2,0,0,0-1.5-1.3c-1.1-.7-2.1-1.1-2.2-.9s.6,1,1.6,1.7S281.2,94.6,281.4,94.3Z"/>
          <path class="cls-22" d="M278.5,90.9c1,.8,1.9,1.3,2.1,1.1h0c.3.1.9-.8,1.3-2s.7-2.2.4-2.3-.8.8-1.3,2a6.4,6.4,0,0,0-.5,2,4.7,4.7,0,0,0-1.4-1.5c-1-.8-2-1.3-2.1-1.1S277.5,90,278.5,90.9Z"/>
          <path class="cls-22" d="M280.1,89.5h0c.2.1.9-.7,1.5-1.9s.8-2.2.6-2.3-1,.7-1.5,1.9a5.6,5.6,0,0,0-.7,1.9,7.6,7.6,0,0,0-1.3-1.6c-.9-.9-1.8-1.4-2-1.2s.4,1,1.3,1.9S279.9,89.7,280.1,89.5Z"/>
          <path class="cls-22" d="M279.7,87.1h.1c.2.2.9-.6,1.6-1.7s1-2.1.8-2.3-1,.7-1.6,1.8a5.3,5.3,0,0,0-.9,1.9,5.9,5.9,0,0,0-1.1-1.7c-.9-1-1.7-1.7-1.9-1.5s.3,1.1,1.1,2.1S279.5,87.2,279.7,87.1Z"/>
          <path class="cls-22" d="M279.6,84.6h0c.3.1,1.1-.6,1.8-1.6s1.2-2.1,1-2.2-1,.5-1.8,1.6a11.9,11.9,0,0,0-1,1.8,5.9,5.9,0,0,0-.9-1.8c-.8-1.1-1.6-1.8-1.8-1.6s.2,1.1,1,2.2S279.4,84.7,279.6,84.6Z"/>
          <path class="cls-22" d="M279.7,82.1h.1c.2.2,1-.5,1.9-1.5s1.4-1.9,1.2-2-1.1.4-2,1.4a5.2,5.2,0,0,0-1.1,1.7,11.3,11.3,0,0,0-.8-1.9c-.7-1.1-1.4-1.9-1.7-1.7s.2,1.1.8,2.2S279.5,82.2,279.7,82.1Z"/>
          <path class="cls-22" d="M280.1,79.6h0c.2.2,1.1-.4,2-1.3s1.6-1.7,1.4-1.9-1.1.3-2.1,1.2a7.6,7.6,0,0,0-1.3,1.6,4.9,4.9,0,0,0-.6-1.9c-.6-1.2-1.2-2-1.5-1.9s0,1.2.6,2.3S279.8,79.7,280.1,79.6Z"/>
          <path class="cls-22" d="M280.6,77.2h0c.2.2,1.2-.3,2.2-1.1s1.7-1.6,1.5-1.8-1.1.2-2.2,1a8.8,8.8,0,0,0-1.4,1.5,7.1,7.1,0,0,0-.5-2c-.4-1.2-1-2.1-1.3-2s0,1.2.4,2.4S280.3,77.3,280.6,77.2Z"/>
          <path class="cls-22" d="M281.3,74.8h.1c.1.2,1.1-.2,2.2-.9s1.8-1.5,1.7-1.7-1.2.2-2.2.9a8.6,8.6,0,0,0-1.6,1.3,10.6,10.6,0,0,0-.3-2c-.4-1.2-.9-2.2-1.1-2.1s-.2,1.2.1,2.4S281.1,74.9,281.3,74.8Z"/>
          <path class="cls-22" d="M282.3,72.5h0c.2.3,1.2-.1,2.3-.7s2-1.3,1.8-1.5-1.1,0-2.3.7a5.5,5.5,0,0,0-1.6,1.2,8,8,0,0,0-.1-2.1c-.3-1.2-.7-2.2-1-2.2s-.3,1.1,0,2.4S282,72.6,282.3,72.5Z"/>
          <path class="cls-22" d="M283.5,70.3h0c.1.3,1.1,0,2.3-.5s2.1-1.1,2-1.4-1.2,0-2.4.5a7.1,7.1,0,0,0-1.7,1.1,7.2,7.2,0,0,0,0-2.1c-.1-1.2-.4-2.3-.7-2.2s-.4,1-.3,2.3S283.2,70.4,283.5,70.3Z"/>
          <path class="cls-22" d="M284.8,68.2h0c.1.3,1.2.2,2.4-.3s2.2-.9,2.1-1.2-1.2-.1-2.4.3a8.5,8.5,0,0,0-1.9.9,5.3,5.3,0,0,0,.3-2c-.1-1.3-.3-2.4-.6-2.4s-.4,1.1-.4,2.4S284.5,68.2,284.8,68.2Z"/>
          <path class="cls-22" d="M286.3,66.3h0c.1.2,1.2.2,2.4-.1s2.3-.8,2.2-1.1-1.1-.2-2.4.1a6.3,6.3,0,0,0-1.9.7A6.9,6.9,0,0,0,287,64c.1-1.3-.1-2.4-.3-2.4s-.6,1-.7,2.3S286,66.2,286.3,66.3Z"/>
          <path class="cls-22" d="M288,64.4h0c.1.3,1.1.3,2.4.2s2.3-.6,2.3-.9-1.2-.3-2.4-.1a6.4,6.4,0,0,0-2,.5,8.5,8.5,0,0,0,.6-1.9c.2-1.3.1-2.4-.1-2.4s-.7,1-.9,2.2S287.7,64.4,288,64.4Z"/>
          <path class="cls-22" d="M289.8,62.7h.1c0,.3,1,.5,2.3.4s2.4-.4,2.3-.7-1-.4-2.3-.3a7.8,7.8,0,0,0-2.1.4,5.7,5.7,0,0,0,.8-1.9c.3-1.3.4-2.3.1-2.4s-.7.9-1.1,2.2S289.6,62.7,289.8,62.7Z"/>
          <path class="cls-22" d="M291.8,61.2h0c0,.3,1.1.6,2.4.6s2.3-.2,2.3-.5-1-.5-2.3-.5l-2.1.2a4.3,4.3,0,0,0,.9-1.8c.5-1.2.6-2.3.4-2.4s-.8.8-1.3,2.1-.6,2.2-.3,2.3Z"/>
          <path class="cls-22" d="M293.9,59.9h0c0,.3,1,.6,2.3.8s2.4,0,2.4-.3-1-.6-2.3-.7a6.5,6.5,0,0,0-2,0,5,5,0,0,0,1-1.7c.6-1.2.8-2.3.5-2.4s-.8.8-1.4,2-.7,2.2-.5,2.3Z"/>
          <path class="cls-22" d="M296.1,58.8h0c0,.2,1,.7,2.2.9s2.4.3,2.4,0-.9-.7-2.2-1a7.3,7.3,0,0,0-2-.1,8.2,8.2,0,0,0,1.2-1.6c.6-1.2,1-2.2.7-2.3s-.9.6-1.6,1.8-.9,2.1-.7,2.3Z"/>
          <path class="cls-22" d="M298.4,57.8h0c0,.3.9.8,2.1,1.2s2.4.4,2.4.1-.8-.7-2.1-1.1a5.6,5.6,0,0,0-2-.3,5,5,0,0,0,1.3-1.5c.8-1.1,1.2-2.1,1-2.3s-1,.6-1.8,1.7S298.2,57.7,298.4,57.8Z"/>
          <path class="cls-22" d="M300.8,57.1h0c-.1.2.8.8,2,1.3s2.3.6,2.4.4-.8-.9-2-1.3a7.1,7.1,0,0,0-2-.5l1.5-1.4c.8-1,1.3-2,1.1-2.2s-1.1.5-1.9,1.5S300.6,56.9,300.8,57.1Z"/>
          <path class="cls-22" d="M303.2,56.5h0c-.1.3.8,1,1.9,1.5s2.2.9,2.3.6-.7-.9-1.8-1.5a8.2,8.2,0,0,0-2-.6,7.6,7.6,0,0,0,1.6-1.3c.9-.9,1.5-1.8,1.3-2s-1.1.4-2,1.3S303,56.3,303.2,56.5Z"/>
          <path class="cls-22" d="M305.7,56.2h0c-.1.3.6,1,1.7,1.7s2.2,1,2.3.8-.6-1-1.7-1.7l-1.9-.8,1.7-1.1c1-.9,1.6-1.7,1.5-1.9s-1.2.3-2.2,1.1S305.5,56,305.7,56.2Z"/>
          <path class="cls-22" d="M308.2,56.1h0c-.2.2.5,1,1.6,1.8s2,1.2,2.2,1-.6-1-1.6-1.8a6.8,6.8,0,0,0-1.8-1,6.8,6.8,0,0,0,1.8-1c1-.7,1.7-1.5,1.6-1.7s-1.2.2-2.2.9S308,55.9,308.2,56.1Z"/>
          <path class="cls-22" d="M310.7,56.2h0c-.2.2.4,1.1,1.4,2s1.9,1.4,2.1,1.1-.5-1-1.4-1.9a5.4,5.4,0,0,0-1.8-1.1,7.1,7.1,0,0,0,1.9-.8c1.1-.7,1.9-1.4,1.8-1.7s-1.2.2-2.3.8S310.5,56,310.7,56.2Z"/>
          <path class="cls-22" d="M313.1,56.6h0c-.2.2.4,1.1,1.3,2s1.8,1.6,2,1.4-.4-1.1-1.3-2.1a7.6,7.6,0,0,0-1.6-1.3,4.1,4.1,0,0,0,1.9-.6c1.2-.6,2.1-1.2,2-1.5s-1.2,0-2.4.6S313,56.3,313.1,56.6Z"/>
          <path class="cls-22" d="M315.5,57.1h.1c-.3.2.2,1.2,1,2.2s1.7,1.7,1.9,1.5-.3-1.1-1.1-2.1a5.2,5.2,0,0,0-1.5-1.5,6.4,6.4,0,0,0,2-.5c1.2-.4,2.1-1,2-1.2s-1.1-.1-2.3.3S315.4,56.8,315.5,57.1Z"/>
          <path class="cls-22" d="M317.9,57.9h0c-.2.1.2,1.1.9,2.2s1.5,1.8,1.7,1.7-.1-1.2-.9-2.2a5.8,5.8,0,0,0-1.3-1.6l2-.3c1.3-.3,2.2-.8,2.1-1.1s-1.1-.2-2.4.2S317.8,57.6,317.9,57.9Z"/>
          <path class="cls-22" d="M320.2,58.8h0c-.2.2.1,1.2.7,2.3s1.3,2,1.6,1.9-.1-1.2-.7-2.3a6.8,6.8,0,0,0-1.2-1.7,7.3,7.3,0,0,0,2-.1c1.3-.3,2.3-.7,2.2-.9s-1.1-.3-2.4-.1S320.2,58.5,320.2,58.8Z"/>
          <path class="cls-22" d="M322.4,60h0c-.2.1,0,1.2.5,2.3s1.1,2.1,1.4,2,0-1.2-.5-2.3a4.7,4.7,0,0,0-1-1.8h2c1.3-.1,2.3-.4,2.3-.7s-1.1-.4-2.4-.2S322.4,59.7,322.4,60Z"/>
          <path class="cls-22" d="M324.5,61.3h0c-.2.1-.1,1.2.3,2.4s.9,2.2,1.2,2.1.1-1.2-.3-2.4a5.9,5.9,0,0,0-.9-1.8l2.1.2c1.3,0,2.3-.2,2.3-.5s-1.1-.5-2.3-.5S324.5,61,324.5,61.3Z"/>
          <path class="cls-22" d="M326.5,62.8h0c-.3,0-.3,1.1.1,2.4s.7,2.2,1,2.1.2-1.1-.1-2.4a9.7,9.7,0,0,0-.7-1.9,6.9,6.9,0,0,0,2,.4c1.3.1,2.3,0,2.4-.3s-1.1-.6-2.3-.7S326.5,62.6,326.5,62.8Z"/>
          <path class="cls-22" d="M328.3,64.5h0c-.3,0-.3,1.1-.1,2.3s.5,2.3.8,2.3.3-1.1.1-2.4a6.4,6.4,0,0,0-.5-2,6.1,6.1,0,0,0,1.9.6c1.3.2,2.4.2,2.4-.1s-.9-.7-2.2-.9S328.3,64.3,328.3,64.5Z"/>
          <path class="cls-22" d="M330,66.4h0c-.3,0-.4,1.1-.4,2.4s.4,2.3.7,2.3.4-1.1.3-2.4a4.6,4.6,0,0,0-.4-2l1.9.7c1.3.4,2.3.4,2.4.1s-.9-.7-2.1-1S330,66.1,330,66.4Z"/>
          <path class="cls-22" d="M331.5,68.3h0c-.3,0-.5,1-.6,2.3s.2,2.4.5,2.4.5-1.1.5-2.4a5.6,5.6,0,0,0-.2-2,5.9,5.9,0,0,0,1.8.9c1.2.4,2.3.6,2.4.3s-.8-.8-2-1.2S331.6,68.1,331.5,68.3Z"/>
          <path class="cls-22" d="M303.2,68.5a10.1,10.1,0,0,0-4.1,4.1c-.1.1,0,.2,0,.3h.1c.1,0,.2,0,.2-.1a9.6,9.6,0,0,1,4-4c.1,0,.1-.2.1-.3Z"/>
          <path class="cls-22" d="M313.1,68.5h-.2a.2.2,0,0,0,.1.3,9.4,9.4,0,0,1,3.9,4h.3a.4.4,0,0,0,.1-.3A10.4,10.4,0,0,0,313.1,68.5Z"/>
          <path class="cls-22" d="M303.2,67.2a12.8,12.8,0,0,0-5.4,5.4.4.4,0,0,0,.1.3h.1c.1,0,.2,0,.2-.1a10.9,10.9,0,0,1,5.2-5.2.4.4,0,0,0,.1-.3Z"/>
          <path class="cls-22" d="M318.3,72.9h.1a.4.4,0,0,0,.1-.3,11.8,11.8,0,0,0-5.4-5.4h-.2c-.1.1,0,.2.1.3a11.4,11.4,0,0,1,5.2,5.2A.1.1,0,0,0,318.3,72.9Z"/>
          <path class="cls-22" d="M296.8,72.9c.1,0,.2,0,.2-.1a11.8,11.8,0,0,1,6.4-6.4c.1,0,.1-.2.1-.3h-.3a12.7,12.7,0,0,0-6.5,6.6.2.2,0,0,0,.1.3Z"/>
          <path class="cls-22" d="M319.3,72.8h.3c.1,0,.1-.2.1-.3A13.1,13.1,0,0,0,313,66h-.2a.4.4,0,0,0,.1.3A11.8,11.8,0,0,1,319.3,72.8Z"/>
          <path class="cls-22" d="M322.3,87.1h-1.8a.2.2,0,0,0-.2.2c-.1.1-.1.1-.1.3a1.9,1.9,0,0,1-.2.7c-.1.3-.3.4-.5.6l-.7.2h-.1l-.7-.2-.6-.6a1.9,1.9,0,0,1-.2-.7V81.4a2.4,2.4,0,0,1,.2-.8c.2-.2.3-.4.6-.5l.7-.2h.1l.7.2.5.5a1.9,1.9,0,0,1,.2.8h0a.4.4,0,0,0,.1.3.2.2,0,0,0,.2.2h1.8l.2-.2a.4.4,0,0,0,.1-.3h0a3.5,3.5,0,0,0-.5-1.8,2.5,2.5,0,0,0-.8-1l-1-.6-1.2-.2h-.6a3.7,3.7,0,0,0-1.8.5l-.9.8a3.9,3.9,0,0,0-.6,1.1,5,5,0,0,0-.2,1.2v6.3a4.1,4.1,0,0,0,.5,1.8,3.6,3.6,0,0,0,.7,1,2.4,2.4,0,0,0,1.1.6,2.7,2.7,0,0,0,1.2.3h.6a3.2,3.2,0,0,0,1.8-.6l.9-.8.6-1.1a5,5,0,0,0,.2-1.2h0c0-.2,0-.3-.1-.3Z"/>
          <path class="cls-22" d="M302.2,91.1a.4.4,0,0,0,.1-.3h0l-2.4-12.2c-.1-.1-.1-.3-.3-.3l-.4-.2h-2.4l-.5.2c-.1,0-.2.2-.2.3l-2.5,12.2h0c0,.1.1.2.2.3s.2.1.3.1h2a.4.4,0,0,0,.1-.3l.6-3.1h2.4l.6,3.1c0,.3.2.4.5.4h1.9Zm-5.1-5.6.8-4.7h.2l.8,4.7Z"/>
          <path class="cls-22" d="M313.2,91.1a.8.8,0,0,0,.2-.4V78.5a.5.5,0,0,0-.2-.4h-2.9c-.1.1-.2.1-.2.3l-1.7,5.5-1.7-5.5a.3.3,0,0,0-.1-.2l-.2-.2h-2.7l-.2.2V90.9l.2.2h1.6c.1,0,.2,0,.2-.1a.2.2,0,0,0,.2-.2v-8l1.4,4.6.2.2h2a.1.1,0,0,0,.1-.1h.1l1.4-4.6v7.8l.2.4h2Z"/>
          <path class="cls-22" d="M308.1,61.8a22.8,22.8,0,1,0,22.8,22.8A22.8,22.8,0,0,0,308.1,61.8Zm0,44.3a21.6,21.6,0,1,1,21.5-21.5A21.5,21.5,0,0,1,308.1,106.1Z"/>
          <path class="cls-22" d="M308.1,59.8a24.8,24.8,0,1,0,24.8,24.8A24.8,24.8,0,0,0,308.1,59.8Zm0,49a24.3,24.3,0,1,1,24.2-24.2A24.2,24.2,0,0,1,308.1,108.8Z"/>
          <rect class="cls-22" x="304.7" y="69.2" width="6.6" height="1.06"/>
          <polygon class="cls-22" points="311.2 64.9 309.5 66.8 307.9 64.9 306.3 66.8 304.7 64.9 304.7 68.8 311.2 68.8 311.2 64.9"/>
          <polygon class="cls-22" points="309.1 100.6 308.1 101.1 307 100.6 307.2 101.7 306.4 102.5 307.5 102.7 308.1 103.8 308.6 102.7 309.7 102.5 308.9 101.7 309.1 100.6"/>
          <polygon class="cls-22" points="313.5 99.6 312.9 100.4 311.9 100.4 312.5 101.2 312.1 102.1 313.1 101.8 313.9 102.5 313.9 101.5 314.7 100.9 313.8 100.6 313.5 99.6"/>
          <polygon class="cls-22" points="303.2 100.4 302.6 99.6 302.3 100.6 301.4 100.9 302.2 101.5 302.3 102.5 303 101.8 304 102.1 303.6 101.2 304.2 100.4 303.2 100.4"/>
        </g>
        <g>
          <g>
            <path class="cls-22" d="M145.8,115.3a15.6,15.6,0,0,1-4.1-.8,11,11,0,0,0-8.7,0c-2.1.6-4,1.1-5.6.6s-3-2.3-4.2-3.9a15,15,0,0,0-2.9-3.2,12.5,12.5,0,0,0-3.9-1.7c-2.1-.7-3.9-1.4-5-2.9s-1.1-3.4-1.2-5.5a16,16,0,0,0-.4-4.4,22.4,22.4,0,0,0-2.1-3.6c-1.2-1.7-2.4-3.4-2.4-5.3s1.2-3.7,2.4-5.3a19.5,19.5,0,0,0,2.1-3.7,15,15,0,0,0,.4-4.3c.1-2.1.1-4.1,1.2-5.6s2.9-2.1,5-2.8a15.5,15.5,0,0,0,3.9-1.8,17.2,17.2,0,0,0,2.9-3.1c1.2-1.8,2.4-3.4,4.2-3.9a4,4,0,0,1,1.5-.3,13.2,13.2,0,0,1,4.1.9,16.5,16.5,0,0,0,4.3.9,16.4,16.4,0,0,0,4.4-.9c2-.6,4-1.2,5.6-.6s2.9,2.1,4.2,3.8a15,15,0,0,0,2.9,3.2,15.5,15.5,0,0,0,3.9,1.8c2,.7,3.9,1.3,5,2.8s1.1,3.5,1.2,5.6a15,15,0,0,0,.4,4.3,15.3,15.3,0,0,0,2.1,3.7h0c1.2,1.6,2.4,3.4,2.4,5.3s-1.2,3.6-2.4,5.3a16.8,16.8,0,0,0-2.1,3.6,16,16,0,0,0-.4,4.4c-.1,2.1-.1,4.1-1.2,5.5s-3,2.2-5,2.9a12.5,12.5,0,0,0-3.9,1.7,15,15,0,0,0-2.9,3.2c-1.3,1.7-2.5,3.3-4.2,3.9A3.9,3.9,0,0,1,145.8,115.3Zm-8.5-3a15.8,15.8,0,0,1,4.8,1c1.8.5,3.5,1,4.8.6s2.5-1.9,3.6-3.4a15.3,15.3,0,0,1,3.2-3.5,14.6,14.6,0,0,1,4.2-1.9c1.8-.6,3.5-1.2,4.4-2.4s.9-2.9.9-4.8a17.8,17.8,0,0,1,.5-4.7,14.4,14.4,0,0,1,2.3-4c1.1-1.5,2.2-3.1,2.2-4.6s-1.1-3.1-2.2-4.6l.5-.4-.5.4a18,18,0,0,1-2.3-4,18.3,18.3,0,0,1-.5-4.7c0-1.9-.1-3.7-.9-4.8s-2.6-1.8-4.4-2.4a12.6,12.6,0,0,1-7.4-5.4c-1.1-1.5-2.2-3-3.6-3.5a9.8,9.8,0,0,0-4.8.7,13,13,0,0,1-9.5,0,9.8,9.8,0,0,0-4.8-.7c-1.4.5-2.5,2-3.6,3.5a17.2,17.2,0,0,1-3.2,3.4,14.8,14.8,0,0,1-4.2,2c-1.8.6-3.6,1.2-4.4,2.4s-.9,2.9-.9,4.8A18.3,18.3,0,0,1,111,76a18,18,0,0,1-2.3,4c-1.1,1.5-2.2,3.1-2.2,4.6s1.1,3.1,2.2,4.6a14.4,14.4,0,0,1,2.3,4,18.3,18.3,0,0,1,.5,4.7c0,1.9.1,3.7.9,4.8s2.5,1.8,4.4,2.4A15.9,15.9,0,0,1,121,107a15.3,15.3,0,0,1,3.2,3.5c1.1,1.5,2.2,3,3.6,3.4s3-.1,4.8-.6A15.8,15.8,0,0,1,137.3,112.3Z"/>
            <polygon class="cls-22" points="131.5 62.8 131.4 63.8 130.6 64.3 131.6 64.7 131.8 65.6 132.4 64.8 133.4 64.9 132.8 64.1 133.2 63.1 132.2 63.4 131.5 62.8"/>
            <g>
              <polygon class="cls-22" points="137.2 61.3 137.7 62.4 138.9 62.5 138 63.4 138.2 64.5 137.2 64 136.2 64.5 136.4 63.4 135.5 62.5 136.7 62.4 137.2 61.3"/>
              <polygon class="cls-22" points="143 62.6 143 63.6 143.9 64.2 142.9 64.5 142.7 65.5 142.1 64.7 141.1 64.7 141.6 63.9 141.3 63 142.2 63.3 143 62.6"/>
            </g>
            <path class="cls-22" d="M145.6,112.7a12.7,12.7,0,0,1-3.5-.7,11.8,11.8,0,0,0-9.5,0c-1.7.5-3.3.9-4.4.6s-2.1-1.7-3.2-3.1a12.1,12.1,0,0,0-7.5-5.5c-1.7-.6-3.3-1.1-4-2.1s-.7-2.6-.7-4.4a18.9,18.9,0,0,0-.6-4.7,18.1,18.1,0,0,0-2.3-4.1c-1-1.4-2-2.9-2-4.1s1-2.7,2-4.1a18.1,18.1,0,0,0,2.3-4.1,19.1,19.1,0,0,0,.6-4.8c0-1.7,0-3.4.7-4.3s2.3-1.5,4-2.1a18.6,18.6,0,0,0,4.3-2,17.5,17.5,0,0,0,3.2-3.5c1.1-1.4,2.1-2.8,3.2-3.1s2.7.1,4.4.6a17.8,17.8,0,0,0,4.7.9,17.8,17.8,0,0,0,4.8-.9c1.7-.5,3.3-1,4.4-.6s2.1,1.7,3.2,3.1a17.5,17.5,0,0,0,3.2,3.5,18.6,18.6,0,0,0,4.3,2c1.7.6,3.3,1.1,4,2.1s.7,2.6.7,4.3a19.7,19.7,0,0,0,.6,4.8,15,15,0,0,0,2.3,4.1c1,1.4,2,2.8,2,4.1s-1,2.7-2,4.1h0a15,15,0,0,0-2.3,4.1,18.9,18.9,0,0,0-.6,4.7c0,1.8,0,3.4-.7,4.4s-2.3,1.5-4,2.1a12.1,12.1,0,0,0-7.5,5.5c-1.1,1.4-2.1,2.7-3.3,3.1Zm-8.3-2.9a16.6,16.6,0,0,1,5.2,1,16.3,16.3,0,0,0,3.1.7h.5c.7-.2,1.7-1.5,2.6-2.7a14.8,14.8,0,0,1,3.4-3.7,16.6,16.6,0,0,1,4.7-2.2c1.4-.5,2.9-1,3.4-1.6a9.1,9.1,0,0,0,.5-3.7,15.1,15.1,0,0,1,.6-5.1,15.7,15.7,0,0,1,2.5-4.4l.5.3-.5-.3h0c.8-1.2,1.7-2.6,1.7-3.4s-.9-2.2-1.7-3.4a15.7,15.7,0,0,1-2.5-4.4,15.1,15.1,0,0,1-.6-5.1,8.8,8.8,0,0,0-.5-3.7c-.5-.6-2-1.1-3.4-1.6a19.9,19.9,0,0,1-4.7-2.2,19.4,19.4,0,0,1-3.4-3.7c-.9-1.2-1.9-2.5-2.6-2.7s-2.1.1-3.6.6a17.2,17.2,0,0,1-5.2,1,16.5,16.5,0,0,1-5.1-1c-1.5-.5-2.9-.9-3.6-.6s-1.7,1.5-2.6,2.7a15.2,15.2,0,0,1-3.5,3.7,17.6,17.6,0,0,1-4.6,2.2c-1.4.5-2.9,1-3.4,1.6a8.8,8.8,0,0,0-.5,3.7,18.2,18.2,0,0,1-.6,5.1,18.7,18.7,0,0,1-2.5,4.4c-.8,1.2-1.8,2.5-1.8,3.4s1,2.2,1.8,3.4a18.7,18.7,0,0,1,2.5,4.4,18.2,18.2,0,0,1,.6,5.1,9.1,9.1,0,0,0,.5,3.7c.5.6,2,1.1,3.4,1.6a14.9,14.9,0,0,1,4.6,2.2,13.6,13.6,0,0,1,3.5,3.7c.9,1.2,1.8,2.5,2.6,2.7h.5a16.3,16.3,0,0,0,3.1-.7A16.5,16.5,0,0,1,137.3,109.8Z"/>
          </g>
          <g>
            <path class="cls-22" d="M151.8,87.6h0a2.5,2.5,0,0,1-.2,1.2,3.6,3.6,0,0,1-1.5,1.9,2.8,2.8,0,0,1-1.8.6h-.6l-1.2-.3a2.1,2.1,0,0,1-1-.6,3.9,3.9,0,0,1-.8-1,4.1,4.1,0,0,1-.5-1.8V81.4a2.7,2.7,0,0,1,.3-1.2,3.6,3.6,0,0,1,1.5-1.9,3.4,3.4,0,0,1,1.7-.5h.6l1.2.2,1.1.6a3.9,3.9,0,0,1,.8,1,3.4,3.4,0,0,1,.4,1.8h0v.3l-.2.2h-1.9l-.2-.2c0-.1-.1-.2-.1-.3h0a1.1,1.1,0,0,0-.2-.8.8.8,0,0,0-.5-.5l-.7-.2h-.1l-.7.2-.5.5a1.2,1.2,0,0,0-.2.8v6.2a1,1,0,0,0,.2.7c.1.3.3.4.5.6l.7.2h.1l.7-.2c.2-.2.4-.3.5-.6a1,1,0,0,0,.2-.7c0-.2.1-.2.1-.3l.2-.2h1.9l.2.2Z"/>
            <path class="cls-22" d="M131.6,90.7l-2.5-12.2c0-.1-.1-.3-.2-.3l-.5-.2H126l-.4.2c-.1,0-.2.2-.2.3l-2.5,12.2h0a.4.4,0,0,0,.1.3h2.3c.1,0,.1-.1.2-.3l.5-3.1h2.4l.6,3.1c.1.3.2.4.5.4h2c0-.1.1-.2.1-.3Zm-5.3-5.2.8-4.7h.2l.8,4.7Z"/>
            <path class="cls-22" d="M142.6,78.5V90.7a.6.6,0,0,1-.1.4h-2.1a.6.6,0,0,1-.1-.4V82.9l-1.5,4.6h-2.2v-.2L135,82.9v8l-.2.2h-1.6c-.1,0-.2,0-.2-.1l-.2-.2c-.1,0-.1-.1-.1-.2V78.5a.4.4,0,0,1,.1-.3c0-.1.1-.1.1-.2h2.7c.1.1.2.1.2.2s.1.1.1.2l1.7,5.5,1.8-5.5c0-.2.1-.2.2-.3h2.9C142.6,78.2,142.6,78.3,142.6,78.5Z"/>
          </g>
        </g>
      </g>
    </g>
  </g>
</svg>
