<?xml version="1.0" encoding="utf-8"?>
<!-- Generator: Adobe Illustrator 16.0.0, SVG Export Plug-In . SVG Version: 6.00 Build 0)  -->
<!DOCTYPE svg PUBLIC "-//W3C//DTD SVG 1.1//EN" "http://www.w3.org/Graphics/SVG/1.1/DTD/svg11.dtd">
<svg version="1.1" id="Capa_1" xmlns="http://www.w3.org/2000/svg" xmlns:xlink="http://www.w3.org/1999/xlink" x="0px" y="0px"
	 width="24px" height="24px" viewBox="244 244 24 24" enable-background="new 244 244 24 24" xml:space="preserve">
<g>
	<circle cx="253.141" cy="262.328" r="0.703"/>
	<path d="M267.297,261.625h-2.276c-0.213-0.599-0.688-1.073-1.286-1.285v-11.371c0-1.551-1.262-2.813-2.813-2.813
		s-2.813,1.262-2.813,2.813v4.922c0,0.388-0.315,0.703-0.703,0.703h-0.871c-0.29-0.818-1.072-1.406-1.988-1.406h-0.703v-2.109
		c0-1.938-1.577-3.516-3.516-3.516h-1.406c-1.938,0-3.516,1.577-3.516,3.516v2.109h-0.703c-0.388,0-0.703,0.315-0.703,0.703v2.813
		c0,0.389,0.315,0.703,0.703,0.703h0.703v4.34c-0.818,0.29-1.406,1.071-1.406,1.988c0,1.163,0.946,2.109,2.109,2.109
		c0.917,0,1.698-0.588,1.988-1.406h2.232c0.642,0.854,1.663,1.406,2.811,1.406c1.938,0,3.516-1.577,3.516-3.516
		c0-1.697-1.21-3.118-2.813-3.445v-1.477h0.703c0.917,0,1.698-0.588,1.988-1.406h0.871c1.163,0,2.109-0.946,2.109-2.109v-4.922
		c0-0.775,0.631-1.406,1.406-1.406s1.406,0.631,1.406,1.406v11.371c-0.599,0.212-1.073,0.687-1.286,1.285h-2.229
		c-0.389,0-0.703,0.314-0.703,0.703v2.813c0,0.389,0.314,0.703,0.703,0.703h8.484c0.389,0,0.703-0.314,0.703-0.703v-2.813
		C268,261.939,267.686,261.625,267.297,261.625z M248.922,248.969h1.406c0.917,0,1.698,0.588,1.988,1.406h-5.383
		C247.224,249.557,248.005,248.969,248.922,248.969z M246.813,251.781h5.625v1.406c-0.201,0-5.417,0-5.625,0V251.781z
		 M245.406,254.594h1.406V256h-1.406V254.594z M246.109,264.438c-0.388,0-0.703-0.315-0.703-0.703s0.315-0.703,0.703-0.703
		s0.703,0.315,0.703,0.703S246.497,264.438,246.109,264.438z M248.098,263.031c-0.212-0.599-0.687-1.073-1.285-1.285v-4.34h0.703
		c0.388,0,0.703-0.314,0.703-0.703v-2.109h4.219v4.289c-1.603,0.327-2.813,1.747-2.813,3.445c0,0.241,0.024,0.476,0.071,0.703
		H248.098z M255.25,262.328c0,1.163-0.946,2.109-2.109,2.109s-2.109-0.946-2.109-2.109s0.946-2.109,2.109-2.109
		S255.25,261.165,255.25,262.328z M254.547,256h-0.703v-1.406h0.703c0.388,0,0.703,0.315,0.703,0.703S254.935,256,254.547,256z
		 M266.594,264.438h-7.078v-1.406h2.109c0.389,0,0.703-0.314,0.703-0.703c0-0.388,0.315-0.703,0.703-0.703s0.703,0.315,0.703,0.703
		c0,0.389,0.314,0.703,0.703,0.703h2.156V264.438z"/>
</g>
</svg>
