<?xml version="1.0" encoding="utf-8"?>
<!-- Generator: Adobe Illustrator 16.0.0, SVG Export Plug-In . SVG Version: 6.00 Build 0)  -->
<!DOCTYPE svg PUBLIC "-//W3C//DTD SVG 1.1//EN" "http://www.w3.org/Graphics/SVG/1.1/DTD/svg11.dtd">
<svg version="1.1" id="Layer_1" xmlns="http://www.w3.org/2000/svg" xmlns:xlink="http://www.w3.org/1999/xlink" x="0px" y="0px"
	 width="70px" height="70px" viewBox="85 52.5 70 70" enable-background="new 85 52.5 70 70" xml:space="preserve">
<g>
	<g>
		<g>
			<linearGradient id="SVGID_1_" gradientUnits="userSpaceOnUse" x1="131.8613" y1="104.7539" x2="149.1123" y2="104.7539">
				<stop  offset="0" style="stop-color:#64C866"/>
				<stop  offset="1" style="stop-color:#6EDADA"/>
			</linearGradient>
			<path fill="url(#SVGID_1_)" d="M140.486,113.38c4.756,0,8.626-3.87,8.626-8.626s-3.87-8.625-8.626-8.625
				s-8.625,3.869-8.625,8.625S135.73,113.38,140.486,113.38z M140.486,98.285c3.568,0,6.469,2.901,6.469,6.469
				c0,3.568-2.9,6.47-6.469,6.47c-3.567,0-6.469-2.901-6.469-6.47C134.018,101.187,136.919,98.285,140.486,98.285z"/>
			<linearGradient id="SVGID_2_" gradientUnits="userSpaceOnUse" x1="137.252" y1="104.3203" x2="143.7207" y2="104.3203">
				<stop  offset="0" style="stop-color:#64C866"/>
				<stop  offset="1" style="stop-color:#6EDADA"/>
			</linearGradient>
			<path fill="url(#SVGID_2_)" d="M140.486,109.066c1.783,0,3.234-1.451,3.234-3.234v-0.426c0-0.642-0.188-1.262-0.543-1.794
				l-2.691-4.037l-2.691,4.036c-0.355,0.533-0.543,1.153-0.543,1.795v0.426C137.252,107.615,138.703,109.066,140.486,109.066z
				 M139.408,105.406L139.408,105.406c0-0.213,0.063-0.42,0.181-0.599l0.897-1.344l0.897,1.346v0.001
				c0.118,0.177,0.181,0.383,0.181,0.596v0.426c0,0.596-0.484,1.078-1.078,1.078s-1.078-0.482-1.078-1.078V105.406L139.408,105.406z
				"/>
			<linearGradient id="SVGID_3_" gradientUnits="userSpaceOnUse" x1="90.8872" y1="104.7539" x2="108.1382" y2="104.7539">
				<stop  offset="0" style="stop-color:#64C866"/>
				<stop  offset="1" style="stop-color:#6EDADA"/>
			</linearGradient>
			<path fill="url(#SVGID_3_)" d="M99.513,96.129c-4.756,0-8.625,3.869-8.625,8.625s3.87,8.626,8.625,8.626
				c4.756,0,8.625-3.87,8.625-8.626S104.269,96.129,99.513,96.129z M99.513,111.224c-3.567,0-6.469-2.901-6.469-6.47
				c0-3.567,2.902-6.469,6.469-6.469c3.568,0,6.469,2.901,6.469,6.469C105.982,108.322,103.08,111.224,99.513,111.224z"/>
			<linearGradient id="SVGID_4_" gradientUnits="userSpaceOnUse" x1="94.438" y1="104.7539" x2="104.5879" y2="104.7539">
				<stop  offset="0" style="stop-color:#64C866"/>
				<stop  offset="1" style="stop-color:#6EDADA"/>
			</linearGradient>
			<polygon fill="url(#SVGID_4_)" points="103.063,101.834 101.223,103.673 100.593,103.673 100.593,103.044 102.434,101.204 
				100.909,99.679 99.515,101.073 98.121,99.679 96.596,101.204 98.437,103.044 98.437,103.673 97.803,103.673 95.962,101.832 
				94.438,103.356 95.831,104.751 94.438,106.145 95.962,107.67 97.802,105.829 98.437,105.829 98.437,106.463 96.593,108.305 
				98.117,109.829 99.51,108.436 100.904,109.829 102.431,108.305 100.593,106.464 100.593,105.829 101.222,105.829 
				103.063,107.673 104.588,106.149 103.193,104.755 104.588,103.359 			"/>
			<linearGradient id="SVGID_5_" gradientUnits="userSpaceOnUse" x1="86.5747" y1="87.5" x2="153.4248" y2="87.5">
				<stop  offset="0" style="stop-color:#64C866"/>
				<stop  offset="1" style="stop-color:#6EDADA"/>
			</linearGradient>
			<path fill="url(#SVGID_5_)" d="M135.096,57.31h-3.235c-10.106,0-18.329,8.222-18.329,18.33v21.563h-3.538
				c-0.909-1.078-2.012-2.354-3.311-3.22l-0.453-0.301l-0.511,0.186c-0.52,0.191-1.078,0.177-1.572-0.032
				c-0.495-0.21-0.893-0.604-1.118-1.107l-0.222-0.496l-0.53-0.116c-1.752-0.385-3.538-0.399-5.312-0.042l-0.531,0.108l-0.231,0.49
				c-0.235,0.499-0.637,0.883-1.134,1.085c-0.498,0.2-1.056,0.202-1.57,0.009l-0.507-0.193l-0.456,0.292
				c-1.523,0.974-2.799,2.225-3.791,3.718l-0.301,0.453l0.185,0.512c0.188,0.519,0.177,1.078-0.033,1.573
				c-0.21,0.494-0.604,0.891-1.108,1.117l-0.496,0.221l-0.116,0.53c-0.385,1.753-0.399,3.539-0.042,5.312l0.107,0.53l0.491,0.23
				c0.499,0.235,0.883,0.639,1.085,1.136c0.201,0.497,0.203,1.056,0.007,1.569l-0.193,0.507l0.292,0.458
				c0.974,1.522,2.225,2.798,3.719,3.792l0.453,0.301l0.511-0.186c0.52-0.188,1.079-0.177,1.573,0.035
				c0.494,0.208,0.891,0.602,1.117,1.106l0.222,0.496l0.531,0.115c0.909,0.201,1.827,0.299,2.746,0.299
				c0.855,0,1.712-0.085,2.564-0.258l0.53-0.107l0.231-0.491c0.235-0.498,0.637-0.883,1.135-1.085
				c0.495-0.2,1.051-0.203,1.569-0.007l0.507,0.192l0.456-0.293c1.391-0.888,2.563-2.265,3.514-3.344h20.006
				c0.908,1.079,2.011,2.357,3.31,3.222l0.453,0.303l0.511-0.186c0.521-0.188,1.077-0.177,1.573,0.034
				c0.494,0.209,0.892,0.603,1.116,1.105l0.223,0.497l0.531,0.116c0.909,0.2,1.826,0.3,2.746,0.3c0.855,0,1.711-0.087,2.563-0.259
				l0.53-0.108l0.231-0.49c0.235-0.498,0.637-0.884,1.135-1.085c0.496-0.2,1.053-0.201,1.569-0.008l0.507,0.193l0.457-0.292
				c1.521-0.973,2.797-2.225,3.791-3.719l0.301-0.453l-0.185-0.511c-0.188-0.52-0.176-1.079,0.034-1.573
				c0.211-0.495,0.604-0.892,1.107-1.118l0.496-0.222l0.116-0.53c0.385-1.752,0.4-3.538,0.042-5.311l-0.107-0.531l-0.491-0.23
				c-0.499-0.235-0.884-0.638-1.084-1.134v-0.001c-0.202-0.497-0.204-1.055-0.008-1.57l0.191-0.507l-0.29-0.452
				c-0.972-1.522-2.224-2.8-3.719-3.794l-0.452-0.301l-0.512,0.186c-0.519,0.188-1.078,0.177-1.57-0.032
				c-0.495-0.21-0.893-0.604-1.118-1.108l-0.223-0.495l-0.53-0.116c-1.751-0.386-3.538-0.4-5.31-0.042l-0.532,0.107l-0.23,0.491
				c-0.235,0.499-0.638,0.883-1.136,1.085c-0.497,0.2-1.055,0.202-1.568,0.008l-0.507-0.192l-0.457,0.29
				c-1.39,0.886-2.562,2.261-3.513,3.339h-3.529V75.639c0-2.972,2.418-5.391,5.392-5.391h3.234c2.973,0,5.392,2.418,5.392,5.391
				v1.079h12.938V75.64C153.425,65.532,145.202,57.31,135.096,57.31z M108.444,108.546c-0.347,0.82-0.427,1.719-0.24,2.585
				c-0.687,0.938-1.517,1.752-2.475,2.425c-0.862-0.204-1.761-0.139-2.583,0.195c-0.822,0.333-1.514,0.91-1.994,1.653
				c-1.157,0.181-2.318,0.171-3.464-0.024c-0.468-0.755-1.15-1.348-1.968-1.691c-0.818-0.349-1.719-0.427-2.585-0.242
				c-0.938-0.687-1.752-1.516-2.426-2.475c0.203-0.861,0.136-1.76-0.195-2.583c-0.333-0.823-0.91-1.514-1.654-1.995
				c-0.181-1.156-0.173-2.317,0.024-3.465c0.755-0.467,1.347-1.149,1.693-1.967c0.347-0.819,0.428-1.719,0.239-2.586
				c0.687-0.937,1.516-1.75,2.475-2.423c0.865,0.201,1.763,0.134,2.583-0.196c0.821-0.333,1.514-0.91,1.995-1.654
				c1.159-0.181,2.32-0.171,3.465,0.025c0.466,0.754,1.149,1.345,1.969,1.692c0.818,0.347,1.719,0.429,2.583,0.24
				c0.939,0.687,1.752,1.516,2.426,2.475c-0.202,0.862-0.136,1.762,0.195,2.583v0.001c0.333,0.821,0.91,1.513,1.654,1.994
				c0.181,1.156,0.172,2.317-0.025,3.465C109.383,107.044,108.792,107.728,108.444,108.546z M131.554,100.962
				c0.347-0.819,0.428-1.718,0.24-2.585c0.687-0.938,1.517-1.751,2.475-2.424c0.86,0.2,1.76,0.136,2.583-0.196
				c0.822-0.332,1.514-0.909,1.995-1.654c1.158-0.181,2.319-0.174,3.464,0.026c0.468,0.753,1.149,1.344,1.969,1.692
				c0.818,0.346,1.718,0.426,2.584,0.239c0.939,0.687,1.752,1.516,2.426,2.475c-0.203,0.862-0.136,1.762,0.196,2.583
				c0.332,0.822,0.909,1.513,1.654,1.993c0.181,1.157,0.172,2.318-0.026,3.466c-0.755,0.467-1.346,1.149-1.692,1.968
				c-0.348,0.818-0.429,1.718-0.24,2.583c-0.688,0.939-1.518,1.754-2.475,2.427c-0.863-0.202-1.762-0.139-2.584,0.196
				c-0.821,0.332-1.514,0.908-1.993,1.652c-1.154,0.182-2.315,0.172-3.464-0.024c-0.467-0.755-1.149-1.347-1.968-1.692
				c-0.818-0.348-1.718-0.427-2.586-0.241c-0.939-0.687-1.752-1.516-2.425-2.475c0.201-0.862,0.136-1.761-0.196-2.582
				c-0.332-0.823-0.909-1.515-1.654-1.996c-0.181-1.157-0.172-2.318,0.026-3.466C130.615,102.463,131.208,101.78,131.554,100.962z
				 M142.566,74.561c-0.525-3.653-3.675-6.469-7.471-6.469h-3.235c-4.161,0-7.547,3.386-7.547,7.547V99.36h5.42
				c-0.009,0-0.062,0.518-0.164,0.759c-0.211,0.493-0.604,0.892-1.107,1.118l-0.496,0.221l-0.116,0.53
				c-0.385,1.752-0.4,3.539-0.042,5.312l0.108,0.53l0.49,0.23c0.498,0.235,0.884,0.637,1.085,1.135
				c0.12,0.302,0.16,0.946,0.136,0.946h-19.361c0.009,0,0.062-0.515,0.164-0.756c0.21-0.495,0.604-0.891,1.108-1.116l0.496-0.222
				l0.116-0.53c0.385-1.753,0.399-3.538,0.042-5.312l-0.107-0.53l-0.491-0.23c-0.499-0.235-0.883-0.64-1.085-1.136
				c-0.123-0.301-0.162-0.949-0.138-0.949h5.316V75.64c0-8.918,7.255-16.173,16.172-16.173h3.235c8.556,0,15.58,6.677,16.137,15.095
				H142.566L142.566,74.561z"/>
		</g>
	</g>
</g>
</svg>
