<?xml version="1.0" encoding="UTF-8"?>
<svg width="71px" height="71px" viewBox="0 0 71 71" version="1.1" xmlns="http://www.w3.org/2000/svg" xmlns:xlink="http://www.w3.org/1999/xlink">
    <!-- Generator: Sketch 53 (72520) - https://sketchapp.com -->
    <title>Geyser Pipe Connection  </title>
    <desc>Created with Sketch.</desc>
    <defs>
        <linearGradient x1="5.63673899%" y1="-11.1485635%" x2="51.5179728%" y2="97.7255544%" id="linearGradient-1">
            <stop stop-color="#64C866" offset="0%"></stop>
            <stop stop-color="#6EDADA" offset="100%"></stop>
        </linearGradient>
    </defs>
    <g id="Page-1" stroke="none" stroke-width="1" fill="none" fill-rule="evenodd">
        <path d="M41.6791536,61.4541653 L37.1173718,61.4541653 C35.0506493,61.4541653 32.9826607,61.4541653 30.9141082,61.4535726 L30.9141082,67.0974675 C30.9141082,68.7192241 28.843729,70.0301196 26.2823874,70.0301196 C23.7210458,70.0301196 21.6506667,68.7192241 21.6506667,67.0974675 L21.6506667,61.4449877 C21.2110923,61.4442053 20.7715397,61.4433562 20.3320158,61.4424347 C19.0582925,61.439502 15.1676471,61.4336367 12.6016738,59.6916414 C11.735542,59.105111 11.1287866,58.4071398 10.7814075,57.6094585 C10.1144397,57.512681 9.45210368,57.4071055 8.78976761,57.2927321 C5.03807379,56.6270201 2.25440961,54.8908901 0.948264355,52.4040012 C0.633307343,51.7969422 0.457301954,51.1488261 0.457301954,50.5329692 L0.443406791,11.5404281 C0.438775071,9.2353636 2.29146338,4.09442462 6.78423252,2.08262535 C12.9536846,-0.682865499 57.1449324,-0.471714554 62.8651075,1.63099694 C67.7145192,3.41404936 69.8034252,7.74264373 70.2758608,10.0183817 C70.4518661,10.8483222 70.4518661,11.7017239 70.437971,12.5551257 L70.4287075,13.1328581 L70.4240758,50.4801815 C70.4240758,54.175323 66.7279627,56.9496118 61.0077875,57.5508055 C60.0907068,57.6505156 59.1736261,57.7384952 58.2565454,57.8235421 C56.9417333,60.4393526 53.600078,61.1705102 50.9425951,61.3748795 L50.9425951,67.0974675 C50.9425951,68.7192241 48.8722159,70.0301196 46.3108744,70.0301196 C43.7495328,70.0301196 41.6791536,68.7192241 41.6791536,67.0974675 L41.6791536,61.4541653 Z M35.8668072,5.92146683 C25.2647984,5.92146683 14.4312035,6.23526059 11.8698619,6.97135625 C11.188999,7.38192753 9.7022166,9.98025721 9.70684832,11.5345628 L9.70683752,11.8014341 C20.7164486,10.3409734 31.2119278,9.71925118 41.6055092,9.88054704 C47.7656978,9.98025721 54.9541285,10.6107774 61.1791612,11.5697546 C61.1698977,11.3087486 61.1467391,11.0477425 61.0911585,10.7896692 C60.6974622,8.88344536 59.108782,7.03000929 58.2194916,6.70741757 C55.9962656,6.21473203 46.038066,5.92146683 35.8668072,5.92146683 Z M9.71611176,41.5267949 C9.75779725,41.5326602 9.79948274,41.5355928 9.84116822,41.5414581 C15.4548138,42.1485171 21.4853142,42.49457 28.2707851,42.6001455 C38.8542671,42.7673067 49.604491,42.3919272 61.1606343,41.4505459 L61.165266,17.625681 C55.194978,16.5757916 47.5572704,15.8455612 41.3692915,15.7458511 C31.0683445,15.5757572 20.7118169,16.2473346 9.71148004,17.8016401 L9.71611176,41.5267949 Z M22.8285132,55.5800633 C29.4611374,55.5917939 36.0891298,55.5917939 42.7217539,55.5888613 L46.1168053,55.5888613 C46.0288026,54.0902761 47.7703296,52.7705827 50.1695609,52.5799603 L50.7531577,52.5359705 C53.6711418,52.3013584 56.5891259,52.0726115 59.4885831,51.7676157 C60.7715698,51.6327137 61.1606343,51.3306505 61.1606343,50.4831141 L61.1606343,47.3627724 C49.5767007,48.2689618 38.7292106,48.6238127 28.0484625,48.4654495 C21.3741529,48.3598741 15.3621794,48.0343497 9.72074348,47.4712805 L9.72074348,50.5300365 C10.2117059,51.4508893 10.9574129,51.5828586 11.2723699,51.6415117 C13.7688674,52.0784768 16.496951,52.3482808 18.8637603,52.565297 C21.2352013,52.7823133 22.9211477,54.099074 22.8285132,55.5800633 Z" id="Geyser-Pipe-Connection--" fill="url(#linearGradient-1)" fill-rule="nonzero"></path>
    </g>
</svg>