<?xml version="1.0" encoding="utf-8"?>
<!-- Generator: Adobe Illustrator 16.0.0, SVG Export Plug-In . SVG Version: 6.00 Build 0)  -->
<!DOCTYPE svg PUBLIC "-//W3C//DTD SVG 1.1//EN" "http://www.w3.org/Graphics/SVG/1.1/DTD/svg11.dtd">
<svg version="1.1" id="Layer_1" xmlns="http://www.w3.org/2000/svg" xmlns:xlink="http://www.w3.org/1999/xlink" x="0px" y="0px"
	 width="24px" height="24px" viewBox="0 0 24 24" enable-background="new 0 0 24 24" xml:space="preserve">
<g>
	<g>
		
			<line fill="#333333" stroke="#333333" stroke-width="2" stroke-linecap="round" stroke-linejoin="round" stroke-miterlimit="10" x1="20.645" y1="3.061" x2="20.645" y2="6.121"/>
	</g>
	<g>
		
			<line fill="#333333" stroke="#333333" stroke-width="2" stroke-linecap="round" stroke-linejoin="round" stroke-miterlimit="10" x1="22.156" y1="4.59" x2="19.132" y2="4.59"/>
	</g>
	<g>
		<path fill="#333333" stroke="#333333" stroke-miterlimit="10" d="M2.505,4.752c0,0.292-0.235,0.53-0.525,0.53
			c-0.289,0-0.522-0.238-0.522-0.53c0-0.293,0.233-0.53,0.522-0.53C2.27,4.222,2.505,4.459,2.505,4.752"/>
	</g>
	<g>
		
			<ellipse fill="#333333" stroke="#333333" stroke-linecap="round" stroke-linejoin="round" stroke-miterlimit="10" cx="1.981" cy="4.752" rx="0.523" ry="0.53"/>
	</g>
	<g>
		<path fill="#333333" stroke="#333333" stroke-miterlimit="10" d="M5.275,2.066c0,0.293-0.234,0.53-0.525,0.53
			c-0.29,0-0.524-0.237-0.524-0.53c0-0.292,0.234-0.53,0.524-0.53C5.041,1.537,5.275,1.774,5.275,2.066"/>
	</g>
	<g>
		
			<ellipse fill="#333333" stroke="#333333" stroke-width="2" stroke-linecap="round" stroke-linejoin="round" stroke-miterlimit="10" cx="4.75" cy="2.066" rx="0.524" ry="0.53"/>
	</g>
	<g>
		<path fill="#333333" d="M7.241,5.518c0,0.473-0.377,0.854-0.843,0.854c-0.464,0-0.844-0.381-0.844-0.854
			c0-0.471,0.38-0.852,0.844-0.852C6.864,4.666,7.241,5.047,7.241,5.518"/>
	</g>
	<g>
		<path fill="#333333" d="M23.203,11.701c-0.459-0.459-0.987-0.579-1.243-0.634c-0.31-0.069-0.634-0.085-0.946-0.045
			c-1.273-2.955-4.68-4.957-8.647-4.957c-3.744,0-7.053,2.017-8.401,5.002c-0.395-0.085-0.799-0.085-1.193,0.005
			c-0.255,0.055-0.784,0.175-1.244,0.634C1.444,11.791,0.72,12.55,0.89,13.633c0.164,1.073,1.093,1.741,1.887,1.912
			c0.274,0.061,0.554,0.055,0.829-0.005c0.025-0.005,0.049-0.011,0.069-0.017c0.08,0.136,0.335,0.85-0.284,3.925
			c-0.015,0.079-0.01,0.165,0.015,0.245c0.364,1.168,0.953,1.736,1.917,1.847c0.019,0,0.035,0.005,0.055,0.005v1.498
			c0,0.273,0.224,0.498,0.499,0.498s0.499-0.225,0.499-0.498v-1.498h11.981v1.498c0,0.273,0.225,0.498,0.498,0.498
			c0.275,0,0.5-0.225,0.5-0.498v-1.498c0.021,0,0.035,0,0.055-0.005c0.964-0.108,1.559-0.679,1.917-1.847
			c0.024-0.08,0.03-0.166,0.016-0.245c-0.618-3.08-0.364-3.794-0.284-3.925c0.021,0.006,0.045,0.012,0.069,0.017
			c0.271,0.06,0.556,0.063,0.823,0.005c0.794-0.171,1.723-0.839,1.889-1.912C24.008,12.544,23.283,11.786,23.203,11.701
			 M12.365,7.063c3.525,0,6.545,1.718,7.693,4.269c-0.17,0.095-0.334,0.2-0.49,0.314c-0.434,0.305-0.817,0.684-1.123,1.124
			c-0.234,0.345-0.42,0.72-0.559,1.112c-0.38,1.05-0.488,2.298-0.52,3.165H7.363c-0.029-0.867-0.144-2.115-0.519-3.165
			c-0.139-0.394-0.324-0.769-0.559-1.112c-0.304-0.435-0.684-0.818-1.123-1.124c-0.09-0.064-0.185-0.129-0.28-0.189
			C6.075,8.835,9.026,7.063,12.365,7.063 M22.859,13.479c-0.101,0.645-0.719,1.004-1.108,1.084c-0.146,0.028-0.29,0.023-0.431-0.012
			c-0.17-0.033-0.403-0.078-0.668,0.045c-0.834,0.375-0.924,1.803-0.31,4.918c-0.315,0.924-0.709,0.993-1.009,1.027H5.401
			c-0.299-0.034-0.698-0.104-1.008-1.027c0.614-3.115,0.524-4.543-0.309-4.918c-0.265-0.119-0.499-0.074-0.669-0.045
			c-0.14,0.035-0.29,0.04-0.43,0.012c-0.389-0.086-1.008-0.439-1.108-1.084c-0.095-0.604,0.355-1.068,0.355-1.074
			c0.254-0.255,0.564-0.324,0.753-0.364c0.255-0.06,0.524-0.06,0.779,0c0.33,0.075,0.534,0.219,0.824,0.419
			c0.339,0.24,0.639,0.534,0.874,0.873c0.184,0.274,0.329,0.575,0.439,0.885c0.404,1.134,0.469,2.571,0.469,3.324
			c0,0.274,0.225,0.499,0.499,0.499h10.982c0.274,0,0.5-0.225,0.5-0.499c0-0.759,0.063-2.196,0.469-3.329
			c0.109-0.311,0.255-0.609,0.438-0.884c0.239-0.34,0.534-0.64,0.874-0.874c0.284-0.2,0.494-0.344,0.818-0.419
			c0.26-0.055,0.523-0.055,0.783,0c0.189,0.04,0.5,0.109,0.754,0.364C22.5,12.41,22.949,12.874,22.859,13.479"/>
	</g>
	<g>
		<path fill="#333333" stroke="#333333" stroke-miterlimit="10" d="M23.203,11.701c-0.459-0.459-0.987-0.579-1.243-0.634
			c-0.31-0.069-0.634-0.085-0.946-0.045c-1.273-2.955-4.68-4.957-8.647-4.957c-3.744,0-7.053,2.017-8.401,5.002
			c-0.395-0.085-0.799-0.085-1.193,0.005c-0.255,0.055-0.784,0.175-1.244,0.634C1.444,11.791,0.72,12.55,0.89,13.633
			c0.164,1.073,1.093,1.741,1.887,1.912c0.274,0.061,0.554,0.055,0.829-0.005c0.025-0.005,0.049-0.011,0.069-0.017
			c0.08,0.136,0.335,0.85-0.284,3.925c-0.015,0.079-0.01,0.165,0.015,0.245c0.364,1.168,0.953,1.736,1.917,1.847
			c0.019,0,0.035,0.005,0.055,0.005v1.498c0,0.273,0.224,0.498,0.499,0.498s0.499-0.225,0.499-0.498v-1.498h11.981v1.498
			c0,0.273,0.225,0.498,0.498,0.498c0.275,0,0.5-0.225,0.5-0.498v-1.498c0.021,0,0.035,0,0.055-0.005
			c0.964-0.108,1.559-0.679,1.917-1.847c0.024-0.08,0.03-0.166,0.016-0.245c-0.618-3.08-0.364-3.794-0.284-3.925
			c0.021,0.006,0.045,0.012,0.069,0.017c0.271,0.06,0.556,0.063,0.823,0.005c0.794-0.171,1.723-0.839,1.889-1.912
			C24.008,12.544,23.283,11.786,23.203,11.701z M12.365,7.063c3.525,0,6.545,1.718,7.693,4.269c-0.17,0.095-0.334,0.2-0.49,0.314
			c-0.434,0.305-0.817,0.684-1.123,1.124c-0.234,0.345-0.42,0.72-0.559,1.112c-0.38,1.05-0.488,2.298-0.52,3.165H7.363
			c-0.029-0.867-0.144-2.115-0.519-3.165c-0.139-0.394-0.324-0.769-0.559-1.112c-0.304-0.435-0.684-0.818-1.123-1.124
			c-0.09-0.064-0.185-0.129-0.28-0.189C6.075,8.835,9.026,7.063,12.365,7.063z M22.859,13.479c-0.101,0.645-0.719,1.004-1.108,1.084
			c-0.146,0.028-0.29,0.023-0.431-0.012c-0.17-0.033-0.403-0.078-0.668,0.045c-0.834,0.375-0.924,1.803-0.31,4.918
			c-0.315,0.924-0.709,0.993-1.009,1.027H5.401c-0.299-0.034-0.698-0.104-1.008-1.027c0.614-3.115,0.524-4.543-0.309-4.918
			c-0.265-0.119-0.499-0.074-0.669-0.045c-0.14,0.035-0.29,0.04-0.43,0.012c-0.389-0.086-1.008-0.439-1.108-1.084
			c-0.095-0.604,0.355-1.068,0.355-1.074c0.254-0.255,0.564-0.324,0.753-0.364c0.255-0.06,0.524-0.06,0.779,0
			c0.33,0.075,0.534,0.219,0.824,0.419c0.339,0.24,0.639,0.534,0.874,0.873c0.184,0.274,0.329,0.575,0.439,0.885
			c0.404,1.134,0.469,2.571,0.469,3.324c0,0.274,0.225,0.499,0.499,0.499h10.982c0.274,0,0.5-0.225,0.5-0.499
			c0-0.759,0.063-2.196,0.469-3.329c0.109-0.311,0.255-0.609,0.438-0.884c0.239-0.34,0.534-0.64,0.874-0.874
			c0.284-0.2,0.494-0.344,0.818-0.419c0.26-0.055,0.523-0.055,0.783,0c0.189,0.04,0.5,0.109,0.754,0.364
			C22.5,12.41,22.949,12.874,22.859,13.479z"/>
	</g>
</g>
</svg>
