<?xml version="1.0" encoding="UTF-8"?>
<svg width="70px" height="70px" viewBox="0 0 70 70" version="1.1" xmlns="http://www.w3.org/2000/svg" xmlns:xlink="http://www.w3.org/1999/xlink">
    <!-- Generator: Sketch 53 (72520) - https://sketchapp.com -->
    <title>Wardrobe Handle Installation</title>
    <desc>Created with Sketch.</desc>
    <defs>
        <linearGradient x1="5.63673899%" y1="-11.1485635%" x2="51.5179728%" y2="97.7255544%" id="linearGradient-1">
            <stop stop-color="#64C866" offset="0%"></stop>
            <stop stop-color="#6EDADA" offset="100%"></stop>
        </linearGradient>
    </defs>
    <g id="Page-1" stroke="none" stroke-width="1" fill="none" fill-rule="evenodd">
        <path d="M35.6102354,0 L35.6102354,64.1666667 L-4.26325641e-14,70 L-4.26325641e-14,0 L35.6102354,0 Z M29.7566584,5.83333333 L5.85357695,5.83333333 L5.85357695,63.13125 L29.7566584,59.2141667 L29.7566584,5.83333333 Z M70,0 L70,70 L37.5594765,64.1666667 L37.5594765,0 L70,0 Z M64.146423,5.83333333 L43.4130535,5.83333333 L43.4130535,59.2929167 L64.146423,63.0204167 L64.146423,5.83333333 Z M21.0362922,54.6875 L19.5728979,54.6875 C17.9543839,54.6875 16.6461095,53.3808333 16.6461095,51.7708333 C16.6461095,50.1608333 17.9543839,48.8541667 19.5728979,48.8541667 L21.0362922,48.8541667 C21.9465234,48.8541667 22.6811473,48.1191667 22.6811473,47.2120833 L22.6811473,24.2433333 C22.6811473,23.3391667 21.9465234,22.6041667 21.0362922,22.6041667 L19.5728979,22.6041667 C17.9543839,22.6041667 16.6461095,21.2975 16.6461095,19.6875 C16.6461095,18.0775 17.9543839,16.7708333 19.5728979,16.7708333 L21.0362922,16.7708333 C25.1718443,16.7708333 28.537651,20.1220833 28.537651,24.2433333 L28.537651,47.2120833 C28.537651,51.33625 25.1718443,54.6875 21.0362922,54.6875 Z M49.7554041,54.6875 L48.2920099,54.6875 C46.6734958,54.6875 45.3652214,53.3808333 45.3652214,51.7708333 C45.3652214,50.1608333 46.6734958,48.8541667 48.2920099,48.8541667 L49.7554041,48.8541667 C50.6656353,48.8541667 51.4002592,48.1191667 51.4002592,47.2120833 L51.4002592,24.2433333 C51.4002592,23.3391667 50.6656353,22.6041667 49.7554041,22.6041667 L48.2920099,22.6041667 C46.6734958,22.6041667 45.3652214,21.2975 45.3652214,19.6875 C45.3652214,18.0775 46.6734958,16.7708333 48.2920099,16.7708333 L49.7554041,16.7708333 C53.8909562,16.7708333 57.256763,20.1220833 57.256763,24.2433333 L57.256763,47.2120833 C57.256763,51.33625 53.8909562,54.6875 49.7554041,54.6875 Z" id="Wardrobe-Handle-Installation" fill="url(#linearGradient-1)" fill-rule="nonzero"></path>
    </g>
</svg>