<?xml version="1.0" encoding="UTF-8"?>
<svg width="70px" height="70px" viewBox="0 0 70 70" version="1.1" xmlns="http://www.w3.org/2000/svg" xmlns:xlink="http://www.w3.org/1999/xlink">
    <!-- Generator: Sketch 53 (72520) - https://sketchapp.com -->
    <title>Wall Mixture (Wash Room ) </title>
    <desc>Created with Sketch.</desc>
    <defs>
        <linearGradient x1="5.63673899%" y1="-11.1485635%" x2="51.5179728%" y2="97.7255544%" id="linearGradient-1">
            <stop stop-color="#64C866" offset="0%"></stop>
            <stop stop-color="#6EDADA" offset="100%"></stop>
        </linearGradient>
    </defs>
    <g id="Page-1" stroke="none" stroke-width="1" fill="none" fill-rule="evenodd">
        <path d="M27.8768009,34.9997083 L23.2298096,34.9997083 C23.0191016,34.9997083 22.8124705,34.9859586 22.6113011,34.9595364 L22.6113011,53.1679167 L39.7648768,53.1679167 L39.7648768,48.5490833 C39.7648768,46.9361667 41.4263751,45.6324167 43.4818752,45.6324167 C45.5373753,45.6324167 47.1988735,46.9361667 47.1988735,48.5490833 L47.1988735,63.8615833 C47.1988735,65.4745 45.5373753,66.77825 43.4818752,66.77825 C41.4263751,66.77825 39.7648768,65.4745 39.7648768,63.8615833 L39.7648768,59.00125 L22.6113011,59.00125 L22.6113011,70 L0.0008,70 L0.0008,0 L22.6113011,0 L22.6113011,29.2065469 C22.8124705,29.1801247 23.0191016,29.166375 23.2298096,29.166375 L29.5412728,29.166375 L47.5055259,6.80429167 L70.0008,6.80429167 L70.0008,13.6117917 C70.0008,15.2247083 68.3393017,16.5284583 66.2838016,16.5284583 C64.2320185,16.5284583 62.5668033,15.2247083 62.5668033,13.6117917 L62.5668033,12.637625 L51.6090921,12.637625 L35.3107977,32.9259062 L35.3107977,38.8278333 C35.3107977,40.44075 33.6492994,41.7445 31.5937993,41.7445 C29.5382992,41.7445 27.8768009,40.44075 27.8768009,38.8278333 L27.8768009,34.9997083 Z M66.7346735,18.48525 C66.9428254,18.48525 69.6934042,22.1019167 69.6934042,23.5748333 C69.6934042,24.8581667 68.3664358,25.8965 66.7346735,25.8965 C65.1029113,25.8965 63.7759428,24.8581667 63.7759428,23.5748333 C63.7759428,22.1019167 66.5265216,18.48525 66.7346735,18.48525 Z" id="Wall-Mixture-(Wash-Room-)-" fill="url(#linearGradient-1)" fill-rule="nonzero"></path>
    </g>
</svg>