<svg xmlns="http://www.w3.org/2000/svg" xmlns:xlink="http://www.w3.org/1999/xlink" width="440.3" height="169.4" viewBox="0 0 440.3 169.4">
  <defs>
    <style>
      .cls-1 {
        fill: none;
      }

      .cls-2 {
        isolation: isolate;
      }

      .cls-3 {
        clip-path: url(#clip-path);
      }

      .cls-4 {
        fill: url(#linear-gradient);
      }

      .cls-5 {
        clip-path: url(#clip-path-2);
      }

      .cls-6 {
        fill: #e0f8ff;
      }

      .cls-7 {
        fill: url(#linear-gradient-2);
      }

      .cls-62, .cls-8 {
        fill: #fff;
      }

      .cls-52, .cls-8 {
        opacity: 0.3;
      }

      .cls-9 {
        fill: #f8f8f8;
      }

      .cls-10 {
        fill: #e0e0e0;
      }

      .cls-11 {
        fill: url(#linear-gradient-3);
      }

      .cls-12 {
        fill: #f4d7b4;
        opacity: 0.66;
      }

      .cls-13 {
        fill: url(#linear-gradient-4);
      }

      .cls-14 {
        fill: #aedbc8;
      }

      .cls-14, .cls-61 {
        opacity: 0.5;
      }

      .cls-15 {
        fill: #dddedd;
      }

      .cls-16 {
        fill: #c6cacb;
      }

      .cls-17 {
        fill: #17687a;
      }

      .cls-18 {
        fill: #186a7c;
      }

      .cls-19 {
        fill: #287f93;
      }

      .cls-20 {
        fill: #2e445d;
      }

      .cls-21 {
        fill: #258197;
      }

      .cls-22 {
        fill: #20697c;
      }

      .cls-23 {
        fill: #2a92aa;
      }

      .cls-24 {
        fill: #2f556c;
      }

      .cls-25, .cls-30 {
        fill: #19b1e0;
      }

      .cls-25, .cls-29 {
        opacity: 0.4;
      }

      .cls-25, .cls-27, .cls-29, .cls-31, .cls-34 {
        mix-blend-mode: multiply;
      }

      .cls-26 {
        fill: #26475b;
      }

      .cls-28 {
        fill: url(#linear-gradient-5);
      }

      .cls-31 {
        opacity: 0.7;
      }

      .cls-32 {
        fill: #9db9c4;
      }

      .cls-33 {
        fill: #e1fbff;
      }

      .cls-34 {
        fill: #baa8a2;
      }

      .cls-35 {
        fill: #4b4b5e;
      }

      .cls-36 {
        fill: #f23d3d;
      }

      .cls-37 {
        fill: #e5e5e5;
      }

      .cls-38 {
        fill: #4f3a2a;
      }

      .cls-39 {
        fill: #ffb287;
      }

      .cls-40 {
        fill: #e5785c;
      }

      .cls-41 {
        fill: #e9e4e8;
      }

      .cls-42 {
        fill: #9b9b9b;
      }

      .cls-43 {
        fill: #8e3925;
      }

      .cls-44 {
        fill: #006836;
      }

      .cls-45 {
        fill: #005e31;
      }

      .cls-46 {
        fill: #1d252b;
      }

      .cls-47 {
        fill: #c7c0b0;
      }

      .cls-48 {
        fill: #06131c;
      }

      .cls-49 {
        fill: #222b31;
      }

      .cls-50 {
        fill: #72514a;
      }

      .cls-51 {
        fill: #f1eae9;
      }

      .cls-52 {
        fill: #102333;
      }

      .cls-53 {
        fill: #c68d6d;
      }

      .cls-54 {
        fill: #472736;
      }

      .cls-55 {
        fill: #aeb0af;
      }

      .cls-56 {
        fill: #f2be3d;
      }

      .cls-57 {
        fill: #f8eed3;
      }

      .cls-58 {
        fill: #c2b9bc;
      }

      .cls-59 {
        fill: #e6fff4;
      }

      .cls-60 {
        fill: #e8dfe2;
      }

      .cls-61 {
        mix-blend-mode: overlay;
      }
    </style>
    <clipPath id="clip-path">
      <rect class="cls-1" x="-4" y="189.3" width="440.3" height="169.16"/>
    </clipPath>
    <linearGradient id="linear-gradient" x1="226.1" y1="139.03" x2="226.1" y2="291.81" gradientTransform="translate(452.2 403.4) rotate(-180)" gradientUnits="userSpaceOnUse">
      <stop offset="0.08" stop-color="#fff"/>
      <stop offset="0.61" stop-color="#fdfdfd"/>
      <stop offset="0.81" stop-color="#f7f6f6"/>
      <stop offset="0.94" stop-color="#ecebeb"/>
      <stop offset="1" stop-color="#e5e3e3"/>
    </linearGradient>
    <clipPath id="clip-path-2">
      <rect class="cls-1" x="174" y="145.2" width="105.2" height="105.93" transform="translate(453.2 396.3) rotate(180)"/>
    </clipPath>
    <linearGradient id="linear-gradient-2" x1="218.14" y1="157.7" x2="218.14" y2="254.56" gradientUnits="userSpaceOnUse">
      <stop offset="0.03" stop-color="#ace2e8"/>
      <stop offset="0.16" stop-color="#b0e4ea"/>
      <stop offset="0.98" stop-color="#c4eff6"/>
    </linearGradient>
    <linearGradient id="linear-gradient-3" x1="226.26" y1="147.48" x2="226.26" y2="143.77" gradientUnits="userSpaceOnUse">
      <stop offset="0" stop-color="#ceb498"/>
      <stop offset="0.46" stop-color="#bfa48a"/>
      <stop offset="0.91" stop-color="#b59a80"/>
    </linearGradient>
    <linearGradient id="linear-gradient-4" x1="-1933.17" y1="215.3" x2="-1934.58" y2="215.64" gradientTransform="matrix(375, 0, 0, -166, 725445.38, 35854.69)" gradientUnits="userSpaceOnUse">
      <stop offset="0" stop-color="#64dcc2"/>
      <stop offset="1" stop-color="#70bce6"/>
    </linearGradient>
    <linearGradient id="linear-gradient-5" x1="271.2" y1="160.29" x2="273.88" y2="160.29" gradientUnits="userSpaceOnUse">
      <stop offset="0" stop-color="#5cbc79"/>
      <stop offset="0.03" stop-color="#5bbc7b"/>
      <stop offset="1" stop-color="#47bda4"/>
    </linearGradient>
  </defs>
  <title>Banners (4)</title>
  <g class="cls-2">
    <g id="AC">
      <g class="cls-3">
        <g>
          <rect class="cls-4" x="168.9" y="141.1" width="114.4" height="121.25" transform="translate(452.2 403.4) rotate(180)"/>
          <g class="cls-5">
            <rect class="cls-6" x="174" y="145.2" width="105.2" height="105.93" transform="translate(453.2 396.3) rotate(180)"/>
            <polygon class="cls-7" points="260.4 210.9 250.4 210.9 250.4 182.9 236.1 183 236.1 220 229 220 229 208 221.4 208 221.4 191.6 211 191.6 211 214.2 211 220 205 220 205 183 200.6 183 200.6 171.4 198.2 171.4 198.2 160.7 173.3 160.7 173.3 214 173.3 250.8 263 251.2 260.4 210.9"/>
            <g>
              <polygon class="cls-8" points="216.6 146.1 195 146.1 255 252.1 263.1 252.1 275.2 249.8 216.6 146.1"/>
              <polygon class="cls-8" points="180.7 146.1 240.6 252.1 246.5 252.1 186.6 146.1 180.7 146.1"/>
              <path class="cls-8" d="M225.7,145.4c2.4.3.3.1-.2.1h-.4l54.4,95.7c2.1-.4-.7-9.4,1.5-9.7l-49.3-86.7A11.9,11.9,0,0,1,225.7,145.4Z"/>
            </g>
          </g>
          <rect class="cls-9" x="212.4" y="142.7" width="4.4" height="111.12"/>
          <rect class="cls-10" x="173" y="147.5" width="2.4" height="103.92"/>
          <g>
            <rect class="cls-11" x="171.5" y="145.2" width="109.5" height="2.33"/>
            <rect class="cls-12" x="173" y="147.5" width="106.2" height="56.45"/>
          </g>
        </g>
      </g>
    </g>
    <g id="Civil">
      <g id="Page-1">
        <g id="UI---Screen-5">
          <g id="Group-2">
            <rect id="Rectangle-Copy-6" class="cls-13" width="440.3" height="169.4"/>
          </g>
        </g>
      </g>
      <g>
        <path class="cls-14" d="M48.5,52.2c0,2.2-1,4.1-2.3,4.1h-34c-1.3,0-2.4-1.9-2.4-4.1h0c0-2.3,1.1-4.2,2.4-4.2h34c1.3,0,2.3,1.9,2.3,4.2Z"/>
        <path class="cls-14" d="M78.4,112.9c0,2.3-1.3,4.1-3,4.1H32.5c-1.7,0-3-1.8-3-4.1h0c0-2.3,1.3-4.1,3-4.1H75.4c1.7,0,3,1.8,3,4.1Z"/>
        <g>
          <g>
            <rect class="cls-15" y="156.6" width="440.4" height="12.66"/>
            <rect class="cls-16" x="264.9" y="25.4" width="19.3" height="3.04"/>
            <rect class="cls-16" x="267.1" y="39.8" width="19.3" height="3.04"/>
            <rect class="cls-16" x="267.7" y="53.7" width="19.3" height="3.04"/>
            <path class="cls-16" d="M268.1,56.7h-.4V54.4h.2Z"/>
            <polygon class="cls-17" points="265.8 28.5 264.9 28.5 264.9 25.4 265.6 25.4 265.8 28.5"/>
            <path class="cls-1" d="M337.6,85.3h-.2a1.5,1.5,0,0,0,.1-.7v.2A.7.7,0,0,0,337.6,85.3Z"/>
            <path class="cls-18" d="M332.5,85.3h-.1a1,1,0,0,1-1,1,.9.9,0,0,1-1-1h-2.7l-2.2-15.6h5.3l1.6,11.9v3A1.5,1.5,0,0,0,332.5,85.3Z"/>
            <path class="cls-19" d="M338.9,55.7a3.2,3.2,0,0,1,1.6.9v.3h-1.6Z"/>
            <path class="cls-20" d="M338.7,63.2a3.7,3.7,0,0,0,1.8-.8Z"/>
            <rect class="cls-20" x="327.2" y="67.1" width="1.3" height="2.62"/>
            <path class="cls-20" d="M340.5,62.4Z"/>
            <g>
              <path class="cls-21" d="M288.7,61.7H271.4a13.9,13.9,0,0,0,10.4,11.5h8.3Z"/>
              <g>
                <path class="cls-21" d="M388.2-.7a15.5,15.5,0,0,0-3.1.4,15.4,15.4,0,0,0-3-.4H338.9l-2.1.2h-.1l-2.1-.2H157.7a13,13,0,0,0-9.1,3.8,12.8,12.8,0,0,0,9.1,21.8h47.8V45.5a14,14,0,0,0,14,14h45.2l-2.2-36.8h2.4l.7,7.7h-.7v3.1h.9l2.1,25.2h2.9l.4-.2v.2h17.2l-4.4-36h2.5l7,50a13.9,13.9,0,0,0,5.7-4.2V82.3a14,14,0,0,0,14,14h4.4a14.1,14.1,0,0,0,7.3-2.1v8.3a14,14,0,0,0,6,11.5l-3.2-23.7-2.2-15.6h5.3l1.6,11.9,4,29.7,2.5.2h35.3v26.2a14,14,0,0,0,14,14H410v-8.6a10.2,10.2,0,0,0,16.3,0v8.6h14V-.7Z"/>
                <g>
                  <g>
                    <path class="cls-17" d="M426.3,152.1v5.3H416.2v-5.3a6,6,0,0,0,5,2.6A6.3,6.3,0,0,0,426.3,152.1Z"/>
                    <path class="cls-17" d="M426.3,144.1v8a6.3,6.3,0,0,1-5.1,2.6,6,6,0,0,1-5-2.6v-8c0,.3.7.6,1.9.7h.1l3,.2,3.1-.2a3.6,3.6,0,0,0,1.9-.5h0Z"/>
                    <g>
                      <path class="cls-17" d="M426.3,144.1c0,.5-2.3.9-5.1.9s-5-.4-5-.9,2.2-.8,5-.8S426.3,143.7,426.3,144.1Z"/>
                      <path class="cls-17" d="M418.1,144.8v1.6s.2,1.8,1,.8.4-1.2.4-1.2.3-.4.4.2a17,17,0,0,0,.3,2.7c.2.1.4-.2.4-.6s.4-.5.5-.2,0,1.6.4,1.7.7,0,.6-.7.1-1.5.5-1.2.5.9.6.6a22.4,22.4,0,0,0,0-2.6c-.1-.7.3-.5.5.2s.1.8.4.7,0-1.3,0-1.3.2-.6.4.1.3-.4.3-.4v-.4A47.9,47.9,0,0,1,418.1,144.8Z"/>
                      <path class="cls-17" d="M418.1,144.8s.5-1.1,7.4-1.1c0,0,2.1.6-.7,1.1l-3.4.6h-2.3Z"/>
                      <path class="cls-17" d="M427.2,146.8h-.7l.3.9v.8a7,7,0,0,1-.5,2.5,5.7,5.7,0,0,1-10.1,0,5.4,5.4,0,0,1-.6-2.5,1.9,1.9,0,0,1,.1-.8,2.9,2.9,0,0,1,.2-.9h-.7a8.8,8.8,0,0,0-.2,1.7,5.9,5.9,0,0,0,1.2,3.7,6,6,0,0,0,5,2.6,6.3,6.3,0,0,0,5.1-2.6,6.5,6.5,0,0,0,1.2-3.7A4.5,4.5,0,0,0,427.2,146.8Z"/>
                      <rect class="cls-17" x="415.2" y="146.7" width="0.9" height="0.86"/>
                      <rect class="cls-17" x="426.2" y="146.7" width="1" height="0.86"/>
                    </g>
                  </g>
                  <polygon class="cls-16" points="426.3 157.4 426.1 157.7 422 162.7 418.5 159.3 420.3 158.3 421.8 157.4 426.3 157.4"/>
                  <g>
                    <path class="cls-20" d="M422,141.5v21.2c0,.7-3.6,1.3-8.1,1.3s-8-.6-8-1.3V141.5c0,.8,3.6,1.4,8,1.4S422,142.3,422,141.5Z"/>
                    <g>
                      <path class="cls-22" d="M422,141.5c0,.8-3.6,1.4-8.1,1.4s-8-.6-8-1.4,3.6-1.4,8-1.4S422,140.7,422,141.5Z"/>
                      <path class="cls-23" d="M408.9,142.5v2.6s.3,2.9,1.6,1.3.7-2,.7-2,.5-.5.6.3.2,4.2.5,4.4.6-.4.6-1,.6-.7.8-.3,0,2.6.6,2.7,1.1,0,1-1.1.2-2.5.7-1.8.8,1.3,1,.8a19.4,19.4,0,0,0,0-4.2c0-1,.5-.8.8.4s.2,1.3.7,1.2,0-2.2,0-2.2.3-.9.7.3.4-.7.4-.7v-.7S411.8,143,408.9,142.5Z"/>
                      <path class="cls-23" d="M408.9,142.5s.8-1.8,11.8-1.8c0,0,3.4,1-1.1,1.8l-5.4,1.1h-3.7Z"/>
                      <path class="cls-24" d="M423.4,145.6h-1a8,8,0,0,1,.4,2.7,8.9,8.9,0,1,1-17.8,0,8,8,0,0,1,.4-2.7h-1a8,8,0,0,0-.4,2.7,9.9,9.9,0,1,0,19.8,0A8,8,0,0,0,423.4,145.6Z"/>
                      <rect class="cls-24" x="404.4" y="145.6" width="1.5" height="1.37"/>
                      <rect class="cls-24" x="421.9" y="145.6" width="1.6" height="1.37"/>
                    </g>
                  </g>
                </g>
                <g>
                  <path class="cls-17" d="M336.4,116.3a15.7,15.7,0,0,1-5.5-2.3l-3.2-23.7-2.2-15.6h5.3l1.6,11.9Z"/>
                  <path class="cls-25" d="M341.8,156.6h-5L330.9,114a15.7,15.7,0,0,0,5.5,2.3Z"/>
                  <polygon class="cls-16" points="341.8 156.6 329.4 171.8 325.5 171.7 336.8 156.6 341.8 156.6"/>
                  <path class="cls-23" d="M340.5,57.3v33a.5.5,0,0,0-.8,0,1.2,1.2,0,0,1-1.1.7,1.2,1.2,0,0,1-1-.7.7.7,0,0,1-.1-.5v-11a2.9,2.9,0,0,0-.7-1.8,2.7,2.7,0,0,0-1.9-.8,2.6,2.6,0,0,0-2.5,2.6v7.8l-1.6-11.9h-5.3l2.2,15.6h-2.2v.5a1.4,1.4,0,0,1-1.4,1.4,1.4,1.4,0,0,1-1.4-1.4V71a1.5,1.5,0,0,0-.4-.9,1.2,1.2,0,0,0-1-.4A1.3,1.3,0,0,0,320,71V83.1a3,3,0,0,1-3,3,3.1,3.1,0,0,1-3.1-3V60.3a3,3,0,0,1,3.1-3Z"/>
                  <path class="cls-19" d="M336.5,61.9a3.7,3.7,0,0,0-.6,2.1,4.2,4.2,0,0,0,.6,2.1H313.9V61.9Z"/>
                  <path class="cls-26" d="M330.8,74.7l-1,93.6v3.1l-.2.3a2.7,2.7,0,0,1-2.1.9,2.8,2.8,0,0,1-2-.8V74.7Z"/>
                  <path class="cls-19" d="M340.5,61.9v4.2h-5.2a3.5,3.5,0,0,1,0-4.2Z"/>
                  <path class="cls-19" d="M340.5,57.6v6.7a4.1,4.1,0,0,0-1.6-1.6V57.6Z"/>
                  <path class="cls-20" d="M342.3,64a4,4,0,0,1-1.8,3.4h0l-1.8.8h-.6l-1.4-.2,1.4-.6,2.4-1a3.7,3.7,0,0,0,1-2.4,3.5,3.5,0,0,0-1-2.4v-1A4,4,0,0,1,342.3,64Z"/>
                  <path class="cls-20" d="M338.7,68.2l-9.6,3.9v2.6h-1.9V72.1l9.5-4.1,1.4.2Z"/>
                </g>
                <g>
                  <g>
                    <rect class="cls-17" x="264.9" y="30.4" width="19.3" height="3.04"/>
                    <rect class="cls-17" x="266" y="44.8" width="19.3" height="3.04"/>
                    <path class="cls-17" d="M293.5,72.7l-1.7.5h0l-1.6.3h-5a12.7,12.7,0,0,1-3.4-.4h8.3l-1.4-11.5H268.1l-.2-2.3h-3.2l-2.2-36.8h2.4l.7,7.7h-.7v3.1h.9l2.1,25.2h20.5l-4.4-36h2.5Z"/>
                  </g>
                  <g class="cls-27">
                    <polygon class="cls-16" points="271.2 159 271.2 161.6 271.3 161.6 261.5 171.9 256.9 169.8 270.6 156.8 270.5 156.5 276 156.5 276 156.8 273.9 159 271.2 159"/>
                    <polygon class="cls-28" points="271.2 159 273.9 159 271.3 161.6 271.2 161.6 271.2 159"/>
                    <polygon class="cls-28" points="273.9 159 271.3 161.6 271.2 161.6 271.2 159 273.9 159"/>
                    <polygon class="cls-16" points="305 156.5 291.3 171.9 290.7 167.8 295.9 161.6 271.3 161.6 273.9 159 298.1 159 300.2 156.6 300.2 156.5 305 156.5"/>
                    <path class="cls-25" d="M293.5,72.7l-1.7.5h-.3l-1.3.2h-5a12.7,12.7,0,0,1-3.4-.4H269.1l-1-11.5-.2-2.3h-3.2l5.8,97H276l-.8-9.2H299l1.2,9.2H305l.2-.2Zm-18.5,72-1-11.5h23.3l1.4,11.5Zm15.5-68.5,1.3,11.1H270.3l-1-11.1Zm-20,14.1h21.7l1.4,11.5H271.5Zm1.2,14.1h22.2l1.4,11.9H272.6l-.9-11.9Zm1.2,14.5h22.7l1.4,11.7H273.8l-.9-11.7Z"/>
                  </g>
                  <g>
                    <path class="cls-26" d="M262.5,169.8a2.9,2.9,0,0,1-2.8,2.8h0a2.8,2.8,0,0,1-2.8-2.8h0a2.7,2.7,0,0,1,2.8-2.7h0a2.8,2.8,0,0,1,2.8,2.7Z"/>
                    <polygon class="cls-26" points="262.5 22.7 256.9 169.8 262.5 169.8 264.9 22.7 262.5 22.7"/>
                    <polygon class="cls-26" points="284 22.7 286.5 22.7 292.3 169.8 286.7 169.8 284 22.7"/>
                    <rect class="cls-26" x="263.6" y="44.8" width="21.9" height="2.22"/>
                    <rect class="cls-26" x="263.6" y="30.8" width="21.9" height="2.22"/>
                    <rect class="cls-26" x="263.9" y="59.5" width="21.4" height="2.22"/>
                    <rect class="cls-26" x="262.1" y="73.6" width="24.9" height="2.22"/>
                    <rect class="cls-26" x="262.7" y="87.7" width="23.7" height="2.22"/>
                    <rect class="cls-26" x="262.1" y="101.8" width="24.9" height="2.22"/>
                    <rect class="cls-26" x="262.1" y="116.5" width="24.9" height="2.22"/>
                    <rect class="cls-26" x="262.1" y="131" width="24.9" height="2.22"/>
                    <rect class="cls-26" x="262.1" y="144.9" width="24.9" height="2.22"/>
                    <rect class="cls-26" x="260.5" y="159.2" width="28.2" height="2.22"/>
                    <path class="cls-26" d="M292.3,169.8a2.9,2.9,0,0,1-2.8,2.8h0a2.8,2.8,0,0,1-2.8-2.8h0a2.7,2.7,0,0,1,2.8-2.7h0a2.8,2.8,0,0,1,2.8,2.7Z"/>
                  </g>
                </g>
              </g>
            </g>
          </g>
          <path class="cls-21" d="M388.2,1.3a15.5,15.5,0,0,0-3.1.4,15.4,15.4,0,0,0-3-.4Z"/>
        </g>
        <path class="cls-14" d="M427.2,38.7c0,2.3-1.1,4.2-2.5,4.2H389.5c-1.4,0-2.5-1.9-2.5-4.2h0c0-2.3,1.1-4.1,2.5-4.1h35.2c1.4,0,2.5,1.8,2.5,4.1Z"/>
      </g>
    </g>
    <g id="Horticulture">
      <g>
        <polygon class="cls-16" points="224.5 156.5 218.9 167.4 213.6 167.3 218.9 156.5 224.5 156.5"/>
        <polygon class="cls-16" points="207.7 156.5 192.5 167.6 201.8 166.4 206.9 168.1 213.8 156.5 207.7 156.5"/>
        <g class="cls-29">
          <path class="cls-30" d="M222.8,127.8c0-.8.1-1.6.1-2.3h.2a20.2,20.2,0,0,1,0-2.5l.6-10a39.9,39.9,0,0,1,4-2.7c1.3-.9,1.4-2.4,1.1-3.8v-.3h0c-.2-.8-.6-1.6-.8-2.2a65.1,65.1,0,0,0-3.2-6.1l-.3-.4a6.3,6.3,0,0,0-3.5-3.3h-.2a2.7,2.7,0,0,0-1.9-1.2l.7-2.8c1.2-.4,2.1-1.3,3.4-3.2a.3.3,0,0,0,.1-.2l.2-.2c0-.1,0-.2.1-.2l.3-1c0-.1,0-.2.1-.2,2.5-5.3-1-8.4-4.6-8.7l-2.2.2a3.3,3.3,0,0,0-1.2.5l-1.4,1.1c-.3.3-.4.3-.5.3l.3.3c.1.1.1.3.2.4a1.9,1.9,0,0,0-.2.7c0,.1-.1.1-.1.2a1,1,0,0,0-.5.6,8.1,8.1,0,0,0-.9,2.4c-.1.1-.1.3-.2.6s-.9.6-.8,1.1.2.4.5.6a.6.6,0,0,1-.1.4,6,6,0,0,0,0,3,1.8,1.8,0,0,0,.5.7h.1a4.6,4.6,0,0,0,2,.9c.2.2.3.3.3.5l-.5,1.9V93h-.2s-3.6-1.4-5-1.3H209c-.5.2-.7.8-.8,1l-9.3-22.3c.7-.1,1.1-.3,1.1-1.1a5.8,5.8,0,0,0-1-2.9c.3-.4.2-2.1-.7-1.9a2.1,2.1,0,0,0-1.5,1L179.8,25h-1.5l16.5,39.1h-.1c-.8.4.1,1.6-.3,3.4s-.1,2,.6,3.7a2.3,2.3,0,0,1,.2,1.1l-.4.2v.6a1.8,1.8,0,0,0-.7,1.1c0,.1-.3,2.9-.6,6.4-.6,7.5-.3,8.4-.2,9s.6,1.4,2.6,3h0c1,.7,2.3,1.7,4.2,2.9l1.1.8.4.3.6.4.5.3.5.3.5.4.6.4.4.2.4.3.3.3.4.2.5.4a7,7,0,0,1,1.9,2,5.4,5.4,0,0,1,.6,2.7v.5c0,.2-.1.3-.1.5,0,6.7-3.7,15.1-3.7,15.1a22.4,22.4,0,0,0,3.8,2.4v1.9c0,4.5-.5,20.1-1,31.6h6.1c.4-9.4,1-20.7,1.5-22.9a3,3,0,0,1,1.8-2v.5c.3,5.9,1,16.1,1.8,24.4h5.6c-.8-8.3-1.5-18.7-1.6-25.2l4.1,9.9a.6.6,0,0,0,.6.4h.3a.6.6,0,0,0,.3-.8ZM198.6,73.4h0ZM201.9,91a36.1,36.1,0,0,1-4-3,132.3,132.3,0,0,1,1-13.4,1.9,1.9,0,0,0-.1-.8l7.5,17.8V92l.3.6A21.8,21.8,0,0,1,201.9,91Z"/>
          <path class="cls-17" d="M181.7,12.9a.7.7,0,0,1-.4.5L176,16.2l.8,2c.1.1.2.2.2.3l2.8,6.5h-1.5l-2.5-6v-.4l-.9-2.1a.9.9,0,0,1,.4-1.1l5.2-2.9-1.4-2.4h0a.1.1,0,0,1-.1.1v.2a2,2,0,0,1-.8.8l-.6.2H165.9c-1-.1-1.8-1.3-1.8-2.7s.8-2.7,1.8-2.7h12.2l.6.5a2.3,2.3,0,0,1,.6,1.5h0l.2.2,2.2,3.7A.9.9,0,0,1,181.7,12.9Z"/>
          <path class="cls-30" d="M213.8,78.4Z"/>
        </g>
        <g class="cls-31">
          <path class="cls-16" d="M253.2,167.2a1.1,1.1,0,0,1-1.2,1.1H183.8a1.2,1.2,0,0,1-1.2-1h0V167h0a1.1,1.1,0,0,1,1.1-.9H252A1.1,1.1,0,0,1,253.2,167.2Z"/>
        </g>
        <g>
          <path class="cls-32" d="M258,160.9a6.5,6.5,0,0,0-.2-1.8,5.5,5.5,0,0,0-1.3-2.9,2.3,2.3,0,0,0-1.6-.8,1.6,1.6,0,0,0-.9.2l-.4.3-.2.2h-.2a5,5,0,0,0-1.1,2.2,2.4,2.4,0,0,0-.2.8,4.1,4.1,0,0,0-.2.9v1.3a4.9,4.9,0,0,0,.1,1.3h0a2.2,2.2,0,0,0,.1.8,5.3,5.3,0,0,0,.7,2,4.8,4.8,0,0,0,.8,1.1h.2a2,2,0,0,0,1.3.4,1.7,1.7,0,0,0,1-.3c.3-.1.6-.5.9-.8a2,2,0,0,0,.4-.8l.3-.7a5.3,5.3,0,0,0,.4-1.6A5.2,5.2,0,0,0,258,160.9Zm-3.5,5.9h-.3a1.1,1.1,0,0,1-.7-.3c-.8-.5-1.4-1.9-1.7-3.7s-.1-.8-.1-1.3c0-2.4.8-4.5,1.8-5.2a.9.9,0,0,1,.7-.3h.2c1.5-.1,2.7,2.3,2.8,5.3,0,.6-.1,1.1-.1,1.5C256.8,165,255.7,166.7,254.5,166.8Z"/>
          <path class="cls-33" d="M254.5,166.7H254c1.5,0,2.7-2.5,2.7-5.5s-1.3-5.3-2.7-5.3h.9a.5.5,0,0,1,.5.3,1.2,1.2,0,0,1,.5.5c.2.1.3.4.4.6a4.9,4.9,0,0,1,.6,1.7,4.4,4.4,0,0,1,.2,1c0,.4.1.7.1,1.1a8.4,8.4,0,0,1-1.2,4.6l-.5.5A1.3,1.3,0,0,1,254.5,166.7Zm.5-.1h0"/>
          <path class="cls-33" d="M256.7,161.2a6.6,6.6,0,0,1-.1,1.5c-.3,2.2-1.3,3.9-2.4,4h-.8v-.2c.9-.5,1.5-1.9,1.8-3.7s.1-1,.1-1.5c-.1-2.3-.8-4.3-1.9-5h-.1l-.7-.2h1.5C255.6,156.1,256.7,158.4,256.7,161.2Z"/>
          <path class="cls-24" d="M255.4,161.2c0,.5-.1,1.1-.1,1.5s-.9,3.2-1.8,3.7v.2h-8.3c1.3,0,2.3-1.7,2.6-4a6.6,6.6,0,0,0,.1-1.5c0-2.9-1.2-5.3-2.7-5.3h7.6l.7.2h.1C254.6,156.9,255.3,158.9,255.4,161.2Z"/>
          <path class="cls-33" d="M247.8,161.2a6.6,6.6,0,0,1-.1,1.5c-.3,2.3-1.3,4-2.6,4h-1.6c1.2,0,2.3-1.7,2.6-3.9,0-.5.1-1,.1-1.6-.1-2.9-1.3-5.3-2.8-5.3h1.7C246.6,155.9,247.8,158.3,247.8,161.2Z"/>
          <path class="cls-32" d="M246,159a7.4,7.4,0,0,0-.6-1.8,5,5,0,0,0-.8-1.2h-.1c-.1-.1-.2-.1-.2-.2l-.5-.3h-1a1.8,1.8,0,0,0-.9.2,4,4,0,0,0-.9.7,7.3,7.3,0,0,0-1.2,2.3l-.2.8a2.8,2.8,0,0,1-.1.8,3.9,3.9,0,0,1-.1.9v.5c0,.4.1.7.1,1.2h0c.1.4.1.6.2.9a.8.8,0,0,0,.1.4,2.9,2.9,0,0,0,.2.8,3,3,0,0,0,.5,1l.3.4.3.4.5.4a2.1,2.1,0,0,0,1.2.4,1.7,1.7,0,0,0,1.1-.3h.3l.3-.2.4-.5a4.1,4.1,0,0,0,.9-1.9,3.5,3.5,0,0,0,.3-1.3.4.4,0,0,1,.1-.3A10,10,0,0,0,246,159Zm-3.7,7.7c-1.1.1-2.1-1.3-2.6-3.3,0-.2-.1-.5-.1-.9s-.1-.7-.1-1.1c0-3,1.2-5.5,2.7-5.5s2.7,2.3,2.8,5.3c0,.3-.1.6-.1.9v.3C244.7,164.8,243.6,166.7,242.3,166.7Z"/>
          <path class="cls-34" d="M257.9,163a5.3,5.3,0,0,1-.4,1.6l-.3.7a2,2,0,0,1-.4.8c-.3.3-.6.7-.9.8a1.7,1.7,0,0,1-1,.3,2,2,0,0,1-1.3-.4h-9.1a2.5,2.5,0,0,1-1.7.7,2.1,2.1,0,0,1-1.2-.4l-.5-.4-.3-.4-.3-.4a3,3,0,0,1-.5-1,2.9,2.9,0,0,1-.2-.8.8.8,0,0,1-.1-.4v-.2c.5,2,1.5,3.4,2.6,3.3s2.4-2,2.6-4.6v.3c0,.6.9.4,1.1.4h11S257.6,163.1,257.9,163Z"/>
          <g>
            <path class="cls-35" d="M244.8,161.2v.6c-.1,2.6-1.2,4.7-2.5,4.7s-2.5-2-2.7-4.7v-.4c0-2.9,1.2-5.2,2.6-5.3S244.8,158.3,244.8,161.2Z"/>
            <path class="cls-36" d="M242.2,166.9c-1.5,0-2.8-2.1-3-5.1v-.4c0-3.1,1.3-5.7,3-5.7a2.4,2.4,0,0,1,1.5.6,7.9,7.9,0,0,1,1.6,4.9,2,2,0,0,1-.1.7c-.1,2.8-1.3,5-2.9,5Zm0-10.4h0c-1,.1-2.2,2.1-2.1,4.9v.4c.1,2.4,1.1,4.4,2.2,4.3s2-2,2.1-4.3v-.6h0a6.5,6.5,0,0,0-1.3-4.3A1.8,1.8,0,0,0,242.2,156.5Z"/>
          </g>
        </g>
        <path class="cls-21" d="M161.4,119.8V7.2c0-3.5.9-6.4,2-6.4A2.1,2.1,0,0,1,165.3,3a2.2,2.2,0,0,0,2.1,2.3c1.1,0,2-.5,2-1.1a1.3,1.3,0,0,1,1.4-1.1c.7,0,1.3.9,1.3,2V7"/>
        <path class="cls-21" d="M160.2,156a6.5,6.5,0,0,1-6.4-6.5V38.7c0-3.5.9-6.4,1.9-6.4s2,1.6,2,3.6.8,3.6,1.8,3.6,1.8-1.6,1.8-3.6,2.9-3.6,6.5-3.6h.1a6.4,6.4,0,0,1,6.4,6.4V149.5a6.5,6.5,0,0,1-6.4,6.5Z"/>
        <polygon class="cls-21" points="174.3 7.5 174.3 133.6 161.3 130.6 161.3 7.5 174.3 7.5"/>
        <path class="cls-37" d="M171.4,17.5a.5.5,0,0,1-.5-.4l-.9-2.2a.9.9,0,0,1,.4-1.1l5.2-2.8-2-3.5a.8.8,0,0,1,.2-.8.7.7,0,0,1,.8.3l2.1,3.7a.5.5,0,0,1,.1.6.7.7,0,0,1-.4.5l-5.3,2.9.9,2a.8.8,0,0,1-.3.8Zm4.4-6.3Z"/>
        <g>
          <path class="cls-38" d="M214.4,164.7c.4,0,.3-.9,1.2-1.1s1.3.9,2.1.9,1.3.2,1.3.8a7.6,7.6,0,0,1-.1,2.1c-.1.6-1.1.7-2.5.7s-2.7-.2-2.8-.8S213.3,164.7,214.4,164.7Z"/>
          <g>
            <path class="cls-39" d="M191.5,67.7V68c-.3,1.9-3.9.6-3.8.4a4.9,4.9,0,0,0,.1-1.1c.1-1.1.5-2,.1-2.9s-.9-2.2-.6-3.7-.5-3,.3-3.5.6.5.9,1.3,1.4,3.6,1.6,3.8S191.7,65.8,191.5,67.7Z"/>
            <path class="cls-40" d="M191.5,67.7l-2.5-.2a18.9,18.9,0,0,0,.6-2.8,3.9,3.9,0,0,0-.5-2.5,14,14,0,0,1-.8-3.4l.2-.3c.7,1.4,1.4,3.6,1.6,3.8S191.7,65.8,191.5,67.7Z"/>
            <path class="cls-41" d="M187.7,65.7c1-.8,3.2-.9,3.9.1v1.1c-.1.4-4,.4-4,.4Z"/>
            <g>
              <line class="cls-39" x1="171.7" y1="17.4" x2="207.7" y2="103.4"/>
              <path class="cls-42" d="M207.7,104a.5.5,0,0,1-.6-.4l-36-85.9a.6.6,0,0,1,.3-.9.7.7,0,0,1,.9.4l36,85.9a.7.7,0,0,1-.4.9Z"/>
            </g>
            <g>
              <line class="cls-39" x1="199.8" y1="84.9" x2="220.5" y2="134.1"/>
              <path class="cls-42" d="M220.5,134.7a.6.6,0,0,1-.6-.4L199.2,85.1a.7.7,0,0,1,1.2-.5l20.7,49.2a.8.8,0,0,1-.3.9Z"/>
            </g>
            <path class="cls-39" d="M191.2,57.7a2.2,2.2,0,0,0-1.9,2c0,.7.5.7.6,1.9s.8,2.1,1.7,2.1,1.2-.4,1.2-1.2a6.1,6.1,0,0,0-.9-2.8C192.2,59.2,192.1,57.5,191.2,57.7Z"/>
          </g>
          <path class="cls-40" d="M206.1,76.4c-1.4.5-1.8.7-1.6,1.4s.8,1,1.2.8S206.1,76.4,206.1,76.4Z"/>
          <polygon class="cls-38" points="207 168.1 201.6 168.1 201.3 167.1 207 167.1 207 168.1"/>
          <g>
            <path class="cls-39" d="M207.3,85.9s-.2,1,1.4,1.3a3.7,3.7,0,0,0,2.8-.4l1.1-4.9-4.1-1.1Z"/>
            <path class="cls-40" d="M207.7,84.2c3.7.9,3.6,3.6,3.7,2.9s1.4-6.2,1.4-6.2l-4.2-.9Z"/>
            <path class="cls-40" d="M205.4,77.6a8.2,8.2,0,0,0,.5,4.1,1.9,1.9,0,0,0,1,1.4c.6.4.9.6.8,1s.9-.2,1.2-.2c3.2.7,5.3-2.4,5.8-4.8l-.3-3.3c.6-2.6-.5-4.8-3-5.3s-4.2.8-4.8,3.4Z"/>
            <path class="cls-39" d="M214,75.4l-.3.2v.7l-.3,1.6a4.5,4.5,0,0,1-.1,1.1v.4c-.1.2-.1.4-.2.6a6.5,6.5,0,0,1-2.4,3.2,3.4,3.4,0,0,1-2.5.4,5.8,5.8,0,0,1-2.7-1,2.3,2.3,0,0,1-.5-.7c-.4-.8-.2-1.7,0-3s.4-2.2.6-2.8a9.2,9.2,0,0,1,.9-2.4c.2-.4.4-.7.7-.6,2.3.3,1-3.8,4.1-3.2S214.7,72,214,75.4Z"/>
            <path class="cls-40" d="M213,80c-.9,3.9-2.5,4.2-5,3.7a5.8,5.8,0,0,1-2.6-1.1,2.3,2.3,0,0,1-.5-.7c.5.9,4.9,2.1,5.7-1.5C210.8,79.1,211.9,79.4,213,80Z"/>
            <path class="cls-43" d="M212.6,81.6c.3-.3.1,1,.2.8.6-2.6.3-.3,1.1-3.1s2.1-.1,2.5-1.2c1.8-5.7.4-7.3-4.6-8.4-2.8-.6-4.1.8-4.6,2.3s-1.2,4.5-.2,4.7l.9.2Z"/>
            <path class="cls-43" d="M212.9,80c.3-.3.2.8.2.7.5-2.3.5.8,1.4-1.7s1.5.2,1.9-.7c2.7-5.4-.8-8.6-4.5-8.8a5.3,5.3,0,0,0-4.7,1.7c-.7.6-.7-.1-.2.6a6.6,6.6,0,0,1,.7,3.8Z"/>
            <path class="cls-43" d="M216.6,77.7c0,.2-.1.4-.1.6a4.2,4.2,0,0,1-.4,1c0,.1,0,.1-.1.2v.2l-.2.3c-1.6,2.5-2.8,3.2-4.7,3.3h-.4a3.8,3.8,0,0,1-1.2-.9c-1-1.3-.8-3.3-.4-5a.9.9,0,0,0,.1-.5l.3-1.1,4.2.6h.2a2.8,2.8,0,0,1,.1.8l.7.2Z"/>
            <path class="cls-39" d="M206.9,76.7c-.3.9,0,1.9.7,2.1s1.4-.4,1.7-1.4,0-1.8-.6-2S207.2,75.7,206.9,76.7Z"/>
          </g>
          <path class="cls-44" d="M206.1,86.3l2,.9c1.9.6,6.1,1.3,5.7.3s-.6-1.3-2.6-1.6a16.3,16.3,0,0,0-4.7.3"/>
          <g>
            <path class="cls-45" d="M220.5,103.3c-2.3,1.5-5.6,3.9-5.6,3.9a2.4,2.4,0,0,1-1.4.5,2.6,2.6,0,0,1-2-1,2.4,2.4,0,0,1,.5-3.4,57.7,57.7,0,0,1,4.8-3.3,51.7,51.7,0,0,0-3.4-6.7,2.4,2.4,0,0,1,.9-3.3,2.5,2.5,0,0,1,2.5,0,2.4,2.4,0,0,1,.8.9,61.8,61.8,0,0,1,3.2,6c.2.6.6,1.4.8,2.2h0v.3h0C222,100.9,221.9,102.4,220.5,103.3Z"/>
            <path class="cls-44" d="M221.3,100.7c-.6.2-1.5-.2-2.1-1.8a60.4,60.4,0,0,0-3.5-7.6l1.1-1.3a2.4,2.4,0,0,1,.8.9,61.8,61.8,0,0,1,3.2,6c.2.6.6,1.4.8,2.2h0v.3h0C221.8,100.1,221.7,100.5,221.3,100.7Z"/>
          </g>
          <path class="cls-46" d="M214.4,162.5c.4,0,.3-.9,1.2-1s1.3.9,2.1.9,1.3.2,1.3.8a10.5,10.5,0,0,1-.1,2.5c-.1.6-1.1.7-2.5.7s-2.7-.2-2.8-.8S213.3,162.5,214.4,162.5Z"/>
          <path class="cls-46" d="M207,167a1.3,1.3,0,0,0-.1.6,16,16,0,0,1-4.6-.4c-3.5-.7-4.3.4-6.1.4h-3.7l-.2-.9c-.1-.8,0-1.7,1-1.7,3.5,0,3.7-.8,5.8-1.6a4,4,0,0,0,2.2-4,27.8,27.8,0,0,0,3.8,3C206.7,163.4,207,165.3,207,167Z"/>
          <path class="cls-47" d="M201.3,162.4c1.1.9,2.9,1.9,4.3.7s-1.3-2.1-1.8-1.9A14.8,14.8,0,0,0,201.3,162.4Z"/>
          <path class="cls-48" d="M216.5,163.3c-1.3.2-2.8.2-3.1-1.1-1.2-4.9-3-27-3.4-37a74.9,74.9,0,0,1,.1-8.4,2.9,2.9,0,0,1,.5-1.3,3,3,0,0,1,2.7-1.3,2.9,2.9,0,0,1,2.3,1.7h0a3.7,3.7,0,0,1,.3,1.5,37.8,37.8,0,0,0-.2,5c.1,9.7,1.9,33.9,3.2,38.9C219.3,162.9,217.8,163.1,216.5,163.3Z"/>
          <path class="cls-44" d="M205.5,93.6a.1.1,0,0,1-.1.1,2.3,2.3,0,0,1-2,1.1h-.2c.6,2.4,1.7,9-.7,4.2-.6-1.3-.9.1-.9-1.4,0-4-2.2-4.3-8.7-9a46.7,46.7,0,0,1-4.2-2.9h0c-2-1.6-2.4-2.3-2.6-3s-.4-1.5.2-9c.3-3.5.6-6.3.6-6.3s1.5-1.8,2.9-1.6,2.1.6,1.9,1.9c-.5,5.4-1,11.5-1,13.4l4.1,3c2.8,1.8,6.5,4.2,9.9,6.2A2.4,2.4,0,0,1,205.5,93.6Z"/>
          <path class="cls-49" d="M215.9,117.4a1.8,1.8,0,0,0-.1.6,12.1,12.1,0,0,0-.1,2v.9c.2,2.2-4,2.9-5.7,3.8a3.1,3.1,0,0,0-1.8,2.1c-1,3.8-2.1,36.4-2.1,36.4l-6-.4s1.5-37.3,1.5-44.8l2.2-.8.8-.2a32.9,32.9,0,0,1,6-1.5,9.9,9.9,0,0,1,5,.4h0A3.7,3.7,0,0,1,215.9,117.4Z"/>
          <path class="cls-44" d="M217.4,91.2,216,116v2a4.3,4.3,0,0,1-.1.5c-.3.8-1.2,1-2.3,1h-3.9c-3.5-.2-8-.6-8-1.4V94.6a8.4,8.4,0,0,0-1.4-4l-.4-.4c-1.7-1.8-9.2-9-6.4-6.9l1.4.8A20,20,0,0,0,201,86h.1s.2-.9.8-1.1h.2c1.4-.1,4.9,1.2,4.9,1.2a32.2,32.2,0,0,0,4.4.8,19.4,19.4,0,0,1,2.4.2C215.5,87.6,217.5,89.9,217.4,91.2Z"/>
          <path class="cls-50" d="M215.8,118.5c-.3.8-1.2.8-2.3.8h-3.9c-3.5-.2-8-.6-8-1.3v-1.4c0,.8,4.5,1.2,8,1.4h3.9c1.1,0,2.1-.1,2.4-.9Z"/>
          <path class="cls-51" d="M206,117.8l-1.6-.2c-1.6-.2-2.8-.5-2.8-.9v-1.2a13.9,13.9,0,0,0,2.8,1.6Z"/>
          <path class="cls-45" d="M205.9,112.5c-.6,2.8,3.2,6.2,1,5.6-6.2-1.6-9.1-4.4-9.1-4.4s3.7-8.4,3.7-15c0-3.9,6.5,5.3,6.8,6.3S205.9,112.5,205.9,112.5Z"/>
          <path class="cls-52" d="M215.8,118a12.1,12.1,0,0,0-.1,2h0c-.4.2-7.1.5-11.3-2.4l-.6-.4-.7-.7a10,10,0,0,0,2.3.9c.4.2.7.2.8.1l1.4.3,2,.3C211.2,118.2,215.1,118.4,215.8,118Z"/>
          <path class="cls-44" d="M216,118.5l-2.6.2h-1.3c-6.5.1-9.4-2.6-9.7-3a6.3,6.3,0,0,1-.8-1.1h0c.6-.3,5.4-2.3,5.5-2.5s5.4,2.4,8.9,4A20.2,20.2,0,0,0,216,118.5Z"/>
          <path class="cls-45" d="M213.4,118.7h-1.2l.5-2.2Z"/>
          <path class="cls-45" d="M203.4,88.3a2.5,2.5,0,0,0-2.3-2.3s.2-.9.8-1.1S203.4,88.3,203.4,88.3Z"/>
          <path class="cls-45" d="M203.3,93.9c-.3.8-.8,1.7-1.1,2.5a11.3,11.3,0,0,0-2.5-3l-.2-.2h-.4c-1.4-1-3.4-2.2-6.2-4.3a46.7,46.7,0,0,1-4.2-2.9h0c-1-.8,0-1.5,1.3-.6a93.4,93.4,0,0,0,9.8,5.1l2.1.9A2.3,2.3,0,0,1,203.3,93.9Z"/>
          <path class="cls-38" d="M207,166.8c0,.3-.1,1.1-.1,1.3a13.6,13.6,0,0,0-4.6-.6c-3.6,0-4.3.6-6.1.6h-3.7l-.2-.7h3.9c1.8,0,2.7-.7,6.5-.7Z"/>
        </g>
        <g>
          <g>
            <g>
              <g>
                <path class="cls-53" d="M176.2,7.9a2.8,2.8,0,0,1-1.3,2.6h-.6c-1.1,0-1.9-1.2-1.9-2.7V7.4c.1-.2.1-.4.2-.6a3.1,3.1,0,0,1,.5-1,1.7,1.7,0,0,1,1.2-.6l.6.2.6.4a3.1,3.1,0,0,1,.5,1,1.3,1.3,0,0,1,.1.6A1.1,1.1,0,0,1,176.2,7.9Z"/>
                <path class="cls-21" d="M176.2,7.9v.5a.4.4,0,0,1-.1.3h0V9h-.2c-.1.1-.1.2-.2.2a1.9,1.9,0,0,1-.7.8H163.3a1.9,1.9,0,0,0,.7-.8l.2-.2h0c0-.1.1-.1.1-.2h.1V8.8h0V7.4a3.5,3.5,0,0,0-.6-1.4.3.3,0,0,1-.1-.2l-.5-.4-.6-.2h11.6l.7.2.5.4a3.9,3.9,0,0,1,.7,1.6Z"/>
                <path class="cls-23" d="M176,9.3h-.1c-.1.1-.1.2-.2.2a1.9,1.9,0,0,1-.7.8H163.3a1.9,1.9,0,0,0,.7-.8l.2-.2h0c0-.1.1-.1.1-.2h.1V8.8h0V7.4a3.5,3.5,0,0,0-.6-1.4c1.6,1.2,7.4,3.3,10.2,3.3Z"/>
              </g>
              <ellipse class="cls-19" cx="162.8" cy="7.9" rx="1.9" ry="2.7"/>
              <path class="cls-54" d="M162.1,7.9c0,.6.3,1.1.7,1.1s.7-.5.7-1.1-.3-1-.7-1S162.1,7.4,162.1,7.9Z"/>
            </g>
            <path class="cls-55" d="M162.6,8.5h-.5a.6.6,0,0,1-.5-.6.6.6,0,0,1,.5-.6h.5a.6.6,0,0,1,.6.6A.6.6,0,0,1,162.6,8.5Z"/>
          </g>
          <path class="cls-56" d="M163.4,10.6Z"/>
        </g>
        <ellipse class="cls-21" cx="156.1" cy="28.1" rx="1.4" ry="1.8"/>
        <ellipse class="cls-21" cx="173" cy="151.3" rx="1.4" ry="5.3"/>
        <g>
          <rect class="cls-57" x="226.4" y="150.9" width="20.3" height="16.53" rx="5.4" ry="5.4"/>
          <path class="cls-58" d="M226.4,151v.9c0,.6,1.2,1,2.7,1H244c1.5,0,2.7-.4,2.7-1V151"/>
          <path class="cls-59" d="M229.1,149.9c-1.5,0-2.7.4-2.7.9s1.2,1,2.7,1H244c1.5,0,2.7-.4,2.7-1s-1.2-.9-2.7-.9Z"/>
          <path class="cls-60" d="M226.4,149.9v.9c0,.6,1.2,1,2.7,1h.1c1.4,0,2.6-.4,2.6-1v-.9"/>
          <path class="cls-24" d="M243.8,149.9V157c0,1.5-.5,2.7-1.1,2.7a1.2,1.2,0,0,0-1,1.3c0,.7-.6,1.2-1.5,1.2s-1.5-1.2-1.5-2.6v-.3c0-1.5-.6-2.7-1.4-2.7a1.4,1.4,0,0,0-1.4,1.3,1.3,1.3,0,0,1-1.3,1.4c-.8,0-1.4.9-1.4,1.9s-1.1,1.9-2.5,1.9-2.5.5-2.5,1.1a.9.9,0,0,1-.9,1c-.5,0-.9-1.2-.9-2.6V149.9"/>
          <g class="cls-61">
            <path class="cls-62" d="M240.2,149.9c-1,0-1.7.2-1.7.6s.7.5,1.7.5h3.7c.9,0,1.7-.2,1.7-.5s-.8-.6-1.7-.6Z"/>
          </g>
          <g class="cls-27">
            <path class="cls-60" d="M226.4,162.1c0,2.9,1.2,5.3,2.7,5.3s2.7-2.4,2.7-5.3v-4.9c0-2.9-1.2-5.3-2.7-5.3s-2.7,2.4-2.7,5.3Z"/>
          </g>
        </g>
      </g>
    </g>
  </g>
</svg>
