<?xml version="1.0" encoding="UTF-8"?>
<svg width="71px" height="70px" viewBox="0 0 71 70" version="1.1" xmlns="http://www.w3.org/2000/svg" xmlns:xlink="http://www.w3.org/1999/xlink">
    <!-- Generator: Sketch 53 (72520) - https://sketchapp.com -->
    <title>WC Cover Fixing  </title>
    <desc>Created with Sketch.</desc>
    <defs>
        <linearGradient x1="5.63673899%" y1="-11.1485635%" x2="51.5179728%" y2="97.7255544%" id="linearGradient-1">
            <stop stop-color="#64C866" offset="0%"></stop>
            <stop stop-color="#6EDADA" offset="100%"></stop>
        </linearGradient>
    </defs>
    <g id="Page-1" stroke="none" stroke-width="1" fill="none" fill-rule="evenodd">
        <path d="M60.7292443,12.889818 C66.7247464,19.1904665 70.0206,27.376424 70.0206,35.9854207 C70.0206,54.7404658 54.3181248,69.9998 35.0206,69.9998 C15.7230752,69.9998 0.0206,54.7404658 0.0206,35.9854207 C0.0206,27.3246176 3.30655205,19.1892168 9.31126039,12.8908952 L9.31126039,7.75828728 C9.31126039,3.45452264 13.4499516,-0.0002 18.5707052,-0.0002 L51.4697933,-0.0002 C56.5905469,-0.0002 60.7292381,3.45452264 60.7292381,7.75828728 L60.7292381,12.8898116 Z M56.3002446,17.7125729 L13.7354573,17.7125729 C9.3943227,22.8018111 7.03533093,29.1873884 7.03533093,35.9854207 C7.03533093,51.5141061 19.5916993,64.1443379 35.0206,64.1443379 C50.4495007,64.1443379 63.0058691,51.5141061 63.0058691,35.9854207 C63.0058691,29.2285893 60.6381198,22.8109265 56.3002446,17.7125729 Z M42.3506431,11.4765057 C45.0162408,11.4765057 47.1908074,9.66131247 47.1908074,7.40695956 C47.1908074,5.18188396 45.0162408,3.36669071 42.3506431,3.36669071 C39.6499717,3.36669071 37.4754051,5.18188396 37.4754051,7.40695956 C37.4754051,9.66131247 39.6499717,11.4765057 42.3506431,11.4765057 Z M26.3921302,11.3008419 C29.0928016,11.3008419 31.2673682,9.4856486 31.2673682,7.26350074 C31.2673682,5.0062201 29.0928016,3.19102684 26.3921302,3.19102684 C23.6914588,3.19102684 21.5168922,5.0062201 21.5168922,7.26350074 C21.5168922,9.4856486 23.6914588,11.3008419 26.3921302,11.3008419 Z" id="WC-Cover-Fixing--" fill="url(#linearGradient-1)" fill-rule="nonzero"></path>
    </g>
</svg>