<svg xmlns="http://www.w3.org/2000/svg" xmlns:xlink="http://www.w3.org/1999/xlink" width="440.3" height="169.4" viewBox="0 0 440.3 169.4">
  <defs>
    <style>
      .cls-1, .cls-133 {
        fill: none;
      }

      .cls-2 {
        isolation: isolate;
      }

      .cls-3 {
        clip-path: url(#clip-path);
      }

      .cls-4 {
        fill: url(#linear-gradient);
      }

      .cls-5 {
        fill: #aedbc8;
      }

      .cls-147, .cls-34, .cls-5 {
        opacity: 0.5;
      }

      .cls-6 {
        fill: #e6e7e8;
      }

      .cls-7 {
        fill: #a4b0b9;
      }

      .cls-8 {
        fill: #f2f5f7;
      }

      .cls-9 {
        fill: #def2fa;
      }

      .cls-10 {
        fill: #96a1aa;
      }

      .cls-11 {
        fill: #7d868e;
      }

      .cls-12 {
        fill: #e8f6fc;
      }

      .cls-13 {
        fill: url(#linear-gradient-2);
      }

      .cls-14 {
        clip-path: url(#clip-path-2);
      }

      .cls-15 {
        fill: #e0f8ff;
      }

      .cls-16 {
        fill: url(#linear-gradient-3);
      }

      .cls-17 {
        fill: url(#linear-gradient-4);
      }

      .cls-18 {
        fill: url(#linear-gradient-5);
      }

      .cls-137, .cls-19, .cls-27, .cls-29 {
        fill: #fff;
      }

      .cls-19 {
        opacity: 0.3;
      }

      .cls-20 {
        fill: #f8f8f8;
      }

      .cls-21 {
        fill: #ebebeb;
      }

      .cls-22 {
        fill: #e0e0e0;
      }

      .cls-23 {
        fill: url(#linear-gradient-6);
      }

      .cls-24 {
        fill: #f4d7b4;
        opacity: 0.66;
      }

      .cls-25 {
        fill: #e4e4e4;
      }

      .cls-26 {
        fill: #868686;
      }

      .cls-28 {
        fill: #3c3c3b;
      }

      .cls-29 {
        opacity: 0.6;
      }

      .cls-30 {
        fill: #ed9e4e;
      }

      .cls-31 {
        fill: #b84f40;
      }

      .cls-32 {
        fill: #1d1c1a;
        opacity: 0.1;
      }

      .cls-33 {
        fill: url(#linear-gradient-7);
      }

      .cls-34 {
        fill: url(#linear-gradient-8);
      }

      .cls-35 {
        fill: url(#linear-gradient-9);
      }

      .cls-36 {
        fill: url(#linear-gradient-10);
      }

      .cls-37 {
        fill: #2a2929;
      }

      .cls-38 {
        fill: #5c5b5a;
      }

      .cls-39 {
        fill: #414141;
      }

      .cls-40 {
        fill: #7b7b7b;
      }

      .cls-41 {
        fill: #c1c1c1;
      }

      .cls-42 {
        fill: #fab480;
      }

      .cls-43 {
        fill: #3c3c3c;
      }

      .cls-44 {
        fill: #006836;
      }

      .cls-45 {
        fill: #005e31;
      }

      .cls-46 {
        fill: #30302e;
      }

      .cls-47 {
        fill: #383638;
      }

      .cls-48 {
        fill: #323031;
      }

      .cls-49 {
        fill: url(#linear-gradient-11);
      }

      .cls-50 {
        fill: url(#linear-gradient-12);
      }

      .cls-51 {
        fill: url(#linear-gradient-13);
      }

      .cls-52 {
        fill: url(#linear-gradient-14);
      }

      .cls-53 {
        fill: url(#linear-gradient-15);
      }

      .cls-54 {
        fill: url(#linear-gradient-16);
      }

      .cls-55 {
        fill: url(#linear-gradient-17);
      }

      .cls-56 {
        fill: #9eca47;
      }

      .cls-57 {
        fill: #799f34;
      }

      .cls-58 {
        fill: #e2caa5;
      }

      .cls-59 {
        fill: url(#linear-gradient-18);
      }

      .cls-60 {
        fill: url(#linear-gradient-19);
      }

      .cls-61 {
        fill: #a37f61;
      }

      .cls-62 {
        fill: url(#linear-gradient-20);
      }

      .cls-63 {
        fill: #896b55;
      }

      .cls-64 {
        fill: url(#linear-gradient-21);
      }

      .cls-65 {
        fill: url(#linear-gradient-22);
      }

      .cls-66 {
        fill: #eadacf;
      }

      .cls-67 {
        fill: url(#linear-gradient-23);
      }

      .cls-68 {
        fill: url(#linear-gradient-24);
      }

      .cls-69 {
        fill: url(#linear-gradient-25);
      }

      .cls-70 {
        fill: url(#linear-gradient-26);
      }

      .cls-71 {
        fill: url(#linear-gradient-27);
      }

      .cls-72 {
        fill: url(#linear-gradient-28);
      }

      .cls-73 {
        fill: url(#linear-gradient-29);
      }

      .cls-74 {
        fill: #6d6d6d;
      }

      .cls-75 {
        fill: url(#linear-gradient-30);
      }

      .cls-76 {
        fill: #dfc44f;
      }

      .cls-77 {
        fill: url(#linear-gradient-31);
      }

      .cls-78 {
        fill: url(#linear-gradient-32);
      }

      .cls-79 {
        clip-path: url(#clip-path-3);
      }

      .cls-80 {
        fill: #d174a0;
      }

      .cls-81 {
        fill: #e79dc2;
      }

      .cls-82 {
        fill: url(#linear-gradient-33);
      }

      .cls-83 {
        fill: url(#linear-gradient-34);
      }

      .cls-84 {
        clip-path: url(#clip-path-4);
      }

      .cls-85 {
        fill: #b3e7f2;
      }

      .cls-86 {
        fill: #f5fdff;
      }

      .cls-87 {
        fill: #fbf26b;
      }

      .cls-88 {
        fill: #a0dce3;
      }

      .cls-89 {
        font-size: 65.64px;
        fill: #231f20;
        font-family: MyriadPro-Regular, Myriad Pro;
      }

      .cls-90 {
        letter-spacing: -0.02em;
      }

      .cls-91 {
        clip-path: url(#clip-path-5);
      }

      .cls-92 {
        fill: #00713c;
      }

      .cls-93 {
        fill: url(#linear-gradient-35);
      }

      .cls-94 {
        fill: url(#linear-gradient-36);
      }

      .cls-138, .cls-144, .cls-147, .cls-149, .cls-95 {
        mix-blend-mode: multiply;
      }

      .cls-95 {
        fill: url(#linear-gradient-37);
      }

      .cls-96 {
        fill: url(#linear-gradient-38);
      }

      .cls-97 {
        fill: #080505;
      }

      .cls-98 {
        fill: url(#linear-gradient-39);
      }

      .cls-99 {
        fill: #014b4f;
      }

      .cls-100 {
        fill: url(#linear-gradient-40);
      }

      .cls-101 {
        fill: url(#linear-gradient-41);
      }

      .cls-102 {
        fill: url(#linear-gradient-42);
      }

      .cls-103 {
        fill: url(#linear-gradient-43);
      }

      .cls-104 {
        fill: url(#linear-gradient-44);
      }

      .cls-105 {
        fill: url(#linear-gradient-45);
      }

      .cls-106 {
        fill: url(#linear-gradient-46);
      }

      .cls-107 {
        fill: url(#linear-gradient-47);
      }

      .cls-108 {
        fill: url(#linear-gradient-48);
      }

      .cls-109 {
        fill: url(#linear-gradient-49);
      }

      .cls-110 {
        fill: url(#linear-gradient-50);
      }

      .cls-111 {
        fill: url(#linear-gradient-51);
      }

      .cls-112 {
        fill: url(#linear-gradient-52);
      }

      .cls-113 {
        fill: url(#linear-gradient-53);
      }

      .cls-114 {
        fill: url(#linear-gradient-54);
      }

      .cls-115 {
        fill: url(#linear-gradient-55);
      }

      .cls-116 {
        fill: url(#linear-gradient-56);
      }

      .cls-117 {
        fill: url(#linear-gradient-57);
      }

      .cls-118 {
        fill: url(#linear-gradient-58);
      }

      .cls-119 {
        fill: url(#linear-gradient-59);
      }

      .cls-120 {
        fill: url(#linear-gradient-60);
      }

      .cls-121 {
        fill: url(#linear-gradient-61);
      }

      .cls-122 {
        fill: url(#linear-gradient-62);
      }

      .cls-123 {
        fill: url(#linear-gradient-63);
      }

      .cls-124 {
        fill: url(#linear-gradient-64);
      }

      .cls-125 {
        fill: url(#linear-gradient-65);
      }

      .cls-126 {
        fill: url(#linear-gradient-66);
      }

      .cls-127 {
        fill: url(#linear-gradient-67);
      }

      .cls-128 {
        fill: url(#linear-gradient-68);
      }

      .cls-129 {
        fill: url(#linear-gradient-69);
      }

      .cls-130 {
        fill: url(#linear-gradient-70);
      }

      .cls-131 {
        fill: url(#linear-gradient-71);
      }

      .cls-132 {
        fill: url(#linear-gradient-72);
      }

      .cls-133 {
        stroke: #fff;
        stroke-linecap: round;
        stroke-miterlimit: 10;
        stroke-dasharray: 5;
      }

      .cls-134 {
        fill: #ab1e23;
      }

      .cls-135 {
        fill: #efeeee;
      }

      .cls-136 {
        fill: #e1e9ea;
      }

      .cls-137 {
        opacity: 0.17;
      }

      .cls-138, .cls-144, .cls-147, .cls-149 {
        fill: #90908f;
      }

      .cls-138 {
        opacity: 0.43;
      }

      .cls-139 {
        fill: #3d95bc;
      }

      .cls-140 {
        fill: #d39d3b;
      }

      .cls-141 {
        fill: #f2e0d4;
      }

      .cls-142 {
        fill: #ee3824;
      }

      .cls-143 {
        fill: #f6f7f7;
      }

      .cls-144 {
        opacity: 0.16;
      }

      .cls-145 {
        fill: #676767;
      }

      .cls-146 {
        fill: #fcbd11;
      }

      .cls-148 {
        fill: #1fb090;
      }

      .cls-149 {
        opacity: 0.26;
      }
    </style>
    <clipPath id="clip-path">
      <rect class="cls-1" y="0.1" width="440.3" height="169.16"/>
    </clipPath>
    <linearGradient id="linear-gradient" x1="-1929.18" y1="25" x2="-1930.59" y2="25.34" gradientTransform="matrix(375, 0, 0, -166, 723949.38, 4265.32)" gradientUnits="userSpaceOnUse">
      <stop offset="0" stop-color="#64dcc2"/>
      <stop offset="1" stop-color="#70bce6"/>
    </linearGradient>
    <linearGradient id="linear-gradient-2" x1="230.1" y1="-50.13" x2="230.1" y2="102.65" gradientTransform="translate(460.2 25.1) rotate(-180)" gradientUnits="userSpaceOnUse">
      <stop offset="0.08" stop-color="#fff"/>
      <stop offset="0.61" stop-color="#fdfdfd"/>
      <stop offset="0.81" stop-color="#f7f6f6"/>
      <stop offset="0.94" stop-color="#ecebeb"/>
      <stop offset="1" stop-color="#e5e3e3"/>
    </linearGradient>
    <clipPath id="clip-path-2">
      <rect class="cls-1" x="178" y="-44" width="105.2" height="105.93" transform="translate(461.2 18) rotate(180)"/>
    </clipPath>
    <linearGradient id="linear-gradient-3" x1="272.32" y1="-31.46" x2="272.32" y2="65.4" gradientTransform="translate(544.6 40.9) rotate(-180)" gradientUnits="userSpaceOnUse">
      <stop offset="0.03" stop-color="#ace2e8"/>
      <stop offset="0.16" stop-color="#b0e4ea"/>
      <stop offset="0.98" stop-color="#c4eff6"/>
    </linearGradient>
    <linearGradient id="linear-gradient-4" x1="222.14" y1="-31.46" x2="222.14" y2="65.4" gradientTransform="matrix(1, 0, 0, 1, 0, 0)" xlink:href="#linear-gradient-3"/>
    <linearGradient id="linear-gradient-5" x1="230.37" y1="31.31" x2="230.37" y2="81.31" gradientUnits="userSpaceOnUse">
      <stop offset="0.19" stop-color="#afe9d9"/>
      <stop offset="0.74" stop-color="#88e9d9"/>
    </linearGradient>
    <linearGradient id="linear-gradient-6" x1="230.26" y1="18.29" x2="230.26" y2="12.66" gradientUnits="userSpaceOnUse">
      <stop offset="0" stop-color="#ceb498"/>
      <stop offset="0.46" stop-color="#bfa48a"/>
      <stop offset="0.91" stop-color="#b59a80"/>
    </linearGradient>
    <linearGradient id="linear-gradient-7" x1="229.49" y1="160.43" x2="229.49" y2="180.11" gradientTransform="matrix(1, 0, 0, 1, 0, 0)" xlink:href="#linear-gradient-2"/>
    <linearGradient id="linear-gradient-8" x1="229.49" y1="168.18" x2="229.49" y2="177.5" gradientUnits="userSpaceOnUse">
      <stop offset="0" stop-color="#7c7c7c" stop-opacity="0.51"/>
      <stop offset="1" stop-color="#fff" stop-opacity="0"/>
    </linearGradient>
    <linearGradient id="linear-gradient-9" x1="178.7" y1="152.07" x2="170.38" y2="173.61" gradientUnits="userSpaceOnUse">
      <stop offset="0.01" stop-color="#3c3a37"/>
      <stop offset="0.37" stop-color="#514d4c"/>
      <stop offset="0.67" stop-color="#5e5858"/>
    </linearGradient>
    <linearGradient id="linear-gradient-10" x1="-4588.35" y1="152.07" x2="-4596.66" y2="173.61" gradientTransform="matrix(-1, 0, 0, 1, -4308.05, 0)" xlink:href="#linear-gradient-9"/>
    <linearGradient id="linear-gradient-11" x1="229.61" y1="129.02" x2="229.61" y2="75" gradientUnits="userSpaceOnUse">
      <stop offset="0" stop-color="#b0251e"/>
      <stop offset="0.34" stop-color="#bd3225"/>
      <stop offset="0.64" stop-color="#cc422e"/>
    </linearGradient>
    <linearGradient id="linear-gradient-12" x1="229.5" y1="127" x2="229.5" y2="133.91" gradientUnits="userSpaceOnUse">
      <stop offset="0.16" stop-color="#cc422e"/>
      <stop offset="0.87" stop-color="#d54c31"/>
    </linearGradient>
    <linearGradient id="linear-gradient-13" x1="228.86" y1="132.32" x2="228.86" y2="157.86" gradientUnits="userSpaceOnUse">
      <stop offset="0" stop-color="#de5b48"/>
      <stop offset="0.87" stop-color="#d54c31"/>
    </linearGradient>
    <linearGradient id="linear-gradient-14" x1="183.02" y1="117.78" x2="167.58" y2="120.1" gradientUnits="userSpaceOnUse">
      <stop offset="0.25" stop-color="#c23529"/>
      <stop offset="1" stop-color="#d54c31"/>
    </linearGradient>
    <linearGradient id="linear-gradient-15" x1="163.28" y1="106.28" x2="163.28" y2="156.61" gradientUnits="userSpaceOnUse">
      <stop offset="0" stop-color="#de5b48"/>
      <stop offset="0.91" stop-color="#cc422e"/>
    </linearGradient>
    <linearGradient id="linear-gradient-16" x1="-4503.81" y1="117.78" x2="-4519.25" y2="120.1" gradientTransform="matrix(-1, 0, 0, 1, -4227.84, 0)" xlink:href="#linear-gradient-14"/>
    <linearGradient id="linear-gradient-17" x1="-4523.55" y1="106.28" x2="-4523.55" y2="156.61" gradientTransform="matrix(1, 0, 0, -1, 4819.26, 263.55)" xlink:href="#linear-gradient-15"/>
    <linearGradient id="linear-gradient-18" x1="109.42" y1="148.75" x2="101.1" y2="170.29" xlink:href="#linear-gradient-9"/>
    <linearGradient id="linear-gradient-19" x1="-4533.48" y1="148.75" x2="-4541.8" y2="170.29" gradientTransform="matrix(-1, 0, 0, 1, -4411.42, 0)" xlink:href="#linear-gradient-9"/>
    <linearGradient id="linear-gradient-20" x1="115.74" y1="118.23" x2="115.74" y2="159.48" xlink:href="#linear-gradient-6"/>
    <linearGradient id="linear-gradient-21" x1="116.08" y1="122.83" x2="116.08" y2="134.59" gradientUnits="userSpaceOnUse">
      <stop offset="0" stop-color="#a37f61"/>
      <stop offset="0.89" stop-color="#896b55"/>
    </linearGradient>
    <linearGradient id="linear-gradient-22" x1="116.08" y1="138.58" x2="116.08" y2="150.34" xlink:href="#linear-gradient-21"/>
    <linearGradient id="linear-gradient-23" x1="109.57" y1="104.46" x2="121.91" y2="104.46" gradientUnits="userSpaceOnUse">
      <stop offset="0.12" stop-color="#63aec6"/>
      <stop offset="0.81" stop-color="#5595a0"/>
    </linearGradient>
    <linearGradient id="linear-gradient-24" x1="336.93" y1="148.75" x2="328.62" y2="170.29" xlink:href="#linear-gradient-9"/>
    <linearGradient id="linear-gradient-25" x1="-4760.99" y1="148.75" x2="-4769.31" y2="170.29" gradientTransform="matrix(-1, 0, 0, 1, -4411.42, 0)" xlink:href="#linear-gradient-9"/>
    <linearGradient id="linear-gradient-26" x1="343.25" y1="118.23" x2="343.25" y2="159.48" xlink:href="#linear-gradient-6"/>
    <linearGradient id="linear-gradient-27" x1="343.59" y1="122.83" x2="343.59" y2="134.59" xlink:href="#linear-gradient-21"/>
    <linearGradient id="linear-gradient-28" x1="343.59" y1="138.58" x2="343.59" y2="150.34" xlink:href="#linear-gradient-21"/>
    <linearGradient id="linear-gradient-29" x1="341.28" y1="102.81" x2="345.23" y2="102.81" gradientUnits="userSpaceOnUse">
      <stop offset="0" stop-color="#c8c6c6"/>
      <stop offset="1" stop-color="#756f6f"/>
    </linearGradient>
    <linearGradient id="linear-gradient-30" x1="343.25" y1="67.37" x2="343.25" y2="94" gradientUnits="userSpaceOnUse">
      <stop offset="0.18" stop-color="#f5de77"/>
      <stop offset="0.95" stop-color="#dfc45d"/>
    </linearGradient>
    <linearGradient id="linear-gradient-31" x1="126.9" y1="36.98" x2="126.9" y2="-15.35" xlink:href="#linear-gradient-6"/>
    <linearGradient id="linear-gradient-32" x1="126.9" y1="34.47" x2="126.9" y2="-9.64" gradientTransform="matrix(1, 0, 0, 1, 0, 0)" xlink:href="#linear-gradient-2"/>
    <clipPath id="clip-path-3">
      <rect class="cls-1" x="109.7" y="10.9" width="34.5" height="20.34"/>
    </clipPath>
    <linearGradient id="linear-gradient-33" x1="332.09" y1="36.98" x2="332.09" y2="-15.35" xlink:href="#linear-gradient-6"/>
    <linearGradient id="linear-gradient-34" x1="332.09" y1="34.47" x2="332.09" y2="-9.64" gradientTransform="matrix(1, 0, 0, 1, 0, 0)" xlink:href="#linear-gradient-2"/>
    <clipPath id="clip-path-4">
      <rect class="cls-1" x="314.8" y="10.9" width="34.5" height="20.34"/>
    </clipPath>
    <clipPath id="clip-path-5">
      <rect class="cls-1" x="-482" y="-189" width="440.3" height="169.16"/>
    </clipPath>
    <linearGradient id="linear-gradient-35" x1="156.9" y1="159.15" x2="192.08" y2="171.53" gradientUnits="userSpaceOnUse">
      <stop offset="0" stop-color="#fdd7c2"/>
      <stop offset="1" stop-color="#f9b29d"/>
    </linearGradient>
    <linearGradient id="linear-gradient-36" x1="200.61" y1="139.49" x2="197.93" y2="126.87" xlink:href="#linear-gradient-35"/>
    <linearGradient id="linear-gradient-37" x1="198.79" y1="133.8" x2="197.15" y2="126.05" xlink:href="#linear-gradient-35"/>
    <linearGradient id="linear-gradient-38" x1="182.3" y1="115.53" x2="209.27" y2="125.02" xlink:href="#linear-gradient-35"/>
    <linearGradient id="linear-gradient-39" x1="182.62" y1="114.64" x2="209.59" y2="124.12" xlink:href="#linear-gradient-35"/>
    <linearGradient id="linear-gradient-40" x1="-2022.9" y1="-3548.49" x2="-2017.86" y2="-3546.4" gradientTransform="translate(-2548.6 3197.1) rotate(71.2)" gradientUnits="userSpaceOnUse">
      <stop offset="0" stop-color="#cadd64"/>
      <stop offset="0.33" stop-color="#a3c758"/>
      <stop offset="0.78" stop-color="#74ab4a"/>
      <stop offset="1" stop-color="#62a145"/>
    </linearGradient>
    <linearGradient id="linear-gradient-41" x1="-2023.68" y1="-3551.28" x2="-2011.99" y2="-3540.5" xlink:href="#linear-gradient-40"/>
    <linearGradient id="linear-gradient-42" x1="106.21" y1="-809.01" x2="111.25" y2="-806.92" gradientTransform="translate(-174.7 886.4) rotate(15.2)" xlink:href="#linear-gradient-40"/>
    <linearGradient id="linear-gradient-43" x1="105.43" y1="-811.8" x2="117.12" y2="-801.02" gradientTransform="translate(-174.7 886.4) rotate(15.2)" xlink:href="#linear-gradient-40"/>
    <linearGradient id="linear-gradient-44" x1="-3375.7" y1="3554.98" x2="-3370.67" y2="3557.07" gradientTransform="translate(-2969.4 -3645.1) rotate(-82.8)" xlink:href="#linear-gradient-40"/>
    <linearGradient id="linear-gradient-45" x1="-3376.48" y1="3552.19" x2="-3364.8" y2="3562.97" gradientTransform="translate(-2969.4 -3645.1) rotate(-82.8)" xlink:href="#linear-gradient-40"/>
    <linearGradient id="linear-gradient-46" x1="-2029.49" y1="-3555.06" x2="-2025.45" y2="-3553.38" xlink:href="#linear-gradient-40"/>
    <linearGradient id="linear-gradient-47" x1="-2030.12" y1="-3557.3" x2="-2020.73" y2="-3548.64" xlink:href="#linear-gradient-40"/>
    <linearGradient id="linear-gradient-48" x1="-2548" y1="3435.54" x2="-2543.95" y2="3437.22" gradientTransform="translate(-2184 -3468.7) rotate(-69.2)" xlink:href="#linear-gradient-40"/>
    <linearGradient id="linear-gradient-49" x1="-2548.62" y1="3433.29" x2="-2539.23" y2="3441.96" gradientTransform="translate(-2184 -3468.7) rotate(-69.2)" xlink:href="#linear-gradient-40"/>
    <linearGradient id="linear-gradient-50" x1="-1702.21" y1="3083.05" x2="-1699.03" y2="3084.37" gradientTransform="translate(-1444.9 -3040.4) rotate(-55.3)" xlink:href="#linear-gradient-40"/>
    <linearGradient id="linear-gradient-51" x1="-1702.7" y1="3081.29" x2="-1695.32" y2="3088.1" gradientTransform="translate(-1444.9 -3040.4) rotate(-55.3)" xlink:href="#linear-gradient-40"/>
    <linearGradient id="linear-gradient-52" x1="-742.51" y1="2327.99" x2="-739.69" y2="2329.16" gradientTransform="translate(-645.2 -2205) rotate(-36.3)" xlink:href="#linear-gradient-40"/>
    <linearGradient id="linear-gradient-53" x1="-742.94" y1="2326.43" x2="-736.4" y2="2332.47" gradientTransform="translate(-645.2 -2205) rotate(-36.3)" xlink:href="#linear-gradient-40"/>
    <linearGradient id="linear-gradient-54" x1="-738.37" y1="2311.91" x2="-735.56" y2="2313.08" gradientTransform="translate(-645.2 -2205) rotate(-36.3)" xlink:href="#linear-gradient-40"/>
    <linearGradient id="linear-gradient-55" x1="-738.81" y1="2310.35" x2="-732.27" y2="2316.39" gradientTransform="translate(-645.2 -2205) rotate(-36.3)" xlink:href="#linear-gradient-40"/>
    <linearGradient id="linear-gradient-56" x1="-444.39" y1="1929.2" x2="-440.35" y2="1930.88" gradientTransform="matrix(0.88, -0.48, 0.48, 0.88, -403.59, -1793.85)" xlink:href="#linear-gradient-40"/>
    <linearGradient id="linear-gradient-57" x1="-445.02" y1="1926.95" x2="-435.63" y2="1935.62" gradientTransform="matrix(0.88, -0.48, 0.48, 0.88, -403.59, -1793.85)" xlink:href="#linear-gradient-40"/>
    <linearGradient id="linear-gradient-58" x1="17.21" y1="845.49" x2="21.25" y2="847.17" gradientTransform="translate(-24.5 -693.2) rotate(-11)" xlink:href="#linear-gradient-40"/>
    <linearGradient id="linear-gradient-59" x1="16.58" y1="843.24" x2="25.97" y2="851.91" gradientTransform="translate(-24.5 -693.2) rotate(-11)" xlink:href="#linear-gradient-40"/>
    <linearGradient id="linear-gradient-60" x1="-1551.99" y1="-3319.67" x2="-1547.94" y2="-3317.99" gradientTransform="matrix(0.46, 0.89, -0.89, 0.46, -2093.88, 3017.01)" xlink:href="#linear-gradient-40"/>
    <linearGradient id="linear-gradient-61" x1="-1552.61" y1="-3321.91" x2="-1543.23" y2="-3313.24" gradientTransform="matrix(0.46, 0.89, -0.89, 0.46, -2093.88, 3017.01)" xlink:href="#linear-gradient-40"/>
    <linearGradient id="linear-gradient-62" x1="-135.28" y1="-1629.36" x2="-132.1" y2="-1628.04" gradientTransform="translate(-518.8 1619) rotate(28.1)" xlink:href="#linear-gradient-40"/>
    <linearGradient id="linear-gradient-63" x1="-135.78" y1="-1631.13" x2="-128.38" y2="-1624.3" gradientTransform="translate(-518.8 1619) rotate(28.1)" xlink:href="#linear-gradient-40"/>
    <linearGradient id="linear-gradient-64" x1="-132.82" y1="-1649.55" x2="-129.63" y2="-1648.23" gradientTransform="translate(-518.8 1619) rotate(28.1)" xlink:href="#linear-gradient-40"/>
    <linearGradient id="linear-gradient-65" x1="-133.31" y1="-1651.32" x2="-125.91" y2="-1644.49" gradientTransform="translate(-518.8 1619) rotate(28.1)" xlink:href="#linear-gradient-40"/>
    <linearGradient id="linear-gradient-66" x1="-732.2" y1="-2617.68" x2="-729.01" y2="-2616.36" gradientTransform="translate(-1227.8 2448.1) rotate(45.8)" xlink:href="#linear-gradient-40"/>
    <linearGradient id="linear-gradient-67" x1="-732.7" y1="-2619.45" x2="-725.29" y2="-2612.62" gradientTransform="translate(-1227.8 2448.1) rotate(45.8)" xlink:href="#linear-gradient-40"/>
    <linearGradient id="linear-gradient-68" x1="-369.58" y1="1697.48" x2="-366.34" y2="1698.83" gradientTransform="translate(-237.4 -1568.5) rotate(-25.5)" xlink:href="#linear-gradient-40"/>
    <linearGradient id="linear-gradient-69" x1="-370.09" y1="1695.68" x2="-362.55" y2="1702.64" gradientTransform="translate(-237.4 -1568.5) rotate(-25.5)" xlink:href="#linear-gradient-40"/>
    <linearGradient id="linear-gradient-70" x1="-1458.71" y1="-3209.47" x2="-1455.47" y2="-3208.12" gradientTransform="matrix(0.49, 0.87, -0.87, 0.49, -1927.76, 2961.93)" xlink:href="#linear-gradient-40"/>
    <linearGradient id="linear-gradient-71" x1="-1459.22" y1="-3211.27" x2="-1451.68" y2="-3204.32" gradientTransform="matrix(0.49, 0.87, -0.87, 0.49, -1927.76, 2961.93)" xlink:href="#linear-gradient-40"/>
    <linearGradient id="linear-gradient-72" x1="186.42" y1="174.86" x2="216.82" y2="185.55" xlink:href="#linear-gradient-35"/>
  </defs>
  <title>Banners (4)</title>
  <g class="cls-2">
    <g id="AC">
      <g class="cls-3">
        <g id="Page-1">
          <g id="UI---Screen-5">
            <g id="Group-2">
              <rect id="Rectangle-Copy-6" class="cls-4" width="440.3" height="169.4"/>
            </g>
          </g>
        </g>
        <g>
          <path class="cls-5" d="M251.9,74.8c0,2-.9,3.6-1.9,3.6H222.4c-1,0-1.9-1.6-1.9-3.6h0c0-1.9.9-3.5,1.9-3.5H250c1,0,1.9,1.6,1.9,3.5Z"/>
          <path class="cls-5" d="M75.5,43.3c0,2-.9,3.6-2,3.6H44.1c-1.1,0-2-1.6-2-3.6h0c0-1.9.9-3.5,2-3.5H73.5c1.1,0,2,1.6,2,3.5Z"/>
          <path class="cls-5" d="M393.1,19c0,2-1,3.6-2.2,3.6H360.4c-1.1,0-2.1-1.6-2.1-3.6h0c0-2,1-3.6,2.1-3.6h30.5c1.2,0,2.2,1.6,2.2,3.6Z"/>
        </g>
        <rect class="cls-6" x="0.9" y="144.9" width="438.9" height="48.07"/>
        <polygon class="cls-7" points="21.9 -0.3 21.9 149.3 0.9 171.1 0.9 -0.3 21.9 -0.3"/>
        <polygon class="cls-8" points="0.4 -0.3 17.7 -0.3 17.7 146.5 0.4 163.4 0.4 -0.3"/>
        <polygon class="cls-9" points="15.7 -0.3 15.7 145.7 0.4 161 0.4 -0.3 15.7 -0.3"/>
        <rect class="cls-10" x="21.9" y="-0.3" width="9.9" height="149.6"/>
        <polygon class="cls-11" points="31.8 149.3 36 144.9 36 -0.3 31.8 -0.3 31.8 149.3"/>
        <polygon class="cls-12" points="13.7 -0.3 0.4 22.6 0.4 -0.3 13.7 -0.3"/>
        <polygon class="cls-12" points="15.7 69.5 15.7 95.2 0.4 121.7 0.4 95.9 15.7 69.5"/>
        <polygon class="cls-12" points="15.7 8.9 15.7 15.4 0.4 41.8 0.4 35.4 15.7 8.9"/>
        <polygon class="cls-12" points="15.7 101.1 15.7 107.5 0.4 133.9 0.4 127.5 15.7 101.1"/>
        <g>
          <g>
            <rect class="cls-13" x="172.9" y="-48.1" width="114.4" height="121.25" transform="translate(460.2 25.1) rotate(180)"/>
            <g class="cls-14">
              <rect class="cls-15" x="178" y="-44" width="105.2" height="105.93" transform="translate(461.2 18) rotate(180)"/>
              <g>
                <g>
                  <rect class="cls-16" x="261.8" y="-15" width="21.1" height="70.98" transform="translate(544.6 40.9) rotate(180)"/>
                  <polygon class="cls-17" points="264.4 21.8 254.4 21.8 254.4 -6.3 240.1 -6.2 240.1 30.8 233 30.8 233 18.8 225.4 18.8 225.4 2.5 215 2.5 215 25.1 215 30.8 209 30.8 209 -6.2 204.6 -6.2 204.6 -17.8 202.2 -17.8 202.2 -28.4 177.3 -28.4 177.3 24.9 177.3 61.6 267 62 264.4 21.8"/>
                </g>
                <path class="cls-18" d="M283,41.6a7.8,7.8,0,0,0-9.1.3,11.5,11.5,0,0,0-3.9,9.6,4.7,4.7,0,0,0-4,.3l-6.7-27.7L256,49.9a2.1,2.1,0,0,0-2.5.3,14.5,14.5,0,0,0-2.2-4.7,8.4,8.4,0,0,0-3.1-2.2,10.9,10.9,0,0,0-16,9.7,10.2,10.2,0,0,0-2.9-4.1,4.4,4.4,0,0,0-4.4-.6,7.6,7.6,0,0,0-2.3,2.1,5.2,5.2,0,0,0-2.9-4.7,4,4,0,0,0-3.2.2l-4.9-20-3.7,29.5a7.8,7.8,0,0,0-2.6.4,6.8,6.8,0,0,0-1.9-7.1,7.7,7.7,0,0,0-7.3-1.5,12.3,12.3,0,0,0-5.5-11.1,13,13,0,0,0-12.7-.4l-.6,28.2,30.3-.8v1.4l13-1.3h0l35.5.7h.3a4.9,4.9,0,0,0-.1,1.2l27.2.9Z"/>
              </g>
              <g>
                <polygon class="cls-19" points="220.6 -43 199 -43 259 62.9 267.1 62.9 279.2 60.7 220.6 -43"/>
                <polygon class="cls-19" points="184.7 -43 244.6 62.9 250.5 62.9 190.6 -43 184.7 -43"/>
                <path class="cls-19" d="M229.7-43.8c2.4.3.3.1-.2.1h-.4L283.5,52c2.1-.3-.7-9.4,1.5-9.6L235.7-44.4A11.9,11.9,0,0,1,229.7-43.8Z"/>
              </g>
            </g>
            <rect class="cls-20" x="216.4" y="-46.4" width="4.4" height="111.12"/>
            <rect class="cls-21" x="169.8" y="73.2" width="119.5" height="7.47"/>
            <rect class="cls-22" x="177" y="-41.6" width="2.4" height="103.92"/>
            <polygon class="cls-21" points="283.3 59.9 179.4 59.9 177 62.3 283.3 62.3 283.3 59.9"/>
            <g>
              <rect class="cls-23" x="175.5" y="14.8" width="109.5" height="3.54"/>
              <rect class="cls-24" x="177" y="-41.6" width="106.2" height="56.45"/>
            </g>
            <g>
              <g>
                <rect class="cls-25" x="220.3" y="18.5" width="62.6" height="41.62"/>
                <rect class="cls-26" x="224.5" y="22.2" width="34.1" height="34.21"/>
                <path class="cls-27" d="M248.5,37.5v.3l.6-.2h-.6ZM224,21.8V39.4h35V21.8Zm5.7,3.3v-.7h4.2v.7Zm28.5-.7v.7H254v-.7ZM254,24v-.7h4.2V24Zm4.2,1.4v.8H254v-.8Zm-4.9,10.7v.7h-4.2v-.7Zm.7,2.1h4.2v.7H254ZM243.6,24h-4.2v-.7h4.2Zm0,.4v.7h-4.2v-.7Zm0,1v.8h-4.2v-.8Zm0,1.1v.7h-4.2v-.7Zm0,1.1v.7h-4.2v-.7Zm0,1v.8h-4.2v-.8Zm0,1.1v.7h-4.2v-.7Zm0,1.1v.7h-4.2v-.7Zm0,1v.8h-4.2v-.8Zm0,1.1v.7h-4.2v-.7Zm0,1v.8h-4.2v-.8Zm0,1.1v.7h-4.2V35Zm0,1.1v.7h-4.2v-.7Zm0,1v.8h-4.2v-.8Zm-4.8-12h-4.2v-.7h4.2Zm0,.3v.8h-4.2v-.8Zm0,1.1v.7h-4.2v-.7Zm0,1.1v.7h-4.2v-.7Zm0,1v.8h-4.2v-.8Zm0,1.1v.7h-4.2v-.7Zm0,1.1v.7h-4.2v-.7Zm0,1v.8h-4.2v-.8Zm0,1.1v.7h-4.2v-.7Zm0,1v.8h-4.2v-.8Zm0,1.1v.7h-4.2V35Zm0,1.1v.7h-4.2v-.7Zm-4.9-9.9h-4.2v-.8h4.2Zm0,.3v.7h-4.2v-.7Zm0,1.1v.7h-4.2v-.7Zm0,1v.8h-4.2v-.8Zm0,1.1v.7h-4.2v-.7Zm0,1.1v.7h-4.2v-.7Zm0,1v.8h-4.2v-.8Zm0,1.1v.7h-4.2v-.7Zm0,1v.8h-4.2v-.8Zm0,1.1v.7h-4.2V35Zm-4.2,1.1h4.2v.7h-4.2Zm0,2.1h4.2v.7h-4.2Zm0-.3v-.8h4.2v.8Zm4.9-.8h4.2v.8h-4.2Zm0,1.1h4.2v.7h-4.2Zm4.8,0h4.2v.7h-4.2Zm4.9,0h4.2v.7h-4.2Zm0-.3v-.8h4.2v.8Zm4.2-12.8h-4.2v-.7h4.2Zm0,.3v.8h-4.2v-.8Zm0,1.1v.7h-4.2v-.7Zm0,1.1v.7h-4.2v-.7Zm0,1v.8h-4.2v-.8Zm0,1.1v.7h-4.2v-.7Zm0,1.1v.7h-4.2v-.7Zm0,1v.8h-4.2v-.8Zm0,1.1v.7h-4.2v-.7Zm0,1v.8h-4.2v-.8Zm0,1.1v.7h-4.2V35Zm0,1.1v.7h-4.2v-.7Zm.6,2.1h4.2v.7h-4.2Zm0-.3v-.8h4.2v.8Zm4.2-11.4v.7h-4.2v-.7Zm-4.2-.3v-.8h4.2v.8Zm4.2,1.4v.7h-4.2v-.7Zm0,1v.8h-4.2v-.8Zm0,1.1v.7h-4.2v-.7Zm0,1.1v.7h-4.2v-.7Zm0,1v.8h-4.2v-.8Zm0,1.1v.7h-4.2v-.7Zm0,1v.8h-4.2v-.8Zm0,1.1v.7h-4.2V35Zm.7,1.1h4.2v.7H254Zm0-.4V35h4.2v.7Zm0-1v-.8h4.2v.8Zm0-1.1v-.7h4.2v.7Zm0-1v-.8h4.2v.8Zm0-1.1v-.7h4.2v.7Zm0-1.1v-.7h4.2v.7Zm0-1v-.8h4.2v.8Zm0-1.1v-.7h4.2v.7Zm0-1.1v-.7h4.2v.7Zm-4.9-2.1v-.7h4.2v.7Zm4.2-2.1h-4.2v-.8h4.2Zm0,.3V24h-4.2v-.7Zm-4.8.7h-4.2v-.7h4.2Zm0-1h-4.2v-.8h4.2Zm-4.9,0h-4.2v-.8h4.2Zm-4.8,0h-4.2v-.8h4.2Zm0,.3V24h-4.2v-.7Zm-4.9-.3h-4.2v-.8h4.2Zm0,.3V24h-4.2v-.7Zm-4.8-.3h-4.2v-.8h4.2Zm0,.3V24h-4.2v-.7Zm0,1.1v.7h-4.2v-.7Zm0,1v.8h-4.2v-.8Zm0,1.1v.7h-4.2v-.7Zm0,1.1v.7h-4.2v-.7Zm0,1v.8h-4.2v-.8Zm0,1.1v.7h-4.2v-.7Zm0,1.1v.7h-4.2v-.7Zm0,1v.8h-4.2v-.8Zm0,1.1v.7h-4.2v-.7Zm0,1v.8h-4.2v-.8Zm0,1.1v.7h-4.2V35Zm0,1.1v.7h-4.2v-.7Zm0,1v.8h-4.2v-.8Zm-4.2,1.1h4.2v.7h-4.2Zm33.3-.3H254v-.8h4.2Zm0-14.9H254v-.8h4.2Z"/>
                <path class="cls-27" d="M248.5,54.7V55l.6-.2v-.2ZM224,39V56.6h35V39Zm5.7,3.3v-.7h4.2v.7Zm28.5-.7v.7H254v-.7Zm-4.2-.4v-.7h4.2v.7Zm4.2,1.4v.8H254v-.8Zm-4.9,10.7V54h-4.2v-.7Zm.7,2.1h4.2v.7H254ZM243.6,41.2h-4.2v-.7h4.2Zm0,.4v.7h-4.2v-.7Zm0,1v.8h-4.2v-.8Zm0,1.1v.7h-4.2v-.7Zm0,1.1v.7h-4.2v-.7Zm0,1v.8h-4.2v-.8Zm0,1.1v.7h-4.2v-.7Zm0,1v.8h-4.2v-.8Zm0,1.1v.7h-4.2V49Zm0,1.1v.7h-4.2v-.7Zm0,1v.8h-4.2v-.8Zm0,1.1v.7h-4.2v-.7Zm0,1.1V54h-4.2v-.7Zm0,1v.8h-4.2v-.8Zm-4.8-12h-4.2v-.7h4.2Zm0,.3v.8h-4.2v-.8Zm0,1.1v.7h-4.2v-.7Zm0,1.1v.7h-4.2v-.7Zm0,1v.8h-4.2v-.8Zm0,1.1v.7h-4.2v-.7Zm0,1v.8h-4.2v-.8Zm0,1.1v.7h-4.2V49Zm0,1.1v.7h-4.2v-.7Zm0,1v.8h-4.2v-.8Zm0,1.1v.7h-4.2v-.7Zm0,1.1V54h-4.2v-.7Zm-4.9-9.9h-4.2v-.8h4.2Zm0,.3v.7h-4.2v-.7Zm0,1.1v.7h-4.2v-.7Zm0,1v.8h-4.2v-.8Zm0,1.1v.7h-4.2v-.7Zm0,1v.8h-4.2v-.8Zm0,1.1v.7h-4.2V49Zm0,1.1v.7h-4.2v-.7Zm0,1v.8h-4.2v-.8Zm0,1.1v.7h-4.2v-.7Zm-4.2,1.1h4.2V54h-4.2Zm0,2.1h4.2v.7h-4.2Zm0-.3v-.8h4.2v.8Zm4.9-.8h4.2v.8h-4.2Zm0,1.1h4.2v.7h-4.2Zm4.8,0h4.2v.7h-4.2Zm4.9,0h4.2v.7h-4.2Zm0-.3v-.8h4.2v.8Zm4.2-12.8h-4.2v-.7h4.2Zm0,.3v.8h-4.2v-.8Zm0,1.1v.7h-4.2v-.7Zm0,1.1v.7h-4.2v-.7Zm0,1v.8h-4.2v-.8Zm0,1.1v.7h-4.2v-.7Zm0,1v.8h-4.2v-.8Zm0,1.1v.7h-4.2V49Zm0,1.1v.7h-4.2v-.7Zm0,1v.8h-4.2v-.8Zm0,1.1v.7h-4.2v-.7Zm0,1.1V54h-4.2v-.7Zm.6,2.1h4.2v.7h-4.2Zm0-.3v-.8h4.2v.8Zm4.2-11.4v.7h-4.2v-.7Zm-4.2-.3v-.8h4.2v.8Zm4.2,1.4v.7h-4.2v-.7Zm0,1v.8h-4.2v-.8Zm0,1.1v.7h-4.2v-.7Zm0,1v.8h-4.2v-.8Zm0,1.1v.7h-4.2V49Zm0,1.1v.7h-4.2v-.7Zm0,1v.8h-4.2v-.8Zm0,1.1v.7h-4.2v-.7Zm.7,1.1h4.2V54H254Zm0-.4v-.7h4.2v.7Zm0-1v-.8h4.2v.8Zm0-1.1v-.7h4.2v.7Zm0-1.1V49h4.2v.7Zm0-1v-.8h4.2v.8Zm0-1.1v-.7h4.2v.7Zm0-1v-.8h4.2v.8Zm0-1.1v-.7h4.2v.7Zm0-1.1v-.7h4.2v.7Zm-4.9-2.1v-.7h4.2v.7Zm4.2-2.1h-4.2v-.8h4.2Zm0,.3v.7h-4.2v-.7Zm-4.8.7h-4.2v-.7h4.2Zm0-1h-4.2v-.8h4.2Zm-4.9,0h-4.2v-.8h4.2Zm-4.8,0h-4.2v-.8h4.2Zm0,.3v.7h-4.2v-.7Zm-4.9-.3h-4.2v-.8h4.2Zm0,.3v.7h-4.2v-.7Zm-4.8-.3h-4.2v-.8h4.2Zm0,.3v.7h-4.2v-.7Zm0,1.1v.7h-4.2v-.7Zm0,1v.8h-4.2v-.8Zm0,1.1v.7h-4.2v-.7Zm0,1.1v.7h-4.2v-.7Zm0,1v.8h-4.2v-.8Zm0,1.1v.7h-4.2v-.7Zm0,1v.8h-4.2v-.8Zm0,1.1v.7h-4.2V49Zm0,1.1v.7h-4.2v-.7Zm0,1v.8h-4.2v-.8Zm0,1.1v.7h-4.2v-.7Zm0,1.1V54h-4.2v-.7Zm0,1v.8h-4.2v-.8Zm-4.2,1.1h4.2v.7h-4.2Zm33.3-.3H254v-.8h4.2Zm0-14.9H254v-.8h4.2Z"/>
                <rect class="cls-28" x="261.3" y="22.2" width="19.5" height="25.8"/>
                <rect class="cls-29" x="254.2" y="34.8" width="25.8" height="0.5" transform="translate(302.1 -232) rotate(90)"/>
                <rect class="cls-29" x="262" y="34.8" width="25.8" height="0.5" transform="translate(310 -239.9) rotate(90)"/>
                <g>
                  <rect class="cls-30" x="261.3" y="54.8" width="4.8" height="1.81"/>
                  <rect class="cls-27" x="268.7" y="54.8" width="4.8" height="1.81"/>
                  <rect class="cls-31" x="276" y="54.8" width="4.8" height="1.81"/>
                </g>
                <rect class="cls-27" x="261.3" y="24.4" width="19.5" height="0.5"/>
                <rect class="cls-27" x="261.3" y="27.1" width="19.5" height="0.5"/>
                <rect class="cls-27" x="261.3" y="29.7" width="19.5" height="0.5"/>
                <rect class="cls-27" x="261.3" y="32.3" width="19.5" height="0.5"/>
                <rect class="cls-27" x="261.3" y="34.9" width="19.5" height="0.5"/>
                <rect class="cls-27" x="261.3" y="37.6" width="19.5" height="0.5"/>
                <rect class="cls-27" x="261.3" y="40.2" width="19.5" height="0.5"/>
                <rect class="cls-27" x="261.3" y="42.8" width="19.5" height="0.5"/>
                <rect class="cls-27" x="261.3" y="45.4" width="19.5" height="0.5"/>
              </g>
              <path class="cls-32" d="M282.9,46.1v14H220.3V48.3l3.7,1.3h.5l1.9.5,2.7.7.6.2,1.4.2,1.9.4,4.4.7h2l4.2.3H254l4.2-.4h.8A93.5,93.5,0,0,0,282.9,46.1Z"/>
            </g>
          </g>
          <polygon class="cls-33" points="311.3 162.4 229.5 162.4 224.9 162.4 147.7 162.4 128.9 179.5 330.1 179.5 311.3 162.4"/>
          <ellipse class="cls-34" cx="229.5" cy="171.9" rx="74.2" ry="2.6"/>
          <g>
            <g>
              <polygon class="cls-35" points="173.8 155.2 169.4 171.4 171.6 171.4 181.4 154.7 173.8 155.2"/>
              <polygon class="cls-36" points="285.2 155.2 289.6 171.4 287.4 171.4 277.6 154.7 285.2 155.2"/>
            </g>
            <g>
              <g>
                <g>
                  <g>
                    <path class="cls-37" d="M223.5,45.9h0c.1-.3.1-.5.2-.8a2,2,0,0,1,2.8-1l2.2.8a.8.8,0,0,1,.6.8V46l-3.4-.2-.4,2.5-.2,2.8h-1.7V45.9Z"/>
                    <path class="cls-38" d="M224.9,50.6l.2-2.4.5-2.9,3.2.2a.2.2,0,0,0-.2-.2l-2.2-.8h0l-.8-.2a1.8,1.8,0,0,0-1.5,1,1.3,1.3,0,0,0-.1.6h0v.3h0v4.4Z"/>
                    <path class="cls-37" d="M229,46a.3.3,0,0,1,.1-.2.2.2,0,0,1,.2.2h-.2A.1.1,0,0,1,229,46Z"/>
                    <path class="cls-37" d="M228.7,45.9h.2a.3.3,0,0,1,.1.2h-.1A.2.2,0,0,1,228.7,45.9Z"/>
                    <path class="cls-37" d="M228.5,45.9a.1.1,0,1,1,.2,0c0,.1,0,.2-.1.2S228.5,46,228.5,45.9Z"/>
                    <path class="cls-37" d="M228.2,45.9c0-.1.1-.1.2-.1h.1c0,.1-.1.2-.2.1A.1.1,0,0,1,228.2,45.9Z"/>
                    <path class="cls-37" d="M228,45.9c0-.1,0-.1.1-.1s.1,0,.1.1,0,.1-.1.1S228,46,228,45.9Z"/>
                    <path class="cls-37" d="M227.7,45.9a.1.1,0,0,1,.1-.1c.1,0,.2,0,.2.1s-.1.1-.2.1S227.7,46,227.7,45.9Z"/>
                    <path class="cls-37" d="M227.4,45.9a.2.2,0,0,1,.2-.2.3.3,0,0,1,.1.2.1.1,0,0,1-.1.1Z"/>
                    <path class="cls-37" d="M227.2,45.9c0-.1,0-.2.1-.2s.1.1.1.2a.1.1,0,0,1-.2,0Z"/>
                    <path class="cls-37" d="M226.9,45.8h.2a.3.3,0,0,1,.1.2H227A.3.3,0,0,1,226.9,45.8Z"/>
                    <path class="cls-37" d="M226.7,45.8h.2c0,.1,0,.2-.1.2S226.7,45.9,226.7,45.8Z"/>
                    <path class="cls-37" d="M226.4,45.8h.3c0,.1-.1.1-.2.1A.1.1,0,0,1,226.4,45.8Z"/>
                    <path class="cls-37" d="M226.1,45.8h.3a.1.1,0,0,1-.1.1C226.2,45.9,226.1,45.9,226.1,45.8Z"/>
                  </g>
                  <path class="cls-37" d="M226.7,51.1l.7,1.5a2.2,2.2,0,0,1,.1.8l-1.1,8.3h-1.8l.5-8.7-.3-1.9Z"/>
                  <path class="cls-31" d="M223.5,74.2c0,.2-.3.4-.5.4h0a.5.5,0,0,1-.5-.5l.4-13.1h1.5Z"/>
                  <path class="cls-39" d="M223.7,50.7l1.8-1.2,3,.2-.3.9a2.5,2.5,0,0,1-.8,1l-2.5,1.6-.5,7.9h-1.5l.2-9.2A1.7,1.7,0,0,1,223.7,50.7Z"/>
                  <g>
                    <path class="cls-37" d="M228.5,49.7l-3-.2v-1h3.3V49A1,1,0,0,1,228.5,49.7Z"/>
                    <path class="cls-37" d="M228.7,48.6a.1.1,0,0,1,.2,0c0,.1,0,.2-.1.2S228.7,48.7,228.7,48.6Z"/>
                    <path class="cls-37" d="M228.4,48.6a.1.1,0,0,1,.1-.1h.2a.2.2,0,0,1-.2.2A.3.3,0,0,1,228.4,48.6Z"/>
                    <path class="cls-37" d="M228.2,48.6c0-.1,0-.1.1-.1s.1,0,.1.1a.1.1,0,0,1-.1.1C228.2,48.7,228.1,48.7,228.2,48.6Z"/>
                    <path class="cls-37" d="M227.9,48.6a.1.1,0,0,1,.1-.1c.1,0,.2,0,.2.1H228C227.9,48.7,227.9,48.7,227.9,48.6Z"/>
                    <path class="cls-37" d="M227.6,48.6c0-.1.1-.2.2-.1a.1.1,0,0,1,0,.2Z"/>
                    <path class="cls-37" d="M227.4,48.6c0-.1,0-.2.1-.2s.1.1.1.2a.1.1,0,0,1-.2,0Z"/>
                    <path class="cls-37" d="M227.1,48.5h.2a.3.3,0,0,1,.1.2h-.2A.3.3,0,0,1,227.1,48.5Z"/>
                    <path class="cls-37" d="M226.9,48.5a.1.1,0,0,1,.2,0,.3.3,0,0,1-.1.2C226.9,48.7,226.9,48.6,226.9,48.5Z"/>
                    <path class="cls-37" d="M226.6,48.5a.1.1,0,0,1,.1-.1h.2c0,.1-.1.2-.2.1S226.6,48.6,226.6,48.5Z"/>
                    <path class="cls-37" d="M226.3,48.5c0-.1.1-.1.2-.1a.1.1,0,0,1,0,.2C226.4,48.6,226.3,48.6,226.3,48.5Z"/>
                    <path class="cls-37" d="M226.1,48.5c0-.1,0-.1.1-.1s.1,0,.1.1,0,.1-.1.1S226.1,48.6,226.1,48.5Z"/>
                    <path class="cls-37" d="M225.8,48.5a.2.2,0,0,1,.2-.2.3.3,0,0,1,.1.2c0,.1-.1.1-.2.1Z"/>
                  </g>
                  <path class="cls-40" d="M227.5,50.1c0,.2.1.3.2.3a.2.2,0,0,0,.2-.2c0-.2-.1-.3-.2-.3A.2.2,0,0,0,227.5,50.1Z"/>
                  <path class="cls-40" d="M225.9,50c0,.2.1.3.2.3a.2.2,0,0,0,.2-.2c0-.2-.1-.3-.2-.3A.2.2,0,0,0,225.9,50Z"/>
                  <path class="cls-40" d="M224.9,51.2a.6.6,0,0,0,.5.6.5.5,0,0,0,.5-.5.5.5,0,0,0-.4-.5A.4.4,0,0,0,224.9,51.2Z"/>
                  <g>
                    <path class="cls-37" d="M224.2,74.1a.6.6,0,0,0,.5.6h0a.5.5,0,0,0,.6-.5l.7-11.9a.5.5,0,0,0-.5-.6h0a.5.5,0,0,0-.6.5Z"/>
                    <path class="cls-39" d="M224.8,62.6c0,.1,0,.1.1.1l1.1.2a.1.1,0,0,0,.1-.1H226l-1.1-.2Z"/>
                    <path class="cls-39" d="M224.8,62.9c0,.1,0,.1.1.2H226V63h-1.1c-.1-.1-.1,0-.1,0Z"/>
                    <path class="cls-39" d="M224.8,63.3a.1.1,0,0,0,.1.1l1,.2a.1.1,0,0,0,.1-.1h0c0-.1,0-.1-.1-.1l-1-.2Z"/>
                    <path class="cls-39" d="M224.8,63.6c-.1,0,0,.1,0,.1l1.1.2a.1.1,0,0,0,.1-.1h-.1l-1-.2c-.1,0-.1,0-.1.1Z"/>
                    <path class="cls-39" d="M224.7,63.9h.1l1.1.2a.1.1,0,0,0,.1-.1h-.1l-1.1-.2a.1.1,0,0,0-.1.1Z"/>
                    <path class="cls-39" d="M224.7,64.2h.1l1.1.2h0l-1.1-.2Z"/>
                    <path class="cls-39" d="M224.7,64.5h.1l1,.2h.1l-1.1-.2Z"/>
                    <path class="cls-39" d="M224.7,64.8c0,.1,0,.2.1.2h1c.1.1.1,0,.1,0h0v-.2h-1.1Z"/>
                    <path class="cls-39" d="M224.7,65.2h.1l1,.2h.1c0-.1,0-.1-.1-.1l-1-.2c-.1,0-.1,0-.1.1Z"/>
                    <path class="cls-39" d="M224.6,65.5h.1l1.1.2h.1c0-.1,0-.1-.1-.1l-1.1-.2Z"/>
                    <path class="cls-39" d="M224.6,65.8a.1.1,0,0,0,.1.1l1.1.2h0l-1.1-.2Z"/>
                    <path class="cls-39" d="M224.6,66.1c0,.1,0,.1.1.1l1.1.2a.1.1,0,0,0,.1-.1h-.1l-1.1-.2Z"/>
                    <path class="cls-39" d="M224.6,66.4v.2h1.1c0-.1,0-.2-.1-.2h-1c-.1-.1-.1,0-.1,0Z"/>
                    <path class="cls-39" d="M224.6,66.8a.1.1,0,0,0,.1.1l1,.2h0l-1-.2Z"/>
                    <path class="cls-39" d="M224.5,67.1h.1l1.1.2a.1.1,0,0,0,.1-.1h-.1l-1-.2Z"/>
                    <path class="cls-39" d="M224.5,67.4h.1l1.1.2a.1.1,0,0,0,.1-.1h-.1l-1.1-.2a.1.1,0,0,0-.1.1Z"/>
                    <path class="cls-39" d="M224.5,67.7h.1l1.1.2h0l-1.1-.2Z"/>
                    <path class="cls-39" d="M224.5,68h.1l1,.2h.1l-1.1-.2Z"/>
                    <path class="cls-39" d="M224.5,68.3c0,.1,0,.2.1.2h1c.1.1.1,0,.1,0h0v-.2h-1.1Z"/>
                  </g>
                  <g>
                    <path class="cls-41" d="M224.5,62.6h1.9a.1.1,0,0,0,.1-.1v-.8h-2c-.1,0-.1,0-.1.1v.8Z"/>
                    <g>
                      <path class="cls-40" d="M226.3,62.5c0,.1,0,.1.1.1h0v-.6c0-.1,0-.1-.1-.1h0Z"/>
                      <path class="cls-40" d="M226.1,62.5h.1a.1.1,0,0,0,.1-.1v-.7h-.1Z"/>
                      <path class="cls-40" d="M226,62.5h0a.1.1,0,0,0,.1-.1v-.7H226Z"/>
                      <path class="cls-40" d="M225.8,62.5h0a.1.1,0,0,0,.1-.1v-.7h-.1Z"/>
                      <path class="cls-40" d="M225.6,62.5h.1v-.7h-.2Z"/>
                      <path class="cls-40" d="M225.4,62.5h.1v-.7h-.1Z"/>
                      <path class="cls-40" d="M225.2,62.5h.2v-.7h-.1Z"/>
                      <path class="cls-40" d="M225.1,62.5h.1v-.7h-.1Z"/>
                      <path class="cls-40" d="M224.9,62.4h0c.1,0,.1,0,.1-.1v-.6h-.1Z"/>
                      <path class="cls-40" d="M224.7,62.4c0,.1,0,.1.1.1h0v-.6h-.2Z"/>
                      <path class="cls-40" d="M224.5,62.4c0,.1,0,.1.1.1h0v-.6h-.1Z"/>
                    </g>
                  </g>
                </g>
                <g>
                  <path class="cls-42" d="M223.6,58.3s-3.4,6.7-4.6,8.4a15.8,15.8,0,0,1-5.4,4.2c-1.8.9-6.8-4.2-6.8-4.2l2.9-5.2,1.6,3.2,7.9-8.2a6.9,6.9,0,0,1,4.4-1.8C224.5,54.9,223.6,58.3,223.6,58.3Z"/>
                  <g>
                    <g>
                      <path class="cls-42" d="M210.1,38.3a3.7,3.7,0,0,0-1.9-2.6c-1.2-.9-6.2-1.8-8.6.3s-1.4,5.7-1,7a43.4,43.4,0,0,1,1.5,5.3,9,9,0,0,1-1,3.5h0c1,1.2,2.8,1.6,4.2,1.8a5.3,5.3,0,0,0,2.2-.2.5.5,0,0,1-.2-.4,5.9,5.9,0,0,1,.3-3.2,2.4,2.4,0,0,1,2.3-.5c1.3.3,1-1.3,1.8-1.6s.2-.4,0-.7.5-.2.6-.4-.2-.5-.2-.7,1.6-.5,1.4-1-1.8-2.7-1.6-3.3A4.7,4.7,0,0,0,210.1,38.3Z"/>
                      <path class="cls-43" d="M210,38s-1.6-.7-3.9,1-1.5,2.4-3.4,3-1.4,1.6-1.4,1.6l-1.4,4s-2.5-2.1-2.7-6.8,1.2-5.1,1.2-5.1,2.4-1.9,7.3-1.5a11.1,11.1,0,0,1,4.3,1.1A7.1,7.1,0,0,0,210,38Z"/>
                      <path class="cls-42" d="M203.1,42.1s-.1-1.5-1.5-1.3-1.5,2.2,0,3.3S203.1,42.1,203.1,42.1Z"/>
                    </g>
                    <g>
                      <path class="cls-44" d="M211.3,37.8h0l-4.1-.5a4,4,0,0,1,2.4-2.9,6.9,6.9,0,0,0-4.4-2.4c-6.9-1-8,5.7-8,5.7l19,2.2.2-1.2Z"/>
                      <path class="cls-45" d="M207.2,37.3l4.1.5h-.5a7.2,7.2,0,0,0-1.2-3.3A4,4,0,0,0,207.2,37.3Z"/>
                    </g>
                  </g>
                  <g>
                    <path class="cls-43" d="M204.4,149.8a4.3,4.3,0,0,1,1.6-.7,6.4,6.4,0,0,0-1.7-1.9l-4.3-2.9-6.9-.7s.2,1.8.2,2.9a20,20,0,0,0,5.2,3.3C201.2,150.7,203.1,150.7,204.4,149.8Z"/>
                    <path class="cls-43" d="M226.4,149.2a3.7,3.7,0,0,1,1.4-.7,6.7,6.7,0,0,0-1.7-2l-4.3-2.9-6.3.5h-.6l.2,1.7a22.5,22.5,0,0,0,5.4,3.4C223.2,150.1,225.1,150.1,226.4,149.2Z"/>
                    <path class="cls-46" d="M193.3,147.1c-.1,1.1,1.8,2.3,4.4,3.5s6.9,1.4,8.2.8.6-1.4.1-2.3a4.3,4.3,0,0,0-1.6.7c-1.3.9-3.2.9-5.9,0a20,20,0,0,1-5.2-3.3Z"/>
                    <path class="cls-46" d="M215.1,146.5c-.1,1,1.8,2.2,4.4,3.4s6.9,1.4,8.2.8.6-1.3.1-2.2a3.7,3.7,0,0,0-1.4.7c-1.3.9-3.2.9-5.9,0a22.5,22.5,0,0,1-5.4-3.4Z"/>
                  </g>
                  <path class="cls-27" d="M196.2,144.2a41.7,41.7,0,0,0,4.3,3.5c1.9,1.2,3.5.8,1.9-.8s-3.1-2.7-3.1-2.7Z"/>
                  <path class="cls-27" d="M218.5,144.2a31.8,31.8,0,0,0,4.3,3.5c1.9,1.2,3.5.8,1.9-.8s-3.1-2.7-3.1-2.7Z"/>
                  <g>
                    <path class="cls-44" d="M197.2,86.7c1.4.8,7.1-1.6,9.6-1.1l5.7,1.2c-.9-9.1-.5-20.2-1-21.9a30.8,30.8,0,0,0-6-11.5c-3.2,1-6.4-1.6-6.4-1.6s-3.7,2-5.3,4-2,9.2-1.7,15.1c1.4,2.9,3.2,6.5,3.8,7.9S195.8,85.8,197.2,86.7Z"/>
                    <path class="cls-45" d="M192.2,90.6s9.3.7,12.6.5a60.2,60.2,0,0,0,8-1.6q-.2-1.2-.3-2.7l-5.7-1.2c-2.5-.5-8.2,1.9-9.6,1.1s-.1-5.4-1.3-7.9-2.4-5-3.8-7.9c0,2,.1,3.8.2,5.4C192.7,81.7,192,86.8,192.2,90.6Z"/>
                  </g>
                  <g>
                    <path class="cls-47" d="M211.8,107.9c1.4,4.6,2.5,8.7,4,10.3s4.9,4.2,3.9,5.2-1.7-.1-2.6,0-.6,2.3-.2,4.6,1.3,10.6,2,16.8h6c-.2-6.7-.4-27.7-1.8-30.9s-8.2-22.5-10.3-27.6l-4.2,1.5c-5.3,1.1-12.8-.6-16.4-1.3a82.6,82.6,0,0,0-1.1,13.3c-.4,5.7,1.6,20.1,1.2,23.7s-.1,16.1-.3,21.3h9.9c.3-5.5,1.2-20.3,1.2-22.8,0-4.3,2.6-20.6,2.6-20.6l1-1.5A20.4,20.4,0,0,1,211.8,107.9Z"/>
                    <path class="cls-48" d="M214.2,144.8h4.7c-.7-6.2-1.8-15.9-2-16.8s-.7-4.5.2-4.6,1.7,1,2.6,0-2.4-3.5-3.9-5.2-2.6-5.7-4-10.3a20.4,20.4,0,0,0-5.1-8l-1,1.5s6.9,15.7,7.4,19.1S214,139.1,214.2,144.8Z"/>
                  </g>
                  <path class="cls-48" d="M192,88.3l.2-2.7s8.7,1.8,13.8,1.6,6.4-1.7,6.4-1.7l1.2,2.7s-3.3,2-10.1,1.6A100.5,100.5,0,0,1,192,88.3Z"/>
                  <path class="cls-48" d="M200.5,87.9s-.4,6.6-3,9.1-6.4,1.8-6.4,1.8v1.6s5.4.8,8.4-2.9,2.8-9.1,2.8-9.1Z"/>
                  <path class="cls-48" d="M205.7,101.4l1.2-.5a19.4,19.4,0,0,0,1.8-5.3c.4-2.3.7-6.4.5-6.4l-1.9.2s-.1,2.9-.3,5.9A50.2,50.2,0,0,1,205.7,101.4Z"/>
                  <path class="cls-27" d="M207.7,64.2a.5.5,0,1,1-1,0,.5.5,0,1,1,1,0Z"/>
                  <path class="cls-42" d="M206.1,63.5s5.9,5.6,7,6.2,4-.6,5.9-.9,10.6-5.6,13.2-6.3,7.1-1.2,6.4.1l-2.2,4.1c-.3.5-2.3,2-5.5,1.9s-7.5,4.4-10.3,5.7-7.5,3.7-10.1,2.6-9.8-6.4-9.8-6.4Z"/>
                  <path class="cls-45" d="M207.2,64.2c-1.2-1.2-3.6-4.1-4.1-4.6-6.5-6.9-12.4-4.5-9.8,2.7,1.1,3.3,4.9,6.7,7.4,9C202.8,68.9,205.2,66.8,207.2,64.2Z"/>
                  <path class="cls-45" d="M206.6,54.8l-.4-1.7a34,34,0,0,1-5.7-1.5,2.2,2.2,0,0,0-3.2,1.2,23.6,23.6,0,0,1,4.2,1A8,8,0,0,0,206.6,54.8Z"/>
                </g>
              </g>
              <rect class="cls-49" x="182" y="95.6" width="95.3" height="33.95"/>
              <polygon class="cls-50" points="276.8 127.9 229.5 127.9 226.8 127.9 182.2 127.9 171.3 131.8 171.3 133.8 226.8 133.8 229.5 133.8 287.7 133.8 287.7 131.8 276.8 127.9"/>
              <rect class="cls-51" x="170" y="132.7" width="117.8" height="24.27"/>
              <g>
                <polygon class="cls-52" points="182.2 127.9 182.2 106.6 170 106.6 171.3 132.7 182.2 127.9"/>
                <rect class="cls-53" x="155.2" y="106.6" width="16.1" height="50.45"/>
              </g>
              <g>
                <polygon class="cls-54" points="276.8 127.9 276.8 106.6 289 106.6 287.7 132.7 276.8 127.9"/>
                <rect class="cls-55" x="287.7" y="106.6" width="16.1" height="50.45" transform="translate(591.4 263.5) rotate(180)"/>
              </g>
            </g>
          </g>
          <g>
            <g>
              <g>
                <path class="cls-56" d="M118.4,59.4a1,1,0,0,0-.1.4,8.1,8.1,0,0,0-.3,1.1,14.1,14.1,0,0,1-.2,1.8c-.1.3-.1.7-.2,1s-.1.8-.1,1.2l-.3,2.7c-.1,1-.1,2-.2,3s-.1,2.2-.2,3.2-.1,2.3-.2,3.4l-.3,6.5c0,1.1-.1,2.1-.1,3.1s-.1,1.8-.1,2.7-.2,3-.3,4a10.8,10.8,0,0,1-.1,1.6s0-.6-.1-1.6V91.7a14.8,14.8,0,0,1-.1-2.2,25.3,25.3,0,0,1-.1-2.8,29.9,29.9,0,0,1,0-3V80.5c0-1.1.1-2.3.1-3.4s.2-2.2.2-3.3l.3-3.3c.2-1,.3-2,.4-3l.2-1.4.3-1.3c.2-.8.3-1.6.5-2.2l.5-1.7A7.2,7.2,0,0,1,118.4,59.4Z"/>
                <g>
                  <path class="cls-56" d="M117.2,96.5a8.7,8.7,0,0,1,.1-1.1,21.3,21.3,0,0,1,.3-3l.3-1.9a17,17,0,0,1,.4-2.2,20.5,20.5,0,0,1,.5-2.4l.6-2.4c.2-.8.5-1.6.7-2.3s.5-1.6.8-2.3l.9-2.1,1-1.7a9.9,9.9,0,0,1,.9-1.5l.5-.5.4-.4.4-.4.3-.2h.2l-.2.2-.2.2-.3.4-.3.5-.2.3-.2.3-.3.7a5.9,5.9,0,0,0-.4.8,3.6,3.6,0,0,1-.4.9l-.3.9-.8,2.1a18.7,18.7,0,0,1-.7,2.2l-.6,2.4a15.5,15.5,0,0,0-.7,2.3l-.6,2.3c-.4,1.5-.7,2.9-1,4.1S117.2,96.5,117.2,96.5Z"/>
                  <path class="cls-57" d="M116.6,95.1V93.7a8.1,8.1,0,0,1-.1-1.6,16.2,16.2,0,0,1,.1-2.1,20.9,20.9,0,0,1,.1-2.4c0-.8.1-1.7.2-2.7a15,15,0,0,1,.3-2.9c.1-.9.2-1.9.4-2.9s.3-2,.5-3l.6-2.8c.2-.9.5-1.8.7-2.6s.5-1.6.7-2.3.5-1.4.7-2,.4-1,.6-1.5l.5-1.2-.3,1.3c-.1.4-.2,1-.4,1.6s-.2,1.2-.4,1.9-.3,1.6-.5,2.4-.3,1.7-.5,2.6l-.3,1.4c-.1.5-.1,1-.2,1.5a25,25,0,0,0-.5,2.9c-.2,1-.3,1.9-.5,2.9a23.6,23.6,0,0,1-.4,2.8q-.2,1.5-.3,2.7l-.3,2.4C116.9,93.1,116.6,95.1,116.6,95.1Z"/>
                  <path class="cls-57" d="M119.4,94.2v-.8a15.6,15.6,0,0,1,.1-2c.1-.5.1-.9.2-1.4a8.3,8.3,0,0,1,.4-1.5,3.1,3.1,0,0,0,.2-.8,2,2,0,0,1,.4-.8,8,8,0,0,1,.8-1.6,7.6,7.6,0,0,1,1.1-1.4l1.4-1,.4-.2.4-.2.8-.2h1.5l1.2.4.7.5.4.4.2.2h-.2l-.5-.3a1.9,1.9,0,0,0-.8-.3l-1.1-.2-1.2.2-.7.2-.3.2-.3.2-1.2.9a6,6,0,0,0-.9,1.3,6.4,6.4,0,0,0-.8,1.4,1.6,1.6,0,0,0-.4.7l-.3.7-.8,2.8-.5,2Z"/>
                </g>
                <g>
                  <path class="cls-56" d="M114.3,96.5s-.5-1.5-1.1-3.9l-1.1-4.1c-.1-.7-.4-1.5-.6-2.3l-.6-2.3a21.7,21.7,0,0,0-.7-2.4,18.7,18.7,0,0,0-.7-2.2,17.2,17.2,0,0,0-.7-2.1,3.6,3.6,0,0,0-.4-.9l-.3-.9a5.9,5.9,0,0,0-.4-.8,1.6,1.6,0,0,0-.4-.7v-.3l-.2-.3-.3-.5-.3-.4-.3-.2-.2-.2h.3l.3.2.3.4.5.4.4.5a9.7,9.7,0,0,1,1,1.5l1,1.7.9,2.1c.2.7.5,1.5.8,2.3s.5,1.5.7,2.3l.6,2.4c.2.8.3,1.6.5,2.4a17,17,0,0,1,.4,2.2l.3,1.9q.1,1.9.3,3A5,5,0,0,0,114.3,96.5Z"/>
                  <path class="cls-57" d="M114.8,95.1s-.2-2-.6-5q-.2-1-.3-2.4t-.3-2.7c-.2-.9-.3-1.8-.5-2.8a28.9,28.9,0,0,0-.4-2.9c-.2-1-.3-2-.5-2.9a7.7,7.7,0,0,1-.2-1.5l-.3-1.4c-.2-.9-.3-1.8-.5-2.6s-.3-1.6-.5-2.4-.3-1.4-.5-1.9-.2-1.2-.3-1.6l-.3-1.3.5,1.2c.2.5.4.9.6,1.5l.7,2c.2.7.4,1.5.7,2.3s.4,1.7.7,2.6l.6,2.8c.2,1,.3,2,.5,3s.3,2,.4,2.9l.3,2.9c.1,1,.2,1.9.2,2.7a20.9,20.9,0,0,1,.1,2.4v3.7A7.9,7.9,0,0,1,114.8,95.1Z"/>
                  <path class="cls-57" d="M112.1,94.2l-.2-.7-.5-2c-.3-.8-.5-1.8-.9-2.8l-.3-.7-.3-.7a11.9,11.9,0,0,0-1.8-2.7,4.8,4.8,0,0,0-1.1-.9l-.3-.2-.4-.2-.6-.2-1.3-.2-1,.2a1.5,1.5,0,0,0-.8.3l-.5.3h-.2v-.2l.4-.4.8-.5a3.4,3.4,0,0,1,1.2-.4h1.5l.8.2.4.2.3.2a7.1,7.1,0,0,1,1.4,1,8.1,8.1,0,0,1,1.2,1.4,8,8,0,0,1,.8,1.6l.3.8.3.8.3,1.5a6.8,6.8,0,0,1,.2,1.4,19.1,19.1,0,0,1,.2,2Z"/>
                </g>
              </g>
              <ellipse class="cls-58" cx="115.7" cy="168.2" rx="21" ry="1.3"/>
              <g>
                <g>
                  <polygon class="cls-59" points="104.5 151.9 100.1 168.1 102.3 168.1 112.1 151.4 104.5 151.9"/>
                  <polygon class="cls-60" points="127 151.9 131.3 168.1 129.2 168.1 119.4 151.4 127 151.9"/>
                </g>
                <rect class="cls-61" x="99.2" y="158.5" width="33.1" height="2.05"/>
                <rect class="cls-62" x="97.2" y="118.6" width="37.1" height="40.39"/>
                <rect class="cls-63" x="99.2" y="120.7" width="33.1" height="13.91"/>
                <rect class="cls-64" x="99.9" y="120.7" width="32.4" height="13.29"/>
                <rect class="cls-63" x="99.2" y="136.9" width="33.1" height="13.91"/>
                <rect class="cls-65" x="99.9" y="136.9" width="32.4" height="13.29"/>
                <rect class="cls-66" x="113" y="123.6" width="5.4" height="1.94"/>
                <rect class="cls-66" x="113" y="138.8" width="5.4" height="1.94"/>
              </g>
              <polygon class="cls-67" points="116.1 90.3 115.4 90.3 109.6 90.3 113.1 118.6 115.4 118.6 116.1 118.6 118.4 118.6 121.9 90.3 116.1 90.3"/>
            </g>
            <g>
              <ellipse class="cls-58" cx="343.3" cy="168.2" rx="21" ry="1.3"/>
              <g>
                <g>
                  <polygon class="cls-68" points="332 151.9 327.6 168.1 329.8 168.1 339.6 151.4 332 151.9"/>
                  <polygon class="cls-69" points="354.5 151.9 358.9 168.1 356.7 168.1 346.9 151.4 354.5 151.9"/>
                </g>
                <rect class="cls-61" x="326.7" y="158.5" width="33.1" height="2.05"/>
                <rect class="cls-70" x="324.7" y="118.6" width="37.1" height="40.39"/>
                <rect class="cls-63" x="326.7" y="120.7" width="33.1" height="13.91"/>
                <rect class="cls-71" x="327.4" y="120.7" width="32.4" height="13.29"/>
                <rect class="cls-63" x="326.7" y="136.9" width="33.1" height="13.91"/>
                <rect class="cls-72" x="327.4" y="136.9" width="32.4" height="13.29"/>
                <rect class="cls-66" x="340.5" y="123.6" width="5.4" height="1.94"/>
                <rect class="cls-66" x="340.5" y="138.8" width="5.4" height="1.94"/>
              </g>
              <g>
                <rect class="cls-73" x="341.3" y="88.4" width="4" height="28.79"/>
                <rect class="cls-74" x="340.5" y="116.6" width="5.5" height="2.05"/>
                <g>
                  <rect class="cls-74" x="350.6" y="88.8" width="0.4" height="12.61"/>
                  <rect class="cls-74" x="350.4" y="101.4" width="0.9" height="1.94"/>
                </g>
                <g>
                  <rect class="cls-75" x="326.9" y="68.3" width="32.8" height="23.93"/>
                  <rect class="cls-76" x="326.9" y="68.3" width="32.8" height="3.14"/>
                </g>
              </g>
            </g>
          </g>
          <g>
            <g>
              <rect class="cls-77" x="103.4" y="4.6" width="47" height="32.89"/>
              <rect class="cls-78" x="106" y="7.2" width="41.9" height="27.72"/>
              <rect class="cls-15" x="109.7" y="10.9" width="34.5" height="20.34"/>
              <g class="cls-79">
                <g>
                  <g>
                    <path class="cls-56" d="M136.4,7.2v.3a5.8,5.8,0,0,1-.2,1c-.1.4-.1.9-.2,1.5a3.1,3.1,0,0,0-.1,1c-.1.3-.1.6-.2,1a23.2,23.2,0,0,1-.2,2.4c-.1.8-.1,1.7-.2,2.6s-.1,1.9-.2,2.9-.1,1.9-.1,2.9l-.3,5.8c0,.9-.1,1.8-.1,2.6s-.1,1.7-.1,2.4-.2,2.7-.2,3.6-.1,1.3-.1,1.3a6,6,0,0,1-.1-1.3,7.6,7.6,0,0,1-.1-1.6,12.1,12.1,0,0,1-.1-2,17.7,17.7,0,0,1-.1-2.4V25.7c0-1,.1-2,.1-3l.2-2.9.3-2.9.3-2.6.2-1.2a5,5,0,0,0,.2-1.2c.2-.7.3-1.4.5-2a15.5,15.5,0,0,1,.4-1.5Z"/>
                    <g>
                      <path class="cls-56" d="M135.4,39.9a6.7,6.7,0,0,1,.1-1c0-.7.1-1.6.2-2.7l.3-1.7.3-1.9c.2-.7.3-1.4.5-2.1a16,16,0,0,1,.5-2.1l.6-2.1.8-2a14.2,14.2,0,0,1,.8-1.8,8,8,0,0,1,.8-1.6l.8-1.2.5-.5.3-.4.4-.3h.2l.2-.2v.2l-.3.2-.2.4-.3.4-.2.2v.3l-.3.6a2.5,2.5,0,0,1-.4.7l-.3.8-.3.8-.6,1.8c-.3.7-.4,1.4-.7,2a16,16,0,0,0-.5,2.1l-.6,2.1-.5,2c-.4,1.3-.7,2.5-1,3.6S135.4,39.9,135.4,39.9Z"/>
                      <path class="cls-57" d="M134.9,38.5a3.1,3.1,0,0,1-.1-.9V34.9c0-.5.1-1.1.1-1.7a15,15,0,0,1,.2-2c.1-.6.1-1.3.2-2a17,17,0,0,0,.4-2.2c.2-.7.3-1.4.5-2.1a11.7,11.7,0,0,1,.5-2l.6-1.9.6-1.7a5.3,5.3,0,0,0,.6-1.4l.6-1.1.4-.9-.2,1-.4,1.1a10.3,10.3,0,0,1-.4,1.4,13.6,13.6,0,0,1-.4,1.7,12.9,12.9,0,0,0-.4,1.9l-.3,1a4.3,4.3,0,0,1-.2,1.1,13,13,0,0,0-.4,2.1,15.5,15.5,0,0,0-.4,2.1c-.1.7-.3,1.4-.4,2l-.3,1.9-.3,1.8Z"/>
                      <path class="cls-57" d="M137.3,37.8v-.7a12.8,12.8,0,0,1,.1-1.8c.1-.4.1-.8.2-1.2l.3-1.4.3-.7a2.5,2.5,0,0,1,.2-.7l.8-1.3a6.4,6.4,0,0,1,1-1.3l1.2-.9h.3l.4-.2.7-.2h1.3l1,.4.7.4.4.4h-.1l-.4-.2L145,28l-1-.2-1.1.2-.5.2h-.3l-.3.2a2.8,2.8,0,0,0-1,.9l-.9,1.1-.7,1.2-.3.6c-.1.2-.1.5-.2.7s-.6,1.7-.8,2.4l-.4,1.7A3.1,3.1,0,0,1,137.3,37.8Z"/>
                    </g>
                    <g>
                      <path class="cls-56" d="M132.8,39.9l-1-3.5a31.5,31.5,0,0,0-.9-3.6,11.7,11.7,0,0,0-.5-2l-.6-2.1a16.6,16.6,0,0,0-.6-2.1l-.6-2-.6-1.8-.3-.8-.4-.8-.3-.7-.3-.6-.2-.3v-.2l-.3-.4-.3-.4-.2-.2v-.2l.2.2h.2l.4.3.3.4a1,1,0,0,1,.4.5l.9,1.2a8,8,0,0,1,.8,1.6,14.2,14.2,0,0,1,.8,1.8,15.9,15.9,0,0,1,.7,2,17.2,17.2,0,0,1,.7,2.1c.2.7.3,1.4.5,2.1s.3,1.4.5,2.1l.3,1.9.3,1.7c.1,1.1.2,2,.2,2.7A6.7,6.7,0,0,1,132.8,39.9Z"/>
                      <path class="cls-57" d="M133.3,38.5l-.5-4.3-.3-2.1-.3-2.4a18.7,18.7,0,0,1-.4-2.5c-.1-.8-.2-1.7-.4-2.6s-.3-1.7-.4-2.5a5.9,5.9,0,0,1-.2-1.3l-.3-1.2c-.1-.8-.3-1.6-.4-2.3s-.3-1.5-.5-2.1l-.3-1.8-.4-1.3a5.6,5.6,0,0,1-.2-1.2,8.2,8.2,0,0,0,.4,1.1l.6,1.3a15.4,15.4,0,0,0,.5,1.7,12.9,12.9,0,0,1,.7,2.1l.6,2.3c.2.8.3,1.6.5,2.5s.3,1.7.5,2.6l.3,2.6.3,2.5c.1.8.1,1.6.2,2.4s.1,1.5.1,2.1v3.2A10.9,10.9,0,0,0,133.3,38.5Z"/>
                      <path class="cls-57" d="M130.9,37.8a3.1,3.1,0,0,1-.2-.7l-.5-1.7c-.2-.7-.4-1.6-.7-2.4a1.9,1.9,0,0,1-.2-.7l-.3-.6-.7-1.2-.9-1.1a4.1,4.1,0,0,0-1-.9l-.3-.2h-.3l-.5-.2-1.2-.2-.9.2-.7.3-.4.2H122l.4-.4.7-.4,1-.4h1.3l.7.2.3.2h.4l1.2.9a6.4,6.4,0,0,1,1,1.3l.8,1.3a2.5,2.5,0,0,1,.2.7l.3.7.3,1.4a4.9,4.9,0,0,1,.1,1.2,16.2,16.2,0,0,1,.2,1.8Z"/>
                    </g>
                  </g>
                  <g>
                    <path class="cls-80" d="M125.8,16.9c1.2.6,1.7,1.7,1.2,2.4s-1.8.6-2.9-.1-2.9-2.4-2.5-3S124.7,16.2,125.8,16.9Z"/>
                    <path class="cls-81" d="M124.5,18c.5,1.3,1.5,2,2.2,1.6s.8-1.7.4-3-2-3.2-2.7-2.8S124,16.8,124.5,18Z"/>
                  </g>
                  <g>
                    <path class="cls-80" d="M140,16.7c.1,1.3-.5,2.3-1.3,2.3s-1.5-1.1-1.6-2.5.3-3.7,1.1-3.7S139.9,15.3,140,16.7Z"/>
                    <path class="cls-81" d="M138.3,16.2c-.7,1.1-.8,2.3,0,2.7s1.9-.3,2.6-1.4,1.5-3.4.8-3.8S139,15.1,138.3,16.2Z"/>
                  </g>
                  <g>
                    <path class="cls-56" d="M115.4,13.7a.8.8,0,0,1-.1.3,5.8,5.8,0,0,1-.2,1,6.1,6.1,0,0,0-.2,1.5c-.1.3-.1.6-.2,1a3.4,3.4,0,0,1-.1,1c-.1.8-.1,1.5-.2,2.4s-.1,1.7-.2,2.6-.1,1.9-.2,2.9-.1,1.9-.1,2.9l-.3,5.8c0,.9-.1,1.8-.1,2.6s-.1,1.7-.1,2.4-.2,2.7-.2,3.6-.1,1.4-.1,1.4a7.9,7.9,0,0,1-.1-1.4V42.1c-.1-.6-.1-1.2-.2-2V37.7a22.5,22.5,0,0,1,0-2.6V29.3l.2-3,.3-2.8.3-2.7c.1-.4.1-.8.2-1.2l.2-1.2a11.7,11.7,0,0,1,.5-2c.1-.5.3-1,.4-1.5Z"/>
                    <g>
                      <path class="cls-56" d="M114.4,46.4v-1c.1-.7.2-1.6.3-2.6L115,41l.3-1.9c.2-.7.3-1.4.5-2.1a16,16,0,0,1,.5-2.1l.6-2.1c.2-.7.5-1.3.7-2a14.2,14.2,0,0,0,.8-1.8l.9-1.6.8-1.2.4-.5c.2-.1.3-.3.4-.4l.3-.3h.3l.2-.2-.2.2-.2.2-.2.4-.3.4-.2.2v.3l-.3.6a4.3,4.3,0,0,1-.4.7l-.3.8-.3.8c-.2.6-.4,1.2-.7,1.9l-.6,1.9-.6,2.1a16,16,0,0,0-.5,2.1l-.6,2q-.5,2-.9,3.6C114.8,45,114.4,46.4,114.4,46.4Z"/>
                      <path class="cls-57" d="M113.9,45.1a4.5,4.5,0,0,1-.1-1V41.4a10.3,10.3,0,0,1,.1-1.7,15,15,0,0,1,.2-2,15,15,0,0,1,.2-2,17,17,0,0,0,.4-2.2c.2-.7.3-1.4.5-2.1a11.7,11.7,0,0,1,.5-2l.6-1.9.6-1.7.6-1.4.5-1.1.5-.9-.3,1-.3,1.1a10.3,10.3,0,0,1-.4,1.4,13.6,13.6,0,0,1-.4,1.7c-.2.6-.3,1.3-.5,1.9a3,3,0,0,1-.2,1c-.1.4-.1.7-.2,1.1a15.5,15.5,0,0,0-.4,2.1,15.5,15.5,0,0,0-.4,2.1,17.7,17.7,0,0,0-.4,2l-.3,2-.3,1.7Z"/>
                      <path class="cls-57" d="M116.3,44.3v-.7a13.6,13.6,0,0,1,.1-1.8c.1-.4.1-.8.2-1.2l.3-1.4a1.4,1.4,0,0,0,.2-.7l.3-.7.8-1.3a2.9,2.9,0,0,1,1-1.2,5.8,5.8,0,0,1,1.2-1h.3l.4-.2h2l1,.4.7.4.4.4h-.1l-.4-.2-.7-.3h-2.1l-.5.2h-.3l-.3.2a2.8,2.8,0,0,0-1,.9l-.9,1.1a7.5,7.5,0,0,0-.7,1.2l-.3.6a2.5,2.5,0,0,0-.2.7c-.3.8-.6,1.7-.8,2.4l-.4,1.7A3.1,3.1,0,0,1,116.3,44.3Z"/>
                    </g>
                    <g>
                      <path class="cls-56" d="M111.8,46.4l-1-3.5a31.5,31.5,0,0,0-.9-3.6l-.5-2-.6-2.1-.6-2.1-.6-1.9-.6-1.9a3,3,0,0,0-.4-.8l-.3-.8L106,27l-.3-.6-.2-.3v-.2l-.3-.4-.3-.4-.2-.2-.2-.2.3.2h.2l.3.3c.2.1.3.3.4.4l.4.5.9,1.2a8,8,0,0,1,.8,1.6,14.2,14.2,0,0,1,.8,1.8,15.9,15.9,0,0,1,.7,2l.7,2.1a16,16,0,0,0,.5,2.1,15.5,15.5,0,0,1,.4,2.1,12.9,12.9,0,0,1,.4,1.9,11,11,0,0,1,.2,1.8,13.8,13.8,0,0,1,.3,2.6A6.7,6.7,0,0,1,111.8,46.4Z"/>
                      <path class="cls-57" d="M112.3,45.1s-.2-1.8-.6-4.4a14.9,14.9,0,0,0-.2-2.1c-.1-.8-.2-1.5-.3-2.4a18.7,18.7,0,0,1-.4-2.5c-.1-.8-.3-1.7-.4-2.5s-.3-1.8-.4-2.6l-.3-1.3a5,5,0,0,0-.2-1.2c-.1-.8-.3-1.6-.4-2.3s-.3-1.5-.5-2.1a11.6,11.6,0,0,0-.4-1.8l-.3-1.3-.3-1.2.5,1.1c.2.4.3.8.5,1.3l.6,1.7a16.6,16.6,0,0,1,.6,2.1,8.6,8.6,0,0,1,.6,2.3l.6,2.5c.2.8.3,1.7.5,2.6l.3,2.6.3,2.5c.1.9.1,1.7.2,2.4a13.4,13.4,0,0,0,.1,2.1v3.2A11.6,11.6,0,0,0,112.3,45.1Z"/>
                      <path class="cls-57" d="M109.9,44.3a3.1,3.1,0,0,1-.2-.7l-.5-1.7c-.2-.7-.4-1.6-.7-2.4l-.3-.7c-.1-.2-.1-.4-.2-.6a7.5,7.5,0,0,1-.7-1.2l-.9-1.1a4.1,4.1,0,0,0-1-.9l-.3-.2h-.3l-.6-.2h-2l-.7.3-.5.2h0l.4-.4.7-.4a2.3,2.3,0,0,1,1-.4h2l.3.2h.4l1.2,1a4,4,0,0,1,1,1.2,8.3,8.3,0,0,1,.7,1.3l.3.7a2.5,2.5,0,0,1,.2.7,10.3,10.3,0,0,1,.4,1.4c0,.4.1.8.1,1.2s.2,1.4.2,1.8Z"/>
                    </g>
                  </g>
                  <g>
                    <path class="cls-80" d="M104.8,23.4c1.2.7,1.7,1.7,1.2,2.4s-1.8.6-3-.1-2.9-2.4-2.4-3S103.7,22.7,104.8,23.4Z"/>
                    <path class="cls-81" d="M103.5,24.5c.5,1.3,1.4,2,2.1,1.6s.9-1.7.4-3-1.9-3.2-2.6-2.8S103,23.3,103.5,24.5Z"/>
                  </g>
                  <g>
                    <path class="cls-80" d="M119,23.2c.1,1.3-.5,2.3-1.3,2.3s-1.5-1.1-1.6-2.4.3-3.8,1.1-3.8S118.9,21.9,119,23.2Z"/>
                    <path class="cls-81" d="M117.3,22.7c-.8,1.1-.8,2.3,0,2.7s1.9-.2,2.6-1.4,1.5-3.4.8-3.8S118,21.6,117.3,22.7Z"/>
                  </g>
                </g>
              </g>
            </g>
            <g>
              <rect class="cls-82" x="308.6" y="4.6" width="47" height="32.89"/>
              <rect class="cls-83" x="311.1" y="7.2" width="41.9" height="27.72"/>
              <rect class="cls-15" x="314.8" y="10.9" width="34.5" height="20.34"/>
              <g class="cls-84">
                <polygon class="cls-85" points="314.8 31.2 321.7 22.9 324.8 23.6 327.5 18.7 328.8 19.5 330.6 11.8 337.2 22.9 341.1 25.2 345.8 32.8 314.8 32.8 312.9 32.1 314.8 31.2"/>
                <ellipse class="cls-86" cx="342.1" cy="16.1" rx="5.9" ry="0.6"/>
                <circle class="cls-87" cx="343.2" cy="15.8" r="1.9"/>
                <polygon class="cls-88" points="324.8 23.6 326.8 33.6 327.5 18.7 324.8 23.6"/>
                <polygon class="cls-88" points="330.6 11.8 336.1 31.3 337.2 22.9 330.6 11.8"/>
                <polygon class="cls-88" points="321.7 22.9 319.6 25.4 320.9 31.2 321.7 22.9"/>
                <polygon class="cls-88" points="341.1 25.2 340.8 31.2 343.3 28.9 341.1 25.2"/>
              </g>
            </g>
          </g>
        </g>
      </g>
    </g>
    <g id="lumbing">
      <text class="cls-89" transform="translate(207.7 223.7)"><tspan class="cls-90">A</tspan><tspan x="39.2" y="0">C</tspan></text>
    </g>
    <g id="Horticulture">
      <g class="cls-91">
        <g>
          <g>
            <path class="cls-92" d="M140.6,168.8s-2.2,2.8-2.3,3.1a3.2,3.2,0,0,0-.5,2,20.3,20.3,0,0,1-.7,2.7c-.2.6-.6,1.1-.5,1.3a1.3,1.3,0,0,0,1.7.2,2,2,0,0,0,1-1.7,22.3,22.3,0,0,1,.8-2.4,4.6,4.6,0,0,1,1-1.4l1.1-1.6Z"/>
            <path class="cls-92" d="M139.2,167.4s-3.1,2.8-3.3,3.1a4.9,4.9,0,0,0-1,2.1,9.2,9.2,0,0,1-1.3,2.8c-.4.6-.9,1.1-.8,1.3s.8.9,1.9.4a2.8,2.8,0,0,0,1.6-1.7c.2-.4.9-1.8,1.4-2.6a7.6,7.6,0,0,1,1.4-1.3l1.7-1.6Z"/>
            <path class="cls-92" d="M137.6,165.8l-4.1,2.8a6.8,6.8,0,0,0-1.4,2,9.6,9.6,0,0,1-1.9,2.8c-.4.6-1.1,1-1,1.3s.6,1,1.9.7a3.1,3.1,0,0,0,2-1.5,16.5,16.5,0,0,1,1.9-2.5,6.1,6.1,0,0,1,1.8-1.2l2-1.4Z"/>
            <path class="cls-92" d="M136.6,164l-4.2,1.8a5.8,5.8,0,0,0-1.6,1.6,9,9,0,0,1-2.2,2.2c-.5.5-1.2.8-1.2,1s.4,1.1,1.6,1a2.6,2.6,0,0,0,2.1-1.1,25.3,25.3,0,0,1,2.2-1.9,8.3,8.3,0,0,1,1.8-.8l2.1-1Z"/>
            <path class="cls-44" d="M136.1,163.2a6.9,6.9,0,0,0,1.7,5.4c1.9,2.5,2.2,3.2,3.3,3.3a13.2,13.2,0,0,0,5.3,0c2.3-.6,2.8-1.6,2.8-1.6l-.7-7.1Z"/>
            <path class="cls-93" d="M180.7,155.9s-4.5,4.1-5.8,4.4-20.9,1.6-20.9,1.6v7.9l19.7,1.5c4.1.2,7,0,8.8-1.3s6.4-5.4,6.4-5.4Z"/>
            <path class="cls-92" d="M155.1,160.3c-.7-.1-6.1.8-6.6.8s-1.2.1-1.2,1.1.4,5.5.5,7.2.4,1.8.9,1.9a25.1,25.1,0,0,0,5,.6c1.5,0,2.3,0,2.3-.8S155.9,160.4,155.1,160.3Z"/>
            <path class="cls-92" d="M147.9,164.9c-2,1.3-2.9,2.5-6.8,1.7s-4.1-2.5-5.1-2.3-2.3,1-3.9.8-2.9-1.1-2.1-1.7a12.5,12.5,0,0,1,3.1-1.6c1.3-.6,1.9-1.1,3.4-1.1s4.1.4,6.3.3a29,29,0,0,1,4.1-.3,3.1,3.1,0,0,1,1,.8Z"/>
          </g>
          <g>
            <path class="cls-45" d="M192.6,137.7l-4.9,4.1a13.2,13.2,0,0,0-4.4,5.7c-1.4,3.1-2.5,6.1-3.6,7s-1.4,1.2-1.2,1.9,1.8,3.5,5.7,6.8,5.2,3,5.6,2.8a14.9,14.9,0,0,0,1.8-2.4l6.1,15.5h29.2s-.2-7.1,0-13.3,1.7-17.6-5.4-23a100.9,100.9,0,0,0-14-8.7Z"/>
            <g>
              <path class="cls-94" d="M194.2,131.7a25.9,25.9,0,0,1,0,4c-.2.9-1.7,2-1.8,2.3s-.3,5.4,4.6,5.7c7.6.5,11.1-8.5,10.7-9.2s-2.7-1.8-3.3-3.7a32.5,32.5,0,0,1-.8-5.7h-9.5Z"/>
              <path class="cls-95" d="M204,128.6c-.3-1.8-.4-3.5-.4-3.5h-9.5v6.6a25.9,25.9,0,0,1,0,4,4.8,4.8,0,0,1-1.3,1.6A13.4,13.4,0,0,0,204,128.6Z"/>
              <path class="cls-96" d="M182.9,109.4a21.9,21.9,0,0,0-.9,9.7,19.7,19.7,0,0,1,.5,5.7,11,11,0,0,0,2.3,7.3c2,2.3,3.3,4,5.2,4,3.8,0,8.2-3.4,10.2-5.5a9.7,9.7,0,0,0,2.5-4.4s4.4-2.4,4.5-10.6a12.4,12.4,0,0,0-12.2-13C188.6,102.6,184.2,105.5,182.9,109.4Z"/>
              <path class="cls-97" d="M198,113.6a3.7,3.7,0,0,0-3.8-1.8c-2.1.4-6.5,3.2-9.3,3.1a7.7,7.7,0,0,1-5.2-1.9c-1.4-1.1-2.2-3.1-1.8-3.1a8.7,8.7,0,0,0,2.3-.5c-1.2-.6-2.1-2.9-1.8-3.1a6.7,6.7,0,0,0,4.9-2.1,15.2,15.2,0,0,1,11.1-4.7c5.8-.2,8.8,1.6,10.2,3.2A10,10,0,0,1,207,107s3.3,1.9,2.7,8.2-3,9-4.5,10.5l-2.4-6.3a14.3,14.3,0,0,1-.8,2.9c-.2.4-1.3.4-1.3,0v-3.1a2,2,0,0,0-.6-1.3c-.3-.2-1.6-.6-1.6-1.2A8.4,8.4,0,0,0,198,113.6Z"/>
              <path class="cls-98" d="M202.8,119.4s.3-1.7,1.4-1.8,3.1.5,3,3.9-2.4,5.4-4.6,5.1Z"/>
            </g>
            <path class="cls-45" d="M189.2,151.9c.1-1.2-.2-4.3,3.1-4.3s13.9-.5,16.3-.5,2.7.4,3,2.9.9,11.5,5.7,18.1,9.1,7.4,9.9,7.8,1.3,1.5,1.3,3.2v27.8h-37s3.8-26.5,3.2-30.8S189.2,162.2,189.2,151.9Z"/>
            <g>
              <path class="cls-99" d="M145.6,189.4a90.2,90.2,0,0,0,1.7-10.7c.3-4.3,0-16.3-.5-18.4s-.6-4.6-1.2-6.5a32.3,32.3,0,0,0-3.4-7c-1.2-1.8-5-10-6.1-11.3a6.1,6.1,0,0,1-1.5-4.3c0-1.7.1-11.9,0-13.4s-.2-3.4-.2-4.9a52.1,52.1,0,0,1,.4-8.5c.6-2.3,0-4-.1-5.8s.5-5.7.5-5.7l.5,1.6a18.6,18.6,0,0,0-.3,4.2,40.3,40.3,0,0,1,.5,5c0,1.7-.5,2.3-.4,5.1s.2,6,.4,7.7.1,7.9.3,10,0,4.4,1,6.7a62,62,0,0,0,4,7.5c1.6,2.7,4.4,7.7,5.2,9.1s1.3,1.8,1.5,3.4,1.6,5.7,1.7,7.7.5,5.1.5,7.9a75.7,75.7,0,0,0,.6,9.5c.3,2.9,1.5,7.3,1.4,11.1Z"/>
              <path class="cls-99" d="M135.4,134.5a16.7,16.7,0,0,1-2.8-4.5c-.5-.7-2.2-2.5-2.4-2.8s-.9-4.9-1.1-5.6-.7-3.5-1.1-4.9-.8-4.2-1.2-6.1-.7-3.5-.7-3.5l.3.2a34,34,0,0,1,1,3.3c.1.5.7,3.5.9,4.2s.6,1.5.8,2.4a37,37,0,0,0,.9,4.9c.5,1.2,1.1,3.6,1.5,4.7a4.8,4.8,0,0,0,1.5,1.8l2.4,2.9Z"/>
              <path class="cls-99" d="M135.7,127a46.3,46.3,0,0,1,2-5.5c.9-1.8,1-3.1,1.8-4.9s1.7-3.3,1.8-5,.6-5.8.6-5.8l-.7.5s-.3,4.3-.5,5.4a28.7,28.7,0,0,1-2.3,5.1c-.7,1.1-3,6.9-3,6.9Z"/>
              <path class="cls-99" d="M149.2,162.5a59.8,59.8,0,0,0,2.9-7.5,31.7,31.7,0,0,1,2.8-9.1c1.5-3,3.1-6,4.1-7.8s3.2-4.4,3.6-5.7,1.1-5.9,1.7-7.3a37.1,37.1,0,0,0,1.3-5l-.5.7-1.9,5.2c-.4,1-1.2,5.3-1.7,6.5a18.6,18.6,0,0,1-3.5,4.6c-.8.4-.9,1.5-1.1,2.1s-2.7,5.4-3.6,6.9-2.3,3.5-2.5,3.9-1.3,6.7-2.6,8.9Z"/>
              <path class="cls-99" d="M152.8,148.3a54.2,54.2,0,0,0-.3-7.2c-.3-2.4-1.3-5.2-1.2-6.6a56.6,56.6,0,0,1,.4-5.7c.1-1.7.4-3.8.4-5s0-3.7,0-3.7l.3.7v3.3a39.2,39.2,0,0,1,.1,4.8,27.4,27.4,0,0,0-.4,6c.2,1.1,1.5,5,1.7,6.2s.4,4.2.4,4.2Z"/>
              <g>
                <path class="cls-100" d="M160.5,148.3c-3,1-5.9-1.7-5.9-1.7s.6-4,3.7-5,7.3,1.2,7.3,1.2S163.6,147.2,160.5,148.3Z"/>
                <path class="cls-101" d="M160.5,148.3c3.1-1.1,5.1-5.5,5.1-5.5l-11,3.8S157.5,149.3,160.5,148.3Z"/>
              </g>
              <g>
                <path class="cls-102" d="M146.6,137.9c-.8,3.1-4.7,4-4.7,4s-2.9-2.8-2.1-5.9,5.2-5.4,5.2-5.4S147.5,134.8,146.6,137.9Z"/>
                <path class="cls-103" d="M146.6,137.9c.9-3.1-1.6-7.3-1.6-7.3l-3.1,11.3S145.8,141,146.6,137.9Z"/>
              </g>
              <g>
                <path class="cls-104" d="M137.9,142.1c3.2.4,4.7,4.2,4.7,4.2s-2.4,3.3-5.6,2.9-6-4.4-6-4.4S134.7,141.7,137.9,142.1Z"/>
                <path class="cls-105" d="M137.9,142.1c-3.2-.4-6.9,2.7-6.9,2.7l11.6,1.5S141.1,142.5,137.9,142.1Z"/>
              </g>
              <g>
                <path class="cls-106" d="M164.6,138.3c-2.4.9-4.8-1.3-4.8-1.3s.5-3.2,3-4,5.9.9,5.9.9S167.1,137.5,164.6,138.3Z"/>
                <path class="cls-107" d="M164.6,138.3c2.5-.8,4.1-4.4,4.1-4.4l-8.9,3.1S162.2,139.2,164.6,138.3Z"/>
              </g>
              <g>
                <path class="cls-108" d="M129.8,126.1c2.4.9,2.9,4.1,2.9,4.1s-2.5,2.2-4.9,1.2-3.9-4.5-3.9-4.5S127.4,125.2,129.8,126.1Z"/>
                <path class="cls-109" d="M129.8,126.1c-2.4-.9-5.9.8-5.9.8l8.8,3.3S132.2,127,129.8,126.1Z"/>
              </g>
              <g>
                <path class="cls-110" d="M126.2,110.3c1.7,1.2,1.4,3.7,1.4,3.7s-2.2,1.2-3.9,0-2.1-4.2-2.1-4.2S124.6,109.2,126.2,110.3Z"/>
                <path class="cls-111" d="M126.2,110.3c-1.6-1.1-4.6-.5-4.6-.5l6,4.2S127.9,111.5,126.2,110.3Z"/>
              </g>
              <g>
                <path class="cls-112" d="M140.8,108.8a4,4,0,0,1,.1,3.5s-2.2.3-3.3-1.1-.6-4.2-.6-4.2S139.7,107.4,140.8,108.8Z"/>
                <path class="cls-113" d="M140.8,108.8c-1.1-1.4-3.8-1.8-3.8-1.8l3.9,5.3A4,4,0,0,0,140.8,108.8Z"/>
              </g>
              <g>
                <path class="cls-114" d="M134.6,93.4a4,4,0,0,1,.1,3.5s-2.3.3-3.3-1.1-.6-4.2-.6-4.2S133.5,92,134.6,93.4Z"/>
                <path class="cls-115" d="M134.6,93.4c-1.1-1.4-3.8-1.8-3.8-1.8l3.9,5.3A4,4,0,0,0,134.6,93.4Z"/>
              </g>
              <g>
                <path class="cls-116" d="M135.4,111.6c1.3,2.2-.5,4.9-.5,4.9s-3.2.1-4.5-2.2,0-6,0-6S134.2,109.3,135.4,111.6Z"/>
                <path class="cls-117" d="M135.4,111.6c-1.2-2.3-5-3.3-5-3.3l4.5,8.2S136.7,113.8,135.4,111.6Z"/>
              </g>
              <g>
                <path class="cls-118" d="M159.6,134.3c.5,2.5-2,4.5-2,4.5s-3.1-.9-3.6-3.5,1.8-5.7,1.8-5.7S159.1,131.7,159.6,134.3Z"/>
                <path class="cls-119" d="M159.6,134.3c-.5-2.6-3.8-4.7-3.8-4.7l1.8,9.2S160.1,136.8,159.6,134.3Z"/>
              </g>
              <g>
                <path class="cls-120" d="M143.2,120c-2.3,1.2-4.9-.6-4.9-.6s0-3.3,2.3-4.5,6,.1,6,.1S145.5,118.8,143.2,120Z"/>
                <path class="cls-121" d="M143.2,120c2.3-1.2,3.4-5,3.4-5l-8.3,4.4S140.9,121.2,143.2,120Z"/>
              </g>
              <g>
                <path class="cls-122" d="M133.5,121.9c-1,1.9-3.5,1.8-3.5,1.8s-1.4-2.1-.5-3.9,4-2.6,4-2.6S134.4,120.1,133.5,121.9Z"/>
                <path class="cls-123" d="M133.5,121.9c.9-1.8,0-4.7,0-4.7l-3.5,6.5S132.5,123.8,133.5,121.9Z"/>
              </g>
              <g>
                <path class="cls-124" d="M145.2,105.3c-1,1.8-3.5,1.8-3.5,1.8s-1.5-2.1-.5-3.9,4-2.6,4-2.6S146.1,103.5,145.2,105.3Z"/>
                <path class="cls-125" d="M145.2,105.3c.9-1.8,0-4.7,0-4.7l-3.5,6.5S144.2,107.1,145.2,105.3Z"/>
              </g>
              <g>
                <path class="cls-126" d="M139.2,101.9c-1.4,1.4-3.8.7-3.8.7s-.8-2.5.7-3.9,4.6-1.3,4.6-1.3S140.7,100.5,139.2,101.9Z"/>
                <path class="cls-127" d="M139.2,101.9c1.5-1.4,1.5-4.5,1.5-4.5l-5.3,5.2S137.8,103.3,139.2,101.9Z"/>
              </g>
              <g>
                <path class="cls-128" d="M163.8,122.4c.9,1.8-.7,3.9-.7,3.9s-2.5-.1-3.4-2,.2-4.8.2-4.8S162.9,120.5,163.8,122.4Z"/>
                <path class="cls-129" d="M163.8,122.4c-.9-1.9-3.9-2.9-3.9-2.9l3.2,6.8S164.7,124.2,163.8,122.4Z"/>
              </g>
              <g>
                <path class="cls-130" d="M167.1,130.6c-1.8,1-4-.4-4-.4s0-2.6,1.8-3.6,4.8-.1,4.8-.1S168.9,129.6,167.1,130.6Z"/>
                <path class="cls-131" d="M167.1,130.6c1.8-1,2.6-4.1,2.6-4.1l-6.6,3.7S165.3,131.6,167.1,130.6Z"/>
              </g>
            </g>
            <g>
              <path class="cls-132" d="M206.7,162.7s-4.5,7.6-6.7,10-17.5,11.4-18.8,12l1.9,8.3s12.8-4.4,18.4-7.3,9-5,10.2-6.6S217,171,217,171Z"/>
              <path class="cls-44" d="M214.9,143.9c-2.4,2.2-10.3,18.3-10.3,18.8s2.4,3.6,6.5,6.9,7,4.7,7.4,4.3,8.2-8.2,8.6-11.8.3-11.4-2.3-15.6S217.8,141.3,214.9,143.9Z"/>
            </g>
          </g>
        </g>
        <g>
          <circle class="cls-27" cx="272.3" cy="63.1" r="35.5"/>
          <circle class="cls-27" cx="411.2" cy="67.4" r="35.5"/>
          <circle class="cls-27" cx="460.2" cy="144.9" r="35.5"/>
          <circle class="cls-27" cx="228.3" cy="145.8" r="35.5"/>
          <circle class="cls-133" cx="340.2" cy="168.9" r="122.5"/>
          <g>
            <path class="cls-134" d="M236.6,171.2l-1-12.6a1.3,1.3,0,0,0-1.4-1.2l-13.9,1.1a1.3,1.3,0,0,0-1.2,1.4l1,12.6a1.2,1.2,0,0,0,1.4,1.2h.9a1.4,1.4,0,0,0,1.2-1.5v-.5a37.7,37.7,0,0,0,4.7-.2,31.6,31.6,0,0,0,4.7-.6v.6a1.4,1.4,0,0,0,1.4,1.2h.9A1.3,1.3,0,0,0,236.6,171.2Zm-15.3-9.7a1,1,0,0,1-1.1-.9,1,1,0,0,1,.9-1.1.9.9,0,0,1,1.1.9C222.3,160.9,221.8,161.4,221.3,161.5Zm12.5-1a1,1,0,0,1-1.1-1,1.2,1.2,0,0,1,.9-1.1,1,1,0,0,1,1.1,1A1,1,0,0,1,233.8,160.5Zm-1,7.1-4.8.2-4.7.6-.5-5.8,9.5-.8Z"/>
            <path class="cls-135" d="M234.7,159.4a1,1,0,0,0-1.1-1,1.2,1.2,0,0,0-.9,1.1,1,1,0,0,0,1.1,1A1,1,0,0,0,234.7,159.4Z"/>
            <path class="cls-135" d="M222.2,160.4a.9.9,0,0,0-1.1-.9,1,1,0,0,0-.9,1.1,1,1,0,0,0,1.1.9C221.8,161.4,222.3,160.9,222.2,160.4Z"/>
            <polygon class="cls-136" points="234.2 157.4 232 155.7 233.2 154.4 231.8 153.3 233 152 231.6 150.9 232.8 149.6 231.4 148.5 232.6 147.2 231.2 146.1 232.4 144.7 231 143.7 232.2 142.3 230.8 141.3 232.1 139.9 230.6 138.8 231.9 137.5 230.4 136.4 231.7 135.1 230.2 134 231.5 132.7 230 131.6 231.3 130.3 229.8 129.2 231.1 127.9 229.6 126.8 230.9 125.5 229.4 124.4 231.4 122.4 221 123.2 221.1 158.4 234.2 157.4"/>
            <polygon class="cls-137" points="221 150.9 231.3 139.4 230.6 138.8 231.9 137.5 230.4 136.4 231.7 135.1 230.2 134 231.5 132.7 230 131.6 231.3 130.3 229.8 129.2 231.1 127.9 229.6 126.8 230.9 125.5 229.4 124.4 231.4 122.4 228.9 122.6 221 132.3 221 150.9"/>
            <polygon class="cls-138" points="234.2 157.4 232 155.7 232.5 155.1 221.1 157 221.1 158.4 234.2 157.4"/>
          </g>
          <g>
            <g>
              <path class="cls-135" d="M289.7,39l-1.1.5a31.5,31.5,0,0,0-6.8,5.2,5.4,5.4,0,0,0-.5,1.1h-.2l-.2-.2a9.3,9.3,0,0,0-2.5-1.4l-.5-.2.2-.5a3.4,3.4,0,0,1,.7-1.5l1.8.9L279,41.5c1.7-2.4,5.1-4.6,6.8-5.7l1.1,1.5-.7-1.7.6-.3.6-.4,2.3,4.1Z"/>
              <path class="cls-139" d="M296.7,51.7l-7.4,4.1-.3-.5-.8-1.3-.7-1.2-2-2.8-.5-.5a23,23,0,0,0-2-2.2l-1-.9-.2-.2-.5-.4a5.4,5.4,0,0,1,.5-1.1,31.5,31.5,0,0,1,6.8-5.2l1.1-.5Z"/>
            </g>
            <path class="cls-140" d="M288.7,54.8l-6.8,3.7-3.1,1.8-9.2,5.1-.7.4-2,1-.8.4L261,70l-3.8,2.1-.2.2-5.9,3.3s-4.8-1.2-5-1.6,1.6-3.2,1.8-3.3a87.9,87.9,0,0,0,10.2-3.5l.7-.3h.1l3.1-1.5.4-.2h0l1.2-.5.6-.3,1.6-.8.8-.3,2.1-1.2,8.6-4.9a24.5,24.5,0,0,0,2.9-1.8c3.6-2.1,5.4-3.4,6.3-4Z"/>
            <polygon class="cls-140" points="262.4 65.2 262 65.4 262 65.4 262.4 65.2"/>
            <path class="cls-138" d="M288.7,54.8l-1.9,1.1a5.3,5.3,0,0,0-1.3-3.8,4.6,4.6,0,0,1,1-.7l.5.7.5.7.7,1.2Z"/>
            <path class="cls-141" d="M265.8,63.6l-1.6.8c0-.1,0-.1-.1-.1h0v-.2l-.4-1.1h-.1a1,1,0,0,1,.5-1.2.9.9,0,0,1,1.1.4v.2l.3.8.2.5Z"/>
            <path class="cls-141" d="M262,65.4h-.1l-.4.8a.9.9,0,0,1-.7.3h-.3l-.2.3v.3a.8.8,0,0,1-.9.2h0a.1.1,0,0,0-.1-.1h-.3l.4-.7h.1c0-.1.1-.1.2-.1h.5l.2-.3.3-.5h0a.1.1,0,0,1,.1-.1h.9l.3.3h0A1.3,1.3,0,0,1,262,65.4Z"/>
            <path class="cls-141" d="M263.8,64.2h-.1v.3l-.3.4a.9.9,0,0,1-.9.2h0q-.3-.2-.3-.3h0a.9.9,0,0,1-.1-.5h.1l.5-.8h0a.5.5,0,0,1,.8-.2h.2A.7.7,0,0,1,263.8,64.2Z"/>
            <polygon class="cls-142" points="263.1 80.3 259.4 89.3 249.2 85.7 254.1 76.5 254.6 76.8 262.4 80 263.1 80.3"/>
            <polygon class="cls-143" points="296.9 52.3 296.2 52.9 302 61.2 296.9 52.3"/>
            <polygon class="cls-143" points="298.5 58.1 294.8 53.9 295.5 53.4 298.5 58.1"/>
            <polygon class="cls-143" points="288.4 35.1 302.3 55.4 293.1 43.5 288.4 35.1"/>
            <polygon class="cls-143" points="293.9 45.4 303.1 58.9 296 49.1 293.9 45.4"/>
            <path class="cls-141" d="M268.1,70.1h0a16.9,16.9,0,0,1-2.7,4.2c-.6.6-1,.6-1,.8a8.5,8.5,0,0,0-1.2,2.3l-.8,2.6-7.7-3.2,2.1-3.6.4-1.1L261,70l5.1-2.8.8-.4c0-3.4,2-4,2-1v.6h0v1.3A6.3,6.3,0,0,1,268.1,70.1Z"/>
            <path class="cls-144" d="M265.9,68.6h-1.2a4.5,4.5,0,0,0-3.7,3.4l-.5.4c-.8.1-2.7.4-5,4.6l-.8-.3,2.1-3.6.4-1.1L261,70l5.1-2.8.8-.4A2.3,2.3,0,0,1,265.9,68.6Z"/>
            <polygon class="cls-138" points="262 79.8 261 82.2 260.4 83.6 259.6 85.3 259 86.7 258.1 88.9 256.4 88.3 257.4 86 258 84.6 258.7 82.9 259.3 81.5 260.3 79.2 262 79.8"/>
            <polygon class="cls-138" points="259.2 78.7 258.2 81 257.5 82.4 256.7 84.1 256 85.5 255 87.8 253.3 87.2 254.4 84.8 255.1 83.4 255.8 81.7 256.5 80.3 257.6 78 259.2 78.7"/>
            <polygon class="cls-138" points="256.7 77.6 255.5 79.9 254.8 81.3 253.9 82.9 253.2 84.3 251.9 86.7 250.2 86 251.5 83.6 252.2 82.2 253.1 80.6 253.8 79.2 255 76.9 256.7 77.6"/>
            <polygon class="cls-138" points="262.1 82.7 261.5 84.1 260.4 83.6 258.7 82.9 257.5 82.4 255.8 81.7 254.8 81.3 253.1 80.6 252.2 80.2 252.9 78.8 253.8 79.2 255.5 79.9 256.5 80.3 258.2 81 259.3 81.5 261 82.2 262.1 82.7"/>
            <polygon class="cls-138" points="260.8 85.8 260.2 87.2 259 86.7 257.4 86 256 85.5 254.4 84.8 253.2 84.3 251.5 83.6 250.5 83.2 251.3 81.8 252.2 82.2 253.9 82.9 255.1 83.4 256.7 84.1 258 84.6 259.6 85.3 260.8 85.8"/>
          </g>
          <g>
            <path class="cls-145" d="M407,69.2,386.5,55.7a4.9,4.9,0,0,1-1.3-6.6,4.4,4.4,0,0,1,3-2,4.3,4.3,0,0,1,3.6.7l20.4,13.5-.4.7L391.3,48.5A3.9,3.9,0,0,0,387,55l20.5,13.5-.4.6Z"/>
            <path class="cls-145" d="M388,53.6a2.2,2.2,0,0,1-.6-3.1,2.1,2.1,0,0,1,3-.6,2.3,2.3,0,0,1,.7,3.1A2.2,2.2,0,0,1,388,53.6Z"/>
            <path class="cls-145" d="M406.1,65.6a2.2,2.2,0,0,1-.6-3.1,2.1,2.1,0,0,1,3-.6,2.2,2.2,0,0,1,.6,3.1A2.1,2.1,0,0,1,406.1,65.6Z"/>
            <path class="cls-135" d="M411.8,62,391.3,48.5A3.9,3.9,0,0,0,387,55l20.5,13.5ZM388,53.6a2.2,2.2,0,0,1-.6-3.1,2.1,2.1,0,0,1,3-.6,2.3,2.3,0,0,1,.7,3.1A2.2,2.2,0,0,1,388,53.6Zm18.1,12a2.2,2.2,0,0,1-.6-3.1,2.1,2.1,0,0,1,3-.6,2.2,2.2,0,0,1,.6,3.1A2.1,2.1,0,0,1,406.1,65.6Z"/>
            <path class="cls-146" d="M409.1,72.4l-1.5-1.1a1.5,1.5,0,0,1-.5-2.2l.4-.6,4.3-6.5.4-.7,2.6-3.9a1.7,1.7,0,0,1,2.3-.4l1.5,1a1.6,1.6,0,0,1,.5,2.3l-1,1.5-6.7,10.1A1.8,1.8,0,0,1,409.1,72.4Z"/>
            <path class="cls-145" d="M415.1,58.5h0l-.7-3.4a.9.9,0,0,1,.1-.9l3.3-4.9a1.3,1.3,0,0,1,1.7-.4,1.3,1.3,0,0,1,.3,1.7L416.9,55l.6,2.8a1.3,1.3,0,0,1-1,1.5A1.2,1.2,0,0,1,415.1,58.5Z"/>
            <path class="cls-146" d="M424.4,82.9l-12.6-8.3a1.9,1.9,0,0,1-.5-2.6h.1l6.7-10.1a1.7,1.7,0,0,1,2.5-.5l1.1.7.7.4,2,1.4.7.4,4.2,2.8.5.5,2.4,3.5-3.5,5.3-2.8,4.3h0Z"/>
            <path class="cls-147" d="M419.9,72.9,415.6,70a.7.7,0,1,1,.7-1.1l4.3,2.9a.7.7,0,1,1-.7,1.1Z"/>
            <path class="cls-147" d="M418.7,74.6l-4.3-2.9a.7.7,0,0,1-.2-.9.8.8,0,0,1,.9-.2l4.3,2.9a.7.7,0,0,1-.7,1.1Z"/>
            <path class="cls-147" d="M417.6,76.3l-4.3-2.8a.7.7,0,1,1,.7-1.1l4.3,2.9a.5.5,0,0,1,.2.8A.6.6,0,0,1,417.6,76.3Z"/>
            <path class="cls-145" d="M432.2,88.1l-7.8-5.2,1.5-2.3,7,4.6,2.8-4.1v-.2l-4.9-7.6h0l1.5-2.3,5.7,8.4c.7,1,1.1,1.7.5,2.5l-3.7,5.6A1.8,1.8,0,0,1,432.2,88.1Z"/>
            <path class="cls-148" d="M422.4,68.9a2.7,2.7,0,0,0,1.5-3.4c-.1-.2-.1-.4-.3-.6l3.9-5.9a1.2,1.2,0,0,0-.3-1.7,1.3,1.3,0,0,0-1.7.3l-3.9,5.9a3.2,3.2,0,0,0-1.3.2,2.7,2.7,0,0,0-1.8,3.5,3.4,3.4,0,0,0,1.4,1.7,2.8,2.8,0,0,0,2.2.1Zm-2.3-2.2a1.2,1.2,0,0,1,.7-1.5,1.2,1.2,0,0,1,1.6.8,1.2,1.2,0,0,1-.8,1.5A1.2,1.2,0,0,1,420.1,66.7Z"/>
            <path class="cls-149" d="M411.4,71.9l6.7-10.1a1.8,1.8,0,0,1,2.6-.5l.4.3Z"/>
          </g>
        </g>
      </g>
    </g>
  </g>
</svg>
