<?xml version="1.0" encoding="utf-8"?>
<!-- Generator: Adobe Illustrator 16.0.0, SVG Export Plug-In . SVG Version: 6.00 Build 0)  -->
<!DOCTYPE svg PUBLIC "-//W3C//DTD SVG 1.1//EN" "http://www.w3.org/Graphics/SVG/1.1/DTD/svg11.dtd">
<svg version="1.1" id="Layer_1" xmlns="http://www.w3.org/2000/svg" xmlns:xlink="http://www.w3.org/1999/xlink" x="0px" y="0px"
	 width="24px" height="24px" viewBox="0 0 24 24" enable-background="new 0 0 24 24" xml:space="preserve">
<g>
	<path fill="#333333" d="M23.785,8.358c-1.531-1.531-3.313-2.732-5.298-3.572C16.432,3.917,14.25,3.477,12,3.477
		c-2.25,0-4.432,0.44-6.487,1.31c-1.985,0.84-3.767,2.042-5.297,3.572c-0.238,0.238-0.284,0.606-0.112,0.895l5.682,9.561
		c0.132,0.223,0.373,0.359,0.632,0.359h0.705c0.091,0.343,0.213,0.672,0.332,0.991c0.113,0.305,0.221,0.593,0.294,0.871
		c0.072,0.272,0.106,0.52,0.106,0.754c0,0.406,0.329,0.734,0.735,0.734s0.734-0.328,0.734-0.734c0-0.362-0.05-0.731-0.155-1.127
		c-0.092-0.35-0.217-0.686-0.337-1.01c-0.061-0.164-0.12-0.324-0.173-0.479h2.259c0.091,0.342,0.213,0.672,0.332,0.991
		c0.114,0.305,0.221,0.593,0.294,0.871c0.072,0.273,0.106,0.52,0.106,0.754c0,0.406,0.329,0.734,0.735,0.734
		c0.405,0,0.734-0.328,0.734-0.734c0-0.362-0.051-0.73-0.155-1.127c-0.092-0.35-0.217-0.686-0.337-1.01
		c-0.062-0.164-0.12-0.324-0.173-0.479h2.259c0.091,0.342,0.214,0.672,0.332,0.991c0.113,0.305,0.221,0.593,0.294,0.871
		c0.072,0.273,0.106,0.52,0.106,0.754c0,0.406,0.329,0.734,0.735,0.734c0.405,0,0.734-0.328,0.734-0.734
		c0-0.362-0.051-0.73-0.155-1.127c-0.092-0.35-0.217-0.686-0.337-1.01c-0.062-0.164-0.121-0.324-0.174-0.479h1.336
		c0.259,0,0.499-0.137,0.631-0.359l5.682-9.561C24.068,8.964,24.022,8.595,23.785,8.358z M16.043,17.703
		c0.018-0.137,0.045-0.279,0.085-0.43c0.073-0.279,0.181-0.566,0.294-0.871c0.121-0.325,0.246-0.661,0.338-1.01
		c0.104-0.396,0.154-0.766,0.154-1.127c0-0.363-0.051-0.731-0.154-1.128c-0.048-0.179-0.104-0.354-0.162-0.525h0.607
		c0.279,0,0.419-0.337,0.222-0.535L16.08,10.73c-0.123-0.123-0.321-0.123-0.443,0l-1.348,1.347
		c-0.197,0.197-0.058,0.535,0.222,0.535h0.524c0.004,0.009,0.006,0.019,0.01,0.028c0.113,0.305,0.22,0.592,0.293,0.872
		c0.072,0.271,0.106,0.519,0.106,0.753c0,0.235-0.034,0.481-0.106,0.754c-0.073,0.278-0.18,0.566-0.293,0.871
		c-0.121,0.325-0.246,0.661-0.338,1.01c-0.073,0.279-0.119,0.544-0.141,0.804h-2.319c0.018-0.137,0.045-0.279,0.085-0.43
		c0.073-0.279,0.18-0.566,0.293-0.871c0.121-0.325,0.246-0.661,0.338-1.01c0.104-0.396,0.155-0.766,0.155-1.128
		s-0.051-0.731-0.155-1.127c-0.047-0.179-0.103-0.354-0.162-0.525h0.546c0.279,0,0.418-0.337,0.221-0.535l-1.347-1.347
		c-0.123-0.123-0.321-0.123-0.443,0l-1.348,1.347c-0.197,0.197-0.058,0.535,0.222,0.535h0.587c0.003,0.009,0.005,0.019,0.009,0.027
		c0.113,0.305,0.22,0.593,0.293,0.872c0.072,0.271,0.107,0.519,0.107,0.753s-0.035,0.481-0.107,0.754
		c-0.073,0.278-0.18,0.566-0.293,0.871c-0.121,0.325-0.246,0.661-0.337,1.01c-0.073,0.279-0.12,0.544-0.141,0.804H8.452
		c0.018-0.137,0.045-0.279,0.085-0.43c0.073-0.279,0.18-0.566,0.294-0.871c0.121-0.325,0.246-0.662,0.337-1.01
		c0.104-0.396,0.155-0.766,0.155-1.128s-0.051-0.731-0.155-1.127c-0.047-0.179-0.103-0.354-0.162-0.525H9.49
		c0.279,0,0.418-0.337,0.221-0.535L8.364,10.73c-0.123-0.122-0.321-0.122-0.443,0l-1.348,1.348
		c-0.197,0.197-0.058,0.535,0.222,0.535h0.65c0.003,0.009,0.005,0.019,0.009,0.027c0.113,0.305,0.22,0.593,0.293,0.872
		c0.072,0.271,0.106,0.519,0.106,0.753s-0.035,0.481-0.106,0.754c-0.073,0.278-0.18,0.566-0.293,0.871
		c-0.121,0.325-0.246,0.661-0.337,1.01c-0.074,0.279-0.12,0.544-0.141,0.804H6.834L1.664,9.002C4.482,6.382,8.131,4.946,12,4.946
		s7.518,1.436,10.336,4.056l-5.17,8.701H16.043z"/>
</g>
</svg>
