<svg xmlns="http://www.w3.org/2000/svg" width="46" height="46" viewBox="0 0 46 46">
    <g fill="none" fill-rule="evenodd" stroke="#FFF" stroke-width="1.03">
        <path d="M8.577 30.956a.711.711 0 0 0-.395-.924 2.74 2.74 0 0 0-3.098.43 2.763 2.763 0 0 0-.483 2.983c.581 1.39 2.087 2.22 4.026 2.22a3.973 3.973 0 0 0 3.24-1.415c1.841-2.246 1.044-6.365 1.009-6.535M11.135 41.992a.71.71 0 0 0 .72-.048c8.024-5.185 6.008-14.165 5.989-14.256a.71.71 0 0 0-.485-.536M17.796 44.915a.71.71 0 0 0 .648-.319c5.078-7.253 3.733-16.465 3.672-16.853a.71.71 0 0 0-.809-.594M35.494 27.715c-.036.17-.832 4.29 1.009 6.535a3.972 3.972 0 0 0 3.24 1.415c1.94 0 3.445-.83 4.026-2.22a2.764 2.764 0 0 0-.483-2.983 2.74 2.74 0 0 0-3.098-.43.712.712 0 0 0-.396.924M31.01 27.152a.71.71 0 0 0-.484.536c-.019.091-2.035 9.071 5.99 14.256a.71.71 0 0 0 .719.048M27.063 27.149a.71.71 0 0 0-.81.594c-.06.388-1.406 9.6 3.673 16.853a.71.71 0 0 0 .648.319"/>
        <path stroke-linejoin="round" d="M41.611 24.12H6.76a3.184 3.184 0 0 1-3.185-3.184v-7.745a3.184 3.184 0 0 1 3.185-3.185H41.61a3.184 3.184 0 0 1 3.185 3.185v7.745a3.184 3.184 0 0 1-3.185 3.185z"/>
        <path stroke-linecap="round" stroke-linejoin="round" d="M5.855 21.457h36.94M5.855 14.353h3.552M28.101 14.353h3.552M32.401 14.353h3.552"/>
        <path stroke-linejoin="round" d="M40.961 15.801h-2.24a1.404 1.404 0 0 1-1.404-1.403v-.557c0-.776.63-1.404 1.405-1.404h2.24c.774 0 1.403.628 1.403 1.404v.557c0 .775-.629 1.403-1.404 1.403z"/>
        <path stroke-linecap="round" stroke-linejoin="round" d="M5.855 18.59h36.94M43.618 5.273v2.084M44.66 6.315h-2.084M42.229 1.046v2.085M43.27 2.088h-2.083M2.088 9.595v2.084M3.13 10.637H1.047M4.867 5.369v2.084M5.91 6.411H3.824"/>
    </g>
</svg>
