<?xml version="1.0" encoding="UTF-8"?>
<svg width="70px" height="70px" viewBox="0 0 70 70" version="1.1" xmlns="http://www.w3.org/2000/svg" xmlns:xlink="http://www.w3.org/1999/xlink">
    <!-- Generator: Sketch 53 (72520) - https://sketchapp.com -->
    <title>Door Latch  Fitting</title>
    <desc>Created with Sketch.</desc>
    <defs>
        <linearGradient x1="5.63673899%" y1="-11.1485635%" x2="51.5179728%" y2="97.7255544%" id="linearGradient-1">
            <stop stop-color="#64C866" offset="0%"></stop>
            <stop stop-color="#6EDADA" offset="100%"></stop>
        </linearGradient>
    </defs>
    <g id="Page-1" stroke="none" stroke-width="1" fill="none" fill-rule="evenodd">
        <path d="M23.7602019,23.2132105 C14.2055162,21.4585469 15.4032671,12.7604167 15.4032671,12.7604167 L23.760207,12.7604167 L23.760207,0.0595 L69.9097334,0.0595 L69.9097334,5.89283333 L29.5838585,5.89283333 L29.5838585,64.1211667 L70,64.1211667 L70,69.9545 L23.760207,69.9545 L23.760207,23.2132114 Z M45.6307404,27.0840101 C45.0256239,27.2353895 44.392456,27.31575 43.740573,27.31575 C39.4427181,27.31575 35.9601745,23.8274167 35.9601745,19.5224167 C35.9601745,15.2174167 39.4427181,11.732 43.740573,11.732 C44.2633523,11.732 44.7740954,11.7836389 45.267987,11.8821091 L69.9542843,13.9664583 L69.9571962,24.7377083 L45.6307404,27.0840101 Z M9.20136939,5.68434189e-14 L9.20136939,12.775 L7.51251045,12.775 L7.51251045,23.45 L9.20136939,23.45 L9.20136939,70 L4.26325641e-14,70 L4.26325641e-14,5.68434189e-14 L9.20136939,5.68434189e-14 Z" id="Door-Latch--Fitting" fill="url(#linearGradient-1)" fill-rule="nonzero"></path>
    </g>
</svg>