<?xml version="1.0" encoding="utf-8"?>
<!-- Generator: Adobe Illustrator 16.0.0, SVG Export Plug-In . SVG Version: 6.00 Build 0)  -->
<!DOCTYPE svg PUBLIC "-//W3C//DTD SVG 1.1//EN" "http://www.w3.org/Graphics/SVG/1.1/DTD/svg11.dtd">
<svg version="1.1" id="Layer_1" xmlns="http://www.w3.org/2000/svg" xmlns:xlink="http://www.w3.org/1999/xlink" x="0px" y="0px"
	 width="24px" height="24px" viewBox="0 0 24 24" enable-background="new 0 0 24 24" xml:space="preserve">
<path fill="#010101" d="M15.837,22h-6.24c-1.734,0-3.144-1.411-3.144-3.145v-8.137c0-0.477-0.389-0.865-0.866-0.865H1.138
	C0.51,9.853,0,9.341,0,8.714c0-0.628,0.51-1.139,1.138-1.139h4.449c1.734,0,3.145,1.41,3.145,3.144v8.137
	c0,0.479,0.388,0.866,0.865,0.866h6.24c0.477,0,0.865-0.388,0.865-0.866c0-0.209,0.17-0.379,0.381-0.379
	c0.208,0,0.38,0.17,0.38,0.379c0,0.897-0.73,1.627-1.626,1.627h-6.24c-0.896,0-1.626-0.729-1.626-1.627v-8.137
	c0-1.314-1.069-2.384-2.384-2.384H1.138c-0.208,0-0.378,0.169-0.378,0.379c0,0.209,0.17,0.38,0.378,0.38h4.449
	c0.896,0,1.626,0.728,1.626,1.625v8.137c0,1.316,1.069,2.384,2.384,2.384h6.24c1.315,0,2.383-1.067,2.383-2.384
	c0-0.209,0.171-0.379,0.381-0.379c0.209,0,0.379,0.17,0.379,0.379C18.979,20.589,17.571,22,15.837,22z"/>
<path fill="#010101" d="M15.944,8.334h-1.9c-0.208,0-0.379-0.17-0.379-0.38V2.83c0-0.733,0.598-1.329,1.329-1.329
	s1.329,0.595,1.329,1.329v5.125C16.323,8.165,16.152,8.334,15.944,8.334z M14.426,7.575h1.139V2.83c0-0.314-0.255-0.57-0.57-0.57
	c-0.313,0-0.568,0.256-0.568,0.57V7.575z"/>
<path fill="#010101" d="M21.637,8.334H19.74c-0.211,0-0.381-0.17-0.381-0.38V2.83c0-0.733,0.596-1.329,1.329-1.329
	s1.327,0.595,1.327,1.329v5.125C22.016,8.165,21.848,8.334,21.637,8.334z M20.119,7.575h1.14V2.83c0-0.314-0.256-0.57-0.57-0.57
	c-0.313,0-0.569,0.256-0.569,0.57V7.575z"/>
<path fill="#010101" d="M21.588,17.445h-7.493c-1.283,0-2.328-1.044-2.328-2.328V7.575h12.149v7.542
	C23.916,16.401,22.872,17.445,21.588,17.445z M12.528,8.334v6.783c0,0.865,0.702,1.569,1.567,1.569h7.493
	c0.864,0,1.567-0.704,1.567-1.569V8.334H12.528z"/>
<path fill="#010101" d="M17.841,15.168c-0.909,0-1.743-0.322-2.231-0.858c-0.139-0.155-0.128-0.396,0.027-0.537
	c0.155-0.14,0.396-0.128,0.534,0.026c0.344,0.376,0.983,0.608,1.67,0.608c0.683,0,1.316-0.229,1.661-0.6
	c0.141-0.151,0.383-0.161,0.534-0.019c0.154,0.142,0.163,0.384,0.021,0.537C19.567,14.853,18.738,15.168,17.841,15.168z"/>
<path fill="#010101" d="M21.259,11.182c0,0.313-0.256,0.57-0.57,0.57c-0.313,0-0.569-0.256-0.569-0.57
	c0-0.316,0.257-0.57,0.569-0.57C21.003,10.612,21.259,10.866,21.259,11.182z"/>
<path fill="#010101" d="M15.564,11.182c0,0.313-0.255,0.57-0.57,0.57c-0.314,0-0.568-0.256-0.568-0.57
	c0-0.316,0.254-0.57,0.568-0.57C15.31,10.612,15.564,10.866,15.564,11.182z"/>
<path fill="#010101" d="M20.119,18.964h-4.555c-0.211,0-0.381-0.17-0.381-0.381v-1.519c0-0.208,0.17-0.378,0.381-0.378h4.555
	c0.208,0,0.379,0.17,0.379,0.378v1.519C20.498,18.794,20.327,18.964,20.119,18.964z M15.944,18.203h3.796v-0.758h-3.796V18.203z"/>
</svg>
