<?xml version="1.0" encoding="UTF-8"?>
<svg width="71px" height="71px" viewBox="0 0 71 71" version="1.1" xmlns="http://www.w3.org/2000/svg" xmlns:xlink="http://www.w3.org/1999/xlink">
    <!-- Generator: Sketch 53 (72520) - https://sketchapp.com -->
    <title>WC Jet </title>
    <desc>Created with Sketch.</desc>
    <defs>
        <linearGradient x1="5.63673899%" y1="-11.1485635%" x2="51.5179728%" y2="97.7255544%" id="linearGradient-1">
            <stop stop-color="#64C866" offset="0%"></stop>
            <stop stop-color="#6EDADA" offset="100%"></stop>
        </linearGradient>
    </defs>
    <g id="Page-1" stroke="none" stroke-width="1" fill="none" fill-rule="evenodd">
        <path d="M13.7605087,18.2791024 C9.42017037,23.3679949 7.06163093,29.7528659 7.06163093,36.5501043 C7.06163093,52.0784651 19.6179993,64.7113603 35.0469,64.7113603 C50.4758007,64.7113603 63.0321691,52.0784651 63.0321691,36.5501043 C63.0321691,29.7940609 60.664873,23.377114 56.32779,18.2791024 L38.7111879,18.2791024 L38.7698437,19.9557523 C43.1595005,20.473452 46.4293796,23.3084354 46.4486437,26.7763713 L46.4696879,30.4271756 C46.4767026,31.8734445 45.1263669,33.0064527 43.4007431,33.0152357 L26.288307,33.0796445 L26.2707701,33.0796445 C25.4079582,33.0796445 24.695963,32.8395756 24.0926962,32.3418717 C23.4368188,31.7973251 23.2509285,31.2235018 23.1281707,30.7257979 L23.093097,30.4388863 L23.0720528,26.788082 C23.0650381,24.8938797 24.071652,23.072869 25.8358568,21.7817666 C27.4488581,20.61845 29.5391138,19.9537784 31.750531,19.8972606 L31.6939214,18.2791024 L13.7605087,18.2791024 Z M9.33931407,13.4542225 L9.33931407,8.32502504 C9.33931407,4.02135039 13.4780053,0.5667 18.5987589,0.5667 L51.497847,0.5667 C56.6186006,0.5667 60.7572918,4.02135039 60.7572918,8.32502504 L60.7572918,13.4568212 C66.7516891,19.7570977 70.0469,27.9421271 70.0469,36.5501043 C70.0469,55.3076849 54.3444248,70.5667 35.0469,70.5667 C15.7493752,70.5667 0.0469,55.3076849 0.0469,36.5501043 C0.0469,27.8886393 3.33349183,19.7526678 9.33931407,13.4542225 Z M38.4345591,10.3717953 C39.3195312,11.3861619 40.753901,12.0431657 42.3786968,12.0431657 C45.0442945,12.0431657 47.2188611,10.2280104 47.2188611,7.97370466 C47.2188611,5.74867559 45.0442945,3.9335203 42.3786968,3.9335203 C40.6518242,3.9335203 39.1400561,4.67566891 38.2743598,5.79257475 L38.4345591,10.3717953 Z M31.8580033,25.1134549 C31.1144418,25.1134549 30.5708002,25.2949704 30.1499163,25.6521461 C29.5361274,26.0708029 29.3362075,26.5245917 29.3362075,26.8437078 L29.3432223,27.9181626 L40.338813,27.8771752 L40.377394,26.8173587 C40.3949309,26.4514 40.2265773,26.114718 39.8828555,25.8160956 C39.3567507,25.3652345 38.3922252,25.0109864 37.6486637,25.1017442 L32.1385926,25.1222379 C32.0403863,25.1163826 31.9491948,25.1134549 31.8580033,25.1134549 Z M33.1459079,59.8780702 L33.2651583,57.2343844 C33.300232,56.4175645 34.0578229,55.7793325 35.0328705,55.7412728 C36.0079181,55.7032131 36.7128986,56.2858194 36.6743176,57.0997116 L36.5585745,59.7463251 C36.5199935,60.5602173 35.7624026,61.1984493 34.787355,61.236509 C34.2998312,61.2570027 33.9420799,61.1691726 33.587836,60.8764056 C33.2335921,60.5865663 33.1283711,60.2850163 33.1459079,59.8780702 Z M33.4524517,49.4511741 L33.5120769,46.9597271 C33.5261063,46.1926776 34.2310868,45.6012883 35.1465092,45.577867 C36.0654389,45.5573733 36.7423605,46.1165582 36.7248236,46.8836077 L36.6687058,49.3750547 C36.651169,50.1421042 35.9461885,50.7334935 35.0307661,50.7539872 C34.5677939,50.7656979 34.2275794,50.6778678 33.8908723,50.3997392 C33.5506579,50.1216105 33.4454369,49.8346989 33.4524517,49.4511741 Z M16.0492549,55.8668698 L16.6455071,53.4076272 C16.7998312,52.690348 17.8029377,52.0404053 18.6517201,52.1106694 C19.4969952,52.1780058 20.1949609,52.965549 20.0406368,53.6799004 L19.4443847,56.1420708 C19.2900606,56.8593499 18.2869541,57.5092926 17.4381717,57.4390285 C17.076913,57.3511984 16.7156544,57.2633683 16.4841683,57.0701421 C16.1299244,56.7803028 16.0317181,56.2738159 16.0492549,55.8668698 Z M19.6337825,46.6163115 L20.1458578,44.3034523 C20.2756303,43.6300882 21.2085895,43.0357713 22.0082689,43.1118907 C22.8114556,43.1880101 23.4813624,43.9374936 23.3515898,44.6108576 L22.8395145,46.9237168 C22.709742,47.5970808 21.7767828,48.1943255 20.9771034,48.1182061 C20.6333816,48.030376 20.2896598,47.9425459 20.0686958,47.755175 C19.6162456,47.383361 19.3952816,47.0056915 19.6337825,46.6163115 Z M49.2597971,55.9025874 L48.9967447,53.5780175 C48.7898101,52.7729083 49.6771736,52.0263525 50.5329707,51.8916797 C51.5185404,51.6486831 52.3357566,52.3308302 52.4269481,53.0363986 L52.6900005,55.3638961 C52.8969351,56.1690053 52.013079,56.9126335 51.1537744,57.0502339 C50.5399855,57.1731961 50.0629838,56.9887529 49.7087399,56.6959859 C49.4772537,56.5056874 49.3685254,56.2041374 49.2597971,55.9025874 Z M46.2385525,47.3283208 L45.9439338,45.1325684 C45.7299845,44.3713742 46.550708,43.6804442 47.3574021,43.566265 C48.2798392,43.3525451 49.0689964,44.0054155 49.1672026,44.6729242 L49.4618213,46.8686766 C49.6722633,47.6298708 48.8550471,48.3208008 48.0483531,48.43498 C47.4731451,48.5462314 47.0171876,48.3647159 46.6804805,48.0836596 C46.4560091,47.8962887 46.3472808,47.6123047 46.2385525,47.3283208 Z M23.966431,58.4057451 L24.4434327,55.8469617 C24.4785064,55.0330694 25.3553477,54.4914505 26.3303953,54.4533908 C27.3054429,54.4153311 27.8841582,55.1062612 27.8455772,55.9172257 L27.3685755,58.4760092 C27.3335019,59.2899014 26.4566605,59.8315203 25.4816129,59.86958 C25.1203543,59.7817499 24.7590956,59.6939198 24.5241021,59.5006936 C24.1733656,59.2108543 23.9488942,58.8126912 23.966431,58.4057451 Z M26.3609094,48.4689409 L26.7607491,46.065324 C26.7782859,45.2982745 27.5919947,44.8005706 28.5109245,44.7771493 C29.4298542,44.7566556 29.9875253,45.4153813 29.9699885,46.1795031 L29.5736562,48.5860477 C29.552612,49.3530972 28.7389032,49.8508011 27.8199735,49.8712948 C27.4762516,49.7834647 27.1360372,49.6956346 26.9115658,49.5082637 C26.5748587,49.2301351 26.3538947,48.8524657 26.3609094,48.4689409 Z M41.2156544,58.9576108 L41.0893892,56.3197803 C41.1279702,55.5058881 41.7663108,54.771043 42.7413584,54.7329833 C43.716406,54.6949236 44.5476516,55.1721338 44.5090706,55.986026 L44.4038496,58.4277026 C44.3652686,59.2415948 43.7234207,59.9764399 42.7483731,60.0144996 C42.2608493,60.0349933 41.903098,59.9471632 41.5488541,59.6543963 C41.3138606,59.46117 41.2086397,59.1596201 41.2156544,58.9576108 Z M39.6604885,48.9206804 L39.4886276,46.4350887 C39.5061645,45.6680392 40.0954019,44.9829645 41.0143316,44.9595431 C41.9332614,44.9390494 42.725926,45.3986936 42.7083891,46.1657431 L42.88025,48.6542624 C42.8627132,49.4183842 42.2734758,50.103459 41.3545461,50.1268803 C40.8950812,50.138591 40.5513594,50.0507609 40.2146523,49.7697046 C39.9901809,49.5852614 39.7692169,49.2046643 39.6604885,48.9206804 Z M33.5075173,39.5131989 L33.4689363,37.5955752 C33.4584142,37.0071136 33.9775043,36.5650354 34.6859921,36.5708908 C35.3944799,36.5738184 35.9311068,37.0188242 35.9416289,37.6102135 L35.98021,39.5278373 C35.990732,40.1192266 35.471642,40.5554494 34.7631541,40.5525217 C34.4089102,40.549594 34.1458578,40.4764023 33.8722833,40.2509717 C33.6057235,40.0284688 33.5110247,39.8088936 33.5075173,39.5131989 Z M22.7676135,37.0156038 L23.0867838,35.2472912 C23.1639458,34.7320213 23.8619115,34.2928709 24.4827152,34.3719179 C25.1035189,34.4480374 25.6436532,35.0423543 25.5664911,35.5576242 L25.2473209,37.3230091 C25.1701588,37.8412067 24.4721931,38.2803572 23.8513894,38.2013101 C23.5848297,38.1251907 23.3182699,38.0519989 23.1393942,37.9026878 C22.7781356,37.6069931 22.5957526,37.3083708 22.7676135,37.0156038 Z M43.2860522,38.1693985 L42.9879262,36.47135 C42.7985284,35.8799607 43.40881,35.3676185 44.0261063,35.300282 C44.7310868,35.1538986 45.3589052,35.6750238 45.4571114,36.1932213 L45.7552375,37.8883422 C45.9411279,38.4797315 45.3343537,38.9920737 44.7170573,39.0623378 C44.2786366,39.1355295 43.9208854,38.9832907 43.6508182,38.7607878 C43.4719426,38.6114766 43.3772437,38.3919014 43.2860522,38.1693985 Z M28.0118263,38.5953744 L28.2398051,36.7538701 C28.229283,36.1624808 28.8395646,35.7965221 29.5480524,35.8023774 C30.2530329,35.8053051 30.705483,36.3264303 30.7160051,36.914892 L30.4880264,38.7563963 C30.4985485,39.3477856 29.8882669,39.7108166 29.179779,39.707889 C28.9132193,39.6317696 28.6501669,39.5585778 28.4677839,39.4092666 C28.2012241,39.1867637 28.0153337,38.8910691 28.0118263,38.5953744 Z M38.2719225,39.2456099 L38.0579733,37.3279862 C38.0474512,36.7365969 38.4788571,36.2242546 39.1838376,36.2271823 C39.8923254,36.2330377 40.5166364,36.6048517 40.5306659,37.1933134 L40.7446152,39.1138648 C40.7551373,39.7023264 40.3237313,40.2175963 39.6152435,40.2117409 C39.264507,40.2117409 38.9979472,40.1356215 38.7278801,39.9131186 C38.5490044,39.7638075 38.363114,39.4681128 38.2719225,39.2456099 Z M26.4201839,11.8675055 C29.1208553,11.8675055 31.2954219,10.0523502 31.2954219,7.82732117 C31.2954219,5.5730154 29.1208553,3.75786011 26.4201839,3.75786011 C23.7195125,3.75786011 21.5449459,5.5730154 21.5449459,7.82732117 C21.5449459,10.0523502 23.7195125,11.8675055 26.4201839,11.8675055 Z" id="WC-Jet-" fill="url(#linearGradient-1)" fill-rule="nonzero"></path>
    </g>
</svg>