<?xml version="1.0" encoding="utf-8"?>
<!-- Generator: Adobe Illustrator 16.0.0, SVG Export Plug-In . SVG Version: 6.00 Build 0)  -->
<!DOCTYPE svg PUBLIC "-//W3C//DTD SVG 1.1//EN" "http://www.w3.org/Graphics/SVG/1.1/DTD/svg11.dtd">
<svg version="1.1" id="Capa_1" xmlns="http://www.w3.org/2000/svg" xmlns:xlink="http://www.w3.org/1999/xlink" x="0px" y="0px"
	 width="24px" height="24px" viewBox="0 0 24 24" enable-background="new 0 0 24 24" xml:space="preserve">
<g>
	<path fill="#333333" stroke="#333333" stroke-miterlimit="10" d="M5.215,9.686l2.262-2.261C7.651,7.251,7.748,7.02,7.748,6.772
		c0-0.246-0.097-0.479-0.271-0.652L7.085,5.729c-0.36-0.36-0.946-0.36-1.306,0L3.518,7.991c-0.359,0.359-0.359,0.945,0,1.305
		L3.91,9.686c0.18,0.181,0.416,0.271,0.653,0.271C4.798,9.958,5.036,9.867,5.215,9.686z M3.932,8.883
		c-0.133-0.133-0.133-0.349,0-0.48l2.26-2.262c0.066-0.065,0.154-0.1,0.242-0.1c0.086,0,0.174,0.033,0.239,0.1l0.392,0.392
		c0.063,0.063,0.099,0.149,0.099,0.239c0,0.092-0.035,0.177-0.099,0.242l-2.262,2.26c-0.133,0.133-0.349,0.133-0.48,0L3.932,8.883z"
		/>
	<path fill="#333333" stroke="#333333" stroke-miterlimit="10" d="M23.149,12.1l-0.313-0.882c-0.356-1.005-0.937-1.938-1.674-2.709
		c0.114-0.766-0.132-1.551-0.661-2.081c-0.527-0.529-1.313-0.775-2.077-0.66l-0.756-0.756l0.278-0.279
		c0.115-0.114,0.115-0.299,0-0.414L16.56,2.932c-0.113-0.113-0.299-0.113-0.412,0L13.61,5.469c-0.114,0.114-0.114,0.299,0,0.413
		l1.388,1.388c0.055,0.055,0.129,0.084,0.205,0.084c0.077,0,0.151-0.03,0.207-0.084l0.28-0.279l0.754,0.755
		c-0.045,0.306-0.032,0.614,0.031,0.907l-3.05,3.05L9.141,7.418C9.489,6.95,9.452,6.283,9.026,5.858L6.563,3.395
		C6.336,3.167,6.036,3.042,5.714,3.042c-0.319,0-0.622,0.125-0.848,0.353L1.186,7.076C0.958,7.302,0.833,7.604,0.833,7.923
		c0,0.321,0.125,0.622,0.353,0.849l2.461,2.463c0.234,0.233,0.543,0.352,0.85,0.352c0.212,0,0.424-0.057,0.611-0.169l1.524,0.286
		l0.828,1.437c0.042,0.072,0.116,0.125,0.199,0.143l1.63,0.305l0.822,1.428l-4.077,4.078c-0.468,0.467-0.464,1.23,0.006,1.703
		c0.237,0.236,0.547,0.354,0.856,0.354c0.308,0,0.612-0.115,0.846-0.35l4.617-4.615l0.417,0.723
		c0.041,0.072,0.115,0.125,0.199,0.141l1.631,0.307l0.826,1.438c0.045,0.074,0.116,0.125,0.199,0.141l1.633,0.305l0.827,1.438
		c0.042,0.074,0.114,0.127,0.197,0.141l1.764,0.33c0.019,0.004,0.035,0.006,0.054,0.006c0.074,0,0.148-0.027,0.203-0.082
		l1.045-1.018c0.056-0.053,0.088-0.129,0.088-0.207s-0.03-0.152-0.086-0.207l-6.224-6.223l2.995-2.997
		c0.338,0.097,0.698,0.121,1.055,0.067c0.771,0.738,1.704,1.316,2.711,1.674l0.881,0.314c0.033,0.01,0.064,0.017,0.099,0.017
		c0.075,0,0.149-0.03,0.206-0.087C23.161,12.325,23.188,12.207,23.149,12.1z M15.203,6.651l-0.974-0.974l2.123-2.125l0.976,0.976
		L15.203,6.651z M4.063,10.825L1.6,8.362C1.483,8.246,1.418,8.09,1.418,7.925S1.483,7.606,1.6,7.49l3.68-3.681
		c0.117-0.117,0.271-0.182,0.437-0.182c0.166,0,0.32,0.064,0.437,0.182l2.463,2.463c0.24,0.239,0.24,0.631,0,0.871l-3.682,3.683
		C4.692,11.065,4.301,11.065,4.063,10.825z M9.731,13.18c-0.043-0.074-0.116-0.125-0.199-0.141l-1.631-0.307l-0.827-1.436
		c-0.044-0.073-0.116-0.125-0.199-0.142l-1.22-0.229l3.086-3.085l4.274,4.274l-2.472,2.472L9.731,13.18z M20.737,19.84l-0.725,0.705
		l-1.482-0.277l-0.826-1.438c-0.043-0.074-0.115-0.125-0.198-0.143l-1.632-0.305l-0.828-1.438c-0.042-0.074-0.113-0.125-0.197-0.143
		L13.217,16.5l-0.427-0.74l1.934-1.934L20.737,19.84z M7.333,20.391c-0.24,0.24-0.633,0.236-0.876-0.006
		c-0.244-0.246-0.247-0.639-0.007-0.879L16.696,9.261c0.106,0.207,0.244,0.398,0.41,0.563c0.133,0.135,0.283,0.25,0.446,0.347
		L7.333,20.391z M22.092,11.61c-0.975-0.346-1.874-0.916-2.604-1.646c-0.055-0.056-0.131-0.086-0.205-0.086
		c-0.021,0-0.043,0.002-0.063,0.007c-0.622,0.135-1.274-0.046-1.702-0.474c-0.427-0.427-0.608-1.079-0.474-1.702
		c0.021-0.098-0.008-0.197-0.078-0.268l-0.853-0.853l1.154-1.153l0.852,0.852c0.068,0.07,0.171,0.1,0.268,0.079
		c0.623-0.136,1.274,0.046,1.702,0.474c0.429,0.428,0.608,1.08,0.474,1.702c-0.021,0.097,0.01,0.198,0.08,0.269
		c0.729,0.729,1.299,1.629,1.646,2.603l0.106,0.304L22.092,11.61z"/>
</g>
</svg>
