<svg xmlns="http://www.w3.org/2000/svg" width="41" height="44" viewBox="0 0 41 44">
    <g fill="none" fill-rule="evenodd" stroke="#FFF" stroke-width=".944">
        <path d="M8.89 11.702h22.985v-6.28H8.89z"/>
        <path d="M8.891 10.142h-1.9a.645.645 0 0 1-.646-.644V7.743c0-.355.29-.644.646-.644h1.9v3.043zM31.895 8.426h1.546c.54 0 .98.436.98.975v3.627a.977.977 0 0 1-.98.976H21.283s-.744-.195-.744 1.033v3.706M12.556 16.344H11.5a.747.747 0 0 1-.75-.746v-3.896h2.556v3.896a.747.747 0 0 1-.749.746z"/>
        <path d="M14.054 14.735h.97a.747.747 0 0 0 .748-.746v-2.287h-2.467v2.287c0 .412.335.746.749.746zM24.644 26.057h-1.28a.747.747 0 0 1-.75-.746V18.63h2.78v6.68a.747.747 0 0 1-.75.747z"/>
        <path d="M26.142 23.482h1.186a.747.747 0 0 0 .749-.746v-4.105h-2.684v4.105c0 .413.336.746.75.746z"/>
        <path d="M30.602 43.083H10.456l-1.41-24.457h22.966z"/>
        <path d="M9.31 23.136c-1.59 0-2.79 1.279-2.79 2.862v1.99A2.873 2.873 0 0 0 9.4 30.855h3.641a2.872 2.872 0 0 0 2.878-2.867V23.13M28.08 21.083h3.79M9.189 21.083H22.61"/>
        <path d="M16.947 25.881h-2.409a1.26 1.26 0 0 1-1.262-1.258v-3.54h4.934v3.54a1.26 1.26 0 0 1-1.263 1.258zM24.391 31.381h-.44a1.04 1.04 0 0 1-1.043-1.038v-1.55a1.04 1.04 0 0 1 1.043-1.04h.44a1.04 1.04 0 0 1 1.043 1.04v1.55a1.04 1.04 0 0 1-1.043 1.038zM10.308 40.528h20.438M31.094 31.01h3.326c.844 0 1.527.682 1.527 1.522v1.833h-2.74M7.833 37.876H4.935v-1.834c0-.84.684-1.52 1.527-1.52h3.51"/>
        <path d="M34.538 37.876h3.485a1.07 1.07 0 0 1 1.057 1.082v3.044a1.07 1.07 0 0 1-1.057 1.081H2.782a1.07 1.07 0 0 1-1.057-1.081v-3.044a1.07 1.07 0 0 1 1.057-1.082h2.917M30.103 8.591h-12.01M12.072 8.591h-1.175M14.465 8.591H13.29M16.858 8.591h-1.174"/>
        <path stroke-linecap="round" stroke-linejoin="round" d="M3.467 6.534V8.64M4.524 7.587H2.41M2.057 2.262V4.37M3.114 3.316H1M38.708 19.172v2.106M39.765 20.225h-2.114M37.298 14.9v2.107M38.355 15.954h-2.114M34.635 4.74v2.106M35.693 5.793h-2.115M33.226.468v2.107M34.283 1.521h-2.114"/>
    </g>
</svg>
