<svg id="Layer_1" data-name="Layer 1" xmlns="http://www.w3.org/2000/svg" xmlns:xlink="http://www.w3.org/1999/xlink" width="374.5" height="89.4" viewBox="0 0 374.5 89.4">
  <defs>
    <style>
      .cls-1 {
        fill: url(#linear-gradient);
      }

      .cls-2, .cls-4, .cls-5 {
        fill: #fff;
      }

      .cls-2 {
        opacity: 0.3;
      }

      .cls-2, .cls-3, .cls-4 {
        isolation: isolate;
      }

      .cls-4 {
        font-size: 16px;
        font-family: Montserrat-Medium, Montserrat;
      }
    </style>
    <linearGradient id="linear-gradient" x1="405.55" y1="126.36" x2="21.53" y2="-32.27" gradientUnits="userSpaceOnUse">
      <stop offset="0" stop-color="#64dcc2"/>
      <stop offset="1" stop-color="#70bce6"/>
    </linearGradient>
  </defs>
  <title>banner_carpentry_C0</title>
  <g id="Page-1">
    <g id="UI---Screen-7---v2">
      <g id="Group-2">
        <path id="Path-4" class="cls-1" d="M0,72.4C71,74,112,68.2,210.5,71c58.9,1.7,113.3,7.8,164,18.4V0H0Z"/>
        <path id="Rectangle-Copy-2" class="cls-2" d="M26.8,22H67.3a3.3,3.3,0,0,1,3.3,3.3v.5A3.3,3.3,0,0,1,67.3,29H26.8a3.2,3.2,0,0,1-3.2-3.2v-.5A3.2,3.2,0,0,1,26.8,22Z"/>
        <rect id="Rectangle-Copy-4" class="cls-2" x="186.5" y="29" width="47" height="7" rx="3.3" ry="3.3"/>
        <rect id="Rectangle-Copy-3" class="cls-2" x="64.5" y="35" width="47" height="7" rx="3.3" ry="3.3"/>
        <rect id="Rectangle-Copy-5" class="cls-2" x="233.5" y="42" width="47" height="7" rx="3.3" ry="3.3"/>
        <g id="sweep">
          <g id="_" data-name="+" class="cls-3">
            <text class="cls-4" transform="translate(298.5 26)">+</text>
          </g>
          <g id="_-copy" data-name="+-copy" class="cls-3">
            <text class="cls-4" transform="translate(336.5 14)">+</text>
          </g>
        </g>
      </g>
    </g>
  </g>
  <g>
    <path class="cls-5" d="M338,57.3a1.6,1.6,0,0,0,1.3-.8,1.9,1.9,0,0,0,.2-.8.6.6,0,0,0-.1-.4h-.2l-.7.6h-.3l-.3-.3v-.3l.2-.2.4-.4c0-.1.1-.1,0-.2H338a1.7,1.7,0,0,0-1.3.7c0,.1-.1.2-.2.4a1.1,1.1,0,0,0,0,.8l-1.1,1.2-1.6-1.7-.3-.2V55h0l-1.1-.6h-.3l-.3.3c-.1.1-.1.1,0,.2l.3.5.3.6h.5l1.4,1.4.5.5L333.6,59a1.6,1.6,0,0,0-1.2.2,1.7,1.7,0,0,0-.7,1.3c0,.1.1.3.1.4a.1.1,0,0,0,.1.1c.1.1.1,0,.2,0l.6-.6h.3l.3.3V61l-.6.6v.2a.1.1,0,0,0,.1.1h.5a1.7,1.7,0,0,0,1.2-.7,1.6,1.6,0,0,0,.2-1.2l.9-.9.2.2h-.1v.2h.3l1.9,2.1h0a.9.9,0,0,0,1.3-1.3l-2.1-1.9h.1c.1,0,.1-.1,0-.2h-.3l-.2-.2.9-.9Zm-1.3,1.2-.7.7-.2-.2.7-.7Z"/>
    <path class="cls-5" d="M354.3,22.7l-1-1-2.4-2.2-1.6-1.1a17.2,17.2,0,0,0-3.8-2,23.6,23.6,0,0,0-10-2.1,24.2,24.2,0,0,0-10,2.1,19.8,19.8,0,0,0-3.8,2l-1.5,1.1-2.5,2.2-.9,1a18.6,18.6,0,0,0-2.1,2.8,25,25,0,0,0-4.2,13.8,28.8,28.8,0,0,0,.7,5.9,28.3,28.3,0,0,0,1.4,4.1,31,31,0,0,0,2.9,5l1.4,1.6.7.8L319,58a25.5,25.5,0,0,0,8.9,5.1l1.4.4,2.4.5,2.1.2h3.5l2.1-.2,2.3-.5,1.4-.4a25.1,25.1,0,0,0,9-5.1l1.4-1.3.7-.8,1.3-1.6a21,21,0,0,0,2.9-5,19.8,19.8,0,0,0,1.4-4.1,23.2,23.2,0,0,0,.7-5.9,24.9,24.9,0,0,0-4.1-13.8Zm1.2,28.2H341.3l-.6-.6-1.1.6h-1.8l-.4-1.4h13.1a.7.7,0,0,0,0-1.4h-30a.7.7,0,1,0,0,1.4h13.1l-.4,1.4h-1.8l-.8-.4-.2-.2-.7.6H315.5V42.4h40ZM317,53.8V52.4h1.4v2.8h-.2A8.1,8.1,0,0,1,317,53.8Zm37.1-12.9H317V38.8a2.1,2.1,0,0,1,2.1-2.1H352a2.1,2.1,0,0,1,2.1,2.1ZM350.3,21l1.7,1.4a1.5,1.5,0,0,1-1.5,1.4,1.4,1.4,0,0,1-1.4-1.4A1.4,1.4,0,0,1,350.3,21Zm1.7,4.2v10h-2.9a3.1,3.1,0,0,0,.7-2.1V31.7a3.6,3.6,0,0,0-3.6-3.6h-5.7a3.6,3.6,0,0,0-3.5,3.6v1.4a3.1,3.1,0,0,0,.7,2.1h-4.3a3.8,3.8,0,0,0,.7-2.1V31.7a3.6,3.6,0,0,0-3.6-3.6h-5.7a3.6,3.6,0,0,0-3.6,3.6v1.4a3.2,3.2,0,0,0,.8,2.1h-2.9v-10Zm-3.6,6.5v1.4a2.1,2.1,0,0,1-2.2,2.1h-5.7a2.1,2.1,0,0,1-2.1-2.1V31.7a2.1,2.1,0,0,1,2.1-2.2h5.7A2.2,2.2,0,0,1,348.4,31.7Zm-15.7,0v1.4a2.1,2.1,0,0,1-2.2,2.1h-5.7a2.1,2.1,0,0,1-2.1-2.1V31.7a2.1,2.1,0,0,1,2.1-2.2h5.7A2.2,2.2,0,0,1,332.7,31.7Zm-8.2-13.3a21.3,21.3,0,0,1,5.5-2,20.2,20.2,0,0,1,5.5-.7,19.7,19.7,0,0,1,5.5.7,20,20,0,0,1,5.5,2L349,20a2.7,2.7,0,0,0-1.3,2.4,2.3,2.3,0,0,0,.4,1.4H323a3.3,3.3,0,0,0,.4-1.4A2.8,2.8,0,0,0,322,20ZM320.7,21a1.5,1.5,0,0,1,1.3,1.4,1.5,1.5,0,0,1-1.5,1.4,1.4,1.4,0,0,1-1.4-1.4Zm-8.6,21.2a27.1,27.1,0,0,1-.1-2.9,22.7,22.7,0,0,1,2.7-11,18.5,18.5,0,0,1,2.1-3.3,7.5,7.5,0,0,1,1.2-1.4.4.4,0,0,0,.1.3.5.5,0,0,0-.4.6v11a3.7,3.7,0,0,0-2.2,3.3v2.1h-.7a.8.8,0,0,0-.7.8v7.4l-.6-1.5A23.8,23.8,0,0,1,312.1,42.2ZM321.3,58a8.4,8.4,0,0,1-1.8-1.5.6.6,0,0,0,.3-.6V52.4h8.5l-.4.4,1.2,2.1a.3.3,0,0,1-.1.2,1.7,1.7,0,0,1-.2.5l-1.3.3-1,.3v3.5l2.3.6.3.7-.4.8A22.6,22.6,0,0,1,321.3,58Zm14.2,4.8a24.2,24.2,0,0,1-5.4-.6l.7-1.2-.2-.3a6.1,6.1,0,0,1-.5-1.2v-.4l-2.1-.5V57.3l2.1-.5v-.4c0-.2.1-.3.1-.5a2.5,2.5,0,0,1,.4-.7l.2-.3-.2-.4-.9-1.5.6-.6.3-.3.4.3,1,.5.4.3.4-.2.9-.4h.6l.4-1.5.2-.6h1.3v.6l.4,1.5h.4l1.2.5.3.2,1.4-.8.5-.3.2.3.7.6-.9,1.5-.2.4.2.3.3.7a.4.4,0,0,1,.1.3c0,.1.1.1.1.2v.4l2.1.5v1.3l-2.1.5v.4a6.1,6.1,0,0,1-.5,1.2l-.2.3.7,1.2A25.1,25.1,0,0,1,335.5,62.8ZM349.8,58a22.6,22.6,0,0,1-7.4,3.8l-.5-.8.3-.7,2.4-.6V56.2l-1-.3h-.5l-.9-.2-.3-.7.4-.7.8-1.4-.4-.4h8.5v3.5a.7.7,0,0,0,.4.6Zm3.1-2.8h-.2V52.4h1.4v1.4Zm6-13a23.7,23.7,0,0,1-1.3,5.4l-.6,1.5V41.7a.9.9,0,0,0-.8-.8h-.7V38.8a3.6,3.6,0,0,0-2.1-3.3v-11a.7.7,0,0,0-.4-.6v-.3l1.2,1.4a18.5,18.5,0,0,1,2.1,3.3,23.9,23.9,0,0,1,2.7,11A26.4,26.4,0,0,1,358.9,42.2Z"/>
  </g>
</svg>
