<svg id="Layer_1" data-name="Layer 1" xmlns="http://www.w3.org/2000/svg" xmlns:xlink="http://www.w3.org/1999/xlink" width="374.5" height="89.4" viewBox="0 0 374.5 89.4">
  <defs>
    <style>
      .cls-1 {
        fill: url(#linear-gradient);
      }

      .cls-2, .cls-4, .cls-5 {
        fill: #fff;
      }

      .cls-2 {
        opacity: 0.3;
      }

      .cls-2, .cls-3, .cls-4 {
        isolation: isolate;
      }

      .cls-4 {
        font-size: 16px;
        font-family: Montserrat-Medium, Montserrat;
      }
    </style>
    <linearGradient id="linear-gradient" x1="405.55" y1="126.36" x2="21.53" y2="-32.27" gradientUnits="userSpaceOnUse">
      <stop offset="0" stop-color="#64dcc2"/>
      <stop offset="1" stop-color="#70bce6"/>
    </linearGradient>
  </defs>
  <title>banner_ac_E0</title>
  <g id="Page-1">
    <g id="UI---Screen-7---v2">
      <g id="Group-2">
        <path id="Path-4" class="cls-1" d="M0,72.4C71,74,112,68.2,210.5,71c58.9,1.7,113.3,7.8,164,18.4V0H0Z"/>
        <rect id="Rectangle-Copy-2" class="cls-2" x="23.5" y="22" width="47" height="7" rx="3.3" ry="3.3"/>
        <rect id="Rectangle-Copy-4" class="cls-2" x="186.5" y="29" width="47" height="7" rx="3.3" ry="3.3"/>
        <rect id="Rectangle-Copy-3" class="cls-2" x="64.5" y="35" width="47" height="7" rx="3.3" ry="3.3"/>
        <rect id="Rectangle-Copy-5" class="cls-2" x="233.5" y="42" width="47" height="7" rx="3.3" ry="3.3"/>
        <g id="sweep">
          <g id="_" data-name="+" class="cls-3">
            <text class="cls-4" transform="translate(298.5 26)">+</text>
          </g>
          <g id="_-copy" data-name="+-copy" class="cls-3">
            <text class="cls-4" transform="translate(336.5 14)">+</text>
          </g>
        </g>
      </g>
    </g>
  </g>
  <g>
    <path class="cls-5" d="M341,39.7a1.5,1.5,0,0,0-.4-1l-2.2-2.1a1.5,1.5,0,0,0-2.1,0L332,40.7a1.5,1.5,0,0,0,0,2.2l2.1,2.1a2.1,2.1,0,0,0,1.1.4,1.5,1.5,0,0,0,1-.4l4.4-4.2A2.1,2.1,0,0,0,341,39.7Zm-5.8,4.2h0v0L333,41.8l1.7-1.6-.3.8,2.9.9Zm2.6-2.5.3-.8-2.8-.9,2.1-2.1,2.1,2.1Z"/>
    <rect class="cls-5" x="332.7" y="28.3" width="1.5" height="9" transform="translate(71.3 241.6) rotate(-44.2)"/>
    <path class="cls-5" d="M357.2,53.7h0V39.2h0a1.5,1.5,0,0,0,1.5-1.4V34a1.5,1.5,0,0,0-1.5-1.5h0V23.6a6.1,6.1,0,0,0-6.1-6h-6.3a1.6,1.6,0,0,0-1.3-.8h-2.3a1.5,1.5,0,0,0-1.5-1.5H312.2a1.5,1.5,0,0,0-1.5,1.5V36.3a1.5,1.5,0,0,0,1.5,1.4h.1v1.6a1.4,1.4,0,0,0,1.5,1.4h.8v6.8h-.8a1.5,1.5,0,0,0-1.5,1.5v6a1.4,1.4,0,0,0,1.5,1.4h0v7.5a1.5,1.5,0,0,0,1.5,1.4h4.5a1.4,1.4,0,0,0,1.5-1.4V56.4h.1a1.5,1.5,0,0,0,1.5-1.4h.8a3.9,3.9,0,0,0,3.8,3,3.8,3.8,0,0,0,3.7-3h3.2a1.4,1.4,0,0,0,1.5,1.4H345c8.5,8.3,8.5,8.3,9.1,8.3a1.4,1.4,0,0,0,1-.5l5.4-5.2a1.2,1.2,0,0,0,.5-1,1.6,1.6,0,0,0-.5-1.1Zm-1.5-1.5-6.9-6.6V39.2h6.9ZM340.5,30.3l-.2-.2h0a9,9,0,0,0,.8-2.8h2.4a1.5,1.5,0,0,0,1.5-1.4h2.3v6.6h0a1.5,1.5,0,0,0-1.5,1.5v3.8a1.5,1.5,0,0,0,1.5,1.4h0v4.9h0l-4-3.8A9.9,9.9,0,0,0,340.5,30.3Zm4.5-5.9V19.1h.8v5.3ZM357.2,34v3.8h-9.9V34Zm-8.4-1.5V28h6.9v4.5Zm6.9-5.9h-6.8l5.9-5.7a4.8,4.8,0,0,1,.9,2.7Zm-2.1-6.8h0l-5.3,5a1.5,1.5,0,0,0-1-.4h-.1V19.1h3.9A4.5,4.5,0,0,1,353.6,19.8Zm-10.1-1.5v7.5h-2.3V18.3Zm-29.8,21v-3h7.6v3h-7.7Zm2.3,1.4h3.1v6.8H316Zm3.8,23.2h-4.6V56.4h4.7Zm1.6-8.9h-7.7V49h7.6Zm2.4-1.5h-.9V50.4h2.3A13.6,13.6,0,0,0,323.8,53.5Zm3.7-6a.9.9,0,0,0-.7.3L326,49h-3.1a1.5,1.5,0,0,0-1.5-1.5h-.8V40.7h.8a1.5,1.5,0,0,0,1.5-1.4v-3a1.5,1.5,0,0,0-1.5-1.5h-7.6a1.5,1.5,0,0,0-1.5,1.5h-.1V16.8h27.5v9a9.3,9.3,0,0,1-.6,3.4,10.8,10.8,0,0,0-13.6,1.1,1.5,1.5,0,0,0-.4,1.1,1.2,1.2,0,0,0,.4,1l5.4,5.2-.6.6h0l-3.8-3.7a1.5,1.5,0,0,0-2.1,0,5.5,5.5,0,0,0-1.5,3.8,7.4,7.4,0,0,0,2.2,5.2h0v.4a1.5,1.5,0,0,0,.4,1.1,10.8,10.8,0,0,0,9.4,2.8h.1a1.4,1.4,0,0,0-.6,1.2h-5.5l-.8-1.2ZM326,42.3a5.5,5.5,0,0,1-1.6-4,4.3,4.3,0,0,1,1.1-2.8l3.8,3.7Zm5.2,11.2a13.6,13.6,0,0,0-1.4-3.1h4.6v3.1Zm4.6,1.5V49h1.3l6.2,6h-7.6Zm18.3,8.9v-.7h0Zm0-.7-9-8.6L336.2,46h-.4a9.6,9.6,0,0,1-9.3-2.2l6.5-6.3-6.5-6.2a9.7,9.7,0,0,1,12.4-.6c0,.1.1.1.1.2h.1l.4.4a8.7,8.7,0,0,1,2.3,8.9v.4L359.5,58Z"/>
    <path class="cls-5" d="M351.1,58a2.9,2.9,0,0,0,.9,2.1,3,3,0,0,0,2.1.8h0a3.2,3.2,0,0,0,2.1-.8,2.9,2.9,0,0,0,.9-2.1,2.7,2.7,0,0,0-.9-2.1,2.9,2.9,0,0,0-4.2,0A2.7,2.7,0,0,0,351.1,58Zm1.9-1.1a1.6,1.6,0,0,1,2.2,0,1.5,1.5,0,0,1,.4,1.1,1.3,1.3,0,0,1-.4,1,1.6,1.6,0,0,1-1.1.5h0A1.6,1.6,0,0,1,353,59a1.4,1.4,0,0,1-.5-1A1.6,1.6,0,0,1,353,56.9Z"/>
    <polygon class="cls-5" points="339.1 44.4 351.1 55.8 352 54.9 340 43.5 339.1 44.4"/>
    <path class="cls-5" d="M334.3,56.5c-.2,0-.4,0-.5.2s-2.5,2.8-2.5,4.2a2.9,2.9,0,0,0,3,3,3,3,0,0,0,3.1-3c0-1.4-2.1-3.7-2.5-4.2A.7.7,0,0,0,334.3,56.5Z"/>
    <rect class="cls-5" x="314.5" y="19.1" width="3" height="1.42"/>
    <rect class="cls-5" x="319.1" y="19.1" width="9.1" height="1.42"/>
    <rect class="cls-5" x="325.2" y="22.1" width="3" height="1.42"/>
    <rect class="cls-5" x="314.5" y="22.1" width="9.1" height="1.42"/>
    <rect class="cls-5" x="329.8" y="19.1" width="1.5" height="1.42"/>
  </g>
</svg>
