<svg id="Layer_1" data-name="Layer 1" xmlns="http://www.w3.org/2000/svg" xmlns:xlink="http://www.w3.org/1999/xlink" width="374.5" height="89.4" viewBox="0 0 374.5 89.4">
  <defs>
    <style>
      .cls-1 {
        fill: url(#linear-gradient);
      }

      .cls-2, .cls-4, .cls-5 {
        fill: #fff;
      }

      .cls-2 {
        opacity: 0.3;
      }

      .cls-2, .cls-3, .cls-4 {
        isolation: isolate;
      }

      .cls-4 {
        font-size: 16px;
        font-family: Montserrat-Medium, Montserrat;
      }
    </style>
    <linearGradient id="linear-gradient" x1="405.55" y1="126.36" x2="21.53" y2="-32.27" gradientUnits="userSpaceOnUse">
      <stop offset="0" stop-color="#75c8b8"/>
      <stop offset="1" stop-color="#71bbe4"/>
    </linearGradient>
  </defs>
  <title>banner_pumbing_P0</title>
  <g id="Page-1">
    <g id="UI---Screen-7---v2">
      <g id="Group-2">
        <path id="Path-4" class="cls-1" d="M0,72.4C71,74,112,68.2,210.5,71c58.9,1.7,113.3,7.8,164,18.4V0H0Z"/>
        <rect id="Rectangle-Copy-2" class="cls-2" x="23.5" y="22" width="47" height="7" rx="3.3" ry="3.3"/>
        <path id="Rectangle-Copy-4" class="cls-2" d="M189.8,29h40.5a3.3,3.3,0,0,1,3.3,3.3v.5a3.3,3.3,0,0,1-3.2,3.3H189.8a3.2,3.2,0,0,1-3.2-3.2v-.5A3.2,3.2,0,0,1,189.8,29Z"/>
        <rect id="Rectangle-Copy-3" class="cls-2" x="64.5" y="35" width="47" height="7" rx="3.3" ry="3.3"/>
        <rect id="Rectangle-Copy-5" class="cls-2" x="233.5" y="42" width="47" height="7" rx="3.3" ry="3.3"/>
        <g id="sweep">
          <g id="_" data-name="+" class="cls-3">
            <text class="cls-4" transform="translate(315.8 26)">+</text>
          </g>
          <g id="_-copy" data-name="+-copy" class="cls-3">
            <text class="cls-4" transform="translate(336.5 14)">+</text>
          </g>
        </g>
      </g>
    </g>
  </g>
  <g>
    <path class="cls-5" d="M329.4,68.9h29.8V67.3h-7V56a2.7,2.7,0,0,0-2.6-2.7h-7.1a2.7,2.7,0,0,0-2.7,2.7V67.3h-1.5V29.5a6.6,6.6,0,0,1,13.1-.6,2.1,2.1,0,0,0-1.2,1.9v3.5a2.1,2.1,0,0,0,2.1,2.1h5.5a2.1,2.1,0,0,0,2.2-2.1V30.8a2.1,2.1,0,0,0-1.3-1.9,13.9,13.9,0,0,0-27.8.6V45.9h1.6V29.5a12.4,12.4,0,0,1,12.3-12.4,12.3,12.3,0,0,1,12.3,11.6H353a8.2,8.2,0,0,0-16.3.8V67.3h-4.2V48.1h-1.6V67.3h-1.5V56a2.7,2.7,0,0,0-2.7-2.7h-7.1A2.7,2.7,0,0,0,317,56V67.3h-7v1.6h19.4Zm12-12.9a1.1,1.1,0,0,1,1.1-1.1h7.1a1,1,0,0,1,1,1.1v1.6h-9.2Zm0,3.2h9.2v8.1h-9.2Zm10.3-28.4a.6.6,0,0,1,.6-.6h5.5a.6.6,0,0,1,.6.6v1h-6.7Zm0,2.5h6.7v1a.6.6,0,0,1-.6.6h-5.5a.6.6,0,0,1-.6-.6ZM318.6,56a1,1,0,0,1,1-1.1h7.1a1.1,1.1,0,0,1,1.1,1.1v1.6h-9.2Zm0,3.2h9.2v8.1h-9.2Z"/>
    <path class="cls-5" d="M355.6,38.2l-.5-.5-.6.5c-.1.1-2.2,2.2-2.2,4.4a2.7,2.7,0,0,0,2.8,2.8,2.8,2.8,0,0,0,2.8-2.8C357.9,40.4,355.7,38.3,355.6,38.2Zm-.5,5.7a1.2,1.2,0,0,1-1.2-1.3,4.5,4.5,0,0,1,1.2-2.6,5.2,5.2,0,0,1,1.2,2.6A1.3,1.3,0,0,1,355.1,43.9Z"/>
    <path class="cls-5" d="M355.6,47.2l-.5-.5-.6.5c-.1.1-2.2,2.2-2.2,4.4a2.7,2.7,0,0,0,2.8,2.8,2.8,2.8,0,0,0,2.8-2.8C357.9,49.4,355.7,47.3,355.6,47.2Zm-.5,5.7a1.2,1.2,0,0,1-1.2-1.3,4.5,4.5,0,0,1,1.2-2.6,5.2,5.2,0,0,1,1.2,2.6A1.3,1.3,0,0,1,355.1,52.9Z"/>
    <rect class="cls-5" x="320.6" y="60.9" width="1.6" height="4.77"/>
    <rect class="cls-5" x="324.2" y="60.9" width="1.6" height="4.77"/>
    <rect class="cls-5" x="343.4" y="60.9" width="1.6" height="4.77"/>
    <rect class="cls-5" x="347" y="60.9" width="1.6" height="4.77"/>
  </g>
</svg>
