<svg id="Layer_1" data-name="Layer 1" xmlns="http://www.w3.org/2000/svg" xmlns:xlink="http://www.w3.org/1999/xlink" width="70" height="70" viewBox="0 0 70 70">
  <defs>
    <style>
      .cls-1 {
        fill: #f6f6f6;
      }

      .cls-2 {
        fill: url(#linear-gradient);
      }

      .cls-3 {
        fill: url(#linear-gradient-2);
      }

      .cls-4 {
        fill: url(#linear-gradient-3);
      }

      .cls-5 {
        fill: url(#linear-gradient-4);
      }

      .cls-6 {
        fill: url(#linear-gradient-5);
      }

      .cls-7 {
        fill: url(#linear-gradient-7);
      }

      .cls-8 {
        fill: url(#linear-gradient-9);
      }

      .cls-9 {
        fill: url(#linear-gradient-10);
      }

      .cls-10 {
        fill: url(#linear-gradient-11);
      }

      .cls-11 {
        fill: url(#linear-gradient-12);
      }

      .cls-12 {
        fill: url(#linear-gradient-13);
      }

      .cls-13 {
        fill: url(#linear-gradient-14);
      }

      .cls-14 {
        fill: url(#linear-gradient-15);
      }

      .cls-15 {
        fill: url(#linear-gradient-17);
      }

      .cls-16 {
        fill: url(#linear-gradient-18);
      }

      .cls-17 {
        fill: url(#linear-gradient-19);
      }

      .cls-18 {
        fill: url(#linear-gradient-20);
      }

      .cls-19 {
        fill: url(#linear-gradient-21);
      }

      .cls-20 {
        fill: url(#linear-gradient-23);
      }

      .cls-21 {
        fill: url(#linear-gradient-24);
      }

      .cls-22 {
        fill: url(#linear-gradient-25);
      }

      .cls-23 {
        fill: url(#linear-gradient-26);
      }

      .cls-24 {
        fill: url(#linear-gradient-27);
      }

      .cls-25 {
        fill: url(#linear-gradient-29);
      }

      .cls-26 {
        fill: url(#linear-gradient-31);
      }

      .cls-27 {
        fill: url(#linear-gradient-33);
      }

      .cls-28 {
        fill: url(#linear-gradient-34);
      }
    </style>
    <linearGradient id="linear-gradient" x1="37.65" y1="76.34" x2="2.1" y2="7.05" gradientUnits="userSpaceOnUse">
      <stop offset="0" stop-color="#75c9b9"/>
      <stop offset="1" stop-color="#72bde5"/>
    </linearGradient>
    <linearGradient id="linear-gradient-2" x1="37.65" y1="76.34" x2="2.1" y2="7.05" xlink:href="#linear-gradient"/>
    <linearGradient id="linear-gradient-3" x1="42.15" y1="74.03" x2="6.6" y2="4.74" xlink:href="#linear-gradient"/>
    <linearGradient id="linear-gradient-4" x1="42.15" y1="74.03" x2="6.6" y2="4.74" xlink:href="#linear-gradient"/>
    <linearGradient id="linear-gradient-5" x1="43.63" y1="73.27" x2="8.08" y2="3.98" xlink:href="#linear-gradient"/>
    <linearGradient id="linear-gradient-7" x1="38.91" y1="75.69" x2="3.36" y2="6.41" xlink:href="#linear-gradient"/>
    <linearGradient id="linear-gradient-9" x1="67.64" y1="60.95" x2="32.09" y2="-8.34" xlink:href="#linear-gradient"/>
    <linearGradient id="linear-gradient-10" x1="67.64" y1="60.95" x2="32.09" y2="-8.34" xlink:href="#linear-gradient"/>
    <linearGradient id="linear-gradient-11" x1="71.34" y1="59.05" x2="35.79" y2="-10.24" xlink:href="#linear-gradient"/>
    <linearGradient id="linear-gradient-12" x1="71.34" y1="59.05" x2="35.79" y2="-10.24" xlink:href="#linear-gradient"/>
    <linearGradient id="linear-gradient-13" x1="62.39" y1="63.64" x2="26.84" y2="-5.64" xlink:href="#linear-gradient"/>
    <linearGradient id="linear-gradient-14" x1="62.39" y1="63.64" x2="26.84" y2="-5.64" xlink:href="#linear-gradient"/>
    <linearGradient id="linear-gradient-15" x1="58.44" y1="65.67" x2="22.89" y2="-3.62" xlink:href="#linear-gradient"/>
    <linearGradient id="linear-gradient-17" x1="67.93" y1="60.8" x2="32.38" y2="-8.49" xlink:href="#linear-gradient"/>
    <linearGradient id="linear-gradient-18" x1="67.93" y1="60.8" x2="32.38" y2="-8.49" xlink:href="#linear-gradient"/>
    <linearGradient id="linear-gradient-19" x1="60.23" y1="64.75" x2="24.68" y2="-4.54" xlink:href="#linear-gradient"/>
    <linearGradient id="linear-gradient-20" x1="60.23" y1="64.75" x2="24.68" y2="-4.54" xlink:href="#linear-gradient"/>
    <linearGradient id="linear-gradient-21" x1="58.65" y1="65.56" x2="23.1" y2="-3.72" xlink:href="#linear-gradient"/>
    <linearGradient id="linear-gradient-23" x1="61.11" y1="64.3" x2="25.56" y2="-4.99" xlink:href="#linear-gradient"/>
    <linearGradient id="linear-gradient-24" x1="61.11" y1="64.3" x2="25.56" y2="-4.99" xlink:href="#linear-gradient"/>
    <linearGradient id="linear-gradient-25" x1="59.85" y1="64.95" x2="24.3" y2="-4.34" xlink:href="#linear-gradient"/>
    <linearGradient id="linear-gradient-26" x1="59.85" y1="64.95" x2="24.3" y2="-4.34" xlink:href="#linear-gradient"/>
    <linearGradient id="linear-gradient-27" x1="57.07" y1="66.37" x2="21.52" y2="-2.91" xlink:href="#linear-gradient"/>
    <linearGradient id="linear-gradient-29" x1="58.9" y1="65.43" x2="23.35" y2="-3.85" xlink:href="#linear-gradient"/>
    <linearGradient id="linear-gradient-31" x1="63.26" y1="63.2" x2="27.71" y2="-6.09" xlink:href="#linear-gradient"/>
    <linearGradient id="linear-gradient-33" x1="61.68" y1="64.01" x2="26.13" y2="-5.28" xlink:href="#linear-gradient"/>
    <linearGradient id="linear-gradient-34" x1="61.68" y1="64.01" x2="26.13" y2="-5.28" xlink:href="#linear-gradient"/>
  </defs>
  <title>icon_civil_M0</title>
  <path id="Rectangle" class="cls-1" d="M3,0H67a2.9,2.9,0,0,1,3,3V67a2.9,2.9,0,0,1-3,3H3a2.9,2.9,0,0,1-3-3V3A2.9,2.9,0,0,1,3,0Z"/>
  <g>
    <g>
      <path class="cls-2" d="M32.7,59.9H14a2.3,2.3,0,0,1-2.4-2.3V38.9a.9.9,0,0,1,.8-.8H34.2a.8.8,0,0,1,.8.8V57.6A2.3,2.3,0,0,1,32.7,59.9ZM13.2,39.7V57.6a.9.9,0,0,0,.8.8H32.7a.8.8,0,0,0,.7-.8V39.7Z"/>
      <path class="cls-3" d="M32.7,60H14a2.4,2.4,0,0,1-2.4-2.4V38.9a.8.8,0,0,1,.8-.9H34.2a.9.9,0,0,1,.9.9V57.6A2.4,2.4,0,0,1,32.7,60ZM12.4,38.2a.7.7,0,0,0-.7.7V57.6A2.2,2.2,0,0,0,14,59.8H32.7a2.2,2.2,0,0,0,2.2-2.2V38.9a.7.7,0,0,0-.7-.7ZM32.7,58.4H14a.8.8,0,0,1-.9-.8v-18H33.5v18A.8.8,0,0,1,32.7,58.4ZM13.3,39.8V57.6a.7.7,0,0,0,.7.7H32.7a.8.8,0,0,0,.7-.7V39.8Z"/>
    </g>
    <g>
      <path class="cls-4" d="M35.8,39.7H10.9a.8.8,0,0,1-.8-.8V35.8a.7.7,0,0,1,.8-.8H35.8a.8.8,0,0,1,.8.8v3.1A.9.9,0,0,1,35.8,39.7ZM11.6,38.1H35V36.6H11.6Z"/>
      <path class="cls-5" d="M35.8,39.8H10.9a.9.9,0,0,1-.9-.9V35.8a.9.9,0,0,1,.9-.9H35.8a.8.8,0,0,1,.8.9v3.1A.8.8,0,0,1,35.8,39.8ZM10.9,35.1a.7.7,0,0,0-.7.7v3.1a.7.7,0,0,0,.7.7H35.8a.7.7,0,0,0,.7-.7V35.8a.7.7,0,0,0-.7-.7Zm24.2,3.1H11.6V36.5H35.1ZM11.7,38H34.9V36.6H11.7Z"/>
    </g>
    <g>
      <path class="cls-6" d="M34.2,36.6H12.4a.9.9,0,0,1-.8-.8V34.2a11.7,11.7,0,1,1,23.4,0v1.6A.8.8,0,0,1,34.2,36.6ZM13.2,35H33.4v-.8a10.1,10.1,0,1,0-20.2,0Z"/>
      <path class="cls-6" d="M34.2,36.6H12.4a.7.7,0,0,1-.8-.8V34.2a11.8,11.8,0,0,1,23.5,0v1.6A.8.8,0,0,1,34.2,36.6Zm-10.9-14A11.6,11.6,0,0,0,11.7,34.2v1.6a.7.7,0,0,0,.7.7H34.2a.7.7,0,0,0,.7-.7V34.2A11.6,11.6,0,0,0,23.3,22.6ZM33.5,35.1H13.1v-.9a10.2,10.2,0,1,1,20.4,0Zm-20.2-.2H33.4v-.7a10.1,10.1,0,0,0-20.1,0Z"/>
    </g>
    <g>
      <path class="cls-7" d="M28,50.6h-.4a4,4,0,0,1-3.5-4.1v-.6a1.6,1.6,0,0,0-1.6-1.6A1.6,1.6,0,0,0,21,45.9a2.4,2.4,0,0,1-4.7,0,1.6,1.6,0,0,0-1.5-1.6,1.6,1.6,0,0,0-1.6,1.6.8.8,0,0,1-.8.8.9.9,0,0,1-.8-.8,3.2,3.2,0,0,1,6.3,0,.8.8,0,0,0,.8.8.8.8,0,0,0,.7-.8,3.2,3.2,0,0,1,6.3,0v.6A2.4,2.4,0,0,0,27.8,49a2.1,2.1,0,0,0,1.8-.6,2.2,2.2,0,0,0,.7-1.7V45.1a2.3,2.3,0,0,1,2.4-2.3A2.3,2.3,0,0,1,35,45.1a.8.8,0,0,1-.8.8.9.9,0,0,1-.8-.8.8.8,0,0,0-.7-.8.8.8,0,0,0-.8.8v1.6a4.1,4.1,0,0,1-1.3,2.9A4,4,0,0,1,28,50.6Z"/>
      <path class="cls-7" d="M28,50.7h-.4A4.1,4.1,0,0,1,24,46.5v-.6a1.5,1.5,0,0,0-1.5-1.5,1.5,1.5,0,0,0-1.4,1.5,2.5,2.5,0,0,1-4.9,0,1.5,1.5,0,0,0-1.4-1.5,1.5,1.5,0,0,0-1.5,1.5.9.9,0,0,1-.9.9.8.8,0,0,1-.8-.9,3.2,3.2,0,0,1,3.2-3.2A3.2,3.2,0,0,1,18,45.9a.7.7,0,0,0,.7.7.7.7,0,0,0,.6-.7,3.2,3.2,0,0,1,3.2-3.2,3.2,3.2,0,0,1,3.2,3.2v.6a2.3,2.3,0,0,0,2.1,2.4,1.9,1.9,0,0,0,1.7-.6,2,2,0,0,0,.7-1.6V45.1a2.5,2.5,0,0,1,4.9,0,.9.9,0,0,1-.9.9.8.8,0,0,1-.8-.9.8.8,0,0,0-.7-.7.7.7,0,0,0-.7.7v1.6a3.9,3.9,0,0,1-1.3,2.9A4,4,0,0,1,28,50.7Zm-5.5-6.5a1.7,1.7,0,0,1,1.7,1.7v.6a3.9,3.9,0,0,0,3.4,4H28a3.8,3.8,0,0,0,3.8-3.8V45.1a.9.9,0,0,1,.9-.9.9.9,0,0,1,.8.9.7.7,0,0,0,1.4,0,2.2,2.2,0,0,0-2.2-2.2,2.2,2.2,0,0,0-2.3,2.2v1.6a2.5,2.5,0,0,1-.8,1.8,2.4,2.4,0,0,1-4-2v-.6a3.1,3.1,0,0,0-6.1,0,.9.9,0,0,1-.8.9.9.9,0,0,1-.9-.9,3.1,3.1,0,0,0-6.1,0,.7.7,0,0,0,1.4,0,1.8,1.8,0,0,1,1.7-1.7,1.7,1.7,0,0,1,1.6,1.7,2.2,2.2,0,0,0,2.3,2.2,2.2,2.2,0,0,0,2.2-2.2A1.7,1.7,0,0,1,22.5,44.2Z"/>
    </g>
    <g>
      <path class="cls-8" d="M55.2,21H33.4a1.6,1.6,0,0,1-1.5-1.6V11.6a1.5,1.5,0,0,1,1.5-1.5H55.2a1.6,1.6,0,0,1,1.6,1.5v7.8A1.6,1.6,0,0,1,55.2,21ZM33.4,11.6v7.8H55.2V11.6Z"/>
      <path class="cls-9" d="M55.2,21.1H33.4a1.7,1.7,0,0,1-1.6-1.7V11.6A1.6,1.6,0,0,1,33.4,10H55.2a1.7,1.7,0,0,1,1.7,1.6v7.8A1.8,1.8,0,0,1,55.2,21.1ZM33.4,10.2A1.4,1.4,0,0,0,32,11.6v7.8a1.5,1.5,0,0,0,1.4,1.5H55.2a1.5,1.5,0,0,0,1.5-1.5V11.6a1.5,1.5,0,0,0-1.5-1.4Zm21.9,9.3H33.4V11.6H55.3Zm-21.8-.2H55.1V11.7H33.5Z"/>
    </g>
    <g>
      <path class="cls-10" d="M45.9,28.8a.8.8,0,0,1-.7-.5.7.7,0,0,1,.4-1L57.8,23c.3-.2.6-.4.6-.8V17.1a.9.9,0,0,0-.8-.8H56a.8.8,0,0,1-.8-.8.8.8,0,0,1,.8-.7h1.6a2.3,2.3,0,0,1,2.3,2.3v5.1a2.3,2.3,0,0,1-1.5,2.2L46.2,28.7Z"/>
      <path class="cls-11" d="M45.9,28.9a.9.9,0,0,1-.8-.6.9.9,0,0,1,0-.7,1,1,0,0,1,.5-.4l12.2-4.3a.8.8,0,0,0,.5-.7V17.1a.7.7,0,0,0-.7-.7H56a.9.9,0,0,1-.9-.9.9.9,0,0,1,.9-.8h1.6A2.4,2.4,0,0,1,60,17.1v5.1a2.5,2.5,0,0,1-1.6,2.3L46.2,28.8ZM56,14.9a.7.7,0,0,0-.7.6.7.7,0,0,0,.7.7h1.6a.8.8,0,0,1,.8.9v5.1a.8.8,0,0,1-.5.8L45.7,27.3a.8.8,0,0,0-.4.4.9.9,0,0,0-.1.5.8.8,0,0,0,.7.5h.2l12.2-4.3a2.2,2.2,0,0,0,1.5-2.1V17.1a2.2,2.2,0,0,0-2.2-2.2Z"/>
    </g>
    <g>
      <path class="cls-12" d="M45.9,35.8a.9.9,0,0,1-.8-.8V28a.8.8,0,0,1,1.6,0v7A.9.9,0,0,1,45.9,35.8Z"/>
      <path class="cls-13" d="M45.9,35.9A.9.9,0,0,1,45,35V28a.9.9,0,1,1,1.8,0v7A.9.9,0,0,1,45.9,35.9Zm0-8.6a.7.7,0,0,0-.7.7v7a.7.7,0,1,0,1.4,0V28A.7.7,0,0,0,45.9,27.3Z"/>
    </g>
    <g>
      <path class="cls-14" d="M48.2,48.2H43.6a.7.7,0,0,1-.8-.7V35a.8.8,0,0,1,.8-.8h4.6a.8.8,0,0,1,.8.8V47.5A.7.7,0,0,1,48.2,48.2Zm-3.9-1.5h3.2V35.8H44.3Z"/>
      <path class="cls-14" d="M48.2,48.3H43.6a.9.9,0,0,1-.9-.8V35a.9.9,0,0,1,.9-.9h4.6a.9.9,0,0,1,.9.9V47.5A.9.9,0,0,1,48.2,48.3Zm-4.6-14a.7.7,0,0,0-.7.7V47.5a.7.7,0,0,0,.7.6h4.6a.7.7,0,0,0,.7-.6V35a.7.7,0,0,0-.7-.7Zm3.9,12.5H44.3V35.7h3.2Zm-3.1-.2h3V35.9h-3Z"/>
    </g>
    <g>
      <path class="cls-15" d="M52.9,17.9H38.1a.8.8,0,0,1,0-1.6H52.9a.8.8,0,1,1,0,1.6Z"/>
      <path class="cls-16" d="M52.9,18H38.1a.9.9,0,0,1,0-1.8H52.9a.9.9,0,0,1,0,1.8ZM38.1,16.4a.7.7,0,1,0,0,1.4H52.9a.7.7,0,0,0,0-1.4Z"/>
    </g>
    <g>
      <path class="cls-17" d="M35.8,17.9a.9.9,0,0,1-.6-.3.8.8,0,0,1-.2-.5,1.4,1.4,0,0,1,.2-.6,1.1,1.1,0,0,1,1.1,0,.9.9,0,0,1,.3.6.5.5,0,0,1-.3.5A.5.5,0,0,1,35.8,17.9Z"/>
      <path class="cls-18" d="M35.8,18a.7.7,0,0,1-.6-.3.9.9,0,0,1-.3-.6.7.7,0,0,1,.3-.6.9.9,0,0,1,1.2,0c.2.1.2.4.2.6a.7.7,0,0,1-.2.6A.9.9,0,0,1,35.8,18Zm0-1.6-.5.2a.7.7,0,0,0,0,1,.9.9,0,0,0,1,0,.7.7,0,0,0,0-1Z"/>
    </g>
    <g>
      <path class="cls-19" d="M35.8,22.5a.7.7,0,0,1-.8-.7V20.2a.8.8,0,0,1,.8-.8.9.9,0,0,1,.8.8v1.6A.8.8,0,0,1,35.8,22.5Z"/>
      <path class="cls-19" d="M35.8,22.6a.9.9,0,0,1-.9-.8V20.2a.9.9,0,0,1,.9-.9.8.8,0,0,1,.8.9v1.6A.8.8,0,0,1,35.8,22.6Zm0-3.1a.7.7,0,0,0-.7.7v1.6a.7.7,0,1,0,1.4,0V20.2A.7.7,0,0,0,35.8,19.5Z"/>
    </g>
    <g>
      <path class="cls-20" d="M38.9,22.5a.8.8,0,0,1-.8-.7V20.2a.8.8,0,1,1,1.6,0v1.6A.8.8,0,0,1,38.9,22.5Z"/>
      <path class="cls-21" d="M38.9,22.6a.9.9,0,0,1-.9-.8V20.2a.9.9,0,1,1,1.8,0v1.6A.9.9,0,0,1,38.9,22.6Zm0-3.1a.7.7,0,0,0-.7.7v1.6a.7.7,0,1,0,1.4,0V20.2A.7.7,0,0,0,38.9,19.5Z"/>
    </g>
    <g>
      <path class="cls-22" d="M38.9,24.9l-.6-.2a1.4,1.4,0,0,1-.2-.6,1.4,1.4,0,0,1,.2-.6,1.1,1.1,0,0,1,1.1,0,.8.8,0,0,1,0,1.2Z"/>
      <path class="cls-23" d="M38.9,25a1.1,1.1,0,0,1-.9-.9.9.9,0,0,1,.3-.6.9.9,0,0,1,1.2,0,.9.9,0,0,1-.6,1.5Zm0-1.6-.5.2a.7.7,0,0,0,0,1l.5.2.5-.2a.7.7,0,0,0,0-1Z"/>
    </g>
    <g>
      <path class="cls-24" d="M35.8,26.4a.7.7,0,0,1-.8-.7V24.1a.8.8,0,0,1,.8-.8.9.9,0,0,1,.8.8v1.6A.8.8,0,0,1,35.8,26.4Z"/>
      <path class="cls-24" d="M35.8,26.5a.9.9,0,0,1-.9-.8V24.1a.9.9,0,0,1,.9-.9.8.8,0,0,1,.8.9v1.6A.8.8,0,0,1,35.8,26.5Zm0-3.1a.7.7,0,0,0-.7.7v1.6a.7.7,0,0,0,1.4,0V24.1A.7.7,0,0,0,35.8,23.4Z"/>
    </g>
    <g>
      <path class="cls-25" d="M38.9,27.2l-.6-.2a1.4,1.4,0,0,1-.2-.6.8.8,0,0,1,.2-.5.8.8,0,0,1,1.1,0,.5.5,0,0,1,.3.5.9.9,0,0,1-.3.6Z"/>
      <path class="cls-25" d="M38.9,27.3l-.6-.2a.9.9,0,0,1-.3-.7.9.9,0,0,1,.3-.6.9.9,0,0,1,1.2,0,.9.9,0,0,1,.3.6.9.9,0,0,1-.3.7Zm0-1.5h-.5l-.2.5a.8.8,0,0,0,.2.5l.5.2.5-.2a.8.8,0,0,0,.2-.5l-.2-.5Z"/>
    </g>
    <g>
      <path class="cls-26" d="M42,24.1a.8.8,0,0,1-.8-.8V20.2a.8.8,0,0,1,1.6,0v3.1A.8.8,0,0,1,42,24.1Z"/>
      <path class="cls-26" d="M42,24.2a.9.9,0,0,1-.9-.9V20.2a.9.9,0,0,1,1.8,0v3.1A.9.9,0,0,1,42,24.2Zm0-4.7a.7.7,0,0,0-.7.7v3.1a.7.7,0,1,0,1.4,0V20.2A.7.7,0,0,0,42,19.5Z"/>
    </g>
    <g>
      <path class="cls-27" d="M42,26.4c-.2,0-.4,0-.5-.2a.5.5,0,0,1-.3-.5.9.9,0,0,1,.3-.6.8.8,0,0,1,1.1,0,1.4,1.4,0,0,1,.2.6.8.8,0,0,1-.2.5A.7.7,0,0,1,42,26.4Z"/>
      <path class="cls-28" d="M42,26.5l-.6-.2a.9.9,0,0,1-.3-.6.9.9,0,1,1,1.8,0,.9.9,0,0,1-.3.6ZM42,25c-.2,0-.4,0-.5.2a.6.6,0,0,0,0,.9.7.7,0,0,0,1,0,.6.6,0,0,0,0-.9C42.4,25,42.2,25,42,25Z"/>
    </g>
  </g>
</svg>
