<svg id="Layer_1" data-name="Layer 1" xmlns="http://www.w3.org/2000/svg" xmlns:xlink="http://www.w3.org/1999/xlink" width="70" height="70" viewBox="0 0 70 70">
  <defs>
    <style>
      .cls-1 {
        fill: #f6f6f6;
      }

      .cls-2 {
        fill: url(#linear-gradient);
      }
    </style>
    <linearGradient id="linear-gradient" x1="51.93" y1="68.68" x2="16.93" y2="-0.96" gradientUnits="userSpaceOnUse">
      <stop offset="0" stop-color="#75c9b9"/>
      <stop offset="1" stop-color="#72bde5"/>
    </linearGradient>
  </defs>
  <title>icon_civil_M0</title>
  <path id="Rectangle" class="cls-1" d="M3,0H67a2.9,2.9,0,0,1,3,3V67a2.9,2.9,0,0,1-3,3H3a2.9,2.9,0,0,1-3-3V3A2.9,2.9,0,0,1,3,0Z"/>
  <g>
    <path class="cls-2" d="M27.7,42.3H42.3V27.7H27.7Zm1.4-13.2H40.9V40.9H29.1Z"/>
    <path class="cls-2" d="M45.4,10H10V60H60V10Zm13.2,1.4V23.2H46.8V11.4Zm-17.7,0V23.2H29.1V11.4Zm-29.5,0H23.2V23.2H11.4Zm0,17.7H23.2V40.9H11.4Zm0,29.5V46.8H23.2V58.6Zm17.7,0V46.8H40.9V58.6Zm29.5,0H46.8V46.8H58.6Zm0-17.7H46.8V29.1H58.6Zm0-13.2H45.4V42.3H58.6v3.1H45.4V58.6H42.3V45.4H27.7V58.6H24.6V45.4H11.4V42.3H24.6V27.7H11.4V24.6H24.6V11.4h3.1V24.6H42.3V11.4h3.1V24.6H58.6Z"/>
  </g>
</svg>
