<svg id="Layer_1" data-name="Layer 1" xmlns="http://www.w3.org/2000/svg" xmlns:xlink="http://www.w3.org/1999/xlink" width="70" height="70" viewBox="0 0 70 70">
  <defs>
    <style>
      .cls-1 {
        fill: none;
      }

      .cls-2 {
        fill: #f6f6f6;
      }

      .cls-3 {
        clip-path: url(#clip-path);
      }

      .cls-4 {
        fill: url(#linear-gradient);
      }

      .cls-5 {
        fill: url(#linear-gradient-2);
      }

      .cls-6 {
        fill: url(#linear-gradient-3);
      }

      .cls-7 {
        fill: url(#linear-gradient-4);
      }

      .cls-8 {
        fill: url(#linear-gradient-5);
      }

      .cls-9 {
        fill: url(#linear-gradient-6);
      }

      .cls-10 {
        fill: url(#linear-gradient-7);
      }
    </style>
    <clipPath id="clip-path">
      <rect class="cls-1" x="10" y="10.2" width="50" height="50.98"/>
    </clipPath>
    <linearGradient id="linear-gradient" x1="49.2" y1="74.18" x2="7.42" y2="4.53" gradientUnits="userSpaceOnUse">
      <stop offset="0" stop-color="#75c9b9"/>
      <stop offset="1" stop-color="#72bde5"/>
    </linearGradient>
    <linearGradient id="linear-gradient-2" x1="51.6" y1="72.74" x2="9.81" y2="3.09" xlink:href="#linear-gradient"/>
    <linearGradient id="linear-gradient-3" x1="42" y1="78.49" x2="0.22" y2="8.85" xlink:href="#linear-gradient"/>
    <linearGradient id="linear-gradient-4" x1="55.33" y1="70.5" x2="13.54" y2="0.86" xlink:href="#linear-gradient"/>
    <linearGradient id="linear-gradient-5" x1="44.02" y1="77.28" x2="2.24" y2="7.64" xlink:href="#linear-gradient"/>
    <linearGradient id="linear-gradient-6" x1="34.42" y1="83.04" x2="-7.36" y2="13.4" xlink:href="#linear-gradient"/>
    <linearGradient id="linear-gradient-7" x1="65.82" y1="64.21" x2="24.03" y2="-5.44" xlink:href="#linear-gradient"/>
  </defs>
  <title>icon_civil_M0</title>
  <path id="Rectangle" class="cls-2" d="M3,0H67a2.9,2.9,0,0,1,3,3V67a2.9,2.9,0,0,1-3,3H3a2.9,2.9,0,0,1-3-3V3A2.9,2.9,0,0,1,3,0Z"/>
  <g class="cls-3">
    <g>
      <path class="cls-4" d="M66,58.8H18.7a8.4,8.4,0,0,1-.6-6.5,5.9,5.9,0,0,1,.6-1.4,7.8,7.8,0,0,1,1-1.5A18.5,18.5,0,0,1,25,45.3l1.1-.5.5-.3h.1l.8-.3a19.3,19.3,0,0,0,4.4-1.8,13.7,13.7,0,0,0,2.9-2A15.4,15.4,0,0,0,38.9,34a7.4,7.4,0,0,1,.4-1.4c.2-1.2.4-2.5.5-3.9v-.2c0-.5.1-1,.1-1.5l.3-1.4.3-1.5A24.8,24.8,0,0,1,42,20l.7-1.4.9-1.4,1-1.4.2-.3L46,14.1a29.4,29.4,0,0,1,2.6-2.5l2-1.4h.2l-.7-1.3a20.5,20.5,0,0,0-2,1.4H44.2v3.7l-.8,1-.6.8a.3.3,0,0,1-.1.2V10.2H26v7.1H41.8a5.4,5.4,0,0,0-.7,1.3c-.1,0-.1.1-.1.2H36.2v7.1h2.5a3.6,3.6,0,0,0-.2,1.1v.4H26v7.1H37.1a14.9,14.9,0,0,1-2.3,3.9v-3H18.1v7H28.4l-1.4.5a2.3,2.3,0,0,0-1.1.4l-.4.2-.8.4-1.2.7H7.9v7.1h8.9a.3.3,0,0,0-.1.2c0,.1-.1.2-.1.4a2.4,2.4,0,0,0-.2.8H.7v7.1H66ZM45.7,11.7h.7L46,12l-.3.3Zm-4.4,4.1H27.4V11.7H41.3Zm-3.7,8.6V20.2h2.7A22.3,22.3,0,0,0,39,24.1a.4.4,0,0,1-.1.3ZM27.4,33V28.8H38.3a14.6,14.6,0,0,1-.5,3.8.6.6,0,0,0-.1.4Zm-7.9,8V36.9H33.3v2.8L31.5,41ZM2.2,58.8V54.6H16.3a9.2,9.2,0,0,0,.3,2.8c.2.4.3.9.5,1.4Zm7.1-8.6V46h12a15.6,15.6,0,0,0-3.4,3.4c-.1.3-.3.5-.4.8Z"/>
      <path class="cls-5" d="M24.6,10.2H7.9v7.1H24.6Zm-1.5,5.6H9.3V11.7H23.1Z"/>
      <path class="cls-6" d="M16.6,18.8H-.1v7.1H16.6Zm-1.4,5.6H1.4V20.2H15.2Z"/>
      <path class="cls-7" d="M34.8,18.8H18.1v7.1H34.8Zm-1.5,5.6H19.5V20.2H33.3Z"/>
      <path class="cls-8" d="M7.9,34.5H24.6V27.4H7.9Zm1.4-5.7H23.1V33H9.3Z"/>
      <path class="cls-9" d="M16.6,35.9H-.1V43H16.6Zm-1.4,5.7H1.4V37.4H15.2Z"/>
      <path class="cls-10" d="M42.9,23.1a1.6,1.6,0,0,0-1,1.7l.2,14.7A1.6,1.6,0,0,0,43,41a1.7,1.7,0,0,0,1.7.1l3.9-1.9,1,2.2-.8.4a.7.7,0,0,0-.4.9l.5,1a1.6,1.6,0,0,0,1.4.8l.3.6h-.2c-.1.1-.2.1-.2.2a.5.5,0,0,0-.1.7L52.9,52a2.9,2.9,0,0,0,1.9,1.8l1.1.2a4,4,0,0,0,1.5-.3A3.6,3.6,0,0,0,59,49.1l-2.8-5.9c0-.1-.1-.1-.2-.2l-.4-.2h-.5l-.3-.6.3-.5a1.4,1.4,0,0,0-.1-1.1l-.4-1-.4-.4h-.5l-.9.4-1-2.2,3.9-1.8a1.8,1.8,0,0,0,.9-1,.8.8,0,0,0,.1-.4,1.7,1.7,0,0,0-.6-1.6L44.9,23.3A2,2,0,0,0,42.9,23.1Zm5.2,12.1v-.4l.2-.2a.4.4,0,0,1,.6.2l2.7,5.7-.8.3Zm7.2,9.2,2.5,5.3h0a2.1,2.1,0,0,1-.4,2.4L54,45Zm.9,8.2a1.9,1.9,0,0,1-2.1-1.1l-2.5-5.3,1.2-.6Zm-4.4-8-.3-.5,2.2-1,.2.5ZM53.7,41v.3c.1.1,0,.2-.1.3l-3.4,1.6c-.1,0-.2,0-.2-.1l-.2-.4Zm1.7-6.7c0,.2-.1.3-.3.4l-3.9,1.8-1.1-2.3a1.7,1.7,0,0,0-2.3-.8,1.3,1.3,0,0,0-.9,1,1.5,1.5,0,0,0,0,1.3L48,38l-3.9,1.9h0a.3.3,0,0,1-.4,0c-.2-.1-.2-.2-.3-.4l-.2-14.8c0-.2.1-.3.3-.4s.1-.1.2-.1H44l11.2,9.6Z"/>
    </g>
  </g>
</svg>
