<svg id="Layer_1" data-name="Layer 1" xmlns="http://www.w3.org/2000/svg" xmlns:xlink="http://www.w3.org/1999/xlink" width="70" height="70" viewBox="0 0 70 70">
  <defs>
    <style>
      .cls-1 {
        fill: #f6f6f6;
      }

      .cls-2 {
        fill: url(#linear-gradient);
      }

      .cls-3 {
        fill: url(#linear-gradient-2);
      }

      .cls-4 {
        fill: url(#linear-gradient-3);
      }

      .cls-5 {
        fill: url(#linear-gradient-4);
      }

      .cls-6 {
        fill: url(#linear-gradient-5);
      }
    </style>
    <linearGradient id="linear-gradient" x1="43.21" y1="79.73" x2="0.88" y2="2.06" gradientUnits="userSpaceOnUse">
      <stop offset="0" stop-color="#75c9b9"/>
      <stop offset="1" stop-color="#72bde5"/>
    </linearGradient>
    <linearGradient id="linear-gradient-2" x1="47.87" y1="77.19" x2="5.54" y2="-0.48" xlink:href="#linear-gradient"/>
    <linearGradient id="linear-gradient-3" x1="52.38" y1="74.73" x2="10.05" y2="-2.94" xlink:href="#linear-gradient"/>
    <linearGradient id="linear-gradient-4" x1="50.39" y1="75.82" x2="8.05" y2="-1.85" xlink:href="#linear-gradient"/>
    <linearGradient id="linear-gradient-5" x1="53.49" y1="74.12" x2="11.16" y2="-3.54" xlink:href="#linear-gradient"/>
  </defs>
  <title>icon_housekeeping_H0</title>
  <path id="Rectangle" class="cls-1" d="M3,0H67a2.9,2.9,0,0,1,3,3V67a2.9,2.9,0,0,1-3,3H3a2.9,2.9,0,0,1-3-3V3A2.9,2.9,0,0,1,3,0Z"/>
  <g>
    <path class="cls-2" d="M10,24.7h0v.2h4.4l.2-.2h.2v-.4h0v-.2h-.2v-.2h0V21H10v.4h0V21h0v.4h0V22h0v.4h0v.8h0v.2h0v.2h0v.4Zm3.3-1.4H11.5v-.2h0v-.2h1.8Zm-1.8-1.8v-.2h0Z"/>
    <polygon class="cls-3" points="20.6 22.7 20.6 22.5 20.6 22.1 20.6 22 20.6 21.6 20.6 21.5 20.6 21.1 20.6 21 20.6 20.6 20.6 20.5 20.6 20.2 20.6 20.1 20.6 20 20.5 19.9 20.4 19.9 20.3 19.9 20.2 19.9 19.9 19.9 19.8 19.9 19.4 19.9 19.3 19.9 19.2 19.9 19.1 20 19.1 20.1 19.1 20.6 19.1 20.7 19.1 21.2 19.1 21.3 19.1 21.8 19.1 21.9 19 21.9 19 22 18.9 22 18.8 22 18.4 21.9 17.9 21.9 17.8 21.9 17.5 22 17.4 22 17.3 22 17.2 22 17.2 21.9 17.2 21.9 17.1 21.8 17.1 21.2 17.2 20.7 17.2 20.6 17.2 20.3 17.2 20.1 17.2 20.1 17.1 20 17.1 19.9 17 19.9 16.9 19.9 16.8 19.9 16.5 19.9 16.4 19.9 16 19.9 15.9 19.9 15.8 19.9 15.7 20 15.7 20 15.6 20.1 15.6 20.3 15.7 20.5 15.7 20.6 15.7 21 15.7 21.1 15.6 21.5 15.6 21.6 15.6 22.1 15.6 22.5 15.6 22.7 15.7 23 15.7 23.2 15.7 23.6 15.7 23.7 15.6 24.1 15.6 24.7 15.6 24.9 15.6 25 15.6 25.1 15.7 25.2 15.7 25.2 15.7 25.2 15.8 25.3 15.9 25.3 16 25.3 16.4 25.2 16.5 25.2 16.8 25.3 16.9 25.3 17 25.3 17.1 25.3 17.2 25.2 17.2 25.1 17.2 24.9 17.2 24.6 17.2 24.5 17.2 24 17.2 23.9 17.2 23.4 17.2 23.3 17.2 23.2 17.3 23.2 17.4 23.2 17.8 23.2 18.4 23.3 18.5 23.2 18.8 23.2 18.9 23.2 19 23.3 19.1 23.3 19.1 23.4 19.1 23.9 19.1 24 19.1 24.5 19.1 24.6 19.1 25.1 19.1 25.2 19.2 25.2 19.3 25.3 19.4 25.3 19.8 25.2 19.9 25.2 20.3 25.3 20.4 25.2 20.5 25.2 20.5 25.2 20.6 25.1 20.6 25 20.6 24.9 20.6 24.7 20.5 24.6 20.5 24.1 20.6 23.7 20.6 23.6 20.5 23.2 20.5 23 20.6 22.7"/>
    <polygon class="cls-4" points="23.1 24.2 23.1 23.7 23.2 23.6 23.2 23.6 23.3 23.6 23.3 23.7 23.4 23.8 23.6 24.1 23.7 24.1 24 24.4 24 24.5 24.3 24.8 24.3 24.9 24.6 25.2 24.6 25.3 24.7 25.3 25.2 25.2 25.3 25.2 25.8 25.3 25.9 25.3 26.3 25.3 26.4 25.3 26.4 25.3 26.5 25.2 26.5 25.2 26.5 25.1 26.1 24.8 26.1 24.7 25.7 24.4 25.7 24.3 25.4 23.9 25.3 23.8 25 23.5 24.9 23.4 24.6 23.1 24.5 23 24.3 22.6 24.2 22.6 24.2 22.5 24.2 22.5 24.3 22.4 24.3 22.3 24.5 22.2 24.6 22.1 24.9 21.7 24.9 21.7 25.2 21.3 25.3 21.2 25.6 20.9 25.7 20.8 25.9 20.5 26 20.4 26.3 20.1 26.3 20 26.3 20 26.3 20 26.3 20 26.2 20 25.9 20 25.8 20 25.5 20 25.1 19.9 25 19.9 24.6 19.9 24.5 20 24.5 20 24.2 20.3 24.1 20.4 23.9 20.7 23.5 21.2 23.3 21.5 23.2 21.6 23.2 21.6 23.1 21.5 23.1 21.1 23.1 21 23.1 20.6 23.1 20.5 23.1 20.2 23.1 20.1 23.1 20 23.1 20 23.1 20 23 20 22.7 19.9 22.5 19.9 22.2 20 22.1 20 21.9 19.9 21.7 19.9 21.7 19.9 21.6 20 21.6 20.1 21.6 20.5 21.6 20.6 21.6 21.5 21.6 21.6 21.6 22 21.6 22.1 21.6 22.5 21.6 23.1 21.6 23.2 21.6 23.6 21.6 23.7 21.6 24.2 21.6 24.6 21.6 24.7 21.6 24.9 21.6 25 21.6 25.1 21.6 25.2 21.7 25.3 21.7 25.3 22.1 25.3 22.2 25.2 22.5 25.3 22.8 25.3 23 25.3 23.1 25.2 23.1 25.2 23.1 25.1 23.1 25 23.1 24.9 23.1 24.7 23.1 24.6 23.1 24.2"/>
    <polygon class="cls-5" points="16.1 16.2 16.1 16.1 16.2 15.9 16.3 15.8 16.4 15.7 16.5 15.6 16.7 15.5 16.7 15.5 16.9 15.5 17 15.5 17.2 15.5 17.3 15.5 17.5 15.5 17.8 15.4 17.9 15.4 18.1 15.4 18.3 15.3 18.6 15.3 18.7 15.3 18.9 15.3 19.1 15.2 19.3 15.1 19.5 15.1 19.7 15 19.8 14.9 20 14.7 20.1 14.6 20.3 14.4 20.4 14.2 20.5 14 20.6 13.9 20.7 13.7 20.7 13.5 20.8 13.3 20.8 13.1 20.8 12.9 20.8 12.7 20.8 12.4 20.7 12.3 20.7 12.1 20.6 11.9 20.5 11.8 20.5 11.6 20.3 11.4 20.2 11.3 20.1 11.1 19.9 11 19.8 10.9 19.6 10.8 19.4 10.7 19.2 10.6 19.1 10.5 18.7 10.4 18.5 10.4 18.3 10.3 18.1 10.3 18 10.3 17.8 10.3 17.5 10.3 17.2 10.3 17 10.3 16.8 10.3 16.6 10.3 16.4 10.4 16.3 10.4 16 10.4 15.8 10.5 15.6 10.6 15.3 10.8 15.2 10.8 14.9 11 14.8 11.1 14.7 11.2 14.6 11.4 14.4 11.5 14.4 11.7 14.3 11.9 14.2 12 14.2 12.1 14.1 12.3 14.1 12.4 14.1 12.6 14.1 12.8 14.1 12.8 14.2 12.9 14.4 12.9 14.6 12.9 14.8 12.9 15.3 12.9 15.8 12.9 16 12.9 16.1 12.9 16.2 12.9 16.3 12.8 16.4 12.7 16.5 12.5 16.5 12.4 16.6 12.3 16.7 12.3 16.8 12.2 17.1 12.1 17.2 12.1 17.4 12.1 17.5 12.1 17.7 12.1 17.9 12.1 18.1 12.2 18.3 12.2 18.4 12.4 18.4 12.4 18.5 12.6 18.5 12.7 18.5 13 18.4 13.2 18.3 13.3 18.2 13.4 18.1 13.5 18 13.6 17.8 13.6 17.5 13.6 17.3 13.6 17.2 13.6 16.6 13.7 16.5 13.7 16.3 13.7 16.1 13.8 15.8 13.9 15.6 13.9 15.4 14 15.3 14.1 15 14.2 14.9 14.3 14.7 14.5 14.6 14.6 14.4 14.8 14.3 14.9 14.2 15.1 14.2 15.2 14.1 15.4 14.1 15.6 14.1 15.8 14 16.1 13.9 16.4 13.9 16.6 14 17.3 14 17.5 13.9 18.1 14 18.3 14 18.3 14.1 18.4 14.2 18.4 14.8 18.4 15.6 18.4 17.2 18.4 18.2 18.4 18.8 18.4 19.7 18.4 19.8 18.4 20.1 18.4 20.2 18.4 20.6 18.4 20.6 18.3 20.7 18.3 20.7 18.1 20.7 18 20.7 17.8 20.7 17.5 20.7 17.1 20.7 16.9 20.7 16.7 20.7 16.6 20.6 16.5 20.5 16.4 20.3 16.4 19.9 16.5 19.7 16.5 18.4 16.5 18.2 16.5 17.7 16.5 16.8 16.5 16.4 16.5 16.2 16.5 16.1 16.5 16.1 16.4 16.1 16.3 16.1 16.2"/>
    <path class="cls-6" d="M58.8,35.8h-.7a3.2,3.2,0,0,0-1-1.9,4.2,4.2,0,0,0-1.6-.9,6.5,6.5,0,0,0-1-1.5,4,4,0,0,0-2.9-1.2h-.5a4.2,4.2,0,0,0-7.7-.4,3.3,3.3,0,0,0-6.3,1.4,3.4,3.4,0,0,0-2.5,2.5H31.2V27.5a.8.8,0,0,0-.7-.8.9.9,0,0,0-.8.8V48.4h-.4V18h.4v6.1a.9.9,0,0,0,.8.8.8.8,0,0,0,.7-.8V10.9A1.2,1.2,0,0,0,30,9.7h-.9a1.2,1.2,0,0,0-1.3,1.2V33.8h-.5A1.2,1.2,0,0,0,26.1,35v4a1.2,1.2,0,0,0,1.2,1.2h.5v8.2h-.1a1.2,1.2,0,0,0-1.2,1.3v2.5H23.8a1.3,1.3,0,0,0-1.2,1.3v1.3h-2A2.2,2.2,0,0,0,18.4,57a2.4,2.4,0,0,0,.9,1.8l-.3.3a.7.7,0,0,0,0,1,.6.6,0,0,0,.5.2.7.7,0,0,0,.6-.2l.9-.9h.4a.7.7,0,0,0,.1.9.7.7,0,0,0,.6.2.6.6,0,0,0,.5-.2l.9-.9H24a.6.6,0,0,0,.1.9c.1.2.3.2.5.2s.4,0,.5-.2l.9-.9h.5a.6.6,0,0,0,.1.9c.1.2.3.2.5.2s.4,0,.5-.2l1-.9h.3v.4a.8.8,0,0,0,.8.7.7.7,0,0,0,.7-.7v-.4h.4l1,.9c.1.2.3.2.5.2s.4,0,.5-.2a.6.6,0,0,0,.1-.9h.4l1,.9c.1.2.3.2.5.2s.4,0,.5-.2a.6.6,0,0,0,.1-.9h.4l1,.9c.1.2.3.2.5.2s.4,0,.5-.2a.6.6,0,0,0,.1-.9h.5l.9.9c.1.2.3.2.5.2a.7.7,0,0,0,.6-.2.9.9,0,0,0,0-1l-.5-.5a1.5,1.5,0,0,0,.5-.6h5.5a.7.7,0,0,0,.7-.7.8.8,0,0,0-.7-.8H40.6a2.2,2.2,0,0,0-2.1-1.7h-2V53.5a1.3,1.3,0,0,0-1.3-1.3H32.6V49.7a1.3,1.3,0,0,0-1.3-1.3h-.1V40.2H56.3L54.4,50.5l-9.2-5a3.9,3.9,0,0,0-4-3.7,3.8,3.8,0,0,0-3.9,3.9,3.9,3.9,0,0,0,3.9,4,3.7,3.7,0,0,0,2.1-.6l10.4,5.5-.3,1.6a.9.9,0,0,1-.5.3h-3a.8.8,0,0,0-.8.8.7.7,0,0,0,.8.7h3a1.9,1.9,0,0,0,1.9-1.6l.3-1.4a2,2,0,0,0,1.6-1,2.1,2.1,0,0,0-.9-2.8h0l2-11h1A1.3,1.3,0,0,0,60,39V37.1A1.3,1.3,0,0,0,58.8,35.8ZM29.3,11.2h.4v5.3h-.4ZM28,49.9h3.1v2.3H28Zm-.4-14.7h.2v1.4h-.2Zm0,3.5v-.6h.2v.6Zm7.4,15v1.1h-.9a.9.9,0,0,0-.8.8.8.8,0,0,0,.8.7h4.4a.7.7,0,0,1,0,1.4H20.6a.7.7,0,1,1,0-1.4h9.6a.8.8,0,0,0,.8-.7.9.9,0,0,0-.8-.8H24.1V53.7Zm6.2-5.5a2.5,2.5,0,0,1-2.4-2.5,2.5,2.5,0,0,1,2.4-2.5,2.5,2.5,0,0,1,2.2,1.4l-.8-.4a1.5,1.5,0,0,0-.9-.2,2,2,0,0,0-1.8,1,2.2,2.2,0,0,0-.2,1.6,2.2,2.2,0,0,0,1,1.1l.8.5Zm14.2,5.1-.5.2h-.3L41.4,46.4c-.1,0-.2-.1-.2-.3a.3.3,0,0,1,0-.4.5.5,0,0,1,.5-.3h.2l13.2,7A.7.7,0,0,1,55.4,53.3ZM51.6,31.8a2.7,2.7,0,0,1,2.6,2.1.7.7,0,0,0,.7.5,2.7,2.7,0,0,1,1.2.6,2.2,2.2,0,0,1,.5.8H53.5a2.6,2.6,0,0,0-2.6-1.9h-.4a2.9,2.9,0,0,0-.8-1.4A3.2,3.2,0,0,1,51.6,31.8ZM47.1,29a2.7,2.7,0,0,1,2.6,1.8,4.1,4.1,0,0,0-1.1.7c-.1.1-.2.2-.2.3h-.8a3.4,3.4,0,0,0-1.7.5,2.6,2.6,0,0,0-1.4-1.1A2.8,2.8,0,0,1,47.1,29Zm-9.5,3.7h.3a2.1,2.1,0,0,1,1.2.5.8.8,0,0,0,1-.1.7.7,0,0,0,0-1,3.7,3.7,0,0,0-1.5-.8,1.8,1.8,0,0,1,3.6,0v.2a1.1,1.1,0,0,0,.2.6.7.7,0,0,0,.6.2h.2a1.7,1.7,0,0,1,1.7,1.2,3.7,3.7,0,0,0-.2,1.2.7.7,0,0,0,.7.7.8.8,0,0,0,.8-.7,1.9,1.9,0,0,1,.2-.8v-.2a1.6,1.6,0,0,1,1.1-.5,1.5,1.5,0,0,1,1.5,1.5.7.7,0,0,0,.7.7h1.1a1.5,1.5,0,0,1,1,.4H41.6V35a1.2,1.2,0,0,0-1.3-1.2H36.2A1.8,1.8,0,0,1,37.6,32.7Zm-6.4,2.5h8.9v1.4H31.2Zm27.3,3.5H31.2v-.6h9.1a1.2,1.2,0,0,0,1.2-.8h17Z"/>
  </g>
</svg>
