<svg id="Layer_1" data-name="Layer 1" xmlns="http://www.w3.org/2000/svg" xmlns:xlink="http://www.w3.org/1999/xlink" width="70" height="70" viewBox="0 0 70 70">
  <defs>
    <style>
      .cls-1 {
        fill: #f6f6f6;
      }

      .cls-2 {
        fill: url(#linear-gradient);
      }

      .cls-3 {
        fill: url(#linear-gradient-2);
      }
    </style>
    <linearGradient id="linear-gradient" x1="47.26" y1="75.1" x2="9.04" y2="8.31" gradientUnits="userSpaceOnUse">
      <stop offset="0" stop-color="#64dcc2"/>
      <stop offset="1" stop-color="#70bce6"/>
    </linearGradient>
    <linearGradient id="linear-gradient-2" x1="55.31" y1="70.49" x2="17.09" y2="3.7" xlink:href="#linear-gradient"/>
  </defs>
  <title>icon_carpentry_C0</title>
  <path id="Rectangle" class="cls-1" d="M3,0H67a2.9,2.9,0,0,1,3,3V67a2.9,2.9,0,0,1-3,3H3a2.9,2.9,0,0,1-3-3V3A2.9,2.9,0,0,1,3,0Z"/>
  <g>
    <path class="cls-2" d="M37.4,53a1.6,1.6,0,0,0,1.4-.8,1.4,1.4,0,0,0,.2-.7,4.3,4.3,0,0,0-.1-.5.1.1,0,0,0-.1-.1h-.2l-.6.7h-.3l-.3-.4v-.3l.2-.2.4-.4v-.2h-.6a1.6,1.6,0,0,0-1.2.6L36,51a1.4,1.4,0,0,0,0,.9L34.9,53l-1.6-1.6-.3-.3v-.3c0-.1,0-.2-.1-.2l-1-.6a.1.1,0,0,0-.2,0l-.2.2-.2.2a.3.3,0,0,0-.1.2l.3.5.4.6h.5l1.3,1.3.5.5-1.1,1.1a1.6,1.6,0,0,0-1.3.3,1.3,1.3,0,0,0-.6,1.2.9.9,0,0,0,.1.5h.2l.7-.6h.3l.3.3v.3l-.6.7s-.1.1,0,.1h.5a1.6,1.6,0,0,0,1.3-.6,2,2,0,0,0,.2-1.3l.9-.9.2.2h-.1c-.1.1-.1.2,0,.2s.1.1.2,0h.1l1.9,2.1h0a.9.9,0,0,0,1.3,0,1,1,0,0,0,0-1.3l-2.1-1.9h.1v-.3h-.3l-.2-.2.9-.9Zm-1.2,1.3-.7.6-.2-.2.6-.7Z"/>
    <path class="cls-3" d="M53.8,18.5l-1-1.1a16.4,16.4,0,0,0-2.5-2.1l-1.5-1.1A28.2,28.2,0,0,0,45,12.1,23.9,23.9,0,0,0,35,10a23.9,23.9,0,0,0-10,2.1,28.2,28.2,0,0,0-3.8,2.1l-1.5,1.1a16.4,16.4,0,0,0-2.5,2.1l-.9,1.1a13.9,13.9,0,0,0-2.1,2.7A24.2,24.2,0,0,0,10,35a23.2,23.2,0,0,0,.7,5.9A19.8,19.8,0,0,0,12.1,45,22.5,22.5,0,0,0,15,50a20.9,20.9,0,0,0,1.4,1.7l.6.7,1.5,1.4a24.4,24.4,0,0,0,8.9,5l1.4.4,2.3.5,2.2.2h3.4l2.2-.2,2.3-.5,1.4-.4a24.4,24.4,0,0,0,8.9-5L53,52.4l.6-.7A20.9,20.9,0,0,0,55,50a22.5,22.5,0,0,0,2.9-5,19.8,19.8,0,0,0,1.4-4.1A23.2,23.2,0,0,0,60,35a24.2,24.2,0,0,0-4.2-13.8A18.9,18.9,0,0,0,53.8,18.5ZM55,46.7H40.8l-.6-.6-1.1.6H37.3l-.4-1.5H50a.7.7,0,0,0,0-1.4H20a.7.7,0,0,0,0,1.4H33.1l-.4,1.5H30.9l-.9-.5h-.2l-.6.6H15V38.1H55ZM16.4,49.5V48.1h1.5v2.8h-.2A8.6,8.6,0,0,1,16.4,49.5ZM53.6,36.7H16.4V34.5a2.1,2.1,0,0,1,2.2-2.1H51.4a2.1,2.1,0,0,1,2.2,2.1Zm-3.8-20a10.7,10.7,0,0,1,1.6,1.4,1.4,1.4,0,0,1-2.8,0A1.4,1.4,0,0,1,49.8,16.7Zm1.6,4.2v10H48.5a3.2,3.2,0,0,0,.8-2.1V27.4a3.6,3.6,0,0,0-3.6-3.6H40a3.6,3.6,0,0,0-3.6,3.6v1.4a3.2,3.2,0,0,0,.8,2.1H32.8a3.2,3.2,0,0,0,.8-2.1V27.4A3.6,3.6,0,0,0,30,23.8H24.3a3.6,3.6,0,0,0-3.6,3.6v1.4a3.2,3.2,0,0,0,.8,2.1H18.6v-10Zm-3.5,6.5v1.4a2.1,2.1,0,0,1-2.2,2.1H40a2.1,2.1,0,0,1-2.1-2.1V27.4A2.1,2.1,0,0,1,40,25.2h5.7A2.2,2.2,0,0,1,47.9,27.4Zm-15.8,0v1.4A2.1,2.1,0,0,1,30,30.9H24.3a2.1,2.1,0,0,1-2.2-2.1V27.4a2.2,2.2,0,0,1,2.2-2.2H30A2.1,2.1,0,0,1,32.1,27.4ZM24,14.2a20.2,20.2,0,0,1,5.5-2.1,25.1,25.1,0,0,1,5.5-.7,24.3,24.3,0,0,1,5.5.7A20.2,20.2,0,0,1,46,14.2a12.8,12.8,0,0,1,2.5,1.5,2.9,2.9,0,0,0-1.4,2.4,3.3,3.3,0,0,0,.4,1.4h-25a3.3,3.3,0,0,0,.4-1.4,2.9,2.9,0,0,0-1.4-2.4A12.8,12.8,0,0,1,24,14.2Zm-3.8,2.5a1.4,1.4,0,0,1,1.2,1.4,1.4,1.4,0,0,1-2.8,0A10.7,10.7,0,0,1,20.2,16.7ZM11.6,38c-.1-1-.2-2-.2-3a22.8,22.8,0,0,1,2.8-11,23,23,0,0,1,2.1-3.3,13.4,13.4,0,0,1,1.1-1.4l.2.3a.7.7,0,0,0-.5.6V31.3A3.4,3.4,0,0,0,15,34.5v2.2h-.7a.7.7,0,0,0-.7.7v7.4a14.7,14.7,0,0,1-.6-1.4A26.9,26.9,0,0,1,11.6,38Zm9.1,15.8L19,52.3a.9.9,0,0,0,.3-.6V48.1h8.5l-.4.4,1.2,2.1c0,.1-.1.1-.1.2l-.2.5-1.3.4-1.1.2v3.5l2.4.6.3.7-.5.9A27.3,27.3,0,0,1,20.7,53.8ZM35,58.6a19,19,0,0,1-5.4-.7l.6-1.1-.2-.4-.5-1.2v-.3l-2-.6V53l2-.5v-.4c.1-.2.1-.3.2-.4l.3-.8.2-.3-.2-.4-.8-1.5.6-.6.3-.3.4.3.9.5.5.3.4-.2.9-.4h.6l.4-1.4.2-.7h1.2l.2.7.4,1.4h.4l1.1.5.4.2,1.4-.8.4-.3.3.3.6.6L40,50.2l-.2.4.2.3.3.8c0,.1.1.1.1.2s0,.1.1.2v.4l2,.5v1.3l-2,.6v.3L40,56.4l-.2.4.6,1.1A19,19,0,0,1,35,58.6Zm14.3-4.8a27.3,27.3,0,0,1-7.4,3.8l-.5-.9.3-.7,2.4-.6V51.9L43,51.7l-.4-.2-.9-.2-.3-.7.4-.7.8-1.4-.4-.4h8.5v3.6a.9.9,0,0,0,.3.6Zm3-2.9h-.2V48.1h1.5v1.4A8.6,8.6,0,0,1,52.3,50.9ZM58.4,38A26.9,26.9,0,0,1,57,43.4a14.7,14.7,0,0,1-.6,1.4V37.4a.7.7,0,0,0-.7-.7H55V34.5a3.4,3.4,0,0,0-2.1-3.2V20.2a.7.7,0,0,0-.5-.6l.2-.3,1.2,1.4a36.2,36.2,0,0,1,2,3.3,22.8,22.8,0,0,1,2.8,11C58.6,36,58.5,37,58.4,38Z"/>
  </g>
</svg>
