<svg id="Layer_1" data-name="Layer 1" xmlns="http://www.w3.org/2000/svg" xmlns:xlink="http://www.w3.org/1999/xlink" width="70" height="70" viewBox="0 0 70 70">
  <defs>
    <style>
      .cls-1 {
        fill: #f6f6f6;
      }

      .cls-2 {
        fill: url(#linear-gradient);
      }

      .cls-3 {
        fill: url(#linear-gradient-2);
      }

      .cls-4 {
        fill: url(#linear-gradient-3);
      }

      .cls-5 {
        fill: url(#linear-gradient-4);
      }

      .cls-6 {
        fill: url(#linear-gradient-5);
      }

      .cls-7 {
        fill: url(#linear-gradient-6);
      }

      .cls-8 {
        fill: url(#linear-gradient-7);
      }

      .cls-9 {
        fill: url(#linear-gradient-8);
      }

      .cls-10 {
        fill: url(#linear-gradient-9);
      }

      .cls-11 {
        fill: url(#linear-gradient-10);
      }

      .cls-12 {
        fill: url(#linear-gradient-11);
      }

      .cls-13 {
        fill: url(#linear-gradient-12);
      }
    </style>
    <linearGradient id="linear-gradient" x1="53.96" y1="68.39" x2="25.37" y2="4.55" gradientUnits="userSpaceOnUse">
      <stop offset="0" stop-color="#75c9b9"/>
      <stop offset="1" stop-color="#72bde5"/>
    </linearGradient>
    <linearGradient id="linear-gradient-2" x1="57.96" y1="66.6" x2="29.37" y2="2.76" xlink:href="#linear-gradient"/>
    <linearGradient id="linear-gradient-3" x1="59.49" y1="65.92" x2="30.9" y2="2.07" xlink:href="#linear-gradient"/>
    <linearGradient id="linear-gradient-4" x1="56.52" y1="67.24" x2="27.94" y2="3.4" xlink:href="#linear-gradient"/>
    <linearGradient id="linear-gradient-5" x1="55.27" y1="67.81" x2="26.68" y2="3.96" xlink:href="#linear-gradient"/>
    <linearGradient id="linear-gradient-6" x1="54.47" y1="68.16" x2="25.89" y2="4.32" xlink:href="#linear-gradient"/>
    <linearGradient id="linear-gradient-7" x1="51.47" y1="69.51" x2="22.88" y2="5.66" xlink:href="#linear-gradient"/>
    <linearGradient id="linear-gradient-8" x1="52.88" y1="68.87" x2="24.29" y2="5.03" xlink:href="#linear-gradient"/>
    <linearGradient id="linear-gradient-9" x1="56.1" y1="67.43" x2="27.52" y2="3.59" xlink:href="#linear-gradient"/>
    <linearGradient id="linear-gradient-10" x1="57.81" y1="66.67" x2="29.22" y2="2.82" xlink:href="#linear-gradient"/>
    <linearGradient id="linear-gradient-11" x1="36.62" y1="76.16" x2="8.03" y2="12.31" xlink:href="#linear-gradient"/>
    <linearGradient id="linear-gradient-12" x1="73.5" y1="59.64" x2="44.91" y2="-4.2" xlink:href="#linear-gradient"/>
  </defs>
  <title>icon_plumbing_P0</title>
  <path id="Rectangle" class="cls-1" d="M3,0H67a2.9,2.9,0,0,1,3,3V67a2.9,2.9,0,0,1-3,3H3a2.9,2.9,0,0,1-3-3V3A2.9,2.9,0,0,1,3,0Z"/>
  <g>
    <path class="cls-2" d="M56.4,14.1H49a3.6,3.6,0,0,0-3.6,3.6v10h1.4v-10A2.2,2.2,0,0,1,49,15.5h7.4a2.2,2.2,0,0,1,2.2,2.2v15H47.7l-.3.3c-.1-.3-.3-.5-.5-.5a.8.8,0,0,0-.9.6.8.8,0,0,0,.6.8h0l-.4.5a.7.7,0,0,0-.6-.4.7.7,0,0,0-.7.7c-.1.4.2.7.6.8h.1a.7.7,0,0,0,.6-.4H58.6V57.7H27.3L24.4,44.4H24c-9.3-2.6-11.8-7-12.5-9.5a1.1,1.1,0,0,1,.1-.8.9.9,0,0,1,.8-.4h18V32.2h-18a2.5,2.5,0,0,0-1.9.9,2.6,2.6,0,0,0-.4,2.1c.8,2.7,3.5,7.6,13.1,10.4l3,13.5H60V17.7A3.6,3.6,0,0,0,56.4,14.1Z"/>
    <path class="cls-3" d="M42.5,32.8a.7.7,0,0,0,.3-1.4h-.1a.7.7,0,0,0-.9.4.8.8,0,0,0,.4.9l.3-.6-.2.6Z"/>
    <path class="cls-4" d="M44.4,33.4h.2a.7.7,0,0,0,.7-.5.7.7,0,0,0-.5-.9h0a.7.7,0,1,0-.4,1.4Z"/>
    <path class="cls-5" d="M40.4,32a.8.8,0,0,0,.7-.4.7.7,0,0,0-.4-1h0a.7.7,0,0,0-1,.4.7.7,0,0,0,.4.9l.3-.6-.2.6Z"/>
    <path class="cls-6" d="M39.1,30.6a.6.6,0,0,0-.3-.9h0a.8.8,0,0,0-1,.3.7.7,0,0,0,.3,1h.4A.7.7,0,0,0,39.1,30.6Z"/>
    <path class="cls-7" d="M38.8,34.4h.3a.7.7,0,0,0,.7-.6.8.8,0,0,0-.6-.8h-.1a.7.7,0,0,0-.8.5A.8.8,0,0,0,38.8,34.4Z"/>
    <path class="cls-8" d="M34.2,31.9a.7.7,0,0,0,.3,1h.3a.8.8,0,0,0,.7-.4.9.9,0,0,0-.4-1C34.8,31.5,34.3,31.6,34.2,31.9Z"/>
    <path class="cls-9" d="M36.2,32.9a.7.7,0,0,0,.4.9h.3a.8.8,0,0,0,.7-.5.8.8,0,0,0-.5-.9A.7.7,0,0,0,36.2,32.9Z"/>
    <path class="cls-10" d="M41,34.8h.2a.7.7,0,0,0,.7-.6c.1-.4-.2-.7-.6-.8a.6.6,0,0,0-.8.6A.7.7,0,0,0,41,34.8Z"/>
    <path class="cls-11" d="M43.3,35.2h.1a.7.7,0,0,0,.7-.6.6.6,0,0,0-.6-.8h0a.8.8,0,0,0-.9.6A.8.8,0,0,0,43.3,35.2Z"/>
    <path class="cls-12" d="M20.9,36.1l.2-.7v-.7H16.1a1.3,1.3,0,0,0-1.2.8,1.2,1.2,0,0,0,.1,1.4c1.4,2,4.6,5.4,9.5,5.4h.3V40.7c-4.4.2-7.3-2.8-8.6-4.6A28.4,28.4,0,0,1,20.9,36.1Z"/>
    <path class="cls-13" d="M57.7,26.8V19.7c0-2.7-1.8-3.4-2.8-3.4H52.5v1.4h2.4c.1,0,1.4.1,1.4,2v7.1Z"/>
  </g>
</svg>
