<svg id="Layer_1" data-name="Layer 1" xmlns="http://www.w3.org/2000/svg" xmlns:xlink="http://www.w3.org/1999/xlink" width="70" height="70" viewBox="0 0 70 70">
  <defs>
    <style>
      .cls-1 {
        fill: #f6f6f6;
      }

      .cls-2 {
        fill: url(#linear-gradient);
      }

      .cls-3 {
        fill: url(#linear-gradient-2);
      }

      .cls-4 {
        fill: url(#linear-gradient-3);
      }

      .cls-5 {
        fill: url(#linear-gradient-4);
      }

      .cls-6 {
        fill: url(#linear-gradient-5);
      }
    </style>
    <linearGradient id="linear-gradient" x1="61.11" y1="78.17" x2="9.11" y2="-11.83" gradientUnits="userSpaceOnUse">
      <stop offset="0" stop-color="#75c9b9"/>
      <stop offset="1" stop-color="#72bde5"/>
    </linearGradient>
    <linearGradient id="linear-gradient-2" x1="55.46" y1="81.43" x2="3.46" y2="-8.57" xlink:href="#linear-gradient"/>
    <linearGradient id="linear-gradient-3" x1="54.53" y1="81.97" x2="2.53" y2="-8.03" xlink:href="#linear-gradient"/>
    <linearGradient id="linear-gradient-4" x1="62.53" y1="77.35" x2="10.53" y2="-12.65" xlink:href="#linear-gradient"/>
    <linearGradient id="linear-gradient-5" x1="67.47" y1="74.49" x2="15.47" y2="-15.51" xlink:href="#linear-gradient"/>
  </defs>
  <title>icon_electrical_E01</title>
  <path id="Rectangle" class="cls-1" d="M3,0H67a2.9,2.9,0,0,1,3,3V67a2.9,2.9,0,0,1-3,3H3a2.9,2.9,0,0,1-3-3V3A2.9,2.9,0,0,1,3,0Z"/>
  <g>
    <path class="cls-2" d="M21,15.8a.7.7,0,0,0-.2-.6.5.5,0,0,0-.5-.3.7.7,0,0,0-.9.7,1.5,1.5,0,0,0-.1.7V49.5a5.3,5.3,0,0,0,5.3,5.3h2.3v2H25.8a1.3,1.3,0,0,0-1.3,1.3v1.5A1.3,1.3,0,0,0,25.8,61h3.9A1.3,1.3,0,0,0,31,59.6V58.1a1.3,1.3,0,0,0-1.3-1.3H28.6v-2H41.4v2H40.3A1.3,1.3,0,0,0,39,58.1v1.5A1.3,1.3,0,0,0,40.3,61h3.9a1.3,1.3,0,0,0,1.3-1.4V58.1a1.3,1.3,0,0,0-1.3-1.3H43.1v-2h2.3a5.3,5.3,0,0,0,5.3-5.3V16.3A5.3,5.3,0,0,0,45.4,11H24.6A5.1,5.1,0,0,0,21,12.5a.7.7,0,0,0-.1,1.1c.4.3.9.4,1.2,0a3.9,3.9,0,0,1,2.5-1H45.4A3.7,3.7,0,0,1,49,16.3v4.1a2.7,2.7,0,0,1-.3,1.2,2.4,2.4,0,0,1-.9.8,4.4,4.4,0,0,0-2.1,3.8v2.6a.8.8,0,0,0,.8.8.9.9,0,0,0,.8-.8V26.2a2.4,2.4,0,0,1,1.4-2.3l.3-.3V42.8l-.3-.2a2.4,2.4,0,0,1-1-1,2.2,2.2,0,0,1-.4-1.3V31.7a.8.8,0,0,0-.8-.8.7.7,0,0,0-.8.8v8.6a5,5,0,0,0,.5,2.1A4.9,4.9,0,0,0,47.8,44,2.2,2.2,0,0,1,49,46v3.5a3.7,3.7,0,0,1-3.6,3.7H24.6A3.7,3.7,0,0,1,21,49.5V46a2.2,2.2,0,0,1,1.2-2,4.9,4.9,0,0,0,1.6-1.6,5,5,0,0,0,.5-2.1V26.2a4.4,4.4,0,0,0-2.1-3.8,2.4,2.4,0,0,1-.9-.8,2.7,2.7,0,0,1-.3-1.2V15.8Zm0,27V23.6l.3.3a2.4,2.4,0,0,1,1.4,2.3V40.3a2.2,2.2,0,0,1-.4,1.3,2.4,2.4,0,0,1-1,1ZM40.6,59.3v-.9h3.3v.9Zm-14.5,0v-.9h3.3v.9Z"/>
    <path class="cls-3" d="M35,50.7A4.7,4.7,0,1,0,30.4,46,4.6,4.6,0,0,0,35,50.7ZM32,46a3,3,0,0,1,6,0,3,3,0,0,1-6,0Z"/>
    <path class="cls-4" d="M33.5,46.8H34a.8.8,0,0,0,.8-.8.9.9,0,0,0-.8-.8h-.5a.9.9,0,0,0-.8.8A.8.8,0,0,0,33.5,46.8Z"/>
    <path class="cls-5" d="M31.7,27.6a6.4,6.4,0,0,0-.5,2.3,3.8,3.8,0,0,0,7.6,0c0-3.1-3.1-5.8-3.3-5.9a.9.9,0,0,0-1,0l-.9.9a.9.9,0,0,0,0,1.2l.6.2a.9.9,0,0,0,.6-.3c0-.1.1-.1.2-.2s2.2,2.5,2.2,4.1a2.2,2.2,0,1,1-4.4,0,5.9,5.9,0,0,1,.4-1.7.7.7,0,0,0-.4-1h0A.9.9,0,0,0,31.7,27.6Z"/>
    <path class="cls-6" d="M41.1,18.3a.8.8,0,0,0-.9-.8H29.8a.8.8,0,0,0-.9.8.9.9,0,0,0,.9.8H40.2A.9.9,0,0,0,41.1,18.3Z"/>
  </g>
</svg>
