<svg id="Layer_1" data-name="Layer 1" xmlns="http://www.w3.org/2000/svg" xmlns:xlink="http://www.w3.org/1999/xlink" width="374.5" height="89.4" viewBox="0 0 374.5 89.4">
  <defs>
    <style>
      .cls-1 {
        fill: url(#linear-gradient);
      }

      .cls-2, .cls-4, .cls-5 {
        fill: #fff;
      }

      .cls-2 {
        opacity: 0.3;
      }

      .cls-2, .cls-3, .cls-4 {
        isolation: isolate;
      }

      .cls-4 {
        font-size: 16px;
        font-family: Montserrat-Medium, Montserrat;
      }
    </style>
    <linearGradient id="linear-gradient" x1="405.55" y1="126.36" x2="21.53" y2="-32.27" gradientUnits="userSpaceOnUse">
      <stop offset="0" stop-color="#75c9b9"/>
      <stop offset="1" stop-color="#72bde5"/>
    </linearGradient>
  </defs>
  <title>banner_electrical_E01</title>
  <g id="Page-1">
    <g id="UI---Screen-7---v2">
      <g id="Group-2">
        <path id="Path-4" class="cls-1" d="M0,72.4C71,74,112,68.2,210.5,71c58.9,1.7,113.3,7.8,164,18.4V0H0Z"/>
        <rect id="Rectangle-Copy-2" class="cls-2" x="23.5" y="22" width="47" height="7" rx="3.3" ry="3.3"/>
        <rect id="Rectangle-Copy-4" class="cls-2" x="186.5" y="29" width="47" height="7" rx="3.3" ry="3.3"/>
        <path id="Rectangle-Copy-3" class="cls-2" d="M67.8,35h40.5a3.3,3.3,0,0,1,3.3,3.3v.5a3.2,3.2,0,0,1-3.2,3.2H67.8a3.3,3.3,0,0,1-3.2-3.2v-.5A3.3,3.3,0,0,1,67.8,35Z"/>
        <rect id="Rectangle-Copy-5" class="cls-2" x="233.5" y="42" width="47" height="7" rx="3.3" ry="3.3"/>
        <g id="sweep">
          <g id="_" data-name="+" class="cls-3">
            <text class="cls-4" transform="translate(298.5 26)">+</text>
          </g>
          <g id="_-copy" data-name="+-copy" class="cls-3">
            <text class="cls-4" transform="translate(336.5 14)">+</text>
          </g>
        </g>
      </g>
    </g>
  </g>
  <g>
    <path class="cls-5" d="M328,24.2a6.2,6.2,0,0,0-6.1,6.1,6.1,6.1,0,0,0,6.1,6.1,6.1,6.1,0,0,0,6.1-6.1A6.1,6.1,0,0,0,328,24.2ZM328,35a4.7,4.7,0,1,1,4.7-4.7A4.7,4.7,0,0,1,328,35Z"/>
    <path class="cls-5" d="M342.2,24.2a6.2,6.2,0,0,0-6.1,6.1,6.1,6.1,0,0,0,6.1,6.1,6.1,6.1,0,0,0,6.1-6.1A6.1,6.1,0,0,0,342.2,24.2Zm0,10.8a4.7,4.7,0,1,1,4.7-4.7A4.7,4.7,0,0,1,342.2,35Z"/>
    <path class="cls-5" d="M330.4,29.6H329V28.2a.7.7,0,1,0-1.4,0v1.4h-1.4a.7.7,0,1,0,0,1.4h1.4v1.4a.7.7,0,1,0,1.4,0V31h1.4a.7.7,0,1,0,0-1.4Z"/>
    <path class="cls-5" d="M344.4,29.6h-4.2a.7.7,0,1,0,0,1.4h4.2a.7.7,0,1,0,0-1.4Z"/>
    <path class="cls-5" d="M335.1,16.7a25,25,0,1,0,25,25A25,25,0,0,0,335.1,16.7Zm-4.2,40.1-2.7-4.1a5.4,5.4,0,0,1-1.2-3.3V46h2.2v3.4a2.3,2.3,0,0,0,.6,1.8l.2.3,2.7,4.1a6.7,6.7,0,0,1,1.2,3.9,1.5,1.5,0,0,0,.4.9h0v4.9l-2.6-.3V59.5A5,5,0,0,0,330.9,56.8Zm7.7,2.7V65a26.6,26.6,0,0,1-2.8.3V60.5a1.3,1.3,0,0,0,.6-1,6.7,6.7,0,0,1,1.2-3.9l2.7-4.1.2-.3a2.7,2.7,0,0,0,.6-1.8V46h2.2v3.4a5.4,5.4,0,0,1-1.2,3.3l-2.7,4.1A5,5,0,0,0,338.6,59.5Zm1.4,5.3V59.5a3.1,3.1,0,0,1,.6-1.9l2.7-4.1a6.8,6.8,0,0,0,1.4-4.1V44.6h-1.4V39.3H341v5.3h-1.3v4.8a1.2,1.2,0,0,1-.4,1c0,.1-.1.2-.2.3l-2.7,4.1a10.1,10.1,0,0,0-1.3,3,7.9,7.9,0,0,0-1.2-3l-2.7-4.1-.3-.3a1.5,1.5,0,0,1-.3-1V44.6h-1.4V39.3H327v5.3h-1.4v4.8a6.2,6.2,0,0,0,1.4,4.1l2.7,4.1a3.1,3.1,0,0,1,.6,1.9v5.3a23.6,23.6,0,1,1,9.7,0Z"/>
  </g>
</svg>
