<svg id="Layer_1" data-name="Layer 1" xmlns="http://www.w3.org/2000/svg" xmlns:xlink="http://www.w3.org/1999/xlink" width="374.5" height="89.4" viewBox="0 0 374.5 89.4">
  <defs>
    <style>
      .cls-1 {
        fill: url(#linear-gradient);
      }

      .cls-2, .cls-4, .cls-5 {
        fill: #fff;
      }

      .cls-2 {
        opacity: 0.3;
      }

      .cls-2, .cls-3, .cls-4 {
        isolation: isolate;
      }

      .cls-4 {
        font-size: 16px;
        font-family: Montserrat-Medium, Montserrat;
      }
    </style>
    <linearGradient id="linear-gradient" x1="405.55" y1="126.36" x2="21.53" y2="-32.27" gradientUnits="userSpaceOnUse">
      <stop offset="0" stop-color="#64dcc2"/>
      <stop offset="1" stop-color="#70bce6"/>
    </linearGradient>
  </defs>
  <title>banner_carpentry_C0</title>
  <g id="Page-1">
    <g id="UI---Screen-7---v2">
      <g id="Group-2">
        <path id="Path-4" class="cls-1" d="M0,72.4C71,74,112,68.2,210.5,71c58.9,1.7,113.3,7.8,164,18.4V0H0Z"/>
        <path id="Rectangle-Copy-2" class="cls-2" d="M26.8,22H67.3a3.3,3.3,0,0,1,3.3,3.3v.5A3.3,3.3,0,0,1,67.3,29H26.8a3.2,3.2,0,0,1-3.2-3.2v-.5A3.2,3.2,0,0,1,26.8,22Z"/>
        <rect id="Rectangle-Copy-4" class="cls-2" x="186.5" y="29" width="47" height="7" rx="3.3" ry="3.3"/>
        <rect id="Rectangle-Copy-3" class="cls-2" x="64.5" y="35" width="47" height="7" rx="3.3" ry="3.3"/>
        <path id="Rectangle-Copy-5" class="cls-2" d="M236.8,42h40.5a3.3,3.3,0,0,1,3.3,3.3v.5a3.3,3.3,0,0,1-3.2,3.3H236.8a3.2,3.2,0,0,1-3.2-3.2v-.5A3.3,3.3,0,0,1,236.8,42Z"/>
        <g id="sweep">
          <g id="_" data-name="+" class="cls-3">
            <text class="cls-4" transform="translate(298.5 26)">+</text>
          </g>
          <g id="_-copy" data-name="+-copy" class="cls-3">
            <text class="cls-4" transform="translate(336.5 14)">+</text>
          </g>
        </g>
      </g>
    </g>
  </g>
  <g>
    <path class="cls-5" d="M334.7,15.6a24.7,24.7,0,0,0-16.3,6.1h-.1a24.9,24.9,0,1,0,16.4-6.2Zm7.4,2.6V34.3l-2.1.3a2.5,2.5,0,0,0-1.9,2.9,2.1,2.1,0,0,0,.7,1.2l-.7,3.5a2.4,2.4,0,0,0-2.3,2.4v3.5l-3.2-2.6a2.3,2.3,0,0,0,.2-2.4l-1.9-4a2.4,2.4,0,0,0-2.5-1.3l-2.9-5a2.4,2.4,0,0,0-.9-3.2l-3.8-2.2a2.3,2.3,0,0,0-1.1-.3V22.5a23.3,23.3,0,0,1,15-5.4A25.5,25.5,0,0,1,342.1,18.2Zm-2.9,26.4V49a1,1,0,0,1-1,1,.7.7,0,0,1-.6-.3h-.1a.5.5,0,0,0-.2-.4h0V44.6a1.1,1.1,0,0,1,.5-.9V44c0,.4.2.8.6.8h.1a.7.7,0,0,0,.7-.6h.1Zm.7-7.9h-.4a1.1,1.1,0,0,1,.8-.7l1.8-.3,1.4-.2,1.1-.3h.2l.6.2a2.1,2.1,0,0,1,.4.6,1,1,0,0,1-.8,1.2l-1.5.3-1.4.2-1.4.3h-.3v-.4A.9.9,0,0,0,339.9,36.7Zm-12.1,3.2c0-.1.1-.2.1-.3h.7l.3-.4a1.8,1.8,0,0,1,.7.5l1.9,4a1,1,0,0,1,0,.9h-.1a.8.8,0,0,0-1.2.5h0a1,1,0,0,1-.5-.4l-1.9-4A.9.9,0,0,1,327.8,39.9Zm-3.7-8.2a.7.7,0,0,0-.3.9h-.9l-3.2-1.9-.6-.3a1.3,1.3,0,0,1-.5-.6,1.1,1.1,0,0,1,.1-.8.7.7,0,0,1,.6-.4h.4l.3.2,3.9,2.2a.8.8,0,0,1,.4.7Zm-13,8.9a23.2,23.2,0,0,1,7.2-16.8v3.7a1.6,1.6,0,0,0-.8.8,2,2,0,0,0-.3,1.8,2.2,2.2,0,0,0,1.1,1.4v26A23.6,23.6,0,0,1,311.1,40.6Zm8.6,18.2V32.4l2.5,1.4a2.1,2.1,0,0,0,1.2.3h.6l.5-.2,2.6,4.6a3.6,3.6,0,0,0-.7,1,2.8,2.8,0,0,0,.1,1.8l2,4a2,2,0,0,0,1.3,1.2h1.6l4.8,3.9a2.3,2.3,0,0,0,2,1.1,2.4,2.4,0,0,0,2.4-2.4V44.6a2.5,2.5,0,0,0-1.1-2.1l.6-3.1h.8l1.2-.2V63a22.5,22.5,0,0,1-7.4,1.2A23.3,23.3,0,0,1,319.7,58.8Zm23.8,3.7V38.9l1.7-.3a2.4,2.4,0,0,0,2-2.8,2.5,2.5,0,0,0-1-1.6,3,3,0,0,0-1.8-.4l-.9.2V18.8a23.5,23.5,0,0,1,0,43.7Z"/>
    <path class="cls-5" d="M347.1,46.1a2.3,2.3,0,1,0,1.9,3.5h6.1V47.1h-6.2A2.2,2.2,0,0,0,347.1,46.1Z"/>
  </g>
</svg>
