<svg id="Layer_1" data-name="Layer 1" xmlns="http://www.w3.org/2000/svg" xmlns:xlink="http://www.w3.org/1999/xlink" width="374.5" height="89.4" viewBox="0 0 374.5 89.4">
  <defs>
    <style>
      .cls-1 {
        fill: url(#linear-gradient);
      }

      .cls-2, .cls-4, .cls-5 {
        fill: #fff;
      }

      .cls-2 {
        opacity: 0.3;
      }

      .cls-2, .cls-3, .cls-4 {
        isolation: isolate;
      }

      .cls-4 {
        font-size: 16px;
        font-family: Montserrat-Medium, Montserrat;
      }
    </style>
    <linearGradient id="linear-gradient" x1="405.55" y1="126.36" x2="21.53" y2="-32.27" gradientUnits="userSpaceOnUse">
      <stop offset="0" stop-color="#75c8b8"/>
      <stop offset="1" stop-color="#71bbe4"/>
    </linearGradient>
  </defs>
  <title>banner_pumbing_P0</title>
  <g id="Page-1">
    <g id="UI---Screen-7---v2">
      <g id="Group-2">
        <path id="Path-4" class="cls-1" d="M0,72.4C71,74,112,68.2,210.5,71c58.9,1.7,113.3,7.8,164,18.4V0H0Z"/>
        <rect id="Rectangle-Copy-2" class="cls-2" x="23.5" y="22" width="47" height="7" rx="3.3" ry="3.3"/>
        <path id="Rectangle-Copy-4" class="cls-2" d="M189.8,29h40.5a3.3,3.3,0,0,1,3.3,3.3v.5a3.3,3.3,0,0,1-3.2,3.3H189.8a3.3,3.3,0,0,1-3.3-3.3v-.5A3.2,3.2,0,0,1,189.8,29Z"/>
        <rect id="Rectangle-Copy-3" class="cls-2" x="64.5" y="35" width="47" height="7" rx="3.3" ry="3.3"/>
        <rect id="Rectangle-Copy-5" class="cls-2" x="233.5" y="42" width="47" height="7" rx="3.3" ry="3.3"/>
        <g id="sweep">
          <g id="_" data-name="+" class="cls-3">
            <text class="cls-4" transform="translate(358 26)">+</text>
          </g>
          <g id="_-copy" data-name="+-copy" class="cls-3">
            <text class="cls-4" transform="translate(336.5 14)">+</text>
          </g>
        </g>
      </g>
    </g>
  </g>
  <g>
    <path class="cls-5" d="M353.3,17H316.7a2.7,2.7,0,0,0-2.7,2.7V69.2a2.7,2.7,0,0,0,2.7,2.8h36.6a2.7,2.7,0,0,0,2.7-2.8V19.7A2.7,2.7,0,0,0,353.3,17Zm.9,52.2a1,1,0,0,1-.9,1H316.7a1,1,0,0,1-.9-1V19.7a.9.9,0,0,1,.9-.9h36.6a.9.9,0,0,1,.9.9Z"/>
    <path class="cls-5" d="M351.4,20.7H318.6a1,1,0,0,0-1,.9V67.4a1,1,0,0,0,1,.9h32.8a1,1,0,0,0,1-.9V21.6A1,1,0,0,0,351.4,20.7Zm-.9,45.8h-31v-44h31Z"/>
    <path class="cls-5" d="M322.2,32.9a.7.7,0,0,0,.6-.3l6.5-6.5a.9.9,0,0,0-.4-1.5,1,1,0,0,0-.9.2l-6.5,6.5a1.2,1.2,0,0,0-.2,1A1.1,1.1,0,0,0,322.2,32.9Z"/>
    <path class="cls-5" d="M340.7,64.7a1.1,1.1,0,0,0,1.3,0l6.5-6.5a.9.9,0,1,0-1.3-1.3l-6.5,6.5A1,1,0,0,0,340.7,64.7Z"/>
    <path class="cls-5" d="M325.2,54.3a.9.9,0,0,0,1.3,0L344.8,36a1,1,0,0,0,0-1.3.9.9,0,0,0-1.3,0L325.2,53A1.1,1.1,0,0,0,325.2,54.3Z"/>
  </g>
</svg>
