<svg id="Layer_1" data-name="Layer 1" xmlns="http://www.w3.org/2000/svg" xmlns:xlink="http://www.w3.org/1999/xlink" width="70" height="70" viewBox="0 0 70 70">
  <defs>
    <style>
      .cls-1 {
        fill: #f6f6f6;
      }

      .cls-2 {
        fill: url(#linear-gradient);
      }

      .cls-3 {
        fill: url(#linear-gradient-2);
      }

      .cls-4 {
        fill: url(#linear-gradient-3);
      }

      .cls-5 {
        fill: url(#linear-gradient-4);
      }

      .cls-6 {
        fill: url(#linear-gradient-5);
      }

      .cls-7 {
        fill: url(#linear-gradient-6);
      }

      .cls-8 {
        fill: url(#linear-gradient-7);
      }

      .cls-9 {
        fill: url(#linear-gradient-9);
      }

      .cls-10 {
        fill: url(#linear-gradient-10);
      }

      .cls-11 {
        fill: url(#linear-gradient-11);
      }

      .cls-12 {
        fill: url(#linear-gradient-13);
      }

      .cls-13 {
        fill: url(#linear-gradient-14);
      }

      .cls-14 {
        fill: url(#linear-gradient-15);
      }

      .cls-15 {
        fill: url(#linear-gradient-16);
      }

      .cls-16 {
        fill: url(#linear-gradient-17);
      }

      .cls-17 {
        fill: url(#linear-gradient-18);
      }

      .cls-18 {
        fill: url(#linear-gradient-19);
      }

      .cls-19 {
        fill: url(#linear-gradient-20);
      }

      .cls-20 {
        fill: url(#linear-gradient-21);
      }

      .cls-21 {
        fill: url(#linear-gradient-22);
      }

      .cls-22 {
        fill: url(#linear-gradient-23);
      }

      .cls-23 {
        fill: url(#linear-gradient-24);
      }

      .cls-24 {
        fill: url(#linear-gradient-25);
      }

      .cls-25 {
        fill: url(#linear-gradient-26);
      }

      .cls-26 {
        fill: url(#linear-gradient-27);
      }

      .cls-27 {
        fill: url(#linear-gradient-28);
      }

      .cls-28 {
        fill: url(#linear-gradient-29);
      }

      .cls-29 {
        fill: url(#linear-gradient-30);
      }

      .cls-30 {
        fill: url(#linear-gradient-31);
      }

      .cls-31 {
        fill: url(#linear-gradient-32);
      }

      .cls-32 {
        fill: url(#linear-gradient-33);
      }

      .cls-33 {
        fill: url(#linear-gradient-34);
      }

      .cls-34 {
        fill: url(#linear-gradient-35);
      }

      .cls-35 {
        fill: url(#linear-gradient-36);
      }

      .cls-36 {
        fill: url(#linear-gradient-37);
      }

      .cls-37 {
        fill: url(#linear-gradient-38);
      }

      .cls-38 {
        fill: url(#linear-gradient-39);
      }

      .cls-39 {
        fill: url(#linear-gradient-40);
      }

      .cls-40 {
        fill: url(#linear-gradient-41);
      }

      .cls-41 {
        fill: url(#linear-gradient-42);
      }

      .cls-42 {
        fill: url(#linear-gradient-43);
      }

      .cls-43 {
        fill: url(#linear-gradient-44);
      }

      .cls-44 {
        fill: url(#linear-gradient-45);
      }

      .cls-45 {
        fill: url(#linear-gradient-46);
      }

      .cls-46 {
        fill: url(#linear-gradient-47);
      }

      .cls-47 {
        fill: url(#linear-gradient-48);
      }

      .cls-48 {
        fill: url(#linear-gradient-49);
      }
    </style>
    <linearGradient id="linear-gradient" x1="57.87" y1="66.39" x2="15.21" y2="3.39" gradientUnits="userSpaceOnUse">
      <stop offset="0" stop-color="#75c9b9"/>
      <stop offset="1" stop-color="#72bde5"/>
    </linearGradient>
    <linearGradient id="linear-gradient-2" x1="57.88" y1="66.39" x2="15.21" y2="3.39" xlink:href="#linear-gradient"/>
    <linearGradient id="linear-gradient-3" x1="52.89" y1="69.76" x2="10.22" y2="6.76" xlink:href="#linear-gradient"/>
    <linearGradient id="linear-gradient-4" x1="52.85" y1="69.79" x2="10.19" y2="6.79" xlink:href="#linear-gradient"/>
    <linearGradient id="linear-gradient-5" x1="67.44" y1="59.91" x2="24.77" y2="-3.09" xlink:href="#linear-gradient"/>
    <linearGradient id="linear-gradient-6" x1="67.44" y1="59.91" x2="24.77" y2="-3.09" xlink:href="#linear-gradient"/>
    <linearGradient id="linear-gradient-7" x1="55.3" y1="68.13" x2="12.63" y2="5.13" xlink:href="#linear-gradient"/>
    <linearGradient id="linear-gradient-9" x1="53.86" y1="69.11" x2="11.19" y2="6.11" xlink:href="#linear-gradient"/>
    <linearGradient id="linear-gradient-10" x1="53.82" y1="69.13" x2="11.15" y2="6.13" xlink:href="#linear-gradient"/>
    <linearGradient id="linear-gradient-11" x1="57.22" y1="66.83" x2="14.55" y2="3.83" xlink:href="#linear-gradient"/>
    <linearGradient id="linear-gradient-13" x1="67.25" y1="60.04" x2="24.58" y2="-2.96" xlink:href="#linear-gradient"/>
    <linearGradient id="linear-gradient-14" x1="67.33" y1="59.99" x2="24.66" y2="-3.01" xlink:href="#linear-gradient"/>
    <linearGradient id="linear-gradient-15" x1="63.89" y1="62.31" x2="21.22" y2="-0.69" xlink:href="#linear-gradient"/>
    <linearGradient id="linear-gradient-16" x1="63.88" y1="62.32" x2="21.22" y2="-0.68" xlink:href="#linear-gradient"/>
    <linearGradient id="linear-gradient-17" x1="68.29" y1="59.33" x2="25.62" y2="-3.67" xlink:href="#linear-gradient"/>
    <linearGradient id="linear-gradient-18" x1="68.34" y1="59.3" x2="25.67" y2="-3.7" xlink:href="#linear-gradient"/>
    <linearGradient id="linear-gradient-19" x1="65.14" y1="61.46" x2="22.48" y2="-1.54" xlink:href="#linear-gradient"/>
    <linearGradient id="linear-gradient-20" x1="65.14" y1="61.46" x2="22.48" y2="-1.54" xlink:href="#linear-gradient"/>
    <linearGradient id="linear-gradient-21" x1="62.43" y1="63.3" x2="19.76" y2="0.3" xlink:href="#linear-gradient"/>
    <linearGradient id="linear-gradient-22" x1="62.45" y1="63.29" x2="19.78" y2="0.29" xlink:href="#linear-gradient"/>
    <linearGradient id="linear-gradient-23" x1="65.33" y1="61.34" x2="22.66" y2="-1.66" xlink:href="#linear-gradient"/>
    <linearGradient id="linear-gradient-24" x1="65.43" y1="61.27" x2="22.76" y2="-1.73" xlink:href="#linear-gradient"/>
    <linearGradient id="linear-gradient-25" x1="63.46" y1="62.61" x2="20.79" y2="-0.39" xlink:href="#linear-gradient"/>
    <linearGradient id="linear-gradient-26" x1="63.48" y1="62.59" x2="20.81" y2="-0.41" xlink:href="#linear-gradient"/>
    <linearGradient id="linear-gradient-27" x1="64.41" y1="61.96" x2="21.75" y2="-1.04" xlink:href="#linear-gradient"/>
    <linearGradient id="linear-gradient-28" x1="64.49" y1="61.91" x2="21.82" y2="-1.09" xlink:href="#linear-gradient"/>
    <linearGradient id="linear-gradient-29" x1="61.67" y1="63.81" x2="19.01" y2="0.81" xlink:href="#linear-gradient"/>
    <linearGradient id="linear-gradient-30" x1="61.67" y1="63.81" x2="19.01" y2="0.81" xlink:href="#linear-gradient"/>
    <linearGradient id="linear-gradient-31" x1="71.77" y1="56.98" x2="29.1" y2="-6.02" xlink:href="#linear-gradient"/>
    <linearGradient id="linear-gradient-32" x1="71.8" y1="56.96" x2="29.13" y2="-6.04" xlink:href="#linear-gradient"/>
    <linearGradient id="linear-gradient-33" x1="69.61" y1="58.44" x2="26.94" y2="-4.56" xlink:href="#linear-gradient"/>
    <linearGradient id="linear-gradient-34" x1="69.68" y1="58.39" x2="27.01" y2="-4.61" xlink:href="#linear-gradient"/>
    <linearGradient id="linear-gradient-35" x1="68.55" y1="59.16" x2="25.88" y2="-3.84" xlink:href="#linear-gradient"/>
    <linearGradient id="linear-gradient-36" x1="68.55" y1="59.16" x2="25.88" y2="-3.84" xlink:href="#linear-gradient"/>
    <linearGradient id="linear-gradient-37" x1="71.24" y1="57.34" x2="28.57" y2="-5.66" xlink:href="#linear-gradient"/>
    <linearGradient id="linear-gradient-38" x1="71.24" y1="57.33" x2="28.57" y2="-5.67" xlink:href="#linear-gradient"/>
    <linearGradient id="linear-gradient-39" x1="69.82" y1="58.3" x2="27.15" y2="-4.7" xlink:href="#linear-gradient"/>
    <linearGradient id="linear-gradient-40" x1="69.82" y1="58.3" x2="27.15" y2="-4.7" xlink:href="#linear-gradient"/>
    <linearGradient id="linear-gradient-41" x1="42.13" y1="77.05" x2="-0.54" y2="14.05" xlink:href="#linear-gradient"/>
    <linearGradient id="linear-gradient-42" x1="42.17" y1="77.02" x2="-0.5" y2="14.02" xlink:href="#linear-gradient"/>
    <linearGradient id="linear-gradient-43" x1="48.35" y1="72.84" x2="5.68" y2="9.84" xlink:href="#linear-gradient"/>
    <linearGradient id="linear-gradient-44" x1="48.38" y1="72.81" x2="5.72" y2="9.81" xlink:href="#linear-gradient"/>
    <linearGradient id="linear-gradient-45" x1="49.91" y1="71.78" x2="7.24" y2="8.78" xlink:href="#linear-gradient"/>
    <linearGradient id="linear-gradient-46" x1="49.91" y1="71.78" x2="7.24" y2="8.78" xlink:href="#linear-gradient"/>
    <linearGradient id="linear-gradient-47" x1="45.43" y1="74.82" x2="2.76" y2="11.82" xlink:href="#linear-gradient"/>
    <linearGradient id="linear-gradient-48" x1="45.4" y1="74.84" x2="2.73" y2="11.84" xlink:href="#linear-gradient"/>
    <linearGradient id="linear-gradient-49" x1="56.77" y1="67.14" x2="14.1" y2="4.14" xlink:href="#linear-gradient"/>
  </defs>
  <title>icon_horticulture_HR0</title>
  <path id="Rectangle" class="cls-1" d="M3,0H67a2.9,2.9,0,0,1,3,3V67a2.9,2.9,0,0,1-3,3H3a2.9,2.9,0,0,1-3-3V3A2.9,2.9,0,0,1,3,0Z"/>
  <g>
    <g>
      <path class="cls-2" d="M30.4,23.7a10.9,10.9,0,0,0-.8,1.5,2.5,2.5,0,0,0-.2,1.2q.2.9.9.9a.9.9,0,0,0,1-.9c.3-1-.3-1.8-.7-2.7Z"/>
      <path class="cls-3" d="M30.4,27.6h-.1a1.1,1.1,0,0,1-1.1-1.2,2.9,2.9,0,0,1,.1-1.3l.6-1.1.3-.5h.5l.2.3a4.1,4.1,0,0,1,.7,2.7A1.2,1.2,0,0,1,30.4,27.6Zm.1-3.5c-.1,0-.1.1-.2.2a4.7,4.7,0,0,0-.5,1,2,2,0,0,0-.1,1.1c0,.4.2.7.6.7a.8.8,0,0,0,.8-.7,3.1,3.1,0,0,0-.6-2.3Z"/>
    </g>
    <g>
      <path class="cls-4" d="M25.4,29.8h.4a16.2,16.2,0,0,0-.3,5.4l2.1-.2c-.5-1.7-1.1-3.5-1.7-5.2l1.5.2a2.7,2.7,0,0,0,1.2-.3.8.8,0,0,0,.4-1.1.9.9,0,0,0-.9-.7C26.9,28,26.2,28.9,25.4,29.8Z"/>
      <path class="cls-5" d="M25.3,35.5v-.2a15.3,15.3,0,0,1,.2-5.2h-.6l.5-.6a3.7,3.7,0,0,1,2.7-1.6,1.3,1.3,0,0,1,1.2.9,1.1,1.1,0,0,1-.6,1.3,2.2,2.2,0,0,1-1.3.3H26.3L28,35.4Zm.6-4.9a16.4,16.4,0,0,0-.2,4.4h1.6Zm.2-.9h1.3a1.5,1.5,0,0,0,1.1-.2c.4-.2.3-.6.3-.8s-.3-.5-.7-.5-1.5.6-2.2,1.3Z"/>
    </g>
    <g>
      <path class="cls-6" d="M35.8,12.8a3.4,3.4,0,0,0-.2,2,.8.8,0,0,0,1,.6c.5,0,.8-.3.8-.9A3.3,3.3,0,0,0,36.2,12,5.9,5.9,0,0,1,35.8,12.8Z"/>
      <path class="cls-7" d="M36.5,15.7a1.1,1.1,0,0,1-1.1-.9,2.6,2.6,0,0,1,.2-2.1h0c.1-.2.2-.3.2-.5l.3-.6.3.3a3.7,3.7,0,0,1,1.3,2.7,1.2,1.2,0,0,1-1,1.1Zm-.4-2.8a2.3,2.3,0,0,0-.2,1.8c.1.4.3.5.7.5s.5-.3.6-.7a3.1,3.1,0,0,0-.9-2l-.2.4Z"/>
    </g>
    <g>
      <path class="cls-8" d="M23.5,21.1a3.9,3.9,0,0,0,.6,2.6,1.1,1.1,0,0,0,1.3.3c.4-.3.5-.7.2-1.3S24.4,21.5,23.5,21.1Z"/>
      <path class="cls-8" d="M24.9,24.4a1.2,1.2,0,0,1-1-.6,3.7,3.7,0,0,1-.7-2.7v-.3h.4a3.6,3.6,0,0,1,2.3,1.7,1.2,1.2,0,0,1-.4,1.6Zm-1.2-2.9a2.8,2.8,0,0,0,.6,2q.4.6.9.3a.7.7,0,0,0,.2-1A2.8,2.8,0,0,0,23.7,21.5Z"/>
    </g>
    <g>
      <path class="cls-9" d="M23.3,26.3a8.7,8.7,0,0,0,1.1.9l1.3.4a.7.7,0,0,0,.8-.5,2.2,2.2,0,0,0-.1-.8l-.8-.5A4.8,4.8,0,0,0,23.3,26.3Z"/>
      <path class="cls-10" d="M25.8,27.9h-.1a4.6,4.6,0,0,1-1.4-.5l-.8-.6-.3-.3-.3-.3h.3V26a4,4,0,0,1,2.4-.4,2.8,2.8,0,0,1,.9.5,1.4,1.4,0,0,1,.1,1.1A1,1,0,0,1,25.8,27.9Zm-2-1.5h0l.7.6,1.2.4c.2,0,.5-.1.5-.3a.8.8,0,0,0,0-.7l-.7-.3A2.2,2.2,0,0,0,23.8,26.4Z"/>
    </g>
    <g>
      <path class="cls-11" d="M27.7,21.9a7,7,0,0,0-.3,1.2,3.8,3.8,0,0,0,.1,1.5c.1.5.5.6,1,.5a.8.8,0,0,0,.6-.9C29.1,23.2,28.4,22.6,27.7,21.9Z"/>
      <path class="cls-11" d="M28.2,25.4a1.1,1.1,0,0,1-1-.8,6.6,6.6,0,0,1-.1-1.5,1.9,1.9,0,0,1,.2-.8c.1-.2.1-.3.2-.4v-.4l.3.2-.2.2h.2a3.5,3.5,0,0,1,1.5,2.4,1.2,1.2,0,0,1-.9,1.2Zm-.4-3h0a2.5,2.5,0,0,0-.2.7,5.7,5.7,0,0,0,.1,1.4c.1.2.2.5.7.4a.7.7,0,0,0,.5-.7A2.9,2.9,0,0,0,27.8,22.4Z"/>
    </g>
    <g>
      <path class="cls-12" d="M37.9,18.2a.8.8,0,0,0,0,1.2.8.8,0,0,0,1.2-.1,3.1,3.1,0,0,0,.9-2.1A2.8,2.8,0,0,0,37.9,18.2Z"/>
      <path class="cls-13" d="M38.4,19.8a1.1,1.1,0,0,1-.7-.3,1,1,0,0,1,0-1.5h0A4.1,4.1,0,0,1,40,16.9h.3v.3a3.4,3.4,0,0,1-1.1,2.3A1.1,1.1,0,0,1,38.4,19.8Zm-.3-1.5c-.4.5-.2.7,0,.9s.5.2.8-.1a2.3,2.3,0,0,0,.8-1.6,2.5,2.5,0,0,0-1.6.8Z"/>
    </g>
    <g>
      <path class="cls-14" d="M34.6,18a10.8,10.8,0,0,0-1.8,0v.3a7.6,7.6,0,0,0,.9.9,3.1,3.1,0,0,0,1.2.5.7.7,0,0,0,.7-.5c0-.3,0-.7-.2-.8A.9.9,0,0,0,34.6,18Z"/>
      <path class="cls-15" d="M35,19.9h-.1a3.5,3.5,0,0,1-1.3-.5,1.6,1.6,0,0,1-.7-.7l-.3-.3h-.1v-.5h2a1.2,1.2,0,0,1,1.2,1.5.9.9,0,0,1-.3.6Zm-1.9-1.6h.1c.3.2.4.5.7.6l1.1.4h.2a.4.4,0,0,0,.1-.3.6.6,0,0,0-.1-.6l-.6-.3H33.1Z"/>
    </g>
    <g>
      <path class="cls-16" d="M38.2,16.9c.4.2.8,0,1.1-.6a3.4,3.4,0,0,0,0-2,3.1,3.1,0,0,0-1.5,1.5A.8.8,0,0,0,38.2,16.9Z"/>
      <path class="cls-17" d="M38.5,17.2h-.4a.9.9,0,0,1-.5-1.4A4.1,4.1,0,0,1,39.1,14h.4v.3a3.3,3.3,0,0,1,0,2.2A1.1,1.1,0,0,1,38.5,17.2Zm.6-2.5c-.5.3-.9.6-1,1.1s-.1.7.2.9h0c.1,0,.5.1.7-.5S39.2,15.3,39.1,14.7Z"/>
    </g>
    <g>
      <path class="cls-18" d="M34.8,15.7a5.2,5.2,0,0,0-1.3-.6h-.1a5.7,5.7,0,0,0,.4,1.4l.7.7a.7.7,0,0,0,1-1C35.3,16.1,35.1,15.8,34.8,15.7Z"/>
      <path class="cls-19" d="M34.9,17.7l-.6-.2-.7-.8-.3-1c-.1-.1-.1-.3-.2-.4h0l.3-.3H34l.9.4h0a3,3,0,0,1,.8.8.9.9,0,0,1-.1,1.1C35.3,17.6,35.1,17.7,34.9,17.7Zm-1.2-2.2h0a3.6,3.6,0,0,0,.4.9l.5.6a.5.5,0,0,0,.7-.7l-.6-.5h0l-.9-.4Z"/>
    </g>
    <g>
      <path class="cls-20" d="M42,34.8c-.1.4.2.7.8.8a2.6,2.6,0,0,0,1.9-.5,3.1,3.1,0,0,0-1.6-1C42.4,34,42,34.3,42,34.8Z"/>
      <path class="cls-21" d="M43.1,35.9h-.3a1.3,1.3,0,0,1-.9-.5.8.8,0,0,1-.2-.7,1.6,1.6,0,0,1,.4-.7,1.6,1.6,0,0,1,1-.1,3.5,3.5,0,0,1,1.8,1l.2.3h-.3A3.5,3.5,0,0,1,43.1,35.9Zm-.3-1.6a.5.5,0,0,0-.4.2c-.1,0-.2.1-.2.3h0a.4.4,0,0,0,.1.3l.5.3a4.4,4.4,0,0,0,1.5-.3,2.4,2.4,0,0,0-1.3-.7Z"/>
    </g>
    <g>
      <path class="cls-22" d="M44.6,31.8a.9.9,0,0,0,.5-.7c.1-.5.1-1.1.2-1.7s-1.5.8-1.7,1.6a.6.6,0,0,0,.2.8Z"/>
      <path class="cls-23" d="M44.3,32.1h-.6a.9.9,0,0,1-.4-1.1,3.5,3.5,0,0,1,1.8-1.8l.4-.2V30a4.9,4.9,0,0,0-.1,1.2,1.4,1.4,0,0,1-.7.8Zm.7-2.3a2.2,2.2,0,0,0-1.2,1.3c0,.1-.1.4.1.4h.6a1,1,0,0,0,.4-.5,5.3,5.3,0,0,1,.1-1.2Z"/>
    </g>
    <g>
      <path class="cls-24" d="M42.5,29.8h-.2a2.4,2.4,0,0,0-.8,1.9.6.6,0,0,0,1.2.3,1.4,1.4,0,0,0,.2-.6Z"/>
      <path class="cls-25" d="M42.2,32.6H42a1,1,0,0,1-.8-.9,2.5,2.5,0,0,1,.9-2h.5v.2c0,.1.1.2.1.4l.3,1.1a1.1,1.1,0,0,1-.1.8A.8.8,0,0,1,42.2,32.6Zm.1-2.4a1.7,1.7,0,0,0-.6,1.5.4.4,0,0,0,.4.4c.3.1.4-.1.4-.2s.2-.4.1-.5a2.6,2.6,0,0,0-.3-1.1Z"/>
    </g>
    <g>
      <path class="cls-26" d="M44.1,32.6a.7.7,0,0,0-.4,1c.1.4.5.5.9.4a2.7,2.7,0,0,0,1.5-1.3A2.8,2.8,0,0,0,44.1,32.6Z"/>
      <path class="cls-27" d="M44.3,34.3a1.1,1.1,0,0,1-.9-.7.9.9,0,0,1,.6-1.2h0a3.3,3.3,0,0,1,2.2,0l.3.2-.2.2a3.1,3.1,0,0,1-1.6,1.4Zm-.1-1.4a.4.4,0,0,0-.3.6c.1.2.2.3.7.2a2.3,2.3,0,0,0,1.1-.9,2,2,0,0,0-1.5.1Z"/>
    </g>
    <g>
      <path class="cls-28" d="M40,33.1c.1.3.3.6.7.5s.6-.3.6-.7-.5-1.2-1-1.8A2.8,2.8,0,0,0,40,33.1Z"/>
      <path class="cls-29" d="M40.6,33.9c-.4,0-.7-.3-.9-.8a3.2,3.2,0,0,1,.4-2.1l.2-.3.3.3a2.7,2.7,0,0,1,1,1.9.9.9,0,0,1-.8,1Zm-.2-2.3a2.2,2.2,0,0,0-.2,1.4h0c.1.4.3.4.5.4s.4-.1.4-.5A1.7,1.7,0,0,0,40.4,31.6Z"/>
    </g>
    <g>
      <path class="cls-30" d="M47.2,20.8c.4-.6.2-1.2.1-1.9s-1.1.7-1.3,1.4a.8.8,0,0,0,.3.9A.7.7,0,0,0,47.2,20.8Z"/>
      <path class="cls-31" d="M46.6,21.5h-.4a.8.8,0,0,1-.4-1.2,2.7,2.7,0,0,1,1.3-1.5l.4-.2v.4a3.5,3.5,0,0,1-.1,2h0A1.1,1.1,0,0,1,46.6,21.5Zm.5-2.2a2.8,2.8,0,0,0-.9,1,.7.7,0,0,0,.2.7.4.4,0,0,0,.6-.3h0A2.1,2.1,0,0,0,47.1,19.3Z"/>
    </g>
    <g>
      <path class="cls-32" d="M45.7,24c-.2.2-.4.4-.2.7a.6.6,0,0,0,.7.4,2.5,2.5,0,0,0,1.3-1.2A1.9,1.9,0,0,0,45.7,24Z"/>
      <path class="cls-33" d="M46,25.3a.8.8,0,0,1-.8-.5c-.1-.2-.2-.6.4-1h0a2.7,2.7,0,0,1,2-.2h.3l-.2.3a2.6,2.6,0,0,1-1.4,1.3Zm-.1-1.1c-.3.2-.3.3-.2.4s.2.3.4.2.7-.4,1-.8-.9-.1-1.2.2Z"/>
    </g>
    <g>
      <path class="cls-34" d="M43.3,22.1c.1.6.1,1.2.6,1.6a.6.6,0,0,0,.9-.7A2.4,2.4,0,0,0,43.3,22.1Z"/>
      <path class="cls-35" d="M44.3,24.2a.9.9,0,0,1-.6-.3,2.4,2.4,0,0,1-.7-1.6v-.5h.3v0a2.3,2.3,0,0,1,1.6,1c.2.4.2.8-.1,1A.9.9,0,0,1,44.3,24.2Zm-.7-1.7a1,1,0,0,0,.5,1c.2.2.3.2.4.1a.4.4,0,0,0,.1-.5A2.1,2.1,0,0,0,43.6,22.5Z"/>
    </g>
    <g>
      <path class="cls-36" d="M46.8,22.1c-.3.1-.4.4-.1.8a.5.5,0,0,0,.8,0l.9-1.2-.2-.2A5.9,5.9,0,0,0,46.8,22.1Z"/>
      <path class="cls-37" d="M47.1,23.4h0a.9.9,0,0,1-.6-.4.8.8,0,0,1-.2-.6c0-.3.2-.4.4-.6h0l1-.4h.6l.4.5v.2l-.3.3-.6.9Zm-.2-1.1c-.1,0-.1.1-.1.2s0,.1.1.2a.2.2,0,0,0,.2.2h.2l.6-.8a.1.1,0,0,1,.1-.1h-.1Z"/>
    </g>
    <g>
      <path class="cls-38" d="M44.6,20.1a1.6,1.6,0,0,0-.3,1.5c.1.4.4.6.7.4a.5.5,0,0,0,.3-.8A3.4,3.4,0,0,0,44.6,20.1Z"/>
      <path class="cls-39" d="M44.8,22.3h-.3c-.2-.1-.3-.3-.4-.7s0-1.1.3-1.6l.2-.4.2.3.3.4.5.8a.8.8,0,0,1,0,.7.8.8,0,0,1-.5.5Zm-.2-1.7a1.4,1.4,0,0,0-.1.9l.3.3h.1l.2-.2c.1,0,.1-.2,0-.3Z"/>
    </g>
    <g>
      <path class="cls-40" d="M28.9,56.8h-.8v.2l.7.4Z"/>
      <polygon class="cls-41" points="29 57.8 27.8 57.2 28 56.6 29.3 56.6 29 57.8"/>
    </g>
    <g>
      <path class="cls-42" d="M24.9,36c-1.6.3-1.7.3-2.8-.4a10.7,10.7,0,0,1-2.2-1.5l-.7.7a10.5,10.5,0,0,0,2.7,2,14.6,14.6,0,0,0-3,1.7l-.7.5h0c.3.4,0,.1.3.4,3.3-2.6,7.7-2.6,11.7-2l.4-1.4h-.2A14.5,14.5,0,0,0,24.9,36Z"/>
      <path class="cls-43" d="M18.5,39.8v-.2l-.3-.3H18v-.2l.3-.3.4-.3a11.7,11.7,0,0,1,2.7-1.5A9.6,9.6,0,0,1,19,34.9l-.2-.2,1.1-.9H20l.7.5,1.5,1c1,.6,1.1.6,2.5.3h.2a16.9,16.9,0,0,1,5.5,0h.5l-.5,1.9h-.2c-5.2-.7-8.8-.1-11.5,2Zm0-.8h.1c3.5-2.7,8.2-2.5,11.5-2l.2-.9h0a15.7,15.7,0,0,0-5.3,0h-.2a3.2,3.2,0,0,1-2.9-.3l-1.5-1.1-.5-.3-.4.3A9.4,9.4,0,0,0,22,36.6l.5.2L22,37a14.6,14.6,0,0,0-3,1.7l-.4.3Z"/>
    </g>
    <g>
      <path class="cls-44" d="M27.8,37.7H26.1a10.6,10.6,0,0,0,1.8,3.7c.4-.6.9-1.1,1.3-1.6a8.8,8.8,0,0,1-.5-1.5C28.5,37.7,28.5,37.7,27.8,37.7Z"/>
      <path class="cls-45" d="M27.9,41.8l-.2-.2a9.7,9.7,0,0,1-1.9-3.8v-.3h2c.8-.1.9,0,1.1.8l.6,1.7ZM26.4,38a8.9,8.9,0,0,0,1.5,3.1l1-1.2-.5-1.5c-.1-.5-.1-.5-.6-.4H26.4Z"/>
    </g>
    <g>
      <path class="cls-46" d="M21.5,43.2c1.8-.6,3-3,2.1-4.3A3.3,3.3,0,0,0,21.5,43.2Z"/>
      <path class="cls-47" d="M21.3,43.5v-.3a3.7,3.7,0,0,1,2.3-4.6h.2v.2a2.6,2.6,0,0,1,.1,2.3,3.9,3.9,0,0,1-2.3,2.4Zm2.2-4.3a2.9,2.9,0,0,0-1.8,3.6,3.3,3.3,0,0,0,1.8-2A2.2,2.2,0,0,0,23.5,39.2Z"/>
    </g>
    <g>
      <path class="cls-48" d="M35,10A25,25,0,1,0,60,35,25,25,0,0,0,35,10Zm9.1,46.8-.7-.2a.1.1,0,0,1-.1-.1h-.1l-1.4-.4h0c-.5-.3-.5-.2-1.1-.1l-.5-.3c-.1-.1-.2-.3-.3-.3l-1-.5c-.1,0-.3-.1-.4,0s-.9-.1-.9-.7c0-5.6-.1-11.2-.1-16.8a.8.8,0,0,1,.2-.4L40,35.6a10.9,10.9,0,0,0,1.7-1.3l2-1.9.4-.2c-.6-.3-.6-.3-.8,0a12.9,12.9,0,0,1-5,3.3l-.6.3h-.3a.3.3,0,0,0-.1-.2L37,30.9l.3-.4a39.7,39.7,0,0,0,3.6-1.7c1.3-.9,2.3-2.1,3.5-3.1h0l1.8-3.4a.7.7,0,0,0,.1-.5L45.4,23A15.3,15.3,0,0,1,42,27.2a4.2,4.2,0,0,1-2.1,1.3l-3,1.1c-.1-1.5-.1-2.9-.1-4.3a.8.8,0,0,1,.2-.4,9.5,9.5,0,0,0,1.7-1,1,1,0,0,0,.5-.4l2.5-3.6c.1-.1.1-.4.1-.5h-.1c-.8,1.1-1.6,2.1-2.3,3.2s-1.6,1.4-2.6,1.9c.1-2.8.2-5.6.4-8.4h-1c-.2,3.8-.3,7.5-.5,11.3h-.1a5.6,5.6,0,0,1-2.1-3.3c-.2-1-.6-1.9-.9-2.9h-.1c0,.2-.1.4,0,.6s.4,1.3.5,2a6.4,6.4,0,0,0,2.2,3.9c.8.8.5,1.7.6,2.6l-4.5-1.8a7.4,7.4,0,0,1-2.7-1.6c-.8-.9-1.7-1.6-2.6-2.5l-.3.5a.1.1,0,0,1,.1.1L29,28c.2.2.3.3.5.3L33,29.9c0,.1,0,.1-.1.2l-2.4,8.8a5.1,5.1,0,0,1-.9,1.6,8.8,8.8,0,0,0-2.4,3.6v.2l-.4.6-.3,1.2a1,1,0,0,1-.4.5l-.3.4-.9,3.2a.8.8,0,0,0,.6,1.1c.5.2.9-.1,1.1-.6l.9-3.1v-.5a.8.8,0,0,1,0-.8,1.4,1.4,0,0,1,.2-.7c0-.4.3-.7.1-1.2v-.2A4.1,4.1,0,0,1,29.5,43h.4a3.6,3.6,0,0,1,1.8,1.2c.1,0,.1.1.1.2a1.7,1.7,0,0,0,.1.7l.4,1.3v.4c0,.3-.1.6,0,.8a24.7,24.7,0,0,0,1,2.9.9.9,0,0,0,1.1.7.9.9,0,0,0,.5-1.2L34,47l-.5-.6c-.1-.1-.2-.2-.2-.3s-.4-1.4-.9-2A8.4,8.4,0,0,1,31.3,42a15,15,0,0,0,2-12l2.2,1a.5.5,0,0,1,.3.5c.1,1.9.1,3.8.1,5.7v.7l-1.8-1c0,.1-.3,1.2-.4,1.5h0l2.2,1.3v.4c0,1.4-.1,2.8-.2,4.2s-.3,4.6-.4,6.9-.1,2.1-.2,3.1l-.6.2-1.9.8c-.4.1-.8.2-.8.8h0c-1-.2-1.8.3-1.7,1.2l-.4.2-.6.3a23.5,23.5,0,1,1,15.1-1ZM30.3,41.7a.6.6,0,1,1-1.1.1.6.6,0,0,1,.6-.6A.6.6,0,0,1,30.3,41.7Z"/>
      <path class="cls-48" d="M35,60.3A25.3,25.3,0,1,1,60.3,35,25.3,25.3,0,0,1,35,60.3Zm0-50A24.8,24.8,0,1,0,59.8,35,24.8,24.8,0,0,0,35,10.3ZM29.1,58.1H29a23.7,23.7,0,1,1,15.1-1h0l-.9-.2h0l-1.7-.4h0c-.3-.2-.3-.2-.6-.1h-.1c-.3.1-.5-.1-.7-.3h0l-.3-.2h0l-1-.5h-.2a1.2,1.2,0,0,1-.9-.1,1.2,1.2,0,0,1-.3-.8c-.1-5.6-.1-11.2-.2-16.8a.8.8,0,0,1,.4-.6l1-.6,1.3-.8,1.6-1.3.6-.5a12.3,12.3,0,0,1-3.7,2.1l-.4.2h-.8V35c-.1-1.4-.1-2.7-.2-4.1a.8.8,0,0,1,.4-.6l1.2-.6a13.3,13.3,0,0,0,2.4-1.1c.8-.6,1.6-1.4,2.4-2.1a9.4,9.4,0,0,1,1-1l.4-.7a14.8,14.8,0,0,1-2.4,2.6A6.4,6.4,0,0,1,40,28.8l-2.1.7-.9.4h-.4V28.7c0-1.2-.1-2.3-.1-3.4s.3-.5.4-.6l1-.6h0l-.4.2-.6.3-.4.2.4-8.5h-.5l-.5,11.4-.5-.3L35,27l.4.4a2.2,2.2,0,0,1,.6,2v1.1l-.4-.2-1.4-.5a16.6,16.6,0,0,0-3.1-1.2,8,8,0,0,1-2.7-1.8l-1.8-1.6-.6-.6H26l.6.5,2.6,2.7.4.2L32,29.2l2.2.9,1.4.6a.9.9,0,0,1,.5.8v3.2a20.9,20.9,0,0,1,.1,2.5v1.1h-.4a14.7,14.7,0,0,0-1.5-.9,4.1,4.1,0,0,0-.3,1l2.1,1.3v.5c-.1,1.2-.2,2.3-.2,3.4l-.7,11h-.7l-.7.3-1.2.5c-.5.2-.6.3-.6.6h0l-.3.2h-.1a1.4,1.4,0,0,0-1.1.1,1,1,0,0,0-.3.8h0l-.6.4a.5.5,0,0,0-.4.2ZM35,11.7a23.3,23.3,0,0,0-6,45.8l.5-.2.2-.2a1.4,1.4,0,0,1,.5-1,2.5,2.5,0,0,1,1.3-.3c.1-.5.5-.6.9-.7l1.2-.5a1.5,1.5,0,0,1,.7-.3l.4-.2h.1v-3l-.4.3a1.2,1.2,0,0,1-1.5-.8l-.2-.7-.7-2.2a1.3,1.3,0,0,1-.1-.6.4.4,0,0,0,.1-.3h0v-.2a1.4,1.4,0,0,1-.2-.6l-.3-.7v-.7c-.1-.1-.1-.1-.1-.2a4.2,4.2,0,0,0-1.6-1.1h-.3A4.5,4.5,0,0,0,28,44.4h0a1.3,1.3,0,0,1-.1.9c0,.1-.1.2-.1.3a1.4,1.4,0,0,1-.2.7.8.8,0,0,0,0,.7c.1.2,0,.5,0,.6l-.9,3.2a1.2,1.2,0,0,1-1.4.8,1.3,1.3,0,0,1-.7-.6,1.1,1.1,0,0,1-.1-.8,29.9,29.9,0,0,1,1-3.2.8.8,0,0,1,.4-.6.5.5,0,0,0,.2-.4,5.6,5.6,0,0,1,.4-1.2l.3-.5a.3.3,0,0,0,.1-.2H27a9.8,9.8,0,0,1,2.4-3.7,2.4,2.4,0,0,0,.8-1.5c.7-2.2,1.3-4.4,1.9-6.7l.6-2.1-.9-.4-2.4-1a1,1,0,0,1-.5-.4l-2.6-2.6-.6-.6a.1.1,0,0,1-.1-.1l-.2-.2.6-.8.2.2.8.7,1.8,1.7a7.1,7.1,0,0,0,2.6,1.6l3.1,1.2,1,.4v-.3a2.2,2.2,0,0,0-.5-1.7,6.6,6.6,0,0,1-2.2-4,6.5,6.5,0,0,0-.4-1.3,3.1,3.1,0,0,0-.2-.8v-.8h.6V21l.3.8a8.3,8.3,0,0,1,.6,2.1,6.4,6.4,0,0,0,1.8,2.9l.4-11h1.5L37.1,24c0-.1.1-.1.2-.1a4,4,0,0,0,1.9-1.5l1.6-2.3.7-.9V19l.6.2v.2c0,.1,0,.1-.1.2a1.1,1.1,0,0,1-.1.5l-2.5,3.5a.8.8,0,0,1-.5.5l-.8.5-.9.5-.2.2c0,1.1.1,2.2.1,3.3v.7l.7-.3,2-.7A4.6,4.6,0,0,0,41.9,27a14.9,14.9,0,0,0,3.3-4.1,4.5,4.5,0,0,1,1-1.3l.7-.8L46.5,22a.4.4,0,0,1-.1.3,19.6,19.6,0,0,1-1.3,2.5l-.4.9v.2l-1.1.9A12.6,12.6,0,0,1,41.1,29a19.2,19.2,0,0,1-2.5,1.2l-1.2.5a.3.3,0,0,1-.1.2c.1,1.4.1,2.7.2,4.1v.6h0c.1-.1.2-.1.2-.2h.4A14.1,14.1,0,0,0,43.1,32c.4-.4.6-.3,1.1,0l.3.2-.3.2h-.4a4.6,4.6,0,0,1-.7.7l-1.3,1.2-1.6,1.3-1.3.8-1,.6-.2.2c.1,5.6.1,11.2.2,16.8a.6.6,0,0,0,.1.4c.1,0,.3.1.5,0H39l1,.4.3.3h.1l.3.2h.1a1.1,1.1,0,0,1,1.1.2H42l1.1.3H44a23.3,23.3,0,0,0-9-44.8ZM31.7,56.1ZM29,41.4a15.6,15.6,0,0,0-1.6,2.8v.2c0,.1-.1.1-.1.2a.8.8,0,0,0-.2.4,4.9,4.9,0,0,0-.4,1.1c-.1.3-.1.6-.5.7s-.1.2-.2.3L25,50.3a.7.7,0,0,0,.1.5c0,.1.2.2.3.3a.6.6,0,0,0,.8-.5l.9-3.1c.1-.1.1-.3,0-.3a1.7,1.7,0,0,1,0-1,3.9,3.9,0,0,0,.2-.6c0-.2.1-.3.1-.4s.2-.5.1-.7,0-.3.1-.4a3.8,3.8,0,0,1,1.9-1.3H30A4.4,4.4,0,0,1,31.9,44c.1.1.1.3.2.4V45a2.4,2.4,0,0,1,.2.8.8.8,0,0,1,.2.5.8.8,0,0,1,.1.4h0a.4.4,0,0,1-.1.3.9.9,0,0,0,.1.5c.2.7.4,1.4.7,2.2l.2.6a.6.6,0,0,0,.8.5c.2,0,.3-.1.4-.3s.1-.3,0-.6l-.2-.5a22.5,22.5,0,0,0-.8-2.4c0-.1-.1-.2-.2-.3s-.1-.2-.2-.2h-.1c0-.1-.1-.2-.2-.3l-.3-.8a3.1,3.1,0,0,0-.5-1.2,6.7,6.7,0,0,1-.9-1.4l-.3-.7h.1a14.4,14.4,0,0,0,2-11.4l-.5,1.8c-.6,2.2-1.3,4.4-1.9,6.6a3.5,3.5,0,0,1-1,1.8l-.4.4h.5a.7.7,0,0,1,.7.7h0a.7.7,0,0,1-.2.6l-.5.2h-.1a.7.7,0,0,1-.7-.7Zm2.6.6a1.4,1.4,0,0,0,.2.6,4.6,4.6,0,0,0,.8,1.3,3.8,3.8,0,0,1,.6,1.3l.3.8a.3.3,0,0,1,.1.2h.2l.4.5.8,2.4v.2l.4-6c0-1.1.1-2.3.2-3.4v-.3l-2.2-1.3v-.2a5.1,5.1,0,0,0,.4-1.4v-.4A15.5,15.5,0,0,1,31.6,42Zm-3.7,2.3Zm1.9-2.8h0c-.1,0-.2,0-.2.1s-.1.1-.1.2a.2.2,0,0,0,.2.2H30C30,41.6,29.9,41.5,29.8,41.5Zm4-5.1.4.3,1.5.8v-.3a21.8,21.8,0,0,0-.1-2.5V31.5c0-.2-.1-.2-.2-.3L34,30.6l-.4-.2A17.5,17.5,0,0,1,33.8,36.4Zm9.7-4.2Z"/>
    </g>
  </g>
</svg>
