<svg id="Layer_1" data-name="Layer 1" xmlns="http://www.w3.org/2000/svg" xmlns:xlink="http://www.w3.org/1999/xlink" width="70" height="70" viewBox="0 0 70 70">
  <defs>
    <style>
      .cls-1 {
        fill: #f6f6f6;
      }

      .cls-2 {
        fill: url(#linear-gradient);
      }

      .cls-3 {
        fill: url(#linear-gradient-2);
      }
    </style>
    <linearGradient id="linear-gradient" x1="53.7" y1="66.15" x2="25.76" y2="3.89" gradientUnits="userSpaceOnUse">
      <stop offset="0" stop-color="#75c9b9"/>
      <stop offset="1" stop-color="#72bde5"/>
    </linearGradient>
    <linearGradient id="linear-gradient-2" x1="46.44" y1="69.41" x2="18.5" y2="7.15" xlink:href="#linear-gradient"/>
  </defs>
  <title>icon_plumbing_P0</title>
  <path id="Rectangle" class="cls-1" d="M3,0H67a2.9,2.9,0,0,1,3,3V67a2.9,2.9,0,0,1-3,3H3a2.9,2.9,0,0,1-3-3V3A2.9,2.9,0,0,1,3,0Z"/>
  <g>
    <path class="cls-2" d="M37.5,52a6.9,6.9,0,0,0,6.9-6.9V37.8h-4V18.3H42a.9.9,0,0,0,.8-.8.8.8,0,0,0-.8-.7H40.4v-6H42a.8.8,0,0,0,.8-.7.8.8,0,0,0-.8-.7H33.1a.7.7,0,1,0,0,1.4h1.3v6H33.1a.7.7,0,0,0-.8.7.8.8,0,0,0,.8.8h1.3V37.8H30.6v7.3A6.9,6.9,0,0,0,37.5,52Zm5.4-6.9a5.9,5.9,0,0,1-.5,2.3l-2.3-1.6a2,2,0,0,0,.3-1.1V43.4h2.5Zm-4-2.6h0v2.1c0,.2-.1.4-.1.6s-.3.2-.3.3a.4.4,0,0,0-.1.3,1.9,1.9,0,0,1-1,.3l-.8-.2-.3-.2a1.4,1.4,0,0,1-.4-1.1V39.3h3ZM36,47.4l.9.3v2.8A6.3,6.3,0,0,1,33.7,49Zm2.4,3V47.5l.9-.5,2.3,1.6A5.4,5.4,0,0,1,38.4,50.4Zm4.5-11.1v2.6H40.4V39.3Zm-7-28.5h3v6h-3Zm0,7.5h3V37.8h-3Zm-1.5,21v2.6H32.1V39.3Zm-2.3,4.1h2.3v1.3a3.4,3.4,0,0,0,.5,1.7l-2.1,1.4a6,6,0,0,1-.7-2.7Z"/>
    <path class="cls-3" d="M25.2,59.4H49.9A2.1,2.1,0,0,0,52,57.2V41.9a2.1,2.1,0,0,0-2.1-2.1H47.2a.8.8,0,0,0-.8.7v4.4a9,9,0,1,1-18,0V40.5a.7.7,0,0,0-.7-.7H25.2a2.1,2.1,0,0,0-2.1,2.1V57.2A2.1,2.1,0,0,0,25.2,59.4Zm-.7-17.5a.7.7,0,0,1,.7-.6h1.7v3.6a10.5,10.5,0,0,0,21,0V41.3h2a.7.7,0,0,1,.7.6V57.2a.7.7,0,0,1-.7.7H25.2a.7.7,0,0,1-.7-.7Z"/>
  </g>
</svg>
