<svg id="Layer_1" data-name="Layer 1" xmlns="http://www.w3.org/2000/svg" xmlns:xlink="http://www.w3.org/1999/xlink" width="70" height="70" viewBox="0 0 70 70">
  <defs>
    <style>
      .cls-1 {
        fill: #f6f6f6;
      }

      .cls-2 {
        fill: url(#linear-gradient);
      }
    </style>
    <linearGradient id="linear-gradient" x1="50.87" y1="64.42" x2="18.02" y2="3.53" gradientUnits="userSpaceOnUse">
      <stop offset="0" stop-color="#64dcc2"/>
      <stop offset="1" stop-color="#70bce6"/>
    </linearGradient>
  </defs>
  <title>icon_carpentry_C0</title>
  <path id="Rectangle" class="cls-1" d="M3,0H67a2.9,2.9,0,0,1,3,3V67a2.9,2.9,0,0,1-3,3H3a2.9,2.9,0,0,1-3-3V3A2.9,2.9,0,0,1,3,0Z"/>
  <path class="cls-2" d="M12.4,45.7A26.9,26.9,0,0,0,14,48.6c.4.7.9,1.3,1.3,1.9L17.6,53l.8.7a23.1,23.1,0,0,0,4.5,3.2l2,1,2.1.8A26.3,26.3,0,0,0,35,60a24.9,24.9,0,0,0,16.8-6.5A23.8,23.8,0,0,0,55.7,49,23.9,23.9,0,0,0,57,46.9a22.5,22.5,0,0,0,1.9-4.5l.3-1.2a16.9,16.9,0,0,0,.5-2.4A23.4,23.4,0,0,0,60,35,25,25,0,0,0,36.9,10.1H33.1A24.3,24.3,0,0,0,21.5,14l-2.3,1.6a24.4,24.4,0,0,0-8.5,13.7,13.7,13.7,0,0,0-.5,2.8A28.3,28.3,0,0,0,10,35a28.3,28.3,0,0,0,.2,2.9A24,24,0,0,0,12.4,45.7ZM33.2,11.5h3.6A23.6,23.6,0,0,1,35,58.6h-.9V53H31.5V50.3l-10-12.4V15.7l.7-.5A24,24,0,0,1,33.2,11.5ZM21.5,51.4V40.2l8.6,10.6V53H27.9v4.5a22.1,22.1,0,0,1-8.3-4.7Z"/>
</svg>
