<svg id="Layer_1" data-name="Layer 1" xmlns="http://www.w3.org/2000/svg" xmlns:xlink="http://www.w3.org/1999/xlink" width="70" height="70" viewBox="0 0 70 70">
  <defs>
    <style>
      .cls-1 {
        fill: #f6f6f6;
      }

      .cls-2 {
        fill: url(#linear-gradient);
      }

      .cls-3 {
        fill: url(#linear-gradient-2);
      }

      .cls-4 {
        fill: url(#linear-gradient-3);
      }

      .cls-5 {
        fill: url(#linear-gradient-4);
      }

      .cls-6 {
        fill: url(#linear-gradient-5);
      }

      .cls-7 {
        fill: url(#linear-gradient-6);
      }

      .cls-8 {
        fill: url(#linear-gradient-7);
      }

      .cls-9 {
        fill: url(#linear-gradient-8);
      }

      .cls-10 {
        fill: url(#linear-gradient-9);
      }

      .cls-11 {
        fill: url(#linear-gradient-10);
      }

      .cls-12 {
        fill: url(#linear-gradient-11);
      }
    </style>
    <linearGradient id="linear-gradient" x1="41.02" y1="68.57" x2="14.69" y2="0.35" gradientUnits="userSpaceOnUse">
      <stop offset="0" stop-color="#75c9b9"/>
      <stop offset="1" stop-color="#72bde5"/>
    </linearGradient>
    <linearGradient id="linear-gradient-2" x1="31.5" y1="72.24" x2="5.18" y2="4.02" xlink:href="#linear-gradient"/>
    <linearGradient id="linear-gradient-3" x1="73.23" y1="56.14" x2="46.91" y2="-12.08" xlink:href="#linear-gradient"/>
    <linearGradient id="linear-gradient-4" x1="67.41" y1="58.39" x2="41.08" y2="-9.83" xlink:href="#linear-gradient"/>
    <linearGradient id="linear-gradient-5" x1="66.86" y1="58.6" x2="40.53" y2="-9.62" xlink:href="#linear-gradient"/>
    <linearGradient id="linear-gradient-6" x1="62.57" y1="60.25" x2="36.24" y2="-7.96" xlink:href="#linear-gradient"/>
    <linearGradient id="linear-gradient-7" x1="57.72" y1="62.12" x2="31.4" y2="-6.09" xlink:href="#linear-gradient"/>
    <linearGradient id="linear-gradient-8" x1="60.51" y1="61.05" x2="34.18" y2="-7.17" xlink:href="#linear-gradient"/>
    <linearGradient id="linear-gradient-9" x1="59.8" y1="61.32" x2="33.48" y2="-6.9" xlink:href="#linear-gradient"/>
    <linearGradient id="linear-gradient-10" x1="65.74" y1="59.03" x2="39.42" y2="-9.19" xlink:href="#linear-gradient"/>
    <linearGradient id="linear-gradient-11" x1="71.68" y1="56.73" x2="45.36" y2="-11.48" xlink:href="#linear-gradient"/>
  </defs>
  <title>icon_plumbing_P0</title>
  <path id="Rectangle" class="cls-1" d="M3,0H67a2.9,2.9,0,0,1,3,3V67a2.9,2.9,0,0,1-3,3H3a2.9,2.9,0,0,1-3-3V3A2.9,2.9,0,0,1,3,0Z"/>
  <g>
    <path class="cls-2" d="M35.7,14.6H17.4v9.3h1.8V44.3h1.9V61h5.6V44.3h1.8V23.9h7.3a1.9,1.9,0,0,0,2-1.9V16.7A1.9,1.9,0,0,0,35.7,14.6Zm-11,44.5H23V44.3h1.7ZM35.9,22H26.7V42.4H21.1V22.1H19.3V16.5H35.9Z"/>
    <path class="cls-3" d="M13.6,31.3H11.8v-13h4.6V16.5H10V33.1h5.5V22h.9V20.2H13.6Z"/>
    <path class="cls-4" d="M57.3,9.1l-3.8,1.3a.9.9,0,0,0-.5,1c.1.5.5.7,1.1.8L58,10.7a.7.7,0,0,0,.3-1C58.1,9.2,57.7,8.9,57.3,9.1Z"/>
    <path class="cls-5" d="M57.6,27.6l-3.2-1.1h-.5a.8.8,0,0,0-.9.7.9.9,0,0,0,.6,1.1L57,29.4a1,1,0,0,0,1.3-.6A.9.9,0,0,0,57.6,27.6Z"/>
    <path class="cls-6" d="M47.6,14.4l3.8-1.3a.8.8,0,0,0,.4-1.1c-.1-.3-.5-.6-.7-.8a40.9,40.9,0,0,0-4.2,1.6.7.7,0,0,0-.3,1A.8.8,0,0,0,47.6,14.4Z"/>
    <path class="cls-7" d="M51.2,25.4l-3.3-1.2a1,1,0,0,0-1.3.5,1,1,0,0,0,.7,1.3l3.2,1.1h.4a.9.9,0,0,0,1-.7A1,1,0,0,0,51.2,25.4Z"/>
    <path class="cls-8" d="M44.9,23.2l-3.6-1.3a.9.9,0,0,0-.6,1.8l3.5,1.2c.7.2,1.3-.2,1.3-1.1S45.2,23.3,44.9,23.2Z"/>
    <path class="cls-9" d="M40.9,16.8v-.2h.3l3.6-1.3a.9.9,0,0,0,.5-1.1.8.8,0,0,0-1-.6l-3.9,1.3a.8.8,0,0,0-.4,1.1C40.3,16.3,40.7,16.5,40.9,16.8Z"/>
    <path class="cls-10" d="M45.4,18.3H41.8a.9.9,0,0,0-1,1,.9.9,0,0,0,1,.9h3.7a.9.9,0,0,0,.9-.9C46.3,18.7,46,18.3,45.4,18.3Z"/>
    <path class="cls-11" d="M52.2,18.3H48.6a.9.9,0,0,0-1,1,.9.9,0,0,0,1,.9h3.6a.9.9,0,0,0,1-1A.9.9,0,0,0,52.2,18.3Z"/>
    <path class="cls-12" d="M59,18.3H55.4a1,1,0,0,0-1,.9.9.9,0,0,0,1,1H59a.9.9,0,0,0,1-.9A.9.9,0,0,0,59,18.3Z"/>
  </g>
</svg>
