<svg id="Layer_1" data-name="Layer 1" xmlns="http://www.w3.org/2000/svg" xmlns:xlink="http://www.w3.org/1999/xlink" width="70" height="70" viewBox="0 0 70 70">
  <defs>
    <style>
      .cls-1 {
        fill: #f6f6f6;
      }

      .cls-2 {
        fill: url(#linear-gradient);
      }

      .cls-3 {
        fill: url(#linear-gradient-2);
      }

      .cls-4 {
        fill: url(#linear-gradient-3);
      }

      .cls-5 {
        fill: url(#linear-gradient-4);
      }

      .cls-6 {
        fill: url(#linear-gradient-5);
      }
    </style>
    <linearGradient id="linear-gradient" x1="55.05" y1="61.78" x2="15.55" y2="9.03" gradientUnits="userSpaceOnUse">
      <stop offset="0" stop-color="#75c9b9"/>
      <stop offset="1" stop-color="#72bde5"/>
    </linearGradient>
    <linearGradient id="linear-gradient-2" x1="54.29" y1="60.76" x2="16.29" y2="10.01" xlink:href="#linear-gradient"/>
    <linearGradient id="linear-gradient-3" x1="60.51" y1="57.69" x2="21.01" y2="4.94" xlink:href="#linear-gradient"/>
    <linearGradient id="linear-gradient-4" x1="49.22" y1="66.14" x2="9.72" y2="13.39" xlink:href="#linear-gradient"/>
    <linearGradient id="linear-gradient-5" x1="55.21" y1="61.66" x2="15.71" y2="8.91" xlink:href="#linear-gradient"/>
  </defs>
  <title>amc_</title>
  <path id="Rectangle" class="cls-1" d="M3,0H67a2.9,2.9,0,0,1,3,3V67a2.9,2.9,0,0,1-3,3H3a2.9,2.9,0,0,1-3-3V3A2.9,2.9,0,0,1,3,0Z"/>
  <g>
    <path class="cls-2" d="M35,12A23,23,0,1,1,12,35,23,23,0,0,1,35,12m0-2A25,25,0,1,0,60,35,25,25,0,0,0,35,10Z"/>
    <path class="cls-3" d="M35,14.8A20.2,20.2,0,1,1,14.8,35,20.3,20.3,0,0,1,35,14.8m0-1A21.2,21.2,0,1,0,56.2,35,21.2,21.2,0,0,0,35,13.8Z"/>
    <g>
      <path class="cls-4" d="M46.5,37.4h0a2.2,2.2,0,0,1-.2,1.1,2,2,0,0,1-.4.8,4.6,4.6,0,0,1-.7.7,4.2,4.2,0,0,1-1.5.4h-.4l-1-.2-.8-.5a1.6,1.6,0,0,1-.6-.8,2.4,2.4,0,0,1-.4-1.5V32.5a1.6,1.6,0,0,1,.2-1,3.6,3.6,0,0,1,.4-.9l.8-.6a2.8,2.8,0,0,1,1.3-.4h.5l1,.2.8.5a1.3,1.3,0,0,1,.6.7,2.8,2.8,0,0,1,.4,1.5h0v.2l-.2.2H44.8c0-.1-.1-.1-.1-.2s-.1-.1-.1-.2h0a1.3,1.3,0,0,0-.1-.6l-.4-.4H42.8l-.4.5c-.1.1-.1.3-.1.6v4.9a1.3,1.3,0,0,0,.1.6c.1.2.3.3.4.4l.6.2h.1l.5-.2a1,1,0,0,0,.5-.4,1.3,1.3,0,0,0,.1-.6.4.4,0,0,1,.1-.3h1.8Z"/>
      <path class="cls-5" d="M30.4,39.9l-1.9-9.7-.2-.3H25.7l-.2.3-2,9.7h0c0,.1,0,.1.1.2h1.8c.1,0,.1-.1.1-.2l.5-2.5h1.9l.5,2.5c0,.2.1.3.4.3h1.5c.1-.1.1-.1.1-.2Zm-4.1-4.1.6-3.8H27l.7,3.8Z"/>
      <path class="cls-6" d="M39.2,30.1v9.8a.3.3,0,0,1-.1.2l-.3.2H37.7l-.3-.2a.3.3,0,0,1-.1-.2V33.6l-1.1,3.7a.1.1,0,0,1-.1.1.1.1,0,0,1-.1.1H34.4c0-.1-.1-.1-.1-.2l-1.1-3.7v6.3h-.1a.3.3,0,0,1-.1.2H31.5a.3.3,0,0,1-.1-.2.1.1,0,0,1-.1-.1V30.1a.1.1,0,0,1,.1-.1c0-.1,0-.2.1-.2h2.3c0,.1.1.1.1.2l1.3,4.4,1.4-4.4c0-.1.1-.2.2-.3h2.3A.3.3,0,0,1,39.2,30.1Z"/>
    </g>
  </g>
</svg>
