<svg id="Layer_1" data-name="Layer 1" xmlns="http://www.w3.org/2000/svg" xmlns:xlink="http://www.w3.org/1999/xlink" width="70" height="70" viewBox="0 0 70 70">
  <defs>
    <style>
      .cls-1 {
        fill: #f6f6f6;
      }

      .cls-2 {
        fill: url(#linear-gradient);
      }

      .cls-3 {
        fill: url(#linear-gradient-2);
      }

      .cls-4 {
        fill: url(#linear-gradient-3);
      }

      .cls-5 {
        fill: url(#linear-gradient-4);
      }

      .cls-6 {
        fill: url(#linear-gradient-5);
      }

      .cls-7 {
        fill: url(#linear-gradient-6);
      }

      .cls-8 {
        fill: url(#linear-gradient-7);
      }

      .cls-9 {
        fill: url(#linear-gradient-8);
      }

      .cls-10 {
        fill: url(#linear-gradient-9);
      }
    </style>
    <linearGradient id="linear-gradient" x1="46.75" y1="79.88" x2="-1.59" y2="14.21" gradientUnits="userSpaceOnUse">
      <stop offset="0" stop-color="#75c9b9"/>
      <stop offset="1" stop-color="#72bde5"/>
    </linearGradient>
    <linearGradient id="linear-gradient-2" x1="50.88" y1="76.83" x2="2.55" y2="11.16" xlink:href="#linear-gradient"/>
    <linearGradient id="linear-gradient-3" x1="43.86" y1="82" x2="-4.48" y2="16.34" xlink:href="#linear-gradient"/>
    <linearGradient id="linear-gradient-4" x1="70.97" y1="62.05" x2="22.64" y2="-3.62" xlink:href="#linear-gradient"/>
    <linearGradient id="linear-gradient-5" x1="74.51" y1="59.44" x2="26.18" y2="-6.23" xlink:href="#linear-gradient"/>
    <linearGradient id="linear-gradient-6" x1="64.48" y1="66.82" x2="16.15" y2="1.15" xlink:href="#linear-gradient"/>
    <linearGradient id="linear-gradient-7" x1="65.79" y1="65.86" x2="17.46" y2="0.19" xlink:href="#linear-gradient"/>
    <linearGradient id="linear-gradient-8" x1="80.58" y1="54.97" x2="32.25" y2="-10.7" xlink:href="#linear-gradient"/>
    <linearGradient id="linear-gradient-9" x1="79.34" y1="55.89" x2="31" y2="-9.78" xlink:href="#linear-gradient"/>
  </defs>
  <title>icon_electrical_E01</title>
  <path id="Rectangle" class="cls-1" d="M3,0H67a2.9,2.9,0,0,1,3,3V67a2.9,2.9,0,0,1-3,3H3a2.9,2.9,0,0,1-3-3V3A2.9,2.9,0,0,1,3,0Z"/>
  <g>
    <path class="cls-2" d="M25.3,25.1h-12A3.3,3.3,0,0,0,10,28.4V56.8a3.3,3.3,0,0,0,3.3,3.3h12a3.3,3.3,0,0,0,3.3-3.3V28.4A3.3,3.3,0,0,0,25.3,25.1ZM12,41.6V28.4A1.3,1.3,0,0,1,13.3,27h12a1.3,1.3,0,0,1,1.3,1.4V41.6Zm13.3,12h-12A1.3,1.3,0,0,1,12,52.3V43.5H26.6v8.8A1.3,1.3,0,0,1,25.3,53.6Zm0,2a3.1,3.1,0,0,0,1.3-.3v1.5a1.3,1.3,0,0,1-1.3,1.3h-12A1.3,1.3,0,0,1,12,56.8V55.3a2.8,2.8,0,0,0,1.3.3Z"/>
    <path class="cls-3" d="M19.3,30.3a3.6,3.6,0,1,0,3.6,3.6A3.6,3.6,0,0,0,19.3,30.3Zm1.6,3.6a1.6,1.6,0,1,1-1.6-1.6A1.6,1.6,0,0,1,20.9,33.9Z"/>
    <path class="cls-4" d="M19.3,45.5a.9.9,0,0,0-1,.9v4.4a1,1,0,0,0,1,1,1.1,1.1,0,0,0,1-1V46.4A1,1,0,0,0,19.3,45.5Z"/>
    <path class="cls-5" d="M54,24.2V20a7.5,7.5,0,0,0-4.4-6.8l-1.2-.5a3.1,3.1,0,0,0-3.1-2.8,3.1,3.1,0,0,0-3,2.9l-1.1.4A7.7,7.7,0,0,0,36.7,20v4.2a9.7,9.7,0,0,1-2.9,7,1.1,1.1,0,0,0-.3,1.2.9.9,0,0,0,.9.8l4.4.8,2,.3a5.3,5.3,0,0,0,9.2,0l2-.3,4.4-.8a1.1,1.1,0,0,0,.9-.8,1.1,1.1,0,0,0-.3-1.2A9.7,9.7,0,0,1,54,24.2Zm-2.3,8.4-2.3.3h-.3l-.2.3a3.9,3.9,0,0,1-7,0l-.2-.3h-.4l-2.2-.3-3.9-.7a11.3,11.3,0,0,0,2.9-7.7V20a6.5,6.5,0,0,1,3.7-5.5l1.4-.5h.5V13a1.6,1.6,0,0,1,3.2,0v.8l.6.2,1.5.5A6.1,6.1,0,0,1,52.5,20v4.2a10.8,10.8,0,0,0,3.1,7.7Z"/>
    <path class="cls-6" d="M48.2,16.1a6.8,6.8,0,0,0-5.6,0A4.6,4.6,0,0,0,39.9,20a.8.8,0,0,0,.8.7h0a.7.7,0,0,0,.7-.7,2.8,2.8,0,0,1,1.8-2.5,4.9,4.9,0,0,1,4.4,0,.8.8,0,0,0,1-.4A.7.7,0,0,0,48.2,16.1Z"/>
    <path class="cls-7" d="M33.5,27.2a4.5,4.5,0,0,1-1.4-3.3,4.7,4.7,0,0,1,1.4-3.3.7.7,0,0,0,0-1,.8.8,0,0,0-1.1,0,6.2,6.2,0,0,0-1.8,4.3,6,6,0,0,0,1.8,4.3l.5.3a.9.9,0,0,0,.6-.3A.7.7,0,0,0,33.5,27.2Z"/>
    <path class="cls-8" d="M35.4,20.5a.7.7,0,0,0-1,0,4.7,4.7,0,0,0,0,6.7l.5.2.5-.2a.8.8,0,0,0,0-1.1,3.3,3.3,0,0,1,0-4.5A.8.8,0,0,0,35.4,20.5Z"/>
    <path class="cls-9" d="M57.2,19.6a.7.7,0,0,0,0,1,5.1,5.1,0,0,1,1.3,3.3,4.9,4.9,0,0,1-1.3,3.3.7.7,0,0,0,0,1,.6.6,0,0,0,1,0A5.7,5.7,0,0,0,60,23.9a5.8,5.8,0,0,0-1.8-4.3A.7.7,0,0,0,57.2,19.6Z"/>
    <path class="cls-10" d="M55.2,27.2l.5.2.6-.2a4.8,4.8,0,0,0,0-6.7.8.8,0,1,0-1.1,1.1,3.1,3.1,0,0,1,0,4.5A.8.8,0,0,0,55.2,27.2Z"/>
  </g>
</svg>
