<svg id="Layer_1" data-name="Layer 1" xmlns="http://www.w3.org/2000/svg" xmlns:xlink="http://www.w3.org/1999/xlink" width="374.5" height="89.4" viewBox="0 0 374.5 89.4">
  <defs>
    <style>
      .cls-1 {
        fill: url(#linear-gradient);
      }

      .cls-2, .cls-4, .cls-5 {
        fill: #fff;
      }

      .cls-2 {
        opacity: 0.3;
      }

      .cls-2, .cls-3, .cls-4 {
        isolation: isolate;
      }

      .cls-4 {
        font-size: 16px;
        font-family: Montserrat-Medium, Montserrat;
      }
    </style>
    <linearGradient id="linear-gradient" x1="405.55" y1="126.36" x2="21.53" y2="-32.27" gradientUnits="userSpaceOnUse">
      <stop offset="0" stop-color="#75c9b9"/>
      <stop offset="1" stop-color="#72bde5"/>
    </linearGradient>
  </defs>
  <title>banner_electrical_E01</title>
  <g id="Page-1">
    <g id="UI---Screen-7---v2">
      <g id="Group-2">
        <path id="Path-4" class="cls-1" d="M0,72.4C71,74,112,68.2,210.5,71c58.9,1.7,113.3,7.8,164,18.4V0H0Z"/>
        <rect id="Rectangle-Copy-2" class="cls-2" x="23.5" y="22" width="47" height="7" rx="3.3" ry="3.3"/>
        <rect id="Rectangle-Copy-4" class="cls-2" x="186.5" y="29" width="47" height="7" rx="3.3" ry="3.3"/>
        <path id="Rectangle-Copy-3" class="cls-2" d="M67.8,35h40.5a3.3,3.3,0,0,1,3.3,3.3v.5a3.2,3.2,0,0,1-3.2,3.2H67.8a3.3,3.3,0,0,1-3.2-3.2v-.5A3.3,3.3,0,0,1,67.8,35Z"/>
        <rect id="Rectangle-Copy-5" class="cls-2" x="233.5" y="42" width="47" height="7" rx="3.3" ry="3.3"/>
        <g id="sweep">
          <g id="_" data-name="+" class="cls-3">
            <text class="cls-4" transform="translate(298.5 26)">+</text>
          </g>
          <g id="_-copy" data-name="+-copy" class="cls-3">
            <text class="cls-4" transform="translate(336.5 14)">+</text>
          </g>
        </g>
      </g>
    </g>
  </g>
  <g>
    <path class="cls-5" d="M335.1,16.7a25,25,0,1,0,25,25A25,25,0,0,0,335.1,16.7Zm.8,48.5V58a.9.9,0,0,0-.8-.8.8.8,0,0,0-.7.8v7.2a23.5,23.5,0,0,1,0-47v7.2a.7.7,0,0,0,.7.7.8.8,0,0,0,.8-.7V18.2a23.5,23.5,0,0,1,0,47Z"/>
    <path class="cls-5" d="M325.2,34.6a7.1,7.1,0,0,0-7.1,7.1,7.1,7.1,0,0,0,14.2,0A7.1,7.1,0,0,0,325.2,34.6Zm0,12.7a5.6,5.6,0,1,1,5.6-5.6A5.6,5.6,0,0,1,325.2,47.3Z"/>
    <path class="cls-5" d="M345.2,34.6a7.1,7.1,0,0,0-7,7.1,7.1,7.1,0,0,0,14.1,0A7.1,7.1,0,0,0,345.2,34.6Zm0,12.7a5.6,5.6,0,1,1,5.7-5.6A5.7,5.7,0,0,1,345.2,47.3Z"/>
  </g>
</svg>
