<svg id="Layer_1" data-name="Layer 1" xmlns="http://www.w3.org/2000/svg" xmlns:xlink="http://www.w3.org/1999/xlink" width="374.5" height="89.4" viewBox="0 0 374.5 89.4">
  <defs>
    <style>
      .cls-1 {
        fill: url(#linear-gradient);
      }

      .cls-2, .cls-4, .cls-5 {
        fill: #fff;
      }

      .cls-2 {
        opacity: 0.3;
      }

      .cls-2, .cls-3, .cls-4 {
        isolation: isolate;
      }

      .cls-4 {
        font-size: 16px;
        font-family: Montserrat-Medium, Montserrat;
      }
    </style>
    <linearGradient id="linear-gradient" x1="405.55" y1="126.36" x2="21.53" y2="-32.27" gradientUnits="userSpaceOnUse">
      <stop offset="0" stop-color="#75c9b9"/>
      <stop offset="1" stop-color="#72bde5"/>
    </linearGradient>
  </defs>
  <title>banner_housekeeping_H0</title>
  <g id="Page-1">
    <g id="UI---Screen-7---v2">
      <g id="Group-2">
        <path id="Path-4" class="cls-1" d="M0,72.4C71,74,112,68.2,210.5,71c58.9,1.7,113.3,7.8,164,18.4V0H0Z"/>
        <rect id="Rectangle-Copy-2" class="cls-2" x="23.5" y="22" width="47" height="7" rx="3.3" ry="3.3"/>
        <path id="Rectangle-Copy-4" class="cls-2" d="M189.8,29h40.5a3.2,3.2,0,0,1,3.2,3.2v.5a3.2,3.2,0,0,1-3.2,3.2H189.8a3.2,3.2,0,0,1-3.2-3.2v-.5A3.3,3.3,0,0,1,189.8,29Z"/>
        <rect id="Rectangle-Copy-3" class="cls-2" x="64.5" y="35" width="47" height="7" rx="3.3" ry="3.3"/>
        <rect id="Rectangle-Copy-5" class="cls-2" x="233.5" y="42" width="47" height="7" rx="3.3" ry="3.3"/>
        <g id="sweep">
          <g id="_" data-name="+" class="cls-3">
            <text class="cls-4" transform="translate(357 26.5)">+</text>
          </g>
          <g id="_-copy" data-name="+-copy" class="cls-3">
            <text class="cls-4" transform="translate(336.5 14)">+</text>
          </g>
        </g>
      </g>
    </g>
  </g>
  <g>
    <path class="cls-5" d="M310.7,28.8h0V29h4.7v-.2h.2v-.2h0v-.2h0v-.2h-.2v-.2h0v-.2h0v-.2h0V25h-.1v-.2h-4.7v.4h0v.5h0v.4h0v1h0v1h0v.2h0v.6Zm3.5-1.5h-1.9v-.2h0v-.2h0v-.2h1.9Zm-1.9-1.9v-.2h0Z"/>
    <polygon class="cls-5" points="321.9 26.6 321.9 26.5 322 26.1 322 25.9 321.9 25.5 321.9 25.4 321.9 25 321.9 24.9 321.9 24.5 321.9 24.3 321.9 24 321.9 23.9 321.9 23.8 321.9 23.7 321.8 23.7 321.7 23.7 321.6 23.7 321.2 23.7 321.1 23.7 320.7 23.7 320.5 23.7 320.4 23.7 320.4 23.8 320.3 23.9 320.4 24.4 320.4 24.5 320.4 25.1 320.4 25.2 320.3 25.7 320.3 25.8 320.3 25.8 320.2 25.9 320.2 25.9 320 25.9 319.6 25.9 319.1 25.8 319 25.9 318.7 25.9 318.6 25.9 318.4 25.9 318.4 25.9 318.3 25.9 318.3 25.8 318.3 25.7 318.3 25.1 318.3 24.5 318.3 24.4 318.3 24.1 318.3 23.9 318.3 23.9 318.3 23.8 318.2 23.7 318.1 23.7 318 23.7 317.9 23.7 317.6 23.7 317.4 23.7 317.1 23.7 317 23.7 316.9 23.7 316.8 23.7 316.7 23.8 316.7 23.9 316.7 24.1 316.7 24.3 316.7 24.5 316.7 24.9 316.7 25 316.7 25.4 316.7 25.5 316.7 26.1 316.7 26.5 316.7 26.6 316.7 27 316.7 27.2 316.7 27.6 316.7 27.7 316.7 28.1 316.7 28.8 316.7 29 316.7 29.1 316.7 29.2 316.7 29.3 316.7 29.3 316.8 29.4 316.9 29.4 317 29.4 317.1 29.4 317.4 29.4 317.6 29.4 317.9 29.4 318 29.4 318.1 29.4 318.2 29.4 318.3 29.3 318.3 29.2 318.3 29 318.3 28.7 318.3 28.6 318.3 28.1 318.3 27.9 318.3 27.4 318.3 27.3 318.4 27.2 318.4 27.2 318.5 27.2 319 27.2 319.6 27.3 319.7 27.2 320 27.2 320.2 27.2 320.3 27.3 320.3 27.3 320.3 27.4 320.3 27.9 320.3 28.1 320.3 28.6 320.3 28.7 320.4 29.2 320.4 29.3 320.4 29.4 320.5 29.4 320.7 29.4 321.1 29.4 321.2 29.4 321.6 29.4 321.8 29.4 321.8 29.4 321.9 29.3 321.9 29.2 321.9 29.1 321.9 29 321.9 28.8 321.9 28.7 321.9 28.1 321.9 27.7 321.9 27.6 321.9 27.2 321.9 27 321.9 26.6"/>
    <polygon class="cls-5" points="326.7 23.7 326.6 23.7 326.2 23.7 326.1 23.8 326.1 23.8 325.8 24.1 325.7 24.2 325.5 24.6 325.1 25.1 324.8 25.4 324.7 25.5 324.7 25.4 324.7 25.4 324.7 24.9 324.7 24.8 324.6 24.4 324.6 24.3 324.7 24 324.7 23.9 324.7 23.8 324.6 23.8 324.6 23.8 324.5 23.7 324.1 23.7 324 23.7 323.7 23.8 323.5 23.8 323.3 23.7 323.2 23.7 323.1 23.7 323.1 23.8 323.1 23.9 323 24.3 323 24.4 323.1 25.4 323.1 25.5 323 25.9 323 26.1 323.1 26.5 323.1 27 323.1 27.2 323 27.6 323 27.7 323 28.3 323.1 28.7 323 28.8 323 29 323 29.2 323 29.3 323.1 29.3 323.1 29.4 323.1 29.4 323.5 29.4 323.7 29.4 324 29.4 324.3 29.4 324.5 29.4 324.6 29.4 324.6 29.3 324.7 29.3 324.7 29.1 324.7 29 324.7 28.8 324.7 28.7 324.7 28.3 324.7 27.7 324.7 27.6 324.7 27.6 324.8 27.6 324.8 27.7 324.9 27.8 325.1 28.1 325.2 28.2 325.5 28.5 325.6 28.6 325.8 28.9 325.9 29 326.2 29.3 326.3 29.4 326.4 29.4 326.9 29.4 327 29.4 327.5 29.4 327.6 29.4 328 29.4 328.1 29.4 328.2 29.4 328.2 29.3 328.2 29.3 328.2 29.2 327.8 28.9 327.8 28.8 327.4 28.4 327.3 28.3 327 28 326.9 27.9 326.6 27.5 326.6 27.4 326.2 27.1 326.1 27 325.8 26.6 325.8 26.5 325.8 26.5 325.8 26.4 325.9 26.4 325.9 26.3 326.1 26.1 326.2 26 326.5 25.6 326.6 25.5 326.9 25.2 326.9 25.1 327.3 24.8 327.3 24.7 327.6 24.3 327.7 24.2 328 23.9 328 23.8 328.1 23.8 328 23.8 328 23.8 327.9 23.7 327.6 23.8 327.5 23.8 327.2 23.7 326.7 23.7"/>
    <polygon class="cls-5" points="319.7 19.6 319.6 19.8 319.4 20 319.3 20.1 319.1 20.2 318.9 20.2 318.6 20.2 318.5 20.2 318.2 20.2 318 20.2 317.9 20.1 317.7 20 317.6 19.9 317.5 19.7 317.4 19.5 317.3 19.4 317.2 19.3 317.1 19.2 316.8 19.2 316.3 19.3 316.1 19.3 315.5 19.2 315.3 19.3 315.1 19.3 315 19.4 315 19.6 315 19.8 315.1 19.9 315.1 20.2 315.2 20.4 315.3 20.6 315.4 20.8 315.5 21 315.6 21.1 315.7 21.3 315.9 21.4 316.1 21.6 316.2 21.7 316.5 21.8 316.6 21.9 316.8 22 317 22 317.3 22.1 317.5 22.1 317.8 22.1 318 22.1 318.2 22.2 318.5 22.2 318.6 22.2 318.9 22.2 319.1 22.2 319.3 22.2 319.5 22.1 319.7 22.1 319.9 22 320.1 21.9 320.3 21.8 320.5 21.8 320.7 21.7 320.9 21.6 321.2 21.3 321.4 21.2 321.6 20.8 321.7 20.7 321.8 20.5 321.9 20.3 322 20.1 322 19.9 322.1 19.7 322.1 19.5 322.1 19.3 322.1 19.1 322 18.9 322 18.6 321.9 18.4 321.8 18.1 321.8 18 321.7 17.8 321.6 17.6 321.4 17.4 321.1 17.2 320.9 17.1 320.8 17 320.6 16.9 320.3 16.8 320.1 16.7 319.8 16.6 319.5 16.6 319.3 16.6 318.9 16.5 318.6 16.5 318.4 16.5 317.8 16.6 317.6 16.5 317.5 16.4 317.4 16.3 317.4 16.1 317.4 15.8 317.4 15.6 317.5 15.5 317.7 15.5 317.9 15.5 318.1 15.5 318.6 15.5 319.4 15.5 320.4 15.5 320.6 15.5 321.1 15.5 321.2 15.5 321.3 15.5 321.5 15.5 321.6 15.4 321.6 15.2 321.6 15 321.7 14.8 321.7 14.4 321.7 14.1 321.7 13.9 321.7 13.8 321.6 13.7 321.6 13.6 321.5 13.6 321.4 13.6 321 13.5 320.6 13.6 319.6 13.6 318.9 13.6 317.9 13.5 317.2 13.5 317 13.5 316.3 13.6 316.1 13.6 315.7 13.5 315.4 13.5 315.3 13.6 315.2 13.7 315.1 13.8 315.1 13.9 315.1 14.1 315.2 14.5 315.2 14.7 315.1 15.4 315.1 15.6 315.2 16.3 315.2 16.5 315.2 17.2 315.2 17.4 315.2 18.1 315.2 18.3 315.3 18.4 315.4 18.4 316.8 18.4 317 18.4 317.8 18.4 318.1 18.4 318.4 18.4 318.6 18.4 318.9 18.4 319.1 18.5 319.3 18.6 319.4 18.7 319.5 18.8 319.7 19 319.7 19 319.7 19.2 319.7 19.4 319.7 19.6"/>
    <polygon class="cls-5" points="324 12.2 324 13.7 322.5 13.7 322.5 15.3 324 15.3 324 16.8 325.5 16.8 325.5 15.3 327.1 15.3 327.1 13.7 325.5 13.7 325.5 12.2 324 12.2"/>
    <path class="cls-5" d="M360.7,62.8l-1.3-11.9v-.5h0V48.2a4.2,4.2,0,0,0-4.2-4.2h-.9v-.8a2.3,2.3,0,0,0-2.1-2.3V14.8a2.8,2.8,0,0,0-2.8-2.7,2.7,2.7,0,0,0-2.7,2.7V40.9a1.7,1.7,0,0,0-1,.3l.3-3.1h0a2.1,2.1,0,0,0-.4-1.2,2.1,2.1,0,0,0-1.3-.5h-.1a3.6,3.6,0,0,0-1.3-1.9,4.1,4.1,0,0,0-3.5-.8,4,4,0,0,0-3.6-2.2l-1.5.2a4.1,4.1,0,0,0-2.8-1.1,3.9,3.9,0,0,0-2.8,1.1l-1.5-.2a3.8,3.8,0,0,0-3.5,2.1,4.2,4.2,0,0,0-3.5,1.5h-1.6a2.5,2.5,0,0,0-2.5,2.5V50.1a2.6,2.6,0,0,0,2.5,2.6h.5l.9,10a2.5,2.5,0,0,0,2.5,2.4h36.2a2.1,2.1,0,0,0,2.1-2.3Zm-5.2-9.2a1.1,1.1,0,0,0-1,1v8.9H354V56.8a1,1,0,0,0-1-1,1,1,0,0,0-1.1,1v6.7h-.5V58.9a1,1,0,1,0-2,0v4.6h-3.5V56.8a1,1,0,0,0-1.1-1,1,1,0,0,0-1,1v6.7h-.5V54.6a1.1,1.1,0,0,0-1-1,1.1,1.1,0,0,0-1.1,1v8.9h-1.1a.5.5,0,0,1-.4-.2c-.1-.1-.1-.2-.1-.4l1.2-11.7h17L359.1,63c0,.1-.1.2-.1.3l-.4.2h-2V54.6A1.1,1.1,0,0,0,355.5,53.6Zm-37-2.6a.9.9,0,0,1-.9-.9V37.5c0-.2.1-.3.1-.5h.1a.8.8,0,0,1,.7-.4h7.7a.9.9,0,0,1,.7.3,1.4,1.4,0,0,1,.2.6v.3h0V50.1a.9.9,0,0,1-.9.9h-7.7Zm12.9-18.9a2.3,2.3,0,0,1,1.9,1,.8.8,0,0,0,1.1.2,2.8,2.8,0,0,1,1.3-.3,2.3,2.3,0,0,1,2.3,1.8c.1.3.2.5.5.6a.9.9,0,0,0,.7,0,2,2,0,0,1,1.1-.3,2.4,2.4,0,0,1,2,1.2h-4v6.6a.8.8,0,0,1-.7.7.8.8,0,0,1-.7-.7V36.3h-1.6v1.5h0V39a.8.8,0,0,1-.7.7.7.7,0,0,1-.7-.7V36.3h-5.5a2.5,2.5,0,0,0-2.2-1.3h-1.6a.5.5,0,0,0,.2-.4,2.4,2.4,0,0,1,2.3-1.6,2.8,2.8,0,0,1,1.3.3.7.7,0,0,0,1-.2A2.6,2.6,0,0,1,331.4,32.1Zm17.9-18.4a1.1,1.1,0,0,1,1.1,1.1V40.9h-2.2V14.8A1.1,1.1,0,0,1,349.3,13.7Zm1.1,28.8h1.5a.7.7,0,0,1,.7.7v2.4h-6.5V43.2a.7.7,0,0,1,.7-.7h3.6Zm-21.7-3.4V37.9h3.6v1.3a2,2,0,0,0,.3,1.1,2.5,2.5,0,0,0,2.7.9v.2h-3.9l-.3-1.4a.9.9,0,0,0-1-.5.7.7,0,0,0-.5.9l.3,1h-1.2ZM342.6,41v.4h-2.7V37.9h3l-.3,3.1Zm-7.3,2a2.2,2.2,0,0,0,2.3,2.2,2.4,2.4,0,0,0,2.3-2.2h2.5v1.2a4.2,4.2,0,0,0-3,3.5v1.9a8,8,0,0,1-7.2-5.9l-.2-.7Zm22.4,6.6H340.9V48.2a.8.8,0,0,1,.1-.4,2.6,2.6,0,0,1,1.7-2.1h1.8v.8a.8.8,0,0,0,.8.8h8.1a.9.9,0,0,0,.8-.8v-.8h.9a2.6,2.6,0,0,1,2.6,2.6Zm-31.5,3.1a2.6,2.6,0,0,0,2.5-2.6V43h1.6l.3,1.1a9.7,9.7,0,0,0,8.6,7L338,62.8v.7H322.4a1.1,1.1,0,0,1-.9-.9l-.8-9.9Zm18.3-9.5V44H344V43h.4Z"/>
  </g>
</svg>
