<svg id="Layer_1" data-name="Layer 1" xmlns="http://www.w3.org/2000/svg" xmlns:xlink="http://www.w3.org/1999/xlink" width="70" height="70" viewBox="0 0 70 70">
  <defs>
    <style>
      .cls-1 {
        fill: #f6f6f6;
      }

      .cls-2 {
        fill: url(#linear-gradient);
      }

      .cls-3 {
        fill: url(#linear-gradient-2);
      }

      .cls-4 {
        fill: url(#linear-gradient-3);
      }

      .cls-5 {
        fill: url(#linear-gradient-4);
      }

      .cls-6 {
        fill: url(#linear-gradient-5);
      }

      .cls-7 {
        fill: url(#linear-gradient-6);
      }

      .cls-8 {
        fill: url(#linear-gradient-7);
      }

      .cls-9 {
        fill: url(#linear-gradient-8);
      }

      .cls-10 {
        fill: url(#linear-gradient-9);
      }

      .cls-11 {
        fill: url(#linear-gradient-10);
      }

      .cls-12 {
        fill: url(#linear-gradient-11);
      }
    </style>
    <linearGradient id="linear-gradient" x1="53.64" y1="66.31" x2="14.94" y2="0.69" gradientUnits="userSpaceOnUse">
      <stop offset="0" stop-color="#75c9b9"/>
      <stop offset="1" stop-color="#72bde5"/>
    </linearGradient>
    <linearGradient id="linear-gradient-2" x1="55.02" y1="65.5" x2="16.32" y2="-0.13" gradientTransform="translate(28.4 -15) rotate(44.2)" xlink:href="#linear-gradient"/>
    <linearGradient id="linear-gradient-3" x1="52.03" y1="67.27" x2="13.32" y2="1.64" xlink:href="#linear-gradient"/>
    <linearGradient id="linear-gradient-4" x1="59.3" y1="62.98" x2="20.6" y2="-2.65" xlink:href="#linear-gradient"/>
    <linearGradient id="linear-gradient-5" x1="56.62" y1="64.55" x2="17.92" y2="-1.07" xlink:href="#linear-gradient"/>
    <linearGradient id="linear-gradient-6" x1="43.4" y1="72.35" x2="4.7" y2="6.73" xlink:href="#linear-gradient"/>
    <linearGradient id="linear-gradient-7" x1="47.82" y1="69.75" x2="9.12" y2="4.12" xlink:href="#linear-gradient"/>
    <linearGradient id="linear-gradient-8" x1="53.45" y1="66.43" x2="14.75" y2="0.8" xlink:href="#linear-gradient"/>
    <linearGradient id="linear-gradient-9" x1="54.4" y1="65.87" x2="15.7" y2="0.24" xlink:href="#linear-gradient"/>
    <linearGradient id="linear-gradient-10" x1="48.77" y1="69.19" x2="10.07" y2="3.56" xlink:href="#linear-gradient"/>
    <linearGradient id="linear-gradient-11" x1="58.51" y1="63.44" x2="19.81" y2="-2.19" xlink:href="#linear-gradient"/>
  </defs>
  <title>icon_civil_M0</title>
  <path id="Rectangle" class="cls-1" d="M3,0H67a2.9,2.9,0,0,1,3,3V67a2.9,2.9,0,0,1-3,3H3a2.9,2.9,0,0,1-3-3V3A2.9,2.9,0,0,1,3,0Z"/>
  <g>
    <path class="cls-2" d="M40.1,34.4a1.5,1.5,0,0,0-.4-1.1l-2.2-2a1.3,1.3,0,0,0-2,0l-4.3,4.1a1.4,1.4,0,0,0,0,2.1l2.1,2.1a2.1,2.1,0,0,0,1,.4h0a2.1,2.1,0,0,0,1.1-.4l4.3-4.2A1.2,1.2,0,0,0,40.1,34.4Zm-5.7,4.1a.1.1,0,0,1-.1.1v-.1l-2.1-2.1,1.7-1.6-.3.8,2.9.9ZM37,36l.2-.8-2.8-.9,2.1-2,2.2,2.1Z"/>
    <rect class="cls-3" x="31.9" y="23.1" width="1.4" height="8.96" transform="translate(-10 30.5) rotate(-44.2)"/>
    <path class="cls-4" d="M59.6,51.5l-3.4-3.2V33.9h0a1.5,1.5,0,0,0,1.5-1.5V28.7a1.5,1.5,0,0,0-1.5-1.5h0V18.3a5.9,5.9,0,0,0-6-5.9H43.9a1.6,1.6,0,0,0-1.3-.8H40.3a1.5,1.5,0,0,0-1.5-1.5H11.5A1.5,1.5,0,0,0,10,11.6V30.9a1.5,1.5,0,0,0,1.5,1.5h0v1.5A1.5,1.5,0,0,0,13,35.4h.8v6.7H13a1.5,1.5,0,0,0-1.5,1.5v5.9A1.5,1.5,0,0,0,13,51h0v7.4a1.5,1.5,0,0,0,1.5,1.5h4.6a1.5,1.5,0,0,0,1.4-1.5V51h.1a1.5,1.5,0,0,0,1.5-1.5h.8a3.8,3.8,0,0,0,7.5,0h3.1A1.5,1.5,0,0,0,35,51h9.1c8.4,8.2,8.5,8.2,9,8.2a2.1,2.1,0,0,0,1.1-.4l5.4-5.2a2.1,2.1,0,0,0,.4-1.1A1.8,1.8,0,0,0,59.6,51.5Zm-4.8-4.6-6.9-6.7V33.9h6.9ZM39.7,25l-.3-.2a9,9,0,0,0,.8-2.8h2.4a1.5,1.5,0,0,0,1.5-1.4h2.3v6.6h0a1.5,1.5,0,0,0-1.5,1.5v3.7a1.5,1.5,0,0,0,1.5,1.5h0v4.9l-4-3.9A9.9,9.9,0,0,0,39.7,25Zm4.4-5.8V13.8h.8v5.4Zm12.2,9.5v3.7h-10V28.7Zm-8.4-1.5V22.7h6.9v4.5Zm6.9-5.9H48l5.8-5.7a4.5,4.5,0,0,1,1,2.7Zm-2.2-6.8-5.2,5.1a1.3,1.3,0,0,0-1-.4h-.1V13.8h3.9A4.8,4.8,0,0,1,52.6,14.5Zm-10-1.4v7.4H40.3V13.1ZM13,33.9v-3h7.6v3H13Zm2.2,1.5h3.2v6.7H15.2Zm3.9,23H14.5V51h4.6Zm1.5-8.9H13V43.6h7.6ZM23,48.1h-.9V45h2.3A13.6,13.6,0,0,0,23,48.1Zm3.7-6a.9.9,0,0,0-.7.3,8,8,0,0,1-.8,1.2H22.1a1.5,1.5,0,0,0-1.5-1.5h-.8V35.4h.8a1.5,1.5,0,0,0,1.5-1.5v-3a1.5,1.5,0,0,0-1.5-1.4H13a1.5,1.5,0,0,0-1.5,1.4h0c0-.1,0-.1-.1-.1V11.6H38.8v8.9a9,9,0,0,1-.5,3.4A10.9,10.9,0,0,0,24.7,25a1.5,1.5,0,0,0-.4,1.1,1.3,1.3,0,0,0,.4,1l5.4,5.2-.6.5-3.8-3.6a1.5,1.5,0,0,0-2.1,0A5.8,5.8,0,0,0,22.1,33a7,7,0,0,0,2.2,5.1v.4a1.5,1.5,0,0,0,.4,1.1,11,11,0,0,0,9.5,2.8,1.4,1.4,0,0,0-.7,1.2H28.1a8,8,0,0,1-.8-1.2A.9.9,0,0,0,26.7,42.1ZM25.2,37a5.5,5.5,0,0,1-1.6-4,4.1,4.1,0,0,1,1.1-2.8l3.8,3.6Zm5.1,11.1A12.9,12.9,0,0,0,29,45h4.5v3.1ZM35,49.5V43.6h1.4l6.2,6Zm18.1,9v-.7h0Zm.1-.8c-.6-.4-2.8-2.6-9-8.5l-8.8-8.6H35a9.4,9.4,0,0,1-9.3-2.2l6.4-6.2-6.4-6.2A9.4,9.4,0,0,1,38,25.5h.1l.6.5a8.5,8.5,0,0,1,2.2,8.8v.5L58.6,52.6Z"/>
    <path class="cls-5" d="M50.1,52.5a3.1,3.1,0,0,0,.9,2.1,3,3,0,0,0,2.1.9h.1a2.9,2.9,0,0,0,2.9-3,3,3,0,0,0-.8-2,3,3,0,0,0-4.3,0A3.1,3.1,0,0,0,50.1,52.5Zm1.9-1a1.5,1.5,0,0,1,1.1-.4,1.9,1.9,0,0,1,1.2.4,1.6,1.6,0,0,1,0,2.1,1.5,1.5,0,0,1-1.1.4h-.1a1.5,1.5,0,0,1-1.1-.4,1.6,1.6,0,0,1,0-2.1Z"/>
    <polygon class="cls-6" points="38.2 39.1 50.2 50.4 51.1 49.5 39.2 38.1 38.2 39.1"/>
    <path class="cls-7" d="M33.5,51a.9.9,0,0,0-.6.3c-.4.4-2.5,2.8-2.5,4.2a3.1,3.1,0,0,0,3.1,3,3,3,0,0,0,3-3c0-1.4-2-3.8-2.5-4.2A.5.5,0,0,0,33.5,51Z"/>
    <rect class="cls-8" x="13.8" y="13.9" width="3" height="1.41"/>
    <rect class="cls-9" x="18.3" y="13.9" width="9.1" height="1.41"/>
    <rect class="cls-10" x="24.4" y="16.8" width="3" height="1.41"/>
    <rect class="cls-11" x="13.8" y="16.8" width="9.1" height="1.41"/>
    <rect class="cls-12" x="28.9" y="13.9" width="1.5" height="1.41"/>
  </g>
</svg>
