<svg id="Layer_1" data-name="Layer 1" xmlns="http://www.w3.org/2000/svg" xmlns:xlink="http://www.w3.org/1999/xlink" width="374.5" height="89.4" viewBox="0 0 374.5 89.4">
  <defs>
    <style>
      .cls-1 {
        fill: url(#linear-gradient);
      }

      .cls-2, .cls-4, .cls-5 {
        fill: #fff;
      }

      .cls-2 {
        opacity: 0.3;
      }

      .cls-2, .cls-3, .cls-4 {
        isolation: isolate;
      }

      .cls-4 {
        font-size: 16px;
        font-family: Montserrat-Medium, Montserrat;
      }
    </style>
    <linearGradient id="linear-gradient" x1="405.55" y1="126.36" x2="21.53" y2="-32.27" gradientUnits="userSpaceOnUse">
      <stop offset="0" stop-color="#75c9b9"/>
      <stop offset="1" stop-color="#72bde5"/>
    </linearGradient>
  </defs>
  <title>banner_civil_M0</title>
  <g id="Page-1">
    <g id="UI---Screen-7---v2">
      <g id="Group-2">
        <path id="Path-4" class="cls-1" d="M0,72.4C71,74,112,68.2,210.5,71c58.9,1.7,113.3,7.8,164,18.4V0H0Z"/>
        <rect id="Rectangle-Copy-2" class="cls-2" x="23.5" y="22" width="47" height="7" rx="3.3" ry="3.3"/>
        <path id="Rectangle-Copy-4" class="cls-2" d="M189.8,29h40.5a3.3,3.3,0,0,1,3.3,3.3v.5a3.2,3.2,0,0,1-3.2,3.2H189.8a3.3,3.3,0,0,1-3.2-3.2v-.5A3.3,3.3,0,0,1,189.8,29Z"/>
        <rect id="Rectangle-Copy-3" class="cls-2" x="64.5" y="35" width="47" height="7" rx="3.3" ry="3.3"/>
        <path id="Rectangle-Copy-5" class="cls-2" d="M236.8,42h40.5a3.3,3.3,0,0,1,3.3,3.3v.5a3.2,3.2,0,0,1-3.2,3.2H236.8a3.3,3.3,0,0,1-3.2-3.2v-.5A3.3,3.3,0,0,1,236.8,42Z"/>
        <g id="sweep">
          <g id="_" data-name="+" class="cls-3">
            <text class="cls-4" transform="translate(298.5 26)">+</text>
          </g>
          <g id="_-copy" data-name="+-copy" class="cls-3">
            <text class="cls-4" transform="translate(336.5 14)">+</text>
          </g>
        </g>
      </g>
    </g>
  </g>
  <g>
    <g>
      <path class="cls-5" d="M331.8,65.4H313.1a2.4,2.4,0,0,1-2.4-2.4V44.4a.8.8,0,0,1,.8-.8h21.8a.8.8,0,0,1,.8.8V63A2.4,2.4,0,0,1,331.8,65.4ZM312.3,45.1V63a.7.7,0,0,0,.8.8h18.7a.7.7,0,0,0,.7-.8V45.1Z"/>
      <path class="cls-5" d="M331.8,65.5H313.1a2.5,2.5,0,0,1-2.5-2.5V44.4a.9.9,0,0,1,.9-.9h21.8a.9.9,0,0,1,.9.9V63A2.5,2.5,0,0,1,331.8,65.5ZM311.5,43.7a.7.7,0,0,0-.7.7V63a2.3,2.3,0,0,0,2.3,2.3h18.7A2.2,2.2,0,0,0,334,63V44.4a.7.7,0,0,0-.7-.7Zm20.3,20.2H313.1a.9.9,0,0,1-.9-.9V45h20.4V63A.9.9,0,0,1,331.8,63.9ZM312.4,45.2V63a.7.7,0,0,0,.7.7h18.7a.7.7,0,0,0,.6-.7V45.2Z"/>
    </g>
    <g>
      <path class="cls-5" d="M334.9,45.1H310a.7.7,0,0,1-.8-.7V41.2a.7.7,0,0,1,.8-.7h24.9a.7.7,0,0,1,.7.7v3.2A.7.7,0,0,1,334.9,45.1Zm-24.2-1.5h23.4V42H310.7Z"/>
      <path class="cls-5" d="M334.9,45.2H310a.9.9,0,0,1-.9-.8V41.2a.9.9,0,0,1,.9-.8h24.9a.9.9,0,0,1,.8.8v3.2A.9.9,0,0,1,334.9,45.2ZM310,40.5a.8.8,0,0,0-.7.7v3.2a.7.7,0,0,0,.7.6h24.9c.3,0,.7-.3.7-.6V41.2a.8.8,0,0,0-.7-.7Zm24.2,3.2H310.6V41.9h23.6Zm-23.4-.2H334V42.1H310.8Z"/>
    </g>
    <g>
      <path class="cls-5" d="M333.3,42H311.5a.8.8,0,0,1-.8-.8V39.7a11.7,11.7,0,0,1,23.4,0v1.5A.8.8,0,0,1,333.3,42Zm-21-1.5h20.2v-.8a10.1,10.1,0,0,0-20.2,0Z"/>
      <path class="cls-5" d="M333.3,42.1H311.5a.9.9,0,0,1-.9-.9V39.7a11.8,11.8,0,0,1,23.6,0v1.5A.9.9,0,0,1,333.3,42.1Zm-10.9-14a11.6,11.6,0,0,0-11.6,11.6v1.5a.7.7,0,0,0,.7.7h21.8a.7.7,0,0,0,.7-.7V39.7A11.6,11.6,0,0,0,322.4,28.1Zm10.2,12.4H312.2v-.8a10.2,10.2,0,0,1,20.4,0Zm-20.2-.1h20v-.7a10,10,0,1,0-20,0Z"/>
    </g>
    <g>
      <path class="cls-5" d="M327.1,56h-.4a3.9,3.9,0,0,1-3.5-4v-.6a1.6,1.6,0,0,0-1.6-1.6,1.6,1.6,0,0,0-1.5,1.6,2.4,2.4,0,0,1-4.7,0,1.6,1.6,0,0,0-1.5-1.6,1.6,1.6,0,0,0-1.6,1.6.8.8,0,0,1-1.6,0,3.2,3.2,0,1,1,6.3,0,.7.7,0,0,0,.7.7.7.7,0,0,0,.8-.7,3.1,3.1,0,0,1,3.1-3.2,3.1,3.1,0,0,1,3.1,3.2V52a2.6,2.6,0,0,0,2.2,2.5,3,3,0,0,0,1.8-.6,2.9,2.9,0,0,0,.7-1.8V50.6a2.4,2.4,0,1,1,4.7,0,.8.8,0,0,1-1.6,0,.7.7,0,0,0-.7-.8.7.7,0,0,0-.8.8v1.5a3.9,3.9,0,0,1-1.3,2.9A3.7,3.7,0,0,1,327.1,56Z"/>
      <path class="cls-5" d="M327.1,56.1h-.4a4.1,4.1,0,0,1-3.6-4.1v-.6a1.5,1.5,0,0,0-1.5-1.5,1.4,1.4,0,0,0-1.4,1.5,2.5,2.5,0,0,1-4.9,0,1.4,1.4,0,0,0-1.4-1.5,1.4,1.4,0,0,0-1.5,1.5.9.9,0,0,1-1.8,0,3.3,3.3,0,0,1,6.5,0,.6.6,0,0,0,.6.6.7.7,0,0,0,.7-.6,3.2,3.2,0,0,1,3.2-3.2,3.2,3.2,0,0,1,3.2,3.2V52a2.4,2.4,0,0,0,2.1,2.4,2.7,2.7,0,0,0,1.7-.6,2.1,2.1,0,0,0,.7-1.7V50.6a2.4,2.4,0,0,1,2.5-2.4,2.4,2.4,0,0,1,2.4,2.4.9.9,0,0,1-1.8,0,.7.7,0,0,0-.6-.7.7.7,0,0,0-.7.7v1.5a4.2,4.2,0,0,1-1.3,3A4.5,4.5,0,0,1,327.1,56.1Zm-5.5-6.4a1.7,1.7,0,0,1,1.7,1.7V52a3.9,3.9,0,0,0,3.4,3.9h.4a3.5,3.5,0,0,0,2.5-1,3.7,3.7,0,0,0,1.3-2.8V50.6a.9.9,0,0,1,.9-.9.9.9,0,0,1,.8.9.7.7,0,1,0,1.4,0,2.3,2.3,0,1,0-4.5,0v1.5a2.3,2.3,0,0,1-.8,1.8,2.2,2.2,0,0,1-1.9.6,2.4,2.4,0,0,1-2.1-2.5v-.6a3.1,3.1,0,1,0-6.1,0,.9.9,0,0,1-.9.8.9.9,0,0,1-.8-.8,3.1,3.1,0,1,0-6.1,0,.7.7,0,0,0,1.4,0,1.6,1.6,0,0,1,1.7-1.7,1.6,1.6,0,0,1,1.6,1.7,2.2,2.2,0,0,0,2.2,2.2,2.2,2.2,0,0,0,2.3-2.2A1.6,1.6,0,0,1,321.6,49.7Z"/>
    </g>
    <g>
      <path class="cls-5" d="M354.3,26.4H332.5a1.5,1.5,0,0,1-1.5-1.5V17.1a1.6,1.6,0,0,1,1.5-1.6h21.8a1.6,1.6,0,0,1,1.6,1.6v7.8A1.6,1.6,0,0,1,354.3,26.4Zm-21.8-9.3v7.8h21.8V17.1Z"/>
      <path class="cls-5" d="M354.3,26.5H332.5a1.6,1.6,0,0,1-1.6-1.6V17.1a1.6,1.6,0,0,1,1.6-1.6h21.8a1.7,1.7,0,0,1,1.7,1.6v7.8A1.7,1.7,0,0,1,354.3,26.5ZM332.5,15.6a1.5,1.5,0,0,0-1.4,1.5v7.8a1.5,1.5,0,0,0,1.4,1.5h21.8a1.5,1.5,0,0,0,1.5-1.5V17.1a1.5,1.5,0,0,0-1.5-1.5ZM354.4,25h-22V17h22Zm-21.8-.2h21.6V17.2H332.6Z"/>
    </g>
    <g>
      <path class="cls-5" d="M345,34.2a.8.8,0,0,1-.7-.5.7.7,0,0,1,.4-1l12.2-4.3a.8.8,0,0,0,.5-.7V22.6a.7.7,0,0,0-.7-.8h-1.6a.8.8,0,0,1,0-1.6h1.6a2.3,2.3,0,0,1,2.3,2.4v5.1a2.2,2.2,0,0,1-1.6,2.2l-12.2,4.3Z"/>
      <path class="cls-5" d="M345,34.3a.8.8,0,0,1-.8-.6.6.6,0,0,1,0-.6l.5-.5,12.2-4.3a.6.6,0,0,0,.5-.6V22.6a.8.8,0,0,0-.7-.7h-1.6a.9.9,0,1,1,0-1.8h1.6a2.5,2.5,0,0,1,2.4,2.5v5.1a2.6,2.6,0,0,1-1.6,2.3l-12.2,4.3Zm10.1-14a.7.7,0,0,0,0,1.4h1.6a.9.9,0,0,1,.8.9v5.1a.9.9,0,0,1-.5.8l-12.2,4.3c-.2.1-.4.2-.4.4a.7.7,0,0,0-.1.5.7.7,0,0,0,.7.4h.2l12.2-4.3a2.3,2.3,0,0,0,1.5-2.1V22.6a2.2,2.2,0,0,0-2.2-2.3Z"/>
    </g>
    <g>
      <path class="cls-5" d="M345,41.2a.8.8,0,0,1-.8-.7v-7a.8.8,0,0,1,1.6,0v7A.8.8,0,0,1,345,41.2Z"/>
      <path class="cls-5" d="M345,41.3a.9.9,0,0,1-.9-.8v-7a.9.9,0,1,1,1.8,0v7A.9.9,0,0,1,345,41.3Zm0-8.5a.7.7,0,0,0-.7.7v7a.7.7,0,0,0,1.4,0v-7A.7.7,0,0,0,345,32.8Z"/>
    </g>
    <g>
      <path class="cls-5" d="M347.3,53.7h-4.6a.8.8,0,0,1-.8-.8V40.5a.7.7,0,0,1,.8-.8h4.6a.7.7,0,0,1,.8.8V52.9A.8.8,0,0,1,347.3,53.7Zm-3.9-1.6h3.1V41.2h-3.1Z"/>
      <path class="cls-5" d="M347.3,53.8h-4.6a.9.9,0,0,1-.9-.9V40.5a.9.9,0,0,1,.9-.9h4.6a.9.9,0,0,1,.9.9V52.9A.9.9,0,0,1,347.3,53.8Zm-4.6-14a.7.7,0,0,0-.7.7V52.9a.7.7,0,0,0,.7.7h4.6a.7.7,0,0,0,.7-.7V40.5a.7.7,0,0,0-.7-.7Zm3.9,12.4h-3.3V41.1h3.3Zm-3.1-.2h3V41.3h-3Z"/>
    </g>
    <g>
      <path class="cls-5" d="M352,23.3H337.2a.8.8,0,0,1-.8-.7.8.8,0,0,1,.8-.8H352a.8.8,0,0,1,.8.8A.8.8,0,0,1,352,23.3Z"/>
      <path class="cls-5" d="M352,23.4H337.2a.9.9,0,0,1-.9-.8.9.9,0,0,1,.9-.9H352a.9.9,0,0,1,.9.9A.9.9,0,0,1,352,23.4Zm-14.8-1.5a.7.7,0,0,0-.7.7.7.7,0,0,0,.7.6H352a.7.7,0,0,0,.7-.6.7.7,0,0,0-.7-.7Z"/>
    </g>
    <g>
      <path class="cls-5" d="M334.9,23.3l-.6-.2a.8.8,0,0,1-.2-.5,1.1,1.1,0,0,1,.2-.6.8.8,0,0,1,1.1,0c.2.1.2.4.2.6s0,.4-.2.5Z"/>
      <path class="cls-5" d="M334.9,23.4l-.6-.2a.9.9,0,0,1-.3-.6.9.9,0,0,1,1.5-.7,1.4,1.4,0,0,1,.2.7,1.4,1.4,0,0,1-.2.6Zm0-1.5c-.2,0-.4,0-.5.2a.8.8,0,0,0-.2.5l.2.4a.7.7,0,0,0,1,0l.2-.4a.8.8,0,0,0-.2-.5A.6.6,0,0,0,334.9,21.9Z"/>
    </g>
    <g>
      <path class="cls-5" d="M334.9,28a.7.7,0,0,1-.8-.8V25.7a.7.7,0,0,1,.8-.8.7.7,0,0,1,.7.8v1.5A.7.7,0,0,1,334.9,28Z"/>
      <path class="cls-5" d="M334.9,28.1a.9.9,0,0,1-.9-.9V25.7a.9.9,0,0,1,.9-.9.9.9,0,0,1,.8.9v1.5A.9.9,0,0,1,334.9,28.1Zm0-3.1a.7.7,0,0,0-.7.7v1.5a.7.7,0,0,0,.7.7.8.8,0,0,0,.7-.7V25.7A.8.8,0,0,0,334.9,25Z"/>
    </g>
    <g>
      <path class="cls-5" d="M338,28a.8.8,0,0,1-.8-.8V25.7a.8.8,0,1,1,1.6,0v1.5A.8.8,0,0,1,338,28Z"/>
      <path class="cls-5" d="M338,28.1a.9.9,0,0,1-.9-.9V25.7a.9.9,0,1,1,1.8,0v1.5A.9.9,0,0,1,338,28.1Zm0-3.1a.7.7,0,0,0-.7.7v1.5a.7.7,0,1,0,1.4,0V25.7A.7.7,0,0,0,338,25Z"/>
    </g>
    <g>
      <path class="cls-5" d="M338,30.3a.7.7,0,0,1-.6-.2.8.8,0,0,1-.2-.5,1.4,1.4,0,0,1,.2-.6.8.8,0,0,1,1.1,0,.9.9,0,0,1,.3.6.5.5,0,0,1-.3.5C338.4,30.3,338.2,30.3,338,30.3Z"/>
      <path class="cls-5" d="M338,30.4l-.6-.2a.9.9,0,0,1-.3-.6.9.9,0,1,1,1.8,0,.9.9,0,0,1-.3.6Zm0-1.5c-.2,0-.4,0-.5.2a.8.8,0,0,0-.2.5l.2.5h.5a.6.6,0,0,0,.5-.2.6.6,0,0,0,0-.9A.6.6,0,0,0,338,28.9Z"/>
    </g>
    <g>
      <path class="cls-5" d="M334.9,31.9a.8.8,0,0,1-.8-.8V29.6a.7.7,0,0,1,.8-.8.7.7,0,0,1,.7.8v1.5A.8.8,0,0,1,334.9,31.9Z"/>
      <path class="cls-5" d="M334.9,32a.9.9,0,0,1-.9-.9V29.6a.9.9,0,0,1,.9-.9.9.9,0,0,1,.8.9v1.5A.9.9,0,0,1,334.9,32Zm0-3.1a.7.7,0,0,0-.7.7v1.5a.7.7,0,0,0,.7.7.8.8,0,0,0,.7-.7V29.6A.8.8,0,0,0,334.9,28.9Z"/>
    </g>
    <g>
      <path class="cls-5" d="M338,32.7l-.6-.3a.8.8,0,0,1-.2-.5,1.4,1.4,0,0,1,.2-.6,1.1,1.1,0,0,1,1.1,0,.9.9,0,0,1,.3.6,1.2,1.2,0,0,1-.8.8Z"/>
      <path class="cls-5" d="M338,32.8a.7.7,0,0,1-.6-.3.9.9,0,0,1-.3-.6.7.7,0,0,1,.3-.6.9.9,0,0,1,1.2,0,.7.7,0,0,1,.3.6.9.9,0,0,1-.3.6Zm0-1.6-.5.2a.7.7,0,0,0,0,1l.5.2.5-.2a.7.7,0,0,0,0-1Z"/>
    </g>
    <g>
      <path class="cls-5" d="M341.1,29.6a.9.9,0,0,1-.8-.8V25.7a.8.8,0,1,1,1.6,0v3.1A.9.9,0,0,1,341.1,29.6Z"/>
      <path class="cls-5" d="M341.1,29.7a.9.9,0,0,1-.9-.9V25.7a.9.9,0,1,1,1.8,0v3.1A.9.9,0,0,1,341.1,29.7Zm0-4.7a.7.7,0,0,0-.7.7v3.1a.7.7,0,1,0,1.4,0V25.7A.7.7,0,0,0,341.1,25Z"/>
    </g>
    <g>
      <path class="cls-5" d="M341.1,31.9l-.6-.2a1.4,1.4,0,0,1-.2-.6.8.8,0,0,1,.2-.5.8.8,0,0,1,1.1,0,.5.5,0,0,1,.3.5.9.9,0,0,1-.3.6Z"/>
      <path class="cls-5" d="M341.1,32a.9.9,0,0,1-.6-.3.7.7,0,0,1-.3-.6.9.9,0,0,1,.3-.6.9.9,0,0,1,1.2,0,.9.9,0,0,1,.3.6.7.7,0,0,1-.3.6A.9.9,0,0,1,341.1,32Zm0-1.6-.5.2c-.1.2-.2.3-.2.5a.8.8,0,0,0,.2.5.7.7,0,0,0,1,0,.8.8,0,0,0,.2-.5c0-.2-.1-.3-.2-.5Z"/>
    </g>
  </g>
</svg>
