<svg id="Layer_1" data-name="Layer 1" xmlns="http://www.w3.org/2000/svg" xmlns:xlink="http://www.w3.org/1999/xlink" width="70" height="70" viewBox="0 0 70 70">
  <defs>
    <style>
      .cls-1 {
        fill: #f6f6f6;
      }

      .cls-2 {
        fill: url(#linear-gradient);
      }

      .cls-3 {
        fill: url(#linear-gradient-2);
      }

      .cls-4 {
        fill: url(#linear-gradient-3);
      }

      .cls-5 {
        fill: url(#linear-gradient-4);
      }
    </style>
    <linearGradient id="linear-gradient" x1="56.83" y1="70.23" x2="19.96" y2="-5.43" gradientUnits="userSpaceOnUse">
      <stop offset="0" stop-color="#75c9b9"/>
      <stop offset="1" stop-color="#72bde5"/>
    </linearGradient>
    <linearGradient id="linear-gradient-2" x1="64.34" y1="66.57" x2="27.47" y2="-9.09" xlink:href="#linear-gradient"/>
    <linearGradient id="linear-gradient-3" x1="54.77" y1="71.23" x2="17.9" y2="-4.43" xlink:href="#linear-gradient"/>
    <linearGradient id="linear-gradient-4" x1="46.75" y1="75.14" x2="9.88" y2="-0.52" xlink:href="#linear-gradient"/>
  </defs>
  <title>icon_plumbing_P0</title>
  <path id="Rectangle" class="cls-1" d="M3,0H67a2.9,2.9,0,0,1,3,3V67a2.9,2.9,0,0,1-3,3H3a2.9,2.9,0,0,1-3-3V3A2.9,2.9,0,0,1,3,0Z"/>
  <g>
    <path class="cls-2" d="M59.6,13.9a.8.8,0,0,0-.7.7,6.5,6.5,0,0,1-6.4,6.5h-.3v-.9H18.4v.9h-.2a6.5,6.5,0,0,1-6.4-6.5.8.8,0,0,0-.7-.7.9.9,0,0,0-.8.7,7.9,7.9,0,0,0,7.9,7.9h.2V54.4l1-.4c.1,0,12.4-4.7,18.6-2.8a75.5,75.5,0,0,1,7.6,3c2.4,1.1,4.2,1.9,5.5,1.9h1.1V22.5h.3a7.8,7.8,0,0,0,7.8-7.9A.8.8,0,0,0,59.6,13.9ZM19.9,22.5h8.5V50a65.5,65.5,0,0,0-8.5,2.3ZM34.4,49.3a35.7,35.7,0,0,0-4.6.4V22.5h9.7V50.2l-1.1-.3A12.9,12.9,0,0,0,34.4,49.3Zm16.4,5.3a19.1,19.1,0,0,1-4.6-1.7,57.1,57.1,0,0,0-5.3-2.2V22.5h9.9Z"/>
    <path class="cls-3" d="M48.7,45.4a.8.8,0,0,0,.7-.7V24.1a.8.8,0,0,0-.7-.7.8.8,0,0,0-.8.7V44.7A.8.8,0,0,0,48.7,45.4Z"/>
    <path class="cls-4" d="M37.5,23.4a.8.8,0,0,0-.8.7V47.3a.8.8,0,0,0,.8.7.7.7,0,0,0,.7-.7V24.1A.7.7,0,0,0,37.5,23.4Z"/>
    <path class="cls-5" d="M26.2,23.4a.7.7,0,0,0-.7.7V41.9a.7.7,0,0,0,1.4,0V24.1A.7.7,0,0,0,26.2,23.4Z"/>
  </g>
</svg>
