<svg id="Layer_1" data-name="Layer 1" xmlns="http://www.w3.org/2000/svg" xmlns:xlink="http://www.w3.org/1999/xlink" width="70" height="70" viewBox="0 0 70 70">
  <defs>
    <style>
      .cls-1 {
        fill: #f6f6f6;
      }

      .cls-2 {
        fill: url(#linear-gradient);
      }

      .cls-3 {
        fill: url(#linear-gradient-2);
      }
    </style>
    <linearGradient id="linear-gradient" x1="51.12" y1="65.71" x2="18.97" y2="4.46" gradientUnits="userSpaceOnUse">
      <stop offset="0" stop-color="#64dcc2"/>
      <stop offset="1" stop-color="#70bce6"/>
    </linearGradient>
    <linearGradient id="linear-gradient-2" x1="60.03" y1="61.03" x2="27.89" y2="-0.22" xlink:href="#linear-gradient"/>
  </defs>
  <title>icon_carpentry_C0</title>
  <path id="Rectangle" class="cls-1" d="M3,0H67a2.9,2.9,0,0,1,3,3V67a2.9,2.9,0,0,1-3,3H3a2.9,2.9,0,0,1-3-3V3A2.9,2.9,0,0,1,3,0Z"/>
  <g>
    <path class="cls-2" d="M35,10a24.7,24.7,0,0,0-16.3,6.1h-.1A25,25,0,1,0,35,10Zm7.4,2.6v16l-2.1.4a2.5,2.5,0,0,0-1.9,2.8,2.4,2.4,0,0,0,.7,1.3l-.7,3.5A2.3,2.3,0,0,0,36.1,39v3.5l-3.2-2.6a2.5,2.5,0,0,0,.2-2.5l-1.9-3.9a2.3,2.3,0,0,0-2.5-1.3l-2.9-5.1a2.3,2.3,0,0,0-.9-3.1l-3.8-2.2a2.3,2.3,0,0,0-1.1-.3V16.8a23.9,23.9,0,0,1,15-5.4A22.5,22.5,0,0,1,42.4,12.6ZM39.5,39v4.4a.9.9,0,0,1-1,.9l-.6-.2h-.1c0-.1-.1-.2-.2-.3h0V39a.9.9,0,0,1,.5-.9v.3a.6.6,0,0,0,.5.8h.2a.6.6,0,0,0,.6-.6h.1Zm.7-7.9h-.4a1.1,1.1,0,0,1,.8-.7l1.8-.3,1.4-.3,1.1-.2h.2l.6.2a.9.9,0,0,1,.4.6,1,1,0,0,1-.8,1.1l-1.5.3-1.4.3-1.4.2h-.3v-.5A.8.8,0,0,0,40.2,31.1ZM28.1,34.2a.3.3,0,0,1,.1-.2h.7c.1,0,.2-.2.3-.3a.8.8,0,0,1,.7.5l1.9,4a1,1,0,0,1,0,.9h-.1a.7.7,0,0,0-1,.1.5.5,0,0,0-.2.4h0a1,1,0,0,1-.4-.5l-2-3.9A1.1,1.1,0,0,1,28.1,34.2Zm-3.7-8.1a.6.6,0,0,0-.3.8h-.2a.9.9,0,0,1-.7-.1L20,25.1l-.6-.4c-.3-.1-.4-.3-.5-.6a.9.9,0,0,1,.1-.7c.1-.3.3-.4.6-.5h.7l3.9,2.2a1.2,1.2,0,0,1,.4.8ZM11.4,35a23.6,23.6,0,0,1,7.2-16.9v3.7a1.8,1.8,0,0,0-.8.9,1.9,1.9,0,0,0-.3,1.8,2.6,2.6,0,0,0,1.1,1.4v26A23.6,23.6,0,0,1,11.4,35ZM20,53.2V26.7l2.5,1.5a2.1,2.1,0,0,0,1.2.3h.6l.5-.2,2.6,4.6a2.6,2.6,0,0,0-.7,1,2.8,2.8,0,0,0,.1,1.8l2,4a2.1,2.1,0,0,0,1.4,1.2h1.5l4.8,3.8a2.4,2.4,0,0,0,2,1.2A2.5,2.5,0,0,0,41,43.4V39a2.4,2.4,0,0,0-1.2-2.1l.6-3.1h.8l1.2-.3V57.4A22.5,22.5,0,0,1,35,58.6,23.9,23.9,0,0,1,20,53.2Zm23.8,3.7V33.3l1.8-.3a2.6,2.6,0,0,0,1.9-2.9,2.5,2.5,0,0,0-1-1.5,2.3,2.3,0,0,0-1.8-.4l-.9.2V13.1a23.6,23.6,0,0,1,0,43.8Z"/>
    <path class="cls-3" d="M47.4,40.5a2.3,2.3,0,1,0,0,4.5,2.1,2.1,0,0,0,1.9-1.1h6.1V41.4H49.2A2.4,2.4,0,0,0,47.4,40.5Z"/>
  </g>
</svg>
