<svg id="Layer_1" data-name="Layer 1" xmlns="http://www.w3.org/2000/svg" xmlns:xlink="http://www.w3.org/1999/xlink" width="70" height="70" viewBox="0 0 70 70">
  <defs>
    <style>
      .cls-1 {
        fill: #f6f6f6;
      }

      .cls-2 {
        fill: url(#linear-gradient);
      }

      .cls-3 {
        fill: url(#linear-gradient-2);
      }

      .cls-4 {
        fill: url(#linear-gradient-3);
      }

      .cls-5 {
        fill: url(#linear-gradient-4);
      }

      .cls-6 {
        fill: url(#linear-gradient-5);
      }
    </style>
    <linearGradient id="linear-gradient" x1="52.48" y1="70.02" x2="6.82" y2="-9.32" gradientUnits="userSpaceOnUse">
      <stop offset="0" stop-color="#75c9b9"/>
      <stop offset="1" stop-color="#72bde5"/>
    </linearGradient>
    <linearGradient id="linear-gradient-2" x1="53.97" y1="69.16" x2="8.3" y2="-10.17" xlink:href="#linear-gradient"/>
    <linearGradient id="linear-gradient-3" x1="47.05" y1="73.14" x2="1.38" y2="-6.19" xlink:href="#linear-gradient"/>
    <linearGradient id="linear-gradient-4" x1="55.2" y1="68.45" x2="9.53" y2="-10.88" xlink:href="#linear-gradient"/>
    <linearGradient id="linear-gradient-5" x1="53.49" y1="69.44" x2="7.82" y2="-9.9" xlink:href="#linear-gradient"/>
  </defs>
  <title>icon_electrical_E01</title>
  <path id="Rectangle" class="cls-1" d="M3,0H67a2.9,2.9,0,0,1,3,3V67a2.9,2.9,0,0,1-3,3H3a2.9,2.9,0,0,1-3-3V3A2.9,2.9,0,0,1,3,0Z"/>
  <g>
    <path class="cls-2" d="M39.1,5.3a2.9,2.9,0,0,0-2.2-1.1,2.7,2.7,0,0,0-2.2,1.1L33.6,6.6c-1.4,1.7-2.8,3.4-5.8,7.7a1.1,1.1,0,0,0-.1.8,1,1,0,0,0,.4.7,1.1,1.1,0,0,0,1.5-.3c2.9-4.2,4.3-5.9,5.6-7.5l1.2-1.4a.7.7,0,0,1,1,0c4.8,6,20.4,26.1,20.4,36.1a21,21,0,0,1-41.9,0c0-4,1.4-8.7,7.8-18.6a1.1,1.1,0,0,0-1.8-1.2c-5.9,9-8.1,14.5-8.1,19.8a23.1,23.1,0,0,0,46.2,0C60,32,44,11.3,39.1,5.3Z"/>
    <path class="cls-3" d="M40.6,27H33.2a1.3,1.3,0,0,0-1.4,1.3v6.1H25.7a1.3,1.3,0,0,0-1.3,1.3v7.5a1.3,1.3,0,0,0,1.3,1.3h6.1v6.2A1.3,1.3,0,0,0,33.2,52h7.4a1.3,1.3,0,0,0,1.3-1.3V44.5h6.2a1.3,1.3,0,0,0,1.3-1.3V35.8a1.8,1.8,0,0,0-.4-1,1.5,1.5,0,0,0-.9-.4H41.9V28.3A1.3,1.3,0,0,0,40.6,27Zm7,9.3v6.4H40.1v7.5H33.7V42.7H26.2V36.3h7.5V28.8h6.4v7.5Z"/>
    <path class="cls-4" d="M10.5,18.9a.6.6,0,0,0-.5.6.6.6,0,0,0,.6.6c3.8.2,4.8,5.4,4.8,5.4a.8.8,0,0,0,.7.5h0a.6.6,0,0,0,.6-.6c.1-3.6,5.1-5.4,5.2-5.4a.8.8,0,0,0,.4-.7.6.6,0,0,0-.6-.5c-3.6-.2-5-5.1-5-5.1a.7.7,0,0,0-.7-.5.6.6,0,0,0-.5.6C15.1,18.1,10.7,18.8,10.5,18.9Z"/>
    <path class="cls-5" d="M25.8,13.4l-.2-.2c-1.4-.1-1.9-1.9-1.9-1.9a.2.2,0,1,0-.4,0,2.3,2.3,0,0,1-1.9,1.9l-.2.2c0,.2.1.2.3.3s1.8,1.9,1.8,2,.1.1.2.1h0a.2.2,0,0,0,.2-.2c.1-1.3,1.9-2,1.9-2Z"/>
    <path class="cls-6" d="M18.7,5c-.1-.1-.2-.3-.4-.2a.3.3,0,0,0-.3.3A3.4,3.4,0,0,1,15.1,8c-.2.1-.4.2-.3.4s.1.4.3.4c2.2.1,2.8,3.1,2.8,3.1s.2.3.4.3h0c.2,0,.4-.1.4-.3,0-2.1,3-3.2,3-3.2s.3-.2.2-.4a.3.3,0,0,0-.3-.3C19.5,7.9,18.7,5.1,18.7,5Z"/>
  </g>
</svg>
