<svg id="Layer_1" data-name="Layer 1" xmlns="http://www.w3.org/2000/svg" xmlns:xlink="http://www.w3.org/1999/xlink" width="70" height="70" viewBox="0 0 70 70">
  <defs>
    <style>
      .cls-1 {
        fill: #f6f6f6;
      }

      .cls-2 {
        fill: url(#linear-gradient);
      }

      .cls-3 {
        fill: url(#linear-gradient-2);
      }

      .cls-4 {
        fill: url(#linear-gradient-3);
      }

      .cls-5 {
        fill: url(#linear-gradient-4);
      }

      .cls-6 {
        fill: url(#linear-gradient-5);
      }

      .cls-7 {
        fill: url(#linear-gradient-6);
      }

      .cls-8 {
        fill: url(#linear-gradient-7);
      }

      .cls-9 {
        fill: url(#linear-gradient-8);
      }
    </style>
    <linearGradient id="linear-gradient" x1="59.42" y1="73.91" x2="23.14" y2="-11.17" gradientUnits="userSpaceOnUse">
      <stop offset="0" stop-color="#75c9b9"/>
      <stop offset="1" stop-color="#72bde5"/>
    </linearGradient>
    <linearGradient id="linear-gradient-2" x1="55.08" y1="75.76" x2="18.8" y2="-9.32" xlink:href="#linear-gradient"/>
    <linearGradient id="linear-gradient-3" x1="58.21" y1="74.43" x2="21.93" y2="-10.65" xlink:href="#linear-gradient"/>
    <linearGradient id="linear-gradient-4" x1="56.87" y1="75" x2="20.59" y2="-10.08" xlink:href="#linear-gradient"/>
    <linearGradient id="linear-gradient-5" x1="48.91" y1="78.39" x2="12.63" y2="-6.69" xlink:href="#linear-gradient"/>
    <linearGradient id="linear-gradient-6" x1="37.54" y1="83.24" x2="1.26" y2="-1.84" xlink:href="#linear-gradient"/>
    <linearGradient id="linear-gradient-7" x1="43.29" y1="80.79" x2="7.01" y2="-4.29" xlink:href="#linear-gradient"/>
    <linearGradient id="linear-gradient-8" x1="45.81" y1="79.72" x2="9.52" y2="-5.36" xlink:href="#linear-gradient"/>
  </defs>
  <title>icon_PC0</title>
  <path id="Rectangle" class="cls-1" d="M3,0H67a2.9,2.9,0,0,1,3,3V67a2.9,2.9,0,0,1-3,3H3a2.9,2.9,0,0,1-3-3V3A2.9,2.9,0,0,1,3,0Z"/>
  <g>
    <g>
      <path class="cls-2" d="M59.5,21.4l-3-.9c-.2-.1-.5-.1-.6.1a.5.5,0,0,0-.3.5H51.8a.7.7,0,0,0,0,1.4h3.8v.8H49.7V20.8a.7.7,0,0,0-.7-.7H47.5V18.9a.7.7,0,0,0-.7-.7H43.3v-.8H44a.8.8,0,0,0,.7-.5l.5-1.9h.5a1.5,1.5,0,0,0,1.5-1.5A1.4,1.4,0,0,0,45.7,12H39.6a1.4,1.4,0,0,0-1.5,1.5A1.5,1.5,0,0,0,39.6,15h.5l.5,1.9a.8.8,0,0,0,.7.5h.6v.8H33.6a.6.6,0,0,0-.6.5l-3.3,9.8a.6.6,0,0,0,0,.6c.1.1.2.3.4.3h.4l.8.2,1.1-.3a2.3,2.3,0,0,0,1.2-1.5l2.1-6.1h2.1v5.3a.7.7,0,0,0,.7.7h.3v3.5H36.3a3.9,3.9,0,0,0-3.8,3.2l-3,20.8a3.9,3.9,0,0,0,.9,3.3A4.1,4.1,0,0,0,33.5,60H51.8a4.1,4.1,0,0,0,3.1-1.4,3.9,3.9,0,0,0,.9-3.3l-3-20.8A4,4,0,0,0,49,31.3H46.4V27.8h.4a.7.7,0,0,0,.7-.7V25.9H49a.7.7,0,0,0,.7-.7v-.4h5.9a.6.6,0,0,0,.3.6.5.5,0,0,0,.4.2h.2l3-.9a.8.8,0,0,0,.5-.7V22.1A.8.8,0,0,0,59.5,21.4ZM41.4,14.1a.8.8,0,0,0-.7-.5h3.9a.8.8,0,0,0-.7.5L43.5,16H41.8Zm-6.2,6.3a.8.8,0,0,0-.7.5l-2.2,6.6a1,1,0,0,1-.5.6l-.5.2,2.8-8.7h3.7v.8ZM45.7,32.7H49a2.5,2.5,0,0,1,2.4,2l3,20.8a2.6,2.6,0,0,1-2.6,3.1H33.5a2.6,2.6,0,0,1-2.6-3.1l3-20.8a2.5,2.5,0,0,1,2.4-2h6.6a.7.7,0,1,0,0-1.4H40.3V27.8H45V32A.8.8,0,0,0,45.7,32.7Zm2.6-8.2H46.8a.7.7,0,0,0-.7.7v1.2H39.2V19.6h6.9v1.2a.7.7,0,0,0,.7.7h1.5v3Zm10.3-1.1-1.6.5V22.1l1.6.5Z"/>
      <path class="cls-3" d="M35,42.1h0a8.3,8.3,0,0,0-1.2,4.4,8.8,8.8,0,0,0,8.8,8.8,8.9,8.9,0,0,0,7.7-4.3h0a8.3,8.3,0,0,0,1.2-4.4A8.9,8.9,0,0,0,35,42.1ZM42.6,54a7.4,7.4,0,0,1-7.4-7.4,8.2,8.2,0,0,1,.7-3.1L40,45.9H38.7a.7.7,0,1,0,0,1.4H40v.6h-.1a1.9,1.9,0,0,0-1.8,1.9v1a.7.7,0,1,0,1.4,0v-1a.5.5,0,0,1,.4-.5h.3a1.5,1.5,0,0,0,.6.9,2.5,2.5,0,0,0,1.8.8,2.8,2.8,0,0,0,1.3-.3.7.7,0,1,0-.7-1.2h-.6a1.2,1.2,0,0,1-1.2-1.3V46.7l7.3,4.2A7.5,7.5,0,0,1,42.6,54Zm7.5-7.4a8.2,8.2,0,0,1-.7,3.1l-8-4.6v-.2a1.2,1.2,0,0,1,1.2-1.3,1,1,0,0,1,.9.4,1,1,0,0,1,.4.7.9.9,0,0,0,.7.6h.8a1.9,1.9,0,0,0,1.8-1.9v-1a.7.7,0,1,0-1.4,0v1a.5.5,0,0,1-.4.5h-.3a1.5,1.5,0,0,0-.6-.9,2.6,2.6,0,0,0-1.9-.8,2.6,2.6,0,0,0-2.4,1.7h-.3a.5.5,0,0,1-.4-.5v-1a.7.7,0,1,0-1.4,0v.8l-1.5-.9a7.3,7.3,0,0,1,6-3.1A7.5,7.5,0,0,1,50.1,46.6Z"/>
      <path class="cls-4" d="M46.6,45.9h-.5a.7.7,0,1,0,0,1.4h.5a.7.7,0,1,0,0-1.4Z"/>
      <path class="cls-5" d="M46.5,49.8a.7.7,0,0,0-.7.7v.3a.7.7,0,0,0,1.4,0v-.3A.7.7,0,0,0,46.5,49.8Z"/>
    </g>
    <g>
      <polygon class="cls-6" points="23.1 26.6 23.1 26.8 23.1 27 23.1 27.1 23.1 27.2 23.2 27.2 23.2 27.2 23.7 27.2 23.8 27.2 24.2 27.2 24.4 27.2 24.7 27.2 24.8 27.2 24.8 27.2 24.8 27.1 24.9 27 24.9 26.8 24.8 26.6 24.8 26.5 24.9 26 24.9 25.5 24.9 25.4 24.9 25.3 25 25.3 25 25.4 25.1 25.5 25.4 25.8 25.5 25.9 25.8 26.3 25.9 26.4 26.1 26.7 26.2 26.8 26.5 27.2 26.6 27.2 26.7 27.2 27.2 27.2 27.3 27.2 27.9 27.2 28 27.2 28.4 27.2 28.5 27.2 28.6 27.2 28.6 27.2 28.7 27.1 28.6 27 28.2 26.7 28.2 26.6 27.8 26.2 27.7 26.1 27.4 25.7 27.3 25.6 27 25.2 26.9 25.1 26.5 24.7 26.4 24.6 26.1 24.2 26.1 24.2 26 24.1 26.1 24 26.1 24 26.2 23.9 26.4 23.7 26.5 23.6 26.8 23.2 26.9 23.1 27.2 22.8 27.3 22.7 27.6 22.3 27.7 22.2 28 21.8 28.1 21.7 28.4 21.4 28.5 21.3 28.5 21.3 28.5 21.2 28.4 21.2 28.3 21.2 28 21.2 27.9 21.2 27.6 21.2 27 21.2 26.9 21.2 26.5 21.2 26.4 21.2 26.4 21.3 26.1 21.6 26 21.7 25.7 22.1 25.3 22.6 25 23 24.9 23 24.9 23 24.9 22.9 24.8 22.5 24.8 22.3 24.8 21.9 24.8 21.8 24.9 21.5 24.9 21.4 24.9 21.3 24.8 21.2 24.8 21.2 24.7 21.2 24.3 21.2 24.2 21.2 23.8 21.2 23.7 21.2 23.4 21.2 23.3 21.2 23.2 21.2 23.2 21.2 23.2 21.3 23.1 21.8 23.1 21.9 23.1 23 23.1 23.1 23.1 23.6 23.1 23.7 23.1 24.1 23.1 24.7 23.1 24.9 23.1 25.3 23.1 25.4 23.1 26 23.1 26.5 23.1 26.6"/>
      <g>
        <path class="cls-7" d="M10.1,27.2H15v-.2h.1v-.2h0v-.2h0v-.2h0v-.2h-.2v-.2H15v-.2h.1v-.2h.1v-.2h0v-.4h-.1V22H10v.4h0v.5h0V23h0v1h0v1.1h0v1h0v.2h.1ZM13.6,25h.1v.2h0v.2H11.6v-.2h.1v-.2h0v-.2h1.9Zm-2-2.1v-.2h1.9v.2h-2v-.2h0Z"/>
        <polygon class="cls-8" points="18.1 22.1 18.1 21.9 18.1 21.5 18.1 21.4 18.1 21.4 18.1 21.3 18 21.2 17.9 21.2 17.8 21.2 17.6 21.2 17.3 21.2 17.2 21.2 16.8 21.2 16.7 21.2 16.6 21.2 16.4 21.2 16.4 21.3 16.3 21.4 16.3 21.5 16.4 21.8 16.4 22 16.4 22.4 16.4 22.5 16.4 23 16.4 23.1 16.4 23.7 16.4 24.1 16.4 24.3 16.4 24.7 16.4 24.8 16.4 25.3 16.4 25.4 16.4 25.9 16.4 26.6 16.3 26.8 16.3 26.9 16.4 27 16.4 27.1 16.4 27.2 16.5 27.2 16.6 27.2 16.6 27.2 16.8 27.2 17.2 27.2 17.3 27.2 17.6 27.2 17.8 27.2 17.9 27.2 18 27.2 18.1 27.1 18.1 27 18.1 26.8 18.1 26.5 18.1 26.3 18.1 25.8 18.1 25.7 18.1 25.1 18.1 25 18.1 24.9 18.2 24.9 18.3 24.9 18.8 24.9 19.4 24.9 19.6 24.9 19.9 24.9 20.1 24.9 20.2 24.9 20.2 25 20.2 25.1 20.2 25.7 20.2 25.8 20.2 26.3 20.2 26.5 20.3 27 20.3 27.1 20.3 27.2 20.5 27.2 20.6 27.2 21 27.2 21.2 27.2 21.6 27.2 21.7 27.2 21.8 27.2 21.9 27.1 21.9 27 21.9 26.9 21.9 26.8 21.9 26.6 21.9 26.4 21.9 25.9 21.9 25.4 21.9 25.3 21.9 24.8 21.9 24.7 21.9 24.3 21.9 24.1 22 23.7 22 23.6 21.9 23.1 21.9 23 21.9 22.5 21.9 22.4 21.9 22 21.9 21.8 22 21.5 22 21.4 21.9 21.2 21.9 21.2 21.7 21.2 21.7 21.2 21.5 21.2 21.2 21.2 21 21.2 20.6 21.2 20.4 21.2 20.3 21.2 20.3 21.2 20.3 21.4 20.3 21.9 20.3 22.1 20.3 22.6 20.3 22.7 20.2 23.3 20.2 23.4 20.2 23.4 20.1 23.5 20.1 23.5 19.9 23.5 19.4 23.5 18.9 23.4 18.8 23.5 18.5 23.5 18.3 23.5 18.2 23.5 18.1 23.5 18.1 23.5 18.1 23.4 18.1 23.3 18.1 22.6 18.1 22.1"/>
        <polygon class="cls-9" points="14.3 17.1 14.4 17.4 14.5 17.6 14.6 17.8 14.7 18 14.8 18.2 14.9 18.4 15.1 18.6 15.5 18.8 15.6 18.9 15.9 19.1 16.1 19.2 16.3 19.3 16.5 19.3 16.7 19.4 16.9 19.4 17.1 19.5 17.4 19.5 17.8 19.5 18.5 19.6 18.7 19.6 19 19.5 19.2 19.5 19.4 19.5 19.6 19.4 19.9 19.4 20.1 19.3 20.3 19.2 20.5 19.1 20.8 19.1 20.9 19 21.2 18.7 21.4 18.6 21.5 18.5 21.6 18.3 21.7 18.3 21.8 18.1 22 17.8 22 17.8 22.1 17.6 22.1 17.3 22.2 17.1 22.2 16.9 22.2 16.7 22.2 16.5 22.2 16.3 22.1 16.1 22.1 15.9 21.9 15.6 21.8 15.4 21.7 15.3 21.6 15.2 21.4 15 21.1 14.8 21.1 14.7 21.1 14.6 21.2 14.5 21.4 14.3 21.5 14.2 21.7 14 21.9 13.6 21.9 13.5 21.9 13.4 22 13.2 22 13.1 22 12.9 22 12.7 21.9 12.5 21.9 12.2 21.8 12.1 21.7 11.9 21.6 11.7 21.5 11.5 21.5 11.4 21.3 11.3 21.2 11.1 21 11 20.8 10.8 20.7 10.7 20.5 10.6 20.3 10.6 20 10.5 19.8 10.4 19.6 10.3 19.4 10.3 19.1 10.2 18.5 10.2 18.3 10.1 18.1 10.1 17.8 10.1 17.6 10.2 17.2 10.2 17 10.3 16.8 10.3 16.5 10.4 16.3 10.4 16.1 10.5 15.9 10.6 15.7 10.7 15.6 10.9 15.4 11 15.2 11.1 15 11.3 14.9 11.4 14.8 11.6 14.7 11.8 14.6 12.1 14.5 12.4 14.4 12.6 14.4 12.9 14.4 13 14.4 13.1 14.5 13.1 14.7 13.2 14.9 13.2 15.1 13.2 15.5 13.2 15.7 13.2 16.2 13.2 16.5 13.2 16.7 13.2 16.8 13.1 16.9 12.9 17 12.8 17 12.7 17.2 12.6 17.3 12.5 17.4 12.4 17.6 12.4 17.7 12.4 18.1 12.3 18.2 12.3 18.5 12.3 18.7 12.4 18.9 12.4 19.1 12.5 19.3 12.7 19.3 12.8 19.4 13 19.4 13.1 19.4 13.2 19.3 13.4 19.3 13.5 19.1 13.6 19.1 13.7 18.9 13.8 18.8 13.8 18.5 13.9 18.3 13.9 18.1 13.9 18 13.9 17.8 13.9 17.4 13.8 17.2 13.8 16.8 13.9 16.7 13.9 16.6 14 16.6 14.2 16.6 14.4 16.6 14.7 16.6 14.8 16.6 15 16.6 15.2 16.6 15.4 16.7 15.5 16.8 15.6 16.9 15.7 17.2 15.7 17.5 15.7 17.9 15.7 18.2 15.7 18.4 15.7 18.6 15.7 18.8 15.7 19 15.8 19.1 15.8 19.3 16 19.4 16.1 19.5 16.2 19.5 16.4 19.5 16.5 19.5 16.7 19.5 16.8 19.5 17 19.4 17 19.3 17.2 19.2 17.2 19 17.4 18.9 17.4 18.7 17.5 18.4 17.5 18.2 17.5 18 17.5 17.8 17.4 17.5 17.4 17.4 17.3 17.3 17.2 17.2 17.2 17 17 17 17 16.9 16.8 16.8 16.7 16.8 16.5 16.7 16.4 16.5 16.4 16.2 16.4 15.6 16.4 15.4 16.4 15 16.4 14.5 16.4 14.3 16.5 14.2 16.5 14.2 16.7 14.3 17 14.3 17.1"/>
      </g>
    </g>
  </g>
</svg>
