<?xml version="1.0" encoding="utf-8"?>
<!-- Generator: Adobe Illustrator 22.1.0, SVG Export Plug-In . SVG Version: 6.00 Build 0)  -->
<svg version="1.1" id="Layer_1" xmlns="http://www.w3.org/2000/svg" xmlns:xlink="http://www.w3.org/1999/xlink" x="0px" y="0px"
	 viewBox="0 0 374.5 89.4" style="enable-background:new 0 0 374.5 89.4;" xml:space="preserve">
<style type="text/css">
	.st0{fill:url(#Path-4_1_);}
	.st1{opacity:0.3;fill:#FFFFFF;enable-background:new    ;}
	.st2{fill:#FFFFFF;}
	.st3{font-family:'Montserrat-Medium';}
	.st4{font-size:16px;}
	.st5{enable-background:new    ;}
</style>
<title>banner_amc_gold_1bhk</title>
<g id="Page-1">
	<g id="UI---Screen-7---v2">
		<g id="Group-2">
			
				<linearGradient id="Path-4_1_" gradientUnits="userSpaceOnUse" x1="405.5448" y1="-34.3726" x2="21.5247" y2="124.2573" gradientTransform="matrix(1 0 0 -1 0 92)">
				<stop  offset="0" style="stop-color:#75C9B9"/>
				<stop  offset="1" style="stop-color:#72BDE5"/>
			</linearGradient>
			<path id="Path-4" class="st0" d="M0,72.4C71,74,112,68.2,210.5,71c58.9,1.7,113.3,7.8,164,18.4V0H0V72.4z"/>
			<path id="Rectangle-Copy-2" class="st1" d="M26.8,22h40.4c1.8,0,3.3,1.5,3.3,3.3v0.4c0,1.8-1.5,3.3-3.3,3.3H26.8
				c-1.8,0-3.3-1.5-3.3-3.3v-0.4C23.5,23.5,25,22,26.8,22z"/>
			<path id="Rectangle-Copy-4" class="st1" d="M189.8,29h40.4c1.8,0,3.3,1.5,3.3,3.3v0.4c0,1.8-1.5,3.3-3.3,3.3h-40.4
				c-1.8,0-3.3-1.5-3.3-3.3v-0.4C186.5,30.5,188,29,189.8,29z"/>
			<path id="Rectangle-Copy-3" class="st1" d="M67.8,35h40.4c1.8,0,3.3,1.5,3.3,3.3v0.4c0,1.8-1.5,3.3-3.3,3.3H67.8
				c-1.8,0-3.3-1.5-3.3-3.3v-0.4C64.5,36.5,66,35,67.8,35z"/>
			<path id="Rectangle-Copy-5" class="st1" d="M236.8,42h40.4c1.8,0,3.3,1.5,3.3,3.3v0.4c0,1.8-1.5,3.3-3.3,3.3h-40.4
				c-1.8,0-3.3-1.5-3.3-3.3v-0.4C233.5,43.5,235,42,236.8,42z"/>
			<g id="sweep">
				<g id="_">
					<text transform="matrix(1 0 0 1 304.3 26)" class="st2 st3 st4">+</text>
				</g>
				<g id="_-copy">
					<text transform="matrix(1 0 0 1 336.5 14)" class="st2 st3 st4">+</text>
				</g>
			</g>
		</g>
	</g>
</g>
<g class="st5">
	<path class="st2" d="M324.6,73.3l2.8-6.8h1.6v6.8h1v1.6h-1v2.3h-1.6v-2.3h-2.8V73.3z M327.4,73.3v-3.3l-1.3,3.3H327.4z"/>
</g>
<g class="st5">
	<path class="st2" d="M332.5,76.7v-9.4c0-0.1,0-0.2,0.1-0.3c0.1-0.1,0.1-0.2,0.2-0.2c0.1-0.1,0.2-0.1,0.3-0.1h3.1
		c0.3,0,0.6,0.1,0.9,0.2c0.3,0.2,0.5,0.4,0.7,0.7c0.2,0.3,0.3,0.7,0.3,1l0,1.1c0,0.2,0,0.5-0.1,0.7c-0.1,0.3-0.2,0.5-0.3,0.7
		c-0.2,0.2-0.4,0.4-0.7,0.4c0.5,0.1,0.8,0.3,1,0.7c0.2,0.4,0.4,0.9,0.4,1.5l0,1c0,0.4-0.1,0.7-0.2,1c-0.1,0.3-0.3,0.5-0.5,0.7
		c-0.2,0.2-0.4,0.3-0.6,0.4c-0.3,0.1-0.6,0.2-0.8,0.2h-3.5c-0.1,0-0.2,0-0.2-0.1c-0.1,0-0.1-0.1-0.2-0.2
		C332.5,76.9,332.5,76.8,332.5,76.7z M335.4,71c0.1,0,0.3,0,0.4-0.1c0.1-0.1,0.2-0.2,0.3-0.4c0.1-0.2,0.1-0.4,0.1-0.6l0-0.7
		c0-0.4-0.1-0.6-0.2-0.8c-0.2-0.2-0.4-0.3-0.7-0.3h-0.8c-0.1,0-0.1,0-0.2,0.1s-0.1,0.1-0.1,0.2l0,2.5c0,0.1,0.1,0.1,0.2,0.1
		L335.4,71z M335.6,75.8c0.3-0.1,0.5-0.2,0.7-0.4c0.1-0.2,0.2-0.5,0.2-0.8l0-0.8c0-0.3,0-0.5-0.1-0.7c-0.1-0.2-0.2-0.3-0.4-0.4
		c-0.2-0.1-0.4-0.1-0.6-0.1h-0.9c-0.1,0-0.1,0-0.2,0.1s-0.1,0.1-0.1,0.2l0,2.7c0,0.1,0,0.1,0.1,0.1s0.1,0,0.2,0H335.6z"/>
	<path class="st2" d="M339.6,76.8v-9.7c0-0.1,0-0.1,0.1-0.2c0-0.1,0.1-0.1,0.1-0.1c0.1,0,0.1-0.1,0.2-0.1h1.1c0.1,0,0.2,0,0.3,0.1
		s0.1,0.2,0.1,0.3v3.7l2.8,0v-3.7c0-0.1,0-0.1,0.1-0.2c0-0.1,0.1-0.1,0.2-0.1c0.1,0,0.1-0.1,0.2-0.1h1.1c0.1,0,0.1,0,0.2,0.1
		c0.1,0,0.1,0.1,0.2,0.1c0,0.1,0.1,0.1,0.1,0.2v9.7c0,0.1,0,0.1-0.1,0.2c0,0.1-0.1,0.1-0.2,0.1c-0.1,0-0.1,0.1-0.2,0.1h-1.1
		c-0.1,0-0.1,0-0.2-0.1c-0.1,0-0.1-0.1-0.2-0.1c0-0.1-0.1-0.1-0.1-0.2v-4.2l-2.8,0v4.2c0,0.1,0,0.1-0.1,0.2c0,0.1-0.1,0.1-0.1,0.1
		c-0.1,0-0.1,0.1-0.2,0.1H340c-0.1,0-0.1,0-0.2-0.1c-0.1,0-0.1-0.1-0.1-0.1C339.7,76.9,339.6,76.9,339.6,76.8z"/>
	<path class="st2" d="M347.6,76.9v-9.8c0-0.1,0-0.1,0.1-0.2c0-0.1,0.1-0.1,0.1-0.1c0.1,0,0.1-0.1,0.2-0.1h1.1c0.1,0,0.1,0,0.2,0.1
		s0.1,0.1,0.1,0.1c0,0.1,0,0.1,0,0.2v2.8l1.9-2.9c0.1-0.1,0.1-0.1,0.2-0.2c0.1-0.1,0.2-0.1,0.2-0.1l1.1,0c0.1,0,0.2,0,0.3,0.1
		c0.1,0,0.1,0.1,0.2,0.2c0,0.1,0.1,0.1,0.1,0.2c0,0.1,0,0.2-0.1,0.2l-2.6,4l3.3,5.1c0,0.1,0.1,0.2,0.1,0.3c0,0.1,0,0.2-0.1,0.2
		s-0.1,0.1-0.2,0.2s-0.2,0.1-0.2,0.1h-1.3c-0.1,0-0.2,0-0.2-0.1c-0.1,0-0.1-0.1-0.2-0.2l-2.5-3.9v3.9c0,0.1,0,0.1,0,0.2
		c0,0.1-0.1,0.1-0.1,0.1s-0.1,0.1-0.2,0.1H348c-0.1,0-0.1,0-0.2-0.1c-0.1,0-0.1-0.1-0.1-0.1C347.6,77,347.6,76.9,347.6,76.9z"/>
</g>
<g>
	<path class="st2" d="M360.5,37.9l-10.7-18.4l-0.2-0.5h-22.4l-0.3,0.5l-10.6,18.4l-0.3,0.5l0.3,0.4l10.6,18.5l0.3,0.4h22.4l0.2-0.4
		l10.7-18.5l0.2-0.4L360.5,37.9z M349,56.8h-21.3l-10.6-18.4l10.6-18.5H349l10.6,18.5L349,56.8z"/>
	<path class="st2" d="M350.9,16.7h-25l-12.5,21.7L325.9,60h25l12.5-21.6L350.9,16.7z M350.3,59h-23.8l-12-20.6l12-20.7h23.8
		l11.9,20.7L350.3,59z"/>
	<path class="st2" d="M334.4,30.7c0.5-0.2,0.8-0.5,0.8-0.6s-0.2-0.4-0.4-0.8s-0.1-0.6-0.2-0.6s-0.1,0.1-0.2,0.3c0,0.2,0,0.3,0.1,0.5
		l0.4,0.5c0.1,0,0.1,0,0.1,0.1l-0.8,0.2c-0.5,0.1-1.1,0.1-1,0.2s0.2,0.2,0.4,0.2S334.1,30.7,334.4,30.7z"/>
	<path class="st2" d="M332.2,29.1l0.3,0.4l0.7,0.4c0.3,0.1,0.5,0.1,0.8,0h0.3c0.1-0.1,0-0.5,0-0.9s0.1-0.7,0-0.7s-0.3,0.3-0.4,0.7
		s0.1,0.5,0.1,0.7h0.1l-0.8-0.3C332.7,29.2,332.3,28.9,332.2,29.1z"/>
	<path class="st2" d="M332.1,27.5c-0.1,0.1,0.1,0.6,0.5,1.1l0.6,0.4h0.3c0.2,0,0.3-0.5,0.5-0.8s0.4-0.7,0.3-0.8
		c-0.3,0.1-0.5,0.3-0.6,0.6c-0.1,0.2-0.2,0.4-0.2,0.6v0.2c-0.2-0.2-0.4-0.4-0.6-0.7C332.5,27.8,332.2,27.4,332.1,27.5z"/>
	<path class="st2" d="M332.4,26.1c-0.1,0.1-0.1,0.6,0.2,1.2s0.6,0.8,0.7,0.7s0.4-0.2,0.7-0.5s0.7-0.6,0.6-0.7s-0.5,0.1-0.8,0.4
		c-0.3,0.1-0.4,0.4-0.5,0.7l-0.3-0.8C332.7,26.5,332.5,26.1,332.4,26.1z"/>
	<path class="st2" d="M333.4,26c-0.1-0.5-0.2-1-0.4-1s-0.1,0.5,0,1.1s0.3,1,0.4,0.9s0.5-0.1,0.9-0.3s0.8-0.5,0.7-0.6s-0.4,0-0.9,0.2
		c-0.2,0.1-0.5,0.4-0.6,0.6C333.5,26.7,333.4,26.4,333.4,26z"/>
	<path class="st2" d="M334.2,25.7c0.3-0.5,0.5-0.9,0.4-0.9s-0.4,0.2-0.7,0.7s-0.4,0.9-0.3,0.9S334,26.1,334.2,25.7z"/>
	<path class="st2" d="M342.6,30.3l-0.9-0.2h0.1c0.2-0.1,0.3-0.3,0.4-0.5c0.1-0.2,0.1-0.3,0.1-0.5c0-0.1,0-0.2-0.1-0.3
		c-0.1,0-0.1,0.2-0.3,0.6s-0.4,0.7-0.3,0.8s0.2,0.4,0.8,0.6c0.3,0,0.5,0,0.8,0c0.2,0,0.4-0.1,0.4-0.2S343.1,30.4,342.6,30.3z"/>
	<path class="st2" d="M342.5,29.8h0.3c0.2,0.1,0.5,0.1,0.7,0l0.8-0.4c0.2-0.2,0.2-0.3,0.2-0.4s-0.5,0.1-1,0.3l-0.9,0.3h0.1
		c0.1-0.2,0.2-0.5,0.1-0.7c0-0.3-0.2-0.6-0.4-0.7c-0.1,0,0,0.3,0.1,0.7S342.4,29.7,342.5,29.8z"/>
	<path class="st2" d="M344.7,27.5c-0.1-0.1-0.4,0.3-0.8,0.7l-0.6,0.7v-0.2l-0.2-0.6c-0.2-0.3-0.4-0.5-0.7-0.6
		c-0.1,0.1,0.1,0.4,0.3,0.8s0.4,0.8,0.5,0.8h0.3c0.2,0,0.4-0.2,0.7-0.4S344.8,27.6,344.7,27.5z"/>
	<path class="st2" d="M343.8,27.1c-0.2,0.2-0.3,0.5-0.3,0.8c-0.1-0.3-0.3-0.5-0.5-0.7c-0.4-0.3-0.8-0.5-0.8-0.4s0.2,0.3,0.5,0.7
		s0.7,0.6,0.8,0.5s0.4-0.2,0.7-0.7c0.2-0.4,0.2-0.8,0.1-1.2C344.2,26.1,344,26.5,343.8,27.1z"/>
	<path class="st2" d="M341.7,26.1l0.7,0.6c0.5,0.2,0.9,0.4,0.9,0.3s0.4-0.3,0.5-0.9s0-1.1-0.1-1.1s-0.2,0.5-0.3,1
		c-0.1,0.3-0.1,0.6-0.1,0.9c-0.2-0.3-0.4-0.5-0.7-0.6C342.2,26.1,341.8,26,341.7,26.1z"/>
	<path class="st2" d="M343.1,26.4c0.1,0,0-0.5-0.2-0.9s-0.6-0.8-0.7-0.7s0.1,0.4,0.3,0.9S343,26.5,343.1,26.4z"/>
	<polygon class="st2" points="339.9,52.9 339.9,52.9 339.9,52.9 340,52.8 338.9,52.7 338.9,52.7 338.9,52.7 338.5,51.7 338.5,51.7 
		338.4,51.6 337.9,52.7 336.8,52.8 336.9,52.9 336.8,52.9 337.6,53.7 337.4,54.7 337.5,54.7 337.4,54.8 338.4,54.3 339.4,54.8 
		339.2,53.7 340,52.9 	"/>
	<polygon class="st2" points="343.3,53 343.4,52.9 342.5,52.8 342.5,52.8 342.5,52.8 342.1,52 341.7,52.8 340.8,52.9 340.9,53 
		340.9,53 341.5,53.6 341.3,54.4 341.4,54.4 341.3,54.5 342.1,54.1 342.9,54.5 342.8,53.6 343.4,53 	"/>
	<polygon class="st2" points="346.2,53 346.2,53 346.3,53 345.6,52.9 345.3,52.3 345,52.9 344.3,53 344.4,53.1 344.4,53.1 
		344.4,53.1 344.4,53.1 344.8,53.5 344.7,54.1 344.8,54.1 344.8,54.2 345.4,53.9 346,54.2 345.9,53.5 346.3,53.1 	"/>
	<polygon class="st2" points="335.9,53 335.9,53 335.9,53 336,52.9 335.1,52.8 334.7,52.1 334.7,52.1 334.7,52 334.3,52.8 
		333.4,52.9 333.5,53 333.4,53 334,53.6 333.9,54.4 333.9,54.4 333.9,54.5 334.7,54.1 335.5,54.5 335.4,53.6 336,53 	"/>
	<polygon class="st2" points="332.3,53 332.3,53 332.4,53 331.7,52.9 331.5,52.4 331.5,52.4 331.5,52.4 331.4,52.3 331.1,52.9 
		330.5,53 330.6,53.1 330.6,53.1 330.6,53.1 330.5,53.1 330.9,53.5 330.9,53.5 330.9,53.5 330.8,54.1 330.9,54.1 330.9,54.2 
		331.5,53.9 332.1,54.2 332,53.5 332.5,53.1 	"/>
	<path class="st2" d="M323.7,43.3l-0.3-0.2h-0.3l-0.2,0.2c0,0.1,0,0.2,0.1,0.3l6,10.5c0.1,0.1,0.2,0.2,0.4,0.2h0.2l0.2-0.2
		c0-0.1,0-0.2-0.1-0.3L323.7,43.3z"/>
	<path class="st2" d="M347.4,22.4h-18c-0.2,0-0.3,0-0.4,0.2l-5.5,9.6c-0.1,0.1-0.1,0.2-0.1,0.3c0,0.1,0.1,0.2,0.2,0.2l0,0
		c0.2,0.1,0.4,0.1,0.6-0.1l5.4-9.4h17.6l5.4,9.4l0.3,0.2h0.2c0.2-0.1,0.3-0.3,0.2-0.5l-5.6-9.6C347.7,22.4,347.5,22.4,347.4,22.4z"
		/>
	<path class="st2" d="M353.1,43.3L347,53.8v0.3c0,0.1,0.1,0.2,0.2,0.2l0,0c0,0.1,0.1,0.1,0.2,0.1l0.3-0.2l6.1-10.5v-0.3
		c0-0.1-0.1-0.2-0.2-0.2l0,0h-0.3C353.2,43.2,353.1,43.2,353.1,43.3z"/>
	<path class="st2" d="M331.6,33.3H329c-0.1,0-0.1,0.1-0.2,0.2l-1.9,9.8l0,0c0,0.1,0,0.2,0.1,0.3h1.8c0.1-0.1,0.1-0.2,0.1-0.3
		l0.5-2.4h1.9l0.5,2.4c0,0.2,0.1,0.4,0.3,0.4h1.6c0.1-0.1,0.1-0.2,0.1-0.3l0,0l-2-9.8c0.1-0.1,0-0.2-0.1-0.3
		C331.7,33.3,331.6,33.3,331.6,33.3z M329.6,39.1l0.7-3.7h0.1l0.7,3.7H329.6z"/>
	<path class="st2" d="M342.2,43.6c0.1,0,0.2,0,0.2-0.1l0.2-0.3v-9.7c0-0.1-0.1-0.2-0.2-0.3h-2.3c0,0.1-0.1,0.1-0.1,0.2l-1.4,4.4
		l-1.4-4.4h-2.1c-0.1,0-0.2,0-0.2,0.1h-0.2v9.9l0.2,0.2h1.4l0.2-0.2V37l1.2,3.7v0.2h1.8l1.1-3.7v6.2c0,0.1,0,0.2,0.1,0.3h1.4
		L342.2,43.6z"/>
	<path class="st2" d="M348.5,43.3c0.3-0.1,0.5-0.4,0.8-0.6c0.2-0.3,0.3-0.6,0.4-0.9c0.1-0.3,0.2-0.7,0.2-1l0,0c0-0.1,0-0.1-0.1-0.2
		s-0.1-0.1-0.1-0.2h-1.5l-0.2,0.2v0.2c0,0.2-0.1,0.4-0.2,0.6c-0.1,0.2-0.2,0.4-0.4,0.5c-0.2,0.1-0.4,0.2-0.6,0.2l0,0l-0.6-0.2
		c-0.2-0.1-0.3-0.3-0.4-0.5c-0.1-0.2-0.2-0.4-0.2-0.6v-5c0-0.2,0.1-0.4,0.2-0.6c0.1-0.1,0.2-0.3,0.4-0.4h1.2
		c0.2,0.1,0.3,0.2,0.4,0.4c0.1,0.2,0.2,0.4,0.2,0.6l0,0V36l0.2,0.2h1.5c0-0.1,0.1-0.1,0.1-0.2c0.1-0.1,0.1-0.1,0.1-0.2l0,0
		c0-0.5-0.1-1-0.4-1.4c-0.1-0.3-0.4-0.5-0.6-0.8l-0.8-0.4c-0.3-0.2-0.7-0.2-1-0.2h-0.5c-0.5,0-1,0.1-1.4,0.4
		c-0.3,0.1-0.5,0.3-0.7,0.6c-0.2,0.3-0.4,0.6-0.5,0.9c-0.1,0.3-0.1,0.6-0.1,0.9v5c0,0.5,0.1,1,0.3,1.5l0.6,0.8l0.9,0.5h1.4
		C347.6,43.7,348.1,43.5,348.5,43.3z"/>
</g>
</svg>
