<svg id="Layer_1" data-name="Layer 1" xmlns="http://www.w3.org/2000/svg" xmlns:xlink="http://www.w3.org/1999/xlink" width="374.5" height="89.4" viewBox="0 0 374.5 89.4">
  <defs>
    <style>
      .cls-1 {
        fill: url(#linear-gradient);
      }

      .cls-2, .cls-4, .cls-5 {
        fill: #fff;
      }

      .cls-2 {
        opacity: 0.3;
      }

      .cls-2, .cls-3, .cls-4 {
        isolation: isolate;
      }

      .cls-4 {
        font-size: 16px;
        font-family: Montserrat-Medium, Montserrat;
      }
    </style>
    <linearGradient id="linear-gradient" x1="405.55" y1="126.36" x2="21.53" y2="-32.27" gradientUnits="userSpaceOnUse">
      <stop offset="0" stop-color="#75c9b9"/>
      <stop offset="1" stop-color="#72bde5"/>
    </linearGradient>
  </defs>
  <title>banner_electrical_E01</title>
  <g id="Page-1">
    <g id="UI---Screen-7---v2">
      <g id="Group-2">
        <path id="Path-4" class="cls-1" d="M0,72.4C71,74,112,68.2,210.5,71c58.9,1.7,113.3,7.8,164,18.4V0H0Z"/>
        <rect id="Rectangle-Copy-2" class="cls-2" x="23.5" y="22" width="47" height="7" rx="3.3" ry="3.3"/>
        <rect id="Rectangle-Copy-4" class="cls-2" x="186.5" y="29" width="47" height="7" rx="3.3" ry="3.3"/>
        <path id="Rectangle-Copy-3" class="cls-2" d="M67.8,35h40.5a3.3,3.3,0,0,1,3.3,3.3v.5a3.2,3.2,0,0,1-3.2,3.2H67.8a3.3,3.3,0,0,1-3.2-3.2v-.5A3.3,3.3,0,0,1,67.8,35Z"/>
        <rect id="Rectangle-Copy-5" class="cls-2" x="233.5" y="42" width="47" height="7" rx="3.3" ry="3.3"/>
        <g id="sweep">
          <g id="_" data-name="+" class="cls-3">
            <text class="cls-4" transform="translate(298.5 26)">+</text>
          </g>
          <g id="_-copy" data-name="+-copy" class="cls-3">
            <text class="cls-4" transform="translate(336.5 14)">+</text>
          </g>
        </g>
      </g>
    </g>
  </g>
  <g>
    <path class="cls-5" d="M339.2,16.7a2.9,2.9,0,0,0-2.2-1,3.2,3.2,0,0,0-2.2,1,17.1,17.1,0,0,1-1.1,1.4,67.5,67.5,0,0,0-5.7,7.6.9.9,0,0,0-.2.8.8.8,0,0,0,.4.7,1,1,0,0,0,1.5-.2,63.4,63.4,0,0,1,5.7-7.5,13.4,13.4,0,0,1,1.1-1.4.7.7,0,0,1,1,0c4.8,5.9,20.5,26.1,20.5,36a21,21,0,1,1-41.9,0c0-3.9,1.3-8.6,7.7-18.5a1,1,0,0,0-.3-1.5,1.1,1.1,0,0,0-1.5.3c-5.8,9-8.1,14.5-8.1,19.7a23.1,23.1,0,1,0,46.2,0c0-10.6-16-31.3-20.9-37.4Z"/>
    <path class="cls-5" d="M340.7,38.5h-7.4a1.3,1.3,0,0,0-1.3,1.3v6.1h-6.2a1.3,1.3,0,0,0-1.3,1.3v7.5a1.3,1.3,0,0,0,1.3,1.3H332v6.1a1.3,1.3,0,0,0,1.3,1.4h7.4a1.4,1.4,0,0,0,1.4-1.4V56h6.1a1.3,1.3,0,0,0,1.3-1.3V47.2a1.1,1.1,0,0,0-.4-.9,1.3,1.3,0,0,0-.9-.4h-6.1V39.8A1.3,1.3,0,0,0,340.7,38.5Zm7,9.2v6.5h-7.5v7.4h-6.4V54.2h-7.5V47.7h7.5V40.3h6.4v7.4Z"/>
    <path class="cls-5" d="M310.7,30.3a.7.7,0,0,0-.6.7.6.6,0,0,0,.6.6c3.8.2,4.9,5.3,4.9,5.4a.6.6,0,0,0,.6.5h0a.6.6,0,0,0,.6-.6c.1-3.6,5.1-5.4,5.2-5.4a.7.7,0,0,0,.4-.7.6.6,0,0,0-.6-.5c-3.6-.2-4.9-5.1-5-5.1a.6.6,0,0,0-.6-.5.6.6,0,0,0-.6.6C315.2,29.6,310.8,30.3,310.7,30.3Z"/>
    <path class="cls-5" d="M325.9,24.8a.2.2,0,0,0-.2-.2c-1.3,0-1.8-1.8-1.8-1.8s-.2-.2-.3-.2a.2.2,0,0,0-.2.2,2.2,2.2,0,0,1-1.8,1.9c-.2,0-.2.1-.2.2a.2.2,0,0,0,.2.2c1.4.1,1.8,2,1.8,2l.2.2h0c.2,0,.2-.1.2-.2s1.9-2,2-2S325.9,25,325.9,24.8Z"/>
    <path class="cls-5" d="M318.8,16.5c0-.2-.2-.3-.4-.3s-.3.2-.3.4a3.3,3.3,0,0,1-2.9,2.9c-.2.1-.3.2-.3.4s.1.3.3.4c2.3.1,2.9,3.1,2.9,3.1a.3.3,0,0,0,.3.3h.1a.4.4,0,0,0,.3-.4c0-2,3-3.1,3-3.1s.3-.2.3-.4-.2-.3-.4-.3C319.6,19.4,318.8,16.5,318.8,16.5Z"/>
  </g>
</svg>
