<svg id="Layer_1" data-name="Layer 1" xmlns="http://www.w3.org/2000/svg" xmlns:xlink="http://www.w3.org/1999/xlink" width="70" height="70" viewBox="0 0 70 70">
  <defs>
    <style>
      .cls-1 {
        fill: #f6f6f6;
      }

      .cls-2 {
        fill: url(#linear-gradient);
      }

      .cls-3 {
        fill: url(#linear-gradient-2);
      }

      .cls-4 {
        fill: url(#linear-gradient-3);
      }
    </style>
    <linearGradient id="linear-gradient" x1="51.68" y1="67.49" x2="18.9" y2="-8.41" gradientUnits="userSpaceOnUse">
      <stop offset="0" stop-color="#64dcc2"/>
      <stop offset="1" stop-color="#70bce6"/>
    </linearGradient>
    <linearGradient id="linear-gradient-2" x1="42.13" y1="71.62" x2="9.34" y2="-4.28" xlink:href="#linear-gradient"/>
    <linearGradient id="linear-gradient-3" x1="45.17" y1="70.3" x2="12.39" y2="-5.6" xlink:href="#linear-gradient"/>
  </defs>
  <title>icon_ac_E00</title>
  <path id="Rectangle" class="cls-1" d="M3,0H67a2.9,2.9,0,0,1,3,3V67a2.9,2.9,0,0,1-3,3H3a2.9,2.9,0,0,1-3-3V3A2.9,2.9,0,0,1,3,0Z"/>
  <g>
    <path class="cls-2" d="M26.3,50l2.4.6.3.7-1.2,2.1,2.4,2.5,2.1-1.2.7.3.6,2.3h3.5l.6-2.3.7-.3,2.1,1.2L43,53.4l-1.2-2.1.3-.7,2.3-.6v-.9H54.8V10H15.7V49.1H26.3ZM41,27.6H53.4v2.8l-.5-1H41ZM52.9,26H41V24.2H53.4V27Zm0-3.4H41V20.8H53.4v2.9Zm0-3.3H41V17.5H53.4v2.8Zm0-3.4H41V14.1H53.4v2.8ZM43,48.9l-.7.2-1.4.4v.3a4.3,4.3,0,0,1-.5,1.2l-.2.4,1.1,1.8-.9.9L38.5,53l-.4.2-1.2.5h-.3L36,55.9H34.7l-.5-2.1h-.4l-1.2-.5-.3-.2-1.9,1.1-.9-.9,1.1-1.8-.2-.4a4.3,4.3,0,0,1-.5-1.2v-.3l-1.4-.4-.7-.2V47.7h0l2.1-.5v-.4l.2-.5.3-.7h0l.2-.3-.4-.6-.4-.7-.3-.6.2-.2.7-.7,1.2.7.7.4.3-.2.4-.2.8-.3h.4v-.5l.2-.7.2-.7v-.2H36v.2l.2.7.2.7.2.5h.3l.9.3.3.2.4.2.6-.4.5-.2.7-.5.7.7.2.2-.2.4-.9,1.5.2.3a6.1,6.1,0,0,1,.5,1.2v.4H41l2,.5h0Zm-9.5-9.1-.3,1h-16v-1Zm-4.8,2.4-.9.9H17.2v-.9Zm-.1,2.4.4.6-.2.3H17.2v-.9Zm15.8,3.1V46.5l-2.3-.6-.3-.7.5-1a2.1,2.1,0,0,0,1.9,1.4h6.1a2,2,0,0,0,2-2.1V35.3a2,2,0,0,0-2-2H44.2a2,2,0,0,0-2,2v7.1L41,41.1V31H53.4V47.7Zm-.7-8.4h7.1v4.2c0,.4-.2.6-.5.6H44.2c-.3,0-.5-.2-.5-.6Zm7.1-1.4H43.7V35.3a.6.6,0,0,1,.5-.6h6.1a.6.6,0,0,1,.5.6Zm2.6-24.4-.5-1H41V11.4H53.4ZM39.6,11.4V41.2h-.1v-.5h-2l-.2-1h2.2V38.4H17.2v-.9H39.5V36H17.2v-.9H39.5V33.7H17.2v-1H39.5V31.3H17.2v-.9H39.5V28.9H17.2V28H39.5V26.6H17.2v-1H39.5V24.2H17.2v-.9H39.5V21.8H17.2v-.9H39.5V19.5H17.2v-1H39.5V17.1H17.2v-1H39.5V14.7H17.2v-.9H39.5V12.4H17.2v-1ZM17.2,47.7v-.8h9.1v.8Z"/>
    <path class="cls-3" d="M24.7,54v3a3.1,3.1,0,0,0,3,3H42.9a3.1,3.1,0,0,0,3-3V54H44.5v3a1.6,1.6,0,0,1-1.6,1.6H27.7A1.6,1.6,0,0,1,26.1,57V54Z"/>
    <polygon class="cls-4" points="36.9 46.2 36.2 45.5 35.3 44.6 34.4 45.5 33.7 46.2 33 46.9 32.5 47.4 32.7 47.7 33.6 48.5 34.4 47.7 34.6 47.7 34.6 49.1 34.6 51 36.1 51 36.1 49.1 36.1 47.7 36.2 47.7 37 48.5 37.9 47.7 38.1 47.4 37.6 46.9 36.9 46.2"/>
  </g>
</svg>
