<svg id="Layer_1" data-name="Layer 1" xmlns="http://www.w3.org/2000/svg" xmlns:xlink="http://www.w3.org/1999/xlink" width="374.5" height="89.4" viewBox="0 0 374.5 89.4">
  <defs>
    <style>
      .cls-1 {
        fill: url(#linear-gradient);
      }

      .cls-2, .cls-4, .cls-5 {
        fill: #fff;
      }

      .cls-2 {
        opacity: 0.3;
      }

      .cls-2, .cls-3, .cls-4 {
        isolation: isolate;
      }

      .cls-4 {
        font-size: 16px;
        font-family: Montserrat-Medium, Montserrat;
      }
    </style>
    <linearGradient id="linear-gradient" x1="405.55" y1="126.36" x2="21.53" y2="-32.27" gradientUnits="userSpaceOnUse">
      <stop offset="0" stop-color="#64dcc2"/>
      <stop offset="1" stop-color="#70bce6"/>
    </linearGradient>
  </defs>
  <title>banner_carpentry_C0</title>
  <g id="Page-1">
    <g id="UI---Screen-7---v2">
      <g id="Group-2">
        <path id="Path-4" class="cls-1" d="M0,72.4C71,74,112,68.2,210.5,71c58.9,1.7,113.3,7.8,164,18.4V0H0Z"/>
        <rect id="Rectangle-Copy-2" class="cls-2" x="23.5" y="22" width="47" height="7" rx="3.2" ry="3.2"/>
        <path id="Rectangle-Copy-4" class="cls-2" d="M189.8,29h40.5a3.2,3.2,0,0,1,3.2,3.2v.5a3.2,3.2,0,0,1-3.2,3.2H189.8a3.3,3.3,0,0,1-3.2-3.2v-.5a3.3,3.3,0,0,1,3.3-3.2Z"/>
        <path id="Rectangle-Copy-3" class="cls-2" d="M67.8,35h40.5a3.2,3.2,0,0,1,3.2,3.2v.5a3.2,3.2,0,0,1-3.2,3.2H67.8a3.2,3.2,0,0,1-3.2-3.2v-.5A3.3,3.3,0,0,1,67.8,35Z"/>
        <path id="Rectangle-Copy-5" class="cls-2" d="M236.8,42h40.5a3.2,3.2,0,0,1,3.2,3.2v.5a3.2,3.2,0,0,1-3.2,3.2H236.8a3.2,3.2,0,0,1-3.2-3.2v-.5A3.3,3.3,0,0,1,236.8,42Z"/>
        <g id="sweep">
          <g id="_" data-name="+" class="cls-3">
            <text class="cls-4" transform="translate(298.5 26)">+</text>
          </g>
          <g id="_-copy" data-name="+-copy" class="cls-3">
            <text class="cls-4" transform="translate(336.5 14)">+</text>
          </g>
        </g>
      </g>
    </g>
  </g>
  <g>
    <path class="cls-5" d="M348.5,31.7l2.9.2h.6a5.5,5.5,0,0,0,1.8.2,3,3,0,0,0-.5-5.9,3,3,0,0,0-1.6.5h-.4l-1.8.8-1,.3V14.7H313.1v50h35.4Zm1.4-2.9,1.9-.8.4-.2a2,2,0,0,1,1.1-.3,1.8,1.8,0,0,1,1.8,1.8,1.7,1.7,0,0,1-1.5,1.7h-2.1a15.3,15.3,0,0,0-3-.3H347a23.6,23.6,0,0,0-4.5.8l-2.3.8-.6.3a2.1,2.1,0,0,1-1.2.4,1.7,1.7,0,0,1-1.7-1.3,1.8,1.8,0,0,1,.8-2l.8-.2,1.2.2h.5a13.5,13.5,0,0,0,4.5.4h1.3l1.2-.2,1.5-.4Zm-14.3,3a2.9,2.9,0,0,0,2.8,2.2,3.7,3.7,0,0,0,1.8-.5l.5-.3,2.2-.8.9-.2V49.5a.6.6,0,0,1-.6.6h-1.8a.6.6,0,0,0-.6.6,2.4,2.4,0,1,1-4.7,0,.6.6,0,0,0-.6-.6h-1.8a.6.6,0,0,1-.6-.6V23.3a.6.6,0,0,1,.6-.6h1.8a.6.6,0,0,0,.6-.6,2.4,2.4,0,1,1,4.7,0,.6.6,0,0,0,.6.6h1.8a.6.6,0,0,1,.6.6v5.6a22,22,0,0,1-3.6-.4l-.4-.2a3.7,3.7,0,0,0-2.9.2A2.9,2.9,0,0,0,335.6,31.8ZM347,63.3H314.5V16.2H347V28.5l-1.4.2H345V23.3a1.8,1.8,0,0,0-1.8-1.8H342a3.6,3.6,0,0,0-7.1,0h-1.2a1.8,1.8,0,0,0-1.8,1.8V49.5a1.8,1.8,0,0,0,1.8,1.8h1.2a3.6,3.6,0,0,0,7.1,0h1.2a1.8,1.8,0,0,0,1.8-1.8V31.9l2-.2Z"/>
    <path class="cls-5" d="M334.3,17.8c0,.1-.1.2-.1.3a.4.4,0,0,0-.1.3,1.4,1.4,0,0,0,.2.6.7.7,0,0,0,.6.2h.4l.2-.2h.1c.1-.1.1-.1.1-.2h.1v-.2a.9.9,0,0,0-.3-.6A.9.9,0,0,0,334.3,17.8Z"/>
    <path class="cls-5" d="M344.9,19.2h.4l.2-.2h.1c.1-.1.1-.1.1-.2h.1v-.2a.9.9,0,0,0-.3-.6.9.9,0,0,0-1.2,0c0,.1-.1.2-.1.3a.4.4,0,0,0-.1.3,1.4,1.4,0,0,0,.2.6A.7.7,0,0,0,344.9,19.2Z"/>
    <path class="cls-5" d="M335.3,51a.9.9,0,0,0-1,.1c0,.1-.1.2-.1.3a.4.4,0,0,0-.1.3.8.8,0,0,0,.2.6.9.9,0,0,0,.6.3h.4l.2-.2h.1c.1,0,.1-.1.1-.2h.1v-.2a.9.9,0,0,0-.3-.6Z"/>
    <path class="cls-5" d="M344.9,52.6h.4l.2-.2h.1c.1,0,.1-.1.1-.2h.1v-.2a.9.9,0,0,0-.3-.6h-.2a.9.9,0,0,0-1,.1c0,.1-.1.2-.1.3a.4.4,0,0,0-.1.3.8.8,0,0,0,.2.6A.9.9,0,0,0,344.9,52.6Z"/>
  </g>
</svg>
