<svg id="Layer_1" data-name="Layer 1" xmlns="http://www.w3.org/2000/svg" xmlns:xlink="http://www.w3.org/1999/xlink" width="374.5" height="89.4" viewBox="0 0 374.5 89.4">
  <defs>
    <style>
      .cls-1 {
        fill: url(#linear-gradient);
      }

      .cls-2, .cls-4, .cls-5 {
        fill: #fff;
      }

      .cls-2 {
        opacity: 0.3;
      }

      .cls-2, .cls-3, .cls-4 {
        isolation: isolate;
      }

      .cls-4 {
        font-size: 16px;
        font-family: Montserrat-Medium, Montserrat;
      }
    </style>
    <linearGradient id="linear-gradient" x1="405.55" y1="126.36" x2="21.53" y2="-32.27" gradientUnits="userSpaceOnUse">
      <stop offset="0" stop-color="#75c9b9"/>
      <stop offset="1" stop-color="#72bde5"/>
    </linearGradient>
  </defs>
  <title>banner_housekeeping_H0</title>
  <g id="Page-1">
    <g id="UI---Screen-7---v2">
      <g id="Group-2">
        <path id="Path-4" class="cls-1" d="M0,72.4C71,74,112,68.2,210.5,71c58.9,1.7,113.3,7.8,164,18.4V0H0Z"/>
        <rect id="Rectangle-Copy-2" class="cls-2" x="23.5" y="22" width="47" height="7" rx="3.3" ry="3.3"/>
        <path id="Rectangle-Copy-4" class="cls-2" d="M189.8,29h40.5a3.3,3.3,0,0,1,3.3,3.3v.5a3.2,3.2,0,0,1-3.2,3.2H189.8a3.3,3.3,0,0,1-3.2-3.2v-.5A3.3,3.3,0,0,1,189.8,29Z"/>
        <rect id="Rectangle-Copy-3" class="cls-2" x="64.5" y="35" width="47" height="7" rx="3.3" ry="3.3"/>
        <rect id="Rectangle-Copy-5" class="cls-2" x="233.5" y="42" width="47" height="7" rx="3.3" ry="3.3"/>
        <g id="sweep">
          <g id="_" data-name="+" class="cls-3">
            <text class="cls-4" transform="translate(357.8 26)">+</text>
          </g>
          <g id="_-copy" data-name="+-copy" class="cls-3">
            <text class="cls-4" transform="translate(336.5 14)">+</text>
          </g>
        </g>
      </g>
    </g>
  </g>
  <g>
    <path class="cls-5" d="M310.7,31.5h0v.2h4.4l.2-.2h.1v-.2h0v-.2h0v-.2h-.2v-.2h.1v-.2h0v-.4h-4.6v.4h0v.4h-.1v.4h0v.4h0v.4h0v.8h0v.2h0v.6Zm3.3-1.4h-1.8v-.2h0V30H314Zm-1.8-1.8v-.2h0Z"/>
    <polygon class="cls-5" points="321.3 29.5 321.3 29.3 321.3 28.9 321.3 28.8 321.3 28.4 321.3 28.3 321.3 27.9 321.3 27.8 321.3 27.4 321.3 27.3 321.3 27 321.3 26.9 321.3 26.8 321.2 26.7 321.1 26.7 321.1 26.7 320.9 26.7 320.6 26.7 320.5 26.7 320.1 26.7 320 26.7 319.9 26.7 319.8 26.8 319.8 26.9 319.8 27.4 319.8 27.5 319.8 28 319.8 28.1 319.8 28.6 319.8 28.7 319.8 28.7 319.7 28.8 319.6 28.8 319.5 28.8 319.1 28.7 318.6 28.7 318.5 28.7 318.2 28.8 318.1 28.8 318 28.8 317.9 28.8 317.9 28.7 317.9 28.7 317.9 28.6 317.9 28 317.9 27.5 317.9 27.4 317.9 27 317.9 26.9 317.9 26.9 317.9 26.8 317.8 26.7 317.7 26.7 317.6 26.7 317.5 26.7 317.2 26.7 317.1 26.7 316.8 26.7 316.6 26.7 316.5 26.7 316.4 26.7 316.4 26.8 316.3 26.9 316.3 27 316.4 27.3 316.4 27.4 316.4 27.8 316.4 27.9 316.4 28.3 316.4 28.4 316.4 28.9 316.4 29.3 316.4 29.5 316.4 29.8 316.4 30 316.4 30.4 316.4 30.5 316.4 30.9 316.4 31.5 316.3 31.7 316.3 31.8 316.4 31.9 316.4 32 316.4 32 316.5 32 316.5 32.1 316.6 32.1 316.7 32.1 317.1 32 317.2 32 317.5 32.1 317.6 32.1 317.7 32.1 317.8 32.1 317.9 32 317.9 31.9 317.9 31.7 317.9 31.4 317.9 31.3 317.9 30.8 317.9 30.7 317.9 30.2 317.9 30.1 317.9 30 318 30 318.1 30 318.5 30 319.1 30.1 319.2 30 319.5 30 319.7 30 319.7 30.1 319.8 30.1 319.8 30.2 319.8 30.7 319.8 30.8 319.8 31.3 319.8 31.4 319.8 31.9 319.8 32 319.9 32 320 32.1 320.1 32.1 320.5 32 320.6 32 321 32.1 321.1 32 321.2 32 321.3 32 321.3 31.9 321.3 31.8 321.3 31.7 321.3 31.5 321.3 31.4 321.3 30.9 321.3 30.5 321.3 30.4 321.3 30 321.3 29.8 321.3 29.5"/>
    <polygon class="cls-5" points="323.9 31 323.9 30.5 323.9 30.4 323.9 30.4 324 30.4 324 30.5 324.1 30.6 324.3 30.8 324.4 30.9 324.7 31.2 324.8 31.3 325 31.6 325 31.7 325.3 32 325.4 32.1 325.5 32.1 325.9 32 326.1 32 326.5 32.1 326.6 32.1 327 32.1 327.1 32.1 327.2 32.1 327.2 32 327.2 32 327.2 31.9 326.9 31.6 326.8 31.5 326.5 31.2 326.4 31.1 326.1 30.7 326 30.6 325.7 30.3 325.7 30.2 325.3 29.9 325.3 29.8 325 29.4 324.9 29.4 324.9 29.3 324.9 29.3 325 29.2 325.1 29.1 325.3 28.9 325.3 28.9 325.6 28.5 325.7 28.4 325.9 28.1 326 28 326.3 27.7 326.4 27.6 326.6 27.3 326.7 27.2 327 26.9 327.1 26.8 327.1 26.8 327.1 26.8 327 26.8 326.9 26.7 326.7 26.8 326.5 26.8 326.3 26.7 325.8 26.7 325.7 26.7 325.3 26.7 325.3 26.8 325.2 26.8 324.9 27.1 324.9 27.2 324.6 27.5 324.2 28 324 28.3 323.9 28.4 323.9 28.4 323.9 28.3 323.9 27.9 323.9 27.8 323.8 27.4 323.8 27.2 323.9 27 323.9 26.9 323.9 26.8 323.8 26.8 323.8 26.8 323.7 26.7 323.4 26.7 323.3 26.7 322.9 26.8 322.8 26.8 322.6 26.7 322.5 26.7 322.4 26.7 322.4 26.8 322.4 26.9 322.3 27.3 322.3 27.4 322.4 28.3 322.4 28.4 322.3 28.8 322.3 28.9 322.4 29.3 322.4 29.9 322.3 30 322.3 30.4 322.3 30.5 322.3 31 322.3 31.4 322.3 31.5 322.3 31.7 322.3 31.8 322.3 32 322.3 32 322.4 32.1 322.4 32.1 322.8 32.1 322.9 32 323.3 32.1 323.5 32.1 323.7 32.1 323.8 32 323.8 32 323.9 31.9 323.9 31.8 323.9 31.7 323.9 31.5 323.9 31.4 323.9 31"/>
    <polygon class="cls-5" points="317.1 22.3 317.1 22.5 317.1 23.3 317 23.4 317 23.4 316.8 23.5 316.6 23.5 316.4 23.5 315.9 23.4 315.8 23.5 315.8 23.6 315.8 23.7 315.8 23.8 315.8 24.2 315.8 24.3 315.8 24.7 315.8 24.9 315.8 25 315.8 25.1 315.9 25.1 316 25.2 316.4 25.2 317.5 25.1 317.7 25.1 319.2 25.2 319.4 25.2 319.8 25.2 320.2 25.2 320.2 25.2 320.3 25.1 320.4 25 320.4 24.9 320.4 24.7 320.4 24.3 320.4 24.2 320.4 23.8 320.4 23.7 320.4 23.6 320.4 23.5 320.3 23.5 319.5 23.4 319.4 23.4 319.3 23.4 319.3 23.3 319.2 23.2 319.2 22.5 319.2 22.3 319.3 21.7 319.3 21.5 319.2 20.8 319.2 20.6 319.3 19.9 319.3 18.2 319.3 18 319.3 17.6 319.3 17.4 319.3 17.3 319.2 17.2 319.2 17.1 319.1 17.1 318.9 17.1 318.8 17.1 318.6 17.2 318.3 17.3 318.2 17.4 317.6 17.6 317.4 17.6 316.8 17.9 316.7 17.9 316.3 18 316.2 18.1 316.1 18.1 316 18.2 315.9 18.2 315.9 18.3 315.8 18.4 315.8 18.6 315.9 19 315.9 19.1 315.8 19.4 315.8 19.6 315.8 19.7 315.9 19.8 315.9 19.9 316 19.9 316.2 19.9 316.3 19.9 316.5 19.9 316.9 19.7 317 19.7 317.1 19.8 317.1 19.9 317.1 20 317.1 20.4 317.1 20.6 317.1 20.8 317.1 21.1 317.1 21.3 317.1 21.5 317.1 21.7 317.1 22.3"/>
    <path class="cls-5" d="M359.5,42.7h-.7a3,3,0,0,0-1-1.9,3.4,3.4,0,0,0-1.6-1,7.1,7.1,0,0,0-1-1.4,4.2,4.2,0,0,0-3-1.3h-.4a4.3,4.3,0,0,0-4-2.8,4.1,4.1,0,0,0-3.7,2.4,3.5,3.5,0,0,0-3-1.9,3.4,3.4,0,0,0-3.4,3.3,3.2,3.2,0,0,0-2.4,2.5h-3.5V34.3a.8.8,0,0,0-.7-.8.9.9,0,0,0-.8.8v21h-.4V24.8h.4v6.1a.9.9,0,0,0,.8.8.8.8,0,0,0,.7-.8V17.7a1.2,1.2,0,0,0-1.2-1.3h-.9a1.2,1.2,0,0,0-1.2,1.3V40.6h-.6a1.2,1.2,0,0,0-1.2,1.2v4a1.2,1.2,0,0,0,1.2,1.2h.6v8.3h-.2a1.2,1.2,0,0,0-1.2,1.2v2.6h-2.7a1.2,1.2,0,0,0-1.2,1.2v1.4h-2a2.2,2.2,0,0,0-2.2,2.2,2.1,2.1,0,0,0,.9,1.8l-.3.2a.8.8,0,0,0,0,1.1l.5.2.6-.2.9-.9h.5a.7.7,0,0,0,0,.9l.6.2.5-.2.9-.9h.5a.6.6,0,0,0,.1.9l.5.2.5-.2,1-.9h.4a.6.6,0,0,0,.1.9l.5.2.5-.2,1-.9h.4v.4a.7.7,0,0,0,.7.7.8.8,0,0,0,.8-.7v-.4h.3l1,.9.5.2.5-.2a.6.6,0,0,0,.1-.9h.5l.9.9.5.2.6-.2a.7.7,0,0,0,0-.9h.5l.9.9.6.2.5-.2c.2-.3.3-.7.1-.9h.4l.9.9.6.2.5-.2a.8.8,0,0,0,0-1.1l-.4-.4.5-.6h5.5a.7.7,0,0,0,.7-.7.7.7,0,0,0-.7-.8h-5.3a2.3,2.3,0,0,0-2.2-1.7h-2V60.3a1.2,1.2,0,0,0-1.2-1.2h-2.7V56.5a1.3,1.3,0,0,0-1.2-1.2h-.2V47H357l-1.9,10.3-9.3-4.9a4,4,0,0,0-3.9-3.8,4,4,0,1,0,0,7.9,4.6,4.6,0,0,0,2-.5l10.4,5.5-.2,1.5a.7.7,0,0,1-.5.4h-3.1a.7.7,0,0,0-.7.8.7.7,0,0,0,.7.7h3.1a1.9,1.9,0,0,0,1.9-1.6l.3-1.4a2.5,2.5,0,0,0,1.6-1.1,2,2,0,0,0-.9-2.7h0l2-11.1h1a1.2,1.2,0,0,0,1.2-1.2V43.9A1.2,1.2,0,0,0,359.5,42.7ZM329.9,17.9h.4v5.4h-.4Zm-1.3,38.9h3.1v2.3h-3.1Zm-.4-14.7h.3v1.4h-.3Zm0,3.5V45h.3v.6Zm7.4,15v1.1h-.9a.7.7,0,0,0-.7.8.7.7,0,0,0,.7.7h4.4a.7.7,0,0,1,0,1.4H321.2a.7.7,0,1,1,0-1.4h9.6a.7.7,0,0,0,.8-.7.7.7,0,0,0-.8-.8h-6.1V60.6Zm6.3-5.6a2.5,2.5,0,1,1,0-4.9,2.6,2.6,0,0,1,2.2,1.4l-.8-.5-1-.2a2.1,2.1,0,0,0-1.8,1.1,1.9,1.9,0,0,0-.1,1.5,2,2,0,0,0,1,1.2l.8.4ZM356,60.1c0,.2-.2.3-.4.3h-.3l-13.2-7-.3-.3c0-.2,0-.3.1-.4s.2-.3.4-.3h.3l13.2,7.1A.4.4,0,0,1,356,60.1Zm-3.8-21.5a2.6,2.6,0,0,1,1.9.8,3.5,3.5,0,0,1,.8,1.3c0,.3.3.5.6.6a2.1,2.1,0,0,1,1.3.5,4.1,4.1,0,0,1,.5.9h-3.1a2.8,2.8,0,0,0-2.6-2h-.4a4.1,4.1,0,0,0-.8-1.3A2.5,2.5,0,0,1,352.2,38.6Zm-4.4-2.8a2.6,2.6,0,0,1,2.5,1.8,3.5,3.5,0,0,0-1,.8l-.3.2h-.7a2.7,2.7,0,0,0-1.7.6,3.2,3.2,0,0,0-1.4-1.2A2.7,2.7,0,0,1,347.8,35.8Zm-9.5,3.7h.3a1.6,1.6,0,0,1,1.1.5.9.9,0,0,0,1.1-.1.8.8,0,0,0-.1-1,2.8,2.8,0,0,0-1.5-.8,1.9,1.9,0,0,1,1.9-1.8,1.8,1.8,0,0,1,1.8,1.8v.2c0,.3,0,.5.2.6s.4.3.6.2h.2a1.8,1.8,0,0,1,1.7,1.2,2.5,2.5,0,0,0-.2,1.2.7.7,0,1,0,1.4,0,1.1,1.1,0,0,1,.3-.8h0a1.6,1.6,0,0,1,1.2-.6,1.5,1.5,0,0,1,1.5,1.5.7.7,0,0,0,.7.7h1.1a1.4,1.4,0,0,1,1,.5H342.2v-.9a1.2,1.2,0,0,0-1.2-1.2h-4.2A1.9,1.9,0,0,1,338.3,39.5Zm-6.5,2.6h8.9v1.4h-8.9Zm27.4,3.5H331.8V45H341a1.5,1.5,0,0,0,1.2-.8h17Z"/>
    <path class="cls-5" d="M347.5,31a4.9,4.9,0,0,0,4.9-5,4.9,4.9,0,1,0-9.8,0A4.9,4.9,0,0,0,347.5,31Zm0-8.5a3.5,3.5,0,1,1-3.4,3.5A3.5,3.5,0,0,1,347.5,22.5Z"/>
    <path class="cls-5" d="M351.9,32.8a3,3,0,1,0,3-3A2.9,2.9,0,0,0,351.9,32.8Zm4.4,0a1.5,1.5,0,0,1-1.4,1.5,1.5,1.5,0,0,1-1.5-1.5,1.4,1.4,0,0,1,1.5-1.5A1.4,1.4,0,0,1,356.3,32.8Z"/>
  </g>
</svg>
