<svg id="Layer_1" data-name="Layer 1" xmlns="http://www.w3.org/2000/svg" xmlns:xlink="http://www.w3.org/1999/xlink" width="70" height="70" viewBox="0 0 70 70">
  <defs>
    <style>
      .cls-1 {
        fill: none;
      }

      .cls-2 {
        fill: #f6f6f6;
      }

      .cls-3 {
        clip-path: url(#clip-path);
      }

      .cls-4 {
        fill: url(#linear-gradient);
      }

      .cls-5 {
        fill: url(#linear-gradient-2);
      }

      .cls-6 {
        fill: url(#linear-gradient-3);
      }

      .cls-7 {
        fill: url(#linear-gradient-4);
      }

      .cls-8 {
        fill: url(#linear-gradient-5);
      }

      .cls-9 {
        fill: #fff;
      }
    </style>
    <clipPath id="clip-path">
      <rect class="cls-1" x="11.2" y="10.3" width="49.4" height="49.43"/>
    </clipPath>
    <linearGradient id="linear-gradient" x1="48.38" y1="74.08" x2="11.13" y2="5.05" gradientUnits="userSpaceOnUse">
      <stop offset="0" stop-color="#75c9b9"/>
      <stop offset="1" stop-color="#72bde5"/>
    </linearGradient>
    <linearGradient id="linear-gradient-2" x1="39.56" y1="78.84" x2="2.31" y2="9.81" xlink:href="#linear-gradient"/>
    <linearGradient id="linear-gradient-3" x1="58.08" y1="68.84" x2="20.83" y2="-0.18" xlink:href="#linear-gradient"/>
    <linearGradient id="linear-gradient-4" x1="30.62" y1="83.66" x2="-6.63" y2="14.64" xlink:href="#linear-gradient"/>
    <linearGradient id="linear-gradient-5" x1="30.47" y1="83.74" x2="-6.77" y2="14.72" xlink:href="#linear-gradient"/>
  </defs>
  <title>icon_civil_M0</title>
  <path id="Rectangle" class="cls-2" d="M3,0H67a2.9,2.9,0,0,1,3,3V67a2.9,2.9,0,0,1-3,3H3a2.9,2.9,0,0,1-3-3V3A2.9,2.9,0,0,1,3,0Z"/>
  <g>
    <g class="cls-3">
      <g>
        <path class="cls-4" d="M28.2,10.4H5.2v9.9h23Zm-1.4,8.5H6.6V11.8H26.8Z"/>
        <path class="cls-5" d="M16.8,21H5.2v9.8H16.8Zm-1.4,8.4H6.6v-7h8.8Z"/>
        <path class="cls-6" d="M64.8,30.8V21h-1V20H53.2V8.8H51.8v1.6H29.1v9.9H40.7V21H17.9v9.8h10v1H5.2v9.9h16l.7.7h-4v9.8H40.6v1.1H29.1v9.9h23V53.5h1v9.7H64.8V53.3H61.5V52.2h3.3V42.4H63.1v-.7h1.7V31.8H63.3v-1Zm-18.9,0v6.4H43l-.5.2a.6.6,0,0,0-.1.4v2.4h0a.6.6,0,0,0,.1.4h3.4v7.6l-2.6-1.2-1.2-.5h-.2l-1-.4h-.3l-1-.5h-.1l-4.1-1.8-2.5-1.1-.8-.3-1.4-.7-1-.4-.4-.2h-.2l-.9-.4h-.3L26.8,40l-2.2-1,2.2-.9,1.1-.5h.3l.9-.5h.2l1.2-.6,6.8-2.9.5-.3,2.5-1.1.7-.3.6-.3h.5l1.1-.6h.4l2.3-1v1Zm13.4,8.4h0c0,.2-.1.3-.1.4v.2a.8.8,0,0,1-.2.4h-.1l-.5.4-.2.2H49.2V36.7H57A2.3,2.3,0,0,1,59.3,39Zm-12.2-6h3.5v2.2h-2a.7.7,0,0,0-.6.7v1.1h-.9Zm.9,5.3v1.1H43.6V38.5ZM32.4,33.2l-1,.7h-.9v-.6Zm31-3.8H47.1v-.7a.8.8,0,0,0-.2-.5h-.6l-2.9,1.2h-.1v-7H63.4ZM30.5,11.8H50.6v7.1H30.5ZM19.3,22.4H39.5v7H19.3ZM6.6,33.2H26.8v.5c-1-.1-1.8-.1-2.2.4a6.6,6.6,0,0,1-2.7,2.5c-1.5.7-2.6,1-2.4,2.7a3,3,0,0,0,.4,1H6.6ZM19.3,50.8v-7h4c1.2,1.4.9,1.9,2.1,3.1s3.7-1.5,5.9-.7,4.5,1.5,5.3,1.9,1.1,2,1.9.7l1-1.6v3.6ZM50.6,61.7H30.5v-7H50.6Zm12.8,0H54.5v-7h8.9Zm0-10.9H43.3V48.6l3,1.3a.6.6,0,0,0,.6,0,1.4,1.4,0,0,0,.2-.6V43.8H63.4Zm0-10.5H60.3a2.8,2.8,0,0,0,.3-1.3A3.6,3.6,0,0,0,57,35.4H54.5V33.2h8.9ZM53.1,10.4v9.9H64.8V10.4Zm1.4,1.4h8.9v7.1H54.5Z"/>
        <path class="cls-7" d="M16.8,42.4H5.2v9.8H16.8Zm-1.4,8.4H6.6v-7h8.8Z"/>
        <path class="cls-8" d="M5.2,63.2h23V53.3H5.2Zm1.4-8.5H26.8v7H6.6Z"/>
      </g>
    </g>
    <path class="cls-9" d="M21.8,40.6h-.4a1.9,1.9,0,0,1-.3-1.9,1.5,1.5,0,0,1,1.3-1.3,7.2,7.2,0,0,0,2.2-1.5.8.8,0,0,1,1-.1.7.7,0,0,1,0,1c-.3.3-1.7,1.9-3,2h-.1a1.7,1.7,0,0,0-.1.7.6.6,0,0,1,0,.8A.7.7,0,0,1,21.8,40.6Zm.6-1.1Zm-.2-.2Zm0,0Z"/>
    <path class="cls-9" d="M26.9,45.9h-1l-1.8-3.2a.9.9,0,0,1,.3-1,.8.8,0,0,1,1,.3l1.3,2.5,1.7-.2a.7.7,0,0,1,1,1A3.9,3.9,0,0,1,26.9,45.9Z"/>
  </g>
</svg>
