<svg id="Layer_1" data-name="Layer 1" xmlns="http://www.w3.org/2000/svg" xmlns:xlink="http://www.w3.org/1999/xlink" width="70" height="70" viewBox="0 0 70 70">
  <defs>
    <style>
      .cls-1 {
        fill: #f6f6f6;
      }

      .cls-2 {
        fill: url(#linear-gradient);
      }

      .cls-3 {
        fill: url(#linear-gradient-2);
      }

      .cls-4 {
        fill: url(#linear-gradient-3);
      }
    </style>
    <linearGradient id="linear-gradient" x1="35.44" y1="77.72" x2="-7.56" y2="12.05" gradientUnits="userSpaceOnUse">
      <stop offset="0" stop-color="#75c9b9"/>
      <stop offset="1" stop-color="#72bde5"/>
    </linearGradient>
    <linearGradient id="linear-gradient-2" x1="56.59" y1="63.87" x2="13.59" y2="-1.8" xlink:href="#linear-gradient"/>
    <linearGradient id="linear-gradient-3" x1="68.47" y1="56.09" x2="25.47" y2="-9.58" xlink:href="#linear-gradient"/>
  </defs>
  <title>icon_electrical_E01</title>
  <path id="Rectangle" class="cls-1" d="M3,0H67a2.9,2.9,0,0,1,3,3V67a2.9,2.9,0,0,1-3,3H3a2.9,2.9,0,0,1-3-3V3A2.9,2.9,0,0,1,3,0Z"/>
  <g>
    <path class="cls-2" d="M25,48.6V41.4a1,1,0,0,0-1-1,1,1,0,0,0-.9,1v7.2l-12.8,11a.7.7,0,0,0-.3.6,1.4,1.4,0,0,0,.2.7,1,1,0,0,0,1.4.1l7-6,4.5,2.4v2.9a.9.9,0,0,0,.9.9.9.9,0,0,0,1-.9V57.4L29.5,55l7,6a.7.7,0,0,0,.6.2,1,1,0,0,0,1-1c-.1-.2-.2-.5-.4-.6Zm2.9,5.1L25,55.3V51.2Zm-4.8-2.5v4.1l-3-1.6Z"/>
    <path class="cls-3" d="M52.3,36.4a1,1,0,0,0-1,1,6.3,6.3,0,0,1-1.5,4.4c-1.8,1.7-5,2-9,.7A34.1,34.1,0,0,1,28,34a32.9,32.9,0,0,1-8.5-12.8c-1.3-4-1.1-7.2.7-9s5-2,9-.7A33.7,33.7,0,0,1,42,19.9,39.5,39.5,0,0,1,49.4,30a.9.9,0,0,0,1.2.5,1,1,0,0,0,.5-1.3,39.1,39.1,0,0,0-7.7-10.6A35.9,35.9,0,0,0,29.8,9.7c-4.7-1.6-8.6-1.2-10.9,1.2l-.8.8c-3,2.9-4,7.4-3,12.6a29.3,29.3,0,0,0,8.3,14.3c6.1,6.2,12.1,7.9,16.1,8.3h1.7c3.8,0,7.2-1.1,9.1-3l.8-.8h0a7.9,7.9,0,0,0,2.1-5.8A.9.9,0,0,0,52.3,36.4Zm-9.6,8.5a16,16,0,0,1-3.1,0c-3.6-.3-9.1-1.9-14.9-7.6s-8.9-13.5-7.8-19.2a17.6,17.6,0,0,0,.8,3.7,36.7,36.7,0,0,0,8.9,13.6,35.9,35.9,0,0,0,13.6,8.9A11.4,11.4,0,0,0,42.7,44.9Z"/>
    <path class="cls-4" d="M55.9,21.2a1,1,0,0,0-1.4,0,.9.9,0,0,0,0,1.3v.2l-1.7,1.7a1,1,0,0,0,0,1.4,1.1,1.1,0,0,0,1.3,0L56,24l1.7,1.7-12,12a.9.9,0,0,0-.3.7.7.7,0,0,0,.3.6.9.9,0,0,0,.7.3,1.1,1.1,0,0,0,.7-.3L59.7,26.4a1,1,0,0,0,0-1.4Z"/>
  </g>
</svg>
