<svg id="Layer_1" data-name="Layer 1" xmlns="http://www.w3.org/2000/svg" xmlns:xlink="http://www.w3.org/1999/xlink" width="374.5" height="89.4" viewBox="0 0 374.5 89.4">
  <defs>
    <style>
      .cls-1 {
        fill: url(#linear-gradient);
      }

      .cls-2, .cls-4, .cls-5 {
        fill: #fff;
      }

      .cls-2 {
        opacity: 0.3;
      }

      .cls-2, .cls-3, .cls-4 {
        isolation: isolate;
      }

      .cls-4 {
        font-size: 16px;
        font-family: Montserrat-Medium, Montserrat;
      }
    </style>
    <linearGradient id="linear-gradient" x1="405.55" y1="126.36" x2="21.53" y2="-32.27" gradientUnits="userSpaceOnUse">
      <stop offset="0" stop-color="#64dcc2"/>
      <stop offset="1" stop-color="#70bce6"/>
    </linearGradient>
  </defs>
  <title>banner_ac_E0</title>
  <g id="Page-1">
    <g id="UI---Screen-7---v2">
      <g id="Group-2">
        <path id="Path-4" class="cls-1" d="M0,72.4C71,74,112,68.2,210.5,71c58.9,1.7,113.3,7.8,164,18.4V0H0Z"/>
        <rect id="Rectangle-Copy-2" class="cls-2" x="23.5" y="22" width="47" height="7" rx="3.3" ry="3.3"/>
        <rect id="Rectangle-Copy-4" class="cls-2" x="186.5" y="29" width="47" height="7" rx="3.2" ry="3.2"/>
        <rect id="Rectangle-Copy-3" class="cls-2" x="64.5" y="35" width="47" height="7" rx="3.3" ry="3.3"/>
        <rect id="Rectangle-Copy-5" class="cls-2" x="233.5" y="42" width="47" height="7" rx="3.3" ry="3.3"/>
        <g id="sweep">
          <g id="_" data-name="+" class="cls-3">
            <text class="cls-4" transform="translate(298.5 26)">+</text>
          </g>
          <g id="_-copy" data-name="+-copy" class="cls-3">
            <text class="cls-4" transform="translate(336.5 14)">+</text>
          </g>
        </g>
      </g>
    </g>
  </g>
  <g>
    <path class="cls-5" d="M359,36h-5.7l.5-.2V29.9l-4.5-1.2a16.7,16.7,0,0,0-.8-2l2.3-4-4.1-4.1-4,2.3-2-.8-1.2-4.5h-5.8l-1.2,4.5-2,.8-4-2.3-4.1,4.1,2.3,4a16.7,16.7,0,0,0-.8,2l-4.5,1.2v5.8l.5.2h-5.8a2.8,2.8,0,0,0-2.8,2.7V56.2h50.5V38.7A2.7,2.7,0,0,0,359,36Zm-.4,1.5v1.6a.7.7,0,0,1-.7.7H315.3a.8.8,0,0,1-.8-.7V37.5h44.1Zm-34-1.9-3.8-1V31l4.2-1.1.2-.4a7.2,7.2,0,0,1,1-2.4l.2-.4-2.2-3.8,2.5-2.5,3.8,2.2.3-.2a10.9,10.9,0,0,1,2.5-1h.4l1.1-4.3h3.6l1.1,4.3h.4a10.1,10.1,0,0,1,2.4,1l.4.2,3.8-2.2,2.5,2.5-2.2,3.8.2.4a7.2,7.2,0,0,1,1,2.4l.2.4,4.2,1.1v3.6l-3.9,1-.3.3h-4.3V33.1a4.1,4.1,0,0,0,2.2-3.7,4,4,0,0,0-2.6-3.9.9.9,0,0,0-.7,0,.9.9,0,0,0-.3.6v2.4a.6.6,0,0,1-.5.6.7.7,0,0,1-.7-.6V26.2a.6.6,0,0,0-.3-.6.6.6,0,0,0-.7-.1,4.3,4.3,0,0,0-2.5,3.9,3.9,3.9,0,0,0,2.4,3.7v2.8h-6.6V30.6a1.7,1.7,0,0,0,1.2.5,1.7,1.7,0,0,0,1.7-1.7V27.5a1.8,1.8,0,0,0-1.7-1.7,1.8,1.8,0,0,0-1.6,1h0a1.9,1.9,0,0,0-1.7-.7,4.5,4.5,0,0,0-3.7,1,4.6,4.6,0,0,0-1.6,2.8v1.3l3.2-1.6a.6.6,0,0,1,.6,0,.7.7,0,0,1,.3.5v2.4a.7.7,0,0,0,.7.7h0a1.2,1.2,0,0,0-.8,1.1v1.6H325ZM342,30.5a2,2,0,0,0,2-2v-1a2.9,2.9,0,0,1,.7,1.9,2.7,2.7,0,0,1-1.8,2.5.8.8,0,0,0-.5.7v2.7h-.8V32.7a.7.7,0,0,0-.5-.7,2.8,2.8,0,0,1-1.9-2.6,2.9,2.9,0,0,1,.7-1.8v1A2.1,2.1,0,0,0,342,30.5Zm-10.3-.6c-.1-.1-.3-1.1-1.1-1.5a2.5,2.5,0,0,0-1.8-.2l-.4.2a3.6,3.6,0,0,1,3-.9h.1a.9.9,0,0,1,.8.4v.4h.7v.6l-.6.2a1.3,1.3,0,0,0-.4.9v3.2h-.8a.8.8,0,0,0,.4-.7V30Zm2.8-2.4a.3.3,0,0,1,.3-.3.5.5,0,0,1,.3.3v1.9a.3.3,0,0,1-.3.3.3.3,0,0,1-.3-.3Zm-2.4,7.1v.8h-.5v-.8ZM314.5,54.1h44.1v.7H314.5Zm44.1-3.8H314.5v-.2a.9.9,0,0,1,.8-.8h42.6a.8.8,0,0,1,.7.8Zm-44.1,1.4h44.1v.9H314.5Zm45.9,3.1h-.3V50.1a2.2,2.2,0,0,0-2.2-2.2H315.3a2.2,2.2,0,0,0-2.2,2.2v4.7h-.3V38.7a1.1,1.1,0,0,1,.3-.8v1.2a2.2,2.2,0,0,0,2.2,2.2h42.6a2.2,2.2,0,0,0,2.2-2.2V37.9a1.1,1.1,0,0,1,.3.8Z"/>
    <path class="cls-5" d="M334,56.8a.8.8,0,0,0-1,.2,3.9,3.9,0,0,0-.5,4c.7,1.8.7,2.4.1,3.5a.8.8,0,0,0,.2,1h.4a.6.6,0,0,0,.6-.4c1-1.5.8-2.7.1-4.7a2.8,2.8,0,0,1,.2-2.6A.8.8,0,0,0,334,56.8Z"/>
    <path class="cls-5" d="M337.2,56.8a.8.8,0,0,0-1,.2,3.9,3.9,0,0,0-.5,4c.7,1.8.7,2.4.1,3.5a.8.8,0,0,0,.2,1h.4a.6.6,0,0,0,.6-.4c1-1.5.8-2.7,0-4.7a3,3,0,0,1,.3-2.6A.8.8,0,0,0,337.2,56.8Z"/>
    <path class="cls-5" d="M340.5,56.8a.8.8,0,0,0-1,.2,4.3,4.3,0,0,0-.4,4c.7,1.8.7,2.4,0,3.5a.8.8,0,0,0,.2,1h.4a.5.5,0,0,0,.6-.4c1.1-1.5.9-2.7.1-4.7a2.4,2.4,0,0,1,.3-2.6A.9.9,0,0,0,340.5,56.8Z"/>
  </g>
</svg>
