<svg id="Layer_1" data-name="Layer 1" xmlns="http://www.w3.org/2000/svg" xmlns:xlink="http://www.w3.org/1999/xlink" width="70" height="70" viewBox="0 0 70 70">
  <defs>
    <style>
      .cls-1 {
        fill: #f6f6f6;
      }

      .cls-2 {
        fill: url(#linear-gradient);
      }

      .cls-3 {
        fill: url(#linear-gradient-2);
      }

      .cls-4 {
        fill: url(#linear-gradient-3);
      }

      .cls-5 {
        fill: url(#linear-gradient-4);
      }

      .cls-6 {
        fill: url(#linear-gradient-5);
      }

      .cls-7 {
        fill: url(#linear-gradient-6);
      }

      .cls-8 {
        fill: url(#linear-gradient-7);
      }

      .cls-9 {
        fill: url(#linear-gradient-8);
      }

      .cls-10 {
        fill: url(#linear-gradient-9);
      }

      .cls-11 {
        fill: url(#linear-gradient-10);
      }

      .cls-12 {
        fill: url(#linear-gradient-11);
      }

      .cls-13 {
        fill: url(#linear-gradient-12);
      }

      .cls-14 {
        fill: url(#linear-gradient-13);
      }

      .cls-15 {
        fill: url(#linear-gradient-14);
      }

      .cls-16 {
        fill: url(#linear-gradient-15);
      }

      .cls-17 {
        fill: url(#linear-gradient-17);
      }

      .cls-18 {
        fill: url(#linear-gradient-19);
      }

      .cls-19 {
        fill: url(#linear-gradient-20);
      }

      .cls-20 {
        fill: url(#linear-gradient-21);
      }

      .cls-21 {
        fill: url(#linear-gradient-22);
      }

      .cls-22 {
        fill: url(#linear-gradient-23);
      }

      .cls-23 {
        fill: url(#linear-gradient-24);
      }

      .cls-24 {
        fill: url(#linear-gradient-25);
      }

      .cls-25 {
        fill: url(#linear-gradient-26);
      }

      .cls-26 {
        fill: url(#linear-gradient-27);
      }

      .cls-27 {
        fill: url(#linear-gradient-28);
      }

      .cls-28 {
        fill: url(#linear-gradient-29);
      }

      .cls-29 {
        fill: url(#linear-gradient-30);
      }

      .cls-30 {
        fill: url(#linear-gradient-31);
      }

      .cls-31 {
        fill: url(#linear-gradient-32);
      }

      .cls-32 {
        fill: url(#linear-gradient-33);
      }

      .cls-33 {
        fill: url(#linear-gradient-34);
      }

      .cls-34 {
        fill: url(#linear-gradient-35);
      }

      .cls-35 {
        fill: url(#linear-gradient-37);
      }

      .cls-36 {
        fill: url(#linear-gradient-39);
      }

      .cls-37 {
        fill: url(#linear-gradient-40);
      }

      .cls-38 {
        fill: url(#linear-gradient-41);
      }

      .cls-39 {
        fill: url(#linear-gradient-42);
      }

      .cls-40 {
        fill: url(#linear-gradient-43);
      }

      .cls-41 {
        fill: url(#linear-gradient-44);
      }
    </style>
    <linearGradient id="linear-gradient" x1="63.24" y1="67.15" x2="26.24" y2="3.15" gradientUnits="userSpaceOnUse">
      <stop offset="0" stop-color="#75c9b9"/>
      <stop offset="1" stop-color="#72bde5"/>
    </linearGradient>
    <linearGradient id="linear-gradient-2" x1="63.24" y1="67.15" x2="26.24" y2="3.15" xlink:href="#linear-gradient"/>
    <linearGradient id="linear-gradient-3" x1="47.46" y1="76.27" x2="10.46" y2="12.27" xlink:href="#linear-gradient"/>
    <linearGradient id="linear-gradient-4" x1="47.46" y1="76.27" x2="10.46" y2="12.27" xlink:href="#linear-gradient"/>
    <linearGradient id="linear-gradient-5" x1="58.76" y1="69.74" x2="21.76" y2="5.74" xlink:href="#linear-gradient"/>
    <linearGradient id="linear-gradient-6" x1="58.76" y1="69.74" x2="21.76" y2="5.74" xlink:href="#linear-gradient"/>
    <linearGradient id="linear-gradient-7" x1="57.94" y1="70.21" x2="20.94" y2="6.21" xlink:href="#linear-gradient"/>
    <linearGradient id="linear-gradient-8" x1="57.94" y1="70.21" x2="20.94" y2="6.21" xlink:href="#linear-gradient"/>
    <linearGradient id="linear-gradient-9" x1="62.93" y1="67.33" x2="25.93" y2="3.33" xlink:href="#linear-gradient"/>
    <linearGradient id="linear-gradient-10" x1="62.93" y1="67.33" x2="25.93" y2="3.33" xlink:href="#linear-gradient"/>
    <linearGradient id="linear-gradient-11" x1="61.89" y1="67.93" x2="24.89" y2="3.93" xlink:href="#linear-gradient"/>
    <linearGradient id="linear-gradient-12" x1="61.89" y1="67.93" x2="24.89" y2="3.93" xlink:href="#linear-gradient"/>
    <linearGradient id="linear-gradient-13" x1="46.02" y1="77.1" x2="9.02" y2="13.1" xlink:href="#linear-gradient"/>
    <linearGradient id="linear-gradient-14" x1="46.02" y1="77.1" x2="9.02" y2="13.1" xlink:href="#linear-gradient"/>
    <linearGradient id="linear-gradient-15" x1="44.64" y1="77.9" x2="7.64" y2="13.9" xlink:href="#linear-gradient"/>
    <linearGradient id="linear-gradient-17" x1="49.63" y1="75.02" x2="12.63" y2="11.02" xlink:href="#linear-gradient"/>
    <linearGradient id="linear-gradient-19" x1="48.59" y1="75.62" x2="11.59" y2="11.62" xlink:href="#linear-gradient"/>
    <linearGradient id="linear-gradient-20" x1="48.59" y1="75.62" x2="11.59" y2="11.62" xlink:href="#linear-gradient"/>
    <linearGradient id="linear-gradient-21" x1="37.74" y1="81.89" x2="0.74" y2="17.89" xlink:href="#linear-gradient"/>
    <linearGradient id="linear-gradient-22" x1="37.74" y1="81.89" x2="0.74" y2="17.89" xlink:href="#linear-gradient"/>
    <linearGradient id="linear-gradient-23" x1="36.91" y1="82.37" x2="-0.09" y2="18.37" xlink:href="#linear-gradient"/>
    <linearGradient id="linear-gradient-24" x1="36.91" y1="82.37" x2="-0.09" y2="18.37" xlink:href="#linear-gradient"/>
    <linearGradient id="linear-gradient-25" x1="41.91" y1="79.48" x2="4.91" y2="15.48" xlink:href="#linear-gradient"/>
    <linearGradient id="linear-gradient-26" x1="41.91" y1="79.48" x2="4.91" y2="15.48" xlink:href="#linear-gradient"/>
    <linearGradient id="linear-gradient-27" x1="40.86" y1="80.09" x2="3.86" y2="16.09" xlink:href="#linear-gradient"/>
    <linearGradient id="linear-gradient-28" x1="40.86" y1="80.09" x2="3.86" y2="16.09" xlink:href="#linear-gradient"/>
    <linearGradient id="linear-gradient-29" x1="45.47" y1="77.42" x2="8.47" y2="13.42" xlink:href="#linear-gradient"/>
    <linearGradient id="linear-gradient-30" x1="45.47" y1="77.42" x2="8.47" y2="13.42" xlink:href="#linear-gradient"/>
    <linearGradient id="linear-gradient-31" x1="40.18" y1="80.48" x2="3.18" y2="16.48" xlink:href="#linear-gradient"/>
    <linearGradient id="linear-gradient-32" x1="40.18" y1="80.48" x2="3.18" y2="16.48" xlink:href="#linear-gradient"/>
    <linearGradient id="linear-gradient-33" x1="44.1" y1="78.21" x2="7.1" y2="14.21" xlink:href="#linear-gradient"/>
    <linearGradient id="linear-gradient-34" x1="44.1" y1="78.21" x2="7.1" y2="14.21" xlink:href="#linear-gradient"/>
    <linearGradient id="linear-gradient-35" x1="40.47" y1="80.31" x2="3.47" y2="16.31" xlink:href="#linear-gradient"/>
    <linearGradient id="linear-gradient-37" x1="64.19" y1="66.6" x2="27.19" y2="2.6" xlink:href="#linear-gradient"/>
    <linearGradient id="linear-gradient-39" x1="54.22" y1="72.36" x2="17.22" y2="8.36" xlink:href="#linear-gradient"/>
    <linearGradient id="linear-gradient-40" x1="54.22" y1="72.36" x2="17.22" y2="8.36" xlink:href="#linear-gradient"/>
    <linearGradient id="linear-gradient-41" x1="61.09" y1="68.39" x2="24.09" y2="4.39" xlink:href="#linear-gradient"/>
    <linearGradient id="linear-gradient-42" x1="61.09" y1="68.39" x2="24.09" y2="4.39" xlink:href="#linear-gradient"/>
    <linearGradient id="linear-gradient-43" x1="61.48" y1="68.17" x2="24.48" y2="4.17" xlink:href="#linear-gradient"/>
    <linearGradient id="linear-gradient-44" x1="61.48" y1="68.17" x2="24.48" y2="4.17" xlink:href="#linear-gradient"/>
  </defs>
  <title>icon_horticulture_HR0</title>
  <path id="Rectangle" class="cls-1" d="M3,0H67a2.9,2.9,0,0,1,3,3V67a2.9,2.9,0,0,1-3,3H3a2.9,2.9,0,0,1-3-3V3A2.9,2.9,0,0,1,3,0Z"/>
  <g>
    <g>
      <path class="cls-2" d="M25,29.5l7.7-.8-5.3,5.6a.6.6,0,0,0-.1.8.5.5,0,0,0,.6.4H28a9.4,9.4,0,0,0,4.3-1.8,78.9,78.9,0,0,0,7-5.8l1.6-.2,1.2.5v.2a1.7,1.7,0,0,0,1.8,1.5l9.6-1a2.5,2.5,0,0,0,2.1-1.7,2.1,2.1,0,0,0,.1-1.1,2.2,2.2,0,0,0-.9-1.6,2.3,2.3,0,0,0-1.8-.6l-9.6,1A1.6,1.6,0,0,0,42,26.1a.7.7,0,0,0-.1.5.5.5,0,0,0-.4-.2l-1.7-1.3V22.9a.8.8,0,0,1,.1-.4,1.4,1.4,0,0,0,1,.4,2.3,2.3,0,0,0,1.2-.6l6.5-7.1a1.5,1.5,0,0,0,.6-.9,2.6,2.6,0,0,0-.7-2.6,2.5,2.5,0,0,0-3.5.2l-5.4,5.8a.1.1,0,0,0-.1.1h0l-1.1,1.1-.3.6a1.7,1.7,0,0,0,.4,1.8l.2.2a2,2,0,0,0-.3,1.1l-1.1,1.2a77.6,77.6,0,0,0-8.8,2.1,9.6,9.6,0,0,0-4.1,2.4.8.8,0,0,0-.1.9A.6.6,0,0,0,25,29.5ZM47.5,12.8a1.1,1.1,0,0,1,.3.7v.4l-.2.3-5,5.4-1.5-1.4L46,12.9A1.1,1.1,0,0,1,47.5,12.8ZM36.8,28.2a44.1,44.1,0,0,1-6.3,4.9l4.4-4.7Zm-9-.5a57.4,57.4,0,0,1,9.7-2.5l1.7,1.2Zm12.9-6.4-1.2-1.1a.1.1,0,0,1,0-.2h0l.6-.6,1.5,1.4-.6.6h-.3Zm2.7,5.3h0a.1.1,0,0,1,.1-.1h.9l.2,2h-1a.3.3,0,0,1-.1-.2Zm2.4-.5,7.3-.7a.8.8,0,0,1,.8.2,1,1,0,0,1,.4.7.6.6,0,0,1-.1.4.8.8,0,0,1-.8.7l-7.3.8Z"/>
      <path class="cls-3" d="M27.9,35.8a1.1,1.1,0,0,1-.9-.6,1.1,1.1,0,0,1,.2-1.1L32.1,29l-7.1.8a.9.9,0,0,1-.9-.5.9.9,0,0,1,.1-1.1,9.7,9.7,0,0,1,4.2-2.5,65.6,65.6,0,0,1,8.7-2.1l1-1.1.3-1h0a1.9,1.9,0,0,1-.6-2,4.3,4.3,0,0,1,.4-.7l1.1-1.1h.1l5.4-5.7a3,3,0,0,1,2-1,3.2,3.2,0,0,1,1.9.7,2.7,2.7,0,0,1,.7,2.9,2.1,2.1,0,0,1-.6,1l-6.5,7.1a1.8,1.8,0,0,1-1.3.6c-.4,0-.7,0-.9-.2h0V25l1.7,1.2h0c0-.1,0-.2.1-.2a1.7,1.7,0,0,1,1.6-1.3l9.6-1a2.5,2.5,0,0,1,2,.6,2.9,2.9,0,0,1,1,1.8,4.9,4.9,0,0,1-.1,1.2,2.8,2.8,0,0,1-2.4,1.8l-9.6,1a1.8,1.8,0,0,1-1.4-.4,2.1,2.1,0,0,1-.7-1.3h0l-.9-.4H39.4a67.8,67.8,0,0,1-6.9,5.8A10.9,10.9,0,0,1,28,35.8Zm5.5-7.5-5.8,6.2c-.2.1-.2.3-.1.5s.2.3.4.3a9.4,9.4,0,0,0,4.3-1.8,78.9,78.9,0,0,0,7-5.8h0l1.8-.2h.1l1,.4h.2v.5a1.8,1.8,0,0,0,.6.9.9.9,0,0,0,1,.3l9.6-1a2.3,2.3,0,0,0,1.9-1.5,2.8,2.8,0,0,0,.1-.9,2.4,2.4,0,0,0-.8-1.5,2.2,2.2,0,0,0-1.7-.5l-9.6,1a1.4,1.4,0,0,0-1.2.9V27l-.4-.2-.4-.2-1.9-1.4V22.1l.3.2a1.6,1.6,0,0,0,.9.3,1.5,1.5,0,0,0,1-.4l6.6-7.1a5.9,5.9,0,0,0,.4-.8,2.2,2.2,0,0,0-.6-2.4,2,2,0,0,0-1.5-.6,3,3,0,0,0-1.7.8l-6.5,7-.3.5a1.4,1.4,0,0,0,.4,1.5l.3.3v.2l-.3,1h0L37.4,24h-.1a64.7,64.7,0,0,0-8.8,2.2,8.4,8.4,0,0,0-3.9,2.3.3.3,0,0,0-.1.5.5.5,0,0,0,.5.3h0Zm-4.2,5.9,5.6-6,2.8-.4-.6.6c-2.9,2.5-4.8,4.1-6.4,4.9Zm5.9-5.6-2.9,3.1,3.9-3.2Zm8.6.1h-.2l-.2-.3-.2-1.7a.3.3,0,0,1,.1-.2.3.3,0,0,1,.3-.3h1.1l.3,2.6H43.7Zm-.1-2.1.2,1.6h.5V26.6Zm2.2,1.9-.2-2.6,7.5-.8a1.7,1.7,0,0,1,1,.3,1.3,1.3,0,0,1,.4.9c.1.2,0,.3,0,.5a1.4,1.4,0,0,1-1.1.9Zm.3-2.1.2,1.5,7-.7a1.1,1.1,0,0,0,.7-.6v-.3a.8.8,0,0,0-.2-.5l-.6-.2ZM26.2,28.2l1.5-.7A57.4,57.4,0,0,1,37.4,25h.1l2.3,1.6Zm11.2-2.7a76.9,76.9,0,0,0-7.5,1.8l8.6-1Zm3.5-3.9h-.3l-1.3-1.1a.7.7,0,0,1-.1-.5.3.3,0,0,0,.1-.2l.8-.7L42,20.7l-.8.8c0,.1-.1.1-.3.1Zm-.8-1.9-.4.4,1.2,1.1.4-.5Zm2.5.3-1.9-1.7,5.1-5.5a1.3,1.3,0,0,1,1.9-.2h0a1.5,1.5,0,0,1,.4.9c0,.2,0,.3-.1.4a.8.8,0,0,1-.2.5Zm-1.2-1.8,1.2,1.1,4.8-5.2.2-.3v-.3a.5.5,0,0,0-.3-.5.7.7,0,0,0-1.1.1Z"/>
    </g>
    <g>
      <path class="cls-4" d="M60,54.9a6.7,6.7,0,0,0-5.3-6.2v-.3A6.4,6.4,0,0,0,48.3,42a4.4,4.4,0,0,0-1.6.2,6.1,6.1,0,0,0-4.5-2.5,6.7,6.7,0,0,0-5-2.4,6.5,6.5,0,0,0-5,2.4h-.8a6.5,6.5,0,0,0-5-2.4,6.4,6.4,0,0,0-6.3,5.3,4.3,4.3,0,0,0-1.7,1.3A6.3,6.3,0,0,0,13,48.9l-.4.3A6.2,6.2,0,0,0,10,54.4a5.7,5.7,0,0,0,.3,1.8,5.2,5.2,0,0,0,1.4,2.5l.2.2H58.7l.2-.3A6.6,6.6,0,0,0,60,55ZM48.8,57.5H23.4a5.6,5.6,0,0,1-.9-1.7,3.4,3.4,0,0,1-.2-1.4,4.9,4.9,0,0,1,2-4l.5-.3.3-.2v-.4a4.9,4.9,0,0,1,4.4-4.3h.2L30,45a4.6,4.6,0,0,1,1.8-1.3h.4v-.5a4.9,4.9,0,0,1,.6-1.7l.4-.6.4-.6a5.2,5.2,0,0,1,3.6-1.4,4.8,4.8,0,0,1,4,2l.2.3h.4a5.1,5.1,0,0,1,4,2.3l.3.5.6-.2a4.1,4.1,0,0,1,1.6-.3,5,5,0,0,1,5,5,2.2,2.2,0,0,1-.1.8V50h.8a4.9,4.9,0,0,1,3.5,1.7A6,6,0,0,1,58.6,55h0a5.5,5.5,0,0,1-.7,2.5Zm-36.3,0a5.6,5.6,0,0,1-.9-1.7,7.8,7.8,0,0,1-.2-1.4,5.1,5.1,0,0,1,2-4L14,50l.3-.2v-.3a5.2,5.2,0,0,1,4.5-4.4h.3v-.2A5.9,5.9,0,0,1,21,43.6h.4v-.4a5.1,5.1,0,0,1,9.1-2.4l.2.3h.6a5.4,5.4,0,0,0-.4,1.5,4.3,4.3,0,0,0-1.7,1.2A6.4,6.4,0,0,0,23.8,49l-.4.3a6.4,6.4,0,0,0-2.6,5.1,5.7,5.7,0,0,0,.3,1.8,6.9,6.9,0,0,0,.5,1.3Z"/>
      <path class="cls-5" d="M58.8,59.2h-47l-.3-.3A7.2,7.2,0,0,1,10,56.2a5.5,5.5,0,0,1-.2-1.8A6.6,6.6,0,0,1,12.4,49h.1l.2-.2a7,7,0,0,1,5.5-5.3l1.6-1.2A6.7,6.7,0,0,1,26.4,37a6.6,6.6,0,0,1,5.1,2.4h.6a6.3,6.3,0,0,1,5.1-2.4,6.9,6.9,0,0,1,5.1,2.4,6.3,6.3,0,0,1,4.5,2.4l1.5-.2A6.7,6.7,0,0,1,55,48.4h0a6.7,6.7,0,0,1,5.2,6.4.1.1,0,0,1,.1.1,6.1,6.1,0,0,1-1.2,3.7ZM12,58.7H58.6v-.2A6.1,6.1,0,0,0,59.8,55h-.1A6.2,6.2,0,0,0,58.3,51a5.9,5.9,0,0,0-3.6-2h-.3v-.5a6.2,6.2,0,0,0-6.2-6.2l-1.5.2h-.3A6.4,6.4,0,0,0,42.1,40H42a6.2,6.2,0,0,0-4.8-2.3,5.9,5.9,0,0,0-4.8,2.3H31.2a6,6,0,0,0-4.8-2.3,6.2,6.2,0,0,0-6.1,5v.2h-.1a6.6,6.6,0,0,0-1.7,1.2h-.1a6.3,6.3,0,0,0-5.2,5h-.1l-.3.2h-.1a6.4,6.4,0,0,0-2.4,5,5,5,0,0,0,.2,1.7,7,7,0,0,0,1.3,2.4Zm46.1-1H23.2a4.2,4.2,0,0,1-1-1.7,7.7,7.7,0,0,1-.2-1.5,5.3,5.3,0,0,1,2.1-4.2l.6-.4h.2v-.2A5.1,5.1,0,0,1,29.6,45h.3a4.6,4.6,0,0,1,1.8-1.3h.2v-.3a4.8,4.8,0,0,1,.6-1.8,2.5,2.5,0,0,1,.4-.7l.5-.6a5.6,5.6,0,0,1,3.7-1.5,5.2,5.2,0,0,1,4.2,2.2v.2h.3A4.9,4.9,0,0,1,46,43.3l.2.3.4-.2a4.7,4.7,0,0,1,1.7-.3,5.2,5.2,0,0,1,5.2,5.3v1.4h.5a5,5,0,0,1,3.6,1.8A5.3,5.3,0,0,1,58.8,55h0a4.8,4.8,0,0,1-.7,2.6Zm-34.6-.5H57.8a5.1,5.1,0,0,0,.5-2.2h0a4.4,4.4,0,0,0-1.1-3,4.9,4.9,0,0,0-3.3-1.7H52.8l.2-1.1v-.8a4.8,4.8,0,0,0-4.7-4.8,4.5,4.5,0,0,0-1.6.3l-.7.3-.4-.7a4.5,4.5,0,0,0-3.8-2.1h-.5L41,41a4.6,4.6,0,0,0-3.8-2,4.8,4.8,0,0,0-3.4,1.4l-.4.5-.4.6a3.4,3.4,0,0,0-.5,1.7v.5l-.5.2a6.6,6.6,0,0,0-1.7,1.2l-.2.3h-.4a4.7,4.7,0,0,0-4.2,4.1V50l-.4.3-.5.3a4.7,4.7,0,0,0-1.9,3.8,5.9,5.9,0,0,0,.2,1.3A3.6,3.6,0,0,0,23.5,57.2Zm-1.4.5H12.3a5.1,5.1,0,0,1-.9-1.8,6.8,6.8,0,0,1-.2-1.4,5,5,0,0,1,2.1-4.2l.5-.4h.3v-.2a5.2,5.2,0,0,1,4.6-4.6h.2l.2-.2a4.9,4.9,0,0,1,1.8-1.3h.3V43a5.2,5.2,0,0,1,5.2-4.6,5.3,5.3,0,0,1,4.3,2.2v.2h.9v.4a5.8,5.8,0,0,0-.5,1.4H31A6.6,6.6,0,0,0,29.3,44h-.1A6,6,0,0,0,24,49h-.1l-.3.3a5.8,5.8,0,0,0-2.5,4.9,8.8,8.8,0,0,0,.2,1.7,5.2,5.2,0,0,0,.6,1.3Zm-9.5-.5h8.6l-.3-.9a6.8,6.8,0,0,1-.3-1.9,6.5,6.5,0,0,1,2.7-5.3l.3-.3A6.5,6.5,0,0,1,29,43.6a8.3,8.3,0,0,1,1.6-1.2,3.6,3.6,0,0,1,.4-1.1h-.5l-.2-.4a5,5,0,0,0-3.9-2,4.8,4.8,0,0,0-4.7,4.2v.6l-.5.2a6.6,6.6,0,0,0-1.7,1.2l-.2.3h-.4a4.7,4.7,0,0,0-4.2,4.1V50l-.4.2-.5.4a4.7,4.7,0,0,0-1.9,3.8,3,3,0,0,0,.2,1.3A3.5,3.5,0,0,0,12.6,57.2Z"/>
    </g>
    <g>
      <path class="cls-6" d="M38.5,36a1.4,1.4,0,0,0,1.4,1.4h.8v-.2a1.4,1.4,0,0,0-1.4-1.4h-.8Z"/>
      <path class="cls-7" d="M41,37.7H39.9A1.8,1.8,0,0,1,38.2,36v-.5h1.1A1.8,1.8,0,0,1,41,37.2ZM38.7,36a1.3,1.3,0,0,0,1.2,1.2h.6A1.3,1.3,0,0,0,39.3,36Z"/>
    </g>
    <g>
      <path class="cls-8" d="M35.9,34.6v.2h.8a1.4,1.4,0,0,0,1.4-1.4v-.2h-.8A1.4,1.4,0,0,0,35.9,34.6Z"/>
      <path class="cls-9" d="M36.7,35H35.6v-.4a1.8,1.8,0,0,1,1.7-1.7h1v.5A1.6,1.6,0,0,1,36.7,35Zm-.6-.5h.6a1.1,1.1,0,0,0,1.1-1.1h-.5A1.3,1.3,0,0,0,36.1,34.5Z"/>
    </g>
    <g>
      <path class="cls-10" d="M43.1,31.4v-.8h-.2A1.4,1.4,0,0,0,41.5,32v.8h.2A1.4,1.4,0,0,0,43.1,31.4Z"/>
      <path class="cls-11" d="M41.7,33h-.4V32a1.7,1.7,0,0,1,1.6-1.7h.5v1.1A1.7,1.7,0,0,1,41.7,33Zm1.2-2.2A1.2,1.2,0,0,0,41.8,32v.5a1.1,1.1,0,0,0,1.1-1.1Z"/>
    </g>
    <g>
      <path class="cls-12" d="M44.5,35.4v-.2h-.8a1.4,1.4,0,0,0-1.4,1.4v.2h.8A1.4,1.4,0,0,0,44.5,35.4Z"/>
      <path class="cls-13" d="M43.1,37h-1v-.4a1.7,1.7,0,0,1,1.6-1.7h1.1v.5A1.7,1.7,0,0,1,43.1,37Zm-.5-.5h.5a1.1,1.1,0,0,0,1.2-1.1h-.6A1.1,1.1,0,0,0,42.6,36.5Z"/>
    </g>
    <g>
      <path class="cls-14" d="M22,35.9h.8v-.2a1.4,1.4,0,0,0-1.4-1.4h-.8v.2A1.5,1.5,0,0,0,22,35.9Z"/>
      <path class="cls-15" d="M23.1,36.1H22a1.6,1.6,0,0,1-1.6-1.6V34h1a1.8,1.8,0,0,1,1.7,1.7Zm-2.2-1.6A1.1,1.1,0,0,0,22,35.6h.6a1.2,1.2,0,0,0-1.2-1.1Z"/>
    </g>
    <g>
      <path class="cls-16" d="M17.6,33.7v.2h.9a1.4,1.4,0,0,0,1.4-1.4v-.2h-.8A1.5,1.5,0,0,0,17.6,33.7Z"/>
      <path class="cls-16" d="M18.5,34.2H17.4v-.5a1.6,1.6,0,0,1,1.7-1.6h1v.4A1.7,1.7,0,0,1,18.5,34.2Zm-.6-.5h.6a1.1,1.1,0,0,0,1.1-1.1h-.5A1.1,1.1,0,0,0,17.9,33.7Z"/>
    </g>
    <g>
      <path class="cls-17" d="M24.9,30.5v-.8h-.2a1.4,1.4,0,0,0-1.4,1.4v.8h.2A1.4,1.4,0,0,0,24.9,30.5Z"/>
      <path class="cls-17" d="M23.5,32.2H23V31.1a1.7,1.7,0,0,1,1.7-1.6h.4v1A1.7,1.7,0,0,1,23.5,32.2ZM24.6,30a1.1,1.1,0,0,0-1.1,1.1v.6a1.3,1.3,0,0,0,1.1-1.2Z"/>
    </g>
    <g>
      <path class="cls-18" d="M24.1,35.7v.2h.8a1.4,1.4,0,0,0,1.4-1.4v-.2h-.8A1.4,1.4,0,0,0,24.1,35.7Z"/>
      <path class="cls-19" d="M24.9,36.2H23.8v-.5a1.7,1.7,0,0,1,1.7-1.6h1v.4A1.6,1.6,0,0,1,24.9,36.2Zm-.6-.5h.6A1.1,1.1,0,0,0,26,34.6h-.5A1.3,1.3,0,0,0,24.3,35.7Z"/>
    </g>
    <g>
      <path class="cls-20" d="M14.3,41h-.9v.2a1.5,1.5,0,0,0,1.5,1.4h.8v-.2A1.4,1.4,0,0,0,14.3,41Z"/>
      <path class="cls-21" d="M15.9,42.8h-1a1.6,1.6,0,0,1-1.7-1.6v-.5h1.1a1.7,1.7,0,0,1,1.6,1.7Zm-2.2-1.6a1.1,1.1,0,0,0,1.2,1.1h.5a1.1,1.1,0,0,0-1.1-1.1Z"/>
    </g>
    <g>
      <path class="cls-22" d="M10.8,39.8V40h.8A1.4,1.4,0,0,0,13,38.6v-.2h-.8A1.4,1.4,0,0,0,10.8,39.8Z"/>
      <path class="cls-23" d="M11.6,40.2h-1v-.4a1.7,1.7,0,0,1,1.6-1.7h1.1v.5A1.6,1.6,0,0,1,11.6,40.2Zm-.5-.5h.5a1.1,1.1,0,0,0,1.2-1.1h-.6A1.1,1.1,0,0,0,11.1,39.7Z"/>
    </g>
    <g>
      <path class="cls-24" d="M18.1,36.6v-.8h-.2a1.4,1.4,0,0,0-1.4,1.4V38h.2A1.5,1.5,0,0,0,18.1,36.6Z"/>
      <path class="cls-25" d="M16.7,38.2h-.5v-1a1.8,1.8,0,0,1,1.7-1.7h.4v1.1A1.6,1.6,0,0,1,16.7,38.2ZM17.8,36a1.1,1.1,0,0,0-1.1,1.2v.5a1.1,1.1,0,0,0,1.1-1.1Z"/>
    </g>
    <g>
      <path class="cls-26" d="M17.3,41.8V42h.8a1.4,1.4,0,0,0,1.4-1.4v-.2h-.8A1.4,1.4,0,0,0,17.3,41.8Z"/>
      <path class="cls-27" d="M18.1,42.2H17v-.4a1.8,1.8,0,0,1,1.7-1.7h1v.5A1.6,1.6,0,0,1,18.1,42.2Zm-.6-.5h.6a1,1,0,0,0,1.1-1.1h-.5A1.2,1.2,0,0,0,17.5,41.7Z"/>
    </g>
    <g>
      <path class="cls-28" d="M17.9,30.1h.9v-.2a1.5,1.5,0,0,0-1.5-1.4h-.8v.2A1.4,1.4,0,0,0,17.9,30.1Z"/>
      <path class="cls-29" d="M19,30.3H17.9a1.6,1.6,0,0,1-1.6-1.6v-.5h1A1.7,1.7,0,0,1,19,29.9Zm-2.2-1.6a1,1,0,0,0,1.1,1.1h.6a1.1,1.1,0,0,0-1.2-1.1Z"/>
    </g>
    <g>
      <path class="cls-30" d="M12.6,30.3v-.2h-.8a1.5,1.5,0,0,0-1.4,1.4v.2h.8A1.4,1.4,0,0,0,12.6,30.3Z"/>
      <path class="cls-31" d="M11.2,32h-1v-.5a1.6,1.6,0,0,1,1.6-1.6h1.1v.4A1.7,1.7,0,0,1,11.2,32Zm-.5-.5h.5a1.1,1.1,0,0,0,1.2-1.1h-.6A1.1,1.1,0,0,0,10.7,31.5Z"/>
    </g>
    <g>
      <path class="cls-32" d="M15.2,26.5v-.8H15a1.4,1.4,0,0,0-1.4,1.4v.8h.2A1.4,1.4,0,0,0,15.2,26.5Z"/>
      <path class="cls-33" d="M13.8,28.2h-.5V27.1A1.7,1.7,0,0,1,15,25.5h.5v1A1.8,1.8,0,0,1,13.8,28.2ZM15,26a1.1,1.1,0,0,0-1.2,1.1v.6A1.2,1.2,0,0,0,15,26.5Z"/>
    </g>
    <g>
      <path class="cls-34" d="M15.4,34.4v-.2h-.8a1.5,1.5,0,0,0-1.5,1.4v.2h.8A1.5,1.5,0,0,0,15.4,34.4Z"/>
      <path class="cls-34" d="M13.9,36h-1v-.4a1.7,1.7,0,0,1,1.7-1.7h1v.5A1.6,1.6,0,0,1,13.9,36Zm-.5-.5h.5a1.1,1.1,0,0,0,1.2-1.1h-.5A1.1,1.1,0,0,0,13.4,35.5Z"/>
    </g>
    <g>
      <path class="cls-35" d="M45.6,34.7h.8v-.2A1.4,1.4,0,0,0,45,33.1h-.8v.2A1.4,1.4,0,0,0,45.6,34.7Z"/>
      <path class="cls-35" d="M46.6,35h-1a1.8,1.8,0,0,1-1.7-1.7v-.4H45a1.6,1.6,0,0,1,1.6,1.6Zm-2.2-1.6a1.3,1.3,0,0,0,1.2,1.1h.5A1,1,0,0,0,45,33.4Z"/>
    </g>
    <g>
      <path class="cls-36" d="M32.3,36.9v.2h.8a1.5,1.5,0,0,0,1.4-1.4v-.2h-.8A1.4,1.4,0,0,0,32.3,36.9Z"/>
      <path class="cls-37" d="M33.1,37.3H32v-.4a1.7,1.7,0,0,1,1.7-1.7h1v.5A1.6,1.6,0,0,1,33.1,37.3Zm-.6-.5h.6a1.1,1.1,0,0,0,1.1-1.1h-.5A1.1,1.1,0,0,0,32.5,36.8Z"/>
    </g>
    <g>
      <path class="cls-38" d="M42.2,34.1v-.8H42a1.4,1.4,0,0,0-1.4,1.4v.8h.2A1.4,1.4,0,0,0,42.2,34.1Z"/>
      <path class="cls-39" d="M40.8,35.7h-.4v-1A1.6,1.6,0,0,1,42,33h.5v1.1A1.7,1.7,0,0,1,40.8,35.7ZM42,33.5a1.1,1.1,0,0,0-1.1,1.2v.5A1.1,1.1,0,0,0,42,34.1Z"/>
    </g>
    <g>
      <path class="cls-40" d="M40.7,29.7v-.2h-.8a1.4,1.4,0,0,0-1.4,1.4v.3h.8A1.5,1.5,0,0,0,40.7,29.7Z"/>
      <path class="cls-41" d="M39.3,31.4h-1v-.5a1.6,1.6,0,0,1,1.6-1.6H41v.4A1.7,1.7,0,0,1,39.3,31.4Zm-.5-.5h.5a1.3,1.3,0,0,0,1.2-1.1h-.6A1.1,1.1,0,0,0,38.8,30.9Z"/>
    </g>
  </g>
</svg>
