<?xml version="1.0" encoding="utf-8"?>
<!-- Generator: Adobe Illustrator 22.1.0, SVG Export Plug-In . SVG Version: 6.00 Build 0)  -->
<svg version="1.1" id="Layer_1" xmlns="http://www.w3.org/2000/svg" xmlns:xlink="http://www.w3.org/1999/xlink" x="0px" y="0px"
	 viewBox="0 0 374.5 89.4" style="enable-background:new 0 0 374.5 89.4;" xml:space="preserve">
<style type="text/css">
	.st0{fill:url(#Path-4_1_);}
	.st1{opacity:0.3;fill:#FFFFFF;enable-background:new    ;}
	.st2{fill:#FFFFFF;}
	.st3{font-family:'Montserrat-Medium';}
	.st4{font-size:16px;}
	.st5{enable-background:new    ;}
</style>
<title>banner_amc_silver_1bhk-08</title>
<g id="Page-1">
	<g id="UI---Screen-7---v2">
		<g id="Group-2">
			
				<linearGradient id="Path-4_1_" gradientUnits="userSpaceOnUse" x1="405.5448" y1="-34.3726" x2="21.5247" y2="124.2573" gradientTransform="matrix(1 0 0 -1 0 92)">
				<stop  offset="0" style="stop-color:#75C9B9"/>
				<stop  offset="1" style="stop-color:#72BDE5"/>
			</linearGradient>
			<path id="Path-4" class="st0" d="M0,72.4C71,74,112,68.2,210.5,71c58.9,1.7,113.3,7.8,164,18.4V0H0V72.4z"/>
			<path id="Rectangle-Copy-2" class="st1" d="M26.8,22h40.4c1.8,0,3.3,1.5,3.3,3.3v0.4c0,1.8-1.5,3.3-3.3,3.3H26.8
				c-1.8,0-3.3-1.5-3.3-3.3v-0.4C23.5,23.5,25,22,26.8,22z"/>
			<path id="Rectangle-Copy-4" class="st1" d="M189.8,29h40.4c1.8,0,3.3,1.5,3.3,3.3v0.4c0,1.8-1.5,3.3-3.3,3.3h-40.4
				c-1.8,0-3.3-1.5-3.3-3.3v-0.4C186.5,30.5,188,29,189.8,29z"/>
			<path id="Rectangle-Copy-3" class="st1" d="M67.8,35h40.4c1.8,0,3.3,1.5,3.3,3.3v0.4c0,1.8-1.5,3.3-3.3,3.3H67.8
				c-1.8,0-3.3-1.5-3.3-3.3v-0.4C64.5,36.5,66,35,67.8,35z"/>
			<path id="Rectangle-Copy-5" class="st1" d="M236.8,42h40.4c1.8,0,3.3,1.5,3.3,3.3v0.4c0,1.8-1.5,3.3-3.3,3.3h-40.4
				c-1.8,0-3.3-1.5-3.3-3.3v-0.4C233.5,43.5,235,42,236.8,42z"/>
			<g id="sweep">
				<g id="_">
					<text transform="matrix(1 0 0 1 304.3 26)" class="st2 st3 st4">+</text>
				</g>
				<g id="_-copy">
					<text transform="matrix(1 0 0 1 336.5 14)" class="st2 st3 st4">+</text>
				</g>
			</g>
		</g>
	</g>
</g>
<g>
	<path class="st2" d="M361.6,34.5c-0.7-0.9-1.3-1.9-1.7-2.9c-0.3-1.1-0.4-2.3-0.3-3.4c-0.1-1.6-0.1-3.1-0.9-4.3s-2.3-1.6-3.9-2.2
		c-1.1-0.3-2.1-0.8-3.1-1.4c-0.8-0.7-1.6-1.5-2.2-2.4c-0.8-1.3-1.9-2.4-3.3-3.1c-1.2-0.4-2.8,0-4.4,0.5c-1.1,0.4-2.2,0.7-3.4,0.7
		c-1.2-0.1-2.3-0.3-3.4-0.7c-1.5-0.5-3.1-0.9-4.3-0.5s-2.3,1.7-3.3,3.1c-0.6,0.9-1.4,1.7-2.2,2.4c-1,0.6-2,1.1-3.1,1.4
		c-1.6,0.6-3,1.1-3.9,2.2s-0.8,2.7-0.9,4.4c0.1,1.1-0.1,2.2-0.4,3.3c-0.4,1-0.9,2-1.6,2.9c-0.9,1.3-1.9,2.6-1.9,4.1s1,2.9,1.9,4.2
		c0.7,0.8,1.2,1.8,1.6,2.8c0.3,1.1,0.5,2.3,0.4,3.4c0.1,1.6,0.1,3.2,0.9,4.3s2.3,1.7,3.9,2.2c1.1,0.3,2.1,0.8,3.1,1.4
		c0.8,0.7,1.6,1.6,2.2,2.5c0.8,1.3,1.9,2.3,3.3,3l1.2,0.2c1.1-0.1,2.2-0.3,3.2-0.7c1.1-0.4,2.2-0.6,3.3-0.7c1.2,0.1,2.3,0.3,3.4,0.7
		c1,0.4,2.1,0.6,3.2,0.7l1.2-0.2c1.3-0.7,2.5-1.7,3.3-3c0.6-0.9,1.3-1.8,2.2-2.5c1-0.6,2-1.1,3.1-1.4c1.6-0.5,3-1,3.9-2.2
		s0.8-2.7,0.9-4.3c-0.1-1.1,0-2.3,0.3-3.4c0.4-1,1-2,1.7-2.8c1-1.2,1.6-2.7,1.8-4.2C363.4,37.1,362.5,35.8,361.6,34.5L361.6,34.5z
		 M362.5,38.6c0,1.2-0.9,2.4-1.7,3.6c-0.7,1-1.3,2-1.8,3.1c-0.3,1.2-0.5,2.5-0.4,3.7c0.1,1.3-0.1,2.6-0.7,3.7
		c-0.9,0.9-2.1,1.6-3.4,1.9c-1.2,0.3-2.3,0.8-3.4,1.5c-0.9,0.8-1.7,1.7-2.4,2.7c-0.9,1.2-1.7,2.3-2.8,2.7s-2.3-0.1-3.8-0.5
		c-2.3-1.1-5-1.1-7.3,0c-1.5,0.4-2.8,0.8-3.8,0.5s-1.9-1.5-2.8-2.7c-0.7-1-1.5-2-2.5-2.7c-1-0.7-2.1-1.2-3.3-1.5
		c-1.3-0.3-2.5-1-3.4-1.9c-0.6-1.1-0.8-2.4-0.7-3.7c0.1-1.2-0.1-2.5-0.4-3.7c-0.5-1.1-1.1-2.1-1.8-3.1c-0.8-1.2-1.7-2.4-1.7-3.6
		s0.9-2.4,1.7-3.6c0.8-0.9,1.4-2,1.8-3.1c0.3-1.2,0.5-2.4,0.4-3.6c-0.1-1.3,0.1-2.6,0.7-3.8c0.9-0.9,2.1-1.6,3.4-1.9
		c1.2-0.3,2.3-0.8,3.3-1.5c1-0.7,1.8-1.6,2.5-2.6c0.9-1.2,1.7-2.4,2.8-2.7c1.3-0.2,2.6,0,3.8,0.5c1.2,0.4,2.4,0.6,3.6,0.7
		c1.3-0.1,2.5-0.3,3.7-0.7c1.2-0.5,2.5-0.7,3.8-0.5c1.1,0.3,1.9,1.5,2.8,2.7c0.7,1,1.5,1.8,2.4,2.6c1,0.7,2.2,1.2,3.4,1.5
		c1.3,0.3,2.5,1,3.4,1.9c0.6,1.2,0.8,2.5,0.7,3.8c-0.1,1.2,0.1,2.4,0.4,3.6c0.4,1.1,1,2.2,1.8,3.1C361.6,36.2,362.5,37.4,362.5,38.6
		z"/>
	<polygon class="st2" points="337.1,21.6 337.7,22.1 337.5,23 337.6,22.9 337.6,23.1 338.4,22.7 339.2,23.1 339,22.2 339.7,21.6 
		339.5,21.6 339.6,21.5 338.7,21.3 338.4,20.6 338.4,20.6 338.3,20.5 337.9,21.3 337,21.5 337.2,21.6 	"/>
	<polygon class="st2" points="335.3,23.1 335.3,23.1 334.9,22.6 335.2,21.9 335.1,21.9 335.1,21.8 334.4,22 333.8,21.5 333.8,22.3 
		333.1,22.7 333.3,22.8 333.3,22.8 333.3,22.8 333.2,22.8 333.9,23.1 334.1,23.7 334.1,23.7 334.1,23.8 334.6,23.2 335.4,23.3 	"/>
	<polygon class="st2" points="343.5,22.7 342.9,22.3 342.9,22.3 342.9,22.3 342.9,21.6 342.9,21.7 342.9,21.5 342.3,22 341.5,21.8 
		341.8,22.5 341.3,23.1 341.5,23.1 341.4,23.3 342.2,23.2 342.6,23.8 342.9,23.1 343.6,22.8 343.4,22.8 	"/>
	<path class="st2" d="M358,32.2c-0.3-1.2-0.5-2.5-0.4-3.7c0-1.3,0-2.6-0.6-3.4c-0.9-0.8-1.9-1.4-3.1-1.6c-1.2-0.3-2.3-0.9-3.3-1.6
		c-1-0.7-1.9-1.6-2.5-2.7c-0.7-1-1.5-1.8-2.6-2.4c-0.8-0.3-2,0.1-3.3,0.5c-1.2,0.4-2.5,0.6-3.8,0.7c-1.3-0.1-2.5-0.3-3.7-0.7
		c-1.3-0.4-2.6-0.8-3.4-0.5s-1.6,1.3-2.5,2.4c-0.7,1-1.5,2-2.5,2.7c-1,0.7-2.1,1.3-3.3,1.6c-1.2,0.2-2.2,0.8-3.1,1.6
		c-0.6,0.8-0.6,2.1-0.6,3.4c0,1.3-0.1,2.5-0.5,3.7c-0.4,1.2-1,2.2-1.7,3.2c-0.8,1.1-1.6,2.2-1.6,3.2s0.8,2.1,1.6,3.2
		c0.7,1,1.3,2.1,1.7,3.2c0.4,1.2,0.5,2.4,0.5,3.7c0,1.4,0,2.7,0.6,3.4s1.8,1.2,3.1,1.6c1.2,0.3,2.3,0.9,3.3,1.6
		c1,0.8,1.8,1.7,2.5,2.7c0.9,1.1,1.6,2.2,2.5,2.4c1.1,0.2,2.3,0.1,3.4-0.4c1.2-0.5,2.4-0.7,3.7-0.8c1.3,0.1,2.6,0.3,3.8,0.8
		c0.9,0.3,1.8,0.5,2.7,0.5h0.6c0.9-0.2,1.7-1.3,2.6-2.4c0.7-1,1.5-1.9,2.4-2.7c1.1-0.7,2.2-1.2,3.4-1.6c1.3-0.4,2.6-0.8,3.1-1.6
		s0.6-2,0.6-3.4c-0.1-1.3,0.1-2.6,0.4-3.8c0.5-1.1,1.1-2.2,1.8-3.2c0.8-1.1,1.6-2.2,1.6-3.2s-0.8-2.1-1.6-3.2
		C359.1,34.4,358.5,33.3,358,32.2z M359,41.3c-0.8,1-1.4,2.2-1.9,3.4c-0.4,1.3-0.5,2.6-0.5,4c0.1,1,0,1.9-0.4,2.8
		c-0.8,0.6-1.7,1.1-2.6,1.3c-1.3,0.4-2.5,1-3.6,1.7c-1.1,0.8-2,1.8-2.7,2.9c-0.7,0.9-1.5,1.9-2.1,2.1h-0.3c-0.8-0.1-1.6-0.3-2.4-0.6
		c-2.6-1.1-5.5-1.1-8.1,0c-0.8,0.3-1.6,0.5-2.4,0.6h-0.3c-0.7-0.2-1.4-1.2-2.1-2.1c-0.7-1.1-1.6-2.1-2.7-2.9
		c-1.1-0.7-2.3-1.3-3.6-1.7c-1.1-0.4-2.3-0.8-2.6-1.3c-0.4-0.9-0.5-1.8-0.4-2.8c0-1.3-0.2-2.7-0.5-4c-0.5-1.2-1.1-2.4-1.9-3.4
		c-0.7-0.8-1.2-1.7-1.4-2.7c0.2-1,0.7-1.9,1.4-2.6c0.8-1.1,1.4-2.2,1.9-3.5c0.3-1.3,0.5-2.6,0.5-3.9c0-1.2,0-2.4,0.4-2.9
		s1.5-0.9,2.6-1.3c1.3-0.4,2.5-0.9,3.6-1.7c1.1-0.8,2-1.8,2.7-2.9c0.7-0.9,1.4-1.9,2.1-2.1h0.3c0.8,0.1,1.6,0.2,2.4,0.5
		c1.3,0.5,2.6,0.7,4,0.8c1.4,0,2.8-0.3,4.1-0.8c0.8-0.3,1.6-0.5,2.4-0.5h0.3c0.6,0.2,1.4,1.2,2.1,2.1c0.7,1.1,1.6,2.1,2.7,2.9
		c1.1,0.8,2.3,1.4,3.6,1.7c0.9,0.2,1.8,0.7,2.6,1.3c0.4,0.9,0.5,1.8,0.4,2.8c0,1.4,0.1,2.7,0.5,4c0.4,1.3,1.1,2.5,1.9,3.5
		c0.7,0.7,1.2,1.6,1.4,2.6C360.2,39.6,359.7,40.5,359,41.3z"/>
	<path class="st2" d="M332,33.9c0-0.1-0.1-0.2-0.2-0.3h-2.5c-0.1,0.1-0.2,0.2-0.2,0.3l-1.9,9.5l0,0c0,0.1,0,0.2,0.1,0.2h1.8
		c0.1-0.1,0.1-0.1,0.1-0.2l0.4-2.4h1.9l0.5,2.4c0,0.2,0.1,0.3,0.3,0.3h1.6c0.1-0.1,0.1-0.1,0.1-0.2l0,0L332,33.9z M329.9,39.4
		l0.6-3.7h0.1l0.7,3.7H329.9z"/>
	<path class="st2" d="M342.2,33.5h-2l-0.2,0.2l-1.3,4.3l-1.4-4.3v-0.2H335c0,0.1-0.1,0.1-0.1,0.2s-0.1,0.1-0.1,0.2v9.5
		c0,0.1,0,0.1,0.1,0.2h1.7v-6.3l1.1,3.6c0.1,0,0.1,0.1,0.2,0.2h1.6c0-0.1,0-0.1,0.1-0.1l0,0l1.1-3.6v6.1c0,0.1,0.1,0.2,0.1,0.3h1.6
		c0.1-0.1,0.1-0.2,0.1-0.3v-9.6c0-0.2,0-0.2-0.1-0.3S342.3,33.5,342.2,33.5z"/>
	<path class="st2" d="M349.5,40.5h-1.4l-0.2,0.2v0.2c0,0.2-0.1,0.4-0.2,0.6c-0.1,0.2-0.2,0.4-0.4,0.5h-1.2l-0.4-0.5
		c-0.1-0.2-0.1-0.4-0.1-0.6v-4.8c0-0.2,0-0.4,0.1-0.6c0.1-0.1,0.2-0.3,0.4-0.4h1.2l0.4,0.4c0.1,0.2,0.2,0.4,0.2,0.6l0,0v0.2h1.8
		v-0.2l0,0c0-0.5-0.1-1-0.3-1.4l-0.6-0.7l-0.9-0.5l-0.9-0.2h-0.5c-0.5,0-0.9,0.2-1.3,0.4l-0.8,0.6c-0.2,0.3-0.3,0.6-0.4,0.9
		c-0.1,0.3-0.2,0.6-0.2,0.9V41c0,0.5,0.1,1,0.4,1.4c0.1,0.3,0.3,0.6,0.6,0.8l0.8,0.5l0.9,0.2h0.5c0.5,0,1-0.1,1.4-0.4l0.7-0.7
		c0.2-0.2,0.4-0.5,0.5-0.8c0.1-0.3,0.1-0.7,0.1-1l0,0v-0.2L349.5,40.5z"/>
</g>
<g class="st5">
	<path class="st2" d="M326.4,77.2V69h-1.4v-1.1c0.4,0,0.8-0.2,1.1-0.4s0.6-0.5,0.8-0.9h1.1v10.7H326.4z"/>
</g>
<g class="st5">
	<path class="st2" d="M330.5,76.7v-9.4c0-0.1,0-0.2,0.1-0.3c0.1-0.1,0.1-0.2,0.2-0.2c0.1-0.1,0.2-0.1,0.3-0.1h3.1
		c0.3,0,0.6,0.1,0.9,0.2c0.3,0.2,0.5,0.4,0.7,0.7c0.2,0.3,0.3,0.7,0.3,1l0,1.1c0,0.2,0,0.5-0.1,0.7c-0.1,0.3-0.2,0.5-0.3,0.7
		c-0.2,0.2-0.4,0.4-0.7,0.4c0.5,0.1,0.8,0.3,1,0.7c0.2,0.4,0.4,0.9,0.4,1.5l0,1c0,0.4-0.1,0.7-0.2,1c-0.1,0.3-0.3,0.5-0.5,0.7
		c-0.2,0.2-0.4,0.3-0.6,0.4c-0.3,0.1-0.6,0.2-0.8,0.2h-3.5c-0.1,0-0.2,0-0.2-0.1c-0.1,0-0.1-0.1-0.2-0.2
		C330.5,76.9,330.5,76.8,330.5,76.7z M333.4,71c0.1,0,0.3,0,0.4-0.1c0.1-0.1,0.2-0.2,0.3-0.4c0.1-0.2,0.1-0.4,0.1-0.6l0-0.7
		c0-0.4-0.1-0.6-0.2-0.8c-0.2-0.2-0.4-0.3-0.7-0.3h-0.8c-0.1,0-0.1,0-0.2,0.1s-0.1,0.1-0.1,0.2l0,2.5c0,0.1,0.1,0.1,0.2,0.1
		L333.4,71z M333.6,75.8c0.3-0.1,0.5-0.2,0.7-0.4c0.1-0.2,0.2-0.5,0.2-0.8l0-0.8c0-0.3,0-0.5-0.1-0.7c-0.1-0.2-0.2-0.3-0.4-0.4
		c-0.2-0.1-0.4-0.1-0.6-0.1h-0.9c-0.1,0-0.1,0-0.2,0.1s-0.1,0.1-0.1,0.2l0,2.7c0,0.1,0,0.1,0.1,0.1s0.1,0,0.2,0H333.6z"/>
	<path class="st2" d="M337.6,76.8v-9.7c0-0.1,0-0.1,0.1-0.2c0-0.1,0.1-0.1,0.1-0.1c0.1,0,0.1-0.1,0.2-0.1h1.1c0.1,0,0.2,0,0.3,0.1
		s0.1,0.2,0.1,0.3v3.7l2.8,0v-3.7c0-0.1,0-0.1,0.1-0.2c0-0.1,0.1-0.1,0.2-0.1c0.1,0,0.1-0.1,0.2-0.1h1.1c0.1,0,0.1,0,0.2,0.1
		c0.1,0,0.1,0.1,0.2,0.1c0,0.1,0.1,0.1,0.1,0.2v9.7c0,0.1,0,0.1-0.1,0.2c0,0.1-0.1,0.1-0.2,0.1c-0.1,0-0.1,0.1-0.2,0.1h-1.1
		c-0.1,0-0.1,0-0.2-0.1c-0.1,0-0.1-0.1-0.2-0.1c0-0.1-0.1-0.1-0.1-0.2v-4.2l-2.8,0v4.2c0,0.1,0,0.1-0.1,0.2c0,0.1-0.1,0.1-0.1,0.1
		c-0.1,0-0.1,0.1-0.2,0.1H338c-0.1,0-0.1,0-0.2-0.1c-0.1,0-0.1-0.1-0.1-0.1C337.7,76.9,337.6,76.9,337.6,76.8z"/>
	<path class="st2" d="M345.6,76.9v-9.8c0-0.1,0-0.1,0.1-0.2c0-0.1,0.1-0.1,0.1-0.1c0.1,0,0.1-0.1,0.2-0.1h1.1c0.1,0,0.1,0,0.2,0.1
		s0.1,0.1,0.1,0.1c0,0.1,0,0.1,0,0.2v2.8l1.9-2.9c0.1-0.1,0.1-0.1,0.2-0.2c0.1-0.1,0.2-0.1,0.2-0.1l1.1,0c0.1,0,0.2,0,0.3,0.1
		c0.1,0,0.1,0.1,0.2,0.2c0,0.1,0.1,0.1,0.1,0.2c0,0.1,0,0.2-0.1,0.2l-2.6,4l3.3,5.1c0,0.1,0.1,0.2,0.1,0.3c0,0.1,0,0.2-0.1,0.2
		s-0.1,0.1-0.2,0.2s-0.2,0.1-0.2,0.1h-1.3c-0.1,0-0.2,0-0.2-0.1c-0.1,0-0.1-0.1-0.2-0.2l-2.5-3.9v3.9c0,0.1,0,0.1,0,0.2
		c0,0.1-0.1,0.1-0.1,0.1s-0.1,0.1-0.2,0.1H346c-0.1,0-0.1,0-0.2-0.1c-0.1,0-0.1-0.1-0.1-0.1C345.6,77,345.6,76.9,345.6,76.9z"/>
</g>
</svg>
