<svg id="Layer_1" data-name="Layer 1" xmlns="http://www.w3.org/2000/svg" xmlns:xlink="http://www.w3.org/1999/xlink" width="70" height="70" viewBox="0 0 70 70">
  <defs>
    <style>
      .cls-1 {
        fill: #f6f6f6;
      }

      .cls-2 {
        fill: url(#linear-gradient);
      }

      .cls-3 {
        fill: url(#linear-gradient-2);
      }

      .cls-4 {
        fill: url(#linear-gradient-3);
      }

      .cls-5 {
        fill: url(#linear-gradient-4);
      }
    </style>
    <linearGradient id="linear-gradient" x1="63.29" y1="65.04" x2="37.09" y2="-8.26" gradientUnits="userSpaceOnUse">
      <stop offset="0" stop-color="#75c9b9"/>
      <stop offset="1" stop-color="#72bde5"/>
    </linearGradient>
    <linearGradient id="linear-gradient-2" x1="57.25" y1="67.2" x2="31.04" y2="-6.1" xlink:href="#linear-gradient"/>
    <linearGradient id="linear-gradient-3" x1="26.95" y1="78.04" x2="0.74" y2="4.73" xlink:href="#linear-gradient"/>
    <linearGradient id="linear-gradient-4" x1="45.29" y1="71.48" x2="19.09" y2="-1.83" xlink:href="#linear-gradient"/>
  </defs>
  <title>icon_plumbing_P0</title>
  <path id="Rectangle" class="cls-1" d="M3,0H67a2.9,2.9,0,0,1,3,3V67a2.9,2.9,0,0,1-3,3H3a2.9,2.9,0,0,1-3-3V3A2.9,2.9,0,0,1,3,0Z"/>
  <g>
    <path class="cls-2" d="M51.4,22.6c-.3,0-4.2,6.6-4.2,9.3a4.3,4.3,0,1,0,8.5,0C55.7,29.2,51.7,22.6,51.4,22.6Zm0,12.1a2.8,2.8,0,0,1-2.7-2.8c0-1.3,1.6-4.6,2.7-6.5,1.2,1.9,2.8,5.2,2.8,6.5A2.9,2.9,0,0,1,51.4,34.7Z"/>
    <path class="cls-3" d="M52.1,58a5.2,5.2,0,0,0,5.3-5.2,5.3,5.3,0,0,0-10.6,0A5.2,5.2,0,0,0,52.1,58Zm0-9.2a3.9,3.9,0,0,1,3.9,4,3.8,3.8,0,0,1-3.9,3.9,3.9,3.9,0,0,1-4-3.9A4,4,0,0,1,52.1,48.8Z"/>
    <path class="cls-4" d="M23.2,52.8a5.3,5.3,0,0,0-10.6,0,5.3,5.3,0,0,0,10.6,0Zm-5.3,3.9A3.8,3.8,0,0,1,14,52.8a3.9,3.9,0,0,1,3.9-4,4,4,0,0,1,4,4A3.9,3.9,0,0,1,17.9,56.7Z"/>
    <path class="cls-5" d="M19.5,60.5h.3v-.3a1.6,1.6,0,0,1,.7-.7,1.7,1.7,0,0,1,1,0h.3l.3-.2a13.4,13.4,0,0,0,2.1-2H45.7a12.6,12.6,0,0,0,2,2h.6a1.7,1.7,0,0,1,1,0,1.3,1.3,0,0,1,.6.7l.2.3h.3l1.7.2,1.5-.2H54v-.3a1.6,1.6,0,0,1,.7-.7,1.7,1.7,0,0,1,1,0h.3l.3-.2a8,8,0,0,0,2.3-2.2l.2-.3-.2-.3a1.1,1.1,0,0,1,.1-1,1.3,1.3,0,0,1,.6-.7h.3v-.3a6.2,6.2,0,0,0,0-3.3v-.3l-.3-.2a1.1,1.1,0,0,1-.7-.6h0a1.4,1.4,0,0,1,0-.9v-.3l-.2-.3a6.9,6.9,0,0,0-2.2-2.3l-.3-.2h-.3a1.7,1.7,0,0,1-1,0,1.6,1.6,0,0,1-.7-.7v-.3h-.3a9.1,9.1,0,0,0-3.3,0h-.3v.3a1.3,1.3,0,0,1-.7.6,1.2,1.2,0,0,1-1,.1l-.3-.2-.3.2a20.3,20.3,0,0,0-2.1,2H39V20.5a3.3,3.3,0,0,1,3.3-3.3h1.9a2.7,2.7,0,0,1,1.2.3,3,3,0,0,1,2.1,3v.6h.1a8.1,8.1,0,0,0,7.8,0h0v-.6A11.1,11.1,0,0,0,44.2,9.3H42.3A11.3,11.3,0,0,0,31,20.5V48.1H24.3a9.1,9.1,0,0,0-2-1.9L22,46h-.3a1.7,1.7,0,0,1-1,0,1.1,1.1,0,0,1-.6-.7l-.2-.3h-.3a8.6,8.6,0,0,0-3.2,0H16v.3a1.3,1.3,0,0,1-.7.6,1.1,1.1,0,0,1-1,.1l-.3-.2-.3.2a8.4,8.4,0,0,0-2.3,2.3l-.2.3.2.3a1,1,0,0,1-.1.9,1.1,1.1,0,0,1-.6.7l-.3.2v.3a5.8,5.8,0,0,0,0,3.2v.4h.3a1.2,1.2,0,0,1,.7.7,1.4,1.4,0,0,1,0,.9v.4l.2.2a7.2,7.2,0,0,0,2.2,2.4h.6a1.2,1.2,0,0,1,1,.1,1.3,1.3,0,0,1,.7.6v.3h.3l1.7.2Zm27.1-10a3.1,3.1,0,0,0,.2-1.6,5.4,5.4,0,0,1,1.5-1.5,2.5,2.5,0,0,0,2.8-1.1,5,5,0,0,1,2.1,0A2.8,2.8,0,0,0,56,47.5,5.4,5.4,0,0,1,57.5,49a2,2,0,0,0,.1,1.5,2.2,2.2,0,0,0,1,1.3,7.4,7.4,0,0,1,0,2.1,2.3,2.3,0,0,0-1,1.2,2.2,2.2,0,0,0-.2,1.6,10.6,10.6,0,0,1-1.5,1.5,2.2,2.2,0,0,0-1.6.1,2.3,2.3,0,0,0-1.2,1,7.4,7.4,0,0,1-2.1,0,2.5,2.5,0,0,0-1.2-1.1,2.9,2.9,0,0,0-1.6-.1,5.4,5.4,0,0,1-1.5-1.5,2.9,2.9,0,0,0-.1-1.6,2.9,2.9,0,0,0-1-1.2,7.4,7.4,0,0,1,0-2.1A2.3,2.3,0,0,0,46.6,50.5Zm-22-1h7.8v-29a9.9,9.9,0,0,1,9.9-9.9h1.9A10.1,10.1,0,0,1,51,13.3a10,10,0,0,1,3.1,6.6H48.8a4.6,4.6,0,0,0-3-3.7,4.1,4.1,0,0,0-1.6-.3H42.3a4.7,4.7,0,0,0-4.7,4.6v29h7.9s0,.3-.1.4a1.2,1.2,0,0,1-.7.7l-.3.2v.3a6.9,6.9,0,0,0-.1,3.2v.4h.3a1.6,1.6,0,0,1,.7.7c0,.2.1.6,0,.6H24.5a1.3,1.3,0,0,1,.1-.5,1.6,1.6,0,0,1,.7-.7h.3v-.3a7.4,7.4,0,0,0,.1-3.3v-.3l-.3-.2a1.3,1.3,0,0,1-.7-.6C24.6,49.9,24.5,49.5,24.6,49.5Zm-7.8,9.8a2.5,2.5,0,0,0-1.2-1.1,2.9,2.9,0,0,0-1.6-.1,5.4,5.4,0,0,1-1.5-1.5,2.2,2.2,0,0,0-.1-1.6,2.3,2.3,0,0,0-1-1.2,7.4,7.4,0,0,1,0-2.1,2.3,2.3,0,0,0,1-1.2,2.3,2.3,0,0,0,.2-1.6,5.4,5.4,0,0,1,1.5-1.5,2.9,2.9,0,0,0,1.6-.1,2.9,2.9,0,0,0,1.2-1,5,5,0,0,1,2.1,0,2.8,2.8,0,0,0,2.8,1.2A5.4,5.4,0,0,1,23.3,49a2.6,2.6,0,0,0,.1,1.5,2.7,2.7,0,0,0,1,1.3,7.4,7.4,0,0,1,0,2.1,2.3,2.3,0,0,0-1,1.2,2.9,2.9,0,0,0-.2,1.6,10.6,10.6,0,0,1-1.5,1.5,2.2,2.2,0,0,0-1.6.1,2.3,2.3,0,0,0-1.2,1A7.4,7.4,0,0,1,16.8,59.3Z"/>
  </g>
</svg>
