<?xml version="1.0" encoding="utf-8"?>
<!-- Generator: Adobe Illustrator 16.0.0, SVG Export Plug-In . SVG Version: 6.00 Build 0)  -->
<!DOCTYPE svg PUBLIC "-//W3C//DTD SVG 1.1//EN" "http://www.w3.org/Graphics/SVG/1.1/DTD/svg11.dtd">
<svg version="1.1" id="Capa_1" xmlns="http://www.w3.org/2000/svg" xmlns:xlink="http://www.w3.org/1999/xlink" x="0px" y="0px"
	 width="24px" height="24px" viewBox="12.5 36.5 24 24" enable-background="new 12.5 36.5 24 24" xml:space="preserve">
<g>
	<g>
		<path fill="#333333" d="M35.666,56.083c0.254,0,0.461-0.206,0.461-0.462v-18.66c0-0.254-0.207-0.461-0.461-0.461H19.701
			c-0.256,0-0.462,0.207-0.462,0.461v20.862c-0.001,0.333,0.062,0.663,0.185,0.974c-0.002,0.019-0.002,0.037,0,0.056
			c0.413,1.001,1.391,1.652,2.474,1.647h13.769c0.254,0,0.461-0.207,0.461-0.461c0-0.256-0.207-0.462-0.461-0.462H21.897
			c-0.427-0.007-0.837-0.171-1.149-0.462h10.099c0.255,0,0.462-0.207,0.462-0.461c0-0.256-0.207-0.462-0.462-0.462H20.203
			c-0.026-0.121-0.041-0.245-0.041-0.369c0-0.12,0.013-0.239,0.037-0.355h7.592c0.256,0,0.462-0.206,0.462-0.462
			c0-0.254-0.206-0.461-0.462-0.461H20.73c0.316-0.295,0.734-0.46,1.167-0.462H35.666z M20.158,55.797V37.423h15.045v17.724H21.897
			C21.258,55.146,20.641,55.377,20.158,55.797z"/>
	</g>
</g>
<g>
	<g>
		<path fill="#333333" d="M18.391,39.08c0-0.501-0.4-0.91-0.9-0.924h-3.692c-0.511,0-0.923,0.414-0.923,0.924v1.348
			c0.001,0.162,0.046,0.322,0.129,0.461c-0.083,0.141-0.128,0.3-0.129,0.462v10.38c-0.001,0.016-0.001,0.031,0,0.047
			c-0.006,0.04,0.004,0.081,0.027,0.115c0,0,0,0.023,0,0.037l2.308,4.873c0.108,0.23,0.384,0.33,0.614,0.222
			c0.098-0.046,0.176-0.124,0.221-0.222l2.309-4.873c0,0,0-0.023,0-0.037c0.012-0.055,0.023-0.107,0.037-0.162v-10.38
			c-0.002-0.162-0.047-0.321-0.13-0.462c0.083-0.139,0.128-0.299,0.13-0.461V39.08z M13.798,41.351h1.384v9.479l-1.384,0.324V41.351
			z M15.644,55.533l-0.268-0.572l0.268-0.254l0.269,0.254L15.644,55.533z M16.326,54.09l-0.363-0.352
			c-0.179-0.17-0.459-0.17-0.638,0l-0.364,0.352L14,52.054l1.648-0.383l1.647,0.383L16.326,54.09z M17.49,51.158l-1.385-0.322
			v-9.485h1.385V51.158z M17.49,40.428v0.004h-3.692V39.08h3.692V40.428z"/>
	</g>
</g>
<text transform="matrix(1 0 0 1 25.3994 41.9443)"><tspan x="0" y="0" fill="#333333" font-family="'CooperBlack'" font-size="5.055">A</tspan><tspan x="0" y="5.066" fill="#333333" font-family="'CooperBlack'" font-size="5.055">M</tspan><tspan x="0" y="10.132" fill="#333333" font-family="'CooperBlack'" font-size="5.055">C</tspan></text>
</svg>
