<svg id="Layer_1" data-name="Layer 1" xmlns="http://www.w3.org/2000/svg" xmlns:xlink="http://www.w3.org/1999/xlink" width="70" height="70" viewBox="0 0 70 70">
  <defs>
    <style>
      .cls-1 {
        fill: #f6f6f6;
      }

      .cls-2 {
        fill: url(#linear-gradient);
      }

      .cls-3 {
        fill: url(#linear-gradient-3);
      }

      .cls-4 {
        fill: url(#linear-gradient-4);
      }

      .cls-5 {
        fill: url(#linear-gradient-5);
      }
    </style>
    <linearGradient id="linear-gradient" x1="46.9" y1="75.13" x2="24.38" y2="-0.83" gradientUnits="userSpaceOnUse">
      <stop offset="0" stop-color="#75c9b9"/>
      <stop offset="1" stop-color="#72bde5"/>
    </linearGradient>
    <linearGradient id="linear-gradient-3" x1="42.39" y1="76.46" x2="19.87" y2="0.51" xlink:href="#linear-gradient"/>
    <linearGradient id="linear-gradient-4" x1="51.26" y1="73.83" x2="28.74" y2="-2.12" xlink:href="#linear-gradient"/>
    <linearGradient id="linear-gradient-5" x1="46.89" y1="75.13" x2="24.37" y2="-0.82" xlink:href="#linear-gradient"/>
  </defs>
  <title>icon_plumbing_P0</title>
  <path id="Rectangle" class="cls-1" d="M3,0H67a2.9,2.9,0,0,1,3,3V67a2.9,2.9,0,0,1-3,3H3a2.9,2.9,0,0,1-3-3V3A2.9,2.9,0,0,1,3,0Z"/>
  <g>
    <path class="cls-2" d="M16.7,7.5A2.7,2.7,0,0,0,14,10.3V59.8a2.7,2.7,0,0,0,2.7,2.7H53.3A2.7,2.7,0,0,0,56,59.8V10.3a2.7,2.7,0,0,0-2.7-2.8Zm37.5,2.8V59.8a.9.9,0,0,1-.9.9H16.7a.9.9,0,0,1-.9-.9V10.3a.9.9,0,0,1,.9-1H53.3A.9.9,0,0,1,54.2,10.3Z"/>
    <path class="cls-2" d="M51.4,11.2H18.6a1,1,0,0,0-1,.9V57.9a1,1,0,0,0,1,.9H51.4a1,1,0,0,0,1-.9V12.1A1,1,0,0,0,51.4,11.2ZM50.5,57h-31V13h31Z"/>
    <path class="cls-3" d="M22.2,23.4a.7.7,0,0,0,.6-.3l6.5-6.5a.9.9,0,0,0,.2-.9c0-.3-.3-.5-.6-.6a1,1,0,0,0-.9.2l-6.5,6.5a1.2,1.2,0,0,0-.2,1A1,1,0,0,0,22.2,23.4Z"/>
    <path class="cls-4" d="M40.7,55.2a.9.9,0,0,0,1.3,0l6.5-6.5a.9.9,0,1,0-1.3-1.3l-6.5,6.5A1.1,1.1,0,0,0,40.7,55.2Z"/>
    <path class="cls-5" d="M25.2,44.8a.9.9,0,0,0,1.3,0L44.8,26.5a1,1,0,0,0,0-1.3.9.9,0,0,0-1.3,0L25.2,43.5A1,1,0,0,0,25.2,44.8Z"/>
  </g>
</svg>
