<svg id="Layer_1" data-name="Layer 1" xmlns="http://www.w3.org/2000/svg" xmlns:xlink="http://www.w3.org/1999/xlink" width="70" height="70" viewBox="0 0 70 70">
  <defs>
    <style>
      .cls-1 {
        fill: #f6f6f6;
      }

      .cls-2 {
        fill: url(#linear-gradient);
      }

      .cls-3 {
        fill: url(#linear-gradient-2);
      }

      .cls-4 {
        fill: url(#linear-gradient-3);
      }

      .cls-5 {
        fill: url(#linear-gradient-4);
      }
    </style>
    <linearGradient id="linear-gradient" x1="49.52" y1="69.73" x2="12.33" y2="-3.2" gradientUnits="userSpaceOnUse">
      <stop offset="0" stop-color="#64dcc2"/>
      <stop offset="1" stop-color="#70bce6"/>
    </linearGradient>
    <linearGradient id="linear-gradient-2" x1="41.32" y1="73.92" x2="4.13" y2="0.99" xlink:href="#linear-gradient"/>
    <linearGradient id="linear-gradient-3" x1="43.85" y1="72.62" x2="6.66" y2="-0.31" xlink:href="#linear-gradient"/>
    <linearGradient id="linear-gradient-4" x1="46.51" y1="71.27" x2="9.32" y2="-1.66" xlink:href="#linear-gradient"/>
  </defs>
  <title>icon_ac_E00</title>
  <path id="Rectangle" class="cls-1" d="M3,0H67a2.9,2.9,0,0,1,3,3V67a2.9,2.9,0,0,1-3,3H3a2.9,2.9,0,0,1-3-3V3A2.9,2.9,0,0,1,3,0Z"/>
  <g>
    <path class="cls-2" d="M57.4,30H51.7l.5-.2V24l-4.5-1.3a15.4,15.4,0,0,0-.8-1.9l2.3-4.1-4.1-4-4,2.3-2-.9L37.9,9.6H32.1l-1.2,4.5a12.1,12.1,0,0,0-2,.9l-4-2.3-4.1,4,2.3,4.1a15.4,15.4,0,0,0-.8,1.9L17.7,24v5.7l.6.2H12.5a2.8,2.8,0,0,0-2.8,2.8V50.3H60.2V32.8A2.7,2.7,0,0,0,57.4,30ZM57,31.5v1.6a.8.8,0,0,1-.7.8H13.7a.9.9,0,0,1-.8-.8V31.5a.1.1,0,0,0,.1-.1H57ZM23,29.7l-3.8-1.1V25.1l4.2-1.2v-.4a12.8,12.8,0,0,1,1.1-2.4l.2-.4L22.6,17l2.5-2.5,3.8,2.1.3-.2,2.5-1h.4l1.1-4.2h3.6l1.1,4.2h.4a17.3,17.3,0,0,1,2.4,1l.4.2,3.8-2.1L47.4,17l-2.2,3.7.2.4a12.2,12.2,0,0,1,1,2.4v.4l4.3,1.2v3.5l-3.9,1.1-.3.2H42.3V27.1a4.2,4.2,0,0,0,2.2-3.7,4.1,4.1,0,0,0-2.6-3.9.6.6,0,0,0-.7.1.6.6,0,0,0-.3.6v2.4a.5.5,0,0,1-.5.5.7.7,0,0,1-.7-.5V20.2a.7.7,0,0,0-.3-.6h-.7a4.3,4.3,0,0,0-2.5,3.9,4.2,4.2,0,0,0,2.4,3.8v2.7H32V24.6a1.4,1.4,0,0,0,1.2.6,1.8,1.8,0,0,0,1.7-1.8V21.6a1.7,1.7,0,0,0-3.3-.8h0a2.3,2.3,0,0,0-1.8-.7,4.7,4.7,0,0,0-3.6,1A4.5,4.5,0,0,0,24.6,24v1.3l3.2-1.7h.6a.9.9,0,0,1,.3.5v2.5a.8.8,0,0,0,.7.7h0a1.1,1.1,0,0,0-.8,1.1v1.5H23.4Zm17.4-5.1a2,2,0,0,0,2-2V21.5a3.2,3.2,0,0,1,.7,1.9A2.8,2.8,0,0,1,41.3,26c-.3,0-.5.3-.5.7v2.6H40V26.7a.8.8,0,0,0-.5-.7,2.8,2.8,0,0,1-1.9-2.6,2.9,2.9,0,0,1,.7-1.8v1A2.1,2.1,0,0,0,40.4,24.6ZM30,23.9a2.3,2.3,0,0,0-1-1.5,2.1,2.1,0,0,0-1.8-.1h-.4a3.6,3.6,0,0,1,3-.8h.1a.6.6,0,0,1,.8.3v.4h.7v.5l-.6.2a1.3,1.3,0,0,0-.4.9v3.2h-.8a.7.7,0,0,0,.4-.6V24Zm2.9-2.3a.3.3,0,0,1,.3-.3.3.3,0,0,1,.3.3v1.8a.3.3,0,0,1-.3.3.3.3,0,0,1-.3-.3Zm-2.4,7.1v.7H30v-.7ZM12.9,48.1H57v.7H12.9ZM57,44.3H12.9v-.2a.8.8,0,0,1,.8-.7H56.3a.7.7,0,0,1,.7.7ZM12.9,45.7H57v1H12.9Zm45.9,3.1h-.3V44.1a2.2,2.2,0,0,0-2.2-2.2H13.7a2.2,2.2,0,0,0-2.2,2.2v4.7h-.3v-16a1.2,1.2,0,0,1,.3-.9v1.2a2.2,2.2,0,0,0,2.2,2.2H56.3a2.2,2.2,0,0,0,2.2-2.2V32a1.1,1.1,0,0,1,.3.8Z"/>
    <path class="cls-3" d="M32.4,50.9a.7.7,0,0,0-1,.1,4.1,4.1,0,0,0-.5,4c.7,1.9.7,2.5.1,3.5a.8.8,0,0,0,.2,1h.4a.7.7,0,0,0,.6-.3c1-1.6.8-2.8,0-4.8a3,3,0,0,1,.3-2.6A.8.8,0,0,0,32.4,50.9Z"/>
    <path class="cls-4" d="M35.6,50.9a.7.7,0,0,0-1,.1,4.1,4.1,0,0,0-.5,4c.7,1.9.7,2.5.1,3.5a.8.8,0,0,0,.2,1h.4a.9.9,0,0,0,.6-.3c1-1.6.8-2.8,0-4.8a3.1,3.1,0,0,1,.3-2.6A.8.8,0,0,0,35.6,50.9Z"/>
    <path class="cls-5" d="M38.9,50.9a.7.7,0,0,0-1,.1,4.7,4.7,0,0,0-.5,4c.8,1.9.8,2.5.1,3.5a.8.8,0,0,0,.2,1h.4a.6.6,0,0,0,.6-.3c1.1-1.6.9-2.8.1-4.8a2.4,2.4,0,0,1,.3-2.6A.8.8,0,0,0,38.9,50.9Z"/>
  </g>
</svg>
