<svg id="Layer_1" data-name="Layer 1" xmlns="http://www.w3.org/2000/svg" xmlns:xlink="http://www.w3.org/1999/xlink" width="70" height="70" viewBox="0 0 70 70">
  <defs>
    <style>
      .cls-1 {
        fill: #f6f6f6;
      }

      .cls-2 {
        fill: url(#linear-gradient);
      }

      .cls-3 {
        fill: url(#linear-gradient-2);
      }

      .cls-4 {
        fill: url(#linear-gradient-3);
      }

      .cls-5 {
        fill: url(#linear-gradient-4);
      }

      .cls-6 {
        fill: url(#linear-gradient-5);
      }

      .cls-7 {
        fill: url(#linear-gradient-6);
      }

      .cls-8 {
        fill: url(#linear-gradient-7);
      }

      .cls-9 {
        fill: url(#linear-gradient-8);
      }

      .cls-10 {
        fill: url(#linear-gradient-9);
      }

      .cls-11 {
        fill: url(#linear-gradient-10);
      }

      .cls-12 {
        fill: url(#linear-gradient-11);
      }

      .cls-13 {
        fill: url(#linear-gradient-12);
      }

      .cls-14 {
        fill: url(#linear-gradient-13);
      }

      .cls-15 {
        fill: url(#linear-gradient-14);
      }

      .cls-16 {
        fill: url(#linear-gradient-15);
      }

      .cls-17 {
        fill: url(#linear-gradient-16);
      }

      .cls-18 {
        fill: url(#linear-gradient-17);
      }

      .cls-19 {
        fill: url(#linear-gradient-18);
      }

      .cls-20 {
        fill: url(#linear-gradient-19);
      }

      .cls-21 {
        fill: url(#linear-gradient-20);
      }

      .cls-22 {
        fill: url(#linear-gradient-21);
      }

      .cls-23 {
        fill: url(#linear-gradient-22);
      }

      .cls-24 {
        fill: url(#linear-gradient-23);
      }

      .cls-25 {
        fill: url(#linear-gradient-24);
      }

      .cls-26 {
        fill: url(#linear-gradient-25);
      }

      .cls-27 {
        fill: url(#linear-gradient-26);
      }

      .cls-28 {
        fill: url(#linear-gradient-27);
      }

      .cls-29 {
        fill: url(#linear-gradient-28);
      }

      .cls-30 {
        fill: url(#linear-gradient-29);
      }

      .cls-31 {
        fill: url(#linear-gradient-30);
      }

      .cls-32 {
        fill: url(#linear-gradient-31);
      }

      .cls-33 {
        fill: url(#linear-gradient-32);
      }

      .cls-34 {
        fill: url(#linear-gradient-33);
      }

      .cls-35 {
        fill: url(#linear-gradient-34);
      }

      .cls-36 {
        fill: url(#linear-gradient-35);
      }

      .cls-37 {
        fill: url(#linear-gradient-36);
      }

      .cls-38 {
        fill: url(#linear-gradient-37);
      }

      .cls-39 {
        fill: url(#linear-gradient-38);
      }

      .cls-40 {
        fill: url(#linear-gradient-39);
      }

      .cls-41 {
        fill: url(#linear-gradient-40);
      }

      .cls-42 {
        fill: url(#linear-gradient-41);
      }

      .cls-43 {
        fill: url(#linear-gradient-42);
      }

      .cls-44 {
        fill: url(#linear-gradient-43);
      }

      .cls-45 {
        fill: url(#linear-gradient-44);
      }

      .cls-46 {
        fill: url(#linear-gradient-45);
      }

      .cls-47 {
        fill: url(#linear-gradient-46);
      }

      .cls-48 {
        fill: url(#linear-gradient-47);
      }

      .cls-49 {
        fill: url(#linear-gradient-48);
      }

      .cls-50 {
        fill: url(#linear-gradient-49);
      }

      .cls-51 {
        fill: url(#linear-gradient-50);
      }

      .cls-52 {
        fill: url(#linear-gradient-51);
      }

      .cls-53 {
        fill: url(#linear-gradient-52);
      }

      .cls-54 {
        fill: url(#linear-gradient-53);
      }

      .cls-55 {
        fill: url(#linear-gradient-54);
      }

      .cls-56 {
        fill: url(#linear-gradient-55);
      }

      .cls-57 {
        fill: url(#linear-gradient-56);
      }

      .cls-58 {
        fill: url(#linear-gradient-57);
      }

      .cls-59 {
        fill: url(#linear-gradient-58);
      }

      .cls-60 {
        fill: url(#linear-gradient-59);
      }

      .cls-61 {
        fill: url(#linear-gradient-60);
      }

      .cls-62 {
        fill: url(#linear-gradient-61);
      }

      .cls-63 {
        fill: url(#linear-gradient-62);
      }

      .cls-64 {
        fill: url(#linear-gradient-63);
      }

      .cls-65 {
        fill: url(#linear-gradient-64);
      }

      .cls-66 {
        fill: url(#linear-gradient-65);
      }

      .cls-67 {
        fill: url(#linear-gradient-66);
      }

      .cls-68 {
        fill: url(#linear-gradient-67);
      }

      .cls-69 {
        fill: url(#linear-gradient-68);
      }

      .cls-70 {
        fill: url(#linear-gradient-69);
      }

      .cls-71 {
        fill: url(#linear-gradient-70);
      }

      .cls-72 {
        fill: url(#linear-gradient-71);
      }

      .cls-73 {
        fill: url(#linear-gradient-72);
      }

      .cls-74 {
        fill: url(#linear-gradient-73);
      }

      .cls-75 {
        fill: url(#linear-gradient-74);
      }

      .cls-76 {
        fill: url(#linear-gradient-75);
      }

      .cls-77 {
        fill: url(#linear-gradient-76);
      }

      .cls-78 {
        fill: url(#linear-gradient-77);
      }

      .cls-79 {
        fill: url(#linear-gradient-78);
      }

      .cls-80 {
        fill: url(#linear-gradient-79);
      }

      .cls-81 {
        fill: url(#linear-gradient-80);
      }

      .cls-82 {
        fill: url(#linear-gradient-81);
      }

      .cls-83 {
        fill: url(#linear-gradient-82);
      }

      .cls-84 {
        fill: url(#linear-gradient-83);
      }

      .cls-85 {
        fill: url(#linear-gradient-84);
      }

      .cls-86 {
        fill: url(#linear-gradient-85);
      }

      .cls-87 {
        fill: url(#linear-gradient-86);
      }

      .cls-88 {
        fill: url(#linear-gradient-87);
      }

      .cls-89 {
        fill: url(#linear-gradient-88);
      }
    </style>
    <linearGradient id="linear-gradient" x1="69.37" y1="43.23" x2="32.12" y2="-4.4" gradientUnits="userSpaceOnUse">
      <stop offset="0" stop-color="#75c9b9"/>
      <stop offset="1" stop-color="#72bde5"/>
    </linearGradient>
    <linearGradient id="linear-gradient-2" x1="68.9" y1="43.59" x2="31.65" y2="-4.03" xlink:href="#linear-gradient"/>
    <linearGradient id="linear-gradient-3" x1="68.31" y1="44.06" x2="31.06" y2="-3.57" xlink:href="#linear-gradient"/>
    <linearGradient id="linear-gradient-4" x1="67.59" y1="44.62" x2="30.34" y2="-3.01" xlink:href="#linear-gradient"/>
    <linearGradient id="linear-gradient-5" x1="66.77" y1="45.27" x2="29.52" y2="-2.36" xlink:href="#linear-gradient"/>
    <linearGradient id="linear-gradient-6" x1="65.85" y1="45.99" x2="28.6" y2="-1.64" xlink:href="#linear-gradient"/>
    <linearGradient id="linear-gradient-7" x1="64.84" y1="46.77" x2="27.59" y2="-0.85" xlink:href="#linear-gradient"/>
    <linearGradient id="linear-gradient-8" x1="63.76" y1="47.61" x2="26.51" y2="-0.01" xlink:href="#linear-gradient"/>
    <linearGradient id="linear-gradient-9" x1="62.62" y1="48.51" x2="25.37" y2="0.89" xlink:href="#linear-gradient"/>
    <linearGradient id="linear-gradient-10" x1="61.39" y1="49.47" x2="24.14" y2="1.84" xlink:href="#linear-gradient"/>
    <linearGradient id="linear-gradient-11" x1="60.11" y1="50.47" x2="22.86" y2="2.85" xlink:href="#linear-gradient"/>
    <linearGradient id="linear-gradient-12" x1="58.76" y1="51.53" x2="21.51" y2="3.9" xlink:href="#linear-gradient"/>
    <linearGradient id="linear-gradient-13" x1="57.37" y1="52.62" x2="20.12" y2="4.99" xlink:href="#linear-gradient"/>
    <linearGradient id="linear-gradient-14" x1="55.93" y1="53.74" x2="18.68" y2="6.11" xlink:href="#linear-gradient"/>
    <linearGradient id="linear-gradient-15" x1="54.47" y1="54.88" x2="17.22" y2="7.26" xlink:href="#linear-gradient"/>
    <linearGradient id="linear-gradient-16" x1="52.99" y1="56.04" x2="15.74" y2="8.42" xlink:href="#linear-gradient"/>
    <linearGradient id="linear-gradient-17" x1="51.5" y1="57.21" x2="14.25" y2="9.58" xlink:href="#linear-gradient"/>
    <linearGradient id="linear-gradient-18" x1="49.93" y1="58.43" x2="12.68" y2="10.81" xlink:href="#linear-gradient"/>
    <linearGradient id="linear-gradient-19" x1="48.32" y1="59.7" x2="11.07" y2="12.07" xlink:href="#linear-gradient"/>
    <linearGradient id="linear-gradient-20" x1="46.74" y1="60.93" x2="9.49" y2="13.31" xlink:href="#linear-gradient"/>
    <linearGradient id="linear-gradient-21" x1="45.2" y1="62.14" x2="7.95" y2="14.51" xlink:href="#linear-gradient"/>
    <linearGradient id="linear-gradient-22" x1="43.71" y1="63.3" x2="6.46" y2="15.68" xlink:href="#linear-gradient"/>
    <linearGradient id="linear-gradient-23" x1="42.28" y1="64.41" x2="5.03" y2="16.79" xlink:href="#linear-gradient"/>
    <linearGradient id="linear-gradient-24" x1="40.94" y1="65.47" x2="3.69" y2="17.84" xlink:href="#linear-gradient"/>
    <linearGradient id="linear-gradient-25" x1="39.68" y1="66.45" x2="2.43" y2="18.83" xlink:href="#linear-gradient"/>
    <linearGradient id="linear-gradient-26" x1="38.52" y1="67.36" x2="1.27" y2="19.73" xlink:href="#linear-gradient"/>
    <linearGradient id="linear-gradient-27" x1="37.48" y1="68.17" x2="0.23" y2="20.55" xlink:href="#linear-gradient"/>
    <linearGradient id="linear-gradient-28" x1="36.57" y1="68.88" x2="-0.68" y2="21.26" xlink:href="#linear-gradient"/>
    <linearGradient id="linear-gradient-29" x1="35.8" y1="69.49" x2="-1.45" y2="21.86" xlink:href="#linear-gradient"/>
    <linearGradient id="linear-gradient-30" x1="35.18" y1="69.97" x2="-2.07" y2="22.35" xlink:href="#linear-gradient"/>
    <linearGradient id="linear-gradient-31" x1="34.7" y1="70.35" x2="-2.55" y2="22.72" xlink:href="#linear-gradient"/>
    <linearGradient id="linear-gradient-32" x1="34.36" y1="70.61" x2="-2.89" y2="22.99" xlink:href="#linear-gradient"/>
    <linearGradient id="linear-gradient-33" x1="34.16" y1="70.77" x2="-3.09" y2="23.15" xlink:href="#linear-gradient"/>
    <linearGradient id="linear-gradient-34" x1="34.09" y1="70.82" x2="-3.16" y2="23.2" xlink:href="#linear-gradient"/>
    <linearGradient id="linear-gradient-35" x1="34.17" y1="70.76" x2="-3.08" y2="23.14" xlink:href="#linear-gradient"/>
    <linearGradient id="linear-gradient-36" x1="34.38" y1="70.6" x2="-2.87" y2="22.97" xlink:href="#linear-gradient"/>
    <linearGradient id="linear-gradient-37" x1="34.73" y1="70.32" x2="-2.52" y2="22.7" xlink:href="#linear-gradient"/>
    <linearGradient id="linear-gradient-38" x1="35.21" y1="69.95" x2="-2.04" y2="22.33" xlink:href="#linear-gradient"/>
    <linearGradient id="linear-gradient-39" x1="35.81" y1="69.48" x2="-1.44" y2="21.85" xlink:href="#linear-gradient"/>
    <linearGradient id="linear-gradient-40" x1="36.53" y1="68.91" x2="-0.72" y2="21.29" xlink:href="#linear-gradient"/>
    <linearGradient id="linear-gradient-41" x1="37.36" y1="68.26" x2="0.11" y2="20.64" xlink:href="#linear-gradient"/>
    <linearGradient id="linear-gradient-42" x1="38.29" y1="67.54" x2="1.04" y2="19.91" xlink:href="#linear-gradient"/>
    <linearGradient id="linear-gradient-43" x1="39.3" y1="66.75" x2="2.05" y2="19.12" xlink:href="#linear-gradient"/>
    <linearGradient id="linear-gradient-44" x1="40.38" y1="65.9" x2="3.13" y2="18.28" xlink:href="#linear-gradient"/>
    <linearGradient id="linear-gradient-45" x1="41.53" y1="65" x2="4.28" y2="17.38" xlink:href="#linear-gradient"/>
    <linearGradient id="linear-gradient-46" x1="42.76" y1="64.04" x2="5.51" y2="16.42" xlink:href="#linear-gradient"/>
    <linearGradient id="linear-gradient-47" x1="44.05" y1="63.03" x2="6.8" y2="15.41" xlink:href="#linear-gradient"/>
    <linearGradient id="linear-gradient-48" x1="45.4" y1="61.98" x2="8.15" y2="14.35" xlink:href="#linear-gradient"/>
    <linearGradient id="linear-gradient-49" x1="46.8" y1="60.89" x2="9.55" y2="13.26" xlink:href="#linear-gradient"/>
    <linearGradient id="linear-gradient-50" x1="48.23" y1="59.76" x2="10.98" y2="12.14" xlink:href="#linear-gradient"/>
    <linearGradient id="linear-gradient-51" x1="49.7" y1="58.62" x2="12.45" y2="10.99" xlink:href="#linear-gradient"/>
    <linearGradient id="linear-gradient-52" x1="51.18" y1="57.46" x2="13.93" y2="9.83" xlink:href="#linear-gradient"/>
    <linearGradient id="linear-gradient-53" x1="52.67" y1="56.29" x2="15.42" y2="8.67" xlink:href="#linear-gradient"/>
    <linearGradient id="linear-gradient-54" x1="54.24" y1="55.06" x2="16.99" y2="7.43" xlink:href="#linear-gradient"/>
    <linearGradient id="linear-gradient-55" x1="55.86" y1="53.8" x2="18.61" y2="6.17" xlink:href="#linear-gradient"/>
    <linearGradient id="linear-gradient-56" x1="57.44" y1="52.56" x2="20.19" y2="4.94" xlink:href="#linear-gradient"/>
    <linearGradient id="linear-gradient-57" x1="58.97" y1="51.36" x2="21.72" y2="3.74" xlink:href="#linear-gradient"/>
    <linearGradient id="linear-gradient-58" x1="60.46" y1="50.2" x2="23.21" y2="2.57" xlink:href="#linear-gradient"/>
    <linearGradient id="linear-gradient-59" x1="61.88" y1="49.09" x2="24.63" y2="1.47" xlink:href="#linear-gradient"/>
    <linearGradient id="linear-gradient-60" x1="63.22" y1="48.04" x2="25.97" y2="0.42" xlink:href="#linear-gradient"/>
    <linearGradient id="linear-gradient-61" x1="64.47" y1="47.06" x2="27.22" y2="-0.56" xlink:href="#linear-gradient"/>
    <linearGradient id="linear-gradient-62" x1="65.62" y1="46.16" x2="28.37" y2="-1.46" xlink:href="#linear-gradient"/>
    <linearGradient id="linear-gradient-63" x1="66.66" y1="45.35" x2="29.41" y2="-2.27" xlink:href="#linear-gradient"/>
    <linearGradient id="linear-gradient-64" x1="67.56" y1="44.65" x2="30.31" y2="-2.98" xlink:href="#linear-gradient"/>
    <linearGradient id="linear-gradient-65" x1="68.32" y1="44.05" x2="31.07" y2="-3.57" xlink:href="#linear-gradient"/>
    <linearGradient id="linear-gradient-66" x1="68.93" y1="43.57" x2="31.68" y2="-4.05" xlink:href="#linear-gradient"/>
    <linearGradient id="linear-gradient-67" x1="69.4" y1="43.2" x2="32.15" y2="-4.42" xlink:href="#linear-gradient"/>
    <linearGradient id="linear-gradient-68" x1="69.74" y1="42.94" x2="32.49" y2="-4.68" xlink:href="#linear-gradient"/>
    <linearGradient id="linear-gradient-69" x1="69.93" y1="42.79" x2="32.68" y2="-4.83" xlink:href="#linear-gradient"/>
    <linearGradient id="linear-gradient-70" x1="69.98" y1="42.75" x2="32.73" y2="-4.87" xlink:href="#linear-gradient"/>
    <linearGradient id="linear-gradient-71" x1="69.9" y1="42.82" x2="32.65" y2="-4.81" xlink:href="#linear-gradient"/>
    <linearGradient id="linear-gradient-72" x1="69.68" y1="42.99" x2="32.43" y2="-4.64" xlink:href="#linear-gradient"/>
    <linearGradient id="linear-gradient-73" x1="54.03" y1="55.22" x2="16.78" y2="7.6" xlink:href="#linear-gradient"/>
    <linearGradient id="linear-gradient-74" x1="60.89" y1="49.86" x2="23.64" y2="2.24" xlink:href="#linear-gradient"/>
    <linearGradient id="linear-gradient-75" x1="53.97" y1="55.28" x2="16.72" y2="7.65" xlink:href="#linear-gradient"/>
    <linearGradient id="linear-gradient-76" x1="61.46" y1="49.42" x2="24.21" y2="1.79" xlink:href="#linear-gradient"/>
    <linearGradient id="linear-gradient-77" x1="53.91" y1="55.33" x2="16.66" y2="7.7" xlink:href="#linear-gradient"/>
    <linearGradient id="linear-gradient-78" x1="62.02" y1="48.98" x2="24.77" y2="1.36" xlink:href="#linear-gradient"/>
    <linearGradient id="linear-gradient-79" x1="57.32" y1="52.65" x2="20.07" y2="5.03" xlink:href="#linear-gradient"/>
    <linearGradient id="linear-gradient-80" x1="46.39" y1="61.2" x2="9.14" y2="13.58" xlink:href="#linear-gradient"/>
    <linearGradient id="linear-gradient-81" x1="52.19" y1="56.67" x2="14.94" y2="9.04" xlink:href="#linear-gradient"/>
    <linearGradient id="linear-gradient-82" x1="52.04" y1="56.79" x2="14.79" y2="9.16" xlink:href="#linear-gradient"/>
    <linearGradient id="linear-gradient-83" x1="52.04" y1="56.79" x2="14.79" y2="9.16" xlink:href="#linear-gradient"/>
    <linearGradient id="linear-gradient-84" x1="57.69" y1="52.36" x2="20.44" y2="4.74" xlink:href="#linear-gradient"/>
    <linearGradient id="linear-gradient-85" x1="58.8" y1="51.5" x2="21.55" y2="3.88" xlink:href="#linear-gradient"/>
    <linearGradient id="linear-gradient-86" x1="45.31" y1="62.05" x2="8.06" y2="14.42" xlink:href="#linear-gradient"/>
    <linearGradient id="linear-gradient-87" x1="48.14" y1="59.84" x2="10.89" y2="12.21" xlink:href="#linear-gradient"/>
    <linearGradient id="linear-gradient-88" x1="43.14" y1="63.74" x2="5.89" y2="16.12" xlink:href="#linear-gradient"/>
  </defs>
  <title>amc_</title>
  <path id="Rectangle" class="cls-1" d="M3,0H67a2.9,2.9,0,0,1,3,3V67a2.9,2.9,0,0,1-3,3H3a2.9,2.9,0,0,1-3-3V3A2.9,2.9,0,0,1,3,0Z"/>
  <g>
    <path class="cls-2" d="M54.5,23.6h0c-.2,0-.5.8-.6,1.8s0,1.9.2,1.9.5-.8.6-1.8a4.2,4.2,0,0,0,0-1.6,5.1,5.1,0,0,0,1.4.8c.9.4,1.7.6,1.8.4s-.6-.7-1.5-1.1S54.6,23.4,54.5,23.6Z"/>
    <path class="cls-3" d="M55.4,25.3h0c-.2,0-.5.8-.7,1.8s-.2,1.9,0,1.9.6-.8.8-1.8a10.4,10.4,0,0,0,.1-1.6,5.3,5.3,0,0,0,1.3,1c.9.5,1.7.7,1.8.5s-.5-.7-1.4-1.2S55.5,25.1,55.4,25.3Z"/>
    <path class="cls-4" d="M56.2,27.1h0c-.2-.1-.6.6-.9,1.6s-.3,1.9-.1,1.9.6-.7.9-1.6a5.9,5.9,0,0,0,.2-1.7,6.8,6.8,0,0,0,1.2,1.1c.9.6,1.7.9,1.8.7s-.5-.8-1.3-1.3A3.6,3.6,0,0,0,56.2,27.1Z"/>
    <path class="cls-5" d="M58.5,29.9c-.8-.7-1.6-1.1-1.7-.9h0c-.2,0-.7.7-1,1.6s-.5,1.8-.3,1.9.6-.6,1-1.6a3.7,3.7,0,0,0,.4-1.6A5.7,5.7,0,0,0,58,30.5c.8.6,1.6,1,1.7.9S59.3,30.5,58.5,29.9Z"/>
    <path class="cls-6" d="M57.3,30.9a.1.1,0,0,0-.1.1h0c-.2-.1-.7.5-1.1,1.5s-.7,1.7-.5,1.8.7-.6,1.2-1.5a4.3,4.3,0,0,0,.5-1.5,7.7,7.7,0,0,0,1,1.2c.8.7,1.5,1.2,1.6,1s-.3-.8-1-1.5S57.4,30.8,57.3,30.9Z"/>
    <path class="cls-7" d="M59,34.1c-.6-.8-1.3-1.3-1.5-1.2h0c-.2-.1-.8.5-1.3,1.4s-.8,1.7-.6,1.8.8-.5,1.3-1.4a5.1,5.1,0,0,0,.6-1.5l.9,1.4c.7.7,1.4,1.3,1.6,1.1S59.7,34.8,59,34.1Z"/>
    <path class="cls-8" d="M57.6,34.9h0c-.2-.1-.8.4-1.4,1.3s-1,1.6-.8,1.7.8-.4,1.4-1.3a5.3,5.3,0,0,0,.8-1.4,5.3,5.3,0,0,0,.8,1.4c.6.8,1.2,1.4,1.4,1.3s-.2-.9-.8-1.7S57.8,34.7,57.6,34.9Z"/>
    <path class="cls-9" d="M57.5,36.8h0c-.1-.2-.8.3-1.5,1.1s-1.1,1.5-.9,1.7.8-.4,1.5-1.2a3.8,3.8,0,0,0,.9-1.3,4.5,4.5,0,0,0,.7,1.4c.5.9,1.1,1.6,1.3,1.4a3,3,0,0,0-.7-1.8C58.3,37.4,57.7,36.7,57.5,36.8Z"/>
    <path class="cls-10" d="M57.3,38.8h0c-.2-.1-.9.3-1.6,1s-1.3,1.5-1.1,1.6.9-.3,1.6-1a4.5,4.5,0,0,0,1-1.3,11.6,11.6,0,0,0,.6,1.6c.4.9.9,1.6,1.1,1.5s0-1-.4-1.9S57.5,38.7,57.3,38.8Z"/>
    <path class="cls-11" d="M56.9,40.7h0c-.2-.2-.9.2-1.7.8s-1.4,1.3-1.2,1.5.9-.2,1.7-.9a5.6,5.6,0,0,0,1.1-1.1,3.7,3.7,0,0,0,.4,1.5c.3,1,.8,1.7,1,1.6s.1-.9-.3-1.9S57.1,40.7,56.9,40.7Z"/>
    <path class="cls-12" d="M56.3,42.6h0a3.6,3.6,0,0,0-1.8.8c-.8.5-1.4,1.1-1.3,1.3s.9-.1,1.7-.7a5.2,5.2,0,0,0,1.3-1.1,5,5,0,0,0,.2,1.6c.3,1,.7,1.8.9,1.7s.2-.9-.1-1.9S56.5,42.6,56.3,42.6Z"/>
    <path class="cls-13" d="M55.5,44.5h0c-.1-.2-.9,0-1.8.5s-1.5,1.1-1.4,1.3.9-.1,1.8-.6a5.6,5.6,0,0,0,1.3-.9,4.8,4.8,0,0,0,.1,1.6c.2,1,.5,1.8.7,1.7s.3-.9.1-1.9S55.8,44.4,55.5,44.5Z"/>
    <path class="cls-14" d="M54.6,46.2h0c-.1-.2-.9,0-1.8.4s-1.7.9-1.6,1.1.9.1,1.9-.4a5.8,5.8,0,0,0,1.4-.8,6.7,6.7,0,0,0-.1,1.6c.1,1,.4,1.8.6,1.8s.3-.8.2-1.9S54.9,46.2,54.6,46.2Z"/>
    <path class="cls-15" d="M53.6,47.9h0c-.1-.2-1-.1-1.9.2s-1.7.8-1.7,1,1,.1,1.9-.2l1.5-.7a5.7,5.7,0,0,0-.2,1.6c0,1,.2,1.8.4,1.8s.4-.8.4-1.9S53.8,47.9,53.6,47.9Z"/>
    <path class="cls-16" d="M52.4,49.5h0c-.1-.2-.9-.2-1.9,0s-1.8.7-1.8.9,1,.1,2-.1l1.5-.6a3.2,3.2,0,0,0-.3,1.6c-.1,1,0,1.9.2,1.9s.5-.8.5-1.8S52.6,49.5,52.4,49.5Z"/>
    <path class="cls-17" d="M51.1,50.9H51c0-.2-.8-.2-1.9-.1s-1.8.5-1.7.7.8.3,1.9.1l1.5-.4a7.5,7.5,0,0,0-.4,1.5c-.2,1-.1,1.9.1,1.9s.5-.8.6-1.8S51.3,51,51.1,50.9Z"/>
    <path class="cls-18" d="M49.6,52.3h0c0-.2-.9-.4-1.9-.3s-1.8.3-1.8.5.8.4,1.9.3l1.6-.3a3.6,3.6,0,0,0-.6,1.5c-.3,1-.3,1.8-.1,1.9s.6-.7.8-1.7S49.8,52.3,49.6,52.3Z"/>
    <path class="cls-19" d="M48,53.5h0c0-.2-.8-.4-1.8-.4s-1.9.1-1.9.3.8.4,1.9.4h1.6a4.5,4.5,0,0,0-.7,1.4c-.4,1-.5,1.8-.3,1.9s.7-.7,1-1.6S48.2,53.5,48,53.5Z"/>
    <path class="cls-20" d="M46.4,54.5h0c0-.2-.8-.4-1.9-.5s-1.8-.1-1.8.1.7.5,1.8.6h1.6a5.8,5.8,0,0,0-.8,1.4c-.5.9-.6,1.8-.4,1.8s.7-.6,1.1-1.5.6-1.8.4-1.9Z"/>
    <path class="cls-21" d="M44.6,55.5h0c.1-.3-.7-.6-1.7-.8s-1.9-.2-1.9,0,.7.6,1.7.8a4.8,4.8,0,0,0,1.6.1,5.6,5.6,0,0,0-.9,1.3c-.5.9-.8,1.7-.6,1.8s.8-.5,1.3-1.4.7-1.7.5-1.8Z"/>
    <path class="cls-22" d="M42.8,56.2h0c0-.2-.7-.6-1.7-.9s-1.8-.3-1.9-.1.7.6,1.7.9a3.4,3.4,0,0,0,1.6.2,5.2,5.2,0,0,0-1.1,1.3c-.5.8-.9,1.6-.7,1.7s.8-.5,1.4-1.3S43,56.3,42.8,56.2Z"/>
    <path class="cls-23" d="M40.9,56.8h0c.1-.2-.6-.6-1.6-1s-1.8-.5-1.9-.3.7.6,1.6,1a4.5,4.5,0,0,0,1.6.4L39.4,58c-.6.8-1,1.6-.8,1.7s.8-.4,1.4-1.2S41.1,57,40.9,56.8Z"/>
    <path class="cls-24" d="M39,57.3h0c.1-.2-.6-.8-1.5-1.2s-1.8-.7-1.9-.5.6.7,1.5,1.2a4.7,4.7,0,0,0,1.6.5,7.6,7.6,0,0,0-1.3,1c-.7.8-1.2,1.5-1,1.6s.9-.3,1.6-1S39.2,57.4,39,57.3Z"/>
    <path class="cls-25" d="M37,57.5h0c.1-.2-.5-.8-1.4-1.3s-1.7-.8-1.8-.6.5.8,1.4,1.3a6.1,6.1,0,0,0,1.5.7l-1.3.8c-.8.7-1.3,1.4-1.2,1.6s.9-.3,1.7-1S37.2,57.7,37,57.5Z"/>
    <path class="cls-26" d="M35.1,57.6H35c.2-.2-.4-.8-1.2-1.4s-1.6-1-1.8-.8.5.8,1.3,1.4l1.4.8-1.4.8c-.8.6-1.4,1.2-1.3,1.4s.9-.2,1.8-.8S35.2,57.8,35.1,57.6Z"/>
    <path class="cls-27" d="M33.1,57.5h0c.1-.1-.4-.8-1.2-1.5s-1.5-1.1-1.6-.9.3.8,1.1,1.5a4,4,0,0,0,1.4.9,4.8,4.8,0,0,0-1.5.7c-.9.5-1.5,1.1-1.4,1.2s.9,0,1.8-.6S33.2,57.7,33.1,57.5Z"/>
    <path class="cls-28" d="M31.1,57.3h0c.2-.2-.3-.9-1-1.6s-1.4-1.3-1.6-1.1.3.9,1,1.6a4.5,4.5,0,0,0,1.3,1,8.6,8.6,0,0,0-1.5.5c-.9.5-1.6,1-1.5,1.2s.9,0,1.8-.5S31.2,57.5,31.1,57.3Z"/>
    <path class="cls-29" d="M29.2,56.9h0c.2-.1-.2-.9-.9-1.7s-1.3-1.3-1.5-1.2.3.9.9,1.7a4.5,4.5,0,0,0,1.2,1.2,4.1,4.1,0,0,0-1.6.4c-.9.3-1.7.8-1.6,1s.9.1,1.9-.3S29.3,57.1,29.2,56.9Z"/>
    <path class="cls-30" d="M27.3,56.3h0c.2-.2-.1-1-.7-1.8s-1.2-1.5-1.4-1.3.2.9.7,1.7A5.2,5.2,0,0,0,27,56.2a3.4,3.4,0,0,0-1.6.2c-1,.3-1.7.7-1.7.9s.9.1,1.9-.1S27.4,56.5,27.3,56.3Z"/>
    <path class="cls-31" d="M25.5,55.5h0c.2-.1-.1-.9-.6-1.8s-1-1.6-1.2-1.5,0,1,.5,1.9a5.3,5.3,0,0,0,1,1.3,4.6,4.6,0,0,0-1.6.1c-1,.2-1.8.5-1.8.7s.9.2,1.9.1S25.5,55.7,25.5,55.5Z"/>
    <path class="cls-32" d="M23.7,54.6h0c.2-.1,0-.9-.4-1.9s-.9-1.6-1.1-1.5,0,.9.4,1.8a5.1,5.1,0,0,0,.8,1.4,8.3,8.3,0,0,0-1.6,0c-1,.1-1.8.4-1.8.6s.9.3,1.9.2S23.7,54.8,23.7,54.6Z"/>
    <path class="cls-33" d="M22.1,53.6a.1.1,0,0,0-.1-.1h.1c.2,0,.1-.9-.3-1.9s-.7-1.7-1-1.6-.1.9.3,1.9a5.3,5.3,0,0,0,.7,1.5,3.4,3.4,0,0,0-1.6-.2c-1,0-1.9.2-1.9.4s.9.4,1.9.4S22.1,53.8,22.1,53.6Z"/>
    <path class="cls-34" d="M20.5,52.4h0c.2,0,.2-.9-.1-1.9s-.6-1.7-.8-1.7-.2.9.1,1.9a3.2,3.2,0,0,0,.5,1.5l-1.5-.3c-1.1-.1-1.9.1-1.9.3s.8.4,1.8.5S20.5,52.6,20.5,52.4Z"/>
    <path class="cls-35" d="M19,51h0c.2,0,.3-.9.1-1.9s-.4-1.8-.6-1.8-.3.9-.1,1.9a4.6,4.6,0,0,0,.4,1.6,4.4,4.4,0,0,0-1.5-.5c-1.1-.1-1.9-.1-2,.1s.8.5,1.8.7S19,51.2,19,51Z"/>
    <path class="cls-36" d="M17.7,49.6h0c.2,0,.3-.8.3-1.8s-.3-1.9-.6-1.9-.3.9-.2,1.9a3.2,3.2,0,0,0,.3,1.6L16,48.7c-1-.2-1.9-.3-1.9-.1s.7.6,1.7.9S17.6,49.8,17.7,49.6Z"/>
    <path class="cls-37" d="M16.5,48h0c.2,0,.4-.9.4-1.9s-.1-1.8-.3-1.9-.4.9-.5,1.9a5.7,5.7,0,0,0,.2,1.6,6,6,0,0,0-1.4-.7c-1-.3-1.9-.4-1.9-.2s.6.6,1.6.9S16.4,48.2,16.5,48Z"/>
    <path class="cls-38" d="M15.4,46.3h0c.2,0,.5-.8.6-1.8s0-1.9-.2-1.9-.5.8-.6,1.8a6.7,6.7,0,0,0,.1,1.6l-1.4-.8c-1-.4-1.8-.6-1.9-.4s.6.7,1.6,1.1S15.3,46.5,15.4,46.3Z"/>
    <path class="cls-39" d="M14.5,44.6h0c.2,0,.6-.8.8-1.8s.1-1.9-.1-1.9-.5.7-.7,1.8a4.6,4.6,0,0,0-.1,1.6l-1.3-1c-.9-.5-1.7-.7-1.8-.5s.5.7,1.4,1.2S14.4,44.8,14.5,44.6Z"/>
    <path class="cls-40" d="M13.7,42.8h.1c.2.1.6-.7.9-1.6s.3-1.9.1-1.9-.6.6-.9,1.6a6.9,6.9,0,0,0-.3,1.6,7.6,7.6,0,0,0-1.2-1,3.1,3.1,0,0,0-1.7-.8c-.2.2.4.8,1.3,1.4A3.1,3.1,0,0,0,13.7,42.8Z"/>
    <path class="cls-41" d="M11.5,40c.8.6,1.5,1,1.7.9h0c.2.1.6-.6,1-1.5s.5-1.8.3-1.9-.7.6-1,1.6a3.7,3.7,0,0,0-.4,1.5A11.1,11.1,0,0,0,12,39.4c-.8-.7-1.6-1.1-1.7-.9S10.7,39.3,11.5,40Z"/>
    <path class="cls-42" d="M12.7,38.9h0c.2.1.8-.6,1.2-1.5s.7-1.7.5-1.8-.7.5-1.2,1.5a4.3,4.3,0,0,0-.5,1.5,4.8,4.8,0,0,0-1-1.2c-.8-.8-1.5-1.2-1.6-1.1s.3.9,1,1.6S12.6,39.1,12.7,38.9Z"/>
    <path class="cls-43" d="M12.5,37h0c.2.1.7-.6,1.3-1.4s.8-1.7.6-1.8-.8.5-1.3,1.4a5.9,5.9,0,0,0-.7,1.4,3.8,3.8,0,0,0-.9-1.3c-.6-.8-1.3-1.3-1.5-1.2s.3.9,1,1.7S12.3,37.1,12.5,37Z"/>
    <path class="cls-44" d="M12.4,35h0c.2.1.8-.5,1.4-1.3s1-1.6.8-1.7-.8.4-1.4,1.3a4.1,4.1,0,0,0-.8,1.4,4.1,4.1,0,0,0-.8-1.4c-.6-.9-1.2-1.5-1.4-1.3s.2.9.8,1.7S12.2,35.1,12.4,35Z"/>
    <path class="cls-45" d="M12.5,33h0c.1.2.8-.4,1.5-1.1s1.1-1.5.9-1.7-.8.4-1.5,1.2a3.8,3.8,0,0,0-.9,1.3,6.1,6.1,0,0,0-.7-1.5c-.5-.9-1-1.5-1.2-1.4s.1.9.6,1.8S12.3,33.1,12.5,33Z"/>
    <path class="cls-46" d="M12.7,31.1h0c.2.1.9-.3,1.7-1.1s1.2-1.4,1-1.5-.8.3-1.6,1a4.4,4.4,0,0,0-1,1.2,8.6,8.6,0,0,0-.5-1.5c-.5-.9-1-1.6-1.2-1.5s0,.9.5,1.9S12.5,31.2,12.7,31.1Z"/>
    <path class="cls-47" d="M13.1,29.1h.1c.1.2.9-.2,1.7-.8s1.3-1.3,1.2-1.5-.9.2-1.7.9a4.4,4.4,0,0,0-1.2,1.1,5.6,5.6,0,0,0-.3-1.5c-.4-1-.9-1.7-1.1-1.7s0,1,.3,1.9S12.9,29.2,13.1,29.1Z"/>
    <path class="cls-48" d="M13.7,27.3a.1.1,0,0,0,.1-.1h0c.1.2.9-.1,1.7-.7s1.5-1.1,1.4-1.3-.9.1-1.8.7l-1.2,1a5.6,5.6,0,0,0-.3-1.5c-.3-1-.6-1.8-.9-1.7s-.1.9.2,1.9S13.5,27.3,13.7,27.3Z"/>
    <path class="cls-49" d="M14.5,25.4h0c.1.2.9,0,1.8-.5s1.6-1.1,1.5-1.3-.9.1-1.8.6l-1.4.9a3.1,3.1,0,0,0-.1-1.6c-.1-1-.5-1.8-.7-1.7s-.2.9,0,1.9S14.3,25.5,14.5,25.4Z"/>
    <path class="cls-50" d="M15.4,23.7h0c.1.2,1,0,1.9-.4s1.6-.9,1.6-1.1-1-.1-1.9.4a3.4,3.4,0,0,0-1.4.8,4.2,4.2,0,0,0,0-1.6c-.1-1-.3-1.9-.5-1.8s-.4.8-.3,1.9S15.2,23.7,15.4,23.7Z"/>
    <path class="cls-51" d="M16.5,22h0c.1.2.9.1,1.9-.2s1.7-.8,1.6-1-.9-.1-1.9.2a8.8,8.8,0,0,0-1.4.7,5.7,5.7,0,0,0,.2-1.6c-.1-1-.2-1.8-.5-1.8s-.3.8-.3,1.8S16.3,22,16.5,22Z"/>
    <path class="cls-52" d="M17.7,20.4h0c.1.2.9.2,1.9,0s1.8-.6,1.7-.8-.9-.2-1.9,0l-1.5.6a5,5,0,0,0,.3-1.6c.1-1,0-1.9-.2-1.9s-.5.8-.6,1.9S17.5,20.4,17.7,20.4Z"/>
    <path class="cls-53" d="M19,19h0c.1.2.9.2,1.9.1s1.9-.5,1.8-.7-.9-.2-1.9-.1a3.7,3.7,0,0,0-1.5.5,9.1,9.1,0,0,0,.4-1.6c.2-1,.1-1.9-.1-1.9s-.5.8-.7,1.8S18.8,18.9,19,19Z"/>
    <path class="cls-54" d="M20.5,17.7h0c0,.2.9.3,1.9.2s1.8-.3,1.8-.5-.8-.3-1.9-.3l-1.6.3a3.1,3.1,0,0,0,.6-1.5c.3-1,.3-1.8.1-1.9s-.6.8-.8,1.7S20.3,17.6,20.5,17.7Z"/>
    <path class="cls-55" d="M22.1,16.4h0c0,.2.8.4,1.8.4s1.9-.1,1.9-.4-.8-.4-1.9-.4l-1.6.2a5.3,5.3,0,0,0,.7-1.5c.4-.9.5-1.8.3-1.9s-.7.7-1,1.7-.5,1.8-.3,1.8S22.1,16.4,22.1,16.4Z"/>
    <path class="cls-56" d="M23.7,15.4h0c0,.2.8.5,1.8.6s1.9,0,1.9-.2-.7-.5-1.8-.6H24a3.6,3.6,0,0,0,.8-1.3c.5-1,.7-1.8.5-1.9s-.7.6-1.2,1.5-.6,1.8-.4,1.9Z"/>
    <path class="cls-57" d="M25.5,14.5h0c0,.2.7.5,1.7.7s1.9.2,1.9,0-.7-.5-1.7-.7a5.6,5.6,0,0,0-1.6-.2,5.6,5.6,0,0,0,.9-1.3c.5-.8.8-1.7.6-1.8s-.7.6-1.2,1.5-.8,1.7-.6,1.8Z"/>
    <path class="cls-58" d="M27.3,13.7h0c0,.2.7.6,1.7.9s1.8.4,1.9.2-.7-.6-1.7-.9l-1.6-.3a4.4,4.4,0,0,0,1.1-1.2c.6-.8.9-1.6.7-1.7s-.8.4-1.4,1.3S27.1,13.6,27.3,13.7Z"/>
    <path class="cls-59" d="M29.2,13.1h0c-.1.2.6.7,1.6,1.1s1.8.5,1.9.3-.7-.7-1.6-1a4.5,4.5,0,0,0-1.6-.4,6.6,6.6,0,0,0,1.2-1.2c.6-.7,1-1.5.9-1.6s-.9.4-1.5,1.1S29,13,29.2,13.1Z"/>
    <path class="cls-60" d="M31.1,12.7h0c-.1.2.6.7,1.5,1.2s1.8.7,1.9.5-.6-.7-1.5-1.2a4.1,4.1,0,0,0-1.6-.5,9.1,9.1,0,0,0,1.3-1c.7-.8,1.2-1.5,1-1.6s-.8.3-1.6,1S31,12.6,31.1,12.7Z"/>
    <path class="cls-61" d="M33.1,12.5h0c-.1.2.5.7,1.4,1.3s1.7.8,1.8.6-.5-.8-1.4-1.3a6.1,6.1,0,0,0-1.5-.7,3.8,3.8,0,0,0,1.3-.9c.8-.6,1.4-1.3,1.2-1.5s-.9.3-1.7,1S32.9,12.3,33.1,12.5Z"/>
    <path class="cls-62" d="M35.1,12.4h0c-.2.2.4.8,1.2,1.4s1.6,1,1.8.8-.5-.8-1.3-1.4l-1.4-.8,1.4-.8c.8-.6,1.4-1.2,1.3-1.4s-.9.2-1.8.8S34.9,12.2,35.1,12.4Z"/>
    <path class="cls-63" d="M37,12.5h0c-.1.1.4.8,1.2,1.5s1.5,1.1,1.6,1-.3-.9-1.1-1.6a4.6,4.6,0,0,0-1.4-.9l1.5-.6c.9-.6,1.6-1.1,1.4-1.3s-.9.1-1.8.6S36.9,12.3,37,12.5Z"/>
    <path class="cls-64" d="M39,12.7h0c-.2.2.3.9,1,1.7s1.4,1.2,1.6,1.1-.3-.9-1-1.7a4.5,4.5,0,0,0-1.3-1,3.7,3.7,0,0,0,1.5-.5c1-.5,1.6-1,1.6-1.2s-1,0-1.9.5S38.9,12.5,39,12.7Z"/>
    <path class="cls-65" d="M40.9,13.2h0c-.1.1.2.9.9,1.7s1.3,1.3,1.5,1.2-.3-.9-.9-1.7a3.8,3.8,0,0,0-1.2-1.1l1.6-.4c1-.4,1.7-.8,1.6-1s-.9-.1-1.9.2S40.8,13,40.9,13.2Z"/>
    <path class="cls-66" d="M42.8,13.8h0c-.2.1.1.9.7,1.8s1.2,1.4,1.4,1.3a4,4,0,0,0-.7-1.8,4.4,4.4,0,0,0-1.1-1.2l1.6-.3c1-.2,1.8-.6,1.7-.8s-.9-.2-1.9.1S42.7,13.6,42.8,13.8Z"/>
    <path class="cls-67" d="M44.6,14.5h0c-.2.1.1,1,.6,1.9s1,1.5,1.2,1.4,0-.9-.5-1.8a5.3,5.3,0,0,0-1-1.3h1.6c1-.2,1.8-.5,1.8-.7s-.9-.3-1.9-.1S44.6,14.3,44.6,14.5Z"/>
    <path class="cls-68" d="M46.4,15.4h0c-.2.1,0,.9.4,1.8s.9,1.7,1.1,1.6,0-.9-.4-1.9l-.8-1.4h1.6c1-.1,1.8-.4,1.8-.6s-.9-.3-1.9-.2S46.4,15.2,46.4,15.4Z"/>
    <path class="cls-69" d="M48,16.5h0c-.2.1-.1,1,.3,1.9s.7,1.7.9,1.7.1-.9-.2-1.9a5.3,5.3,0,0,0-.7-1.5l1.6.2c1,0,1.9-.2,1.9-.4s-.9-.4-1.9-.4S48,16.3,48,16.5Z"/>
    <path class="cls-70" d="M49.6,17.7h0c-.2.1-.2.9.1,1.9s.6,1.8.8,1.8.2-.9-.1-1.9a4.1,4.1,0,0,0-.6-1.6,5.3,5.3,0,0,0,1.6.4c1.1,0,1.9-.1,1.9-.3s-.8-.4-1.8-.5S49.6,17.5,49.6,17.7Z"/>
    <path class="cls-71" d="M51.1,19.1h0c-.3,0-.3.9-.2,1.9s.5,1.8.7,1.8.3-.9.1-1.9a9.1,9.1,0,0,0-.4-1.6l1.5.5c1,.1,1.9.1,1.9-.1S54,19.2,53,19,51.1,18.8,51.1,19.1Z"/>
    <path class="cls-72" d="M52.4,20.5h0a2.6,2.6,0,0,0-.3,1.9c.1,1.1.3,1.9.5,1.9s.3-.9.3-1.9a11.6,11.6,0,0,0-.3-1.6l1.5.6c1,.2,1.8.3,1.9.1s-.7-.6-1.7-.9S52.4,20.3,52.4,20.5Z"/>
    <path class="cls-73" d="M53.6,22.1h0c-.2,0-.4.8-.5,1.9s.2,1.8.4,1.8.4-.8.4-1.8a6.7,6.7,0,0,0-.1-1.6,4.5,4.5,0,0,0,1.4.7c1,.3,1.8.5,1.9.3s-.7-.7-1.6-1S53.7,21.9,53.6,22.1Z"/>
    <path class="cls-74" d="M31.1,22.2a8.7,8.7,0,0,0-3.3,3.3c0,.1,0,.2.1.2h.2a7.4,7.4,0,0,1,3.2-3.1c0-.1.1-.2,0-.2S31.2,22.2,31.1,22.2Z"/>
    <path class="cls-75" d="M39,22.2c-.1,0-.2,0-.2.1v.2A7.7,7.7,0,0,1,42,25.6h.2c.1,0,.1-.1.1-.2A8.7,8.7,0,0,0,39,22.2Z"/>
    <path class="cls-76" d="M31.1,21.2a8.8,8.8,0,0,0-4.2,4.3.1.1,0,0,0,0,.2h.2a9.3,9.3,0,0,1,4.2-4.1.1.1,0,0,0,0-.2C31.3,21.2,31.2,21.2,31.1,21.2Z"/>
    <path class="cls-77" d="M43.1,25.7h.1c.1,0,.1-.1.1-.2A9,9,0,0,0,39,21.2c-.1,0-.2,0-.2.1s0,.2.1.2A9,9,0,0,1,43,25.6Z"/>
    <path class="cls-78" d="M26,25.7h.2a9.4,9.4,0,0,1,5-5c.1-.1.2-.2.1-.2s-.1-.2-.2-.1a10.1,10.1,0,0,0-5.2,5.2c0,.1,0,.2.1.2Z"/>
    <path class="cls-79" d="M43.9,25.6h.2c.1,0,.1-.1.1-.2a10.2,10.2,0,0,0-5.3-5.3h-.2c0,.1,0,.2.1.2A9.8,9.8,0,0,1,43.9,25.6Z"/>
    <path class="cls-80" d="M46.3,37H44.7a.4.4,0,0,0-.1.3,1.3,1.3,0,0,1-.1.6,1,1,0,0,1-.5.4l-.5.2h-.1l-.6-.2c-.1-.1-.3-.2-.4-.4a1.3,1.3,0,0,1-.1-.6V32.5c0-.3,0-.5.1-.6l.4-.5h1.3l.4.4a1.3,1.3,0,0,1,.1.6h0c0,.1,0,.1.1.2s.1.1.1.2h1.5l.2-.2v-.2h0a2.8,2.8,0,0,0-.4-1.5,1.3,1.3,0,0,0-.6-.7l-.8-.5-1-.2h-.5a2.8,2.8,0,0,0-1.3.4l-.8.6a3.6,3.6,0,0,0-.4.9,1.6,1.6,0,0,0-.2,1v4.9a2.4,2.4,0,0,0,.4,1.5,1.6,1.6,0,0,0,.6.8l.8.5,1,.2h.4a4.2,4.2,0,0,0,1.5-.4,4.6,4.6,0,0,0,.7-.7,2,2,0,0,0,.4-.8,2.2,2.2,0,0,0,.2-1.1h0v-.3Z"/>
    <path class="cls-81" d="M30.3,40.2c.1-.1.1-.1.1-.2h0l-1.9-9.7-.2-.3H25.7l-.2.3-2,9.7h0c0,.1,0,.1.1.2h1.8c.1,0,.1-.1.1-.2l.5-2.5h1.9l.5,2.5c0,.2.1.3.4.3h1.5Zm-4-4.4.6-3.8H27l.7,3.8Z"/>
    <path class="cls-82" d="M39.1,40.1a.3.3,0,0,0,.1-.2V30.1a.3.3,0,0,0-.1-.2H36.8c-.1.1-.2.2-.2.3l-1.4,4.4-1.3-4.4c0-.1-.1-.1-.1-.2H31.5c-.1,0-.1.1-.1.2a.1.1,0,0,0-.1.1v9.8a.1.1,0,0,0,.1.1.3.3,0,0,0,.1.2H33a.3.3,0,0,0,.1-.2h.1V33.6l1.1,3.7c0,.1.1.1.1.2H36a.1.1,0,0,0,.1-.1.1.1,0,0,0,.1-.1l1.1-3.7v6.3a.3.3,0,0,0,.1.2l.3.2h1.1Z"/>
    <path class="cls-83" d="M35,16.9A18.1,18.1,0,1,0,53.1,35,18.1,18.1,0,0,0,35,16.9Zm0,35.2A17.1,17.1,0,1,1,52.1,35,17.2,17.2,0,0,1,35,52.1Z"/>
    <path class="cls-84" d="M35,15.3A19.7,19.7,0,1,0,54.7,35,19.7,19.7,0,0,0,35,15.3Zm0,39A19.3,19.3,0,1,1,54.3,35,19.4,19.4,0,0,1,35,54.3Z"/>
    <rect class="cls-85" x="32.3" y="22.8" width="5.2" height="0.84"/>
    <polygon class="cls-86" points="37.5 19.4 36.1 20.9 34.9 19.4 33.6 20.9 32.3 19.4 32.3 22.5 37.5 22.5 37.5 19.4"/>
    <polygon class="cls-87" points="35.8 47.7 35 48.2 34.2 47.7 34.3 48.6 33.6 49.3 34.6 49.4 35 50.2 35.4 49.4 36.3 49.3 35.6 48.6 35.8 47.7"/>
    <polygon class="cls-88" points="39.3 47 38.8 47.6 38 47.6 38.5 48.2 38.2 48.9 39 48.7 39.6 49.2 39.6 48.4 40.3 48 39.5 47.7 39.3 47"/>
    <polygon class="cls-89" points="31.1 47.6 30.6 47 30.4 47.7 29.7 48 30.3 48.4 30.4 49.2 31 48.7 31.7 48.9 31.4 48.2 31.9 47.6 31.1 47.6"/>
  </g>
</svg>
