<svg id="Layer_1" data-name="Layer 1" xmlns="http://www.w3.org/2000/svg" xmlns:xlink="http://www.w3.org/1999/xlink" width="374.5" height="89.4" viewBox="0 0 374.5 89.4">
  <defs>
    <style>
      .cls-1 {
        fill: url(#linear-gradient);
      }

      .cls-2, .cls-4, .cls-5 {
        fill: #fff;
      }

      .cls-2 {
        opacity: 0.3;
      }

      .cls-2, .cls-3, .cls-4 {
        isolation: isolate;
      }

      .cls-4 {
        font-size: 16px;
        font-family: Montserrat-Medium, Montserrat;
      }
    </style>
    <linearGradient id="linear-gradient" x1="405.55" y1="126.36" x2="21.53" y2="-32.27" gradientUnits="userSpaceOnUse">
      <stop offset="0" stop-color="#75c8b8"/>
      <stop offset="1" stop-color="#71bbe4"/>
    </linearGradient>
  </defs>
  <title>banner_pumbing_P0</title>
  <g id="Page-1">
    <g id="UI---Screen-7---v2">
      <g id="Group-2">
        <path id="Path-4" class="cls-1" d="M0,72.4C71,74,112,68.2,210.5,71c58.9,1.7,113.3,7.8,164,18.4V0H0Z"/>
        <rect id="Rectangle-Copy-2" class="cls-2" x="23.5" y="22" width="47" height="7" rx="3.3" ry="3.3"/>
        <rect id="Rectangle-Copy-4" class="cls-2" x="186.5" y="29" width="47" height="7" rx="3.3" ry="3.3"/>
        <rect id="Rectangle-Copy-3" class="cls-2" x="64.5" y="35" width="47" height="7" rx="3.3" ry="3.3"/>
        <rect id="Rectangle-Copy-5" class="cls-2" x="233.5" y="42" width="47" height="7" rx="3.3" ry="3.3"/>
        <g id="sweep">
          <g id="_" data-name="+" class="cls-3">
            <text class="cls-4" transform="translate(361.5 30.5)">+</text>
          </g>
          <g id="_-copy" data-name="+-copy" class="cls-3">
            <text class="cls-4" transform="translate(336.5 14)">+</text>
          </g>
        </g>
      </g>
    </g>
  </g>
  <g>
    <path class="cls-5" d="M313.7,56.7h41.8a4.1,4.1,0,0,0,4.1-4.1V20.8a4,4,0,0,0-4.1-4H313.7a4,4,0,0,0-4.1,4V52.6A4.1,4.1,0,0,0,313.7,56.7ZM311,20.8a2.7,2.7,0,0,1,2.7-2.6h41.8a2.7,2.7,0,0,1,2.7,2.6V52.6a2.7,2.7,0,0,1-2.7,2.6H313.7a2.7,2.7,0,0,1-2.7-2.6Z"/>
    <path class="cls-5" d="M317,24.3h1.8v.2a2.4,2.4,0,0,0,2.4,2.4H323a2.5,2.5,0,0,0,2.5-2.4v-.2h1.8a.7.7,0,0,0,0-1.4h-1.8v-.2a2.4,2.4,0,0,0-2.5-2.4h-1.8a2.4,2.4,0,0,0-2.4,2.4v.2H317a.7.7,0,1,0,0,1.4Zm3.3-1.6a.9.9,0,0,1,.9-1H323a.9.9,0,0,1,1,1v1.8a.9.9,0,0,1-1,.9h-1.8a.9.9,0,0,1-.9-.9Z"/>
    <path class="cls-5" d="M342,24.3h1.8v.2a2.4,2.4,0,0,0,2.4,2.4H348a2.4,2.4,0,0,0,2.4-2.4v-.2h1.8a.7.7,0,1,0,0-1.4h-1.8v-.2a2.3,2.3,0,0,0-2.4-2.4h-1.8a2.4,2.4,0,0,0-2.4,2.4v.2H342a.7.7,0,1,0,0,1.4Zm3.2-1.6a1,1,0,0,1,1-1H348a.9.9,0,0,1,1,1v1.8a.9.9,0,0,1-1,.9h-1.8a1,1,0,0,1-1-.9Z"/>
    <path class="cls-5" d="M317.5,52.5h34.2a3,3,0,0,0,3-2.9V31.5a3,3,0,0,0-3-2.9H339.2l.2-4.7a2.4,2.4,0,0,0-.7-2,2.7,2.7,0,0,0-1.9-.8h-4.3a3,3,0,0,0-2,.8,2.7,2.7,0,0,0-.7,2l.3,4.7H317.5a2.9,2.9,0,0,0-2.9,2.9V49.6A2.9,2.9,0,0,0,317.5,52.5Zm14.1-29.6a1,1,0,0,1,.9-.4h4.3a1.2,1.2,0,0,1,.9.4,1.4,1.4,0,0,1,.3.9l-.4,8.8a3,3,0,0,1-5.9,0l-.5-8.8A1.1,1.1,0,0,1,331.6,22.9ZM316,31.5a1.5,1.5,0,0,1,1.5-1.5h12.6l.2,2.6a4.4,4.4,0,0,0,8.7,0V30h12.6a1.5,1.5,0,0,1,1.5,1.5V49.6a1.5,1.5,0,0,1-1.5,1.5H317.5a1.5,1.5,0,0,1-1.5-1.5Z"/>
    <path class="cls-5" d="M334.6,47.7a3.3,3.3,0,0,0,3.3-3.3,3.2,3.2,0,0,0-3.3-3.2,3.2,3.2,0,0,0-3.2,3.2A3.2,3.2,0,0,0,334.6,47.7Zm0-5.1a1.8,1.8,0,0,1,1.9,1.8,1.8,1.8,0,0,1-1.9,1.9,1.8,1.8,0,0,1-1.8-1.9A1.8,1.8,0,0,1,334.6,42.6Z"/>
  </g>
</svg>
