<svg id="Layer_1" data-name="Layer 1" xmlns="http://www.w3.org/2000/svg" xmlns:xlink="http://www.w3.org/1999/xlink" width="374.5" height="89.4" viewBox="0 0 374.5 89.4">
  <defs>
    <style>
      .cls-1 {
        fill: url(#linear-gradient);
      }

      .cls-2, .cls-4, .cls-5 {
        fill: #fff;
      }

      .cls-2 {
        opacity: 0.3;
      }

      .cls-2, .cls-3, .cls-4 {
        isolation: isolate;
      }

      .cls-4 {
        font-size: 16px;
        font-family: Montserrat-Medium, Montserrat;
      }
    </style>
    <linearGradient id="linear-gradient" x1="405.55" y1="126.36" x2="21.53" y2="-32.27" gradientUnits="userSpaceOnUse">
      <stop offset="0" stop-color="#75c9b9"/>
      <stop offset="1" stop-color="#72bde5"/>
    </linearGradient>
  </defs>
  <title>banner_housekeeping_H0</title>
  <g id="Page-1">
    <g id="UI---Screen-7---v2">
      <g id="Group-2">
        <path id="Path-4" class="cls-1" d="M0,72.4C71,74,112,68.2,210.5,71c58.9,1.7,113.3,7.8,164,18.4V0H0Z"/>
        <rect id="Rectangle-Copy-2" class="cls-2" x="23.5" y="22" width="47" height="7" rx="3.3" ry="3.3"/>
        <path id="Rectangle-Copy-4" class="cls-2" d="M189.8,29h40.5a3.2,3.2,0,0,1,3.2,3.2v.5a3.3,3.3,0,0,1-3.2,3.3H189.8a3.2,3.2,0,0,1-3.2-3.2v-.5a3.2,3.2,0,0,1,3.2-3.2Z"/>
        <rect id="Rectangle-Copy-3" class="cls-2" x="64.5" y="35" width="47" height="7" rx="3.3" ry="3.3"/>
        <rect id="Rectangle-Copy-5" class="cls-2" x="233.5" y="42" width="47" height="7" rx="3.3" ry="3.3"/>
        <g id="sweep">
          <g id="_" data-name="+" class="cls-3">
            <text class="cls-4" transform="translate(353.7 26)">+</text>
          </g>
          <g id="_-copy" data-name="+-copy" class="cls-3">
            <text class="cls-4" transform="translate(336.5 14)">+</text>
          </g>
        </g>
      </g>
    </g>
  </g>
  <g>
    <polygon class="cls-5" points="322.5 18.4 324 18.4 324 19.9 325.4 19.9 325.4 18.4 326.9 18.4 326.9 17 325.4 17 325.4 15.6 324 15.6 324 17 322.5 17 322.5 18.4"/>
    <path class="cls-5" d="M311.2,31h4.6v-.2h.1v-.2h0v-.2h-.1v-.2h-.1v-.2h.1v-.2h0v-.2h-.1V27h-4.5v1.5h0v.4h0v.4h0v.9h.1v.2h0v.4Zm3.3-1.3h-1.8v-.2h0v-.2h1.8Zm-1.8-1.9h1.7V28h-1.7Z"/>
    <polygon class="cls-5" points="318.4 29.6 318.5 29.6 318.6 29.6 319 29.6 319.6 29.6 319.7 29.6 320 29.6 320.1 29.6 320.2 29.6 320.3 29.7 320.3 29.8 320.3 30.2 320.3 30.3 320.3 30.8 320.3 30.9 320.3 31.4 320.3 31.5 320.4 31.6 320.5 31.6 320.6 31.6 321 31.6 321.1 31.6 321.5 31.6 321.6 31.6 321.7 31.6 321.7 31.5 321.8 31.4 321.8 31.3 321.8 31.2 321.7 31 321.7 30.9 321.7 30.4 321.7 30 321.7 29.9 321.7 29.5 321.7 29.4 321.8 29 321.8 28.9 321.8 28.5 321.8 28.4 321.8 28 321.8 27.9 321.8 27.5 321.8 27.4 321.7 27 321.8 26.9 321.8 26.6 321.8 26.4 321.7 26.3 321.7 26.3 321.6 26.3 321.5 26.3 321.4 26.3 321.1 26.3 321 26.3 320.6 26.3 320.4 26.3 320.4 26.3 320.3 26.3 320.3 26.5 320.3 26.9 320.3 27.1 320.3 27.5 320.3 27.7 320.3 28.1 320.3 28.2 320.2 28.3 320.2 28.3 320.1 28.3 320 28.3 319.6 28.3 319.1 28.3 319 28.3 318.7 28.3 318.6 28.3 318.5 28.3 318.4 28.3 318.4 28.3 318.4 28.2 318.4 28.1 318.4 27.5 318.4 27.1 318.4 26.9 318.4 26.6 318.4 26.5 318.4 26.4 318.4 26.4 318.3 26.3 318.2 26.3 318.1 26.3 318 26.3 317.7 26.3 317.6 26.3 317.2 26.3 317.1 26.3 317 26.3 316.9 26.3 316.9 26.4 316.8 26.4 316.8 26.6 316.9 26.9 316.9 27 316.9 27.4 316.9 27.5 316.9 27.9 316.9 28 316.9 28.5 316.9 28.9 316.9 29 316.9 29.4 316.9 29.5 316.9 29.9 316.9 30 316.9 30.4 316.9 31 316.8 31.2 316.8 31.4 316.9 31.4 316.9 31.5 316.9 31.5 317 31.6 317 31.6 317.1 31.6 317.2 31.6 317.6 31.6 317.7 31.6 318 31.6 318.1 31.6 318.2 31.6 318.3 31.6 318.4 31.5 318.4 31.4 318.4 31.3 318.4 30.9 318.4 30.8 318.4 30.3 318.4 30.2 318.4 29.8 318.4 29.7 318.4 29.6"/>
    <polygon class="cls-5" points="324.3 30.6 324.3 30.1 324.3 30 324.4 29.9 324.4 30 324.5 30 324.5 30.1 324.8 30.4 324.8 30.5 325.1 30.8 325.2 30.8 325.4 31.2 325.5 31.3 325.8 31.5 325.8 31.6 325.9 31.6 326.4 31.6 326.5 31.6 327 31.6 327.1 31.6 327.5 31.6 327.6 31.6 327.6 31.6 327.6 31.5 327.7 31.5 327.6 31.4 327.3 31.1 327.2 31 326.9 30.7 326.8 30.6 326.5 30.3 326.5 30.2 326.2 29.8 326.1 29.7 325.8 29.4 325.7 29.3 325.4 29 325.4 28.9 325.4 28.9 325.4 28.8 325.4 28.8 325.5 28.7 325.7 28.5 325.8 28.4 326 28.1 326.1 28 326.4 27.7 326.5 27.6 326.8 27.3 326.8 27.2 327.1 26.8 327.2 26.8 327.4 26.4 327.5 26.4 327.5 26.4 327.5 26.3 327.4 26.3 327.4 26.3 327.1 26.3 327 26.3 326.7 26.3 326.2 26.3 326.1 26.3 325.8 26.3 325.7 26.3 325.7 26.4 325.4 26.7 325.3 26.8 325.1 27.1 324.7 27.5 324.5 27.9 324.4 27.9 324.3 27.9 324.3 27.8 324.3 27.4 324.3 27.3 324.3 26.9 324.3 26.8 324.3 26.6 324.3 26.5 324.3 26.4 324.3 26.3 324.3 26.3 324.2 26.3 323.8 26.3 323.7 26.3 323.4 26.3 323.3 26.3 323 26.3 322.9 26.3 322.9 26.3 322.8 26.3 322.8 26.4 322.8 26.8 322.8 26.9 322.8 27.9 322.8 28 322.8 28.4 322.8 28.5 322.8 28.9 322.8 29.4 322.8 29.5 322.8 29.9 322.8 30 322.8 30.6 322.8 31 322.8 31.1 322.8 31.3 322.8 31.4 322.8 31.5 322.8 31.5 322.8 31.6 322.9 31.6 323.3 31.6 323.4 31.6 323.7 31.6 323.9 31.6 324.2 31.6 324.3 31.6 324.3 31.5 324.3 31.5 324.3 31.4 324.3 31.3 324.3 31.1 324.3 31 324.3 30.6"/>
    <polygon class="cls-5" points="317.7 18.9 317.8 18.8 318 18.8 318.2 18.7 318.4 18.7 318.9 18.8 319.6 18.8 320.5 18.8 320.7 18.8 321.2 18.8 321.3 18.8 321.4 18.8 321.6 18.7 321.6 18.7 321.7 18.5 321.7 18.3 321.7 18.1 321.7 17.8 321.7 17.4 321.7 17.3 321.7 17.2 321.7 17.1 321.6 17 321.6 17 321.4 16.9 321.1 16.9 320.8 16.9 319.8 16.9 319.1 17 318.2 16.9 317.5 16.9 317.3 16.9 316.7 17 316.5 17 316.1 16.9 315.9 16.9 315.7 16.9 315.6 17 315.6 17.2 315.6 17.3 315.6 17.5 315.6 17.9 315.6 18 315.6 18.7 315.6 18.9 315.6 19.5 315.6 19.7 315.6 20.4 315.6 20.6 315.6 21.2 315.6 21.4 315.7 21.5 315.9 21.5 317.2 21.5 317.4 21.5 318.1 21.5 318.4 21.5 318.7 21.5 318.9 21.5 319.1 21.5 319.3 21.6 319.5 21.6 319.6 21.8 319.7 21.9 319.8 22 319.9 22.1 319.9 22.3 319.9 22.5 319.9 22.6 319.8 22.8 319.6 23 319.5 23.1 319.3 23.1 319.1 23.2 318.9 23.2 318.7 23.2 318.5 23.2 318.3 23.1 318.2 23.1 318 23 317.9 22.9 317.8 22.7 317.7 22.5 317.7 22.4 317.6 22.3 317.4 22.3 317.2 22.3 316.7 22.3 316.5 22.3 316 22.3 315.7 22.3 315.6 22.3 315.5 22.4 315.5 22.6 315.5 22.7 315.5 22.9 315.6 23.2 315.6 23.3 315.7 23.5 315.8 23.7 315.9 23.9 316 24 316.2 24.2 316.3 24.3 316.5 24.4 316.6 24.5 316.8 24.7 317 24.8 317.2 24.8 317.3 24.9 317.6 24.9 317.8 24.9 318.1 25 318.3 25 318.5 25 318.7 25 318.9 25 319.1 25 319.3 25 319.5 25 319.7 25 319.9 24.9 320.1 24.9 320.3 24.8 320.5 24.7 320.6 24.6 320.8 24.5 321 24.4 321.3 24.2 321.4 24.1 321.7 23.8 321.8 23.6 321.9 23.5 322 23.2 322 23.1 322.1 22.8 322.1 22.7 322.1 22.5 322.1 22.3 322.1 22.1 322.1 21.9 322 21.7 322 21.5 321.9 21.2 321.8 21.1 321.7 20.9 321.6 20.8 321.5 20.6 321.2 20.3 321 20.2 320.9 20.1 320.7 20 320.5 19.9 320.3 19.9 319.9 19.8 319.7 19.8 319.5 19.8 319.1 19.7 318.9 19.7 318.7 19.7 318.1 19.7 317.9 19.7 317.8 19.6 317.7 19.5 317.7 19.4 317.7 19 317.7 18.9"/>
    <path class="cls-5" d="M319.8,62.2a2,2,0,0,0,.9,1.8l-.3.3a.7.7,0,0,0,0,1,.6.6,0,0,0,1,0l1-.9h.4a.6.6,0,0,0,.1.9.6.6,0,0,0,1,0l1-.9h.4a.7.7,0,0,0,.1.9c.2.2.3.3.5.3a.9.9,0,0,0,.6-.3l.9-.9h.4a.7.7,0,0,0,.1.9c.2.2.3.3.5.3a.9.9,0,0,0,.6-.3l.9-.9h.4v.4a.8.8,0,0,0,.7.8.9.9,0,0,0,.8-.8v-.4h.3l1,.9a.6.6,0,0,0,1,0,.6.6,0,0,0,.1-.9h.5l.9.9a.6.6,0,0,0,1,0,.6.6,0,0,0,.1-.9h.5l.9.9a.6.6,0,0,0,1,0,.6.6,0,0,0,.1-.9h.5l.9.9c.2.2.3.3.5.3a.9.9,0,0,0,.6-.3.9.9,0,0,0,0-1l-.5-.4.5-.6h5.5a.8.8,0,0,0,.7-.8.7.7,0,0,0-.7-.7h-5.3a2.1,2.1,0,0,0-2.1-1.7h-2V58.7a1.2,1.2,0,0,0-1.3-1.2h-2.6V54.9a1.3,1.3,0,0,0-1.2-1.2h-.2V45.5h25.1l-1.9,10.2-9.2-4.9a4,4,0,0,0-4-3.7,3.9,3.9,0,1,0,2,7.3l10.4,5.5-.3,1.5a.4.4,0,0,1-.4.4h-3.1a.7.7,0,0,0-.7.7.8.8,0,0,0,.7.8h3.1a2,2,0,0,0,1.9-1.6l.2-1.4a2.1,2.1,0,0,0,1.6-1.1,2,2,0,0,0-.8-2.7H357l2.1-11h.9a1.2,1.2,0,0,0,1.2-1.2V42.4a1.2,1.2,0,0,0-1.2-1.2h-.7a3.4,3.4,0,0,0-.9-1.9,3.2,3.2,0,0,0-1.7-.9,3.8,3.8,0,0,0-.9-1.5,4.3,4.3,0,0,0-3-1.3h-.4a4.2,4.2,0,0,0-4-2.8,4.1,4.1,0,0,0-3.7,2.3,3.3,3.3,0,0,0-6.3,1.4,3.5,3.5,0,0,0-2.5,2.5h-3.4V32.8a.7.7,0,1,0-1.4,0V53.7h-.4V23.4h.4v6.1a.7.7,0,1,0,1.4,0V16.3a1.2,1.2,0,0,0-1.2-1.2h-.9a1.2,1.2,0,0,0-1.2,1.2V39.1h-.5a1.2,1.2,0,0,0-1.3,1.2v4a1.2,1.2,0,0,0,1.3,1.2h.5v8.2h-.1a1.3,1.3,0,0,0-1.3,1.2v2.6h-2.6a1.2,1.2,0,0,0-1.2,1.2v1.4h-2.1A2.1,2.1,0,0,0,319.8,62.2Zm22.7-8.8a2.5,2.5,0,0,1,0-4.9,2.5,2.5,0,0,1,2.2,1.4l-.8-.4a1.6,1.6,0,0,0-.9-.3,1.9,1.9,0,0,0-1.8,1.1,2,2,0,0,0-.2,1.5,2.4,2.4,0,0,0,1,1.2l.8.4Zm14.1,5.1a.5.5,0,0,1-.5.3h-.2l-13.2-7c-.1,0-.2-.2-.2-.3a.3.3,0,0,1,0-.4.5.5,0,0,1,.5-.3h.2l13.2,7A.6.6,0,0,1,356.6,58.5Zm-3.8-21.4a2.7,2.7,0,0,1,1.9.8,2.4,2.4,0,0,1,.7,1.3,1.1,1.1,0,0,0,.7.6,1.7,1.7,0,0,1,1.2.5,1.6,1.6,0,0,1,.5.9h-3a2.7,2.7,0,0,0-2.6-2h-.4a4.1,4.1,0,0,0-.8-1.3A2.5,2.5,0,0,1,352.8,37.1Zm-4.4-2.7a2.6,2.6,0,0,1,2.5,1.7,2.5,2.5,0,0,0-1,.8l-.3.2h-.7a2.7,2.7,0,0,0-1.7.6,3.3,3.3,0,0,0-1.4-1.2A2.7,2.7,0,0,1,348.4,34.4ZM338.9,38h.3a1.8,1.8,0,0,1,1.2.5.7.7,0,0,0,1-.1.7.7,0,0,0,0-1,3.7,3.7,0,0,0-1.5-.8,1.8,1.8,0,0,1,1.8-1.8,1.8,1.8,0,0,1,1.8,1.9h0a.8.8,0,0,0,.2.6.9.9,0,0,0,.6.3h.2a1.8,1.8,0,0,1,1.7,1.2A5,5,0,0,0,346,40a.7.7,0,0,0,.7.7.8.8,0,0,0,.8-.7,1.1,1.1,0,0,1,.2-.8.1.1,0,0,1,.1-.1,1.3,1.3,0,0,1,1.1-.6,1.5,1.5,0,0,1,1.5,1.5.7.7,0,0,0,.7.7h1.1a1.1,1.1,0,0,1,.9.5H342.9v-.9a1.2,1.2,0,0,0-1.3-1.2h-4.1A1.9,1.9,0,0,1,338.9,38Zm-6.4,2.6h8.9V42h-8.9Zm0,2.8h9.1a1.2,1.2,0,0,0,1.2-.8h17V44H332.5Zm-1.8-26.8h.4v5.3h-.4Zm-1.4,38.6h3.1v2.3h-3.1Zm-.4-14.6h.3V42h-.3Zm0,3.4v-.6h.3V44Zm2.7,17.6a.8.8,0,0,0,.7-.8.7.7,0,0,0-.7-.7h-6.2V59h10.9v1.1h-.9a.7.7,0,0,0-.7.7.8.8,0,0,0,.7.8h4.4a.7.7,0,0,1,.7.6.7.7,0,0,1-.7.7H321.9a.8.8,0,0,1-.7-.7c0-.3.4-.6.7-.6Z"/>
  </g>
</svg>
