<svg id="Layer_1" data-name="Layer 1" xmlns="http://www.w3.org/2000/svg" xmlns:xlink="http://www.w3.org/1999/xlink" width="70" height="70" viewBox="0 0 70 70">
  <defs>
    <style>
      .cls-1 {
        fill: #f6f6f6;
      }

      .cls-2 {
        fill: url(#linear-gradient);
      }
    </style>
    <linearGradient id="linear-gradient" x1="51.16" y1="75.15" x2="28.98" y2="-10.74" gradientUnits="userSpaceOnUse">
      <stop offset="0" stop-color="#75c9b9"/>
      <stop offset="1" stop-color="#72bde5"/>
    </linearGradient>
  </defs>
  <title>icon_plumbing_P0</title>
  <path id="Rectangle" class="cls-1" d="M3,0H67a2.9,2.9,0,0,1,3,3V67a2.9,2.9,0,0,1-3,3H3a2.9,2.9,0,0,1-3-3V3A2.9,2.9,0,0,1,3,0Z"/>
  <path class="cls-2" d="M56.9,6.8H13.1A2.9,2.9,0,0,0,10,9.5a2.9,2.9,0,0,0,3.1,2.6h.2V26.4c0,2.4,2.3,4.4,5.1,4.4h2.2v2.8H18.4a3,3,0,0,0-3.1,2.5,2.7,2.7,0,0,0,2.8,2.8c.6,5.6,4.7,10.4,10.7,12.5l.3,1.7a7.1,7.1,0,0,1-.2,4.8H23.6a1,1,0,0,0-1.1.9v3.5a.9.9,0,0,0,.3.7l.8.2H46.4l.8-.2a.9.9,0,0,0,.3-.7V58.8a1,1,0,0,0-1.1-.9H41.1a7.1,7.1,0,0,1-.2-4.8l.3-1.7c6-2.1,10.1-6.9,10.7-12.5a2.7,2.7,0,0,0,2.8-2.8,3,3,0,0,0-3.1-2.5H49.4V30.8h2.2c2.8,0,5.1-2,5.1-4.4V12.1h.2A2.9,2.9,0,0,0,60,9.5,2.9,2.9,0,0,0,56.9,6.8ZM45.4,59.7v1.7H24.6V59.7Zm-6.5-1.8H31.1a8.4,8.4,0,0,0,.1-5.2V52a17.1,17.1,0,0,0,7.8,0v.7A8.4,8.4,0,0,0,38.9,57.9ZM35,50.6c-7.6,0-14-5-14.8-11.6H49.8C49,45.6,42.6,50.6,35,50.6ZM51.6,35.5a.9.9,0,0,1,1,.8,1,1,0,0,1-1,.8H18.4a1,1,0,0,1-1-.8.9.9,0,0,1,1-.8ZM35,16.3c-6.1,0-11.2,4.3-11.2,9.7v7.6h-1V26c0-5.9,5.5-10.7,12.2-10.7S47.2,20.1,47.2,26v7.6h-1V26C46.2,20.6,41.1,16.3,35,16.3ZM44,26v7.6H26V26c0-4.3,4-7.9,9-7.9S44,21.7,44,26Zm10.5.4a2.7,2.7,0,0,1-2.9,2.5H49.4V26c0-6.9-6.5-12.5-14.4-12.5S20.6,19.1,20.6,26v2.9H18.4a2.7,2.7,0,0,1-2.9-2.5V12.1h39Zm2.4-16.1H13.1a.9.9,0,0,1-1-.8.9.9,0,0,1,1-.9H56.9a.9.9,0,0,1,1,.9A.9.9,0,0,1,56.9,10.3Z"/>
</svg>
