<svg id="Layer_1" data-name="Layer 1" xmlns="http://www.w3.org/2000/svg" xmlns:xlink="http://www.w3.org/1999/xlink" width="70" height="70" viewBox="0 0 70 70">
  <defs>
    <style>
      .cls-1 {
        fill: #f6f6f6;
      }

      .cls-2 {
        font-size: 6px;
        font-family: MyriadPro-Regular, Myriad Pro;
      }

      .cls-3 {
        letter-spacing: -0.01em;
      }

      .cls-4 {
        letter-spacing: -0.01em;
      }

      .cls-5 {
        letter-spacing: -0.01em;
      }

      .cls-6 {
        fill: url(#linear-gradient);
      }

      .cls-7 {
        fill: url(#linear-gradient-2);
      }

      .cls-8 {
        fill: url(#linear-gradient-3);
      }

      .cls-9 {
        fill: url(#linear-gradient-4);
      }

      .cls-10 {
        fill: url(#linear-gradient-5);
      }
    </style>
    <linearGradient id="linear-gradient" x1="60.81" y1="81.12" x2="14.81" y2="-7.38" gradientUnits="userSpaceOnUse">
      <stop offset="0" stop-color="#75c9b9"/>
      <stop offset="1" stop-color="#72bde5"/>
    </linearGradient>
    <linearGradient id="linear-gradient-2" x1="55.44" y1="83.91" x2="9.44" y2="-4.59" xlink:href="#linear-gradient"/>
    <linearGradient id="linear-gradient-3" x1="54.46" y1="84.42" x2="8.46" y2="-4.08" xlink:href="#linear-gradient"/>
    <linearGradient id="linear-gradient-4" x1="62.11" y1="80.44" x2="16.11" y2="-8.06" xlink:href="#linear-gradient"/>
    <linearGradient id="linear-gradient-5" x1="66.79" y1="78.01" x2="20.79" y2="-10.49" xlink:href="#linear-gradient"/>
  </defs>
  <title>icon_electrical_E01</title>
  <path id="Rectangle" class="cls-1" d="M3,0H67a2.9,2.9,0,0,1,3,3V67a2.9,2.9,0,0,1-3,3H3a2.9,2.9,0,0,1-3-3V3A2.9,2.9,0,0,1,3,0Z"/>
  <text class="cls-2" transform="translate(20.8 -14.7)">Chan<tspan class="cls-3" x="13" y="0">g</tspan><tspan x="16.4" y="0">ing the </tspan><tspan class="cls-4" x="-7.7" y="7.2">C</tspan><tspan x="-4.3" y="7.2">ondenser </tspan><tspan class="cls-5" x="20.7" y="7.2">(</tspan><tspan class="cls-4" x="22.3" y="7.2">C</tspan><tspan x="25.7" y="7.2">eiling/ </tspan><tspan x="-2.9" y="14.4">Exhaust/</tspan><tspan class="cls-4" x="18.8" y="14.4">C</tspan><tspan x="22.2" y="14.4">ooler)</tspan></text>
  <g>
    <path class="cls-6" d="M21.8,15.8a1.4,1.4,0,0,0-.2-.6.5.5,0,0,0-.5-.3.8.8,0,0,0-1,.7V49.5a5.3,5.3,0,0,0,5.3,5.3h2.3v2H26.6a1.3,1.3,0,0,0-1.4,1.3v1.5A1.4,1.4,0,0,0,26.6,61h3.9a1.3,1.3,0,0,0,1.3-1.4V58.1a1.3,1.3,0,0,0-1.3-1.3H29.3v-2H42.2v2H41a1.3,1.3,0,0,0-1.3,1.3v1.5A1.3,1.3,0,0,0,41,61h3.9a1.4,1.4,0,0,0,1.4-1.4V58.1a1.3,1.3,0,0,0-1.4-1.3H43.8v-2h2.3a5.3,5.3,0,0,0,5.3-5.3V16.3A5.3,5.3,0,0,0,46.1,11H25.4a5.1,5.1,0,0,0-3.7,1.5.8.8,0,0,0,0,1.1.8.8,0,0,0,1.2,0,3.6,3.6,0,0,1,2.5-1H46.1a3.8,3.8,0,0,1,3.7,3.7v4.1a2.7,2.7,0,0,1-.3,1.2l-.9.8a4.3,4.3,0,0,0-2.2,3.8v2.6a.9.9,0,0,0,.8.8.9.9,0,0,0,.9-.8V26.2a2.5,2.5,0,0,1,1.3-2.3l.4-.3V42.8l-.4-.2-1-1a3.1,3.1,0,0,1-.3-1.3V31.7a.8.8,0,0,0-.9-.8.8.8,0,0,0-.8.8v8.6a3.9,3.9,0,0,0,.6,2.1A4.1,4.1,0,0,0,48.6,44a2.4,2.4,0,0,1,1.2,2v3.5a3.8,3.8,0,0,1-3.7,3.7H25.4a3.8,3.8,0,0,1-3.7-3.7V46a2.4,2.4,0,0,1,1.2-2,4.1,4.1,0,0,0,1.6-1.6,3.9,3.9,0,0,0,.6-2.1V26.2a4.3,4.3,0,0,0-2.2-3.8l-.9-.8a2.7,2.7,0,0,1-.3-1.2V16.3A.9.9,0,0,1,21.8,15.8Zm-.1,27V23.6l.4.3a2.5,2.5,0,0,1,1.3,2.3V40.3a3.1,3.1,0,0,1-.3,1.3l-1,1ZM41.4,59.3v-.9h3.2v.9Zm-14.5,0v-.9h3.2v.9Z"/>
    <path class="cls-7" d="M35.8,50.7A4.7,4.7,0,1,0,31.1,46,4.7,4.7,0,0,0,35.8,50.7Zm-3-4.7a3,3,0,1,1,5.9,0,3,3,0,1,1-5.9,0Z"/>
    <path class="cls-8" d="M34.3,46.8h.4a.8.8,0,0,0,.9-.8.9.9,0,0,0-.9-.8h-.4a.8.8,0,0,0-.8.8A.7.7,0,0,0,34.3,46.8Z"/>
    <path class="cls-9" d="M32.5,27.6a4.9,4.9,0,0,0-.6,2.3,3.9,3.9,0,0,0,7.7,0c0-3.1-3.2-5.8-3.3-5.9a1.1,1.1,0,0,0-1.1,0l-.9.9a.8.8,0,0,0,.1,1.2l.5.2a.6.6,0,0,0,.6-.3l.2-.2a6.4,6.4,0,0,1,2.2,4.1,2.2,2.2,0,1,1-4.3,0,3.8,3.8,0,0,1,.4-1.7.7.7,0,0,0-.4-1h0A.9.9,0,0,0,32.5,27.6Z"/>
    <path class="cls-10" d="M41.8,18.3a.8.8,0,0,0-.8-.8H30.5a.8.8,0,0,0-.8.8.9.9,0,0,0,.8.8H41A.9.9,0,0,0,41.8,18.3Z"/>
  </g>
</svg>
