<svg id="Layer_1" data-name="Layer 1" xmlns="http://www.w3.org/2000/svg" xmlns:xlink="http://www.w3.org/1999/xlink" width="374.5" height="89.4" viewBox="0 0 374.5 89.4">
  <defs>
    <style>
      .cls-1 {
        fill: url(#linear-gradient);
      }

      .cls-2, .cls-4, .cls-5 {
        fill: #fff;
      }

      .cls-2 {
        opacity: 0.3;
      }

      .cls-2, .cls-3, .cls-4 {
        isolation: isolate;
      }

      .cls-4 {
        font-size: 16px;
        font-family: Montserrat-Medium, Montserrat;
      }
    </style>
    <linearGradient id="linear-gradient" x1="405.55" y1="126.36" x2="21.53" y2="-32.27" gradientUnits="userSpaceOnUse">
      <stop offset="0" stop-color="#75c9b9"/>
      <stop offset="1" stop-color="#72bde5"/>
    </linearGradient>
  </defs>
  <title>banner_housekeeping_H0</title>
  <g id="Page-1">
    <g id="UI---Screen-7---v2">
      <g id="Group-2">
        <path id="Path-4" class="cls-1" d="M0,72.4C71,74,112,68.2,210.5,71c58.9,1.7,113.3,7.8,164,18.4V0H0Z"/>
        <rect id="Rectangle-Copy-2" class="cls-2" x="23.5" y="22" width="47" height="7" rx="3.3" ry="3.3"/>
        <path id="Rectangle-Copy-4" class="cls-2" d="M189.8,29h40.5a3.2,3.2,0,0,1,3.2,3.2v.5a3.3,3.3,0,0,1-3.2,3.3H189.8a3.3,3.3,0,0,1-3.3-3.3v-.5a3.2,3.2,0,0,1,3.2-3.2Z"/>
        <rect id="Rectangle-Copy-3" class="cls-2" x="64.5" y="35" width="47" height="7" rx="3.3" ry="3.3"/>
        <rect id="Rectangle-Copy-5" class="cls-2" x="233.5" y="42" width="47" height="7" rx="3.3" ry="3.3"/>
        <g id="sweep">
          <g id="_" data-name="+" class="cls-3">
            <text class="cls-4" transform="translate(305.2 26)">+</text>
          </g>
          <g id="_-copy" data-name="+-copy" class="cls-3">
            <text class="cls-4" transform="translate(336.5 14)">+</text>
          </g>
        </g>
      </g>
    </g>
  </g>
  <g>
    <path class="cls-5" d="M345.9,53.5a.8.8,0,0,0,.7-.5c0-.1.1-.1.1-.2V51.6h1.4a6.9,6.9,0,0,0,6.6-4.7,7,7,0,0,0,0-13.6,6.9,6.9,0,0,0-3.8-5,6.9,6.9,0,0,0-7-6.4,7,7,0,0,0-7,6.4h-.3a14.1,14.1,0,0,0-7.4,2,6.8,6.8,0,0,0-3.5-1,7.2,7.2,0,0,0-6.9,5.6,7.1,7.1,0,0,0-1.5,12.6,7,7,0,0,0,7,6.6,7.3,7.3,0,0,0,3-.7h0a.9.9,0,0,0,.6-.3h0a7.8,7.8,0,0,0,2.5-2.6h13.9l.9.5v1.7A.8.8,0,0,0,345.9,53.5Zm-2-30.1a5.6,5.6,0,0,1,5.6,5.5v.4l.4.2a5.6,5.6,0,0,1,3.4,4.6v.6h.5a5.6,5.6,0,0,1,.1,11h-.4v.4a5.7,5.7,0,0,1-5.4,4.1h-.3a3.5,3.5,0,0,0,1.7-2.3v-.4c-.9-4.4-.5-5.4-.4-5.6h.1a2.4,2.4,0,0,0,1.2,0,3.4,3.4,0,0,0,2.7-2.8,3.5,3.5,0,0,0-.9-2.7,4.4,4.4,0,0,0-3.2-1,10.9,10.9,0,0,0-3.4-4.3l-.8-.5a14.9,14.9,0,0,0-6-2.2h-.4A5.6,5.6,0,0,1,343.9,23.4Zm-13.4,7.9a13.7,13.7,0,0,1,6.1-1.5h2.3a13.7,13.7,0,0,1,4.7,1.6,10.4,10.4,0,0,1,4,4.1c0,.1,0,.2.1.2l-.7.5a6.9,6.9,0,0,0-1.3,1.1l-.4.5-.6,1.3-.2.3-.3,1.1c0,.2-.1.5-.1.8a13.1,13.1,0,0,0-.3,2.7H329.4a21.2,21.2,0,0,0-.3-3.3l-.3-.8c0-.2-.1-.3-.1-.5l-.3-.7a4.1,4.1,0,0,0-.5-.9l-.8-.9a2.7,2.7,0,0,0-.8-.7l-.4-.3a11.8,11.8,0,0,1,1.1-1.9,10.6,10.6,0,0,1,1.5-1.5l.7-.6ZM318.7,47.1v-.4l-.4-.2a5.5,5.5,0,0,1,1.4-10.2h.4v-.5a5.7,5.7,0,0,1,5.5-4.8,7.8,7.8,0,0,1,2.2.4l-.4.3-1.4,1.5a9.2,9.2,0,0,0-1.5,2.5,2.8,2.8,0,0,0-1.8,0,4,4,0,0,0-1.6.7l-.2.2a3.7,3.7,0,0,0-.6.9,3.2,3.2,0,0,0-.3,1.8,3.5,3.5,0,0,0,2.7,2.8,2.4,2.4,0,0,0,1.2,0h.1c.1.2.5,1.2-.4,5.6V48c.6,1.6,1.4,2.4,2.8,2.6h.1v1.6a5.9,5.9,0,0,1-2.3.5A5.6,5.6,0,0,1,318.7,47.1Zm9.3,4.2v-.7h.6Zm14.7-2.1H326.6c-.4-.1-1-.2-1.4-1.5s.4-2.2.5-3.1V42.5a.7.7,0,0,0-.1-.5v-.2c-.1-.2-.1-.4-.2-.5l-.2-.2h0a1.2,1.2,0,0,0-.5-.5h-1.6a2.1,2.1,0,0,1-1.5-1.6,1.8,1.8,0,0,1,.5-1.5,1.4,1.4,0,0,1,1-.5,2.4,2.4,0,0,1,1.2,0,3,3,0,0,1,1.1.6,1,1,0,0,1,.5.4l.3.2h0l.5.5a3.1,3.1,0,0,1,.6,1.3,1.4,1.4,0,0,1,.2.6.9.9,0,0,1,.1.5.9.9,0,0,1,.1.5v.2c0,.4.1.7.1,1a1.5,1.5,0,0,0,.1.7v1.3a.8.8,0,0,0,.2.4c0,.1.1.1.2.2h.2a.1.1,0,0,0,.1.1h15.8a.7.7,0,0,0,.7-.7,15,15,0,0,1,.7-4.8,3.1,3.1,0,0,1,.6-1.3,4.9,4.9,0,0,1,1.3-1.2h0a4.5,4.5,0,0,1,1.2-.6h1.1a2.4,2.4,0,0,1,1.1.6,2.2,2.2,0,0,1,.5,1.5,2.2,2.2,0,0,1-1.6,1.6h-1.6l-.4.3a.2.2,0,0,1-.2.2v.2a.8.8,0,0,0-.2.5c-.1.2-.1.4-.2.6a14.8,14.8,0,0,0,.3,3.9l.3,1.4a3.6,3.6,0,0,1-.6,1.1h-.2a.1.1,0,0,1-.1.1h0l-.6.2h-3.9Z"/>
    <path class="cls-5" d="M360.6,44.3c-.4-.1-.7.2-.8.6A23.8,23.8,0,1,1,356,27h-.1l-2.8,1.6,6.8,4V24.7L357.7,26l-.4.2a25.2,25.2,0,1,0-20.8,39.2,25.2,25.2,0,0,0,24.7-20.2A.8.8,0,0,0,360.6,44.3Z"/>
    <path class="cls-5" d="M327.5,22.5a.8.8,0,0,0-.8.8v.8a.9.9,0,0,0,.8.9.9.9,0,0,0,.9-.9v-.8A.8.8,0,0,0,327.5,22.5Z"/>
    <path class="cls-5" d="M325.8,25H325a.8.8,0,0,0-.8.8.8.8,0,0,0,.8.9h.8a.9.9,0,0,0,.9-.9A.9.9,0,0,0,325.8,25Z"/>
    <path class="cls-5" d="M326.7,28.3a.9.9,0,0,0,.8.9.9.9,0,0,0,.9-.9v-.8a.8.8,0,0,0-.9-.8.8.8,0,0,0-.8.8Z"/>
    <path class="cls-5" d="M329.2,26.7h.8a.9.9,0,0,0,.9-.9.9.9,0,0,0-.9-.8h-.8a.8.8,0,0,0-.8.8A.8.8,0,0,0,329.2,26.7Z"/>
  </g>
</svg>
