<svg id="Layer_1" data-name="Layer 1" xmlns="http://www.w3.org/2000/svg" xmlns:xlink="http://www.w3.org/1999/xlink" width="374.5" height="89.4" viewBox="0 0 374.5 89.4">
  <defs>
    <style>
      .cls-1 {
        fill: url(#linear-gradient);
      }

      .cls-2, .cls-4, .cls-5 {
        fill: #fff;
      }

      .cls-2 {
        opacity: 0.3;
      }

      .cls-2, .cls-3, .cls-4 {
        isolation: isolate;
      }

      .cls-4 {
        font-size: 16px;
        font-family: Montserrat-Medium, Montserrat;
      }
    </style>
    <linearGradient id="linear-gradient" x1="405.55" y1="126.36" x2="21.53" y2="-32.27" gradientUnits="userSpaceOnUse">
      <stop offset="0" stop-color="#75c9b9"/>
      <stop offset="1" stop-color="#72bde5"/>
    </linearGradient>
  </defs>
  <title>banner_PC001</title>
  <g id="Page-1">
    <g id="UI---Screen-7---v2">
      <g id="Group-2">
        <path id="Path-4" class="cls-1" d="M0,72.4C71,74,112,68.2,210.5,71c58.9,1.7,113.3,7.8,164,18.4V0H0Z"/>
        <rect id="Rectangle-Copy-2" class="cls-2" x="23.5" y="22" width="47" height="7" rx="3.3" ry="3.3"/>
        <rect id="Rectangle-Copy-4" class="cls-2" x="186.5" y="29" width="47" height="7" rx="3.3" ry="3.3"/>
        <rect id="Rectangle-Copy-3" class="cls-2" x="64.5" y="35" width="47" height="7" rx="3.3" ry="3.3"/>
        <rect id="Rectangle-Copy-5" class="cls-2" x="233.5" y="42" width="47" height="7" rx="3.3" ry="3.3"/>
        <g id="sweep">
          <g id="_" data-name="+" class="cls-3">
            <text class="cls-4" transform="translate(358 33)">+</text>
          </g>
          <g id="_-copy" data-name="+-copy" class="cls-3">
            <text class="cls-4" transform="translate(336.5 21)">+</text>
          </g>
        </g>
      </g>
    </g>
  </g>
  <g>
    <g>
      <path class="cls-5" d="M342.5,49.2l-2.1-5.1a1,1,0,0,0-.6-.5l-2.5-.7v-.4l1.8-1.5a1,1,0,0,0,.4-.5l2.1-5.1a.4.4,0,0,0-.7-.3l-2.1,5.1-.2.2-1.7,1.4-.5-.3v-.9l.6-.4a3.5,3.5,0,0,0,.7-2.3,2.5,2.5,0,0,0-.2-1.2l1.2-1.3a1.6,1.6,0,0,0,.3-.9v-5c0-.2.1-.3.1-.5l.4-1.1a.5.5,0,0,0-.3-.5c-.2,0-.5.1-.5.3l-.4,1.1a1.5,1.5,0,0,0-.1.7v5a.4.4,0,0,1-.1.3l-1,1.1a.3.3,0,0,0-.1-.2h-.1a3.1,3.1,0,0,0-.6-2.4.6.6,0,0,0-.6,0c-.2.2-.2.5,0,.6a1.6,1.6,0,0,1,.4,1.3,2.6,2.6,0,0,0-2,0,1.6,1.6,0,0,1,.4-1.3c.2-.1.2-.4,0-.6a.6.6,0,0,0-.6,0,3.1,3.1,0,0,0-.6,2.4h0a.2.2,0,0,0-.2.2l-1-1.1a.4.4,0,0,1-.1-.3v-5a1.5,1.5,0,0,0-.1-.7l-.4-1.1c0-.2-.3-.3-.5-.3a.4.4,0,0,0-.2.5l.3,1.1a.9.9,0,0,1,.1.5v5a1.6,1.6,0,0,0,.3.9l1.2,1.3a5,5,0,0,0-.2,1.2,3.6,3.6,0,0,0,.8,2.3l.5.4v.9l-.4.3-1.8-1.4-.2-.2-2.1-5.1c0-.2-.3-.3-.5-.2a.4.4,0,0,0-.2.5l2.1,5.1a1,1,0,0,0,.4.5l1.9,1.5a.3.3,0,0,0-.1.2v.2l-2.5.7a1,1,0,0,0-.6.5l-2.1,5.1a.4.4,0,0,0,.2.5h.2l.4-.2,2.1-5.1h0l2.5-.7a10.7,10.7,0,0,0-.7,1.5l-1.6,1.4a1.2,1.2,0,0,0-.5.9V53a.6.6,0,0,1-.1.4l-.7,1.5a.4.4,0,0,0,.2.5h.1c.2,0,.3,0,.4-.2l.7-1.5a1,1,0,0,0,.2-.7V47.5c0-.1.1-.2.2-.3l.6-.6a12.4,12.4,0,0,0-.3,2.7,7.3,7.3,0,0,0,1,3.7,2.8,2.8,0,0,0,5,0,6.4,6.4,0,0,0,1-3.7,12.4,12.4,0,0,0-.3-2.7l.6.6c.1.1.2.2.2.3V53a1.9,1.9,0,0,0,.2.7l.7,1.5c.1.2.2.2.4.2h.2c.2-.1.2-.3.1-.5l-.7-1.5a.6.6,0,0,1-.1-.4V47.5a1.5,1.5,0,0,0-.4-.9l-1.7-1.4a5.2,5.2,0,0,0-.7-1.5l2.5.7h0l2.2,5.1c0,.1.2.2.3.2h.2A.4.4,0,0,0,342.5,49.2ZM337.2,52H333a3.2,3.2,0,0,1-.3-.9h4.9A3.6,3.6,0,0,1,337.2,52Zm-4.7-1.8c0-.3-.1-.6-.1-.9h5.4a2.8,2.8,0,0,1-.1.9Zm4.4-2.7h.7a3.8,3.8,0,0,1,.1,1h-5.2a3.8,3.8,0,0,1,.1-1h2.5a.4.4,0,0,0,.4-.4.4.4,0,0,0-.4-.4h-2.3a6.5,6.5,0,0,1,.4-1.3,4.7,4.7,0,0,0,3.8,0c.2.4.3.9.5,1.3h-.6a.4.4,0,0,0-.4.4C336.5,47.4,336.6,47.5,336.9,47.5Zm-3.6-9.6c0-1.4.7-2.2,1.8-2.2s1.8.8,1.8,2.2-.7,2.2-1.8,2.2S333.3,39.3,333.3,37.9Zm1.8,3.1h.5v.6h-1v-.6Zm-.9,1.3H336c.2,0,.5.2.5.4a.5.5,0,0,1-.5.5.4.4,0,0,0,0,.8h.3l.4.6a2.9,2.9,0,0,1-1.6.4,3.2,3.2,0,0,1-1.6-.4l.4-.6h.3a.4.4,0,0,0,0-.8.5.5,0,0,1-.4-.5A.4.4,0,0,1,334.2,42.3Zm.9,11.4a2.1,2.1,0,0,1-1.6-.9h3.2A1.9,1.9,0,0,1,335.1,53.7Z"/>
      <path class="cls-5" d="M335,24.7a16.7,16.7,0,1,1-16.6,16.6A16.7,16.7,0,0,1,335,24.7m0-1.3a18,18,0,1,0,18,17.9,17.9,17.9,0,0,0-18-17.9Z"/>
      <rect class="cls-5" x="334.9" y="23.3" width="1.3" height="34.64" transform="translate(87.2 270) rotate(-49.6)"/>
    </g>
    <g>
      <path class="cls-5" d="M303,25.1h4.9v-.2h.2v-.2h0V24h0v-.2h-.1v-.2h-.1v-.2h-.2v-.2h.1v-.2h0v-.2h0v-.2h0V21H308v-.2h-5v.4h0V21h0v1h0v.5h0v1h0v.2h0v.2h0V25Zm3.6-1.5h-2v-.2h0v-.2h2Zm-2-2.1v-.2h1.9v.2h-1.9v-.2h0Z"/>
      <polygon class="cls-5" points="313.3 19.8 313.2 19.8 313.1 19.9 313.1 20 313.1 20.5 313.1 20.7 313.1 21.2 313.1 21.3 313.1 21.9 313.1 21.9 313.1 22 313 22.1 312.9 22.1 312.8 22.1 312.3 22 311.8 22 311.6 22 311.3 22.1 311.2 22.1 311.1 22.1 311 22.1 311 22 311 22 310.9 21.9 310.9 21.2 311 20.7 311 20.5 311 20.2 311 20 311 20 310.9 19.9 310.9 19.8 310.8 19.8 310.6 19.8 310.5 19.8 310.2 19.8 310.1 19.8 309.7 19.8 309.6 19.8 309.5 19.8 309.4 19.8 309.3 19.9 309.2 20 309.2 20.1 309.3 20.4 309.3 20.6 309.3 21 309.3 21.1 309.3 21.6 309.3 21.7 309.3 22.3 309.3 22.7 309.3 22.8 309.3 23.3 309.3 23.4 309.3 23.8 309.3 24 309.3 24.4 309.3 25.1 309.3 25.3 309.3 25.5 309.3 25.5 309.3 25.6 309.3 25.7 309.4 25.7 309.5 25.7 309.5 25.7 309.7 25.7 310.1 25.7 310.2 25.7 310.5 25.8 310.7 25.8 310.8 25.8 310.9 25.7 311 25.7 311 25.5 311 25.4 311 25 311 24.9 311 24.3 311 24.2 311 23.7 311 23.6 311 23.5 311.1 23.5 311.2 23.5 311.6 23.5 312.3 23.5 312.4 23.5 312.8 23.5 313 23.5 313 23.5 313.1 23.6 313.1 23.7 313.1 24.2 313.1 24.3 313.1 24.9 313.1 25 313.1 25.5 313.1 25.7 313.2 25.7 313.3 25.7 313.4 25.7 313.9 25.7 314 25.7 314.4 25.7 314.6 25.7 314.7 25.7 314.7 25.7 314.8 25.5 314.8 25.4 314.8 25.3 314.8 25.1 314.7 25 314.7 24.4 314.8 24 314.8 23.8 314.7 23.4 314.7 23.3 314.8 22.8 314.8 22.7 314.8 22.3 314.8 22.1 314.8 21.7 314.8 21.6 314.8 21.1 314.8 21 314.8 20.6 314.8 20.4 314.8 20.1 314.8 20 314.8 19.9 314.7 19.8 314.6 19.8 314.5 19.8 314.4 19.8 314 19.8 313.9 19.8 313.4 19.8 313.3 19.8"/>
      <polygon class="cls-5" points="315.9 25.2 315.9 25.4 315.9 25.5 315.9 25.6 316 25.7 316 25.7 316.1 25.8 316.5 25.7 316.6 25.7 317 25.8 317.2 25.8 317.5 25.7 317.6 25.7 317.6 25.7 317.6 25.6 317.6 25.5 317.6 25.4 317.6 25.2 317.6 25 317.7 24.6 317.7 24 317.7 23.9 317.7 23.9 317.8 23.9 317.8 24 317.9 24.1 318.2 24.4 318.2 24.5 318.6 24.8 318.6 24.9 318.9 25.3 319 25.4 319.3 25.7 319.3 25.7 319.4 25.7 320 25.7 320.1 25.7 320.6 25.7 320.7 25.7 321.2 25.8 321.3 25.8 321.3 25.7 321.4 25.7 321.4 25.6 321.4 25.6 321 25.2 320.9 25.1 320.6 24.7 320.5 24.6 320.1 24.3 320.1 24.2 319.7 23.8 319.6 23.7 319.3 23.3 319.2 23.2 318.9 22.8 318.8 22.7 318.8 22.7 318.9 22.6 318.9 22.6 319 22.5 319.2 22.3 319.3 22.2 319.6 21.8 319.7 21.7 320 21.3 320.1 21.2 320.4 20.9 320.5 20.8 320.7 20.4 320.8 20.3 321.1 20 321.2 19.9 321.2 19.9 321.2 19.9 321.2 19.8 321.1 19.8 320.8 19.8 320.6 19.8 320.3 19.8 319.8 19.8 319.7 19.8 319.3 19.8 319.2 19.8 319.1 19.9 318.9 20.2 318.8 20.3 318.5 20.7 318.1 21.2 317.8 21.6 317.7 21.6 317.7 21.6 317.6 21.5 317.6 21.1 317.6 20.9 317.6 20.5 317.6 20.4 317.6 20.1 317.7 20 317.6 19.9 317.6 19.8 317.6 19.8 317.5 19.8 317.1 19.8 317 19.8 316.6 19.8 316.5 19.8 316.2 19.8 316.1 19.8 316 19.8 316 19.8 316 19.9 315.9 20.4 315.9 20.5 316 21.5 316 21.7 315.9 22.1 315.9 22.3 316 22.7 316 23.3 316 23.4 315.9 23.9 315.9 24 315.9 24.6 316 25 315.9 25.2"/>
      <path class="cls-5" d="M315,16.1h.1V14.7h-.9V10.6h0V9.6h-2.1l-.5.5h-.3l-.2.3H311l-.4.4h-.1l-.4.5V12l-.4.4h-.2l-.4.5h-.1l-.4.4v.2l-.4.4h-.1v.7h0l.2.7h4v.8h0v.2h2.1v-.2h0v-.6h0v-.2h.7Zm-2.9-2.7V14h-1.6l.4-.4h.1l.4-.5h.1l.4-.4h.2Z"/>
    </g>
  </g>
</svg>
