<svg id="Layer_1" data-name="Layer 1" xmlns="http://www.w3.org/2000/svg" xmlns:xlink="http://www.w3.org/1999/xlink" width="374.5" height="89.4" viewBox="0 0 374.5 89.4">
  <defs>
    <style>
      .cls-1 {
        fill: url(#linear-gradient);
      }

      .cls-2, .cls-4, .cls-5 {
        fill: #fff;
      }

      .cls-2 {
        opacity: 0.3;
      }

      .cls-2, .cls-3, .cls-4 {
        isolation: isolate;
      }

      .cls-4 {
        font-size: 16px;
        font-family: Montserrat-Medium, Montserrat;
      }
    </style>
    <linearGradient id="linear-gradient" x1="405.55" y1="126.36" x2="21.53" y2="-32.27" gradientUnits="userSpaceOnUse">
      <stop offset="0" stop-color="#75c9b9"/>
      <stop offset="1" stop-color="#72bde5"/>
    </linearGradient>
  </defs>
  <title>banner_PC001</title>
  <g id="Page-1">
    <g id="UI---Screen-7---v2">
      <g id="Group-2">
        <path id="Path-4" class="cls-1" d="M0,72.4C71,74,112,68.2,210.5,71c58.9,1.7,113.3,7.8,164,18.4V0H0Z"/>
        <rect id="Rectangle-Copy-2" class="cls-2" x="23.5" y="22" width="47" height="7" rx="3.3" ry="3.3"/>
        <path id="Rectangle-Copy-4" class="cls-2" d="M189.8,29h40.5a3.2,3.2,0,0,1,3.2,3.2v.5a3.2,3.2,0,0,1-3.2,3.2H189.8a3.3,3.3,0,0,1-3.2-3.2v-.5A3.3,3.3,0,0,1,189.8,29Z"/>
        <rect id="Rectangle-Copy-3" class="cls-2" x="64.5" y="35" width="47" height="7" rx="3.3" ry="3.3"/>
        <path id="Rectangle-Copy-5" class="cls-2" d="M236.8,42h40.5a3.2,3.2,0,0,1,3.2,3.2v.5a3.2,3.2,0,0,1-3.2,3.2H236.8a3.3,3.3,0,0,1-3.2-3.2v-.5a3.3,3.3,0,0,1,3.3-3.2Z"/>
        <g id="sweep">
          <g id="_" data-name="+" class="cls-3">
            <text class="cls-4" transform="translate(358 26)">+</text>
          </g>
          <g id="_-copy" data-name="+-copy" class="cls-3">
            <text class="cls-4" transform="translate(336.5 14)">+</text>
          </g>
        </g>
      </g>
    </g>
  </g>
  <g>
    <g>
      <path class="cls-5" d="M353,27.1l-3-.9c-.2-.1-.5-.1-.6.1a.5.5,0,0,0-.3.5h-3.8a.7.7,0,1,0,0,1.4h3.8v.8h-5.9V26.5a.7.7,0,0,0-.7-.7H341V24.6a.7.7,0,0,0-.7-.7h-3.5v-.8h.7a.8.8,0,0,0,.7-.5l.5-1.9h.5a1.5,1.5,0,0,0,1.5-1.5,1.4,1.4,0,0,0-1.5-1.5H333a1.4,1.4,0,0,0-1.4,1.5,1.5,1.5,0,0,0,1.4,1.5h.6l.5,1.9a.8.8,0,0,0,.7.5h.6v.8h-8.3a.6.6,0,0,0-.6.5l-3.3,9.8a.6.6,0,0,0,0,.6c.1.1.2.3.4.3h.4l.8.2,1.1-.3a2.3,2.3,0,0,0,1.2-1.5l2.1-6.1h2v5.3a.8.8,0,0,0,.8.7h.3V37h-2.5a3.9,3.9,0,0,0-3.8,3.2L323,61a3.9,3.9,0,0,0,.9,3.3,4.1,4.1,0,0,0,3.1,1.4h18.3a4.1,4.1,0,0,0,3.1-1.4,3.9,3.9,0,0,0,.9-3.3l-3-20.8a4,4,0,0,0-3.8-3.2h-2.6V33.5h.4a.7.7,0,0,0,.7-.7V31.6h1.5a.7.7,0,0,0,.7-.7v-.4h5.9a.6.6,0,0,0,.3.6h.6l3-1a.6.6,0,0,0,.5-.6V27.8A.8.8,0,0,0,353,27.1Zm-18.2-7.3a.6.6,0,0,0-.6-.5h5.1a.1.1,0,0,1-.1.1h-1.1a.8.8,0,0,0-.7.5l-.5,1.9h-1.6Zm-6.1,6.3a.8.8,0,0,0-.7.5l-2.2,6.6a1,1,0,0,1-.5.6h-.6l2.9-8.6h3.6v.8Zm10.5,12.3h3.3a2.5,2.5,0,0,1,2.4,2l3,20.8a2.6,2.6,0,0,1-2.6,3.1H327a2.5,2.5,0,0,1-2-.9,2.9,2.9,0,0,1-.7-2.2l3.1-20.8a2.5,2.5,0,0,1,2.4-2h6.6a.8.8,0,0,0,.7-.7.7.7,0,0,0-.7-.7h-2.7V33.5h4.8v4.2A.8.8,0,0,0,339.2,38.4Zm2.6-8.2h-1.5a.7.7,0,0,0-.7.7v1.2h-6.9V25.3h6.9v1.2a.7.7,0,0,0,.7.7h1.5v3Zm10.3-1.1-1.6.5V27.8l1.6.5Z"/>
      <path class="cls-5" d="M328.5,47.8h0a8.3,8.3,0,0,0-1.2,4.4,8.8,8.8,0,0,0,8.8,8.8,8.9,8.9,0,0,0,7.7-4.3h0a8.3,8.3,0,0,0,1.2-4.4,8.9,8.9,0,0,0-16.5-4.5Zm7.6,11.9a7.4,7.4,0,0,1-7.4-7.4,8.2,8.2,0,0,1,.7-3.1l4.1,2.4h-1.3a.7.7,0,1,0,0,1.4h1.3v.6h-.1a1.9,1.9,0,0,0-1.8,1.9v1a.7.7,0,1,0,1.4,0v-1a.5.5,0,0,1,.4-.5h.3a1.9,1.9,0,0,0,.5.9,2.9,2.9,0,0,0,1.9.8,2.8,2.8,0,0,0,1.3-.3.7.7,0,1,0-.7-1.2h-.6a1.2,1.2,0,0,1-1.2-1.3V52.4l7.3,4.2A7.5,7.5,0,0,1,336.1,59.7Zm7.5-7.4a8.2,8.2,0,0,1-.7,3.1l-8-4.6v-.2a1.2,1.2,0,0,1,1.2-1.3,1,1,0,0,1,.9.4,1,1,0,0,1,.4.7.7.7,0,0,0,.7.6h.7a1.9,1.9,0,0,0,1.9-1.9v-1a.7.7,0,1,0-1.4,0v1a.5.5,0,0,1-.5.5h-.2a1.5,1.5,0,0,0-.6-.9,2.6,2.6,0,0,0-1.9-.8,2.6,2.6,0,0,0-2.4,1.7h-.3a.5.5,0,0,1-.4-.5v-1a.7.7,0,1,0-1.4,0v.8l-1.5-.9a7.2,7.2,0,0,1,6-3.1A7.5,7.5,0,0,1,343.6,52.3Z"/>
      <path class="cls-5" d="M340.1,51.6h-.5a.7.7,0,0,0,0,1.4h.5a.7.7,0,0,0,0-1.4Z"/>
      <path class="cls-5" d="M340,55.5a.7.7,0,0,0-.7.7v.3a.7.7,0,1,0,1.4,0v-.3A.7.7,0,0,0,340,55.5Z"/>
    </g>
    <g>
      <path class="cls-5" d="M303.5,31.3h0v.2h4.6l.2-.2h.3v-.2h.1v-.2h0v-.4h-.1v-.2h0v-.2h-.1v-.2h-.1V29h.1v-.2h0V28h0v-.2h0v-.2h-.1v-.2h-.1v-.2h-4.9v1h0v.5h0v1h0v1.2h0v.2h0v.5Zm3.6-1.5h-2v-.2h0v-.4h2Zm-2-2v-.4H307v.2h-1.9Z"/>
      <polygon class="cls-5" points="313.8 26 313.7 26 313.6 26.1 313.6 26.2 313.6 26.7 313.6 26.9 313.6 27.4 313.6 27.5 313.6 28.1 313.6 28.2 313.6 28.2 313.5 28.3 313.4 28.3 313.3 28.3 312.8 28.3 312.3 28.2 312.2 28.2 311.8 28.3 311.7 28.3 311.6 28.3 311.5 28.3 311.5 28.2 311.5 28.2 311.4 28.1 311.4 27.4 311.5 26.9 311.5 26.7 311.5 26.4 311.5 26.2 311.5 26.2 311.4 26.1 311.4 26 311.3 26 311.2 26 311 26 310.7 26 310.6 26 310.2 26 310.1 26 310 26 309.9 26 309.8 26.1 309.8 26.2 309.8 26.4 309.8 26.6 309.8 26.8 309.8 27.2 309.8 27.3 309.8 27.8 309.8 27.9 309.8 28.5 309.8 28.9 309.8 29 309.8 29.5 309.8 29.6 309.8 30.1 309.8 30.2 309.8 30.6 309.8 31.3 309.8 31.6 309.8 31.7 309.8 31.8 309.8 31.9 309.8 31.9 309.9 31.9 310 31.9 310 31.9 310.2 32 310.6 31.9 310.7 31.9 311 32 311.2 32 311.3 32 311.4 31.9 311.5 31.9 311.5 31.8 311.5 31.6 311.5 31.2 311.5 31.1 311.5 30.6 311.5 30.4 311.5 29.9 311.5 29.8 311.5 29.7 311.6 29.7 311.7 29.7 312.1 29.7 312.8 29.7 312.9 29.7 313.3 29.7 313.5 29.7 313.6 29.7 313.6 29.8 313.6 29.9 313.6 30.4 313.6 30.6 313.6 31.1 313.6 31.2 313.6 31.8 313.6 31.9 313.7 31.9 313.8 32 313.9 32 314.4 31.9 314.5 31.9 315 32 315.1 31.9 315.2 31.9 315.2 31.9 315.3 31.8 315.3 31.7 315.3 31.5 315.3 31.3 315.3 31.2 315.3 30.6 315.3 30.2 315.3 30.1 315.3 29.6 315.3 29.5 315.3 29 315.3 28.9 315.3 28.5 315.3 28.3 315.3 27.9 315.3 27.8 315.3 27.3 315.3 27.2 315.3 26.8 315.3 26.6 315.3 26.3 315.3 26.2 315.3 26.1 315.2 26 315.1 26 315 26 314.9 26 314.5 26 314.4 26 313.9 26 313.8 26"/>
      <polygon class="cls-5" points="316.4 31.4 316.4 31.6 316.4 31.7 316.4 31.8 316.5 31.9 316.5 32 316.6 32 317 31.9 317.1 31.9 317.5 32 317.7 32 318 32 318.1 31.9 318.1 31.9 318.1 31.8 318.1 31.7 318.1 31.6 318.1 31.4 318.1 31.2 318.2 30.8 318.2 30.2 318.2 30.1 318.2 30.1 318.3 30.1 318.3 30.2 318.4 30.3 318.7 30.6 318.7 30.7 319.1 31 319.1 31.1 319.4 31.5 319.5 31.6 319.8 31.9 319.8 32 319.9 32 320.5 31.9 320.6 31.9 321.1 31.9 321.2 31.9 321.7 32 321.8 32 321.8 31.9 321.9 31.9 321.9 31.9 321.9 31.8 321.5 31.4 321.4 31.3 321.1 31 321 30.9 320.6 30.5 320.6 30.4 320.2 30 320.1 29.9 319.8 29.5 319.7 29.4 319.4 29 319.3 28.9 319.3 28.9 319.4 28.8 319.4 28.8 319.5 28.7 319.7 28.5 319.8 28.4 320.1 28 320.2 27.9 320.5 27.6 320.6 27.5 320.9 27.1 321 27 321.2 26.6 321.3 26.5 321.6 26.2 321.7 26.1 321.7 26.1 321.7 26.1 321.7 26 321.6 26 321.3 26 321.1 26 320.8 26 320.3 26 320.2 26 319.8 26 319.7 26 319.6 26.1 319.4 26.4 319.3 26.5 319 26.9 318.6 27.4 318.3 27.8 318.2 27.8 318.2 27.8 318.1 27.7 318.1 27.3 318.1 27.2 318.1 26.7 318.1 26.6 318.1 26.3 318.2 26.2 318.1 26.1 318.1 26.1 318.1 26 318 26 317.6 26 317.5 26 317.1 26 317 26 316.7 26 316.6 26 316.5 26 316.5 26.1 316.5 26.2 316.4 26.6 316.4 26.7 316.5 27.8 316.5 27.9 316.4 28.3 316.4 28.5 316.5 28.9 316.5 29.5 316.5 29.6 316.4 30.1 316.4 30.2 316.4 30.8 316.5 31.2 316.4 31.4"/>
      <path class="cls-5" d="M315.5,22.3h.1V20.9h-.9V15.8h-2.1l-.5.4h-.2v.2l-.2.2h-.1l-.4.4v.2l-.4.4v.2l-.4.4h-.2l-.4.5h-.1l-.4.4v.2l-.4.5h-.1v.7h0l.2.7h4v1h2.2v-.9h.8Zm-2.9-2.7v.6h0v.2H311l.4-.4h.1l.4-.4v-.2l.4-.4h.2Z"/>
    </g>
  </g>
</svg>
