<svg id="Layer_1" data-name="Layer 1" xmlns="http://www.w3.org/2000/svg" xmlns:xlink="http://www.w3.org/1999/xlink" width="70" height="70" viewBox="0 0 70 70">
  <defs>
    <style>
      .cls-1 {
        fill: #f6f6f6;
      }

      .cls-2 {
        fill: url(#linear-gradient);
      }

      .cls-3 {
        fill: url(#linear-gradient-2);
      }

      .cls-4 {
        fill: url(#linear-gradient-3);
      }

      .cls-5 {
        fill: url(#linear-gradient-4);
      }

      .cls-6 {
        fill: url(#linear-gradient-5);
      }

      .cls-7 {
        fill: url(#linear-gradient-6);
      }

      .cls-8 {
        fill: url(#linear-gradient-7);
      }
    </style>
    <linearGradient id="linear-gradient" x1="57.08" y1="74.15" x2="17.04" y2="-7.93" gradientUnits="userSpaceOnUse">
      <stop offset="0" stop-color="#75c9b9"/>
      <stop offset="1" stop-color="#72bde5"/>
    </linearGradient>
    <linearGradient id="linear-gradient-2" x1="57.58" y1="73.9" x2="17.54" y2="-8.17" xlink:href="#linear-gradient"/>
    <linearGradient id="linear-gradient-3" x1="58.27" y1="73.56" x2="18.24" y2="-8.51" gradientTransform="translate(46.5 -17.9) rotate(49.6)" xlink:href="#linear-gradient"/>
    <linearGradient id="linear-gradient-4" x1="40.88" y1="82.05" x2="0.85" y2="-0.03" xlink:href="#linear-gradient"/>
    <linearGradient id="linear-gradient-5" x1="46.32" y1="79.4" x2="6.28" y2="-2.68" xlink:href="#linear-gradient"/>
    <linearGradient id="linear-gradient-6" x1="51.61" y1="76.82" x2="11.57" y2="-5.26" xlink:href="#linear-gradient"/>
    <linearGradient id="linear-gradient-7" x1="49.54" y1="77.83" x2="9.5" y2="-4.25" xlink:href="#linear-gradient"/>
  </defs>
  <title>icon_PC0</title>
  <path id="Rectangle" class="cls-1" d="M3,0H67a2.9,2.9,0,0,1,3,3V67a2.9,2.9,0,0,1-3,3H3a2.9,2.9,0,0,1-3-3V3A2.9,2.9,0,0,1,3,0Z"/>
  <g>
    <g>
      <path class="cls-2" d="M49.5,49.9l-2.1-5.1a.8.8,0,0,0-.5-.5l-2.6-.7v-.4l1.8-1.5a1,1,0,0,0,.4-.5l2.1-5.1a.4.4,0,0,0-.7-.3l-2.1,5.1c-.1,0-.1.1-.2.2l-1.7,1.4-.5-.3v-.9l.6-.4a3.5,3.5,0,0,0,.7-2.3,2.2,2.2,0,0,0-.2-1.2L45.7,36a1.1,1.1,0,0,0,.3-.8V30.1c0-.1.1-.2.1-.4l.4-1.1a.5.5,0,0,0-.3-.5.4.4,0,0,0-.5.3l-.4,1.1a1.3,1.3,0,0,0-.1.6v5.1a.4.4,0,0,1-.1.3l-1,1.1c0-.1-.1-.2-.1-.3h-.1a3.1,3.1,0,0,0-.6-2.4.6.6,0,0,0-.6,0,.4.4,0,0,0,0,.6,1.6,1.6,0,0,1,.4,1.3,2.6,2.6,0,0,0-2,0,1.6,1.6,0,0,1,.4-1.3.4.4,0,0,0,0-.6.6.6,0,0,0-.6,0,3.1,3.1,0,0,0-.6,2.4h0c-.1.1-.2.2-.2.3l-1-1.1c0-.1-.1-.2-.1-.3V30.1a1.3,1.3,0,0,0-.1-.6l-.3-1.1a.5.5,0,0,0-.6-.3.4.4,0,0,0-.2.5l.3,1.1a.8.8,0,0,1,.1.4v5.1a1.1,1.1,0,0,0,.3.8l1.2,1.4a3.7,3.7,0,0,0-.2,1.2,3.6,3.6,0,0,0,.8,2.3l.5.4v.9l-.4.3-1.8-1.4a.3.3,0,0,1-.1-.2l-2.2-5.1c0-.2-.3-.3-.5-.2a.4.4,0,0,0-.2.5l2.1,5.1a1,1,0,0,0,.4.5L40,43.2v.2c0,.1,0,.1.1.2l-2.6.7c-.3.1-.5.2-.6.5l-2.1,5.1a.4.4,0,0,0,.2.5h.2l.4-.2,2.1-5.1h0l2.5-.7-.7,1.4-1.6,1.4a1.4,1.4,0,0,0-.5,1v5.5a.8.8,0,0,1-.1.4l-.7,1.4a.5.5,0,0,0,.2.6h.1c.2,0,.3,0,.4-.2l.7-1.5a1,1,0,0,0,.2-.7V48.2c0-.1.1-.2.2-.3l.6-.6a12.4,12.4,0,0,0-.3,2.7,7.3,7.3,0,0,0,1,3.7,3.1,3.1,0,0,0,2.5,1.6,3,3,0,0,0,2.5-1.6,6.4,6.4,0,0,0,1-3.7,12.4,12.4,0,0,0-.3-2.7l.6.6c.1.1.2.2.2.3v5.5a1.9,1.9,0,0,0,.2.7l.7,1.5c.1.2.2.2.4.2h.2a.4.4,0,0,0,.1-.6L47,54.1a.8.8,0,0,1-.1-.4V48.2a1.3,1.3,0,0,0-.4-1l-1.7-1.4a6.1,6.1,0,0,0-.7-1.4l2.5.7h0l2.2,5.1.3.2h.2A.4.4,0,0,0,49.5,49.9Zm-5.3,2.8H40a2.9,2.9,0,0,1-.3-1h4.9A3,3,0,0,1,44.2,52.7Zm-4.7-1.8c0-.3-.1-.6-.1-.9h5.4a2.8,2.8,0,0,1-.1.9Zm4.4-2.7h.7a3.4,3.4,0,0,1,.1,1H39.5a3.4,3.4,0,0,1,.1-1h2.5a.4.4,0,0,0,0-.8H39.8a5,5,0,0,1,.4-1.3,5.8,5.8,0,0,0,1.9.4,5.8,5.8,0,0,0,1.9-.4c.2.4.3.8.5,1.3h-.6a.4.4,0,1,0,0,.8Zm-3.6-9.6c0-1.4.7-2.2,1.8-2.2s1.8.8,1.8,2.2-.7,2.2-1.8,2.2S40.3,40,40.3,38.6Zm1.8,3h.5v.5h-1v-.5ZM41.2,43H43c.2,0,.5.2.5.4a.5.5,0,0,1-.5.5.4.4,0,1,0,0,.8h.3a2.1,2.1,0,0,1,.4.6,4.2,4.2,0,0,1-1.6.4,4.7,4.7,0,0,1-1.6-.4l.4-.6h.3a.4.4,0,0,0,0-.8.5.5,0,0,1-.4-.5A.4.4,0,0,1,41.2,43Zm.9,11.4a2.1,2.1,0,0,1-1.6-.9h3.2A1.9,1.9,0,0,1,42.1,54.4Z"/>
      <path class="cls-3" d="M42,25.4A16.7,16.7,0,1,1,25.4,42,16.6,16.6,0,0,1,42,25.4m0-1.3A18,18,0,1,0,60,42,17.9,17.9,0,0,0,42,24.1Z"/>
      <rect class="cls-4" x="41.9" y="24" width="1.3" height="34.64" transform="translate(-16.5 47) rotate(-49.6)"/>
    </g>
    <g>
      <path class="cls-5" d="M10,25.8h0V26h4.9v-.2h.2v-.2h0v-.4h-.1v-.2h-.1v-.2h-.1v-.2h-.2V23h.2v-.4h0v-.4H15v-.2H10v.2h0v.3h0v.5h0v1h0v.5h0v1h0v.4h0v.6Zm3.6-1.6v.2h0v.2H11.6v-.4h2Zm-2-2V22h1.9v.2H11.6v-.2h0Z"/>
      <polygon class="cls-6" points="20.3 20.4 20.2 20.5 20.1 20.5 20.1 20.7 20.1 21.2 20.1 21.3 20.1 21.9 20.1 22 20.1 22.5 20.1 22.6 20.1 22.7 20 22.7 19.9 22.8 19.8 22.8 19.3 22.7 18.8 22.7 18.7 22.7 18.3 22.8 18.2 22.8 18.1 22.8 18 22.7 18 22.7 18 22.6 17.9 22.6 17.9 21.9 18 21.3 18 21.2 18 20.8 18 20.7 18 20.7 17.9 20.5 17.9 20.5 17.8 20.5 17.7 20.5 17.5 20.5 17.2 20.5 17.1 20.5 16.7 20.5 16.6 20.5 16.5 20.5 16.4 20.5 16.3 20.6 16.3 20.7 16.3 20.8 16.3 21.1 16.3 21.2 16.3 21.7 16.3 21.8 16.3 22.2 16.3 22.4 16.3 22.9 16.3 23.4 16.3 23.5 16.3 24 16.3 24.1 16.3 24.5 16.3 24.7 16.3 25.1 16.3 25.8 16.3 26 16.3 26.2 16.3 26.2 16.3 26.3 16.3 26.4 16.4 26.4 16.5 26.4 16.5 26.4 16.7 26.4 17.1 26.4 17.2 26.4 17.5 26.4 17.7 26.4 17.8 26.4 17.9 26.4 18 26.4 18 26.2 18 26 18 25.7 18 25.6 18 25 18 24.9 18 24.4 18 24.2 18 24.2 18.1 24.2 18.2 24.1 18.6 24.2 19.3 24.2 19.4 24.2 19.8 24.2 20 24.2 20.1 24.2 20.1 24.2 20.1 24.4 20.1 24.9 20.1 25 20.1 25.6 20.1 25.7 20.1 26.2 20.1 26.3 20.2 26.4 20.3 26.4 20.4 26.4 20.9 26.4 21 26.4 21.5 26.4 21.6 26.4 21.7 26.4 21.7 26.3 21.8 26.2 21.8 26.1 21.8 26 21.8 25.8 21.8 25.7 21.8 25.1 21.8 24.7 21.8 24.5 21.8 24.1 21.8 24 21.8 23.5 21.8 23.4 21.8 22.9 21.8 22.8 21.8 22.4 21.8 22.2 21.8 21.8 21.8 21.7 21.8 21.2 21.8 21.1 21.8 20.8 21.8 20.7 21.8 20.5 21.7 20.5 21.6 20.5 21.5 20.5 21.4 20.4 21 20.5 20.9 20.5 20.4 20.4 20.3 20.4"/>
      <polygon class="cls-7" points="22.9 25.8 22.9 26.1 22.9 26.2 22.9 26.3 23 26.4 23 26.4 23.1 26.4 23.5 26.4 23.6 26.4 24 26.4 24.2 26.4 24.5 26.4 24.6 26.4 24.6 26.4 24.6 26.3 24.6 26.2 24.6 26 24.6 25.8 24.6 25.7 24.7 25.3 24.7 24.7 24.7 24.6 24.7 24.6 24.8 24.6 24.8 24.7 24.9 24.8 25.2 25.1 25.2 25.2 25.6 25.5 25.6 25.6 25.9 25.9 26 26 26.3 26.4 26.3 26.4 26.4 26.4 27 26.4 27.1 26.4 27.6 26.4 27.7 26.4 28.2 26.4 28.3 26.4 28.3 26.4 28.4 26.4 28.4 26.3 28.4 26.3 28 25.9 27.9 25.8 27.6 25.4 27.5 25.3 27.1 24.9 27.1 24.8 26.7 24.4 26.6 24.3 26.3 24 26.2 23.9 25.9 23.5 25.8 23.4 25.8 23.4 25.9 23.3 25.9 23.2 26 23.1 26.2 23 26.3 22.9 26.6 22.5 26.7 22.4 27 22 27.1 21.9 27.4 21.6 27.5 21.5 27.7 21.1 27.8 21 28.1 20.7 28.2 20.6 28.2 20.6 28.2 20.5 28.2 20.5 28.1 20.5 27.8 20.5 27.6 20.5 27.3 20.5 26.8 20.5 26.7 20.5 26.3 20.5 26.2 20.5 26.1 20.6 25.9 20.9 25.8 21 25.5 21.4 25.1 21.9 24.8 22.2 24.7 22.3 24.7 22.3 24.6 22.2 24.6 21.8 24.6 21.6 24.6 21.2 24.6 21.1 24.6 20.8 24.7 20.7 24.6 20.6 24.6 20.5 24.6 20.5 24.5 20.5 24.1 20.5 24 20.5 23.6 20.5 23.5 20.5 23.2 20.5 23.1 20.5 23 20.5 23 20.5 23 20.6 22.9 21.1 22.9 21.2 23 22.2 23 22.4 22.9 22.8 22.9 22.9 23 23.4 23 24 23 24.1 22.9 24.6 22.9 24.7 22.9 25.3 23 25.7 22.9 25.8"/>
      <path class="cls-8" d="M22,16.8h.1V15.4h0v-.2h-.8v-.9h0V10.4H19.1l-.5.5h-.3l-.2.2v.2l-.4.4h-.1l-.4.5H17l-.4.5h-.2l-.4.4v.2l-.4.4h-.1l-.4.5h-.1v.8l.2.6v.2H19V17h0v.7h0v.2h2.1v-.2h0v-.6h0v-.2H22Zm-2.9-2.7v.6H17.5l.4-.4H18l.4-.5h.1l.4-.4h.2Z"/>
    </g>
  </g>
</svg>
