<svg id="Layer_1" data-name="Layer 1" xmlns="http://www.w3.org/2000/svg" xmlns:xlink="http://www.w3.org/1999/xlink" width="374.5" height="89.4" viewBox="0 0 374.5 89.4">
  <defs>
    <style>
      .cls-1 {
        fill: url(#linear-gradient);
      }

      .cls-2, .cls-4, .cls-5 {
        fill: #fff;
      }

      .cls-2 {
        opacity: 0.3;
      }

      .cls-2, .cls-3, .cls-4 {
        isolation: isolate;
      }

      .cls-4 {
        font-size: 16px;
        font-family: Montserrat-Medium, Montserrat;
      }
    </style>
    <linearGradient id="linear-gradient" x1="405.55" y1="126.36" x2="21.53" y2="-32.27" gradientUnits="userSpaceOnUse">
      <stop offset="0" stop-color="#64dcc2"/>
      <stop offset="1" stop-color="#70bce6"/>
    </linearGradient>
  </defs>
  <title>banner_ac_E0</title>
  <g id="Page-1">
    <g id="UI---Screen-7---v2">
      <g id="Group-2">
        <path id="Path-4" class="cls-1" d="M0,72.4C71,74,112,68.2,210.5,71c58.9,1.7,113.3,7.8,164,18.4V0H0Z"/>
        <rect id="Rectangle-Copy-2" class="cls-2" x="23.5" y="22" width="47" height="7" rx="3.3" ry="3.3"/>
        <rect id="Rectangle-Copy-4" class="cls-2" x="186.5" y="29" width="47" height="7" rx="3.2" ry="3.2"/>
        <rect id="Rectangle-Copy-3" class="cls-2" x="64.5" y="35" width="47" height="7" rx="3.3" ry="3.3"/>
        <rect id="Rectangle-Copy-5" class="cls-2" x="233.5" y="42" width="47" height="7" rx="3.3" ry="3.3"/>
        <g id="sweep">
          <g id="_" data-name="+" class="cls-3">
            <text class="cls-4" transform="translate(298.5 26)">+</text>
          </g>
          <g id="_-copy" data-name="+-copy" class="cls-3">
            <text class="cls-4" transform="translate(336.5 14)">+</text>
          </g>
        </g>
      </g>
    </g>
  </g>
  <g>
    <path class="cls-5" d="M327.7,56.2l2.4.6.3.7-1.2,2.1,2.4,2.5,2.1-1.2.7.3.7,2.3h3.4l.7-2.3.7-.3,2.1,1.2,2.4-2.5-1.2-2.1.3-.7,2.3-.6v-.9h10.5V16.2H317.2V55.3h10.5Zm14.7-22.4h12.4v2.8l-.5-1H342.4Zm11.9-1.6H342.4V30.4h12.4v2.8Zm0-3.4H342.4V27h12.4v2.9Zm0-3.3H342.4V23.7h12.4v2.8Zm0-3.4H342.4V20.3h12.4v2.8Zm-9.9,33-.6.2-1.5.4V56a5.6,5.6,0,0,1-.4,1.2l-.2.4,1,1.8-.9.9-1.8-1.1-.4.2-1.1.5H338l-.6,2.1h-1.2l-.6-2.1h-.4l-1.1-.5-.4-.2-1.8,1.1-.9-.9,1-1.8-.2-.4a5.6,5.6,0,0,1-.4-1.2l-.2-.3-1.4-.4-.6-.2V53.9h0l2-.5v-.4a.9.9,0,0,1,.1-.5l.3-.7h0l.2-.3-.3-.6-.4-.7-.3-.6.2-.2.7-.7,1.2.7.6.4.4-.2.3-.2.8-.3h.4v-.5l.2-.7.2-.7v-.2h1.2V47l.2.7v.7l.2.5h.4l.8.3.3.2.4.2.6-.4.5-.2.7-.5.7.7.2.2-.2.4-.8,1.5.2.3a5.6,5.6,0,0,1,.4,1.2v.4h.1l2,.5h0ZM334.9,46l-.3,1h-16V46Zm-4.8,2.4-.9.9H318.6v-.9Zm-.1,2.4.4.6c0,.1-.1.2-.1.3H318.6v-.9Zm15.8,3.1V52.7l-2.3-.6-.3-.7.6-1a2,2,0,0,0,1.9,1.4h6a2.1,2.1,0,0,0,2-2.1V41.5a2,2,0,0,0-2-2h-6a2,2,0,0,0-2,2v7.1l-1.3-1.3V37.2h12.4V53.9Zm-.7-8.4h7.2v4.2a.6.6,0,0,1-.6.6h-6a.5.5,0,0,1-.6-.6Zm7.2-1.4h-7.2V41.5a.6.6,0,0,1,.6-.6h6a.6.6,0,0,1,.6.6Zm2.5-24.4-.5-1H342.4V17.6h12.4ZM341,17.6V47.4h-.1V47h-2l-.2-1h2.2V44.6H318.6v-.9h22.3V42.2H318.6v-.9h22.3V39.9H318.6v-1h22.3V37.5H318.6v-.9h22.3V35.1H318.6v-.9h22.3V32.8H318.6v-1h22.3V30.4H318.6v-1h22.3V28H318.6v-.9h22.3V25.7H318.6v-1h22.3V23.3H318.6v-1h22.3V20.9H318.6V20h22.3V18.5H318.6v-.9ZM318.6,53.9v-.8h9.1v.8Z"/>
    <path class="cls-5" d="M326.1,60.2v3a3.1,3.1,0,0,0,3,3h15.2a3,3,0,0,0,3-3v-3h-1.4v3a1.6,1.6,0,0,1-1.6,1.6H329.1a1.7,1.7,0,0,1-1.6-1.6v-3Z"/>
    <polygon class="cls-5" points="338.3 52.4 337.6 51.7 336.7 50.8 335.8 51.7 335.1 52.4 334.4 53.1 333.9 53.6 334.1 53.9 335 54.7 335.8 53.9 336 53.9 336 55.3 336 57.2 337.5 57.2 337.5 55.3 337.5 53.9 337.6 53.9 338.5 54.7 339.3 53.9 339.5 53.6 339.1 53.1 338.3 52.4"/>
  </g>
</svg>
