<svg id="Layer_1" data-name="Layer 1" xmlns="http://www.w3.org/2000/svg" xmlns:xlink="http://www.w3.org/1999/xlink" width="70" height="70" viewBox="0 0 70 70">
  <defs>
    <style>
      .cls-1 {
        fill: #f6f6f6;
      }

      .cls-2 {
        fill: url(#linear-gradient);
      }
    </style>
    <linearGradient id="linear-gradient" x1="50" y1="65.53" x2="19.64" y2="3.74" gradientUnits="userSpaceOnUse">
      <stop offset="0" stop-color="#64dcc2"/>
      <stop offset="1" stop-color="#70bce6"/>
    </linearGradient>
  </defs>
  <title>icon_carpentry_C0</title>
  <path id="Rectangle" class="cls-1" d="M3,0H67a2.9,2.9,0,0,1,3,3V67a2.9,2.9,0,0,1-3,3H3a2.9,2.9,0,0,1-3-3V3A2.9,2.9,0,0,1,3,0Z"/>
  <path class="cls-2" d="M35,10A25,25,0,1,0,60,35,25,25,0,0,0,35,10ZM11.4,35A23.7,23.7,0,0,1,32.7,11.5v2.7h1.6v2.6H32.7V34.1h1.6v1.7H32.7v8h1.6v2.9H32.7V58.5A23.7,23.7,0,0,1,11.4,35ZM37.3,58.5V46.7H35.7v-1h3.6s1,.1,1.3.8v.9h2.6V42.6H40.6v.9c-.3.7-1.3.8-1.3.8H35.7v-.5h1.6v-8H35.7V34.1h1.6V16.8H35.7V14.2h1.6V11.5a23.6,23.6,0,0,1,0,47Z"/>
</svg>
