<svg id="Layer_1" data-name="Layer 1" xmlns="http://www.w3.org/2000/svg" xmlns:xlink="http://www.w3.org/1999/xlink" width="70" height="70" viewBox="0 0 70 70">
  <defs>
    <style>
      .cls-1 {
        fill: #f6f6f6;
      }

      .cls-2 {
        fill: url(#linear-gradient);
      }

      .cls-3 {
        fill: url(#linear-gradient-2);
      }

      .cls-4 {
        fill: url(#linear-gradient-3);
      }

      .cls-5 {
        fill: url(#linear-gradient-4);
      }

      .cls-6 {
        fill: url(#linear-gradient-5);
      }

      .cls-7 {
        fill: url(#linear-gradient-6);
      }
    </style>
    <linearGradient id="linear-gradient" x1="54.17" y1="69.91" x2="18.54" y2="3.37" gradientUnits="userSpaceOnUse">
      <stop offset="0" stop-color="#75c9b9"/>
      <stop offset="1" stop-color="#72bde5"/>
    </linearGradient>
    <linearGradient id="linear-gradient-2" x1="55.25" y1="69.33" x2="19.62" y2="2.79" xlink:href="#linear-gradient"/>
    <linearGradient id="linear-gradient-3" x1="53.96" y1="70.02" x2="18.33" y2="3.49" xlink:href="#linear-gradient"/>
    <linearGradient id="linear-gradient-4" x1="51.45" y1="71.37" x2="15.82" y2="4.83" xlink:href="#linear-gradient"/>
    <linearGradient id="linear-gradient-5" x1="52.21" y1="70.96" x2="16.58" y2="4.42" xlink:href="#linear-gradient"/>
    <linearGradient id="linear-gradient-6" x1="54.72" y1="69.62" x2="19.08" y2="3.08" xlink:href="#linear-gradient"/>
  </defs>
  <title>icon_housekeeping_H0</title>
  <path id="Rectangle" class="cls-1" d="M3,0H67a2.9,2.9,0,0,1,3,3V67a2.9,2.9,0,0,1-3,3H3a2.9,2.9,0,0,1-3-3V3A2.9,2.9,0,0,1,3,0Z"/>
  <g>
    <path class="cls-2" d="M44.7,48.1a.8.8,0,0,0,.7-.4V46.2l1.5.2a7,7,0,0,0,6.6-4.7,7,7,0,0,0,0-13.6A7.1,7.1,0,0,0,49.7,23a7,7,0,0,0-14,0h-.3A15.1,15.1,0,0,0,28,25a6.8,6.8,0,0,0-3.5-.9,7.2,7.2,0,0,0-6.9,5.6,7,7,0,0,0-4.7,6.6A7.2,7.2,0,0,0,16,42.2a7,7,0,0,0,7,6.6,6.4,6.4,0,0,0,3.1-.7h0a.9.9,0,0,0,.6-.3h0a7.5,7.5,0,0,0,2.5-2.5H43l1,.5v1.6A.7.7,0,0,0,44.7,48.1Zm-2-30a5.5,5.5,0,0,1,5.5,5.4V24l.4.2a5.4,5.4,0,0,1,3.4,4.6v.5h.5a5.5,5.5,0,0,1,.1,10.9h-.5v.5a5.4,5.4,0,0,1-5.3,4h-.3a3.5,3.5,0,0,0,1.7-2.3v-.4c-.9-4.4-.5-5.4-.4-5.6H48a2,2,0,0,0,1.1,0,3.5,3.5,0,0,0,2.8-2.7,3.6,3.6,0,0,0-.9-2.8,4.9,4.9,0,0,0-1.8-.9H47.8a10.9,10.9,0,0,0-3.5-4.3l-.7-.5a14.8,14.8,0,0,0-6-2.1h-.5A5.6,5.6,0,0,1,42.7,18.1ZM29.3,26a12.5,12.5,0,0,1,6.1-1.5h2.3a17.4,17.4,0,0,1,4.7,1.6l1.7,1.3a7.7,7.7,0,0,1,2.2,2.9c.1,0,.1.1.1.2l-.7.4a6.8,6.8,0,0,0-1.2,1.2l-.4.5-.7,1.2a.8.8,0,0,1-.1.4l-.3,1c-.1.3-.1.6-.2.8s-.2,1.9-.2,2.7H28.2a12.7,12.7,0,0,0-.4-3.2,1.9,1.9,0,0,0-.2-.8,4.3,4.3,0,0,0-.1-.5l-.3-.7-.5-.9a3.6,3.6,0,0,0-.8-.9L25,31l-.4-.2a8.2,8.2,0,0,1,1.2-2l1.5-1.5.7-.5A5.7,5.7,0,0,1,29.3,26ZM17.5,41.8v-.4l-.4-.2a5.8,5.8,0,0,1-2.8-4.9A5.5,5.5,0,0,1,18.4,31l.5-.2v-.4a5.6,5.6,0,0,1,5.5-4.9,5.4,5.4,0,0,1,2.2.5l-.4.3a6.7,6.7,0,0,0-1.4,1.5,7.8,7.8,0,0,0-1.6,2.4H21.6A3,3,0,0,0,20,31h-.2a2.6,2.6,0,0,0-.6.9,3.6,3.6,0,0,0-.3,1.9,3.4,3.4,0,0,0,2.7,2.7,2.4,2.4,0,0,0,1.2,0h.1c.1.2.5,1.2-.4,5.6v.4a3.3,3.3,0,0,0,2.8,2.7h0v1.6a5.5,5.5,0,0,1-7.8-5.1Zm9.3,4.1v-.6h.6Zm14.6-2.1h-16c-.5,0-1-.1-1.5-1.5a13.2,13.2,0,0,0,.5-3.1,1.7,1.7,0,0,0,.1-.7V37.2c0-.2-.1-.4-.1-.6s0-.1-.1-.2-.1-.3-.2-.5a.3.3,0,0,0-.1-.2h0a1,1,0,0,0-.5-.4.6.6,0,0,0-.7-.1h-.9a2,2,0,0,1-1.6-1.5,2.3,2.3,0,0,1,.5-1.6,3.4,3.4,0,0,1,1.1-.5,2,2,0,0,1,1.1,0,2.7,2.7,0,0,1,1.2.6l.5.4.3.3h0l.5.6.6,1.2a6.4,6.4,0,0,1,.2.7c0,.1.1.3.1.4a4.3,4.3,0,0,0,.1.5v.3c.1.3.1.7.2,1v.7a1.3,1.3,0,0,1,.1.6v.6a.9.9,0,0,0,.1.5H43.3a.7.7,0,0,0,.7-.7,15.4,15.4,0,0,1,.7-4.8,3.4,3.4,0,0,1,.6-1.2,5,5,0,0,1,1.2-1.3h.1a3,3,0,0,1,1.1-.6,2,2,0,0,1,1.1,0,2.7,2.7,0,0,1,1.1.5,2.2,2.2,0,0,1,.6,1.6,2.2,2.2,0,0,1-1.6,1.5h-.7c-.1,0-.3-.1-.5,0h-.4c-.2,0-.3.2-.4.3s-.1.1-.2.2h-.1c-.1.2-.1.4-.2.5a1.3,1.3,0,0,1-.1.6,15.8,15.8,0,0,0,.3,4l.3,1.3a2.7,2.7,0,0,1-.6,1.1c-.1.1-.2.1-.2.2H46a.1.1,0,0,1-.1.1H41.4Z"/>
    <path class="cls-3" d="M59.4,38.9c-.4,0-.8.2-.8.6a23.7,23.7,0,1,1-3.8-17.9h-.1l-2.8,1.6,6.8,3.9V19.4l-2.2,1.2-.4.3a25.5,25.5,0,0,0-20.9-11A25.1,25.1,0,1,0,60,39.8.8.8,0,0,0,59.4,38.9Z"/>
    <path class="cls-4" d="M26.3,17.1a.8.8,0,0,0-.8.8v.9a.8.8,0,0,0,1.6,0v-.9A.8.8,0,0,0,26.3,17.1Z"/>
    <path class="cls-5" d="M24.6,19.6h-.8a.9.9,0,0,0-.9.9.9.9,0,0,0,.9.8h.8a.9.9,0,0,0,.9-.8A.9.9,0,0,0,24.6,19.6Z"/>
    <path class="cls-6" d="M25.5,23a.8.8,0,0,0,1.6,0v-.9a.8.8,0,0,0-1.6,0Z"/>
    <path class="cls-7" d="M28,21.3h.8a.9.9,0,0,0,.9-.8.9.9,0,0,0-.9-.9H28a.9.9,0,0,0-.9.9A.9.9,0,0,0,28,21.3Z"/>
  </g>
</svg>
