<svg id="Layer_1" data-name="Layer 1" xmlns="http://www.w3.org/2000/svg" xmlns:xlink="http://www.w3.org/1999/xlink" width="70" height="70" viewBox="0 0 70 70">
  <defs>
    <style>
      .cls-1 {
        fill: #f6f6f6;
      }

      .cls-2 {
        fill: url(#linear-gradient);
      }

      .cls-3 {
        fill: url(#linear-gradient-2);
      }

      .cls-4 {
        fill: url(#linear-gradient-3);
      }

      .cls-5 {
        fill: url(#linear-gradient-4);
      }

      .cls-6 {
        fill: url(#linear-gradient-5);
      }

      .cls-7 {
        fill: url(#linear-gradient-6);
      }

      .cls-8 {
        fill: url(#linear-gradient-7);
      }

      .cls-9 {
        fill: url(#linear-gradient-8);
      }

      .cls-10 {
        fill: url(#linear-gradient-9);
      }

      .cls-11 {
        fill: url(#linear-gradient-10);
      }

      .cls-12 {
        fill: url(#linear-gradient-11);
      }

      .cls-13 {
        fill: url(#linear-gradient-12);
      }

      .cls-14 {
        fill: url(#linear-gradient-13);
      }

      .cls-15 {
        fill: url(#linear-gradient-14);
      }

      .cls-16 {
        fill: url(#linear-gradient-15);
      }

      .cls-17 {
        fill: url(#linear-gradient-16);
      }

      .cls-18 {
        fill: url(#linear-gradient-17);
      }

      .cls-19 {
        fill: url(#linear-gradient-18);
      }

      .cls-20 {
        fill: url(#linear-gradient-19);
      }

      .cls-21 {
        fill: url(#linear-gradient-20);
      }

      .cls-22 {
        fill: url(#linear-gradient-21);
      }

      .cls-23 {
        fill: url(#linear-gradient-22);
      }

      .cls-24 {
        fill: url(#linear-gradient-23);
      }

      .cls-25 {
        fill: url(#linear-gradient-24);
      }

      .cls-26 {
        fill: url(#linear-gradient-25);
      }

      .cls-27 {
        fill: url(#linear-gradient-26);
      }

      .cls-28 {
        fill: url(#linear-gradient-27);
      }

      .cls-29 {
        fill: url(#linear-gradient-28);
      }

      .cls-30 {
        fill: url(#linear-gradient-29);
      }

      .cls-31 {
        fill: url(#linear-gradient-30);
      }

      .cls-32 {
        fill: url(#linear-gradient-31);
      }

      .cls-33 {
        fill: url(#linear-gradient-32);
      }

      .cls-34 {
        fill: url(#linear-gradient-33);
      }

      .cls-35 {
        fill: url(#linear-gradient-34);
      }

      .cls-36 {
        fill: url(#linear-gradient-35);
      }

      .cls-37 {
        fill: url(#linear-gradient-36);
      }

      .cls-38 {
        fill: url(#linear-gradient-37);
      }

      .cls-39 {
        fill: url(#linear-gradient-38);
      }
    </style>
    <linearGradient id="linear-gradient" x1="51.1" y1="59.52" x2="18.6" y2="10.02" gradientUnits="userSpaceOnUse">
      <stop offset="0" stop-color="#75c9b9"/>
      <stop offset="1" stop-color="#72bde5"/>
    </linearGradient>
    <linearGradient id="linear-gradient-2" x1="51.1" y1="59.52" x2="18.6" y2="10.02" xlink:href="#linear-gradient"/>
    <linearGradient id="linear-gradient-3" x1="51.36" y1="59.35" x2="18.86" y2="9.85" xlink:href="#linear-gradient"/>
    <linearGradient id="linear-gradient-4" x1="50.33" y1="60.02" x2="17.83" y2="10.52" xlink:href="#linear-gradient"/>
    <linearGradient id="linear-gradient-5" x1="51.16" y1="59.47" x2="18.66" y2="9.97" xlink:href="#linear-gradient"/>
    <linearGradient id="linear-gradient-6" x1="49.99" y1="60.24" x2="17.49" y2="10.74" xlink:href="#linear-gradient"/>
    <linearGradient id="linear-gradient-7" x1="51.29" y1="59.39" x2="18.79" y2="9.89" xlink:href="#linear-gradient"/>
    <linearGradient id="linear-gradient-8" x1="50.21" y1="60.1" x2="17.71" y2="10.6" xlink:href="#linear-gradient"/>
    <linearGradient id="linear-gradient-9" x1="51.79" y1="59.06" x2="19.29" y2="9.56" xlink:href="#linear-gradient"/>
    <linearGradient id="linear-gradient-10" x1="50.95" y1="59.61" x2="18.45" y2="10.11" xlink:href="#linear-gradient"/>
    <linearGradient id="linear-gradient-11" x1="52.54" y1="58.57" x2="20.04" y2="9.07" xlink:href="#linear-gradient"/>
    <linearGradient id="linear-gradient-12" x1="51.96" y1="58.95" x2="19.46" y2="9.45" xlink:href="#linear-gradient"/>
    <linearGradient id="linear-gradient-13" x1="52.99" y1="58.27" x2="20.49" y2="8.77" xlink:href="#linear-gradient"/>
    <linearGradient id="linear-gradient-14" x1="57.65" y1="55.21" x2="25.15" y2="5.71" xlink:href="#linear-gradient"/>
    <linearGradient id="linear-gradient-15" x1="57.72" y1="55.17" x2="25.22" y2="5.67" xlink:href="#linear-gradient"/>
    <linearGradient id="linear-gradient-16" x1="58.43" y1="54.7" x2="25.93" y2="5.2" xlink:href="#linear-gradient"/>
    <linearGradient id="linear-gradient-17" x1="59.05" y1="54.29" x2="26.55" y2="4.79" xlink:href="#linear-gradient"/>
    <linearGradient id="linear-gradient-18" x1="59.21" y1="54.19" x2="26.71" y2="4.69" xlink:href="#linear-gradient"/>
    <linearGradient id="linear-gradient-19" x1="60.11" y1="53.6" x2="27.61" y2="4.1" xlink:href="#linear-gradient"/>
    <linearGradient id="linear-gradient-20" x1="59.65" y1="53.9" x2="27.15" y2="4.4" xlink:href="#linear-gradient"/>
    <linearGradient id="linear-gradient-21" x1="60.76" y1="53.17" x2="28.26" y2="3.67" xlink:href="#linear-gradient"/>
    <linearGradient id="linear-gradient-22" x1="59.85" y1="53.77" x2="27.35" y2="4.27" xlink:href="#linear-gradient"/>
    <linearGradient id="linear-gradient-23" x1="61.04" y1="52.98" x2="28.54" y2="3.48" xlink:href="#linear-gradient"/>
    <linearGradient id="linear-gradient-24" x1="60.57" y1="53.29" x2="28.07" y2="3.79" xlink:href="#linear-gradient"/>
    <linearGradient id="linear-gradient-25" x1="44.27" y1="64" x2="11.77" y2="14.5" xlink:href="#linear-gradient"/>
    <linearGradient id="linear-gradient-26" x1="46.87" y1="62.29" x2="14.37" y2="12.79" xlink:href="#linear-gradient"/>
    <linearGradient id="linear-gradient-27" x1="49.12" y1="60.81" x2="16.62" y2="11.31" xlink:href="#linear-gradient"/>
    <linearGradient id="linear-gradient-28" x1="41.67" y1="65.71" x2="9.17" y2="16.21" xlink:href="#linear-gradient"/>
    <linearGradient id="linear-gradient-29" x1="39.42" y1="67.18" x2="6.92" y2="17.68" xlink:href="#linear-gradient"/>
    <linearGradient id="linear-gradient-30" x1="37.93" y1="68.16" x2="5.43" y2="18.66" xlink:href="#linear-gradient"/>
    <linearGradient id="linear-gradient-31" x1="37.93" y1="68.16" x2="5.43" y2="18.66" xlink:href="#linear-gradient"/>
    <linearGradient id="linear-gradient-32" x1="54.11" y1="57.54" x2="21.61" y2="8.04" xlink:href="#linear-gradient"/>
    <linearGradient id="linear-gradient-33" x1="54.11" y1="57.54" x2="21.61" y2="8.04" xlink:href="#linear-gradient"/>
    <linearGradient id="linear-gradient-34" x1="54.74" y1="57.12" x2="22.24" y2="7.62" xlink:href="#linear-gradient"/>
    <linearGradient id="linear-gradient-35" x1="54.74" y1="57.12" x2="22.24" y2="7.62" xlink:href="#linear-gradient"/>
    <linearGradient id="linear-gradient-36" x1="57.05" y1="55.61" x2="24.55" y2="6.11" xlink:href="#linear-gradient"/>
    <linearGradient id="linear-gradient-37" x1="44.74" y1="63.69" x2="12.24" y2="14.19" xlink:href="#linear-gradient"/>
    <linearGradient id="linear-gradient-38" x1="51.27" y1="59.4" x2="18.77" y2="9.9" xlink:href="#linear-gradient"/>
  </defs>
  <title>amc_</title>
  <path id="Rectangle" class="cls-1" d="M3,0H67a2.9,2.9,0,0,1,3,3V67a2.9,2.9,0,0,1-3,3H3a2.9,2.9,0,0,1-3-3V3A2.9,2.9,0,0,1,3,0Z"/>
  <g>
    <g>
      <g>
        <path class="cls-2" d="M46.9,14.3,58.8,35,46.9,55.7H23.1L11.2,35,23.1,14.3H46.9m.6-1h-25L10,35,22.5,56.7h25L60,35,47.5,13.3Z"/>
        <path class="cls-3" d="M45.6,16.7,56.1,35,45.6,53.3H24.4L13.9,35,24.4,16.7H45.6m.5-1H23.9L12.7,35,23.9,54.3H46.1L57.3,35,46.1,15.7Z"/>
      </g>
      <g>
        <g>
          <path class="cls-4" d="M30.1,27.6l.5.6c.2.1.3.2.4.1s-.3-.5-.5-1-.2-.7-.3-.7-.1.1-.2.3A2,2,0,0,0,30.1,27.6Z"/>
          <path class="cls-5" d="M29.7,28.5c.7-.1,1.2-.3,1.3-.2a2.3,2.3,0,0,1-1,.8H29a.8.8,0,0,1-.6-.2C28.4,28.7,29,28.7,29.7,28.5Z"/>
          <path class="cls-6" d="M29.4,26.9a1.9,1.9,0,0,0,.1.8c.1.2.2.3.3.2s0-.6.1-1.1.1-.8,0-.8S29.4,26.3,29.4,26.9Z"/>
          <path class="cls-7" d="M28.6,27.5l1.2.4c0,.1-.1.2-.3.2h-1a1.9,1.9,0,0,1-.9-.5l-.4-.5C27.3,26.9,27.9,27.3,28.6,27.5Z"/>
          <path class="cls-8" d="M29.1,25.8a1.6,1.6,0,0,0-.3.8c0,.3,0,.4.1.4s.3-.5.6-1,.5-.8.4-.9S29.4,25.3,29.1,25.8Z"/>
          <path class="cls-9" d="M28,26c.5.6,1,.9.9,1s-.2.1-.4,0a2.5,2.5,0,0,1-.8-.5c-.5-.6-.8-1.3-.7-1.4S27.5,25.5,28,26Z"/>
          <path class="cls-10" d="M29.2,24.7c-.5.4-.7,1-.6,1s.5-.3.9-.7.8-.7.7-.8S29.7,24.3,29.2,24.7Z"/>
          <path class="cls-11" d="M28.2,24.5c.2.7.5,1.2.4,1.2s-.6-.2-.9-.9-.3-1.4-.2-1.4S27.9,23.9,28.2,24.5Z"/>
          <path class="cls-12" d="M29.6,23.6c-.6.3-.9.7-.8.9s.5-.2,1.1-.5,1-.5.9-.7S30.2,23.3,29.6,23.6Z"/>
          <path class="cls-13" d="M28.7,23.2c.1.7.2,1.2.1,1.3s-.5-.5-.6-1.2-.1-1.3.1-1.4A2.6,2.6,0,0,1,28.7,23.2Z"/>
          <path class="cls-14" d="M29.8,22.7c-.3.6-.6,1.1-.8,1s0-.6.3-1.2.8-1,.9-.9S30.1,22.2,29.8,22.7Z"/>
        </g>
        <g>
          <path class="cls-15" d="M39.9,27.6l-.5.6c-.2.1-.3.2-.4.1s.3-.5.5-1,.2-.7.3-.7.1.1.2.3A2,2,0,0,1,39.9,27.6Z"/>
          <path class="cls-16" d="M40.3,28.5c-.7-.1-1.2-.3-1.3-.2a2.2,2.2,0,0,0,1.1.8H41a.8.8,0,0,0,.6-.2C41.6,28.7,41,28.7,40.3,28.5Z"/>
          <path class="cls-17" d="M40.6,26.9a1.9,1.9,0,0,1-.1.8c-.1.2-.2.3-.3.2s0-.6-.1-1.1-.1-.8,0-.8S40.6,26.3,40.6,26.9Z"/>
          <path class="cls-18" d="M41.4,27.5l-1.2.4c0,.1.1.2.3.2h1a1.9,1.9,0,0,0,.9-.5l.4-.5C42.7,26.9,42.1,27.3,41.4,27.5Z"/>
          <path class="cls-19" d="M40.9,25.8a1.6,1.6,0,0,1,.3.8c0,.3,0,.4-.1.4s-.3-.5-.6-1-.5-.8-.4-.9S40.6,25.3,40.9,25.8Z"/>
          <path class="cls-20" d="M42,26c-.5.6-1,.9-.9,1s.2.1.4,0a2.5,2.5,0,0,0,.8-.5c.5-.6.8-1.3.7-1.4S42.5,25.5,42,26Z"/>
          <path class="cls-21" d="M40.8,24.7c.5.4.7,1,.6,1s-.5-.3-.9-.7-.8-.7-.7-.8S40.3,24.3,40.8,24.7Z"/>
          <path class="cls-22" d="M41.8,24.5c-.2.7-.5,1.2-.4,1.2s.6-.2.9-.9.3-1.4.2-1.4S42.1,23.9,41.8,24.5Z"/>
          <path class="cls-23" d="M40.4,23.6c.6.3.9.7.8.9s-.5-.2-1.1-.5-1-.5-.9-.7S39.8,23.3,40.4,23.6Z"/>
          <path class="cls-24" d="M41.3,23.2c-.1.7-.2,1.2-.1,1.3s.5-.5.6-1.2.1-1.3-.1-1.4A2.6,2.6,0,0,0,41.3,23.2Z"/>
          <path class="cls-25" d="M40.2,22.7c.3.6.6,1.1.8,1s0-.6-.3-1.2-.8-1-.9-.9S39.9,22.2,40.2,22.7Z"/>
        </g>
      </g>
      <polyline class="cls-26" points="33.4 49.5 34.5 49.3 35 48.3 35.5 49.3 36.6 49.5 35.8 50.2 36 51.4 35 50.8 34 51.4 34.2 50.2"/>
      <polygon class="cls-27" points="38.7 48.6 39.1 49.4 40 49.5 39.4 50.2 39.5 51 38.7 50.6 37.9 51 38.1 50.2 37.4 49.5 38.3 49.4 38.7 48.6"/>
      <polygon class="cls-28" points="41.9 48.9 42.2 49.5 42.9 49.6 42.4 50.1 42.5 50.7 41.9 50.4 41.3 50.7 41.5 50.1 41 49.6 41.6 49.5 41.9 48.9"/>
      <polygon class="cls-29" points="31.3 48.6 30.9 49.4 30 49.5 30.6 50.2 30.5 51 31.3 50.6 32.1 51 31.9 50.2 32.6 49.5 31.7 49.4 31.3 48.6"/>
      <polygon class="cls-30" points="28.1 48.9 27.8 49.5 27.1 49.6 27.6 50.1 27.5 50.7 28.1 50.4 28.7 50.7 28.6 50.1 29 49.6 28.4 49.5 28.1 48.9"/>
      <g>
        <path class="cls-31" d="M26,50.8h-.1L19.8,40.2c0-.1,0-.1.1-.2h.2l6,10.4a.1.1,0,0,1,0,.2Z"/>
        <path class="cls-32" d="M26,51.3a.8.8,0,0,1-.6-.4l-6-10.4a1.1,1.1,0,0,1-.1-.5l.3-.4h.5l.4.3,6.1,10.5c0,.1.1.3,0,.5a.5.5,0,0,1-.3.4H26Zm-.3-.5ZM20.2,40Z"/>
      </g>
      <g>
        <path class="cls-33" d="M49.6,29.2h-.2l-5.5-9.6H26.1l-5.5,9.6h-.2a.4.4,0,0,1-.1-.3l5.6-9.6a.1.1,0,0,1,.1-.1H44a.1.1,0,0,1,.1.1l5.6,9.6a.4.4,0,0,1-.1.3Z"/>
        <path class="cls-34" d="M49.6,29.7a.5.5,0,0,1-.6-.4L43.6,20H26.4L21,29.3a.8.8,0,0,1-.4.4h-.5c-.1-.1-.3-.2-.3-.4a.7.7,0,0,1,.1-.5l5.5-9.6a.8.8,0,0,1,.6-.4H44a.8.8,0,0,1,.6.4l5.5,9.6a.7.7,0,0,1-.2.9h-.3Z"/>
      </g>
      <g>
        <path class="cls-35" d="M44,50.8h-.1a.1.1,0,0,1,0-.2l6-10.4h.2c.1.1.1.1.1.2L44.1,50.7Z"/>
        <path class="cls-36" d="M44,51.3h-.3a.5.5,0,0,1-.3-.4c-.1-.2,0-.4,0-.5l6.1-10.5.4-.3h.5l.3.4a1.1,1.1,0,0,1-.1.5l-6,10.4A.8.8,0,0,1,44,51.3Zm.3-.5Zm6.1-10.5Zm-.6-.3h0Z"/>
      </g>
    </g>
    <g>
      <path class="cls-37" d="M46.5,37.4h0a2.2,2.2,0,0,1-.2,1.1,2,2,0,0,1-.4.8,4.6,4.6,0,0,1-.7.7,4.2,4.2,0,0,1-1.5.4h-.4l-1-.2-.8-.5a1.6,1.6,0,0,1-.6-.8,2.4,2.4,0,0,1-.4-1.5V32.5a1.6,1.6,0,0,1,.2-1,3.6,3.6,0,0,1,.4-.9l.8-.6a2.8,2.8,0,0,1,1.3-.4h.5l1,.2.8.5a1.3,1.3,0,0,1,.6.7,2.8,2.8,0,0,1,.4,1.5h0v.2l-.2.2H44.8c0-.1-.1-.1-.1-.2s-.1-.1-.1-.2h0a1.3,1.3,0,0,0-.1-.6l-.4-.4H42.8l-.4.5c-.1.1-.1.3-.1.6v4.9a1.3,1.3,0,0,0,.1.6c.1.2.3.3.4.4l.6.2h.1l.5-.2a1,1,0,0,0,.5-.4,1.3,1.3,0,0,0,.1-.6.4.4,0,0,1,.1-.3h1.8Z"/>
      <path class="cls-38" d="M30.4,39.9l-1.9-9.7-.2-.3H25.7l-.2.3-2,9.7h0c0,.1,0,.1.1.2h1.8c.1,0,.1-.1.1-.2l.5-2.5h1.9l.5,2.5c0,.2.1.3.4.3h1.5c.1-.1.1-.1.1-.2Zm-4.1-4.1.6-3.8H27l.7,3.8Z"/>
      <path class="cls-39" d="M39.2,30.1v9.8a.3.3,0,0,1-.1.2l-.3.2H37.7l-.3-.2a.3.3,0,0,1-.1-.2V33.6l-1.1,3.7a.1.1,0,0,1-.1.1.1.1,0,0,1-.1.1H34.4c0-.1-.1-.1-.1-.2l-1.1-3.7v6.3h-.1a.3.3,0,0,1-.1.2H31.5a.3.3,0,0,1-.1-.2.1.1,0,0,1-.1-.1V30.1a.1.1,0,0,1,.1-.1c0-.1,0-.2.1-.2h2.3c0,.1.1.1.1.2l1.3,4.4,1.4-4.4c0-.1.1-.2.2-.3h2.3A.3.3,0,0,1,39.2,30.1Z"/>
    </g>
  </g>
</svg>
