<svg id="Layer_1" data-name="Layer 1" xmlns="http://www.w3.org/2000/svg" xmlns:xlink="http://www.w3.org/1999/xlink" width="374.5" height="89.4" viewBox="0 0 374.5 89.4">
  <defs>
    <style>
      .cls-1 {
        fill: url(#linear-gradient);
      }

      .cls-2, .cls-4, .cls-5 {
        fill: #fff;
      }

      .cls-2 {
        opacity: 0.3;
      }

      .cls-2, .cls-3, .cls-4 {
        isolation: isolate;
      }

      .cls-4 {
        font-size: 16px;
        font-family: Montserrat-Medium, Montserrat;
      }
    </style>
    <linearGradient id="linear-gradient" x1="405.55" y1="126.36" x2="21.53" y2="-32.27" gradientUnits="userSpaceOnUse">
      <stop offset="0" stop-color="#75c9b9"/>
      <stop offset="1" stop-color="#72bde5"/>
    </linearGradient>
  </defs>
  <title>banner_housekeeping_H0</title>
  <g id="Page-1">
    <g id="UI---Screen-7---v2">
      <g id="Group-2">
        <path id="Path-4" class="cls-1" d="M0,72.4C71,74,112,68.2,210.5,71c58.9,1.7,113.3,7.8,164,18.4V0H0Z"/>
        <rect id="Rectangle-Copy-2" class="cls-2" x="23.5" y="22" width="47" height="7" rx="3.3" ry="3.3"/>
        <path id="Rectangle-Copy-4" class="cls-2" d="M189.8,29h40.5a3.2,3.2,0,0,1,3.2,3.2v.5a3.2,3.2,0,0,1-3.2,3.2H189.8a3.2,3.2,0,0,1-3.2-3.2v-.5A3.3,3.3,0,0,1,189.8,29Z"/>
        <rect id="Rectangle-Copy-3" class="cls-2" x="64.5" y="35" width="47" height="7" rx="3.3" ry="3.3"/>
        <rect id="Rectangle-Copy-5" class="cls-2" x="233.5" y="42" width="47" height="7" rx="3.3" ry="3.3"/>
        <g id="sweep">
          <g id="_" data-name="+" class="cls-3">
            <text class="cls-4" transform="translate(358 26)">+</text>
          </g>
          <g id="_-copy" data-name="+-copy" class="cls-3">
            <text class="cls-4" transform="translate(336.5 14)">+</text>
          </g>
        </g>
      </g>
    </g>
  </g>
  <g>
    <path class="cls-5" d="M310.7,33h0v.2h4.7l.2-.2h.3v-.2h0v-.2h0v-.4h-.1v-.2h0v-.2H316v-.2h-.1v-.2h-.2v-.2h.2v-.4h0V29h-.2v-.2h-5v.5h0v.5h0v1h0v.5h0v1.2h0v.2h0v.5Zm3.7-1.5h-2v-.4h0v-.2h2Zm-2-2.1v-.2h1.9v.2h-1.9v-.2h0Z"/>
    <polygon class="cls-5" points="318.8 28.5 318.8 28.4 318.8 28 318.8 27.9 318.8 27.8 318.8 27.7 318.7 27.7 318.6 27.6 318.5 27.6 318.3 27.6 318 27.7 317.9 27.7 317.5 27.6 317.4 27.6 317.3 27.7 317.2 27.7 317.1 27.7 317.1 27.8 317.1 28 317.1 28.3 317.1 28.4 317.1 28.9 317.1 29 317.1 29.4 317.1 29.6 317.1 30.2 317.1 30.6 317.1 30.7 317.1 31.2 317.1 31.3 317.1 31.7 317.1 31.9 317.1 32.3 317.1 33 317.1 33.3 317.1 33.4 317.1 33.5 317.1 33.6 317.1 33.6 317.2 33.6 317.3 33.7 317.3 33.7 317.5 33.7 317.9 33.6 318 33.7 318.4 33.7 318.5 33.7 318.6 33.7 318.7 33.7 318.8 33.6 318.8 33.5 318.8 33.3 318.8 32.9 318.8 32.8 318.8 32.3 318.8 32.1 318.8 31.6 318.8 31.5 318.8 31.4 318.9 31.4 319 31.4 319.5 31.4 320.1 31.4 320.3 31.4 320.6 31.4 320.8 31.4 320.9 31.4 320.9 31.5 320.9 31.6 320.9 32.1 320.9 32.3 320.9 32.8 320.9 32.9 321 33.5 321 33.6 321 33.7 321.2 33.7 321.3 33.7 321.7 33.6 321.9 33.6 322.3 33.7 322.4 33.7 322.5 33.6 322.6 33.6 322.6 33.5 322.6 33.4 322.6 33.2 322.6 33 322.6 32.9 322.6 32.3 322.6 31.9 322.6 31.7 322.6 31.3 322.6 31.2 322.6 30.7 322.6 30.6 322.7 30.2 322.7 30 322.6 29.6 322.6 29.4 322.6 29 322.6 28.9 322.6 28.4 322.6 28.3 322.7 28 322.7 27.8 322.6 27.7 322.6 27.7 322.4 27.6 322.4 27.6 322.2 27.6 321.9 27.7 321.7 27.7 321.3 27.6 321.1 27.6 321 27.6 321 27.7 321 27.9 321 28.4 321 28.5 321 29.1 321 29.2 320.9 29.7 320.9 29.8 320.9 29.9 320.8 30 320.8 30 320.6 30 320.1 29.9 319.6 29.9 319.5 29.9 319.2 30 319 30 318.9 30 318.8 30 318.8 29.9 318.8 29.9 318.8 29.8 318.8 29.1 318.8 28.5"/>
    <polygon class="cls-5" points="323.8 33.1 323.8 33.3 323.8 33.4 323.8 33.5 323.8 33.6 323.9 33.7 323.9 33.7 324.3 33.7 324.5 33.7 324.9 33.7 325.1 33.7 325.4 33.7 325.5 33.7 325.5 33.6 325.5 33.5 325.5 33.4 325.5 33.3 325.5 33.1 325.5 33 325.5 32.5 325.5 31.9 325.6 31.8 325.6 31.8 325.7 31.8 325.7 31.9 325.8 32 326.1 32.3 326.1 32.4 326.5 32.7 326.5 32.8 326.8 33.2 326.9 33.3 327.2 33.6 327.2 33.7 327.3 33.7 327.9 33.7 328 33.7 328.5 33.7 328.7 33.7 329.1 33.7 329.2 33.7 329.3 33.7 329.3 33.6 329.3 33.6 329.3 33.5 328.9 33.1 328.8 33 328.5 32.7 328.4 32.6 328.1 32.2 328 32.1 327.6 31.7 327.6 31.6 327.2 31.2 327.1 31.1 326.8 30.7 326.7 30.6 326.7 30.6 326.8 30.5 326.8 30.5 326.9 30.4 327.1 30.2 327.2 30.1 327.5 29.7 327.6 29.6 327.9 29.2 328 29.1 328.3 28.8 328.4 28.7 328.7 28.3 328.8 28.2 329.1 27.8 329.1 27.8 329.1 27.7 329.1 27.7 329.1 27.7 329 27.7 328.7 27.7 328.5 27.7 328.2 27.7 327.7 27.6 327.6 27.6 327.2 27.7 327.1 27.7 327.1 27.8 326.8 28.1 326.7 28.2 326.4 28.5 326 29.1 325.7 29.4 325.6 29.5 325.6 29.5 325.5 29.4 325.5 29 325.5 28.8 325.5 28.4 325.5 28.2 325.5 28 325.5 27.9 325.5 27.8 325.5 27.7 325.5 27.7 325.4 27.7 325 27.7 324.9 27.7 324.5 27.7 324.3 27.7 324.1 27.7 324 27.7 323.9 27.7 323.9 27.7 323.8 27.8 323.8 28.3 323.8 28.4 323.8 29.4 323.8 29.6 323.8 30 323.8 30.2 323.8 30.6 323.8 31.2 323.8 31.3 323.8 31.8 323.8 31.9 323.8 32.5 323.8 32.9 323.8 33.1"/>
    <polygon class="cls-5" points="315.2 24.9 315.2 25.6 315.2 25.7 315.2 25.8 315.3 25.9 315.4 25.9 316.1 25.9 317.1 25.9 318.9 25.9 320 25.9 320.7 25.9 321.6 25.9 321.8 25.9 322.1 25.9 322.2 25.9 322.6 25.9 322.7 25.8 322.8 25.7 322.8 25.6 322.8 25.4 322.8 25.2 322.8 24.9 322.8 24.4 322.8 24.2 322.8 24 322.7 23.9 322.7 23.7 322.5 23.7 322.3 23.7 321.9 23.7 321.7 23.8 320.2 23.8 320 23.8 319.4 23.8 318.4 23.8 317.9 23.8 317.7 23.8 317.6 23.7 317.6 23.7 317.6 23.6 317.6 23.4 317.6 23.3 317.7 23.1 317.8 23 317.9 22.8 318 22.8 318.2 22.7 318.3 22.7 318.5 22.6 318.6 22.6 318.9 22.6 319 22.6 319.2 22.6 319.5 22.6 319.7 22.5 319.9 22.5 320.1 22.5 320.4 22.4 320.6 22.4 320.8 22.4 321 22.3 321.2 22.2 321.4 22.2 321.7 22 321.8 21.9 322 21.7 322.2 21.6 322.3 21.4 322.4 21.2 322.6 21 322.7 20.8 322.7 20.6 322.8 20.4 322.8 20.1 322.9 19.9 322.9 19.7 322.9 19.5 322.8 19.2 322.8 19 322.7 18.8 322.7 18.6 322.6 18.4 322.5 18.2 322.3 18 322.2 17.9 322.1 17.7 321.9 17.5 321.8 17.4 321.6 17.3 321.3 17.2 321.1 17.1 320.9 17 320.5 16.9 320.3 16.8 320.1 16.8 319.9 16.7 319.7 16.7 319.5 16.7 319.2 16.7 318.8 16.7 318.6 16.8 318.3 16.8 318.1 16.8 318 16.8 317.8 16.9 317.5 16.9 317.3 17 317.1 17.1 316.7 17.3 316.5 17.4 316.3 17.5 316.1 17.7 316 17.8 315.8 18 315.7 18.1 315.6 18.3 315.5 18.5 315.4 18.7 315.4 18.8 315.4 19 315.3 19.1 315.3 19.3 315.3 19.5 315.4 19.6 315.4 19.7 315.6 19.7 315.9 19.7 316.2 19.7 316.7 19.7 317.2 19.8 317.4 19.7 317.5 19.7 317.7 19.7 317.8 19.6 317.9 19.4 318 19.3 318 19.2 318.2 19 318.3 19 318.4 18.9 318.7 18.8 318.9 18.8 319 18.8 319.2 18.8 319.4 18.8 319.6 18.8 319.9 18.9 320 19 320.1 19.1 320.2 19.2 320.3 19.4 320.3 19.5 320.3 19.8 320.2 20 320.1 20.2 320 20.3 319.8 20.4 319.7 20.4 319.5 20.5 319.2 20.5 319 20.5 318.8 20.5 318.2 20.6 318 20.6 317.8 20.6 317.6 20.7 317.3 20.8 317.1 20.8 316.8 21 316.6 21.1 316.4 21.2 316.2 21.3 316 21.5 315.9 21.6 315.7 21.9 315.6 22 315.5 22.2 315.4 22.3 315.4 22.5 315.3 22.7 315.3 22.9 315.2 23.3 315.2 23.7 315.1 23.9 315.2 24.7 315.2 24.9"/>
    <path class="cls-5" d="M360.7,67.5l-1.3-11.8v-.6h0V53a4.2,4.2,0,0,0-4.2-4.2h-.9V48a2.2,2.2,0,0,0-2.1-2.3V19.6a2.8,2.8,0,0,0-2.8-2.7,2.7,2.7,0,0,0-2.7,2.7V45.7a1.7,1.7,0,0,0-1,.3l.3-3.1v-.2a2.1,2.1,0,0,0-.4-1.1,1.8,1.8,0,0,0-1.3-.6h-.1a4.1,4.1,0,0,0-1.3-1.9,4.4,4.4,0,0,0-3.5-.7,4.1,4.1,0,0,0-3.6-2.3,4,4,0,0,0-1.5.3,4.1,4.1,0,0,0-2.8-1.1,3.9,3.9,0,0,0-2.8,1.1,4,4,0,0,0-1.5-.3,3.9,3.9,0,0,0-3.5,2.2,4,4,0,0,0-3.5,1.5h-1.6a2.5,2.5,0,0,0-2.5,2.5V54.9a2.5,2.5,0,0,0,2.5,2.5h.5l.9,10.1a2.5,2.5,0,0,0,2.5,2.3h36.2a2,2,0,0,0,1.6-.7A2.2,2.2,0,0,0,360.7,67.5Zm-5.2-9.1a1,1,0,0,0-1,1v8.8H354V61.5a1.1,1.1,0,0,0-1-1,1.1,1.1,0,0,0-1.1,1v6.7h-.5V63.7a1,1,0,1,0-2,0v4.5h-3.5V61.5a1.1,1.1,0,0,0-1.1-1,1.1,1.1,0,0,0-1,1v6.7h-.5V59.4a1,1,0,0,0-1-1,1,1,0,0,0-1.1,1v8.8h-1.1c-.2,0-.3,0-.4-.2a.4.4,0,0,1-.1-.3L340.8,56h17l1.3,11.8c0,.2-.1.3-.1.4h-2.4V59.4A1,1,0,0,0,355.5,58.4Zm-37-2.6a.9.9,0,0,1-.9-.9V42.3a4.3,4.3,0,0,1,.1-.5h.1a.7.7,0,0,1,.7-.4h7.7a.9.9,0,0,1,.7.3,1.1,1.1,0,0,1,.2.6v.3h0V54.9a.9.9,0,0,1-.9.9h-7.7Zm12.9-18.9a2.3,2.3,0,0,1,1.9,1,.9.9,0,0,0,1.1.2,2.8,2.8,0,0,1,1.3-.4,2.4,2.4,0,0,1,2.3,1.9c.1.3.2.5.5.6a.6.6,0,0,0,.7-.1l1.1-.2a2.3,2.3,0,0,1,2,1.1h-4v6.6a.8.8,0,0,1-.7.7.7.7,0,0,1-.7-.7V41h-1.6v2.8a.8.8,0,0,1-.7.7.7.7,0,0,1-.7-.7V41h-5.5a2.6,2.6,0,0,0-2.2-1.2h-1.6a.8.8,0,0,0,.2-.4,2.5,2.5,0,0,1,2.3-1.7,2.8,2.8,0,0,1,1.3.4.8.8,0,0,0,1-.2A2.6,2.6,0,0,1,331.4,36.9Zm17.9-18.4a1.1,1.1,0,0,1,1.1,1.1v26h-2.2v-26A1.1,1.1,0,0,1,349.3,18.5Zm1.1,28.8h1.5a.7.7,0,0,1,.7.7v2.4h-6.5V48a.7.7,0,0,1,.7-.7h3.6Zm-21.7-3.5V42.7h3.6V44a1.9,1.9,0,0,0,.3,1,2.4,2.4,0,0,0,2.7,1v.2h-3.9l-.3-1.4a1,1,0,0,0-1-.6.9.9,0,0,0-.5,1l.3,1h-1.2Zm13.9,2v.4h-2.7V42.7h3l-.3,3.1Zm-7.3,2a2.2,2.2,0,0,0,2.3,2.1,2.3,2.3,0,0,0,2.3-2.1h2.5v1.1a4.3,4.3,0,0,0-3,3.6v1.8a7.9,7.9,0,0,1-7.2-5.8l-.2-.7Zm22.4,6.5H340.9V53a.6.6,0,0,1,.1-.4,2.5,2.5,0,0,1,1.7-2.1h1.8v.8a.8.8,0,0,0,.8.8h8.1a.9.9,0,0,0,.8-.8v-.8h.9a2.5,2.5,0,0,1,2.6,2.6Zm-31.5,3.1a2.5,2.5,0,0,0,2.5-2.5V47.8h1.6l.3,1.1a9.7,9.7,0,0,0,8.6,7L338,67.5v.7H322.4a1.1,1.1,0,0,1-.9-.9l-.8-9.9ZM344.5,48v.8H344v-1h.4Z"/>
  </g>
</svg>
