<svg id="Layer_1" data-name="Layer 1" xmlns="http://www.w3.org/2000/svg" xmlns:xlink="http://www.w3.org/1999/xlink" width="70" height="70" viewBox="0 0 70 70">
  <defs>
    <style>
      .cls-1 {
        fill: #f6f6f6;
      }

      .cls-2 {
        fill: url(#linear-gradient);
      }

      .cls-3 {
        fill: url(#linear-gradient-2);
      }

      .cls-4 {
        fill: url(#linear-gradient-3);
      }

      .cls-5 {
        fill: url(#linear-gradient-4);
      }
    </style>
    <linearGradient id="linear-gradient" x1="56.08" y1="68.34" x2="15.37" y2="2.98" gradientUnits="userSpaceOnUse">
      <stop offset="0" stop-color="#64dcc2"/>
      <stop offset="1" stop-color="#70bce6"/>
    </linearGradient>
    <linearGradient id="linear-gradient-2" x1="52.57" y1="70.53" x2="11.86" y2="5.17" xlink:href="#linear-gradient"/>
    <linearGradient id="linear-gradient-3" x1="49.76" y1="72.28" x2="9.04" y2="6.93" xlink:href="#linear-gradient"/>
    <linearGradient id="linear-gradient-4" x1="55.86" y1="68.48" x2="15.14" y2="3.13" xlink:href="#linear-gradient"/>
  </defs>
  <title>icon_carpentry_C0</title>
  <path id="Rectangle" class="cls-1" d="M3,0H67a2.9,2.9,0,0,1,3,3V67a2.9,2.9,0,0,1-3,3H3a2.9,2.9,0,0,1-3-3V3A2.9,2.9,0,0,1,3,0Z"/>
  <g>
    <path class="cls-2" d="M34.8,20.1A14.1,14.1,0,0,0,23.6,42.8a.8.8,0,0,0,.6.2h.4a.7.7,0,0,0,.1-1,12.6,12.6,0,0,1-2.6-7.7,12.7,12.7,0,1,1,22.8,7.7.8.8,0,0,0,.1,1c.4.2.8.2,1-.2a13.7,13.7,0,0,0,2.9-8.5A14.1,14.1,0,0,0,34.8,20.1Z"/>
    <path class="cls-3" d="M41.4,45.4l1.2-2.1-2.4-2.5-.9.5a1.3,1.3,0,0,0,.1-.6l-.8-6.8a4.9,4.9,0,0,0,2-4.4,5.7,5.7,0,0,0-5.7-5.8,5.8,5.8,0,0,0-5.8,5.8,5.7,5.7,0,0,0,2,4.4l-.7,6.8v.4l-.6-.3-2.4,2.5,1.2,2.1-.3.7-2.4.6v3.5l2.4.6.3.7-1.2,2.1L29.8,56l2.1-1.2.7.3.7,2.4h3.4l.7-2.4.7-.3L40.2,56l2.4-2.4-1.2-2.1.3-.7,2.4-.6V46.7l-2.4-.6Zm1.2,3.7-2,.5V50L40,51.2l-.2.3,1,1.9-.9.9-1.8-1.1-.4.2-1.1.5h-.4l-.6,2.1H34.4L33.8,54h-.4l-1.1-.5-.4-.2-1.8,1.1-.9-.9,1-1.9-.2-.3L29.5,50v-.4l-2-.5V47.8l2-.6v-.3l.5-1.2.2-.4-1-1.8.9-.9,1.8,1.1.4-.2,1.1-.5h.4l.4-1.5.2-.6h1.2l.2.6.4,1.5h.4l1.1.5.4.2,1.8-1.1.9.9-1,1.8.2.4.5,1.2v.3l2,.6ZM30.5,29.5a4.4,4.4,0,0,1,4.4-4.3,4.3,4.3,0,0,1,4.3,4.3A3.7,3.7,0,0,1,37.5,33l-.4.2.8,7.6c.1.2,0,.3-.1.5h-.5l-.6-2H33.3l-.6,2h-.8a.9.9,0,0,1-.1-.5l.8-7.6-.3-.2A4.4,4.4,0,0,1,30.5,29.5Z"/>
    <path class="cls-4" d="M37.4,47.7a1.5,1.5,0,0,0,1.5-1.5c0-.1-.1-.3-.1-.4h-.1c-.1-.1-.1,0-.2,0l-.6.6h-.3l-.3-.3v-.3l.6-.6c0-.1.1-.1,0-.2a.1.1,0,0,0-.1-.1h-.4a1.7,1.7,0,0,0-1.3.7,1.6,1.6,0,0,0-.2,1.2l-1.1,1.1-1.9-1.8v-.4h0l-1.1-.7h-.2l-.4.4c-.1,0-.1.1-.1.2l.7,1a.1.1,0,0,0,.1.1h.4l1.8,1.9L33,49.5a1.6,1.6,0,0,0-1.2.2,1.7,1.7,0,0,0-.7,1.2,4.3,4.3,0,0,0,.1.5.1.1,0,0,0,.1.1h.2l.6-.6h.3l.3.3v.3l-.6.6c0,.1-.1.1,0,.2a.1.1,0,0,0,.1.1h.4a1.7,1.7,0,0,0,1.3-.7,1.6,1.6,0,0,0,.2-1.2l.9-.9.2.2h-.1c-.1,0-.1.1,0,.2h.3l1.9,2.1h0a.9.9,0,0,0,1.3-1.3h0L36.5,49h.1c.1,0,.1-.1,0-.2s-.2-.1-.2,0h-.1l-.2-.2.9-.9ZM36.1,49l-.7.7-.2-.2.7-.7Z"/>
    <path class="cls-5" d="M35,10a25,25,0,0,0-7.6,48.8l1.4.4,2.3.5,2.2.2h3.4l2.2-.2,2.3-.5,1.4-.4A25,25,0,0,0,35,10Zm6.9,47.6h-.7l-.8.2a19,19,0,0,1-5.4.7,19,19,0,0,1-5.4-.7l-.8-.2h-.7A23.6,23.6,0,1,1,58.6,35,23.8,23.8,0,0,1,41.9,57.6Z"/>
  </g>
</svg>
