<svg id="Layer_1" data-name="Layer 1" xmlns="http://www.w3.org/2000/svg" xmlns:xlink="http://www.w3.org/1999/xlink" width="374.5" height="89.4" viewBox="0 0 374.5 89.4">
  <defs>
    <style>
      .cls-1 {
        fill: url(#linear-gradient);
      }

      .cls-2, .cls-4, .cls-5 {
        fill: #fff;
      }

      .cls-2 {
        opacity: 0.3;
      }

      .cls-2, .cls-3, .cls-4 {
        isolation: isolate;
      }

      .cls-4 {
        font-size: 16px;
        font-family: Montserrat-Medium, Montserrat;
      }
    </style>
    <linearGradient id="linear-gradient" x1="405.55" y1="126.36" x2="21.53" y2="-32.27" gradientUnits="userSpaceOnUse">
      <stop offset="0" stop-color="#75c8b8"/>
      <stop offset="1" stop-color="#71bbe4"/>
    </linearGradient>
  </defs>
  <title>banner_pumbing_P0</title>
  <g id="Page-1">
    <g id="UI---Screen-7---v2">
      <g id="Group-2">
        <path id="Path-4" class="cls-1" d="M0,72.4C71,74,112,68.2,210.5,71c58.9,1.7,113.3,7.8,164,18.4V0H0Z"/>
        <rect id="Rectangle-Copy-2" class="cls-2" x="23.5" y="22" width="47" height="7" rx="3.3" ry="3.3"/>
        <path id="Rectangle-Copy-4" class="cls-2" d="M189.8,29h40.5a3.3,3.3,0,0,1,3.3,3.3v.5a3.3,3.3,0,0,1-3.2,3.3H189.8a3.2,3.2,0,0,1-3.2-3.2v-.5A3.2,3.2,0,0,1,189.8,29Z"/>
        <path id="Rectangle-Copy-3" class="cls-2" d="M67.8,35h40.5a3.2,3.2,0,0,1,3.2,3.2v.5a3.3,3.3,0,0,1-3.2,3.3H67.8a3.2,3.2,0,0,1-3.2-3.2v-.5A3.2,3.2,0,0,1,67.8,35Z"/>
        <path id="Rectangle-Copy-5" class="cls-2" d="M236.8,42h40.5a3.2,3.2,0,0,1,3.2,3.2v.5a3.3,3.3,0,0,1-3.2,3.3H236.8a3.2,3.2,0,0,1-3.2-3.2v-.5a3.2,3.2,0,0,1,3.2-3.2Z"/>
        <g id="sweep">
          <g id="_" data-name="+" class="cls-3">
            <text class="cls-4" transform="translate(358 26)">+</text>
          </g>
          <g id="_-copy" data-name="+-copy" class="cls-3">
            <text class="cls-4" transform="translate(336.5 14)">+</text>
          </g>
        </g>
      </g>
    </g>
  </g>
  <g>
    <rect class="cls-5" x="330.4" y="38.6" width="1.1" height="1.13"/>
    <rect class="cls-5" x="332.3" y="38.6" width="1.1" height="1.13"/>
    <path class="cls-5" d="M335,65.5a25,25,0,1,0-25-25A25,25,0,0,0,335,65.5Zm14.4-7a2.3,2.3,0,0,1-2.3-2.3c0-.9,1.3-3,2.3-4.5,1.1,1.5,2.3,3.6,2.3,4.5a2,2,0,0,1-.3,1.1,11.4,11.4,0,0,1-1.1,1.1ZM335,16.9a23.5,23.5,0,0,1,17.8,39c-.3-1.9-2.6-5.1-2.9-5.5l-.5-.6-.4.6c-.3.4-3,4.1-3,5.8a3.4,3.4,0,0,0,2.8,3.4,23.6,23.6,0,0,1-37.3-16.7h7.7V41.7h-7.4V37.1h11.7v4.6h-2.8v1.2h3.1l4.1,4h8.2l4.1-4.1h5.2l1.3,1.4v1.4h-2v4.1h9.4V45.6h-1.3V39.4L348.7,36h-3.1v1.1h2.7l3.4,2.8v5.6h-3.9V43.7l-1.9-2h-5.4V37.1h3.6V36h-3.9l-3.8-3.7V29.7h-1.6V26l.3-.2h8.1V22.2h-8.1l-1.8-.9h-2.8l-1.8.9h-8.1v3.6h8.1l.4.2v3.7h-1.5v2.5L323.8,36H311.9A23.5,23.5,0,0,1,335,16.9Zm-1.9,8.7h-2.3l-1.5-.7V23.1l1.5-.7h2.3l1.4.7v1.8Zm.5,1v3.1h-3.4V26.6h3.4Zm1.7,4.2v1.1h-6.6V30.8Zm.3,2.3,3.8,3.7v5.3l-3.8,3.7h-7.2l-3.8-3.7V36.8l3.8-3.7ZM353,46.7v1.8h-7.1V46.7Zm-17.4-22V23.3h6.5v1.4Zm-7.4-1.4v1.4h-6.4V23.3Z"/>
  </g>
</svg>
