<svg id="Layer_1" data-name="Layer 1" xmlns="http://www.w3.org/2000/svg" xmlns:xlink="http://www.w3.org/1999/xlink" width="374.5" height="89.4" viewBox="0 0 374.5 89.4">
  <defs>
    <style>
      .cls-1 {
        fill: url(#linear-gradient);
      }

      .cls-2, .cls-4, .cls-5 {
        fill: #fff;
      }

      .cls-2 {
        opacity: 0.3;
      }

      .cls-2, .cls-3, .cls-4 {
        isolation: isolate;
      }

      .cls-4 {
        font-size: 16px;
        font-family: Montserrat-Medium, Montserrat;
      }
    </style>
    <linearGradient id="linear-gradient" x1="405.55" y1="126.36" x2="21.53" y2="-32.27" gradientUnits="userSpaceOnUse">
      <stop offset="0" stop-color="#75c9b9"/>
      <stop offset="1" stop-color="#72bde5"/>
    </linearGradient>
  </defs>
  <title>banner_housekeeping_H0</title>
  <g id="Page-1">
    <g id="UI---Screen-7---v2">
      <g id="Group-2">
        <path id="Path-4" class="cls-1" d="M0,72.4C71,74,112,68.2,210.5,71c58.9,1.7,113.3,7.8,164,18.4V0H0Z"/>
        <rect id="Rectangle-Copy-2" class="cls-2" x="23.5" y="22" width="47" height="7" rx="3.3" ry="3.3"/>
        <path id="Rectangle-Copy-4" class="cls-2" d="M189.8,29h40.5a3.2,3.2,0,0,1,3.2,3.2v.5a3.2,3.2,0,0,1-3.2,3.2H189.8a3.3,3.3,0,0,1-3.2-3.2v-.5A3.3,3.3,0,0,1,189.8,29Z"/>
        <rect id="Rectangle-Copy-3" class="cls-2" x="64.5" y="35" width="47" height="7" rx="3.3" ry="3.3"/>
        <rect id="Rectangle-Copy-5" class="cls-2" x="233.5" y="42" width="47" height="7" rx="3.3" ry="3.3"/>
        <g id="sweep">
          <g id="_" data-name="+" class="cls-3">
            <text class="cls-4" transform="translate(357 26)">+</text>
          </g>
          <g id="_-copy" data-name="+-copy" class="cls-3">
            <text class="cls-4" transform="translate(336.5 14)">+</text>
          </g>
        </g>
      </g>
    </g>
  </g>
  <g>
    <path class="cls-5" d="M310.7,32.4h4.9l.2-.2h.2v-.2h.1v-.4H316v-.2h0v-.2h-.1v-.2h-.2v-.2h.1v-.2h.1v-.2h0v-.2h0v-.4h-.1v-.2h-5v.4h0v.5h0v1h0V30h0v1h0v.2h0v.2h0v.5Zm3.6-1.5h-1.9v-.2h0v-.2h1.9Zm-1.9-2.1v-.2h1.9V29h-1.9V29h-.1Z"/>
    <polygon class="cls-5" points="321 27.1 320.9 27.1 320.9 27.2 320.8 27.3 320.8 27.8 320.8 28 320.9 28.5 320.9 28.6 320.8 29.2 320.8 29.3 320.8 29.3 320.7 29.4 320.6 29.4 320.5 29.4 320 29.3 319.5 29.3 319.4 29.3 319.1 29.4 318.9 29.4 318.8 29.4 318.8 29.4 318.7 29.3 318.7 29.3 318.7 29.2 318.7 28.5 318.7 28 318.7 27.8 318.7 27.5 318.7 27.3 318.7 27.3 318.7 27.2 318.6 27.1 318.5 27.1 318.4 27.1 318.3 27.1 317.9 27.1 317.8 27.1 317.4 27.1 317.3 27.1 317.2 27.1 317.1 27.1 317 27.2 317 27.3 317 27.4 317 27.7 317 27.9 317 28.3 317 28.4 317 28.9 317 29 317 29.6 317 30 317 30.1 317 30.6 317 30.7 317 31.1 317 31.3 317 31.7 317 32.4 317 32.6 317 32.8 317 32.9 317 32.9 317 33 317.1 33 317.2 33 317.3 33 317.4 33 317.8 33 317.9 33 318.3 33.1 318.4 33.1 318.5 33.1 318.6 33 318.7 33 318.7 32.9 318.7 32.7 318.7 32.3 318.7 32.2 318.7 31.6 318.7 31.5 318.7 31 318.7 30.9 318.7 30.8 318.8 30.8 318.9 30.8 319.4 30.8 320 30.8 320.2 30.8 320.5 30.8 320.7 30.8 320.8 30.8 320.8 30.9 320.8 31 320.8 31.5 320.8 31.6 320.8 32.2 320.8 32.3 320.9 32.8 320.9 33 320.9 33 321 33 321.2 33 321.6 33 321.7 33 322.2 33 322.3 33 322.4 33 322.5 33 322.5 32.9 322.5 32.7 322.5 32.6 322.5 32.4 322.5 32.3 322.5 31.7 322.5 31.3 322.5 31.1 322.5 30.7 322.5 30.6 322.5 30.1 322.5 30 322.5 29.6 322.5 29.4 322.5 29 322.5 28.9 322.5 28.4 322.5 28.3 322.5 27.9 322.5 27.7 322.5 27.4 322.5 27.3 322.5 27.2 322.4 27.1 322.3 27.1 322.2 27.1 322.1 27.1 321.7 27.1 321.6 27.1 321.2 27.1 321 27.1"/>
    <polygon class="cls-5" points="323.7 32.5 323.7 32.7 323.7 32.8 323.7 32.9 323.7 33 323.7 33 323.8 33.1 324.2 33 324.3 33 324.7 33.1 325 33.1 325.2 33 325.3 33 325.4 33 325.4 32.9 325.4 32.8 325.4 32.7 325.4 32.5 325.4 32.3 325.4 31.9 325.4 31.3 325.4 31.2 325.4 31.2 325.5 31.2 325.5 31.3 325.6 31.4 325.9 31.7 326 31.8 326.3 32.1 326.4 32.2 326.6 32.6 326.7 32.7 327 33 327 33 327.1 33 327.7 33 327.8 33 328.3 33 328.5 33 328.9 33.1 329 33.1 329.1 33 329.1 33 329.1 32.9 329.1 32.9 328.7 32.5 328.6 32.4 328.3 32 328.2 31.9 327.9 31.6 327.8 31.5 327.5 31.1 327.4 31 327 30.6 326.9 30.5 326.6 30.1 326.6 30 326.5 30 326.6 29.9 326.6 29.9 326.7 29.8 326.9 29.6 327 29.5 327.3 29.1 327.4 29 327.7 28.7 327.8 28.6 328.1 28.2 328.2 28.1 328.5 27.7 328.5 27.6 328.9 27.3 328.9 27.2 328.9 27.2 328.9 27.2 328.9 27.1 328.8 27.1 328.5 27.1 328.3 27.1 328 27.1 327.5 27.1 327.4 27.1 327 27.1 326.9 27.1 326.9 27.2 326.6 27.5 326.5 27.6 326.2 28 325.8 28.5 325.5 28.9 325.5 28.9 325.4 28.9 325.4 28.8 325.4 28.4 325.4 28.2 325.3 27.8 325.3 27.7 325.4 27.4 325.4 27.3 325.4 27.2 325.3 27.2 325.3 27.1 325.2 27.1 324.8 27.1 324.7 27.1 324.3 27.1 324.2 27.1 323.9 27.1 323.8 27.1 323.7 27.1 323.7 27.2 323.7 27.3 323.7 27.7 323.7 27.8 323.7 28.9 323.7 29 323.7 29.4 323.7 29.6 323.7 30 323.7 30.6 323.7 30.7 323.7 31.2 323.6 31.3 323.6 31.9 323.7 32.3 323.7 32.5"/>
    <path class="cls-5" d="M360.7,66.8,359.4,55v-.6h0V52.2a4.2,4.2,0,0,0-4.2-4.2h-.9v-.8a2.3,2.3,0,0,0-2.1-2.3v-26a2.8,2.8,0,0,0-2.8-2.8,2.7,2.7,0,0,0-2.7,2.8v26a1.7,1.7,0,0,0-1,.3l.3-3.1h0a2.8,2.8,0,0,0-.4-1.2,2.1,2.1,0,0,0-1.3-.5h-.1a4.1,4.1,0,0,0-4.8-2.7,4.2,4.2,0,0,0-3.6-2.2,4,4,0,0,0-1.5.3,3.8,3.8,0,0,0-2.8-1.2,3.6,3.6,0,0,0-2.8,1.2,4,4,0,0,0-1.5-.3,3.8,3.8,0,0,0-3.5,2.1,4.2,4.2,0,0,0-3.5,1.5h-1.6a2.5,2.5,0,0,0-2.5,2.5V54.2a2.5,2.5,0,0,0,2.5,2.5h.5l.9,10a2.5,2.5,0,0,0,2.5,2.4h36.2a2.4,2.4,0,0,0,1.6-.7A2.2,2.2,0,0,0,360.7,66.8Zm-5.2-9.2a1.1,1.1,0,0,0-1,1.1v8.8H354V60.8a1,1,0,0,0-1-1,1,1,0,0,0-1.1,1v6.7h-.5V62.9a1,1,0,1,0-2,0v4.6h-3.5V60.8a1,1,0,0,0-1.1-1,1,1,0,0,0-1,1v6.7h-.5V58.7a1.1,1.1,0,0,0-1-1.1,1.1,1.1,0,0,0-1.1,1.1v8.8h-1.1a.5.5,0,0,1-.4-.2.4.4,0,0,1-.1-.3l1.2-11.8h17L359.1,67v.3l-.4.2h-2V58.7A1.1,1.1,0,0,0,355.5,57.6Zm-37-2.5a.9.9,0,0,1-.9-.9V41.5a4.3,4.3,0,0,0,.1-.5h.1a.8.8,0,0,1,.7-.4h7.7a.9.9,0,0,1,.7.3,1.4,1.4,0,0,1,.2.6v.3h0V54.2a.9.9,0,0,1-.9.9h-7.7Zm12.9-19a2.3,2.3,0,0,1,1.9,1,.9.9,0,0,0,1.1.3,2,2,0,0,1,1.3-.4,2.4,2.4,0,0,1,2.3,1.9.8.8,0,0,0,.5.5.9.9,0,0,0,.7,0,2,2,0,0,1,1.1-.3,2.4,2.4,0,0,1,2,1.2h-4v6.6a.8.8,0,0,1-.7.7.7.7,0,0,1-.7-.7V40.3h-1.6v1.5h0V43a.8.8,0,0,1-.7.7.7.7,0,0,1-.7-.6V40.3h-5.5a2.5,2.5,0,0,0-2.2-1.3h-1.6l.2-.3a2.5,2.5,0,0,1,2.3-1.7,2,2,0,0,1,1.3.4.7.7,0,0,0,1-.3A2.6,2.6,0,0,1,331.4,36.1Zm17.9-18.4a1.1,1.1,0,0,1,1.1,1.2v26h-2.2v-26A1.1,1.1,0,0,1,349.3,17.7Zm1.1,28.8h1.5a.7.7,0,0,1,.7.7v2.4h-6.5V47.2a.7.7,0,0,1,.7-.7h3.6Zm-21.7-3.4V41.9h3.6v1.3a2,2,0,0,0,.3,1.1,2.4,2.4,0,0,0,2.7.9v.2h-3.9l-.3-1.4a.9.9,0,0,0-1-.5.7.7,0,0,0-.5.9l.3,1h-1.2ZM342.6,45v.4h-2.7V41.9h3l-.3,3Zm-7.3,2.1a2.2,2.2,0,0,0,2.3,2.1,2.4,2.4,0,0,0,2.3-2.1h2.5v1.1a4.3,4.3,0,0,0-3,3.6v1.8a8,8,0,0,1-7.2-5.8l-.2-.7Zm22.4,6.5H340.9V52.2a.4.4,0,0,1,.1-.3,2.5,2.5,0,0,1,1.7-2.1l.8-.2h1v.8a.7.7,0,0,0,.8.8h8.1a.8.8,0,0,0,.8-.8v-.8h.9a2.6,2.6,0,0,1,2.6,2.6Zm-31.5,3.1a2.5,2.5,0,0,0,2.5-2.5V47.1h1.6l.3,1.1a9.5,9.5,0,0,0,8.6,6.9L338,66.8v.7H322.4a1.1,1.1,0,0,1-.9-.9l-.8-9.9Zm18.3-9.5V48H344V47h.4Z"/>
    <path class="cls-5" d="M322.7,23.4h.1V22h-.9V16.9h-2.2l-.4.4h-.3V18h-.2l-.4.4v.2l-.4.4v.2l-.4.4h-.1l-.4.5h-.2l-.4.4V21l-.4.4h-.1v.7h0v.7h4v.8h0v.2H322v-.2h0v-.6h.7Zm-2.8-2.7v.6h0v.2h-1.5l.4-.4h.1l.4-.4v-.2l.4-.4h.3Z"/>
  </g>
</svg>
