<?xml version="1.0" encoding="utf-8"?>
<!-- Generator: Adobe Illustrator 22.1.0, SVG Export Plug-In . SVG Version: 6.00 Build 0)  -->
<svg version="1.1" id="Layer_1" xmlns="http://www.w3.org/2000/svg" xmlns:xlink="http://www.w3.org/1999/xlink" x="0px" y="0px"
	 viewBox="0 0 374.5 89.4" style="enable-background:new 0 0 374.5 89.4;" xml:space="preserve">
<style type="text/css">
	.st0{fill:url(#Path-4_1_);}
	.st1{opacity:0.3;fill:#FFFFFF;enable-background:new    ;}
	.st2{fill:#FFFFFF;}
	.st3{font-family:'Montserrat-Medium';}
	.st4{font-size:16px;}
	.st5{enable-background:new    ;}
	.st6{clip-path:url(#SVGID_2_);}
	.st7{clip-path:url(#SVGID_4_);}
	.st8{clip-path:url(#SVGID_6_);}
	.st9{clip-path:url(#SVGID_8_);}
	.st10{clip-path:url(#SVGID_10_);}
	.st11{clip-path:url(#SVGID_12_);}
	.st12{clip-path:url(#SVGID_14_);}
	.st13{clip-path:url(#SVGID_16_);}
	.st14{clip-path:url(#SVGID_18_);}
	.st15{clip-path:url(#SVGID_20_);}
	.st16{clip-path:url(#SVGID_22_);}
	.st17{clip-path:url(#SVGID_24_);}
	.st18{clip-path:url(#SVGID_26_);}
	.st19{clip-path:url(#SVGID_28_);}
	.st20{clip-path:url(#SVGID_30_);}
	.st21{clip-path:url(#SVGID_32_);}
</style>
<title>banner_amc_platinum_1bhk</title>
<g id="Page-1">
	<g id="UI---Screen-7---v2">
		<g id="Group-2">
			
				<linearGradient id="Path-4_1_" gradientUnits="userSpaceOnUse" x1="405.5448" y1="-34.3726" x2="21.5247" y2="124.2573" gradientTransform="matrix(1 0 0 -1 0 92)">
				<stop  offset="0" style="stop-color:#75C9B9"/>
				<stop  offset="1" style="stop-color:#72BDE5"/>
			</linearGradient>
			<path id="Path-4" class="st0" d="M0,72.4C71,74,112,68.2,210.5,71c58.9,1.7,113.3,7.8,164,18.4V0H0V72.4z"/>
			<path id="Rectangle-Copy-2" class="st1" d="M26.8,22h40.4c1.8,0,3.3,1.5,3.3,3.3v0.4c0,1.8-1.5,3.3-3.3,3.3H26.8
				c-1.8,0-3.3-1.5-3.3-3.3v-0.4C23.5,23.5,25,22,26.8,22z"/>
			<path id="Rectangle-Copy-4" class="st1" d="M189.8,29h40.4c1.8,0,3.3,1.5,3.3,3.3v0.4c0,1.8-1.5,3.3-3.3,3.3h-40.4
				c-1.8,0-3.3-1.5-3.3-3.3v-0.4C186.5,30.5,188,29,189.8,29z"/>
			<path id="Rectangle-Copy-3" class="st1" d="M67.8,35h40.4c1.8,0,3.3,1.5,3.3,3.3v0.4c0,1.8-1.5,3.3-3.3,3.3H67.8
				c-1.8,0-3.3-1.5-3.3-3.3v-0.4C64.5,36.5,66,35,67.8,35z"/>
			<path id="Rectangle-Copy-5" class="st1" d="M236.8,42h40.4c1.8,0,3.3,1.5,3.3,3.3v0.4c0,1.8-1.5,3.3-3.3,3.3h-40.4
				c-1.8,0-3.3-1.5-3.3-3.3v-0.4C233.5,43.5,235,42,236.8,42z"/>
			<g id="sweep">
				<g id="_">
					<text transform="matrix(1 0 0 1 304.3 26)" class="st2 st3 st4">+</text>
				</g>
				<g id="_-copy">
					<text transform="matrix(1 0 0 1 336.5 14)" class="st2 st3 st4">+</text>
				</g>
			</g>
		</g>
	</g>
</g>
<g class="st5">
	<path class="st2" d="M324.3,73.3l2.8-6.8h1.6v6.8h1v1.6h-1v2.3h-1.6v-2.3h-2.8V73.3z M327.1,73.3v-3.3l-1.3,3.3H327.1z"/>
</g>
<g class="st5">
	<path class="st2" d="M332.2,76.7v-9.4c0-0.1,0-0.2,0.1-0.3c0.1-0.1,0.1-0.2,0.2-0.2c0.1-0.1,0.2-0.1,0.3-0.1h3.1
		c0.3,0,0.6,0.1,0.9,0.2c0.3,0.2,0.5,0.4,0.7,0.7c0.2,0.3,0.3,0.7,0.3,1l0,1.1c0,0.2,0,0.5-0.1,0.7c-0.1,0.3-0.2,0.5-0.3,0.7
		c-0.2,0.2-0.4,0.4-0.7,0.4c0.5,0.1,0.8,0.3,1,0.7c0.2,0.4,0.4,0.9,0.4,1.5l0,1c0,0.4-0.1,0.7-0.2,1c-0.1,0.3-0.3,0.5-0.5,0.7
		c-0.2,0.2-0.4,0.3-0.6,0.4c-0.3,0.1-0.6,0.2-0.8,0.2h-3.5c-0.1,0-0.2,0-0.2-0.1c-0.1,0-0.1-0.1-0.2-0.2
		C332.2,76.9,332.2,76.8,332.2,76.7z M335.1,71c0.1,0,0.3,0,0.4-0.1c0.1-0.1,0.2-0.2,0.3-0.4c0.1-0.2,0.1-0.4,0.1-0.6l0-0.7
		c0-0.4-0.1-0.6-0.2-0.8c-0.2-0.2-0.4-0.3-0.7-0.3h-0.8c-0.1,0-0.1,0-0.2,0.1s-0.1,0.1-0.1,0.2l0,2.5c0,0.1,0.1,0.1,0.2,0.1
		L335.1,71z M335.3,75.8c0.3-0.1,0.5-0.2,0.7-0.4c0.1-0.2,0.2-0.5,0.2-0.8l0-0.8c0-0.3,0-0.5-0.1-0.7c-0.1-0.2-0.2-0.3-0.4-0.4
		c-0.2-0.1-0.4-0.1-0.6-0.1h-0.9c-0.1,0-0.1,0-0.2,0.1s-0.1,0.1-0.1,0.2l0,2.7c0,0.1,0,0.1,0.1,0.1s0.1,0,0.2,0H335.3z"/>
	<path class="st2" d="M339.3,76.8v-9.7c0-0.1,0-0.1,0.1-0.2c0-0.1,0.1-0.1,0.1-0.1c0.1,0,0.1-0.1,0.2-0.1h1.1c0.1,0,0.2,0,0.3,0.1
		s0.1,0.2,0.1,0.3v3.7l2.8,0v-3.7c0-0.1,0-0.1,0.1-0.2c0-0.1,0.1-0.1,0.2-0.1c0.1,0,0.1-0.1,0.2-0.1h1.1c0.1,0,0.1,0,0.2,0.1
		c0.1,0,0.1,0.1,0.2,0.1c0,0.1,0.1,0.1,0.1,0.2v9.7c0,0.1,0,0.1-0.1,0.2c0,0.1-0.1,0.1-0.2,0.1c-0.1,0-0.1,0.1-0.2,0.1h-1.1
		c-0.1,0-0.1,0-0.2-0.1c-0.1,0-0.1-0.1-0.2-0.1c0-0.1-0.1-0.1-0.1-0.2v-4.2l-2.8,0v4.2c0,0.1,0,0.1-0.1,0.2c0,0.1-0.1,0.1-0.1,0.1
		c-0.1,0-0.1,0.1-0.2,0.1h-1.1c-0.1,0-0.1,0-0.2-0.1c-0.1,0-0.1-0.1-0.1-0.1C339.4,76.9,339.3,76.9,339.3,76.8z"/>
	<path class="st2" d="M347.3,76.9v-9.8c0-0.1,0-0.1,0.1-0.2c0-0.1,0.1-0.1,0.1-0.1c0.1,0,0.1-0.1,0.2-0.1h1.1c0.1,0,0.1,0,0.2,0.1
		s0.1,0.1,0.1,0.1c0,0.1,0,0.1,0,0.2v2.8L351,67c0.1-0.1,0.1-0.1,0.2-0.2c0.1-0.1,0.2-0.1,0.2-0.1l1.1,0c0.1,0,0.2,0,0.3,0.1
		c0.1,0,0.1,0.1,0.2,0.2c0,0.1,0.1,0.1,0.1,0.2c0,0.1,0,0.2-0.1,0.2l-2.6,4l3.3,5.1c0,0.1,0.1,0.2,0.1,0.3c0,0.1,0,0.2-0.1,0.2
		s-0.1,0.1-0.2,0.2s-0.2,0.1-0.2,0.1h-1.3c-0.1,0-0.2,0-0.2-0.1c-0.1,0-0.1-0.1-0.2-0.2l-2.5-3.9v3.9c0,0.1,0,0.1,0,0.2
		c0,0.1-0.1,0.1-0.1,0.1s-0.1,0.1-0.2,0.1h-1.1c-0.1,0-0.1,0-0.2-0.1c-0.1,0-0.1-0.1-0.1-0.1C347.3,77,347.3,76.9,347.3,76.9z"/>
</g>
<g>
	<g>
		<path class="st2" d="M338.3,21.1c-10,0.1-18.1,8.2-18,18.2s8.2,18.1,18.2,18c10-0.1,18-8.1,18-18.1c0-10-8.1-18.1-18.1-18.1
			C338.4,21.1,338.3,21.1,338.3,21.1z M338.3,56.3c-9.4-0.1-17.1-7.8-17-17.2s7.8-17.1,17.2-17c9.4,0.1,17,7.7,17,17.1
			c0,9.4-7.7,17.1-17.1,17.1C338.4,56.3,338.3,56.3,338.3,56.3z"/>
		<g>
			<defs>
				<path id="SVGID_1_" d="M338.3,21.1c-10,0.1-18.1,8.2-18,18.2s8.2,18.1,18.2,18c10-0.1,18-8.1,18-18.1c0-10-8.1-18.1-18.1-18.1
					C338.4,21.1,338.3,21.1,338.3,21.1z M338.3,56.3c-9.4-0.1-17.1-7.8-17-17.2s7.8-17.1,17.2-17c9.4,0.1,17,7.7,17,17.1
					c0,9.4-7.7,17.1-17.1,17.1C338.4,56.3,338.3,56.3,338.3,56.3z"/>
			</defs>
			<clipPath id="SVGID_2_">
				<use xlink:href="#SVGID_1_"  style="overflow:visible;"/>
			</clipPath>
			<g class="st6">
				<polygon class="st2" points="355.2,56.3 355.5,56.2 355.5,56.3 				"/>
				<polygon class="st2" points="352.7,56.3 355.5,55.2 355.5,56.2 355.2,56.3 				"/>
				<polygon class="st2" points="350.1,56.3 355.5,54.1 355.5,55.2 352.7,56.3 				"/>
				<polygon class="st2" points="347.5,56.3 355.5,53 355.5,54.1 350.1,56.3 				"/>
				<polygon class="st2" points="345,56.3 355.5,52 355.5,53 347.5,56.3 				"/>
				<polygon class="st2" points="342.4,56.3 355.5,50.9 355.5,52 345,56.3 				"/>
				<polygon class="st2" points="339.9,56.3 355.5,49.8 355.5,50.9 342.4,56.3 				"/>
				<polygon class="st2" points="337.3,56.3 355.5,48.8 355.5,49.8 339.9,56.3 				"/>
				<polygon class="st2" points="334.7,56.3 355.5,47.7 355.5,48.8 337.3,56.3 				"/>
				<polygon class="st2" points="332.2,56.3 355.5,46.6 355.5,47.7 334.7,56.3 				"/>
				<polygon class="st2" points="329.6,56.3 355.5,45.6 355.5,46.6 332.2,56.3 				"/>
				<polygon class="st2" points="327,56.3 355.5,44.5 355.5,45.6 329.6,56.3 				"/>
				<polygon class="st2" points="324.5,56.3 355.5,43.5 355.5,44.5 327,56.3 				"/>
				<polygon class="st2" points="322.2,56.3 322.2,56.2 355.5,42.4 355.5,43.5 324.5,56.3 				"/>
				<polygon class="st2" points="322.2,56.2 321.8,55.3 355.5,41.3 355.5,42.4 				"/>
				<polygon class="st2" points="321.8,55.3 321.4,54.4 355.5,40.3 355.5,41.3 				"/>
				<polygon class="st2" points="321.4,54.4 321.2,53.9 321.2,53.4 355.5,39.2 355.5,40.3 				"/>
				<polygon class="st2" points="321.2,52.4 355.5,38.1 355.5,39.2 321.2,53.4 				"/>
				<polygon class="st2" points="321.2,51.3 355.5,37.1 355.5,38.1 321.2,52.4 				"/>
				<polygon class="st2" points="321.2,50.2 355.5,36 355.5,37.1 321.2,51.3 				"/>
				<polygon class="st2" points="321.2,49.2 355.5,34.9 355.5,36 321.2,50.2 				"/>
				<polygon class="st2" points="321.2,48.1 355.5,33.9 355.5,34.9 321.2,49.2 				"/>
				<polygon class="st2" points="321.2,47 355.5,32.8 355.5,33.9 321.2,48.1 				"/>
				<polygon class="st2" points="321.2,46 355.5,31.7 355.5,32.8 321.2,47 				"/>
				<polygon class="st2" points="321.2,44.9 355.5,30.7 355.5,31.7 321.2,46 				"/>
				<polygon class="st2" points="321.2,43.9 355.5,29.6 355.5,30.7 321.2,44.9 				"/>
				<polygon class="st2" points="321.2,42.8 355.5,28.5 355.5,29.6 321.2,43.9 				"/>
				<polygon class="st2" points="321.2,41.7 355.5,27.5 355.5,28.5 321.2,42.8 				"/>
				<polygon class="st2" points="321.2,40.7 355.5,26.4 355.5,27.5 321.2,41.7 				"/>
				<polygon class="st2" points="321.2,39.6 355.5,25.3 355.5,26.4 321.2,40.7 				"/>
				<polygon class="st2" points="321.2,38.5 355.4,24.3 355.5,24.5 355.5,25.3 321.2,39.6 				"/>
				<polygon class="st2" points="321.2,37.5 355,23.4 355.4,24.3 321.2,38.5 				"/>
				<polygon class="st2" points="321.2,36.4 354.6,22.5 355,23.4 321.2,37.5 				"/>
				<polygon class="st2" points="321.2,35.3 353.1,22.1 354.5,22.1 354.6,22.5 321.2,36.4 				"/>
				<polygon class="st2" points="321.2,34.3 350.5,22.1 353.1,22.1 321.2,35.3 				"/>
				<polygon class="st2" points="321.2,33.2 348,22.1 350.5,22.1 321.2,34.3 				"/>
				<polygon class="st2" points="321.2,32.1 345.4,22.1 348,22.1 321.2,33.2 				"/>
				<polygon class="st2" points="321.2,31.1 342.8,22.1 345.4,22.1 321.2,32.1 				"/>
				<polygon class="st2" points="321.2,30 340.3,22.1 342.8,22.1 321.2,31.1 				"/>
				<polygon class="st2" points="321.2,28.9 337.7,22.1 340.3,22.1 321.2,30 				"/>
				<polygon class="st2" points="321.2,27.9 335.1,22.1 337.7,22.1 321.2,28.9 				"/>
				<polygon class="st2" points="321.2,26.8 332.6,22.1 335.1,22.1 321.2,27.9 				"/>
				<polygon class="st2" points="321.2,25.7 330,22.1 332.6,22.1 321.2,26.8 				"/>
				<polygon class="st2" points="321.2,24.7 327.5,22.1 330,22.1 321.2,25.7 				"/>
				<polygon class="st2" points="321.2,23.6 324.9,22.1 327.5,22.1 321.2,24.7 				"/>
				<polygon class="st2" points="321.2,22.5 322.3,22.1 324.9,22.1 321.2,23.6 				"/>
				<polygon class="st2" points="322.3,22.1 321.2,22.5 321.2,22.1 				"/>
				<polygon class="st2" points="355.4,57.3 356.5,56.9 356.5,57.3 				"/>
				<polygon class="st2" points="352.8,57.3 356.5,55.8 356.5,56.9 355.4,57.3 				"/>
				<polygon class="st2" points="350.3,57.3 356.5,54.8 356.5,55.8 352.8,57.3 				"/>
				<polygon class="st2" points="347.7,57.3 356.5,53.7 356.5,54.8 350.3,57.3 				"/>
				<polygon class="st2" points="345.1,57.3 356.5,52.6 356.5,53.7 347.7,57.3 				"/>
				<polygon class="st2" points="342.6,57.3 356.5,51.6 356.5,52.6 345.1,57.3 				"/>
				<polygon class="st2" points="340,57.3 356.5,50.5 356.5,51.6 342.6,57.3 				"/>
				<polygon class="st2" points="337.5,57.3 356.5,49.4 356.5,50.5 340,57.3 				"/>
				<polygon class="st2" points="334.9,57.3 356.5,48.4 356.5,49.4 337.5,57.3 				"/>
				<polygon class="st2" points="332.3,57.3 356.5,47.3 356.5,48.4 334.9,57.3 				"/>
				<polygon class="st2" points="329.8,57.3 356.5,46.2 356.5,47.3 332.3,57.3 				"/>
				<polygon class="st2" points="327.2,57.3 356.5,45.2 356.5,46.2 329.8,57.3 				"/>
				<polygon class="st2" points="324.6,57.3 356.5,44.1 356.5,45.2 327.2,57.3 				"/>
				<polygon class="st2" points="322.1,57.3 356.5,43 356.5,44.1 324.6,57.3 				"/>
				<polygon class="st2" points="321.4,57.3 321.1,56.7 356.5,42 356.5,43 322.1,57.3 				"/>
				<polygon class="st2" points="321.1,56.7 320.8,55.8 356.5,40.9 356.5,42 				"/>
				<polygon class="st2" points="320.8,55.8 320.4,54.9 356.5,39.8 356.5,40.9 				"/>
				<polygon class="st2" points="320.4,54.9 320.2,54.4 320.2,53.9 356.5,38.8 356.5,39.8 				"/>
				<polygon class="st2" points="320.2,52.8 356.5,37.7 356.5,38.8 320.2,53.9 				"/>
				<polygon class="st2" points="320.2,51.7 356.5,36.6 356.5,37.7 320.2,52.8 				"/>
				<polygon class="st2" points="320.2,50.7 356.5,35.6 356.5,36.6 320.2,51.7 				"/>
				<polygon class="st2" points="320.2,49.6 356.5,34.5 356.5,35.6 320.2,50.7 				"/>
				<polygon class="st2" points="320.2,48.5 356.5,33.4 356.5,34.5 320.2,49.6 				"/>
				<polygon class="st2" points="320.2,47.5 356.5,32.4 356.5,33.4 320.2,48.5 				"/>
				<polygon class="st2" points="320.2,46.4 356.5,31.3 356.5,32.4 320.2,47.5 				"/>
				<polygon class="st2" points="320.2,45.3 356.5,30.2 356.5,31.3 320.2,46.4 				"/>
				<polygon class="st2" points="320.2,44.3 356.5,29.2 356.5,30.2 320.2,45.3 				"/>
				<polygon class="st2" points="320.2,43.2 356.5,28.1 356.5,29.2 320.2,44.3 				"/>
				<polygon class="st2" points="320.2,42.1 356.5,27 356.5,28.1 320.2,43.2 				"/>
				<polygon class="st2" points="320.2,41.1 356.5,26 356.5,27 320.2,42.1 				"/>
				<polygon class="st2" points="320.2,40 356.5,24.9 356.5,26 320.2,41.1 				"/>
				<polygon class="st2" points="320.2,38.9 356.4,23.9 356.5,24 356.5,24.9 320.2,40 				"/>
				<polygon class="st2" points="320.2,37.9 356.1,23 356.4,23.9 320.2,38.9 				"/>
				<polygon class="st2" points="320.2,36.8 355.7,22.1 356.1,23 320.2,37.9 				"/>
				<polygon class="st2" points="320.2,35.7 355.3,21.1 355.7,22.1 320.2,36.8 				"/>
				<polygon class="st2" points="320.2,34.7 352.9,21.1 355.3,21.1 355.3,21.1 320.2,35.7 				"/>
				<polygon class="st2" points="320.2,33.6 350.4,21.1 352.9,21.1 320.2,34.7 				"/>
				<polygon class="st2" points="320.2,32.5 347.8,21.1 350.4,21.1 320.2,33.6 				"/>
				<polygon class="st2" points="320.2,31.5 345.2,21.1 347.8,21.1 320.2,32.5 				"/>
				<polygon class="st2" points="320.2,30.4 342.7,21.1 345.2,21.1 320.2,31.5 				"/>
				<polygon class="st2" points="320.2,29.3 340.1,21.1 342.7,21.1 320.2,30.4 				"/>
				<polygon class="st2" points="320.2,28.3 337.6,21.1 340.1,21.1 320.2,29.3 				"/>
				<polygon class="st2" points="320.2,27.2 335,21.1 337.6,21.1 320.2,28.3 				"/>
				<polygon class="st2" points="320.2,26.2 332.4,21.1 335,21.1 320.2,27.2 				"/>
				<polygon class="st2" points="320.2,25.1 329.9,21.1 332.4,21.1 320.2,26.2 				"/>
				<polygon class="st2" points="320.2,24 327.3,21.1 329.9,21.1 320.2,25.1 				"/>
				<polygon class="st2" points="320.2,23 324.7,21.1 327.3,21.1 320.2,24 				"/>
				<polygon class="st2" points="320.2,21.9 322.2,21.1 324.7,21.1 320.2,23 				"/>
				<polygon class="st2" points="322.2,21.1 320.2,21.9 320.2,21.1 				"/>
			</g>
		</g>
	</g>
	<g>
		<path class="st2" d="M338.3,19.5c-10.9,0.1-19.7,8.9-19.6,19.8c0.1,10.9,8.9,19.7,19.8,19.6c10.8-0.1,19.6-8.9,19.6-19.7
			c0-10.9-8.8-19.7-19.7-19.7C338.4,19.5,338.3,19.5,338.3,19.5z M338.3,58.5c-10.7,0-19.3-8.6-19.3-19.3s8.6-19.3,19.3-19.3
			c10.7,0,19.3,8.6,19.3,19.3c0,0,0,0,0,0c0.1,10.6-8.5,19.2-19.1,19.3C338.4,58.5,338.4,58.5,338.3,58.5z"/>
		<g>
			<defs>
				<path id="SVGID_3_" d="M338.3,19.5c-10.9,0.1-19.7,8.9-19.6,19.8c0.1,10.9,8.9,19.7,19.8,19.6c10.8-0.1,19.6-8.9,19.6-19.7
					c0-10.9-8.8-19.7-19.7-19.7C338.4,19.5,338.3,19.5,338.3,19.5z M338.3,58.5c-10.7,0-19.3-8.6-19.3-19.3s8.6-19.3,19.3-19.3
					c10.7,0,19.3,8.6,19.3,19.3c0,0,0,0,0,0c0.1,10.6-8.5,19.2-19.1,19.3C338.4,58.5,338.4,58.5,338.3,58.5z"/>
			</defs>
			<clipPath id="SVGID_4_">
				<use xlink:href="#SVGID_3_"  style="overflow:visible;"/>
			</clipPath>
			<g class="st7">
				<polygon class="st2" points="355.2,58.5 357.6,57.5 357.6,58.5 				"/>
				<polygon class="st2" points="352.6,58.5 357.6,56.4 357.6,57.5 355.2,58.5 				"/>
				<polygon class="st2" points="350.1,58.5 357.6,55.3 357.6,56.4 352.6,58.5 				"/>
				<polygon class="st2" points="347.5,58.5 357.6,54.3 357.6,55.3 350.1,58.5 				"/>
				<polygon class="st2" points="344.9,58.5 357.6,53.2 357.6,54.3 347.5,58.5 				"/>
				<polygon class="st2" points="342.4,58.5 357.6,52.1 357.6,53.2 344.9,58.5 				"/>
				<polygon class="st2" points="339.8,58.5 357.6,51.1 357.6,52.1 342.4,58.5 				"/>
				<polygon class="st2" points="337.3,58.5 357.6,50 357.6,51.1 339.8,58.5 				"/>
				<polygon class="st2" points="334.7,58.5 357.6,49 357.6,50 337.3,58.5 				"/>
				<polygon class="st2" points="332.1,58.5 357.6,47.9 357.6,49 334.7,58.5 				"/>
				<polygon class="st2" points="329.6,58.5 357.6,46.8 357.6,47.9 332.1,58.5 				"/>
				<polygon class="st2" points="327,58.5 357.6,45.8 357.6,46.8 329.6,58.5 				"/>
				<polygon class="st2" points="324.4,58.5 357.6,44.7 357.6,45.8 327,58.5 				"/>
				<polygon class="st2" points="321.9,58.5 357.6,43.6 357.6,44.7 324.4,58.5 				"/>
				<polygon class="st2" points="320.5,58.5 320.3,58.1 357.6,42.6 357.6,43.6 321.9,58.5 				"/>
				<polygon class="st2" points="320.3,58.1 319.9,57.2 357.6,41.5 357.6,42.6 				"/>
				<polygon class="st2" points="319.9,57.2 319.6,56.3 357.6,40.4 357.6,41.5 				"/>
				<polygon class="st2" points="319.6,56.3 319.2,55.4 357.6,39.4 357.6,40.4 				"/>
				<polygon class="st2" points="319.2,55.4 319.1,55.1 319.1,54.3 357.6,38.3 357.6,39.4 				"/>
				<polygon class="st2" points="319.1,53.3 357.6,37.2 357.6,38.3 319.1,54.3 				"/>
				<polygon class="st2" points="319.1,52.2 357.6,36.2 357.6,37.2 319.1,53.3 				"/>
				<polygon class="st2" points="319.1,51.1 357.6,35.1 357.6,36.2 319.1,52.2 				"/>
				<polygon class="st2" points="319.1,50.1 357.6,34 357.6,35.1 319.1,51.1 				"/>
				<polygon class="st2" points="319.1,49 357.6,33 357.6,34 319.1,50.1 				"/>
				<polygon class="st2" points="319.1,47.9 357.6,31.9 357.6,33 319.1,49 				"/>
				<polygon class="st2" points="319.1,46.9 357.6,30.8 357.6,31.9 319.1,47.9 				"/>
				<polygon class="st2" points="319.1,45.8 357.6,29.8 357.6,30.8 319.1,46.9 				"/>
				<polygon class="st2" points="319.1,44.7 357.6,28.7 357.6,29.8 319.1,45.8 				"/>
				<polygon class="st2" points="319.1,43.7 357.6,27.6 357.6,28.7 319.1,44.7 				"/>
				<polygon class="st2" points="319.1,42.6 357.6,26.6 357.6,27.6 319.1,43.7 				"/>
				<polygon class="st2" points="319.1,41.5 357.6,25.5 357.6,26.6 319.1,42.6 				"/>
				<polygon class="st2" points="319.1,40.5 357.6,24.4 357.6,25.5 319.1,41.5 				"/>
				<polygon class="st2" points="319.1,39.4 357.6,23.4 357.6,24.4 319.1,40.5 				"/>
				<polygon class="st2" points="319.1,38.4 357.3,22.5 357.6,23.3 357.6,23.4 319.1,39.4 				"/>
				<polygon class="st2" points="319.1,37.3 356.9,21.6 357.3,22.5 319.1,38.4 				"/>
				<polygon class="st2" points="319.1,36.2 356.5,20.6 356.9,21.6 319.1,37.3 				"/>
				<polygon class="st2" points="319.1,35.2 355.7,19.9 356.2,19.9 356.5,20.6 319.1,36.2 				"/>
				<polygon class="st2" points="319.1,34.1 353.1,19.9 355.7,19.9 319.1,35.2 				"/>
				<polygon class="st2" points="319.1,33 350.6,19.9 353.1,19.9 319.1,34.1 				"/>
				<polygon class="st2" points="319.1,32 348,19.9 350.6,19.9 319.1,33 				"/>
				<polygon class="st2" points="319.1,30.9 345.4,19.9 348,19.9 319.1,32 				"/>
				<polygon class="st2" points="319.1,29.8 342.9,19.9 345.4,19.9 319.1,30.9 				"/>
				<polygon class="st2" points="319.1,28.8 340.3,19.9 342.9,19.9 319.1,29.8 				"/>
				<polygon class="st2" points="319.1,27.7 337.7,19.9 340.3,19.9 319.1,28.8 				"/>
				<polygon class="st2" points="319.1,26.6 335.2,19.9 337.7,19.9 319.1,27.7 				"/>
				<polygon class="st2" points="319.1,25.6 332.6,19.9 335.2,19.9 319.1,26.6 				"/>
				<polygon class="st2" points="319.1,24.5 330.1,19.9 332.6,19.9 319.1,25.6 				"/>
				<polygon class="st2" points="319.1,23.4 327.5,19.9 330.1,19.9 319.1,24.5 				"/>
				<polygon class="st2" points="319.1,22.4 324.9,19.9 327.5,19.9 319.1,23.4 				"/>
				<polygon class="st2" points="319.1,21.3 322.4,19.9 324.9,19.9 319.1,22.4 				"/>
				<polygon class="st2" points="319.1,20.2 319.8,19.9 322.4,19.9 319.1,21.3 				"/>
				<polygon class="st2" points="319.8,19.9 319.1,20.2 319.1,19.9 				"/>
				<polygon class="st2" points="356.7,58.9 358.1,58.4 358.1,58.9 				"/>
				<polygon class="st2" points="354.1,58.9 358.1,57.3 358.1,58.4 356.7,58.9 				"/>
				<polygon class="st2" points="351.6,58.9 358.1,56.2 358.1,57.3 354.1,58.9 				"/>
				<polygon class="st2" points="349,58.9 358.1,55.2 358.1,56.2 351.6,58.9 				"/>
				<polygon class="st2" points="346.5,58.9 358.1,54.1 358.1,55.2 349,58.9 				"/>
				<polygon class="st2" points="343.9,58.9 358.1,53 358.1,54.1 346.5,58.9 				"/>
				<polygon class="st2" points="341.3,58.9 358.1,52 358.1,53 343.9,58.9 				"/>
				<polygon class="st2" points="338.8,58.9 358.1,50.9 358.1,52 341.3,58.9 				"/>
				<polygon class="st2" points="336.2,58.9 358.1,49.8 358.1,50.9 338.8,58.9 				"/>
				<polygon class="st2" points="333.6,58.9 358.1,48.8 358.1,49.8 336.2,58.9 				"/>
				<polygon class="st2" points="331.1,58.9 358.1,47.7 358.1,48.8 333.6,58.9 				"/>
				<polygon class="st2" points="328.5,58.9 358.1,46.6 358.1,47.7 331.1,58.9 				"/>
				<polygon class="st2" points="326,58.9 358.1,45.6 358.1,46.6 328.5,58.9 				"/>
				<polygon class="st2" points="323.4,58.9 358.1,44.5 358.1,45.6 326,58.9 				"/>
				<polygon class="st2" points="320.8,58.9 358.1,43.4 358.1,44.5 323.4,58.9 				"/>
				<polygon class="st2" points="320.1,58.9 319.9,58.3 358.1,42.4 358.1,43.4 320.8,58.9 				"/>
				<polygon class="st2" points="319.9,58.3 319.5,57.4 358.1,41.3 358.1,42.4 				"/>
				<polygon class="st2" points="319.5,57.4 319.1,56.5 358.1,40.2 358.1,41.3 				"/>
				<polygon class="st2" points="319.1,56.5 318.7,55.5 358.1,39.2 358.1,40.2 				"/>
				<polygon class="st2" points="318.7,55.5 318.6,55.3 318.6,54.5 358.1,38.1 358.1,39.2 				"/>
				<polygon class="st2" points="318.6,53.5 358.1,37 358.1,38.1 318.6,54.5 				"/>
				<polygon class="st2" points="318.6,52.4 358.1,36 358.1,37 318.6,53.5 				"/>
				<polygon class="st2" points="318.6,51.3 358.1,34.9 358.1,36 318.6,52.4 				"/>
				<polygon class="st2" points="318.6,50.3 358.1,33.9 358.1,34.9 318.6,51.3 				"/>
				<polygon class="st2" points="318.6,49.2 358.1,32.8 358.1,33.9 318.6,50.3 				"/>
				<polygon class="st2" points="318.6,48.1 358.1,31.7 358.1,32.8 318.6,49.2 				"/>
				<polygon class="st2" points="318.6,47.1 358.1,30.7 358.1,31.7 318.6,48.1 				"/>
				<polygon class="st2" points="318.6,46 358.1,29.6 358.1,30.7 318.6,47.1 				"/>
				<polygon class="st2" points="318.6,44.9 358.1,28.5 358.1,29.6 318.6,46 				"/>
				<polygon class="st2" points="318.6,43.9 358.1,27.5 358.1,28.5 318.6,44.9 				"/>
				<polygon class="st2" points="318.6,42.8 358.1,26.4 358.1,27.5 318.6,43.9 				"/>
				<polygon class="st2" points="318.6,41.7 358.1,25.3 358.1,26.4 318.6,42.8 				"/>
				<polygon class="st2" points="318.6,40.7 358.1,24.3 358.1,25.3 318.6,41.7 				"/>
				<polygon class="st2" points="318.6,39.6 358.1,23.2 358.1,24.3 318.6,40.7 				"/>
				<polygon class="st2" points="318.6,38.5 357.7,22.3 358.1,23.1 358.1,23.2 318.6,39.6 				"/>
				<polygon class="st2" points="318.6,37.5 357.3,21.4 357.7,22.3 318.6,38.5 				"/>
				<polygon class="st2" points="318.6,36.4 357,20.5 357.3,21.4 318.6,37.5 				"/>
				<polygon class="st2" points="318.6,35.3 356.6,19.5 357,20.5 318.6,36.4 				"/>
				<polygon class="st2" points="318.6,34.3 354.2,19.5 356.6,19.5 356.6,19.5 318.6,35.3 				"/>
				<polygon class="st2" points="318.6,33.2 351.6,19.5 354.2,19.5 318.6,34.3 				"/>
				<polygon class="st2" points="318.6,32.1 349,19.5 351.6,19.5 318.6,33.2 				"/>
				<polygon class="st2" points="318.6,31.1 346.5,19.5 349,19.5 318.6,32.1 				"/>
				<polygon class="st2" points="318.6,30 343.9,19.5 346.5,19.5 318.6,31.1 				"/>
				<polygon class="st2" points="318.6,28.9 341.4,19.5 343.9,19.5 318.6,30 				"/>
				<polygon class="st2" points="318.6,27.9 338.8,19.5 341.4,19.5 318.6,28.9 				"/>
				<polygon class="st2" points="318.6,26.8 336.2,19.5 338.8,19.5 318.6,27.9 				"/>
				<polygon class="st2" points="318.6,25.7 333.7,19.5 336.2,19.5 318.6,26.8 				"/>
				<polygon class="st2" points="318.6,24.7 331.1,19.5 333.7,19.5 318.6,25.7 				"/>
				<polygon class="st2" points="318.6,23.6 328.6,19.5 331.1,19.5 318.6,24.7 				"/>
				<polygon class="st2" points="318.6,22.5 326,19.5 328.6,19.5 318.6,23.6 				"/>
				<polygon class="st2" points="318.6,21.5 323.4,19.5 326,19.5 318.6,22.5 				"/>
				<polygon class="st2" points="318.6,20.4 320.9,19.5 323.4,19.5 318.6,21.5 				"/>
				<polygon class="st2" points="320.9,19.5 318.6,20.4 318.6,19.5 				"/>
			</g>
		</g>
	</g>
	<g>
		<polygon class="st2" points="335.7,27.9 340.9,27.9 340.9,27.1 340.8,27.1 340.8,27 335.6,27 335.6,27.8 335.7,27.8 		"/>
		<g>
			<defs>
				<polygon id="SVGID_5_" points="335.7,27.9 340.9,27.9 340.9,27.1 340.8,27.1 340.8,27 335.6,27 335.6,27.8 335.7,27.8 				"/>
			</defs>
			<clipPath id="SVGID_6_">
				<use xlink:href="#SVGID_5_"  style="overflow:visible;"/>
			</clipPath>
			<g class="st8">
				<polygon class="st2" points="339,27.9 340.9,27.1 340.9,27.9 				"/>
				<polygon class="st2" points="336.4,27.9 338.7,27 340.9,27 340.9,27.1 339,27.9 				"/>
				<polygon class="st2" points="335.6,27.2 336.2,27 338.7,27 336.4,27.9 335.6,27.9 				"/>
				<polygon class="st2" points="336.2,27 335.6,27.2 335.6,27 				"/>
			</g>
		</g>
	</g>
	<g>
		<polygon class="st2" points="335.7,26.8 340.9,26.8 340.9,23.7 340.8,23.7 340.8,23.6 339.5,25.1 338.2,23.6 336.9,25.1 
			335.6,23.6 335.6,26.7 335.7,26.7 		"/>
		<g>
			<defs>
				<polygon id="SVGID_7_" points="335.7,26.8 340.9,26.8 340.9,23.7 340.8,23.7 340.8,23.6 339.5,25.1 338.2,23.6 336.9,25.1 
					335.6,23.6 335.6,26.7 335.7,26.7 				"/>
			</defs>
			<clipPath id="SVGID_8_">
				<use xlink:href="#SVGID_7_"  style="overflow:visible;"/>
			</clipPath>
			<g class="st9">
				<polygon class="st2" points="339.2,26.8 340.9,26.1 340.9,26.8 				"/>
				<polygon class="st2" points="336.6,26.8 340.9,25 340.9,26.1 339.2,26.8 				"/>
				<polygon class="st2" points="335.6,26.1 340.9,23.9 340.9,25 336.6,26.8 335.6,26.8 				"/>
				<polygon class="st2" points="335.6,25.1 339.3,23.6 340.9,23.6 340.9,23.9 335.6,26.1 				"/>
				<polygon class="st2" points="335.6,24 336.7,23.6 339.3,23.6 335.6,25.1 				"/>
				<polygon class="st2" points="336.7,23.6 335.6,24 335.6,23.6 				"/>
			</g>
		</g>
	</g>
	<g>
		<polygon class="st2" points="335.1,51.9 335.2,51.8 334.4,51.8 334,51.2 333.8,51.9 333,52.2 333.2,52.3 333.1,52.3 333.7,52.7 
			333.7,53.4 333.8,53.4 333.8,53.5 334.4,53.1 335.1,53.3 334.8,52.5 335.3,51.9 		"/>
		<g>
			<defs>
				<polygon id="SVGID_9_" points="335.1,51.9 335.2,51.8 334.4,51.8 334,51.2 333.8,51.9 333,52.2 333.2,52.3 333.1,52.3 
					333.7,52.7 333.7,53.4 333.8,53.4 333.8,53.5 334.4,53.1 335.1,53.3 334.8,52.5 335.3,51.9 				"/>
			</defs>
			<clipPath id="SVGID_10_">
				<use xlink:href="#SVGID_9_"  style="overflow:visible;"/>
			</clipPath>
			<g class="st10">
				<polygon class="st2" points="333.8,53.5 335.3,52.9 335.3,53.5 				"/>
				<polygon class="st2" points="333,52.8 335.3,51.8 335.3,52.9 333.8,53.5 333,53.5 				"/>
				<polygon class="st2" points="333,51.7 334.3,51.2 335.3,51.2 335.3,51.8 333,52.8 				"/>
				<polygon class="st2" points="334.3,51.2 333,51.7 333,51.2 				"/>
			</g>
		</g>
	</g>
	<g>
		<polygon class="st2" points="339.6,53.5 339.6,53.5 339.6,53.5 339,52.9 339.2,52.1 339.1,52.1 339.1,51.9 338.3,52.4 337.5,51.9 
			337.7,52.9 337,53.5 337.2,53.5 337.1,53.6 338,53.8 338,53.8 338,53.8 338.3,54.5 338.3,54.5 338.4,54.6 338.8,53.8 339.7,53.6 
			339.6,53.5 		"/>
		<g>
			<defs>
				<polygon id="SVGID_11_" points="339.6,53.5 339.6,53.5 339.6,53.5 339,52.9 339.2,52.1 339.1,52.1 339.1,51.9 338.3,52.4 
					337.5,51.9 337.7,52.9 337,53.5 337.2,53.5 337.1,53.6 338,53.8 338,53.8 338,53.8 338.3,54.5 338.3,54.5 338.4,54.6 
					338.8,53.8 339.7,53.6 339.6,53.5 				"/>
			</defs>
			<clipPath id="SVGID_12_">
				<use xlink:href="#SVGID_11_"  style="overflow:visible;"/>
			</clipPath>
			<g class="st11">
				<polygon class="st2" points="339,54.6 339.7,54.3 339.7,54.6 				"/>
				<polygon class="st2" points="337,54.3 339.7,53.2 339.7,54.3 339,54.6 337,54.6 				"/>
				<polygon class="st2" points="337,53.3 339.7,52.1 339.7,53.2 337,54.3 				"/>
				<polygon class="st2" points="337,52.2 337.6,51.9 339.7,51.9 339.7,52.1 337,53.3 				"/>
				<polygon class="st2" points="337.6,51.9 337,52.2 337,51.9 				"/>
			</g>
		</g>
	</g>
	<g>
		<polygon class="st2" points="343.5,52.3 343.5,52.3 343.6,52.2 342.9,52 342.7,51.3 342.7,51.3 342.7,51.2 342.2,51.8 341.4,51.8 
			341.5,51.9 341.5,51.9 341.8,52.4 341.6,53.2 341.7,53.1 341.7,53.1 341.7,53.1 341.6,53.3 342.4,53.1 343,53.5 343,52.8 
			343.7,52.3 343.5,52.3 		"/>
		<g>
			<defs>
				<polygon id="SVGID_13_" points="343.5,52.3 343.5,52.3 343.6,52.2 342.9,52 342.7,51.3 342.7,51.3 342.7,51.2 342.2,51.8 
					341.4,51.8 341.5,51.9 341.5,51.9 341.8,52.4 341.6,53.2 341.7,53.1 341.7,53.1 341.7,53.1 341.6,53.3 342.4,53.1 343,53.5 
					343,52.8 343.7,52.3 343.5,52.3 				"/>
			</defs>
			<clipPath id="SVGID_14_">
				<use xlink:href="#SVGID_13_"  style="overflow:visible;"/>
			</clipPath>
			<g class="st12">
				<polygon class="st2" points="341.5,53.5 343.7,52.6 343.7,53.5 				"/>
				<polygon class="st2" points="341.4,52.5 343.7,51.6 343.7,52.6 341.5,53.5 341.4,53.5 				"/>
				<polygon class="st2" points="341.4,51.4 342,51.2 343.7,51.2 343.7,51.6 341.4,52.5 				"/>
				<polygon class="st2" points="342,51.2 341.4,51.4 341.4,51.2 				"/>
			</g>
		</g>
	</g>
	<g>
		<path class="st2" d="M331.2,29.9h0.2c0.8-1.3,1.9-2.4,3.2-3.1c0.1-0.1,0.1-0.2,0.1-0.3h-0.1c0-0.1,0-0.1-0.1-0.1s-0.1,0-0.1,0.1
			c-1.4,0.8-2.5,1.9-3.3,3.3h0.1L331.2,29.9z"/>
		<g>
			<defs>
				<path id="SVGID_15_" d="M331.2,29.9h0.2c0.8-1.3,1.9-2.4,3.2-3.1c0.1-0.1,0.1-0.2,0.1-0.3h-0.1c0-0.1,0-0.1-0.1-0.1
					s-0.1,0-0.1,0.1c-1.4,0.8-2.5,1.9-3.3,3.3h0.1L331.2,29.9z"/>
			</defs>
			<clipPath id="SVGID_16_">
				<use xlink:href="#SVGID_15_"  style="overflow:visible;"/>
			</clipPath>
			<g class="st13">
				<polygon class="st2" points="334.2,29.9 334.7,29.7 334.7,29.9 				"/>
				<polygon class="st2" points="331.6,29.9 334.7,28.6 334.7,29.7 334.2,29.9 				"/>
				<polygon class="st2" points="331.1,29.1 334.7,27.6 334.7,28.6 331.6,29.9 331.1,29.9 				"/>
				<polygon class="st2" points="331.1,28 334.7,26.5 334.7,27.6 331.1,29.1 				"/>
				<polygon class="st2" points="331.1,27 332.8,26.2 334.7,26.2 334.7,26.5 331.1,28 				"/>
				<polygon class="st2" points="332.8,26.2 331.1,27 331.1,26.2 				"/>
			</g>
		</g>
	</g>
	<g>
		<path class="st2" d="M342.2,26.7c1.4,0.7,2.5,1.8,3.2,3.1h0.2c0.1,0,0.1-0.1,0-0.2l0,0c-0.8-1.4-1.9-2.5-3.3-3.3
			c0-0.1,0-0.1-0.1-0.1s-0.1,0-0.1,0.1l0,0l0,0C342.1,26.6,342.2,26.6,342.2,26.7z"/>
		<g>
			<defs>
				<path id="SVGID_17_" d="M342.2,26.7c1.4,0.7,2.5,1.8,3.2,3.1h0.2c0.1,0,0.1-0.1,0-0.2l0,0c-0.8-1.4-1.9-2.5-3.3-3.3
					c0-0.1,0-0.1-0.1-0.1s-0.1,0-0.1,0.1l0,0l0,0C342.1,26.6,342.2,26.6,342.2,26.7z"/>
			</defs>
			<clipPath id="SVGID_18_">
				<use xlink:href="#SVGID_17_"  style="overflow:visible;"/>
			</clipPath>
			<g class="st14">
				<polygon class="st2" points="344.4,29.9 345.7,29.4 345.7,29.9 				"/>
				<polygon class="st2" points="342.1,29.8 345.7,28.3 345.7,29.4 344.4,29.9 342.1,29.9 				"/>
				<polygon class="st2" points="342.1,28.8 345.7,27.3 345.7,28.3 342.1,29.8 				"/>
				<polygon class="st2" points="342.1,27.7 345.6,26.2 345.7,26.2 345.7,27.3 342.1,28.8 				"/>
				<polygon class="st2" points="342.1,26.6 343.1,26.2 345.6,26.2 342.1,27.7 				"/>
				<polygon class="st2" points="343.1,26.2 342.1,26.6 342.1,26.2 				"/>
			</g>
		</g>
	</g>
	<g>
		<path class="st2" d="M334.6,25.4h-0.2c-1.9,0.9-3.4,2.4-4.3,4.3h0.4c0.9-1.8,2.3-3.2,4.1-4.1c0.1,0,0.1-0.1,0.1-0.2
			C334.7,25.4,334.6,25.4,334.6,25.4z"/>
		<g>
			<defs>
				<path id="SVGID_19_" d="M334.6,25.4h-0.2c-1.9,0.9-3.4,2.4-4.3,4.3h0.4c0.9-1.8,2.3-3.2,4.1-4.1c0.1,0,0.1-0.1,0.1-0.2
					C334.7,25.4,334.6,25.4,334.6,25.4z"/>
			</defs>
			<clipPath id="SVGID_20_">
				<use xlink:href="#SVGID_19_"  style="overflow:visible;"/>
			</clipPath>
			<g class="st15">
				<polygon class="st2" points="334.2,29.9 334.7,29.7 334.7,29.9 				"/>
				<polygon class="st2" points="331.6,29.9 334.7,28.6 334.7,29.7 334.2,29.9 				"/>
				<polygon class="st2" points="330.1,29.5 334.7,27.6 334.7,28.6 331.6,29.9 330.1,29.9 				"/>
				<polygon class="st2" points="330.1,28.4 334.7,26.5 334.7,27.6 330.1,29.5 				"/>
				<polygon class="st2" points="330.1,27.4 334.7,25.4 334.7,26.5 330.1,28.4 				"/>
				<polygon class="st2" points="330.1,26.3 332.6,25.3 334.7,25.3 334.7,25.4 330.1,27.4 				"/>
				<polygon class="st2" points="332.6,25.3 330.1,26.3 330.1,25.3 				"/>
			</g>
		</g>
	</g>
	<g>
		<path class="st2" d="M346.5,29.9L346.5,29.9c0.1,0,0.2-0.1,0.1-0.2l0,0c-0.9-1.9-2.4-3.4-4.3-4.3h-0.1c1.8,0.9,3.2,2.3,4.1,4.1
			L346.5,29.9z"/>
		<g>
			<defs>
				<path id="SVGID_21_" d="M346.5,29.9L346.5,29.9c0.1,0,0.2-0.1,0.1-0.2l0,0c-0.9-1.9-2.4-3.4-4.3-4.3h-0.1
					c1.8,0.9,3.2,2.3,4.1,4.1L346.5,29.9z"/>
			</defs>
			<clipPath id="SVGID_22_">
				<use xlink:href="#SVGID_21_"  style="overflow:visible;"/>
			</clipPath>
			<g class="st16">
				<polygon class="st2" points="344.4,29.9 346.7,29 346.7,29.9 				"/>
				<polygon class="st2" points="342.1,29.8 346.7,27.9 346.7,29 344.4,29.9 342.1,29.9 				"/>
				<polygon class="st2" points="342.1,28.8 346.7,26.9 346.7,27.9 342.1,29.8 				"/>
				<polygon class="st2" points="342.1,27.7 346.7,25.8 346.7,26.9 342.1,28.8 				"/>
				<polygon class="st2" points="342.1,26.6 345.4,25.3 346.7,25.3 346.7,25.8 342.1,27.7 				"/>
				<polygon class="st2" points="342.1,25.6 342.9,25.3 345.4,25.3 342.1,26.6 				"/>
				<polygon class="st2" points="342.9,25.3 342.1,25.6 342.1,25.3 				"/>
			</g>
		</g>
	</g>
	<g>
		<path class="st2" d="M329.2,29.7h0.3c1-2.3,2.8-4.1,5.1-5.1c0.1,0,0.1-0.1,0.1-0.2h-0.3C332.1,25.4,330.2,27.3,329.2,29.7z"/>
		<g>
			<defs>
				<path id="SVGID_23_" d="M329.2,29.7h0.3c1-2.3,2.8-4.1,5.1-5.1c0.1,0,0.1-0.1,0.1-0.2h-0.3C332.1,25.4,330.2,27.3,329.2,29.7z"
					/>
			</defs>
			<clipPath id="SVGID_24_">
				<use xlink:href="#SVGID_23_"  style="overflow:visible;"/>
			</clipPath>
			<g class="st17">
				<polygon class="st2" points="334.2,29.9 334.7,29.7 334.7,29.9 				"/>
				<polygon class="st2" points="331.6,29.9 334.7,28.6 334.7,29.7 334.2,29.9 				"/>
				<polygon class="st2" points="329.2,29.9 334.7,27.6 334.7,28.6 331.6,29.9 329.2,29.9 				"/>
				<polygon class="st2" points="329.2,28.8 334.7,26.5 334.7,27.6 329.2,29.9 				"/>
				<polygon class="st2" points="329.2,27.8 334.7,25.5 334.7,26.5 329.2,28.8 				"/>
				<polygon class="st2" points="329.2,26.7 334.7,24.4 334.7,25.5 329.2,27.8 				"/>
				<polygon class="st2" points="329.2,25.6 332.3,24.3 334.7,24.3 334.7,24.4 329.2,26.7 				"/>
				<polygon class="st2" points="329.2,24.6 329.8,24.3 332.3,24.3 329.2,25.6 				"/>
				<polygon class="st2" points="329.8,24.3 329.2,24.6 329.2,24.3 				"/>
			</g>
		</g>
	</g>
	<g>
		<path class="st2" d="M342,24.5h0.2c2,0.9,3.6,2.4,4.7,4.3l0.3,0.7l0,0c0,0.1,0,0.1,0.1,0.1l0,0h0.2c0.1,0,0.1-0.1,0.1-0.2
			l-0.4-0.7l0,0c0-0.1,0-0.1-0.1-0.2c0-0.1,0-0.1-0.1-0.2l-0.3-0.5c0-0.1-0.1-0.2-0.2-0.3l-0.3-0.4l-0.3-0.4l-0.3-0.3l-0.3-0.3
			l-0.4-0.4l-0.3-0.3l-0.4-0.3l-0.3-0.2l-0.5-0.3l-0.3-0.2l-0.9-0.4H342V24.5z"/>
		<g>
			<defs>
				<path id="SVGID_25_" d="M342,24.5h0.2c2,0.9,3.6,2.4,4.7,4.3l0.3,0.7l0,0c0,0.1,0,0.1,0.1,0.1l0,0h0.2c0.1,0,0.1-0.1,0.1-0.2
					l-0.4-0.7l0,0c0-0.1,0-0.1-0.1-0.2c0-0.1,0-0.1-0.1-0.2l-0.3-0.5c0-0.1-0.1-0.2-0.2-0.3l-0.3-0.4l-0.3-0.4l-0.3-0.3l-0.3-0.3
					l-0.4-0.4l-0.3-0.3l-0.4-0.3l-0.3-0.2l-0.5-0.3l-0.3-0.2l-0.9-0.4H342V24.5z"/>
			</defs>
			<clipPath id="SVGID_26_">
				<use xlink:href="#SVGID_25_"  style="overflow:visible;"/>
			</clipPath>
			<g class="st18">
				<polygon class="st2" points="347,29.9 347.6,29.7 347.6,29.9 				"/>
				<polygon class="st2" points="344.4,29.9 347.6,28.6 347.6,29.7 347,29.9 				"/>
				<polygon class="st2" points="342.1,29.9 342.1,29.8 347.6,27.5 347.6,28.6 344.4,29.9 				"/>
				<polygon class="st2" points="342.1,29.8 342,29.7 342,28.8 347.6,26.5 347.6,27.5 				"/>
				<polygon class="st2" points="342,27.7 347.6,25.4 347.6,26.5 342,28.8 				"/>
				<polygon class="st2" points="342,26.7 347.5,24.4 347.6,24.6 347.6,25.4 342,27.7 				"/>
				<polygon class="st2" points="342,25.6 345.2,24.3 347.5,24.3 347.5,24.4 342,26.7 				"/>
				<polygon class="st2" points="342,24.5 342.6,24.3 345.2,24.3 342,25.6 				"/>
				<polygon class="st2" points="342.6,24.3 342,24.5 342,24.3 				"/>
			</g>
		</g>
	</g>
	<g>
		<path class="st2" d="M333.7,44.4v-0.2l0,0l-2-9.7c0-0.1-0.1-0.2-0.2-0.3H329c-0.1,0.1-0.2,0.2-0.2,0.3l-2,9.7l0,0
			c0,0.1,0.1,0.1,0.1,0.2h1.9v-0.2l0.4-2.5h2l0.4,2.5c0,0.2,0.2,0.3,0.4,0.3h1.6L333.7,44.4z M329.6,40l0.6-3.8h0.2L331,40H329.6z"
			/>
		<g>
			<defs>
				<path id="SVGID_27_" d="M333.7,44.4v-0.2l0,0l-2-9.7c0-0.1-0.1-0.2-0.2-0.3H329c-0.1,0.1-0.2,0.2-0.2,0.3l-2,9.7l0,0
					c0,0.1,0.1,0.1,0.1,0.2h1.9v-0.2l0.4-2.5h2l0.4,2.5c0,0.2,0.2,0.3,0.4,0.3h1.6L333.7,44.4z M329.6,40l0.6-3.8h0.2L331,40H329.6z
					"/>
			</defs>
			<clipPath id="SVGID_28_">
				<use xlink:href="#SVGID_27_"  style="overflow:visible;"/>
			</clipPath>
			<g class="st19">
				<polygon class="st2" points="330.6,40 331,39.8 331,40 				"/>
				<polygon class="st2" points="329.6,39.3 331,38.7 331,39.8 330.6,40 329.6,40 				"/>
				<polygon class="st2" points="329.6,38.2 331,37.6 331,38.7 329.6,39.3 				"/>
				<polygon class="st2" points="329.6,37.2 331,36.6 331,37.6 329.6,38.2 				"/>
				<polygon class="st2" points="331,36.6 329.6,37.2 329.6,36.1 331,36.1 				"/>
				<polygon class="st2" points="332.5,44.5 333.8,44 333.8,44.5 				"/>
				<polygon class="st2" points="329.9,44.5 333.8,42.9 333.8,44 332.5,44.5 				"/>
				<polygon class="st2" points="327.3,44.5 333.8,41.8 333.8,42.9 329.9,44.5 				"/>
				<polygon class="st2" points="326.8,43.6 333.8,40.8 333.8,41.8 327.3,44.5 326.8,44.5 				"/>
				<polygon class="st2" points="326.8,42.6 333.8,39.7 333.8,40.8 326.8,43.6 				"/>
				<polygon class="st2" points="326.8,41.5 333.8,38.6 333.8,39.7 326.8,42.6 				"/>
				<polygon class="st2" points="326.8,40.5 333.8,37.6 333.8,38.6 326.8,41.5 				"/>
				<polygon class="st2" points="326.8,39.4 333.8,36.5 333.8,37.6 326.8,40.5 				"/>
				<polygon class="st2" points="326.8,38.3 333.8,35.4 333.8,36.5 326.8,39.4 				"/>
				<polygon class="st2" points="326.8,37.3 333.8,34.4 333.8,35.4 326.8,38.3 				"/>
				<polygon class="st2" points="326.8,36.2 332.1,34 333.8,34 333.8,34.4 326.8,37.3 				"/>
				<polygon class="st2" points="326.8,35.1 329.5,34 332.1,34 326.8,36.2 				"/>
				<polygon class="st2" points="326.8,34.1 327,34 329.5,34 326.8,35.1 				"/>
				<polygon class="st2" points="327,34 326.8,34.1 326.8,34 				"/>
			</g>
		</g>
	</g>
	<g>
		<path class="st2" d="M342.4,44.4c0.1-0.1,0.1-0.2,0.1-0.3v-9.8c0-0.1,0-0.2-0.1-0.2h-2.3l-0.2,0.3l-1.3,4.4l-1.4-4.4v-0.2h-2.3
			c-0.1,0.1-0.1,0.1-0.1,0.2h-0.1v10h1.6c0.1,0,0.1,0,0.1-0.1v0c0.1-0.1,0.1-0.1,0.1-0.2v-6.3l1.1,3.7c0.1,0.1,0.1,0.2,0.2,0.2h1.7
			l1.2-3.7v6.3c0,0.1,0,0.2,0.1,0.3h1.6L342.4,44.4z"/>
		<g>
			<defs>
				<path id="SVGID_29_" d="M342.4,44.4c0.1-0.1,0.1-0.2,0.1-0.3v-9.8c0-0.1,0-0.2-0.1-0.2h-2.3l-0.2,0.3l-1.3,4.4l-1.4-4.4v-0.2
					h-2.3c-0.1,0.1-0.1,0.1-0.1,0.2h-0.1v10h1.6c0.1,0,0.1,0,0.1-0.1v0c0.1-0.1,0.1-0.1,0.1-0.2v-6.3l1.1,3.7
					c0.1,0.1,0.1,0.2,0.2,0.2h1.7l1.2-3.7v6.3c0,0.1,0,0.2,0.1,0.3h1.6L342.4,44.4z"/>
			</defs>
			<clipPath id="SVGID_30_">
				<use xlink:href="#SVGID_29_"  style="overflow:visible;"/>
			</clipPath>
			<g class="st20">
				<polygon class="st2" points="340.2,44.5 342.5,43.5 342.5,44.5 				"/>
				<polygon class="st2" points="337.7,44.5 342.5,42.4 342.5,43.5 340.2,44.5 				"/>
				<polygon class="st2" points="335.1,44.5 342.5,41.4 342.5,42.4 337.7,44.5 				"/>
				<polygon class="st2" points="334.6,43.6 342.5,40.3 342.5,41.4 335.1,44.5 334.6,44.5 				"/>
				<polygon class="st2" points="334.6,42.5 342.5,39.2 342.5,40.3 334.6,43.6 				"/>
				<polygon class="st2" points="334.6,41.5 342.5,38.2 342.5,39.2 334.6,42.5 				"/>
				<polygon class="st2" points="334.6,40.4 342.5,37.1 342.5,38.2 334.6,41.5 				"/>
				<polygon class="st2" points="334.6,39.3 342.5,36.1 342.5,37.1 334.6,40.4 				"/>
				<polygon class="st2" points="334.6,38.3 342.5,35 342.5,36.1 334.6,39.3 				"/>
				<polygon class="st2" points="334.6,37.2 342.4,34 342.5,34 342.5,35 334.6,38.3 				"/>
				<polygon class="st2" points="334.6,36.1 339.9,34 342.4,34 334.6,37.2 				"/>
				<polygon class="st2" points="334.6,35.1 337.3,34 339.9,34 334.6,36.1 				"/>
				<polygon class="st2" points="334.6,34 334.7,34 337.3,34 334.6,35.1 				"/>
				<polygon class="st2" points="334.7,34 334.6,34 334.6,34 				"/>
			</g>
		</g>
	</g>
	<g>
		<path class="st2" d="M349.7,41.2H348v0.3c0,0.2-0.1,0.4-0.2,0.6c-0.1,0.2-0.2,0.3-0.4,0.4l-0.6,0.2l0,0l-0.6-0.2
			c-0.2-0.1-0.3-0.2-0.4-0.4c-0.1-0.2-0.2-0.4-0.2-0.6v-4.8c0-0.2,0.1-0.4,0.2-0.6l0.4-0.5h1.2c0.2,0.1,0.3,0.3,0.4,0.5
			c0.1,0.1,0.2,0.3,0.2,0.5l0,0v0.2l0.2,0.2h1.4c0.1-0.1,0.2-0.1,0.2-0.2s0.1-0.1,0.1-0.2l0,0c0-0.5-0.2-1-0.4-1.5l-0.6-0.7
			c-0.3-0.2-0.6-0.4-0.9-0.5l-0.9-0.2h-0.5c-0.5,0-1,0.1-1.4,0.4l-0.7,0.6c-0.2,0.3-0.4,0.6-0.5,0.9c-0.1,0.3-0.2,0.7-0.2,1v4.9
			c0,0.5,0.1,1,0.4,1.5l0.6,0.8l0.8,0.5l1,0.2h0.5c0.5,0,1-0.1,1.4-0.4c0.3-0.2,0.5-0.4,0.7-0.7c0.2-0.2,0.4-0.5,0.5-0.8
			c0.1-0.4,0.2-0.7,0.2-1.1l0,0c0-0.1,0-0.2-0.1-0.3L349.7,41.2z"/>
		<g>
			<defs>
				<path id="SVGID_31_" d="M349.7,41.2H348v0.3c0,0.2-0.1,0.4-0.2,0.6c-0.1,0.2-0.2,0.3-0.4,0.4l-0.6,0.2l0,0l-0.6-0.2
					c-0.2-0.1-0.3-0.2-0.4-0.4c-0.1-0.2-0.2-0.4-0.2-0.6v-4.8c0-0.2,0.1-0.4,0.2-0.6l0.4-0.5h1.2c0.2,0.1,0.3,0.3,0.4,0.5
					c0.1,0.1,0.2,0.3,0.2,0.5l0,0v0.2l0.2,0.2h1.4c0.1-0.1,0.2-0.1,0.2-0.2s0.1-0.1,0.1-0.2l0,0c0-0.5-0.2-1-0.4-1.5l-0.6-0.7
					c-0.3-0.2-0.6-0.4-0.9-0.5l-0.9-0.2h-0.5c-0.5,0-1,0.1-1.4,0.4l-0.7,0.6c-0.2,0.3-0.4,0.6-0.5,0.9c-0.1,0.3-0.2,0.7-0.2,1v4.9
					c0,0.5,0.1,1,0.4,1.5l0.6,0.8l0.8,0.5l1,0.2h0.5c0.5,0,1-0.1,1.4-0.4c0.3-0.2,0.5-0.4,0.7-0.7c0.2-0.2,0.4-0.5,0.5-0.8
					c0.1-0.4,0.2-0.7,0.2-1.1l0,0c0-0.1,0-0.2-0.1-0.3L349.7,41.2z"/>
			</defs>
			<clipPath id="SVGID_32_">
				<use xlink:href="#SVGID_31_"  style="overflow:visible;"/>
			</clipPath>
			<g class="st21">
				<polygon class="st2" points="347.6,44.6 349.9,43.7 349.9,44.6 				"/>
				<polygon class="st2" points="345.1,44.6 349.9,42.6 349.9,43.7 347.6,44.6 				"/>
				<polygon class="st2" points="343.8,44 349.9,41.5 349.9,42.6 345.1,44.6 343.8,44.6 				"/>
				<polygon class="st2" points="343.8,43 349.9,40.5 349.9,41.5 343.8,44 				"/>
				<polygon class="st2" points="343.8,41.9 349.9,39.4 349.9,40.5 343.8,43 				"/>
				<polygon class="st2" points="343.8,40.8 349.9,38.3 349.9,39.4 343.8,41.9 				"/>
				<polygon class="st2" points="343.8,39.8 349.9,37.3 349.9,38.3 343.8,40.8 				"/>
				<polygon class="st2" points="343.8,38.7 349.9,36.2 349.9,37.3 343.8,39.8 				"/>
				<polygon class="st2" points="343.8,37.6 349.9,35.1 349.9,36.2 343.8,38.7 				"/>
				<polygon class="st2" points="343.8,36.6 349.9,34.1 349.9,35.1 343.8,37.6 				"/>
				<polygon class="st2" points="343.8,35.5 347.9,33.8 349.9,33.8 349.9,34.1 343.8,36.6 				"/>
				<polygon class="st2" points="343.8,34.4 345.3,33.8 347.9,33.8 343.8,35.5 				"/>
				<polygon class="st2" points="345.3,33.8 343.8,34.4 343.8,33.8 				"/>
			</g>
		</g>
	</g>
	<g>
		<path class="st2" d="M357.9,27.8L357.9,27.8c-0.3,0-0.5,0.8-0.6,1.8s0,1.9,0.2,1.9s0.5-0.8,0.6-1.8c0-0.5,0-1.1-0.1-1.6l1.4,0.8
			c1,0.4,1.8,0.6,1.9,0.4s-0.6-0.7-1.6-1.1S358,27.6,357.9,27.8z"/>
		<path class="st2" d="M358.8,29.5L358.8,29.5c-0.2,0-0.6,0.8-0.8,1.8s-0.1,1.9,0.1,1.9s0.5-0.7,0.7-1.8c0.1-0.5,0.2-1.1,0.1-1.6
			l1.3,1c0.9,0.5,1.7,0.7,1.9,0.5s-0.6-0.7-1.5-1.2S358.9,29.3,358.8,29.5z"/>
		<path class="st2" d="M359.6,31.3L359.6,31.3c-0.3-0.1-0.7,0.7-0.9,1.7s-0.4,1.8-0.2,1.9s0.6-0.7,0.9-1.7c0.2-0.5,0.3-1.1,0.3-1.6
			l1.2,1c0.8,0.6,1.6,0.9,1.7,0.7s-0.4-0.8-1.3-1.3C360.8,31.6,360.2,31.4,359.6,31.3z"/>
		<path class="st2" d="M361.9,34.1c-0.8-0.7-1.6-1-1.7-0.9l0,0c-0.2,0-0.7,0.7-1.1,1.6s-0.5,1.9-0.3,1.9s0.7-0.6,1.1-1.6
			c0.2-0.5,0.3-1.1,0.3-1.6c0.3,0.5,0.7,0.9,1.2,1.2c0.8,0.7,1.5,1,1.7,0.9S362.7,34.7,361.9,34.1z"/>
		<path class="st2" d="M360.6,35.2L360.6,35.2c-0.2-0.1-0.7,0.6-1.2,1.5s-0.6,1.7-0.4,1.8s0.7-0.6,1.1-1.5c0.2-0.5,0.4-1,0.6-1.5
			c0.2,0.5,0.6,0.9,1,1.2c0.7,0.7,1.4,1.2,1.6,1s-0.3-0.8-1.1-1.5S360.8,35,360.6,35.2z"/>
		<path class="st2" d="M362.4,38.3c-0.7-0.8-1.4-1.3-1.5-1.2l0,0c-0.2-0.1-0.8,0.5-1.3,1.4c-0.4,0.5-0.7,1.1-0.7,1.8
			c0.2,0.1,0.8-0.5,1.3-1.4c0.3-0.5,0.6-1,0.7-1.5c0.2,0.5,0.5,1,0.9,1.4c0.7,0.8,1.4,1.3,1.5,1.1S363.1,39,362.4,38.3z"/>
		<path class="st2" d="M361,39.1L361,39.1c-0.2-0.1-0.9,0.4-1.5,1.3s-0.9,1.6-0.7,1.7s0.8-0.4,1.4-1.3c0.3-0.4,0.6-0.9,0.8-1.4
			c0.1,0.5,0.4,1,0.7,1.4c0.7,0.9,1.3,1.4,1.5,1.3c-0.1-0.6-0.4-1.2-0.8-1.7C361.8,39.5,361.1,39,361,39.1z"/>
		<path class="st2" d="M360.9,41.1L360.9,41.1c-0.2-0.2-0.9,0.4-1.5,1.1s-1.1,1.6-1,1.7s0.9-0.4,1.6-1.2l0.9-1.3
			c0.1,0.5,0.3,1,0.6,1.5c0.5,0.8,1.1,1.5,1.3,1.4s-0.1-1-0.6-1.8S361.1,41,360.9,41.1z"/>
		<path class="st2" d="M360.6,43L360.6,43c-0.1-0.1-0.8,0.3-1.6,1.1s-1.2,1.4-1.1,1.5s0.9-0.3,1.7-1c0.4-0.4,0.7-0.8,1-1.3
			c0.1,0.6,0.2,1.1,0.5,1.6c0.5,0.9,1,1.6,1.2,1.5s0-0.9-0.5-1.9S360.8,42.9,360.6,43z"/>
		<path class="st2" d="M360.2,45L360.2,45c-0.1-0.2-0.9,0.2-1.7,0.8s-1.3,1.3-1.2,1.5s0.9-0.2,1.7-0.9s1-0.8,1.1-1.1
			c0.1,0.5,0.2,1,0.4,1.5c0.4,1,0.9,1.7,1.1,1.6s0-0.9-0.3-1.8S360.4,44.9,360.2,45z"/>
		<path class="st2" d="M359.6,46.8L359.6,46.8c-0.1-0.2-0.9,0.1-1.7,0.7s-1.5,1.2-1.4,1.3s0.9-0.1,1.8-0.7c0.5-0.3,0.9-0.7,1.2-1.1
			c0,0.5,0.1,1.1,0.3,1.6c0.3,1,0.7,1.8,0.9,1.7s0.1-0.9-0.2-1.9S359.9,46.8,359.6,46.8z"/>
		<path class="st2" d="M358.9,48.7L358.9,48.7c-0.1-0.2-0.9,0-1.8,0.5s-1.6,1.1-1.5,1.3s0.9-0.1,1.8-0.6l1.4-0.9
			c-0.1,0.5-0.1,1.1,0.1,1.6c0.2,1,0.5,1.8,0.7,1.7s0.2-0.9,0-1.9S359.1,48.6,358.9,48.7z"/>
		<path class="st2" d="M358,50.4L358,50.4c-0.1-0.2-1,0-1.9,0.4s-1.6,1-1.5,1.2c0.6,0,1.3-0.1,1.8-0.4c0.5-0.2,1-0.5,1.4-0.9
			c-0.1,0.5-0.1,1.1,0,1.6c0.1,1,0.4,1.9,0.6,1.8s0.3-0.8,0.2-1.9S358.2,50.4,358,50.4z"/>
		<path class="st2" d="M356.9,52.1L356.9,52.1c-0.1-0.2-0.9-0.1-1.9,0.2s-1.7,0.8-1.6,1s0.9,0.1,1.9-0.2c0.5-0.1,1-0.4,1.4-0.7
			c-0.1,0.5-0.1,1.1-0.1,1.6c0,1,0.2,1.8,0.4,1.8s0.4-0.8,0.4-1.8S357.2,52.1,356.9,52.1z"/>
		<path class="st2" d="M355.7,53.7L355.7,53.7c0-0.2-0.9-0.2-1.9,0.1s-1.8,0.6-1.7,0.8s0.9,0.2,1.9-0.1l1.5-0.6
			c-0.1,0.5-0.2,1.1-0.3,1.6c-0.1,1,0.1,1.9,0.3,1.9s0.4-0.8,0.5-1.8S356,53.7,355.7,53.7z"/>
		<path class="st2" d="M354.4,55.1L354.4,55.1c0-0.2-0.9-0.2-1.9-0.1s-1.8,0.5-1.8,0.7s0.9,0.3,1.9,0.1l1.6-0.4
			c-0.3,0.5-0.4,1-0.5,1.5c-0.1,1-0.1,1.9,0.1,1.9s0.5-0.7,0.7-1.8S354.6,55.2,354.4,55.1z"/>
		<path class="st2" d="M353,56.5h-0.1c0-0.2-0.8-0.4-1.9-0.3s-1.8,0.3-1.8,0.5s0.9,0.4,1.9,0.3c0.5,0,1.1-0.1,1.6-0.3
			c-0.3,0.5-0.5,1-0.6,1.5c-0.2,1-0.3,1.8-0.1,1.9s0.6-0.7,0.9-1.7S353.2,56.5,353,56.5z"/>
		<path class="st2" d="M351.4,57.7L351.4,57.7c0-0.2-0.9-0.4-1.9-0.4s-1.9,0.1-1.9,0.3s0.9,0.4,1.9,0.4c0.5,0.1,1.1,0,1.6-0.1
			c-0.3,0.4-0.6,0.9-0.7,1.4c-0.3,1-0.4,1.8-0.2,1.9s0.6-0.6,1-1.6S351.6,57.8,351.4,57.7z"/>
		<path class="st2" d="M349.7,58.8L349.7,58.8c0-0.3-0.8-0.5-1.8-0.6s-1.9-0.1-1.9,0.2s0.8,0.4,1.8,0.5c0.5,0.1,1.1,0.1,1.6,0
			l-0.8,1.4c-0.4,0.9-0.6,1.8-0.4,1.9s0.7-0.6,1.1-1.6S349.9,58.8,349.7,58.8L349.7,58.8z"/>
		<path class="st2" d="M348,59.7L348,59.7c0-0.2-0.8-0.6-1.8-0.8s-1.9-0.2-1.9,0.1s0.7,0.5,1.8,0.7c0.5,0.1,1.1,0.2,1.6,0.1
			c-0.4,0.4-0.7,0.8-1,1.3c-0.5,0.9-0.7,1.7-0.5,1.8s0.7-0.5,1.2-1.4S348.2,59.8,348,59.7L348,59.7z"/>
		<path class="st2" d="M346.2,60.4h-0.1c0.1-0.2-0.7-0.6-1.6-0.9s-1.9-0.3-1.9-0.1s0.6,0.6,1.6,0.9c0.5,0.2,1.1,0.3,1.6,0.2l-1,1.3
			c-0.6,0.8-0.9,1.6-0.7,1.7s0.8-0.4,1.3-1.3C345.9,61.7,346.1,61.1,346.2,60.4z"/>
		<path class="st2" d="M344.3,61L344.3,61c0-0.2-0.7-0.6-1.6-1s-1.8-0.5-1.9-0.3s0.6,0.7,1.6,1c0.5,0.3,1,0.4,1.6,0.4
			c-0.5,0.3-0.9,0.7-1.2,1.1c-0.7,0.8-1,1.6-0.9,1.7c0.1,0.1,0.8-0.4,1.5-1.2S344.4,61.2,344.3,61z"/>
		<path class="st2" d="M342.3,61.5L342.3,61.5c0.1-0.2-0.6-0.8-1.5-1.2s-1.7-0.7-1.8-0.5s0.6,0.7,1.5,1.2c0.5,0.3,1,0.4,1.5,0.5
			c-0.5,0.3-0.9,0.6-1.2,1c-0.8,0.8-1.2,1.5-1.1,1.6s0.9-0.3,1.6-1S342.5,61.6,342.3,61.5z"/>
		<path class="st2" d="M340.4,61.7L340.4,61.7c0.1-0.2-0.5-0.7-1.4-1.3s-1.7-0.8-1.8-0.6s0.5,0.8,1.4,1.3c0.5,0.3,1,0.6,1.5,0.7
			c-0.5,0.2-1,0.5-1.4,0.9c-0.8,0.6-1.3,1.3-1.1,1.5s0.9-0.3,1.6-0.9S340.5,61.9,340.4,61.7z"/>
		<path class="st2" d="M338.4,61.8L338.4,61.8c0.1-0.2-0.4-0.8-1.3-1.4s-1.6-1-1.7-0.8s0.4,0.8,1.3,1.4c0.4,0.3,0.9,0.6,1.4,0.8
			c-0.5,0.2-1,0.5-1.4,0.8c-0.9,0.6-1.4,1.2-1.3,1.4c0.1,0.2,0.9-0.2,1.7-0.8S338.5,62,338.4,61.8z"/>
		<path class="st2" d="M336.4,61.8L336.4,61.8c0.2-0.1-0.3-0.8-1.1-1.5s-1.5-1.1-1.7-0.9s0.4,0.8,1.2,1.5c0.4,0.4,0.8,0.7,1.3,0.9
			c-0.5,0.2-1,0.4-1.5,0.7c-0.8,0.5-1.5,1.1-1.4,1.3c0.7,0,1.3-0.3,1.8-0.8C335.9,62.5,336.5,61.9,336.4,61.8z"/>
		<path class="st2" d="M334.5,61.5L334.5,61.5c0.1-0.2-0.3-0.9-1-1.6s-1.5-1.3-1.6-1.1s0.3,0.9,1,1.6c0.3,0.4,0.8,0.8,1.3,1
			l-1.6,0.6c-0.9,0.4-1.6,0.9-1.5,1.1s0.9,0,1.9-0.4S334.6,61.7,334.5,61.5z"/>
		<path class="st2" d="M332.5,61.1L332.5,61.1c0.2-0.2-0.2-0.9-0.8-1.7s-1.3-1.4-1.5-1.2s0.2,0.8,0.9,1.6c0.3,0.5,0.7,0.9,1.1,1.2
			c-0.5,0-1,0.2-1.5,0.4c-1,0.3-1.7,0.8-1.6,1s0.9,0.1,1.8-0.3S332.6,61.3,332.5,61.1z"/>
		<path class="st2" d="M330.7,60.5h-0.1c0.2-0.2-0.1-0.9-0.7-1.8s-1.1-1.5-1.3-1.3s0.1,0.9,0.7,1.7c0.3,0.5,0.7,0.9,1.1,1.3
			c-0.5-0.1-1.1,0-1.6,0.2c-1,0.3-1.8,0.7-1.7,0.9s0.9,0.1,1.9-0.1S330.7,60.7,330.7,60.5z"/>
		<path class="st2" d="M328.8,59.7L328.8,59.7c0.2-0.1,0-0.9-0.5-1.8s-1.1-1.6-1.3-1.5s0.1,1,0.6,1.9c0.2,0.5,0.5,0.9,0.9,1.3
			c-0.5-0.1-1.1,0-1.6,0.1c-1,0.2-1.8,0.5-1.7,0.7s0.9,0.3,1.9,0.1S328.9,59.9,328.8,59.7z"/>
		<path class="st2" d="M327.1,58.8L327.1,58.8c0.2-0.1,0-0.9-0.4-1.9s-0.9-1.6-1.1-1.5s-0.1,0.9,0.4,1.9c0.2,0.5,0.5,1,0.8,1.4h-1.6
			c-1,0.1-1.9,0.4-1.8,0.6s0.8,0.3,1.9,0.2S327.1,59,327.1,58.8z"/>
		<path class="st2" d="M325.4,57.8L325.4,57.8c0.2,0,0.1-0.9-0.2-1.8s-0.8-1.8-1-1.7s-0.1,0.9,0.2,1.9c0.2,0.5,0.4,1,0.7,1.5
			l-1.6-0.2c-1,0-1.8,0.2-1.8,0.4s0.8,0.4,1.8,0.4S325.4,58,325.4,57.8z"/>
		<path class="st2" d="M323.8,56.6L323.8,56.6c0.2,0,0.2-0.9,0-1.9s-0.6-1.7-0.9-1.7s-0.1,0.9,0.1,1.9c0.1,0.5,0.3,1,0.6,1.5L322,56
			c-1,0-1.9,0.1-1.9,0.3s0.8,0.4,1.8,0.5S323.8,56.8,323.8,56.6z"/>
		<path class="st2" d="M322.4,55.2L322.4,55.2c0.2,0,0.2-0.9,0.1-1.9s-0.5-1.8-0.7-1.8s-0.3,0.9-0.1,1.9c0.1,0.5,0.2,1.1,0.4,1.6
			c-0.5-0.2-1-0.4-1.5-0.5c-1-0.1-1.9-0.1-1.9,0.1s0.8,0.5,1.8,0.7S322.3,55.4,322.4,55.2z"/>
		<path class="st2" d="M321,53.8L321,53.8c0.3-0.1,0.4-0.9,0.3-1.9S321,50,320.8,50s-0.3,0.9-0.3,1.9c0.1,0.5,0.2,1.1,0.3,1.6
			l-1.5-0.6c-1-0.2-1.8-0.3-1.9,0s0.7,0.5,1.7,0.8S321,54,321,53.8z"/>
		<path class="st2" d="M319.8,52.2L319.8,52.2c0.3,0,0.4-0.8,0.5-1.9s-0.2-1.8-0.4-1.8s-0.4,0.8-0.4,1.8c-0.1,0.5,0,1.1,0.2,1.6
			c-0.5-0.3-1-0.5-1.5-0.7c-1-0.3-1.8-0.4-1.9-0.2s0.7,0.6,1.6,1S319.8,52.4,319.8,52.2z"/>
		<path class="st2" d="M318.8,50.5L318.8,50.5c0.2,0,0.5-0.8,0.6-1.8s0-1.9-0.2-1.9s-0.5,0.8-0.6,1.8c-0.1,0.6-0.1,1.1,0,1.7
			c-0.4-0.4-0.9-0.7-1.4-0.9c-0.9-0.4-1.7-0.6-1.8-0.4s0.6,0.7,1.5,1.1S318.7,50.7,318.8,50.5z"/>
		<path class="st2" d="M317.9,48.8L317.9,48.8c0.2,0,0.5-0.8,0.7-1.8s0.2-1.8,0-1.9s-0.6,0.8-0.8,1.8c-0.1,0.5-0.1,1.1-0.1,1.6
			c-0.4-0.4-0.8-0.7-1.3-1c-0.9-0.5-1.7-0.7-1.8-0.5s0.5,0.7,1.4,1.2S317.8,49,317.9,48.8z"/>
		<path class="st2" d="M317.1,47L317.1,47c0.2,0.1,0.6-0.6,0.9-1.6s0.4-1.9,0.1-1.9s-0.6,0.7-0.8,1.6c-0.2,0.6-0.3,1.1-0.3,1.7
			c-0.4-0.4-0.8-0.8-1.2-1.1c-0.9-0.6-1.7-0.9-1.8-0.7s0.5,0.8,1.3,1.3C315.8,46.7,316.4,46.9,317.1,47z"/>
		<path class="st2" d="M314.8,44.2c0.8,0.7,1.6,1,1.7,0.9l0,0c0.2,0,0.7-0.7,1.1-1.6s0.5-1.8,0.3-1.9s-0.7,0.6-1.1,1.6
			c-0.2,0.5-0.3,1.1-0.4,1.6c-0.3-0.5-0.7-0.9-1.1-1.2c-0.8-0.7-1.5-1.1-1.7-0.9S314,43.5,314.8,44.2z"/>
		<path class="st2" d="M316.1,43.1L316.1,43.1c0.2,0.1,0.7-0.5,1.2-1.5s0.6-1.7,0.4-1.8s-0.7,0.6-1.1,1.5c-0.2,0.5-0.4,1-0.6,1.5
			c-0.2-0.5-0.6-0.9-1-1.2c-0.7-0.8-1.4-1.2-1.6-1.1s0.3,0.9,1.1,1.6S315.9,43.3,316.1,43.1z"/>
		<path class="st2" d="M315.8,41.2L315.8,41.2c0.2,0.1,0.8-0.5,1.3-1.4c0.4-0.5,0.7-1.1,0.7-1.8c-0.2-0.1-0.8,0.5-1.3,1.4
			c-0.3,0.5-0.6,1-0.7,1.5c-0.2-0.5-0.5-1-0.9-1.4c-0.7-0.8-1.3-1.3-1.5-1.1s0.2,0.8,0.9,1.6S315.7,41.3,315.8,41.2z"/>
		<path class="st2" d="M315.7,39.2L315.7,39.2c0.2,0.1,0.9-0.4,1.5-1.3s0.9-1.6,0.7-1.7s-0.8,0.4-1.4,1.3c-0.3,0.4-0.6,0.9-0.8,1.4
			c-0.1-0.5-0.4-1-0.7-1.4c-0.6-0.9-1.3-1.4-1.4-1.3s0.1,0.9,0.7,1.7S315.6,39.3,315.7,39.2z"/>
		<path class="st2" d="M315.8,37.2L315.8,37.2c0.2,0.2,0.9-0.3,1.6-1.1s1.1-1.5,0.9-1.7s-0.9,0.4-1.5,1.2c-0.4,0.4-0.7,0.8-0.9,1.3
			c-0.2-0.5-0.4-1-0.7-1.5c-0.5-0.8-1.1-1.5-1.3-1.4s0.1,0.9,0.6,1.8S315.6,37.3,315.8,37.2z"/>
		<path class="st2" d="M316.1,35.3L316.1,35.3c0.1,0.1,0.9-0.3,1.6-1s1.2-1.5,1.1-1.6s-0.9,0.3-1.6,1l-1.1,1.3
			c-0.1-0.6-0.2-1.1-0.5-1.6c-0.4-0.9-0.9-1.6-1.1-1.5c-0.2,0.1,0,0.9,0.4,1.9S315.9,35.4,316.1,35.3z"/>
		<path class="st2" d="M316.5,33.4L316.5,33.4c0.2,0.2,0.9-0.2,1.7-0.8s1.4-1.3,1.2-1.5s-0.9,0.2-1.7,0.9c-0.4,0.3-0.8,0.7-1.1,1.1
			c0-0.5-0.2-1-0.4-1.5c-0.4-1-0.8-1.7-1-1.6s-0.1,0.9,0.3,1.8S316.3,33.4,316.5,33.4z"/>
		<path class="st2" d="M317.1,31.5L317.1,31.5c0.7-0.1,1.3-0.4,1.8-0.8c0.8-0.5,1.4-1.1,1.3-1.3s-0.9,0.1-1.8,0.7
			c-0.4,0.3-0.8,0.7-1.2,1.1c0-0.5,0-1.1-0.2-1.6c-0.3-1-0.7-1.8-0.9-1.7s-0.2,0.9,0.1,1.9S316.9,31.5,317.1,31.5z"/>
		<path class="st2" d="M317.9,29.6L317.9,29.6c0.1,0.2,0.9,0,1.8-0.5s1.5-1.1,1.4-1.3c-0.6,0-1.3,0.2-1.8,0.6
			c-0.5,0.2-0.9,0.5-1.3,0.9c0.1-0.5,0-1.1-0.1-1.6c-0.2-1-0.5-1.8-0.7-1.7s-0.3,0.9-0.1,1.9S317.6,29.7,317.9,29.6z"/>
		<path class="st2" d="M318.8,27.9L318.8,27.9c0.1,0.2,0.9,0,1.9-0.4s1.6-0.9,1.5-1.1s-0.9,0-1.9,0.4l-1.4,0.8
			c0.1-0.5,0.1-1.1,0.1-1.6c-0.1-1-0.4-1.8-0.6-1.8s-0.3,0.8-0.2,1.9S318.6,27.9,318.8,27.9z"/>
		<path class="st2" d="M319.8,26.2h0.1c0,0.2,0.9,0.1,1.8-0.2s1.8-0.8,1.7-1s-0.9-0.1-1.9,0.2c-0.5,0.2-1,0.4-1.5,0.8
			c0.1-0.5,0.2-1.1,0.2-1.6c0-1.1-0.2-1.9-0.4-1.9s-0.4,0.8-0.4,1.9S319.6,26.2,319.8,26.2z"/>
		<path class="st2" d="M321,24.7h0.1c0,0.3,0.9,0.2,1.9,0s1.7-0.6,1.7-0.8s-0.9-0.2-1.9,0c-0.5,0.1-1,0.3-1.5,0.6
			c0.1-0.5,0.2-1.1,0.3-1.6c0-1-0.1-1.8-0.3-1.9s-0.4,0.8-0.5,1.9S320.8,24.6,321,24.7z"/>
		<path class="st2" d="M322.4,23.2L322.4,23.2c0,0.2,0.9,0.3,1.9,0.1s1.8-0.5,1.8-0.7s-0.9-0.2-1.9-0.1c-0.6,0.1-1.1,0.2-1.6,0.5
			c0.2-0.5,0.4-1,0.5-1.6c0.1-1,0.1-1.8-0.1-1.9s-0.5,0.8-0.7,1.8S322.2,23.2,322.4,23.2z"/>
		<path class="st2" d="M323.8,21.9h0.1c0,0.2,0.8,0.3,1.8,0.2s1.9-0.3,1.9-0.5s-0.9-0.3-1.9-0.2c-0.6,0-1.1,0.1-1.6,0.3
			c0.3-0.5,0.5-1,0.6-1.5c0.2-1,0.3-1.9,0.1-1.9s-0.6,0.7-0.9,1.7S323.6,21.8,323.8,21.9z"/>
		<path class="st2" d="M325.4,20.7L325.4,20.7c0,0.2,0.8,0.4,1.9,0.4s1.8-0.1,1.8-0.3s-0.8-0.5-1.8-0.5l-1.6,0.2
			c0.3-0.5,0.5-1,0.7-1.5c0.3-0.9,0.4-1.8,0.2-1.9s-0.6,0.7-0.9,1.7S325.2,20.6,325.4,20.7L325.4,20.7z"/>
		<path class="st2" d="M327.1,19.6L327.1,19.6c0,0.2,0.8,0.5,1.8,0.6s1.9,0,1.9-0.2s-0.8-0.5-1.8-0.6h-1.6c0.3-0.4,0.6-0.8,0.8-1.3
			c0.4-1,0.6-1.8,0.4-1.9s-0.7,0.6-1.1,1.5S326.9,19.5,327.1,19.6L327.1,19.6z"/>
		<path class="st2" d="M328.8,18.7L328.8,18.7c0,0.2,0.8,0.5,1.8,0.7s1.9,0.2,1.9,0s-0.7-0.5-1.8-0.7c-0.5-0.2-1.1-0.2-1.6-0.1
			l1-1.3c0.4-0.6,0.6-1.2,0.6-1.9c-0.2-0.1-0.8,0.6-1.3,1.5S328.6,18.6,328.8,18.7z"/>
		<path class="st2" d="M330.7,17.9L330.7,17.9c-0.1,0.3,0.7,0.7,1.7,0.9s1.8,0.4,1.8,0.2s-0.6-0.6-1.6-0.9l-1.6-0.3
			c0.4-0.4,0.7-0.8,1-1.2c0.4-0.5,0.7-1.1,0.8-1.7c-0.2-0.2-0.8,0.4-1.4,1.3C330.8,17.1,330.5,17.8,330.7,17.9z"/>
		<path class="st2" d="M332.5,17.3h0.1c-0.1,0.2,0.6,0.6,1.6,1s1.8,0.5,1.8,0.3s-0.6-0.6-1.6-1c-0.5-0.2-1-0.4-1.5-0.4
			c0.4-0.3,0.8-0.7,1.1-1.1c0.7-0.8,1.1-1.6,0.9-1.7s-0.8,0.4-1.5,1.2C332.7,16.4,332.4,17.2,332.5,17.3z"/>
		<path class="st2" d="M334.5,16.9L334.5,16.9c-0.1,0.2,0.6,0.8,1.5,1.2s1.7,0.7,1.8,0.5s-0.5-0.7-1.5-1.2c-0.5-0.3-1-0.4-1.5-0.5
			c0.5-0.3,0.9-0.6,1.3-1c0.7-0.8,1.1-1.5,1-1.6s-0.9,0.3-1.6,1S334.3,16.8,334.5,16.9z"/>
		<path class="st2" d="M336.4,16.7L336.4,16.7c-0.1,0.2,0.6,0.8,1.4,1.3s1.7,0.8,1.8,0.6s-0.5-0.7-1.4-1.3l-1.4-0.7l1.3-0.8
			c0.8-0.7,1.3-1.4,1.2-1.5s-0.9,0.2-1.7,0.9S336.3,16.5,336.4,16.7z"/>
		<path class="st2" d="M338.4,16.6L338.4,16.6c-0.1,0.2,0.5,0.8,1.3,1.4s1.6,1,1.7,0.8s-0.4-0.8-1.2-1.4c-0.5-0.3-1-0.6-1.5-0.8
			c0.5-0.2,1-0.4,1.4-0.8c0.9-0.6,1.5-1.2,1.3-1.4s-0.9,0.2-1.7,0.8S338.3,16.4,338.4,16.6z"/>
		<path class="st2" d="M340.4,16.7L340.4,16.7c-0.1,0.2,0.4,0.8,1.1,1.5s1.5,1.1,1.7,1s-0.4-0.9-1.1-1.6l-1.4-0.9
			c0.5-0.1,1-0.3,1.5-0.6c0.9-0.6,1.5-1.1,1.4-1.3s-0.9,0.1-1.8,0.6S340.3,16.5,340.4,16.7z"/>
		<path class="st2" d="M342.3,16.9h0.1c-0.2,0.1,0.2,0.8,1,1.6s1.4,1.2,1.5,1.1s-0.3-0.9-1-1.7l-1.2-1c0.5-0.1,1-0.2,1.5-0.5
			c0.9-0.4,1.6-1,1.5-1.2s-0.9,0-1.8,0.5C343,16.2,342.2,16.7,342.3,16.9z"/>
		<path class="st2" d="M344.3,17.4L344.3,17.4c-0.2,0.1,0.2,0.9,0.8,1.7s1.3,1.3,1.5,1.2s-0.2-0.9-0.9-1.7s-0.8-1-1.1-1.1l1.5-0.4
			c1-0.4,1.7-0.8,1.7-1s-1-0.1-1.9,0.3S344.2,17.2,344.3,17.4z"/>
		<path class="st2" d="M346.1,18h0.1c-0.2,0.1,0.1,0.9,0.7,1.8s1.1,1.4,1.3,1.3s-0.1-0.9-0.7-1.8l-1-1.2l1.6-0.2
			c0.9-0.3,1.7-0.7,1.6-0.9s-0.9-0.2-1.9,0.1S346.1,17.8,346.1,18z"/>
		<path class="st2" d="M348,18.7L348,18.7c-0.2,0.1,0,0.9,0.5,1.8s1.1,1.5,1.3,1.4s-0.1-0.9-0.6-1.8c-0.2-0.5-0.5-0.9-0.9-1.3h1.6
			c1-0.2,1.8-0.5,1.7-0.7s-0.9-0.3-1.9-0.1S347.9,18.5,348,18.7z"/>
		<path class="st2" d="M349.7,19.7L349.7,19.7c-0.2,0.1,0,0.9,0.4,1.8s0.9,1.7,1.1,1.6s0-0.9-0.4-1.9c-0.2-0.5-0.5-1-0.8-1.4h1.6
			c1-0.1,1.9-0.4,1.8-0.6s-0.8-0.3-1.9-0.2S349.7,19.4,349.7,19.7z"/>
		<path class="st2" d="M351.4,20.7L351.4,20.7c-0.2,0.1-0.1,1,0.2,1.9s0.8,1.8,1,1.7s0.1-0.9-0.2-1.9c-0.2-0.5-0.4-1-0.7-1.5
			l1.6,0.2c1,0,1.8-0.2,1.8-0.4s-0.8-0.4-1.9-0.4S351.4,20.5,351.4,20.7z"/>
		<path class="st2" d="M353,21.9L353,21.9c-0.3,0-0.2,0.9,0,1.9s0.6,1.7,0.8,1.7s0.2-0.9,0-1.9c-0.1-0.5-0.3-1-0.6-1.5l1.6,0.3
			c1,0.1,1.9-0.1,1.9-0.3s-0.8-0.4-1.9-0.5S353,21.7,353,21.9z"/>
		<path class="st2" d="M354.4,23.3L354.4,23.3c-0.2,0-0.3,0.9-0.1,1.9s0.4,1.8,0.7,1.8s0.2-0.9,0.1-1.9c-0.1-0.6-0.2-1.1-0.5-1.6
			c0.5,0.3,1,0.4,1.6,0.5c1,0.1,1.8,0.1,1.9-0.1s-0.8-0.5-1.8-0.7S354.4,23.1,354.4,23.3z"/>
		<path class="st2" d="M355.7,24.7L355.7,24.7c-0.2,0-0.3,0.8-0.2,1.8s0.2,1.9,0.5,1.9s0.3-0.9,0.2-1.9c0-0.6-0.1-1.1-0.3-1.6
			l1.5,0.6c1,0.2,1.9,0.3,1.9,0.1s-0.7-0.6-1.7-0.9S355.8,24.5,355.7,24.7z"/>
		<path class="st2" d="M356.9,26.3L356.9,26.3c-0.2,0-0.4,0.9-0.4,1.9s0.1,1.9,0.3,1.9s0.4-0.9,0.5-1.9c0-0.5-0.1-1.1-0.2-1.6
			c0.5,0.3,1,0.5,1.5,0.7c0.9,0.3,1.8,0.5,1.8,0.3s-0.6-0.7-1.6-1S357,26.1,356.9,26.3z"/>
	</g>
</g>
</svg>
