<svg id="Layer_1" data-name="Layer 1" xmlns="http://www.w3.org/2000/svg" xmlns:xlink="http://www.w3.org/1999/xlink" width="70" height="70" viewBox="0 0 70 70">
  <defs>
    <style>
      .cls-1 {
        fill: #f6f6f6;
      }

      .cls-2 {
        fill: url(#linear-gradient);
      }
    </style>
    <linearGradient id="linear-gradient" x1="55.84" y1="70.83" x2="25.48" y2="-1.31" gradientUnits="userSpaceOnUse">
      <stop offset="0" stop-color="#75c9b9"/>
      <stop offset="1" stop-color="#72bde5"/>
    </linearGradient>
  </defs>
  <title>icon_plumbing_P0</title>
  <path id="Rectangle" class="cls-1" d="M3,0H67a2.9,2.9,0,0,1,3,3V67a2.9,2.9,0,0,1-3,3H3a2.9,2.9,0,0,1-3-3V3A2.9,2.9,0,0,1,3,0Z"/>
  <path class="cls-2" d="M56.9,10H13.1A3,3,0,0,0,10,12.9a3,3,0,0,0,3.1,3h.2V31.5a5,5,0,0,0,5.1,4.8h2.2v3.1H18.4a3.1,3.1,0,0,0-3.1,2.8,2.9,2.9,0,0,0,2.8,3A16.4,16.4,0,0,0,28.8,58.9l2.3.7a20.5,20.5,0,0,0,7.8,0l2.3-.7A16.4,16.4,0,0,0,51.9,45.2a2.9,2.9,0,0,0,2.8-3,3.1,3.1,0,0,0-3.1-2.8H49.4V36.3h2.2a5,5,0,0,0,5.1-4.8V15.9h.2a3,3,0,0,0,3.1-3A3,3,0,0,0,56.9,10ZM35,58c-7.6,0-14-5.5-14.8-12.7H49.8C49,52.5,42.6,58,35,58ZM51.6,41.4a.9.9,0,1,1,0,1.8H18.4a.9.9,0,1,1,0-1.8ZM35,20.4c-6.1,0-11.2,4.8-11.2,10.7v8.3h-1V31.1A12,12,0,0,1,35,19.4,12,12,0,0,1,47.2,31.1v8.3h-1V31.1C46.2,25.2,41.1,20.4,35,20.4Zm9,10.7v8.3H26V31.1a9,9,0,0,1,18,0Zm10.5.4a2.9,2.9,0,0,1-2.9,2.8H49.4V31.1c0-7.6-6.5-13.8-14.4-13.8S20.6,23.5,20.6,31.1v3.2H18.4a2.9,2.9,0,0,1-2.9-2.8V15.9h39Zm2.4-17.7H13.1a.9.9,0,1,1,0-1.8H56.9a.9.9,0,1,1,0,1.8Z"/>
</svg>
