<svg id="Layer_1" data-name="Layer 1" xmlns="http://www.w3.org/2000/svg" xmlns:xlink="http://www.w3.org/1999/xlink" width="70" height="70" viewBox="0 0 70 70">
  <defs>
    <style>
      .cls-1 {
        fill: #f6f6f6;
      }

      .cls-2 {
        fill: url(#linear-gradient);
      }

      .cls-3 {
        fill: url(#linear-gradient-2);
      }

      .cls-4 {
        fill: url(#linear-gradient-3);
      }

      .cls-5 {
        fill: url(#linear-gradient-4);
      }

      .cls-6 {
        fill: url(#linear-gradient-5);
      }
    </style>
    <linearGradient id="linear-gradient" x1="48.43" y1="86.83" x2="-1.24" y2="-0.83" gradientUnits="userSpaceOnUse">
      <stop offset="0" stop-color="#75c9b9"/>
      <stop offset="1" stop-color="#72bde5"/>
    </linearGradient>
    <linearGradient id="linear-gradient-2" x1="52.99" y1="84.25" x2="3.33" y2="-3.42" xlink:href="#linear-gradient"/>
    <linearGradient id="linear-gradient-3" x1="57.41" y1="81.74" x2="7.75" y2="-5.92" xlink:href="#linear-gradient"/>
    <linearGradient id="linear-gradient-4" x1="55.85" y1="82.63" x2="6.18" y2="-5.04" xlink:href="#linear-gradient"/>
    <linearGradient id="linear-gradient-5" x1="58.2" y1="81.3" x2="8.53" y2="-6.37" xlink:href="#linear-gradient"/>
  </defs>
  <title>icon_housekeeping_H0</title>
  <path id="Rectangle" class="cls-1" d="M3,0H67a2.9,2.9,0,0,1,3,3V67a2.9,2.9,0,0,1-3,3H3a2.9,2.9,0,0,1-3-3V3A2.9,2.9,0,0,1,3,0Z"/>
  <g>
    <path class="cls-2" d="M10,24.7h4.6v-.2h.1v-.2h0v-.2h-.2v-.2h-.1V22h0v-.2h0v-.2h-.1v-.2H10v2h0v.4h0v.9h0v.2h0v.4Zm3.2-1.4v.2H11.5v-.2h0v-.2h1.7Zm-1.7-1.8h1.7v.2H11.5Z"/>
    <polygon class="cls-3" points="20.5 22.7 20.5 22.6 20.6 22.2 20.6 22.1 20.5 21.7 20.5 21.6 20.5 21.2 20.5 21.1 20.5 20.7 20.5 20.5 20.6 20.3 20.6 20.1 20.5 20 20.5 20 20.4 20 20.3 20 20.2 20 19.9 20 19.7 20 19.3 20 19.2 20 19.1 20 19.1 20 19.1 20.2 19.1 20.6 19.1 20.8 19.1 21.2 19.1 21.3 19 21.8 19 21.9 19 22 18.9 22 18.9 22 18.8 22 18.3 22 17.9 22 17.8 22 17.5 22 17.4 22 17.3 22 17.2 22 17.2 22 17.1 21.9 17.1 21.8 17.1 21.2 17.1 20.8 17.1 20.6 17.2 20.3 17.2 20.2 17.2 20.1 17.1 20 17.1 20 17 20 16.9 20 16.7 20 16.4 20 16.3 20 16 20 15.9 20 15.8 20 15.7 20 15.6 20.1 15.6 20.1 15.6 20.3 15.6 20.5 15.7 20.7 15.7 21.1 15.7 21.2 15.6 21.6 15.6 21.7 15.6 22.2 15.6 22.6 15.6 22.7 15.7 23.1 15.7 23.2 15.6 23.6 15.6 23.7 15.6 24.1 15.6 24.7 15.6 24.9 15.6 25.1 15.6 25.1 15.6 25.2 15.7 25.2 15.7 25.3 15.8 25.3 15.9 25.3 16 25.3 16.3 25.3 16.4 25.3 16.8 25.3 16.9 25.3 17 25.3 17.1 25.3 17.1 25.2 17.2 25.1 17.2 25 17.1 24.6 17.1 24.5 17.1 24 17.1 23.9 17.1 23.5 17.1 23.3 17.2 23.3 17.3 23.3 17.3 23.3 17.7 23.3 18.3 23.3 18.4 23.3 18.7 23.3 18.9 23.3 19 23.3 19 23.3 19 23.5 19 23.9 19 24 19 24.5 19 24.6 19.1 25.1 19.1 25.2 19.1 25.3 19.2 25.3 19.3 25.3 19.7 25.3 19.9 25.3 20.3 25.3 20.4 25.3 20.4 25.3 20.5 25.2 20.5 25.1 20.5 25 20.5 24.9 20.5 24.7 20.5 24.6 20.5 24.1 20.5 23.7 20.5 23.6 20.5 23.2 20.5 23.1 20.5 22.7"/>
    <polygon class="cls-4" points="22.2 20 22 20 21.8 20 21.7 20 21.6 20 21.6 20 21.6 20.1 21.6 20.5 21.6 20.6 21.6 21.5 21.6 21.7 21.6 22.1 21.6 22.2 21.6 22.6 21.6 23.1 21.6 23.2 21.6 23.6 21.6 23.7 21.6 24.3 21.6 24.7 21.6 24.8 21.6 25 21.6 25.1 21.6 25.2 21.6 25.2 21.6 25.3 21.7 25.3 22 25.3 22.2 25.3 22.5 25.3 22.7 25.3 23 25.3 23 25.3 23.1 25.2 23.1 25.2 23.1 25.1 23.1 25 23.1 24.8 23.1 24.7 23.1 24.3 23.1 23.8 23.1 23.7 23.2 23.6 23.2 23.6 23.2 23.7 23.3 23.8 23.6 24.1 23.6 24.2 23.9 24.5 24 24.5 24.2 24.9 24.3 25 24.5 25.2 24.6 25.3 24.7 25.3 25.2 25.3 25.3 25.3 25.7 25.3 25.9 25.3 26.3 25.3 26.3 25.3 26.4 25.3 26.4 25.2 26.4 25.2 26.4 25.1 26.1 24.8 26 24.7 25.7 24.4 25.6 24.3 25.3 24 25.2 23.9 25 23.5 24.9 23.4 24.6 23.1 24.5 23 24.2 22.7 24.2 22.6 24.1 22.6 24.2 22.5 24.2 22.5 24.3 22.4 24.5 22.2 24.6 22.1 24.8 21.8 24.9 21.7 25.2 21.4 25.2 21.3 25.5 21 25.6 20.9 25.9 20.5 25.9 20.5 26.2 20.1 26.3 20.1 26.3 20.1 26.3 20 26.2 20 26.1 20 25.9 20 25.8 20 25.5 20 25 20 24.9 20 24.6 20 24.5 20 24.4 20.1 24.2 20.4 24.1 20.5 23.9 20.8 23.5 21.2 23.2 21.6 23.2 21.6 23.1 21.6 23.1 21.5 23.1 21.1 23.1 21 23.1 20.6 23.1 20.5 23.1 20.3 23.1 20.2 23.1 20.1 23.1 20 23 20 23 20 22.6 20 22.5 20 22.2 20"/>
    <polygon class="cls-5" points="18.4 16.1 18.3 16.3 18.3 16.4 18.2 16.5 18.1 16.5 18 16.6 17.9 16.7 17.7 16.7 17.4 16.8 17.2 16.8 17 16.7 16.9 16.7 16.7 16.6 16.6 16.6 16.4 16.5 16.4 16.5 16.2 16.3 16.2 16.3 16.1 16.1 16 16 16 15.9 15.9 15.8 15.7 15.8 15.5 15.8 15 15.8 14.8 15.8 14.4 15.8 14 15.8 13.8 15.8 13.7 15.9 13.7 16 13.8 16.3 13.8 16.4 13.9 16.7 14 16.8 14 17.1 14.1 17.2 14.2 17.4 14.3 17.5 14.5 17.7 14.8 17.9 15 18 15.2 18.2 15.4 18.2 15.5 18.3 15.7 18.4 16 18.4 16.1 18.5 16.3 18.5 16.5 18.5 16.9 18.5 17.5 18.6 17.7 18.6 17.9 18.5 18.1 18.5 18.3 18.5 18.5 18.4 18.7 18.4 18.9 18.3 19.1 18.3 19.3 18.2 19.5 18.1 19.6 18 19.9 17.8 20 17.7 20.1 17.6 20.3 17.5 20.3 17.4 20.4 17.3 20.6 17 20.6 17 20.7 16.8 20.7 16.6 20.7 16.4 20.8 16.2 20.8 16 20.7 15.9 20.7 15.7 20.7 15.5 20.6 15.3 20.5 15.1 20.4 14.9 20.3 14.8 20.2 14.7 20.1 14.6 19.8 14.4 19.8 14.3 19.8 14.2 19.9 14.1 20.1 14 20.2 13.8 20.3 13.6 20.5 13.3 20.5 13.2 20.5 13.1 20.6 13 20.6 12.9 20.6 12.7 20.6 12.5 20.5 12.3 20.5 12.1 20.4 12 20.3 11.8 20.3 11.6 20.2 11.5 20.1 11.4 20 11.3 19.9 11.1 19.7 11 19.6 10.9 19.4 10.8 19.2 10.7 19.1 10.7 18.8 10.6 18.7 10.5 18.5 10.5 18.3 10.4 18.1 10.4 17.6 10.3 17.3 10.3 17.1 10.3 16.9 10.3 16.7 10.3 16.4 10.4 16.2 10.4 16 10.4 15.8 10.5 15.6 10.5 15.4 10.6 15.3 10.7 15.1 10.8 14.9 10.9 14.8 11 14.6 11.1 14.5 11.3 14.3 11.4 14.2 11.6 14.2 11.7 14.1 12 14 12.3 13.9 12.4 13.9 12.7 13.9 12.8 13.9 12.9 14 12.9 14.1 12.9 14.4 12.9 14.5 13 14.9 12.9 15 12.9 15.5 13 15.8 13 15.9 12.9 16 12.9 16.1 12.7 16.2 12.6 16.2 12.5 16.4 12.4 16.4 12.4 16.6 12.3 16.7 12.3 16.8 12.2 17.1 12.2 17.3 12.2 17.5 12.2 17.7 12.2 17.9 12.3 18 12.3 18.2 12.5 18.2 12.6 18.3 12.8 18.3 12.9 18.3 13 18.3 13.1 18.2 13.2 18.1 13.3 18 13.4 17.8 13.5 17.7 13.5 17.5 13.5 17.3 13.6 17.1 13.6 17.1 13.6 16.9 13.6 16.5 13.5 16.4 13.5 16 13.6 15.9 13.6 15.9 13.7 15.8 13.8 15.8 14 15.8 14.3 15.8 14.4 15.8 14.6 15.8 14.7 15.9 14.9 15.9 15 16 15.1 16.1 15.2 16.4 15.2 16.6 15.2 17 15.1 17.2 15.1 17.4 15.1 17.6 15.2 17.8 15.2 17.9 15.3 18 15.3 18.2 15.4 18.3 15.6 18.3 15.6 18.4 15.8 18.4 15.9 18.4 16.1 18.4 16.1"/>
    <path class="cls-6" d="M54.5,31.5a4.5,4.5,0,0,0-2.9-1.2h-.5a4.1,4.1,0,0,0-3.9-2.7,4.3,4.3,0,0,0-3.8,2.3A3.2,3.2,0,0,0,40.5,28a3.3,3.3,0,0,0-3.3,3.3,3.4,3.4,0,0,0-2.5,2.5H31.3V27.5a.7.7,0,0,0-.7-.7.8.8,0,0,0-.8.7V48.4h-.4V18h.4v6.2a.8.8,0,0,0,.8.7.7.7,0,0,0,.7-.7V11a1.3,1.3,0,0,0-1.2-1.3h-.9A1.3,1.3,0,0,0,27.9,11V33.8h-.5A1.2,1.2,0,0,0,26.2,35v4a1.2,1.2,0,0,0,1.2,1.2h.5v8.2h-.1a1.2,1.2,0,0,0-1.2,1.2v2.6H23.9a1.2,1.2,0,0,0-1.2,1.2v1.4h-2a2.1,2.1,0,0,0-2.2,2.1,2.3,2.3,0,0,0,.9,1.8l-.3.3a.9.9,0,0,0,0,1,.9.9,0,0,0,.6.3c.2,0,.3-.1.5-.3l.9-.9h.5a.6.6,0,0,0,.1.9.6.6,0,0,0,1,0l.9-.9h.5a.6.6,0,0,0,.1.9.6.6,0,0,0,1,0l1-.9h.4a.6.6,0,0,0,.1.9.6.6,0,0,0,1,0l1-.9H29v.4a.9.9,0,0,0,.8.8.8.8,0,0,0,.7-.8v-.4h.4l.9.9a.9.9,0,0,0,.6.3c.2,0,.3-.1.5-.3a.7.7,0,0,0,.1-.9h.4l1,.9a.6.6,0,0,0,1,0,.6.6,0,0,0,.1-.9h.4l1,.9a.6.6,0,0,0,1,0,.6.6,0,0,0,.1-.9h.4l1,.9a.6.6,0,0,0,1,0,.7.7,0,0,0,0-1l-.4-.4.5-.7h5.4a.7.7,0,1,0,0-1.4H40.7a2.1,2.1,0,0,0-2.1-1.7H36.5V53.4a1.2,1.2,0,0,0-1.2-1.2H32.7V49.6a1.3,1.3,0,0,0-1.3-1.2h-.1V40.2h25L54.4,50.4l-9.2-4.9a4,4,0,0,0-3.9-3.8,4,4,0,1,0,0,7.9,4.6,4.6,0,0,0,2-.5l10.4,5.5-.3,1.5c0,.2-.3.4-.4.4H49.9a.7.7,0,1,0,0,1.4H53a1.8,1.8,0,0,0,1.8-1.5l.3-1.4a2.1,2.1,0,0,0,1.6-1.1,2.1,2.1,0,0,0-.8-2.7h-.1l2-11h1A1.3,1.3,0,0,0,60,39V37.1a1.3,1.3,0,0,0-1.2-1.3h-.7a3.2,3.2,0,0,0-1-1.9,4.2,4.2,0,0,0-1.6-.9A4.4,4.4,0,0,0,54.5,31.5ZM29.4,11.2h.4v5.3h-.4ZM28.1,49.9h3.1v2.3H28.1Zm-.4-14.7h.2v1.4h-.2Zm0,3.5v-.6h.2v.6ZM35,53.6v1.2h-.8a.7.7,0,0,0-.8.7.8.8,0,0,0,.8.8h4.4a.6.6,0,0,1,.6.6.7.7,0,0,1-.6.7H20.7a.7.7,0,0,1-.7-.7.7.7,0,0,1,.7-.6h9.6a.9.9,0,0,0,.8-.8.8.8,0,0,0-.8-.7H24.2V53.6Zm6.3-5.5a2.5,2.5,0,1,1,2.2-3.5l-.8-.4a1.7,1.7,0,0,0-1-.3A1.8,1.8,0,0,0,40,45a1.9,1.9,0,0,0,.8,2.7l.8.4Zm14.1,5.1a.5.5,0,0,1-.5.3c-.1,0-.2,0-.2-.1l-13.2-7-.3-.3a.6.6,0,0,1,.1-.4c.1-.2.2-.3.4-.3H42l13.2,7A.6.6,0,0,1,55.4,53.2ZM47.2,29a2.8,2.8,0,0,1,2.5,1.8l-1.1.7c0,.1-.1.2-.2.3h-.7a3.4,3.4,0,0,0-1.7.5,3.6,3.6,0,0,0-1.4-1.1A2.7,2.7,0,0,1,47.2,29Zm-9.5,3.7H38a1.6,1.6,0,0,1,1.1.5.9.9,0,0,0,1.1-.1.8.8,0,0,0-.1-1,2.9,2.9,0,0,0-1.4-.8,1.8,1.8,0,1,1,3.6,0v.2c0,.2,0,.5.2.6s.4.3.6.2h.2A1.9,1.9,0,0,1,45,33.5a2.1,2.1,0,0,0-.3,1.2.8.8,0,0,0,.8.7.7.7,0,0,0,.7-.7,1.9,1.9,0,0,1,.2-.8h.1a1.4,1.4,0,0,1,1.2-.6,1.4,1.4,0,0,1,1.4,1.5.8.8,0,0,0,.8.7H51a1.5,1.5,0,0,1,.9.4H41.6V35a1.2,1.2,0,0,0-1.2-1.2H36.3A1.8,1.8,0,0,1,37.7,32.7Zm-6.4,2.5h8.9v1.4H31.3Zm27.2,2.1v1.4H31.3v-.6h9.1a1.3,1.3,0,0,0,1.2-.8Zm-1.9-1.5h-3A2.8,2.8,0,0,0,51,33.9h-.5a2.9,2.9,0,0,0-.8-1.4,3.2,3.2,0,0,1,1.9-.7,2.7,2.7,0,0,1,2.6,2.1.7.7,0,0,0,.7.5,2.7,2.7,0,0,1,1.2.6A2.2,2.2,0,0,1,56.6,35.8Z"/>
  </g>
</svg>
