<svg id="Layer_1" data-name="Layer 1" xmlns="http://www.w3.org/2000/svg" xmlns:xlink="http://www.w3.org/1999/xlink" width="374.5" height="89.4" viewBox="0 0 374.5 89.4">
  <defs>
    <style>
      .cls-1 {
        fill: url(#linear-gradient);
      }

      .cls-2, .cls-4, .cls-5 {
        fill: #fff;
      }

      .cls-2 {
        opacity: 0.3;
      }

      .cls-2, .cls-3, .cls-4 {
        isolation: isolate;
      }

      .cls-4 {
        font-size: 16px;
        font-family: Montserrat-Medium, Montserrat;
      }
    </style>
    <linearGradient id="linear-gradient" x1="405.55" y1="126.36" x2="21.53" y2="-32.27" gradientUnits="userSpaceOnUse">
      <stop offset="0" stop-color="#75c8b8"/>
      <stop offset="1" stop-color="#71bbe4"/>
    </linearGradient>
  </defs>
  <title>banner_pumbing_P0</title>
  <g id="Page-1">
    <g id="UI---Screen-7---v2">
      <g id="Group-2">
        <path id="Path-4" class="cls-1" d="M0,72.4C71,74,112,68.2,210.5,71c58.9,1.7,113.3,7.8,164,18.4V0H0Z"/>
        <rect id="Rectangle-Copy-2" class="cls-2" x="23.5" y="22" width="47" height="7" rx="3.3" ry="3.3"/>
        <path id="Rectangle-Copy-4" class="cls-2" d="M189.8,29h40.5a3.3,3.3,0,0,1,3.3,3.3v.5a3.3,3.3,0,0,1-3.2,3.3H189.8a3.2,3.2,0,0,1-3.2-3.2v-.5A3.2,3.2,0,0,1,189.8,29Z"/>
        <rect id="Rectangle-Copy-3" class="cls-2" x="64.5" y="35" width="47" height="7" rx="3.3" ry="3.3"/>
        <rect id="Rectangle-Copy-5" class="cls-2" x="233.5" y="42" width="47" height="7" rx="3.3" ry="3.3"/>
        <g id="sweep">
          <g id="_" data-name="+" class="cls-3">
            <text class="cls-4" transform="translate(358 26)">+</text>
          </g>
          <g id="_-copy" data-name="+-copy" class="cls-3">
            <text class="cls-4" transform="translate(336.5 14)">+</text>
          </g>
        </g>
      </g>
    </g>
  </g>
  <g>
    <path class="cls-5" d="M326.3,42.2c-.4,0-.6.3-.6.7v.6c0,.4.2.7.6.7s.6-.3.6-.7v-.6C326.9,42.5,326.7,42.2,326.3,42.2Z"/>
    <path class="cls-5" d="M328.9,42.2a.7.7,0,0,0-.7.7v3.9a.7.7,0,0,0,.7.6.6.6,0,0,0,.6-.6V42.9A.7.7,0,0,0,328.9,42.2Z"/>
    <path class="cls-5" d="M331.5,42.2a.7.7,0,0,0-.7.7v.6a.7.7,0,0,0,.7.7.7.7,0,0,0,.6-.7v-.6A.7.7,0,0,0,331.5,42.2Z"/>
    <path class="cls-5" d="M334,42.2a.7.7,0,0,0-.6.7v3.9a.6.6,0,0,0,.6.6.7.7,0,0,0,.7-.6V42.9A.7.7,0,0,0,334,42.2Z"/>
    <path class="cls-5" d="M336.6,42.2a.7.7,0,0,0-.6.7v.6a.7.7,0,0,0,.6.7.7.7,0,0,0,.7-.7v-.6A.7.7,0,0,0,336.6,42.2Z"/>
    <path class="cls-5" d="M339.2,42.2a.7.7,0,0,0-.7.7v3.9a.7.7,0,0,0,.7.6.6.6,0,0,0,.6-.6V42.9A.7.7,0,0,0,339.2,42.2Z"/>
    <path class="cls-5" d="M341.8,42.2a.7.7,0,0,0-.7.7v.6a.7.7,0,0,0,.7.7.7.7,0,0,0,.6-.7v-.6A.7.7,0,0,0,341.8,42.2Z"/>
    <path class="cls-5" d="M328.9,48.7a.7.7,0,0,0-.7.6v2a.7.7,0,0,0,.7.6.6.6,0,0,0,.6-.6v-2A.6.6,0,0,0,328.9,48.7Z"/>
    <path class="cls-5" d="M334,48.7a.6.6,0,0,0-.6.6v2a.6.6,0,0,0,.6.6.7.7,0,0,0,.7-.6v-2A.7.7,0,0,0,334,48.7Z"/>
    <path class="cls-5" d="M339.2,48.7a.7.7,0,0,0-.7.6v2a.7.7,0,0,0,.7.6.6.6,0,0,0,.6-.6v-2A.6.6,0,0,0,339.2,48.7Z"/>
    <path class="cls-5" d="M344.3,48.7a.6.6,0,0,0-.6.6v2a.6.6,0,0,0,.6.6.7.7,0,0,0,.7-.6v-2A.7.7,0,0,0,344.3,48.7Z"/>
    <path class="cls-5" d="M344.3,42.2a.7.7,0,0,0-.6.7v3.9a.6.6,0,0,0,.6.6.7.7,0,0,0,.7-.6V42.9A.7.7,0,0,0,344.3,42.2Z"/>
    <path class="cls-5" d="M326.3,45.5a.6.6,0,0,0-.6.6V50a.6.6,0,0,0,1.2,0V46.1A.6.6,0,0,0,326.3,45.5Z"/>
    <path class="cls-5" d="M331.5,45.5a.7.7,0,0,0-.7.6V50a.7.7,0,0,0,.7.6.6.6,0,0,0,.6-.6V46.1A.6.6,0,0,0,331.5,45.5Z"/>
    <path class="cls-5" d="M336.6,45.5a.6.6,0,0,0-.6.6V50a.6.6,0,0,0,.6.6.7.7,0,0,0,.7-.6V46.1A.7.7,0,0,0,336.6,45.5Z"/>
    <path class="cls-5" d="M341.8,45.5a.7.7,0,0,0-.7.6V50a.7.7,0,0,0,.7.6.6.6,0,0,0,.6-.6V46.1A.6.6,0,0,0,341.8,45.5Z"/>
    <path class="cls-5" d="M326.8,52.1h-.6c-.1,0-.1,0-.1.1h-.2a.1.1,0,0,1-.1.1c0,.1-.1.1-.1.2v.3a.6.6,0,0,0,.4.6.7.7,0,0,0,.7-.2.9.9,0,0,0,.1-.7C326.9,52.2,326.8,52.2,326.8,52.1Z"/>
    <path class="cls-5" d="M331.9,52.1a.7.7,0,0,0-.9,0v.2a.6.6,0,0,0,.1.7h.2a.6.6,0,0,0,.8-.8Z"/>
    <path class="cls-5" d="M337.1,52.1a.1.1,0,0,1-.1-.1h-.9c0,.1-.1.1-.1.2a.9.9,0,0,0,.1.7h.3a.6.6,0,0,0,.7-.1.9.9,0,0,0,.1-.7C337.2,52.2,337.1,52.2,337.1,52.1Z"/>
    <path class="cls-5" d="M342.2,52.1a.7.7,0,0,0-.9,0v.2a.4.4,0,0,0-.1.3.8.8,0,0,0,.2.4h.2a.6.6,0,0,0,.6,0,.5.5,0,0,0,.3-.5v-.3Z"/>
    <path class="cls-5" d="M335,15.2a25,25,0,1,0,25,25A24.9,24.9,0,0,0,335,15.2Zm21.5,15.4c-2.1-.3-5.1-2-5.1-3.8V23.3A21.9,21.9,0,0,1,356.5,30.6Zm-30.2,6.5a7.1,7.1,0,0,1,7.1-6.4h3.9a7,7,0,0,1,7,6.4ZM345,38.4a.6.6,0,0,1,.6.6.7.7,0,0,1-.6.7H325.7a.7.7,0,0,1-.7-.7.7.7,0,0,1,.7-.6Zm-11.5-9c.2-.7.7-1.3,1.2-1.3H336c.4,0,.9.6,1.1,1.3Zm3.1-5.8a.6.6,0,0,0-.6.6v2.6h-1.3V24.2a1.8,1.8,0,0,1,1.9-1.9h13.5v1.3ZM335,63.7a23.6,23.6,0,1,1,0-47.1A23.3,23.3,0,0,1,348.7,21H336.6a3.2,3.2,0,0,0-3.2,3.2v3.1a3.2,3.2,0,0,0-1.2,2.2,8.5,8.5,0,0,0-7.2,7.7,1.8,1.8,0,0,0-1.2,2.1,1.9,1.9,0,0,0,1.9,1.7H345a2,2,0,0,0,1.9-1.7,2,2,0,0,0-1.3-2.1,8.4,8.4,0,0,0-7.1-7.7,4.3,4.3,0,0,0-1.2-2.2V24.9h12.8v1.9c0,2.9,4.2,5.1,7,5.1a25.4,25.4,0,0,1,1.5,8.3A23.6,23.6,0,0,1,335,63.7Z"/>
  </g>
</svg>
