<svg id="Layer_1" data-name="Layer 1" xmlns="http://www.w3.org/2000/svg" xmlns:xlink="http://www.w3.org/1999/xlink" width="70" height="70" viewBox="0 0 70 70">
  <defs>
    <style>
      .cls-1 {
        fill: #f6f6f6;
      }

      .cls-2 {
        fill: url(#linear-gradient);
      }

      .cls-3 {
        fill: url(#linear-gradient-2);
      }

      .cls-4 {
        fill: url(#linear-gradient-3);
      }

      .cls-5 {
        fill: url(#linear-gradient-4);
      }

      .cls-6 {
        fill: url(#linear-gradient-5);
      }

      .cls-7 {
        fill: url(#linear-gradient-6);
      }

      .cls-8 {
        fill: url(#linear-gradient-7);
      }
    </style>
    <linearGradient id="linear-gradient" x1="53.77" y1="76.59" x2="11.08" y2="4.41" gradientUnits="userSpaceOnUse">
      <stop offset="0" stop-color="#75c9b9"/>
      <stop offset="1" stop-color="#72bde5"/>
    </linearGradient>
    <linearGradient id="linear-gradient-2" x1="71.25" y1="66.25" x2="28.55" y2="-5.92" xlink:href="#linear-gradient"/>
    <linearGradient id="linear-gradient-3" x1="67.3" y1="68.58" x2="24.61" y2="-3.59" xlink:href="#linear-gradient"/>
    <linearGradient id="linear-gradient-4" x1="37.15" y1="86.42" x2="-5.55" y2="14.25" xlink:href="#linear-gradient"/>
    <linearGradient id="linear-gradient-5" x1="39.81" y1="84.85" x2="-2.88" y2="12.67" xlink:href="#linear-gradient"/>
    <linearGradient id="linear-gradient-6" x1="54.09" y1="76.4" x2="11.39" y2="4.23" xlink:href="#linear-gradient"/>
    <linearGradient id="linear-gradient-7" x1="56.75" y1="74.83" x2="14.06" y2="2.65" xlink:href="#linear-gradient"/>
  </defs>
  <title>icon_plumbing_P0</title>
  <path id="Rectangle" class="cls-1" d="M3,0H67a2.9,2.9,0,0,1,3,3V67a2.9,2.9,0,0,1-3,3H3a2.9,2.9,0,0,1-3-3V3A2.9,2.9,0,0,1,3,0Z"/>
  <g>
    <path class="cls-2" d="M27.2,61.7H57V60.1H50V48.7a2.6,2.6,0,0,0-2.6-2.6H40.3a2.6,2.6,0,0,0-2.7,2.6V60.1H36.1V22.2a6.6,6.6,0,0,1,13.1-.6,2.3,2.3,0,0,0-1.2,2V27a2.1,2.1,0,0,0,2.1,2.2h5.5A2.2,2.2,0,0,0,57.8,27V23.6a2.2,2.2,0,0,0-1.3-2,13.9,13.9,0,0,0-27.8.6V38.7h1.6V22.2a12.3,12.3,0,0,1,24.6-.8H50.8A8.2,8.2,0,0,0,42.6,14a8.2,8.2,0,0,0-8.1,8.2V60.1H30.3V40.8H28.7V60.1H27.2V48.7a2.6,2.6,0,0,0-2.7-2.6H17.4a2.6,2.6,0,0,0-2.6,2.6V60.1h-7v1.6H27.2Zm12-13a1.1,1.1,0,0,1,1.1-1.1h7.1a1,1,0,0,1,1,1.1v1.7H39.2Zm0,3.2h9.2v8.2H39.2ZM49.5,23.6a.6.6,0,0,1,.6-.6h5.5a.6.6,0,0,1,.6.6v.9H49.5Zm0,2.5h6.7V27a.6.6,0,0,1-.6.6H50.1a.6.6,0,0,1-.6-.6ZM16.4,48.7a1,1,0,0,1,1-1.1h7.1a1.1,1.1,0,0,1,1.1,1.1v1.7H16.4Zm0,3.2h9.2v8.2H16.4Z"/>
    <path class="cls-3" d="M53.4,31l-.5-.5-.6.5c-.1.1-2.2,2.2-2.2,4.4a2.8,2.8,0,0,0,2.8,2.8,2.9,2.9,0,0,0,2.8-2.8C55.7,33.2,53.5,31.1,53.4,31Zm-.5,5.6a1.2,1.2,0,0,1-1.2-1.2,4.2,4.2,0,0,1,1.2-2.6,4.8,4.8,0,0,1,1.2,2.6A1.2,1.2,0,0,1,52.9,36.6Z"/>
    <path class="cls-4" d="M53.4,40l-.5-.5-.6.5c-.1.1-2.2,2.2-2.2,4.4a2.8,2.8,0,0,0,2.8,2.8,2.9,2.9,0,0,0,2.8-2.8C55.7,42.2,53.5,40.1,53.4,40Zm-.5,5.6a1.2,1.2,0,0,1-1.2-1.2,4.2,4.2,0,0,1,1.2-2.6,4.8,4.8,0,0,1,1.2,2.6A1.2,1.2,0,0,1,52.9,45.6Z"/>
    <rect class="cls-5" x="18.4" y="53.6" width="1.6" height="4.77"/>
    <rect class="cls-6" x="22" y="53.6" width="1.6" height="4.77"/>
    <rect class="cls-7" x="41.2" y="53.6" width="1.6" height="4.77"/>
    <rect class="cls-8" x="44.8" y="53.6" width="1.6" height="4.77"/>
  </g>
</svg>
