<svg id="Layer_1" data-name="Layer 1" xmlns="http://www.w3.org/2000/svg" xmlns:xlink="http://www.w3.org/1999/xlink" width="70" height="70" viewBox="0 0 70 70">
  <defs>
    <style>
      .cls-1 {
        fill: #f6f6f6;
      }

      .cls-2 {
        fill: url(#linear-gradient);
      }

      .cls-3 {
        fill: url(#linear-gradient-2);
      }

      .cls-4 {
        fill: url(#linear-gradient-3);
      }

      .cls-5 {
        fill: url(#linear-gradient-4);
      }

      .cls-6 {
        fill: url(#linear-gradient-5);
      }
    </style>
    <linearGradient id="linear-gradient" x1="37.18" y1="72.19" x2="4.35" y2="8.3" gradientUnits="userSpaceOnUse">
      <stop offset="0" stop-color="#75c9b9"/>
      <stop offset="1" stop-color="#72bde5"/>
    </linearGradient>
    <linearGradient id="linear-gradient-2" x1="42.09" y1="69.66" x2="9.26" y2="5.78" xlink:href="#linear-gradient"/>
    <linearGradient id="linear-gradient-3" x1="46.85" y1="67.22" x2="14.03" y2="3.33" xlink:href="#linear-gradient"/>
    <linearGradient id="linear-gradient-4" x1="45.11" y1="68.11" x2="12.29" y2="4.22" xlink:href="#linear-gradient"/>
    <linearGradient id="linear-gradient-5" x1="53.75" y1="69.02" x2="17.45" y2="2.24" xlink:href="#linear-gradient"/>
  </defs>
  <title>icon_housekeeping_H0</title>
  <path id="Rectangle" class="cls-1" d="M3,0H67a2.9,2.9,0,0,1,3,3V67a2.9,2.9,0,0,1-3,3H3a2.9,2.9,0,0,1-3-3V3A2.9,2.9,0,0,1,3,0Z"/>
  <g>
    <path class="cls-2" d="M10,25.6h4.7v-.2h.1v-.2h0v-.2h-.3v-.2h0v-.2h.1v-.2h0V22h0v-.2H10v.4h0v.4h0v1h0v.4h0v.9h0v.2h0v.6Zm3.3-1.4H11.5v-.2h0v-.2h1.8Zm-1.8-1.9v-.2h1.8v.2H11.5Z"/>
    <polygon class="cls-3" points="17.4 21.5 17.4 21.4 17.4 21 17.4 20.9 17.4 20.9 17.4 20.8 17.3 20.7 17.2 20.7 17.1 20.7 17 20.7 16.7 20.7 16.5 20.7 16.2 20.7 16.1 20.7 16 20.7 15.9 20.7 15.8 20.8 15.8 20.9 15.8 21 15.8 21.3 15.8 21.4 15.8 21.8 15.8 21.9 15.8 22.3 15.8 22.5 15.8 23 15.8 23.4 15.8 23.5 15.8 23.9 15.8 24 15.8 24.4 15.8 24.6 15.8 25 15.8 25.6 15.8 25.8 15.8 25.9 15.8 26 15.8 26.1 15.8 26.1 15.9 26.2 16 26.2 16.1 26.2 16.2 26.2 16.5 26.2 16.7 26.2 17 26.2 17.1 26.2 17.2 26.2 17.3 26.2 17.4 26.1 17.4 26 17.4 25.8 17.4 25.5 17.4 25.4 17.4 24.9 17.4 24.8 17.4 24.3 17.4 24.2 17.4 24.1 17.5 24.1 17.6 24.1 18 24.1 18.6 24.1 18.7 24.1 19 24.1 19.2 24.1 19.3 24.1 19.3 24.2 19.3 24.3 19.3 24.8 19.3 24.9 19.3 25.4 19.3 25.5 19.4 26 19.4 26.1 19.4 26.2 19.5 26.2 19.6 26.2 20 26.2 20.2 26.2 20.6 26.2 20.7 26.2 20.8 26.2 20.8 26.1 20.9 26 20.9 25.9 20.9 25.8 20.9 25.6 20.8 25.5 20.8 25 20.9 24.6 20.9 24.4 20.8 24 20.8 23.9 20.9 23.5 20.9 23.4 20.9 23 20.9 22.9 20.9 22.5 20.9 22.3 20.9 21.9 20.9 21.8 20.9 21.4 20.9 21.3 20.9 21 20.9 20.9 20.9 20.8 20.8 20.7 20.7 20.7 20.6 20.7 20.5 20.7 20.2 20.7 20 20.7 19.6 20.7 19.5 20.7 19.4 20.7 19.4 20.8 19.3 20.9 19.3 21.4 19.3 21.5 19.4 22 19.4 22.1 19.3 22.6 19.3 22.7 19.3 22.8 19.2 22.8 19.2 22.8 19 22.8 18.6 22.8 18.1 22.8 18 22.8 17.7 22.8 17.6 22.8 17.5 22.8 17.4 22.8 17.4 22.8 17.4 22.7 17.4 22.6 17.4 22 17.4 21.5"/>
    <polygon class="cls-4" points="21.9 25.7 21.9 25.9 21.9 26 21.9 26.1 22 26.1 22 26.2 22 26.2 22.4 26.2 22.5 26.2 22.9 26.2 23.1 26.2 23.4 26.2 23.5 26.2 23.5 26.1 23.5 26.1 23.5 26 23.5 25.8 23.5 25.7 23.5 25.5 23.5 25.1 23.5 24.6 23.5 24.5 23.6 24.5 23.6 24.5 23.7 24.6 23.7 24.7 24 24.9 24.1 25 24.4 25.3 24.4 25.4 24.7 25.8 24.7 25.8 25 26.1 25.1 26.2 25.1 26.2 25.6 26.2 25.8 26.2 26.2 26.2 26.4 26.2 26.8 26.2 26.9 26.2 26.9 26.2 26.9 26.1 27 26.1 26.9 26 26.6 25.7 26.5 25.6 26.2 25.3 26.1 25.2 25.8 24.8 25.7 24.7 25.4 24.4 25.4 24.3 25 23.9 24.9 23.9 24.7 23.5 24.6 23.4 24.6 23.4 24.6 23.3 24.7 23.3 24.7 23.2 24.9 23 25 22.9 25.3 22.6 25.4 22.5 25.6 22.1 25.7 22.1 26 21.7 26.1 21.6 26.4 21.3 26.4 21.2 26.7 20.9 26.8 20.8 26.8 20.8 26.8 20.8 26.7 20.7 26.7 20.7 26.4 20.7 26.2 20.7 26 20.7 25.5 20.7 25.4 20.7 25 20.7 25 20.7 24.9 20.8 24.6 21.1 24.6 21.2 24.3 21.5 23.9 22 23.7 22.3 23.6 22.4 23.5 22.4 23.5 22.3 23.5 21.9 23.5 21.8 23.5 21.4 23.5 21.3 23.5 21 23.5 20.9 23.5 20.8 23.5 20.8 23.4 20.7 23.4 20.7 23 20.7 22.9 20.7 22.5 20.7 22.4 20.7 22.2 20.7 22.1 20.7 22 20.7 22 20.8 22 20.9 21.9 21.3 21.9 21.4 22 22.3 22 22.5 21.9 22.9 21.9 23 22 23.4 22 23.9 22 24.1 21.9 24.5 21.9 24.6 21.9 25.1 22 25.5 21.9 25.7"/>
    <polygon class="cls-5" points="14.2 17.1 14.3 17.3 14.3 17.5 14.4 17.7 14.5 17.9 14.6 18 14.7 18.2 14.9 18.4 15 18.5 15.2 18.6 15.3 18.7 15.6 18.9 15.7 18.9 15.9 19 16.1 19.1 16.4 19.1 16.5 19.1 16.9 19.2 17.1 19.2 17.3 19.2 17.5 19.2 17.7 19.2 17.9 19.2 18.1 19.2 18.4 19.2 18.5 19.2 18.7 19.1 18.9 19.1 19.1 19 19.3 18.9 19.5 18.8 19.7 18.7 19.8 18.6 20.2 18.4 20.3 18.2 20.6 17.9 20.7 17.8 20.8 17.6 20.9 17.4 20.9 17.2 21 17 21 16.8 21 16.6 21 16.4 21 16.2 21 16 20.9 15.8 20.9 15.6 20.8 15.3 20.7 15.1 20.6 15 20.5 14.8 20.4 14.6 20.1 14.4 19.9 14.3 19.7 14.2 19.6 14.1 19.3 14 19.1 13.9 18.8 13.8 18.5 13.8 18.3 13.8 18 13.8 17.7 13.7 17.5 13.7 16.8 13.8 16.7 13.8 16.5 13.7 16.5 13.5 16.4 13.4 16.5 13 16.5 12.9 16.6 12.8 16.7 12.8 16.9 12.7 17.1 12.7 17.7 12.8 18.4 12.8 19.4 12.8 19.5 12.8 20 12.8 20.2 12.8 20.3 12.8 20.5 12.7 20.5 12.7 20.6 12.5 20.6 12.3 20.6 12.1 20.6 11.7 20.6 11.4 20.6 11.2 20.6 11.1 20.6 11 20.5 10.9 20.4 10.9 20.3 10.9 20 10.9 19.6 10.9 18.6 10.9 18 10.9 16.9 10.8 16.3 10.8 16.1 10.9 15.4 10.9 15.2 10.9 14.8 10.9 14.6 10.9 14.4 10.9 14.3 11 14.3 11.1 14.3 11.2 14.3 11.4 14.3 11.8 14.3 12 14.3 12.7 14.3 12.9 14.3 13.6 14.3 13.8 14.3 14.4 14.3 14.6 14.3 15.3 14.3 15.5 14.4 15.5 14.6 15.6 15.9 15.6 16.1 15.6 16.9 15.6 17.1 15.6 17.5 15.6 17.7 15.6 17.9 15.6 18.1 15.7 18.3 15.7 18.4 15.8 18.6 16 18.7 16.1 18.7 16.2 18.7 16.4 18.7 16.6 18.7 16.8 18.6 16.9 18.5 17.1 18.3 17.2 18.1 17.3 17.9 17.3 17.7 17.3 17.5 17.3 17.3 17.3 17.1 17.3 16.9 17.2 16.8 17.1 16.7 17 16.5 16.8 16.5 16.6 16.4 16.5 16.3 16.4 16.2 16.4 15.9 16.4 15.4 16.4 15.2 16.4 14.7 16.4 14.4 16.4 14.3 16.4 14.2 16.5 14.2 16.7 14.2 16.9 14.2 17.1"/>
    <path class="cls-6" d="M60,59.2,58.7,47.4v-.6h0V44.6a4.2,4.2,0,0,0-4.2-4.2h-.9v-.8a2.3,2.3,0,0,0-2.1-2.3V11.2a2.8,2.8,0,0,0-2.8-2.7,2.7,2.7,0,0,0-2.7,2.7V37.3a1.7,1.7,0,0,0-1,.3l.3-3.1h0a2.8,2.8,0,0,0-.4-1.2,2.1,2.1,0,0,0-1.3-.5h-.1A4.1,4.1,0,0,0,38.6,30,4.2,4.2,0,0,0,35,27.8a4,4,0,0,0-1.5.3,3.8,3.8,0,0,0-2.8-1.2,3.9,3.9,0,0,0-2.8,1.2,4,4,0,0,0-1.5-.3,3.8,3.8,0,0,0-3.5,2.1,4.2,4.2,0,0,0-3.5,1.5H17.8a2.5,2.5,0,0,0-2.5,2.5V46.6a2.5,2.5,0,0,0,2.5,2.5h.5l.9,10a2.5,2.5,0,0,0,2.5,2.4H57.9a2.4,2.4,0,0,0,1.6-.7A1.8,1.8,0,0,0,60,59.2ZM54.8,50a1.1,1.1,0,0,0-1,1.1v8.8h-.5V53.2a1,1,0,0,0-1-1,1,1,0,0,0-1.1,1v6.7h-.5V55.3a1,1,0,0,0-2,0v4.6H45.2V53.2a1,1,0,0,0-1.1-1,1,1,0,0,0-1,1v6.7h-.5V51.1a1.1,1.1,0,0,0-1-1.1,1.1,1.1,0,0,0-1.1,1.1v8.8H39.4l-.4-.2a.4.4,0,0,1-.1-.3l1.3-11.8H57.1l1.3,11.8a1,1,0,0,1-.1.3l-.4.2h-2V51.1A1.1,1.1,0,0,0,54.8,50Zm-37-2.5a.9.9,0,0,1-.9-.9V33.9a4.3,4.3,0,0,0,.1-.5h.1a.8.8,0,0,1,.7-.4h7.7a.9.9,0,0,1,.7.3,1.4,1.4,0,0,1,.2.6v.3h0V46.6a.9.9,0,0,1-.9.9H17.8Zm12.9-19a2.3,2.3,0,0,1,1.9,1,.7.7,0,0,0,1.1.2,2.8,2.8,0,0,1,1.3-.3,2.4,2.4,0,0,1,2.3,1.9l.5.5h.7a2,2,0,0,1,1.1-.3,2.4,2.4,0,0,1,2,1.2h-4v6.6a.8.8,0,0,1-.7.7.7.7,0,0,1-.7-.7V32.7H34.6v1.5h0v1.1a.8.8,0,0,1-.7.7.7.7,0,0,1-.7-.6V32.7H27.7a2.5,2.5,0,0,0-2.2-1.3H23.9l.2-.3a2.5,2.5,0,0,1,2.3-1.7,2.8,2.8,0,0,1,1.3.3.6.6,0,0,0,1-.2A2.6,2.6,0,0,1,30.7,28.5ZM48.6,10.1a1.1,1.1,0,0,1,1.2,1.1V37.3H47.5V11.2A1.1,1.1,0,0,1,48.6,10.1Zm1.2,28.8h1.4a.7.7,0,0,1,.7.7V42H45.4V39.6a.7.7,0,0,1,.7-.7h3.7ZM28,35.5V34.3h3.6v1.3a2,2,0,0,0,.3,1.1,2.5,2.5,0,0,0,2.7.9v.2H30.8l-.4-1.4a.8.8,0,0,0-1-.5.7.7,0,0,0-.5.9l.3,1H28Zm13.9,1.9v.4H39.2V34.3h3l-.3,3Zm-7.3,2a2.2,2.2,0,0,0,2.3,2.2,2.4,2.4,0,0,0,2.3-2.2h2.5v1.2a4.3,4.3,0,0,0-3,3.6V46a8.1,8.1,0,0,1-7.2-5.8l-.2-.8ZM57,46H40.2V44.6a.4.4,0,0,1,.1-.3A2.8,2.8,0,0,1,42,42.1h1.8v.8a.7.7,0,0,0,.8.8h8.1a.8.8,0,0,0,.8-.8V42h.9A2.6,2.6,0,0,1,57,44.6ZM25.5,49.1A2.5,2.5,0,0,0,28,46.6V39.4h1.6l.3,1.2a9.5,9.5,0,0,0,8.6,6.9L37.3,59.2v.7H21.7a1.1,1.1,0,0,1-.9-.9L20,49.1Zm18.3-9.5v.8h-.5v-1h.4Z"/>
  </g>
</svg>
