<svg id="Layer_1" data-name="Layer 1" xmlns="http://www.w3.org/2000/svg" xmlns:xlink="http://www.w3.org/1999/xlink" width="374.5" height="89.4" viewBox="0 0 374.5 89.4">
  <defs>
    <style>
      .cls-1 {
        fill: url(#linear-gradient);
      }

      .cls-2, .cls-4, .cls-5 {
        fill: #fff;
      }

      .cls-2 {
        opacity: 0.3;
      }

      .cls-2, .cls-3, .cls-4 {
        isolation: isolate;
      }

      .cls-4 {
        font-size: 16px;
        font-family: Montserrat-Medium, Montserrat;
      }
    </style>
    <linearGradient id="linear-gradient" x1="405.55" y1="126.36" x2="21.53" y2="-32.27" gradientUnits="userSpaceOnUse">
      <stop offset="0" stop-color="#75c9b9"/>
      <stop offset="1" stop-color="#72bde5"/>
    </linearGradient>
  </defs>
  <title>banner_electrical_E01</title>
  <g id="Page-1">
    <g id="UI---Screen-7---v2">
      <g id="Group-2">
        <path id="Path-4" class="cls-1" d="M0,72.4C71,74,112,68.2,210.5,71c58.9,1.7,113.3,7.8,164,18.4V0H0Z"/>
        <rect id="Rectangle-Copy-2" class="cls-2" x="23.5" y="22" width="47" height="7" rx="3.3" ry="3.3"/>
        <path id="Rectangle-Copy-4" class="cls-2" d="M189.8,29h40.5a3.2,3.2,0,0,1,3.2,3.2v.5a3.2,3.2,0,0,1-3.2,3.2H189.8a3.3,3.3,0,0,1-3.2-3.2v-.5A3.3,3.3,0,0,1,189.8,29Z"/>
        <rect id="Rectangle-Copy-3" class="cls-2" x="64.5" y="35" width="47" height="7" rx="3.3" ry="3.3"/>
        <path id="Rectangle-Copy-5" class="cls-2" d="M236.8,42h40.5a3.2,3.2,0,0,1,3.2,3.2v.5a3.2,3.2,0,0,1-3.2,3.2H236.8a3.3,3.3,0,0,1-3.3-3.3v-.5a3.2,3.2,0,0,1,3.2-3.2Z"/>
        <g id="sweep">
          <g id="_" data-name="+" class="cls-3">
            <text class="cls-4" transform="translate(308.1 26)">+</text>
          </g>
          <g id="_-copy" data-name="+-copy" class="cls-3">
            <text class="cls-4" transform="translate(336.5 14)">+</text>
          </g>
        </g>
      </g>
    </g>
  </g>
  <g>
    <path class="cls-5" d="M322.3,20.7a.7.7,0,0,0-.2-.6l-.5-.3a.8.8,0,0,0-.9.7,2,2,0,0,0-.1.7V54.5a5.3,5.3,0,0,0,5.3,5.3h2.3v1.9h-1.1a1.3,1.3,0,0,0-1.3,1.4v1.5a1.3,1.3,0,0,0,1.3,1.3H331a1.3,1.3,0,0,0,1.3-1.3V63.1a1.3,1.3,0,0,0-1.3-1.4h-1.1V59.8h12.8v1.9h-1.1a1.4,1.4,0,0,0-1.4,1.4v1.5a1.3,1.3,0,0,0,1.4,1.3h3.9a1.3,1.3,0,0,0,1.3-1.3V63.1a1.3,1.3,0,0,0-1.3-1.4h-1.2V59.8h2.3a5.3,5.3,0,0,0,5.3-5.3V21.2a5.3,5.3,0,0,0-5.3-5.3H325.9a5.6,5.6,0,0,0-3.7,1.5.8.8,0,1,0,1.2,1.2,3.5,3.5,0,0,1,2.5-1h20.7a3.7,3.7,0,0,1,3.7,3.6v4.2a2,2,0,0,1-.3,1.1,2,2,0,0,1-.9.9,4.5,4.5,0,0,0-2.2,3.7v2.6a.9.9,0,0,0,.9.9.9.9,0,0,0,.8-.9V31.1a2.8,2.8,0,0,1,1.3-2.3.5.5,0,0,0,.4-.2V47.8l-.4-.3a2.4,2.4,0,0,1-1-1,2.8,2.8,0,0,1-.3-1.3V36.7a.9.9,0,0,0-.8-.9.9.9,0,0,0-.9.9v8.5a4.3,4.3,0,0,0,.6,2.2,6.1,6.1,0,0,0,1.6,1.6,2.3,2.3,0,0,1,1.2,2v3.5a3.7,3.7,0,0,1-3.7,3.6H325.9a3.6,3.6,0,0,1-3.6-3.6V51a2.2,2.2,0,0,1,1.1-2,4.9,4.9,0,0,0,1.6-1.6,4.3,4.3,0,0,0,.6-2.2V31.1a4.2,4.2,0,0,0-2.2-3.7,2.4,2.4,0,0,1-.8-.9,2,2,0,0,1-.3-1.1V20.7Zm0,27.1V28.6l.3.2a2.9,2.9,0,0,1,1.4,2.3V45.2a2.8,2.8,0,0,1-.4,1.3,1.9,1.9,0,0,1-1,1Zm19.6,16.5v-.9h3.2v.9Zm-14.5,0v-.9h3.3v.9Z"/>
    <path class="cls-5" d="M336.3,55.6a4.7,4.7,0,1,0-4.7-4.6A4.7,4.7,0,0,0,336.3,55.6Zm-3-4.6a2.9,2.9,0,0,1,3-3,3,3,0,0,1,3,3,3.1,3.1,0,0,1-3,3A3,3,0,0,1,333.3,51Z"/>
    <path class="cls-5" d="M334.8,51.8h.5a.9.9,0,0,0,.8-.8.8.8,0,0,0-.8-.8h-.5a.8.8,0,0,0-.8.8A.9.9,0,0,0,334.8,51.8Z"/>
    <path class="cls-5" d="M333,32.5a5.2,5.2,0,0,0-.5,2.4,3.8,3.8,0,0,0,7.6,0c0-3.1-3.2-5.8-3.3-5.9a.8.8,0,0,0-1.1,0l-.9.9a.7.7,0,0,0,.1,1.1.6.6,0,0,0,.6.3c.2-.1.4-.1.5-.3l.3-.2a6.5,6.5,0,0,1,2.1,4.1,2.1,2.1,0,0,1-2.1,2.1,2.1,2.1,0,0,1-2.2-2.1,3.5,3.5,0,0,1,.4-1.7.8.8,0,0,0-.4-1.1h0A.8.8,0,0,0,333,32.5Z"/>
    <path class="cls-5" d="M342.3,23.2a.8.8,0,0,0-.8-.8H331a.9.9,0,0,0-.8.8.9.9,0,0,0,.8.9h10.5A.8.8,0,0,0,342.3,23.2Z"/>
  </g>
</svg>
