<svg id="Layer_1" data-name="Layer 1" xmlns="http://www.w3.org/2000/svg" xmlns:xlink="http://www.w3.org/1999/xlink" width="70" height="70" viewBox="0 0 70 70">
  <defs>
    <style>
      .cls-1 {
        fill: #f6f6f6;
      }

      .cls-2 {
        fill: url(#linear-gradient);
      }

      .cls-3 {
        fill: url(#linear-gradient-2);
      }

      .cls-4 {
        fill: url(#linear-gradient-3);
      }

      .cls-5 {
        fill: url(#linear-gradient-4);
      }

      .cls-6 {
        fill: url(#linear-gradient-5);
      }

      .cls-7 {
        fill: url(#linear-gradient-6);
      }
    </style>
    <linearGradient id="linear-gradient" x1="46.53" y1="69.62" x2="12.92" y2="6.23" gradientUnits="userSpaceOnUse">
      <stop offset="0" stop-color="#75c9b9"/>
      <stop offset="1" stop-color="#72bde5"/>
    </linearGradient>
    <linearGradient id="linear-gradient-2" x1="50.32" y1="67.61" x2="16.71" y2="4.22" xlink:href="#linear-gradient"/>
    <linearGradient id="linear-gradient-3" x1="65" y1="59.82" x2="31.39" y2="-3.56" xlink:href="#linear-gradient"/>
    <linearGradient id="linear-gradient-4" x1="55.98" y1="64.61" x2="22.37" y2="1.22" xlink:href="#linear-gradient"/>
    <linearGradient id="linear-gradient-5" x1="69.3" y1="57.54" x2="35.69" y2="-5.84" xlink:href="#linear-gradient"/>
    <linearGradient id="linear-gradient-6" x1="52.85" y1="66.27" x2="19.24" y2="2.88" xlink:href="#linear-gradient"/>
  </defs>
  <title>icon_plumbing_P0</title>
  <path id="Rectangle" class="cls-1" d="M3,0H67a2.9,2.9,0,0,1,3,3V67a2.9,2.9,0,0,1-3,3H3a2.9,2.9,0,0,1-3-3V3A2.9,2.9,0,0,1,3,0Z"/>
  <g>
    <path class="cls-2" d="M17.9,58.5H52.2A7.8,7.8,0,0,0,60,50.6V45a2.2,2.2,0,0,0-2.1-2.2H57a13.6,13.6,0,0,0,.2-2A12.2,12.2,0,0,0,53,31.7a11.9,11.9,0,0,0-9.6-2.8l-7.3,1a8.1,8.1,0,0,1-2.2,0l-7.2-1a11.9,11.9,0,0,0-9.6,2.8,12.2,12.2,0,0,0-4.2,9.1,13.6,13.6,0,0,0,.2,2h-1A2.2,2.2,0,0,0,10,45v5.6A7.9,7.9,0,0,0,17.9,58.5ZM18,32.8a10.7,10.7,0,0,1,8.4-2.5l7.3,1a5.7,5.7,0,0,0,2.6,0l7.3-1a10.9,10.9,0,0,1,8.5,2.5,10.5,10.5,0,0,1,3.6,8,12.2,12.2,0,0,1-.3,2.6l-.2.9h0c-1.3,4.2-7.5,7.5-11.6,6.9l-7.3-1a11.3,11.3,0,0,0-2.6,0l-7.3,1c-3.8.6-10-1.3-11.5-6.9h0v-.6h0v-.2a12.2,12.2,0,0,1-.3-2.6A10.5,10.5,0,0,1,18,32.8ZM11.4,45a.8.8,0,0,1,.7-.7h1.3c1.6,6.8,8.8,9,13.3,8.4l7.2-1.1a8.1,8.1,0,0,1,2.2,0l7.3,1.1c4.9.7,12.1-3.3,13.3-8.4h1.2a.8.8,0,0,1,.7.7v5.6A6.4,6.4,0,0,1,52.2,57H17.9a6.5,6.5,0,0,1-6.5-6.4Z"/>
    <path class="cls-3" d="M27.6,39.5A19.2,19.2,0,0,0,35,41a17,17,0,0,0,7.4-1.6.6.6,0,0,0,.4-.9.7.7,0,0,0-.9-.4,16.4,16.4,0,0,1-13.7,0,.7.7,0,0,0-.9.4A.8.8,0,0,0,27.6,39.5Z"/>
    <path class="cls-4" d="M43.5,24.3a5,5,0,1,0,0-9.9,5,5,0,1,0,0,9.9Zm0-8.5a3.6,3.6,0,1,1,0,7.1,3.6,3.6,0,0,1,0-7.1Z"/>
    <circle class="cls-5" cx="35" cy="25" r="2.1"/>
    <path class="cls-6" d="M52.1,27.2A2.1,2.1,0,0,0,54.2,25a2.1,2.1,0,0,0-2.1-2.1,2.2,2.2,0,1,0,0,4.3Z"/>
    <path class="cls-7" d="M26.5,21.5a5,5,0,0,0,5-5,5.1,5.1,0,0,0-5-5,5,5,0,0,0-5,5A5,5,0,0,0,26.5,21.5Zm0-8.5A3.5,3.5,0,0,1,30,16.5a3.6,3.6,0,1,1-7.1,0A3.5,3.5,0,0,1,26.5,13Z"/>
  </g>
</svg>
