<svg id="Layer_1" data-name="Layer 1" xmlns="http://www.w3.org/2000/svg" xmlns:xlink="http://www.w3.org/1999/xlink" width="374.5" height="89.4" viewBox="0 0 374.5 89.4">
  <defs>
    <style>
      .cls-1 {
        fill: url(#linear-gradient);
      }

      .cls-2, .cls-4, .cls-5 {
        fill: #fff;
      }

      .cls-2 {
        opacity: 0.3;
      }

      .cls-2, .cls-3, .cls-4 {
        isolation: isolate;
      }

      .cls-4 {
        font-size: 16px;
        font-family: Montserrat-Medium, Montserrat;
      }
    </style>
    <linearGradient id="linear-gradient" x1="405.55" y1="126.36" x2="21.53" y2="-32.27" gradientUnits="userSpaceOnUse">
      <stop offset="0" stop-color="#75c9b9"/>
      <stop offset="1" stop-color="#72bde5"/>
    </linearGradient>
  </defs>
  <title>banner_housekeeping_H0</title>
  <g id="Page-1">
    <g id="UI---Screen-7---v2">
      <g id="Group-2">
        <path id="Path-4" class="cls-1" d="M0,72.4C71,74,112,68.2,210.5,71c58.9,1.7,113.3,7.8,164,18.4V0H0Z"/>
        <rect id="Rectangle-Copy-2" class="cls-2" x="23.5" y="22" width="47" height="7" rx="3.3" ry="3.3"/>
        <path id="Rectangle-Copy-4" class="cls-2" d="M189.8,29h40.5a3.2,3.2,0,0,1,3.2,3.2v.5a3.2,3.2,0,0,1-3.2,3.2H189.8a3.3,3.3,0,0,1-3.3-3.3v-.5a3.3,3.3,0,0,1,3.3-3.2Z"/>
        <path id="Rectangle-Copy-3" class="cls-2" d="M67.8,35h40.5a3.2,3.2,0,0,1,3.2,3.2v.5a3.3,3.3,0,0,1-3.2,3.3H67.8a3.3,3.3,0,0,1-3.3-3.3v-.5A3.3,3.3,0,0,1,67.8,35Z"/>
        <rect id="Rectangle-Copy-5" class="cls-2" x="233.5" y="42" width="47" height="7" rx="3.3" ry="3.3"/>
        <g id="sweep">
          <g id="_" data-name="+" class="cls-3">
            <text class="cls-4" transform="translate(356.3 26)">+</text>
          </g>
          <g id="_-copy" data-name="+-copy" class="cls-3">
            <text class="cls-4" transform="translate(336.5 14)">+</text>
          </g>
        </g>
      </g>
    </g>
  </g>
  <g>
    <path class="cls-5" d="M310.7,34.5h4.7v-.2h.1v-.4h0v-.2h-.2v-.2h0v-.2h.1v-.2h0v-.2h-.1v-.2h-4.6v.4h0v.4h-.1v1h0v.4h0v.9h0v.2h0v.2h0v.4Zm3.3-1.4h-1.8v-.2h0V33H314Zm-1.8-1.9H314v.2h-1.8Z"/>
    <polygon class="cls-5" points="318.1 30.4 318.1 30.3 318.1 30 318.1 29.8 318.1 29.8 318 29.7 318 29.6 317.9 29.6 317.8 29.6 317.7 29.6 317.3 29.6 317.2 29.6 316.9 29.6 316.8 29.6 316.7 29.6 316.6 29.6 316.5 29.7 316.5 29.8 316.5 30 316.5 30.2 316.5 30.3 316.5 30.7 316.5 30.9 316.5 31.3 316.5 31.4 316.5 31.9 316.5 32.3 316.5 32.4 316.5 32.8 316.5 32.9 316.5 33.3 316.5 33.5 316.5 33.9 316.5 34.5 316.5 34.7 316.5 34.9 316.5 34.9 316.5 35 316.5 35 316.6 35.1 316.7 35.1 316.8 35.1 316.9 35.1 317.2 35.1 317.3 35.1 317.7 35.1 317.8 35.1 317.9 35.1 318 35.1 318.1 35 318.1 34.9 318.1 34.8 318.1 34.4 318.1 34.3 318.1 33.8 318.1 33.7 318.1 33.2 318.1 33.1 318.1 33 318.2 33 318.3 33 318.7 33 319.3 33 319.4 33 319.7 33 319.9 33 320 33 320 33.1 320 33.2 320 33.7 320 33.8 320 34.3 320 34.4 320 34.9 320.1 35 320.1 35.1 320.2 35.1 320.3 35.1 320.7 35.1 320.9 35.1 321.3 35.1 321.4 35.1 321.5 35.1 321.5 35 321.6 34.9 321.6 34.8 321.6 34.7 321.6 34.5 321.5 34.4 321.5 33.9 321.6 33.5 321.6 33.3 321.5 32.9 321.5 32.8 321.6 32.4 321.6 32.3 321.6 31.9 321.6 31.8 321.6 31.4 321.6 31.3 321.6 30.9 321.6 30.7 321.6 30.3 321.6 30.2 321.6 29.9 321.6 29.8 321.6 29.7 321.5 29.6 321.4 29.6 321.3 29.6 321.2 29.6 320.9 29.6 320.7 29.6 320.3 29.6 320.2 29.6 320.1 29.6 320.1 29.7 320 29.8 320 30.3 320 30.4 320.1 30.9 320.1 31 320 31.5 320 31.6 320 31.7 319.9 31.7 319.9 31.7 319.7 31.7 319.3 31.7 318.8 31.7 318.7 31.7 318.4 31.7 318.3 31.7 318.2 31.7 318.1 31.7 318.1 31.7 318.1 31.6 318 31.5 318 30.9 318.1 30.4"/>
    <polygon class="cls-5" points="322.6 34.6 322.6 34.8 322.6 34.9 322.6 35 322.7 35.1 322.7 35.1 322.7 35.1 323.1 35.1 323.2 35.1 323.6 35.1 323.8 35.1 324.1 35.1 324.2 35.1 324.2 35.1 324.2 35 324.2 34.9 324.2 34.8 324.2 34.6 324.2 34.4 324.2 34 324.2 33.5 324.2 33.4 324.3 33.4 324.3 33.4 324.4 33.5 324.4 33.6 324.7 33.9 324.8 33.9 325 34.2 325.1 34.3 325.4 34.7 325.4 34.8 325.7 35 325.8 35.1 325.8 35.1 326.3 35.1 326.5 35.1 326.9 35.1 327.1 35.1 327.5 35.1 327.6 35.1 327.6 35.1 327.6 35 327.7 35 327.6 34.9 327.3 34.6 327.2 34.5 326.9 34.2 326.8 34.1 326.5 33.7 326.4 33.6 326.1 33.3 326.1 33.2 325.7 32.9 325.6 32.8 325.4 32.4 325.3 32.3 325.3 32.3 325.3 32.2 325.4 32.2 325.4 32.1 325.6 31.9 325.7 31.8 326 31.5 326.1 31.4 326.3 31.1 326.4 31 326.7 30.6 326.8 30.6 327.1 30.2 327.1 30.1 327.4 29.8 327.5 29.7 327.5 29.7 327.5 29.7 327.4 29.7 327.4 29.6 327.1 29.7 326.9 29.7 326.7 29.6 326.2 29.6 326.1 29.6 325.7 29.6 325.6 29.7 325.6 29.7 325.3 30 325.2 30.1 325 30.4 324.6 30.9 324.4 31.3 324.3 31.3 324.2 31.3 324.2 31.2 324.2 30.8 324.2 30.7 324.2 30.3 324.2 30.2 324.2 29.9 324.2 29.8 324.2 29.7 324.2 29.7 324.1 29.7 324.1 29.6 323.7 29.6 323.6 29.6 323.2 29.7 323.1 29.7 322.9 29.6 322.8 29.6 322.7 29.6 322.7 29.7 322.7 29.8 322.6 30.2 322.6 30.3 322.7 31.2 322.7 31.4 322.6 31.8 322.6 31.9 322.7 32.3 322.7 32.8 322.7 33 322.6 33.4 322.6 33.5 322.6 34 322.7 34.4 322.6 34.6"/>
    <polygon class="cls-5" points="314.9 26 315 26.2 315 26.4 315.1 26.6 315.2 26.8 315.3 26.9 315.4 27.1 315.6 27.3 315.7 27.4 315.9 27.5 316 27.6 316.3 27.8 316.4 27.9 316.6 27.9 316.8 28 317.1 28 317.2 28.1 317.6 28.1 317.8 28.1 318 28.1 318.2 28.1 318.4 28.1 318.6 28.1 318.8 28.1 319.1 28.1 319.2 28.1 319.4 28 319.6 28 319.8 27.9 320 27.8 320.2 27.7 320.4 27.6 320.5 27.5 320.9 27.3 321 27.1 321.3 26.8 321.4 26.7 321.5 26.5 321.6 26.3 321.6 26.1 321.7 25.9 321.7 25.7 321.7 25.5 321.7 25.3 321.7 25.1 321.7 24.9 321.6 24.7 321.6 24.5 321.5 24.2 321.4 24 321.3 23.9 321.2 23.7 321.1 23.5 320.7 23.3 320.6 23.2 320.4 23.1 320.3 23 320 22.9 319.8 22.8 319.5 22.8 319.2 22.7 319 22.7 318.7 22.7 318.4 22.7 318.2 22.7 317.5 22.7 317.4 22.7 317.2 22.6 317.2 22.4 317.1 22.3 317.2 21.9 317.2 21.8 317.3 21.7 317.4 21.7 317.6 21.7 317.8 21.7 318.4 21.7 319.1 21.7 320.1 21.7 320.2 21.7 320.7 21.7 320.9 21.7 321 21.7 321.1 21.7 321.2 21.6 321.3 21.4 321.3 21.2 321.3 21 321.3 20.6 321.3 20.3 321.3 20.1 321.3 20.1 321.3 19.9 321.2 19.8 321.1 19.8 321 19.8 320.7 19.8 320.3 19.8 319.3 19.8 318.7 19.8 317.6 19.7 317 19.8 316.8 19.8 316.1 19.8 315.9 19.8 315.5 19.8 315.3 19.8 315.1 19.8 315 19.9 315 20.1 315 20.2 315 20.3 315 20.7 315 20.9 315 21.6 315 21.8 315 22.5 315 22.7 315 23.3 315 23.5 315 24.2 315 24.4 315.1 24.5 315.3 24.5 316.6 24.5 316.8 24.5 317.6 24.5 317.8 24.5 318.2 24.5 318.4 24.5 318.6 24.5 318.8 24.6 319 24.6 319.1 24.8 319.3 24.9 319.4 25 319.4 25.1 319.4 25.3 319.4 25.5 319.4 25.7 319.3 25.9 319.2 26 319 26.1 318.8 26.2 318.6 26.2 318.4 26.3 318.2 26.3 318 26.2 317.8 26.2 317.6 26.1 317.5 26 317.4 25.9 317.2 25.7 317.2 25.5 317.1 25.4 317 25.3 316.9 25.3 316.6 25.3 316.1 25.3 315.9 25.3 315.4 25.3 315.1 25.3 315 25.3 314.9 25.4 314.9 25.6 314.9 25.8 314.9 26"/>
    <path class="cls-5" d="M360.7,68.1l-1.3-11.8v-.6h0V53.5a4.2,4.2,0,0,0-4.2-4.2h-.9v-.8a2.3,2.3,0,0,0-2.1-2.3v-26a2.8,2.8,0,0,0-2.8-2.8,2.7,2.7,0,0,0-2.7,2.8v26a1.7,1.7,0,0,0-1,.3l.3-3.1h0a2.8,2.8,0,0,0-.4-1.2,2.1,2.1,0,0,0-1.3-.5h-.1a4.1,4.1,0,0,0-4.8-2.7,4.2,4.2,0,0,0-3.6-2.2,4,4,0,0,0-1.5.3,3.8,3.8,0,0,0-2.8-1.2,3.6,3.6,0,0,0-2.8,1.2,4,4,0,0,0-1.5-.3,3.8,3.8,0,0,0-3.5,2.1,4.2,4.2,0,0,0-3.5,1.5h-1.6a2.5,2.5,0,0,0-2.5,2.5V55.5a2.5,2.5,0,0,0,2.5,2.5h.5l.9,10a2.5,2.5,0,0,0,2.5,2.4h36.2a2.4,2.4,0,0,0,1.6-.7A2.2,2.2,0,0,0,360.7,68.1Zm-5.2-9.2a1.1,1.1,0,0,0-1,1.1v8.8H354V62.1a1,1,0,0,0-1-1,1,1,0,0,0-1.1,1v6.7h-.5V64.2a1,1,0,1,0-2,0v4.6h-3.5V62.1a1,1,0,0,0-1.1-1,1,1,0,0,0-1,1v6.7h-.5V60a1.1,1.1,0,0,0-1-1.1,1.1,1.1,0,0,0-1.1,1.1v8.8h-1.1a.5.5,0,0,1-.4-.2.4.4,0,0,1-.1-.3l1.2-11.8h17l1.3,11.8a1,1,0,0,1-.1.3l-.4.2h-2V60A1.1,1.1,0,0,0,355.5,58.9Zm-37-2.5a.9.9,0,0,1-.9-.9V42.8a4.3,4.3,0,0,0,.1-.5h.1a.8.8,0,0,1,.7-.4h7.7a.9.9,0,0,1,.7.3,1.4,1.4,0,0,1,.2.6v.3h0V55.5a.9.9,0,0,1-.9.9h-7.7Zm12.9-19a2.3,2.3,0,0,1,1.9,1,.9.9,0,0,0,1.1.3,2,2,0,0,1,1.3-.4,2.4,2.4,0,0,1,2.3,1.9.8.8,0,0,0,.5.5h.7a2,2,0,0,1,1.1-.3,2.4,2.4,0,0,1,2,1.2h-4v6.6a.8.8,0,0,1-.7.7.7.7,0,0,1-.7-.7V41.6h-1.6v1.5h0v1.1a.8.8,0,0,1-.7.7.7.7,0,0,1-.7-.6V41.6h-5.5a2.5,2.5,0,0,0-2.2-1.3h-1.6c.1-.1.2-.2.2-.3a2.5,2.5,0,0,1,2.3-1.7,2,2,0,0,1,1.3.4.7.7,0,0,0,1-.3A2.6,2.6,0,0,1,331.4,37.4ZM349.3,19a1.1,1.1,0,0,1,1.1,1.2v26h-2.2v-26A1.1,1.1,0,0,1,349.3,19Zm1.1,28.8h1.5a.7.7,0,0,1,.7.7v2.4h-6.5V48.5a.7.7,0,0,1,.7-.7h3.6Zm-21.7-3.4V43.2h3.6v1.3a2,2,0,0,0,.3,1.1,2.4,2.4,0,0,0,2.7.9v.2h-3.9l-.3-1.4a.9.9,0,0,0-1-.5.7.7,0,0,0-.5.9l.3,1h-1.2Zm13.9,1.9v.4h-2.7V43.2h3l-.3,3Zm-7.3,2.1a2.2,2.2,0,0,0,2.3,2.1,2.4,2.4,0,0,0,2.3-2.1h2.5v1.1a4.3,4.3,0,0,0-3,3.6v1.8a8,8,0,0,1-7.2-5.8l-.2-.7Zm22.4,6.5H340.9V53.5a.4.4,0,0,1,.1-.3,2.5,2.5,0,0,1,1.7-2.1l.8-.2h1v.8a.7.7,0,0,0,.8.8h8.1a.8.8,0,0,0,.8-.8v-.8h.9a2.6,2.6,0,0,1,2.6,2.6ZM326.2,58a2.5,2.5,0,0,0,2.5-2.5V48.4h1.6l.3,1.1a9.5,9.5,0,0,0,8.6,6.9L338,68.1v.7H322.4a1.1,1.1,0,0,1-.9-.9l-.8-9.9Zm18.3-9.5v.8H344v-1h.4Z"/>
  </g>
</svg>
