<svg xmlns="http://www.w3.org/2000/svg" xmlns:xlink="http://www.w3.org/1999/xlink" width="70" height="70" viewBox="0 0 70 70">
  <defs>
    <style>
      .cls-1 {
        isolation: isolate;
      }

      .cls-2 {
        fill: #f6f6f6;
      }

      .cls-3 {
        fill: url(#linear-gradient);
      }

      .cls-4, .cls-5, .cls-8 {
        mix-blend-mode: multiply;
      }

      .cls-4 {
        fill: url(#linear-gradient-2);
      }

      .cls-6 {
        fill: url(#linear-gradient-3);
      }

      .cls-7 {
        fill: url(#linear-gradient-4);
      }

      .cls-8 {
        fill: url(#linear-gradient-5);
      }

      .cls-9 {
        fill: url(#linear-gradient-6);
      }

      .cls-10 {
        fill: url(#linear-gradient-7);
      }

      .cls-11 {
        fill: url(#linear-gradient-8);
      }
    </style>
    <linearGradient id="linear-gradient" x1="51.71" y1="61.89" x2="18.46" y2="8.39" gradientUnits="userSpaceOnUse">
      <stop offset="0" stop-color="#75c9b9"/>
      <stop offset="1" stop-color="#72bde5"/>
    </linearGradient>
    <linearGradient id="linear-gradient-2" x1="56.02" y1="59.22" x2="22.77" y2="5.72" xlink:href="#linear-gradient"/>
    <linearGradient id="linear-gradient-3" x1="59.31" y1="57.17" x2="26.06" y2="3.67" xlink:href="#linear-gradient"/>
    <linearGradient id="linear-gradient-4" x1="61.85" y1="55.59" x2="28.6" y2="2.09" xlink:href="#linear-gradient"/>
    <linearGradient id="linear-gradient-5" x1="51.71" y1="61.89" x2="18.46" y2="8.39" xlink:href="#linear-gradient"/>
    <linearGradient id="linear-gradient-6" x1="57.86" y1="58.08" x2="24.61" y2="4.58" xlink:href="#linear-gradient"/>
    <linearGradient id="linear-gradient-7" x1="45.16" y1="65.97" x2="11.91" y2="12.47" xlink:href="#linear-gradient"/>
    <linearGradient id="linear-gradient-8" x1="51.89" y1="61.78" x2="18.64" y2="8.28" xlink:href="#linear-gradient"/>
  </defs>
  <title>amc_</title>
  <g class="cls-1">
    <g id="Layer_1" data-name="Layer 1">
      <path id="Rectangle" class="cls-2" d="M3,0H67a2.9,2.9,0,0,1,3,3V67a2.9,2.9,0,0,1-3,3H3a2.9,2.9,0,0,1-3-3V3A2.9,2.9,0,0,1,3,0Z"/>
      <g>
        <g>
          <path class="cls-3" d="M41.7,59.4a12.8,12.8,0,0,1-3.2-.6A11.7,11.7,0,0,0,35,58a11.7,11.7,0,0,0-3.5.8c-1.6.4-3.2.9-4.4.5s-2.4-1.8-3.4-3.1a14.3,14.3,0,0,0-2.2-2.6,15.5,15.5,0,0,0-3.2-1.4c-1.6-.5-3.1-1-3.9-2.2s-.9-2.8-.9-4.4a19.7,19.7,0,0,0-.4-3.5,11,11,0,0,0-1.7-2.9c-.9-1.3-1.9-2.7-1.9-4.2s1-2.9,1.9-4.2a11,11,0,0,0,1.7-2.9,19.7,19.7,0,0,0,.4-3.5c0-1.6,0-3.2.9-4.4s2.3-1.7,3.9-2.2a15.5,15.5,0,0,0,3.2-1.4,14.3,14.3,0,0,0,2.2-2.6c1-1.3,2-2.6,3.4-3.1h1.2a12.8,12.8,0,0,1,3.2.6A11.7,11.7,0,0,0,35,12a11.7,11.7,0,0,0,3.5-.8c1.6-.4,3.1-.9,4.4-.5s2.3,1.8,3.4,3.1a14.3,14.3,0,0,0,2.2,2.6,15.5,15.5,0,0,0,3.2,1.4c1.6.5,3.1,1,3.9,2.2s.9,2.8.9,4.4a19.7,19.7,0,0,0,.4,3.5,11,11,0,0,0,1.7,2.9h0c.9,1.3,1.9,2.7,1.9,4.2s-1,2.9-1.9,4.2a11,11,0,0,0-1.7,2.9,19.7,19.7,0,0,0-.4,3.5c0,1.6,0,3.2-.9,4.4s-2.3,1.7-3.9,2.2a15.5,15.5,0,0,0-3.2,1.4,14.3,14.3,0,0,0-2.2,2.6c-1,1.3-2,2.6-3.4,3.1ZM35,57a11.7,11.7,0,0,1,3.7.8c1.5.4,2.9.8,3.9.5s1.9-1.5,2.9-2.7A13.2,13.2,0,0,1,48,52.8a13,13,0,0,1,3.4-1.5c1.4-.5,2.8-1,3.4-1.9s.7-2.3.7-3.8a15.8,15.8,0,0,1,.5-3.8,9.7,9.7,0,0,1,1.8-3.1c.8-1.3,1.7-2.5,1.7-3.7s-.9-2.4-1.7-3.7l.4-.2-.4.2A9.7,9.7,0,0,1,56,28.2a15.7,15.7,0,0,1-.5-3.7c0-1.6,0-3-.7-3.9s-2-1.4-3.4-1.9A13,13,0,0,1,48,17.2a15.7,15.7,0,0,1-2.5-2.7c-1-1.3-1.8-2.4-2.9-2.8s-2.4.1-3.9.5A11.7,11.7,0,0,1,35,13a11.7,11.7,0,0,1-3.7-.8c-1.5-.4-2.9-.8-3.9-.5s-1.9,1.5-2.9,2.7A13.2,13.2,0,0,1,22,17.2a14,14,0,0,1-3.3,1.5c-1.5.5-2.9,1-3.5,1.9s-.7,2.3-.7,3.9a15.7,15.7,0,0,1-.5,3.7,10.9,10.9,0,0,1-1.8,3.1c-.8,1.3-1.7,2.5-1.7,3.7s.9,2.4,1.7,3.6A11.4,11.4,0,0,1,14,41.8a15.7,15.7,0,0,1,.5,3.7c0,1.6,0,3,.7,3.9s2,1.4,3.4,1.9A13,13,0,0,1,22,52.8a13.2,13.2,0,0,1,2.5,2.8c1,1.2,1.8,2.3,2.9,2.7s2.4-.1,3.8-.5A12.9,12.9,0,0,1,35,57Z"/>
          <polygon class="cls-4" points="30.3 17.7 30.3 18.5 29.7 18.9 30.4 19.2 30.6 19.9 31.1 19.3 31.9 19.3 31.4 18.7 31.7 18 30.9 18.2 30.3 17.7"/>
          <g class="cls-5">
            <polygon class="cls-6" points="34.9 16.5 35.3 17.4 36.2 17.5 35.5 18.1 35.7 19 34.9 18.6 34.1 19 34.2 18.1 33.6 17.5 34.5 17.4 34.9 16.5"/>
            <polygon class="cls-7" points="39.5 17.6 39.5 18.4 40.2 18.8 39.4 19.1 39.2 19.8 38.8 19.2 38 19.2 38.4 18.6 38.1 17.8 38.9 18.1 39.5 17.6"/>
          </g>
          <path class="cls-8" d="M41.6,57.4a10.9,10.9,0,0,1-2.8-.6A12.3,12.3,0,0,0,35,56a12.3,12.3,0,0,0-3.8.8,7.5,7.5,0,0,1-3.4.5c-1-.3-1.8-1.4-2.6-2.5A11.2,11.2,0,0,0,22.7,52a13.6,13.6,0,0,0-3.5-1.6,6.4,6.4,0,0,1-3.1-1.6c-.6-.8-.6-2.1-.6-3.5a16.5,16.5,0,0,0-.5-3.8,11.1,11.1,0,0,0-1.8-3.2A6.7,6.7,0,0,1,11.6,35a6.7,6.7,0,0,1,1.6-3.3A11.1,11.1,0,0,0,15,28.5a16.5,16.5,0,0,0,.5-3.8c0-1.4,0-2.7.6-3.5a6.4,6.4,0,0,1,3.1-1.6A13.6,13.6,0,0,0,22.7,18a11.2,11.2,0,0,0,2.5-2.8c.8-1.1,1.6-2.2,2.6-2.5a7.5,7.5,0,0,1,3.4.5A12.3,12.3,0,0,0,35,14a12.3,12.3,0,0,0,3.8-.8,7.5,7.5,0,0,1,3.4-.5c1,.3,1.8,1.4,2.6,2.5A9.9,9.9,0,0,0,47.4,18a11.7,11.7,0,0,0,3.4,1.6,6.4,6.4,0,0,1,3.1,1.6c.6.8.6,2.1.6,3.5a16.5,16.5,0,0,0,.5,3.8,11.1,11.1,0,0,0,1.8,3.2A6.7,6.7,0,0,1,58.4,35a6.7,6.7,0,0,1-1.6,3.3h0A11.1,11.1,0,0,0,55,41.5a16.5,16.5,0,0,0-.5,3.8c0,1.4,0,2.7-.6,3.5a6.4,6.4,0,0,1-3.1,1.6A13.6,13.6,0,0,0,47.3,52a11.2,11.2,0,0,0-2.5,2.8c-.8,1.1-1.6,2.2-2.6,2.5ZM35,55a13,13,0,0,1,4.1.8,9,9,0,0,0,2.5.6h.3c.7-.2,1.4-1.2,2.1-2.1a13.2,13.2,0,0,1,2.8-3,13.7,13.7,0,0,1,3.7-1.7c1.1-.4,2.3-.8,2.6-1.3s.4-1.8.4-2.9a19.9,19.9,0,0,1,.5-4.1,16.8,16.8,0,0,1,2-3.5l.4.3-.4-.3h0A5.8,5.8,0,0,0,57.4,35,5.8,5.8,0,0,0,56,32.3a16.8,16.8,0,0,1-2-3.5,19.9,19.9,0,0,1-.5-4.1c0-1.1,0-2.4-.4-2.9s-1.5-.9-2.6-1.3a13.7,13.7,0,0,1-3.7-1.7,13.2,13.2,0,0,1-2.8-3c-.7-.9-1.4-1.9-2.1-2.1a5.6,5.6,0,0,0-2.8.5A13,13,0,0,1,35,15a13,13,0,0,1-4.1-.8,5.6,5.6,0,0,0-2.8-.5c-.7.2-1.4,1.2-2.1,2.1a13.2,13.2,0,0,1-2.8,3,13.7,13.7,0,0,1-3.7,1.7c-1.1.4-2.3.8-2.6,1.3s-.4,1.8-.4,2.9a19.9,19.9,0,0,1-.5,4.1,16.8,16.8,0,0,1-2,3.5A5.8,5.8,0,0,0,12.6,35,5.8,5.8,0,0,0,14,37.7a16.8,16.8,0,0,1,2,3.5,19.9,19.9,0,0,1,.5,4.1c0,1.1,0,2.4.4,2.9s1.5.9,2.6,1.3a13.7,13.7,0,0,1,3.7,1.7,13.2,13.2,0,0,1,2.8,3c.7.9,1.4,1.9,2.1,2.1h.3a9,9,0,0,0,2.5-.6A13,13,0,0,1,35,55Z"/>
        </g>
        <g>
          <path class="cls-9" d="M46.5,37.4h0a2.2,2.2,0,0,1-.2,1.1,2,2,0,0,1-.4.8,4.6,4.6,0,0,1-.7.7,4.2,4.2,0,0,1-1.5.4h-.4l-1-.2-.8-.5a1.6,1.6,0,0,1-.6-.8,2.4,2.4,0,0,1-.4-1.5V32.5a1.6,1.6,0,0,1,.2-1,3.6,3.6,0,0,1,.4-.9l.8-.6a2.8,2.8,0,0,1,1.3-.4h.5l1,.2.8.5a1.3,1.3,0,0,1,.6.7,2.8,2.8,0,0,1,.4,1.5h0v.2l-.2.2H44.8c0-.1-.1-.1-.1-.2s-.1-.1-.1-.2h0a1.3,1.3,0,0,0-.1-.6l-.4-.4H42.8l-.4.5c-.1.1-.1.3-.1.6v4.9a1.3,1.3,0,0,0,.1.6c.1.2.3.3.4.4l.6.2h.1l.5-.2a1,1,0,0,0,.5-.4,1.3,1.3,0,0,0,.1-.6.4.4,0,0,1,.1-.3h1.8Z"/>
          <path class="cls-10" d="M30.4,39.9l-1.9-9.7-.2-.3H25.7l-.2.3-2,9.7h0c0,.1,0,.1.1.2h1.8c.1,0,.1-.1.1-.2l.5-2.5h1.9l.5,2.5c0,.2.1.3.4.3h1.5c.1-.1.1-.1.1-.2Zm-4.1-4.1.6-3.8H27l.7,3.8Z"/>
          <path class="cls-11" d="M39.2,30.1v9.8a.3.3,0,0,1-.1.2l-.3.2H37.7l-.3-.2a.3.3,0,0,1-.1-.2V33.6l-1.1,3.7a.1.1,0,0,1-.1.1.1.1,0,0,1-.1.1H34.4c0-.1-.1-.1-.1-.2l-1.1-3.7v6.3h-.1a.3.3,0,0,1-.1.2H31.5a.3.3,0,0,1-.1-.2.1.1,0,0,1-.1-.1V30.1a.1.1,0,0,1,.1-.1c0-.1,0-.2.1-.2h2.3c0,.1.1.1.1.2l1.3,4.4,1.4-4.4c0-.1.1-.2.2-.3h2.3A.3.3,0,0,1,39.2,30.1Z"/>
        </g>
      </g>
    </g>
  </g>
</svg>
