<svg id="Layer_1" data-name="Layer 1" xmlns="http://www.w3.org/2000/svg" xmlns:xlink="http://www.w3.org/1999/xlink" width="374.5" height="89.4" viewBox="0 0 374.5 89.4">
  <defs>
    <style>
      .cls-1 {
        fill: url(#linear-gradient);
      }

      .cls-2, .cls-4, .cls-5 {
        fill: #fff;
      }

      .cls-2 {
        opacity: 0.3;
      }

      .cls-2, .cls-3, .cls-4 {
        isolation: isolate;
      }

      .cls-4 {
        font-size: 16px;
        font-family: Montserrat-Medium, Montserrat;
      }
    </style>
    <linearGradient id="linear-gradient" x1="405.55" y1="126.36" x2="21.53" y2="-32.27" gradientUnits="userSpaceOnUse">
      <stop offset="0" stop-color="#75c9b9"/>
      <stop offset="1" stop-color="#72bde5"/>
    </linearGradient>
  </defs>
  <title>banner_housekeeping_H0</title>
  <g id="Page-1">
    <g id="UI---Screen-7---v2">
      <g id="Group-2">
        <path id="Path-4" class="cls-1" d="M0,72.4C71,74,112,68.2,210.5,71c58.9,1.7,113.3,7.8,164,18.4V0H0Z"/>
        <rect id="Rectangle-Copy-2" class="cls-2" x="23.5" y="22" width="47" height="7" rx="3.3" ry="3.3"/>
        <path id="Rectangle-Copy-4" class="cls-2" d="M189.8,29h40.5a3.2,3.2,0,0,1,3.2,3.2v.5a3.2,3.2,0,0,1-3.2,3.2H189.8a3.3,3.3,0,0,1-3.2-3.2v-.5A3.3,3.3,0,0,1,189.8,29Z"/>
        <rect id="Rectangle-Copy-3" class="cls-2" x="64.5" y="35" width="47" height="7" rx="3.3" ry="3.3"/>
        <rect id="Rectangle-Copy-5" class="cls-2" x="233.5" y="42" width="47" height="7" rx="3.3" ry="3.3"/>
        <g id="sweep">
          <g id="_" data-name="+" class="cls-3">
            <text class="cls-4" transform="translate(348.8 26)">+</text>
          </g>
          <g id="_-copy" data-name="+-copy" class="cls-3">
            <text class="cls-4" transform="translate(336.5 14)">+</text>
          </g>
        </g>
      </g>
    </g>
  </g>
  <g>
    <path class="cls-5" d="M310.7,32.5h4.6v-.2h.1v-.4h0v-.2h-.1v-.2h-.2v-.2h0v-.2h0V29h-.2v-.2h-4.5v.4h0v.4h-.1v.4h0v.4h0v1.5h0v.2h0v.4Zm3.2-1.4h-1.7v-.2h1.7Zm-1.7-1.8v-.2h0Z"/>
    <polygon class="cls-5" points="321.3 30.5 321.3 30.4 321.3 30 321.3 29.8 321.3 29.5 321.3 29.3 321.3 28.9 321.3 28.8 321.3 28.4 321.3 28.3 321.3 28 321.3 27.9 321.3 27.8 321.2 27.8 321.1 27.7 321 27.7 320.9 27.7 320.6 27.8 320.5 27.8 320.1 27.7 319.9 27.7 319.9 27.7 319.8 27.8 319.8 27.9 319.8 28.4 319.8 28.5 319.8 29 319.8 29.1 319.8 29.6 319.8 29.7 319.7 29.7 319.6 29.8 319.6 29.8 319.5 29.8 319.1 29.8 318.6 29.8 318.5 29.8 318.2 29.8 318.1 29.8 318 29.8 317.9 29.8 317.9 29.8 317.9 29.7 317.8 29.6 317.8 29 317.9 28.5 317.9 28.4 317.9 28.1 317.9 28 317.9 27.9 317.8 27.8 317.8 27.8 317.7 27.7 317.6 27.7 317.5 27.7 317.2 27.8 317 27.8 316.7 27.7 316.6 27.7 316.5 27.8 316.4 27.8 316.4 27.8 316.3 27.9 316.3 28.1 316.4 28.3 316.4 28.4 316.4 28.8 316.4 28.9 316.3 29.3 316.3 29.5 316.3 30 316.3 30.4 316.3 30.5 316.4 30.9 316.4 31 316.4 31.4 316.4 31.5 316.3 31.9 316.3 32.5 316.3 32.7 316.3 32.8 316.3 32.9 316.4 33 316.4 33 316.4 33.1 316.5 33.1 316.6 33.1 316.7 33.1 317 33.1 317.2 33.1 317.5 33.1 317.6 33.1 317.7 33.1 317.8 33.1 317.9 33 317.9 32.9 317.9 32.7 317.9 32.4 317.9 32.3 317.9 31.8 317.9 31.7 317.9 31.2 317.9 31.1 317.9 31.1 318 31 318.1 31 318.5 31.1 319.1 31.1 319.2 31.1 319.5 31 319.6 31 319.7 31.1 319.8 31.1 319.8 31.2 319.8 31.7 319.8 31.8 319.8 32.3 319.8 32.4 319.8 32.9 319.8 33 319.9 33.1 320 33.1 320.1 33.1 320.5 33.1 320.6 33.1 321 33.1 321.1 33.1 321.2 33.1 321.2 33 321.3 32.9 321.3 32.8 321.3 32.7 321.3 32.5 321.2 32.4 321.2 31.9 321.3 31.5 321.3 31.4 321.2 31 321.2 30.9 321.3 30.5"/>
    <polygon class="cls-5" points="323.8 32 323.8 31.5 323.9 31.4 323.9 31.4 323.9 31.4 324 31.5 324 31.6 324.3 31.9 324.4 32 324.6 32.2 324.7 32.3 324.9 32.6 325 32.7 325.3 33 325.3 33.1 325.4 33.1 325.9 33.1 326 33.1 326.5 33.1 326.6 33.1 327 33.1 327.1 33.1 327.1 33.1 327.2 33 327.2 33 327.2 32.9 326.8 32.6 326.8 32.5 326.4 32.2 326.4 32.1 326.1 31.7 326 31.7 325.7 31.3 325.6 31.2 325.3 30.9 325.2 30.8 324.9 30.4 324.9 30.4 324.9 30.3 324.9 30.3 325 30.2 325 30.1 325.2 30 325.3 29.9 325.6 29.6 325.6 29.5 325.9 29.1 326 29.1 326.3 28.7 326.3 28.7 326.6 28.3 326.7 28.2 327 27.9 327 27.8 327 27.8 327 27.8 327 27.8 326.9 27.8 326.6 27.8 326.5 27.8 326.2 27.8 325.8 27.7 325.6 27.7 325.3 27.8 325.2 27.8 325.2 27.8 324.9 28.1 324.8 28.2 324.6 28.5 324.2 29 324 29.3 323.9 29.4 323.8 29.4 323.8 29.3 323.8 28.9 323.8 28.8 323.8 28.4 323.8 28.3 323.8 28 323.8 27.9 323.8 27.9 323.8 27.8 323.8 27.8 323.7 27.8 323.4 27.8 323.2 27.8 322.9 27.8 322.8 27.8 322.5 27.8 322.4 27.8 322.4 27.8 322.3 27.8 322.3 27.9 322.3 28.3 322.3 28.4 322.3 29.3 322.3 29.4 322.3 29.8 322.3 30 322.3 30.4 322.3 30.9 322.3 31 322.3 31.4 322.3 31.5 322.3 32 322.3 32.4 322.3 32.6 322.3 32.7 322.3 32.9 322.3 33 322.3 33 322.3 33.1 322.4 33.1 322.8 33.1 322.9 33.1 323.2 33.1 323.5 33.1 323.7 33.1 323.8 33.1 323.8 33 323.8 33 323.8 32.8 323.8 32.7 323.8 32.6 323.8 32.4 323.8 32"/>
    <polygon class="cls-5" points="316.8 24 316.8 23.9 316.9 23.8 317 23.6 317.1 23.5 317.2 23.4 317.3 23.4 317.4 23.3 317.6 23.3 317.7 23.3 317.9 23.3 318 23.3 318.2 23.3 318.5 23.3 318.6 23.2 318.8 23.2 319 23.2 319.3 23.1 319.4 23.1 319.6 23.1 319.8 23 320 23 320.2 22.9 320.4 22.8 320.5 22.7 320.7 22.5 320.8 22.4 321 22.2 321.1 22.1 321.2 21.9 321.3 21.7 321.4 21.5 321.4 21.3 321.5 21.1 321.5 20.9 321.5 20.7 321.5 20.5 321.5 20.2 321.4 20.1 321.4 19.9 321.3 19.8 321.2 19.6 321.2 19.4 321 19.2 320.9 19.1 320.8 18.9 320.6 18.8 320.5 18.7 320.3 18.6 320.1 18.5 319.9 18.4 319.8 18.4 319.4 18.2 319.2 18.2 319 18.1 318.8 18.1 318.7 18.1 318.5 18.1 318.2 18.1 317.9 18.1 317.7 18.1 317.4 18.1 317.3 18.1 317.1 18.2 316.9 18.2 316.7 18.3 316.5 18.3 316.3 18.4 316 18.6 315.8 18.7 315.6 18.8 315.5 18.9 315.4 19 315.2 19.2 315.1 19.3 315.1 19.5 314.9 19.7 314.9 19.9 314.9 19.9 314.8 20.1 314.8 20.2 314.8 20.4 314.8 20.6 314.8 20.6 314.9 20.7 315 20.7 315.3 20.7 315.5 20.7 316 20.7 316.5 20.8 316.6 20.8 316.7 20.8 316.9 20.7 317 20.6 317.1 20.5 317.1 20.3 317.2 20.3 317.3 20.1 317.4 20.1 317.5 20 317.8 19.9 317.9 19.9 318.1 19.9 318.2 19.9 318.4 19.9 318.6 19.9 318.8 20 318.9 20.1 319.1 20.2 319.1 20.3 319.2 20.4 319.2 20.5 319.2 20.8 319.1 21 319 21.2 318.9 21.2 318.8 21.3 318.7 21.4 318.5 21.4 318.2 21.4 318 21.4 317.9 21.5 317.3 21.5 317.2 21.5 317 21.5 316.8 21.6 316.5 21.7 316.3 21.7 316.1 21.8 316 21.9 315.7 22.1 315.6 22.2 315.4 22.3 315.3 22.4 315.1 22.6 315 22.8 314.9 22.9 314.9 23 314.8 23.2 314.8 23.4 314.7 23.6 314.7 23.9 314.6 24.2 314.6 24.4 314.7 25.1 314.7 25.3 314.6 25.9 314.7 26.1 314.7 26.1 314.8 26.2 314.9 26.2 315.5 26.2 316.3 26.2 317.9 26.2 318.9 26.2 319.5 26.2 320.4 26.2 320.5 26.2 320.8 26.2 320.9 26.2 321.3 26.2 321.3 26.1 321.4 26.1 321.4 26 321.4 25.8 321.4 25.6 321.4 25.3 321.4 24.9 321.4 24.7 321.4 24.5 321.4 24.4 321.3 24.3 321.2 24.3 321 24.3 320.6 24.3 320.4 24.3 319.1 24.3 318.9 24.3 318.4 24.3 317.5 24.3 317 24.3 316.9 24.3 316.8 24.3 316.8 24.2 316.8 24.1 316.8 24"/>
    <path class="cls-5" d="M359.5,43.7h-.7a3,3,0,0,0-1-1.9,3.4,3.4,0,0,0-1.6-1,4.5,4.5,0,0,0-1-1.4,4.1,4.1,0,0,0-2.9-1.3h-.5a4.2,4.2,0,0,0-7.7-.4,3.3,3.3,0,0,0-6.3,1.4,3.5,3.5,0,0,0-2.5,2.5h-3.4V35.3a.7.7,0,0,0-.7-.7.8.8,0,0,0-.8.7v21H330V25.8h.4v6.1a.9.9,0,0,0,.8.8.8.8,0,0,0,.7-.8V18.7a1.2,1.2,0,0,0-1.2-1.2h-.9a1.2,1.2,0,0,0-1.3,1.2V41.6H328a1.2,1.2,0,0,0-1.2,1.2v4A1.2,1.2,0,0,0,328,48h.5v8.3h-.1a1.2,1.2,0,0,0-1.2,1.2V60h-2.7a1.2,1.2,0,0,0-1.2,1.3v1.4h-2.1a2.1,2.1,0,0,0-2.1,2.1,2.1,2.1,0,0,0,.9,1.8l-.3.3a.7.7,0,0,0,0,1,.6.6,0,0,0,.5.2.7.7,0,0,0,.6-.2l.9-.9h.4a.7.7,0,0,0,.1.9.7.7,0,0,0,.6.2.6.6,0,0,0,.5-.2l.9-.9h.5a.7.7,0,0,0,0,.9.7.7,0,0,0,.6.2c.2,0,.4,0,.5-.2l.9-.9h.5a.6.6,0,0,0,.1.9c.1.2.3.2.5.2s.4,0,.5-.2l1-.9h.3v.4a.8.8,0,0,0,.8.7.7.7,0,0,0,.7-.7V67h.4l1,.9c.1.2.3.2.5.2s.4,0,.5-.2a.6.6,0,0,0,.1-.9h.4l1,.9c.1.2.3.2.5.2s.4,0,.5-.2a.6.6,0,0,0,.1-.9h.4l1,.9c.1.2.3.2.5.2s.4,0,.5-.2a.6.6,0,0,0,.1-.9h.5l.9.9c.1.2.3.2.5.2s.4,0,.5-.2a.7.7,0,0,0,0-1l-.4-.5a1,1,0,0,0,.5-.6h5.5a.7.7,0,0,0,.7-.7.8.8,0,0,0-.7-.8h-5.3a2.2,2.2,0,0,0-2.1-1.6h-2.1V61.3a1.2,1.2,0,0,0-1.2-1.3h-2.6V57.5a1.2,1.2,0,0,0-1.3-1.2h-.1V48H357l-1.9,10.3-9.2-4.9a4,4,0,0,0-4-3.8,3.8,3.8,0,0,0-3.9,3.9,3.9,3.9,0,0,0,3.9,4,3.7,3.7,0,0,0,2.1-.6l10.4,5.6-.3,1.5a.5.5,0,0,1-.5.3h-3.1a.8.8,0,0,0-.7.8.7.7,0,0,0,.7.7h3.1a1.9,1.9,0,0,0,1.9-1.6l.3-1.4a1.9,1.9,0,0,0,1.6-1,2.1,2.1,0,0,0-.9-2.8h0l2-11h1a1.2,1.2,0,0,0,1.2-1.2V44.9A1.2,1.2,0,0,0,359.5,43.7ZM330,19h.4v5.3H330Zm-1.3,38.7h3.1V60h-3.1Zm-.4-14.6h.2v1.4h-.2Zm0,3.4v-.6h.2v.6Zm7.4,15v1.2h-.9a.7.7,0,1,0,0,1.4h4.4a.7.7,0,0,1,0,1.4h-18a.7.7,0,0,1,0-1.4h9.7a.7.7,0,1,0,0-1.4h-6.1V61.5Zm6.2-5.5a2.5,2.5,0,0,1,0-4.9,2.4,2.4,0,0,1,2.2,1.3l-.8-.4a1.5,1.5,0,0,0-.9-.2,2,2,0,0,0-1.8,1,2.3,2.3,0,0,0-.2,1.6,2.3,2.3,0,0,0,1,1.2l.8.4Zm14.2,5.1a.5.5,0,0,1-.5.3h-.3l-13.2-7a.5.5,0,0,1-.2-.4c-.1-.1-.1-.2,0-.4l.5-.2h.2l13.2,7.1A.5.5,0,0,1,356.1,61.1Zm-3.8-21.5a2.9,2.9,0,0,1,1.9.8,3.3,3.3,0,0,1,.7,1.3c0,.3.3.5.7.6a2.1,2.1,0,0,1,1.2.5,1.9,1.9,0,0,1,.5.9h-3.1a2.6,2.6,0,0,0-2.6-2h-.4a2.2,2.2,0,0,0-.8-1.3A2.7,2.7,0,0,1,352.3,39.6Zm-4.5-2.8a2.8,2.8,0,0,1,2.6,1.8,2.8,2.8,0,0,0-1.1.8.2.2,0,0,0-.2.2h-.8a2.7,2.7,0,0,0-1.7.6,2.8,2.8,0,0,0-1.4-1.2A2.8,2.8,0,0,1,347.8,36.8Zm-9.5,3.7h.3a2.1,2.1,0,0,1,1.2.5.8.8,0,0,0,1-.1.7.7,0,0,0,0-1,3.7,3.7,0,0,0-1.5-.8,1.8,1.8,0,1,1,3.6,0v.2a1.1,1.1,0,0,0,.2.6c.2.2.4.3.6.2h.2a1.7,1.7,0,0,1,1.7,1.2,5,5,0,0,0-.2,1.2.7.7,0,0,0,.7.7.8.8,0,0,0,.8-.7,1.9,1.9,0,0,1,.2-.8h.1a1.4,1.4,0,0,1,1.1-.6,1.5,1.5,0,0,1,1.5,1.5.7.7,0,0,0,.7.7h1.1a1.2,1.2,0,0,1,1,.5H342.3v-.9a1.2,1.2,0,0,0-1.3-1.2h-4.1A1.8,1.8,0,0,1,338.3,40.5Zm-6.4,2.6h8.9v1.4h-8.9Zm27.3,3.4H331.9v-.6H341a1.2,1.2,0,0,0,1.2-.8h17Z"/>
  </g>
</svg>
