<svg id="Layer_1" data-name="Layer 1" xmlns="http://www.w3.org/2000/svg" xmlns:xlink="http://www.w3.org/1999/xlink" width="374.5" height="89.4" viewBox="0 0 374.5 89.4">
  <defs>
    <style>
      .cls-1 {
        fill: url(#linear-gradient);
      }

      .cls-2, .cls-4, .cls-5 {
        fill: #fff;
      }

      .cls-2 {
        opacity: 0.3;
      }

      .cls-2, .cls-3, .cls-4 {
        isolation: isolate;
      }

      .cls-4 {
        font-size: 16px;
        font-family: Montserrat-Medium, Montserrat;
      }
    </style>
    <linearGradient id="linear-gradient" x1="405.55" y1="126.36" x2="21.53" y2="-32.27" gradientUnits="userSpaceOnUse">
      <stop offset="0" stop-color="#75c9b9"/>
      <stop offset="1" stop-color="#72bde5"/>
    </linearGradient>
  </defs>
  <title>banner_amc_bronze_1bhk</title>
  <g id="Page-1">
    <g id="UI---Screen-7---v2">
      <g id="Group-2">
        <path id="Path-4" class="cls-1" d="M0,72.4C71,74,112,68.2,210.5,71c58.9,1.7,113.3,7.8,164,18.4V0H0Z"/>
        <rect id="Rectangle-Copy-2" class="cls-2" x="23.5" y="22" width="47" height="7" rx="3.3" ry="3.3"/>
        <path id="Rectangle-Copy-4" class="cls-2" d="M189.8,29h40.5a3.3,3.3,0,0,1,3.3,3.3v.5a3.3,3.3,0,0,1-3.2,3.3H189.8a3.2,3.2,0,0,1-3.2-3.2v-.5a3.2,3.2,0,0,1,3.2-3.2Z"/>
        <path id="Rectangle-Copy-3" class="cls-2" d="M67.8,35h40.5a3.2,3.2,0,0,1,3.2,3.2v.5a3.2,3.2,0,0,1-3.2,3.2H67.8a3.3,3.3,0,0,1-3.2-3.2v-.5A3.3,3.3,0,0,1,67.8,35Z"/>
        <rect id="Rectangle-Copy-5" class="cls-2" x="233.5" y="42" width="47" height="7" rx="3.3" ry="3.3"/>
        <g id="sweep">
          <g id="_" data-name="+" class="cls-3">
            <text class="cls-4" transform="translate(304.3 26)">+</text>
          </g>
          <g id="_-copy" data-name="+-copy" class="cls-3">
            <text class="cls-4" transform="translate(336.5 14)">+</text>
          </g>
        </g>
      </g>
    </g>
  </g>
  <g>
    <path class="cls-5" d="M327.6,77.7c.7,0,1.1-.3,1.1-1v-.6c0-1.1-.6-1.7-1.8-1.7V73c.7,0,1.1-.1,1.4-.5a1.7,1.7,0,0,0,.4-1.3V71c0-.7-.3-1.1-.9-1.1a.7.7,0,0,0-.7.4,1.1,1.1,0,0,0-.2.8v.2h-1.6v-.2a2.9,2.9,0,0,1,.6-1.9,2.5,2.5,0,0,1,4.3,1.7v.5a2.7,2.7,0,0,1-.6,1.7l-.6.5a4.3,4.3,0,0,1,1.1,1.2,3,3,0,0,1,.2,1v.9a2.6,2.6,0,0,1-.8,1.9,2.7,2.7,0,0,1-1.9.8,2.5,2.5,0,0,1-1.8-.8,2.4,2.4,0,0,1-.7-1.8v-.3h1.5v.4a.9.9,0,0,0,.3.7Z"/>
    <path class="cls-5" d="M332.7,78.8V69.4a.4.4,0,0,1,.1-.3l.2-.3h3.4a1.6,1.6,0,0,1,.9.3,1.6,1.6,0,0,1,.7.7,1.7,1.7,0,0,1,.3,1v1.2a2,2,0,0,1-.1.7,1.6,1.6,0,0,1-.4.7,1,1,0,0,1-.6.5,1.4,1.4,0,0,1,1,.7,2.6,2.6,0,0,1,.4,1.4v1a2,2,0,0,1-.2,1.1,1.6,1.6,0,0,1-.4.7l-.6.4h-4.5c0-.1-.1-.1-.1-.2S332.7,78.9,332.7,78.8Zm2.9-5.8h.4c.2-.1.3-.2.3-.4a1.3,1.3,0,0,0,.1-.6v-.7a1.5,1.5,0,0,0-.2-.8.9.9,0,0,0-.7-.3h-1c0,.1-.1.1-.1.2v2.5c0,.1,0,.2.1.2Zm.2,4.9c.3-.1.6-.2.7-.4a1.1,1.1,0,0,0,.2-.8v-.8a1.2,1.2,0,0,0-.2-.7c-.1-.2-.2-.4-.4-.4h-1.7v3h1.3Z"/>
    <path class="cls-5" d="M339.9,78.8V69l.2-.2h1.6c.1.1.1.1.1.3v3.7h2.8V69.2c0-.1,0-.2.1-.2s.1-.1.1-.2h1.5l.2.2a.3.3,0,0,1,.1.2v9.6a.3.3,0,0,1-.1.2l-.2.2h-1.5V79c-.1,0-.1-.1-.1-.2V74.7h-2.8v4.1c0,.1,0,.2-.1.2s0,.2-.1.2h-1.5c-.1,0-.1-.1-.2-.2Z"/>
    <path class="cls-5" d="M347.8,78.9V69.2c0-.1,0-.2.1-.2s.1-.1.1-.2h1.5c0,.1.1.1.1.2s.1.1.1.2v2.7l1.8-2.8.3-.2c0-.1.1-.1.2-.1h1.4c0,.1.1.1.1.2a.3.3,0,0,1,.1.2c0,.1,0,.2-.1.2l-2.6,4.1,3.3,5v.6h-1.9l-.2-.2-2.5-3.9v4H348a.1.1,0,0,1-.1-.1Z"/>
  </g>
  <g>
    <path class="cls-5" d="M338.4,17.7a23,23,0,1,1-23,23,23,23,0,0,1,23-23m0-2a25,25,0,1,0,25,25,25,25,0,0,0-25-25Z"/>
    <path class="cls-5" d="M338.4,20.5a20.2,20.2,0,1,1-20.2,20.2,20.2,20.2,0,0,1,20.2-20.2m0-1a21.2,21.2,0,1,0,21.1,21.2,21.2,21.2,0,0,0-21.1-21.2Z"/>
    <g>
      <path class="cls-5" d="M349.9,43h0a3,3,0,0,1-.2,1,3.6,3.6,0,0,1-.4.9c-.3.2-.5.5-.8.6a2.3,2.3,0,0,1-1.4.4h-1.4l-.9-.5-.6-.8a4,4,0,0,1-.3-1.5v-5a2.8,2.8,0,0,1,.1-.9,2.6,2.6,0,0,1,.5-.9,1.9,1.9,0,0,1,.7-.6,2.5,2.5,0,0,1,1.4-.4h.5a1.8,1.8,0,0,1,1,.2l.8.4c.2.3.5.5.6.8a2.3,2.3,0,0,1,.4,1.4h0v.2a.3.3,0,0,0-.1.2h-1.5c-.1-.1-.1-.2-.2-.2v-.2h0a1.4,1.4,0,0,0-.2-.6.8.8,0,0,0-.4-.4h-1.2l-.4.4a1.4,1.4,0,0,0-.2.6V43a1.4,1.4,0,0,0,.2.6,1,1,0,0,0,.4.5l.6.2h0a1.1,1.1,0,0,0,.6-.2,1,1,0,0,0,.4-.5,1.1,1.1,0,0,0,.2-.6v-.2l.2-.2h1.5c0,.1.1.1.1.2S349.9,42.9,349.9,43Z"/>
      <path class="cls-5" d="M333.8,45.6l-2-9.8-.2-.2H329c-.1,0-.1.1-.2.2l-1.9,9.8h0a.4.4,0,0,0,.1.3h1.8a.4.4,0,0,0,.1-.3l.5-2.4h1.9l.5,2.4c0,.2.1.4.3.4h1.6a.4.4,0,0,0,.1-.3Zm-4.2-4.2.7-3.7h.1l.7,3.7Z"/>
      <path class="cls-5" d="M342.6,35.8v9.7c0,.1-.1.2-.2.3s-.1.1-.2.1h-1.4a.4.4,0,0,1-.1-.3V39.3L339.6,43a.1.1,0,0,0-.1.1h-1.7a.3.3,0,0,1-.1-.2l-1.2-3.7v6.4l-.2.2h-1.4l-.2-.2V35.6h.2c0-.1.1-.1.2-.1h2.1l1.4,4.4,1.4-4.4c0-.1.1-.1.1-.2h2.3Z"/>
    </g>
  </g>
</svg>
