<svg id="Layer_1" data-name="Layer 1" xmlns="http://www.w3.org/2000/svg" xmlns:xlink="http://www.w3.org/1999/xlink" width="374.5" height="89.4" viewBox="0 0 374.5 89.4">
  <defs>
    <style>
      .cls-1 {
        fill: url(#linear-gradient);
      }

      .cls-2, .cls-4, .cls-5 {
        fill: #fff;
      }

      .cls-2 {
        opacity: 0.3;
      }

      .cls-2, .cls-3, .cls-4 {
        isolation: isolate;
      }

      .cls-4 {
        font-size: 16px;
        font-family: Montserrat-Medium, Montserrat;
      }
    </style>
    <linearGradient id="linear-gradient" x1="405.55" y1="126.36" x2="21.53" y2="-32.27" gradientUnits="userSpaceOnUse">
      <stop offset="0" stop-color="#75c9b9"/>
      <stop offset="1" stop-color="#72bde5"/>
    </linearGradient>
  </defs>
  <title>banner_electrical_E01</title>
  <g id="Page-1">
    <g id="UI---Screen-7---v2">
      <g id="Group-2">
        <path id="Path-4" class="cls-1" d="M0,72.4C71,74,112,68.2,210.5,71c58.9,1.7,113.3,7.8,164,18.4V0H0Z"/>
        <rect id="Rectangle-Copy-2" class="cls-2" x="23.5" y="22" width="47" height="7" rx="3.3" ry="3.3"/>
        <path id="Rectangle-Copy-4" class="cls-2" d="M189.8,29h40.5a3.2,3.2,0,0,1,3.2,3.2v.5a3.2,3.2,0,0,1-3.2,3.2H189.8a3.3,3.3,0,0,1-3.2-3.2v-.5A3.3,3.3,0,0,1,189.8,29Z"/>
        <rect id="Rectangle-Copy-3" class="cls-2" x="64.5" y="35" width="47" height="7" rx="3.3" ry="3.3"/>
        <path id="Rectangle-Copy-5" class="cls-2" d="M236.8,42h40.5a3.3,3.3,0,0,1,3.3,3.3v.5a3.2,3.2,0,0,1-3.2,3.2H236.8a3.2,3.2,0,0,1-3.2-3.2v-.5A3.2,3.2,0,0,1,236.8,42Z"/>
        <g id="sweep">
          <g id="_" data-name="+" class="cls-3">
            <text class="cls-4" transform="translate(308.6 26)">+</text>
          </g>
          <g id="_-copy" data-name="+-copy" class="cls-3">
            <text class="cls-4" transform="translate(336.5 14)">+</text>
          </g>
        </g>
      </g>
    </g>
  </g>
  <g>
    <path class="cls-5" d="M346.6,15H325.9a5.5,5.5,0,0,0-3.7,1.4.8.8,0,1,0,1.2,1.2,3.9,3.9,0,0,1,2.5-1h20.7a3.7,3.7,0,0,1,3.7,3.7v4.1a2.7,2.7,0,0,1-.3,1.2,2.4,2.4,0,0,1-.9.8,4.5,4.5,0,0,0-2.2,3.8v2.6a.9.9,0,0,0,.9.8.9.9,0,0,0,.8-.8V30.2a2.5,2.5,0,0,1,1.3-2.3l.4-.3V46.8a.5.5,0,0,0-.4-.2l-1-1a3.2,3.2,0,0,1-.3-1.4V35.7a.8.8,0,0,0-.8-.8.8.8,0,0,0-.9.8v8.5a4.3,4.3,0,0,0,.6,2.2,4.9,4.9,0,0,0,1.6,1.6,2.4,2.4,0,0,1,1.2,2v3.5a3.8,3.8,0,0,1-3.7,3.7H325.9a3.7,3.7,0,0,1-3.6-3.7V50a2.3,2.3,0,0,1,1.1-2,4.1,4.1,0,0,0,1.6-1.6,4,4,0,0,0,.6-2.2v-14a4.3,4.3,0,0,0-2.2-3.8l-.8-.8a2.7,2.7,0,0,1-.3-1.2V19.8c0-.2,0-.5-.2-.6a.5.5,0,0,0-.5-.3.7.7,0,0,0-.9.7,1.5,1.5,0,0,0-.1.7V53.5a5.3,5.3,0,0,0,5.3,5.3h2.3v2h-1.1a1.3,1.3,0,0,0-1.3,1.3v1.5a1.3,1.3,0,0,0,1.3,1.4H331a1.3,1.3,0,0,0,1.3-1.4V62.1a1.3,1.3,0,0,0-1.3-1.3h-1.1v-2h12.8v2h-1.1a1.3,1.3,0,0,0-1.4,1.3v1.5a1.4,1.4,0,0,0,1.4,1.4h3.9a1.3,1.3,0,0,0,1.3-1.4V62.1a1.3,1.3,0,0,0-1.3-1.3h-1.2v-2h2.3a5.3,5.3,0,0,0,5.3-5.3V20.3A5.2,5.2,0,0,0,346.6,15ZM327.4,63.3v-.9h3.3v.9Zm14.5,0v-.9h3.2v.9ZM322.3,46.8V27.6l.3.3a2.6,2.6,0,0,1,1.4,2.3v14a3.3,3.3,0,0,1-.4,1.4,3.2,3.2,0,0,1-1,1Z"/>
    <path class="cls-5" d="M336.3,54.6a4.6,4.6,0,0,0,4.6-4.6,4.7,4.7,0,1,0-4.6,4.6Zm-3-4.6a3,3,0,0,1,3-3,3.1,3.1,0,0,1,3,3,3,3,0,0,1-3,3A2.9,2.9,0,0,1,333.3,50Z"/>
    <path class="cls-5" d="M334.8,50.8h.5a.8.8,0,0,0,.8-.8.9.9,0,0,0-.8-.8h-.5a.9.9,0,0,0-.8.8A.8.8,0,0,0,334.8,50.8Z"/>
    <path class="cls-5" d="M333,31.5a5.2,5.2,0,0,0-.5,2.4,3.8,3.8,0,0,0,7.6,0c0-3.1-3.2-5.8-3.3-5.9a1.1,1.1,0,0,0-1.1,0l-.9.9a.8.8,0,0,0,.1,1.2.8.8,0,0,0,.6.2.5.5,0,0,0,.5-.3l.3-.2a6.5,6.5,0,0,1,2.1,4.1,2.1,2.1,0,0,1-2.1,2.2,2.2,2.2,0,0,1-2.2-2.2,3.8,3.8,0,0,1,.4-1.7.8.8,0,0,0-.4-1.1h0A.9.9,0,0,0,333,31.5Z"/>
    <path class="cls-5" d="M342.3,22.3a.7.7,0,0,0-.8-.8H331a.8.8,0,0,0-.8.8.9.9,0,0,0,.8.8h10.5A.8.8,0,0,0,342.3,22.3Z"/>
  </g>
</svg>
