<svg id="Layer_1" data-name="Layer 1" xmlns="http://www.w3.org/2000/svg" xmlns:xlink="http://www.w3.org/1999/xlink" width="374.5" height="89.4" viewBox="0 0 374.5 89.4">
  <defs>
    <style>
      .cls-1 {
        fill: url(#linear-gradient);
      }

      .cls-2, .cls-4, .cls-5 {
        fill: #fff;
      }

      .cls-2 {
        opacity: 0.3;
      }

      .cls-2, .cls-3, .cls-4 {
        isolation: isolate;
      }

      .cls-4 {
        font-size: 16px;
        font-family: Montserrat-Medium, Montserrat;
      }
    </style>
    <linearGradient id="linear-gradient" x1="405.55" y1="126.36" x2="21.53" y2="-32.27" gradientUnits="userSpaceOnUse">
      <stop offset="0" stop-color="#64dcc2"/>
      <stop offset="1" stop-color="#70bce6"/>
    </linearGradient>
  </defs>
  <title>banner_ac_E0</title>
  <g id="Page-1">
    <g id="UI---Screen-7---v2">
      <g id="Group-2">
        <path id="Path-4" class="cls-1" d="M0,72.4C71,74,112,68.2,210.5,71c58.9,1.7,113.3,7.8,164,18.4V0H0Z"/>
        <rect id="Rectangle-Copy-2" class="cls-2" x="23.5" y="22" width="47" height="7" rx="3.3" ry="3.3"/>
        <path id="Rectangle-Copy-4" class="cls-2" d="M189.8,29h40.5a3.3,3.3,0,0,1,3.3,3.3v.5a3.2,3.2,0,0,1-3.2,3.2H189.8a3.2,3.2,0,0,1-3.2-3.2v-.5a3.2,3.2,0,0,1,3.2-3.2Z"/>
        <rect id="Rectangle-Copy-3" class="cls-2" x="64.5" y="35" width="47" height="7" rx="3.3" ry="3.3"/>
        <rect id="Rectangle-Copy-5" class="cls-2" x="233.5" y="42" width="47" height="7" rx="3.3" ry="3.3"/>
        <g id="sweep">
          <g id="_" data-name="+" class="cls-3">
            <text class="cls-4" transform="translate(298.5 26)">+</text>
          </g>
          <g id="_-copy" data-name="+-copy" class="cls-3">
            <text class="cls-4" transform="translate(336.5 14)">+</text>
          </g>
        </g>
      </g>
    </g>
  </g>
  <g>
    <path class="cls-5" d="M325.8,53.9l3.3,3.3,3.2-1.8,1.3.6,1,3.5h4.7l.9-3.5,1.4-.6,3.1,1.8,3.4-3.3-.7-1.2h9V13.6H317.2V52.7h9.3Zm2.3-1.2.8-1.4.3-.5v-.4l-.3-.5a2.4,2.4,0,0,1-.2-.8.8.8,0,0,1-.2-.5v-.4l-2.7-.7-.6-.2V44.8l1.7-.4,1.6-.4v-.4h0l.3-.8.3-.7c0-.1.1-.2.1-.3l.2-.3v-.3l-.4-.7-.5-.7-.5-1v-.2l.5-.5.7-.7.6-.6.9.6,1.2.7.7.4.4-.2.4-.2,1.4-.6h.4l.3-1,.2-.7.2-.7.2-.8h2.5l.2.8.2.7.2.7.2,1h.4l1.5.6h.4l.3.2.9-.5,2-1.2.4.4,1.2,1.2.2.2-1.1,1.9-.6,1h.1v.2c.1.3.3.5.4.8s.1.3.2.4a1.4,1.4,0,0,0,.2.7V44l3.2.8v2.5l-1.6.5-1.6.4v.4c-.1.2-.1.4-.2.6l-.6,1.2-.2.4.3.5.8,1.4.6,1-1.8,1.7-2.9-1.6-.3.2a6.2,6.2,0,0,1-1.9.7l-.4.2-.8,3.2h-2.5l-.9-3.2-.4-.2a6.7,6.7,0,0,1-1.8-.7l-.4-.2-2.8,1.6-1.8-1.7Zm14.4-21.5H355V34l-.6-1H342.5Zm11.9-1.6H342.5V27.8H355v2.8Zm0-3.3H342.5V24.4H355v2.9Zm0-3.4H342.5V21.1H355v2.8Zm0-3.4H342.5V17.7H355v2.8Zm-7,23.4h5v4.3a.6.6,0,0,1-.6.6h-1.4V43.7Zm5-1.4h-6.1l1.7-3.1h3.8a.6.6,0,0,1,.6.6Zm-20.1-4.7-.8-.5h1.7ZM318.7,34h15.5l-.2.9H318.7Zm9.1,2.3-1,1h-8.1v-1Zm-1.7,2.4.5,1h-7.9v-1Zm1.3,2.4.2.3-.3.6h-8.6v-.9Zm-2.8,2.4-1.1.2v.7h-4.8v-.9Zm-1.1,2.3v1h-4.8v-1Zm0,2.4v.2l2.6.7h-7.4v-.9Zm23.1,3.1-.3-.5a12.1,12.1,0,0,0,.5-1.4l.7-.2h4.3a2,2,0,0,0,2-2V38.9a2,2,0,0,0-2-2h-5.1l-2-1.9-2.2,1.2V34.6H355V51.3ZM355,17.1l-.6-1H342.5V15H355ZM341.1,15V36.5l-.5-.2h.4V34.9h-1.1l-.3-.9H341V32.5H318.7v-.9H341V30.2H318.7v-1H341V27.8H318.7v-.9H341V25.4H318.7v-.9H341V23.1H318.7v-1H341V20.7H318.7v-1H341V18.3H318.7v-.9H341V15.9H318.7V15ZM318.7,51.3v-.7h8.8v.2l-.3.5Z"/>
    <path class="cls-5" d="M321,54.8v4.5a4.3,4.3,0,0,0,4.3,4.3h23a4.3,4.3,0,0,0,4.3-4.3V54.8h-1.4v4.5a2.9,2.9,0,0,1-2.9,2.9h-23a2.8,2.8,0,0,1-2.8-2.9V54.8Z"/>
    <path class="cls-5" d="M330.3,50.8h.2a.1.1,0,0,0,.2,0l.3-.3.7-.7h.7l.5.5v.5l-.4.4-.7.7a.1.1,0,0,0,0,.2c0,.1,0,.2.1.2h.9a2.3,2.3,0,0,0,2-1.1.1.1,0,0,0,.1-.1,2.5,2.5,0,0,0,.4-.7v-.7a1.3,1.3,0,0,0-.1-.6l.2-.2.9-.9.5-.4.3.3h-.2a.3.3,0,0,0,0,.4h.4v-.2l.6.6.7.8.6.7.7.7.7.8h0a1.6,1.6,0,0,0,2.2,0c.2-.3.4-.5.4-.8a1.5,1.5,0,0,0-.4-1.4h0l-.4-.4-1.4-1.3H341l-.7-.7-.8-.7-.2-.2h.2a.3.3,0,1,0-.4-.4v.2l-.4-.4h.1l1.4-1.4h1a2.8,2.8,0,0,0,2.3-2.6,2.4,2.4,0,0,0-.2-.8.2.2,0,0,0-.2-.2h-.2l-.3.3-.8.8h-.5v-.2l-.4-.4v-.4h0l.3-.4h.1l.6-.6v-.2a.2.2,0,0,0-.2-.2h-.8a2.8,2.8,0,0,0-1.3.4,1.8,1.8,0,0,0-.8.7h0a2.5,2.5,0,0,0-.4.7,2.8,2.8,0,0,0-.1.9,1.3,1.3,0,0,0,.1.6l-.9.9-.9.9h-.2l-.9-.9L334,42l-.8-.7v-.6c0-.1,0-.2-.1-.2H333l-1.2-.7-.5-.3a.2.2,0,0,0-.3,0l-.3.3-.4.4a.4.4,0,0,0-.1.3h0l.4.6.6.9v.3h.8l1.1,1.1.9.9,1.2,1.2-.2.2-1,1-.7.7a1.7,1.7,0,0,0-1.4,0l-.7.4-.4.3a2.4,2.4,0,0,0-.6.9,2.2,2.2,0,0,0-.1.8h0a1.5,1.5,0,0,0,.1.7Zm6.8-3.4.6-.6.5-.5.4.3v.2l-1,1-.3-.3Z"/>
  </g>
</svg>
