<svg id="Layer_1" data-name="Layer 1" xmlns="http://www.w3.org/2000/svg" xmlns:xlink="http://www.w3.org/1999/xlink" width="374.5" height="89.4" viewBox="0 0 374.5 89.4">
  <defs>
    <style>
      .cls-1 {
        fill: url(#linear-gradient);
      }

      .cls-2, .cls-4, .cls-5 {
        fill: #fff;
      }

      .cls-2 {
        opacity: 0.3;
      }

      .cls-2, .cls-3, .cls-4 {
        isolation: isolate;
      }

      .cls-4 {
        font-size: 16px;
        font-family: Montserrat-Medium, Montserrat;
      }
    </style>
    <linearGradient id="linear-gradient" x1="405.55" y1="126.36" x2="21.53" y2="-32.27" gradientUnits="userSpaceOnUse">
      <stop offset="0" stop-color="#75c8b8"/>
      <stop offset="1" stop-color="#71bbe4"/>
    </linearGradient>
  </defs>
  <title>banner_pumbing_P0</title>
  <g id="Page-1">
    <g id="UI---Screen-7---v2">
      <g id="Group-2">
        <path id="Path-4" class="cls-1" d="M0,72.4C71,74,112,68.2,210.5,71c58.9,1.7,113.3,7.8,164,18.4V0H0Z"/>
        <rect id="Rectangle-Copy-2" class="cls-2" x="23.5" y="22" width="47" height="7" rx="3.3" ry="3.3"/>
        <rect id="Rectangle-Copy-4" class="cls-2" x="186.5" y="29" width="47" height="7" rx="3.3" ry="3.3"/>
        <rect id="Rectangle-Copy-3" class="cls-2" x="64.5" y="35" width="47" height="7" rx="3.3" ry="3.3"/>
        <path id="Rectangle-Copy-5" class="cls-2" d="M236.8,42h40.5a3.2,3.2,0,0,1,3.2,3.2v.5a3.2,3.2,0,0,1-3.2,3.2H236.8a3.3,3.3,0,0,1-3.2-3.2v-.5A3.3,3.3,0,0,1,236.8,42Z"/>
        <g id="sweep">
          <g id="_" data-name="+" class="cls-3">
            <text class="cls-4" transform="translate(358 26)">+</text>
          </g>
          <g id="_-copy" data-name="+-copy" class="cls-3">
            <text class="cls-4" transform="translate(336.5 14)">+</text>
          </g>
        </g>
      </g>
    </g>
  </g>
  <g>
    <path class="cls-5" d="M333.8,16.4a25,25,0,1,0,25,25A25,25,0,0,0,333.8,16.4Zm14.1,7.5a2,2,0,1,1-2-2A2,2,0,0,1,347.9,23.9ZM337.5,21a2,2,0,1,1-2-2A2,2,0,0,1,337.5,21Zm16.2,31.3a2,2,0,0,1-1.5-.1,2.2,2.2,0,0,1-1-1.1,2,2,0,0,1,.1-1.5,1.8,1.8,0,0,1,1.1-1h.7a1.9,1.9,0,0,1,1.8,1.3A2,2,0,0,1,353.7,52.3Zm2.4-3.3a3.3,3.3,0,0,0-4.2-1.8A3.7,3.7,0,0,0,350,49a3.3,3.3,0,0,0-.1,2.6,3.5,3.5,0,0,0,1.7,1.9,4,4,0,0,0,1.5.3h.8a23.6,23.6,0,1,1-20.1-35.9h.4a3.5,3.5,0,0,0-2.1,3.2,3.4,3.4,0,0,0,6.8,0,3.5,3.5,0,0,0-1.6-2.9,23.4,23.4,0,0,1,7.7,2.6,3.4,3.4,0,0,0,.9,6.6,3.4,3.4,0,0,0,3.4-3.4v-.2a22.7,22.7,0,0,1,5,6.1,3.5,3.5,0,0,0-3.6,1.4,3.4,3.4,0,0,0,.9,4.7,3.3,3.3,0,0,0,1.9.6,3.5,3.5,0,0,0,2.8-1.4c0-.1.1-.2.1-.3a22.6,22.6,0,0,1-.3,14.2Zm-1-14.8a1.9,1.9,0,0,1-3.2-2.2,1.8,1.8,0,0,1,1.6-.8,2,2,0,0,1,1.1.3A1.9,1.9,0,0,1,355.1,34.2Z"/>
    <path class="cls-5" d="M320.2,30.7a8.8,8.8,0,0,0,0,17.5,8.8,8.8,0,1,0,0-17.5Zm0,16.1a7.4,7.4,0,0,1,0-14.7,7.4,7.4,0,0,1,0,14.7Z"/>
    <path class="cls-5" d="M325.3,27.1a3.4,3.4,0,0,0,3.4-3.4,3.4,3.4,0,1,0-6.8,0A3.4,3.4,0,0,0,325.3,27.1Zm0-5.3a1.9,1.9,0,0,1,2,1.9,2,2,0,0,1-4,0A1.9,1.9,0,0,1,325.3,21.8Z"/>
    <path class="cls-5" d="M351.7,37.9a3.1,3.1,0,0,0-2.5-.4,3.7,3.7,0,0,0-2.2,1.4,3.5,3.5,0,0,0,1,4.7,3.3,3.3,0,0,0,1.9.6h.7a3.2,3.2,0,0,0,2.1-1.5,3.1,3.1,0,0,0,.5-2.5A3.4,3.4,0,0,0,351.7,37.9Zm-.2,4a1.9,1.9,0,0,1-2.7.5,2,2,0,0,1-.6-2.7,2.2,2.2,0,0,1,1.3-.8h.4a1.7,1.7,0,0,1,1,.3,2,2,0,0,1,.9,1.3A2.1,2.1,0,0,1,351.5,41.9Z"/>
    <path class="cls-5" d="M345.2,53.9a3.4,3.4,0,0,0-4.3,4.6,3.7,3.7,0,0,0,1.9,1.8l1.2.2a3.5,3.5,0,0,0,1.4-.3,3.7,3.7,0,0,0,1.8-1.9,3.4,3.4,0,0,0-.1-2.6A3.7,3.7,0,0,0,345.2,53.9Zm.6,3.9a1.8,1.8,0,0,1-1,1.1,1.9,1.9,0,0,1-1.5,0,1.8,1.8,0,0,1-1.1-1,1.9,1.9,0,0,1,0-1.5,1.6,1.6,0,0,1,1-1.1l.8-.2.7.2a1.6,1.6,0,0,1,1.1,1A1.9,1.9,0,0,1,345.8,57.8Z"/>
    <path class="cls-5" d="M340.8,35.9a3.3,3.3,0,0,0,1.9.6,3.4,3.4,0,1,0-2.8-5.3A3.4,3.4,0,0,0,340.8,35.9Zm.3-3.9a1.8,1.8,0,0,1,1.6-.8,2,2,0,0,1,1.1.3,1.9,1.9,0,1,1-2.7.5Z"/>
    <path class="cls-5" d="M342.8,50.4a3.3,3.3,0,0,0,2-4.3,3.4,3.4,0,0,0-4.3-2.1,2.9,2.9,0,0,0-1.9,1.8,3.3,3.3,0,0,0-.2,2.6,3.7,3.7,0,0,0,1.8,1.9,3.2,3.2,0,0,0,1.4.3Zm-2-1.4a1.8,1.8,0,0,1-1-1.1,1.6,1.6,0,0,1,.1-1.5,1.6,1.6,0,0,1,1.1-1l.6-.2a2.1,2.1,0,0,1,1.9,1.3,2.1,2.1,0,0,1-1.2,2.6A2.6,2.6,0,0,1,340.8,49Z"/>
    <path class="cls-5" d="M333.5,54.9a3.3,3.3,0,0,0-4.1,2.3,3.4,3.4,0,0,0,2.4,4.2h.8a3.4,3.4,0,0,0,3.3-2.5,3.4,3.4,0,0,0-.3-2.6A3.6,3.6,0,0,0,333.5,54.9Zm1,3.7a1.9,1.9,0,0,1-2.4,1.4,1.9,1.9,0,0,1-1.3-2.4,2,2,0,0,1,2.4-1.4,2.3,2.3,0,0,1,1.2,1A1.7,1.7,0,0,1,334.5,58.6Z"/>
    <path class="cls-5" d="M331.2,32.7a3.3,3.3,0,0,0,1.9.6h.6a3.7,3.7,0,0,0,2.2-1.4,3.3,3.3,0,0,0-.9-4.7,3.4,3.4,0,0,0-4.7.8,3.4,3.4,0,0,0-.5,2.6A3,3,0,0,0,331.2,32.7Zm.3-3.9a1.8,1.8,0,0,1,1.3-.9h.3a1.5,1.5,0,0,1,1.1.4,1.9,1.9,0,0,1,.5,2.7,1.9,1.9,0,0,1-2.7.5,2.2,2.2,0,0,1-.8-1.3A1.7,1.7,0,0,1,331.5,28.8Z"/>
    <path class="cls-5" d="M339.2,40.7a3.4,3.4,0,0,0-4.4-4.5A2.9,2.9,0,0,0,333,38a3.3,3.3,0,0,0-.1,2.6,3.5,3.5,0,0,0,3.2,2.2l1.2-.3A3.3,3.3,0,0,0,339.2,40.7Zm-1.3-.5a2.7,2.7,0,0,1-1.1,1,1.9,1.9,0,0,1-1.5,0,2.3,2.3,0,0,1-1.1-1.1,1.9,1.9,0,0,1,.1-1.5,2,2,0,0,1,1.1-1.1h.7l.8.2a2.2,2.2,0,0,1,1,1.1A1.9,1.9,0,0,1,337.9,40.2Z"/>
    <path class="cls-5" d="M333.9,45.5a3.5,3.5,0,0,0-4.1,2.5,3.4,3.4,0,0,0,2.5,4.1h.8a3.1,3.1,0,0,0,1.8-.5,3.3,3.3,0,0,0,1.5-2.1A3.5,3.5,0,0,0,333.9,45.5Zm1.1,3.8a1.8,1.8,0,0,1-.9,1.2,1.9,1.9,0,0,1-1.5.3,2.7,2.7,0,0,1-1.2-.9,2.6,2.6,0,0,1-.2-1.5,1.9,1.9,0,0,1,1.9-1.5h.5A2,2,0,0,1,335,49.3Z"/>
    <path class="cls-5" d="M323,52.5a3.8,3.8,0,0,0-1.1,2.3,3.4,3.4,0,0,0,.9,2.4,3.5,3.5,0,0,0,2.3,1.2h.2a3.5,3.5,0,0,0,2.3-.9,3.4,3.4,0,0,0,.2-4.8A3.4,3.4,0,0,0,323,52.5Zm3.6,3.9a1.6,1.6,0,0,1-1.4.5,2,2,0,0,1-1.4-.6,2.4,2.4,0,0,1-.5-1.4,2.3,2.3,0,0,1,.7-1.4,2.1,2.1,0,0,1,1.3-.5,1.9,1.9,0,0,1,1.5.7,2.4,2.4,0,0,1,.5,1.4A2.1,2.1,0,0,1,326.6,56.4Z"/>
  </g>
</svg>
