<?xml version="1.0" encoding="UTF-8" standalone="no"?>
<svg width="42px" height="35px" viewBox="0 0 42 35" version="1.1" xmlns="http://www.w3.org/2000/svg" xmlns:xlink="http://www.w3.org/1999/xlink">
    <!-- Generator: sketchtool 48.1 (47250) - http://www.bohemiancoding.com/sketch -->
    <title>C77902D3-A6E9-40A9-AEAF-EE6EA23998A4</title>
    <desc>Created with sketchtool.</desc>
    <defs>
        <polygon id="path-1" points="4.5171 0.0221818182 0.252653008 0.0221818182 0.252653008 14.0139636 4.5171 14.0139636 4.5171 0.0221818182"></polygon>
        <polygon id="path-3" points="15.8146307 31.7272727 0.073573226 31.7272727 0.073573226 0.0507636364 15.8146307 0.0507636364 15.8146307 31.7272727"></polygon>
        <polygon id="path-5" points="41.2362632 35 41.2362632 0.0221818182 0 0.0221818182 0 35 15.740944 35 15.740944 3.32338182 0.000137677397 3.32338182 0.000137677397 35.0001091 15.740944 35.0001091"></polygon>
    </defs>
    <g id="Pahal--v5---Technical-Assistance" stroke="none" stroke-width="1" fill="none" fill-rule="evenodd" transform="translate(-1183.000000, -514.000000)">
        <g id="Page-1-Copy-2" transform="translate(1183.000000, 514.000000)">
            <path d="M32.0830244,15.3636364 L32.7351124,14.6144639 L32.4904515,14.3518673 L32.4935225,14.350764 L32.7422782,14.6067404 C32.8006283,14.5394363 32.8722863,14.4721321 32.961347,14.3948979 L33.1578947,14.2293958 L32.0963323,3.43645725 L31.761587,3.38349661 C31.6817395,3.37025644 31.6039394,3.36363636 31.5292103,3.36363636 C31.1269017,3.36363636 30.7430194,3.53575847 30.4471742,3.84800562 C29.8749337,4.45484637 29.6886228,5.50081915 29.9742312,6.51369153 L32.0830244,15.3636364 Z" id="Fill-1" fill="#093A66"></path>
            <g id="Group-5" transform="translate(32.052632, 0.000000)">
                <mask id="mask-2" fill="white">
                    <use xlink:href="#path-1"></use>
                </mask>
                <g id="Clip-4"></g>
                <path d="M1.43231053,13.5077818 L1.49862632,14.0139636 L1.99157368,13.9277818 L2.00815263,13.9256 C2.02473158,13.9234182 2.04352105,13.9212364 2.06562632,13.9168727 L2.08662632,13.9146909 C2.14520526,13.9048727 2.20157368,13.8972364 2.25904737,13.8939636 L2.69673158,13.8601455 L3.00399474,5.39687273 C2.99404737,4.52632727 3.44388947,3.74523636 4.17667895,3.33941818 L4.5171,3.15069091 L4.40325789,2.77323636 C4.27504737,2.35105455 4.15236316,1.95069091 4.0341,1.57978182 C3.73899474,0.648145455 2.98188947,0.0219636364 2.15073158,0.0219636364 C1.80699474,0.0219636364 1.47099474,0.129963636 1.18141579,0.336145455 C0.481784211,0.8336 0.131415789,1.82523636 0.290573684,2.86269091 L1.43231053,13.5077818 Z" id="Fill-3" fill="#093A66" mask="url(#mask-2)"></path>
            </g>
            <g id="Group-8" transform="translate(25.421053, 3.272727)">
                <mask id="mask-4" fill="white">
                    <use xlink:href="#path-3"></use>
                </mask>
                <g id="Clip-7"></g>
                <path d="M13.7709158,1.50494545 C13.5741789,0.649672727 12.8004947,0.0507636364 11.8886526,0.0507636364 C11.6388632,0.0507636364 11.3946,0.0976727273 11.1602842,0.189309091 C10.3866,0.494763636 9.87928421,1.26712727 9.89475789,2.11367273 L9.58307368,10.6456727 L9.90028421,10.7689455 C10.2075474,10.8878545 10.4805474,11.0689455 10.7104421,11.3056727 C11.5482316,12.1598545 11.5913368,13.3947636 10.8287053,14.6907636 L8.3076,18.4140364 L8.09538947,18.2634909 L10.5910737,14.5816727 C11.2918105,13.3882182 11.2630737,12.2427636 10.5280737,11.4922182 C10.2396,11.1976727 9.87817895,11.0002182 9.47144211,10.9162182 C9.40291579,10.9031273 9.35538947,10.8965818 9.29791579,10.8889455 C9.2316,10.8813091 9.20949474,10.8802182 9.18849474,10.8802182 C9.1266,10.8780364 9.10449474,10.8769455 9.07907368,10.8769455 C8.52865263,10.8769455 8.0136,11.0962182 7.61902105,11.4987636 L0.950968421,18.5274909 C0.328705263,19.1831273 0.0126,20.0798545 0.0833368421,20.9896727 L0.401652632,25.1689455 L0.256863158,31.7274909 L9.91796842,31.7274909 L10.0329158,23.9296727 L15.3735474,14.8107636 C15.7482316,14.1704 15.8908105,13.4111273 15.7758632,12.6747636 C15.4122316,10.3620364 14.4904421,4.64567273 13.7709158,1.50494545 Z" id="Fill-6" fill="#093A66" mask="url(#mask-4)"></path>
            </g>
            <path d="M7.9324144,14.3948979 C8.02252101,14.4721321 8.09214885,14.5405396 8.15563305,14.6089471 L8.8099299,15.3636364 L10.9202676,6.51369153 C11.2059465,5.4997158 11.0206136,4.45484637 10.4472079,3.84800562 C10.1512896,3.53575847 9.76731262,3.36363636 9.36388076,3.36363636 C9.28913323,3.36363636 9.21233782,3.37025644 9.13349454,3.38349661 L8.79764264,3.43645725 L7.73684211,14.2293958 L7.9324144,14.3948979 Z" id="Fill-9" fill="#093A66"></path>
            <path d="M5.98891027,5.50849618 L5.98891027,5.52064571 L6.30752461,14.0993203 L6.75908595,14.1346644 C6.81982897,14.1379779 6.8794259,14.1457094 6.93787673,14.1545455 L6.96767519,14.1589635 C6.98601271,14.162277 7.00320413,14.164486 7.01924946,14.166695 L7.56020619,14.2727273 L8.803719,2.96593033 C8.96646446,1.915548 8.60315242,0.9115548 7.87652834,0.407901444 C7.57739761,0.199150382 7.23013089,0.0909090909 6.87254933,0.0909090909 C6.01183216,0.0909090909 5.22675725,0.723789295 4.91960385,1.66703483 C4.7992639,2.04256585 4.67090129,2.44791844 4.5379543,2.87536109 L4.42105263,3.25751912 L4.77175763,3.44970263 C5.53161846,3.85947324 5.99807902,4.65029737 5.98891027,5.50849618" id="Fill-11" fill="#093A66"></path>
            <g id="Group-15">
                <path d="M8.19022105,14.7659273 C7.80116842,14.3688364 7.28390526,14.1506545 6.73458947,14.1506545 C6.71027368,14.1506545 6.68706316,14.1517455 6.66274737,14.1528364 C6.60527368,14.1539273 6.58316842,14.1550182 6.56437895,14.1572 C6.54890526,14.1582909 6.53232632,14.1604727 6.5058,14.1637455 C6.45827368,14.1692 6.41074737,14.1757455 6.36543158,14.1844727 C5.93658947,14.2717455 5.57406316,14.4702909 5.28669474,14.7648364 C4.55169474,15.5164727 4.52185263,16.6608364 5.20711579,17.8270182 L7.71937895,21.5361091 L7.50716842,21.6866545 L5.01148421,18.0037455 C4.22343158,16.6673818 4.26653684,15.4335636 5.10322105,14.5772 C5.33422105,14.3415636 5.60722105,14.1615636 5.91448421,14.0415636 L6.23169474,13.9182909 L5.92001053,5.38738182 C5.93548421,4.53974545 5.42816842,3.76629091 4.65337895,3.46083636 C4.42016842,3.37029091 4.17590526,3.32338182 3.92611579,3.32338182 C3.01316842,3.32338182 2.24058947,3.92229091 2.04385263,4.77756364 C1.32432632,7.92047273 0.401431579,13.6357455 0.0389052632,15.9473818 C-0.0760421053,16.6837455 0.0665368421,17.4419273 0.441221053,18.0833818 L5.78185263,27.2033818 L5.89569474,35.0001091 L15.5579053,35.0001091 L15.4131158,28.4415636 L15.7314316,24.2622909 C15.8010632,23.3524727 15.4860632,22.4557455 14.8638,21.8012 L8.19022105,14.7659273 Z" id="Fill-13" fill="#093A66"></path>
                <mask id="mask-6" fill="white">
                    <use xlink:href="#path-5"></use>
                </mask>
                <g id="Clip-14"></g>
            </g>
            <path d="M16.5971785,5.69992898 L18.9831796,5.69992898 C19.3842648,5.69992898 19.8343462,5.77663352 20.3357027,5.92791193 C21.0364623,6.18572443 21.5104721,6.54474432 21.7543136,7.00603693 L17.4893652,7.02414773 C17.4768313,7.02414773 17.1737385,7.42684659 16.5789474,8.234375 C16.5789474,8.25674716 16.5914813,8.26953125 16.6165491,8.26953125 L21.9890396,8.26953125 C21.9890396,8.45596591 21.9514379,8.63707386 21.8762344,8.81285511 C21.3942485,10.0113636 20.1636462,10.6090199 18.185567,10.6090199 C17.7651112,10.6090199 17.3982094,10.5898438 17.0860011,10.5482955 L17.0666305,10.5919744 L17.0666305,11.7585227 C17.0666305,11.7766335 18.8327727,13.7049006 22.365057,17.5454545 L24.3283234,17.5454545 C24.3590884,17.5454545 24.3750407,17.5326705 24.3750407,17.5102983 L24.3750407,17.2737926 L19.912968,12.2485795 C19.5187195,11.8235085 19.3227347,11.5806108 19.3227347,11.522017 C20.1226262,11.5039063 20.9612588,11.3089489 21.8397721,10.9158381 C22.3080846,10.7400568 22.7991861,10.3586648 23.314216,9.76846591 C23.7016278,9.18359375 23.9147043,8.68394886 23.952306,8.26953125 L25.6238741,8.26953125 C25.6375475,8.26953125 25.9303852,7.86576705 26.5069452,7.05823864 C26.5069452,7.04119318 26.4921324,7.02947443 26.4602279,7.02414773 L23.8862181,7.02414773 C23.7677157,6.50426136 23.5421053,6.06214489 23.2105263,5.69992898 L25.6238741,5.69992898 C25.6933804,5.64772727 25.9930548,5.23757102 26.5263158,4.47265625 L17.4893652,4.45454545 C17.4722735,4.45454545 17.1737385,4.85511364 16.5971785,5.65625 L16.5971785,5.69992898 Z" id="Fill-16" fill="#093A66"></path>
        </g>
    </g>
</svg>