<svg id="Layer_1" data-name="Layer 1" xmlns="http://www.w3.org/2000/svg" xmlns:xlink="http://www.w3.org/1999/xlink" width="374.5" height="89.4" viewBox="0 0 374.5 89.4">
  <defs>
    <style>
      .cls-1 {
        fill: url(#linear-gradient);
      }

      .cls-2, .cls-4, .cls-5 {
        fill: #fff;
      }

      .cls-2 {
        opacity: 0.3;
      }

      .cls-2, .cls-3, .cls-4 {
        isolation: isolate;
      }

      .cls-4 {
        font-size: 16px;
        font-family: Montserrat-Medium, Montserrat;
      }
    </style>
    <linearGradient id="linear-gradient" x1="405.55" y1="126.36" x2="21.53" y2="-32.27" gradientUnits="userSpaceOnUse">
      <stop offset="0" stop-color="#75c8b8"/>
      <stop offset="1" stop-color="#71bbe4"/>
    </linearGradient>
  </defs>
  <title>banner_pumbing_P0</title>
  <g id="Page-1">
    <g id="UI---Screen-7---v2">
      <g id="Group-2">
        <path id="Path-4" class="cls-1" d="M0,72.4C71,74,112,68.2,210.5,71c58.9,1.7,113.3,7.8,164,18.4V0H0Z"/>
        <rect id="Rectangle-Copy-2" class="cls-2" x="23.5" y="22" width="47" height="7" rx="3.3" ry="3.3"/>
        <rect id="Rectangle-Copy-4" class="cls-2" x="186.5" y="29" width="47" height="7" rx="3.3" ry="3.3"/>
        <rect id="Rectangle-Copy-3" class="cls-2" x="64.5" y="35" width="47" height="7" rx="3.3" ry="3.3"/>
        <path id="Rectangle-Copy-5" class="cls-2" d="M236.8,42h40.5a3.3,3.3,0,0,1,3.3,3.3v.5a3.2,3.2,0,0,1-3.2,3.2H236.8a3.3,3.3,0,0,1-3.2-3.2v-.5A3.3,3.3,0,0,1,236.8,42Z"/>
        <g id="sweep">
          <g id="_" data-name="+" class="cls-3">
            <text class="cls-4" transform="translate(358 26)">+</text>
          </g>
          <g id="_-copy" data-name="+-copy" class="cls-3">
            <text class="cls-4" transform="translate(336.5 14)">+</text>
          </g>
        </g>
      </g>
    </g>
  </g>
  <g>
    <path class="cls-5" d="M338.9,41a1.5,1.5,0,0,0-.4-1.1l-2.2-2a1.5,1.5,0,0,0-2.1,0L329.9,42a2.1,2.1,0,0,0-.4,1.1,1.5,1.5,0,0,0,.4,1l2.2,2.1a1.3,1.3,0,0,0,1,.4h0a1.5,1.5,0,0,0,1.1-.4l4.3-4.1A1.5,1.5,0,0,0,338.9,41Zm-5.7,4.2h-.1v0L331,43.1l1.6-1.6-.2.7,2.8.9Zm2.6-2.6.2-.7-2.8-1,2.1-2,2.2,2.1Z"/>
    <rect class="cls-5" x="330.7" y="29.7" width="1.5" height="8.96" transform="translate(69.8 240.5) rotate(-44.2)"/>
    <path class="cls-5" d="M355,54.9V40.5h0a1.4,1.4,0,0,0,1.5-1.4V35.3a1.4,1.4,0,0,0-1.5-1.4h0v-9a5.9,5.9,0,0,0-6-5.9h-6.3a1.6,1.6,0,0,0-1.3-.8h-2.3a1.5,1.5,0,0,0-1.5-1.5H310.3a1.5,1.5,0,0,0-1.5,1.5V37.6a1.5,1.5,0,0,0,1.5,1.4h0v1.5a1.5,1.5,0,0,0,1.5,1.5h.8v6.7h-.8a1.5,1.5,0,0,0-1.5,1.5v6a1.5,1.5,0,0,0,1.5,1.4h0V65a1.5,1.5,0,0,0,1.5,1.5h4.6a1.5,1.5,0,0,0,1.5-1.5V57.6h0a1.5,1.5,0,0,0,1.5-1.4h.8a3.8,3.8,0,0,0,7.5,0h3.1a1.5,1.5,0,0,0,1.5,1.4h9.1c8.4,8.2,8.4,8.2,9,8.2a1.5,1.5,0,0,0,1.1-.4l5.3-5.2a1.4,1.4,0,0,0,.5-1,1.6,1.6,0,0,0-.5-1.1Zm-1.5-1.4-6.8-6.7V40.5h6.8Zm-15-21.9h-.2a15.3,15.3,0,0,0,.7-2.9h2.4a1.5,1.5,0,0,0,1.5-1.3h2.3v6.6h0a1.4,1.4,0,0,0-1.5,1.4v3.8a1.4,1.4,0,0,0,1.5,1.4h0v4.9l-4-3.8A10,10,0,0,0,338.5,31.6Zm4.4-5.8V20.4h.8v5.4Zm12.2,9.5v3.8h-10V35.3Zm-8.4-1.4V29.3h6.8v4.6Zm6.8-6h-6.7l5.8-5.6a3.9,3.9,0,0,1,.9,2.6Zm-2.1-6.7-5.2,5a1.3,1.3,0,0,0-1-.4h-.1V20.4H349A4.1,4.1,0,0,1,351.4,21.2Zm-10-1.5v7.5h-2.3V19.7ZM311.8,40.5V37.6h7.6v2.9h-7.6ZM314,42h3.2v6.7H314Zm3.9,23h-4.6V57.6h4.6Zm1.5-8.8h-7.6v-6h7.6v6Zm2.4-1.5h-.9v-3h2.3A11.4,11.4,0,0,0,321.8,54.7Zm3.7-6a1.5,1.5,0,0,0-.7.3,7.6,7.6,0,0,1-.8,1.3h-3.1a1.5,1.5,0,0,0-1.5-1.5h-.8V42h.8a1.5,1.5,0,0,0,1.5-1.5V37.6a1.5,1.5,0,0,0-1.5-1.5h-7.6a1.5,1.5,0,0,0-1.5,1.5h0V18.2h27.3v9a11.4,11.4,0,0,1-.5,3.3,11,11,0,0,0-13.6,1.1,1.7,1.7,0,0,0,0,2.2l5.4,5.1-.6.6-3.8-3.7a1.4,1.4,0,0,0-2.1,0,5.5,5.5,0,0,0-1.5,3.8,7.4,7.4,0,0,0,2.2,5.2v.4a1.3,1.3,0,0,0,.4,1,10.8,10.8,0,0,0,9.4,2.8,1.4,1.4,0,0,0-.6,1.2h-5.4a7.6,7.6,0,0,1-.8-1.3ZM324,43.6a5.5,5.5,0,0,1-1.6-4,3.9,3.9,0,0,1,1.1-2.7l3.8,3.6Zm5.1,11.1a15.1,15.1,0,0,0-1.3-3h4.5v3Zm4.7,1.5v-6h1.4l6.1,6Zm18.1,8.9v-.7h0Zm.1-.8c-.6-.4-2.8-2.6-9-8.5l-8.8-8.6h-.5a9.4,9.4,0,0,1-9.2-2.1l6.5-6.3-6.5-6.2a9.5,9.5,0,0,1,12.3-.6.1.1,0,0,0,.1.1l.6.5a8.6,8.6,0,0,1,2.2,8.9V42l17.7,17.2Z"/>
    <path class="cls-5" d="M348.9,59.2a3.6,3.6,0,0,0,.9,2.1,3.2,3.2,0,0,0,2.1.8h0a2.9,2.9,0,0,0,3-2.9,2.7,2.7,0,0,0-.9-2.1,2.9,2.9,0,0,0-4.2,0A3.1,3.1,0,0,0,348.9,59.2Zm1.9-1.1a1.6,1.6,0,0,1,2.2,0,1.6,1.6,0,0,1,.5,1.1,1.4,1.4,0,0,1-.5,1,1.4,1.4,0,0,1-1.1.4h0a1.5,1.5,0,0,1-1.1-.4,1.8,1.8,0,0,1-.4-1A2.1,2.1,0,0,1,350.8,58.1Z"/>
    <polygon class="cls-5" points="337 45.7 348.9 57 349.9 56.1 338 44.7 337 45.7"/>
    <path class="cls-5" d="M332.3,57.7a.7.7,0,0,0-.6.2c-.4.5-2.5,2.8-2.5,4.2a3,3,0,0,0,3.1,3,2.9,2.9,0,0,0,3-3c0-1.4-2-3.7-2.5-4.2S332.5,57.7,332.3,57.7Z"/>
    <rect class="cls-5" x="312.6" y="20.5" width="3" height="1.41"/>
    <rect class="cls-5" x="317.1" y="20.5" width="9.1" height="1.41"/>
    <rect class="cls-5" x="323.2" y="23.5" width="3" height="1.41"/>
    <rect class="cls-5" x="312.6" y="23.5" width="9.1" height="1.41"/>
    <rect class="cls-5" x="327.7" y="20.5" width="1.5" height="1.41"/>
  </g>
</svg>
