<svg id="Layer_1" data-name="Layer 1" xmlns="http://www.w3.org/2000/svg" xmlns:xlink="http://www.w3.org/1999/xlink" width="70" height="70" viewBox="0 0 70 70">
  <defs>
    <style>
      .cls-1 {
        fill: #f6f6f6;
      }

      .cls-2 {
        fill: url(#linear-gradient);
      }

      .cls-3 {
        fill: url(#linear-gradient-2);
      }

      .cls-4 {
        fill: url(#linear-gradient-3);
      }

      .cls-5 {
        fill: url(#linear-gradient-4);
      }

      .cls-6 {
        fill: url(#linear-gradient-5);
      }

      .cls-7 {
        fill: url(#linear-gradient-6);
      }

      .cls-8 {
        fill: url(#linear-gradient-7);
      }

      .cls-9 {
        fill: url(#linear-gradient-8);
      }
    </style>
    <linearGradient id="linear-gradient" x1="53.81" y1="67.84" x2="17.02" y2="3.56" gradientUnits="userSpaceOnUse">
      <stop offset="0" stop-color="#75c9b9"/>
      <stop offset="1" stop-color="#72bde5"/>
    </linearGradient>
    <linearGradient id="linear-gradient-2" x1="58.18" y1="65.34" x2="21.39" y2="1.06" xlink:href="#linear-gradient"/>
    <linearGradient id="linear-gradient-3" x1="45.91" y1="72.36" x2="9.12" y2="8.08" xlink:href="#linear-gradient"/>
    <linearGradient id="linear-gradient-4" x1="58.28" y1="65.28" x2="21.5" y2="1" xlink:href="#linear-gradient"/>
    <linearGradient id="linear-gradient-5" x1="70.03" y1="58.56" x2="33.25" y2="-5.73" xlink:href="#linear-gradient"/>
    <linearGradient id="linear-gradient-6" x1="70.64" y1="58.21" x2="33.86" y2="-6.08" xlink:href="#linear-gradient"/>
    <linearGradient id="linear-gradient-7" x1="45.76" y1="72.45" x2="8.97" y2="8.16" xlink:href="#linear-gradient"/>
    <linearGradient id="linear-gradient-8" x1="58.23" y1="65.32" x2="21.44" y2="1.03" xlink:href="#linear-gradient"/>
  </defs>
  <title>icon_housekeeping_H0</title>
  <path id="Rectangle" class="cls-1" d="M3,0H67a2.9,2.9,0,0,1,3,3V67a2.9,2.9,0,0,1-3,3H3a2.9,2.9,0,0,1-3-3V3A2.9,2.9,0,0,1,3,0Z"/>
  <g>
    <path class="cls-2" d="M51.9,15.3l-8.8-5.2L35,14.9l-8.1-4.8-8.8,5.2v9.5L10,29.6V40.1L18.1,45v9.6l8.8,5.3L35,55.1l8.1,4.8,8.8-5.3V45L60,40.1V29.7l-8.1-4.9Zm-1.4.8v8.7L43.4,29l-.3.2h0l-7.4-4.4V16.1l7.4-4.3ZM42.4,39.3,35,43.7l-7.4-4.4V30.5h.1L35,26.1l7.3,4.3h.1ZM19.5,16.1l7.4-4.3,7.4,4.3v8.7l-7.4,4.4h0l-7.4-4.4ZM11.4,39.3V30.5l7.4-4.4,6.8,4,.6.4v8.8l-7.4,4.4Zm8.1,14.5V45l7.4-4.4L34.3,45v8.8l-7.4,4.4Zm31,0-7.4,4.4-7.4-4.4V45l7.4-4.4L50.5,45Zm8.1-23.3v8.8l-7.4,4.4-7.4-4.4V30.5l1.1-.7,6.3-3.7Z"/>
    <polygon class="cls-3" points="31.4 17.9 31.4 21.3 31.4 22.5 32.9 22.5 32.9 17.1 28.1 14.2 27.4 15.5 28.5 16.1 31.4 17.9"/>
    <polygon class="cls-4" points="23.4 32.4 23.4 35.8 23.4 37 24.9 37 24.9 31.6 20.1 28.8 19.8 29.4 19.4 30 20.5 30.7 23.4 32.4"/>
    <polygon class="cls-5" points="36.2 29.4 35.8 30 36.9 30.7 39.9 32.4 39.9 35.8 39.9 37 41.3 37 41.3 31.6 36.5 28.8 36.2 29.4"/>
    <polygon class="cls-6" points="55.5 32.4 55.5 35.8 55.5 37 56.9 37 56.9 31.6 52.1 28.8 51.8 29.4 51.4 30 52.5 30.6 55.5 32.4"/>
    <polygon class="cls-7" points="48 17.9 48 21.3 48 22.5 49.4 22.5 49.4 17.1 44.6 14.2 44.3 14.8 43.9 15.5 45 16.1 48 17.9"/>
    <polygon class="cls-8" points="27.7 43.6 27.4 44.3 28.5 44.9 31.4 46.7 31.4 50.1 31.4 51.3 32.9 51.3 32.9 45.9 28.1 43 27.7 43.6"/>
    <polygon class="cls-9" points="48 46.7 48 50.1 48 51.3 49.4 51.3 49.4 45.9 44.6 43 44.3 43.6 43.9 44.3 45 44.9 48 46.7"/>
  </g>
</svg>
