<svg id="Layer_1" data-name="Layer 1" xmlns="http://www.w3.org/2000/svg" xmlns:xlink="http://www.w3.org/1999/xlink" width="70" height="70" viewBox="0 0 70 70">
  <defs>
    <style>
      .cls-1 {
        fill: #f6f6f6;
      }

      .cls-2 {
        fill: url(#linear-gradient);
      }

      .cls-3 {
        fill: url(#linear-gradient-2);
      }

      .cls-4 {
        fill: url(#linear-gradient-3);
      }
    </style>
    <linearGradient id="linear-gradient" x1="52.92" y1="64.36" x2="9.59" y2="-6.64" gradientUnits="userSpaceOnUse">
      <stop offset="0" stop-color="#75c9b9"/>
      <stop offset="1" stop-color="#72bde5"/>
    </linearGradient>
    <linearGradient id="linear-gradient-2" x1="45.69" y1="68.78" x2="2.35" y2="-2.22" xlink:href="#linear-gradient"/>
    <linearGradient id="linear-gradient-3" x1="60.29" y1="59.86" x2="16.96" y2="-11.14" xlink:href="#linear-gradient"/>
  </defs>
  <title>icon_electrical_E01</title>
  <path id="Rectangle" class="cls-1" d="M3,0H67a2.9,2.9,0,0,1,3,3V67a2.9,2.9,0,0,1-3,3H3a2.9,2.9,0,0,1-3-3V3A2.9,2.9,0,0,1,3,0Z"/>
  <g>
    <path class="cls-2" d="M35,10A25,25,0,1,0,60,35,25,25,0,0,0,35,10Zm.7,48.5V51.3a.7.7,0,1,0-1.4,0v7.2a23.5,23.5,0,0,1,0-47v7.2a.7.7,0,1,0,1.4,0V11.5a23.5,23.5,0,0,1,0,47Z"/>
    <path class="cls-3" d="M25.1,27.9a7.1,7.1,0,1,0,0,14.2,7.1,7.1,0,0,0,0-14.2Zm0,12.7A5.6,5.6,0,1,1,30.7,35,5.6,5.6,0,0,1,25.1,40.6Z"/>
    <path class="cls-4" d="M45.1,27.9a7.1,7.1,0,0,0,0,14.2,7.1,7.1,0,1,0,0-14.2Zm0,12.7A5.6,5.6,0,1,1,50.7,35,5.6,5.6,0,0,1,45.1,40.6Z"/>
  </g>
</svg>
