<svg id="Layer_1" data-name="Layer 1" xmlns="http://www.w3.org/2000/svg" xmlns:xlink="http://www.w3.org/1999/xlink" width="70" height="70" viewBox="0 0 70 70">
  <defs>
    <style>
      .cls-1 {
        fill: #f6f6f6;
      }

      .cls-2 {
        fill: url(#linear-gradient);
      }

      .cls-3 {
        fill: url(#linear-gradient-2);
      }

      .cls-4 {
        fill: url(#linear-gradient-3);
      }

      .cls-5 {
        fill: url(#linear-gradient-4);
      }

      .cls-6 {
        fill: url(#linear-gradient-5);
      }
    </style>
    <linearGradient id="linear-gradient" x1="60.11" y1="75.65" x2="15.44" y2="-2.02" gradientUnits="userSpaceOnUse">
      <stop offset="0" stop-color="#75c9b9"/>
      <stop offset="1" stop-color="#72bde5"/>
    </linearGradient>
    <linearGradient id="linear-gradient-2" x1="54.46" y1="78.89" x2="9.79" y2="1.23" xlink:href="#linear-gradient"/>
    <linearGradient id="linear-gradient-3" x1="53.53" y1="79.43" x2="8.86" y2="1.76" xlink:href="#linear-gradient"/>
    <linearGradient id="linear-gradient-4" x1="61.52" y1="74.83" x2="16.85" y2="-2.83" xlink:href="#linear-gradient"/>
    <linearGradient id="linear-gradient-5" x1="66.45" y1="72" x2="21.78" y2="-5.67" xlink:href="#linear-gradient"/>
  </defs>
  <title>icon_electrical_E01</title>
  <path id="Rectangle" class="cls-1" d="M3,0H67a2.9,2.9,0,0,1,3,3V67a2.9,2.9,0,0,1-3,3H3a2.9,2.9,0,0,1-3-3V3A2.9,2.9,0,0,1,3,0Z"/>
  <g>
    <path class="cls-2" d="M45.4,10H24.6A5.1,5.1,0,0,0,21,11.5a.7.7,0,0,0-.1,1.1.8.8,0,0,0,1.2.1,3.6,3.6,0,0,1,2.5-1.1H45.4A3.7,3.7,0,0,1,49,15.3v4.1a2.1,2.1,0,0,1-.3,1.2,2,2,0,0,1-.9.9,4.2,4.2,0,0,0-2.1,3.7v2.6a.7.7,0,0,0,.8.8.8.8,0,0,0,.8-.8V25.2a2.7,2.7,0,0,1,1.4-2.3l.3-.2V41.8l-.3-.2a1.9,1.9,0,0,1-1-1,2,2,0,0,1-.4-1.3V30.7a.9.9,0,0,0-.8-.8.8.8,0,0,0-.8.8v8.6a5.9,5.9,0,0,0,.5,2.2A4.6,4.6,0,0,0,47.8,43,2.2,2.2,0,0,1,49,45.1v3.4a3.6,3.6,0,0,1-3.6,3.7H24.6A3.6,3.6,0,0,1,21,48.5V45.1A2.2,2.2,0,0,1,22.2,43a4.6,4.6,0,0,0,1.6-1.5,5.9,5.9,0,0,0,.5-2.2V25.2a4.2,4.2,0,0,0-2.1-3.7,2,2,0,0,1-.9-.9,2.1,2.1,0,0,1-.3-1.2V14.8a.7.7,0,0,0-.2-.6.5.5,0,0,0-.5-.3.8.8,0,0,0-.9.7,1.7,1.7,0,0,0-.1.7V48.5a5.4,5.4,0,0,0,5.3,5.4h2.3v1.9H25.8a1.3,1.3,0,0,0-1.3,1.3v1.6A1.3,1.3,0,0,0,25.8,60h3.9A1.3,1.3,0,0,0,31,58.7V57.1a1.3,1.3,0,0,0-1.3-1.3H28.6V53.9H41.4v1.9H40.3A1.3,1.3,0,0,0,39,57.1v1.6A1.3,1.3,0,0,0,40.3,60h3.9a1.3,1.3,0,0,0,1.3-1.3V57.1a1.3,1.3,0,0,0-1.3-1.3H43.1V53.9h2.3a5.4,5.4,0,0,0,5.3-5.4V15.3A5.3,5.3,0,0,0,45.4,10ZM26.1,58.4v-1h3.3v1Zm14.5,0v-1h3.3v1ZM21,41.8V22.7l.3.2a2.7,2.7,0,0,1,1.4,2.3V39.3a2,2,0,0,1-.4,1.3,1.9,1.9,0,0,1-1,1Z"/>
    <path class="cls-3" d="M35,49.7a4.7,4.7,0,1,0-4.6-4.6A4.6,4.6,0,0,0,35,49.7Zm-3-4.6A3,3,0,1,1,35,48,3,3,0,0,1,32,45.1Z"/>
    <path class="cls-4" d="M33.5,45.9H34a.9.9,0,0,0,.8-.8.9.9,0,0,0-.8-.9h-.5a.9.9,0,0,0-.8.9A.9.9,0,0,0,33.5,45.9Z"/>
    <path class="cls-5" d="M31.7,26.6a6.8,6.8,0,0,0-.5,2.3,3.8,3.8,0,1,0,7.6,0c0-3.1-3.1-5.7-3.3-5.8a.7.7,0,0,0-1,0l-.9.8a.9.9,0,0,0,0,1.2.7.7,0,0,0,.6.2l.6-.2.2-.3c.8.9,2.2,2.5,2.2,4.1a2.2,2.2,0,0,1-4.4,0,5.3,5.3,0,0,1,.4-1.6.8.8,0,0,0-.4-1.1h0A.8.8,0,0,0,31.7,26.6Z"/>
    <path class="cls-6" d="M41.1,17.3a.9.9,0,0,0-.9-.8H29.8a.9.9,0,0,0-.9.8.8.8,0,0,0,.9.8H40.2A.8.8,0,0,0,41.1,17.3Z"/>
  </g>
</svg>
