<svg id="Layer_1" data-name="Layer 1" xmlns="http://www.w3.org/2000/svg" xmlns:xlink="http://www.w3.org/1999/xlink" width="70" height="70" viewBox="0 0 70 70">
  <defs>
    <style>
      .cls-1 {
        fill: #f6f6f6;
      }

      .cls-2 {
        fill: url(#linear-gradient);
      }
    </style>
    <linearGradient id="linear-gradient" x1="54.69" y1="63.76" x2="19.02" y2="-4.58" gradientUnits="userSpaceOnUse">
      <stop offset="0" stop-color="#75c9b9"/>
      <stop offset="1" stop-color="#72bde5"/>
    </linearGradient>
  </defs>
  <title>icon_electrical_E01</title>
  <path id="Rectangle" class="cls-1" d="M3,0H67a2.9,2.9,0,0,1,3,3V67a2.9,2.9,0,0,1-3,3H3a2.9,2.9,0,0,1-3-3V3A2.9,2.9,0,0,1,3,0Z"/>
  <path class="cls-2" d="M53.9,56.7V13.3A3.3,3.3,0,0,0,50.6,10H28.7a3.3,3.3,0,0,0-3.3,3.3v2.8H17a1,1,0,0,0-.9,1v5c0,.2,0,.3.1.4s.1.2.2.3l8.8,8.8a5.6,5.6,0,0,0,.3,7.7c-.1,0-.1.1-.1.2V56.7A3.3,3.3,0,0,0,28.7,60H50.6A3.3,3.3,0,0,0,53.9,56.7ZM18,21.2V18.1H32.2v3.1ZM33.1,41.3v-.9H45.8v.9ZM26.8,30.5l-7.4-7.4H32.8l7.7,7.1H28.3A4,4,0,0,0,26.8,30.5Zm15.8,1.7a.9.9,0,0,0,.6-.7.1.1,0,0,0,.1-.1.6.6,0,0,0,.2-.7.7.7,0,0,0-.3-.6l-9.1-8.4V19.1l11.5,9.3c0,.1.1.1.2.1v10H42.7a.1.1,0,0,1-.1-.1,3,3,0,0,1-2.1-3.1A3,3,0,0,1,42.6,32.2Zm-14.3-.1H39.5a6.1,6.1,0,0,0,0,6.4H28.3a3,3,0,0,1-2.6-3.2A3,3,0,0,1,28.3,32.1Zm-.9,8.2h3.8v1.9a.9.9,0,0,0,1,.9H45.8v3a.9.9,0,0,0,.9.9.9.9,0,0,0,1-.9V21.8a.9.9,0,0,0-1-.9.9.9,0,0,0-.9.9v4.3L33.7,16.4H27.4V13.3a1.3,1.3,0,0,1,1.3-1.4H50.6A1.4,1.4,0,0,1,52,13.3V56.7a1.4,1.4,0,0,1-1.4,1.4H28.7a1.3,1.3,0,0,1-1.3-1.4Z"/>
</svg>
