<svg id="Layer_1" data-name="Layer 1" xmlns="http://www.w3.org/2000/svg" xmlns:xlink="http://www.w3.org/1999/xlink" width="374.5" height="89.4" viewBox="0 0 374.5 89.4">
  <defs>
    <style>
      .cls-1 {
        fill: url(#linear-gradient);
      }

      .cls-2, .cls-4, .cls-5 {
        fill: #fff;
      }

      .cls-2 {
        opacity: 0.3;
      }

      .cls-2, .cls-3, .cls-4 {
        isolation: isolate;
      }

      .cls-4 {
        font-size: 16px;
        font-family: Montserrat-Medium, Montserrat;
      }
    </style>
    <linearGradient id="linear-gradient" x1="405.55" y1="126.36" x2="21.53" y2="-32.27" gradientUnits="userSpaceOnUse">
      <stop offset="0" stop-color="#75c9b9"/>
      <stop offset="1" stop-color="#72bde5"/>
    </linearGradient>
  </defs>
  <title>banner_electrical_E01</title>
  <g id="Page-1">
    <g id="UI---Screen-7---v2">
      <g id="Group-2">
        <path id="Path-4" class="cls-1" d="M0,72.4C71,74,112,68.2,210.5,71c58.9,1.7,113.3,7.8,164,18.4V0H0Z"/>
        <rect id="Rectangle-Copy-2" class="cls-2" x="23.5" y="22" width="47" height="7" rx="3.3" ry="3.3"/>
        <path id="Rectangle-Copy-4" class="cls-2" d="M189.8,29h40.5a3.3,3.3,0,0,1,3.3,3.3v.5a3.2,3.2,0,0,1-3.2,3.2H189.8a3.3,3.3,0,0,1-3.2-3.2v-.5A3.3,3.3,0,0,1,189.8,29Z"/>
        <rect id="Rectangle-Copy-3" class="cls-2" x="64.5" y="35" width="47" height="7" rx="3.3" ry="3.3"/>
        <rect id="Rectangle-Copy-5" class="cls-2" x="233.5" y="42" width="47" height="7" rx="3.2" ry="3.2"/>
        <g id="sweep">
          <g id="_" data-name="+" class="cls-3">
            <text class="cls-4" transform="translate(298.5 26)">+</text>
          </g>
          <g id="_-copy" data-name="+-copy" class="cls-3">
            <text class="cls-4" transform="translate(336.5 14)">+</text>
          </g>
        </g>
      </g>
    </g>
  </g>
  <g>
    <path class="cls-5" d="M313.8,47.9a4.1,4.1,0,0,0,3.3,1.9h.6l7.2-1.4,2.9-.7,1-.2-.7-1.3a2.1,2.1,0,0,1-.4-.6,8.8,8.8,0,0,1-1.1-5.5,3.6,3.6,0,0,0-1.4-3.8c-1.5-1.4-3-3-4.4-4.5l-1.2-1.3a3.3,3.3,0,0,0-5.5,0,12.2,12.2,0,0,0-1.7,2.8,15.2,15.2,0,0,0-.9,8.6A11.5,11.5,0,0,0,313.8,47.9Zm-.1-14.1a11.8,11.8,0,0,1,1.5-2.5,2.4,2.4,0,0,1,1.6-.9h0a2.4,2.4,0,0,1,1.7,1l1.2,1.3a48.9,48.9,0,0,0,4.5,4.6,2.1,2.1,0,0,1,1,2.4,9.7,9.7,0,0,0,1.2,6.5c.1.1.1.1.1.2l-1.9.4-7.1,1.5c-.9.2-1.7-.2-2.6-1.3a10.5,10.5,0,0,1-2-5.4A15.1,15.1,0,0,1,313.7,33.8Z"/>
    <path class="cls-5" d="M328.9,29.6l.8,4,.9-.6a10.2,10.2,0,0,1,7.9-1.5,1.4,1.4,0,0,0,1.5-.6,42.2,42.2,0,0,1,6.8-6.6,3.6,3.6,0,0,0,1.4-2.6A4.1,4.1,0,0,0,347,19a6,6,0,0,0-2.1-1.4h-.3a20.3,20.3,0,0,0-4.8-1.4,14.8,14.8,0,0,0-9.9,1.9c-1.9,1.2-2.8,2.9-2.3,5S328.4,27.3,328.9,29.6Zm1.8-10.4a12.6,12.6,0,0,1,6.6-1.8l2.3.2a25,25,0,0,1,4.5,1.2h.3a3.5,3.5,0,0,1,1.5,1.2,1.8,1.8,0,0,1,.8,1.6,1.7,1.7,0,0,1-.9,1.4,45,45,0,0,0-6.9,6.9h-.1a11.1,11.1,0,0,0-8.1,1.2l-.4-2c-.4-2.2-.9-4.4-1.3-6.6A3.1,3.1,0,0,1,330.7,19.2Z"/>
    <path class="cls-5" d="M358.9,34.2c-.4-.6-1.7-2.4-3.8-2l-7.4,1.4-3.1.6-1,.2.6.9a10.5,10.5,0,0,1,1.6,7.9,1.6,1.6,0,0,0,.6,1.6l1.2,1.1,1.5,1.2c.8.9,1.5,1.8,2.3,2.6l1.8,2.1a3.5,3.5,0,0,0,2.4,1.2,2.9,2.9,0,0,0,1.9-.8,8.6,8.6,0,0,0,2.3-2.8,14.4,14.4,0,0,0,1.4-7.9A13.2,13.2,0,0,0,358.9,34.2Zm-.4,14.6a10.1,10.1,0,0,1-1.9,2.3c-.7.5-1.3.7-2.3-.3l-1.8-2-2.4-2.7-1.6-1.4-1.1-.9-.2-.3a11.4,11.4,0,0,0-1.3-8.1L348,35l7.3-1.4c.9-.1,1.6.3,2.4,1.4a11.5,11.5,0,0,1,2.1,6.6A15,15,0,0,1,358.5,48.8Z"/>
    <path class="cls-5" d="M343.6,52.3l-.6-3-.2-1.1-.9.6a10.5,10.5,0,0,1-7.9,1.6,2.1,2.1,0,0,0-1.6.6l-1.1,1.3-1.6,1.8-2.6,2.3-1.4,1.2a3.6,3.6,0,0,0-1.4,2.7,3.5,3.5,0,0,0,1.3,2.6,12.7,12.7,0,0,0,2.7,1.8,16.3,16.3,0,0,0,6.2,1.2,17.3,17.3,0,0,0,3.2-.3,10.6,10.6,0,0,0,5.4-2.1c1.5-1.1,2.2-2.4,1.9-3.8S344.2,54.9,343.6,52.3Zm-1.4,10.1a10.1,10.1,0,0,1-4.7,1.8,15.4,15.4,0,0,1-8.6-.9,8.3,8.3,0,0,1-2.3-1.5,2,2,0,0,1-.9-1.5,2.8,2.8,0,0,1,1-1.6l1.3-1.2a20.2,20.2,0,0,0,2.7-2.4,10.1,10.1,0,0,0,1.7-1.9l1.1-1.2c.1-.1.2-.1.2-.2a11.3,11.3,0,0,0,8.1-1.2c.1.7.3,1.3.4,2,.5,2.5,1,4.9,1.4,7.3S343.3,61.5,342.2,62.4Z"/>
    <path class="cls-5" d="M336.5,33.8a7.2,7.2,0,0,0-7.4,7.1,7.1,7.1,0,0,0,7.1,7.1h.1a7.2,7.2,0,0,0,7.1-6.9,7.4,7.4,0,0,0-2-5.1A6.8,6.8,0,0,0,336.5,33.8Zm-.3,12.7a5.5,5.5,0,0,1-5.6-5.6,5.7,5.7,0,0,1,1.7-4.1,5.9,5.9,0,0,1,4-1.5h.1a5.2,5.2,0,0,1,3.9,1.7,5.6,5.6,0,0,1-4.1,9.5Z"/>
  </g>
</svg>
