<?xml version="1.0" encoding="UTF-8"?>
<!-- Generator: Adobe Illustrator 16.0.0, SVG Export Plug-In . SVG Version: 6.00 Build 0)  -->
<!DOCTYPE svg PUBLIC "-//W3C//DTD SVG 1.1//EN" "http://www.w3.org/Graphics/SVG/1.1/DTD/svg11.dtd">
<svg version="1.1" id="Layer_1" xmlns="http://www.w3.org/2000/svg" xmlns:xlink="http://www.w3.org/1999/xlink" x="0px" y="0px" width="24px" height="24px" viewBox="0 0 24 24" enable-background="new 0 0 24 24" xml:space="preserve">
<g>
	<g>
		<g>
			<path fill="#333333" d="M19.588,23.849c-0.423,0-0.816-0.271-0.952-0.694L11.63,1.306c-0.169-0.526,0.121-1.089,0.646-1.257     c0.528-0.17,1.09,0.121,1.258,0.647l7.006,21.847c0.169,0.526-0.121,1.089-0.646,1.258     C19.792,23.833,19.688,23.849,19.588,23.849z"/>
		</g>
	</g>
	<g>
		<g>
			<path fill="#333333" d="M22.988,23.849h-7.156c-0.553,0-1-0.447-1-1s0.447-1,1-1h7.156c0.553,0,1,0.447,1,1     S23.541,23.849,22.988,23.849z"/>
		</g>
	</g>
	<g>
		<g>
			<path fill="#333333" d="M13.89,8.361v-0.02c-0.021-0.02-0.03-0.04-0.04-0.06c-0.2-0.21-0.46-0.33-0.74-0.33H0.989     c-0.29,0-0.55,0.13-0.75,0.35c-0.18,0.22-0.27,0.51-0.229,0.79l0.05,0.35l1,7.06l0.13,0.92l0.13,0.99l0.66,4.59     c0.07,0.49,0.49,0.86,0.99,0.86h8.51c0.5,0,0.93-0.38,1-0.89l0.37-3.221l0.22-1.88v-0.01l0.21-1.85v-0.021l0.33-2.79     c0-0.01,0-0.01,0-0.01l0.49-4.13c0-0.02,0-0.03,0.01-0.04v-0.02C14.109,8.761,14.029,8.551,13.89,8.361z M11.569,13.421v0.011     l-0.99,8.43h-6.75L3.3,18.041l-0.15-0.989l-0.13-0.99l-0.96,0.18v-6.29h9.92l-0.13,1.11L11.569,13.421z"/>
		</g>
	</g>
</g>
<path fill="#333333" d="M1.06,8.951v8.5l0.13-0.03l1.96-0.369l5.42-1.04V8.951H1.06z M7.569,15.182l-4.55,0.88l-0.96,0.18v-6.29  h5.51V15.182z"/>
<g>
	<g>
		<g>
			<path fill="#333333" d="M8.569,7.951H1.06c-0.55,0-1,0.44-1,1v8.5c0,0.3,0.13,0.58,0.37,0.771c0.18,0.149,0.39,0.229,0.63,0.229     c0.06,0,0.13-0.01,0.18-0.02l0.08-0.021l1.98-0.37l5.46-1.05c0.47-0.09,0.81-0.51,0.81-0.979V8.951     C9.569,8.391,9.109,7.951,8.569,7.951z M7.569,15.182l-4.55,0.88l-0.96,0.18v-6.29h5.51V15.182z"/>
		</g>
	</g>
	<g>
		<g>
			<path fill="#333333" d="M12.012,19.871c-0.447,0-0.828-0.341-0.87-0.795c-0.045-0.481,0.31-0.907,0.791-0.951     c0.529-0.049,1.442-0.205,1.61-0.702c0.45-1.333-2.428-4.789-4.514-6.704c-0.355-0.327-0.38-0.881-0.053-1.236     c0.328-0.355,0.881-0.379,1.236-0.053c1.004,0.922,5.963,5.666,4.988,8.554c-0.37,1.095-1.415,1.729-3.108,1.884     C12.065,19.87,12.038,19.871,12.012,19.871z"/>
		</g>
	</g>
	<g>
		<g>
			<path fill="#333333" d="M3.929,4.628c0,0.292-0.235,0.53-0.524,0.53S2.881,4.92,2.881,4.628c0-0.293,0.234-0.53,0.523-0.53     S3.929,4.335,3.929,4.628L3.929,4.628z"/>
		</g>
	</g>
	<g>
		<g>
			<ellipse fill="#333333" cx="3.404" cy="4.628" rx="1.023" ry="1.03"/>
		</g>
	</g>
	<g>
		<g>
			<path fill="#333333" d="M6.699,1.942c0,0.293-0.234,0.53-0.525,0.53s-0.524-0.237-0.524-0.53c0-0.292,0.233-0.53,0.524-0.53     C6.465,1.413,6.699,1.65,6.699,1.942L6.699,1.942z"/>
		</g>
	</g>
	<g>
		<g>
			<path fill="#333333" d="M6.17,0.411c-0.841,0-1.521,0.69-1.521,1.53s0.68,1.53,1.521,1.53c0.85,0,1.529-0.69,1.529-1.53     S7.02,0.411,6.17,0.411z M6.17,2.411c-0.261,0-0.471-0.21-0.471-0.47c0-0.26,0.21-0.47,0.471-0.47c0.27,0,0.479,0.21,0.479,0.47     C6.649,2.201,6.439,2.411,6.17,2.411z"/>
		</g>
	</g>
	<g>
		<g>
			<path fill="#333333" d="M8.664,5.394c0,0.473-0.375,0.854-0.842,0.854c-0.464,0-0.844-0.381-0.844-0.854     c0-0.471,0.38-0.852,0.844-0.852C8.289,4.542,8.664,4.923,8.664,5.394L8.664,5.394z"/>
		</g>
	</g>
</g>
</svg>