<svg id="Layer_1" data-name="Layer 1" xmlns="http://www.w3.org/2000/svg" xmlns:xlink="http://www.w3.org/1999/xlink" width="70" height="70" viewBox="0 0 70 70">
  <defs>
    <style>
      .cls-1 {
        fill: #f6f6f6;
      }

      .cls-2 {
        font-size: 6px;
        font-family: MyriadPro-Regular, Myriad Pro;
      }

      .cls-3 {
        letter-spacing: -0.01em;
      }

      .cls-4 {
        letter-spacing: -0.01em;
      }

      .cls-5 {
        letter-spacing: -0.01em;
      }

      .cls-6 {
        letter-spacing: 0em;
      }

      .cls-7 {
        letter-spacing: -0.01em;
      }

      .cls-8 {
        fill: url(#linear-gradient);
      }

      .cls-9 {
        fill: url(#linear-gradient-2);
      }

      .cls-10 {
        fill: url(#linear-gradient-3);
      }
    </style>
    <linearGradient id="linear-gradient" x1="53.76" y1="68.55" x2="18.41" y2="5.33" gradientUnits="userSpaceOnUse">
      <stop offset="0" stop-color="#64dcc2"/>
      <stop offset="1" stop-color="#70bce6"/>
    </linearGradient>
    <linearGradient id="linear-gradient-2" x1="45.74" y1="73.04" x2="10.38" y2="9.82" xlink:href="#linear-gradient"/>
    <linearGradient id="linear-gradient-3" x1="55.61" y1="67.51" x2="20.26" y2="4.3" xlink:href="#linear-gradient"/>
  </defs>
  <title>icon_carpentry_C0</title>
  <path id="Rectangle" class="cls-1" d="M3,0H67a2.9,2.9,0,0,1,3,3V67a2.9,2.9,0,0,1-3,3H3a2.9,2.9,0,0,1-3-3V3A2.9,2.9,0,0,1,3,0Z"/>
  <text class="cls-2" transform="translate(30.7 74.8)"><tspan class="cls-3">r</tspan><tspan x="1.9" y="0">epair </tspan><tspan x="-14.6" y="7.2">d</tspan><tspan class="cls-4" x="-11.2" y="7.2">r</tspan><tspan class="cls-5" x="-9.3" y="7.2">a</tspan><tspan class="cls-3" x="-6.4" y="7.2">w</tspan><tspan x="-2.1" y="7.2">er/</tspan><tspan class="cls-6" x="5" y="7.2">w</tspan><tspan x="9.4" y="7.2">a</tspan><tspan class="cls-3" x="12.3" y="7.2">r</tspan><tspan x="14.2" y="7.2">d</tspan><tspan class="cls-7" x="17.5" y="7.2">r</tspan><tspan x="19.4" y="7.2">obe</tspan></text>
  <g>
    <path class="cls-8" d="M35,10a25,25,0,0,0-7.6,48.8l1.4.4,2.3.5,2.2.2h3.4l2.2-.2,2.3-.5,1.4-.4A25,25,0,0,0,35,10Zm0,48.6a19,19,0,0,1-5.4-.7l.6-1.1-.2-.4-.5-1.2v-.3l-2-.6V53l2-.5v-.4l.5-1.2.2-.3-.2-.4-.8-1.5.9-.9,1.3.8.5.3.4-.2.9-.4h.6l.6-2.1h1.2l.6,2.1h.4l1.1.5.4.2,1.8-1.1.9.9L40,50.2l-.2.4.2.3a10.4,10.4,0,0,0,.4,1c0,.1,0,.1.1.2v.4l2,.5v1.3l-2,.6v.3L40,56.4l-.2.4.6,1.1A19,19,0,0,1,35,58.6Zm6.9-1-.5-.9.3-.7,2.4-.6V51.9l-1.5-.4-.9-.2-.3-.7.4-.7.8-1.4-2.4-2.4-2.1,1.2-.7-.3-.7-2.4H33.3v.3L32.6,47l-.7.3-.5-.3L30,46.2h-.2l-2.4,2.4,1.2,2.1c0,.1-.1.1-.1.2l-.2.5-2.4.6v3.5l2.4.6.3.7-.5.9A23.6,23.6,0,1,1,58.6,35,23.8,23.8,0,0,1,41.9,57.6Z"/>
    <path class="cls-9" d="M37.4,53a1.6,1.6,0,0,0,1.3-.8,1.4,1.4,0,0,0,.2-.7,4.3,4.3,0,0,0-.1-.5.1.1,0,0,0-.1-.1h-.2l-.6.7h-.3l-.3-.4v-.3l.2-.2.4-.4a.1.1,0,0,0,0-.2h-.5a1.6,1.6,0,0,0-1.3.6l-.2.4a1.4,1.4,0,0,0,0,.9l-1.1,1h0l-1.6-1.5-.3-.3v-.5L31.8,50a.1.1,0,0,0-.2,0l-.2.2-.2.2a.3.3,0,0,0-.1.2l.3.5.4.6h.5l1.4,1.3.4.5L33,54.7a1.3,1.3,0,0,0-1.2.3,1.4,1.4,0,0,0-.7,1.2c0,.2.1.3.1.5h.3l.6-.6h.3l.3.3v.3l-.6.7s-.1.1,0,.1,0,.1.1.1h.4a1.6,1.6,0,0,0,1.3-.6,2,2,0,0,0,.2-1.3l.9-.9.2.2h-.1c-.1.1-.1.2,0,.2s.2.1.2,0h.1l1.9,2.1h0a.9.9,0,1,0,1.3-1.3l-2.1-1.9h.1a.2.2,0,0,0,0-.3h-.3l-.2-.2.9-.9Zm-1.3,1.3-.7.6-.2-.2.7-.7Z"/>
    <path class="cls-10" d="M48.3,30.7a3.3,3.3,0,0,0,.8,2.2v.3a3.3,3.3,0,0,1-3.3,3.3H25.3A3.3,3.3,0,0,1,22,33.2v-.4a3.7,3.7,0,0,0,.6-2.1,3.7,3.7,0,0,0-7.3,0,3.7,3.7,0,0,0,.9,2.5A8.9,8.9,0,0,0,25,41.5H46.1a8.8,8.8,0,0,0,8.7-8.4,3.4,3.4,0,0,0,.9-2.4A3.6,3.6,0,0,0,52,27.1,3.7,3.7,0,0,0,48.3,30.7Zm5,3.5A7.4,7.4,0,0,1,46.1,40H25a7.3,7.3,0,0,1-7.2-5.8l1.2.2a2.9,2.9,0,0,0,1.6-.4,4.7,4.7,0,0,0,4.7,4H45.8a4.7,4.7,0,0,0,4.6-4,3.2,3.2,0,0,0,1.6.4Z"/>
  </g>
</svg>
