<svg id="Layer_1" data-name="Layer 1" xmlns="http://www.w3.org/2000/svg" xmlns:xlink="http://www.w3.org/1999/xlink" width="70" height="70" viewBox="0 0 70 70">
  <defs>
    <style>
      .cls-1 {
        fill: #f6f6f6;
      }

      .cls-2 {
        fill: url(#linear-gradient);
      }

      .cls-3 {
        fill: url(#linear-gradient-2);
      }
    </style>
    <linearGradient id="linear-gradient" x1="66.28" y1="63.51" x2="38.15" y2="-6.99" gradientUnits="userSpaceOnUse">
      <stop offset="0" stop-color="#75c9b9"/>
      <stop offset="1" stop-color="#72bde5"/>
    </linearGradient>
    <linearGradient id="linear-gradient-2" x1="46.68" y1="71.33" x2="18.55" y2="0.83" xlink:href="#linear-gradient"/>
  </defs>
  <title>icon_plumbing_P0</title>
  <path id="Rectangle" class="cls-1" d="M3,0H67a2.9,2.9,0,0,1,3,3V67a2.9,2.9,0,0,1-3,3H3a2.9,2.9,0,0,1-3-3V3A2.9,2.9,0,0,1,3,0Z"/>
  <g>
    <path class="cls-2" d="M52.2,24.9a9.1,9.1,0,0,0-1.5,3.4,1.6,1.6,0,0,0,1.5,1.6,1.6,1.6,0,0,0,1.6-1.6A8.9,8.9,0,0,0,52.2,24.9Z"/>
    <path class="cls-3" d="M11.3,41.3H10v1.5h1.3V48a4,4,0,0,0,3.9,3.9H25.9l-2.4,9.8h23l-2.4-9.8H54.8A4,4,0,0,0,58.7,48V42.8H60V41.3H46.2V33.2h6.9a.9.9,0,0,0,.8-.8.8.8,0,0,0-.8-.7H44.7v9.6H35.5V23a8,8,0,0,1,16,0,.7.7,0,0,0,.7.7A.8.8,0,0,0,53,23a9.5,9.5,0,0,0-19,0V41.3H25.3V31.7H16.9a.8.8,0,0,0-.8.7.9.9,0,0,0,.8.8h6.9v8.1H11.3ZM25.4,60.2l1.7-7H42.9l1.7,7ZM57.2,48a2.4,2.4,0,0,1-2.4,2.4H15.2A2.4,2.4,0,0,1,12.8,48V42.8H57.2Z"/>
  </g>
</svg>
