<svg id="Layer_1" data-name="Layer 1" xmlns="http://www.w3.org/2000/svg" xmlns:xlink="http://www.w3.org/1999/xlink" width="374.5" height="89.4" viewBox="0 0 374.5 89.4">
  <defs>
    <style>
      .cls-1 {
        fill: url(#linear-gradient);
      }

      .cls-2, .cls-4, .cls-5 {
        fill: #fff;
      }

      .cls-2 {
        opacity: 0.3;
      }

      .cls-2, .cls-3, .cls-4 {
        isolation: isolate;
      }

      .cls-4 {
        font-size: 16px;
        font-family: Montserrat-Medium, Montserrat;
      }
    </style>
    <linearGradient id="linear-gradient" x1="405.55" y1="126.36" x2="21.53" y2="-32.27" gradientUnits="userSpaceOnUse">
      <stop offset="0" stop-color="#75c8b8"/>
      <stop offset="1" stop-color="#71bbe4"/>
    </linearGradient>
  </defs>
  <title>banner_pumbing_P0</title>
  <g id="Page-1">
    <g id="UI---Screen-7---v2">
      <g id="Group-2">
        <path id="Path-4" class="cls-1" d="M0,72.4C71,74,112,68.2,210.5,71c58.9,1.7,113.3,7.8,164,18.4V0H0Z"/>
        <rect id="Rectangle-Copy-2" class="cls-2" x="23.5" y="22" width="47" height="7" rx="3.3" ry="3.3"/>
        <path id="Rectangle-Copy-4" class="cls-2" d="M189.8,29h40.5a3.3,3.3,0,0,1,3.3,3.3v.5a3.3,3.3,0,0,1-3.2,3.3H189.8a3.2,3.2,0,0,1-3.2-3.2v-.5A3.2,3.2,0,0,1,189.8,29Z"/>
        <rect id="Rectangle-Copy-3" class="cls-2" x="64.5" y="35" width="47" height="7" rx="3.3" ry="3.3"/>
        <rect id="Rectangle-Copy-5" class="cls-2" x="233.5" y="42" width="47" height="7" rx="3.3" ry="3.3"/>
        <g id="sweep">
          <g id="_" data-name="+" class="cls-3">
            <text class="cls-4" transform="translate(358 40)">+</text>
          </g>
          <g id="_-copy" data-name="+-copy" class="cls-3">
            <text class="cls-4" transform="translate(336.5 14)">+</text>
          </g>
        </g>
      </g>
    </g>
  </g>
  <g>
    <path class="cls-5" d="M317.9,27.7h.9v1.1c0,5.9,1.5,11.9,4.5,11.9h3V64.4l4.1-2.7,7.9,2.4,7.6-2.4,7.9,2.6V27.6h0a7.9,7.9,0,0,0,6.2-7.7.7.7,0,1,0-1.4,0,6.5,6.5,0,0,1-4.9,6.2c-.4-4.9-1.9-9.2-4.4-9.2h-26c-2.6,0-4,4.4-4.4,9.4h-1a6.5,6.5,0,0,1-6.5-6.4.7.7,0,1,0-1.4,0A7.8,7.8,0,0,0,317.9,27.7Zm2.3,1.1V27.7h6.1v3.1c-.4,5.3-1.9,8.5-3,8.5S320.2,35.2,320.2,28.8Zm5.3,10.5.8-1.3v1.3Zm26.8-10.5v4.1c0,.1-.1.3-.1.4s.1.3.1.5V50.9c0,.2-.1.3-.1.5s.1.3.1.4V62.3l-6.4-2.1-7.6,2.4-8.1-2.5-2.5,1.7v-10a.8.8,0,0,0,.1-.4c0-.2,0-.3-.1-.4V33.7c.1-.1.1-.2.1-.4a.4.4,0,0,0-.1-.3V30.9a14.8,14.8,0,0,0,.1-2.1c0-4.2-.8-8.4-2.3-10.5h23.8C350.5,18.3,352.3,22.4,352.3,28.8Zm-29-10.5c1.1,0,2.5,3.1,2.9,8h-5.9C320.7,21.4,322.2,18.3,323.3,18.3Z"/>
    <path class="cls-5" d="M340,34.1a.9.9,0,0,0,.8-.8.8.8,0,0,0-.8-.7h0a.7.7,0,0,0-.7.7A.8.8,0,0,0,340,34.1Z"/>
    <path class="cls-5" d="M342.2,34.1a.8.8,0,0,0,.7-.8.7.7,0,0,0-.7-.7h-.1a.7.7,0,0,0-.7.7A.9.9,0,0,0,342.2,34.1Z"/>
    <path class="cls-5" d="M335.7,34.1a.8.8,0,0,0,.7-.8.7.7,0,0,0-.7-.7h0a.7.7,0,0,0-.7.7A.8.8,0,0,0,335.7,34.1Z"/>
    <path class="cls-5" d="M331.4,34.1a.8.8,0,0,0,.7-.8.7.7,0,0,0-.7-.7h-.1c-.4,0-.6.3-.6.7A.8.8,0,0,0,331.4,34.1Z"/>
    <path class="cls-5" d="M337.9,34.1a.8.8,0,0,0,.7-.8.7.7,0,0,0-.7-.7h-.1a.7.7,0,0,0-.7.7A.9.9,0,0,0,337.9,34.1Z"/>
    <path class="cls-5" d="M346.5,34.1a.8.8,0,0,0,.7-.8.7.7,0,0,0-.7-.7h-.1a.7.7,0,0,0-.7.7A.9.9,0,0,0,346.5,34.1Z"/>
    <path class="cls-5" d="M329.3,34.1a.8.8,0,0,0,.7-.8.7.7,0,0,0-.7-.7h-.1a.7.7,0,0,0-.7.7A.9.9,0,0,0,329.3,34.1Z"/>
    <path class="cls-5" d="M344.3,34.1a.9.9,0,0,0,.8-.8.8.8,0,0,0-.8-.7h0a.7.7,0,0,0-.7.7A.8.8,0,0,0,344.3,34.1Z"/>
    <path class="cls-5" d="M348.7,34.1a.8.8,0,0,0,.7-.8.7.7,0,0,0-.7-.7h-.1a.7.7,0,0,0-.7.7A.9.9,0,0,0,348.7,34.1Z"/>
    <path class="cls-5" d="M350.8,34.1a.8.8,0,0,0,.7-.8.7.7,0,0,0-.7-.7h-.1c-.4,0-.6.3-.6.7A.8.8,0,0,0,350.8,34.1Z"/>
    <path class="cls-5" d="M333.6,34.1a.8.8,0,0,0,.7-.8.7.7,0,0,0-.7-.7h-.1a.7.7,0,0,0-.7.7A.9.9,0,0,0,333.6,34.1Z"/>
    <path class="cls-5" d="M331.4,52.1a.7.7,0,1,0,0-1.4h-.1c-.4,0-.6.3-.6.7A.7.7,0,0,0,331.4,52.1Z"/>
    <path class="cls-5" d="M348.7,52.1a.7.7,0,0,0,0-1.4h-.1a.7.7,0,0,0-.7.7A.8.8,0,0,0,348.7,52.1Z"/>
    <path class="cls-5" d="M340,52.1a.7.7,0,1,0,0-1.4h0a.7.7,0,1,0,0,1.4Z"/>
    <path class="cls-5" d="M346.5,52.1a.7.7,0,0,0,0-1.4h-.1a.7.7,0,0,0-.7.7A.8.8,0,0,0,346.5,52.1Z"/>
    <path class="cls-5" d="M329.3,52.1a.7.7,0,0,0,0-1.4h-.1a.7.7,0,0,0-.7.7A.8.8,0,0,0,329.3,52.1Z"/>
    <path class="cls-5" d="M342.2,52.1a.7.7,0,0,0,0-1.4h-.1a.7.7,0,0,0-.7.7A.8.8,0,0,0,342.2,52.1Z"/>
    <path class="cls-5" d="M337.9,52.1a.7.7,0,1,0,0-1.4h-.1a.7.7,0,0,0-.7.7A.8.8,0,0,0,337.9,52.1Z"/>
    <path class="cls-5" d="M333.6,52.1a.7.7,0,0,0,0-1.4h-.1a.7.7,0,0,0-.7.7A.8.8,0,0,0,333.6,52.1Z"/>
    <path class="cls-5" d="M344.3,52.1a.7.7,0,1,0,0-1.4h0a.7.7,0,1,0,0,1.4Z"/>
    <path class="cls-5" d="M350.8,52.1a.7.7,0,0,0,0-1.4h-.1c-.4,0-.6.3-.6.7A.7.7,0,0,0,350.8,52.1Z"/>
    <path class="cls-5" d="M335.7,52.1a.7.7,0,0,0,0-1.4h0a.7.7,0,1,0,0,1.4Z"/>
  </g>
</svg>
