<svg id="Layer_1" data-name="Layer 1" xmlns="http://www.w3.org/2000/svg" xmlns:xlink="http://www.w3.org/1999/xlink" width="374.5" height="89.4" viewBox="0 0 374.5 89.4">
  <defs>
    <style>
      .cls-1 {
        fill: url(#linear-gradient);
      }

      .cls-2, .cls-4, .cls-5 {
        fill: #fff;
      }

      .cls-2 {
        opacity: 0.3;
      }

      .cls-2, .cls-3, .cls-4 {
        isolation: isolate;
      }

      .cls-4 {
        font-size: 16px;
        font-family: Montserrat-Medium, Montserrat;
      }
    </style>
    <linearGradient id="linear-gradient" x1="-9.53" y1="-750.95" x2="-10.76" y2="-750.86" gradientTransform="matrix(374.9, 0, 0, -89.5, 4010.47, -67161.32)" gradientUnits="userSpaceOnUse">
      <stop offset="0" stop-color="#64dcc2"/>
      <stop offset="1" stop-color="#70bce6"/>
    </linearGradient>
  </defs>
  <title>banner_ac_E0</title>
  <g id="Page-1">
    <g id="UI---Screen-7---v2">
      <g id="Group-2">
        <path id="Path-4" class="cls-1" d="M0,72.4C71,74,112,68.2,210.5,71c58.9,1.7,113.3,7.8,164,18.4V0H0Z"/>
        <path id="Rectangle-Copy-2" class="cls-2" d="M26.8,22H67.3a3.3,3.3,0,0,1,3.3,3.3v.5A3.3,3.3,0,0,1,67.3,29H26.8a3.2,3.2,0,0,1-3.2-3.2v-.5A3.2,3.2,0,0,1,26.8,22Z"/>
        <rect id="Rectangle-Copy-4" class="cls-2" x="186.5" y="29" width="47" height="7" rx="3.3" ry="3.3"/>
        <rect id="Rectangle-Copy-3" class="cls-2" x="64.5" y="35" width="47" height="7" rx="3.3" ry="3.3"/>
        <rect id="Rectangle-Copy-5" class="cls-2" x="233.5" y="42" width="47" height="7" rx="3.3" ry="3.3"/>
        <g id="sweep">
          <g id="_" data-name="+" class="cls-3">
            <text class="cls-4" transform="translate(298.5 26)">+</text>
          </g>
          <g id="_-copy" data-name="+-copy" class="cls-3">
            <text class="cls-4" transform="translate(336.5 14)">+</text>
          </g>
        </g>
      </g>
    </g>
  </g>
  <g>
    <circle class="cls-5" cx="336.1" cy="32.3" r="0.8"/>
    <path class="cls-5" d="M333.1,40.8a.6.6,0,0,0,.5-.6c0-.3.2-.5.5-.8a1.9,1.9,0,0,0,.7-1.5.6.6,0,1,0-1.2,0,.8.8,0,0,1-.4.7,2.2,2.2,0,0,0-.7,1.6A.6.6,0,0,0,333.1,40.8Z"/>
    <path class="cls-5" d="M332.1,51.3a5.1,5.1,0,0,0,2.8,1.5,5.7,5.7,0,0,0,6.9-5.6c0-1.5-.8-2.6-1.9-4s-1.2-1.8-1.8-2.9a6.6,6.6,0,0,1-1.4,2.6c-1.5,1.4-2.2,4-2.3,4s-.1.3-.3.4a1.2,1.2,0,0,1-1.3.1c-.8-.4-.8-1.5-.8-1.8a3.5,3.5,0,0,0-.6-1.7c-.5,1.5-1.1,3.6-.8,4.8A5.3,5.3,0,0,0,332.1,51.3Z"/>
    <path class="cls-5" d="M329.7,61.4h13.4a1.8,1.8,0,0,0,1.8-1.8V57.4a5,5,0,0,0,2.9-4.5V31.7a5.1,5.1,0,0,0-4.5-5V21.2h.8a.7.7,0,0,0,0-1.4H327a.7.7,0,1,0,0,1.4h1.9v5.5h-.4a5,5,0,0,0-5,5V52.9a5,5,0,0,0,3.7,4.8v1.1A2.6,2.6,0,0,0,329.7,61.4Zm13.8-1.8a.4.4,0,0,1-.4.4H329.7a1.2,1.2,0,0,1-1.1-1.2v-.9h14.9ZM330.3,21.2h11.5v5.5h-3.4V24.4a1.6,1.6,0,0,0-1.6-1.6H335a1.6,1.6,0,0,0-1.6,1.6v2.3h-3.1Zm6.7,5.5h-2.1V24.4c0-.1,0-.2.1-.2h1.8l.2.2ZM325,52.9v-20h8.3a.7.7,0,0,0,0-1.4H325a3.5,3.5,0,0,1,3.5-3.4h14.2a3.6,3.6,0,0,1,3.6,3.4h-7.9a.7.7,0,1,0,0,1.4h7.9v20a3.7,3.7,0,0,1-2.4,3.4H327.4A3.7,3.7,0,0,1,325,52.9Z"/>
    <path class="cls-5" d="M311.7,36.2h.2a.7.7,0,0,0,.7-.6,23.6,23.6,0,0,1,23-18.5,23.3,23.3,0,0,1,17.8,8.1l-.8.5,3.6,2.1V23.6l-1.5.9a25,25,0,0,0-43.5,10.8A.7.7,0,0,0,311.7,36.2Z"/>
    <path class="cls-5" d="M359.9,39.9a.7.7,0,0,0-.7.7A23.6,23.6,0,0,1,314,50l1.1-.6-3.7-2.1v4.2l1.3-.8a25,25,0,0,0,47.9-10.1A.7.7,0,0,0,359.9,39.9Z"/>
  </g>
</svg>
