<svg id="Layer_1" data-name="Layer 1" xmlns="http://www.w3.org/2000/svg" xmlns:xlink="http://www.w3.org/1999/xlink" width="70" height="70" viewBox="0 0 70 70">
  <defs>
    <style>
      .cls-1 {
        fill: #f6f6f6;
      }

      .cls-2 {
        fill: url(#linear-gradient);
      }

      .cls-3 {
        fill: url(#linear-gradient-2);
      }

      .cls-4 {
        fill: url(#linear-gradient-3);
      }

      .cls-5 {
        fill: url(#linear-gradient-4);
      }

      .cls-6 {
        fill: url(#linear-gradient-5);
      }

      .cls-7 {
        fill: url(#linear-gradient-6);
      }
    </style>
    <linearGradient id="linear-gradient" x1="57.77" y1="66.82" x2="19" y2="-1.65" gradientUnits="userSpaceOnUse">
      <stop offset="0" stop-color="#64dcc2"/>
      <stop offset="1" stop-color="#70bce6"/>
    </linearGradient>
    <linearGradient id="linear-gradient-2" x1="53.01" y1="69.51" x2="14.25" y2="1.04" xlink:href="#linear-gradient"/>
    <linearGradient id="linear-gradient-3" x1="51.27" y1="70.5" x2="12.51" y2="2.02" xlink:href="#linear-gradient"/>
    <linearGradient id="linear-gradient-4" x1="54.56" y1="68.64" x2="15.79" y2="0.16" xlink:href="#linear-gradient"/>
    <linearGradient id="linear-gradient-5" x1="57.47" y1="66.99" x2="18.71" y2="-1.49" xlink:href="#linear-gradient"/>
    <linearGradient id="linear-gradient-6" x1="52.22" y1="69.96" x2="13.46" y2="1.49" xlink:href="#linear-gradient"/>
  </defs>
  <title>icon_ac_E00</title>
  <path id="Rectangle" class="cls-1" d="M3,0H67a2.9,2.9,0,0,1,3,3V67a2.9,2.9,0,0,1-3,3H3a2.9,2.9,0,0,1-3-3V3A2.9,2.9,0,0,1,3,0Z"/>
  <g>
    <circle class="cls-2" cx="35" cy="26.6" r="0.8"/>
    <path class="cls-3" d="M32,35.1a.6.6,0,0,0,.6-.5c0-.4.1-.5.4-.8a1.9,1.9,0,0,0,.7-1.5.5.5,0,0,0-.6-.6c-.3,0-.5.2-.5.6s-.2.4-.4.7a2,2,0,0,0-.8,1.6A.6.6,0,0,0,32,35.1Z"/>
    <path class="cls-4" d="M31.1,45.7a6.5,6.5,0,0,0,2.7,1.5,5.7,5.7,0,0,0,6.9-5.6c0-1.5-.8-2.6-1.8-4.1A22.6,22.6,0,0,1,37,34.7a7.3,7.3,0,0,1-1.4,2.6,9.3,9.3,0,0,0-2.2,4c-.1.1-.2.3-.4.4a1.4,1.4,0,0,1-1.3.1c-.8-.4-.8-1.5-.8-1.9a3.3,3.3,0,0,0-.5-1.6c-.6,1.5-1.2,3.5-.9,4.7A5,5,0,0,0,31.1,45.7Z"/>
    <path class="cls-5" d="M28.7,55.8H42a1.9,1.9,0,0,0,1.8-1.9V52a5.1,5.1,0,0,0,3.4-4.7V26.1a5.1,5.1,0,0,0-5-5.1h0V15.6h1.3a.7.7,0,1,0,0-1.4H26.4a.7.7,0,1,0,0,1.4h1.4v5.5h0a5,5,0,0,0-4.8,5v.2c-.1,0-.1.1-.1.2s0,.3.1.3V47.3a4.9,4.9,0,0,0,3.1,4.6v1.3A2.6,2.6,0,0,0,28.7,55.8ZM40.8,15.6V21H37.4V18.8a1.6,1.6,0,0,0-1.6-1.6H34a1.6,1.6,0,0,0-1.6,1.6V21H29.2V15.6ZM35.9,21H33.8V18.8a.2.2,0,0,1,.2-.2h1.8a.3.3,0,0,1,.1.2ZM24.4,47.3v-20h7.8a.9.9,0,0,0,.8-.8.8.8,0,0,0-.8-.7H24.4A3.6,3.6,0,0,1,28,22.5H42.2a3.5,3.5,0,0,1,3.5,3.3H37.8a.7.7,0,0,0-.7.7.8.8,0,0,0,.7.8h8v20a3.5,3.5,0,0,1-2.5,3.3H26.8A3.5,3.5,0,0,1,24.4,47.3Zm3.6,5H42.4v1.6a.4.4,0,0,1-.4.4H28.7a1.1,1.1,0,0,1-1.2-1.1v-1Z"/>
    <path class="cls-6" d="M10.6,29.7a.8.8,0,0,0,.6.9h.1A.7.7,0,0,0,12,30,23.7,23.7,0,0,1,35.1,11.4a23.4,23.4,0,0,1,17.8,8.2l-.9.5,3.7,2.1V18l-1.6.9a24.4,24.4,0,0,0-19-8.9A25.2,25.2,0,0,0,10.6,29.7Z"/>
    <path class="cls-7" d="M59.3,34.3a.7.7,0,0,0-.7.7A23.6,23.6,0,0,1,35.1,58.6,23.9,23.9,0,0,1,13.4,44.4l1.1-.7-3.6-2.1v4.3l1.3-.8A25,25,0,0,0,60.1,35,.8.8,0,0,0,59.3,34.3Z"/>
  </g>
</svg>
