<svg id="Layer_1" data-name="Layer 1" xmlns="http://www.w3.org/2000/svg" xmlns:xlink="http://www.w3.org/1999/xlink" width="374.5" height="89.4" viewBox="0 0 374.5 89.4">
  <defs>
    <style>
      .cls-1 {
        fill: url(#linear-gradient);
      }

      .cls-2, .cls-4, .cls-5 {
        fill: #fff;
      }

      .cls-2 {
        opacity: 0.3;
      }

      .cls-2, .cls-3, .cls-4 {
        isolation: isolate;
      }

      .cls-4 {
        font-size: 16px;
        font-family: Montserrat-Medium, Montserrat;
      }
    </style>
    <linearGradient id="linear-gradient" x1="-9.53" y1="-640.73" x2="-10.76" y2="-640.64" gradientTransform="matrix(374.9, 0, 0, -89.5, 4010.47, -57297.2)" gradientUnits="userSpaceOnUse">
      <stop offset="0" stop-color="#64dcc2"/>
      <stop offset="1" stop-color="#70bce6"/>
    </linearGradient>
  </defs>
  <title>banner_ac_E0</title>
  <g id="Page-1">
    <g id="UI---Screen-7---v2">
      <g id="Group-2">
        <path id="Path-4" class="cls-1" d="M0,72.4C71,74,112,68.2,210.5,71c58.9,1.7,113.3,7.8,164,18.4V0H0Z"/>
        <path id="Rectangle-Copy-2" class="cls-2" d="M26.8,22H67.3a3.3,3.3,0,0,1,3.3,3.3v.5A3.3,3.3,0,0,1,67.3,29H26.8a3.2,3.2,0,0,1-3.2-3.2v-.5A3.2,3.2,0,0,1,26.8,22Z"/>
        <rect id="Rectangle-Copy-4" class="cls-2" x="186.5" y="29" width="47" height="7" rx="3.3" ry="3.3"/>
        <rect id="Rectangle-Copy-3" class="cls-2" x="64.5" y="35" width="47" height="7" rx="3.3" ry="3.3"/>
        <rect id="Rectangle-Copy-5" class="cls-2" x="233.5" y="42" width="47" height="7" rx="3.3" ry="3.3"/>
        <g id="sweep">
          <g id="_" data-name="+" class="cls-3">
            <text class="cls-4" transform="translate(298.5 26)">+</text>
          </g>
          <g id="_-copy" data-name="+-copy" class="cls-3">
            <text class="cls-4" transform="translate(336.5 14)">+</text>
          </g>
        </g>
      </g>
    </g>
  </g>
  <g>
    <circle class="cls-5" cx="336" cy="31.9" r="0.8"/>
    <path class="cls-5" d="M332.9,40.4c.4,0,.6-.2.6-.5s.1-.5.4-.8a2,2,0,0,0,.8-1.5.6.6,0,0,0-1.2,0c0,.3-.1.4-.4.7a2,2,0,0,0-.7,1.6A.5.5,0,0,0,332.9,40.4Z"/>
    <path class="cls-5" d="M332,51a5.4,5.4,0,0,0,2.7,1.4,5.7,5.7,0,0,0,7-5.5c0-1.5-.8-2.6-1.9-4.1A22.7,22.7,0,0,1,338,40a7.6,7.6,0,0,1-1.5,2.6,10.7,10.7,0,0,0-2.2,4c0,.1-.2.3-.3.4a1.5,1.5,0,0,1-1.3.1c-.8-.4-.8-1.5-.8-1.9a3.5,3.5,0,0,0-.6-1.6c-.6,1.5-1.2,3.5-.9,4.7A5.7,5.7,0,0,0,332,51Z"/>
    <path class="cls-5" d="M329.6,61.1h13.3a2,2,0,0,0,1.9-1.9V57.3a5.1,5.1,0,0,0,3.3-4.7V31.4a5,5,0,0,0-5-5.1h0V20.9h1.4a.7.7,0,0,0,0-1.4H327.4a.7.7,0,1,0,0,1.4h1.3v5.5h0a5,5,0,0,0-4.8,5h0c0,.1-.1.2-.1.3s.1.2.1.3V52.6a5,5,0,0,0,3.1,4.6v1.3A2.6,2.6,0,0,0,329.6,61.1Zm12.1-40.2v5.4h-3.4V24.1a1.6,1.6,0,0,0-1.6-1.6h-1.8a1.6,1.6,0,0,0-1.6,1.6v2.2h-3.1V20.9Zm-4.8,5.4h-2.2V24.1a.2.2,0,0,1,.2-.2h1.8a.2.2,0,0,1,.2.2ZM325.4,52.6v-20h7.8a.8.8,0,0,0,.7-.8.7.7,0,0,0-.7-.7h-7.8a3.5,3.5,0,0,1,3.5-3.3h14.2a3.6,3.6,0,0,1,3.6,3.3h-8a.7.7,0,0,0-.7.7.8.8,0,0,0,.7.8h8v20a3.5,3.5,0,0,1-2.4,3.3H327.8A3.5,3.5,0,0,1,325.4,52.6Zm3.5,5h14.4v1.6a.4.4,0,0,1-.4.4H329.6a1.1,1.1,0,0,1-1.1-1.1v-1Z"/>
    <path class="cls-5" d="M312.1,35.9h.2a.9.9,0,0,0,.7-.6,23.5,23.5,0,0,1,40.8-10.4l-.8.5,3.6,2.1V23.3l-1.5.9A25,25,0,0,0,311.6,35,.7.7,0,0,0,312.1,35.9Z"/>
    <path class="cls-5" d="M360.3,39.6a.8.8,0,0,0-.8.7,23.5,23.5,0,0,1-45.1,9.4l1.1-.7-3.7-2.1v4.3l1.3-.8A25,25,0,0,0,361,40.3.7.7,0,0,0,360.3,39.6Z"/>
  </g>
</svg>
