<?xml version="1.0" encoding="UTF-8"?>
<svg width="54px" height="54px" viewBox="0 0 54 54" version="1.1" xmlns="http://www.w3.org/2000/svg" xmlns:xlink="http://www.w3.org/1999/xlink">
    <!-- Generator: Sketch 57 (83077) - https://sketch.com -->
    <title>Group 17</title>
    <desc>Created with Sketch.</desc>
    <defs>
        <polygon id="path-1" points="0 0.0367545561 53.8774618 0.0367545561 53.8774618 53.9135424 0 53.9135424"></polygon>
    </defs>
    <g id="Page-1" stroke="none" stroke-width="1" fill="none" fill-rule="evenodd">
        <g id="ABC---Dashborad-2" transform="translate(-20.000000, -22.000000)">
            <g id="Group-17" transform="translate(20.000000, 22.000000)">
                <path d="M11.6315988,21.0057386 C11.6315988,17.3753838 12.7827922,14.0149425 14.7229904,11.3120052 C10.3174549,12.4856627 6.74792568,16.3487791 6.74792568,22.0917865 C6.74792568,27.6381475 10.2528277,32.8437469 16.6478094,33.3383005 C13.5671314,30.4952224 11.6315988,26.2382948 11.6315988,21.0057386" id="Fill-1" fill="#533F98"></path>
                <path d="M27.7843363,43.1699628 L25.2925605,43.1699628 L25.2925605,45.6216489 L27.899421,45.6216489 C28.9702625,45.6216489 29.6231009,45.2010538 29.6231009,44.3838827 C29.6231009,43.6171691 29.0208929,43.1699628 27.7843363,43.1699628" id="Fill-3" fill="#533F98"></path>
                <path d="M29.124884,40.6161 C29.124884,39.8877481 28.5625928,39.4655977 27.5537865,39.4655977 L25.292526,39.4655977 L25.292526,41.8419431 L27.4380105,41.8419431 C28.447508,41.8419431 29.124884,41.4464039 29.124884,40.6161" id="Fill-5" fill="#533F98"></path>
                <polygon id="Fill-7" fill="#533F98" points="16.3582831 43.4645868 19.4393067 43.4645868 17.8943021 39.8877999"></polygon>
                <path d="M16.922907,10.9565902 C14.9230928,13.6446667 13.7136657,17.1526791 13.7136657,21.0057731 C13.7136657,25.7978622 15.2396624,29.7499706 17.6951501,32.4847031 C17.6464205,31.8519096 17.6035661,31.1494777 17.6035661,30.6385081 C17.6035661,22.7859585 21.0529994,16.928212 25.8858693,13.5008971 C23.2836743,11.8122957 20.3728586,10.9336078 17.5995917,10.9336078 C17.373051,10.9336078 17.1478926,10.942939 16.922907,10.9565902" id="Fill-9" fill="#533F98"></path>
                <path d="M26.9388951,5.64248964 C23.3310042,5.64248964 20.0616286,7.31121907 17.6754336,10.0271164 C20.9097309,10.1245756 24.1193178,11.0760123 26.9388951,12.8052217 C29.7582996,11.0760123 32.9680592,10.1245756 36.2021837,10.0271164 C33.8161615,7.31121907 30.5464403,5.64248964 26.9388951,5.64248964" id="Fill-11" fill="#533F98"></path>
                <path d="M36.9545548,10.9565902 C36.729742,10.942939 36.5044109,10.9336078 36.2780429,10.9336078 C33.5046032,10.9336078 30.5939603,11.8122957 27.9915926,13.5008971 C32.8246352,16.928212 36.2740685,22.7859585 36.2740685,30.6385081 C36.2740685,31.1494777 36.2310413,31.8522552 36.1823117,32.4850487 C38.6379722,29.7503162 40.1641417,25.798035 40.1641417,21.0057731 C40.1641417,17.1526791 38.9545418,13.6446667 36.9545548,10.9565902" id="Fill-13" fill="#533F98"></path>
                <path d="M39.1547133,11.3120743 C41.0947387,14.0150116 42.2459322,17.3754529 42.2459322,21.0058077 C42.2459322,26.2381911 40.3105724,30.4947731 37.2298943,33.3381968 C43.624876,32.8434704 47.1294324,27.6382166 47.1294324,22.0918556 C47.1294324,16.3488482 43.560076,12.4857318 39.1547133,11.3120743" id="Fill-15" fill="#533F98"></path>
                <g id="Group-19">
                    <mask id="mask-2" fill="white">
                        <use xlink:href="#path-1"></use>
                    </mask>
                    <g id="Clip-18"></g>
                    <path d="M34.1354095,34.0223638 L34.1361007,34.0220182 C34.1367919,34.018735 34.3322287,32.6152535 34.3322287,30.3648793 C34.3322287,22.9343073 31.1589298,17.4543015 26.9389815,14.2414315 C22.7185147,17.4543015 19.5455614,22.9343073 19.5455614,30.3648793 C19.5455614,32.6152535 19.7409982,34.018735 19.7415166,34.0220182 L19.742035,34.0223638 C13.4953157,35.1455636 4.78602381,31.8106968 4.78602381,22.4368162 C4.78602381,15.9630377 9.37472733,10.784395 15.6867651,10.0971695 C18.4838784,6.90106103 22.4893819,4.89036044 26.9389815,4.89036044 C31.388581,4.89036044 35.3939118,6.90106103 38.1908523,10.0971695 C44.50289,10.784395 49.0917663,15.9630377 49.0917663,22.4368162 C49.0917663,31.8106968 40.3824744,35.1455636 34.1354095,34.0223638 L34.1354095,34.0223638 Z M36.9950764,47.1682952 C34.3889071,47.1682952 32.4471537,45.1372042 32.4471537,42.5579917 C32.4471537,40.0024527 34.3514095,37.9209041 37.0591852,37.9209041 C38.7063146,37.9209041 39.7021609,38.4956369 40.5568296,39.3126352 L39.5499241,40.4747151 C38.8343594,39.8111631 38.0676459,39.364648 37.0467436,39.364648 C35.334123,39.364648 34.0951471,40.7689934 34.0951471,42.5317261 C34.0951471,44.2941131 35.334123,45.7245513 37.0467436,45.7245513 C38.1428139,45.7245513 38.8474922,45.2776906 39.6140329,44.5631626 L40.6214568,45.5840649 C39.6890281,46.555028 38.6681258,47.1682952 36.9950764,47.1682952 L36.9950764,47.1682952 Z M27.8866166,47.0145032 L23.7477114,47.0145032 L23.7477114,38.0743505 L27.758399,38.0743505 C29.559666,38.0743505 30.6946163,38.9552848 30.6946163,40.3599759 C30.6946163,41.4581198 30.0823859,42.0197197 29.4191796,42.3649741 C30.4661747,42.7237068 31.1934898,43.3234956 31.1934898,44.5496842 C31.1934898,46.1591433 29.878482,47.0145032 27.8866166,47.0145032 L27.8866166,47.0145032 Z M20.6495805,33.8594134 L20.6407677,33.8594134 L26.1677751,21.5024867 L26.9389815,21.5024867 L27.710015,21.5024867 L33.2366768,33.8594134 L33.2282096,33.8594134 L30.7701299,33.5577046 L26.9581623,24.601136 L26.9192823,24.601136 L23.1073147,33.5577046 L20.6495805,33.8594134 Z M20.9196669,47.0145032 L20.0131582,44.8560586 L15.7856066,44.8560586 L14.8649283,47.0145032 L13.2565061,47.0145032 L17.1890881,38.0098961 L18.6468287,38.0098961 L22.5797563,47.0145032 L20.9196669,47.0145032 Z M26.9389815,0.0367545561 C12.059175,0.0367545561 -1.72799982e-05,12.0969837 -1.72799982e-05,26.9748893 C-1.72799982e-05,41.8536589 12.059175,53.9135424 26.9389815,53.9135424 C41.8172327,53.9135424 53.8774618,41.8536589 53.8774618,26.9748893 C53.8774618,12.0969837 41.8172327,0.0367545561 26.9389815,0.0367545561 L26.9389815,0.0367545561 Z" id="Fill-17" fill="#493981" mask="url(#mask-2)"></path>
                </g>
            </g>
        </g>
    </g>
</svg>