<?xml version="1.0" encoding="UTF-8"?>
<svg width="204px" height="85px" viewBox="0 0 204 85" version="1.1" xmlns="http://www.w3.org/2000/svg" xmlns:xlink="http://www.w3.org/1999/xlink">
    <!-- Generator: Sketch 57 (83077) - https://sketch.com -->
    <title>Group 52</title>
    <desc>Created with Sketch.</desc>
    <defs>
        <polygon id="path-1" points="0 0.0574290008 84.1835441 0.0574290008 84.1835441 84.2399201 0 84.2399201"></polygon>
        <polygon id="path-3" points="0 84.4527611 203.874033 84.4527611 203.874033 0.270000004 0 0.270000004"></polygon>
    </defs>
    <g id="Page-1" stroke="none" stroke-width="1" fill="none" fill-rule="evenodd">
        <g id="ABC---Dashborad-1" transform="translate(-554.000000, -66.000000)">
            <g id="Group-52" transform="translate(554.000000, 66.000000)">
                <path d="M18.1743752,33.0342304 C18.1743752,27.3618004 19.9731153,22.1111103 23.0046753,17.8877702 C16.1210252,19.7216103 10.5436351,25.7577303 10.5436351,34.7311805 C10.5436351,43.3973706 16.0200452,51.5311207 26.0122053,52.3038607 C21.1986453,47.8615506 18.1743752,41.2101005 18.1743752,33.0342304" id="Fill-1" fill="#533F98"></path>
                <path d="M43.4130306,67.6658349 L39.5196305,67.6658349 L39.5196305,71.4965949 L43.5928506,71.4965949 C45.2660406,71.4965949 46.2861006,70.8394149 46.2861006,69.5625849 C46.2861006,68.3645949 45.3451506,67.6658349 43.4130306,67.6658349" id="Fill-3" fill="#533F98"></path>
                <path d="M45.5076366,63.6754238 C45.5076366,62.5373738 44.6290566,61.8777638 43.0527966,61.8777638 L39.5195765,61.8777638 L39.5195765,65.5908039 L42.8718966,65.5908039 C44.4492366,65.5908039 45.5076366,64.9727739 45.5076366,63.6754238" id="Fill-5" fill="#533F98"></path>
                <polygon id="Fill-7" fill="#533F98" points="25.5598203 68.1261849 30.3739204 68.1261849 27.9598504 62.5374548"></polygon>
                <path d="M26.4420454,17.3324342 C23.3173353,21.5325543 21.4276053,27.0138244 21.4276053,33.0342844 C21.4276053,40.5219245 23.8119753,46.6970946 27.6486754,50.9701147 C27.5725354,49.9813747 27.5055754,48.8838246 27.5055754,48.0854346 C27.5055754,35.8158245 32.8953154,26.6630944 40.4466755,21.3079143 C36.3807455,18.6694742 31.8325954,17.2965242 27.4993654,17.2965242 C27.1453954,17.2965242 26.7935854,17.3111042 26.4420454,17.3324342" id="Fill-9" fill="#533F98"></path>
                <path d="M42.0920286,9.02915112 C36.4546985,9.02915112 31.3462984,11.6365412 27.6178684,15.8801312 C32.6714584,16.0324112 37.6864385,17.5190312 42.0920286,20.2209213 C46.4973486,17.5190312 51.5125987,16.0324112 56.5659187,15.8801312 C52.8377587,11.6365412 47.7288186,9.02915112 42.0920286,9.02915112" id="Fill-11" fill="#533F98"></path>
                <path d="M57.7414988,17.3324342 C57.3902288,17.3111042 57.0381488,17.2965242 56.6844488,17.2965242 C52.3509487,17.2965242 47.8030686,18.6694742 43.7368686,21.3079143 C51.2884987,26.6630944 56.6782388,35.8158245 56.6782388,48.0854346 C56.6782388,48.8838246 56.6110087,49.9819147 56.5348687,50.9706547 C60.3718388,46.6976346 62.7564788,40.5221945 62.7564788,33.0342844 C62.7564788,27.0138244 60.8664788,21.5325543 57.7414988,17.3324342" id="Fill-13" fill="#533F98"></path>
                <path d="M61.1792468,17.8878782 C64.2105369,22.1112183 66.0092769,27.3619084 66.0092769,33.0343384 C66.0092769,41.2099385 62.9852768,47.8608486 58.1717168,52.3036987 C68.1638769,51.5306887 73.639747,43.3974786 73.639747,34.7312885 C73.639747,25.7578383 68.0626269,19.7217183 61.1792468,17.8878782" id="Fill-15" fill="#533F98"></path>
                <g id="Group-19" transform="translate(0.000000, 0.212760)">
                    <mask id="mask-2" fill="white">
                        <use xlink:href="#path-1"></use>
                    </mask>
                    <g id="Clip-18"></g>
                    <path d="M53.3365837,53.1599497 L53.3376637,53.1594097 C53.3387437,53.1542797 53.6441137,50.9613397 53.6441137,47.4451296 C53.6441137,35.8348595 48.6858336,27.2723494 42.0921636,22.2522393 C35.4976835,27.2723494 30.5399434,35.8348595 30.5399434,47.4451296 C30.5399434,50.9613397 30.8453134,53.1542797 30.8461234,53.1594097 L30.8469334,53.1599497 C21.0864333,54.9149497 7.4781631,49.7042197 7.4781631,35.0575295 C7.4781631,24.9422493 14.6480132,16.8506192 24.5105733,15.7768292 C28.8810634,10.7829091 35.1396635,7.6411891 42.0921636,7.6411891 C49.0446636,7.6411891 55.3029937,10.7829091 59.6732138,15.7768292 C69.5357739,16.8506192 76.705894,24.9422493 76.705894,35.0575295 C76.705894,49.7042197 63.0976238,54.9149497 53.3365837,53.1599497 L53.3365837,53.1599497 Z M57.8048138,73.70047 C53.7326737,73.70047 50.6986837,70.5268899 50.6986837,66.4968699 C50.6986837,62.5038398 53.6740837,59.2514198 57.9049838,59.2514198 C60.4786238,59.2514198 62.0346338,60.1494398 63.3700538,61.4259998 L61.7967638,63.2417498 C60.6786938,62.2049498 59.4807038,61.5072698 57.8855438,61.5072698 C55.2095737,61.5072698 53.2736737,63.7015598 53.2736737,66.4558299 C53.2736737,69.2095599 55.2095737,71.4446199 57.8855438,71.4446199 C59.5981538,71.4446199 60.6992138,70.7463999 61.8969338,69.6299499 L63.4710338,71.2251099 C62.0141138,72.74224 60.4189538,73.70047 57.8048138,73.70047 L57.8048138,73.70047 Z M43.5728436,73.46017 L37.1058035,73.46017 L37.1058035,59.4911798 L43.3725036,59.4911798 C46.1869836,59.4911798 47.9603436,60.8676398 47.9603436,63.0624698 C47.9603436,64.7783199 47.0037336,65.6558199 45.9674736,66.1952799 C47.6034036,66.7557999 48.7398336,67.6929699 48.7398336,69.6088899 C48.7398336,72.12367 46.6851336,73.46017 43.5728436,73.46017 L43.5728436,73.46017 Z M32.2649734,52.9053397 L32.2512034,52.9053397 L40.8871535,33.5976394 L42.0921636,33.5976394 L43.2969036,33.5976394 L51.9323137,52.9053397 L51.9190837,52.9053397 L48.0783336,52.4339197 L42.1221336,38.4392795 L42.0613836,38.4392795 L36.1051835,52.4339197 L32.2649734,52.9053397 Z M32.6869834,73.46017 L31.2705634,70.0875999 L24.6650133,70.0875999 L23.2264533,73.46017 L20.7132933,73.46017 L26.8579534,59.3904698 L29.1356734,59.3904698 L35.2808735,73.46017 L32.6869834,73.46017 Z M42.0921636,0.0574290008 C18.8424632,0.0574290008 -2.70000004e-05,18.9015393 -2.70000004e-05,42.1482696 C-2.70000004e-05,65.3963499 18.8424632,84.2399201 42.0921636,84.2399201 C65.3394339,84.2399201 84.1835441,65.3963499 84.1835441,42.1482696 C84.1835441,18.9015393 65.3394339,0.0574290008 42.0921636,0.0574290008 L42.0921636,0.0574290008 Z" id="Fill-17" fill="#493981" mask="url(#mask-2)"></path>
                </g>
                <path d="M108.850069,12.9275462 L105.652729,20.0609463 L112.027429,20.0609463 L108.850069,12.9275462 Z M115.98347,25.1760963 L114.28544,25.1760963 L112.646539,21.4795263 L105.033619,21.4795263 L103.375549,25.1760963 L101.756629,25.1760963 L108.130789,11.0891161 L109.609579,11.0891161 L115.98347,25.1760963 Z" id="Fill-20" fill="#ACAFB1"></path>
                <path d="M124.054958,12.6477722 L120.517958,12.6477722 L120.517958,18.8021522 L123.974768,18.8021522 C126.292718,18.8021522 127.811198,17.5631222 127.811198,15.7049822 C127.811198,13.6870022 126.312428,12.6477722 124.054958,12.6477722 M123.914558,20.2407123 L120.517958,20.2407123 L120.517958,25.1760423 L118.939808,25.1760423 L118.939808,11.1892321 L124.174298,11.1892321 C127.331948,11.1892321 129.409598,12.8675522 129.409598,15.6450422 C129.409598,18.6822722 126.892118,20.2407123 123.914558,20.2407123" id="Fill-22" fill="#ACAFB1"></path>
                <polygon id="Fill-24" fill="#ACAFB1" points="142.596101 12.6277382 134.064101 12.6277382 134.064101 17.4034982 141.697271 17.4034982 141.697271 18.8420582 134.064101 18.8420582 134.064101 23.7374283 142.696271 23.7374283 142.696271 25.1762583 132.485951 25.1762583 132.485951 11.1891781 142.596101 11.1891781"></polygon>
                <polygon id="Fill-26" fill="#ACAFB1" points="156.182852 12.6277382 147.650852 12.6277382 147.650852 17.4034982 155.283752 17.4034982 155.283752 18.8420582 147.650852 18.8420582 147.650852 23.7374283 156.282482 23.7374283 156.282482 25.1762583 146.072432 25.1762583 146.072432 11.1891781 156.182852 11.1891781"></polygon>
                <path d="M162.615926,25.3760313 C160.517756,25.3760313 159.179096,24.3368013 158.300246,22.8982413 L159.438566,21.9192213 C160.297706,23.2179213 161.177366,23.9174913 162.635906,23.9174913 C164.214326,23.9174913 165.373436,22.7783613 165.373436,20.5605813 L165.373436,11.1891511 L166.971836,11.1891511 L166.971836,20.5406013 C166.971836,23.7576513 165.113426,25.3760313 162.615926,25.3760313" id="Fill-28" fill="#ACAFB1"></path>
                <path d="M176.299715,12.9275462 L173.102645,20.0609463 L179.476805,20.0609463 L176.299715,12.9275462 Z M183.433385,25.1760963 L181.734815,25.1760963 L180.096185,21.4795263 L172.482995,21.4795263 L170.824925,25.1760963 L169.206275,25.1760963 L175.580705,11.0891161 L177.058955,11.0891161 L183.433385,25.1760963 Z" id="Fill-30" fill="#ACAFB1"></path>
                <polygon id="Fill-32" fill="#ACAFB1" points="190.163298 25.1761503 188.564897 25.1761503 188.564897 19.6414203 182.750447 11.1890701 184.668257 11.1890701 189.383808 18.1828802 194.140128 11.1890701 195.977748 11.1890701 190.163298 19.6214403"></polygon>
                <path d="M112.646404,45.4588476 C112.646404,43.9201176 111.367684,43.0409976 108.929584,43.0409976 L104.514004,43.0409976 L104.514004,47.9763276 L109.209574,47.9763276 C111.327454,47.9763276 112.646404,47.0372676 112.646404,45.4588476 M111.866914,39.1249175 C111.866914,37.7260475 110.768554,36.8272175 108.770554,36.8272175 L104.514004,36.8272175 L104.514004,41.6426676 L108.650134,41.6426676 C110.548234,41.6426676 111.866914,40.7832575 111.866914,39.1249175 M113.465585,38.9051375 C113.465585,40.7435675 112.347244,41.6823576 111.247804,42.1621476 C112.906414,42.6613776 114.245075,43.6204176 114.245075,45.5584776 C114.245075,47.9763276 112.226824,49.3949077 109.169614,49.3949077 L102.955564,49.3949077 L102.955564,35.4080975 L108.909604,35.4080975 C111.667114,35.4080975 113.465585,36.7670075 113.465585,38.9051375" id="Fill-34" fill="#ACAFB1"></path>
                <path d="M129.00989,43.4206716 C129.00989,47.4971316 126.67223,49.6147417 123.17546,49.6147417 C119.71865,49.6147417 117.36074,47.4971316 117.36074,43.5402816 L117.36074,35.4084215 L118.93916,35.4084215 L118.93916,43.4406516 C118.93916,46.4576316 120.53756,48.1562016 123.21542,48.1562016 C125.79311,48.1562016 127.4312,46.5980316 127.4312,43.5402816 L127.4312,35.4084215 L129.00989,35.4084215 L129.00989,43.4206716 Z" id="Fill-36" fill="#ACAFB1"></path>
                <path d="M137.959958,41.6424516 C141.077108,42.3217716 142.515938,43.4606316 142.515938,45.6187416 C142.515938,48.0365916 140.518208,49.5947617 137.740718,49.5947617 C135.522668,49.5947617 133.704218,48.8555016 132.025628,47.3567316 L133.004378,46.1981616 C134.463728,47.5171116 135.861788,48.1761816 137.800388,48.1761816 C139.678508,48.1761816 140.917268,47.1968916 140.917268,45.7783116 C140.917268,44.4596316 140.217968,43.7201016 137.280638,43.1009916 C134.063858,42.4019616 132.585338,41.3627315 132.585338,39.0447815 C132.585338,36.8070215 134.523128,35.2083515 137.181008,35.2083515 C139.218698,35.2083515 140.677238,35.7877715 142.096358,36.9269015 L141.177278,38.1456815 C139.878038,37.0867415 138.579608,36.6272015 137.141048,36.6272015 C135.322598,36.6272015 134.163488,37.6262015 134.163488,38.9049215 C134.163488,40.2435815 134.883038,40.9831115 137.959958,41.6424516" id="Fill-38" fill="#ACAFB1"></path>
                <mask id="mask-4" fill="white">
                    <use xlink:href="#path-3"></use>
                </mask>
                <g id="Clip-41"></g>
                <polygon id="Fill-40" fill="#ACAFB1" mask="url(#mask-4)" points="146.071352 49.3948807 147.650312 49.3948807 147.650312 35.4080705 146.071352 35.4080705"></polygon>
                <polygon id="Fill-42" fill="#ACAFB1" mask="url(#mask-4)" points="162.235712 35.4082055 163.774172 35.4082055 163.774172 49.3950157 162.515432 49.3950157 153.483932 37.9259555 153.483932 49.3950157 151.945742 49.3950157 151.945742 35.4082055 153.423722 35.4082055 162.235712 46.6175256"></polygon>
                <polygon id="Fill-43" fill="#ACAFB1" mask="url(#mask-4)" points="178.040189 36.8467925 169.507649 36.8467925 169.507649 41.6225526 177.141089 41.6225526 177.141089 43.0611126 169.507649 43.0611126 169.507649 47.9562126 178.139819 47.9562126 178.139819 49.3950427 167.929769 49.3950427 167.929769 35.4082325 178.040189 35.4082325"></polygon>
                <path d="M186.53096,41.6424516 C189.648381,42.3217716 191.087211,43.4606316 191.087211,45.6187416 C191.087211,48.0365916 189.089211,49.5947617 186.31172,49.5947617 C184.09367,49.5947617 182.27495,48.8555016 180.59663,47.3567316 L181.57592,46.1981616 C183.03473,47.5171116 184.43279,48.1761816 186.37112,48.1761816 C188.24951,48.1761816 189.488271,47.1968916 189.488271,45.7783116 C189.488271,44.4596316 188.788971,43.7201016 185.85164,43.1009916 C182.63486,42.4019616 181.15634,41.3627315 181.15634,39.0447815 C181.15634,36.8070215 183.09413,35.2083515 185.75201,35.2083515 C187.78997,35.2083515 189.248781,35.7877715 190.667361,36.9269015 L189.748281,38.1456815 C188.44931,37.0867415 187.15088,36.6272015 185.71205,36.6272015 C183.8936,36.6272015 182.73449,37.6262015 182.73449,38.9049215 C182.73449,40.2435815 183.45431,40.9831115 186.53096,41.6424516" id="Fill-44" fill="#ACAFB1" mask="url(#mask-4)"></path>
                <path d="M199.317999,41.6424516 C202.435689,42.3217716 203.873979,43.4606316 203.873979,45.6187416 C203.873979,48.0365916 201.875979,49.5947617 199.098759,49.5947617 C196.880709,49.5947617 195.062259,48.8555016 193.383669,47.3567316 L194.362959,46.1981616 C195.821769,47.5171116 197.220099,48.1761816 199.158159,48.1761816 C201.036549,48.1761816 202.275309,47.1968916 202.275309,45.7783116 C202.275309,44.4596316 201.576009,43.7201016 198.638679,43.1009916 C195.421629,42.4019616 193.943379,41.3627315 193.943379,39.0447815 C193.943379,36.8070215 195.881169,35.2083515 198.539049,35.2083515 C200.577279,35.2083515 202.035549,35.7877715 203.454129,36.9269015 L202.535049,38.1456815 C201.236349,37.0867415 199.938189,36.6272015 198.499089,36.6272015 C196.680369,36.6272015 195.521529,37.6262015 195.521529,38.9049215 C195.521529,40.2435815 196.241349,40.9831115 199.317999,41.6424516" id="Fill-45" fill="#ACAFB1" mask="url(#mask-4)"></path>
                <path d="M109.349461,73.853668 C105.313771,73.853668 102.335671,70.6768479 102.335671,66.6406179 C102.335671,62.6443478 105.293521,59.3876078 109.409941,59.3876078 C111.946861,59.3876078 113.465612,60.2867078 114.864482,61.6051178 L113.785562,62.7642278 C112.606741,61.6450778 111.287791,60.8461478 109.389421,60.8461478 C106.292521,60.8461478 103.974841,63.3436478 103.974841,66.6006579 C103.974841,69.8573979 106.312771,72.395128 109.389421,72.395128 C111.308041,72.395128 112.566511,71.6555979 113.905442,70.3768779 L114.944672,71.3961279 C113.485592,72.874918 111.886921,73.853668 109.349461,73.853668" id="Fill-46" fill="#ACAFB1" mask="url(#mask-4)"></path>
                <polygon id="Fill-47" fill="#ACAFB1" mask="url(#mask-4)" points="128.011106 61.0655768 119.478566 61.0655768 119.478566 65.8416069 127.112006 65.8416069 127.112006 67.2798969 119.478566 67.2798969 119.478566 72.175537 128.110736 72.175537 128.110736 73.614367 117.900956 73.614367 117.900956 59.6270168 128.011106 59.6270168"></polygon>
                <polygon id="Fill-48" fill="#ACAFB1" mask="url(#mask-4)" points="141.777137 59.6269898 143.315597 59.6269898 143.315597 73.61434 142.056857 73.61434 133.025627 62.1450098 133.025627 73.61434 131.486897 73.61434 131.486897 59.6269898 132.965147 59.6269898 141.777137 70.8368499"></polygon>
                <polygon id="Fill-49" fill="#ACAFB1" mask="url(#mask-4)" points="152.765678 73.614259 151.167278 73.614259 151.167278 61.0857188 146.471708 61.0857188 146.471708 59.6269088 157.461788 59.6269088 157.461788 61.0857188 152.765678 61.0857188"></polygon>
                <path d="M166.512215,61.0856378 L162.195995,61.0856378 L162.195995,66.7604979 L166.491965,66.7604979 C168.589595,66.7604979 170.088365,65.6813079 170.088365,63.8631278 C170.088365,62.1251378 168.769415,61.0856378 166.512215,61.0856378 L166.512215,61.0856378 Z M170.248745,73.614178 L166.191725,68.1793479 L162.195995,68.1793479 L162.195995,73.614178 L160.617575,73.614178 L160.617575,59.6270978 L166.631555,59.6270978 C169.709015,59.6270978 171.686765,61.2854378 171.686765,63.8029178 C171.686765,66.1413879 170.088365,67.4997579 167.890295,67.8993579 L172.186805,73.614178 L170.248745,73.614178 Z" id="Fill-50" fill="#ACAFB1" mask="url(#mask-4)"></path>
                <polygon id="Fill-51" fill="#ACAFB1" mask="url(#mask-4)" points="185.373173 61.0655768 176.840903 61.0655768 176.840903 65.8416069 184.473803 65.8416069 184.473803 67.2798969 176.840903 67.2798969 176.840903 72.175537 185.473073 72.175537 185.473073 73.614367 175.262753 73.614367 175.262753 59.6270168 185.373173 59.6270168"></polygon>
            </g>
        </g>
    </g>
</svg>