<?xml version="1.0" encoding="UTF-8"?>
<svg width="30px" height="30px" viewBox="0 0 30 30" version="1.1" xmlns="http://www.w3.org/2000/svg" xmlns:xlink="http://www.w3.org/1999/xlink">
    <!-- Generator: Sketch 57 (83077) - https://sketch.com -->
    <title>resource</title>
    <desc>Created with Sketch.</desc>
    <g id="Page-1" stroke="none" stroke-width="1" fill="none" fill-rule="evenodd">
        <g id="ABC---Dashborad-2" transform="translate(-34.000000, -427.000000)" fill="#7A8496" fill-rule="nonzero">
            <g id="resource" transform="translate(34.000000, 427.000000)">
                <path d="M25.44,16.40448 L25.44,12.06 C25.44,10.73664 24.36336,9.66 23.04,9.66 L21.6696,9.66 C21.77952,9.34848 21.86112,9.02688 21.92736,8.7 L22.05264,7.74 C22.0632,7.58016 22.08,7.42176 22.08,7.26 C22.08,7.09872 22.06512,6.93984 22.05456,6.78 L21.93072,5.82 C21.62256,4.31616 20.8416,2.9328 19.68,1.89312 C18.13344,0.50976 16.13616,-0.12384 14.0568,0.1056 C10.96944,0.4488 8.43264,2.81088 7.82352,5.82 L7.69776,6.78 C7.67664,7.10256 7.67664,7.4232 7.69776,7.74 L7.82496,8.7 C7.8912,9.02688 7.98144,9.34752 8.09184,9.66 L6.72,9.66 C5.39664,9.66 4.32,10.73664 4.32,12.06 L4.32,16.40448 C1.89792,16.64592 0,18.69552 0,21.18 C0,23.82672 2.15328,25.98 4.8,25.98 C7.44672,25.98 9.6,23.82672 9.6,21.18 C9.6,18.69552 7.70208,16.64592 5.28,16.40448 L5.28,12.06 C5.28,11.26608 5.92608,10.62 6.72,10.62 L8.51472,10.62 C8.91024,11.3664 9.4368,12.04704 10.08768,12.62592 C9.52608,12.82272 9.12,13.35216 9.12,13.98 C9.12,14.77392 9.76608,15.42 10.56,15.42 L11.0784,15.42 C11.31264,17.04528 12.71088,18.3 14.4,18.3 L14.4,20.24448 C11.97792,20.4864 10.08,22.53552 10.08,25.02 C10.08,27.66672 12.23328,29.82 14.88,29.82 C17.52672,29.82 19.68,27.66672 19.68,25.02 C19.68,22.53552 17.78208,20.48592 15.36,20.24448 L15.36,18.3 C17.04912,18.3 18.44736,17.04528 18.6816,15.42 L19.2,15.42 C19.99392,15.42 20.64,14.77392 20.64,13.98 C20.64,13.34784 20.22816,12.81552 19.66032,12.62256 C20.31168,12.04416 20.84448,11.36832 21.24144,10.62 L23.04,10.62 C23.83392,10.62 24.48,11.26608 24.48,12.06 L24.48,16.40448 C22.05792,16.6464 20.16,18.69552 20.16,21.18 C20.16,23.82672 22.31328,25.98 24.96,25.98 C27.60672,25.98 29.76,23.82672 29.76,21.18 C29.76,18.69552 27.86208,16.64592 25.44,16.40448 Z M2.49984,24.24768 C3.03984,23.532 3.88992,23.1 4.8,23.1 C5.71008,23.1 6.56016,23.532 7.10016,24.24768 C6.45792,24.73008 5.66304,25.02 4.8,25.02 C3.93696,25.02 3.14208,24.73008 2.49984,24.24768 Z M3.36,20.7 C3.36,19.90608 4.00608,19.26 4.8,19.26 C5.59392,19.26 6.24,19.90608 6.24,20.7 C6.24,21.49392 5.59392,22.14 4.8,22.14 C4.00608,22.14 3.36,21.49392 3.36,20.7 Z M8.64,21.18 C8.64,22.08864 8.32128,22.92384 7.79136,23.58192 C7.4112,23.10864 6.92928,22.73568 6.38448,22.48848 C6.8808,22.04832 7.2,21.41376 7.2,20.7 C7.2,19.37664 6.12336,18.3 4.8,18.3 C3.47664,18.3 2.4,19.37664 2.4,20.7 C2.4,21.41376 2.7192,22.04832 3.21552,22.48848 C2.67072,22.73616 2.1888,23.10864 1.80864,23.58192 C1.27872,22.92384 0.96,22.08864 0.96,21.18 C0.96,19.06272 2.68272,17.34 4.8,17.34 C6.91728,17.34 8.64,19.06272 8.64,21.18 Z M12.57984,28.08768 C13.11984,27.372 13.96992,26.94 14.88,26.94 C15.79008,26.94 16.64016,27.372 17.18016,28.08768 C16.53792,28.57008 15.74304,28.86 14.88,28.86 C14.01696,28.86 13.22208,28.57008 12.57984,28.08768 Z M13.44,24.54 C13.44,23.74608 14.08608,23.1 14.88,23.1 C15.67392,23.1 16.32,23.74608 16.32,24.54 C16.32,25.33392 15.67392,25.98 14.88,25.98 C14.08608,25.98 13.44,25.33392 13.44,24.54 Z M18.72,25.02 C18.72,25.92864 18.40128,26.76384 17.87136,27.42192 C17.4912,26.94864 17.00928,26.57568 16.46448,26.32848 C16.9608,25.88832 17.28,25.25376 17.28,24.54 C17.28,23.21664 16.20336,22.14 14.88,22.14 C13.55664,22.14 12.48,23.21664 12.48,24.54 C12.48,25.25376 12.7992,25.88832 13.29552,26.32848 C12.75072,26.57616 12.2688,26.94864 11.88864,27.42192 C11.35872,26.76384 11.04,25.92864 11.04,25.02 C11.04,22.90272 12.76272,21.18 14.88,21.18 C16.99728,21.18 18.72,22.90272 18.72,25.02 Z M8.68416,6.50736 C9.01632,3.66672 11.3208,1.37616 14.16336,1.06032 C15.96912,0.8592 17.70048,1.40976 19.04016,2.6088 C20.3616,3.79152 21.12,5.48736 21.12,7.26 C21.12,8.67552 20.64576,10.00896 19.7952,11.09136 C19.2384,9.67632 18.09168,8.57616 16.68528,8.06112 C17.33952,7.53264 17.76,6.7248 17.76,5.82 C17.76,4.23168 16.46832,2.94 14.88,2.94 C13.29168,2.94 12,4.23168 12,5.82 C12,6.7248 12.42048,7.53264 13.0752,8.06112 C11.6688,8.57664 10.5216,9.6768 9.9648,11.09184 C8.96064,9.8112 8.48832,8.18208 8.68416,6.50736 L8.68416,6.50736 Z M16.72656,12.54 L16.11744,8.88624 C17.52288,9.31008 18.65136,10.43376 19.04592,11.88672 C18.92256,11.99712 18.8016,12.10944 18.66816,12.2112 C18.55056,12.30144 18.44448,12.41424 18.3408,12.54048 L16.72656,12.54048 L16.72656,12.54 Z M11.41296,12.54 C11.2992,12.4056 11.17632,12.27792 11.03568,12.168 C10.92192,12.07872 10.8216,11.97792 10.71504,11.88192 C11.11104,10.43136 12.23856,9.30912 13.64256,8.88576 L13.03344,12.54 L11.41296,12.54 Z M12.96,5.82 C12.96,4.76112 13.82112,3.9 14.88,3.9 C15.93888,3.9 16.8,4.76112 16.8,5.82 C16.8,6.87888 15.93888,7.74 14.88,7.74 C13.82112,7.74 12.96,6.87888 12.96,5.82 Z M14.6448,8.71056 C14.72304,8.70624 14.8008,8.7 14.88,8.7 C14.9592,8.7 15.03696,8.70624 15.1152,8.71056 L15.7536,12.54 L14.0064,12.54 L14.6448,8.71056 Z M15.36,17.34 L14.4,17.34 C13.24128,17.34 12.27168,16.51392 12.04848,15.42 L17.71152,15.42 C17.48832,16.51392 16.51872,17.34 15.36,17.34 Z M19.2,14.46 L10.56,14.46 C10.29552,14.46 10.08,14.24496 10.08,13.98 C10.08,13.71504 10.29552,13.5 10.56,13.5 L19.2,13.5 C19.46448,13.5 19.68,13.71504 19.68,13.98 C19.68,14.24496 19.46448,14.46 19.2,14.46 Z M22.65984,24.24768 C23.19984,23.532 24.04992,23.1 24.96,23.1 C25.87008,23.1 26.72016,23.532 27.26016,24.24768 C26.61792,24.73008 25.82304,25.02 24.96,25.02 C24.09696,25.02 23.30208,24.73008 22.65984,24.24768 Z M23.52,20.7 C23.52,19.90608 24.16608,19.26 24.96,19.26 C25.75392,19.26 26.4,19.90608 26.4,20.7 C26.4,21.49392 25.75392,22.14 24.96,22.14 C24.16608,22.14 23.52,21.49392 23.52,20.7 Z M27.95136,23.58192 C27.5712,23.10864 27.08928,22.73568 26.54448,22.48848 C27.0408,22.04832 27.36,21.41376 27.36,20.7 C27.36,19.37664 26.28336,18.3 24.96,18.3 C23.63664,18.3 22.56,19.37664 22.56,20.7 C22.56,21.41376 22.8792,22.04832 23.37552,22.48848 C22.83072,22.73616 22.3488,23.10864 21.96864,23.58192 C21.43872,22.92384 21.12,22.08864 21.12,21.18 C21.12,19.06272 22.84272,17.34 24.96,17.34 C27.07728,17.34 28.8,19.06272 28.8,21.18 C28.8,22.08864 28.48128,22.92384 27.95136,23.58192 Z" id="Shape"></path>
                <path d="M19.00224,8.556 L19.91808,8.844 C20.0232,8.5104 20.0952,8.16288 20.13168,7.81152 L19.17696,7.71216 C19.14672,7.9992 19.08816,8.28336 19.00224,8.556 L19.00224,8.556 Z" id="Path"></path>
                <path d="M19.5264,4.75008 C19.3584,4.44048 19.15968,4.14672 18.93456,3.87792 L18.19824,4.49376 C18.38208,4.7136 18.54528,4.95408 18.68256,5.20752 L19.5264,4.75008 Z" id="Path"></path>
                <path d="M19.18032,6.84864 L20.136,6.7584 C20.10288,6.40848 20.03472,6.06 19.93248,5.724 L19.01376,6.0024 C19.09776,6.27744 19.15344,6.56208 19.18032,6.84864 Z" id="Path"></path>
            </g>
        </g>
    </g>
</svg>