<?xml version="1.0" encoding="UTF-8"?>
<svg width="30px" height="35px" viewBox="0 0 30 35" version="1.1" xmlns="http://www.w3.org/2000/svg" xmlns:xlink="http://www.w3.org/1999/xlink">
    <!-- Generator: Sketch 57 (83077) - https://sketch.com -->
    <title>manager copy 2</title>
    <desc>Created with Sketch.</desc>
    <g id="Page-1" stroke="none" stroke-width="1" fill="none" fill-rule="evenodd">
        <g id="ABC---Dashborad-2" transform="translate(-34.000000, -350.000000)" fill="#7A8496" fill-rule="nonzero">
            <g id="manager-copy-2" transform="translate(34.000000, 350.000000)">
                <path d="M18.3333333,12.2222222 C18.6399739,12.2222222 18.8888889,11.9733073 18.8888889,11.6666667 C18.8888889,11.3600261 18.6399739,11.1111111 18.3333333,11.1111111 C18.0260417,11.1111111 17.7777778,11.3600261 17.7777778,11.6666667 C17.7777778,11.9733073 18.0260417,12.2222222 18.3333333,12.2222222 Z" id="Shape"></path>
                <path d="M11.6666667,12.2222222 C11.9733073,12.2222222 12.2222222,11.9733073 12.2222222,11.6666667 C12.2222222,11.3600261 11.9733073,11.1111111 11.6666667,11.1111111 C11.359375,11.1111111 11.1111111,11.3600261 11.1111111,11.6666667 C11.1111111,11.9733073 11.359375,12.2222222 11.6666667,12.2222222 Z" id="Shape"></path>
                <path d="M13.7286738,17.2478244 C14.3069865,17.5993913 14.9267417,17.7777778 15.5701784,17.7777778 C16.1996215,17.7777778 16.8072669,17.6066796 17.3764299,17.2693417 C17.7222334,17.0642322 17.873472,16.5367081 17.7146983,16.0907422 C17.5556557,15.6451231 17.1466119,15.4497311 16.8008083,15.6548407 C16.4135622,15.8842442 15.9994054,16.0008548 15.5701784,16.0008548 C15.1312636,16.0008548 14.7093026,15.8797325 14.3161361,15.6406114 C13.9719473,15.4313371 13.5612888,15.6215234 13.3992859,16.065407 C13.237014,16.5092908 13.384485,17.03855 13.7286738,17.2478244 Z" id="Shape"></path>
                <path d="M30,27.2978634 C30,23.598565 25.7406637,20.6973606 22.089728,20.5599212 L20.2270654,18.9046054 C22.4956827,17.2674221 23.8726875,14.6363661 23.8726875,11.8402778 L23.8726875,7.40017361 C23.8726875,3.31982929 20.5057608,0 16.3673076,0 L13.6467734,0 C9.5138993,0 6.18921527,3.30800374 6.18921527,7.40017361 L6.18921527,11.8402778 C6.18921527,14.6316359 7.54788827,17.2576989 9.7870155,18.8919915 L7.91027199,20.5599212 C4.26730669,20.6970978 0,23.5909441 0,27.2978634 L0,33.7717014 C0,34.1432868 0.304465999,34.4444444 0.680133547,34.4444444 L29.3198665,34.4444444 C29.6955339,34.4444444 30,34.1432868 30,33.7717014 L30,27.2978634 Z M13.4934776,30.0043403 L16.5028029,30.0043403 L17.2158804,33.0989583 L12.7596773,33.0989583 L13.4934776,30.0043403 Z M16.5612519,28.6588542 L13.4504379,28.6588542 L12.928648,27.0508406 L15.0003985,26.0262214 L17.1165171,27.0731778 L16.5612519,28.6588542 Z M15.0001328,24.0048387 L12.6366688,20.2650706 C13.4042101,20.4760912 14.201773,20.5856747 15.0070405,20.5856747 C15.8046033,20.5856747 16.5963212,20.4781935 17.3598775,20.2705892 L15.0001328,24.0048387 Z M15.973574,25.0034417 L19.239012,19.8351458 L21.000186,21.4003245 L18.759199,26.3815138 L15.973574,25.0034417 Z M13.6467734,1.34548611 L16.3673076,1.34548611 C19.7557541,1.34548611 22.5124204,4.06142342 22.5124204,7.40017361 L22.5124204,7.95623779 L21.2353102,6.13720361 C21.1197407,5.97243417 20.9356264,5.86731806 20.7334461,5.85049949 C20.5310001,5.83368091 20.3322735,5.90699941 20.190402,6.05048286 C18.807818,7.44905257 17.2071131,8.07291667 15.0003985,8.07291667 C12.7939496,8.07291667 11.192979,7.44905257 9.80933231,6.05048286 C9.66692935,5.90621102 9.46634314,5.8331553 9.26363145,5.85076226 C9.06065409,5.86836923 8.8762741,5.97506204 8.76150157,6.14167109 L7.54948237,7.89842394 L7.54948237,7.40017361 C7.54948237,4.06142342 10.2846288,1.34548611 13.6467734,1.34548611 Z M7.54948237,11.8402778 L7.54948237,10.2853478 L9.43844706,7.54733615 C10.9517442,8.82055493 12.7400172,9.41840278 15.0003985,9.41840278 C17.2631709,9.41840278 19.0527723,8.81924099 20.5663352,7.54339428 L22.5124204,10.3153059 L22.5124204,11.8402778 C22.5124204,15.8691152 19.1832198,19.2404514 15.0070405,19.2404514 C10.8444106,19.2404514 7.54948237,15.8796268 7.54948237,11.8402778 Z M10.760988,19.8354085 L14.0269574,25.0034417 L11.240801,26.3815138 L8.99981404,21.4003245 L10.760988,19.8354085 Z M1.36026709,27.2978634 C1.36026709,24.5264774 4.76624837,22.1335093 7.74262969,21.915919 L10.2872856,27.5714281 C10.3627379,27.7390883 10.5043438,27.8691695 10.6791594,27.931188 C10.853975,27.9932065 11.0465909,27.9816437 11.2129048,27.8996531 L11.6975,27.6597256 L12.2493114,29.359453 L11.3624811,33.0989583 L1.36026709,33.0989583 L1.36026709,27.2978634 Z M28.6397329,33.0989583 L18.6109512,33.0989583 L17.7517512,29.3697018 L18.3434143,27.6799605 L18.7870951,27.8996531 C18.9544718,27.982432 19.1476191,27.9926809 19.3208406,27.931188 C19.4956562,27.8691695 19.6372621,27.7390883 19.7127144,27.5714281 L22.2573703,21.915919 C25.2337516,22.1337721 28.6397329,24.5264774 28.6397329,27.2978634 L28.6397329,33.0989583 Z" id="Shape"></path>
                <path d="M23.8888889,30 L21.6666667,30 C21.3598091,30 21.1111111,30.2486979 21.1111111,30.5555556 C21.1111111,30.8624132 21.3598091,31.1111111 21.6666667,31.1111111 L23.8888889,31.1111111 C24.1957466,31.1111111 24.4444444,30.8624132 24.4444444,30.5555556 C24.4444444,30.2486979 24.1957466,30 23.8888889,30 Z" id="Shape"></path>
                <path d="M27.2222222,30 C27.5288628,30 27.7777778,30.2489149 27.7777778,30.5555556 C27.7777778,30.8621962 27.5288628,31.1111111 27.2222222,31.1111111 C26.9155816,31.1111111 26.6666667,30.8621962 26.6666667,30.5555556 C26.6666667,30.2489149 26.9155816,30 27.2222222,30 Z" id="Shape"></path>
            </g>
        </g>
    </g>
</svg>