<?xml version="1.0" encoding="UTF-8"?>
<svg width="30px" height="24px" viewBox="0 0 30 24" version="1.1" xmlns="http://www.w3.org/2000/svg" xmlns:xlink="http://www.w3.org/1999/xlink">
    <!-- Generator: Sketch 57 (83077) - https://sketch.com -->
    <title>speedometer copy</title>
    <desc>Created with Sketch.</desc>
    <g id="Page-1" stroke="none" stroke-width="1" fill="none" fill-rule="evenodd">
        <g id="ABC---Dashborad-2" transform="translate(-34.000000, -123.000000)" fill="#7A8496" fill-rule="nonzero">
            <g id="speedometer-copy" transform="translate(34.000000, 123.000000)">
                <path d="M18.2968263,15.4975219 C18.9726305,15.4975219 19.5217214,14.9231383 19.5217214,14.218792 C19.5217214,13.5159748 18.9726305,12.9455956 18.2968263,12.9455956 L12.747106,8.69570983 L17.0718613,14.3008469 C17.1120011,14.9680609 17.6459172,15.4975219 18.2968263,15.4975219 Z" id="Shape" transform="translate(16.134414, 12.096616) rotate(-285.000000) translate(-16.134414, -12.096616) "></path>
                <polygon id="Rectangle-path" points="8.88167832 20.1822065 21.1147552 20.1822065 21.1147552 23.2046921 8.88167832 23.2046921"></polygon>
                <path d="M25.6034965,4.59106482 C22.7706294,1.64167863 19.0042657,0.017401153 14.9981818,0.017401153 C10.992028,0.017401153 7.22559441,1.64167863 4.3927972,4.59106482 C1.56,7.54045101 0,11.4618263 0,15.6328608 C0,18.326035 0.651678322,20.9142926 1.87524476,23.2046921 L4.67846154,23.2046921 L6.72874126,21.9721226 L5.82328671,20.3391809 L3.18692308,21.9240692 C2.25552448,20.0360077 1.72937063,17.8972677 1.72937063,15.6328608 C1.72937063,15.2321246 1.74685315,14.8355385 1.77909091,14.4433209 L4.92258741,15.0203984 L5.23706294,13.1634988 L2.05657343,12.5796501 C2.6248951,9.96707453 3.90629371,7.63328142 5.6758042,5.81227627 L7.8306993,8.48615634 L9.21804196,7.27419153 L7.04678322,4.58014359 C9.03776224,3.02357771 11.4613287,2.03637173 14.0927273,1.85092932 L14.0927273,5.42704824 L15.9036364,5.42704824 L15.9036364,1.85092932 C18.535035,2.03651734 20.9586014,3.02365052 22.9496503,4.5802164 L20.7783217,7.27419153 L22.1655944,8.48615634 L24.3205594,5.81220346 C26.09,7.63328142 27.3713986,9.96707453 27.9397203,12.5795773 L24.7593007,13.1635716 L25.0738462,15.0203256 L28.2171329,14.4431752 C28.2493706,14.8354657 28.2668531,15.231979 28.2668531,15.6327151 C28.2668531,17.8972677 27.7409091,20.0360805 26.8093706,21.9239964 L24.1729371,20.3392537 L23.2675524,21.9721226 L25.3177622,23.2046921 L28.1211189,23.2046921 C29.3447552,20.914147 29.9963636,18.3258894 29.9963636,15.6327151 C29.9963636,11.4617535 28.4362238,7.54030539 25.6034965,4.59106482 Z" id="Shape"></path>
            </g>
        </g>
    </g>
</svg>