<svg xmlns="http://www.w3.org/2000/svg" width="206" height="38" viewBox="0 0 206 38">
    <g fill="none" fill-rule="evenodd">
        <path fill="#77B823" d="M12.971 11.521c-1.187 0-2.308.21-3.363.623a10.386 10.386 0 0 0-2.855 1.678 9.14 9.14 0 0 0-2.099 2.516c-.555.971-.94 2.02-1.154 3.137h18.999a9.768 9.768 0 0 0-1.187-3.137 9.49 9.49 0 0 0-2.124-2.516 10.391 10.391 0 0 0-2.852-1.678 9.187 9.187 0 0 0-3.365-.623zM3.447 22.83a9.13 9.13 0 0 0 1.13 3.22 9.798 9.798 0 0 0 2.124 2.568 9.765 9.765 0 0 0 2.88 1.704 9.313 9.313 0 0 0 3.39.625 9.47 9.47 0 0 0 3.714-.73 10.047 10.047 0 0 0 3.068-2.03 1.595 1.595 0 0 1 1.185-.487c.463 0 .86.16 1.181.486.326.324.487.722.487 1.19 0 .47-.16.866-.487 1.19-1.18 1.337-2.519 2.282-4.009 2.84-1.49.56-3.202.84-5.139.84-1.794 0-3.472-.325-5.034-.973a12.948 12.948 0 0 1-4.115-2.706 12.605 12.605 0 0 1-2.799-4.112C.34 24.868 0 23.137 0 21.26c0-1.804.33-3.49.994-5.06a12.898 12.898 0 0 1 2.745-4.11c1.168-1.173 2.55-2.111 4.144-2.816 1.596-.701 3.331-1.088 5.194-1.16 1.725 0 3.346.341 4.873 1.025a14.086 14.086 0 0 1 4.064 2.76 13.12 13.12 0 0 1 2.822 4.058c.704 1.551 1.086 3.212 1.16 4.978.072.615-.08 1.08-.456 1.406-.379.324-.78.487-1.212.487H3.447zM77.128 9.682c0-.468.164-.866.481-1.19a1.623 1.623 0 0 1 1.184-.488c.466 0 .863.165 1.188.488.322.324.483.722.483 1.19v22.94c0 .47-.16.865-.483 1.191a1.625 1.625 0 0 1-1.188.485c-.465 0-.857-.163-1.184-.485a1.645 1.645 0 0 1-.48-1.19V9.682zm-.538-7.466c0-.613.214-1.135.644-1.568A2.12 2.12 0 0 1 78.794 0c.612 0 1.133.215 1.566.648.426.433.64.955.64 1.568 0 .615-.214 1.135-.64 1.571-.433.43-.954.647-1.567.647-.609 0-1.126-.217-1.559-.647a2.148 2.148 0 0 1-.644-1.571zM83.1 21.043c0-1.768.334-3.434.997-5.005a13.26 13.26 0 0 1 2.746-4.138 13.07 13.07 0 0 1 4.062-2.815 12.827 12.827 0 0 1 4.953-1.081c.573 0 1.032.165 1.369.488.342.324.512.723.512 1.19 0 .468-.17.868-.512 1.19-.337.323-.796.486-1.369.486a9.463 9.463 0 0 0-3.662.838 10.163 10.163 0 0 0-3.014 2.087 9.27 9.27 0 0 0-2.017 3.056 9.625 9.625 0 0 0-.729 3.704v11.58c0 .469-.161.864-.48 1.19a1.625 1.625 0 0 1-1.187.485 1.647 1.647 0 0 1-1.668-1.676V21.043z"/>
        <g fill="#77B823">
            <path d="M100.969 28.498c.2-.756.55-1.467 1.026-2.027.51-.657.996-1.178 1.5-1.63.995-.874 1.92-1.339 2.207-1.494.292-.155.82-.44 1.464-.763.64-.307 1.408-.722 2.05-1.185a25.862 25.862 0 0 0 2.379-1.838s-1.167.802-2.558 1.54c-.698.39-1.426.69-2.108.945-.67.268-1.232.52-1.54.681-.569.31-4.03 1.895-5.35 5.49a9.974 9.974 0 0 0-.394 2.064c.328.338.673.662 1.036.966-.02-.871.04-1.827.288-2.75"/>
            <path d="M95.943 21.178c0 2.596.763 5.015 2.069 7.052-.096-1.699.397-4.208 3.041-6.184 3.67-2.74 8.215-3.071 10.255-4.037 2.04-.965 2.666-2.493 2.666-2.493s.516 14.4-10.71 17.319c-.048.005-.087.005-.13.007 1.77.896 3.768 1.401 5.881 1.401 7.22 0 13.075-5.848 13.075-13.065 0-7.215-5.856-13.064-13.075-13.064-7.219 0-13.072 5.849-13.072 13.064z"/>
        </g>
        <path fill="#77B823" d="M28.365 21.043c0-1.803.34-3.5 1.024-5.085a13.092 13.092 0 0 1 2.771-4.137c1.164-1.173 2.537-2.1 4.118-2.789a12.594 12.594 0 0 1 5.058-1.028c1.795 0 3.48.345 5.06 1.028 1.576.688 2.952 1.616 4.117 2.79a13.189 13.189 0 0 1 2.77 4.136c.682 1.586 1.024 3.282 1.024 5.085v11.58c0 .469-.16.864-.486 1.19a1.609 1.609 0 0 1-1.182.485c-.469 0-.863-.163-1.184-.485a1.62 1.62 0 0 1-.486-1.19v-11.58c0-1.333-.25-2.586-.754-3.759a9.834 9.834 0 0 0-2.071-3.084 9.799 9.799 0 0 0-3.069-2.084 9.289 9.289 0 0 0-3.74-.758 9.26 9.26 0 0 0-3.738.758 9.78 9.78 0 0 0-3.07 2.084 9.766 9.766 0 0 0-2.07 3.084 9.388 9.388 0 0 0-.757 3.76v11.578c0 .47-.157.865-.483 1.191a1.618 1.618 0 0 1-1.184.485c-.466 0-.862-.163-1.184-.485a1.617 1.617 0 0 1-.484-1.19v-11.58zM54.36 10.495c-.18-.432-.18-.885 0-1.355.18-.465.465-.79.861-.971.431-.18.832-.156 1.212.08.374.235.689.513.943.836L64.37 28.24l7.266-19.155c.25-.393.575-.68.97-.863.393-.18.79-.18 1.18 0 .434.182.73.487.89.918.164.435.152.85-.026 1.246-.035.074-.169.44-.405 1.11a208.69 208.69 0 0 1-1.29 3.517c-.627 1.676-1.487 3.967-2.586 6.868-1.092 2.907-2.5 6.594-4.222 11.066a2.41 2.41 0 0 1-.62.973c-.27.253-.657.378-1.157.378-.503 0-.907-.15-1.212-.46-.303-.305-.51-.6-.62-.89-1.504-4.15-2.778-7.647-3.819-10.497-1.043-2.85-1.883-5.157-2.532-6.926a784.93 784.93 0 0 0-1.398-3.814c-.287-.775-.43-1.18-.43-1.216"/>
        <text fill="#9AC62F" font-family="ArialMT, Arial" font-size="12.602">
            <tspan x="119" y="12">®</tspan>
        </text>
        <path fill="#383838" d="M166.324 16.7h-1.187v-4.14h-4.516v4.14h-1.181V7.742h1.181v3.852h4.516V7.742h1.187V16.7zm1.618-3.39c0-.652.128-1.239.385-1.76.256-.52.613-.922 1.07-1.205.458-.283.98-.425 1.566-.425.907 0 1.64.314 2.2.941.56.628.84 1.463.84 2.504v.08c0 .648-.125 1.23-.373 1.745a2.826 2.826 0 0 1-1.064 1.202c-.462.287-.992.431-1.59.431-.903 0-1.634-.314-2.194-.941-.56-.628-.84-1.458-.84-2.492v-.08zm1.145.135c0 .739.17 1.331.513 1.778.343.448.801.671 1.375.671.579 0 1.038-.227 1.379-.68.34-.453.51-1.088.51-1.904 0-.73-.173-1.322-.52-1.775a1.653 1.653 0 0 0-1.38-.68c-.563 0-1.016.224-1.36.67-.345.448-.517 1.088-.517 1.92zm7.413-3.402l.031.738c.488-.574 1.146-.86 1.975-.86.93 0 1.565.356 1.9 1.07.222-.32.51-.579.865-.776.355-.196.775-.295 1.258-.295 1.46 0 2.203.773 2.228 2.32v4.46h-1.139v-4.393c0-.476-.108-.831-.326-1.067-.217-.236-.582-.354-1.095-.354-.422 0-.773.126-1.052.378-.279.253-.44.592-.486 1.019V16.7h-1.144v-4.362c0-.968-.474-1.452-1.421-1.452-.747 0-1.257.318-1.532.954v4.86h-1.138v-6.657h1.076zm12.736 6.78c-.903 0-1.637-.296-2.203-.889-.566-.593-.849-1.385-.849-2.378v-.209c0-.66.126-1.25.378-1.769a2.952 2.952 0 0 1 1.059-1.218 2.66 2.66 0 0 1 1.473-.44c.865 0 1.538.285 2.018.855.48.57.72 1.387.72 2.449v.474h-4.51c.017.656.208 1.186.575 1.59.367.404.834.606 1.4.606.402 0 .742-.082 1.021-.246.28-.164.523-.381.732-.652l.696.541c-.558.857-1.395 1.286-2.51 1.286zm-.142-5.968c-.46 0-.845.167-1.157.502-.311.334-.504.803-.578 1.405h3.335v-.086c-.033-.578-.189-1.026-.468-1.344-.279-.318-.656-.477-1.132-.477zm-27.015 18.952c-1.013-.291-1.75-.649-2.212-1.073a2.051 2.051 0 0 1-.692-1.572c0-.706.282-1.29.846-1.75.564-.462 1.297-.693 2.2-.693.615 0 1.163.12 1.645.357.482.238.856.566 1.12.984.265.419.397.876.397 1.372h-1.187c0-.541-.173-.967-.517-1.276-.345-.31-.83-.465-1.458-.465-.583 0-1.037.128-1.363.385-.326.256-.49.612-.49 1.067 0 .365.156.674.465.926.31.252.837.483 1.581.692.745.21 1.327.44 1.748.692.42.253.732.547.935.883.203.337.304.732.304 1.188 0 .726-.283 1.307-.849 1.744-.566.437-1.322.655-2.27.655a4.21 4.21 0 0 1-1.723-.354c-.533-.236-.944-.559-1.233-.969a2.365 2.365 0 0 1-.434-1.396h1.188c0 .541.2.969.6 1.282.4.314.934.471 1.602.471.624 0 1.101-.127 1.434-.381.332-.255.498-.601.498-1.04 0-.439-.154-.778-.461-1.018-.308-.24-.866-.477-1.674-.71zm7.42 4.116c-.903 0-1.637-.296-2.203-.889-.566-.593-.849-1.385-.849-2.378v-.209c0-.66.126-1.25.379-1.769a2.952 2.952 0 0 1 1.058-1.218 2.66 2.66 0 0 1 1.473-.44c.866 0 1.538.285 2.018.855.48.57.72 1.387.72 2.449v.474h-4.51c.017.656.209 1.186.576 1.59.367.404.833.606 1.4.606.401 0 .742-.082 1.02-.246.28-.164.524-.381.733-.652l.695.541c-.558.857-1.395 1.286-2.51 1.286zm-.142-5.968c-.46 0-.845.167-1.156.502-.312.334-.505.803-.579 1.405h3.335v-.086c-.033-.578-.189-1.026-.468-1.344-.279-.318-.656-.477-1.132-.477zm7.272.21a3.41 3.41 0 0 0-.56-.044c-.746 0-1.252.318-1.52.954V33.8h-1.137v-6.657h1.107l.019.77c.373-.596.902-.893 1.587-.893.221 0 .39.029.504.086v1.058zm3.353 4.09l1.65-5.112h1.162l-2.387 6.657h-.868l-2.411-6.657h1.163l1.691 5.113zm5.144 1.545h-1.138v-6.657h1.138V33.8zm-1.23-8.423a.68.68 0 0 1 .168-.467c.113-.127.28-.19.502-.19.221 0 .39.063.504.19a.672.672 0 0 1 .173.467.65.65 0 0 1-.173.462c-.114.123-.283.184-.504.184-.222 0-.389-.061-.502-.184a.657.657 0 0 1-.169-.462zm5.721 7.617c.406 0 .76-.123 1.064-.37.304-.245.472-.553.505-.922h1.076c-.02.381-.151.744-.393 1.089-.242.345-.565.62-.97.824a2.796 2.796 0 0 1-1.282.308c-.906 0-1.627-.302-2.163-.907-.535-.605-.802-1.433-.802-2.483v-.19c0-.649.119-1.225.356-1.73.238-.504.58-.896 1.025-1.175.445-.278.97-.418 1.578-.418.746 0 1.367.224 1.86.67.495.448.759 1.028.791 1.742h-1.076a1.569 1.569 0 0 0-.49-1.061 1.522 1.522 0 0 0-1.085-.416c-.578 0-1.027.208-1.344.625-.318.416-.477 1.018-.477 1.805v.216c0 .767.158 1.357.473 1.772.316.414.767.621 1.354.621zm6.688.929c-.903 0-1.637-.296-2.203-.889-.566-.593-.849-1.385-.849-2.378v-.209c0-.66.126-1.25.378-1.769a2.952 2.952 0 0 1 1.059-1.218 2.66 2.66 0 0 1 1.473-.44c.866 0 1.538.285 2.018.855.48.57.72 1.387.72 2.449v.474h-4.51c.017.656.208 1.186.575 1.59.368.404.834.606 1.4.606.402 0 .742-.082 1.021-.246.28-.164.523-.381.733-.652l.695.541c-.558.857-1.395 1.286-2.51 1.286zm-.142-5.968c-.46 0-.845.167-1.157.502-.311.334-.504.803-.578 1.405h3.335v-.086c-.033-.578-.189-1.026-.468-1.344-.279-.318-.656-.477-1.132-.477zm7.93 4.08c0-.308-.115-.547-.347-.717-.232-.17-.636-.317-1.212-.44s-1.034-.271-1.372-.443c-.339-.173-.589-.378-.75-.616a1.472 1.472 0 0 1-.244-.849c0-.545.231-1.007.692-1.384.462-.377 1.051-.566 1.77-.566.754 0 1.366.195 1.836.585.47.39.704.888.704 1.495h-1.144c0-.312-.132-.58-.397-.806-.265-.226-.598-.339-1-.339-.414 0-.738.09-.972.271a.852.852 0 0 0-.35.707c0 .275.108.482.326.622.217.14.61.273 1.178.4s1.028.279 1.38.455c.354.176.615.389.785.637.17.248.256.55.256.907 0 .595-.238 1.072-.714 1.43-.476.36-1.093.539-1.852.539-.533 0-1.005-.094-1.415-.283a2.301 2.301 0 0 1-.963-.79 1.905 1.905 0 0 1-.347-1.099h1.138c.02.382.173.684.458.908.285.223.662.335 1.13.335.43 0 .775-.087 1.036-.261.26-.175.39-.408.39-.699z"/>
        <path fill-rule="nonzero" stroke="#979797" stroke-linecap="square" stroke-width=".9" d="M146.25 5.85v31.5" opacity=".452"/>
    </g>
</svg>
