<?xml version="1.0" encoding="UTF-8"?>
<svg width="32px" height="30px" viewBox="0 0 32 30" version="1.1" xmlns="http://www.w3.org/2000/svg" xmlns:xlink="http://www.w3.org/1999/xlink">
    <!-- Generator: Sketch 57 (83077) - https://sketch.com -->
    <title>cms copy</title>
    <desc>Created with Sketch.</desc>
    <g id="Page-1" stroke="none" stroke-width="1" fill="none" fill-rule="evenodd">
        <g id="ABC---Dashborad-2" transform="translate(-33.000000, -583.000000)" fill="#7A8496" fill-rule="nonzero">
            <g id="cms-copy" transform="translate(34.000000, 584.000000)">
                <path d="M27.3632812,0 L2.63671875,0 C1.18286133,0 0,1.18286133 0,2.63671875 L0,20.2148438 C0,21.6687012 1.18286133,22.8515625 2.63671875,22.8515625 L10.2648926,22.8515625 L9.09301758,26.3671875 L6.2109375,26.3671875 C5.72547914,26.3671875 5.33203125,26.7606354 5.33203125,27.2460938 C5.33203125,27.7315521 5.72547914,28.125 6.2109375,28.125 L23.7890625,28.125 C24.2745209,28.125 24.6679688,27.7315521 24.6679688,27.2460938 C24.6679688,26.7606354 24.2745209,26.3671875 23.7890625,26.3671875 L20.9069824,26.3671875 L19.7351074,22.8515625 L27.3632812,22.8515625 C28.8171387,22.8515625 30,21.6687012 30,20.2148438 L30,2.63671875 C30,1.18286133 28.8171387,0 27.3632812,0 Z M10.9460449,26.3671875 L12.1179199,22.8515625 L17.8820801,22.8515625 L19.0539551,26.3671875 L10.9460449,26.3671875 Z M28.2421875,20.2148438 C28.2421875,20.6993866 27.8478241,21.09375 27.3632813,21.09375 C24.8096466,21.09375 5.21690367,21.09375 2.63671875,21.09375 C2.15217592,21.09375 1.7578125,20.6993866 1.7578125,20.2148438 L1.7578125,19.3359375 L28.2421875,19.3359375 L28.2421875,20.2148438 Z M9.58465576,12.5267029 L8.78517152,11.7274475 L10.0279999,10.4843903 L10.8274841,11.2838745 C11.1108398,11.5672302 11.5500641,11.6230774 11.8954468,11.4193726 C12.3893738,11.1282349 12.9167175,10.9087372 13.4626007,10.7672882 C13.8503265,10.6670379 14.1210938,10.3170776 14.1210938,9.91653445 L14.1210938,8.7890625 L15.8789062,8.7890625 L15.8789062,9.91653445 C15.8789062,10.3170776 16.1496735,10.6670379 16.5373993,10.7672882 C17.0830536,10.9087372 17.6103973,11.1282349 18.1043244,11.4196014 C18.449707,11.6230774 18.8889313,11.5672302 19.172287,11.2838745 L19.9717712,10.4843903 L21.2148285,11.7274475 L20.4153442,12.5269318 C20.1319886,12.8102875 20.0761413,13.2495117 20.2798462,13.5946655 C20.5712128,14.0888214 20.7904816,14.6161652 20.9319305,15.1618195 C21.0321808,15.5495453 21.3821411,15.8203125 21.7826843,15.8203125 L22.9101563,15.8203125 L22.9101563,17.578125 L19.3057251,17.578125 C19.3643188,17.2901917 19.3945313,16.9956207 19.3945313,16.6992188 C19.3945313,14.2760467 17.423172,12.3046875 15,12.3046875 C12.576828,12.3046875 10.6054688,14.2760467 10.6054688,16.6992188 C10.6054688,16.9956207 10.6356812,17.2901917 10.6942749,17.578125 L7.08984375,17.578125 L7.08984375,15.8203125 L8.2173157,15.8203125 C8.61785889,15.8203125 8.9678192,15.5495453 9.06829834,15.1618195 C9.20951842,14.6161652 9.42901611,14.0888214 9.72015381,13.5946655 C9.92362975,13.2495117 9.86801145,12.8102875 9.58465576,12.5267029 L9.58465576,12.5267029 Z M17.6367188,16.6992188 C17.6367188,17.0001984 17.5845337,17.2975159 17.4856567,17.578125 L12.5143433,17.578125 C12.4154663,17.2975159 12.3632813,17.0001984 12.3632813,16.6992188 C12.3632813,15.2453613 13.5461426,14.0625 15,14.0625 C16.4538574,14.0625 17.6367188,15.2453613 17.6367188,16.6992188 Z M28.2421875,17.578125 L24.6679688,17.578125 L24.6679688,14.9414063 C24.6679688,14.4559479 24.2745209,14.0625 23.7890625,14.0625 L22.4313354,14.0625 C22.3402405,13.8070679 22.2356415,13.5559845 22.1179962,13.3099365 L23.0792999,12.3488617 C23.4223938,12.0055389 23.4223938,11.4491272 23.079071,11.1058044 L20.5931854,8.61991881 C20.4283905,8.45512389 20.2047729,8.36265563 19.9717712,8.36265563 C19.7387695,8.36265563 19.515152,8.45512389 19.3503571,8.61991881 L18.3892822,9.58122252 C18.1432342,9.46357729 17.8921509,9.35897824 17.6367188,9.26811217 L17.6367188,7.91015625 C17.6367188,7.42469789 17.2432709,7.03125 16.7578125,7.03125 L13.2421875,7.03125 C12.7567291,7.03125 12.3632813,7.42469789 12.3632813,7.91015625 L12.3632813,9.26811217 C12.1078491,9.35897824 11.8567658,9.46357729 11.6107178,9.58122252 L10.6496429,8.61991881 C10.484848,8.45512389 10.2612305,8.36265563 10.0282288,8.36265563 C9.79499818,8.36265563 9.57160951,8.45512389 9.40658566,8.61991881 L6.92092898,11.1058044 C6.57760617,11.4491272 6.57760617,12.0055389 6.92092898,12.3488617 L7.88200377,13.3101654 C7.76435854,13.5559845 7.65998842,13.8070679 7.56889342,14.0625 L6.2109375,14.0625 C5.72547914,14.0625 5.33203125,14.4561768 5.33203125,14.9414063 L5.33203125,17.578125 L1.7578125,17.578125 L1.7578125,2.63671875 C1.7578125,2.15217592 2.15217592,1.7578125 2.63671875,1.7578125 L27.3632813,1.7578125 C27.8478241,1.7578125 28.2421875,2.15217592 28.2421875,2.63671875 L28.2421875,17.578125 Z" id="Shape" stroke="#FFFFFF" stroke-width="0.6"></path>
                <path d="M24.375,3.75 C22.8242188,3.75 21.5625,5.01171875 21.5625,6.5625 C21.5625,8.11328125 22.8242188,9.375 24.375,9.375 C25.9257813,9.375 27.1875,8.11328125 27.1875,6.5625 C27.1875,5.01171875 25.9257813,3.75 24.375,3.75 Z M24.375,7.5 C23.8581543,7.5 23.4375,7.07934569 23.4375,6.5625 C23.4375,6.04565431 23.8581543,5.625 24.375,5.625 C24.8918457,5.625 25.3125,6.04565431 25.3125,6.5625 C25.3125,7.07934569 24.8918457,7.5 24.375,7.5 Z" id="Shape"></path>
            </g>
        </g>
    </g>
</svg>