<?xml version="1.0" encoding="UTF-8"?>
<svg width="30px" height="31px" viewBox="0 0 30 31" version="1.1" xmlns="http://www.w3.org/2000/svg" xmlns:xlink="http://www.w3.org/1999/xlink">
    <!-- Generator: Sketch 57 (83077) - https://sketch.com -->
    <title>notepad</title>
    <desc>Created with Sketch.</desc>
    <g id="Page-1" stroke="none" stroke-width="1" fill="none" fill-rule="evenodd">
        <g id="ABC---Dashborad-2" transform="translate(-34.000000, -266.000000)" fill="#7A8496" fill-rule="nonzero">
            <g id="notepad" transform="translate(34.000000, 266.000000)">
                <path d="M27.6305776,17.2990037 L27.7475305,17.403883 L29.2558247,18.9127066 C29.8358109,19.4926928 29.8699277,20.4145508 29.3581752,21.0351985 L29.2558247,21.1478832 L21.1081773,29.29606 L16.9904124,30.4189424 L16.7151183,30.6942365 C16.611883,30.7974718 16.4763536,30.8493542 16.3408242,30.8493542 C16.2336712,30.8493542 16.1268571,30.8161495 16.0358322,30.7513664 L15.9707653,30.6968836 L15.9607065,30.6995306 L15.9633536,30.6889424 C15.7831183,30.5049424 15.7635104,30.2226417 15.9056455,30.0179126 L15.96653,29.9451188 L16.2412948,29.6703541 L17.3641772,25.5520598 L25.512354,17.403883 C26.0722069,16.8445264 27.0219841,16.8095666 27.6305776,17.2990037 Z M13.836177,0 C14.1284123,0 14.3655888,0.236647068 14.3655888,0.529411786 L14.3655888,0.529411786 L14.3655888,1.58823536 L17.5420595,1.58823536 C17.8342948,1.58823536 18.0714706,1.82488243 18.0714706,2.11764714 L18.0714706,2.11764714 L18.0714706,3.17647071 L22.3067656,3.17647071 C22.5990009,3.17647071 22.8361774,3.41311778 22.8361774,3.7058825 L22.8361774,3.7058825 L22.8361774,15.8823536 C22.8361774,16.1751183 22.5990009,16.4117654 22.3067656,16.4117654 C22.0145303,16.4117654 21.7773538,16.1751183 21.7773538,15.8823536 L21.7773538,15.8823536 L21.7773538,4.23529429 L18.0714706,4.23529429 L18.0714706,5.29411786 C18.0714706,5.58688257 17.8342948,5.82352964 17.5420595,5.82352964 L17.5420595,5.82352964 L5.36558845,5.82352964 C5.07335314,5.82352964 4.83617666,5.58688257 4.83617666,5.29411786 L4.83617666,5.29411786 L4.83617666,4.23529429 L1.13029416,4.23529429 L1.13029416,29.64706 L13.3067652,29.64706 C13.59953,29.64706 13.836177,29.8837071 13.836177,30.1764718 C13.836177,30.4692365 13.5990005,30.7058836 13.3067652,30.7058836 L13.3067652,30.7058836 L0.600882377,30.7058836 C0.308647071,30.7058836 0.0714705911,30.4692365 0.0714705911,30.1764718 L0.0714705911,30.1764718 L0.0714705911,3.7058825 C0.0714705911,3.41311778 0.308647071,3.17647071 0.600882377,3.17647071 L0.600882377,3.17647071 L4.83617666,3.17647071 L4.83617666,2.11764714 C4.83617666,1.82488243 5.07335314,1.58823536 5.36558845,1.58823536 L5.36558845,1.58823536 L8.54205916,1.58823536 L8.54205916,0.529411786 C8.54205916,0.236647068 8.77923564,0 9.07147059,0 L9.07147059,0 Z M18.1090595,26.8464717 L17.4695301,29.190707 L19.8137655,28.5511776 L18.1090595,26.8464717 Z M24.0093539,20.4040596 L18.586589,25.8268246 L20.8328832,28.0731188 L26.2556481,22.6503538 L24.0093539,20.4040596 Z M10.6597063,24.3529421 C10.9519416,24.3529421 11.1891181,24.5895892 11.1891181,24.8823539 C11.1891181,25.1425892 11.0017194,25.3584847 10.754829,25.4032486 L10.6597063,25.4117657 L3.77735309,25.4117657 C3.48511779,25.4117657 3.24794131,25.1751186 3.24794131,24.8823539 C3.24794131,24.6221186 3.43534001,24.4062232 3.68223036,24.3614592 L3.77735309,24.3529421 L10.6597063,24.3529421 Z M15.4244124,21.1764714 C15.7171771,21.1764714 15.9538242,21.4131185 15.9538242,21.7058832 C15.9538242,21.9661185 15.7664255,22.182014 15.5195351,22.2267779 L15.4244124,22.235295 L3.77735309,22.235295 C3.48511779,22.235295 3.24794131,21.9986479 3.24794131,21.7058832 C3.24794131,21.4456479 3.43534001,21.2297525 3.68223036,21.1849885 L3.77735309,21.1764714 L15.4244124,21.1764714 Z M26.3316183,18.0939615 L26.2609422,18.1524713 L24.7579422,19.6554714 L27.0042364,21.9017656 L28.5072364,20.3987655 C28.6879423,20.2180596 28.7080207,19.936125 28.5674717,19.7332956 L28.5072364,19.6612949 L26.9984128,18.1524713 C26.823354,17.9769419 26.5324259,17.9574386 26.3316183,18.0939615 Z M17.5420595,18.0000007 C17.8342948,18.0000007 18.0714713,18.2366478 18.0714713,18.5294125 C18.0714713,18.7896478 17.8840726,19.0055432 17.6371823,19.0503072 L17.5420595,19.0588243 L3.77735309,19.0588243 C3.48511779,19.0588243 3.24794131,18.8221772 3.24794131,18.5294125 C3.24794131,18.2691772 3.43534001,18.0532818 3.68223036,18.0085178 L3.77735309,18.0000007 L17.5420595,18.0000007 Z M11.1891181,14.82353 C11.4813534,14.82353 11.7185299,15.0601771 11.7185299,15.3529418 C11.7185299,15.6131771 11.5311312,15.8290725 11.2842408,15.8738365 L11.1891181,15.8823536 L3.77735309,15.8823536 C3.48511779,15.8823536 3.24794131,15.6457065 3.24794131,15.3529418 C3.24794131,15.0927065 3.43534001,14.876811 3.68223036,14.8320471 L3.77735309,14.82353 L11.1891181,14.82353 Z M19.1302949,14.82353 C19.4225302,14.82353 19.6597067,15.0601771 19.6597067,15.3529418 C19.6597067,15.6131771 19.4727263,15.8290725 19.225557,15.8738365 L19.1302949,15.8823536 L15.4244124,15.8823536 C15.1321771,15.8823536 14.8950006,15.6457065 14.8950006,15.3529418 C14.8950006,15.0927065 15.0823993,14.876811 15.3292896,14.8320471 L15.4244124,14.82353 L19.1302949,14.82353 Z M13.6826476,14.97653 C13.7779417,15.0771182 13.836177,15.2147653 13.836177,15.3524124 C13.836177,15.4900594 13.7779417,15.6282359 13.6826476,15.7282947 C13.5825888,15.8241183 13.4444123,15.8818242 13.3067652,15.8818242 C13.1691182,15.8818242 13.0314711,15.8241183 12.9308829,15.7282947 C12.8355887,15.6282359 12.7773534,15.495883 12.7773534,15.3524124 C12.7773534,15.2147653 12.8355887,15.0771182 12.9308829,14.97653 C13.1267652,14.7806476 13.4814711,14.7806476 13.6826476,14.97653 Z M19.1302949,11.6470593 C19.4230596,11.6470593 19.6597067,11.8837064 19.6597067,12.1764711 C19.6597067,12.4367064 19.472308,12.6526018 19.2254176,12.6973658 L19.1302949,12.7058829 L3.77735309,12.7058829 C3.48511779,12.7058829 3.24794131,12.4692358 3.24794131,12.1764711 C3.24794131,11.9162358 3.43534001,11.7003403 3.68223036,11.6555764 L3.77735309,11.6470593 L19.1302949,11.6470593 Z M10.6597063,8.47058857 C10.9519416,8.47058857 11.1891181,8.70723564 11.1891181,9.00000036 C11.1891181,9.26023566 11.0017194,9.4761311 10.754829,9.52089508 L10.6597063,9.52941214 L3.77735309,9.52941214 C3.48511779,9.52941214 3.24794131,9.29276508 3.24794131,9.00000036 C3.24794131,8.73976505 3.43534001,8.52386962 3.68223036,8.47910564 L3.77735309,8.47058857 L10.6597063,8.47058857 Z M8.54205916,2.64705893 L5.89500023,2.64705893 L5.89500023,4.76470607 L17.0126477,4.76470607 L17.0126477,2.64705893 L14.3655888,2.64705893 L14.3655888,3.7058825 C14.3655888,3.99864722 14.1284123,4.23529429 13.836177,4.23529429 L13.836177,4.23529429 L9.07147095,4.23529429 C8.77923564,4.23529429 8.54205916,3.99864722 8.54205916,3.7058825 L8.54205916,3.7058825 L8.54205916,2.64705893 Z M13.3067652,1.05882357 L9.60088273,1.05882357 L9.60088273,3.17647071 L13.3067652,3.17647071 L13.3067652,1.05882357 Z" id="Combined-Shape"></path>
            </g>
        </g>
    </g>
</svg>