<?xml version="1.0" encoding="UTF-8"?>
<svg width="30px" height="30px" viewBox="0 0 30 30" version="1.1" xmlns="http://www.w3.org/2000/svg" xmlns:xlink="http://www.w3.org/1999/xlink">
    <!-- Generator: Sketch 57 (83077) - https://sketch.com -->
    <title>support (3) copy</title>
    <desc>Created with Sketch.</desc>
    <g id="Page-1" stroke="none" stroke-width="1" fill="none" fill-rule="evenodd">
        <g id="ABC---Dashborad-2" transform="translate(-34.000000, -188.000000)" fill="#7A8496" fill-rule="nonzero">
            <g id="support-(3)-copy" transform="translate(34.000000, 188.000000)">
                <path d="M29.9964642,19.5828606 C29.9590813,18.9267215 29.6284364,18.3258055 29.0891388,17.9342553 C28.2165596,17.3005954 27.0058353,17.3666566 26.2105414,18.0914947 L21.3730938,22.5005634 C21.4025665,21.5305189 20.7510617,20.6743613 19.7752987,20.4320795 L13.8674006,18.9645691 C12.8314031,18.7072057 11.7464799,18.7418993 10.7298184,19.0649798 L6.64565304,20.3626923 L6.64565304,19.2125279 C6.64565304,18.89587 6.38326989,18.6391374 6.05977338,18.6391374 L0.585879656,18.6391374 C0.262324555,18.6391374 0,18.8959274 0,19.2125279 L0,29.4266095 C0,29.7432674 0.262383148,30 0.585879656,30 L6.05983198,30 C6.38338708,30 6.64571163,29.74321 6.64571163,29.4266095 L6.64571163,21.5684812 L11.0916939,20.1557923 C11.8977105,19.8996332 12.7578679,19.8722224 13.5791775,20.0760831 L19.4871343,21.5435936 C19.9459826,21.657595 20.2449283,22.0749504 20.1978774,22.5361171 C20.1492445,23.0128817 19.7433065,23.3724909 19.2536965,23.3724909 L14.5496671,23.3724909 C14.226112,23.3724909 13.9637874,23.6292808 13.9637874,23.9458814 C13.9637874,24.2625393 14.2261706,24.5192719 14.5496671,24.5192719 L16.3978335,24.5192719 C16.4198648,24.5217378 16.442189,24.5232861 16.4649234,24.5232861 L19.3705326,24.5232861 C20.3396745,24.5232861 21.2639921,24.1672323 21.9733289,23.5208418 L27.0092924,18.9307356 C27.3910312,18.5827675 27.9722233,18.5511132 28.3911692,18.8552699 C28.6500367,19.0431888 28.8087087,19.3316331 28.8266385,19.646628 C28.8446268,19.9616229 28.7195289,20.2654929 28.4836302,20.4804785 L21.5461213,26.801021 C21.0675856,27.2369561 20.4439129,27.4770587 19.7901816,27.4770587 L10.7107168,27.4770587 C10.3871617,27.4770587 10.1248372,27.7338487 10.1248372,28.0504493 C10.1248372,28.3671072 10.3872203,28.6238398 10.7107168,28.6238398 L19.7902988,28.6238398 C20.7412765,28.6238398 21.6484261,28.2745527 22.344638,27.6403767 L29.2819711,21.3198342 C29.7733975,20.8720861 30.033847,20.2389996 29.9964642,19.5828606 Z M5.47395232,28.8532189 L1.17175931,28.8532189 L1.17175931,19.7859758 L5.47389373,19.7859758 L5.47389373,28.8532189 L5.47395232,28.8532189 Z" id="Shape"></path>
                <path d="M8.92251433,27.7441911 C8.7676596,27.5890922 8.55274557,27.5 8.33291683,27.5 C8.1137545,27.5 7.89892376,27.5890922 7.74406904,27.7441911 C7.58913101,27.8992899 7.5,28.1142281 7.5,28.3333333 C7.5,28.5524386 7.58904771,28.7675434 7.74406904,28.9223922 C7.89984006,29.0774077 8.1138378,29.1666667 8.33291683,29.1666667 C8.55282887,29.1666667 8.7669099,29.0774911 8.92251433,28.9223922 C9.07745235,28.7674601 9.16666667,28.5524386 9.16666667,28.3333333 C9.16666667,28.1142281 9.07753565,27.8992066 8.92251433,27.7441911 Z" id="Shape"></path>
                <path d="M4.75664233,26.9100243 C4.60079341,26.7550088 4.38577191,26.6666667 4.16666667,26.6666667 C3.94747808,26.6666667 3.73245658,26.7550088 3.57752442,26.9100243 C3.42250892,27.0658733 3.33333333,27.2808948 3.33333333,27.5 C3.33333333,27.7191052 3.42242558,27.9333767 3.57752442,28.0891422 C3.73337334,28.2441577 3.94756142,28.3333333 4.16666667,28.3333333 C4.38585525,28.3333333 4.60087675,28.2441577 4.75664233,28.0891422 C4.91157449,27.9341267 5,27.7191052 5,27.5 C5,27.279978 4.91157449,27.0658733 4.75664233,26.9100243 Z" id="Shape"></path>
                <path d="M13.5606189,0 L12.902264,0 C9.95688044,0 7.56063104,2.35520349 7.56063104,5.25013491 L7.56063104,6.79789113 C5.65872362,6.97827702 4.16666667,8.5576663 4.16666667,10.4735217 C4.16666667,12.5098926 5.85237524,14.1666667 7.92423544,14.1666667 L8.16667879,14.1666667 C8.50137183,14.1666667 8.77272654,13.8999005 8.77272654,13.571 L8.77272654,5.25013491 C8.77272654,3.01217034 10.6252361,1.19133324 12.902264,1.19133324 L13.5606189,1.19133324 C13.895312,1.19133324 14.1666667,0.924567047 14.1666667,0.595666618 C14.1666667,0.266706615 13.895312,0 13.5606189,0 Z M7.56063104,11.945442 L7.56063104,12.9498364 C6.3287158,12.7758843 5.37882278,11.7316954 5.37882278,10.4734622 C5.37882278,9.21522886 6.3287158,8.17104 7.56063104,7.99708795 L7.56063104,11.945442 Z" id="Shape"></path>
                <path d="M15.0173416,0 L14.9826584,0 C14.5320227,0 14.1666667,0.373203987 14.1666667,0.833333333 C14.1666667,1.29354602 14.5321043,1.66666667 14.9826584,1.66666667 L15.0173416,1.66666667 C15.4679773,1.66666667 15.8333333,1.29346268 15.8333333,0.833333333 C15.8333333,0.373120645 15.4679773,0 15.0173416,0 Z" id="Shape"></path>
                <path d="M22.5793222,6.70159409 L22.5793222,5.17585368 C22.5793222,2.32188103 20.2818843,0 17.4579563,0 L16.8067008,0 C16.4858092,0 16.225644,0.262991862 16.225644,0.587238862 C16.225644,0.911544593 16.4859254,1.17447772 16.8067589,1.17447772 L17.4580144,1.17447772 C19.6410889,1.17447772 21.4172667,2.96949409 21.4172667,5.17585368 L21.4172667,15.0236597 C21.4172667,15.2234583 21.2564141,15.3860223 21.0587769,15.3860223 L16.7335385,15.3860223 C16.5056252,14.8347848 15.9667573,14.4463462 15.3396762,14.4463462 L14.0100271,14.4463462 C13.1774057,14.4463462 12.5,15.130959 12.5,15.972439 L12.5,15.9739072 C12.5,16.8153872 13.1774057,17.5 14.0100271,17.5 L15.3396762,17.5 C15.9665249,17.5 16.5052184,17.1119138 16.733306,16.5603826 L21.0587188,16.5603826 C21.8972095,16.5603826 22.5793222,15.8709539 22.5793222,15.0235422 L22.5793222,13.9487876 C24.4028027,13.7709539 25.8333333,12.2139106 25.8333333,10.3251615 C25.8333333,8.43641245 24.4028027,6.87948653 22.5793222,6.70159409 Z M15.3396762,16.325581 L14.0100271,16.325581 C13.818143,16.325581 13.6621136,16.1678329 13.6621136,15.9739659 L13.6621136,15.9724977 C13.6621136,15.778572 13.8182011,15.6208826 14.0100271,15.6208826 L15.3396762,15.6208826 C15.5315604,15.6208826 15.6875897,15.7786308 15.6875897,15.9740247 C15.6875897,16.1678329 15.5315604,16.325581 15.3396762,16.325581 Z M22.5793803,12.7666163 L22.5793803,11.7764326 L22.5793803,7.88394161 C23.7604964,8.0554325 24.6712197,9.08484772 24.6712197,10.325279 C24.6712197,11.5657102 23.7605545,12.5951254 22.5793803,12.7666163 Z" id="Shape"></path>
                <path d="M19.4472338,6.49395699 L18.9313924,6.49395699 C18.8589247,6.27196608 18.769653,6.0562767 18.6639088,5.84799439 L19.0286792,5.48327925 C19.1323229,5.37958031 19.1905844,5.23901186 19.1905844,5.09247354 C19.1905844,4.94593521 19.1323229,4.80525621 19.0286792,4.70166782 L17.7983322,3.47137606 C17.582477,3.25552086 17.232576,3.25557614 17.0166655,3.47137606 L16.6518951,3.83603593 C16.4436127,3.73034704 16.2279234,3.64102002 16.0059877,3.56860764 L16.0059877,3.05271094 C16.0059877,2.74747343 15.758459,2.5 15.4532768,2.5 L13.713224,2.5 C13.4079865,2.5 13.1605131,2.74752871 13.1605131,3.05271094 L13.1605131,3.57021066 C12.939075,3.64273359 12.7239936,3.73206061 12.5162641,3.83769423 L12.1500012,3.47143134 C11.934146,3.25568669 11.5843002,3.25563141 11.3682792,3.47143134 L10.1379322,4.7017231 C10.0342885,4.80536676 9.97602695,4.94599049 9.97602695,5.09252881 C9.97602695,5.23906713 10.0342885,5.37969086 10.1379322,5.48333452 L10.5060192,5.85142154 C10.4009936,6.05870887 10.3122194,6.27323744 10.2402492,6.49401227 L9.7193776,6.49401227 C9.4141401,6.49401227 9.16666667,6.74154098 9.16666667,7.0467232 L9.16666667,8.78666541 C9.16666667,9.09190291 9.41419538,9.33937634 9.7193776,9.33937634 L10.2419075,9.33937634 C10.3140435,9.5595984 10.4027625,9.77351893 10.5077328,9.98030877 L10.1380427,10.3499988 C10.0343991,10.4536425 9.97613751,10.5942662 9.97613751,10.7408045 C9.97613751,10.8873428 10.0343991,11.0279666 10.1380427,11.1316102 L11.3683898,12.3619573 C11.5843002,12.5777572 11.934146,12.5777572 12.1501117,12.3619573 L12.5198018,11.9922672 C12.7265363,12.0972375 12.9404569,12.1860118 13.1607342,12.2581478 L13.1607342,12.7806224 C13.1607342,13.0858599 13.4082629,13.3333333 13.7134451,13.3333333 L15.4534426,13.3333333 C15.7586801,13.3333333 16.0061536,13.0858046 16.0061536,12.7806224 L16.0061536,12.2597508 C16.2269284,12.1877254 16.441457,12.0990064 16.6487443,11.9939255 L17.0167208,12.3620125 C17.2326312,12.5778125 17.582477,12.5778125 17.7984427,12.3620125 L19.0287898,11.1316655 C19.1324334,11.0279666 19.190695,10.8873981 19.190695,10.7408598 C19.190695,10.5943215 19.1324334,10.4536425 19.0287345,10.3500541 L18.662361,9.98368064 C18.7680499,9.7759511 18.857377,9.56086976 18.9298446,9.33943162 L19.4472891,9.33943162 C19.7525266,9.33943162 20,9.09190291 20,8.78672068 L20,7.04677848 C20,6.7414857 19.7524713,6.49395699 19.4472338,6.49395699 Z M18.8945229,8.23384392 L18.5104056,8.23384392 C18.2506608,8.23384392 18.0240819,8.41636732 17.9684183,8.66958952 C17.8806943,9.06437515 17.7255881,9.43738179 17.5075771,9.77827272 C17.3677273,9.99694703 17.3987928,10.2834458 17.5824217,10.4669641 L17.8562068,10.7407492 L17.4075817,11.1893743 L17.1325806,10.9143731 C16.9493386,10.7311311 16.6633373,10.6998445 16.4447736,10.8390864 C16.1030535,11.0567657 15.7296046,11.2111533 15.3345979,11.2981034 C15.0811546,11.3539328 14.9006764,11.5784664 14.9006764,11.8379349 L14.9006764,12.2277456 L14.2659903,12.2277456 L14.2659903,11.8368846 C14.2659903,11.5776926 14.0858437,11.3533248 13.8327874,11.297219 C13.4382781,11.2098267 13.0652715,11.0551074 12.72427,10.8374833 C12.5057062,10.6979099 12.2194286,10.7290306 12.0360208,10.9124937 L11.7590849,11.1894296 L11.3104599,10.7408045 L11.5873405,10.4639239 C11.7707483,10.2805714 11.8020349,9.99434903 11.6624061,9.77567471 C11.4447268,9.43467324 11.2901181,9.0616666 11.2027257,8.66710208 C11.14662,8.41399043 10.9222522,8.2338992 10.6630601,8.2338992 L10.2721438,8.2338992 L10.2721438,7.59943414 L10.6609043,7.59943414 C10.9102019,7.59943414 11.1298159,7.43155904 11.1954292,7.19110574 C11.1978614,7.18237203 11.2000172,7.17352777 11.2019519,7.16462823 C11.288902,6.77006371 11.4432343,6.39678069 11.6608031,6.05528172 C11.8000449,5.83671796 11.7687031,5.550772 11.5854611,5.36753 L11.3104599,5.09252881 L11.7590849,4.64390375 L12.03287,4.91774414 C12.2163884,5.10126252 12.5028871,5.13238326 12.7215062,4.99258868 C13.0605177,4.7757385 13.4311474,4.62118506 13.823114,4.53329523 C14.0756728,4.48216436 14.2659903,4.25873626 14.2659903,3.99119741 L14.2659903,3.60553242 L14.9005106,3.60553242 L14.9005106,3.98710694 C14.9005106,4.24364574 15.0801043,4.47027989 15.3297888,4.52909421 C15.332221,4.52970225 15.3347084,4.53025502 15.3371406,4.53075251 C15.7321474,4.61797902 16.1057068,4.77280883 16.4473163,4.99081983 C16.6658248,5.13017219 16.9521024,5.09916201 17.1354549,4.91575418 L17.4074159,4.64384848 L17.856041,5.09247354 L17.5849091,5.36360536 C17.4004511,5.54811872 17.3705464,5.83704962 17.5105621,6.05495006 C17.7264726,6.39379575 17.8801969,6.76409384 17.9676445,7.1557287 C18.0183884,7.40872979 18.2419271,7.59937886 18.5097976,7.59937886 L18.894357,7.59937886 L18.894357,8.23384392 L18.8945229,8.23384392 Z" id="Shape"></path>
                <path d="M14.5833333,5.83333333 C13.4346133,5.83333333 12.5,6.76794659 12.5,7.91666667 C12.5,9.06538674 13.4346133,10 14.5833333,10 C15.7320534,10 16.6666667,9.06538674 16.6666667,7.91666667 C16.6666667,6.76794659 15.7320534,5.83333333 14.5833333,5.83333333 Z M14.5833333,8.90353186 C14.0392114,8.90353186 13.5964681,8.4608434 13.5964681,7.91666667 C13.5964681,7.37254476 14.0391566,6.92980148 14.5833333,6.92980148 C15.1274552,6.92980148 15.5701985,7.37248993 15.5701985,7.91666667 C15.5701985,8.46078857 15.1274552,8.90353186 14.5833333,8.90353186 Z" id="Shape"></path>
                <path d="M4.16666667,20 C3.70645398,20 3.33333333,20.2515928 3.33333333,20.5617858 L3.33333333,24.4382142 C3.33333333,24.7484634 3.70645398,25 4.16666667,25 C4.62687935,25 5,24.7484072 5,24.4382142 L5,20.5617858 C5,20.2515928 4.62679601,20 4.16666667,20 Z" id="Shape"></path>
            </g>
        </g>
    </g>
</svg>