<?xml version="1.0" encoding="UTF-8"?>
<svg width="48px" height="36px" viewBox="0 0 48 36" version="1.1" xmlns="http://www.w3.org/2000/svg" xmlns:xlink="http://www.w3.org/1999/xlink">
    <!-- Generator: Sketch 53 (72520) - https://sketchapp.com -->
    <title>Group 32</title>
    <desc>Created with Sketch.</desc>
    <defs>
        <polygon id="path-1" points="0 0.141812069 35.759808 0.141812069 35.759808 13.7933767 0 13.7933767"></polygon>
    </defs>
    <g id="Page-1" stroke="none" stroke-width="1" fill="none" fill-rule="evenodd">
        <g id="UI---Screen-16" transform="translate(-253.000000, -363.000000)">
            <g id="Group-32" transform="translate(253.000000, 363.000000)">
                <polygon id="Fill-1" fill="#FFFFFF" points="28.152 16.6833638 28.152 1.51463966 5.32512 1.51463966 5.32512 16.6833638 8.37024 16.6833638 8.37024 4.54991552 25.1088 4.54991552 25.1088 16.6833638"></polygon>
                <g id="Group-31" transform="translate(0.000000, 0.437876)">
                    <path d="M35.759808,14.7297638 L44.889408,14.7297638 C45.730368,14.7297638 46.411968,14.0503672 46.411968,13.2121259 C46.411968,12.3757983 45.730368,11.6944879 44.889408,11.6944879 L35.759808,11.6944879 L35.759808,14.7297638 Z" id="Fill-2" fill="#FFFFFF"></path>
                    <polygon id="Fill-8" fill="#FFFFFF" points="35.759808 22.3139345 38.803008 22.3139345 38.803008 31.4140207 35.759808 31.4140207 35.759808 34.4473828 46.411968 34.4473828 46.411968 31.4140207 43.368768 31.4140207 43.368768 22.3139345 46.411968 22.3139345 46.411968 19.2786586 35.759808 19.2786586"></polygon>
                    <polygon id="Fill-10" fill="#FFFFFF" points="43.368576 31.4138293 41.847936 31.4138293 41.847936 22.3137431 44.889216 22.3137431 44.889216 19.2784672 35.759616 19.2784672 35.759616 22.3137431 38.804736 22.3137431 38.804736 31.4138293 35.759616 31.4138293 35.759616 34.4471914 44.889216 34.4471914 44.889216 31.4138293"></polygon>
                    <path d="M6.847296,25.3472966 C6.847296,26.1836241 6.167616,26.8630207 5.326656,26.8630207 C4.485696,26.8630207 3.804096,26.1836241 3.804096,25.3472966 C3.804096,24.5090552 4.485696,23.8296586 5.326656,23.8296586 C6.167616,23.8296586 6.847296,24.5090552 6.847296,25.3472966" id="Fill-12" fill="#FFFFFF"></path>
                    <path d="M42.608256,22.3139345 C42.608256,21.8948138 42.948096,21.5560724 43.368576,21.5560724 L45.651456,21.5560724 L45.651456,20.0384345 L36.521856,20.0384345 L36.521856,21.5560724 L38.804736,21.5560724 C39.223296,21.5560724 39.565056,21.8948138 39.565056,22.3139345 L39.565056,31.4140207 C39.565056,31.8331414 39.223296,32.1718828 38.804736,32.1718828 L36.521856,32.1718828 L36.521856,33.6876069 L45.651456,33.6876069 L45.651456,32.1718828 L43.368576,32.1718828 C42.948096,32.1718828 42.608256,31.8331414 42.608256,31.4140207 M46.411776,35.2052448 L35.759616,35.2052448 C35.341056,35.2052448 34.999296,34.8665034 34.999296,34.4473828 L34.999296,31.4140207 C34.999296,30.9949 35.341056,30.6542448 35.759616,30.6542448 L38.042496,30.6542448 L38.042496,23.0717966 L35.759616,23.0717966 C35.341056,23.0717966 34.999296,22.7311414 34.999296,22.3139345 L34.999296,19.2786586 C34.999296,18.8595379 35.341056,18.5227103 35.759616,18.5227103 L46.411776,18.5227103 C46.832256,18.5227103 47.172096,18.8595379 47.172096,19.2786586 L47.172096,22.3139345 C47.172096,22.7311414 46.832256,23.0717966 46.411776,23.0717966 L44.128896,23.0717966 L44.128896,30.6542448 L46.411776,30.6542448 C46.832256,30.6542448 47.172096,30.9949 47.172096,31.4140207 L47.172096,34.4473828 C47.172096,34.8665034 46.832256,35.2052448 46.411776,35.2052448" id="Fill-14" fill="#FFFFFF"></path>
                    <g id="Group-18" transform="translate(0.000000, 19.895474)">
                        <mask id="mask-2" fill="white">
                            <use xlink:href="#path-1"></use>
                        </mask>
                        <g id="Clip-17"></g>
                        <path d="M35.759808,13.7928983 L33.478848,13.7928983 C33.277248,13.7928983 33.081408,13.7144328 32.939328,13.5708983 L31.956288,12.5910362 L30.971328,13.5708983 C30.675648,13.8675362 30.193728,13.8675362 29.896128,13.5708983 L28.913088,12.5910362 L27.928128,13.5708983 C27.630528,13.8675362 27.150528,13.8675362 26.852928,13.5708983 L25.869888,12.5910362 L24.884928,13.5708983 C24.587328,13.8675362 24.107328,13.8675362 23.809728,13.5708983 L22.826688,12.5910362 L21.841728,13.5708983 C21.544128,13.8675362 21.064128,13.8675362 20.766528,13.5708983 L19.781568,12.5910362 L18.798528,13.5708983 C18.500928,13.8675362 18.020928,13.8675362 17.721408,13.5708983 L16.738368,12.5910362 L15.755328,13.5708983 C15.457728,13.8675362 14.975808,13.8675362 14.678208,13.5708983 L13.695168,12.5910362 L12.712128,13.5708983 C12.414528,13.8675362 11.932608,13.8675362 11.636928,13.5708983 L10.651968,12.5910362 L9.668928,13.5708983 C9.369408,13.8675362 8.889408,13.8675362 8.591808,13.5708983 L7.608768,12.5910362 L6.625728,13.5708983 C6.326208,13.8675362 5.846208,13.8675362 5.548608,13.5708983 L4.565568,12.5910362 L3.580608,13.5708983 C3.438528,13.7144328 3.244608,13.7928983 3.043008,13.7928983 L0.760128,13.7928983 C0.341568,13.7928983 -0.000192000008,13.4522431 -0.000192000008,13.0350362 L-0.000192000008,5.45258793 C-0.000192000008,2.52257069 2.390208,0.141812069 5.325888,0.141812069 L35.759808,0.141812069 L35.759808,1.65945 L5.325888,1.65945 C3.229248,1.65945 1.520448,3.36081207 1.520448,5.45258793 L1.520448,12.2771741 L2.728128,12.2771741 L4.027968,10.9815362 C4.323648,10.6848983 4.805568,10.6848983 5.103168,10.9815362 L6.086208,11.9633121 L7.071168,10.9815362 C7.368768,10.6848983 7.848768,10.6848983 8.146368,10.9815362 L9.129408,11.9633121 L10.114368,10.9815362 C10.411968,10.6848983 10.891968,10.6848983 11.189568,10.9815362 L12.172608,11.9633121 L13.157568,10.9815362 C13.455168,10.6848983 13.935168,10.6848983 14.232768,10.9815362 L15.217728,11.9633121 L16.200768,10.9815362 C16.498368,10.6848983 16.978368,10.6848983 17.277888,10.9815362 L18.260928,11.9633121 L19.243968,10.9815362 C19.541568,10.6848983 20.023488,10.6848983 20.319168,10.9815362 L21.304128,11.9633121 L22.287168,10.9815362 C22.584768,10.6848983 23.066688,10.6848983 23.362368,10.9815362 L24.347328,11.9633121 L25.330368,10.9815362 C25.629888,10.6848983 26.109888,10.6848983 26.407488,10.9815362 L27.390528,11.9633121 L28.373568,10.9815362 C28.673088,10.6848983 29.153088,10.6848983 29.450688,10.9815362 L30.433728,11.9633121 L31.418688,10.9815362 C31.716288,10.6848983 32.196288,10.6848983 32.493888,10.9815362 L33.793728,12.2771741 L35.759808,12.2771741 L35.759808,13.7928983 Z" id="Fill-16" fill="#FFFFFF" mask="url(#mask-2)"></path>
                    </g>
                    <path d="M5.325696,24.5884776 C4.907136,24.5884776 4.565376,24.9291328 4.565376,25.3463397 C4.565376,25.7635466 4.907136,26.1042017 5.325696,26.1042017 C5.744256,26.1042017 6.086016,25.7635466 6.086016,25.3463397 C6.086016,24.9291328 5.744256,24.5884776 5.325696,24.5884776 M5.325696,27.6218397 C4.068096,27.6218397 3.042816,26.6017879 3.042816,25.3463397 C3.042816,24.0928052 4.068096,23.0708397 5.325696,23.0708397 C6.583296,23.0708397 7.608576,24.0928052 7.608576,25.3463397 C7.608576,26.6017879 6.583296,27.6218397 5.325696,27.6218397" id="Fill-19" fill="#FFFFFF"></path>
                    <polygon id="Fill-21" fill="#FFFFFF" points="31.95648 29.1390948 33.47712 29.1390948 33.47712 20.7968707 31.95648 20.7968707"></polygon>
                    <polygon id="Fill-23" fill="#FFFFFF" points="9.1296 24.5880948 32.7168 24.5880948 32.7168 23.0704569 9.1296 23.0704569"></polygon>
                    <path d="M25.86912,15.486669 L27.38976,15.486669 L27.38976,1.83558276 L6.08736,1.83558276 L6.08736,15.486669 L7.608,15.486669 L7.608,4.11299655 C7.608,3.69387586 7.94976,3.35322069 8.37024,3.35322069 L25.1088,3.35322069 C25.52736,3.35322069 25.86912,3.69387586 25.86912,4.11299655 L25.86912,15.486669 Z M28.152,17.0043069 L25.1088,17.0043069 C24.68832,17.0043069 24.34848,16.6636517 24.34848,16.244531 L24.34848,4.86894483 L9.13056,4.86894483 L9.13056,16.244531 C9.13056,16.6636517 8.7888,17.0043069 8.37024,17.0043069 L5.32512,17.0043069 C4.90656,17.0043069 4.5648,16.6636517 4.5648,16.244531 L4.5648,1.07772069 C4.5648,0.660513793 4.90656,0.319858621 5.32512,0.319858621 L28.152,0.319858621 C28.57056,0.319858621 28.91232,0.660513793 28.91232,1.07772069 L28.91232,16.244531 C28.91232,16.6636517 28.57056,17.0043069 28.152,17.0043069 L28.152,17.0043069 Z" id="Fill-24" fill="#FFFFFF"></path>
                    <path d="M5.325696,15.486669 L2.282496,15.486669 C1.024896,15.486669 -0.000384000015,14.4666172 -0.000384000015,13.2130828 C-0.000384000015,11.9576345 1.024896,10.9375828 2.282496,10.9375828 L5.325696,10.9375828 L5.325696,12.4533069 L2.282496,12.4533069 C1.863936,12.4533069 1.522176,12.7958759 1.522176,13.2130828 C1.522176,13.6302897 1.863936,13.9709448 2.282496,13.9709448 L5.325696,13.9709448 L5.325696,15.486669 Z" id="Fill-25" fill="#FFFFFF"></path>
                    <path d="M32.7168,15.486669 L28.15296,15.486669 L28.15296,13.9709448 L31.95648,13.9709448 L31.95648,12.4533069 L28.15296,12.4533069 L28.15296,10.9375828 L32.7168,10.9375828 C33.13728,10.9375828 33.47712,11.2782379 33.47712,11.6954448 L33.47712,14.7288069 C33.47712,15.1479276 33.13728,15.486669 32.7168,15.486669" id="Fill-26" fill="#FFFFFF"></path>
                    <polygon id="Fill-27" fill="#FFFFFF" points="8.36928 12.4527328 25.10784 12.4527328 25.10784 10.9370086 8.36928 10.9370086"></polygon>
                    <polygon id="Fill-28" fill="#FFFFFF" points="8.36928 15.4860948 25.10784 15.4860948 25.10784 13.9703707 8.36928 13.9703707"></polygon>
                    <path d="M36.521088,13.9709448 L44.890368,13.9709448 C45.308928,13.9709448 45.650688,13.6302897 45.650688,13.2130828 C45.650688,12.7958759 45.308928,12.4533069 44.890368,12.4533069 L36.521088,12.4533069 L36.521088,13.9709448 Z M44.890368,15.486669 L35.760768,15.486669 C35.340288,15.486669 35.000448,15.1479276 35.000448,14.7288069 L35.000448,11.6954448 C35.000448,11.2782379 35.340288,10.9375828 35.760768,10.9375828 L44.890368,10.9375828 C46.149888,10.9375828 47.173248,11.9576345 47.173248,13.2130828 C47.173248,14.4666172 46.149888,15.486669 44.890368,15.486669 L44.890368,15.486669 Z" id="Fill-29" fill="#FFFFFF"></path>
                    <polygon id="Fill-30" fill="#FFFFFF" points="32.7168 13.9703707 35.76 13.9703707 35.76 12.4527328 32.7168 12.4527328"></polygon>
                </g>
            </g>
        </g>
    </g>
</svg>