<?xml version="1.0" encoding="UTF-8"?>
<svg width="24px" height="28px" viewBox="0 0 24 28" version="1.1" xmlns="http://www.w3.org/2000/svg" xmlns:xlink="http://www.w3.org/1999/xlink">
    <!-- Generator: Sketch 53 (72520) - https://sketchapp.com -->
    <title>sweep</title>
    <desc>Created with Sketch.</desc>
    <g id="Page-1" stroke="none" stroke-width="1" fill="none" fill-rule="evenodd">
        <g id="UI---Screen-5" transform="translate(-12.000000, -248.000000)" fill="#98C03C" fill-rule="nonzero">
            <g id="sweep" transform="translate(13.000000, 249.000000)">
                <path d="M22,14.9032258 C22,13.7293473 21.0509691,12.7741935 19.8846154,12.7741935 L17.3461538,12.7741935 L17.3461538,2.12903226 C17.3461538,0.955153703 16.3971229,0 15.2307692,0 C14.0644155,0 13.1153846,0.955153703 13.1153846,2.12903226 L13.1153846,12.7741935 L10.5769231,12.7741935 C9.46510664,12.7741935 8.56049055,13.6449345 8.47765177,14.7431326 L8.03846154,14.3011089 L8.03846154,1.70322581 C8.03846154,0.763873461 7.2794847,0 6.34615385,0 C5.41282299,0 4.65384615,0.763873461 4.65384615,1.70322581 L4.65384615,14.3011089 L2.11538462,16.8559476 L2.11538462,18.9049332 C2.11538462,21.2119393 1.41094504,23.4235131 0.0791203558,25.3009702 L0,25.4122039 L0,26.4 L12.6923077,26.4 L12.6923077,25.4122039 L12.6131873,25.3009702 C12.5555514,25.220092 12.5061786,25.1352633 12.4512282,25.0531376 C12.4904785,25.0446131 12.5307617,25.0421182 12.5691857,25.0323463 C13.0023851,25.8648311 13.8570087,26.4 14.8076923,26.4 C15.5344426,26.4 16.2262808,26.081061 16.7055476,25.5357044 C16.77971,25.5442288 16.8520132,25.5483871 16.9230769,25.5483871 C18.0894306,25.5483871 19.0384615,24.5932334 19.0384615,23.4193548 C19.0384615,23.2738155 19.0206956,23.1320186 18.9928073,22.9935484 L22,22.9935484 L22,14.9032258 Z M13.9615385,2.12903226 C13.9615385,1.42482988 14.531081,0.851612903 15.2307692,0.851612903 C15.9304575,0.851612903 16.5,1.42482988 16.5,2.12903226 L16.5,12.7741935 L13.9615385,12.7741935 L13.9615385,2.12903226 Z M2.96153846,18.3096774 L2.96153846,17.4580645 L9.73076923,17.4580645 L9.73076923,18.3096774 L2.96153846,18.3096774 Z M7.19230769,5.10967742 L5.5,5.10967742 L5.5,4.25806452 L7.19230769,4.25806452 L7.19230769,5.10967742 Z M6.34615385,0.851612903 C6.81281927,0.851612903 7.19230769,1.23354963 7.19230769,1.70322581 L7.19230769,3.40645161 L5.5,3.40645161 L5.5,1.70322581 C5.5,1.23354963 5.87948842,0.851612903 6.34615385,0.851612903 Z M5.5,14.6537298 L5.5,5.96129032 L7.19230769,5.96129032 L7.19230769,14.6537298 L9.13251202,16.6064516 L3.55979567,16.6064516 L5.5,14.6537298 Z M9.69048601,25.5483871 L9.30562653,21.6735068 L8.46360424,21.7583354 L8.84020056,25.5479713 L7.99817832,25.5479713 L7.61331884,21.673091 L6.77129655,21.7579196 L7.14789287,25.5475554 L5.54441483,25.5475554 L5.92101114,21.7579196 L5.07898886,21.673091 L4.69412937,25.5479713 L3.85210713,25.5479713 L4.22870345,21.7583354 L3.38668116,21.6735068 L3.00182168,25.5483871 L0.938288788,25.5483871 C2.21516302,23.6509702 2.90348935,21.4533266 2.95224235,19.1612903 L9.74006534,19.1612903 C9.78881835,21.4533266 10.4771447,23.6509702 11.7540189,25.5483871 L9.69048601,25.5483871 Z M16.9230769,24.6967742 C16.833421,24.6967742 16.73984,24.6845073 16.6299391,24.6581023 L16.3518818,24.5915701 L16.1868239,24.8258883 C15.8678636,25.2785157 15.3522386,25.5483871 14.8076923,25.5483871 C14.080942,25.5483871 13.43827,25.076216 13.2089656,24.3732611 L13.0666316,23.9385144 L12.6466534,24.112122 C12.4299504,24.2011089 12.2014724,24.2543347 11.9713417,24.2680569 C11.2983023,23.0586252 10.861591,21.7429498 10.6802133,20.3713458 C10.966534,20.1798576 11.2914851,20.0580204 11.6366812,20.0235068 L11.8854042,19.9987651 L11.9841496,19.7675655 C12.2510517,19.1409148 12.8614972,18.7354839 13.5384615,18.7354839 C14.2348445,18.7354839 14.8694599,19.1800025 15.1165302,19.8413748 L15.2625826,20.2322518 L15.6538462,20.0929498 C15.8044433,20.0393082 15.9432655,20.0129032 16.0769231,20.0129032 C16.7766113,20.0129032 17.3461538,20.5861202 17.3461538,21.2903226 C17.3461538,21.438149 17.3182655,21.5849357 17.2598032,21.7400391 L17.1232534,22.1040952 L17.4713417,22.2735446 C17.9161095,22.4901903 18.1923077,22.9293032 18.1923077,23.4193548 C18.1923077,24.1235572 17.6227652,24.6967742 16.9230769,24.6967742 L16.9230769,24.6967742 Z M18.1516113,21.692219 C18.1786734,21.5576991 18.1923077,21.423595 18.1923077,21.2903226 C18.1923077,20.116444 17.2432768,19.1612903 16.0769231,19.1612903 C15.9664025,19.1612903 15.8565016,19.1706464 15.7455679,19.1897744 C15.3014198,18.3957536 14.4565054,17.883871 13.5384615,17.883871 C12.6051307,17.883871 11.7564979,18.397001 11.3135893,19.2097341 C11.2761982,19.2165952 11.2410795,19.2290701 11.2043081,19.2371787 L11.7742638,16.1806452 L18.6872746,16.1806452 L19.7982647,22.1419355 L18.6093938,22.1419355 C18.4809007,21.9720703 18.3294772,21.8188382 18.1516113,21.692219 Z M21.1538462,22.1419355 L20.658466,22.1419355 L19.3896484,15.3290323 L11.07189,15.3290323 L10.5769231,17.9861643 L10.5769231,16.8559476 L9.30769231,15.5785282 L9.30769231,14.9032258 C9.30769231,14.1990234 9.87723481,13.6258065 10.5769231,13.6258065 L19.8846154,13.6258065 C20.5843036,13.6258065 21.1538462,14.1990234 21.1538462,14.9032258 L21.1538462,22.1419355 Z" id="Shape" stroke="#98C03C" stroke-width="0.5"></path>
                <path d="M15.6538462,2.12903226 C15.6538462,2.36418222 15.4644118,2.55483871 15.2307692,2.55483871 C14.9971266,2.55483871 14.8076923,2.36418222 14.8076923,2.12903226 C14.8076923,1.8938823 14.9971266,1.70322581 15.2307692,1.70322581 C15.4644118,1.70322581 15.6538462,1.8938823 15.6538462,2.12903226 Z" id="Shape"></path>
                <polygon id="Shape" points="13.1153846 20.0129032 13.9615385 20.0129032 13.9615385 20.8645161 13.1153846 20.8645161"></polygon>
                <polygon id="Shape" points="12.2692308 21.716129 13.1153846 21.716129 13.1153846 22.5677419 12.2692308 22.5677419"></polygon>
                <polygon id="Shape" points="14.3846154 23.8451613 15.2307692 23.8451613 15.2307692 24.6967742 14.3846154 24.6967742"></polygon>
                <polygon id="Shape" points="13.9615385 22.1419355 14.8076923 22.1419355 14.8076923 22.9935484 13.9615385 22.9935484"></polygon>
                <polygon id="Shape" points="15.2307692 20.8645161 16.0769231 20.8645161 16.0769231 21.716129 15.2307692 21.716129"></polygon>
                <polygon id="Shape" points="16.0769231 22.9935484 16.9230769 22.9935484 16.9230769 23.8451613 16.0769231 23.8451613"></polygon>
            </g>
        </g>
    </g>
</svg>