<?xml version="1.0" encoding="utf-8"?>
<!-- Generator: Adobe Illustrator 22.1.0, SVG Export Plug-In . SVG Version: 6.00 Build 0)  -->
<svg version="1.1" xmlns="http://www.w3.org/2000/svg" xmlns:xlink="http://www.w3.org/1999/xlink" x="0px" y="0px"
	 viewBox="0 0 440.3 169.2" style="enable-background:new 0 0 440.3 169.2;" xml:space="preserve">
<style type="text/css">
	.st0{clip-path:url(#SVGID_2_);}
	.st1{opacity:0.5;fill:#AFDCC9;}
	.st2{fill:#AAD1D3;}
	.st3{fill:#FFFFFF;}
	.st4{fill:#AEAEAE;}
	.st5{fill:#3D3D3D;}
	.st6{fill:#248641;}
	.st7{fill:#AFBF37;}
	.st8{fill:#A7C1D1;}
	.st9{fill:#CEE4EE;}
	.st10{fill:#DEF2FD;}
	.st11{fill:#799DAD;}
	.st12{fill:#FCCA37;}
	.st13{fill:#0B2337;}
	.st14{fill:#92B0C6;}
	.st15{fill:#335769;}
	.st16{fill:#21628C;}
	.st17{fill:#EF4237;}
	.st18{fill:#0F3751;}
	.st19{fill:#7597B4;}
	.st20{opacity:0.5;}
	.st21{fill:#C4D9E6;}
	.st22{fill:#315463;}
	.st23{fill:#A7CFE4;}
	.st24{fill:#FFD160;}
	.st25{fill:#FFC627;}
	.st26{fill:#FFE095;}
	.st27{fill:#5C5C5C;}
	.st28{fill:#D3D3D3;}
	.st29{fill:#7D7D7D;}
	.st30{fill:#F05354;}
	.st31{fill:#6896CE;}
	.st32{fill:#E9A922;}
	.st33{fill:#FBB580;}
	.st34{fill:#006836;}
	.st35{fill:#005D32;}
	.st36{fill:#31312F;}
	.st37{fill:#333334;}
	.st38{fill:#282829;}
	.st39{fill:#EF3E4E;}
	.st40{fill:#989898;}
	.st41{fill:#FEE467;}
	.st42{fill:#FFDEAE;}
	.st43{fill:#713773;}
	.st44{clip-path:url(#SVGID_4_);}
	.st45{opacity:0.6;fill:#9D622D;}
	.st46{fill:#9D622D;}
	.st47{fill:#563622;}
	.st48{opacity:0.2;fill:#563622;}
	.st49{opacity:0.5;fill:#AB734B;}
	.st50{fill:#C6A861;}
	.st51{opacity:0.1;fill:#563622;}
	.st52{opacity:0.8;fill:#D4BA7E;}
	.st53{fill:#694328;}
	.st54{opacity:0.5;fill:#C6A861;}
	.st55{opacity:0.3;fill:#9D622D;}
	.st56{fill:#B67C3B;}
	.st57{opacity:0.1;fill:#9D622D;}
	.st58{fill:#C5944A;}
	.st59{fill:#86A9A9;}
	.st60{fill:#CAD7D6;}
	.st61{fill:#F15A41;}
	.st62{fill:#F47E6F;}
	.st63{fill:#ED4B24;}
	.st64{opacity:0.16;}
	.st65{fill:#FBB043;}
	.st66{fill:#F79326;}
	.st67{opacity:0.33;}
	.st68{fill:#D89655;}
	.st69{fill:#FDC375;}
	.st70{fill:#E5A66C;}
	.st71{fill:#178D8C;}
	.st72{fill:#46C1C4;}
	.st73{fill:#D23327;}
	.st74{opacity:0.34;}
	.st75{fill:#FDC375;stroke:#000000;stroke-width:0.5;stroke-miterlimit:10;}
	.st76{fill:#5D8986;}
	.st77{fill:#6F9998;}
	.st78{fill:#AACECC;}
	.st79{fill:#5278BC;}
	.st80{fill:#F26A55;}
	.st81{fill:#4471B7;}
	.st82{fill:#CD2927;}
	.st83{fill:none;stroke:#000000;stroke-width:0.5;stroke-miterlimit:10;}
	.st84{opacity:0.3;fill:none;stroke:#000000;stroke-width:0.5;stroke-miterlimit:10;}
	.st85{fill:#D89655;stroke:#000000;stroke-width:0.5;stroke-miterlimit:10;}
	.st86{fill:#E5A66C;stroke:#000000;stroke-width:0.5;stroke-miterlimit:10;}
	.st87{fill:#273339;}
	.st88{fill:#434343;}
	.st89{opacity:0.3;fill:#434343;}
	.st90{fill:#384850;}
	.st91{fill:#B0BEC5;}
	.st92{fill:#90A4AE;}
	.st93{opacity:0.3;fill:#4896A3;}
	.st94{fill:#D0D9DC;}
	.st95{fill:#FCB74E;}
	.st96{fill:#FAA32C;}
	.st97{fill:#2F160C;}
	.st98{opacity:0.3;fill:#0DBCD4;}
	.st99{opacity:0.3;fill:#384850;}
	.st100{opacity:0.3;fill:#05808A;}
	.st101{fill:#E1BF82;}
	.st102{opacity:0.4;fill:#E1BF82;}
	.st103{fill:#F4D3A8;}
	.st104{fill:#FFE8C8;}
	.st105{fill:#465B65;}
	.st106{fill:#E97924;}
	.st107{fill:#617D8C;}
	.st108{opacity:0.3;fill:#E97924;}
	.st109{fill:#F68B29;}
	.st110{opacity:0.5;fill:#E1BF82;}
	.st111{opacity:0.6;fill:#E1BF82;}
	.st112{fill:#D1A762;}
	.st113{clip-path:url(#SVGID_6_);}
	.st114{fill:#F8961D;}
	.st115{fill:#D02027;}
	.st116{fill:#010101;}
	.st117{fill:#F15622;}
	.st118{fill:#8ED3F5;}
	.st119{fill:#BD7148;}
	.st120{fill:#B4C1D1;}
	.st121{fill:#8495B0;}
	.st122{fill:#C9EBFC;}
	.st123{fill:#9E1C20;}
	.st124{opacity:0.4;fill:#5684C4;}
	.st125{fill:#FFDBA8;}
	.st126{fill:#E4C0AF;}
	.st127{fill:#873B1E;}
	.st128{fill:#232121;}
	.st129{fill:#00522A;}
	.st130{fill:#212121;}
	.st131{fill:#C0DEE1;}
	.st132{fill:#F89B35;}
	.st133{fill:#2B5263;}
	.st134{fill:#D8C9A9;stroke:#000000;stroke-width:0.25;stroke-miterlimit:10;}
	.st135{fill:#F6F0E0;stroke:#000000;stroke-width:0.25;stroke-miterlimit:10;}
	.st136{fill:#A49571;}
	.st137{fill:#CF7534;}
	.st138{fill:#43C2CC;}
	.st139{fill:#BABCBE;}
	.st140{fill:#E7E7E0;}
	.st141{fill:#47646B;}
	.st142{fill:#92C8E9;}
	.st143{fill:#5E9CC8;}
	.st144{fill:#D3223A;}
	.st145{fill:#3C80C2;}
	.st146{fill:#192F36;}
	.st147{fill:none;stroke:#000000;stroke-width:0.25;stroke-miterlimit:10;}
	.st148{fill:#2C5796;}
	.st149{opacity:0.2;}
	.st150{fill:#6BBE49;}
	.st151{fill:#D7BA2E;}
	.st152{fill:#B4A139;}
	.st153{fill:#B2C7CA;}
	.st154{fill:#EFBD9E;}
	.st155{fill:#E2A984;}
	.st156{fill:#96D7E3;}
	.st157{fill:#74BDCA;}
	.st158{fill:#F15F50;}
	.st159{fill:#EE5747;}
	.st160{fill:#E4CCB8;}
	.st161{fill:#E25E27;}
	.st162{fill:#B1BABF;}
	.st163{fill:#D5D8D8;}
	.st164{fill:#21BDC2;}
	.st165{fill:#16B5C0;}
	.st166{fill:#8B9E9F;}
	.st167{fill:#26465E;}
	.st168{fill:#335368;}
	.st169{fill:#EFEDEA;}
	.st170{fill:#E7E4E0;}
	.st171{fill:#D8D9D3;}
	.st172{fill:#FFFFFF;stroke:#000000;stroke-width:0.25;stroke-miterlimit:10;}
	.st173{fill:#DDDDDB;}
	.st174{fill:#948EA2;}
	.st175{fill:#B6BDCD;}
	.st176{fill:#ED1C24;}
	.st177{fill:#3A53A4;}
	.st178{fill:#778C8B;}
	.st179{fill:#649A9A;}
	.st180{fill:#557580;}
	.st181{fill:#45646C;}
	.st182{fill:#F38520;}
	.st183{fill:#E8BB4D;}
	.st184{clip-path:url(#SVGID_8_);}
	.st185{fill:#321D11;}
	.st186{fill:#744621;stroke:#000000;stroke-width:0.5;stroke-miterlimit:10;}
	.st187{fill:#EAA333;stroke:#000000;stroke-width:0.5;stroke-miterlimit:10;}
	.st188{fill:#522E16;}
	.st189{fill:#7A7E7F;}
	.st190{fill:#FFFFFF;stroke:#000000;stroke-width:0.5;stroke-miterlimit:10;}
	.st191{fill:#595D5D;stroke:#000000;stroke-width:0.5;stroke-miterlimit:10;}
	.st192{fill:#FBAD32;}
	.st193{fill:#595D5D;}
	.st194{fill:#84A14A;}
	.st195{fill:#484A4C;}
	.st196{fill:#35C5F1;}
	.st197{fill:#7AD1EC;}
	.st198{fill:#F05554;stroke:#000000;stroke-width:0.5;stroke-miterlimit:10;}
	.st199{opacity:0.2;fill:#FFFFFF;}
	.st200{fill:#35383A;}
	.st201{fill:#F05554;}
	.st202{opacity:0.56;fill:#5F2C30;stroke:#000000;stroke-width:0.5;stroke-miterlimit:10;}
	.st203{opacity:0.1;}
	.st204{fill:#818586;stroke:#000000;stroke-width:0.5;stroke-miterlimit:10;}
	.st205{fill:#B2A865;}
	.st206{fill:#674227;stroke:#000000;stroke-width:0.5;stroke-miterlimit:10;}
	.st207{fill:#DAD7C5;}
	.st208{fill:#B0A690;}
	.st209{fill:#DAD7C5;stroke:#000000;stroke-width:0.5;stroke-miterlimit:10;}
	.st210{fill:#BABCBE;stroke:#000000;stroke-width:0.5;stroke-miterlimit:10;}
	.st211{fill:#B0A690;stroke:#000000;stroke-width:0.5;stroke-miterlimit:10;}
	.st212{fill:#FBAD32;stroke:#000000;stroke-width:0.5;stroke-miterlimit:10;}
	.st213{fill:#674327;}
	.st214{fill:#84A14A;stroke:#000000;stroke-width:0.5;stroke-miterlimit:10;}
	.st215{fill:#E87F42;}
	.st216{fill:#503734;}
	.st217{fill:#6B5F64;}
	.st218{fill:#82807F;}
	.st219{fill:#96DAF8;}
	.st220{fill:#36BDD1;}
	.st221{fill:#BF4633;}
	.st222{fill:#EF7B48;}
	.st223{fill:#F9D4A4;}
	.st224{fill:#F7B995;}
	.st225{fill:#321210;}
	.st226{fill:#393143;}
</style>
<g id="electicals">
</g>
<g id="Carpentry">
</g>
<g id="lumbing">
	<g>
		<defs>
			<rect id="SVGID_5_" x="0" width="440.3" height="169.2"/>
		</defs>
		<clipPath id="SVGID_2_">
			<use xlink:href="#SVGID_5_"  style="overflow:visible;"/>
		</clipPath>
		<g class="st0">
			<g>
				<path class="st1" d="M293.5,104.6c0,2.3-1,4.1-2.2,4.1h-31.9c-1.2,0-2.2-1.8-2.2-4.1l0,0c0-2.3,1-4.1,2.2-4.1h31.9
					C292.5,100.5,293.5,102.3,293.5,104.6L293.5,104.6z"/>
				<path class="st1" d="M48.5,52c0,2.3-1.1,4.1-2.4,4.1h-34c-1.3,0-2.4-1.8-2.4-4.1l0,0c0-2.3,1.1-4.1,2.4-4.1h34
					C47.5,47.9,48.5,49.8,48.5,52L48.5,52z"/>
				<path class="st1" d="M78.4,112.8c0,2.3-1.3,4.1-3,4.1h-43c-1.6,0-3-1.8-3-4.1l0,0c0-2.3,1.3-4.1,3-4.1h43
					C77.1,108.7,78.4,110.5,78.4,112.8L78.4,112.8z"/>
				<path class="st1" d="M222.2,64.7c0,2.3-1,4.1-2.3,4.1h-33.7c-1.3,0-2.3-1.8-2.3-4.1l0,0c0-2.3,1-4.1,2.3-4.1h33.7
					C221.2,60.6,222.2,62.4,222.2,64.7L222.2,64.7z"/>
				<path class="st1" d="M427.2,38.6c0,2.3-1.1,4.1-2.4,4.1h-35.3c-1.4,0-2.4-1.8-2.4-4.1l0,0c0-2.3,1.1-4.1,2.4-4.1h35.3
					C426.1,34.5,427.2,36.3,427.2,38.6L427.2,38.6z"/>
			</g>
			<rect y="158.6" class="st2" width="441.4" height="10.6"/>
			<path class="st3" d="M170.2,0.6L170.2,0.6c0,1.3-1.1,2.3-2.4,2.3v0c1.3,0,2.3,1,2.3,2.3h0c0-1.3,1-2.3,2.3-2.3v0
				C171.2,2.9,170.2,1.9,170.2,0.6z"/>
			<g>
				<g>
					<path class="st114" d="M117.9,88.1H56.7v0c-5.5-0.2-9.9-4.7-9.9-10.2v-9.7h-2.3v9.7c0,6.9,5.6,12.6,12.6,12.6h19.7v0h41.2
						c1.5,0,2.7,1.2,2.7,2.7v16.5c-0.5,0-1.5,0-2.7-0.1v2.5c1,0,1.9,0,3,0c0,0,0,0,0,0c0.4,0,1.1-0.2,1.5-0.7
						c0.4-0.5,0.5-1.1,0.5-1.7V93.1C122.9,90.3,120.7,88.1,117.9,88.1z"/>
					<g>
						<g>
							<path class="st115" d="M147.6,112.4v-28c0-1.7-1.4-3.1-3.1-3.1l0,0H130v-1.6h14.5c2.6,0,4.7,2.1,4.7,4.7l0,0v28H147.6
								L147.6,112.4z"/>
							<path class="st114" d="M144.5,79.7H130v0.6h14c2.5,0,4.6,2,4.6,4.6v27.5l0.6,0v-28C149.1,81.8,147.1,79.7,144.5,79.7z"/>
						</g>
						<g>
							<path class="st115" d="M149.6,105.8c0,0.2-0.2,0.3-0.5,0.3h-1.5c-0.3,0-0.5-0.1-0.5-0.3v-2.3c0-0.2,0.2-0.3,0.5-0.3h1.5
								c0.3,0,0.5,0.1,0.5,0.3V105.8z"/>
							<g>
								<path class="st116" d="M148.9,123.8c0,0.4-0.3,0.7-0.6,0.7l0,0c-0.3,0-0.6-0.3-0.6-0.7l-0.2-1.4c0-0.4,0.5-0.7,0.8-0.7l0,0
									c0.3,0,0.8,0.3,0.8,0.7L148.9,123.8z"/>
								<path class="st117" d="M150.5,106c0,0.5-0.4,0.9-0.9,0.9h-2.5c-0.5,0-0.9-0.4-0.9-0.9l0,0c0-0.5,0.4-0.9,0.9-0.9h2.5
									C150.1,105.1,150.5,105.5,150.5,106L150.5,106z"/>
								<g>
									<path class="st117" d="M155.8,120c0,1.6-1.5,2.8-3.3,2.8h-8.1c-1.8,0-3.3-1.3-3.3-2.8v-10.6c0-1.5,1.5-2.8,3.3-2.8h8.1
										c1.8,0,3.3,1.3,3.3,2.8V120z"/>
									<g>
										<path class="st114" d="M155.8,120v-10.6c0-1.5-1.5-2.8-3.3-2.8h-5.6v16.2h5.6C154.3,122.8,155.8,121.5,155.8,120z"/>
									</g>
									<g>
										<rect x="140.9" y="111" class="st117" width="14.8" height="0.7"/>
										<rect x="140.9" y="110.6" class="st114" width="14.8" height="0.7"/>
									</g>
								</g>
							</g>
						</g>
					</g>
					<path class="st118" d="M121.3,156.1c0-1.4,1.1-2.5,2.5-2.5c1.4,0,2.5,1.1,2.5,2.5c0,1.4-1.1,2.5-2.5,2.5
						C122.4,158.6,121.3,157.5,121.3,156.1z"/>
					<path class="st117" d="M129.1,124.3V77.3c0-1.5-1.2-2.7-2.7-2.7l0,0H66.6v-2.3h59.8c2.8,0,5.1,2.3,5.1,5.1l0,0l0,46.9H129.1
						L129.1,124.3z"/>
					<path class="st115" d="M123.1,156.9v-1.6h3.3c1.7,0,3.1-1.4,3.1-3.1l0,0l0-26.5h1.6v26.5c0,2.6-2.1,4.7-4.7,4.7l0,0H123.1
						L123.1,156.9z"/>
					<g>
						<path class="st119" d="M139.5,81.4c0,0.2-0.1,0.3-0.2,0.3h-3.1c-0.1,0-0.2-0.1-0.2-0.3v-1.6c0-0.2,0.1-0.3,0.2-0.3h3.1
							c0.1,0,0.2,0.1,0.2,0.3V81.4z"/>
						<g>
							<path class="st120" d="M138.1,81.9c0,0.1-0.1,0.2-0.2,0.2h-0.4c-0.1,0-0.2-0.1-0.2-0.2v-1.8c0-0.1,0.1-0.2,0.2-0.2h0.4
								c0.1,0,0.2,0.1,0.2,0.2V81.9z"/>
							<path class="st121" d="M138,82.1l-0.6,0.3l-0.2-0.3c0,0,0.2-0.3,0.3-0.3c0.1,0,0.4,0,0.5,0.1C138.1,82,138,82.1,138,82.1z"/>
							<path class="st115" d="M137.7,83.5c0,0.2-0.1,0.3-0.3,0.3l0,0c-0.2,0-0.3-0.1-0.3-0.3V82c0-0.2,0.1-0.3,0.3-0.3l0,0
								c0.2,0,0.3,0.1,0.3,0.3V83.5z"/>
						</g>
					</g>
					<path class="st122" d="M101.2,139.1v-5.2c0-2.8,2.3-5.1,5.1-5.1l0,0h1.5v2.3h-1.5c-1.5,0-2.7,1.2-2.7,2.7l0,0v5.2
						c0,1.5,1.2,2.7,2.7,2.7l0,0v2.3C103.4,144.2,101.2,141.9,101.2,139.1L101.2,139.1z"/>
					<path class="st114" d="M109.4,150.4v-3.6c0-1.8-1.5-3.3-3.3-3.3l0,0v-1.2c2.5,0,4.5,2,4.5,4.5l0,0l0,3.6H109.4L109.4,150.4z"/>
					<g>
						<path class="st123" d="M101.4,140c0-0.8,0.6-1.4,1.4-1.4s1.4,0.6,1.4,1.4c0,0.8-0.6,1.4-1.4,1.4S101.4,140.8,101.4,140z"/>
						<path class="st115" d="M102,140c0-0.4,0.4-0.8,0.8-0.8c0.4,0,0.8,0.4,0.8,0.8c0,0.5-0.4,0.8-0.8,0.8
							C102.4,140.8,102,140.4,102,140z"/>
					</g>
					<path class="st115" d="M123.1,155.6v-3.5c0-1.8-1.5-3.3-3.3-3.3l0,0h-9.3v-1.2h9.3c2.5,0,4.5,2,4.5,4.5l0,0v3.5H123.1
						L123.1,155.6z"/>
					<g>
						<rect x="104.1" y="153.5" class="st119" width="1.2" height="1"/>
						<path class="st114" d="M105.3,155.1c0,0,0-0.3,0-0.3l-1.2,0c0,0.4,0.1,0.7-0.1,1.1c-0.1,0.3-0.4,0.3-0.6,0.3h-1.6
							c-0.9,0-1.6,0.7-1.6,1.6c0,0,0,0.1,0,0.1c0.3,0.1,0.5,0.1,0.9,0.1c0.1-0.6,0.3-0.9,1.5-0.9h1.7
							C105.3,157.1,105.5,155.9,105.3,155.1z"/>
						<path class="st119" d="M105.7,154.7c0,0.2-0.2,0.4-0.5,0.4h-1c-0.2,0-0.5-0.2-0.5-0.4l0,0c0-0.2,0.2-0.5,0.5-0.5h1
							C105.5,154.2,105.7,154.4,105.7,154.7L105.7,154.7z"/>
						<g>
							<g>
								<path class="st122" d="M106.4,153.6c0.2,0.2,0.2,0.5-0.1,0.7c-0.3,0.1-0.6,0.1-0.8-0.2c-0.2-0.2-0.1-0.5,0.1-0.6
									C105.9,153.3,106.2,153.4,106.4,153.6z"/>
								<path class="st122" d="M104.1,154.7c0.2,0.3,0.1,0.7-0.2,0.9c-0.3,0.2-0.7,0.1-0.9-0.2c-0.2-0.3-0.1-0.7,0.2-0.8
									C103.5,154.3,103.9,154.4,104.1,154.7z"/>
								<path class="st122" d="M106.1,153.7c0.1,0.1-0.5,0.5-1.3,0.9c-0.8,0.4-1.5,0.6-1.6,0.4c-0.1-0.1,0.5-0.5,1.3-0.9
									C105.3,153.8,106,153.6,106.1,153.7z"/>
							</g>
							<g>
								<path class="st118" d="M106.9,155.4c-0.2,0.3-0.6,0.4-1,0.2c-0.4-0.2-0.5-0.6-0.4-0.9c0.2-0.3,0.6-0.4,0.9-0.2
									C106.9,154.7,107.1,155.1,106.9,155.4z"/>
								<path class="st118" d="M103.9,154.1c-0.2,0.2-0.5,0.3-0.8,0.2c-0.3-0.1-0.3-0.4-0.2-0.7c0.1-0.2,0.5-0.3,0.7-0.2
									C103.9,153.5,104,153.8,103.9,154.1z"/>
								<path class="st118" d="M106.4,155.2c-0.1,0.1-0.9-0.1-1.7-0.5c-0.8-0.4-1.4-0.8-1.3-0.9c0.1-0.1,0.8,0.1,1.6,0.5
									C105.7,154.6,106.4,155,106.4,155.2z"/>
							</g>
						</g>
						<path class="st114" d="M110.5,149.2l-3.6,0c-1,0-1.8,0.3-2.3,0.9c-0.5,0.7-0.5,1.4-0.5,2.4c0,0.4,0,0.7,0,1.2l0,0
							c0.1,0,0.3,0.1,0.6,0.1c0.3,0,0.6-0.1,0.6-0.1c0,0,0,0,0,0l0,0c0-0.4,0-0.8,0-1.1c0-0.9,0.1-1.4,0.3-1.6
							c0.2-0.2,0.4-0.4,1.3-0.4l3.6,0L110.5,149.2z"/>
					</g>
					<path class="st117" d="M149.2,0v55.6c0,1.2-0.5,2.5-1.3,3.4c-0.8,0.9-1.9,1.5-2.9,1.5v0.1H65.2c-3.6,0-6.6,2.9-6.6,6.6v0.9
						c0,3.6,2.9,6.6,6.6,6.6h28.3v-2.3H65.2c-2.3,0-4.2-1.9-4.3-4.3v-0.9c0-2.3,1.9-4.2,4.3-4.3h80v-0.1c3.7-0.2,6.3-3.7,6.3-7.2V0
						H149.2z"/>
					<g>
						<path class="st118" d="M143,60.4l-1-1.3l-2.4-0.3c-1.2,0.1-2.2,0.9-2.7,1.9l-0.4,2.7l0.5,0.7c1.1,1.4,2.1,1.6,3,1.6
							c1.9,0,3.5-1.6,3.5-3.5C143.6,61.6,143.4,61,143,60.4z"/>
						<path class="st118" d="M138,60.1h-3.5c-0.2,0-0.4,0.2-0.4,0.4v2.3c-0.3,0.1-0.6,0.1-0.6,0.2c0,0.1,0.7,1,0.7,1h0
							c0.1,0.1,0.2,0.1,0.3,0.1h3.5c0.2,0,0.4-0.2,0.4-0.4v-3.3C138.4,60.3,138.2,60.1,138,60.1z"/>
						<path class="st122" d="M137.9,62.9c0,0.2-0.2,0.4-0.4,0.4H134c-0.2,0-0.4-0.2-0.4-0.4v-3.3c0-0.2,0.2-0.4,0.4-0.4h3.5
							c0.2,0,0.4,0.2,0.4,0.4V62.9z"/>
						<g>
							<path class="st122" d="M135.7,61.3c0-2,1.6-3.6,3.6-3.6c2,0,3.6,1.6,3.6,3.6c0,2-1.6,3.6-3.6,3.6
								C137.3,64.9,135.7,63.3,135.7,61.3z"/>
							<path class="st124" d="M139.3,58.4c-1.6,0-2.9,1.3-2.9,2.9c0,1.6,1.3,2.9,2.9,2.9c1.6,0,2.9-1.3,2.9-2.9
								C142.2,59.7,140.9,58.4,139.3,58.4z M139.3,63.5c-1.2,0-2.2-1-2.2-2.2c0-1.2,1-2.2,2.2-2.2c1.2,0,2.2,1,2.2,2.2
								C141.5,62.5,140.5,63.5,139.3,63.5z"/>
						</g>
					</g>
					<g>
						<path class="st122" d="M69.9,74.6c0,0.2-0.1,0.4-0.3,0.4h-4.1c-0.2,0-0.3-0.2-0.3-0.4v-2.2c0-0.2,0.1-0.4,0.3-0.4h4.1
							c0.2,0,0.3,0.2,0.3,0.4V74.6z"/>
						<g>
							<path class="st118" d="M68.1,75.3c0,0.2-0.1,0.3-0.3,0.3h-0.5c-0.2,0-0.3-0.1-0.3-0.3v-2.4c0-0.2,0.1-0.3,0.3-0.3h0.5
								c0.2,0,0.3,0.1,0.3,0.3V75.3z"/>
							<path class="st121" d="M67.9,75.6L67.1,76l-0.3-0.4c0,0,0.3-0.3,0.4-0.3c0.1,0,0.6,0,0.7,0.1C68,75.4,67.9,75.6,67.9,75.6z"
								/>
							<path class="st114" d="M67.5,77.5c0,0.2-0.2,0.4-0.4,0.4l0,0c-0.2,0-0.4-0.2-0.4-0.4v-2.1c0-0.2,0.2-0.4,0.4-0.4l0,0
								c0.2,0,0.4,0.2,0.4,0.4V77.5z"/>
						</g>
					</g>
					<g>
						<path class="st122" d="M77.7,62.8c0,0.2-0.1,0.4-0.3,0.4h-4.1c-0.2,0-0.3-0.2-0.3-0.4v-2.2c0-0.2,0.1-0.4,0.3-0.4h4.1
							c0.2,0,0.3,0.2,0.3,0.4V62.8z"/>
						<g>
							<path class="st122" d="M74.8,59.7c0,0,0.1-0.6,0.3-0.6c0.2,0,0.5,0,0.5,0s0.4,0.6,0.2,0.7C75.7,59.9,74.8,59.7,74.8,59.7z"/>
							<g>
								<path class="st118" d="M74.7,59.7c0-0.2,0.1-0.3,0.3-0.3h0.5c0.2,0,0.3,0.1,0.3,0.3v2.4c0,0.2-0.1,0.3-0.3,0.3H75
									c-0.2,0-0.3-0.1-0.3-0.3V59.7z"/>
								<path class="st114" d="M74.9,56.8c0-0.2,0.2-0.4,0.4-0.4l0,0c0.2,0,0.4,0.2,0.4,0.4v2.1c0,0.2-0.2,0.4-0.4,0.4l0,0
									c-0.2,0-0.4-0.2-0.4-0.4V56.8z"/>
							</g>
						</g>
					</g>
					<g>
						<path class="st125" d="M100.3,132.4c0.5,0.1,1,0.5,1.6,0.4c1.7-0.2,2.6,0.2,2.7,0.1c0.9-1-1.8-1.1-1.2-2.1
							c0.5-0.4,1-1.2,1.2-1.3c0.4-0.3,1.8-0.5,1.9-0.6c0.1-0.4-1.9-0.8-3-0.3c-1.9,0.7-3.7,1.3-3.7,1.3L100.3,132.4z"/>
						<path class="st35" d="M85,121.7c1.5,1.5,5.5,6.9,8.1,8.4c0.8,0.4,7.5-0.5,7.5-0.5l-0.2,5.1c0,0-6.9,1.6-8.5,1.4
							c-2.5-0.3-12.2-5.8-12.2-5.8L85,121.7z"/>
						<g>
							<path class="st126" d="M85.4,116.9c-0.5,1-1.3,1.8-2.5,3.1c-2.6,2.6-2.6,3.1-2.6,3.1l4.2,4.2c0,0,3.5-3.9,5-4.2
								C90.8,122.8,85.4,116.9,85.4,116.9z"/>
							<path class="st126" d="M94.6,121.1c-0.1-0.6,0.4-2.2,0.4-2.6c0,0,0,0,0,0c0.9-0.7,1.8-2.2,1.8-4c0-0.1-0.5-0.2-0.7-0.5
								c-0.6-3-7.7-6.5-10.1-2.5c-4.4,7.4,2.4,11.6,4,12.6c0.3,0.2,1,0.3,1.9-1.1c0.6-0.5,1-0.8,1.4-1.3c0.5,0.1,1,0,1.2-0.3
								C94.6,121.2,94.6,121.1,94.6,121.1z"/>
							<path class="st127" d="M88.5,109.1c1-0.3,2-1.4,4.2,0.1c1.9,1.3,4.3,2.5,4.4,4.6c0.1,2,1.6,2.2,1.6,2.2s-0.6,1.2-1.9,1
								c-0.6-0.1-2.3-2-3.4-1.4c-0.9,0.4-2.1,0.5-2.1,0.5s-2.3,0.1-2.6,0.7c-0.1,0.2-1.4,1.5-2.1,1.8c-1.3,0.5-3.4,0.1-3.4,0.1
								s0.8-1.4,1.4-4.7C85.2,109.9,87.1,109.4,88.5,109.1z"/>
							<path class="st126" d="M90.7,116c1.1-1.6-1.1-1.6-1.3-1.1c-0.3,0.6-1.5,1.8-0.9,2.7C89.1,118.4,90.7,116,90.7,116z"/>
						</g>
						<path class="st116" d="M78.8,158c-0.3,1.9-0.5,4.4,0.9,4.4c1.4,0,1.9-0.9,3.9-0.5c1.9,0.4,7.5,1.4,7.5,0c0-1.4-0.9-2-1.9-2.1
							c-2.4-0.3-4.4-4.1-5.3-3.9C82.7,156.2,78.8,158,78.8,158z"/>
						<path class="st116" d="M95.5,141.6c0,0.7-0.2,1.4-0.4,2c-0.1,0.3-0.2,0.5-0.3,0.8c-0.2,0.5-0.4,1-0.7,1.4
							c-0.5,1-1,1.9-1.5,2.9c-0.1,0.1-0.1,0.3-0.2,0.4c-0.1,0.2-0.2,0.4-0.3,0.6c-1.4,3.8-2.3,8.8-2.7,9.4c-0.1,0.2-0.6,0.3-1.2,0.4
							c-1.2,0.2-2.9,0.3-4.5,0.2c-1.8,0-3.3-0.2-3.5-0.5c-0.2-0.3-0.3-0.7-0.4-1c0,0,0,0,0,0c0-0.2-0.1-0.4-0.1-0.6
							c0-0.2,0-0.3,0-0.5c0-0.3,0-0.5,0-0.8c0.2-2,1-4.5,2-6.6c0.8-1.9,1.8-3.5,2.4-4.2c0.7-0.7-1,0.9-2.9,2.4
							c-0.5,0.4-1.1,0.9-1.6,1.2c-0.6,0.5-1.2,0.8-1.6,0.9l0.1-4.6v-0.1l1.4,0.6l1.1,0.5c0,0,0,0,0,0l2-7.2
							c-0.1-0.2-0.3-0.3-0.3-0.5c-0.1-0.1-0.2-0.3-0.3-0.4c-0.2-0.3-0.4-0.6-0.6-1c-0.1-0.1-0.1-0.2-0.2-0.3c0.1,0,0.2,0,0.3,0
							c0.4,0,0.9,0,1.3-0.1c0.1,0,0.3,0,0.4,0c2.3-0.1,5-0.2,7.2-0.1c2.1,0.1,3.7,0.5,4.1,1.2C95.3,139.4,95.6,140.5,95.5,141.6z"/>
						<path class="st118" d="M74.1,143.5l3.8,1.7c0,0,0,0,0,0.1c-0.3,0.5-0.4,0.8-0.5,1.1c-0.5,0-1.7-0.8-3-1.9
							c-0.5-0.4-1-0.9-1.6-1.4c-0.1-0.1-0.3-0.2-0.4-0.4L74.1,143.5z"/>
						<path class="st35" d="M86.8,127.3c0,0.8-0.2,1.8-0.5,2.7c-0.3,1-0.7,2-1.2,3.1c-0.4,0.9-0.8,1.7-1.3,2.6
							c-0.3,0.5-0.5,0.9-0.8,1.3c-0.3,0.5-0.5,0.9-0.8,1.4c-0.2-0.3-0.4-0.6-0.6-1c-0.1-0.1-0.1-0.2-0.2-0.3
							c-0.7-1.1-1.3-2.4-1.9-3.6c0-0.1-0.1-0.2-0.1-0.3c-1.4-0.6-2.7-2.5-3-7.1c-0.7,0.9-1.5,2.1-2.3,3.6c-1.3,2.4-2.3,0.1-2.3,0.1
							c0.2-1.1,1.7-3,3.4-4.7c-0.5,0-1.1,0.1-1.4,0.1c4-5.3,7.6-5.7,9-6c0,0,0.1,0.2,0.4,0.5c0.4,0.5,1,1.4,1.6,2.3
							c0.6,1,1.3,2.2,1.6,3.2C86.6,126,86.8,126.7,86.8,127.3z"/>
						<path class="st128" d="M61.1,153.5c-1.6-1.4-2.5-2.5-4.2-2.3c-1.8,0.2-2.2,1.2-2.2,2.6c0,1.4-0.6,3.7-0.5,5.3
							c0.1,1.2,1.2,3.8,5.2,3.2c2.6-0.4-0.4-2.4-0.7-3.8C58.4,157.1,61.1,153.5,61.1,153.5z"/>
						<path class="st35" d="M74,142.8c0,0.1,0,0.4,0.1,0.7l-1.7-0.7L66,140c1-4.3,3.5-9.5,7.4-14.8c0,0,0.1-0.1,0.3-0.1
							c0.3-0.1,0.9-0.1,1.4-0.1c-1.7,1.7-3.2,3.7-3.4,4.7c0,0,0.9,2.3,2.3-0.1c0.8-1.4,1.6-2.6,2.3-3.6c0.2,4.6,1.5,6.5,3,7.1
							c0,0.1,0.1,0.2,0.1,0.3c-0.6-0.1-1.2-0.3-1.7-0.6C77,134.2,74.5,141,74,142.8z"/>
						<path class="st35" d="M71.8,129.7c0.2-1.1,1.7-3,3.4-4.7c0.6,0,1.1,0,1.1,0.1c0,0.3,0,0.7,0,1c-0.7,0.9-1.5,2.1-2.3,3.6
							C72.7,132,71.8,129.7,71.8,129.7z"/>
						<path class="st116" d="M79.9,158.6c0.1,1.8,0,3-0.1,3.8c-0.4,2-1.5,1.1-3.9,1.1c-2,0-12.7-1.9-16.8-4.2c0,0,0,0-0.1,0
							c-0.7-0.4-1-1.8-1-3.4c0-1.6,0.3-3.4,0.8-4.2c0.2-0.3,0.5-0.5,0.8-0.4c4.7,1.2,8.7,2.2,9.9,2.4c0.9,0.2,1.7,0.5,2.1,0.7
							c-1-0.6-3.9-2.8-5.4-6c-0.9-2-1-4.9-0.2-8.3l6.3,2.8l1.7,0.7l3.8,1.7l0.4,0.2l1.4,0.6v0c0,0.9,0,1.9,0,3.1
							c0,2.2,0.1,4.7,0.1,7.2c0,0.4,0,0.8,0,1.2v0.1c0,0.2,0,0.4,0,0.7c0,0,0,0,0,0v0C79.9,158.3,79.9,158.5,79.9,158.6z"/>
						<path class="st116" d="M83,132.8l-0.2,0.6l-1.1,3.7l-0.1,0.3c-0.1-0.1-0.1-0.2-0.2-0.3c-0.7-1.1-1.3-2.4-1.9-3.6
							c0-0.1-0.1-0.2-0.1-0.3C81.1,134,83,132.8,83,132.8z"/>
						<g>
							<path class="st129" d="M82.8,139.3l-2,7.2c0,0,0,0,0,0c0,0-0.1,0-0.1,0l-1-0.4l-1.4-0.6l-0.4-0.2l-3.8-1.7
								c-0.1-0.3-0.1-0.5-0.1-0.7c0.4-1.8,3-8.6,3.7-10c0.5,0.3,1.1,0.5,1.7,0.6c0.6,1.3,1.3,2.5,1.9,3.6c0.1,0.1,0.1,0.2,0.2,0.3
								c0.2,0.3,0.4,0.7,0.6,1c0.1,0.1,0.2,0.3,0.3,0.4C82.5,138.9,82.7,139.1,82.8,139.3z"/>
							<path class="st130" d="M81.4,137.1c-0.7-1.1-1.3-2.4-1.9-3.6c1.2,0.2,2.4,0.1,3.3,0c0.2,0,0.3-0.1,0.5-0.1
								c0.2,0,0.4-0.1,0.5-0.1c0.4-0.1,0.7-0.2,0.7-0.2l-0.7,2.7l-0.4,1.3l-0.6,2.3c-0.1-0.2-0.3-0.3-0.3-0.5
								c-0.1-0.1-0.2-0.3-0.3-0.4c-0.2-0.3-0.4-0.6-0.6-1C81.5,137.3,81.4,137.2,81.4,137.1z"/>
							<path class="st130" d="M83.7,158.4c0.1,0.5,0.1,0.9,0.1,1.4c0,0.9-0.1,1.6-0.4,2.1c-0.9,2.1-3.5,2.3-5.9,2.3
								c-3.2,0-9.4-0.9-17-2.5c-0.4-0.1-0.8-0.2-1.3-0.3c-0.6-0.1-1.6-4.5-1.2-5.5c0-0.1,0.1-0.1,0.1-0.2c0.3,0.2,0.7,0.3,1.2,0.5
								c4.3,1.7,14.6,4,19,3.3c0.1,0,0.1,0,0.2-0.1c0.8-0.2,1.2-0.6,1.3-1.2v0c0-0.2,0-0.4,0-0.7c0,0,0-0.1,0-0.1
								c0-0.1,0-0.3-0.1-0.4c-0.4-1.6-1.6-3.7-2.5-5.9c-0.9-2-2.2-4.8-2.9-6.7c-0.1-0.3-0.2-0.6-0.3-0.8c0-0.1,0-0.1,0-0.2l3.8,1.7
								l0.4,0.2l1.4,0.6l1.1,0.5c0,0,0,0,0,0s0.2,0.5,0.5,1.4c0.1,0.5,0.3,1.1,0.5,1.8c0.4,1.5,0.9,3.7,1.5,6.5
								C83.4,156.8,83.6,157.6,83.7,158.4z"/>
						</g>
						<g>
							<g>
								<g>
									<path class="st116" d="M100,140.1c0.1-0.1,0.5-0.5,0.7-1.2c0.2-0.6,0.9-0.9,1.6-0.7c0.6,0.1,1.4,0.6,1.3,0.8
										c-0.1,0.2-0.9,0-1.1,0.2c-0.4,0.3-0.2,1.1-0.2,1.1l0.6,1.7c0,0-0.7,0.3-1.2,0.2c-0.3-0.1-1.2,0.2-1.3,0.3
										C100.4,142.5,100,140.1,100,140.1z"/>
									<path class="st116" d="M102.8,141.6c0.4,0,1.2-1.3,1.1-1.6c-0.8,0.1-2.3,0.6-2.3,0.6L102.8,141.6z"/>
								</g>
								<path class="st130" d="M102.9,141.6c0.4-0.1,1-1.3,1-1.5c-0.4,0.1-1,0.3-1.4,0.4c0,0-0.4-1,0-1.2c0.2-0.2,1.1-0.1,1.2-0.3
									c0.1-0.1-0.6-0.5-1.1-0.6c-0.6-0.1-1.2,0.2-1.4,0.8c-0.5,1-0.8,1.4-1.2,1.6c0,0,0.6,1.8,0.7,1.7c0.1-0.1,1-0.3,1.3-0.2
									c0.5,0.1,1.1-0.2,1.1-0.2L102.9,141.6z"/>
								<path class="st116" d="M100,141.2c0.2-0.2,0.7-0.5,0.7-0.5s0.7-0.1,0.8,0c0,0.1,0.2,0.6,0.4,1c0,0.1-0.7,0-0.8,0
									c-0.1,0-0.8,0.5-0.8,0.5L100,141.2z"/>
							</g>
							<g>
								<path class="st123" d="M100.2,140l-9,6.6c-0.5,0.4-0.3,1.5,0,2.1c0.4,0.5,1.2,0.7,1.8,0.3l8-6.5L100.2,140z M92.7,148
									c-0.2,0.1-0.4,0.1-0.6-0.1c-0.1-0.2-0.1-0.4,0.1-0.6c0.2-0.1,0.4-0.1,0.6,0.1C92.9,147.6,92.8,147.8,92.7,148z"/>
								<path class="st115" d="M100.3,140.4l-8.8,6.4c-0.3,0.2-0.1,1.1,0.1,1.4c0.3,0.3,0.9,0.6,1.2,0.3l8-6.4L100.3,140.4z
									 M92.7,148c-0.2,0.1-0.4,0.1-0.6-0.1c-0.1-0.2-0.1-0.4,0.1-0.6c0.2-0.1,0.4-0.1,0.6,0.1C92.9,147.6,92.8,147.8,92.7,148z"/>
							</g>
						</g>
						<g>
							<path class="st125" d="M93.7,142c0.7-0.1,3.9-1.2,4.2-0.9c0.3,0.3-0.1,0.6-0.6,0.9c-0.5,0.4-0.2,0.3-0.2,0.3s1.1,0.4,2.5,1.3
								c0.7,0.5,0.9,1.4-0.4,0.8c0.5,0.5,0.7,1.3-0.3,1c0.4,0.5,0.3,1-0.6,0.8c0.3,0.2,0.2,0.6-0.3,0.7c-0.3,0-1.5,0.2-3.1-0.8
								c-1.5-0.9-2.7-1.5-2.7-1.5L93.7,142z"/>
						</g>
						<path class="st35" d="M95.3,141.7l-2.4,3.4l-0.2,0.3l-0.8,1.1l-0.1,0.1c0,0,0,0,0,0c-0.1,0-0.2-0.1-0.4-0.3
							c-1.5-1-6.7-4.7-8.7-7.1c-0.1-0.2-0.3-0.3-0.3-0.5c-0.1-0.1-0.2-0.3-0.3-0.4c-0.2-0.3-0.4-0.6-0.6-1c-0.1-0.1-0.1-0.2-0.2-0.3
							c-0.7-1.1-1.3-2.4-1.9-3.6c0-0.1-0.1-0.2-0.1-0.3c-0.8-1.8-1.5-3.5-1.8-4.8c0,0-0.4-1.9-0.3-3.4c0.1-0.5,0.2-0.9,0.4-1.2
							c0.6-0.8,1.9-1.7,3.3-1.7c0.7,0,1.4,0.3,2,0.8c0,0,0,0,0,0c0.3,0.2,0.5,0.5,0.8,0.8c0.1,0.2,0.3,0.4,0.4,0.6
							c0,0,0,0.1,0.1,0.1c0,0,0,0,0,0c0.3,0.5,0.6,1.2,0.9,2.1c0.2,0.6,0.5,1.2,0.7,1.9v0c0.2,0.5,0.4,1,0.5,1.5
							c0.4,1.1,0.9,2.2,1.3,3.1c0.3,0.5,0.7,1.2,1.3,1.9c0.5,0.6,1.1,1.3,1.7,2C92.6,139.1,94.9,141.3,95.3,141.7
							C95.3,141.7,95.3,141.7,95.3,141.7z"/>
					</g>
				</g>
				<g>
					<path class="st131" d="M171.6,49.1l32.1,24c-0.2,2.5-0.6,4.9-1.3,7.1L167.8,54C168.9,52.2,170.2,50.6,171.6,49.1z"/>
					<path class="st2" d="M183.7,43.7c11.1,0,20.1,11.9,20.1,26.7c0,0.9,0,1.8-0.1,2.7l-32.1-24C174.9,45.8,179.1,43.7,183.7,43.7z"
						/>
					<path class="st131" d="M180.5,85.3l-16.8-12.2c-0.1-0.9-0.1-1.8-0.1-2.8c0-2.3,0.2-4.5,0.6-6.6L199.4,87
						c-2.2,3.6-5.1,6.5-8.4,8.3l-20.5-12.6L180.5,85.3z"/>
					<path class="st2" d="M180.5,85.3l-9.9-2.7l20.5,12.6c-2.3,1.2-4.8,1.9-7.4,1.9c-10.4,0-18.9-10.5-20-23.9L180.5,85.3z"/>
					<path class="st2" d="M167.8,54l34.5,26.2c-0.7,2.5-1.7,4.8-3,6.8l-35.2-23.2C164.9,60.2,166.2,56.9,167.8,54z"/>
				</g>
				<path class="st132" d="M346.8,119.8h-3.1V68.9c-0.1-12.9-28-14.6-28-5.7v4.9h-3.1v-4.5c0-13.9,34.3-11.1,34.3,5.3V119.8
					L346.8,119.8z"/>
				<path class="st132" d="M313.8,66.3c-7.3,0-13.3,4.3-13.3,9.6h26.6C327.1,70.6,321.2,66.3,313.8,66.3L313.8,66.3z"/>
				<polygon class="st133" points="272.1,168.3 269.1,166.8 272.6,158 277,160.2 272.1,168.3 				"/>
				<path class="st133" d="M272.8,168.7c-0.6,1.2-2.1,1.7-3.3,1.1c-1.2-0.6-1.7-2.1-1.1-3.3c0.6-1.2,2.1-1.7,3.3-1.1
					C272.9,166,273.4,167.5,272.8,168.7L272.8,168.7z"/>
				<polygon class="st133" points="329.9,168.3 332.9,166.8 329.4,158 325,160.2 329.9,168.3 				"/>
				<path class="st133" d="M329.2,168.7c0.6,1.2,2.1,1.7,3.3,1.1c1.2-0.6,1.7-2.1,1.1-3.3c-0.6-1.2-2.1-1.7-3.3-1.1
					C329.1,166,328.6,167.5,329.2,168.7L329.2,168.7z"/>
				<path class="st134" d="M356.6,123.1c0,24.9-21.7,41.4-46,41.4h-19.3c-24.1,0-46-16.4-46-41.4H356.6L356.6,123.1z"/>
				<path class="st135" d="M359.4,123.1H242.7c-1.9,0-3.4-1.5-3.4-3.4l0,0c0-1.9,1.5-3.4,3.4-3.4h116.7c1.9,0,3.4,1.5,3.4,3.4l0,0
					C362.7,121.6,361.2,123.1,359.4,123.1L359.4,123.1z"/>
				<path class="st136" d="M356.6,123.1c0,0.8,0,1.7-0.1,2.5H245.5c-0.1-0.8-0.1-1.6-0.1-2.5H356.6L356.6,123.1z"/>
				<polygon class="st137" points="303,77.6 300.5,77.6 300.5,75.9 303,75.9 303,77.6 				"/>
				<polygon class="st137" points="307,77.6 304.6,77.6 304.6,75.9 307,75.9 307,77.6 				"/>
				<polygon class="st137" points="311,77.6 308.6,77.6 308.6,75.9 311,75.9 311,77.6 				"/>
				<polygon class="st137" points="315.1,77.6 312.6,77.6 312.6,75.9 315.1,75.9 315.1,77.6 				"/>
				<polygon class="st137" points="319.1,77.6 316.6,77.6 316.6,75.9 319.1,75.9 319.1,77.6 				"/>
				<polygon class="st137" points="323.1,77.6 320.6,77.6 320.6,75.9 323.1,75.9 323.1,77.6 				"/>
				<polygon class="st137" points="327.1,77.6 324.7,77.6 324.7,75.9 327.1,75.9 327.1,77.6 				"/>
				<polygon class="st138" points="303,116.4 300.5,116.4 300.5,77.6 303,77.6 303,116.4 				"/>
				<polygon class="st138" points="307,116.4 304.6,116.4 304.6,77.6 307,77.6 307,116.4 				"/>
				<polygon class="st138" points="311,116.4 308.6,116.4 308.6,77.6 311,77.6 311,116.4 				"/>
				<polygon class="st138" points="315.1,116.4 312.6,116.4 312.6,77.6 315.1,77.6 315.1,116.4 				"/>
				<polygon class="st138" points="319.1,116.4 316.6,116.4 316.6,77.6 319.1,77.6 319.1,116.4 				"/>
				<polygon class="st138" points="323.1,116.4 320.6,116.4 320.6,77.6 323.1,77.6 323.1,116.4 				"/>
				<polygon class="st138" points="327.1,116.4 324.7,116.4 324.7,77.6 327.1,77.6 327.1,116.4 				"/>
				<path class="st136" d="M404.1,25.8H221.5c-1,0-1.8-0.8-1.8-1.8l0,0c0-1,0.8-1.8,1.8-1.8h182.6c1,0,1.8,0.8,1.8,1.8l0,0
					C405.9,25,405.1,25.8,404.1,25.8L404.1,25.8z"/>
				<path class="st139" d="M397.6,22.2v142.3c-7.6,0-37.4,0-45.1,0V22.2h4v8c0,2.4,1.9,4.4,4.4,4.4c2.5,0,4.4-2,4.4-4.4v-8h5.4v8
					c0,2.4,1.9,4.4,4.4,4.4c2.5,0,4.4-2,4.4-4.4v-8h5.4v8c0,2.3,1.9,4.4,4.4,4.4c2.4,0,4.4-2,4.4-4.4v-8H397.6L397.6,22.2z"/>
				<path class="st140" d="M377.1,34.1v130.4h-4.2V34.1C374.1,34.8,375.6,34.8,377.1,34.1L377.1,34.1z"/>
				<path class="st140" d="M362.9,34.1v130.4h-4.2V34.1C360,34.8,361.6,34.8,362.9,34.1L362.9,34.1z"/>
				<path class="st140" d="M391.2,34.1v130.5H387V34.1C388.3,34.8,389.8,34.8,391.2,34.1L391.2,34.1z"/>
				<g>
					<g>
						<path class="st141" d="M64.2,64c-7.2,0-14.5,0-21.7,0c0,2.1,0,2.6,0,4.7c7.2,2.1,14.5,2.1,21.7,0C64.2,66.6,64.2,66.2,64.2,64
							z"/>
						<path class="st142" d="M72.3,19c-12.7,0-25.3,0-38,0c0-1.2,0-1.7,0-2.5c0-0.6,0.4-1.1,1-1.1c11.9-1.4,24-1.4,36,0
							c0.6,0.1,1,0.5,1,1.1C72.3,17.3,72.3,17.8,72.3,19z"/>
						<rect x="34.3" y="20.1" class="st142" width="38" height="39.3"/>
						<path class="st142" d="M72.3,60.4c-12.7,0-25.3,0-38,0c0,1.2,0,1.7,0,2.5c0,0.6,0.4,1.1,1,1.1c11.9,1.4,24,1.4,36,0
							c0.6-0.1,1-0.5,1-1.1C72.3,62.1,72.3,61.6,72.3,60.4z"/>
						<path class="st3" d="M39.2,63.9c1.5,0.1,3,0.3,4.5,0.4V15.1c-1.5,0.1-3,0.2-4.5,0.3V63.9z"/>
						<rect x="34.3" y="59.2" class="st143" width="38" height="1.1"/>
						<rect x="34.3" y="19" class="st143" width="38" height="1.1"/>
						<g>
							<path class="st141" d="M60.3,39.7c0,3.9-3.1,7-7,7c-3.9,0-7-3.1-7-7s3.1-7,7-7C57.2,32.7,60.3,35.8,60.3,39.7z"/>
							<path class="st3" d="M59.1,39.7c0,3.2-2.6,5.8-5.8,5.8c-3.2,0-5.8-2.6-5.8-5.8c0-3.2,2.6-5.8,5.8-5.8
								C56.5,33.8,59.1,36.5,59.1,39.7z"/>
							<path class="st144" d="M48.5,37.7l0.8,0.3c0.6-1.6,2.2-2.7,4-2.7v-0.9C51.1,34.5,49.3,35.9,48.5,37.7z"/>
							<path class="st145" d="M57.3,38.1l0.8-0.3c-0.8-1.9-2.6-3.2-4.8-3.2v0.9C55.1,35.4,56.6,36.5,57.3,38.1z"/>
							<polygon class="st146" points="51.9,35.8 51.7,35.9 51.5,36 53.6,41.4 53.9,41.2 54.3,41.1 							"/>
							<path class="st143" d="M53.9,39.7c0,0.4-0.3,0.6-0.7,0.6c-0.4,0-0.6-0.3-0.6-0.6c0-0.4,0.3-0.6,0.6-0.6
								C53.7,39.1,53.9,39.4,53.9,39.7z"/>
						</g>
						<path class="st147" d="M64.2,64.7v4c-7.2,2.1-14.5,2.1-21.7,0v-4C49.7,65.2,56.9,65.2,64.2,64.7z"/>
						<path class="st147" d="M72.3,19c-12.7,0-25.3,0-38,0c0-1.2,0-1.7,0-2.5c0-0.6,0.4-1.1,1-1.1c11.9-1.4,24-1.4,36,0
							c0.6,0.1,1,0.5,1,1.1C72.3,17.3,72.3,17.8,72.3,19z"/>
						<rect x="34.3" y="20.1" class="st147" width="38" height="39.3"/>
						<path class="st147" d="M72.3,60.4v2.5c0,0.6-0.4,1-1,1.1c-2.4,0.3-4.7,0.5-7.1,0.7c-7.2,0.5-14.5,0.5-21.7,0
							c-2.4-0.2-4.8-0.4-7.1-0.7c-0.6-0.1-1-0.5-1-1.1v-2.5H72.3z"/>
					</g>
				</g>
				<g>
					<rect x="397" y="101.4" class="st148" width="2.3" height="60.7"/>
					<rect x="397" y="101.4" class="st149" width="1.2" height="60.7"/>
					<rect x="396.8" y="97.4" class="st150" width="2.8" height="4.1"/>
					<rect x="396.8" y="97.4" class="st149" width="1.4" height="4.1"/>
					<rect x="396" y="158.2" class="st150" width="4.5" height="4.1"/>
					<rect x="396" y="160.3" class="st149" width="4.5" height="2.1"/>
					<rect x="381.8" y="162.3" class="st150" width="32.7" height="1.2"/>
					<rect x="382.2" y="163.5" width="32" height="0.5"/>
					<rect x="381.8" y="164" class="st151" width="32.7" height="6.2"/>
					<rect x="383.1" y="164.7" class="st152" width="1.5" height="5.5"/>
					<rect x="386" y="164.7" class="st152" width="1.5" height="5.5"/>
					<rect x="388.8" y="164.7" class="st152" width="1.5" height="5.5"/>
					<rect x="391.7" y="164.7" class="st152" width="1.5" height="5.5"/>
					<rect x="394.5" y="164.7" class="st152" width="1.5" height="5.5"/>
					<rect x="397.4" y="164.7" class="st152" width="1.5" height="5.5"/>
					<rect x="400.3" y="164.7" class="st152" width="1.5" height="5.5"/>
					<rect x="403.1" y="164.7" class="st152" width="1.5" height="5.5"/>
					<rect x="406" y="164.7" class="st152" width="1.5" height="5.5"/>
					<rect x="408.8" y="164.7" class="st152" width="1.5" height="5.5"/>
					<rect x="411.7" y="164.7" class="st152" width="1.5" height="5.5"/>
				</g>
				<g>
					<g>
						<path class="st153" d="M351.2,132.6L351.2,132.6L351.2,132.6L351.2,132.6L351.2,132.6z M358.4,169.9h15.1L359.7,152
							c-1.1,0.8-1.7,1.3-2.1,1.5c0,0,0,0-0.1,0c0,0-0.1,0.1-0.1,0.1c0,0,0,0,0,0c0,0,0,0,0,0c-1.5-1.4-1-2-0.3-3.9
							c0.5,0,1-0.3,1.3-0.6l1.3-1.4l-2.6-2.5l0,0l2.6,2.5l1.3-1.4c0.8-0.8,0.8-2.2-0.1-3l-2.6-2.5l0.2-0.8l0.3-1.3
							c0.1-0.5,0-1.1-0.2-1.5l-1.7-3.1l-1.9-3.6c-0.5-0.9-1.4-1.6-2.4-1.8l-6.2-1.4l-3.7-0.8c0,0,0,0-0.1,0.1c-0.1,0-0.2,0-0.3,0
							c-0.5,0-1.1,0.2-1.5,0.7c0,0-0.2,0.2-0.4,0.4c0,0-0.1,0.1-0.1,0.1l-9.5-9l-1.9-3.6l-5.2-2.7c-0.1-0.1-0.4,0-0.6,0.2L323,113
							l16.7,15.7l1.3,1.3l0,0l-1.3-1.3L323,113l-0.2,0.2c-0.2,0.2-0.3,0.5-0.2,0.6l3,5.1l3.7,1.7l9.5,9c0,0-0.1,0.1-0.1,0.1
							c-0.2,0.3-0.4,0.4-0.4,0.4c0,0,0,0-0.1,0.1l-1.6,0.1c0,0-1.2,3.4,3.5,3.8c-0.7,0.8-1.2,1.5-1.2,1.5s-0.2,0.4-0.5,1
							c-0.4,0.8-1,2.1-1.7,3.4c0.1,0.1,0.3,0.2,0.4,0.3c1.9,1.2,3.7-0.6,4.9-2.4c0.1-0.1,0.1-0.2,0.2-0.2l0,0c0,0.1,0.1,0.2,0.1,0.3
							c0.4,0.9,0.7,1.8,1.1,2.7c0,0.1,0.1,0.2,0.1,0.3c0,0,0,0,0,0l0,0l-0.3,0.9c0,0,0,0,0,0c-0.4,1.3-0.9,2.8-1.1,3.7
							c-0.2,1.6-0.2,3.1,0.1,4.5c0.2,1,0.6,2,1.2,3c1.1,1.8,2.6,3.4,4,5c0.5,0.6,1,1.2,1.6,1.8c-0.6,0.4-1.2,0.9-1.9,1.4l5.3,8.6
							h5.8c0.1,0.1,0.1,0.1,0.2,0.2L358.4,169.9z"/>
					</g>
					<g>
						<g id="_x38__4_">
							<path class="st154" d="M346.7,132.6l-1.1,1l-2.2,1.8c0,0,0,0,0,0c0,0,0,0.1-0.1,0.1c-0.1,0.3-0.5,0.9-0.9,1.6
								c-0.1,0.2-0.2,0.3-0.3,0.5c-0.1,0.1-0.1,0.2-0.2,0.2c-1.2,1.7-3.1,3.6-4.9,2.4c-0.1-0.1-0.3-0.2-0.4-0.3
								c0.7-1.3,1.3-2.5,1.7-3.4c0.3-0.6,0.5-1,0.5-1s0.7-1,1.6-2c1.1-1.2,2.4-2.4,3.2-2.3c0,0,0.1,0,0.1,0
								C345.2,131.8,346.7,132.6,346.7,132.6z"/>
							<path class="st154" d="M336.5,130.2c0,0-1.9,5.5,8.7,3.4c2.6-2.1,1.5-3.9,1.5-3.9L336.5,130.2z"/>
							<path class="st154" d="M358.5,140.2l-0.2,0.8l-1.3,4.5l-0.9,2c-0.1,0.2,1,2,0.9,2.2c-0.7,2-1.2,2.5,0.3,4l8.4,7.8l-0.4,0.5
								l-6.5,7.3l-0.7,0.7c-1.6-1.8-5.2-5.3-6.8-7.1c-1.4-1.6-2.8-3.2-4.1-4.8c-1.3-1.6-2.9-3.2-4-5c-0.6-1-0.9-1.9-1.2-3
								c-0.3-1.5-0.3-3-0.1-4.5c0.2-1.3,1.1-3.7,1.5-5l-0.2-0.9l2.7-2.3l-2.4-4l0.5-2.6l0.4,0.1l5.9,1.1l0.8,0.8L358.5,140.2z"/>
							<path class="st155" d="M346.7,135.6c0,0,1.2,5.7,3.2,5.4c2-0.3,3.5-4.3,3.5-4.3l-2.2-4.1l-7.1-2.4l0.2,2.4
								C344.3,132.6,346.1,133.5,346.7,135.6z"/>
							<path class="st155" d="M343.5,141l0.1-0.2c0.9,1.2,1.7,2.5,1.5,3.3c-0.5,1.6-2,4.7,0.4,8.5c-0.8-1.2-1.6-2-2-3.6
								c-0.2-0.8-0.3-5.6-0.3-7.2L343.5,141z"/>
							<path class="st154" d="M358.9,138.9c0.1-0.5,0-1.1-0.2-1.5l-1.7-3.1c-1.8,0-3.6-0.1-5.4-0.4l1.1,3.4l3,2.3l2.7,1.5l0.2-0.8
								L358.9,138.9z"/>
							<g>
								<path class="st156" d="M329,115.3l-5.2-2.7c-0.1-0.1-0.4,0-0.6,0.2L323,113l16.7,15.7c0.3-0.3,0.5-0.6,0.7-0.9l-9.5-9
									L329,115.3z"/>
								<path class="st157" d="M322.8,113.2c-0.2,0.2-0.3,0.5-0.2,0.6l3,5.1l3.7,1.7l9.5,8.9c0.3-0.3,0.6-0.5,0.9-0.8L323,113
									L322.8,113.2z"/>
								<path class="st158" d="M351.6,134.5c-0.3-0.3-0.5-0.5-0.8-0.7c-3.5-1.1-6-3.4-7.7-7c-0.3-0.1-0.5-0.2-0.8-0.2
									c-0.5,0-1.1,0.2-1.5,0.7c0,0-0.2,0.2-0.4,0.4c0,0-0.1,0.1-0.1,0.1c-0.2,0.3-0.4,0.6-0.7,0.9l20.1,19l1.3-1.4
									c0.8-0.8,0.8-2.2-0.1-3L351.6,134.5z"/>
								<path class="st159" d="M338.8,129.5c0,0-0.1,0.1-0.1,0.1c-0.2,0.3-0.4,0.4-0.4,0.4c-0.4,0.4-0.6,1-0.6,1.5
									c0,0.3,0.1,0.5,0.2,0.8c3.6,1.4,6.1,3.8,7.4,7.2c0.3,0.3,0.5,0.5,0.8,0.8l9.4,8.8c0.8,0.8,2.2,0.8,3-0.1l1.3-1.4l-20.1-19
									C339.4,129,339.1,129.3,338.8,129.5z"/>
							</g>
							<path class="st154" d="M352.6,150.9c0.5-3.7-3-8.6-3-8.6l-2.3-5.6c-0.6-1-1.1-2.3-1.8-3.2c-0.7-1-1.6-1.6-3-1.2
								c-1.1,0.3-1.7,1-1.7,2.2c0,1.1,0.9,2.1,1.3,3l0,0c0,0.1,0.1,0.2,0.1,0.3c0.4,0.9,0.7,1.8,1.1,2.7c0.9,1.9,1.7,3.9,1,6
								c-1,3.1,1.1,5.7,1.1,5.7l0.2,0.4c0.6,0.5,1.1,0.9,1.6,1.3C350.8,156.5,352.2,154,352.6,150.9z"/>
							<path class="st154" d="M355,130.6c-0.5-0.9-1.4-1.6-2.4-1.8l-6.2-1.4l-3.7-0.8c0,0-0.1,0.1-0.2,0.3c-0.4,0.7-1,2.5,1,3.5
								c0.3,0.1,0.6,0.3,1,0.4c2.7,1,6.7,1.9,6.7,1.9l0.4,1.2c1.8,0.3,3.6,0.4,5.4,0.4L355,130.6z"/>
							<path class="st160" d="M341.1,134.3c-0.1,0.7,0.6,1.4,1.1,2.2c0.4,0.7,1.3,0.9,2.1,0.6c1-0.4,1.4-1.5,0.9-2.3
								c-0.4-0.6-0.8-1.9-1.6-2.2C342.8,132.3,341.2,133.4,341.1,134.3z"/>
							<path class="st160" d="M346.4,127.4c-1.8,0.7-3.2,0-3.9-0.5c0.1-0.2,0.2-0.3,0.2-0.3L346.4,127.4z"/>
							<path class="st160" d="M338.9,137.3l-1.9,3c-0.1-0.1-0.3-0.2-0.4-0.3c0.7-1.3,1.3-2.5,1.7-3.4
								C338.6,136.9,338.9,137.3,338.9,137.3z"/>
							<path class="st155" d="M358.9,169.3l-0.7,0.7c-1.6-1.8-5.2-5.3-6.8-7.1c-1.4-1.6-2.8-3.2-4.1-4.8c-1.3-1.6-2.9-3.2-4-5
								c-0.6-1-0.9-1.9-1.2-3c0.6,1,1.6,2.7,3.3,4.7C347.6,157.5,355.7,165.8,358.9,169.3z"/>
						</g>
						<path class="st161" d="M359.7,152l13.9,17.9h-21.3l-5.3-8.6c7-5.1,9.5-6.9,10.3-7.5l0,0c0,0,0,0,0,0c0,0,0,0,0.1-0.1
							c0,0,0,0,0.1,0c0,0,0,0,0,0c0,0,0.1,0,0.1-0.1c0,0,0.1,0,0.1,0C358,153.3,358.6,152.8,359.7,152z"/>
					</g>
				</g>
				<g>
					<g id="_x35__1_">
						<rect x="76.5" y="30.4" class="st162" width="17.7" height="5.8"/>
						<rect x="76.5" y="33.4" class="st163" width="17.7" height="1.4"/>
						<g>
							<path class="st164" d="M94.2,37.3v-7.9h1.2c0.3,0,0.5,0.2,0.5,0.5v7c0,0.3-0.2,0.5-0.5,0.5H94.2z"/>
							
								<rect x="90.2" y="32.7" transform="matrix(-1.836970e-16 1 -1 -1.836970e-16 126.8935 -60.2456)" class="st165" width="6.8" height="1.2"/>
						</g>
						<g>
							<path class="st164" d="M76.3,29.4v7.9h-1.2c-0.3,0-0.5-0.2-0.5-0.5v-6.9c0-0.3,0.2-0.5,0.5-0.5H76.3z"/>
							
								<rect x="73.5" y="32.8" transform="matrix(6.123234e-17 -1 1 6.123234e-17 43.5144 110.2447)" class="st165" width="6.8" height="1.1"/>
						</g>
						<g>
							<rect x="94.2" y="32.9" class="st166" width="1.7" height="2.4"/>
							<rect x="93" y="32.9" class="st166" width="1.2" height="2.4"/>
						</g>
						<g>
							<rect x="74.6" y="32.9" class="st166" width="1.7" height="2.4"/>
							<rect x="76.3" y="32.9" class="st166" width="1.1" height="2.4"/>
						</g>
					</g>
					<g>
						<g>
							<path class="st153" d="M131,26.6h-1.6v0.9h-1.7v0.8h-23.3v-0.8h-1.8v-0.9h-1.7c-0.5,0-0.9,0.4-0.9,0.9v2.2v3.6v4.6
								c0,0.5,0.4,0.9,0.9,0.9h1.7v-0.9h1.8v-0.8h23.3v0.7h1.7v0.9h1.6c0.5,0,0.9-0.4,0.9-0.9v-4.4v-3.6v-2.2
								C132,27,131.5,26.6,131,26.6z"/>
						</g>
						<g id="_x38__2_">
							<rect x="102.6" y="28.3" class="st162" width="26.6" height="8.8"/>
							<rect x="102.6" y="30.5" class="st163" width="26.6" height="2.1"/>
							<g>
								<path class="st164" d="M102.6,26.7v12h-1.8c-0.4,0-0.7-0.3-0.7-0.7V27.4c0-0.4,0.3-0.7,0.7-0.7H102.6z"/>
								
									<rect x="98.3" y="31.8" transform="matrix(6.123234e-17 -1 1 6.123234e-17 70.7902 136.1776)" class="st165" width="10.3" height="1.8"/>
							</g>
							<g>
								<path class="st164" d="M129.4,38.6v-12h1.8c0.4,0,0.8,0.3,0.8,0.8v10.5c0,0.4-0.3,0.8-0.8,0.8H129.4z"/>
								
									<rect x="123.4" y="31.8" transform="matrix(-1.836970e-16 1 -1 -1.836970e-16 161.1921 -95.9292)" class="st165" width="10.3" height="1.7"/>
							</g>
							<g>
								<rect x="100" y="29.7" class="st166" width="2.6" height="3.6"/>
								<rect x="102.6" y="29.7" class="st166" width="1.8" height="3.6"/>
							</g>
							<g>
								<rect x="129.4" y="29.7" class="st166" width="2.6" height="3.6"/>
								<rect x="127.7" y="29.7" class="st166" width="1.7" height="3.6"/>
							</g>
						</g>
					</g>
					<g>
						<g>
							<g>
								<g id="_x31_3_1_">
									<path class="st155" d="M99.2,20.5c0,0-0.9,3-1.8,3.5c-0.5,0.3-1,0.2-1.3,0c-0.2-0.1-0.4-0.4-0.3-0.7l1.3-4l-2-3.1l3.2-3.3
										l6.5,0.7c0,0,0.2,4,0.1,4.1c-0.2,0.1-5.3,1.3-5.3,1.3L99.2,20.5z"/>
									<path class="st155" d="M94.6,22.6c0,0,0.5,1.2,1.8,0.1c1.3-1,2.3-6.4,2.3-6.4s-2.3-0.9-2.4-0.9
										C96,15.5,94.6,22.6,94.6,22.6z"/>
									<path class="st154" d="M97.4,11l7.6-1.4l5,4.5c0.7,0.6,1.8,1.2,2.6,0.8l9.7-4.9l2.9,7.2c0.1,0.2-11,5.1-11,5.1
										s-1.1,0.8-2.7,1.1c0,0-0.1,0-0.1,0c0,0-0.1,0-0.1,0c0,0-0.1,0-0.1,0c-0.1,0-0.1,0-0.2,0c0,0-0.1,0-0.1,0
										c-0.1,0-0.1,0-0.2,0c0,0-0.1,0-0.1,0c-0.1,0-0.1,0-0.2,0c-0.1,0-0.1,0-0.2,0c-0.1,0-0.1,0-0.2,0c-0.2,0-0.5-0.1-0.7-0.1
										c-0.2,0-0.4-0.1-0.6-0.2c0,0-0.1,0-0.2-0.1c-0.2-0.1-0.5-0.2-0.7-0.4c-2.4-1.4-3.7-1.8-3.7-1.8c-1.6-0.1-3.1-0.3-4.7-0.4
										c-0.8,0-1.5,0-2.3,0.1c-0.5,0-1.1,0-1.3-0.5c-0.4-0.9,0-1.6,0.6-1.7c0.7-0.1,5.8-0.7,6.5-1c0,0,0.1,0,0.1,0c0,0,0,0,0.1,0
										c0,0,0,0,0,0c0,0,0,0,0.1,0c0,0,0.1,0,0.1-0.1c0,0,0.1,0,0.1-0.1c0,0,0.1,0,0.1-0.1c0,0,0,0,0,0c0,0,0.1,0,0.1-0.1
										c0,0,0.1,0,0.1-0.1c0,0,0,0,0,0c0.5-0.5,0.8-1.1,0.1-1.7c-0.8-0.5-3.4-1.3-4.7-1.4c-0.5-0.1-1.3,0.1-1.6,0.6
										c-0.9,1.4-3,4.2-4.4,4.9c-0.2,0.1-0.3,0.1-0.5,0c-0.2-0.1-0.3-0.1-0.5-0.2c0,0,0,0,0,0c-0.1,0-0.1-0.1-0.2-0.1c0,0,0,0,0,0
										c-0.2-0.2-0.2-0.5,0-0.8l1.1-1.5l0.3-0.4l0,0l2.7-4.2L97.4,11z"/>
									<g>
										<path class="st167" d="M92.2,32.8c1.5-1.8,1.8-4.2,1-6.2L111,5.8c2.1,0.5,4.5-0.2,6-1.9c2.2-2.5,1.9-6.4-0.6-8.6
											c0,0,0,0,0,0l-2,2.3l1.3,1.1l-0.6,3.4l-3.3,1.1l-1.3-1.1L89.1,27l0,0l1.6,4.4l-3,3.4C89.4,34.9,91.1,34.2,92.2,32.8z"/>
										<path class="st168" d="M84.5,26.2l4.6,0.9l21.4-24.9l-1.3-1.1l0.6-3.4l1.6-0.6l0,0l1.6-0.6l1.3,1.1l2-2.3
											c-2.5-2.2-6.4-1.9-8.5,0.7c-1.5,1.8-1.8,4.2-1,6.2L89,23c-2.1-0.5-4.5,0.2-6,1.9c-1.2,1.4-1.6,3.1-1.4,4.7L84.5,26.2z"/>
									</g>
									<path class="st160" d="M93,16.4c0.1,0.1,0.2,0.2,0.3,0.4c0,0.1,0,0.2,0,0.3c-0.2,1-1.1,1.6-1.4,1.8c-0.2-0.2-0.2-0.5,0-0.8
										l1.1-1.5C92.9,16.5,92.9,16.5,93,16.4z"/>
									<g>
										<path class="st154" d="M96.4,18.3c0.7-0.1,5.8-0.7,6.5-1c0,0,0.1,0,0.1,0c0,0,0,0,0.1,0c0,0,0,0,0,0c0,0,0,0,0.1,0
											c0,0,0.1,0,0.1-0.1c0,0,0.1,0,0.1-0.1c0,0,0.1,0,0.1-0.1c0,0,0,0,0,0c0,0,0.1,0,0.1-0.1c0,0,0.1,0,0.1-0.1c0,0,0,0,0,0
											c3.5,0.5,6.1,2.9,7.7,6c0.1,0.2,0.2,0.3,0.2,0.5c0,0-0.1,0-0.1,0c0,0-0.1,0-0.1,0c0,0-0.1,0-0.1,0c-0.1,0-0.1,0-0.2,0
											c0,0-0.1,0-0.1,0c-0.1,0-0.1,0-0.2,0c0,0-0.1,0-0.1,0c-0.1,0-0.1,0-0.2,0c-0.1,0-0.1,0-0.2,0c-0.1,0-0.1,0-0.2,0
											c-0.2,0-0.5-0.1-0.7-0.1c-0.2,0-0.4-0.1-0.6-0.2c0,0-0.1,0-0.2-0.1c-0.2-0.1-0.5-0.2-0.7-0.4c-2.4-1.4-3.7-1.8-3.7-1.8
											c-1.6-0.1-3.3-0.1-4.9-0.2c-0.8,0-1.5,0.1-2.3,0.1c-0.5,0-1-0.2-1.1-0.8C95.4,18.8,95.7,18.4,96.4,18.3z"/>
										<path class="st160" d="M96.5,20.5l1.1-0.2c0.5-0.1,0.9-0.5,0.9-1c0-0.6-0.6-1-1.1-0.9l-1.1,0.2c-0.2,0-0.4,0.3-0.4,0.5
											l0.2,1.1C96,20.4,96.3,20.5,96.5,20.5z"/>
									</g>
									<path class="st155" d="M125,16.6l0.2,0.6c0.1,0.2-11,5.1-11,5.1s-1.1,0.8-2.7,1.1c0,0-0.1,0-0.1,0c0,0-0.1,0-0.1,0
										c0,0-0.1,0-0.1,0c-0.1,0-0.1,0-0.2,0c0,0-0.1,0-0.1,0c-0.1,0-0.1,0-0.2,0c0,0-0.1,0-0.1,0c-0.1,0-0.1,0-0.2,0
										c-0.1,0-0.1,0-0.2,0c-0.1,0-0.1,0-0.2,0c-0.2,0-0.5-0.1-0.7-0.1c0.6-0.1,1.7-0.2,2.5-0.4c1.4-0.4,2.7-1.1,4.9-2.2
										C121.3,18.5,123.7,17.3,125,16.6z"/>
								</g>
								<polygon class="st161" points="157.4,-7.6 160.7,9.6 119,22 116.1,15.8 114.5,12.4 								"/>
							</g>
						</g>
						<polygon class="st161" points="160.7,9.6 198.7,-7 157.4,-7.6 						"/>
					</g>
				</g>
				<path class="st3" d="M305.3,64.7L305.3,64.7c-0.1,1.9-1.6,3.4-3.5,3.4v0.1c1.9,0,3.4,1.5,3.4,3.4h0.1c0-1.9,1.5-3.4,3.4-3.4
					v-0.1C306.8,68.1,305.3,66.6,305.3,64.7z"/>
				<path class="st3" d="M59.6,119L59.6,119c-0.1,1.9-1.6,3.4-3.5,3.4v0.1c1.9,0,3.4,1.5,3.4,3.4h0.1c0-1.9,1.5-3.4,3.4-3.4v-0.1
					C61.1,122.4,59.6,120.8,59.6,119z"/>
				<path class="st3" d="M239.4,117.4L239.4,117.4c0,1.3-1.1,2.4-2.4,2.4v0c1.3,0,2.4,1.1,2.4,2.4h0c0-1.3,1.1-2.4,2.4-2.4v0
					C240.5,119.8,239.4,118.7,239.4,117.4z"/>
				<path class="st3" d="M242.5,113L242.5,113c0,1.3-1.1,2.4-2.4,2.4v0c1.3,0,2.4,1.1,2.4,2.4h0c0-1.3,1.1-2.4,2.4-2.4v0
					C243.5,115.4,242.5,114.3,242.5,113z"/>
				<path class="st3" d="M301,72.4L301,72.4c0,0.8-0.7,1.5-1.6,1.5v0c0.8,0,1.5,0.7,1.5,1.5h0c0-0.8,0.7-1.5,1.5-1.5v0
					C301.7,74,301,73.3,301,72.4z"/>
				<path class="st3" d="M72.8,43.2L72.8,43.2c0,1.2-1,2.2-2.3,2.2v0c1.2,0,2.2,1,2.2,2.2h0c0-1.2,1-2.2,2.2-2.2v0
					C73.8,45.4,72.8,44.4,72.8,43.2z"/>
				<path class="st3" d="M70.4,20.8L70.4,20.8c0,1.2-1,2.2-2.3,2.2v0c1.2,0,2.2,1,2.2,2.2h0c0-1.2,1-2.2,2.2-2.2v0
					C71.4,23.1,70.4,22.1,70.4,20.8z"/>
				<path class="st3" d="M66.9,27L66.9,27c-0.1,1.7-1.5,3.1-3.2,3.1v0.1c1.7,0,3.1,1.4,3.1,3.1h0.1c0-1.7,1.4-3.1,3.1-3.1v-0.1
					C68.3,30.1,66.9,28.7,66.9,27z"/>
				<g>
					<ellipse class="st169" cx="185.5" cy="169.3" rx="24.9" ry="5.6"/>
					<g>
						<g>
							<path class="st170" d="M168.4,116.8c1.6,7.6,8.1,13.3,16,13.3c7.8,0,14.4-5.7,16-13.3h7.8c-1.1,9.6-6.5,17.1-23.8,17.1
								c-19.5,0-22.7-7.5-23.8-17.1H168.4z"/>
							<path class="st171" d="M184.4,130.1c-7.8,0-14.4-5.7-16-13.3h32C198.8,124.4,192.2,130.1,184.4,130.1z"/>
						</g>
						<ellipse class="st172" cx="184.4" cy="117.3" rx="23.8" ry="3.4"/>
						<g>
							<path class="st170" d="M179.8,146.6c1.6-3.4,3.5-6.3,5.5-7.1v31c-5.6,0-8.8-3.8-8.8-3.8C179.8,161.2,180.2,153.4,179.8,146.6
								z"/>
							<path class="st171" d="M179.8,146.6c-0.5-7.4-2-13.5-2-13.5l7.6,0v6.5C183.3,140.3,181.4,143.2,179.8,146.6z"/>
							<path class="st169" d="M191.2,142.8c-0.8,7.4-1,17.4,2.9,23.8c0,0-3.1,3.8-8.8,3.8v-31C187.8,138.5,189.8,140.3,191.2,142.8z
								"/>
							<path class="st173" d="M185.3,139.5V133l7.6,0c0,0-1,4.1-1.7,9.7C189.8,140.3,187.8,138.5,185.3,139.5z"/>
						</g>
					</g>
					<g>
						<path class="st174" d="M193.3,101.7c0-0.9-0.7-1.5-1.5-1.5h-13c-0.9,0-1.5,0.7-1.5,1.5l0,0c0,0.9,0.7,1.5,1.5,1.5h13
							C192.6,103.2,193.3,102.5,193.3,101.7L193.3,101.7z"/>
						<g>
							<path class="st175" d="M176.1,101.1c0.1-0.7,0.5-1.2,0.9-1.7c0.5,0.5,1.2,0.7,1.9,0.7c0.7,0,1.4-0.3,1.9-0.7
								c0.5,0.4,0.8,1,0.9,1.7c-1.1,0.4-2,1.5-2,2.8c0,0.2,0,0.4,0,0.5c-0.3,0.1-0.6,0.2-1,0.2c-0.3,0-0.6-0.1-0.9-0.1
								c0-0.2,0-0.4,0-0.5C178.1,102.6,177.2,101.5,176.1,101.1z"/>
						</g>
						<circle class="st176" cx="178.9" cy="101.7" r="1"/>
						<g>
							<path class="st175" d="M188.7,101.1c0.1-0.7,0.5-1.2,0.9-1.7c0.5,0.5,1.2,0.7,1.9,0.7c0.7,0,1.4-0.3,1.9-0.7
								c0.5,0.4,0.8,1,0.9,1.7c-1.1,0.4-2,1.5-2,2.8c0,0.2,0,0.4,0,0.5c-0.3,0.1-0.6,0.2-1,0.2c-0.3,0-0.6-0.1-0.9-0.1
								c0-0.2,0-0.4,0-0.5C190.7,102.6,189.8,101.5,188.7,101.1z"/>
						</g>
						<circle class="st177" cx="191.5" cy="101.7" r="1"/>
						<g>
							<path class="st175" d="M196.2,108.1c0,0-6.3,0-8.8,0c-2.7,0-2.1-2.9-2.1-2.9l0-2h1.1v2l0,0.1l0,0.1c0,0.3,0,1.1,0.3,1.5
								c0.1,0.1,0.3,0.3,0.8,0.3h8.8l0,0c0.2,0,1,0,1.8,0.6c0.7,0.5,1.6,1.6,1.6,3.8l-1.1,0C198.5,107.9,196.2,108.1,196.2,108.1z"
								/>
							<path class="st174" d="M184.2,105.2v-1.9h1.1l0,2c0,0-0.5,2.9,2.1,2.9c2.5,0,8.8,0,8.8,0s2.3-0.2,2.3,3.4l-1.1,0
								c0-1-0.2-1.7-0.7-2c-0.3-0.2-0.6-0.3-0.6-0.3h-8.7c-1.2,0-2-0.5-2.4-1C184.1,107.1,184.2,105.6,184.2,105.2z"/>
						</g>
						<path class="st174" d="M200.3,111.1c0-0.2-0.2-0.4-0.4-0.4h-3.1c-0.2,0-0.4,0.2-0.4,0.4v0.8c0,0.2,0.2,0.4,0.4,0.4h3.1
							c0.2,0,0.4-0.2,0.4-0.4V111.1z"/>
					</g>
					<g>
						<g>
							<path class="st147" d="M160.8,116.8c-0.1,0.1-0.2,0.2-0.2,0.3c0-0.1,0-0.2,0-0.3H160.8z"/>
							<path class="st147" d="M208.2,116.8c0,0.1,0,0.2,0,0.3c0-0.1-0.1-0.2-0.2-0.3H208.2z"/>
						</g>
						<path class="st147" d="M208.2,117.1c0,0.2,0,0.4-0.1,0.5l0,0c-1.1,7.4-4.9,13.5-15.2,15.5c-0.1,0.6-1.1,4.5-1.6,9.6
							c-0.9,7.4-1,17.4,2.9,23.8c0,0-3.1,3.9-8.8,3.9c-5.6,0-8.8-3.9-8.8-3.9c3.3-5.3,3.7-13.2,3.3-20c-0.4-6.1-1.5-11.4-1.9-13
							c-13.3-1.5-16.2-7.9-17.2-16c0-0.2,0-0.3-0.1-0.5c0-0.1,0.1-0.2,0.2-0.3c1.7-1.7,11.6-2.9,23.6-2.9c12,0,21.9,1.3,23.6,2.9
							C208.1,116.9,208.1,117,208.2,117.1z"/>
						<path class="st147" d="M160.7,117.6c-0.1-0.1-0.1-0.2-0.1-0.3c0-0.1,0-0.1,0-0.2C160.6,117.3,160.6,117.5,160.7,117.6z"/>
						<path class="st147" d="M208.2,117.3c0,0.1,0,0.2-0.1,0.3c0-0.2,0-0.4,0.1-0.5C208.2,117.2,208.2,117.2,208.2,117.3z"/>
					</g>
					<g>
						<path class="st174" d="M173,103.8c-0.1-0.2-0.3-0.4-0.4-0.5c-0.5-0.3-1-0.3-1.2-0.3h-3.8v-0.3h-1.1v2h1.1V104h3.8l0,0l0.1,0
							c0,0,0.2,0,0.4,0.1c0.1,0.1,0.2,0.3,0.2,0.5l1.1-0.1C173.2,104.2,173.1,104,173,103.8z"/>
						<g>
							<path class="st178" d="M166.2,104.7c-1.2,0.3-2,1.3-2,2.4v5.6c0,1.1,0.8,2,1.8,2.4V107C166.1,107,166,105.8,166.2,104.7z"/>
							<path class="st179" d="M167,104.6c-0.3,0-0.5,0-0.8,0.1c-0.3,1.1-0.2,2.3-0.2,2.3v8.1c0.3,0.1,0.6,0.1,0.9,0.1
								c1.5,0,2.8-1.1,2.8-2.5v-5.6C169.8,105.8,168.6,104.6,167,104.6z"/>
						</g>
						<g>
							<rect x="163.6" y="112" class="st180" width="4.6" height="3.9"/>
							<rect x="168.3" y="112" class="st181" width="2.1" height="3.9"/>
						</g>
					</g>
				</g>
				<g>
					<g>
						<path class="st174" d="M241.7,73.4c-2.1,0-12.6,0-12.6,0H229c0,0-10.5,0-12.6,0c-2.1,0-2.5-2.3-2.5-2.3v-2.3h0.9V71
							c0,0.1,0.1,0.4,0.3,0.7c0.3,0.5,0.7,0.7,1.3,0.7h25.2c0.6,0,1-0.2,1.3-0.7c0.2-0.3,0.3-0.5,0.3-0.7v-2.1h0.9v2.3
							C244.2,71.1,243.8,73.4,241.7,73.4z"/>
						<path class="st175" d="M213.9,68.9v2.3c0,0,0.5,2.3,2.5,2.3c2.1,0,12.6,0,12.6,0h0.1c0,0,10.5,0,12.6,0c2.1,0,2.6-2.3,2.6-2.3
							v-2.3h0.9v2.4l0,0.1c0,0.1-0.2,0.8-0.7,1.6c-0.5,0.7-1.3,1.6-2.8,1.6h-25.2c-1.4,0-2.3-0.9-2.8-1.6c-0.5-0.7-0.7-1.5-0.7-1.6
							l0-0.1v-2.4H213.9z"/>
					</g>
					<g>
						<path class="st182" d="M233.6,89.7l-1,0.6l0,0l0,0l0.2-1l1-4.6h0v0l0,0l0,0l-1.2,0.6l1.2-5.3h0l0,0l0,0l0,0l0,0l-1.1,0.4
							l0.8-5.1l0,0l0,0l0,0l0,0l0,0l0,0l0,0l0,0l-0.9,0.7l0.8-4.8h3.6l-0.8,4.8l0,0l0,0L237,75l-0.8,5.1l0,0l0,0l0,0l0,0l0,0l0,0
							l1.1-0.4l-0.9,4l-0.3,1.3l0,0v0h0l0,0l0,0l0,0l0,0h0l0.3-0.1l1-0.4l0,0l-0.9,0.4l0.9-0.4l-0.9,4.6l-0.2,1.1v0v0l1-0.7l0,0.2
							l-0.7,5.2h0l0.8-0.7l-0.6,4.6l0.8-0.6l0,2.9c0,0-0.1,0-0.1,0c-1.3-0.2-2.4-0.1-3.5,0l0-2.9l-0.8,0.6l0.6-4.6l0,0l-0.8,0.7
							l0.7-5.2L233.6,89.7z"/>
						<path class="st183" d="M237.2,89.6l-1,0.6l0,0l0,0l0.2-1l1-4.6h0v0l0,0l0,0l-1.2,0.6l1.2-5.3l0,0l0,0l0,0l0,0v0l-1.1,0.4
							L237,75l0,0l0,0l0,0v0l0,0l0,0l0,0l0,0l-0.9,0.7l0.8-4.8h2c0,0,0.3,0,0.5,0.3c0.3,0.3,0.2,0.7,0.2,0.9
							c0,10.4,0.5,21.6,2.4,30.5c-0.4-0.4-1.4-1-4.6-1.4l0-2.9v0h0l-0.8,0.6l0.6-4.6h0l-0.8,0.7l0.7-5.2L237.2,89.6z"/>
						<path class="st182" d="M224.7,100l-0.8,0.6l0.7-4.9l-0.9,0.7l0.8-5.8l-1.1,0.7l1.3-6.1l0,0l0,0l0,0l0,0l0,0h0v0l-1.3,0.6
							l1.2-5.5l0-0.2l0,0l0,0l0,0l0,0v0l-1.1,0.4l0.9-5.4l0,0l0,0l0,0l0,0l0,0l0,0l0,0l0,0l-1,0.7l0.9-5h4l-0.5,3.1v0v0l0,0l0,0
							l0.6-0.4l0.4-0.3l-0.9,5.5l0,0l0,0l0,0l0,0l1.1-0.4v0l0,0l-1.1,0.4l0,0l1.1-0.4l0,0l-1.3,5.6h0l0,0l0,0l0,0v0L228,84l1.1-0.5
							l0,0L228,84l-0.2,0.1l1.3-0.6l-0.1,0.7l-1.1,5.4l0,0h0l0,0l0,0l0.7-0.4l0.4-0.3l-0.8,5.8l0,0l0,0l0,0v0l0.9-0.7l-0.7,4.9l0,0
							l0,0l0.8-0.6l0,4.6c-1.4,0.6-2.9,1.1-4.3,1.3v0c0,0,0,0,0,0L224.7,100z"/>
						<path class="st183" d="M228.2,98.8l0.7-4.9l0,0l0,0l-0.9,0.7l0.8-5.8h0v0l0,0l0,0l-0.4,0.3l-0.7,0.4l1.2-5.6l0.1-0.4h0h0h0v0
							l-1.3,0.6l0.1-0.4l1.2-5.3l0,0l0,0h0l0,0l0,0l0,0l0,0l0,0l-1.1,0.4l0.9-5.4l0,0l0,0l0,0l0,0l0,0l0,0l-1,0.7l0.5-3.1h4.1l0,0
							l0,0v0l0,0l0,0h0l0,0l0,0h0.9l-0.8,4.8l0,0l0,0l0.9-0.7l-0.8,5.1l0,0l0,0l0,0l0,0l0,0l0,0l1.1-0.4l-0.9,4l-0.3,1.3l0,0v0h0
							l0,0l0,0l0,0l0,0h0l0.3-0.1l1-0.4l0,0l-0.9,0.4l0.9-0.4l-0.9,4.6l-0.2,1.1h0v0l1.1-0.7l0,0.2l-0.7,5.2h0l0.8-0.7l-0.6,4.6
							l0.8-0.6l0,2.9c-1.8,0.3-3.3,0.9-4.8,1.5l0-4.6l0,0v0L228.2,98.8z"/>
						<path class="st183" d="M224.3,71l-0.9,5l0,0l0,0l1-0.7l-0.9,5.4l0,0l0,0l0,0l0,0l0,0l0,0l1.2-0.4l-1.2,5.6l0,0.1h0l0,0l0,0
							l0,0v0l0,0l1.3-0.6l-1.3,6.1h0h0l0,0l0,0v0l1.1-0.7l-0.8,5.8h0l0.9-0.7l-0.7,4.9l0.8-0.6l0,4.1c-0.2,0-0.4,0-0.6,0.1
							c-4.3,0.2-6.1-1.9-6.1-1.9s0.9-15.8,1.3-30.5c0-0.2,0-0.3,0.2-0.6c0.2-0.3,0.7-0.3,0.7-0.3H224.3z"/>
					</g>
				</g>
				<g>
					<path class="st147" d="M203.8,70.4c0,0.9,0,1.8-0.1,2.7c-0.2,2.5-0.6,4.8-1.3,7.1c-0.7,2.5-1.7,4.8-3,6.8
						c-2.2,3.6-5,6.5-8.3,8.3c-2.3,1.2-4.8,1.9-7.4,1.9c-10.4,0-18.9-10.5-20-23.9c-0.1-0.9-0.1-1.8-0.1-2.8c0-2.3,0.2-4.5,0.6-6.6
						c0.7-3.6,1.9-6.9,3.6-9.8c1.1-1.8,2.3-3.5,3.7-4.9c3.4-3.4,7.6-5.4,12.1-5.4C194.8,43.8,203.8,55.7,203.8,70.4z"/>
				</g>
				<path class="st3" d="M196.4,47.4L196.4,47.4c0,1.2-1,2.2-2.3,2.2v0c1.2,0,2.2,1,2.2,2.2h0c0-1.2,1-2.2,2.2-2.2v0
					C197.4,49.6,196.4,48.6,196.4,47.4z"/>
				<path class="st3" d="M202.7,58.9L202.7,58.9c0,1.2-1,2.2-2.3,2.2v0c1.2,0,2.2,1,2.2,2.2h0c0-1.2,1-2.2,2.2-2.2v0
					C203.7,61.1,202.7,60.1,202.7,58.9z"/>
				<path class="st3" d="M207.1,112.8L207.1,112.8c-0.1,1.9-1.6,3.4-3.5,3.4v0.1c1.9,0,3.4,1.5,3.4,3.4h0.1c0-1.9,1.5-3.4,3.4-3.4
					v-0.1C208.7,116.2,207.1,114.7,207.1,112.8z"/>
			</g>
			<path class="st116" d="M80.7,146.3c-0.2-0.1-0.5-0.2-1-0.4c-0.4-0.1-0.9-0.3-1.4-0.6c-0.1-0.1-0.3-0.1-0.4-0.2
				c-1.1-0.4-2.4-1-3.8-1.5c-0.4-0.2-0.9-0.4-1.3-0.6c-2.4-1-4.9-2.2-6.8-3.1l6.3,2.8l1.7,0.7l3.8,1.7l0.4,0.2l1.4,0.6L80.7,146.3z"
				/>
		</g>
	</g>
</g>
<g id="Home_Cleaning">
</g>
</svg>
