<?xml version="1.0" encoding="utf-8"?>
<!-- Generator: Adobe Illustrator 22.1.0, SVG Export Plug-In . SVG Version: 6.00 Build 0)  -->
<svg version="1.1" xmlns="http://www.w3.org/2000/svg" xmlns:xlink="http://www.w3.org/1999/xlink" x="0px" y="0px"
	 viewBox="0 0 440.3 169.2" style="enable-background:new 0 0 440.3 169.2;" xml:space="preserve">
<style type="text/css">
	.st0{clip-path:url(#SVGID_2_);}
	.st1{opacity:0.5;fill:#AFDCC9;}
	.st2{fill:#AAD1D3;}
	.st3{fill:#FFFFFF;}
	.st4{fill:#AEAEAE;}
	.st5{fill:#3D3D3D;}
	.st6{fill:#248641;}
	.st7{fill:#AFBF37;}
	.st8{fill:#A7C1D1;}
	.st9{fill:#CEE4EE;}
	.st10{fill:#DEF2FD;}
	.st11{fill:#799DAD;}
	.st12{fill:#FCCA37;}
	.st13{fill:#0B2337;}
	.st14{fill:#92B0C6;}
	.st15{fill:#335769;}
	.st16{fill:#21628C;}
	.st17{fill:#EF4237;}
	.st18{fill:#0F3751;}
	.st19{fill:#7597B4;}
	.st20{opacity:0.5;}
	.st21{fill:#C4D9E6;}
	.st22{fill:#315463;}
	.st23{fill:#A7CFE4;}
	.st24{fill:#FFD160;}
	.st25{fill:#FFC627;}
	.st26{fill:#FFE095;}
	.st27{fill:#5C5C5C;}
	.st28{fill:#D3D3D3;}
	.st29{fill:#7D7D7D;}
	.st30{fill:#F05354;}
	.st31{fill:#6896CE;}
	.st32{fill:#E9A922;}
	.st33{fill:#FBB580;}
	.st34{fill:#006836;}
	.st35{fill:#005D32;}
	.st36{fill:#31312F;}
	.st37{fill:#333334;}
	.st38{fill:#282829;}
	.st39{fill:#EF3E4E;}
	.st40{fill:#989898;}
	.st41{fill:#FEE467;}
	.st42{fill:#FFDEAE;}
	.st43{fill:#713773;}
	.st44{clip-path:url(#SVGID_4_);}
	.st45{opacity:0.6;fill:#9D622D;}
	.st46{fill:#9D622D;}
	.st47{fill:#563622;}
	.st48{opacity:0.2;fill:#563622;}
	.st49{opacity:0.5;fill:#AB734B;}
	.st50{fill:#C6A861;}
	.st51{opacity:0.1;fill:#563622;}
	.st52{opacity:0.8;fill:#D4BA7E;}
	.st53{fill:#694328;}
	.st54{opacity:0.5;fill:#C6A861;}
	.st55{opacity:0.3;fill:#9D622D;}
	.st56{fill:#B67C3B;}
	.st57{opacity:0.1;fill:#9D622D;}
	.st58{fill:#C5944A;}
	.st59{fill:#86A9A9;}
	.st60{fill:#CAD7D6;}
	.st61{fill:#F15A41;}
	.st62{fill:#F47E6F;}
	.st63{fill:#ED4B24;}
	.st64{opacity:0.16;}
	.st65{fill:#FBB043;}
	.st66{fill:#F79326;}
	.st67{opacity:0.33;}
	.st68{fill:#D89655;}
	.st69{fill:#FDC375;}
	.st70{fill:#E5A66C;}
	.st71{fill:#178D8C;}
	.st72{fill:#46C1C4;}
	.st73{fill:#D23327;}
	.st74{opacity:0.34;}
	.st75{fill:#FDC375;stroke:#000000;stroke-width:0.5;stroke-miterlimit:10;}
	.st76{fill:#5D8986;}
	.st77{fill:#6F9998;}
	.st78{fill:#AACECC;}
	.st79{fill:#5278BC;}
	.st80{fill:#F26A55;}
	.st81{fill:#4471B7;}
	.st82{fill:#CD2927;}
	.st83{fill:none;stroke:#000000;stroke-width:0.5;stroke-miterlimit:10;}
	.st84{opacity:0.3;fill:none;stroke:#000000;stroke-width:0.5;stroke-miterlimit:10;}
	.st85{fill:#D89655;stroke:#000000;stroke-width:0.5;stroke-miterlimit:10;}
	.st86{fill:#E5A66C;stroke:#000000;stroke-width:0.5;stroke-miterlimit:10;}
	.st87{fill:#273339;}
	.st88{fill:#434343;}
	.st89{opacity:0.3;fill:#434343;}
	.st90{fill:#384850;}
	.st91{fill:#B0BEC5;}
	.st92{fill:#90A4AE;}
	.st93{opacity:0.3;fill:#4896A3;}
	.st94{fill:#D0D9DC;}
	.st95{fill:#FCB74E;}
	.st96{fill:#FAA32C;}
	.st97{fill:#2F160C;}
	.st98{opacity:0.3;fill:#0DBCD4;}
	.st99{opacity:0.3;fill:#384850;}
	.st100{opacity:0.3;fill:#05808A;}
	.st101{fill:#E1BF82;}
	.st102{opacity:0.4;fill:#E1BF82;}
	.st103{fill:#F4D3A8;}
	.st104{fill:#FFE8C8;}
	.st105{fill:#465B65;}
	.st106{fill:#E97924;}
	.st107{fill:#617D8C;}
	.st108{opacity:0.3;fill:#E97924;}
	.st109{fill:#F68B29;}
	.st110{opacity:0.5;fill:#E1BF82;}
	.st111{opacity:0.6;fill:#E1BF82;}
	.st112{fill:#D1A762;}
	.st113{clip-path:url(#SVGID_6_);}
	.st114{fill:#F8961D;}
	.st115{fill:#D02027;}
	.st116{fill:#010101;}
	.st117{fill:#F15622;}
	.st118{fill:#8ED3F5;}
	.st119{fill:#BD7148;}
	.st120{fill:#B4C1D1;}
	.st121{fill:#8495B0;}
	.st122{fill:#C9EBFC;}
	.st123{fill:#9E1C20;}
	.st124{opacity:0.4;fill:#5684C4;}
	.st125{fill:#FFDBA8;}
	.st126{fill:#E4C0AF;}
	.st127{fill:#873B1E;}
	.st128{fill:#232121;}
	.st129{fill:#00522A;}
	.st130{fill:#212121;}
	.st131{fill:#C0DEE1;}
	.st132{fill:#F89B35;}
	.st133{fill:#2B5263;}
	.st134{fill:#D8C9A9;stroke:#000000;stroke-width:0.25;stroke-miterlimit:10;}
	.st135{fill:#F6F0E0;stroke:#000000;stroke-width:0.25;stroke-miterlimit:10;}
	.st136{fill:#A49571;}
	.st137{fill:#CF7534;}
	.st138{fill:#43C2CC;}
	.st139{fill:#BABCBE;}
	.st140{fill:#E7E7E0;}
	.st141{fill:#47646B;}
	.st142{fill:#92C8E9;}
	.st143{fill:#5E9CC8;}
	.st144{fill:#D3223A;}
	.st145{fill:#3C80C2;}
	.st146{fill:#192F36;}
	.st147{fill:none;stroke:#000000;stroke-width:0.25;stroke-miterlimit:10;}
	.st148{fill:#2C5796;}
	.st149{opacity:0.2;}
	.st150{fill:#6BBE49;}
	.st151{fill:#D7BA2E;}
	.st152{fill:#B4A139;}
	.st153{fill:#B2C7CA;}
	.st154{fill:#EFBD9E;}
	.st155{fill:#E2A984;}
	.st156{fill:#96D7E3;}
	.st157{fill:#74BDCA;}
	.st158{fill:#F15F50;}
	.st159{fill:#EE5747;}
	.st160{fill:#E4CCB8;}
	.st161{fill:#E25E27;}
	.st162{fill:#B1BABF;}
	.st163{fill:#D5D8D8;}
	.st164{fill:#21BDC2;}
	.st165{fill:#16B5C0;}
	.st166{fill:#8B9E9F;}
	.st167{fill:#26465E;}
	.st168{fill:#335368;}
	.st169{fill:#EFEDEA;}
	.st170{fill:#E7E4E0;}
	.st171{fill:#D8D9D3;}
	.st172{fill:#FFFFFF;stroke:#000000;stroke-width:0.25;stroke-miterlimit:10;}
	.st173{fill:#DDDDDB;}
	.st174{fill:#948EA2;}
	.st175{fill:#B6BDCD;}
	.st176{fill:#ED1C24;}
	.st177{fill:#3A53A4;}
	.st178{fill:#778C8B;}
	.st179{fill:#649A9A;}
	.st180{fill:#557580;}
	.st181{fill:#45646C;}
	.st182{fill:#F38520;}
	.st183{fill:#E8BB4D;}
	.st184{clip-path:url(#SVGID_8_);}
	.st185{fill:#321D11;}
	.st186{fill:#744621;stroke:#000000;stroke-width:0.5;stroke-miterlimit:10;}
	.st187{fill:#EAA333;stroke:#000000;stroke-width:0.5;stroke-miterlimit:10;}
	.st188{fill:#522E16;}
	.st189{fill:#7A7E7F;}
	.st190{fill:#FFFFFF;stroke:#000000;stroke-width:0.5;stroke-miterlimit:10;}
	.st191{fill:#595D5D;stroke:#000000;stroke-width:0.5;stroke-miterlimit:10;}
	.st192{fill:#FBAD32;}
	.st193{fill:#595D5D;}
	.st194{fill:#84A14A;}
	.st195{fill:#484A4C;}
	.st196{fill:#35C5F1;}
	.st197{fill:#7AD1EC;}
	.st198{fill:#F05554;stroke:#000000;stroke-width:0.5;stroke-miterlimit:10;}
	.st199{opacity:0.2;fill:#FFFFFF;}
	.st200{fill:#35383A;}
	.st201{fill:#F05554;}
	.st202{opacity:0.56;fill:#5F2C30;stroke:#000000;stroke-width:0.5;stroke-miterlimit:10;}
	.st203{opacity:0.1;}
	.st204{fill:#818586;stroke:#000000;stroke-width:0.5;stroke-miterlimit:10;}
	.st205{fill:#B2A865;}
	.st206{fill:#674227;stroke:#000000;stroke-width:0.5;stroke-miterlimit:10;}
	.st207{fill:#DAD7C5;}
	.st208{fill:#B0A690;}
	.st209{fill:#DAD7C5;stroke:#000000;stroke-width:0.5;stroke-miterlimit:10;}
	.st210{fill:#BABCBE;stroke:#000000;stroke-width:0.5;stroke-miterlimit:10;}
	.st211{fill:#B0A690;stroke:#000000;stroke-width:0.5;stroke-miterlimit:10;}
	.st212{fill:#FBAD32;stroke:#000000;stroke-width:0.5;stroke-miterlimit:10;}
	.st213{fill:#674327;}
	.st214{fill:#84A14A;stroke:#000000;stroke-width:0.5;stroke-miterlimit:10;}
	.st215{fill:#E87F42;}
	.st216{fill:#503734;}
	.st217{fill:#6B5F64;}
	.st218{fill:#82807F;}
	.st219{fill:#96DAF8;}
	.st220{fill:#36BDD1;}
	.st221{fill:#BF4633;}
	.st222{fill:#EF7B48;}
	.st223{fill:#F9D4A4;}
	.st224{fill:#F7B995;}
	.st225{fill:#321210;}
	.st226{fill:#393143;}
</style>
<g id="electicals">
</g>
<g id="Carpentry">
	<g>
		<defs>
			<rect id="SVGID_3_" width="440.3" height="169.2"/>
		</defs>
		<clipPath id="SVGID_2_">
			<use xlink:href="#SVGID_3_"  style="overflow:visible;"/>
		</clipPath>
		<g class="st0">
			<g>
				<path class="st1" d="M293.5,104.2c0,2.3-1,4.1-2.2,4.1h-31.9c-1.2,0-2.2-1.8-2.2-4.1l0,0c0-2.3,1-4.1,2.2-4.1h31.9
					C292.5,100.1,293.5,101.9,293.5,104.2L293.5,104.2z"/>
				<path class="st1" d="M57.4,59.1c0,2.3-1.1,4.1-2.4,4.1H21c-1.3,0-2.4-1.8-2.4-4.1l0,0c0-2.3,1.1-4.1,2.4-4.1h34
					C56.3,54.9,57.4,56.8,57.4,59.1L57.4,59.1z"/>
				<path class="st1" d="M119.6,23.1c0,2.3-1.3,4.1-3,4.1h-43c-1.6,0-3-1.8-3-4.1l0,0c0-2.3,1.3-4.1,3-4.1h43
					C118.3,19,119.6,20.8,119.6,23.1L119.6,23.1z"/>
				<path class="st1" d="M219.5,72c0,2.3-1,4.1-2.3,4.1h-33.7c-1.3,0-2.3-1.8-2.3-4.1l0,0c0-2.3,1-4.1,2.3-4.1h33.7
					C218.5,67.9,219.5,69.7,219.5,72L219.5,72z"/>
				<path class="st1" d="M435.1,52.8c0,2.3-1.1,4.1-2.4,4.1h-35.3c-1.3,0-2.4-1.8-2.4-4.1l0,0c0-2.3,1.1-4.1,2.4-4.1h35.3
					C434,48.7,435.1,50.5,435.1,52.8L435.1,52.8z"/>
			</g>
			<rect x="-1.1" y="158.6" class="st2" width="441.4" height="10.6"/>
			<g>
				<ellipse class="st45" cx="369.9" cy="160.8" rx="57.5" ry="1.5"/>
				<polygon class="st46" points="331.5,161.6 325,27 409.4,24.7 403.5,161.6 399.4,161.6 396.9,158.4 337.4,158.4 335.2,161.6 				
					"/>
				<polygon class="st47" points="402.8,33 330.9,34.9 337.5,153.8 398.6,153.8 				"/>
				<polygon class="st48" points="348.6,36.3 348.6,152.5 386.1,152.5 387.6,36.3 				"/>
				<polygon class="st46" points="332,35.6 362.6,34.8 364.5,153.3 338.1,153.3 				"/>
				<g>
					<polygon class="st49" points="409.4,24.7 325,27 325.3,33.7 409.2,30.5 					"/>
				</g>
				<polygon class="st50" points="413.2,25.8 321,29.1 321,26.5 413.1,23.2 				"/>
				<polygon class="st51" points="402.8,33 387.6,36.2 386.1,152.5 398.6,153.8 				"/>
				<g>
					<polygon class="st52" points="362.3,105.1 356.9,105.1 355.9,75.3 361.3,75.3 					"/>
					<polygon class="st53" points="361.1,101.5 356.7,101.5 355.9,75.3 360.3,75.3 					"/>
					<polygon class="st47" points="360.3,75.3 359.4,75.3 360.3,100.3 357.6,100.3 356.7,75.3 355.9,75.3 356.7,101.5 361.1,101.5 
											"/>
				</g>
				<g>
					<polygon class="st46" points="401.5,62.5 399.3,62.5 399.8,49.9 401.9,49.9 					"/>
					<g>
						<polygon class="st54" points="401.8,53.4 399.7,53.4 399.7,53.7 401.8,53.7 						"/>
						<polygon class="st54" points="401.6,58.6 399.5,58.6 399.5,59 401.6,59 						"/>
					</g>
				</g>
				<g>
					<polygon class="st46" points="398.9,135.6 396.8,135.6 397.1,123 399.3,123 					"/>
					<g>
						<polygon class="st54" points="399.2,126.5 397,126.5 397,126.8 399.2,126.8 						"/>
						<polygon class="st54" points="399,131.7 396.9,131.7 396.9,132.1 399,132.1 						"/>
					</g>
				</g>
				<polygon class="st46" points="413.2,25.8 321,29.1 321,26.5 413.1,23.2 				"/>
				<polygon class="st55" points="321,26.5 321,27.8 413.1,24.5 413.1,23.2 				"/>
			</g>
			<g>
				<g>
					<rect x="233.8" y="162.2" class="st56" width="25.1" height="1.2"/>
					<polygon class="st46" points="233.8,162.2 238.3,157.7 253.8,157.7 258.9,162.2 					"/>
					<polygon class="st45" points="252.4,157.7 251.7,157.7 243.9,160.4 251.6,162.2 251.6,163.4 275.5,168.2 					"/>
					<g>
						<path class="st57" d="M244.8,160.6c3.3,0,6.3,0.9,9.5,1.6h4.6l-2.4-2.1c-1,0.1-2.1,0.2-3.1,0.2c-4.9,0-5.3-1.3-9.5-1.3
							c-4.4,0-6.1,1.5-8.3,1.5c0,0-0.1,0-0.1,0l-1.3,1.3c0.2,0,0.3,0,0.5,0C236.3,161.8,241.3,160.6,244.8,160.6z"/>
						<path class="st57" d="M242.7,158.1c3.9,0,7.3,1,11,1c0.5,0,1.1,0,1.6-0.1l-1.6-1.4h-15.5l-0.7,0.7c0.1,0,0.1,0,0.2,0
							C237.7,158.4,240.3,158.1,242.7,158.1z"/>
					</g>
					<polygon class="st46" points="249.7,159 262.9,152.7 282.5,158.3 275.5,166.9 					"/>
					<polygon class="st58" points="249.7,159 249.7,160.3 275.5,168.2 275.5,166.9 					"/>
					<polygon class="st56" points="275.5,166.9 282.5,158.3 282.5,159.4 275.5,168.2 					"/>
					<g>
						<path class="st57" d="M279.2,162.3c-8.2-1.3-17.1-5.2-20.9-7.4l-3.8,1.8c3.2,1.2,13.6,7.9,22,8.9L279.2,162.3z"/>
						<path class="st57" d="M282.5,158.3l-19.7-5.6l-1.9,0.9c8.2,4.4,14.4,3.4,19.9,6.7L282.5,158.3z"/>
					</g>
				</g>
				<path class="st47" d="M283.6,166.4l-0.1,0.8c0,0-0.7-0.5-0.6-1.2c0.1-0.7,0.9-0.8,0.9-0.8l-0.1,0.7l3.4,0.7c0,0,0.2,0.3-0.1,0.5
					L283.6,166.4z"/>
				<g>
					<path class="st47" d="M288.3,163.6c0.1,0.3-0.1,0.6-0.5,0.8c-0.4,0.1-0.7,0-0.9-0.3c-0.1-0.3,0.1-0.6,0.5-0.8
						S288.1,163.3,288.3,163.6z"/>
					<path class="st47" d="M287.5,164.1l0.6,1.1c0,0,0.1,0.1,0.3,0c0,0,0.1-0.1,0.1-0.2l-0.6-1.1L287.5,164.1z"/>
				</g>
			</g>
			<g>
				<g>
					<g>
						<g>
							<path class="st59" d="M214.1,52.1l0.1-9.1c0-0.4-0.1-0.7-0.3-1l0,0c-0.2-0.2-0.3-0.6-0.3-0.9v-5h-0.7l0.1,16H214.1z"/>
						</g>
						<g>
							<path class="st59" d="M211.8,52.1l-0.1-9.1c0-0.4,0.1-0.7,0.3-1l0,0c0.2-0.2,0.3-0.6,0.3-0.9v-5h0.7l0.1,16H211.8z"/>
						</g>
						<g>
							<path class="st59" d="M213,52.1h1.1l0.1-9.1c0-0.4-0.1-0.7-0.3-1l0,0c-0.2-0.2-0.3-0.6-0.3-0.9v-5h-0.7h-0.7v5
								c0,0.3-0.1,0.7-0.3,0.9l0,0c-0.2,0.3-0.3,0.6-0.3,1l0.1,9.1H213z"/>
						</g>
						<g>
							<path class="st60" d="M213.4,42.4c0.1,0.1,0.2,0.3,0.2,0.5l-0.1,8.5h-0.9l-0.1-8.5c0-0.2,0-0.4,0.2-0.6
								C212.7,42.1,213.1,42.1,213.4,42.4z"/>
						</g>
						<g>
							<path class="st61" d="M213,39.2l0-10.4l0,0c0.5,0,1.6,0.4,1.6,0.8v7.3c0,0.8-0.2,1.6-0.6,2.3H213z"/>
						</g>
						<g>
							<path class="st62" d="M213.5,31.3c0.3,0.1,0.7,0.3,0.7,0.4l0,5.5c0,0.5-0.1,1.1-0.4,1.5l-0.4,0L213.5,31.3z"/>
						</g>
						<g>
							<path class="st63" d="M213,39.2l0-10.4l0,0c-0.5,0-1.6,0.4-1.6,0.8v7.3c0,0.8,0.2,1.6,0.6,2.3H213z"/>
						</g>
					</g>
					<g>
						<g class="st64">
							<g>
								<polygon class="st60" points="211.8,50.5 214.1,48.1 214.2,46.8 211.7,49.2 								"/>
							</g>
						</g>
						<g class="st64">
							<g>
								<polygon class="st60" points="211.7,48.6 214.2,46.2 214.2,45.3 211.7,47.7 								"/>
							</g>
						</g>
					</g>
				</g>
				<g>
					<g>
						<g>
							<path class="st59" d="M218.2,49l0.2-8c0-0.3-0.1-0.6-0.2-0.9l0,0c-0.1-0.2-0.2-0.5-0.2-0.8l0.1-4.3l-0.5,0l-0.2,14L218.2,49z
								"/>
						</g>
						<g>
							<path class="st59" d="M216.6,49.1l0-8c0-0.3,0.1-0.6,0.2-0.9l0,0c0.1-0.2,0.2-0.5,0.2-0.8l0.1-4.3l0.5,0l-0.2,14L216.6,49.1z
								"/>
						</g>
						<g>
							<path class="st59" d="M217.4,49.1l0.8,0l0.2-8c0-0.3-0.1-0.6-0.2-0.9l0,0c-0.1-0.2-0.2-0.5-0.2-0.8l0.1-4.3l-0.5,0l-0.5,0
								l-0.1,4.3c0,0.3-0.1,0.6-0.2,0.8l0,0c-0.2,0.2-0.2,0.6-0.2,0.9l0,8L217.4,49.1z"/>
						</g>
						<g>
							<path class="st60" d="M217.8,40.6c0.1,0.1,0.1,0.3,0.1,0.5l-0.2,7.4l-0.7,0l0-7.4c0-0.2,0-0.4,0.1-0.5
								C217.4,40.4,217.7,40.4,217.8,40.6z"/>
						</g>
						<g>
							<path class="st61" d="M217.6,37.9l0.1-9.1l0,0c0.4,0,1.4,0.3,1.4,0.7l-0.1,6.3c0,0.7-0.2,1.4-0.5,2L217.6,37.9z"/>
						</g>
						<g>
							<path class="st62" d="M218.2,31c0.2,0.1,0.5,0.2,0.6,0.3l-0.1,4.7c0,0.4-0.1,0.9-0.3,1.3l-0.3,0L218.2,31z"/>
						</g>
						<g>
							<path class="st63" d="M217.6,37.9l0.1-9.1l0,0c-0.4,0-1.4,0.3-1.4,0.7l-0.1,6.3c0,0.7,0.2,1.4,0.5,2L217.6,37.9z"/>
						</g>
					</g>
					<g>
						<g class="st64">
							<g>
								<polygon class="st60" points="216.6,47.7 218.3,45.6 218.3,44.4 216.6,46.6 								"/>
							</g>
						</g>
						<g class="st64">
							<g>
								<polygon class="st60" points="216.6,46.1 218.4,43.9 218.4,43.1 216.6,45.3 								"/>
							</g>
						</g>
					</g>
				</g>
				<g>
					<g>
						<g>
							<path class="st59" d="M221.9,46.4l0.3-6.9c0-0.3,0-0.6-0.1-0.8l0,0c-0.1-0.2-0.1-0.4-0.1-0.7l0.1-3.8l-0.3,0l-0.3,12.2
								L221.9,46.4z"/>
						</g>
						<g>
							<path class="st59" d="M220.8,46.4l0.1-6.9c0-0.3,0.1-0.6,0.2-0.8l0,0c0.1-0.2,0.2-0.4,0.2-0.7l0.1-3.8l0.3,0l-0.3,12.2
								L220.8,46.4z"/>
						</g>
						<g>
							<path class="st59" d="M221.4,46.4l0.5,0l0.3-6.9c0-0.3,0-0.6-0.1-0.8l0,0c-0.1-0.2-0.1-0.4-0.1-0.7l0.1-3.8l-0.3,0l-0.3,0
								l-0.1,3.8c0,0.3-0.1,0.5-0.2,0.7l0,0c-0.1,0.2-0.2,0.5-0.2,0.8l-0.1,6.9L221.4,46.4z"/>
						</g>
						<g>
							<path class="st60" d="M221.7,39.1c0,0.1,0.1,0.3,0.1,0.4l-0.2,6.4l-0.4,0l0.1-6.4c0-0.2,0-0.3,0.1-0.4
								C221.5,38.9,221.6,38.9,221.7,39.1z"/>
						</g>
						<g>
							<path class="st61" d="M221.7,36.7l0.2-7.9l0,0c0.4,0,1.2,0.3,1.2,0.6l-0.2,5.5c0,0.6-0.2,1.2-0.5,1.8L221.7,36.7z"/>
						</g>
						<g>
							<path class="st62" d="M222.3,30.5c0.2,0,0.4,0.1,0.5,0.2l-0.1,4.5c0,0.4-0.1,0.8-0.3,1.2l-0.2,0L222.3,30.5z"/>
						</g>
						<g>
							<path class="st63" d="M221.7,36.7l0.2-7.9l0,0c-0.4,0-1.2,0.3-1.2,0.7l-0.2,5.5c0,0.6,0.1,1.2,0.4,1.8L221.7,36.7z"/>
						</g>
					</g>
					<g>
						<g class="st64">
							<g>
								<polygon class="st60" points="220.9,45.3 222,43.4 222.1,42.4 220.9,44.3 								"/>
							</g>
						</g>
						<g class="st64">
							<g>
								<polygon class="st60" points="220.9,43.8 222.1,42 222.1,41.3 220.9,43.2 								"/>
							</g>
						</g>
					</g>
				</g>
			</g>
			<g>
				<g>
					<g>
						<g>
							<path class="st65" d="M206.6,139.1l-0.4,3.6L206,148c0,0,1.3,0.7,1,2.7c-0.3,2.1-0.9,7-0.8,7.8c0.1,0.6,0.4,1.9,0.7,2.8
								c0.1,0.4,0.5,0.6,0.9,0.5l0.1,0l0.2-22.8L206.6,139.1z"/>
						</g>
						<g>
							<path class="st66" d="M207.8,161.9l1.1-0.3c0.4-0.1,0.6-0.5,0.5-0.9c-0.1-0.4-0.3-1.1-0.3-1.8c-0.1-1.4,0.7-8.2,0.9-9.6
								c0.2-1.4-0.5-7.8-0.5-7.8l-0.2-2.3l-1.3,0L207.8,161.9z"/>
						</g>
					</g>
					<g>
						<g>
							<path class="st59" d="M212.9,138.6c-1.2,0.8-2.6,1.2-4,1.2l-3.5,0l0,3.4l3.3,0c1.6,0,3.2,0.5,4.5,1.5l0.3,0.2l0.1-6.6
								L212.9,138.6z"/>
						</g>
						<g>
							<path class="st60" d="M213.8,138l0.1,0.2c0.6,1.9,0.6,4,0.1,6l-0.2,0.8l1.6,1.2l0.5-2c0.5-2,0.5-4.1-0.1-6l-0.3-1.2
								L213.8,138z"/>
						</g>
						<g>
							<path class="st59" d="M213.8,138.2l-0.1-0.2l-0.3,0.2l-0.1,6.6l0.3,0.2l0.2-0.8C214.4,142.2,214.4,140.1,213.8,138.2z"/>
						</g>
					</g>
					<g>
						<g class="st67">
							<g>
								<path class="st60" d="M215.7,138.2l-5.1,5.1c0.3,0.1,0.5,0.1,0.7,0.2l4.6-4.6C215.8,138.8,215.8,138.5,215.7,138.2z"/>
							</g>
						</g>
						<g class="st67">
							<g>
								<path class="st60" d="M216,139.4l-4.3,4.3c0.2,0.1,0.3,0.1,0.5,0.2l3.9-3.9C216,139.8,216,139.6,216,139.4z"/>
							</g>
						</g>
					</g>
				</g>
				<g>
					<g>
						<g>
							<path class="st65" d="M195.8,142.9l2.5,5c0.6,1.1,1.1,2.2,1.9,3.2l0,0c0.8,0.9,1.3,2.1,1.9,3.2l1.6,3.2l-1.4,0.7l-7.4-14.8
								L195.8,142.9z"/>
						</g>
						<g>
							<path class="st66" d="M202.3,158.1l-1.3,0.7l-1.6-3.2c-0.6-1.1-1.3-2.1-1.6-3.3l0,0c-0.3-1.2-0.9-2.3-1.4-3.4l-2.5-5l1-0.5
								L202.3,158.1z"/>
						</g>
					</g>
					<g>
						<g>
							<g>
								<path class="st59" d="M190.5,141.8c0.2,0.4,0.7,0.6,1.1,0.4l0.3-0.2l0,0c-0.1-0.3,0-0.6,0.2-0.7l2.7-1.3
									c0.3-0.1,0.6,0,0.7,0.2l0,0l0.7-0.4l1,2l-0.7,0.4l0,0c0.2,0.5,0,1.1-0.4,1.3l-1.8,0.9c-0.5,0.2-1.1,0-1.3-0.4l0,0l-0.3,0.2
									c-0.4,0.2-0.6,0.7-0.4,1.1l0,0L191,146l-1.8-3.6L190.5,141.8L190.5,141.8z"/>
							</g>
						</g>
						<g>
							<g>
								<path class="st59" d="M201.7,141.3L201.7,141.3c-1.9-1.6-3.6-2.3-5.4-1.4l-1.8,1l1,1.9l1.6-0.8
									C198.4,141.3,200,141,201.7,141.3L201.7,141.3z"/>
							</g>
						</g>
						<g>
							<g>
								<path class="st60" d="M193.2,143.3l0.3,0.5c0.1,0.1,0.1,0.2,0.3,0.2c0.1,0,0.2,0,0.3,0l1.8-0.9c0.2-0.1,0.3-0.4,0.2-0.6
									l-0.3-0.5l-0.5-1.1l0,0c-0.1-0.2-0.4-0.3-0.7-0.2l-1.7,0.8c-0.2,0.1-0.3,0.4-0.2,0.7l0,0L193.2,143.3z"/>
							</g>
						</g>
					</g>
					<g>
						
							<rect x="190" y="142.1" transform="matrix(0.8932 -0.4497 0.4497 0.8932 -44.3242 101.0056)" class="st60" width="0.8" height="3.3"/>
					</g>
				</g>
				<g>
					<g>
						<g>
							<path class="st59" d="M206.2,163.8l-2.1-8.4c-0.1-0.3-0.1-0.7,0.1-1l0,0c0.1-0.3,0.2-0.6,0.1-0.9l-1.1-4.6l0.6-0.1l3.4,14.8
								L206.2,163.8z"/>
						</g>
						<g>
							<path class="st59" d="M208.4,163.3l-1.8-8.5c-0.1-0.3-0.2-0.7-0.5-0.9l0,0c-0.2-0.2-0.4-0.5-0.5-0.8l-1.1-4.6l-0.6,0.1
								l3.4,14.8L208.4,163.3z"/>
						</g>
						<g>
							<path class="st59" d="M207.3,163.5l-1,0.2l-2.1-8.4c-0.1-0.3-0.1-0.7,0.1-1l0,0c0.1-0.3,0.2-0.6,0.1-0.9l-1.1-4.6l0.6-0.1
								l0.6-0.1l1.1,4.6c0.1,0.3,0.2,0.6,0.5,0.8l0,0c0.3,0.2,0.4,0.5,0.5,0.9l1.8,8.5L207.3,163.5z"/>
						</g>
						<g>
							<path class="st60" d="M204.8,154.6c-0.1,0.2-0.1,0.3,0,0.5l1.9,7.8l0.9-0.2l-1.7-7.8c0-0.2-0.1-0.4-0.3-0.5
								C205.3,154.3,205,154.4,204.8,154.6z"/>
						</g>
						<g>
							<path class="st61" d="M204.5,151.7l-2.2-9.7l0,0c-0.4,0.1-1.4,0.7-1.3,1.1l1.6,6.7c0.2,0.8,0.5,1.5,1.1,2L204.5,151.7z"/>
						</g>
						<g>
							<path class="st62" d="M202.3,144.4c-0.3,0.1-0.6,0.4-0.6,0.5l1.2,5.1c0.1,0.5,0.3,1,0.7,1.3l0.3-0.1L202.3,144.4z"/>
						</g>
						<g>
							<path class="st63" d="M204.5,151.7l-2.2-9.7l0,0c0.4-0.1,1.5,0,1.6,0.4l1.6,6.7c0.2,0.8,0.2,1.5,0,2.3L204.5,151.7z"/>
						</g>
					</g>
					<g>
						<g class="st64">
							<g>
								<polygon class="st60" points="208,161.8 205.3,160.1 205,158.9 207.8,160.6 								"/>
							</g>
						</g>
						<g class="st64">
							<g>
								<polygon class="st60" points="207.7,160.1 204.9,158.3 204.7,157.5 207.5,159.2 								"/>
							</g>
						</g>
					</g>
				</g>
				<g>
					<g>
						<rect x="193.9" y="147.3" class="st68" width="19.6" height="1"/>
					</g>
					<g>
						<g>
							<g>
								<polygon class="st68" points="193.2,165.8 213.2,166.1 213.4,166 193.7,162.4 193.3,162.5 								"/>
							</g>
						</g>
						<g>
							<g>
								<polygon class="st69" points="193.7,165.6 213.6,165.8 213.6,162.6 193.7,162.3 								"/>
							</g>
						</g>
					</g>
					<g>
						<g>
							<g>
								<polygon class="st68" points="193.2,162.1 213.2,162.4 213.4,162.3 193.7,158.7 193.3,158.8 								"/>
							</g>
						</g>
						<g>
							<g>
								<polygon class="st69" points="193.7,161.9 213.6,162.2 213.6,158.9 193.7,158.6 								"/>
							</g>
						</g>
					</g>
					<g>
						<g>
							<g>
								<polygon class="st68" points="193.2,158.5 213.2,158.7 213.4,158.6 193.7,155 193.3,155.2 								"/>
							</g>
						</g>
						<g>
							<g>
								<polygon class="st69" points="193.7,158.2 213.6,158.5 213.6,155.2 193.7,154.9 								"/>
							</g>
						</g>
					</g>
					<g>
						<g>
							<rect x="213" y="151.9" class="st68" width="2.1" height="14.8"/>
						</g>
						<g>
							<rect x="213" y="146.3" class="st70" width="2.1" height="7.1"/>
						</g>
					</g>
					<g>
						<g>
							<rect x="192" y="151.9" class="st68" width="2.1" height="14.8"/>
						</g>
						<g>
							<rect x="192" y="146.3" class="st70" width="2.1" height="7.1"/>
						</g>
					</g>
				</g>
			</g>
			<g>
				<g>
					<g>
						<g>
							<rect x="48.1" y="88.9" class="st71" width="2.2" height="1.6"/>
						</g>
						<g>
							<g>
								<path class="st72" d="M50.3,91.1l0-9.3c0-2.3,1.8-4.1,4.1-4.1H66c2.3,0,4.1,1.8,4.1,4.1v9.3h-1.4v-9.3
									c0-1.5-1.2-2.7-2.7-2.7H54.4c-1.5,0-2.7,1.2-2.7,2.7l0,9.3H50.3z"/>
							</g>
						</g>
						<g>
							<rect x="53.1" y="87.1" class="st59" width="0.6" height="4.2"/>
						</g>
						<g>
							<rect x="67.3" y="87.1" class="st59" width="0.6" height="4.2"/>
						</g>
						<g>
							<g>
								<polygon class="st60" points="52.7,90.5 68.4,90.5 68.2,91.3 68,91 67.8,91.3 67.5,91 67.3,91.3 67.1,91 66.9,91.3 66.7,91 
									66.4,91.3 66.2,91 66,91.3 65.8,91 65.5,91.3 65.3,91 65.1,91.3 64.9,91 64.6,91.3 64.4,91 64.2,91.3 64,91 63.7,91.3 
									63.5,91 63.3,91.3 63.1,91 62.9,91.3 62.6,91 62.4,91.3 62.2,91 62,91.3 61.7,91 61.5,91.3 61.3,91 61.1,91.3 60.8,91 
									60.6,91.3 60.4,91 60.2,91.3 59.9,91 59.7,91.3 59.5,91 59.3,91.3 59,91 58.8,91.3 58.6,91 58.4,91.3 58.1,91 57.9,91.3 
									57.7,91 57.5,91.3 57.2,91 57,91.3 56.8,91 56.6,91.3 56.3,91 56.1,91.3 55.9,91 55.7,91.3 55.4,91 55.2,91.3 55,91 
									54.8,91.3 54.5,91 54.3,91.3 54.1,91 53.9,91.3 53.6,91 53.4,91.3 53.2,91 52.9,91.3 52.7,91 								"/>
							</g>
						</g>
						<g>
							<rect x="51.5" y="89.1" class="st71" width="2.8" height="1.1"/>
						</g>
						<g>
							<rect x="66.6" y="89.1" class="st71" width="2.8" height="1.1"/>
						</g>
					</g>
					<g>
						<g>
							<path class="st63" d="M50,89.7H39c0,0,0,0,0,0c0,0.7,0.5,1.4,1,1.4c3,0.4,6-0.8,8.9-0.4C49.6,90.8,50,90.4,50,89.7
								C50,89.7,50,89.7,50,89.7z"/>
						</g>
						<g>
							<path class="st61" d="M50,89.7c0-0.7-0.5-1.1-1-1c-3,0.4-6-0.8-8.9-0.4c-0.6,0.1-1,0.8-1,1.4c0,0,0,0,0,0L50,89.7
								C50,89.7,50,89.7,50,89.7z"/>
						</g>
					</g>
				</g>
				<g>
					<g>
						<g>
							<g>
								<g>
									<path class="st59" d="M38,103.7l3.1,16.7h0.6c0.8,0,1.4-0.6,1.4-1.4v-14.5L38,103.7z"/>
								</g>
								<g>
									<path class="st60" d="M37.5,103.8c0.1,0.3,0.5,0.1,0.5,0.4c0.1,0.3-0.4,0.4-0.3,0.7c0.1,0.3,0.5,0.1,0.5,0.4
										c0.1,0.3-0.4,0.4-0.3,0.7c0.1,0.3,0.5,0.1,0.5,0.4c0.1,0.3-0.4,0.4-0.3,0.7c0.1,0.3,0.5,0.1,0.5,0.4
										c0.1,0.3-0.4,0.4-0.3,0.7c0.1,0.3,0.5,0.1,0.5,0.4c0.1,0.3-0.4,0.4-0.3,0.7c0.1,0.3,0.5,0.1,0.5,0.4
										c0.1,0.3-0.4,0.4-0.3,0.7c0.1,0.3,0.5,0.1,0.5,0.4c0.1,0.3-0.4,0.4-0.3,0.7c0.1,0.3,0.5,0.1,0.5,0.4
										c0.1,0.3-0.4,0.4-0.3,0.7c0.1,0.3,0.5,0.1,0.5,0.4c0.1,0.3-0.4,0.4-0.3,0.7c0.1,0.3,0.5,0.1,0.5,0.4
										c0.1,0.3-0.4,0.4-0.3,0.7c0.1,0.3,0.5,0.1,0.5,0.4c0.1,0.3-0.4,0.4-0.3,0.7c0.1,0.3,0.5,0.1,0.5,0.4
										c0.1,0.3-0.4,0.4-0.3,0.7c0.1,0.3,0.5,0.1,0.5,0.4c0.1,0.3-0.4,0.4-0.3,0.7c0.1,0.3,0.5,0.1,0.5,0.4
										c0.1,0.3-0.4,0.4-0.3,0.7c0.1,0.3,0.5,0.1,0.5,0.4c0.1,0.3-0.4,0.4-0.3,0.7l0.5-0.1l0.4-0.3l-2.8-16.1l-1-1.1L37.5,103.8z"
										/>
								</g>
								<g>
									<path class="st73" d="M42.5,98.5c0-0.3,0.4-0.6,0.7-0.5c0,0,0.1,0,0.1,0c0.4,0,0.6,0.4,0.5,0.8c0,0,0,0,0,0
										c-0.1,0.5-0.1,1.1,0.1,1.6c0,0.1,0,0.2,0,0.3v3.1c0,0.9-0.7,1.7-1.7,1.8l-2.1,0.1c-0.5,0-1-0.2-1.3-0.6l-1.3-1.8
										c-0.1-0.2-0.2-0.4-0.2-0.7v-1.8c0-0.3,0.1-0.6,0.3-0.8c0-0.3-0.1-0.6-0.2-0.9c-0.1-0.3,0.1-0.5,0.4-0.5
										c0.2,0,0.4,0,0.5-0.1c0.2,0,0.4,0.1,0.5,0.4c0,0,0,0,0,0c0.1,0.4,0.4,0.8,0.9,0.8h1.6C41.9,99.5,42.4,99.1,42.5,98.5
										C42.5,98.5,42.5,98.5,42.5,98.5z M38.9,102.6l0.2,0.2c0.6,0.8,1.6,1.3,2.6,1.2l0,0c0.5,0,0.9-0.4,0.9-0.9v-0.9
										c0,0,0-0.2-0.1-0.4c-0.1-0.5-0.5-0.9-1-0.9h-1.7c-0.6,0-1,0.5-1,1v0C38.7,102.2,38.8,102.5,38.9,102.6z"/>
								</g>
							</g>
							<g>
								<g class="st74">
									<g>
										<path class="st60" d="M40.1,115.3c0.1,0.3-0.4,0.4-0.3,0.7c0,0.2,0.3,0.2,0.4,0.3l2.9-2.9v-1.3L40.1,115.3
											C40.1,115.3,40.1,115.3,40.1,115.3z"/>
									</g>
								</g>
								<g class="st74">
									<g>
										<path class="st60" d="M39.9,114.2c0.1,0.3-0.4,0.4-0.3,0.7c0,0.1,0,0.1,0.1,0.1l3.5-3.5v-0.9l-3.3,3.3
											C39.8,114.1,39.9,114.1,39.9,114.2z"/>
									</g>
								</g>
							</g>
						</g>
						<g>
							<g>
								<g>
									<path class="st65" d="M57,99.9l0.4,3.2l0.1,4.8c0,0-1.2,0.6-0.9,2.5c0.3,1.9,0.8,6.3,0.7,7c-0.1,0.5-0.4,1.8-0.6,2.5
										c-0.1,0.4-0.5,0.6-0.8,0.5l-0.1,0V100L57,99.9z"/>
								</g>
								<g>
									<path class="st66" d="M55.6,120.5l-1-0.3c-0.4-0.1-0.6-0.5-0.5-0.8c0.1-0.4,0.3-1,0.3-1.6c0.1-1.3-0.6-7.4-0.7-8.6
										c-0.1-1.2,0.5-7.1,0.5-7.1l0.2-2.1l1.2,0V120.5z"/>
								</g>
							</g>
							<g>
								<g>
									<path class="st59" d="M51.3,99.5c1.1,0.7,2.3,1,3.6,1H58v3h-3c-1.5,0-2.9,0.5-4,1.4l-0.2,0.2v-5.9L51.3,99.5z"/>
								</g>
								<g>
									<path class="st60" d="M50.5,99l0,0.2c-0.5,1.8-0.6,3.6-0.1,5.4l0.2,0.7l-1.4,1.1l-0.4-1.8c-0.4-1.8-0.4-3.6,0.1-5.4
										l0.3-1.1L50.5,99z"/>
								</g>
								<g>
									<path class="st59" d="M50.4,99.2l0-0.2l0.3,0.2v5.9l-0.3,0.2l-0.2-0.7C49.9,102.8,49.9,100.9,50.4,99.2z"/>
								</g>
							</g>
							<g>
								<g class="st67">
									<g>
										<path class="st60" d="M48.7,99.2l4.6,4.6c-0.2,0.1-0.5,0.1-0.7,0.2l-4.1-4.1C48.6,99.7,48.7,99.5,48.7,99.2z"/>
									</g>
								</g>
								<g class="st67">
									<g>
										<path class="st60" d="M48.5,100.3l3.9,3.9c-0.1,0.1-0.3,0.1-0.4,0.2l-3.5-3.5C48.4,100.7,48.5,100.5,48.5,100.3z"/>
									</g>
								</g>
							</g>
						</g>
						<g>
							<g>
								<g>
									<path class="st65" d="M65.8,103v6c0,1.3,0,2.6-0.3,3.9l0,0c-0.3,1.3-0.3,2.6-0.3,3.9v3.8h1.6V103H65.8z"/>
								</g>
								<g>
									<path class="st66" d="M66.9,120.5h1.5v-3.8c0-1.3,0.2-2.6-0.1-3.9l0,0c-0.3-1.3-0.3-2.6-0.3-3.9v-6h-1.2V120.5z"/>
								</g>
							</g>
							<g>
								<g>
									<g>
										<path class="st59" d="M70.3,99.4c0,0.5-0.4,0.9-0.9,0.9h-0.4v0c0-0.3-0.2-0.5-0.5-0.5h-3.2c-0.3,0-0.5,0.2-0.5,0.5v0H64
											v2.4h0.9v0c0,0.6,0.5,1.1,1.1,1.1H68c0.6,0,1.1-0.5,1.1-1.1v0h0.4c0.5,0,0.9,0.4,0.9,0.9v0h1.5v-4.2L70.3,99.4L70.3,99.4z
											"/>
									</g>
								</g>
								<g>
									<g>
										<path class="st59" d="M59.5,104.2L59.5,104.2c1-2.5,2.3-3.9,4.4-3.9l2.2,0.1v2.3h-1.8C62.6,102.7,60.9,103.2,59.5,104.2
											L59.5,104.2z"/>
									</g>
								</g>
								<g>
									<g>
										<path class="st60" d="M68.5,102.1l0,0.6c0,0.1,0,0.2-0.1,0.3c-0.1,0.1-0.2,0.1-0.3,0.1h-2.1c-0.3,0-0.5-0.2-0.5-0.5v-0.6
											l0-1.3l0,0c0-0.3,0.2-0.5,0.5-0.5h2c0.3,0,0.5,0.2,0.5,0.5v0V102.1z"/>
									</g>
								</g>
							</g>
							<g>
								<rect x="70.9" y="99.5" class="st60" width="0.8" height="3.5"/>
							</g>
						</g>
					</g>
					<g>
						<g>
							<g>
								
									<rect x="35.8" y="123.4" transform="matrix(0.9999 -1.163058e-02 1.163058e-02 0.9999 -1.4549 0.6482)" class="st75" width="38.4" height="4"/>
							</g>
						</g>
					</g>
				</g>
			</g>
			<g>
				<g>
					<g>
						<g>
							<g>
								<path class="st76" d="M81.7,40.6c0.1,0.7,0.8,1.1,1.4,0.9c0,0,0,0,0.1,0l2.9,9.4l0-0.2c-0.2-2.9-0.8-5.7-1.6-8.5l-0.6-2l0,0
									c0,0,0,0,0,0c-0.2-0.6-0.9-0.9-1.5-0.6C81.9,39.8,81.7,40.2,81.7,40.6z M82.3,40.7c-0.1-0.3,0.1-0.6,0.3-0.6
									c0.3-0.1,0.6,0.1,0.6,0.3c0.1,0.3-0.1,0.6-0.3,0.6C82.7,41.1,82.4,41,82.3,40.7z"/>
							</g>
							<g>
								<path class="st77" d="M83.3,39.6c-0.6-0.3-1.3,0-1.5,0.6c0,0,0,0,0,0l0,0l-0.6,2c-0.8,2.8-1.3,5.6-1.5,8.5l0,0.2l2.8-9.4
									c0,0,0,0,0.1,0c0.6,0.2,1.3-0.2,1.4-0.9C83.9,40.2,83.7,39.8,83.3,39.6z M82.6,41c-0.3-0.1-0.4-0.4-0.3-0.6
									c0.1-0.3,0.4-0.4,0.6-0.3c0.3,0.1,0.4,0.4,0.3,0.6C83.2,41,82.9,41.1,82.6,41z"/>
							</g>
						</g>
					</g>
					<g>
						<path class="st78" d="M85.7,40.3L85.7,40.3c-0.3,0-0.6,0.2-0.7,0.6c-0.3,1.3-1.4,2.2-2.7,2.2c-0.2,0-0.4,0-0.6-0.1
							c-0.3-0.1-0.7,0.1-0.8,0.4l0,0c-0.2,0.4,0.1,0.9,0.5,1c0.3,0.1,0.6,0.1,0.9,0.1c2,0,3.7-1.5,4.1-3.4
							C86.5,40.7,86.2,40.3,85.7,40.3z M86,41c-0.4,1.8-1.9,3-3.7,3c-0.3,0-0.6,0-0.8-0.1c-0.1,0-0.2-0.1-0.2-0.2c0,0-0.1-0.1,0-0.3
							l0,0c0-0.1,0.2-0.2,0.3-0.2c0,0,0,0,0.1,0c0.2,0.1,0.5,0.1,0.7,0.1c1.5,0,2.8-1.1,3.1-2.6c0-0.1,0.1-0.2,0.3-0.2h0
							c0.1,0,0.2,0.1,0.2,0.1C86,40.8,86.1,40.9,86,41z"/>
					</g>
					<g>
						<g>
							<path class="st76" d="M81.8,43.7c0-0.3-0.2-0.5-0.5-0.5c-0.3,0-0.5,0.2-0.5,0.5c0,0.3,0.2,0.5,0.5,0.5
								C81.5,44.2,81.8,44,81.8,43.7z"/>
						</g>
						<g>
							<g>
								<path class="st59" d="M81.3,44.6c-0.5,0-0.9-0.4-0.9-0.9c0-0.5,0.4-0.9,0.9-0.9c0.5,0,0.9,0.4,0.9,0.9
									C82.1,44.2,81.7,44.6,81.3,44.6z M81.3,43.5c-0.1,0-0.2,0.1-0.2,0.2c0,0.1,0.1,0.2,0.2,0.2c0.1,0,0.2-0.1,0.2-0.2
									C81.4,43.6,81.4,43.5,81.3,43.5z"/>
							</g>
						</g>
						<g>
							<g>
								<path class="st78" d="M81.3,44.4c-0.4,0-0.7-0.3-0.7-0.7c0-0.4,0.3-0.7,0.7-0.7c0.4,0,0.7,0.3,0.7,0.7
									C81.9,44.1,81.6,44.4,81.3,44.4z M81.3,43.3c-0.2,0-0.4,0.2-0.4,0.4c0,0.2,0.2,0.4,0.4,0.4c0.2,0,0.4-0.2,0.4-0.4
									C81.6,43.5,81.5,43.3,81.3,43.3z"/>
							</g>
						</g>
					</g>
				</g>
				<g>
					<g>
						<g>
							
								<rect x="64.6" y="53" transform="matrix(0.9999 -1.163697e-02 1.163697e-02 0.9999 -0.6302 0.912)" class="st75" width="26.8" height="3.3"/>
						</g>
					</g>
				</g>
				<g>
					<g>
						<g>
							<path class="st79" d="M76.1,50.5l-10.2-0.2L66,40.1L76.1,50.5z M67.8,48.4l3.6,0.1l-3.5-3.6L67.8,48.4z"/>
						</g>
					</g>
					<g>
						<g>
							<g>
								<polygon class="st3" points="66.6,50.3 66.4,50.3 66.5,49.3 66.6,49.3 								"/>
							</g>
						</g>
						<g>
							<g>
								<polygon class="st3" points="67.7,50.4 67.5,50.4 67.5,49.8 67.7,49.8 								"/>
							</g>
						</g>
						<g>
							<g>
								<polygon class="st3" points="68.7,50.4 68.5,50.4 68.6,49.3 68.7,49.3 								"/>
							</g>
						</g>
						<g>
							<g>
								<polygon class="st3" points="69.8,50.4 69.6,50.4 69.6,49.8 69.8,49.8 								"/>
							</g>
						</g>
						<g>
							<g>
								<polygon class="st3" points="70.8,50.4 70.6,50.4 70.6,49.3 70.8,49.3 								"/>
							</g>
						</g>
						<g>
							<g>
								<polygon class="st3" points="71.8,50.4 71.7,50.4 71.7,49.8 71.9,49.8 								"/>
							</g>
						</g>
						<g>
							<g>
								<polygon class="st3" points="72.9,50.5 72.7,50.4 72.7,49.4 72.9,49.4 								"/>
							</g>
						</g>
						<g>
							<g>
								<polygon class="st3" points="73.9,50.5 73.8,50.5 73.8,49.9 73.9,49.9 								"/>
							</g>
						</g>
					</g>
				</g>
			</g>
			<g>
				<g>
					<g>
						<polygon class="st66" points="225.5,98.8 221.9,98.9 221.9,98.6 225.5,98.5 						"/>
					</g>
					<g>
						<path class="st78" d="M220.9,92.9l-0.2,0.3l-2.7-2.6l0.3-0.2c0.2-0.1,0.6-0.1,0.8,0.1l0,0c0.1,0.1,0.3,0.2,0.5,0.2l0.1,0
							c0.2,0,0.4,0,0.5,0.2l0.1,0.1c0.1,0.1,0.2,0.3,0.2,0.5l0,0.1c0,0.2,0.1,0.4,0.2,0.5l0,0C221,92.3,221,92.6,220.9,92.9z"/>
					</g>
					<g>
						<path class="st63" d="M221.2,94.9c0.1,2.6-2.1,4.8-4.7,4.9c-2.7,0.1-4.8-2.1-4.9-4.7c-0.1-2.6,2.1-4.8,4.7-4.9
							C219,90.1,221.2,92.2,221.2,94.9z"/>
					</g>
					<g>
						<path class="st63" d="M222.2,97.9l0,1c0,0.4-0.3,0.8-0.7,0.8l-9.1,0.2c-0.4,0-0.8-0.3-0.8-0.7l-0.1-4l9.6-0.2l0,1.5
							c0.2,0.2,0.4,0.4,0.6,0.6C222.1,97.2,222.2,97.5,222.2,97.9z"/>
					</g>
					<g>
						<g>
							<path class="st77" d="M225.8,100.1l-0.2,0l0-1.3c0-0.1-0.1-0.2-0.2-0.2l-0.9,0l0-0.2l0.9,0c0.3,0,0.5,0.2,0.5,0.4
								L225.8,100.1z"/>
						</g>
					</g>
					<g>
						<g>
							<path class="st73" d="M219.2,94.9c0,1.5-1.2,2.8-2.7,2.8c-1.5,0-2.8-1.2-2.8-2.7c0-1.5,1.2-2.8,2.7-2.8
								C217.9,92.2,219.1,93.4,219.2,94.9z"/>
						</g>
						<g>
							<path class="st80" d="M216.5,98.2c-1.8,0-3.3-1.4-3.3-3.2c0-1.8,1.4-3.3,3.2-3.3c1.8,0,3.3,1.4,3.3,3.2
								C219.7,96.7,218.3,98.2,216.5,98.2z M216.4,92.7c-1.3,0-2.3,1.1-2.2,2.3c0,1.3,1.1,2.3,2.3,2.2c1.3,0,2.3-1.1,2.2-2.3
								C218.7,93.7,217.6,92.7,216.4,92.7z"/>
						</g>
					</g>
				</g>
				<g>
					<g>
						<g>
							
								<rect x="209.3" y="100.3" transform="matrix(0.9999 -1.160350e-02 1.160350e-02 0.9999 -1.1805 2.6403)" class="st75" width="35.3" height="5.5"/>
						</g>
					</g>
				</g>
				<g>
					<g>
						<g>
							<g>
								<path class="st63" d="M233.3,96.6l-0.6,0.2c-0.3,0.1-0.6-0.1-0.7-0.4l-4.2-12.5l-0.1-0.4l1.1-0.4L233.3,96.6z"/>
							</g>
							<g>
								<path class="st63" d="M228.9,83.4l-0.4,0.1l-0.9-2.6c-0.1-0.2,0-0.5,0.3-0.5l0,0L228.9,83.4z"/>
							</g>
							<g>
								<path class="st66" d="M228.5,83.6c-0.1,0-0.1-0.2-0.4-0.1c-0.1,0-0.1,0.5-0.3,0.3c-0.2-0.2-0.2-0.3-0.2-0.3l0.1-2.1l0.4-0.1
									l0.7,2C228.9,83.4,228.8,83.5,228.5,83.6z"/>
							</g>
						</g>
						<g>
							<g>
								<path class="st61" d="M233.3,96.6l0.6-0.2c0.3-0.1,0.5-0.4,0.4-0.7l-4.2-12.5l-0.1-0.4l-1.1,0.4L233.3,96.6z"/>
							</g>
							<g>
								<path class="st61" d="M228.9,83.4l0.4-0.1l-0.9-2.6c-0.1-0.2-0.3-0.3-0.5-0.3l0,0L228.9,83.4z"/>
							</g>
							<g>
								<path class="st65" d="M229.3,83.4c0.1,0,0-0.2,0.2-0.3c0.1,0,0.4,0.3,0.4,0.1c0-0.3,0-0.4,0-0.4l-1.4-1.6l-0.4,0.1l0.7,2
									C228.9,83.4,229,83.5,229.3,83.4z"/>
							</g>
						</g>
					</g>
					<g>
						<g>
							<g>
								<path class="st81" d="M233.7,100l-0.7,0c-0.4,0-0.7-0.4-0.7-0.7l0.9-16l0-0.5l1.4,0.1L233.7,100z"/>
							</g>
							<g>
								<path class="st81" d="M234.6,83.2l-0.5,0l0.2-3.3c0-0.3,0.3-0.5,0.5-0.5l0,0L234.6,83.2z"/>
							</g>
							<g>
								<path class="st66" d="M234.1,83.3c-0.1,0-0.1-0.2-0.4-0.3c-0.1,0-0.3,0.5-0.4,0.2c-0.1-0.3-0.1-0.4-0.1-0.4l1.1-2.3l0.5,0
									l-0.1,2.6C234.6,83.1,234.5,83.3,234.1,83.3z"/>
							</g>
						</g>
						<g>
							<g>
								<path class="st79" d="M233.7,100l0.7,0c0.4,0,0.7-0.3,0.7-0.7l0.9-16l0-0.5l-1.4-0.1L233.7,100z"/>
							</g>
							<g>
								<path class="st79" d="M234.6,83.2l0.5,0l0.2-3.3c0-0.3-0.2-0.5-0.5-0.5h0L234.6,83.2z"/>
							</g>
							<g>
								<path class="st65" d="M235.1,83.3c0.1,0,0.1-0.2,0.4-0.2c0.1,0,0.3,0.5,0.4,0.2c0.1-0.3,0.1-0.4,0.1-0.4l-0.8-2.4l-0.5,0
									l-0.1,2.6C234.6,83.1,234.7,83.3,235.1,83.3z"/>
							</g>
						</g>
					</g>
					<g>
						<g>
							<polygon class="st61" points="233.4,99.7 230.8,99.7 228.8,88.8 233.4,88.8 							"/>
						</g>
						<g>
							<polygon class="st82" points="233.4,99.7 235.9,99.7 237.9,88.8 233.4,88.8 							"/>
						</g>
					</g>
				</g>
			</g>
			<polygon class="st83" points="409.4,25.9 403.5,161.6 399.4,161.6 396.9,158.4 337.4,158.4 335.2,161.6 331.5,161.6 325.1,29 			
				"/>
			<polygon class="st83" points="332,35.6 362.6,34.8 364.5,153.3 338.1,153.3 			"/>
			<polygon class="st83" points="413.2,25.8 409.4,25.9 325.1,29 321,29.1 321,26.5 413.1,23.2 			"/>
			<line class="st84" x1="321" y1="27.8" x2="413.1" y2="24.5"/>
			<g>
				<rect x="193.9" y="147.3" class="st85" width="19.6" height="1"/>
			</g>
			<g>
				<g>
					<polygon class="st75" points="193.7,165.6 213.6,165.8 213.6,162.6 193.7,162.3 					"/>
				</g>
			</g>
			<g>
				<g>
					<polygon class="st75" points="193.7,161.9 213.6,162.2 213.6,158.9 193.7,158.6 					"/>
				</g>
			</g>
			<g>
				<g>
					<polygon class="st75" points="193.7,158.2 213.6,158.5 213.6,155.2 193.7,154.9 					"/>
				</g>
			</g>
			<g>
				<g>
					<rect x="213" y="151.9" class="st85" width="2.1" height="14.8"/>
				</g>
				<g>
					<rect x="213" y="146.3" class="st86" width="2.1" height="7.1"/>
				</g>
			</g>
			<g>
				<g>
					<rect x="192" y="151.9" class="st85" width="2.1" height="14.8"/>
				</g>
				<g>
					<rect x="192" y="146.3" class="st86" width="2.1" height="7.1"/>
				</g>
			</g>
			<g>
				<g>
					<path class="st87" d="M96.2,97.9c-0.1,0-0.3,0-0.4,0l0.1-0.6c3.4,0.4,7.3-5,10.4-9.3c1.6-2.2,2.9-4,4-4.8
						c3.2-2.4,6.5-0.6,6.5-0.6l-0.3,0.5c-0.1-0.1-3-1.6-5.9,0.5c-1,0.7-2.3,2.6-3.9,4.7C103.6,92.6,99.7,97.9,96.2,97.9z"/>
				</g>
				<path class="st87" d="M119,83.8c0,0-1.9-1.3-2.3-1.2c0,0-0.4,0.4-0.3,0.6c0.1,0.2,1.1,1.1,1.6,1.5L119,83.8z"/>
				<g>
					<path class="st87" d="M150.7,35c0.7-2.7,2.8-4.5,4.7-4c1.9,0.5,3,3.1,2.3,5.8c-0.7,2.7-2.8,4.5-4.7,4
						C151.1,40.3,150.1,37.7,150.7,35z"/>
				</g>
				<polygon class="st34" points="167.2,91.9 160.7,74.9 160.7,51.7 152.3,62.1 151.1,77.3 151.8,79.7 163.2,93.6 				"/>
				<polygon class="st88" points="147.8,92.4 120.9,91.1 120.2,169.9 125.9,169.9 132.2,108.6 136.7,108.5 147.5,169.9 152.9,169.9 
									"/>
				<polygon class="st89" points="147.8,92.4 120.9,91.1 120.5,131.7 129.8,131.7 132.2,108.6 136.7,108.5 140.8,131.7 150.4,131.7 
									"/>
				<path class="st34" d="M120.2,95.6V74.4l7.3-27.8l33.2,5.2l-10.1,26.5l-2.1,17.4C139.9,98.1,131.9,97.8,120.2,95.6z"/>
				<path class="st90" d="M129.4,58.4l24.1,3c0,0-1.7,7-1.5,13l-1.5,3.8l-2.1,17.4l1.9,24.6l-31.1-1l-1-23.6l1.6-21.3
					C119.9,74.3,125.4,69.2,129.4,58.4z"/>
				<path class="st34" d="M127.5,46.6l18.9-1.5l14.3,6.7C160.7,51.7,129.5,50.3,127.5,46.6z"/>
				<path class="st91" d="M165,95.6c0,0,0.7,1,2.5,1c1.8,0.1,8.9,0,8.9,0s-1.8-1.7-3.1-2.5c-1.3-0.8-4-1.1-5.5-1.7
					C167.9,92.4,164.8,93.7,165,95.6z"/>
				<path class="st92" d="M174.1,96.6c0,0-1.5-1.1-3.6-0.8l0.6,0.8H174.1z"/>
				<polygon class="st91" points="162.5,93.6 165.1,95.7 168.1,93.6 167.9,90.9 				"/>
				<polygon class="st34" points="127.5,46.6 102,66.6 102,72 121.6,79.7 124,76 116.3,69.5 124.8,64.3 127.5,47.2 				"/>
				<path class="st93" d="M102,66.6V72l8,3.1l7.2-4.9l-0.8-0.7l6.1-3.7l-2.1,8.2c0,0,3.6-3.8,6.4-9.4c-0.3-0.6-2.5-5.5-2.5-5.5
					l-10.8,8l-3.5-1.9l3.5,4.5l-4.3,3l-6-1.7L102,66.6z"/>
				<polygon class="st94" points="125.4,77 121.4,73.5 118.3,78.9 121.7,79.9 				"/>
				<polygon class="st95" points="121.3,73.7 117.1,70.2 110,75.1 118.5,78.5 				"/>
				<polygon class="st95" points="163,93.4 167,91.4 161.9,77.9 154,82.4 				"/>
				<path class="st96" d="M136.6,45.9c0,0,3.9,4.3,8.4,4.7c4.5,0.4,8.1-2.4,8.1-2.4l-6.7-3.1L136.6,45.9z"/>
				<polygon class="st97" points="160.3,30.7 157.3,35.9 158.6,30.4 				"/>
				<path class="st96" d="M150.2,46.9c0,0,0.7-2.5,2.6-8.2l-9.1-3.8c0,0-0.8,7.1-4.2,10.7C139.6,45.6,145.5,50.6,150.2,46.9z"/>
				<path class="st97" d="M142.8,38.2c-1.1-1.3-0.6-7.1,0.7-12.6c0.9-3.8,3.9-4.3,4.9-3.8c1,0,3-0.1,5.3-0.1c6.9-0.1,7.5,6,6.8,8.5
					c-0.4,1.5-2,1.8-3.1,2.2C152.5,34.5,143.9,39.5,142.8,38.2z"/>
				<path class="st95" d="M142.5,39c-0.2,1.2,2.4,4.3,3.5,5.7c0.7,0.8,1.9,1.1,2.8,1.1c0.9,0.1,4.9-1.6,5.8-3.7
					c1-2.3,4.8-11.6,4.8-11.6l-13.1-4.6C146.4,25.9,142.7,37.8,142.5,39z"/>
				<path class="st97" d="M151.4,27.7c0,0-2.9-0.5-4.1,0.8c-1.1,1.3-2.1,5.5-2.1,5.5l-1.1-0.6l0.3-5.6l2.5-3.5l5.2,2L151.4,27.7z"/>
				<g>
					<path class="st95" d="M144.8,34c-0.5,1.5-1.1,2.6-2,2.2c-0.9-0.3-1.9-2-1.4-3.4c0.5-1.5,1.7-2.4,2.6-2
						C145,31.1,145.3,32.5,144.8,34z"/>
					<path class="st96" d="M144.1,33.7c-0.3,0.8-0.6,1.5-1.1,1.3c-0.5-0.2-1.1-1.1-0.8-1.9c0.3-0.8,0.9-1.3,1.5-1.2
						C144.2,32.1,144.4,32.9,144.1,33.7z"/>
				</g>
				<polygon class="st87" points="146.8,31.5 142.8,30.6 142.6,31.5 146.2,33.1 				"/>
				<path class="st97" d="M150.2,27.3c0,0,3.1,3.3,8.6,2.8C158.9,30.1,154,26.3,150.2,27.3z"/>
				<path class="st97" d="M160,21.8c0,0,4.3,5.3-3.4,7.2l0.8-6.7C157.3,22.3,159.5,22.9,160,21.8z"/>
				<path class="st97" d="M158.3,30.1c0,0,1.1,0.9,0.3,2.7l1.4-2.3l-0.5-0.9L158.3,30.1z"/>
				<path class="st97" d="M160.3,27.8c0,0,1.9-1.1,1.3-3.6c0,0,1.6,2.2-1,4.4L160.3,27.8z"/>
				<path class="st97" d="M151.5,27.5c0,0,0.8,2.5,5.8,3.4c0,0-5.6,0.3-6.7-3.4L151.5,27.5z"/>
				
					<rect x="152.2" y="27.6" transform="matrix(0.3288 -0.9444 0.9444 0.3288 70.3953 166.8125)" class="st87" width="0.7" height="12.5"/>
				<path class="st98" d="M158.3,36.3c0,0-1.3,4-3.7,3.5c-2.4-0.5-1.8-2.6-2.8-3s-1.9,1.8-4.5,0.6c-2.3-1-1.2-4.2-0.8-5.2
					L158.3,36.3z"/>
				<path class="st99" d="M119.3,119.2l31.1,1l-1.9-24.6l2.1-17.4l-4.9,12.8c0,0-18.1-1.4-19.3,0.3c-1.2,1.7,18.2,4.9,18.2,4.9
					l0.6,7.7l-22.1-1.7l-2.6-6.9l-1-15.7l-1.2,15.9L119.3,119.2z"/>
				<path class="st100" d="M158.1,36.2c-0.4,1-1.6,3.5-3.5,3.1c-2.4-0.5-1.8-2.6-2.8-3s-1.9,1.8-4.5,0.6c-0.8-0.3-1.2-0.9-1.3-1.6
					c0.1,0.9,0.4,1.7,1.4,2.1c2.7,1.1,3.6-1,4.5-0.6s0.4,2.5,2.8,3c2.4,0.5,3.7-3.5,3.7-3.5L158.1,36.2z"/>
				<polygon class="st101" points="99.7,102.2 84.2,170.4 85.8,170.4 105.1,102.2 				"/>
				<polygon class="st101" points="170.4,102.2 185.9,170.4 184.3,170.4 164.9,102.2 				"/>
				<polygon class="st102" points="102.9,102.2 84.7,170.4 85.8,170.4 105.1,102.2 				"/>
				<polygon class="st102" points="185.9,170.4 170.4,102.2 168.1,102.2 184.9,170.4 				"/>
				<polygon class="st90" points="131.1,45.9 130.6,58.9 132,59.1 132.5,45.7 				"/>
				<rect x="82.8" y="96.6" class="st101" width="103" height="5.8"/>
				<polygon class="st90" points="155.4,48.9 150.4,64.2 151.6,64.4 156.7,49.6 				"/>
				<path class="st99" d="M131.9,65.2l17.3,2.2C149.2,67.4,138.3,84.2,131.9,65.2z"/>
				<path class="st99" d="M129.4,58.4l24.1,3c0,0-0.2,1-0.4,1.7l-24.5-2.9C128.7,60.2,129.3,58.9,129.4,58.4z"/>
				<path class="st103" d="M131.1,92.3c-1.6-2.8-4.7-3.5-4.7-3.5h-9.6c-1.9,0-3.4,1.5-3.4,3.4v1.6c0,1.6,1.3,2.9,2.9,2.9h14.8
					L131.1,92.3L131.1,92.3z"/>
				<path class="st103" d="M131.1,92.2L131.1,92.2c-0.6-0.9-1.3-1.6-2-2.2c-0.5,0.6-0.8,1.8-0.8,3.2c0,1.5,0.4,2.8,1,3.4h1.2
					c0.3-0.2,0.5-0.6,0.6-1.1V92.2z"/>
				<path class="st103" d="M131.1,92.3c-1.6-2.8-4.7-3.5-4.7-3.5h-9.6c-1,0-1.9,0.5-2.6,1.2c1.4-0.1,3.2-0.2,5.7-0.2
					c5.4,0,7.6,1.7,7.6,3.1c0,1.4-2.5,2.7-7.9,2.7c-2.5,0-4.4-0.1-5.7-0.3c0.5,0.8,1.4,1.4,2.4,1.4h14.8L131.1,92.3L131.1,92.3z"/>
				<path class="st103" d="M129.9,91.4c-0.5,0-0.8,0.9-0.8,1.9s0.4,1.9,0.8,1.9h2v-3.8H129.9z"/>
				<path class="st103" d="M129.9,91.4c-0.5,0-0.8,0.9-0.8,1.9s0.4,1.9,0.8,1.9h2v-3.8H129.9z"/>
				<polygon class="st104" points="144.4,96.6 128.3,96.6 129.4,94.5 143.3,94.5 				"/>
				<rect x="130.2" y="94" class="st105" width="12.4" height="0.5"/>
				<path class="st106" d="M130.8,92.3c0,0-1.5-10.7,0.3-12c1.6-1.1,9.8-2.2,9.4-0.2c-0.2,0.9-2.5,2.2-2.2,3.2
					c0.2,0.8,1.7,0.2,2.2,0.5c0.5,0.2,1.1,1.1,1.2,4l0.3,5.5L130.8,92.3z"/>
				<path class="st107" d="M129.5,94h13.9c0,0,0-0.6,0-1.8c-9.4,0-13.9-0.8-13.9-0.8V94z"/>
				<path class="st106" d="M130.7,80.8c0,0-13.2-0.7-12.9,5.4c0.2,4.6,13.3,3.7,13.3,3.7v-1.6c0,0-11.2,1.1-11.2-1.8
					c0-2.2,10.9-2,10.9-2L130.7,80.8z"/>
				<g>
					<path class="st91" d="M129.4,82.4c0,0,0,4.5-1.5,4.6c-1,0.1-0.4-3.2-0.4-3.2L129.4,82.4z"/>
					<path class="st91" d="M127.5,82.9c0,0,0,4.5-1.5,4.6c-1,0.1-0.5-4-0.5-4L127.5,82.9z"/>
					<path class="st91" d="M125.7,82.6c0,0,0,4.5-1.3,4.6c-0.9,0.1-0.5-4-0.5-4L125.7,82.6z"/>
					<path class="st91" d="M124.1,82.3c0,0,0,4.5-1.3,4.6c-0.9,0.1-0.5-4-0.5-4L124.1,82.3z"/>
					<path class="st94" d="M124,76c0,0,6.5,4.4,5.3,7c-0.6,0.9-6.9,2.2-7.7-0.3c-0.6-2,0.2-4.1,0.2-4.1L124,76z"/>
				</g>
				<path class="st108" d="M134.4,84.7c0.8,0.5,5.2,0,6.5-0.3c-0.2-0.3-0.3-0.4-0.5-0.5c-0.5-0.3-2,0.3-2.2-0.5
					c-0.3-1,2-2.3,2.2-3.2c0-0.1,0-0.1,0-0.2c-0.2,0.2-0.8,0.5-1.9,1.2C136.1,82.6,133.5,84,134.4,84.7z"/>
				<path class="st109" d="M132.5,85.9c-0.3-0.1-0.7,0-1,0.2c-0.3,0.2-0.4,0.5-0.4,0.9c0,1.4,0.1,3.3,0.2,4.1c0,0,3,0.5,8.9,0.7
					c0,0,0.1-4.5-0.8-4.7C138.7,86.8,134.9,86.6,132.5,85.9z"/>
				<path class="st109" d="M131.1,83.8c0,0-0.4-2.4,0.6-3c1-0.7,6.4-1.2,6.7-0.8c0.2,0.3-2.2,1.3-3.7,2.5c-1.2,1-2,2.1-2.9,2.1
					C131.5,84.6,131.2,84.4,131.1,83.8z"/>
				<circle class="st106" cx="138.6" cy="90.5" r="0.5"/>
				<path class="st106" d="M136.8,90.4c0,0.2-0.2,0.4-0.4,0.4c-0.2,0-0.4-0.2-0.4-0.4c0-0.2,0.2-0.4,0.4-0.4
					C136.6,90,136.8,90.2,136.8,90.4z"/>
				<g>
					<g>
						<path class="st106" d="M138.6,87.9h-5.9c-0.1,0-0.2-0.1-0.2-0.2c0-0.1,0.1-0.2,0.2-0.2h5.9c0.1,0,0.2,0.1,0.2,0.2
							C138.8,87.8,138.7,87.9,138.6,87.9z"/>
					</g>
					<g>
						<path class="st106" d="M138.6,88.7h-5.9c-0.1,0-0.2-0.1-0.2-0.2s0.1-0.2,0.2-0.2h5.9c0.1,0,0.2,0.1,0.2,0.2
							S138.7,88.7,138.6,88.7z"/>
					</g>
					<g>
						<path class="st106" d="M138.6,89.6h-5.9c-0.1,0-0.2-0.1-0.2-0.2s0.1-0.2,0.2-0.2h5.9c0.1,0,0.2,0.1,0.2,0.2
							S138.7,89.6,138.6,89.6z"/>
					</g>
				</g>
				<polygon class="st102" points="105.1,102.4 99.7,102.4 96.2,117.6 100.8,117.6 				"/>
				<polygon class="st102" points="170.4,102.4 165,102.4 169.3,117.6 173.9,117.6 				"/>
				<rect x="82.8" y="96.6" class="st110" width="103" height="1"/>
				<path class="st111" d="M165.8,96.6c0,0,0.3,0.5,2.8,0.5c0,0,1.4,0.2,1.7,0.4c0.3,0.3,1.2,1.6,1.8,1.4c0.7-0.2,0.2-2.1,0.2-2.1
					l4.3,0l-0.2-0.2H165.8z"/>
				<g class="st20">
					<path class="st112" d="M87.6,98.8c0.9-0.1,1.8-0.2,2.6-0.2c2.6-0.1,5.2-0.2,7.7-0.3c2.6-0.1,5.2-0.2,7.8-0.3
						c4.9-0.1,9.8,0.1,14.5,0.4c5.5,0.3,11.1,0.5,16.7,0.3c5.9-0.2,11.8,0.1,17.5,0.5c2.6,0.2,5.4,0.3,8.1,0.4
						c1.7,0.1,3.3,0.1,4.9,0.1c3.3,0,6.2-0.2,9-0.5c1.2-0.1,2.7-0.1,4.3,0c1.8,0.1,3.7,0.2,5.2,0V99c-1.5,0.2-3.4,0.1-5.2,0
						c-1.6-0.1-3.1-0.2-4.3,0c-4,0.5-8.4,0.6-13.8,0.4c-2.7-0.1-5.4-0.3-8.1-0.4c-5.7-0.3-11.6-0.7-17.5-0.5
						c-5.6,0.2-11.2,0-16.7-0.3c-4.7-0.2-9.7-0.5-14.5-0.4c-2.6,0.1-5.2,0.2-7.8,0.3c-2.5,0.1-5.2,0.2-7.7,0.3
						c-0.8,0-1.6,0.1-2.6,0.2c-1.6,0.1-3.3,0.3-4.8,0.2V99C84.3,99.1,86.1,99,87.6,98.8z"/>
					<path class="st112" d="M177.7,97.1c2.7-0.1,5.4-0.2,8.1-0.3v-0.2h-3.4c-1.6,0.1-3.2,0.1-4.7,0.2c-8.2,0.4-16.6,0.7-25-0.2h-2.2
						c4.7,0.6,9.3,0.8,13.9,0.8C168.9,97.5,173.4,97.3,177.7,97.1z"/>
					<path class="st112" d="M86.7,97.1l0.1,0c1.1-0.1,2.2-0.2,3.3-0.3c0.9-0.1,1.9-0.1,2.9-0.2h-3.4c-0.9,0.1-1.9,0.1-2.8,0.2
						l-0.1,0c-1,0.1-2.6,0.2-3.9,0.1v0.3c0.4,0.1,0.9,0.1,1.4,0.1C85.1,97.3,86.1,97.2,86.7,97.1z"/>
					<path class="st112" d="M83.9,100.5c1.9-0.2,3.7-0.4,5.5-0.5c4.2-0.1,8.7-0.2,13.3,0c1.9,0.1,3.8,0.2,5.7,0.3
						c8.7,0.5,17.7,1,26.7,0.5c1.4-0.1,2.8-0.2,4.1-0.3c2.6-0.2,5.3-0.4,8-0.4c3.9,0,7.7,0.4,11.7,0.8l0.2,0
						c4.7,0.5,9.3,0.7,13.6,0.7c2.1,0,4.2-0.1,6.2-0.2c2-0.1,4.1-0.2,6.1-0.2c0,0,0,0,0.1,0c0.3,0,0.5,0,0.8,0v-0.3
						c-0.3,0-0.5,0-0.8,0c-2.1,0-4.2,0.1-6.2,0.2c-2,0.1-4.1,0.2-6.2,0.2c-4.4,0-8.9-0.2-13.6-0.7l-0.2,0c-4-0.4-7.8-0.8-11.7-0.8
						c-2.7,0-5.4,0.2-8,0.4c-1.3,0.1-2.7,0.2-4.1,0.3c-8.9,0.5-17.9,0-26.6-0.5c-1.9-0.1-3.8-0.2-5.7-0.3c-4.6-0.2-9.1-0.1-13.3,0
						c-1.8,0.1-3.6,0.3-5.5,0.5c-0.3,0-0.5,0.1-0.8,0.1c-0.1,0-0.1,0-0.2,0v0.3c0.1,0,0.2,0,0.2,0C83.3,100.6,83.6,100.6,83.9,100.5
						z"/>
					<path class="st112" d="M85.3,101.6c-0.6,0-1.2,0.1-1.8,0.2c-0.3,0-0.5,0.1-0.8,0.1v0.3c0.3,0,0.5-0.1,0.8-0.1
						c0.6-0.1,1.2-0.1,1.8-0.2c2.5-0.2,5.1-0.1,8.2,0c1.9,0.1,3.9,0.3,5.8,0.5h2.1c-2.6-0.3-5.3-0.7-8-0.8
						C90.5,101.4,87.9,101.4,85.3,101.6z"/>
					<path class="st112" d="M147.8,101.2c-2.3-0.2-4.5,0-6.9,0.2c-1.5,0.1-3,0.4-4.5,0.6c-1,0.2-2.1,0.3-3.1,0.4h2
						c0.4-0.1,0.8-0.1,1.2-0.2c1.5-0.2,3-0.5,4.5-0.6c2.4-0.2,4.6-0.3,6.9-0.2c2.2,0.2,4.5,0.5,6.7,0.9h1.5c-0.1,0-0.2,0-0.4-0.1
						C153.1,101.9,150.4,101.4,147.8,101.2z"/>
					<path class="st112" d="M129.9,97.1c0.7,0,1.6,0.1,2.4,0.1c1.9,0,4-0.1,6.2-0.5h-1.9c-2.5,0.3-4.9,0.3-6.7,0.2l-0.6,0
						c-0.8,0-1.6-0.1-2.4-0.1h-3.4c1.9,0.2,3.9,0.3,5.8,0.4L129.9,97.1z"/>
				</g>
				<path class="st91" d="M167.9,96.5c0,0,2.6,0.3,2.8,0.7c0.2,0.4,0.9,1.6,1.4,1.5c0.5-0.1,0.7-1.8-0.4-2.8
					C170.6,94.8,168.4,95.3,167.9,96.5z"/>
				<polygon class="st83" points="99.7,102.4 84.2,170.4 85.8,170.4 105.1,102.4 				"/>
				<polygon class="st83" points="170.6,102.4 185.9,170.4 184.3,170.4 165.1,102.4 				"/>
				<rect x="82.8" y="96.6" class="st83" width="103" height="5.8"/>
			</g>
		</g>
	</g>
</g>
<g id="lumbing">
</g>
<g id="Home_Cleaning">
</g>
</svg>
