<?xml version="1.0" encoding="utf-8"?>
<!-- Generator: Adobe Illustrator 22.1.0, SVG Export Plug-In . SVG Version: 6.00 Build 0)  -->
<svg version="1.1" xmlns="http://www.w3.org/2000/svg" xmlns:xlink="http://www.w3.org/1999/xlink" x="0px" y="0px"
	 viewBox="0 0 440.3 169.2" style="enable-background:new 0 0 440.3 169.2;" xml:space="preserve">
<style type="text/css">
	.st0{clip-path:url(#SVGID_2_);}
	.st1{opacity:0.5;fill:#AFDCC9;}
	.st2{fill:#AAD1D3;}
	.st3{fill:#FFFFFF;}
	.st4{fill:#AEAEAE;}
	.st5{fill:#3D3D3D;}
	.st6{fill:#248641;}
	.st7{fill:#AFBF37;}
	.st8{fill:#A7C1D1;}
	.st9{fill:#CEE4EE;}
	.st10{fill:#DEF2FD;}
	.st11{fill:#799DAD;}
	.st12{fill:#FCCA37;}
	.st13{fill:#0B2337;}
	.st14{fill:#92B0C6;}
	.st15{fill:#335769;}
	.st16{fill:#21628C;}
	.st17{fill:#EF4237;}
	.st18{fill:#0F3751;}
	.st19{fill:#7597B4;}
	.st20{opacity:0.5;}
	.st21{fill:#C4D9E6;}
	.st22{fill:#315463;}
	.st23{fill:#A7CFE4;}
	.st24{fill:#FFD160;}
	.st25{fill:#FFC627;}
	.st26{fill:#FFE095;}
	.st27{fill:#5C5C5C;}
	.st28{fill:#D3D3D3;}
	.st29{fill:#7D7D7D;}
	.st30{fill:#F05354;}
	.st31{fill:#6896CE;}
	.st32{fill:#E9A922;}
	.st33{fill:#FBB580;}
	.st34{fill:#006836;}
	.st35{fill:#005D32;}
	.st36{fill:#31312F;}
	.st37{fill:#333334;}
	.st38{fill:#282829;}
	.st39{fill:#EF3E4E;}
	.st40{fill:#989898;}
	.st41{fill:#FEE467;}
	.st42{fill:#FFDEAE;}
	.st43{fill:#713773;}
	.st44{clip-path:url(#SVGID_4_);}
	.st45{opacity:0.6;fill:#9D622D;}
	.st46{fill:#9D622D;}
	.st47{fill:#563622;}
	.st48{opacity:0.2;fill:#563622;}
	.st49{opacity:0.5;fill:#AB734B;}
	.st50{fill:#C6A861;}
	.st51{opacity:0.1;fill:#563622;}
	.st52{opacity:0.8;fill:#D4BA7E;}
	.st53{fill:#694328;}
	.st54{opacity:0.5;fill:#C6A861;}
	.st55{opacity:0.3;fill:#9D622D;}
	.st56{fill:#B67C3B;}
	.st57{opacity:0.1;fill:#9D622D;}
	.st58{fill:#C5944A;}
	.st59{fill:#86A9A9;}
	.st60{fill:#CAD7D6;}
	.st61{fill:#F15A41;}
	.st62{fill:#F47E6F;}
	.st63{fill:#ED4B24;}
	.st64{opacity:0.16;}
	.st65{fill:#FBB043;}
	.st66{fill:#F79326;}
	.st67{opacity:0.33;}
	.st68{fill:#D89655;}
	.st69{fill:#FDC375;}
	.st70{fill:#E5A66C;}
	.st71{fill:#178D8C;}
	.st72{fill:#46C1C4;}
	.st73{fill:#D23327;}
	.st74{opacity:0.34;}
	.st75{fill:#FDC375;stroke:#000000;stroke-width:0.5;stroke-miterlimit:10;}
	.st76{fill:#5D8986;}
	.st77{fill:#6F9998;}
	.st78{fill:#AACECC;}
	.st79{fill:#5278BC;}
	.st80{fill:#F26A55;}
	.st81{fill:#4471B7;}
	.st82{fill:#CD2927;}
	.st83{fill:none;stroke:#000000;stroke-width:0.5;stroke-miterlimit:10;}
	.st84{opacity:0.3;fill:none;stroke:#000000;stroke-width:0.5;stroke-miterlimit:10;}
	.st85{fill:#D89655;stroke:#000000;stroke-width:0.5;stroke-miterlimit:10;}
	.st86{fill:#E5A66C;stroke:#000000;stroke-width:0.5;stroke-miterlimit:10;}
	.st87{fill:#273339;}
	.st88{fill:#434343;}
	.st89{opacity:0.3;fill:#434343;}
	.st90{fill:#384850;}
	.st91{fill:#B0BEC5;}
	.st92{fill:#90A4AE;}
	.st93{opacity:0.3;fill:#4896A3;}
	.st94{fill:#D0D9DC;}
	.st95{fill:#FCB74E;}
	.st96{fill:#FAA32C;}
	.st97{fill:#2F160C;}
	.st98{opacity:0.3;fill:#0DBCD4;}
	.st99{opacity:0.3;fill:#384850;}
	.st100{opacity:0.3;fill:#05808A;}
	.st101{fill:#E1BF82;}
	.st102{opacity:0.4;fill:#E1BF82;}
	.st103{fill:#F4D3A8;}
	.st104{fill:#FFE8C8;}
	.st105{fill:#465B65;}
	.st106{fill:#E97924;}
	.st107{fill:#617D8C;}
	.st108{opacity:0.3;fill:#E97924;}
	.st109{fill:#F68B29;}
	.st110{opacity:0.5;fill:#E1BF82;}
	.st111{opacity:0.6;fill:#E1BF82;}
	.st112{fill:#D1A762;}
	.st113{clip-path:url(#SVGID_6_);}
	.st114{fill:#F8961D;}
	.st115{fill:#D02027;}
	.st116{fill:#010101;}
	.st117{fill:#F15622;}
	.st118{fill:#8ED3F5;}
	.st119{fill:#BD7148;}
	.st120{fill:#B4C1D1;}
	.st121{fill:#8495B0;}
	.st122{fill:#C9EBFC;}
	.st123{fill:#9E1C20;}
	.st124{opacity:0.4;fill:#5684C4;}
	.st125{fill:#FFDBA8;}
	.st126{fill:#E4C0AF;}
	.st127{fill:#873B1E;}
	.st128{fill:#232121;}
	.st129{fill:#00522A;}
	.st130{fill:#212121;}
	.st131{fill:#C0DEE1;}
	.st132{fill:#F89B35;}
	.st133{fill:#2B5263;}
	.st134{fill:#D8C9A9;stroke:#000000;stroke-width:0.25;stroke-miterlimit:10;}
	.st135{fill:#F6F0E0;stroke:#000000;stroke-width:0.25;stroke-miterlimit:10;}
	.st136{fill:#A49571;}
	.st137{fill:#CF7534;}
	.st138{fill:#43C2CC;}
	.st139{fill:#BABCBE;}
	.st140{fill:#E7E7E0;}
	.st141{fill:#47646B;}
	.st142{fill:#92C8E9;}
	.st143{fill:#5E9CC8;}
	.st144{fill:#D3223A;}
	.st145{fill:#3C80C2;}
	.st146{fill:#192F36;}
	.st147{fill:none;stroke:#000000;stroke-width:0.25;stroke-miterlimit:10;}
	.st148{fill:#2C5796;}
	.st149{opacity:0.2;}
	.st150{fill:#6BBE49;}
	.st151{fill:#D7BA2E;}
	.st152{fill:#B4A139;}
	.st153{fill:#B2C7CA;}
	.st154{fill:#EFBD9E;}
	.st155{fill:#E2A984;}
	.st156{fill:#96D7E3;}
	.st157{fill:#74BDCA;}
	.st158{fill:#F15F50;}
	.st159{fill:#EE5747;}
	.st160{fill:#E4CCB8;}
	.st161{fill:#E25E27;}
	.st162{fill:#B1BABF;}
	.st163{fill:#D5D8D8;}
	.st164{fill:#21BDC2;}
	.st165{fill:#16B5C0;}
	.st166{fill:#8B9E9F;}
	.st167{fill:#26465E;}
	.st168{fill:#335368;}
	.st169{fill:#EFEDEA;}
	.st170{fill:#E7E4E0;}
	.st171{fill:#D8D9D3;}
	.st172{fill:#FFFFFF;stroke:#000000;stroke-width:0.25;stroke-miterlimit:10;}
	.st173{fill:#DDDDDB;}
	.st174{fill:#948EA2;}
	.st175{fill:#B6BDCD;}
	.st176{fill:#ED1C24;}
	.st177{fill:#3A53A4;}
	.st178{fill:#778C8B;}
	.st179{fill:#649A9A;}
	.st180{fill:#557580;}
	.st181{fill:#45646C;}
	.st182{fill:#F38520;}
	.st183{fill:#E8BB4D;}
	.st184{clip-path:url(#SVGID_8_);}
	.st185{fill:#321D11;}
	.st186{fill:#744621;stroke:#000000;stroke-width:0.5;stroke-miterlimit:10;}
	.st187{fill:#EAA333;stroke:#000000;stroke-width:0.5;stroke-miterlimit:10;}
	.st188{fill:#522E16;}
	.st189{fill:#7A7E7F;}
	.st190{fill:#FFFFFF;stroke:#000000;stroke-width:0.5;stroke-miterlimit:10;}
	.st191{fill:#595D5D;stroke:#000000;stroke-width:0.5;stroke-miterlimit:10;}
	.st192{fill:#FBAD32;}
	.st193{fill:#595D5D;}
	.st194{fill:#84A14A;}
	.st195{fill:#484A4C;}
	.st196{fill:#35C5F1;}
	.st197{fill:#7AD1EC;}
	.st198{fill:#F05554;stroke:#000000;stroke-width:0.5;stroke-miterlimit:10;}
	.st199{opacity:0.2;fill:#FFFFFF;}
	.st200{fill:#35383A;}
	.st201{fill:#F05554;}
	.st202{opacity:0.56;fill:#5F2C30;stroke:#000000;stroke-width:0.5;stroke-miterlimit:10;}
	.st203{opacity:0.1;}
	.st204{fill:#818586;stroke:#000000;stroke-width:0.5;stroke-miterlimit:10;}
	.st205{fill:#B2A865;}
	.st206{fill:#674227;stroke:#000000;stroke-width:0.5;stroke-miterlimit:10;}
	.st207{fill:#DAD7C5;}
	.st208{fill:#B0A690;}
	.st209{fill:#DAD7C5;stroke:#000000;stroke-width:0.5;stroke-miterlimit:10;}
	.st210{fill:#BABCBE;stroke:#000000;stroke-width:0.5;stroke-miterlimit:10;}
	.st211{fill:#B0A690;stroke:#000000;stroke-width:0.5;stroke-miterlimit:10;}
	.st212{fill:#FBAD32;stroke:#000000;stroke-width:0.5;stroke-miterlimit:10;}
	.st213{fill:#674327;}
	.st214{fill:#84A14A;stroke:#000000;stroke-width:0.5;stroke-miterlimit:10;}
	.st215{fill:#E87F42;}
	.st216{fill:#503734;}
	.st217{fill:#6B5F64;}
	.st218{fill:#82807F;}
	.st219{fill:#96DAF8;}
	.st220{fill:#36BDD1;}
	.st221{fill:#BF4633;}
	.st222{fill:#EF7B48;}
	.st223{fill:#F9D4A4;}
	.st224{fill:#F7B995;}
	.st225{fill:#321210;}
	.st226{fill:#393143;}
</style>
<g id="electicals">
</g>
<g id="Carpentry">
</g>
<g id="lumbing">
</g>
<g id="Home_Cleaning">
	<g>
		<defs>
			<rect id="SVGID_7_" width="440.3" height="169.2"/>
		</defs>
		<clipPath id="SVGID_2_">
			<use xlink:href="#SVGID_7_"  style="overflow:visible;"/>
		</clipPath>
		<g class="st0">
			<g>
				<path class="st1" d="M293.5,103.8c0,2.3-1,4.1-2.2,4.1h-31.9c-1.2,0-2.2-1.8-2.2-4.1l0,0c0-2.3,1-4.1,2.2-4.1h31.9
					C292.5,99.7,293.5,101.5,293.5,103.8L293.5,103.8z"/>
				<path class="st1" d="M65.4,51c0,2.3-1.1,4.1-2.4,4.1H29c-1.3,0-2.4-1.8-2.4-4.1l0,0c0-2.3,1.1-4.1,2.4-4.1h34
					C64.3,46.9,65.4,48.7,65.4,51L65.4,51z"/>
				<path class="st1" d="M119.6,22.7c0,2.3-1.3,4.1-3,4.1h-43c-1.6,0-3-1.8-3-4.1l0,0c0-2.3,1.3-4.1,3-4.1h43
					C118.3,18.6,119.6,20.4,119.6,22.7L119.6,22.7z"/>
				<path class="st1" d="M203,68c0,2.3-1,4.1-2.3,4.1h-33.7c-1.3,0-2.3-1.8-2.3-4.1l0,0c0-2.3,1-4.1,2.3-4.1h33.7
					C202,63.9,203,65.7,203,68L203,68z"/>
				<path class="st1" d="M374.1,23.9c0,2.3-1.1,4.1-2.4,4.1h-35.3c-1.4,0-2.4-1.8-2.4-4.1l0,0c0-2.3,1.1-4.1,2.4-4.1h35.3
					C373,19.8,374.1,21.6,374.1,23.9L374.1,23.9z"/>
			</g>
			<rect x="-1.1" y="158.6" class="st2" width="441.4" height="10.6"/>
			<g>
				<polygon class="st185" points="308.2,169.9 304,169.9 304,161.2 308.2,161.2 308.2,169.9 				"/>
				<polygon class="st185" points="408.8,169.9 404.6,169.9 404.6,161.2 408.8,161.2 408.8,169.9 				"/>
				<path class="st186" d="M356.4,161.2h-58.1c-0.3,0-0.5-0.4-0.5-0.9v-29.7h58.6V161.2L356.4,161.2z"/>
				<path class="st186" d="M356.4,161.2h58.1c0.3,0,0.5-0.4,0.5-0.9v-29.7h-58.6V161.2L356.4,161.2z"/>
				<polygon class="st187" points="333.6,143.7 320.6,143.7 320.6,141.3 333.6,141.3 333.6,143.7 				"/>
				<polygon class="st187" points="392.3,143.7 379.2,143.7 379.2,141.3 392.3,141.3 392.3,143.7 				"/>
				<polygon class="st188" points="356.4,134.2 297.8,134.2 297.8,130.6 356.4,130.6 356.4,134.2 				"/>
				<polygon class="st188" points="415,134.2 356.4,134.2 356.4,130.6 415,130.6 415,134.2 				"/>
				<polygon class="st185" points="357.2,161.2 355.6,161.2 355.6,130.6 357.2,130.6 357.2,161.2 				"/>
				<polygon class="st186" points="417.7,130.6 295.1,130.6 295.1,127.9 417.7,127.9 417.7,130.6 				"/>
				<path class="st189" d="M312.5,121.8C312.5,121.8,312.5,121.8,312.5,121.8L312.5,121.8L312.5,121.8L312.5,121.8z"/>
				<path class="st189" d="M400.4,121.8L400.4,121.8C400.4,121.8,400.4,121.8,400.4,121.8L400.4,121.8L400.4,121.8z"/>
				<g>
					<path class="st190" d="M390.7,70.8v43.9c0,0.8-0.7,1.5-1.5,1.5h-65.5c-0.8,0-1.5-0.7-1.5-1.5V70.8c0-0.8,0.7-1.5,1.5-1.5h65.5
						C390,69.3,390.7,70,390.7,70.8z"/>
					<path class="st191" d="M390.7,114.7c0,0.8-0.7,1.5-1.5,1.5h-65.4c-0.8,0-1.5-0.7-1.5-1.5V70.8c0-0.8,0.7-1.5,1.5-1.5h65.4
						c0.8,0,1.5,0.7,1.5,1.5V114.7L390.7,114.7z M389.2,65.7h-65.4c-2.8,0-5.1,2.3-5.1,5.1v43.9c0,2.8,2.3,5.1,5.1,5.1h65.4
						c2.8,0,5.1-2.3,5.1-5.1V70.8C394.4,68,392,65.7,389.2,65.7L389.2,65.7z"/>
				</g>
				<path class="st192" d="M382.3,118.1c0,0.6-0.5,1.1-1.1,1.1c-0.6,0-1.1-0.5-1.1-1.1c0-0.6,0.5-1.1,1.1-1.1
					C381.8,117,382.3,117.5,382.3,118.1L382.3,118.1z"/>
				<path class="st193" d="M363.3,125.6h-13.5c1.7-3.4,1-2,2.9-5.8h7.6C362.5,123.9,361.7,122.3,363.3,125.6L363.3,125.6z"/>
				<path class="st194" d="M366.6,127.9h-19.5V127c0-0.8,0.6-1.5,1.5-1.5h16.6c0.8,0,1.5,0.6,1.5,1.5V127.9L366.6,127.9z"/>
				<polygon class="st195" points="361.9,122.7 351.3,122.7 352.8,119.8 360.4,119.8 361.9,122.7 				"/>
			</g>
			<g>
				<path class="st196" d="M308.6,132.5c-0.1,0-0.2,0-0.3,0c-0.1-1.1-1-1.9-2.1-1.9c-1.2,0-2.1,0.9-2.1,2.1c0,0.1,0,0.2,0,0.3
					c-0.2,0-0.3-0.1-0.5-0.1c-1.2,0-2.1,0.9-2.1,2.1c0,0.2,0,0.3,0.1,0.5c-0.3-0.1-0.6-0.3-0.9-0.3c-0.1-0.3-0.3-0.6-0.4-0.9
					c0.4-0.3,0.7-0.8,0.7-1.4c0-1-0.8-1.8-1.8-1.8c-0.9,0-1.6,0.6-1.8,1.4c-0.1,0-0.1,0-0.2,0c-0.4-0.8-1.3-1.4-2.3-1.4
					c-1,0-1.9,0.6-2.3,1.5c-0.3-0.3-0.8-0.4-1.2-0.4c-1.1,0-2,0.9-2,2c0,0.1,0,0.2,0,0.3c-1.4,0.5-2.5,1.8-2.5,3.4
					c0,2,1.6,3.6,3.6,3.6c1,0,1.9-0.4,2.5-1c0.7,0.2,1.6,0.1,2.2-0.2c0.9,0.4,2.1,0.5,3,0.1c0.5,0.4,1.2,0.7,1.9,0.7
					c0.6,0,1.2-0.2,1.7-0.6c0.3,0.1,0.7,0.1,1,0.1c0.6,0.5,1.3,0.7,2.1,0.7c0.9,0,1.7-0.3,2.3-0.9c0.4,0.1,0.8,0.2,1.2,0.2
					c2.2,0,4-1.8,4-4C312.6,134.2,310.8,132.5,308.6,132.5z"/>
				<g>
					<path class="st197" d="M308.6,133.6c-1.2,0-2.3,0.8-2.7,1.9c-0.3-0.1-0.6-0.2-0.9-0.2c-0.2,0-0.4,0-0.5,0.1
						c0.1-0.1,0.1-0.3,0.1-0.4c0-0.5-0.4-1-1-1c-0.5,0-1,0.4-1,1c0,0.5,0.4,0.9,0.8,1c-0.2,0.2-0.4,0.4-0.6,0.7c-0.1,0-0.2,0-0.3,0
						c-0.4,0-0.7,0.2-1,0.4c-0.3-0.5-0.9-0.8-1.5-0.8c-0.1,0-0.3,0-0.4,0c-0.1-1.5-1.3-2.7-2.8-2.7c-0.2,0-0.5,0-0.7,0.1
						c0,0,0-0.1,0-0.1c0-0.8-0.6-1.4-1.4-1.4c-0.8,0-1.4,0.6-1.4,1.4c0,0.7,0.4,1.2,1.1,1.3c-0.2,0.3-0.3,0.7-0.4,1.1
						c-0.1,0-0.2,0-0.2,0c-0.5,0-0.9,0.2-1.2,0.6c-0.4-0.7-1.2-1.2-2.1-1.2c-1.4,0-2.5,1.1-2.5,2.5c0,1.4,1.1,2.5,2.5,2.5
						c1,0,1.8-0.6,2.2-1.4c0.3,0.3,0.7,0.5,1.1,0.5c0.5,0,1-0.2,1.3-0.6c0.5,0.4,1.1,0.6,1.8,0.6c0.6,0,1.2-0.2,1.6-0.5
						c0.3,0.6,0.9,1,1.6,1c0.6,0,1.2-0.3,1.5-0.8c0.2,0.2,0.6,0.4,1,0.4c0.2,0,0.4,0,0.6-0.1c0.4,0.5,1.1,0.8,1.8,0.8
						c0.9,0,1.6-0.5,2-1.2c0.4,0.3,1,0.4,1.5,0.4c1.6,0,2.9-1.3,2.9-2.9C311.5,134.9,310.2,133.6,308.6,133.6z"/>
					<path class="st197" d="M299.1,132.2c-0.4,0-0.7,0.3-0.7,0.7c0,0.4,0.3,0.7,0.7,0.7c0.4,0,0.7-0.3,0.7-0.7
						C299.8,132.5,299.5,132.2,299.1,132.2z"/>
					<circle class="st197" cx="291.4" cy="134.1" r="0.8"/>
					<path class="st197" d="M306.3,131.7c-0.5,0-1,0.4-1,1c0,0.5,0.4,1,1,1c0.5,0,1-0.4,1-1C307.2,132.1,306.8,131.7,306.3,131.7z"
						/>
				</g>
				<path class="st198" d="M265.2,165.7c0.1,2.2,1.9,3.9,4.1,3.9h33.1c1.9,0,3.6-1.3,4-3.2l5.5-23.9h-48.1L265.2,165.7z"/>
				<polygon class="st149" points="264,146 279.8,146 264.8,160.1 264.9,161.8 284.1,146 311.1,145.9 311.9,142.5 263.8,142.5 				
					"/>
				<path class="st198" d="M311.2,138.1h-46.8c-2.4,0-4.4,2-4.4,4.4v0h55.6v0C315.6,140,313.7,138.1,311.2,138.1z"/>
				<path class="st199" d="M309.9,138.3c4.2,0.3,5.5,3.9,5.5,3.9S315.2,138,309.9,138.3z"/>
				<path class="st149" d="M294.9,139.3h-30c-1.6,0-2.9,0.8-3.2,2.4l0,0h35.6l0,0C297.6,140.2,296.4,139.3,294.9,139.3z"/>
				<path class="st198" d="M284.5,135h-12.1c-0.8,0-1.5,0.4-1.9,1.1l-1.2,2h18.4l-1.2-2C286,135.4,285.3,135,284.5,135z"/>
				<polygon class="st149" points="269.9,137 269.3,138.1 287.6,138.1 287,137 				"/>
				<path class="st200" d="M288.8,139.2c-0.4-0.6-1.3-0.6-1.8-0.2l-25.3,20.3c-0.3,0.2-0.3,0.6-0.1,0.9l0.9,1.1
					c0.2,0.3,0.6,0.3,0.9,0.1l25.3-20.3C289.2,140.6,289.2,139.8,288.8,139.2L288.8,139.2z"/>
				<path class="st201" d="M287.5,139.6c-0.3,0.1-0.5,0.5-0.4,0.8c0.1,0.3,0.5,0.5,0.8,0.4c0.3-0.1,0.5-0.5,0.4-0.8
					C288.2,139.6,287.8,139.4,287.5,139.6z"/>
				<polygon class="st199" points="305.5,166.3 310.2,146.3 308.1,146.3 				"/>
			</g>
			<g>
				
					<rect x="234.2" y="147.6" transform="matrix(0.9944 -0.106 0.106 0.9944 -14.5349 26.1645)" class="st202" width="9.1" height="4.3"/>
				
					<rect x="234.2" y="147.8" transform="matrix(0.9944 -0.106 0.106 0.9944 -14.5732 25.9268)" class="st203" width="4.5" height="4.3"/>
				<path class="st204" d="M243.5,151.4l-9,1c0,0-3.9,1.1-7.2,6.6c-1.1,1.9-1.1,3.8-0.5,5.4c1.1,3.2,4.3,5.1,7.7,5.1h27.9
					C253.8,165.6,257.1,151.4,243.5,151.4z"/>
				<path class="st199" d="M243.5,151.4c0,0,8.5,3.6,8.4,10.1c0.5,5.6,10.5,8,10.5,8C253.8,165.6,257.1,151.4,243.5,151.4z"/>
				<path class="st203" d="M227.3,159c-1.1,1.9-1.1,3.8-0.5,5.4c1.1,3.2,4.3,5.1,7.7,5.1l0-0.1c-3.2-4.7-2.2-11.2,2.5-14.5
					c2-1.3,4.2-3.2,6.6-3.6l-9,1C234.5,152.4,230.6,153.5,227.3,159z"/>
				<path class="st205" d="M228.2,51.2L228.2,51.2c-1,0.1-1.6,0.9-1.5,1.9l10.1,94.8l3.4-0.4l-10.1-94.8
					C230,51.7,229.2,51.1,228.2,51.2z M228.7,56.1c-0.5,0.1-1-0.6-1.1-1.5c-0.1-0.9,0.2-1.7,0.7-1.7c0.5-0.1,1,0.6,1.1,1.5
					C229.6,55.3,229.2,56,228.7,56.1z"/>
				<path class="st203" d="M227.7,54.6c-0.2-1.6,0.7-1.7,0.7-1.7c-0.1-1.1-0.2-1.7-0.2-1.7l0,0c-0.9,0.1-1.6,0.9-1.5,1.9l10.1,94.8
					l1.7-0.2c0,0-7.6-70.7-9.8-91.5C228.7,56.1,227.9,56.3,227.7,54.6z"/>
			</g>
			<path class="st3" d="M394.1,112.6L394.1,112.6c-0.1,2.1-1.8,3.9-3.9,3.9v0.1c2.1,0,3.9,1.7,3.9,3.9h0.1c0-2.1,1.7-3.9,3.9-3.9
				v-0.1C395.8,116.4,394.1,114.7,394.1,112.6z"/>
			<path class="st3" d="M341.6,59.3L341.6,59.3c-0.1,2.1-1.8,3.9-3.9,3.9v0.1c2.1,0,3.9,1.7,3.9,3.9h0.1c0-2.1,1.7-3.9,3.9-3.9v-0.1
				C343.3,63.2,341.6,61.5,341.6,59.3z"/>
			<path class="st3" d="M247.4,147.5L247.4,147.5c-0.1,2.1-1.8,3.9-3.9,3.9v0.1c2.1,0,3.9,1.7,3.9,3.9h0.1c0-2.1,1.7-3.9,3.9-3.9
				v-0.1C249.2,151.4,247.4,149.7,247.4,147.5z"/>
			<path class="st3" d="M311.5,131.5L311.5,131.5c-0.1,1.5-1.3,2.7-2.8,2.7v0.1c1.5,0,2.7,1.2,2.7,2.7h0.1c0-1.5,1.2-2.7,2.7-2.7
				v-0.1C312.7,134.2,311.5,132.9,311.5,131.5z"/>
			<path class="st3" d="M346.2,66.6L346.2,66.6c-0.1,1.4-1.2,2.6-2.7,2.6v0.1c1.4,0,2.6,1.2,2.6,2.6h0.1c0-1.4,1.2-2.6,2.6-2.6v-0.1
				C347.4,69.3,346.2,68.1,346.2,66.6z"/>
			<path class="st3" d="M389.4,117.1L389.4,117.1c0,1-0.8,1.7-1.8,1.7v0c1,0,1.7,0.8,1.7,1.7h0c0-1,0.8-1.7,1.7-1.7v0
				C390.2,118.8,389.4,118.1,389.4,117.1z"/>
			<g>
				<path class="st206" d="M89.3,169.6L89.3,169.6c-1.4,0-2.4-1.1-2.4-2.4v-10.5H93v6.7c0,0.6-1.1,3.9-1.4,4.5
					C91.3,168.9,90.4,169.6,89.3,169.6L89.3,169.6z"/>
				<path class="st206" d="M195.3,169.6L195.3,169.6c1.4,0,2.4-1.1,2.4-2.4v-10.5h-6.1v6.7c0,0.6,1.1,3.8,1.4,4.5
					C193.4,168.9,194.3,169.6,195.3,169.6L195.3,169.6z"/>
				<path class="st207" d="M142.3,88.3v39.2c0,5.2-4.3,9.3-9.3,9.3H89.8c-5.1,0-9.3-4.2-9.3-9.3V88.3c0-5.1,4.1-9.3,9.3-9.3H133
					C138,79.1,142.3,83.1,142.3,88.3L142.3,88.3z"/>
				<path class="st208" d="M97.9,103c1.7,3.2,2.3,3.5,5,5c-3.2,1.7-3.5,2.3-5,5c-1.7-3.2-2.3-3.5-5-5
					C95.6,106.5,96.2,106.2,97.9,103L97.9,103z"/>
				<path class="st208" d="M124.9,103c1.7,3.2,2.3,3.5,5,5c-3.2,1.7-3.5,2.3-5,5c-1.7-3.2-2.3-3.5-5-5
					C122.6,106.5,123.2,106.2,124.9,103L124.9,103z"/>
				<path class="st207" d="M204.1,88.3v39.2c0,5.1-4.2,9.3-9.3,9.3h-43.2c-5.2,0-9.3-4.2-9.3-9.3V88.3c0-5.1,4.2-9.3,9.3-9.3h43.2
					C199.9,79.1,204.1,83.2,204.1,88.3L204.1,88.3z"/>
				<polygon class="st208" points="194.6,138.7 90.1,138.7 90.1,136.8 194.6,136.8 194.6,138.7 				"/>
				<path class="st209" d="M71.6,120.5L71.6,120.5c-3.2,0-5.8,2.6-5.8,5.8c0,5.6,2.3,7.8,5.8,7.8l0,0v13.6h8.9c0-30.5,0-3.3,0-22.2
					C80.5,119.7,74.3,120.5,71.6,120.5L71.6,120.5z"/>
				<path class="st209" d="M213,121.5L213,121.5c3.2,0,5.8,2.6,5.8,5.8c0,5.6-2.3,7.8-5.8,7.8l0,0v13.6h-9c0-30.3,0-3.7,0-22.2
					C204.1,120.7,210.4,121.5,213,121.5L213,121.5z"/>
				<path class="st210" d="M213,147.7H71.6c0-4.9,4-9,9-9H204C209,138.7,213,142.7,213,147.7L213,147.7z"/>
				<path class="st211" d="M213,147.7c0,4.9-4,9-9,9H80.6c-5,0-9-4-9-9H213L213,147.7z"/>
				<path class="st208" d="M159.7,103c1.7,3.2,2.3,3.5,5,5c-3.2,1.7-3.5,2.3-5,5c-1.7-3.2-2.3-3.5-5-5
					C157.4,106.5,158,106.2,159.7,103L159.7,103z"/>
				<path class="st208" d="M186.7,103c1.7,3.2,2.3,3.5,5,5c-3.2,1.7-3.5,2.3-5,5c-1.7-3.2-2.3-3.5-5-5
					C184.4,106.5,185,106.2,186.7,103L186.7,103z"/>
				<path class="st83" d="M204.1,88.3v39.2c0,5.1-4.1,9.3-9.3,9.3h-43.2c-5.2,0-9.3-4.2-9.3-9.3c0,5.2-4.3,9.3-9.3,9.3H89.8
					c-5.1,0-9.3-4.1-9.3-9.3V88.3c0-5.1,4.1-9.3,9.3-9.3H133c5,0,9.3,4,9.3,9.3c0-5.1,4.1-9.3,9.3-9.3h43.2
					C200,79.1,204.1,83.2,204.1,88.3z"/>
				<path class="st3" d="M195,85L195,85c-0.1,2.1-1.8,3.9-3.9,3.9v0.1c2.1,0,3.9,1.7,3.9,3.9h0.1c0-2.1,1.7-3.9,3.9-3.9v-0.1
					C196.8,88.8,195,87.1,195,85z"/>
				<path class="st3" d="M181.5,145.8L181.5,145.8c-0.1,2.1-1.8,3.9-3.9,3.9v0.1c2.1,0,3.9,1.7,3.9,3.9h0.1c0-2.1,1.7-3.9,3.9-3.9
					v-0.1C183.2,149.7,181.5,147.9,181.5,145.8z"/>
				<path class="st3" d="M169.2,149.7L169.2,149.7c-0.1,1.5-1.3,2.7-2.8,2.7v0.1c1.5,0,2.7,1.2,2.7,2.7h0.1c0-1.5,1.2-2.7,2.7-2.7
					v-0.1C170.4,152.4,169.2,151.2,169.2,149.7z"/>
				<path class="st3" d="M75.2,117.9L75.2,117.9c-0.1,1.4-1.2,2.5-2.6,2.5v0.1c1.4,0,2.5,1.1,2.5,2.5h0.1c0-1.4,1.1-2.5,2.5-2.5
					v-0.1C76.4,120.5,75.2,119.3,75.2,117.9z"/>
				<path class="st3" d="M133.7,77.5L133.7,77.5c-0.1,1.4-1.2,2.5-2.6,2.5v0.1c1.4,0,2.5,1.1,2.5,2.5h0.1c0-1.4,1.1-2.5,2.5-2.5V80
					C134.8,80,133.7,78.9,133.7,77.5z"/>
				<path class="st83" d="M138.6,90.7v34.4c0,4.5-3.7,8.1-8.2,8.1H92.5c-4.5,0-8.1-3.6-8.1-8.1V90.7c0-4.5,3.6-8.1,8.1-8.1h37.9
					C134.8,82.6,138.6,86.1,138.6,90.7L138.6,90.7z"/>
				<path class="st83" d="M200.3,90.7v34.4c0,4.5-3.7,8.1-8.2,8.1h-37.9c-4.5,0-8.1-3.6-8.1-8.1V90.7c0-4.5,3.6-8.1,8.1-8.1h37.9
					C196.5,82.6,200.3,86.1,200.3,90.7L200.3,90.7z"/>
			</g>
			<g>
				<path class="st193" d="M43.6,161h11c2.5,0,4.6,2.1,4.6,4.6v1.9H39v-1.9C39,163,41.1,161,43.6,161L43.6,161z"/>
				<path class="st212" d="M72.9,27.7c-8.5,0-15.5,7-16.6,16c-0.2,1.3,0.8,2.4,2.1,2.4h28.9c1.3,0,2.3-1.2,2.1-2.4
					C88.4,34.7,81.4,27.7,72.9,27.7L72.9,27.7z"/>
				<path class="st213" d="M50.4,164.2h-2.7V38.8c0-13,14.1-21.3,25.6-14.7l-1.3,2.3c-9.8-5.6-21.7,1.4-21.7,12.3V164.2L50.4,164.2z
					"/>
				<path class="st214" d="M72.9,23.6c-2.4,0-4.3,2.1-4.3,4.8h8.7C77.2,25.7,75.3,23.6,72.9,23.6L72.9,23.6z"/>
				<path class="st3" d="M51.7,65.1L51.7,65.1c-0.1,2.1-1.8,3.9-3.9,3.9V69c2.1,0,3.9,1.7,3.9,3.9h0.1c0-2.1,1.7-3.9,3.9-3.9v-0.1
					C53.5,68.9,51.7,67.2,51.7,65.1z"/>
				<path class="st3" d="M87.9,30.8L87.9,30.8c-0.1,2.1-1.8,3.9-3.9,3.9v0.1c2.1,0,3.9,1.7,3.9,3.9h0.1c0-2.1,1.7-3.9,3.9-3.9v-0.1
					C89.6,34.7,87.9,32.9,87.9,30.8z"/>
				<path class="st3" d="M62.6,17.7L62.6,17.7c-0.1,1.4-1.2,2.5-2.6,2.5v0.1c1.4,0,2.5,1.1,2.5,2.5h0.1c0-1.4,1.1-2.5,2.5-2.5v-0.1
					C63.7,20.2,62.6,19.1,62.6,17.7z"/>
				<path class="st3" d="M58.4,25.7L58.4,25.7c-0.1,1.4-1.2,2.5-2.6,2.5v0.1c1.4,0,2.5,1.1,2.5,2.5h0.1c0-1.4,1.1-2.5,2.5-2.5v-0.1
					C59.6,28.2,58.4,27.1,58.4,25.7z"/>
			</g>
			<g>
				<g>
					<path class="st215" d="M137.3,154.2c0-0.1,0-0.2,0-0.2c0.1-0.2,0.3-0.3,0.4-0.2l8.1,3.1c0.2,0.1,0.3,0.3,0.2,0.4
						c-0.1,0.2-0.3,0.3-0.4,0.2l-8.1-3.1C137.4,154.4,137.4,154.3,137.3,154.2z"/>
				</g>
				<g>
					<path class="st215" d="M139,162.8c0-0.1,0-0.1,0-0.2c0.1-0.2,0.3-0.3,0.4-0.2l8.5,3.4c0.2,0.1,0.3,0.3,0.2,0.4
						c-0.1,0.2-0.3,0.3-0.4,0.2l-8.5-3.4C139.1,163,139,162.9,139,162.8z"/>
				</g>
				<g>
					<path class="st215" d="M131.2,155.4c0-0.1,0.1-0.1,0.1-0.2c0.2-0.1,0.4-0.1,0.5,0.1l2.9,4.1c0.1,0.2,0.1,0.4-0.1,0.5
						c-0.2,0.1-0.4,0.1-0.5-0.1l-2.9-4.1C131.2,155.6,131.2,155.5,131.2,155.4z"/>
				</g>
				<g>
					<path class="st215" d="M158.5,164.6c0-0.1,0-0.1,0-0.2c0.1-0.2,0.3-0.2,0.5-0.2l4.6,2.1c0.2,0.1,0.2,0.3,0.2,0.5
						c-0.1,0.2-0.3,0.2-0.5,0.2l-4.6-2.1C158.5,164.8,158.5,164.7,158.5,164.6z"/>
				</g>
				<g>
					<path class="st215" d="M156,162.3c0,0,0.1,0.1,0.1,0.2c0,0.2-0.1,0.4-0.3,0.4l-4.9,0.9c-0.2,0-0.4-0.1-0.4-0.3
						c0-0.2,0.1-0.4,0.3-0.4l4.9-0.9C155.8,162.2,155.9,162.2,156,162.3z"/>
				</g>
				<g>
					<path class="st215" d="M125.6,165.2c0-0.1,0-0.1,0-0.2c0-0.2,0.2-0.3,0.4-0.3l4.9,1.1c0.2,0,0.3,0.2,0.3,0.4
						c0,0.2-0.2,0.3-0.4,0.3l-4.9-1.1C125.7,165.4,125.6,165.3,125.6,165.2z"/>
				</g>
				<g>
					<g>
						<path class="st216" d="M90.5,153.2c-0.8,0-1.5-0.1-2.3-0.2c-3-0.6-5.5-2.4-7.1-4.9l-2.3-3.7c-1.1-1.8-3.4-2.3-5.2-1.2
							l-10.1,6.3l-2.1-3.4l10.1-6.3c3.6-2.2,8.4-1.1,10.7,2.5l2.3,3.7c1,1.6,2.6,2.8,4.5,3.2c1.9,0.4,3.8,0,5.4-1.1
							c4.2-2.9,5.7-8.3,3.6-12.9l-11.9-26.5c-1-2.3-0.5-4.8,1.2-6.6c1.8-1.7,4.3-2.2,6.6-1.2l7.6,3.4l-1.7,3.6l-7.6-3.4
							c-1.1-0.5-1.9,0.2-2.1,0.4c-0.2,0.2-0.9,1-0.4,2.1l11.9,26.5c2.9,6.4,0.8,13.9-5,17.8C94.8,152.5,92.7,153.2,90.5,153.2z"/>
					</g>
					<g>
						<g>
							
								<rect x="98.4" y="105.7" transform="matrix(0.4131 -0.9107 0.9107 0.4131 -37.5302 153.6272)" class="st217" width="4" height="0.4"/>
						</g>
						<g>
							<path class="st217" d="M90.5,153.2L90.5,153.2c-0.4,0-0.7,0-1.1-0.1l0.4-4c0.2,0,0.5,0,0.7,0L90.5,153.2z M91.6,153.1l-0.4-4
								c0.2,0,0.5-0.1,0.7-0.1l0.8,3.9C92.3,153,91.9,153.1,91.6,153.1z M88.3,152.9c-0.4-0.1-0.7-0.2-1.1-0.3l1.2-3.8
								c0.2,0.1,0.4,0.1,0.7,0.2L88.3,152.9z M93.7,152.7l-1.2-3.8c0.2-0.1,0.4-0.1,0.7-0.2l1.6,3.7
								C94.4,152.4,94.1,152.6,93.7,152.7z M86.2,152.3c-0.3-0.1-0.7-0.3-1-0.5l1.9-3.5c0.2,0.1,0.4,0.2,0.6,0.3L86.2,152.3z
								 M95.7,151.8l-1.9-3.5c0.2-0.1,0.4-0.2,0.6-0.4l2.3,3.3C96.4,151.4,96.1,151.6,95.7,151.8z M84.3,151.3
								c-0.3-0.2-0.6-0.4-0.9-0.7l2.6-3.1c0.2,0.1,0.4,0.3,0.6,0.4L84.3,151.3z M97.5,150.6l-2.5-3.1c0.2-0.2,0.4-0.3,0.6-0.5l2.7,3
								C98,150.2,97.8,150.4,97.5,150.6z M82.6,149.9c-0.3-0.3-0.5-0.5-0.7-0.8l3.1-2.5c0.1,0.2,0.3,0.4,0.5,0.5L82.6,149.9z
								 M99,149.2l-2.9-2.8c0.2-0.2,0.3-0.4,0.5-0.6l3.1,2.5C99.5,148.7,99.3,149,99,149.2z M64.6,148.6l-2.1-3.4l0.8-0.5l2.1,3.4
								L64.6,148.6z M81.2,148.2l-0.5-0.8l3.4-2.1l0.5,0.7L81.2,148.2z M66.1,147.6l-2.1-3.4l0.8-0.5l2.1,3.4L66.1,147.6z
								 M100.4,147.6l-3.3-2.3c0.1-0.2,0.3-0.4,0.4-0.6l3.4,2.1C100.7,147,100.6,147.3,100.4,147.6z M67.6,146.7l-2.1-3.4l0.8-0.5
								l2.1,3.4L67.6,146.7z M80.2,146.6l-0.5-0.8l3.4-2.1l0.5,0.8L80.2,146.6z M101.4,145.8l-3.6-1.8c0.1-0.2,0.2-0.5,0.3-0.7
								l3.7,1.5C101.7,145.2,101.6,145.5,101.4,145.8z M69.1,145.7l-2.1-3.4l0.8-0.5l2.1,3.4L69.1,145.7z M79.3,145.1l-0.5-0.8
								l3.4-2.1l0.5,0.8L79.3,145.1z M70.7,144.8l-2.1-3.4l0.8-0.5l2.1,3.4L70.7,144.8z M102.2,143.9l-3.8-1.3
								c0.1-0.2,0.1-0.5,0.2-0.7l3.9,1C102.4,143.2,102.3,143.6,102.2,143.9z M72.2,143.8l-2.1-3.4l0.8-0.5l2.1,3.4L72.2,143.8z
								 M78.4,143.8c-0.1-0.2-0.3-0.3-0.4-0.4l2.7-3c0.3,0.3,0.6,0.6,0.8,0.9L78.4,143.8z M77.6,143.1c-0.2-0.1-0.3-0.2-0.5-0.3
								l1.6-3.7c0.4,0.2,0.7,0.4,1.1,0.6L77.6,143.1z M73.7,143l-2-3.5c0.4-0.2,0.7-0.4,1.1-0.5l1.4,3.8
								C74,142.8,73.8,142.9,73.7,143z M76.5,142.6c-0.2,0-0.4-0.1-0.6-0.1l0.4-4c0.4,0,0.8,0.1,1.2,0.2L76.5,142.6z M74.8,142.5
								l-0.8-3.9c0.4-0.1,0.8-0.1,1.2-0.2l0.2,4C75.1,142.5,74.9,142.5,74.8,142.5z M102.7,141.9l-3.9-0.7c0-0.2,0.1-0.5,0.1-0.7
								l4,0.4C102.8,141.2,102.8,141.5,102.7,141.9z M103,139.8l-4-0.1c0-0.1,0-0.2,0-0.3c0-0.1,0-0.3,0-0.4l4-0.2
								c0,0.2,0,0.4,0,0.6C103,139.5,103,139.6,103,139.8z M98.9,138.2c0-0.2-0.1-0.5-0.1-0.7l3.9-0.7c0.1,0.3,0.1,0.7,0.2,1
								L98.9,138.2z M98.6,136.7c-0.1-0.2-0.1-0.5-0.2-0.7l3.8-1.3c0.1,0.3,0.2,0.7,0.3,1L98.6,136.7z M98.1,135.3l-0.3-0.8l3.7-1.6
								l0.3,0.6c0,0.1,0.1,0.2,0.1,0.3L98.1,135.3z M97.4,133.7l-0.4-0.8l3.7-1.6l0.4,0.8L97.4,133.7z M96.7,132l-0.4-0.8l3.7-1.6
								l0.4,0.8L96.7,132z M95.9,130.4l-0.4-0.8l3.7-1.6l0.4,0.8L95.9,130.4z M95.2,128.8l-0.4-0.8l3.7-1.6l0.4,0.8L95.2,128.8z
								 M94.5,127.1l-0.4-0.8l3.7-1.6l0.4,0.8L94.5,127.1z M93.7,125.5l-0.4-0.8L97,123l0.4,0.8L93.7,125.5z M93,123.9l-0.4-0.8
								l3.7-1.6l0.4,0.8L93,123.9z M92.3,122.2l-0.4-0.8l3.7-1.6l0.4,0.8L92.3,122.2z M91.5,120.6l-0.4-0.8l3.7-1.6l0.4,0.8
								L91.5,120.6z M90.8,119l-0.4-0.8l3.7-1.6l0.4,0.8L90.8,119z M90,117.3l-0.4-0.8l3.7-1.6l0.4,0.8L90,117.3z M89.3,115.7
								l-0.4-0.8l3.7-1.6L93,114L89.3,115.7z M88.6,114l-0.4-0.8l3.7-1.6l0.4,0.8L88.6,114z M87.8,112.4l-0.4-0.8l3.7-1.6l0.4,0.8
								L87.8,112.4z M87.1,110.8l-0.4-0.8l3.7-1.6l0.4,0.8L87.1,110.8z M86.4,109.1l-0.3-0.6c0-0.1-0.1-0.2-0.1-0.3l3.7-1.4
								c0,0,0,0.1,0,0.1l0.3,0.6L86.4,109.1z M98.6,107.3l-0.8-0.4l1.7-3.6l0.8,0.4L98.6,107.3z M85.6,106.9c0-0.3-0.1-0.5-0.1-0.8
								c0-0.2,0-0.4,0-0.6l4,0.4c0,0.1,0,0.1,0,0.2c0,0.1,0,0.2,0,0.2L85.6,106.9z M96.9,106.6l-0.8-0.4l1.7-3.6l0.8,0.4L96.9,106.6
								z M95.3,105.8l-0.8-0.4l1.7-3.6l0.8,0.4L95.3,105.8z M89.7,105.5l-3.8-1.3c0.1-0.4,0.3-0.8,0.6-1.2l3.4,2.2
								C89.8,105.3,89.7,105.4,89.7,105.5z M93.7,105.1l-0.8-0.4l1.7-3.6l0.8,0.4L93.7,105.1z M90.1,104.8l-2.8-2.9
								c0.3-0.3,0.7-0.6,1.1-0.8l2.1,3.4C90.4,104.6,90.2,104.7,90.1,104.8z M92.1,104.4c-0.1-0.1-0.3-0.1-0.4-0.1l0.6-4
								c0.4,0.1,0.9,0.2,1.3,0.4L92.1,104.4z M90.9,104.3l-1.3-3.8c0.4-0.1,0.9-0.2,1.3-0.3l0.3,4C91.2,104.2,91,104.3,90.9,104.3z"
								/>
						</g>
						<g>
							
								<rect x="62.3" y="145.5" transform="matrix(0.8513 -0.5247 0.5247 0.8513 -68.0804 54.7467)" class="st217" width="0.4" height="4"/>
						</g>
					</g>
					<g>
						<path class="st216" d="M123.6,159.7l18.4-9.6c0.5-0.3,0.7-0.9,0.4-1.3l-1.3-2.5c-0.3-0.5-0.9-0.7-1.3-0.4l-18.4,9.6
							c-0.5,0.3-0.7,0.9-0.4,1.3l1.3,2.5C122.5,159.7,123.1,159.9,123.6,159.7z"/>
						<polygon class="st218" points="108.7,113 128.8,152.6 133,150.4 112.1,109.8 101.4,103.8 99.4,108 						"/>
						<polygon class="st218" points="139,146 138.7,145.6 129.5,145.8 127.1,147 121.7,154.4 121.9,154.9 						"/>
						<path class="st219" d="M141.2,146.4l-0.2-0.4c-0.6-0.9-1.7-1.2-2.6-0.7l-16.6,8.6c-0.9,0.5-1.3,1.6-0.9,2.6l0.2,0.4
							L141.2,146.4z"/>
					</g>
					
						<rect x="61.9" y="142.6" transform="matrix(0.8612 -0.5082 0.5082 0.8612 -64.7806 53.5485)" class="st218" width="7.5" height="5.5"/>
					<path class="st219" d="M33.3,137.9h9.8c13.1,0,23.8,10.6,23.8,23.8v0c0,3.6-2.9,6.5-6.5,6.5H33.3c-3.6,0-6.5-2.9-6.5-6.5v-17.3
						C26.8,140.8,29.7,137.9,33.3,137.9z"/>
					<path class="st220" d="M58.3,163.4c0-9.5-7.7-17.3-17.3-17.3H26.8v16.1c0,3.3,2.7,6,6,6h25.4V163.4z"/>
					<path class="st221" d="M26.8,159.5v2.7c0,3.3,2.7,6,6,6h28.1c3.3,0,6-2.7,6-6v-2.3c0-0.1,0-0.2,0-0.3H26.8z"/>
					
						<ellipse transform="matrix(0.9872 -0.1595 0.1595 0.9872 -24.9356 7.2811)" class="st216" cx="32.9" cy="159" rx="9.7" ry="9.7"/>
					
						<ellipse transform="matrix(0.9872 -0.1597 0.1597 0.9872 -24.9644 7.292)" class="st220" cx="32.9" cy="159" rx="7.1" ry="7.1"/>
					<path class="st222" d="M32.9,140.9h4v-6.9c0-1.1-0.9-2-2-2l0,0c-1.1,0-2,0.9-2,2V140.9z"/>
				</g>
				<g>
					<path class="st223" d="M106.2,51.1l-4.6,7.1l4.1,10.6l3.7-4.3l2.2-3.7c0.4-0.7,1.3-0.9,2-0.4l1.6,1.1c0.6,0.4,1.5,0.3,1.9-0.4
						l2.6-3.8l2.1,0.5l0.9-4.9l4.4-7.4l-8.7-6.4c-1.7-1.2-3.9-1.3-5.7-0.3l0,0c-2.6,1.5-4.4,4-5.2,6.9L106.2,51.1z"/>
					<polygon class="st224" points="122.6,53 119.6,57.4 121.7,57.9 					"/>
					<path class="st225" d="M113.7,46.9l0.3,0.2c0.8,0.5,1.1,1.5,0.8,2.4l-0.6,1.7l0.8,0.8l4.1-2.7l0.8-1.4c0.3-0.6,1-0.8,1.6-0.5
						l3.5,1.7l2.1-3.5l-8.7-6.4c-1.7-1.2-3.9-1.3-5.7-0.3l0,0c-2.6,1.5-4.4,4-5.2,6.9l-1.2,5l4.7,0.9l-0.1-0.9
						c-0.1-0.8,0-1.6,0.4-2.4l0.7-1.5C112.4,46.6,113.1,46.5,113.7,46.9z"/>
					<polygon class="st223" points="76.6,77.7 70.4,73.5 58.9,89.3 55.4,89.1 51.9,94.3 55.4,98 62.5,91.7 					"/>
					<polygon class="st223" points="111.2,91 104.3,95.6 111.7,112.2 109.6,115 112.2,120.8 117.2,119.8 115.6,110.4 					"/>
					<polygon class="st37" points="67.8,161.5 75.6,161.5 88.1,97.1 71.4,97.1 					"/>
					<path class="st35" d="M71.4,97.1h25.8L116,69.1L110,64l-4.3,4.9l1.4-7.2c-1.7-1.2-5.6-4-7.5-4.9l-6.7-3.1L80.7,78.3L71.4,97.1z
						"/>
					<polygon class="st129" points="78.4,82.9 89.4,60.6 96.1,62.7 88.1,73.5 					"/>
					<polygon class="st35" points="76.6,77.7 70.4,73.5 92.9,53.7 100.8,59.1 					"/>
					<polygon class="st35" points="104.3,95.9 105.2,75 116,69.1 111.1,91.1 					"/>
					<polygon class="st129" points="104.3,95.9 104.7,87.2 113,78.6 107.1,88.6 					"/>
					<polygon class="st38" points="95.1,160.9 102.9,160.9 103.9,127.1 96,97.1 77.2,97.1 93.5,132.3 					"/>
					<path class="st35" d="M125.8,49c0,0,3.2-6.4,2.2-7.1c-0.2-0.2-3.6-2.9-6.6-4.3c-2.8-1.3-6-1.1-8.5,0.6l-0.4,0.2
						c-2.8,1.5-4.7,4.3-5,7.5l0,0l16.2,5.2l3.2,2.3c1.3,0.9,3,1.1,4.5,0.3l0.9-0.8L125.8,49z"/>
					<path class="st129" d="M123.7,47.6c0.4-1.1,0.6-2.3,0.8-3.4c-0.2-2-0.9-4-1.8-5.9c-0.4-0.2-0.9-0.4-1.3-0.6
						c-2.8-1.3-6-1.1-8.5,0.6l-0.4,0.2c-2.8,1.5-4.7,4.3-5,7.5l14.5,4.7C122.4,49.9,123.3,48.4,123.7,47.6z"/>
					<polygon class="st226" points="95.1,160.9 102.9,160.9 105.6,162.8 114.5,164.9 115.7,168 95.1,168 					"/>
					<polygon class="st226" points="68,161.5 75.2,161.5 75.2,168.6 65.9,168.6 					"/>
					<polygon class="st129" points="111,63.5 110.4,62.9 105.8,68.3 107.4,61.9 102.2,56.2 100.4,57.2 102.7,64.5 105.9,62.9 
						104.7,70.7 109.9,64.7 109.4,68.5 110,68.6 					"/>
				</g>
			</g>
		</g>
	</g>
</g>
</svg>
