<?xml version="1.0" encoding="utf-8"?>
<!-- Generator: Adobe Illustrator 16.0.0, SVG Export Plug-In . SVG Version: 6.00 Build 0)  -->
<!DOCTYPE svg PUBLIC "-//W3C//DTD SVG 1.1//EN" "http://www.w3.org/Graphics/SVG/1.1/DTD/svg11.dtd">
<svg version="1.1" id="Layer_1" xmlns="http://www.w3.org/2000/svg" xmlns:xlink="http://www.w3.org/1999/xlink" x="0px" y="0px"
	 width="22px" height="22px" viewBox="1 3 22 22" enable-background="new 1 3 22 22" xml:space="preserve">
<title>sweep</title>
<desc>Created with Sketch.</desc>
<g id="Page-1">
	<g id="UI---Screen-5" transform="translate(-12.000000, -248.000000)">
		<g id="sweep" transform="translate(13.000000, 249.000000)">
			<path id="Shape" fill="#98C03C" stroke="#98C03C" stroke-width="0.5" d="M19.65,14.539c0-0.923-0.747-1.674-1.663-1.674H15.99
				V4.494c0-0.923-0.746-1.674-1.664-1.674c-0.917,0-1.663,0.751-1.663,1.674v8.371h-1.996c-0.875,0-1.586,0.685-1.651,1.548
				l-0.345-0.347V4.159c0-0.739-0.597-1.339-1.331-1.339C6.606,2.82,6.01,3.42,6.01,4.159v9.907l-1.997,2.009v1.611
				c0,1.814-0.554,3.553-1.601,5.029L2.35,22.804v0.776h9.981v-0.776l-0.062-0.088c-0.046-0.063-0.085-0.131-0.128-0.194
				c0.03-0.007,0.063-0.01,0.093-0.017c0.34,0.654,1.013,1.075,1.76,1.075c0.572,0,1.115-0.251,1.492-0.68
				c0.058,0.008,0.115,0.011,0.172,0.011c0.917,0,1.664-0.751,1.664-1.675c0-0.115-0.015-0.227-0.037-0.334h2.365V14.539z
				 M13.328,4.494c0-0.554,0.448-1.004,0.998-1.004c0.551,0,0.999,0.451,0.999,1.004v8.371h-1.997V4.494z M4.679,17.218v-0.669
				h5.323v0.669H4.679z M8.006,6.838H6.675v-0.67h1.331V6.838z M7.34,3.49c0.367,0,0.666,0.3,0.666,0.669v1.339H6.675V4.159
				C6.675,3.79,6.973,3.49,7.34,3.49z M6.675,14.343V7.508h1.331v6.835l1.525,1.536H5.149L6.675,14.343z M9.97,22.911l-0.303-3.048
				L9.005,19.93l0.296,2.98H8.639l-0.302-3.047L7.675,19.93l0.296,2.979H6.71l0.296-2.979l-0.662-0.066L6.042,22.91H5.379
				l0.296-2.98l-0.662-0.066L4.71,22.911H3.088c1.004-1.493,1.545-3.221,1.583-5.023h5.338c0.039,1.803,0.58,3.53,1.583,5.023H9.97z
				 M15.658,22.241c-0.07,0-0.145-0.01-0.23-0.03l-0.219-0.053l-0.13,0.185c-0.252,0.355-0.657,0.568-1.085,0.568
				c-0.571,0-1.077-0.372-1.257-0.925l-0.112-0.342l-0.33,0.137c-0.171,0.07-0.351,0.111-0.531,0.122
				c-0.529-0.951-0.872-1.985-1.015-3.064c0.225-0.15,0.48-0.245,0.751-0.273l0.195-0.019l0.079-0.183
				c0.209-0.493,0.689-0.812,1.222-0.812c0.548,0,1.046,0.35,1.241,0.87l0.114,0.308l0.308-0.11
				c0.119-0.042,0.229-0.063,0.333-0.063c0.551,0,0.998,0.45,0.998,1.005c0,0.115-0.021,0.231-0.067,0.353l-0.107,0.287l0.272,0.133
				c0.352,0.171,0.568,0.517,0.568,0.901C16.656,21.789,16.209,22.241,15.658,22.241L15.658,22.241z M16.623,19.879
				c0.022-0.106,0.033-0.212,0.033-0.316c0-0.923-0.746-1.675-1.664-1.675c-0.087,0-0.173,0.008-0.26,0.022
				c-0.35-0.625-1.015-1.027-1.736-1.027c-0.733,0-1.402,0.403-1.75,1.044c-0.029,0.005-0.057,0.014-0.086,0.021l0.449-2.404h5.437
				l0.874,4.688h-0.937C16.883,20.099,16.764,19.978,16.623,19.879z M18.985,20.232h-0.391l-0.997-5.358h-6.542l-0.389,2.09v-0.889
				L9.669,15.07v-0.531c0-0.553,0.448-1.004,0.998-1.004h7.32c0.55,0,0.998,0.451,0.998,1.004V20.232z"/>
			<path id="Shape_1_" fill="#98C03C" d="M14.659,4.494c0,0.185-0.148,0.334-0.333,0.334c-0.184,0-0.332-0.149-0.332-0.334
				c0-0.185,0.148-0.335,0.332-0.335C14.511,4.159,14.659,4.31,14.659,4.494z"/>
			<polygon id="Shape_2_" fill="#98C03C" points="12.663,18.558 13.328,18.558 13.328,19.227 12.663,19.227 			"/>
			<polygon id="Shape_3_" fill="#98C03C" points="11.998,19.897 12.663,19.897 12.663,20.567 11.998,20.567 			"/>
			<polygon id="Shape_4_" fill="#98C03C" points="13.661,21.571 14.326,21.571 14.326,22.241 13.661,22.241 			"/>
			<polygon id="Shape_5_" fill="#98C03C" points="13.328,20.232 13.994,20.232 13.994,20.902 13.328,20.902 			"/>
			<polygon id="Shape_6_" fill="#98C03C" points="14.326,19.227 14.992,19.227 14.992,19.897 14.326,19.897 			"/>
			<polygon id="Shape_7_" fill="#98C03C" points="14.992,20.902 15.658,20.902 15.658,21.571 14.992,21.571 			"/>
		</g>
	</g>
</g>
</svg>
