<?xml version="1.0" encoding="UTF-8"?>
<svg width="40px" height="44px" viewBox="0 0 40 44" version="1.1" xmlns="http://www.w3.org/2000/svg" xmlns:xlink="http://www.w3.org/1999/xlink">
    <!-- Generator: Sketch 53 (72520) - https://sketchapp.com -->
    <title>Group 12</title>
    <desc>Created with Sketch.</desc>
    <g id="Page-1" stroke="none" stroke-width="1" fill="none" fill-rule="evenodd">
        <g id="UI---Screen-16" transform="translate(-78.000000, -360.000000)" fill="#FFFFFF">
            <g id="Group-12" transform="translate(78.000000, 360.125000)">
                <path d="M1.42696296,17.9239583 L7.13688889,17.9239583 L7.13688889,16.490625 L1.42696296,16.490625 L1.42696296,17.9239583 Z M4.99644444,15.0552083 L13.5602963,15.0552083 L13.5602963,10.0364583 L4.99644444,10.0364583 L4.99644444,15.0552083 Z M7.85244444,5.01979167 L10.7063704,5.01979167 L10.7063704,1.434375 L7.85244444,1.434375 L7.85244444,5.01979167 Z M7.47911111,6.45104167 L11.0776296,6.45104167 L12.7908148,8.60520833 L5.768,8.60520833 L7.47911111,6.45104167 Z M17.8453333,11.7677083 L19.5668148,10.0364583 L23.2586667,10.0364583 L26.4091852,13.203125 L26.4091852,15.0552083 L17.8453333,15.0552083 L17.8453333,11.7677083 Z M19.9857778,8.60520833 L22.8417778,8.60520833 L22.8417778,7.171875 L19.9857778,7.171875 L19.9857778,8.60520833 Z M22.8417778,1.434375 L26.4091852,1.434375 L26.4091852,3.240625 L23.3042963,5.73645833 L17.8951111,5.73645833 C18.2539259,3.26770833 20.357037,1.43645833 22.8417778,1.434375 L22.8417778,1.434375 Z M27.8382222,2.86770833 L29.2651852,2.86770833 L29.2651852,1.43645833 L27.8382222,1.43645833 L27.8382222,2.86770833 Z M19.9857778,17.9239583 L29.9786667,17.9239583 L29.9786667,16.490625 L19.9857778,16.490625 L19.9857778,17.9239583 Z M17.1297778,16.490625 L18.5588148,16.490625 L18.5588148,21.509375 C18.5567407,21.7822917 18.7102222,22.0322917 18.9528889,22.1552083 L23.2358519,24.3052083 C23.4453333,24.409375 23.602963,24.5927083 23.6755556,24.815625 C23.7481481,25.053125 23.7232593,25.3114583 23.602963,25.5322917 C23.3976296,25.946875 22.8977778,26.1135417 22.485037,25.9072917 C22.485037,25.9072917 22.482963,25.9072917 22.482963,25.9052083 L19.5854815,24.4510417 C19.2308148,24.278125 18.8035556,24.4239583 18.6293333,24.7802083 C18.5837037,24.878125 18.5588148,24.984375 18.5588148,25.0947917 L18.5588148,32.2635417 C18.5588148,33.0552083 17.92,33.6989583 17.1297778,33.6989583 L17.1297778,27.2447917 L15.7028148,27.2447917 L15.7028148,33.6989583 L14.2758519,33.6989583 L14.2758519,27.2447917 L12.8468148,27.2447917 L12.8468148,33.6989583 L11.4198519,33.6989583 L11.4198519,27.2447917 L9.99288889,27.2447917 L9.99288889,33.6989583 C9.20474074,33.6989583 8.56592593,33.0552083 8.56592593,32.2635417 L8.56592593,16.490625 L17.1297778,16.490625 Z M26.3573333,30.1135417 L25.6957037,30.1135417 C23.3312593,30.115625 21.4148148,32.040625 21.4127407,34.4135417 L21.4127407,38.715625 C21.4148148,39.2052083 21.4998519,39.690625 21.6637037,40.1489583 L6.33837037,40.1489583 L3.66696296,19.359375 L7.13688889,19.359375 L7.13688889,32.2635417 C7.13688889,33.846875 8.41659259,35.1302083 9.99288889,35.1302083 L17.1297778,35.1302083 C18.7081481,35.1302083 19.9857778,33.846875 19.9857778,32.2635417 L19.9857778,26.253125 L21.8503704,27.190625 C22.9765926,27.7489583 24.3413333,27.2822917 24.8971852,26.153125 L24.9034074,26.1385417 C25.1813333,25.5885417 25.226963,24.9489583 25.0340741,24.3635417 C24.8453333,23.778125 24.4263704,23.2927083 23.8788148,23.021875 L19.9857778,21.065625 L19.9857778,19.359375 L27.7407407,19.359375 L26.3573333,30.1135417 Z M32.9508148,31.9302083 C33.4548148,31.678125 34.0085926,31.546875 34.5706667,31.5447917 L35.6885926,31.5447917 C37.2648889,31.5447917 38.5425185,32.8302083 38.5425185,34.4135417 C38.5425185,35.996875 37.2648889,37.2822917 35.6885926,37.2822917 L34.5706667,37.2822917 C34.0085926,37.2802083 33.4548148,37.1510417 32.9508148,36.8989583 C31.528,36.1885417 29.8562963,36.1885417 28.4334815,36.8989583 C27.9294815,37.1510417 27.3757037,37.2802083 26.8136296,37.2822917 L25.6957037,37.2822917 C24.1194074,37.2822917 22.8417778,35.996875 22.8417778,34.4135417 C22.8417778,32.8302083 24.1194074,31.5447917 25.6957037,31.5447917 L26.8136296,31.5447917 C27.3757037,31.546875 27.9294815,31.678125 28.4334815,31.9302083 C29.8562963,32.640625 31.528,32.640625 32.9508148,31.9302083 L32.9508148,31.9302083 Z M35.6885926,41.584375 L34.5706667,41.584375 C34.0085926,41.584375 33.4548148,41.4510417 32.9508148,41.1989583 C31.528,40.4885417 29.8562963,40.4885417 28.4334815,41.1989583 C27.9294815,41.4510417 27.3757037,41.584375 26.8136296,41.584375 L25.6957037,41.584375 C24.1194074,41.584375 22.8417778,40.3010417 22.8417778,38.715625 L22.8417778,37.6135417 C23.6237037,38.321875 24.64,38.715625 25.6957037,38.715625 L26.8136296,38.715625 C27.5976296,38.715625 28.3712593,38.5322917 29.0722963,38.1802083 C30.0927407,37.671875 31.2915556,37.671875 32.312,38.1802083 C33.013037,38.5322917 33.7866667,38.715625 34.5706667,38.715625 L35.6885926,38.715625 C36.7442963,38.715625 37.7605926,38.321875 38.5425185,37.6135417 L38.5425185,38.715625 C38.5425185,40.3010417 37.2648889,41.584375 35.6885926,41.584375 L35.6885926,41.584375 Z M0.713481481,19.359375 L2.22755556,19.359375 L5.00266667,40.959375 C5.0482963,41.315625 5.35111111,41.584375 5.70992593,41.584375 L22.512,41.584375 C23.322963,42.4947917 24.4802963,43.015625 25.6957037,43.0177083 L26.8136296,43.0177083 C27.5976296,43.015625 28.3712593,42.8322917 29.0722963,42.4822917 C30.0927407,41.971875 31.2915556,41.971875 32.312,42.4822917 C33.013037,42.8322917 33.7866667,43.015625 34.5706667,43.0177083 L35.6885926,43.0177083 C38.053037,43.015625 39.9694815,41.090625 39.9715556,38.715625 L39.9715556,34.4135417 C39.9694815,32.040625 38.053037,30.115625 35.6885926,30.1135417 L34.5706667,30.1135417 C33.7866667,30.1135417 33.013037,30.296875 32.312,30.6489583 C31.2915556,31.1572917 30.0927407,31.1572917 29.0722963,30.6489583 C28.6657778,30.446875 28.2322963,30.303125 27.7863704,30.2177083 L29.1780741,19.359375 L30.6921481,19.359375 C31.0862222,19.359375 31.4056296,19.0364583 31.4056296,18.640625 L31.4056296,15.7739583 C31.4056296,15.378125 31.0862222,15.0552083 30.6921481,15.0552083 L27.8361481,15.0552083 L27.8361481,12.9052083 C27.8361481,12.7135417 27.7614815,12.5322917 27.6287407,12.3989583 L24.2687407,9.02395833 L24.2687407,6.796875 L25.3514074,5.928125 L27.1973333,9.640625 L28.474963,8.99895833 L26.4900741,5.01145833 L27.3736296,4.30104167 L29.9786667,4.30104167 C30.3727407,4.30104167 30.6921481,3.98020833 30.6921481,3.584375 L30.6921481,0.717708333 C30.6921481,0.319791667 30.3727407,0.00104166667 29.9786667,0.00104166667 L22.8417778,0.00104166667 C19.2951111,0.00520833333 16.4204444,2.890625 16.4162963,6.45104167 C16.4162963,6.84895833 16.7357037,7.16979167 17.1297778,7.16979167 L18.5588148,7.16979167 L18.5588148,9.02395833 L16.6257778,10.9635417 C16.493037,11.0989583 16.4162963,11.2822917 16.4162963,11.471875 L16.4162963,15.0552083 L14.9893333,15.0552083 L14.9893333,9.31979167 C14.9893333,9.23020833 14.9706667,9.14270833 14.9374815,9.06145833 C14.922963,9.034375 14.9084444,9.00729167 14.8939259,8.98020833 C14.8752593,8.94270833 14.8565926,8.90729167 14.8317037,8.87395833 L12.1354074,5.48645833 L12.1354074,0.717708333 C12.1354074,0.319791667 11.8139259,0.00104166667 11.4198519,0.00104166667 L7.13688889,0.00104166667 C6.74281481,0.00104166667 6.42340741,0.319791667 6.42340741,0.717708333 L6.42340741,5.48645833 L3.72503704,8.87395833 C3.70222222,8.90729167 3.68148148,8.94270833 3.66488889,8.98020833 C3.6482963,9.00729167 3.63377778,9.034375 3.62133333,9.06145833 C3.58814815,9.14270833 3.56948148,9.23020833 3.56948148,9.31979167 L3.56948148,15.0552083 L0.713481481,15.0552083 C0.319407407,15.0552083 0,15.378125 0,15.7739583 L0,18.640625 C0,19.0364583 0.319407407,19.359375 0.713481481,19.359375 L0.713481481,19.359375 Z" id="Fill-1"></path>
                <polygon id="Fill-3" points="34.9751111 34.4135417 36.4020741 34.4135417 36.4020741 32.9802083 34.9751111 32.9802083"></polygon>
                <polygon id="Fill-4" points="27.8361481 34.4135417 29.2631111 34.4135417 29.2631111 32.9802083 27.8361481 32.9802083"></polygon>
                <polygon id="Fill-5" points="24.9822222 35.1302083 26.4091852 35.1302083 26.4091852 33.6989583 24.9822222 33.6989583"></polygon>
                <polygon id="Fill-6" points="32.1191111 35.1302083 33.5460741 35.1302083 33.5460741 33.6989583 32.1191111 33.6989583"></polygon>
                <path d="M17.1304,16.4902083 L18.557363,16.4902083 L18.557363,21.5089583 C18.5552889,21.781875 18.7087704,22.031875 18.9535111,22.1547917 L23.2344,24.3047917 C23.4438815,24.4089583 23.6035852,24.5922917 23.6741037,24.8152083 C23.7487704,25.0527083 23.7238815,25.3110417 23.6035852,25.531875 C23.3982519,25.9464583 22.8963259,26.113125 22.4856593,25.9089583 C22.4856593,25.9089583 22.4835852,25.9089583 22.4835852,25.906875 L19.5861037,24.450625 C19.231437,24.2777083 18.8041778,24.425625 18.6299556,24.7797917 C18.5843259,24.8777083 18.557363,24.9839583 18.557363,25.094375 L18.557363,32.263125 C18.557363,33.0547917 17.9185481,33.6985417 17.1304,33.6985417 L17.1304,27.244375 L15.703437,27.244375 L15.703437,33.6985417 L14.2764741,33.6985417 L14.2764741,27.244375 L12.847437,27.244375 L12.847437,33.6985417 L11.4204741,33.6985417 L11.4204741,27.244375 L9.99351111,27.244375 L9.99351111,33.6985417 C9.20536296,33.6985417 8.56654815,33.0547917 8.56654815,32.263125 L8.56654815,16.4902083 L17.1304,16.4902083 Z" id="Fill-7"></path>
                <polygon id="Fill-9" points="17.8442963 11.768125 19.5678519 10.036875 23.2597037 10.036875 26.4102222 13.2014583 26.4102222 15.055625 17.8442963 15.055625"></polygon>
                <polygon id="Fill-10" points="7.85244444 5.01979167 10.7063704 5.01979167 10.7063704 1.434375 7.85244444 1.434375"></polygon>
            </g>
        </g>
    </g>
</svg>