<?xml version="1.0" encoding="UTF-8"?>
<svg width="70px" height="70px" viewBox="0 0 70 70" version="1.1" xmlns="http://www.w3.org/2000/svg" xmlns:xlink="http://www.w3.org/1999/xlink">
    <!-- Generator: Sketch 53 (72520) - https://sketchapp.com -->
    <title>Tap </title>
    <desc>Created with Sketch.</desc>
    <defs>
        <linearGradient x1="5.63673899%" y1="-11.1485635%" x2="51.5179728%" y2="97.7255544%" id="linearGradient-1">
            <stop stop-color="#64C866" offset="0%"></stop>
            <stop stop-color="#6EDADA" offset="100%"></stop>
        </linearGradient>
    </defs>
    <g id="Page-1" stroke="none" stroke-width="1" fill="none" fill-rule="evenodd">
        <path d="M37.57775,12.8473808 L37.57775,14.7520797 L41.83375,14.7520797 C42.9829167,14.7520797 44.0008333,15.5438369 44.3158333,16.6761991 L45.6779167,21.6239345 L58.1408333,21.6239345 L58.1408333,19.6818886 C58.1408333,18.2298358 59.2958333,17.0436939 60.71625,17.0436939 L67.4245833,17.0436939 C68.845,17.0436939 70,18.2298358 70,19.6818886 L70,42.5890673 C70,44.0441079 68.845,45.2272621 67.4245833,45.2272621 L60.71625,45.2272621 C59.2958333,45.2272621 58.1408333,44.0441079 58.1408333,42.5890673 L58.1408333,40.6470214 L49.3616667,40.6470214 C47.7458333,46.022007 42.4754167,49.8075027 36.3679167,49.8075027 L33.635,49.8075027 C27.5275,49.8075027 22.2570833,46.022007 20.64125,40.6470214 L20.46625,40.6470214 C19.4220833,40.6470214 18.5704167,41.5194482 18.5704167,42.5890673 L18.5704167,47.169308 C18.5704167,48.6243486 17.4125,49.8075027 15.995,49.8075027 L10.9814714,49.8075027 C12.4139149,52.4930646 15.9588333,59.4991963 15.9588333,63.1669861 C15.9588333,66.9405307 12.96925,70 9.2855,70 C5.60175,70 2.61508333,66.9405307 2.61508333,63.1669861 C2.61508333,59.4991963 6.15791411,52.4930646 7.5897147,49.8075027 L2.57833333,49.8075027 C1.15791667,49.8075027 0,48.6243486 0,47.169308 L0,38.0088267 C0.00875,28.9827948 7.18375,21.6358856 15.9920833,21.6239345 L24.325,21.6239345 L25.6870833,16.6761991 C25.9991667,15.5438369 27.02,14.7520797 28.1691667,14.7520797 L32.4210833,14.7520797 L32.4210833,12.8473808 L23.8215833,12.8473808 C20.3624167,12.8473808 17.55075,9.96717729 17.55075,6.4236904 C17.55075,2.88319127 20.3624167,2.84217094e-14 23.8215833,2.84217094e-14 L46.18075,2.84217094e-14 C49.6399167,2.84217094e-14 52.4515833,2.88319127 52.4515833,6.4236904 C52.4515833,9.96717729 49.6399167,12.8473808 46.18075,12.8473808 L37.57775,12.8473808 Z M23.8215833,5.97552595 C23.5795,5.97552595 23.3840833,6.17570607 23.3840833,6.4236904 C23.3840833,6.67167473 23.5795,6.87185485 23.8215833,6.87185485 L46.18075,6.87185485 C46.4228333,6.87185485 46.61825,6.67167473 46.61825,6.4236904 C46.61825,6.17570607 46.4228333,5.97552595 46.18075,5.97552595 L23.8215833,5.97552595 Z M5.15375,44.5305157 L13.4166667,44.5305157 L13.4166667,42.585482 C13.4254167,38.6117573 16.5870833,35.3730222 20.46625,35.3700344 L20.5391667,35.3700344 L22.8725,26.9027142 L15.995,26.9027142 C10.0245833,26.9116775 5.1625,31.8952661 5.15375,38.0082292 L5.15375,44.5305157 Z M25.2886667,37.5776925 C25.487,41.4319067 29.1824167,44.530217 33.63325,44.530217 L36.3690833,44.530217 C40.8199167,44.530217 44.5153333,41.4319067 44.7136667,37.5776925 L39.8836667,20.0305605 L30.1186667,20.0305605 L25.2886667,37.5776925 Z M49.462,35.3688393 L58.142,35.3688393 L58.142,26.9045068 L47.1286667,26.9045068 L49.462,35.3688393 Z M63.294,39.9487812 L64.8485833,39.9487812 L64.8485833,22.3209796 L63.294,22.3209796 L63.294,39.9487812 Z" id="Tap-" fill="url(#linearGradient-1)" fill-rule="nonzero"></path>
    </g>
</svg>