<?xml version="1.0" encoding="UTF-8"?>
<svg width="39px" height="48px" viewBox="0 0 39 48" version="1.1" xmlns="http://www.w3.org/2000/svg" xmlns:xlink="http://www.w3.org/1999/xlink">
    <!-- Generator: Sketch 53 (72520) - https://sketchapp.com -->
    <title>Group 23</title>
    <desc>Created with Sketch.</desc>
    <defs>
        <polygon id="path-1" points="0 0.374234617 38.0266667 0.374234617 38.0266667 25.7880878 0 25.7880878"></polygon>
    </defs>
    <g id="Page-1" stroke="none" stroke-width="1" fill="none" fill-rule="evenodd">
        <g id="UI---Screen-16" transform="translate(-78.000000, -191.000000)">
            <g id="Group-23" transform="translate(78.000000, 191.551724)">
                <path d="M33.5762222,15.9797643 L33.5762222,3.18758573 C33.5762222,3.18758573 32.494,0.844247469 31.4095556,0.844247469 C30.3273333,0.844247469 27.9428889,0.203764158 27.6184444,4.4663664 C27.294,8.73334054 27.6184444,17.0443219 27.6184444,17.0443219 L33.5762222,17.0443219 L33.5762222,15.9797643 Z" id="Fill-1"></path>
                <path d="M10.1386667,15.9797643 L10.1386667,3.18758573 C10.1386667,3.18758573 9.05644444,0.844247469 7.972,0.844247469 C6.88977778,0.844247469 4.50533333,0.203764158 4.18088889,4.4663664 C3.85644444,8.73334054 4.18088889,17.0443219 4.18088889,17.0443219 L10.1386667,17.0443219 L10.1386667,15.9797643 Z" id="Fill-3"></path>
                <g id="Group-9" transform="translate(0.000000, 16.163166)">
                    <mask id="mask-2" fill="white">
                        <use xlink:href="#path-1"></use>
                    </mask>
                    <g id="Clip-8"></g>
                    <path d="M3.088,1.80821773 C2.19466667,1.80821773 1.46577778,2.52302334 1.46577778,3.40177518 L1.46577778,15.6780696 C1.46577778,20.458742 5.41688889,24.3475468 10.2835556,24.3475468 L27.7502222,24.3475468 C32.6102222,24.3475468 36.5613333,20.458742 36.5613333,15.6780696 L36.5613333,3.40177518 C36.5613333,2.52302334 35.8413333,1.80821773 34.948,1.80821773 L3.088,1.80821773 Z M27.7502222,25.7880878 L10.2835556,25.7880878 C4.61022222,25.7880878 -0.000888888889,21.2522418 -0.000888888889,15.6780696 L-0.000888888889,3.40177518 C-0.000888888889,1.73170948 1.38577778,0.374234617 3.088,0.374234617 L34.948,0.374234617 C36.648,0.374234617 38.028,1.73170948 38.028,3.40177518 L38.028,15.6780696 C38.028,21.2522418 33.4191111,25.7880878 27.7502222,25.7880878 L27.7502222,25.7880878 Z" id="Fill-7" fill="#FFFFFF" mask="url(#mask-2)"></path>
                </g>
                <path d="M9.82,17.2543917 L9.82,3.78456864 C9.82,2.59759786 8.83333333,1.62485017 7.62666667,1.62485017 L7.38222222,1.62485017 C6.16666667,1.62485017 5.18888889,2.59759786 5.18888889,3.78456864 L5.18888889,17.2543917 C5.18888889,17.6478627 4.85777778,17.9713833 4.45333333,17.9713833 C4.05333333,17.9713833 3.72222222,17.6478627 3.72222222,17.2543917 L3.72222222,3.78456864 C3.72222222,1.80191211 5.36222222,0.184309204 7.38222222,0.184309204 L7.61777778,0.184309204 C9.64222222,0.184309204 11.2777778,1.80191211 11.2777778,3.78456864 L11.2777778,17.2543917 C11.2844444,17.6478627 10.9555556,17.9713833 10.5488889,17.9713833 C10.1488889,17.9713833 9.82,17.6478627 9.82,17.2543917 Z" id="Fill-10" fill="#FFFFFF"></path>
                <path d="M32.8384444,17.2543917 L32.8384444,3.78456864 C32.8384444,2.59759786 31.854,1.62485017 30.6451111,1.62485017 L30.4095556,1.62485017 C29.194,1.62485017 28.2073333,2.59759786 28.2073333,3.78456864 L28.2073333,17.2543917 C28.2073333,17.6478627 27.8784444,17.9713833 27.4806667,17.9713833 C27.0717778,17.9713833 26.7495556,17.6478627 26.7495556,17.2543917 L26.7495556,3.78456864 C26.7495556,1.80191211 28.3873333,0.184309204 30.4095556,0.184309204 L30.6451111,0.184309204 C32.6673333,0.184309204 34.3051111,1.80191211 34.3051111,3.78456864 L34.3051111,17.2543917 C34.3051111,17.6478627 33.974,17.9713833 33.5762222,17.9713833 C33.1673333,17.9713833 32.8384444,17.6478627 32.8384444,17.2543917 Z" id="Fill-12" fill="#FFFFFF"></path>
                <path d="M14.2577778,45.3259227 L23.7777778,45.3259227 L23.7777778,41.9508161 L14.2577778,41.9508161 L14.2577778,45.3259227 Z M24.5066667,46.7664637 L13.5222222,46.7664637 C13.1222222,46.7664637 12.7933333,46.4429431 12.7933333,46.0494721 L12.7933333,41.2338246 C12.7933333,40.8316098 13.1222222,40.5102752 13.5222222,40.5102752 L24.5066667,40.5102752 C24.9044444,40.5102752 25.2355556,40.8316098 25.2355556,41.2338246 L25.2355556,46.0494721 C25.2355556,46.4429431 24.9044444,46.7664637 24.5066667,46.7664637 L24.5066667,46.7664637 Z" id="Fill-14" fill="#FFFFFF"></path>
                <polygon id="Fill-16" fill="#263238" points="16.8813333 33.9006186 18.6591111 29.0915288 16.4168889 28.4597893 20.6257778 23.5392162 19.368 27.8411655 21.6102222 28.475091"></polygon>
                <path d="M17.7026667,28.0728762 L18.8604444,28.4007687 C18.8893333,28.4095125 18.9182222,28.4160703 18.9448889,28.431372 C18.8537778,28.3679794 18.7826667,28.2849133 18.7226667,28.1931034 C18.6315556,28.0247853 18.6093333,27.8280498 18.6671111,27.64443 L18.9737778,26.59736 L17.7026667,28.0728762 Z M19.0826667,28.5013224 C19.1804444,28.5734587 19.2604444,28.6652686 19.3115556,28.7614504 C19.4026667,28.9428843 19.416,29.1483635 19.3448889,29.3385412 L18.9448889,30.4271442 L20.3182222,28.8510744 L19.1693333,28.5297397 C19.1382222,28.5231819 19.1093333,28.5144381 19.0826667,28.5013224 L19.0826667,28.5013224 Z M16.8804444,34.6176101 C16.7582222,34.6176101 16.6315556,34.5891928 16.516,34.5192424 C16.2093333,34.3421804 16.0737778,33.9858706 16.196,33.6536062 L17.7026667,29.5702519 L16.216,29.1549214 C15.9715556,29.084971 15.7871111,28.910095 15.716,28.6696405 C15.6448889,28.4379298 15.6937778,28.1843596 15.8515556,27.996368 L20.0671111,23.0757948 C20.2893333,22.8156668 20.6671111,22.7500883 20.9693333,22.9074767 C21.276,23.067051 21.4248889,23.4124311 21.3248889,23.7446955 L20.2671111,27.3493268 L21.8115556,27.777773 C22.0537778,27.8477234 22.2404444,28.0291572 22.3115556,28.2630538 C22.3826667,28.5013224 22.3271111,28.7548926 22.1693333,28.9385124 L17.4382222,34.3727837 C17.2937778,34.534544 17.0893333,34.6176101 16.8804444,34.6176101 L16.8804444,34.6176101 Z" id="Fill-17" fill="#FFFFFF"></path>
                <path d="M19.722,29.025076 L19.722,29.0316338 L19.7264444,29.0272619 L19.722,29.025076 Z M18.9442222,30.7563483 C18.8886667,30.7563483 18.8308889,30.7410466 18.7775556,30.7104433 C18.6375556,30.6295632 18.5775556,30.4656169 18.6308889,30.3169723 L19.0308889,29.2283693 C19.0708889,29.1234437 19.0642222,29.0097743 19.0131111,28.9070347 C18.9842222,28.8567578 18.9397778,28.804295 18.8864444,28.7671339 C18.7486667,28.6687661 18.7086667,28.4829604 18.7953333,28.3386877 C18.8797778,28.1900431 19.0642222,28.1288365 19.222,28.2053448 C19.222,28.2053448 19.2264444,28.2075307 19.242,28.2097167 L20.4086667,28.5354232 C20.5175556,28.5682124 20.6042222,28.6512785 20.6375556,28.7583901 C20.6686667,28.8655016 20.6442222,28.979171 20.5708889,29.066609 L19.1975556,30.6404929 C19.1331111,30.7148152 19.0397778,30.7563483 18.9442222,30.7563483 L18.9442222,30.7563483 Z" id="Fill-18" fill="#FFFFFF"></path>
                <path d="M18.2897778,27.8977816 L18.3053333,27.9021535 C18.3031111,27.8955957 18.3031111,27.8890378 18.3031111,27.88248 L18.2897778,27.8977816 Z M18.9453333,28.7612318 C18.8897778,28.7612318 18.8342222,28.7459302 18.7831111,28.7175128 L17.6097778,28.3896203 C17.5031111,28.3568311 17.4164444,28.273765 17.3831111,28.1666535 C17.352,28.0617279 17.3742222,27.9436866 17.4497778,27.8606205 L18.7208889,26.3872903 C18.8231111,26.267063 18.992,26.2299019 19.132,26.3085961 C19.2697778,26.3829184 19.3386667,26.5403068 19.2942222,26.6889513 L18.9875556,27.7360213 C18.9542222,27.838761 18.9675556,27.9436866 19.0186667,28.0376824 C19.0475556,28.0835874 19.0897778,28.1294923 19.1386667,28.1644675 C19.2831111,28.2650212 19.3208889,28.4595707 19.2253333,28.6060294 C19.1631111,28.7043971 19.0564444,28.7612318 18.9453333,28.7612318 L18.9453333,28.7612318 Z" id="Fill-19" fill="#FFFFFF"></path>
                <path d="M10.5488889,17.9713833 C10.1488889,17.9713833 9.82,17.6478627 9.82,17.2543917 L9.82,3.78456864 C9.82,2.59759786 8.83333333,1.62485017 7.62666667,1.62485017 L7.38222222,1.62485017 C6.16666667,1.62485017 5.18888889,2.59759786 5.18888889,3.78456864 L5.18888889,17.2543917 C5.18888889,17.6478627 4.85777778,17.9713833 4.45333333,17.9713833 C4.05333333,17.9713833 3.72222222,17.6478627 3.72222222,17.2543917 L3.72222222,3.78456864 C3.72222222,1.80191211 5.36222222,0.184309204 7.38222222,0.184309204 L7.61777778,0.184309204 C9.64222222,0.184309204 11.2777778,1.80191211 11.2777778,3.78456864 L11.2777778,17.2543917 C11.2844444,17.6478627 10.9555556,17.9713833 10.5488889,17.9713833" id="Fill-20" fill="#FFFFFF"></path>
                <path d="M33.5762222,17.9713833 C33.1673333,17.9713833 32.8384444,17.6478627 32.8384444,17.2543917 L32.8384444,3.78456864 C32.8384444,2.59759786 31.854,1.62485017 30.6451111,1.62485017 L30.4095556,1.62485017 C29.194,1.62485017 28.2073333,2.59759786 28.2073333,3.78456864 L28.2073333,17.2543917 C28.2073333,17.6478627 27.8784444,17.9713833 27.4806667,17.9713833 C27.0717778,17.9713833 26.7495556,17.6478627 26.7495556,17.2543917 L26.7495556,3.78456864 C26.7495556,1.80191211 28.3873333,0.184309204 30.4095556,0.184309204 L30.6451111,0.184309204 C32.6673333,0.184309204 34.3051111,1.80191211 34.3051111,3.78456864 L34.3051111,17.2543917 C34.3051111,17.6478627 33.974,17.9713833 33.5762222,17.9713833" id="Fill-21" fill="#FFFFFF"></path>
                <polygon id="Fill-22" fill="#68C29D" points="14.2577778 45.3259227 23.7777778 45.3259227 23.7777778 41.9508161 14.2577778 41.9508161"></polygon>
            </g>
        </g>
    </g>
</svg>