<?xml version="1.0" encoding="utf-8"?>
<!-- Generator: Adobe Illustrator 16.0.0, SVG Export Plug-In . SVG Version: 6.00 Build 0)  -->
<!DOCTYPE svg PUBLIC "-//W3C//DTD SVG 1.1//EN" "http://www.w3.org/Graphics/SVG/1.1/DTD/svg11.dtd">
<svg version="1.1" id="Layer_1" xmlns="http://www.w3.org/2000/svg" xmlns:xlink="http://www.w3.org/1999/xlink" x="0px" y="0px"
	 width="70px" height="70px" viewBox="221 221 70 70" enable-background="new 221 221 70 70" xml:space="preserve">
<linearGradient id="SVGID_1_" gradientUnits="userSpaceOnUse" x1="221.7515" y1="256.2803" x2="290.8086" y2="256.2803">
	<stop  offset="0" style="stop-color:#6DC067"/>
	<stop  offset="1" style="stop-color:#79CDD1"/>
</linearGradient>
<path fill="url(#SVGID_1_)" d="M290.809,259.518c0-1.788-1.449-3.237-3.237-3.237h-30.212c-1.612-0.004-2.98,1.182-3.205,2.776
	c-0.226,1.596,0.761,3.114,2.31,3.557l1.427,6.291c-2.507-0.658-4.664-2.255-6.024-4.46c0.062-0.198,0.095-0.404,0.097-0.61v-37.766
	c0-2.383-1.933-4.316-4.316-4.316s-4.316,1.933-4.316,4.316v37.766c0.002,0.204,0.035,0.409,0.097,0.604
	c-1.83,2.967-5.062,4.778-8.547,4.789h-0.183c-0.595,0-1.078,0.483-1.078,1.079v2.158h-10.791c-0.596,0-1.079,0.483-1.079,1.079
	v5.396c0,0.596,0.483,1.079,1.079,1.079h1.108c-1.79,3.096-1.49,6.974,0.756,9.756l0.502,0.63c0.205,0.255,0.514,0.404,0.842,0.404
	h43.161h0.028h11.984c0.504,0.001,0.941-0.348,1.054-0.841l2.684-11.84c1.938-0.546,3.48-2.013,4.125-3.92
	c0.646-1.907,0.308-4.011-0.904-5.619l-0.813-1.079l1.11-4.892C289.85,262.221,290.805,260.956,290.809,259.518z M245.49,226.068
	c0-1.192,0.966-2.158,2.158-2.158s2.158,0.966,2.158,2.158v37.766h-4.316V226.068z M235.778,271.354
	c3.732-0.288,7.128-2.262,9.225-5.362h5.288c2.096,3.101,5.494,5.074,9.227,5.362v1.111h-23.739V271.354z M223.91,277.86v-3.237
	h47.476v3.237H223.91z M268.731,288.65h-42.175l-0.18-0.225c-1.926-2.387-1.926-5.795,0-8.183l0.18-0.225h42.175
	C270.89,282.491,270.89,286.178,268.731,288.65z M280.351,288.65h-9.018c1.531-2.672,1.54-5.951,0.024-8.632h1.107
	c0.596,0,1.079-0.483,1.079-1.079v-5.396c0-0.596-0.483-1.079-1.079-1.079h-10.789v-2.158c0-0.596-0.483-1.079-1.079-1.079h-0.183
	c-0.081,0-0.159-0.014-0.24-0.016l-1.464-6.457h8.36v3.236c0,0.596,0.482,1.079,1.078,1.079h2.737l7.729,9.133
	c1.028,1.215,2.491,1.979,4.076,2.131L280.351,288.65z M269.228,264.913v-2.158h4.316v2.158H269.228z M283.173,276.2
	c-1.125-0.026-2.186-0.532-2.913-1.39l-6.548-7.74h0.911c0.596,0,1.079-0.483,1.079-1.079v-3.236h10.519L283.173,276.2z
	 M286.282,274.828c-0.217,0.246-0.463,0.463-0.733,0.647l1.169-5.159C287.547,271.761,287.371,273.57,286.282,274.828z
	 M287.571,260.597h-30.212c-0.596,0-1.079-0.483-1.079-1.079s0.483-1.079,1.079-1.079h30.212c0.596,0,1.079,0.483,1.079,1.079
	S288.167,260.597,287.571,260.597z"/>
<linearGradient id="SVGID_2_" gradientUnits="userSpaceOnUse" x1="282.1758" y1="250.3457" x2="289.7295" y2="250.3457">
	<stop  offset="0" style="stop-color:#6DC067"/>
	<stop  offset="1" style="stop-color:#79CDD1"/>
</linearGradient>
<path fill="url(#SVGID_2_)" d="M285.953,254.122c-2.086,0-3.777-1.69-3.777-3.776s1.691-3.777,3.777-3.777s3.776,1.691,3.776,3.777
	S288.039,254.122,285.953,254.122z M285.953,248.727c-0.894,0-1.619,0.725-1.619,1.619s0.726,1.618,1.619,1.618
	c0.895,0,1.618-0.724,1.618-1.618S286.848,248.727,285.953,248.727z"/>
<linearGradient id="SVGID_3_" gradientUnits="userSpaceOnUse" x1="273.5439" y1="241.1738" x2="282.1758" y2="241.1738">
	<stop  offset="0" style="stop-color:#6DC067"/>
	<stop  offset="1" style="stop-color:#79CDD1"/>
</linearGradient>
<path fill="url(#SVGID_3_)" d="M277.86,245.49c-2.384,0-4.316-1.933-4.316-4.316s1.933-4.316,4.316-4.316s4.315,1.933,4.315,4.316
	S280.244,245.49,277.86,245.49z M277.86,239.016c-1.191,0-2.158,0.966-2.158,2.158s0.967,2.158,2.158,2.158s2.158-0.966,2.158-2.158
	S279.052,239.016,277.86,239.016z"/>
<linearGradient id="SVGID_4_" gradientUnits="userSpaceOnUse" x1="229.3047" y1="258.4385" x2="231.4629" y2="258.4385">
	<stop  offset="0" style="stop-color:#6DC067"/>
	<stop  offset="1" style="stop-color:#79CDD1"/>
</linearGradient>
<path fill="url(#SVGID_4_)" d="M229.305,257.359h2.158v2.158h-2.158V257.359z"/>
<linearGradient id="SVGID_5_" gradientUnits="userSpaceOnUse" x1="232.542" y1="261.6758" x2="234.6992" y2="261.6758">
	<stop  offset="0" style="stop-color:#6DC067"/>
	<stop  offset="1" style="stop-color:#79CDD1"/>
</linearGradient>
<path fill="url(#SVGID_5_)" d="M232.542,260.597h2.157v2.158h-2.157V260.597z"/>
<linearGradient id="SVGID_6_" gradientUnits="userSpaceOnUse" x1="229.3047" y1="264.9121" x2="231.4629" y2="264.9121">
	<stop  offset="0" style="stop-color:#6DC067"/>
	<stop  offset="1" style="stop-color:#79CDD1"/>
</linearGradient>
<path fill="url(#SVGID_6_)" d="M229.305,263.834h2.158v2.157h-2.158V263.834z"/>
<linearGradient id="SVGID_7_" gradientUnits="userSpaceOnUse" x1="226.0679" y1="261.6758" x2="228.2256" y2="261.6758">
	<stop  offset="0" style="stop-color:#6DC067"/>
	<stop  offset="1" style="stop-color:#79CDD1"/>
</linearGradient>
<path fill="url(#SVGID_7_)" d="M226.068,260.597h2.158v2.158h-2.158V260.597z"/>
<linearGradient id="SVGID_8_" gradientUnits="userSpaceOnUse" x1="259.5176" y1="246.5688" x2="261.6758" y2="246.5688">
	<stop  offset="0" style="stop-color:#6DC067"/>
	<stop  offset="1" style="stop-color:#79CDD1"/>
</linearGradient>
<path fill="url(#SVGID_8_)" d="M259.518,245.49h2.158v2.158h-2.158V245.49z"/>
<linearGradient id="SVGID_9_" gradientUnits="userSpaceOnUse" x1="262.7549" y1="249.8062" x2="264.9131" y2="249.8062">
	<stop  offset="0" style="stop-color:#6DC067"/>
	<stop  offset="1" style="stop-color:#79CDD1"/>
</linearGradient>
<path fill="url(#SVGID_9_)" d="M262.755,248.727h2.158v2.158h-2.158V248.727z"/>
<linearGradient id="SVGID_10_" gradientUnits="userSpaceOnUse" x1="259.5176" y1="253.043" x2="261.6758" y2="253.043">
	<stop  offset="0" style="stop-color:#6DC067"/>
	<stop  offset="1" style="stop-color:#79CDD1"/>
</linearGradient>
<path fill="url(#SVGID_10_)" d="M259.518,251.964h2.158v2.158h-2.158V251.964z"/>
<linearGradient id="SVGID_11_" gradientUnits="userSpaceOnUse" x1="256.2803" y1="249.8062" x2="258.4385" y2="249.8062">
	<stop  offset="0" style="stop-color:#6DC067"/>
	<stop  offset="1" style="stop-color:#79CDD1"/>
</linearGradient>
<path fill="url(#SVGID_11_)" d="M256.28,248.727h2.158v2.158h-2.158V248.727z"/>
<linearGradient id="SVGID_12_" gradientUnits="userSpaceOnUse" x1="230.3838" y1="246.5688" x2="241.1738" y2="246.5688">
	<stop  offset="0" style="stop-color:#6DC067"/>
	<stop  offset="1" style="stop-color:#79CDD1"/>
</linearGradient>
<path fill="url(#SVGID_12_)" d="M235.778,251.964c-0.596,0-1.079-0.483-1.079-1.079c0-1.788-1.449-3.237-3.236-3.237
	c-0.596,0-1.079-0.483-1.079-1.079s0.483-1.079,1.079-1.079c1.788,0,3.236-1.45,3.236-3.237c0-0.596,0.483-1.079,1.079-1.079
	s1.079,0.483,1.079,1.079c0,1.787,1.45,3.237,3.237,3.237c0.596,0,1.079,0.483,1.079,1.079s-0.483,1.079-1.079,1.079
	c-1.788,0-3.237,1.45-3.237,3.237C236.857,251.481,236.374,251.964,235.778,251.964z M234.699,246.569
	c0.409,0.307,0.772,0.67,1.079,1.079c0.308-0.409,0.67-0.772,1.079-1.079c-0.409-0.307-0.771-0.67-1.079-1.079
	C235.472,245.898,235.108,246.262,234.699,246.569z"/>
<linearGradient id="SVGID_13_" gradientUnits="userSpaceOnUse" x1="262.7549" y1="228.2256" x2="273.5439" y2="228.2256">
	<stop  offset="0" style="stop-color:#6DC067"/>
	<stop  offset="1" style="stop-color:#79CDD1"/>
</linearGradient>
<path fill="url(#SVGID_13_)" d="M268.148,233.621c-0.596,0-1.078-0.483-1.078-1.079c0-1.788-1.448-3.237-3.236-3.237
	c-0.596,0-1.079-0.483-1.079-1.079s0.483-1.079,1.079-1.079c1.788,0,3.236-1.449,3.236-3.237c0-0.596,0.482-1.079,1.078-1.079
	c0.597,0,1.079,0.483,1.079,1.079c0,1.788,1.449,3.237,3.237,3.237c0.596,0,1.079,0.483,1.079,1.079s-0.483,1.079-1.079,1.079
	c-1.788,0-3.237,1.449-3.237,3.237C269.228,233.138,268.745,233.621,268.148,233.621z M267.07,228.226
	c0.408,0.307,0.771,0.67,1.078,1.079c0.309-0.409,0.671-0.772,1.079-1.079c-0.408-0.307-0.771-0.67-1.079-1.079
	C267.842,227.555,267.479,227.918,267.07,228.226z"/>
<linearGradient id="SVGID_14_" gradientUnits="userSpaceOnUse" x1="251.9639" y1="286.4922" x2="268.1484" y2="286.4922">
	<stop  offset="0" style="stop-color:#6DC067"/>
	<stop  offset="1" style="stop-color:#79CDD1"/>
</linearGradient>
<path fill="url(#SVGID_14_)" d="M251.964,285.413h16.185v2.158h-16.185V285.413z"/>
<linearGradient id="SVGID_15_" gradientUnits="userSpaceOnUse" x1="245.4897" y1="286.4922" x2="249.8062" y2="286.4922">
	<stop  offset="0" style="stop-color:#6DC067"/>
	<stop  offset="1" style="stop-color:#79CDD1"/>
</linearGradient>
<path fill="url(#SVGID_15_)" d="M245.49,285.413h4.316v2.158h-4.316V285.413z"/>
</svg>
