<?xml version="1.0" encoding="UTF-8"?>
<svg width="71px" height="70px" viewBox="0 0 71 70" version="1.1" xmlns="http://www.w3.org/2000/svg" xmlns:xlink="http://www.w3.org/1999/xlink">
    <!-- Generator: Sketch 53 (72520) - https://sketchapp.com -->
    <title>Shower </title>
    <desc>Created with Sketch.</desc>
    <defs>
        <linearGradient x1="5.63673899%" y1="-11.1485635%" x2="51.5179728%" y2="97.7255544%" id="linearGradient-1">
            <stop stop-color="#64C866" offset="0%"></stop>
            <stop stop-color="#6EDADA" offset="100%"></stop>
        </linearGradient>
    </defs>
    <g id="Page-1" stroke="none" stroke-width="1" fill="none" fill-rule="evenodd">
        <path d="M32.4572678,19.9594878 L22.7126118,19.9594878 C21.4069532,19.9594878 19.9947725,21.2014667 19.2643341,23.1945471 L51.7353615,23.1945471 C51.0049232,21.2014667 49.5927424,19.9594878 48.2870839,19.9594878 L38.5442539,19.9594878 L32.4572678,19.960375 Z M32.4572678,14.0453027 L32.4572678,0 L38.5442539,0 L38.5442539,14.0453027 L48.2870839,14.0453027 C53.917546,14.0453027 58.324524,19.3651122 58.324524,26.1516397 L58.324524,29.1087323 L12.6721282,29.1087323 L12.6721282,26.1516397 C12.6721282,19.3651122 17.0821496,14.0453027 22.7126118,14.0453027 L32.4572678,14.0453027 Z M27.5222438,33.5745335 C27.2544165,34.8904397 26.0644107,35.8012242 24.7435347,35.8012242 C24.5517946,35.8012242 24.3661415,35.7775675 24.177445,35.7479966 C22.6648289,35.4404589 21.6635197,33.9973978 21.961782,32.5011089 C22.2600444,31.0314339 23.7970083,30.0082799 25.3126679,30.3246888 C26.8465884,30.6144838 27.8478976,32.057545 27.5222438,33.5213059 L27.5222438,33.5745335 Z M25.7661483,44.5098619 C25.498321,45.8198539 24.3083152,46.7099388 22.9904827,46.7099388 C22.8048296,46.7099388 22.6100461,46.686282 22.4517844,46.6567111 C20.9117769,46.3698731 19.9165547,44.9061123 20.214817,43.4334802 C20.5313403,41.9401484 22.0439563,40.9169944 23.5565724,41.2600172 C25.0996234,41.5498122 26.0918021,42.9662596 25.7661483,44.4566342 L25.7661483,44.5098619 Z M24.0678792,55.1553952 C23.9096176,56.5718426 22.6952639,57.6186533 21.2617786,57.6186533 L20.9665598,57.6186533 C19.4235088,57.4648845 18.2913294,56.1046219 18.4313301,54.605376 C18.5895917,53.0824733 19.992642,51.9321643 21.5326495,52.115504 C23.1000484,52.2692729 24.2322279,53.5851791 24.0678792,55.1021675 L24.0678792,55.1553952 Z M22.2600444,66.327291 C21.9891735,67.637283 20.8265591,68.5273679 19.5087266,68.5273679 C19.3230736,68.5273679 19.12829,68.5037112 18.9426369,68.4741402 C17.3995859,68.1873022 16.4317552,66.7235414 16.7300175,65.2538664 C17.0556712,63.7575775 18.5348089,62.7610373 20.0474249,63.0508324 C21.5874324,63.3672413 22.5826546,64.7836887 22.2843923,66.2740633 L22.2600444,66.327291 Z M17.6704568,34.0713251 C17.2139329,35.1506639 16.1639278,35.8012242 15.0530528,35.8012242 C14.7060946,35.8012242 14.325658,35.730254 14.0030477,35.5942278 C12.5452145,35.0442085 11.8452111,33.4473785 12.4143443,32.0309312 C13.004782,30.6144838 14.6787032,29.9018245 16.1091449,30.4784576 C17.5669781,31.0314339 18.263938,32.6075642 17.6704568,34.0240116 L17.6704568,34.0713251 Z M13.8417426,44.2200668 C13.4917409,45.4029039 12.356518,46.1599196 11.1421642,46.1599196 C10.8712933,46.1599196 10.603466,46.1333057 10.3325951,46.0593784 C8.84737047,45.6099003 7.98301844,44.0929118 8.4395424,42.6232368 C8.87476191,41.1801757 10.4452043,40.3137475 11.9486899,40.7632256 C13.4613059,41.2067895 14.325658,42.7030783 13.8721775,44.1402253 L13.8417426,44.2200668 Z M9.84867968,54.8153296 C9.41346018,55.8887542 8.36345507,56.5452287 7.23127566,56.5452287 C6.87823046,56.5452287 6.52518527,56.4653872 6.17214008,56.3382323 C4.74474183,55.788213 4.04473843,54.191383 4.61387163,52.7749357 C5.20430928,51.3584883 6.85083903,50.645829 8.3086722,51.2224621 C9.76650537,51.7724813 10.4634653,53.3486116 9.86998413,54.7621019 L9.84867968,54.8153296 Z M5.95909556,65.1740249 C5.5025716,66.2444924 4.44647951,66.9039241 3.34169154,66.9039241 C2.98864634,66.9039241 2.64473163,66.8506964 2.28864294,66.7235414 C0.830809768,66.1469084 0.127762873,64.5471213 0.696896074,63.1513736 C1.28733373,61.7408404 2.9612549,61.0311382 4.39169664,61.5811574 C5.84952981,62.1577905 6.55257671,63.7280066 5.986487,65.1178401 L5.95909556,65.1740249 Z M46.8210333,35.7479966 C46.6323367,35.7775675 46.4405967,35.8012242 46.2549436,35.8012242 C44.9340676,35.8012242 43.7471053,34.8904397 43.4762344,33.5745335 C43.1779721,32.1048585 44.1458029,30.6144838 45.6858104,30.3246888 C47.1984264,30.0082799 48.714086,30.9841204 49.0123483,32.4478812 L49.0306092,32.5011089 C49.3288716,33.9973978 48.3336493,35.4404589 46.8210333,35.7479966 Z M48.5466938,46.6567111 C48.3610408,46.686282 48.1936487,46.7099388 48.0079956,46.7099388 C46.6871196,46.7099388 45.5001573,45.8198539 45.2292864,44.5098619 C44.9340676,43.0135731 45.9018984,41.5498122 47.4419059,41.2600172 C48.9819134,40.9465653 50.461051,41.8869208 50.7593133,43.3565958 L50.7593133,43.4098235 C51.0819236,44.9061123 50.0897448,46.3491735 48.5466938,46.6567111 Z M50.0319185,57.6186533 L49.7366996,57.6186533 C48.3062579,57.6186533 47.0888607,56.5718426 46.930599,55.1553952 C46.7662504,53.6324925 47.8984298,52.2692729 49.4658288,52.115504 C51.0271407,51.9321643 52.4088865,53.0351598 52.5671482,54.5521483 L52.5671482,54.605376 C52.7071489,56.1046219 51.5719259,57.4648845 50.0319185,57.6186533 Z M52.0588848,68.4741402 C51.8701883,68.5273679 51.6784482,68.5273679 51.4897516,68.5273679 C50.1719191,68.5273679 49.0123483,67.637283 48.7353904,66.327291 C48.4158236,64.8310022 49.4110459,63.3672413 50.9510534,63.0774463 C52.4636694,62.7610373 53.942807,63.7013928 54.2684608,65.1976816 L54.2684608,65.2538664 C54.5636796,66.7501552 53.5988923,68.1873022 52.0588848,68.4741402 Z M56.9984741,35.5942278 C56.6728203,35.730254 56.2923837,35.8012242 55.9667299,35.8012242 C54.8345505,35.8012242 53.7845454,35.1506639 53.3280214,34.0713251 C52.7558447,32.6607919 53.4315002,31.0314339 54.8893334,30.4784576 C56.3471665,29.9018245 57.9906528,30.5582991 58.559786,31.9747464 L58.5871774,32.0309312 C59.1532671,33.4473785 58.4563072,35.0442085 56.9984741,35.5942278 Z M60.6658832,46.0593784 C60.3950123,46.1333057 60.1271849,46.1599196 59.8593575,46.1599196 C58.6419603,46.1599196 57.5097809,45.4029039 57.1567357,44.2200668 C56.7002117,42.7503918 57.5371723,41.2067895 59.0497884,40.7632256 C60.535013,40.3137475 62.0963249,41.126948 62.5528489,42.5700092 L62.5528489,42.6232368 C63.0154598,44.0929118 62.1784992,45.6099003 60.6658832,46.0593784 Z M64.8263382,56.3382323 C64.473293,56.4653872 64.1202478,56.5452287 63.7672026,56.5452287 C62.6350232,56.5452287 61.5850181,55.8887542 61.1497986,54.8153296 C60.5563174,53.3988822 61.2319729,51.7724813 62.6898061,51.2224621 C64.1476392,50.6192152 65.794169,51.3023036 66.3602587,52.7187509 L66.3876501,52.7749357 C66.9537398,54.191383 66.2567799,55.788213 64.8263382,56.3382323 Z M68.7067918,66.7235414 C68.3567901,66.8506964 68.0098319,66.9039241 67.6598302,66.9039241 C66.5519987,66.9039241 65.4959067,66.2444924 65.0393827,65.1740249 C64.473293,63.7812343 65.1428615,62.1577905 66.6006946,61.5811574 C68.0585278,61.0015673 69.6837531,61.6876127 70.2772342,63.1040601 L70.3046257,63.1513736 C70.8707154,64.5471213 70.164625,66.1469084 68.7067918,66.7235414 Z M38.3205572,67.2469468 C38.3205572,68.7639353 37.0514206,70 35.4809782,70 C33.9470577,70 32.6779211,68.7639353 32.6779211,67.2469468 C32.6779211,65.7240441 33.9470577,64.4938936 35.4809782,64.4938936 C37.0514206,64.4938936 38.3205572,65.6944732 38.3205572,67.220333 L38.3205572,67.2469468 Z M38.3205572,44.4566342 C38.3205572,45.9529231 37.0514206,47.1889878 35.4809782,47.1889878 C33.9470577,47.1889878 32.6779211,45.9529231 32.6779211,44.4566342 C32.6779211,42.9130319 33.9470577,41.6769672 35.4809782,41.6769672 C37.0514206,41.6769672 38.3205572,42.8598042 38.3205572,44.3827069 L38.3205572,44.4566342 Z M38.3205572,55.8680545 C38.3205572,57.385043 37.0514206,58.6211077 35.4809782,58.6211077 C33.9470577,58.6211077 32.6779211,57.385043 32.6779211,55.8680545 C32.6779211,54.3421948 33.9470577,53.0824733 35.4809782,53.0824733 C37.0514206,53.0824733 38.3205572,54.2889671 38.3205572,55.8148269 L38.3205572,55.8680545 Z M38.3205572,33.0245143 C38.3205572,34.547417 37.0514206,35.7775675 35.4809782,35.7775675 C33.9470577,35.7775675 32.6779211,34.547417 32.6779211,33.0245143 C32.6779211,31.5075258 33.9470577,30.2448473 35.4809782,30.2448473 C37.0514206,30.2448473 38.3205572,31.480912 38.3205572,32.9979005 L38.3205572,33.0245143 Z" id="Shower-" fill="url(#linearGradient-1)" fill-rule="nonzero"></path>
    </g>
</svg>