<?xml version="1.0" encoding="UTF-8"?>
<svg width="49px" height="71px" viewBox="0 0 49 71" version="1.1" xmlns="http://www.w3.org/2000/svg" xmlns:xlink="http://www.w3.org/1999/xlink">
    <!-- Generator: Sketch 53 (72520) - https://sketchapp.com -->
    <title>Geyser - 8-16 litre </title>
    <desc>Created with Sketch.</desc>
    <defs>
        <linearGradient x1="29.1402136%" y1="-11.1485635%" x2="50.713757%" y2="97.7255544%" id="linearGradient-1">
            <stop stop-color="#64C866" offset="0%"></stop>
            <stop stop-color="#6EDADA" offset="100%"></stop>
        </linearGradient>
    </defs>
    <g id="Page-1" stroke="none" stroke-width="1" fill="none" fill-rule="evenodd">
        <path d="M29.2336001,61.4605688 L26.105523,61.4605688 C24.6871057,61.4605688 23.2686884,61.4605688 21.850271,61.459976 L21.850271,67.1041407 C21.850271,68.7258904 20.4274072,70.0367804 18.6742358,70.0367804 C16.9210643,70.0367804 15.4982006,68.7258904 15.4982006,67.1041407 L15.4982006,61.4513872 C15.1973241,61.4506059 14.8964477,61.4497582 14.5955713,61.4488382 C13.7221616,61.4459056 11.0574681,61.4400403 9.29476853,59.6980523 C8.70084994,59.1115244 8.28478933,58.4135561 8.04341065,57.6158781 C7.58923761,57.519101 7.13188853,57.413526 6.68089153,57.2962204 C4.10830299,56.6334438 2.19950581,54.8973211 1.30068784,52.4104426 C1.08471744,51.8033862 0.967204141,51.1552728 0.967204141,50.5394185 L0.9545,11.5470407 C0.9545,9.24198587 2.22491409,4.10106844 5.2993162,2.08927759 C9.53297117,-0.676201672 39.8323473,-0.465051612 43.7611029,1.63765107 C47.0832358,3.41483074 48.5188037,7.74633961 48.8427593,10.022068 C48.9602726,10.860803 48.9602726,11.7112685 48.9507445,12.561734 L48.9443924,13.1394641 L48.9412164,50.4895636 C48.9412164,54.181757 46.4099163,56.9560342 42.4843367,57.5572253 C41.8554818,57.6569351 41.2298028,57.7449143 40.5977718,57.8299608 C39.6984866,60.4457272 37.4077535,61.1768963 35.5856706,61.3812756 L35.5856706,67.1041407 C35.5856706,68.7258904 34.1628068,70.0367804 32.4096354,70.0367804 C30.6564639,70.0367804 29.2336001,68.7258904 29.2336001,67.1041407 L29.2336001,61.4605688 Z M25.2448175,5.92810299 C17.9748728,5.92810299 10.5461264,6.24482808 8.78977893,6.97798801 C8.32290175,7.38562493 7.30657047,9.98687636 7.30657047,11.5411754 L7.30657047,11.8080456 C14.8560062,10.3446584 22.0243178,9.72587143 29.1862772,9.88716661 C33.4104041,9.98687636 38.3364347,10.6173939 42.6018501,11.5763671 C42.595498,11.3124295 42.5796178,11.0484919 42.5446814,10.787487 C42.2747184,8.89300175 41.1821623,7.0366408 40.5755396,6.71405043 C39.0478666,6.22136696 32.2193909,5.92810299 25.2448175,5.92810299 Z M7.31609858,41.5332819 C7.3446829,41.5391471 7.37326721,41.5420798 7.39867549,41.5479451 C11.2480302,42.1550015 15.3832281,42.501053 20.0392957,42.606628 C27.2806561,42.7708558 34.664938,42.3984106 42.5891459,41.4570332 L42.5923219,17.6352008 C38.5015886,16.5823831 33.2674825,15.8521558 29.0211234,15.7524461 C21.9671491,15.5794203 14.8560062,16.2539275 7.30974651,17.8082265 L7.31609858,41.5332819 Z M16.3074543,55.5864914 C20.8523608,55.598222 25.4004432,55.5952893 29.9485257,55.5952893 L32.2733835,55.5952893 C32.2193909,54.0967104 33.4104041,52.7770226 35.0524143,52.586401 L35.4875311,52.5365461 C37.4757292,52.3048676 39.4671033,52.0761217 41.4425972,51.7740598 C42.322359,51.6391584 42.5891459,51.3370965 42.5891459,50.4895636 L42.5891459,47.3692349 C34.6427058,48.2754206 27.2139593,48.6361353 19.88367,48.4719075 C15.3101793,48.3663324 11.1876855,48.0408094 7.31609858,47.4777426 L7.31927461,50.5364858 C7.65275831,51.4573347 8.16727602,51.5893035 8.38324642,51.6479563 C10.0919534,52.0849196 11.9658142,52.3547224 13.5887682,52.5717378 C15.2117222,52.7887531 16.370975,54.1055084 16.3074543,55.5864914 Z" id="Geyser---8-16-litre-" fill="url(#linearGradient-1)" fill-rule="nonzero"></path>
    </g>
</svg>