<?xml version="1.0" encoding="UTF-8"?>
<svg width="71px" height="71px" viewBox="0 0 71 71" version="1.1" xmlns="http://www.w3.org/2000/svg" xmlns:xlink="http://www.w3.org/1999/xlink">
    <!-- Generator: Sketch 53 (72520) - https://sketchapp.com -->
    <title>Wash basin drain (straight standard style) </title>
    <desc>Created with Sketch.</desc>
    <defs>
        <linearGradient x1="5.63673899%" y1="-11.1485635%" x2="51.5179728%" y2="97.7255544%" id="linearGradient-1">
            <stop stop-color="#64C866" offset="0%"></stop>
            <stop stop-color="#6EDADA" offset="100%"></stop>
        </linearGradient>
    </defs>
    <g id="Page-1" stroke="none" stroke-width="1" fill="none" fill-rule="evenodd">
        <path d="M27.4425936,63.786825 L27.2865652,60.8701583 L17.209999,60.8701583 C12.2770231,60.8701583 8.27344853,59.5664083 8.27344853,57.9534917 C8.27344853,56.340575 12.2770231,55.036825 17.209999,55.036825 L26.9745085,55.036825 L26.8184801,52.1201583 L17.209999,52.1201583 C12.2770231,52.1201583 8.27344853,50.8164083 8.27344853,49.2034917 C8.27344853,47.590575 12.2770231,46.286825 17.209999,46.286825 L26.5064234,46.286825 L26.350395,43.3701583 L17.209999,43.3701583 C12.2770231,43.3701583 8.27344853,42.0664083 8.27344853,40.4534917 C8.27344853,38.8434917 12.2770231,37.536825 17.209999,37.536825 L26.0383383,37.536825 L25.8823099,34.6201583 L13.1125906,34.6201583 C8.17961475,34.6201583 4.17604013,33.3134917 4.17604013,31.7034917 C4.17604013,30.0934917 8.17961475,28.786825 13.1125906,28.786825 L25.5702532,28.786825 L25.4142248,25.8701583 L11.9955218,25.8701583 C7.06254593,25.8701583 3.05897131,24.5634917 3.05897131,22.9534917 C3.05897131,21.3434917 7.06254593,20.036825 11.9955218,20.036825 L25.1021681,20.036825 L24.9461397,17.1201583 L10.5075861,17.1201583 C5.57461028,17.1201583 1.57103566,15.8134917 1.57103566,14.2034917 C1.57103566,12.5934917 5.57461028,11.286825 10.5075861,11.286825 L24.634083,11.286825 L24.4780546,8.37015833 L9.01965049,8.37015833 C4.08667462,8.37015833 0.0831,7.06349167 0.0831,5.45349167 C0.0831,3.84349167 4.08667462,2.536825 9.01965049,2.536825 L24.1659979,2.536825 L24.0831,0.9872 L46.0831,0.9872 L46.0002021,2.536825 L61.1465495,2.536825 C66.0795254,2.536825 70.0831,3.84349167 70.0831,5.45349167 C70.0831,7.06349167 66.0795254,8.37015833 61.1465495,8.37015833 L45.6881454,8.37015833 L45.532117,11.286825 L59.6586139,11.286825 C64.5915897,11.286825 68.5951643,12.5934917 68.5951643,14.2034917 C68.5951643,15.8134917 64.5915897,17.1201583 59.6586139,17.1201583 L45.2200603,17.1201583 L45.0640319,20.036825 L58.1706782,20.036825 C63.1036541,20.036825 67.1072287,21.3434917 67.1072287,22.9534917 C67.1072287,24.5634917 63.1036541,25.8701583 58.1706782,25.8701583 L44.7519752,25.8701583 L44.5959468,28.786825 L57.0536094,28.786825 C61.9865853,28.786825 65.9901599,30.0934917 65.9901599,31.7034917 C65.9901599,33.3134917 61.9865853,34.6201583 57.0536094,34.6201583 L44.2838901,34.6201583 L44.1278617,37.536825 L52.956201,37.536825 C57.8891769,37.536825 61.8927515,38.8434917 61.8927515,40.4534917 C61.8927515,42.0664083 57.8891769,43.3701583 52.956201,43.3701583 L43.815805,43.3701583 L43.6597766,46.286825 L52.956201,46.286825 C57.8891769,46.286825 61.8927515,47.590575 61.8927515,49.2034917 C61.8927515,50.8164083 57.8891769,52.1201583 52.956201,52.1201583 L43.3477199,52.1201583 L43.1916915,55.036825 L52.956201,55.036825 C57.8891769,55.036825 61.8927515,56.340575 61.8927515,57.9534917 C61.8927515,59.5664083 57.8891769,60.8701583 52.956201,60.8701583 L42.8796348,60.8701583 L42.7236064,63.786825 L52.956201,63.786825 C57.8891769,63.786825 61.8927515,65.090575 61.8927515,66.7034917 C61.8927515,68.3164083 57.8891769,69.6201583 52.956201,69.6201583 L42.4115496,69.6201583 L42.3384191,70.9872 L27.8277809,70.9872 L27.7546504,69.6201583 L17.209999,69.6201583 C12.2770231,69.6201583 8.27344853,68.3164083 8.27344853,66.7034917 C8.27344853,65.090575 12.2770231,63.786825 17.209999,63.786825 L27.4425936,63.786825 Z" id="Wash-basin-drain-(straight-standard-style)-" fill="url(#linearGradient-1)" fill-rule="nonzero"></path>
    </g>
</svg>