<?xml version="1.0" encoding="utf-8"?>
<!-- Generator: Adobe Illustrator 16.0.0, SVG Export Plug-In . SVG Version: 6.00 Build 0)  -->
<!DOCTYPE svg PUBLIC "-//W3C//DTD SVG 1.1//EN" "http://www.w3.org/Graphics/SVG/1.1/DTD/svg11.dtd">
<svg version="1.1" id="Capa_1" xmlns="http://www.w3.org/2000/svg" xmlns:xlink="http://www.w3.org/1999/xlink" x="0px" y="0px"
	 width="24px" height="24px" viewBox="108 75.5 24 24" enable-background="new 108 75.5 24 24" xml:space="preserve">
<g>
	<path fill="#99BE48" stroke="#99BE48" stroke-miterlimit="10" d="M130.722,95.585l-7.622-7.622l4.251-4.251
		c0.396-0.396,0.896-0.699,1.447-0.876c0.445-0.144,0.841-0.385,1.174-0.718c0.566-0.567,0.871-1.321,0.859-2.123
		c-0.014-0.801-0.344-1.546-0.93-2.096c-0.07-0.067-0.173-0.093-0.268-0.068c-0.096,0.025-0.171,0.097-0.201,0.191l-0.5,1.604
		c-0.145,0.466-0.643,0.727-1.108,0.582c-0.373-0.116-0.623-0.456-0.623-0.845c0-0.089,0.014-0.178,0.041-0.264l0.495-1.585
		c0.028-0.095,0.007-0.198-0.058-0.273c-0.064-0.075-0.164-0.111-0.262-0.095c-0.544,0.088-1.049,0.325-1.459,0.686
		c-0.722,0.634-1.09,1.583-0.982,2.537c0.116,1.047-0.257,2.087-1.024,2.854l-2.796,2.797l-0.454-0.454l-0.705-1.621
		c-0.014-0.033-0.034-0.063-0.06-0.088l-3.556-3.556c-0.054-0.054-0.127-0.084-0.203-0.084c-0.076,0-0.149,0.031-0.202,0.084
		l-2.666,2.665l-1.231-1.232l2.716-2.716c0.112-0.112,0.112-0.292,0-0.405l-1.229-1.229c-0.103-0.103-0.267-0.112-0.381-0.021
		l-3.769,2.991c-0.309,0.237-0.5,0.595-0.525,0.983c-0.025,0.388,0.118,0.769,0.394,1.044l0.872,0.872
		c0.056,0.056,0.129,0.083,0.202,0.083c0.073,0,0.146-0.027,0.202-0.083l0.203-0.203l1.232,1.233l-0.203,0.202
		c-0.112,0.112-0.112,0.293,0,0.405l1.518,1.518c0.112,0.112,0.293,0.112,0.405,0l0.438-0.438l0.945,0.945l-0.438,0.438
		c-0.112,0.112-0.112,0.293,0,0.405l0.259,0.259c0.425,0.425,1.059,0.544,1.603,0.32l0.632,0.633
		c0.054,0.054,0.126,0.084,0.203,0.084c0.076,0,0.148-0.03,0.202-0.084l0.675-0.676c0.112-0.111,0.112-0.293,0-0.404l-0.342-0.343
		l0.637-0.375l0.738,0.738l-3.377,3.377c-0.396,0.396-0.896,0.699-1.447,0.877c-0.439,0.141-0.845,0.39-1.173,0.718
		c-0.567,0.566-0.873,1.32-0.86,2.122c0.012,0.803,0.342,1.547,0.928,2.096c0.072,0.067,0.174,0.093,0.269,0.069
		c0.096-0.025,0.171-0.098,0.201-0.191l0.5-1.604c0.07-0.226,0.224-0.41,0.434-0.521c0.209-0.11,0.449-0.131,0.675-0.061
		c0.372,0.115,0.622,0.455,0.622,0.845c0,0.09-0.013,0.178-0.041,0.264l-0.494,1.586c-0.03,0.094-0.008,0.198,0.058,0.272
		c0.054,0.063,0.133,0.099,0.215,0.099c0.015,0,0.031-0.001,0.046-0.004c0.544-0.089,1.048-0.326,1.458-0.687
		c0.722-0.634,1.09-1.583,0.983-2.536c-0.116-1.047,0.256-2.087,1.023-2.854l1.922-1.923l7.601,7.601
		c0.271,0.271,0.621,0.405,0.971,0.405c0.322,0,0.643-0.114,0.896-0.348c0.271-0.249,0.426-0.59,0.433-0.958
		C131.117,96.187,130.979,95.844,130.722,95.585z M124.357,83.628c0.892-0.89,1.323-2.102,1.188-3.323
		c-0.085-0.768,0.21-1.531,0.792-2.043c0.207-0.181,0.442-0.324,0.698-0.422l-0.339,1.089c-0.044,0.142-0.066,0.288-0.066,0.435
		c0,0.642,0.411,1.201,1.023,1.392c0.769,0.24,1.587-0.19,1.826-0.958l0.348-1.117c0.273,0.385,0.423,0.842,0.43,1.325
		c0.011,0.645-0.233,1.252-0.691,1.708c-0.267,0.268-0.586,0.462-0.943,0.577c-0.638,0.205-1.217,0.557-1.676,1.017l-4.251,4.251
		l-1.135-1.134L124.357,83.628z M109.689,81.975c-0.159-0.158-0.241-0.377-0.227-0.601c0.015-0.224,0.125-0.43,0.306-0.569
		l3.573-2.835l0.847,0.847l-3.83,3.829L109.689,81.975z M111.169,82.645l0.505-0.506l1.233,1.232l-0.506,0.506L111.169,82.645z
		 M114.56,85.563l0.27-0.27l0.944,0.945l-0.271,0.27L114.56,85.563z M116.179,85.833l-0.945-0.944l0.506-0.506l0.945,0.945
		L116.179,85.833z M117.627,88.092l-0.27,0.27l-0.313-0.313l0.34-0.201L117.627,88.092z M118.883,91.369
		c-0.891,0.893-1.324,2.104-1.187,3.324c0.086,0.769-0.21,1.531-0.792,2.043c-0.206,0.182-0.442,0.323-0.698,0.423l0.34-1.089
		c0.044-0.143,0.066-0.288,0.066-0.435c0-0.642-0.411-1.2-1.024-1.392c-0.768-0.239-1.586,0.19-1.826,0.958l-0.348,1.116
		c-0.273-0.385-0.422-0.842-0.43-1.324c-0.011-0.646,0.235-1.253,0.692-1.709c0.268-0.268,0.585-0.462,0.944-0.578
		c0.637-0.205,1.216-0.557,1.676-1.017l3.377-3.378l1.135,1.136L118.883,91.369z M130.289,97.089
		c-0.296,0.272-0.777,0.255-1.073-0.04l-10.439-10.44c-0.055-0.055-0.128-0.083-0.202-0.083c-0.05,0-0.1,0.013-0.146,0.04
		l-2.006,1.184c-0.355,0.209-0.807,0.152-1.098-0.139l-0.056-0.057l2.024-2.024c0.112-0.112,0.112-0.293,0-0.405l-1.35-1.35
		c-0.111-0.112-0.293-0.112-0.404,0l-2.024,2.024l-1.113-1.114l3.778-3.778l3.315,3.315l0.705,1.621
		c0.014,0.033,0.034,0.063,0.06,0.088l10.058,10.058c0.147,0.146,0.225,0.343,0.222,0.551
		C130.532,96.752,130.445,96.946,130.289,97.089z"/>
	<circle fill="#99BE48" stroke="#99BE48" stroke-miterlimit="10" cx="129.793" cy="96.512" r="0.381"/>
</g>
</svg>
