<?xml version="1.0" encoding="UTF-8"?>
<svg width="71px" height="71px" viewBox="0 0 71 71" version="1.1" xmlns="http://www.w3.org/2000/svg" xmlns:xlink="http://www.w3.org/1999/xlink">
    <!-- Generator: Sketch 53 (72520) - https://sketchapp.com -->
    <title>Leakage identification and rectification    (cost incl nitrogen test and bridging per leak point) </title>
    <desc>Created with Sketch.</desc>
    <defs>
        <linearGradient x1="5.63673899%" y1="-11.1485635%" x2="51.5179728%" y2="97.7255544%" id="linearGradient-1">
            <stop stop-color="#64C866" offset="0%"></stop>
            <stop stop-color="#6EDADA" offset="100%"></stop>
        </linearGradient>
    </defs>
    <g id="Page-1" stroke="none" stroke-width="1" fill="none" fill-rule="evenodd">
        <path d="M48.1942118,45.0496551 L48.1942118,30.6151367 L45.7727784,30.6151367 C43.5688146,30.6151367 41.7775451,28.6842241 41.7775451,26.3084443 L41.7775451,23.7013967 L28.3898549,23.7013967 L28.3898549,26.3084443 C28.3898549,28.6842241 26.5956585,30.6151367 24.3916946,30.6151367 L21.9720174,30.6151367 L21.9720174,45.0496551 L28.3108283,45.0496551 L40.9082526,32.8331621 L42.0146249,45.0496551 L48.1942118,45.0496551 Z M54.0480335,45.0496551 L64.2298783,45.0496551 L64.2298783,30.6151367 L54.0480335,30.6151367 L54.0480335,45.0496551 Z M16.1181957,45.0496551 L16.1181957,30.6151367 L5.93752171,30.6151367 L5.93752171,45.0496551 L16.1181957,45.0496551 Z M41.7775451,17.3912247 L41.7775451,6.412472 L28.3898549,6.412472 L28.3898549,17.3912247 L41.7775451,17.3912247 Z M19.0442285,53.666195 C17.22369,53.666195 15.5377893,52.7922362 14.399221,51.3598271 L0.0837,51.3598271 L0.0837,24.3049647 L14.4021479,24.3049647 C15.5436431,22.8788658 17.22369,22.0080621 19.0354478,22.0017519 C19.5739994,22.004907 20.1008433,22.0806291 20.604272,22.225763 C20.472561,21.6893984 20.3993882,21.1309482 20.3964613,20.5598776 C20.3847537,18.7867193 21.0608701,17.0577322 22.246269,15.8240935 C22.3370032,15.7262859 22.4365182,15.6284782 22.5360332,15.5338256 L22.5360332,0.1023 L47.6313668,0.1023 L47.6313668,15.5369807 C48.9601844,16.7643092 49.7709387,18.5816387 49.7709387,20.5441022 C49.7709387,21.1183278 49.7036197,21.6767781 49.5719087,22.2162978 C51.7758726,21.5884357 54.2959428,22.4560843 55.7652521,24.3049647 L70.0837,24.3049647 L70.0837,51.3598271 L55.7623252,51.3598271 C54.6237569,52.785926 52.94371,53.6598848 51.1319522,53.666195 C49.3055598,53.6598848 47.6225861,52.785926 46.4810909,51.3598271 L36.7052086,51.3598271 L36.2105607,45.8794428 L30.5586958,51.3598271 L23.689236,51.3598271 C22.5506677,52.7922362 20.8647671,53.666195 19.0442285,53.666195 Z M35.0831146,70.1023 C32.7210976,70.1023 30.8068979,68.0388738 30.8068979,65.4927194 C30.8068979,63.7227161 33.1601342,59.2393389 35.0831146,56.0400817 C37.006095,59.2393389 39.3593314,63.7227161 39.3593314,65.4927194 C39.3593314,68.0388738 37.4451317,70.1023 35.0831146,70.1023 Z" id="Leakage-identification-and-rectification----(cost-incl-nitrogen-test-and-bridging-per-leak-point)-" fill="url(#linearGradient-1)" fill-rule="nonzero"></path>
    </g>
</svg>