<?xml version="1.0" encoding="utf-8"?>
<!-- Generator: Adobe Illustrator 16.0.0, SVG Export Plug-In . SVG Version: 6.00 Build 0)  -->
<!DOCTYPE svg PUBLIC "-//W3C//DTD SVG 1.1//EN" "http://www.w3.org/Graphics/SVG/1.1/DTD/svg11.dtd">
<svg version="1.1" id="Layer_1" xmlns="http://www.w3.org/2000/svg" xmlns:xlink="http://www.w3.org/1999/xlink" x="0px" y="0px"
	 width="70px" height="70px" viewBox="220.5 220.5 70 70" enable-background="new 220.5 220.5 70 70" xml:space="preserve">
<linearGradient id="SVGID_1_" gradientUnits="userSpaceOnUse" x1="269.6182" y1="229.5381" x2="272.1572" y2="229.5381">
	<stop  offset="0" style="stop-color:#64C866"/>
	<stop  offset="1" style="stop-color:#6EDADA"/>
</linearGradient>
<path fill="url(#SVGID_1_)" d="M270.888,230.807c-0.083,0-0.165-0.007-0.248-0.024c-0.082-0.016-0.161-0.041-0.237-0.072
	s-0.151-0.071-0.22-0.117c-0.068-0.047-0.135-0.1-0.192-0.159c-0.06-0.058-0.112-0.123-0.158-0.193
	c-0.046-0.069-0.085-0.142-0.116-0.219c-0.032-0.077-0.057-0.157-0.073-0.237c-0.017-0.083-0.024-0.167-0.024-0.249
	s0.008-0.166,0.024-0.248c0.017-0.081,0.041-0.161,0.073-0.237c0.031-0.078,0.07-0.151,0.116-0.22
	c0.046-0.07,0.099-0.134,0.158-0.193c0.058-0.059,0.123-0.112,0.192-0.157c0.068-0.046,0.144-0.085,0.22-0.117
	s0.155-0.056,0.237-0.072c0.164-0.033,0.332-0.033,0.496,0c0.081,0.016,0.161,0.041,0.237,0.072s0.15,0.071,0.219,0.117
	c0.069,0.045,0.135,0.099,0.192,0.157c0.059,0.059,0.112,0.123,0.159,0.193c0.046,0.068,0.085,0.142,0.117,0.22
	c0.031,0.076,0.056,0.156,0.072,0.237c0.017,0.082,0.024,0.165,0.024,0.248s-0.008,0.166-0.024,0.249
	c-0.017,0.08-0.041,0.16-0.072,0.237c-0.032,0.077-0.071,0.15-0.117,0.219c-0.047,0.07-0.099,0.135-0.159,0.193
	c-0.058,0.059-0.123,0.112-0.192,0.159c-0.068,0.046-0.143,0.085-0.219,0.117s-0.156,0.056-0.237,0.072
	C271.054,230.8,270.971,230.807,270.888,230.807z"/>
<linearGradient id="SVGID_2_" gradientUnits="userSpaceOnUse" x1="222.7144" y1="255.5024" x2="287.3418" y2="255.5024">
	<stop  offset="0" style="stop-color:#64C866"/>
	<stop  offset="1" style="stop-color:#6EDADA"/>
</linearGradient>
<path fill="url(#SVGID_2_)" d="M287.342,224.271c0-0.701-0.568-1.27-1.27-1.27h-43.071c-0.701,0-1.27,0.568-1.27,1.27
	s0.569,1.27,1.27,1.27h10.197v25.466c-0.339-0.68-0.794-1.306-1.352-1.852c-1.3-1.273-3.018-1.974-4.839-1.974
	c-1.829,0-3.559,0.726-4.834,1.971c-1.438-1.689-3.577-2.713-5.845-2.713c-4.222,0-7.657,3.434-7.657,7.654
	c0,0.141,0.004,0.281,0.011,0.421c-0.015,0-0.031,0-0.046,0c-3.266,0-5.922,2.658-5.922,5.924c0,0.066,0.098,1.084,0.117,1.179
	v7.187c0,5.216,2.884,9.771,7.14,12.152c-0.761,0.747-1.233,1.787-1.233,2.935c0,2.268,1.846,4.113,4.115,4.113
	c2.269,0,4.115-1.846,4.115-4.113c0-0.407-0.059-0.801-0.17-1.172h35.206c-0.111,0.371-0.171,0.765-0.171,1.172
	c0,2.268,1.847,4.113,4.115,4.113c2.27,0,4.115-1.846,4.115-4.113c0-1.124-0.452-2.143-1.186-2.886
	c4.304-2.369,7.228-6.949,7.228-12.201v-43.262C286.791,225.524,287.342,224.962,287.342,224.271z M260.542,225.541v24.93
	c0,0.701,0.568,1.27,1.27,1.27s1.27-0.568,1.27-1.27v-24.93h14.443v24.93c0,0.701,0.568,1.27,1.27,1.27s1.27-0.568,1.27-1.27v-24.93
	h3.503v38.878h-27.829v-38.878H260.542z M233.036,264.419c0.581-0.642,1.022-1.415,1.277-2.276h18.886v2.276H233.036z
	 M228.637,257.052c0.405,0,0.8,0.071,1.176,0.21c0.456,0.169,0.97,0.063,1.321-0.274c0.352-0.338,0.479-0.846,0.328-1.309
	c-0.166-0.51-0.25-1.043-0.25-1.586c0-2.82,2.296-5.115,5.118-5.115c1.954,0,3.766,1.138,4.615,2.898
	c0.205,0.426,0.63,0.703,1.103,0.717c0.476,0.016,0.914-0.233,1.146-0.645c0.776-1.375,2.237-2.229,3.815-2.229
	c2.361,0,4.323,1.918,4.375,4.275c0.016,0.688,0.576,1.239,1.266,1.242c0.187,0,0.371,0.008,0.551,0.022v4.344H233.27
	c-0.656,0-1.204,0.499-1.264,1.152c-0.162,1.748-1.611,3.066-3.369,3.066c-1.592,0-2.931-1.081-3.29-2.585
	c-0.005-0.027-0.011-0.055-0.019-0.082c-0.027-0.13-0.048-0.264-0.061-0.399c-0.001-0.012-0.003-0.022-0.004-0.033
	c0-0.012-0.001-0.023-0.002-0.035c-0.006-0.085-0.009-0.168-0.009-0.25C225.253,258.57,226.771,257.052,228.637,257.052z
	 M232.853,285.464c-0.869,0-1.576-0.706-1.576-1.574s0.707-1.574,1.576-1.574s1.576,0.706,1.576,1.574
	S233.722,285.464,232.853,285.464z M275.948,285.464c-0.869,0-1.576-0.706-1.576-1.574s0.707-1.574,1.576-1.574
	s1.576,0.706,1.576,1.574S276.817,285.464,275.948,285.464z M283.566,268.803c0,6.272-5.102,11.376-11.371,11.376H236.74
	c-6.27,0-11.37-5.104-11.37-11.376v-1.845h58.196V268.803z"/>
<linearGradient id="SVGID_3_" gradientUnits="userSpaceOnUse" x1="269.6182" y1="244.6484" x2="272.1572" y2="244.6484">
	<stop  offset="0" style="stop-color:#64C866"/>
	<stop  offset="1" style="stop-color:#6EDADA"/>
</linearGradient>
<path fill="url(#SVGID_3_)" d="M270.888,256.268c0.701,0,1.27-0.569,1.27-1.27v-20.699c0-0.701-0.568-1.27-1.27-1.27
	s-1.27,0.568-1.27,1.27v20.699C269.618,255.699,270.187,256.268,270.888,256.268z"/>
</svg>
