<?xml version="1.0" encoding="UTF-8"?>
<svg width="71px" height="71px" viewBox="0 0 71 71" version="1.1" xmlns="http://www.w3.org/2000/svg" xmlns:xlink="http://www.w3.org/1999/xlink">
    <!-- Generator: Sketch 53 (72520) - https://sketchapp.com -->
    <title>MCB </title>
    <desc>Created with Sketch.</desc>
    <defs>
        <linearGradient x1="5.63673899%" y1="-11.1485635%" x2="51.5179728%" y2="97.7255544%" id="linearGradient-1">
            <stop stop-color="#64C866" offset="0%"></stop>
            <stop stop-color="#6EDADA" offset="100%"></stop>
        </linearGradient>
    </defs>
    <g id="Page-1" stroke="none" stroke-width="1" fill="none" fill-rule="evenodd">
        <path d="M7.42676428,16.0776608 L29.2624657,16.0776608 L29.2624657,14.2955775 L7.42676428,14.2955775 L7.42676428,16.0776608 Z M12.0644691,21.1059942 L21.7438202,28.5084942 C22.5097846,28.3422442 23.2986136,28.2605775 24.1064964,28.2605775 L41.5064638,28.2605775 L31.2745513,21.1059942 L12.0644691,21.1059942 Z M24.1064964,33.2801608 C22.4564338,33.2801608 21.0616927,34.7093275 21.0616927,36.3980775 C21.0616927,38.0839108 22.4564338,39.5101608 24.1064964,39.5101608 L41.2740069,39.5101608 C40.8014717,38.5330775 40.5537717,37.4801608 40.5537717,36.3980775 C40.5537717,35.3159942 40.8014717,34.2572442 41.2740069,33.2801608 L24.1064964,33.2801608 Z M49.8901537,39.5101608 L53.2893589,39.5101608 L53.2893589,27.8464108 L35.83223,17.0430775 L35.83223,17.4834942 L51.4563794,28.4093275 C52.1003992,28.8555775 52.481476,29.4739108 52.5233945,30.1476608 C52.5615022,30.7747442 52.3023699,31.3755775 51.7841054,31.8568275 C51.4106502,32.5801608 50.6141996,33.1401608 49.6081568,33.3501608 C48.175308,33.6359942 47.1121037,34.9455775 47.1121037,36.3980775 C47.1121037,37.8476608 48.1791188,39.1572442 49.5967245,39.4459942 L49.8901537,39.5101608 Z M23.9388226,44.5326608 L23.9388226,65.3022442 C23.9388226,65.6580775 24.3198995,65.9497442 24.7924347,65.9497442 L63.445056,65.9497442 C63.9099697,65.9497442 64.2910465,65.6580775 64.2910465,65.3022442 L64.2910465,6.65099417 C64.2910465,6.29224417 63.9099697,6.00349417 63.445056,6.00349417 L24.7924347,6.00349417 C24.3198995,6.00349417 23.9388226,6.29224417 23.9388226,6.65099417 L23.9388226,9.26724417 L33.1608815,9.33432751 C33.2028,9.32557751 33.3895276,9.36057751 33.5838768,9.40724417 L34.3269766,9.69599417 C34.1516813,9.60849417 34.368895,9.68724417 34.5746765,9.80682751 L53.2893589,21.3859942 L53.2893589,18.1951608 C53.2893589,16.8097442 54.7603154,15.6809942 56.574241,15.6809942 C58.3843559,15.6809942 59.8553124,16.8097442 59.8553124,18.1951608 L59.8553124,51.0455775 C59.8553124,52.4339108 58.3843559,53.5626608 56.574241,53.5626608 C54.7603154,53.5626608 53.2893589,52.4339108 53.2893589,51.0455775 L53.2893589,48.2893275 L30.851556,48.2893275 C29.0376304,48.2893275 27.5666739,47.1605775 27.5666739,45.7780775 L27.5666739,44.5326608 L24.1064964,44.5326608 L23.9388226,44.5326608 Z M63.445056,70.9751608 L24.7924347,70.9751608 C20.7034805,70.9751608 17.3804907,68.4289108 17.3804907,65.3022442 L17.3804907,42.1993275 C15.5398897,40.6739108 14.4995499,38.6030775 14.4995499,36.3980775 C14.4995499,34.6422442 15.1854882,32.9359942 16.4125556,31.5389108 L1.81731357,20.3680775 C1.52388442,20.1434942 1.27237373,19.8576608 1.10469993,19.5455775 C0.944647667,19.2568275 0.857,18.9214108 0.857,18.5889108 L0.857,11.7814108 C0.857,10.3959942 2.33176727,9.26724417 4.14188214,9.26724417 L17.3728691,9.26724417 L17.3728691,6.65099417 C17.3728691,3.52141084 20.6996697,0.97516084 24.7924347,0.97516084 L63.445056,0.97516084 C67.5340102,0.97516084 70.857,3.52141084 70.857,6.65099417 L70.857,65.3022442 C70.857,68.4289108 67.5340102,70.9751608 63.445056,70.9751608 Z" id="MCB-" fill="url(#linearGradient-1)" fill-rule="nonzero"></path>
    </g>
</svg>