<?xml version="1.0" encoding="UTF-8"?>
<svg width="70px" height="71px" viewBox="0 0 70 71" version="1.1" xmlns="http://www.w3.org/2000/svg" xmlns:xlink="http://www.w3.org/1999/xlink">
    <!-- Generator: Sketch 53 (72520) - https://sketchapp.com -->
    <title>Kitchen Mixer  </title>
    <desc>Created with Sketch.</desc>
    <defs>
        <linearGradient x1="5.63673899%" y1="-11.1485635%" x2="51.5179728%" y2="97.7255544%" id="linearGradient-1">
            <stop stop-color="#64C866" offset="0%"></stop>
            <stop stop-color="#6EDADA" offset="100%"></stop>
        </linearGradient>
    </defs>
    <g id="Page-1" stroke="none" stroke-width="1" fill="none" fill-rule="evenodd">
        <path d="M49.461525,64.2143855 L70.0004,64.2143855 L70.0004,70.0937 L0.0004,70.0937 L0.0004,64.2143855 L14.400275,64.2143855 L14.400275,47.6794015 L6.560275,47.6794015 C4.950275,47.6794015 3.646525,46.3653747 3.646525,44.7397443 C3.646525,43.1141138 4.950275,41.800087 6.560275,41.800087 L20.2336083,41.800087 L20.2336083,64.2143855 L28.9836083,64.2143855 L28.9836083,15.3446417 C28.9836083,6.93428239 35.7706917,0.0937 44.1123583,0.0937 C52.4569417,0.0937 59.244025,6.93428239 59.244025,15.3446417 C59.244025,16.9673325 57.9373583,18.284299 56.3273583,18.284299 C54.7173583,18.284299 53.4106917,16.9673325 53.4106917,15.3446417 C53.4106917,10.1767243 49.2398583,5.97301447 44.1123583,5.97301447 C38.987775,5.97301447 34.8169417,10.1767243 34.8169417,15.3446417 L34.8169417,64.2143855 L43.6281917,64.2143855 L43.6281917,41.800087 L57.301525,41.800087 C58.911525,41.800087 60.215275,43.1141138 60.215275,44.7397443 C60.215275,46.3653747 58.911525,47.6794015 57.301525,47.6794015 L49.461525,47.6794015 L49.461525,64.2143855 Z M57.2259833,20.9411612 C57.5614,20.9411612 61.9947333,28.4314078 61.9947333,31.482772 C61.9947333,34.1343429 59.8597333,36.2891116 57.2259833,36.2891116 C54.59515,36.2891116 52.46015,34.1343429 52.46015,31.482772 C52.46015,28.4314078 56.8934833,20.9411612 57.2259833,20.9411612 Z" id="Kitchen-Mixer--" fill="url(#linearGradient-1)" fill-rule="nonzero"></path>
    </g>
</svg>