<?xml version="1.0" encoding="UTF-8"?>
<svg width="71px" height="71px" viewBox="0 0 71 71" version="1.1" xmlns="http://www.w3.org/2000/svg" xmlns:xlink="http://www.w3.org/1999/xlink">
    <!-- Generator: Sketch 53 (72520) - https://sketchapp.com -->
    <title>Toilet Paper Holder </title>
    <desc>Created with Sketch.</desc>
    <defs>
        <linearGradient x1="5.63673899%" y1="-11.1485635%" x2="51.5179728%" y2="97.7255544%" id="linearGradient-1">
            <stop stop-color="#64C866" offset="0%"></stop>
            <stop stop-color="#6EDADA" offset="100%"></stop>
        </linearGradient>
    </defs>
    <g id="Page-1" stroke="none" stroke-width="1" fill="none" fill-rule="evenodd">
        <path d="M24.0997104,2.05883193 L55.0137781,2.05883193 C58.9525932,2.05883193 61.2138147,6.31614682 62.2951409,11.6154012 C63.6845685,10.4344614 64.555393,8.65950423 64.555393,6.73622423 C64.555393,4.98458207 65.9570074,3.56295944 67.6839965,3.56295944 C69.4141142,3.56295944 70.8126,4.98458207 70.8126,6.73622423 C70.8126,11.9104605 67.6587829,16.5430945 63.0657649,18.4750342 C63.0854034,19.0457497 63.0949609,19.6135325 63.0949609,20.1750006 L63.0949609,70.5125 L50.4929461,66.282538 L40.5658873,69.4399365 L30.1288661,66.2730182 L17.4705364,70.5093267 L17.4705364,35.787012 C13.884939,33.2326852 12.4568801,25.9872853 12.355217,19.392897 C5.90751518,18.8897375 0.8126,13.4070019 0.8126,6.73749354 C0.8126,4.98585138 2.21108576,3.56422875 3.94120348,3.56422875 C5.6681926,3.56422875 7.06980696,4.98585138 7.06980696,6.73749354 C7.06980696,10.0144316 9.52695515,12.7183806 12.6722469,13.0498747 C13.4611227,6.46245798 15.7716182,0.5125 20.4305081,0.5125 C21.8694907,0.5125 23.0844376,1.08012311 24.0997104,2.05883193 Z M27.3239302,8.40536151 C28.1557349,11.535074 28.5116909,15.1996358 28.5116909,18.6286687 C28.5116909,25.209137 27.1998038,32.6596224 23.7277433,35.5278525 L23.7277433,61.7320763 L30.0381366,59.618682 L40.5220868,62.8014666 L50.5398752,59.6123354 L56.837754,61.7257298 L56.837754,20.1750006 C56.837754,13.7015405 55.401725,9.49379134 54.525716,8.40536151 L27.3239302,8.40536151 Z M22.2470505,19.4305527 L18.613943,19.4305527 C18.705806,24.3747851 19.634433,27.8949506 20.4305081,29.5700857 C21.2236128,27.8949506 22.1549099,24.3747851 22.2470505,19.4305527 Z M18.9894276,13.0840231 L21.8707171,13.0840231 C21.5062591,10.5968553 20.9398822,8.75993933 20.4305081,7.68407843 C19.9192263,8.75993933 19.3532683,10.5968553 18.9894276,13.0840231 Z" id="Toilet-Paper-Holder-" fill="url(#linearGradient-1)" fill-rule="nonzero"></path>
    </g>
</svg>