<?xml version="1.0" encoding="UTF-8"?>
<svg width="70px" height="71px" viewBox="0 0 70 71" version="1.1" xmlns="http://www.w3.org/2000/svg" xmlns:xlink="http://www.w3.org/1999/xlink">
    <!-- Generator: Sketch 53 (72520) - https://sketchapp.com -->
    <title>Exhaust Fan</title>
    <desc>Created with Sketch.</desc>
    <defs>
        <linearGradient x1="5.63673899%" y1="-11.1485635%" x2="51.5179728%" y2="97.7255544%" id="linearGradient-1">
            <stop stop-color="#64C866" offset="0%"></stop>
            <stop stop-color="#6EDADA" offset="100%"></stop>
        </linearGradient>
    </defs>
    <g id="Page-1" stroke="none" stroke-width="1" fill="none" fill-rule="evenodd">
        <path d="M30.4726387,53.5877234 L15.0873394,70.6452249 L13.9760979,70.3882499 C9.21613424,69.2945391 5.02783287,65.9381944 2.48451895,61.18729 C-0.0587949734,56.4332519 -0.647957143,50.8581471 0.865781303,45.8878738 L1.21869528,44.7283523 L22.6764482,39.02476 C22.5801989,39.6891345 22.530616,40.3723121 22.530616,41.068025 C22.530616,46.7465465 25.8293408,51.6228045 30.4726387,53.5877234 Z M43.4779561,41.0677116 C43.4779561,46.0661894 39.7067349,50.118247 35.054687,50.118247 C30.4026392,50.118247 26.631418,46.0661894 26.631418,41.0677116 C26.631418,36.0692337 30.4026392,32.0171761 35.054687,32.0171761 C39.7067349,32.0171761 43.4779561,36.0692337 43.4779561,41.0677116 Z M27.2369134,30.5646404 L21.1440432,7.72520056 L21.9023707,6.81952025 C25.1602625,2.93042244 29.9523093,0.70226084 35.0535204,0.70226084 C40.1547314,0.70226084 44.9496948,2.93042244 48.20467,6.81952025 L48.9659142,7.72520056 L42.873044,30.5646404 C40.7263937,28.7188075 38.0109978,27.6125613 35.0535204,27.6125613 C32.0989596,27.6125613 29.380647,28.7188075 27.2369134,30.5646404 Z M69.2307595,45.9887835 C70.7328314,50.9653245 70.129086,56.5372954 67.5741055,61.2819321 C65.019125,66.0297026 60.8220737,69.370378 56.0591934,70.4515535 L54.9479519,70.7022608 L39.6064023,53.6040194 C44.2672001,51.6453682 47.5775915,46.7628425 47.5775915,41.0686517 C47.5775915,40.3854742 47.5309251,39.714832 47.4375925,39.0567252 L68.8807622,44.829262 L69.2307595,45.9887835 Z" id="Exhaust-Fan" fill="url(#linearGradient-1)" fill-rule="nonzero"></path>
    </g>
</svg>