<?xml version="1.0" encoding="utf-8"?>
<!-- Generator: Adobe Illustrator 16.0.0, SVG Export Plug-In . SVG Version: 6.00 Build 0)  -->
<!DOCTYPE svg PUBLIC "-//W3C//DTD SVG 1.1//EN" "http://www.w3.org/Graphics/SVG/1.1/DTD/svg11.dtd">
<svg version="1.1" id="Capa_1" xmlns="http://www.w3.org/2000/svg" xmlns:xlink="http://www.w3.org/1999/xlink" x="0px" y="0px"
	 width="24px" height="24px" viewBox="108 75.5 24 24" enable-background="new 108 75.5 24 24" xml:space="preserve">
<g>
	<path fill="#99BE48" stroke="#99BE48" stroke-miterlimit="10" d="M113.215,85.186l2.261-2.261c0.174-0.174,0.271-0.406,0.271-0.653
		s-0.096-0.479-0.271-0.653l-0.391-0.391c-0.36-0.36-0.946-0.36-1.306,0l-2.261,2.262c-0.36,0.359-0.36,0.945,0,1.305l0.391,0.391
		c0.18,0.18,0.416,0.271,0.653,0.271C112.798,85.457,113.035,85.366,113.215,85.186z M111.931,84.383
		c-0.132-0.133-0.132-0.349,0-0.481l2.261-2.261c0.066-0.066,0.154-0.1,0.241-0.1c0.086,0,0.174,0.033,0.24,0.1l0.391,0.391
		c0.064,0.064,0.099,0.15,0.099,0.24c0,0.091-0.035,0.176-0.099,0.241l-2.261,2.261c-0.133,0.132-0.349,0.132-0.481,0
		L111.931,84.383z"/>
	<path fill="#99BE48" stroke="#99BE48" stroke-miterlimit="10" d="M131.148,87.6l-0.313-0.882c-0.357-1.005-0.936-1.939-1.674-2.709
		c0.115-0.766-0.131-1.551-0.661-2.081c-0.527-0.529-1.312-0.775-2.077-0.661l-0.756-0.755l0.279-0.28
		c0.114-0.114,0.114-0.299,0-0.413l-1.387-1.387c-0.114-0.114-0.299-0.114-0.412,0l-2.538,2.537c-0.114,0.114-0.114,0.298,0,0.413
		l1.388,1.387c0.055,0.055,0.129,0.085,0.205,0.085c0.078,0,0.152-0.031,0.207-0.085l0.28-0.279l0.754,0.755
		c-0.045,0.306-0.032,0.614,0.031,0.908l-3.049,3.049l-4.284-4.284c0.347-0.469,0.31-1.136-0.115-1.561l-2.463-2.463
		c-0.227-0.227-0.528-0.352-0.849-0.352c-0.32,0-0.622,0.125-0.848,0.352l-3.681,3.681c-0.227,0.227-0.352,0.528-0.352,0.848
		c0,0.321,0.125,0.622,0.352,0.848l2.462,2.464c0.234,0.233,0.542,0.351,0.849,0.351c0.212,0,0.424-0.057,0.612-0.169l1.524,0.286
		l0.828,1.437c0.042,0.073,0.116,0.126,0.199,0.142l1.63,0.305l0.823,1.428l-4.078,4.079c-0.468,0.467-0.464,1.23,0.006,1.702
		c0.237,0.236,0.547,0.355,0.857,0.355c0.307,0,0.612-0.116,0.845-0.35l4.617-4.616l0.416,0.722
		c0.042,0.074,0.116,0.126,0.199,0.142l1.631,0.306l0.827,1.437c0.044,0.074,0.116,0.125,0.199,0.142l1.632,0.304l0.828,1.438
		c0.042,0.074,0.114,0.126,0.197,0.141l1.764,0.33c0.018,0.004,0.035,0.006,0.053,0.006c0.075,0,0.149-0.029,0.204-0.082
		l1.044-1.018c0.056-0.054,0.088-0.129,0.088-0.207c0.001-0.078-0.03-0.153-0.086-0.208l-6.223-6.223l2.995-2.996
		c0.338,0.096,0.698,0.121,1.055,0.068c0.771,0.738,1.704,1.316,2.71,1.673l0.882,0.314c0.032,0.01,0.064,0.017,0.098,0.017
		c0.075,0,0.149-0.03,0.206-0.086C131.16,87.824,131.188,87.706,131.148,87.6z M123.202,82.151l-0.974-0.974l2.124-2.125
		l0.975,0.975L123.202,82.151z M112.062,86.324l-2.463-2.463c-0.116-0.116-0.181-0.271-0.181-0.436s0.064-0.319,0.181-0.436
		l3.681-3.681c0.117-0.116,0.271-0.181,0.436-0.181c0.166,0,0.32,0.064,0.436,0.181l2.463,2.463c0.241,0.24,0.241,0.631,0,0.872
		l-3.682,3.682C112.691,86.564,112.301,86.564,112.062,86.324z M117.73,88.68c-0.042-0.074-0.116-0.125-0.199-0.142l-1.63-0.306
		l-0.828-1.436c-0.043-0.074-0.116-0.125-0.199-0.142l-1.219-0.228l3.085-3.085l4.274,4.274l-2.472,2.472L117.73,88.68z
		 M128.736,95.339l-0.724,0.705l-1.482-0.276l-0.827-1.438c-0.043-0.074-0.115-0.126-0.198-0.142l-1.632-0.306l-0.828-1.437
		c-0.042-0.074-0.114-0.125-0.198-0.142L121.216,92l-0.427-0.741l1.934-1.934L128.736,95.339z M115.332,95.89
		c-0.24,0.24-0.633,0.237-0.876-0.006c-0.244-0.245-0.247-0.638-0.007-0.878l10.246-10.245c0.107,0.207,0.244,0.398,0.41,0.563
		c0.133,0.135,0.284,0.25,0.447,0.347L115.332,95.89z M130.091,87.109c-0.975-0.346-1.874-0.915-2.604-1.645
		c-0.056-0.056-0.131-0.086-0.206-0.086c-0.021,0-0.042,0.002-0.063,0.007c-0.622,0.135-1.274-0.046-1.702-0.474
		c-0.427-0.427-0.609-1.079-0.474-1.702c0.021-0.097-0.008-0.198-0.078-0.268l-0.852-0.852l1.153-1.153l0.852,0.851
		c0.069,0.07,0.171,0.1,0.268,0.079c0.623-0.135,1.274,0.046,1.702,0.474s0.608,1.08,0.474,1.702
		c-0.021,0.097,0.01,0.198,0.079,0.268c0.729,0.73,1.299,1.629,1.646,2.603l0.107,0.304L130.091,87.109z"/>
</g>
</svg>
