<?xml version="1.0" encoding="UTF-8"?>
<svg width="71px" height="71px" viewBox="0 0 71 71" version="1.1" xmlns="http://www.w3.org/2000/svg" xmlns:xlink="http://www.w3.org/1999/xlink">
    <!-- Generator: Sketch 53 (72520) - https://sketchapp.com -->
    <title>Inverter Installation</title>
    <desc>Created with Sketch.</desc>
    <defs>
        <linearGradient x1="5.63673899%" y1="-11.1485635%" x2="51.5179728%" y2="97.7255544%" id="linearGradient-1">
            <stop stop-color="#64C866" offset="0%"></stop>
            <stop stop-color="#6EDADA" offset="100%"></stop>
        </linearGradient>
    </defs>
    <g id="Page-1" stroke="none" stroke-width="1" fill="none" fill-rule="evenodd">
        <path d="M30.548875,63.9425454 C41.4572083,63.9425454 52.3655417,63.9491528 63.2797083,63.9689751 L63.282625,63.9689751 C63.326375,63.9689751 63.3642917,63.9689751 63.4022083,63.9656714 L63.4022083,63.8731673 C63.361375,56.4464095 63.370125,49.0262592 63.378875,41.6061089 L63.3847083,31.2159162 L6.72554167,31.2159162 L6.72554167,63.9458491 L6.73429167,63.9458491 L18.6372083,63.9458491 C22.6067917,63.9425454 26.5792917,63.9425454 30.548875,63.9425454 Z M63.282625,70.5764108 L63.2680417,70.5764108 C48.390125,70.5499811 33.515125,70.5367662 18.6372083,70.5532848 L6.73429167,70.5532848 C3.13220833,70.5532848 0.892208333,68.0358518 0.892208333,63.9854937 L0.892208333,24.6084805 L69.2180417,24.6084805 L69.2122083,41.6127163 C69.2034583,49.0163481 69.1947083,56.4265872 69.2355417,63.8335227 C69.250125,66.3146148 68.3634583,67.8475399 67.6167917,68.6932917 C66.5347083,69.9255784 65.0355417,70.5764108 63.282625,70.5764108 Z M26.3824167,12.2244941 L44.2674167,12.2244941 L44.2674167,4.7911289 L26.3824167,4.7911289 L26.3824167,12.2244941 Z M63.2461667,12.2905685 L70.042,12.2905685 L70.042,18.9971157 L0.042,18.9971157 L0.042,12.3136945 L6.8145,12.3136945 L6.8145,6.56852911 L15.1299167,6.56852911 L15.1299167,12.2277978 L22.7015833,12.2277978 L22.7015833,11.2928457 C22.6986667,8.48138176 22.6986667,5.66991785 22.6986667,2.85515024 C22.6986667,1.38499579 23.4074167,0.578888629 24.7111667,0.578888629 C31.76075,0.575584911 38.8074167,0.575584911 45.8540833,0.578888629 C47.3445,0.582192346 47.9890833,1.33544002 47.9861667,3.04676587 C47.9803333,5.83180003 47.98325,8.61683419 47.9861667,11.4018683 C47.9861667,11.6628621 48.0065833,11.9271595 48.0211667,12.237709 L54.9015833,12.237709 L54.9015833,6.58174398 L63.2461667,6.58174398 L63.2461667,12.2905685 Z M17.8196667,49.3176471 L13.3659167,49.3176471 L13.3659167,44.5503823 L9.44591667,44.5503823 L9.44591667,39.6047166 L13.5205,39.6047166 L13.5205,35.1413938 L17.7321667,35.1413938 L17.7321667,39.4890865 L21.7484167,39.4890865 L21.7484167,44.5371674 L17.8196667,44.5371674 L17.8196667,49.3176471 Z M47.7528333,44.6537886 L47.7528333,39.8105382 L60.3149167,39.8105382 L60.3149167,44.6537886 L47.7528333,44.6537886 Z" id="Inverter-Installation" fill="url(#linearGradient-1)" fill-rule="nonzero"></path>
    </g>
</svg>