<?xml version="1.0" encoding="UTF-8"?>
<svg width="71px" height="71px" viewBox="0 0 71 71" version="1.1" xmlns="http://www.w3.org/2000/svg" xmlns:xlink="http://www.w3.org/1999/xlink">
    <!-- Generator: Sketch 53 (72520) - https://sketchapp.com -->
    <title>Face Mirror (small upto 50 cm) </title>
    <desc>Created with Sketch.</desc>
    <defs>
        <linearGradient x1="5.63673899%" y1="-11.1485635%" x2="51.5179728%" y2="97.7255544%" id="linearGradient-1">
            <stop stop-color="#64C866" offset="0%"></stop>
            <stop stop-color="#6EDADA" offset="100%"></stop>
        </linearGradient>
    </defs>
    <g id="Page-1" stroke="none" stroke-width="1" fill="none" fill-rule="evenodd">
        <path d="M28.0500282,5.87447695 C16.6611961,5.87447695 7.03833279,19.2235592 7.03833279,35.0194366 C7.03833279,50.8182408 16.6611961,64.167323 28.0500282,64.167323 C39.4388602,64.167323 49.0617235,50.8182408 49.0617235,35.0194366 C49.0617235,19.2235592 39.4388602,5.87447695 28.0500282,5.87447695 Z M28.0500282,70.0209 C12.7893931,70.0209 0.3743,54.3186798 0.3743,35.0194366 C0.3743,15.7231202 12.7893931,0.0209 28.0500282,0.0209 C43.3106632,0.0209 55.7257563,15.7231202 55.7257563,35.0194366 C55.7257563,54.3186798 43.3106632,70.0209 28.0500282,70.0209 Z M18.467149,52.0100291 C17.844062,52.0100291 17.2143109,51.8578361 16.6512001,51.5329625 C15.1084765,50.6519992 14.6753144,48.8403172 15.6815833,47.4852141 L34.8373456,21.6797201 C35.8469465,20.3216902 37.9094647,19.9382809 39.4488562,20.8280246 C40.9915798,21.708988 41.428074,23.5235968 40.421805,24.8757731 L21.2593788,50.6812671 C20.6229636,51.5417429 19.5567184,52.0100291 18.467149,52.0100291 Z M26.1237895,56.5087956 C25.4907064,56.5087956 24.8476272,56.3507491 24.2778524,56.0170952 C22.7484569,55.1214979 22.3352868,53.3039623 23.3548839,51.9576396 L31.0185216,41.8602193 C32.0381186,40.5138966 34.1006367,40.1480481 35.6366963,41.0494989 C37.1694238,41.9450962 37.5825939,43.7626318 36.5629968,45.1060277 L28.8993591,55.2063748 C28.25628,56.0522166 27.2000308,56.5087956 26.1237895,56.5087956 Z M22.2939698,31.8254323 C21.6608867,31.8254323 21.0178076,31.6673858 20.4480328,31.3337319 C18.9186372,30.4381346 18.5054672,28.620599 19.5250642,27.2742763 L27.1887019,17.176856 C28.2049669,15.8334601 30.2774811,15.4646848 31.8068766,16.3661356 C33.3396042,17.2617329 33.7527742,19.0792685 32.7331772,20.4226644 L25.0695395,30.5230115 C24.4264603,31.3688533 23.3702111,31.8254323 22.2939698,31.8254323 Z M52.4933672,9.20282081 C52.4933672,8.58526844 53.066474,8.08186082 53.7695295,8.08186082 C55.8886919,8.08186082 57.6013484,6.57456476 57.6013484,4.71605407 C57.6013484,4.09557492 58.1744552,3.5921673 58.8808427,3.5921673 C59.5838981,3.5921673 60.1570049,4.09557492 60.1570049,4.71605407 C60.1570049,6.57456476 61.8696614,8.08186082 63.9888238,8.08186082 C64.6918792,8.08186082 65.2649861,8.58526844 65.2649861,9.20282081 C65.2649861,9.82329997 64.6918792,10.3237808 63.9888238,10.3237808 C61.8696614,10.3237808 60.1570049,11.8310769 60.1570049,13.6895875 C60.1570049,14.3100667 59.5838981,14.8134743 58.8808427,14.8134743 C58.1744552,14.8134743 57.6013484,14.3100667 57.6013484,13.6895875 C57.6013484,11.8310769 55.8886919,10.3237808 53.7695295,10.3237808 C53.066474,10.3237808 52.4933672,9.82329997 52.4933672,9.20282081 Z M69.0981377,21.5445025 C69.8045252,21.5445025 70.3743,22.0449833 70.3743,22.6654624 C70.3743,23.2859416 69.8045252,23.7893492 69.0981377,23.7893492 C67.335501,23.7893492 65.906066,25.0449415 65.906066,26.5932126 C65.906066,27.2136917 65.3329592,27.7141726 64.6265717,27.7141726 C63.9201842,27.7141726 63.3470774,27.2136917 63.3470774,26.5932126 C63.3470774,25.0449415 61.9209744,23.7893492 60.1550057,23.7893492 C59.4486182,23.7893492 58.8821755,23.2859416 58.8821755,22.6654624 C58.8821755,22.0449833 59.4486182,21.5445025 60.1550057,21.5445025 C61.9209744,21.5445025 63.3470774,20.2889102 63.3470774,18.7406391 C63.3470774,18.1201599 63.9201842,17.6167523 64.6265717,17.6167523 C65.3329592,17.6167523 65.906066,18.1201599 65.906066,18.7406391 C65.906066,20.2889102 67.335501,21.5445025 69.0981377,21.5445025 Z" id="Face-Mirror-(small-upto-50-cm)-" fill="url(#linearGradient-1)" fill-rule="nonzero"></path>
    </g>
</svg>