<?xml version="1.0" encoding="UTF-8"?>
<svg width="71px" height="71px" viewBox="0 0 71 71" version="1.1" xmlns="http://www.w3.org/2000/svg" xmlns:xlink="http://www.w3.org/1999/xlink">
    <!-- Generator: Sketch 53 (72520) - https://sketchapp.com -->
    <title>Health Faucet  </title>
    <desc>Created with Sketch.</desc>
    <defs>
        <linearGradient x1="5.63673899%" y1="-11.1485635%" x2="51.5179728%" y2="97.7255544%" id="linearGradient-1">
            <stop stop-color="#64C866" offset="0%"></stop>
            <stop stop-color="#6EDADA" offset="100%"></stop>
        </linearGradient>
    </defs>
    <g id="Page-1" stroke="none" stroke-width="1" fill="none" fill-rule="evenodd">
        <path d="M4.78870097,40.3460776 L4.71052228,70.3355233 L0.7709,70.3287316 L0.849065862,40.3460776 L0.813439365,40.3460776 L0.813439365,5.86483715 L9.30555704,5.86483715 C16.2300203,5.86483715 21.8625474,10.7165202 21.8625474,16.6852107 L21.8625474,29.5257041 C21.8625474,35.4909994 16.2300203,40.3460776 9.30555704,40.3460776 L8.72675657,40.3460776 L8.64856018,70.3423123 L4.71052228,70.3355233 L4.78870097,40.3460776 L4.78870097,40.3460776 Z M8.74445807,33.5557585 L9.30555704,33.5557585 C11.8854908,33.5557585 13.9848872,31.7461384 13.9848872,29.5257041 L13.9848872,16.6852107 C13.9848872,14.4647763 11.8854908,12.6551563 9.30555704,12.6551563 L8.69109955,12.6551563 L8.69109955,15.9483327 L8.79035807,15.948461 L8.74445807,33.5557585 Z M67.1260073,27.2821827 C67.0196588,27.2821827 66.9093716,27.2787875 66.7951455,27.2719972 L62.2536744,27.0139651 C60.083379,26.884949 58.4211927,25.3808933 58.3896821,23.5101604 C58.369988,22.5697012 58.7678098,21.714121 59.5161875,21.1029923 C60.2566876,20.4884684 61.2807834,20.1727185 62.3639617,20.2508072 L66.9054328,20.5088393 C69.0717893,20.6310651 70.7339756,22.1385159 70.7694251,24.0092488 C70.7969969,25.0006354 70.4385634,25.7679415 69.6468585,26.4198121 C68.9339303,27.0037796 68.1264701,27.2821827 67.1260073,27.2821827 Z M49.1673053,26.448671 C49.0845899,26.448671 48.9979356,26.448671 48.9152202,26.4418807 L44.6415896,26.2653324 C42.5303766,26.1770582 40.9312116,24.7375106 40.9312116,22.9109147 C40.9351504,22.0044071 41.3329723,21.1861737 42.0498394,20.5954159 C42.7745841,20.0046582 43.7474751,19.7364405 44.7873263,19.7432309 L49.0688346,19.9231743 C51.1839863,20.0148436 52.7752737,21.4577864 52.7752737,23.2809871 C52.7752737,24.235027 52.4168402,24.9717766 51.6527071,25.5998811 C50.9515954,26.1770582 50.1559517,26.448671 49.1673053,26.448671 Z M59.5473043,48.2405026 C59.4055064,48.2405026 59.2834027,48.2371074 59.1888707,48.2303171 L58.9486021,48.1997607 L54.7458704,47.3543659 C52.8000883,47.0080597 51.2206175,45.1305364 51.4727026,43.4227712 C51.5948063,42.5807716 52.1659367,41.7964898 53.0324793,41.2600545 C53.9187161,40.7134339 55.009772,40.5063291 55.9984184,40.6862726 L60.2326607,41.5350625 C62.1863204,41.8915542 63.7579136,43.7690775 63.5097673,45.4700524 C63.2498046,46.2305681 63.0055971,46.8926243 62.3872008,47.398503 C61.5088417,48.1182768 60.2759878,48.2405026 59.5473043,48.2405026 Z M44.1240273,43.536509 C43.7065113,43.536509 43.3441389,43.4482349 43.0605432,43.3429849 L39.2832051,42.6401869 C37.3807502,42.3244371 35.8800559,40.5182122 36.1597128,38.8613743 C36.2936331,38.0533263 36.8568858,37.2894154 37.6997954,36.7733512 C38.5505827,36.2504966 39.5825562,36.0433919 40.5357531,36.1995692 L44.5179103,36.9363189 C46.4124876,37.2486735 47.9171207,39.0515033 47.6414026,40.7185266 C47.3775009,41.4484859 47.1332935,42.0799856 46.5306525,42.5722837 C45.6286604,43.3090333 44.8015061,43.536509 44.1240273,43.536509 Z M56.3371577,7.44596296 C55.6675566,7.44596296 54.9113013,7.23885822 54.245639,6.83143908 C53.2924421,6.25086679 52.6189021,5.33077855 52.4416548,4.36655324 C52.2013862,3.61282782 52.39045,2.72329601 53.0049075,1.98315123 C53.6587533,1.19547421 54.7182986,0.679409962 55.8369263,0.604716451 L59.8584718,0.38403108 C60.6383602,0.248224698 61.6033736,0.445143952 62.4384056,0.957813045 C63.3916024,1.53838533 64.0651424,2.45847357 64.2423897,3.42269888 C64.5023525,4.46501287 64.1163472,5.51751233 63.1395173,6.31537482 C62.521121,6.8212536 61.7451715,7.00119705 61.1188975,7.14379376 L60.8353017,7.18453567 L56.8255727,7.40522104 C56.6680195,7.43238232 56.5065274,7.44596296 56.3371577,7.44596296 Z M41.6988896,10.8564007 C41.0568603,10.8564007 40.3321156,10.6628766 39.7019027,10.2758284 C38.7880942,9.72241744 38.1539425,8.83967595 38.0003281,7.90940223 C37.7915701,7.19981389 37.980634,6.34762884 38.5714585,5.63804049 C39.2016713,4.87412959 40.2257671,4.3614605 41.3010678,4.27658151 L45.1099165,4.00496875 C45.8464777,3.86916236 46.8154299,4.04910582 47.6228901,4.54140396 C48.5327598,5.09481496 49.1669114,5.98095161 49.3205258,6.90783017 C49.548978,7.8958216 49.1590338,8.90418398 48.2215922,9.68507068 C47.6110736,10.180764 46.8430017,10.3674978 46.2836878,10.5033041 L46.0040309,10.544046 L42.2148763,10.8156588 C42.0533843,10.8428201 41.8800758,10.8564007 41.6988896,10.8564007 Z M64.1139839,38.5619212 C64.0352073,38.5619212 63.9564307,38.5619212 63.8815929,38.5551309 L63.7082844,38.53476 L59.3322441,37.8319619 C57.4376669,37.7368975 55.8503183,36.1683338 55.81093,34.2093267 C55.7912359,33.3571417 56.1614859,32.5728598 56.85472,32.002473 C57.6267307,31.3675782 58.7808079,31.024667 59.9663958,31.109546 L64.5118057,31.832715 C66.4024442,31.9277795 67.9937315,33.492948 68.0331198,35.4519551 L68.0370587,35.6658501 L67.9622209,35.8661646 C67.7652794,36.3958095 67.5171331,37.0578656 66.8987368,37.5637443 C66.1149096,38.2088247 65.1105079,38.5619212 64.1139839,38.5619212 Z M47.1065094,35.1718544 C47.047427,35.1718544 46.9883445,35.1684593 46.9292621,35.1650641 L46.7598924,35.1514835 L42.6477538,34.5539354 C40.8004425,34.482637 39.280054,32.9819765 39.280054,31.077292 C39.2839929,30.2522682 39.6503041,29.501938 40.323844,28.9519221 C41.0761606,28.3373982 42.1554,28.0488097 43.3015996,28.0623903 L47.5870467,28.6769142 C49.434358,28.7482126 50.9547464,30.2454779 50.9547464,32.1501624 L50.8799087,32.5575816 C50.6790283,33.0668555 50.4348209,33.6915649 49.8361187,34.183863 C49.0680468,34.8153627 48.0833393,35.1718544 47.1065094,35.1718544 Z M61.1251996,17.3027902 C58.7540239,17.170379 57.013061,15.7274361 56.9776115,13.9415822 C56.9579174,12.9060586 57.3911887,11.9486236 58.1631994,11.3103336 C58.8603723,10.7365516 59.7978139,10.4377776 60.7746437,10.5158662 L64.9694978,10.7569226 C67.2343251,10.8859386 68.9713491,12.3288814 69.0028598,14.1147354 C69.0225539,15.1129123 68.6641204,15.8802183 67.8802932,16.5252986 C67.2934075,17.0040161 66.3756601,17.2484676 65.6154659,17.2620483 L61.1251996,17.3027902 Z M44.1043331,18.8543781 C41.7843622,18.7593136 40.1182371,17.3740885 40.1182371,15.6323717 C40.1221759,14.6409851 40.5515084,13.724292 41.3038249,13.1097681 C41.9655484,12.5631474 42.7808862,12.2949298 43.804982,12.3153008 L47.9762031,12.213446 C50.296174,12.3017202 51.9622992,13.6903404 51.9622992,15.4320573 C51.9622992,16.3860971 51.6078045,17.1228467 50.8397326,17.7509512 C50.1268043,18.3383138 48.9727271,18.6438782 48.7482138,18.6982008 L48.3819026,18.7491281 L44.1043331,18.8543781 Z M31.9613138,25.9461874 L31.8982926,25.9461874 L28.6093694,25.9088406 C27.7191938,25.8986551 26.903856,25.6032763 26.3130315,25.066841 C25.7182681,24.533801 25.4071006,23.8140272 25.4386112,23.0467211 C25.5095102,21.5019235 26.951122,20.3068274 28.7314732,20.3068274 L28.7708615,20.3068274 L32.0716011,20.3441741 C32.9657155,20.3577547 33.7810533,20.6599239 34.3758167,21.1963592 C34.9627024,21.7293992 35.2699311,22.449173 35.2344816,23.2130839 C35.2108487,24.0007609 34.8878646,24.6254703 34.23008,25.172091 C33.5841118,25.7017359 32.8672448,25.9461874 31.9613138,25.9461874 Z M27.5955146,39.2012298 C27.2685917,39.2012298 26.9810571,39.1435121 26.7486661,39.0654234 L23.8969531,38.6206575 C23.1210036,38.5154076 22.3568705,38.0944078 21.8408838,37.4663033 C21.3248971,36.8381987 21.1122002,36.0742878 21.257937,35.374885 C21.5533492,33.9421276 23.3021898,32.8251201 25.0234585,33.0627813 L28.0760518,33.5347085 C28.8480625,33.6365633 29.6082567,34.0541679 30.1242435,34.6754821 C30.6481079,35.3069818 30.8647435,36.0708927 30.7190068,36.7736907 C30.4629829,37.4289565 30.2384696,37.9314401 29.7303605,38.3456496 C28.930778,39.0043105 28.1981556,39.2012298 27.5955146,39.2012298 Z M26.7443334,14.1442732 C26.1928972,14.1442732 25.5784397,13.9779104 25.0466976,13.6519751 C24.2746869,13.1834431 23.7547613,12.4263225 23.6523518,11.6250649 C23.5026762,11.054678 23.6838624,10.3349042 24.1840938,9.72717066 C24.7315912,9.06171939 25.6099503,8.59997769 26.5316366,8.4981229 L29.4739426,8.20274402 C30.1553602,8.053357 30.9982699,8.20613918 31.7033205,8.6407196 C32.4713923,9.10925162 32.9913179,9.86297704 33.0897887,10.6608395 C33.2473419,11.4858633 32.8928472,12.3482338 32.0814482,13.0238706 C31.5654614,13.4414752 30.9746369,13.6010477 30.5019773,13.7368541 L30.1986874,13.7911766 L27.2681978,14.0865555 C27.1027669,14.1239023 26.9294584,14.1442732 26.7443334,14.1442732 Z M30.1399988,32.7011968 L30.0927328,32.7011968 L29.9194243,32.6910113 L26.7604826,32.3277293 C26.1184533,32.3277293 25.3700756,32.045931 24.8147005,31.5468426 C24.2041819,30.9934316 23.8733201,30.1955691 23.9048308,29.363755 C23.9717909,27.8461187 25.5473229,26.7698531 27.3591848,26.7359015 L30.691435,27.109369 L30.7032515,27.109369 C31.3374032,27.109369 32.0936585,27.3911673 32.6450947,27.8936509 C33.2556134,28.4470619 33.5864751,29.2415292 33.5510257,30.0767385 L33.4643714,30.4637867 C33.2989405,30.85423 33.0704884,31.3906652 32.5505628,31.8184553 C31.8730841,32.3786567 30.9986638,32.7011968 30.1399988,32.7011968 Z M28.4518162,20.2233064 C27.3765156,20.2165161 26.4705847,19.8939759 25.860066,19.3405649 C25.304691,18.8414765 25.0132176,18.1760252 25.0407894,17.4732272 C25.1116883,15.8367603 26.4745235,14.6212932 28.2154864,14.6212932 L28.2509359,14.6212932 L31.4453271,14.4447449 C32.5245665,14.4515352 33.4265586,14.7774705 34.0410161,15.3308815 C34.5963912,15.8333651 34.8878646,16.4954212 34.856354,17.2016144 C34.8287822,17.9892914 34.5097369,18.6140008 33.8519523,19.1606215 C33.371415,19.5510648 32.6387926,19.8430486 32.1109894,19.9890404 L31.7564947,20.043363 L28.4518162,20.2233064 Z" id="Health-Faucet--" fill="url(#linearGradient-1)" fill-rule="nonzero"></path>
    </g>
</svg>