<?xml version="1.0" encoding="UTF-8"?>
<svg width="70px" height="70px" viewBox="0 0 70 70" version="1.1" xmlns="http://www.w3.org/2000/svg" xmlns:xlink="http://www.w3.org/1999/xlink">
    <!-- Generator: Sketch 53 (72520) - https://sketchapp.com -->
    <title>Door Latch  (magnetic)Fitting</title>
    <desc>Created with Sketch.</desc>
    <defs>
        <linearGradient x1="5.63673899%" y1="-11.1485635%" x2="51.5179728%" y2="97.7255544%" id="linearGradient-1">
            <stop stop-color="#64C866" offset="0%"></stop>
            <stop stop-color="#6EDADA" offset="100%"></stop>
        </linearGradient>
    </defs>
    <g id="Page-1" stroke="none" stroke-width="1" fill="none" fill-rule="evenodd">
        <path d="M23.7602019,23.2132105 C14.2055162,21.4585469 15.4032671,12.7604167 15.4032671,12.7604167 L23.760207,12.7604167 L23.760207,0.0595 L69.9097334,0.0595 L69.9097334,5.89283333 L29.5838585,5.89283333 L29.5838585,64.1211667 L70,64.1211667 L70,69.9545 L23.760207,69.9545 L23.760207,23.2132114 Z M45.6299232,27.0840889 C45.0246978,27.2354174 44.3913288,27.31575 43.7391171,27.31575 C39.4441741,27.31575 35.9587186,23.8274167 35.9587186,19.5224167 C35.9587186,15.2174167 39.4441741,11.732 43.7391171,11.732 C44.2621319,11.732 44.7730297,11.7836154 45.2670142,11.882042 L69.9513725,13.9664583 L69.9571962,24.7377083 L45.6299232,27.0840889 Z M9.20136939,5.68434189e-14 L9.20136939,12.775 L7.51251045,12.775 L7.51251045,23.45 L9.20136939,23.45 L9.20136939,70 L4.26325641e-14,70 L4.26325641e-14,5.68434189e-14 L9.20136939,5.68434189e-14 Z M55.3811788,42.8073333 C55.3811788,45.13775 54.3998935,46.3073333 53.2526342,47.04525 L54.0679454,54.4215 C54.1087109,54.789 53.9893261,55.1594167 53.7447327,55.4365 C53.4972275,55.7135833 53.1419848,55.8710833 52.7721829,55.8710833 L47.5541912,55.8710833 C47.1843893,55.8710833 46.8291465,55.7135833 46.5816414,55.4365 C46.337048,55.1594167 46.2176631,54.789 46.2584287,54.4215 L47.0795636,47.01025 C45.7459474,46.0360833 44.9451953,44.4960833 44.9451953,42.8073333 C44.9451953,39.9285833 47.289215,37.5835833 50.163187,37.5835833 C53.0371591,37.5835833 55.3811788,39.9285833 55.3811788,42.8073333 Z" id="Door-Latch--(magnetic)Fitting" fill="url(#linearGradient-1)" fill-rule="nonzero"></path>
    </g>
</svg>