<svg id="Layer_1" data-name="Layer 1" xmlns="http://www.w3.org/2000/svg" xmlns:xlink="http://www.w3.org/1999/xlink" width="70" height="70" viewBox="0 0 70 70">
  <defs>
    <style>
      .cls-1 {
        fill: #f6f6f6;
      }

      .cls-2 {
        fill: url(#linear-gradient);
      }

      .cls-3 {
        fill: url(#linear-gradient-2);
      }

      .cls-4 {
        fill: url(#linear-gradient-3);
      }

      .cls-5 {
        fill: url(#linear-gradient-4);
      }

      .cls-6 {
        fill: url(#linear-gradient-5);
      }

      .cls-7 {
        fill: url(#linear-gradient-6);
      }

      .cls-8 {
        fill: url(#linear-gradient-7);
      }

      .cls-9 {
        fill: url(#linear-gradient-8);
      }

      .cls-10 {
        fill: url(#linear-gradient-9);
      }

      .cls-11 {
        fill: url(#linear-gradient-10);
      }

      .cls-12 {
        fill: url(#linear-gradient-11);
      }
    </style>
    <linearGradient id="linear-gradient" x1="51.85" y1="67.76" x2="16.93" y2="-0.98" gradientUnits="userSpaceOnUse">
      <stop offset="0" stop-color="#64dcc2"/>
      <stop offset="1" stop-color="#70bce6"/>
    </linearGradient>
    <linearGradient id="linear-gradient-2" x1="52.82" y1="67.26" x2="17.9" y2="-1.48" gradientTransform="translate(28.4 -15) rotate(44.2)" xlink:href="#linear-gradient"/>
    <linearGradient id="linear-gradient-3" x1="50.24" y1="68.58" x2="15.31" y2="-0.16" xlink:href="#linear-gradient"/>
    <linearGradient id="linear-gradient-4" x1="59.06" y1="64.1" x2="24.13" y2="-4.64" xlink:href="#linear-gradient"/>
    <linearGradient id="linear-gradient-5" x1="55.63" y1="65.84" x2="20.71" y2="-2.91" xlink:href="#linear-gradient"/>
    <linearGradient id="linear-gradient-6" x1="42.13" y1="72.7" x2="7.21" y2="3.95" xlink:href="#linear-gradient"/>
    <linearGradient id="linear-gradient-7" x1="44.23" y1="71.63" x2="9.3" y2="2.89" xlink:href="#linear-gradient"/>
    <linearGradient id="linear-gradient-8" x1="50.28" y1="68.56" x2="15.36" y2="-0.19" xlink:href="#linear-gradient"/>
    <linearGradient id="linear-gradient-9" x1="51.5" y1="67.94" x2="16.58" y2="-0.8" xlink:href="#linear-gradient"/>
    <linearGradient id="linear-gradient-10" x1="45.44" y1="71.01" x2="10.52" y2="2.27" xlink:href="#linear-gradient"/>
    <linearGradient id="linear-gradient-11" x1="55.73" y1="65.79" x2="20.81" y2="-2.96" xlink:href="#linear-gradient"/>
  </defs>
  <title>icon_ac_E00</title>
  <path id="Rectangle" class="cls-1" d="M3,0H67a2.9,2.9,0,0,1,3,3V67a2.9,2.9,0,0,1-3,3H3a2.9,2.9,0,0,1-3-3V3A2.9,2.9,0,0,1,3,0Z"/>
  <g>
    <path class="cls-2" d="M40.2,34.4a1.6,1.6,0,0,0-.5-1.1l-2.2-2.1a1.5,1.5,0,0,0-2,0l-4.4,4.2a1.5,1.5,0,0,0-.4,1.1,1.3,1.3,0,0,0,.4,1l2.2,2.1a1.3,1.3,0,0,0,1,.4,1.5,1.5,0,0,0,1.1-.4l4.3-4.2A1.2,1.2,0,0,0,40.2,34.4Zm-5.8,4.1c0,.1,0,.1-.1.1v0l-2.1-2.1,1.6-1.7-.2.8,2.9.9ZM37,36l.3-.8-2.9-.9,2.1-2,2.2,2.1Z"/>
    <rect class="cls-3" x="31.9" y="23" width="1.5" height="9" transform="translate(-9.9 30.5) rotate(-44.2)"/>
    <path class="cls-4" d="M56.3,48.3h0V33.9h0a1.5,1.5,0,0,0,1.5-1.5V28.7a1.5,1.5,0,0,0-1.5-1.5h0v-9a6,6,0,0,0-6.1-6H43.9a1.4,1.4,0,0,0-1.3-.7H40.3A1.5,1.5,0,0,0,38.8,10H11.4a1.5,1.5,0,0,0-1.5,1.5V30.9a1.5,1.5,0,0,0,1.5,1.5h0v1.5a1.5,1.5,0,0,0,1.5,1.5h.8v6.7h-.8a1.5,1.5,0,0,0-1.5,1.5v6a1.5,1.5,0,0,0,1.5,1.5h0v7.4A1.5,1.5,0,0,0,14.4,60H19a1.5,1.5,0,0,0,1.5-1.5V51.1h0A1.5,1.5,0,0,0,22,49.6h.9a3.8,3.8,0,0,0,3.7,3,3.9,3.9,0,0,0,3.8-3h3.1A1.5,1.5,0,0,0,35,51.1h9.1c8.5,8.2,8.5,8.2,9.1,8.2a1.5,1.5,0,0,0,1.1-.4l5.4-5.2a1.5,1.5,0,0,0,.4-1.1,1.2,1.2,0,0,0-.4-1Zm-1.5-1.4-6.9-6.7V33.9h6.9ZM39.7,25l-.2-.2h0a9.5,9.5,0,0,0,.7-2.9h2.4a1.4,1.4,0,0,0,1.5-1.3h2.4v6.6h-.1a1.5,1.5,0,0,0-1.5,1.5v3.7a1.5,1.5,0,0,0,1.5,1.5h.1v4.9h0l-4-3.9A10.2,10.2,0,0,0,39.7,25Zm4.4-5.9V13.7H45v5.4Zm12.3,9.6v3.7h-10V28.7Zm-8.5-1.5V22.7h6.9v4.5Zm6.9-6H48l5.9-5.7a4.4,4.4,0,0,1,.9,2.7Zm-2.1-6.8h0l-5.2,5.1a1.5,1.5,0,0,0-1.1-.4h0V13.7h3.8A4.9,4.9,0,0,1,52.7,14.4ZM42.6,13v7.5H40.3V13ZM12.9,33.9v-3h7.6v3H12.9Zm2.2,1.5h3.2v6.7H15.1ZM19,58.5H14.4V51.1H19Zm1.5-8.9H12.9v-6h7.6Zm2.4-1.5H22v-3h2.3A13.1,13.1,0,0,0,22.9,48.1Zm3.7-5.9a.7.7,0,0,0-.6.3,4.8,4.8,0,0,0-.8,1.2H22a1.5,1.5,0,0,0-1.5-1.5h-.8V35.4h.8A1.5,1.5,0,0,0,22,33.9v-3a1.5,1.5,0,0,0-1.5-1.5H12.9a1.5,1.5,0,0,0-1.5,1.5h0V11.5H38.8v9a8.8,8.8,0,0,1-.5,3.3A10.9,10.9,0,0,0,24.7,25a1.4,1.4,0,0,0-.5,1,1.6,1.6,0,0,0,.5,1.1L30,32.3l-.5.5h0l-3.8-3.7a1.5,1.5,0,0,0-2.1.1A5.4,5.4,0,0,0,22.1,33a6.6,6.6,0,0,0,2.2,5.1h0a.8.8,0,0,0-.1.4,1.6,1.6,0,0,0,.5,1.1,10.5,10.5,0,0,0,9.4,2.8h0a1.4,1.4,0,0,0-.6,1.2H28.1l-.9-1.2A.6.6,0,0,0,26.6,42.2ZM25.2,37a5.4,5.4,0,0,1-1.7-4,3.9,3.9,0,0,1,1.1-2.8l3.8,3.6Zm5.1,11.1a13.1,13.1,0,0,0-1.4-3h4.6v3ZM35,49.6v-6h1.4l6.2,6H35Zm18.2,9v-.8h0Zm.1-.8c-.6-.4-2.8-2.6-9-8.6l-8.9-8.6h-.5a9.2,9.2,0,0,1-9.2-2.2l6.5-6.2L25.7,26A9.4,9.4,0,0,1,38,25.5h.2l.5.4a8.5,8.5,0,0,1,2.2,8.9v.5L58.6,52.6Z"/>
    <path class="cls-5" d="M50.2,52.6a2.7,2.7,0,0,0,.9,2.1,2.9,2.9,0,0,0,2.1.9h0a3.1,3.1,0,0,0,2.2-.9,3,3,0,0,0,.8-2.1,3,3,0,0,0-5.1-2.1A2.9,2.9,0,0,0,50.2,52.6Zm1.9-1a1.6,1.6,0,0,1,2.2,0,1.4,1.4,0,0,1,.5,1,1.6,1.6,0,0,1-.5,1.1,2.1,2.1,0,0,1-1.1.4h0a2.1,2.1,0,0,1-1.1-.4,1.5,1.5,0,0,1-.4-1.1A1.3,1.3,0,0,1,52.1,51.6Z"/>
    <polygon class="cls-6" points="38.2 39.1 50.2 50.5 51.2 49.6 39.2 38.1 38.2 39.1"/>
    <path class="cls-7" d="M33.5,51.1a.9.9,0,0,0-.6.3c-.4.4-2.5,2.7-2.5,4.2a3.1,3.1,0,0,0,3.1,3,3,3,0,0,0,3-3c0-1.5-2-3.8-2.5-4.2A.5.5,0,0,0,33.5,51.1Z"/>
    <rect class="cls-8" x="13.7" y="13.8" width="3" height="1.42"/>
    <rect class="cls-9" x="18.2" y="13.8" width="9.1" height="1.42"/>
    <rect class="cls-10" x="24.3" y="16.8" width="3" height="1.42"/>
    <rect class="cls-11" x="13.7" y="16.8" width="9.1" height="1.42"/>
    <rect class="cls-12" x="28.9" y="13.8" width="1.5" height="1.42"/>
  </g>
</svg>
