<svg id="Layer_1" data-name="Layer 1" xmlns="http://www.w3.org/2000/svg" xmlns:xlink="http://www.w3.org/1999/xlink" width="70" height="70" viewBox="0 0 70 70">
  <defs>
    <style>
      .cls-1 {
        fill: #f6f6f6;
      }

      .cls-2 {
        fill: url(#linear-gradient);
      }

      .cls-3 {
        fill: url(#linear-gradient-2);
      }

      .cls-4 {
        fill: url(#linear-gradient-3);
      }

      .cls-5 {
        fill: url(#linear-gradient-4);
      }

      .cls-6 {
        fill: url(#linear-gradient-5);
      }
    </style>
    <linearGradient id="linear-gradient" x1="35.43" y1="77" x2="8.95" y2="2.94" gradientUnits="userSpaceOnUse">
      <stop offset="0" stop-color="#75c9b9"/>
      <stop offset="1" stop-color="#72bde5"/>
    </linearGradient>
    <linearGradient id="linear-gradient-2" x1="34.29" y1="77.4" x2="7.82" y2="3.35" xlink:href="#linear-gradient"/>
    <linearGradient id="linear-gradient-3" x1="40.71" y1="75.11" x2="14.24" y2="1.05" xlink:href="#linear-gradient"/>
    <linearGradient id="linear-gradient-4" x1="44.47" y1="73.77" x2="17.99" y2="-0.29" xlink:href="#linear-gradient"/>
    <linearGradient id="linear-gradient-5" x1="45.07" y1="73.55" x2="18.6" y2="-0.51" xlink:href="#linear-gradient"/>
  </defs>
  <title>icon_plumbing_P0</title>
  <path id="Rectangle" class="cls-1" d="M3,0H67a2.9,2.9,0,0,1,3,3V67a2.9,2.9,0,0,1-3,3H3a2.9,2.9,0,0,1-3-3V3A2.9,2.9,0,0,1,3,0Z"/>
  <g>
    <path class="cls-2" d="M23.7,48.9a4.8,4.8,0,0,0,4.8-4.7,4.8,4.8,0,1,0-9.6,0A4.8,4.8,0,0,0,23.7,48.9Zm-3.1-4.7a3.1,3.1,0,1,1,3.1,3.1A3.1,3.1,0,0,1,20.6,44.2Z"/>
    <path class="cls-3" d="M22.2,45h.4a.8.8,0,0,0,.9-.8.9.9,0,0,0-.9-.9h-.4a.9.9,0,0,0-.9.9A.8.8,0,0,0,22.2,45Z"/>
    <path class="cls-4" d="M21.5,24.8a.9.9,0,0,0-1.2.4,6.9,6.9,0,0,0-.5,2.4,3.9,3.9,0,0,0,7.8,0c0-3.2-3.2-5.9-3.4-6a.7.7,0,0,0-1,0l-1,.9a.8.8,0,0,0,.1,1.2l.6.2a.9.9,0,0,0,.6-.3l.2-.2c.9.9,2.2,2.5,2.2,4.2a2.2,2.2,0,1,1-4.4,0,3.8,3.8,0,0,1,.4-1.7A.8.8,0,0,0,21.5,24.8Z"/>
    <path class="cls-5" d="M29.9,15.7a.9.9,0,0,0-.8-.9H18.3a.9.9,0,0,0-.8.9.9.9,0,0,0,.8.8H29.1A.9.9,0,0,0,29.9,15.7Z"/>
    <path class="cls-6" d="M55.4,26.7a2.2,2.2,0,0,0-2.2,2.2A2.2,2.2,0,0,0,54.8,31V60.3H50V30.9a2.1,2.1,0,0,0,1.3-2,2.2,2.2,0,1,0-4.3,0A2.2,2.2,0,0,0,48.4,31V60.3H31.8v-.7h1.3a1.4,1.4,0,0,0,1.4-1.4V56.6a1.4,1.4,0,0,0-1.4-1.4H32v-2h2.3a5.4,5.4,0,0,0,5.5-5.4V13.6a5.4,5.4,0,0,0-5.5-5.4H13.1A5.2,5.2,0,0,0,9.3,9.7a.6.6,0,0,0-.3.6,1.4,1.4,0,0,0,.2.6l.6.2c.3,0,.5,0,.6-.2a3.9,3.9,0,0,1,2.7-1.1H34.3a3.8,3.8,0,0,1,3.8,3.8v4.3a2.7,2.7,0,0,1-.3,1.2,2.4,2.4,0,0,1-.9.8,4.4,4.4,0,0,0-2.2,3.9v2.7a.8.8,0,0,0,.8.8.9.9,0,0,0,.9-.8V23.8a2.8,2.8,0,0,1,1.3-2.4l.4-.2V40.9l-.4-.3a2.4,2.4,0,0,1-1-1,3.1,3.1,0,0,1-.3-1.3V29.5a.9.9,0,0,0-.9-.9.8.8,0,0,0-.8.9v8.8a4.6,4.6,0,0,0,.6,2.2,4.1,4.1,0,0,0,1.6,1.6,2.4,2.4,0,0,1,1.2,2.1v3.6a3.8,3.8,0,0,1-3.8,3.8H13.1a3.8,3.8,0,0,1-3.8-3.8V44.2a2.4,2.4,0,0,1,1.2-2.1,4.1,4.1,0,0,0,1.6-1.6,4.6,4.6,0,0,0,.6-2.2V23.8a4.4,4.4,0,0,0-2.2-3.9,2.4,2.4,0,0,1-.9-.8,2.7,2.7,0,0,1-.3-1.2V13.1a1.3,1.3,0,0,0-.1-.6.9.9,0,0,0-.6-.3.8.8,0,0,0-1,.7V47.8a5.4,5.4,0,0,0,5.5,5.4h2.3v2H14.3a1.4,1.4,0,0,0-1.4,1.4v1.6a1.4,1.4,0,0,0,1.4,1.4h1v2.2H56.4V30.9a2.3,2.3,0,0,0,1.2-2A2.2,2.2,0,0,0,55.4,26.7ZM17.9,56.9v1H14.6v-1Zm11.6,1v-1h3.3v1ZM9.3,40.9V21.2l.4.2A2.8,2.8,0,0,1,11,23.8V38.3a3.1,3.1,0,0,1-.3,1.3,2.4,2.4,0,0,1-1,1Zm7.6,19.4v-.7h1.4a1.4,1.4,0,0,0,1.3-1.4V56.6a1.4,1.4,0,0,0-1.3-1.4H17.1v-2H30.3v2H29.1a1.4,1.4,0,0,0-1.3,1.4v1.6a1.4,1.4,0,0,0,1.3,1.4h1.1v.7Z"/>
  </g>
</svg>
