<svg id="Layer_1" data-name="Layer 1" xmlns="http://www.w3.org/2000/svg" xmlns:xlink="http://www.w3.org/1999/xlink" width="70" height="70" viewBox="0 0 70 70">
  <defs>
    <style>
      .cls-1 {
        fill: #f6f6f6;
      }

      .cls-2 {
        fill: url(#linear-gradient);
      }

      .cls-3 {
        fill: url(#linear-gradient-2);
      }

      .cls-4 {
        fill: url(#linear-gradient-3);
      }

      .cls-5 {
        fill: url(#linear-gradient-4);
      }

      .cls-6 {
        fill: url(#linear-gradient-5);
      }

      .cls-7 {
        fill: url(#linear-gradient-6);
      }

      .cls-8 {
        fill: url(#linear-gradient-7);
      }

      .cls-9 {
        fill: url(#linear-gradient-8);
      }
    </style>
    <linearGradient id="linear-gradient" x1="61.03" y1="71.25" x2="18.21" y2="-12.14" gradientUnits="userSpaceOnUse">
      <stop offset="0" stop-color="#75c9b9"/>
      <stop offset="1" stop-color="#72bde5"/>
    </linearGradient>
    <linearGradient id="linear-gradient-2" x1="56.5" y1="73.58" x2="13.67" y2="-9.81" xlink:href="#linear-gradient"/>
    <linearGradient id="linear-gradient-3" x1="59.42" y1="72.08" x2="16.6" y2="-11.32" xlink:href="#linear-gradient"/>
    <linearGradient id="linear-gradient-4" x1="57.89" y1="72.87" x2="15.07" y2="-10.53" xlink:href="#linear-gradient"/>
    <linearGradient id="linear-gradient-5" x1="41.76" y1="81.15" x2="-1.06" y2="-2.25" xlink:href="#linear-gradient"/>
    <linearGradient id="linear-gradient-6" x1="47.2" y1="78.35" x2="4.38" y2="-5.04" xlink:href="#linear-gradient"/>
    <linearGradient id="linear-gradient-7" x1="52.49" y1="75.64" x2="9.66" y2="-7.76" xlink:href="#linear-gradient"/>
    <linearGradient id="linear-gradient-8" x1="49.9" y1="76.97" x2="7.07" y2="-6.43" xlink:href="#linear-gradient"/>
  </defs>
  <title>icon_PC0</title>
  <path id="Rectangle" class="cls-1" d="M3,0H67a2.9,2.9,0,0,1,3,3V67a2.9,2.9,0,0,1-3,3H3a2.9,2.9,0,0,1-3-3V3A2.9,2.9,0,0,1,3,0Z"/>
  <g>
    <g>
      <path class="cls-2" d="M59.5,21.4l-3-.9a.5.5,0,0,0-.6.1.5.5,0,0,0-.3.5H51.8a.7.7,0,0,0,0,1.4h3.8v.8H49.7V20.8a.7.7,0,0,0-.7-.7H47.5V18.9a.7.7,0,0,0-.7-.7H43.4v-.8H44a.8.8,0,0,0,.7-.5l.5-1.9h.5a1.5,1.5,0,0,0,1.5-1.5A1.4,1.4,0,0,0,45.7,12H39.6a1.4,1.4,0,0,0-1.5,1.5A1.5,1.5,0,0,0,39.6,15h.5l.5,1.9a.8.8,0,0,0,.7.5h.6v.8H33.6a.6.6,0,0,0-.6.5l-3.3,9.8a.6.6,0,0,0,0,.6c.1.1.2.3.4.3h.4l.8.2,1.1-.3A2.4,2.4,0,0,0,33.6,28l2.1-6.2h2.1v5.3a.7.7,0,0,0,.7.7h.3v3.5H36.3a3.9,3.9,0,0,0-3.8,3.2l-3,20.9a3.8,3.8,0,0,0,.9,3.2,4.2,4.2,0,0,0,3.1,1.5H51.8a4.2,4.2,0,0,0,3.1-1.5,3.8,3.8,0,0,0,.9-3.2l-3-20.9A3.9,3.9,0,0,0,49,31.3H46.5V27.8h.3a.7.7,0,0,0,.7-.7V25.9H49a.7.7,0,0,0,.7-.7v-.4h5.9a.5.5,0,0,0,.3.5.5.5,0,0,0,.4.2h.2l3-.9a.8.8,0,0,0,.5-.7V22.1A.8.8,0,0,0,59.5,21.4ZM41.4,14.1a.8.8,0,0,0-.7-.5h3.9a.8.8,0,0,0-.7.5L43.5,16H41.8Zm-6.2,6.3a.8.8,0,0,0-.7.5l-2.2,6.6a1,1,0,0,1-.5.6l-.5.2,2.8-8.7h3.7v.8ZM45.8,32.7H49a2.5,2.5,0,0,1,2.4,2l3.1,20.9a2.8,2.8,0,0,1-.7,2.1,2.5,2.5,0,0,1-2,.9H33.5a2.5,2.5,0,0,1-2-.9,2.8,2.8,0,0,1-.7-2.1l3.1-20.9a2.5,2.5,0,0,1,2.4-2h6.6a.7.7,0,1,0,0-1.4H40.3V27.8H45V32A.8.8,0,0,0,45.8,32.7Zm2.5-8.2H46.8a.8.8,0,0,0-.7.7v1.2H39.2V19.6h6.9v1.2a.8.8,0,0,0,.7.7h1.5v3Zm10.3-1.1-1.6.5V22.1l1.6.5Z"/>
      <path class="cls-3" d="M35,42.1h0a7.7,7.7,0,0,0-1.2,4.3,8.9,8.9,0,0,0,16.5,4.5h0a8.3,8.3,0,0,0,1.2-4.4,8.8,8.8,0,0,0-8.8-8.8A8.9,8.9,0,0,0,35,42.1Zm7.7,12a7.6,7.6,0,0,1-7.5-7.5,8.2,8.2,0,0,1,.7-3.1L40,45.9H38.7a.7.7,0,1,0,0,1.4H40V48h-.1a1.8,1.8,0,0,0-1.8,1.8v1a.7.7,0,1,0,1.4,0v-1a.4.4,0,0,1,.4-.4h.3a2.4,2.4,0,0,0,.6.9,2.5,2.5,0,0,0,1.9.7,2.7,2.7,0,0,0,1.2-.3.7.7,0,0,0,.3-.9.8.8,0,0,0-1-.3h-.5a1.2,1.2,0,0,1-1.3-1.2V46.7l7.3,4.2A7.4,7.4,0,0,1,42.7,54.1Zm7.4-7.5a7.8,7.8,0,0,1-.7,3.1l-8-4.6v-.2a1.3,1.3,0,0,1,1.3-1.3,1.2,1.2,0,0,1,.9.4,1.5,1.5,0,0,1,.3.7.9.9,0,0,0,.7.6h.8a1.8,1.8,0,0,0,1.8-1.9v-1a.7.7,0,1,0-1.4,0v1a.5.5,0,0,1-.4.5h-.3a1.5,1.5,0,0,0-.6-.9,2.5,2.5,0,0,0-1.8-.8,2.6,2.6,0,0,0-2.5,1.7h-.3a.5.5,0,0,1-.4-.5v-1a.7.7,0,1,0-1.4,0v.8l-1.5-.9a7.5,7.5,0,0,1,13.5,4.3Z"/>
      <path class="cls-4" d="M46.6,45.9h-.5a.7.7,0,1,0,0,1.4h.5a.7.7,0,1,0,0-1.4Z"/>
      <path class="cls-5" d="M46.5,49.8a.7.7,0,0,0-.7.7v.3a.7.7,0,0,0,1.4,0v-.3A.7.7,0,0,0,46.5,49.8Z"/>
    </g>
    <g>
      <path class="cls-6" d="M14.2,26.7h.5l.2-.2H15l.2-.2h0v-.2h.1v-.2h.1v-.2h0v-.2h-.2v-.2h-.1v-.2h-.1v-.2h.1v-.2h0v-.4h0v-.3h-.1v-.2h-.3v-.2H10v.5h0v.5h0v1h0v.5h0V25h0v1h0v.2h4.2Zm-2.5-3.9v-.4h1.9v.2H11.7v-.2Zm2.1,2.3h0v.2h-2v-.2h0v-.2h0v-.2h2.1Z"/>
      <polygon class="cls-7" points="20.7 20.8 20.5 20.8 20.4 20.8 20.4 20.9 20.3 21 20.3 21.6 20.3 21.7 20.4 22.3 20.4 22.4 20.3 23 20.3 23 20.3 23.1 20.2 23.2 20.1 23.2 20 23.2 19.5 23.1 19 23.1 18.8 23.1 18.5 23.2 18.4 23.2 18.3 23.2 18.2 23.2 18.2 23.1 18.1 23.1 18.1 23 18.1 22.3 18.1 21.7 18.1 21.6 18.2 21.2 18.2 21.1 18.2 21 18.1 20.9 18.1 20.9 18 20.8 17.8 20.8 17.7 20.8 17.4 20.9 17.2 20.9 16.9 20.8 16.7 20.8 16.6 20.8 16.5 20.9 16.4 20.9 16.4 21 16.4 21.2 16.4 21.5 16.4 21.6 16.5 22.1 16.4 22.2 16.4 22.6 16.4 22.8 16.4 23.4 16.4 23.8 16.4 23.9 16.4 24.4 16.4 24.5 16.4 25 16.4 25.1 16.4 25.6 16.4 26.3 16.4 26.5 16.4 26.6 16.4 26.7 16.4 26.8 16.5 26.9 16.5 26.9 16.6 26.9 16.7 26.9 16.8 26.9 17.2 26.9 17.4 26.9 17.7 26.9 17.8 26.9 18 26.9 18.1 26.9 18.1 26.8 18.2 26.7 18.2 26.5 18.1 26.2 18.1 26 18.2 25.5 18.2 25.3 18.1 24.8 18.2 24.7 18.2 24.6 18.3 24.6 18.4 24.6 18.8 24.6 19.5 24.6 19.6 24.6 20 24.6 20.2 24.6 20.3 24.6 20.3 24.7 20.3 24.8 20.3 25.3 20.3 25.5 20.3 26 20.3 26.2 20.3 26.7 20.4 26.8 20.4 26.9 20.5 26.9 20.7 26.9 21.1 26.9 21.2 26.9 21.7 26.9 21.8 26.9 21.9 26.9 22 26.8 22 26.7 22 26.6 22 26.5 22 26.3 22 26.1 22 25.6 22 25.1 22 25 22 24.5 22 24.4 22 23.9 22 23.8 22.1 23.4 22.1 23.2 22 22.8 22 22.6 22 22.2 22 22.1 22 21.6 22 21.5 22 21.2 22 21 22 20.9 21.9 20.8 21.8 20.8 21.8 20.8 21.6 20.8 21.2 20.8 21.1 20.8 20.7 20.8"/>
      <polygon class="cls-8" points="23.2 26.3 23.2 26.5 23.2 26.7 23.2 26.8 23.2 26.9 23.3 26.9 23.3 26.9 23.8 26.9 23.9 26.9 24.3 26.9 24.5 26.9 24.8 26.9 24.9 26.9 24.9 26.9 24.9 26.8 25 26.7 25 26.5 24.9 26.3 24.9 26.2 25 25.7 25 25.2 25 25 25 25 25.1 25 25.1 25.1 25.2 25.2 25.5 25.5 25.6 25.6 25.9 26 26 26.1 26.2 26.4 26.3 26.5 26.6 26.9 26.7 26.9 26.8 26.9 27.3 26.9 27.4 26.9 28 26.9 28.1 26.9 28.6 26.9 28.7 26.9 28.7 26.9 28.8 26.9 28.8 26.8 28.7 26.7 28.4 26.4 28.3 26.3 27.9 25.9 27.8 25.8 27.5 25.4 27.4 25.3 27.1 24.9 27 24.8 26.6 24.4 26.5 24.3 26.2 23.9 26.2 23.8 26.2 23.8 26.2 23.7 26.2 23.7 26.3 23.6 26.5 23.4 26.6 23.3 26.9 22.9 27 22.8 27.3 22.4 27.4 22.3 27.7 22 27.8 21.9 28.1 21.5 28.2 21.4 28.5 21 28.6 21 28.6 20.9 28.6 20.9 28.5 20.9 28.4 20.9 28.1 20.9 28 20.9 27.7 20.9 27.2 20.8 27 20.8 26.6 20.9 26.6 20.9 26.5 20.9 26.2 21.3 26.1 21.4 25.8 21.7 25.4 22.3 25.1 22.6 25 22.7 25 22.7 25 22.6 24.9 22.2 24.9 22 24.9 21.6 24.9 21.4 25 21.2 25 21.1 25 21 24.9 20.9 24.9 20.9 24.8 20.9 24.4 20.8 24.3 20.8 23.9 20.9 23.8 20.9 23.5 20.9 23.4 20.8 23.3 20.9 23.3 20.9 23.3 21 23.2 21.5 23.2 21.6 23.2 22.6 23.2 22.8 23.2 23.2 23.2 23.4 23.2 23.8 23.2 24.4 23.2 24.5 23.2 25 23.2 25.1 23.2 25.7 23.2 26.2 23.2 26.3"/>
      <polygon class="cls-9" points="15.9 18.2 15.9 18.6 15.9 18.9 15.9 19 15.9 19.1 16 19.1 16.1 19.2 16.5 19.2 17.8 19.1 18 19.1 19.7 19.2 19.9 19.2 20.5 19.2 20.8 19.2 20.9 19.1 21 19.1 21.1 19 21.1 18.8 21.1 18.6 21.1 18.2 21.1 18 21.1 17.6 21.1 17.4 21.1 17.3 21.1 17.2 21 17.2 20.1 17.2 19.9 17.2 19.9 17.1 19.8 17.1 19.8 16.9 19.7 16.1 19.8 15.9 19.8 15.2 19.8 15 19.8 14.2 19.8 14 19.8 13.2 19.8 11.2 19.8 11 19.9 10.5 19.9 10.4 19.8 10.2 19.8 10.1 19.7 10 19.6 9.9 19.5 10 19.3 10 19.1 10.1 18.8 10.2 18.6 10.3 17.9 10.5 17.7 10.6 17 10.8 16.9 10.9 16.5 11 16.3 11.1 16.2 11.1 16.1 11.2 16 11.2 15.9 11.3 15.9 11.5 15.9 11.7 15.9 12.1 15.9 12.3 15.9 12.6 15.9 12.8 15.9 12.9 16 13.1 16 13.2 16.1 13.2 16.3 13.2 16.5 13.2 16.7 13.1 17.1 13 17.3 13 17.3 13 17.4 13.1 17.4 13.3 17.3 13.7 17.3 14 17.3 14.2 17.3 14.5 17.4 14.7 17.4 15 17.4 15.2 17.3 16 17.3 16.2 17.3 17.1 17.3 17.1 17.2 17.2 17 17.2 16.8 17.2 16.6 17.2 16 17.2 15.9 17.2 15.9 17.3 15.8 17.4 15.8 17.6 15.9 18 15.9 18.2"/>
    </g>
  </g>
</svg>
