<svg id="Layer_1" data-name="Layer 1" xmlns="http://www.w3.org/2000/svg" xmlns:xlink="http://www.w3.org/1999/xlink" width="70" height="70" viewBox="0 0 70 70">
  <defs>
    <style>
      .cls-1 {
        fill: #f6f6f6;
      }

      .cls-2 {
        fill: url(#linear-gradient);
      }

      .cls-3 {
        fill: url(#linear-gradient-2);
      }

      .cls-4 {
        fill: url(#linear-gradient-3);
      }
    </style>
    <linearGradient id="linear-gradient" x1="51.16" y1="66.86" x2="8.3" y2="-3.61" gradientUnits="userSpaceOnUse">
      <stop offset="0" stop-color="#75c9b9"/>
      <stop offset="1" stop-color="#72bde5"/>
    </linearGradient>
    <linearGradient id="linear-gradient-2" x1="52.53" y1="66.03" x2="9.67" y2="-4.45" xlink:href="#linear-gradient"/>
    <linearGradient id="linear-gradient-3" x1="53.51" y1="65.43" x2="10.65" y2="-5.04" xlink:href="#linear-gradient"/>
  </defs>
  <title>icon_plumbing_P0</title>
  <path id="Rectangle" class="cls-1" d="M3,0H67a2.9,2.9,0,0,1,3,3V67a2.9,2.9,0,0,1-3,3H3a2.9,2.9,0,0,1-3-3V3A2.9,2.9,0,0,1,3,0Z"/>
  <g>
    <rect class="cls-2" x="30.4" y="33.1" width="1.1" height="1.13"/>
    <rect class="cls-3" x="32.3" y="33.1" width="1.1" height="1.13"/>
    <path class="cls-4" d="M35,60A25,25,0,1,0,10,35,25,25,0,0,0,35,60Zm14.4-6.9a2.3,2.3,0,0,1-2.3-2.4c0-.9,1.3-3,2.3-4.5,1.1,1.5,2.4,3.6,2.4,4.5a5.3,5.3,0,0,1-.3,1.2l-1.2,1ZM35,11.4a23.5,23.5,0,0,1,17.8,39c-.3-1.9-2.6-5.1-2.9-5.5l-.5-.6-.4.6c-.3.4-3,4.1-3,5.8a3.4,3.4,0,0,0,2.8,3.4A23.6,23.6,0,0,1,11.5,37.4h7.7V36.3H11.8V31.6H23.5v4.7H20.7v1.1h3.1l4.1,4h8.2l4.1-4.1h5.2l1.3,1.4v1.4H44.8v4.1h9.3V40.1H52.8V33.9l-4.1-3.4H45.6v1.1h2.7l3.4,2.8V40H47.9V38.2l-2-2H40.5V31.6h3.6V30.5H40.2l-3.8-3.7V24.2H34.8V20.5l.3-.2h8.1V16.7H35.1l-1.8-.9H30.5l-1.8.9H20.6v3.6h8.1l.4.2v3.7H27.6v2.5l-3.8,3.8H11.9A23.6,23.6,0,0,1,35,11.4Zm-1.9,8.7H30.8l-1.5-.7V17.6l1.5-.7h2.3l1.4.7v1.8Zm.5,1v3.1H30.2V21.1h3.4Zm1.7,4.2v1.1H28.7V25.3Zm.3,2.3,3.8,3.7v5.3l-3.8,3.7H28.4l-3.8-3.7V31.3l3.8-3.7ZM53,41.2V43H45.9V41.2Zm-17.4-22V17.8h6.5v1.4Zm-7.4-1.4v1.4H21.8V17.8Z"/>
  </g>
</svg>
