<svg id="Layer_1" data-name="Layer 1" xmlns="http://www.w3.org/2000/svg" xmlns:xlink="http://www.w3.org/1999/xlink" width="70" height="70" viewBox="0 0 70 70">
  <defs>
    <style>
      .cls-1 {
        fill: #f6f6f6;
      }

      .cls-2 {
        fill: url(#linear-gradient);
      }

      .cls-3 {
        fill: url(#linear-gradient-2);
      }

      .cls-4 {
        fill: url(#linear-gradient-3);
      }

      .cls-5 {
        fill: url(#linear-gradient-4);
      }

      .cls-6 {
        fill: url(#linear-gradient-5);
      }
    </style>
    <linearGradient id="linear-gradient" x1="47.71" y1="68.07" x2="20.88" y2="0.45" gradientUnits="userSpaceOnUse">
      <stop offset="0" stop-color="#75c9b9"/>
      <stop offset="1" stop-color="#72bde5"/>
    </linearGradient>
    <linearGradient id="linear-gradient-2" x1="41.47" y1="70.55" x2="14.63" y2="2.93" xlink:href="#linear-gradient"/>
    <linearGradient id="linear-gradient-3" x1="63.05" y1="61.98" x2="36.22" y2="-5.64" xlink:href="#linear-gradient"/>
    <linearGradient id="linear-gradient-4" x1="46.43" y1="68.58" x2="19.6" y2="0.96" xlink:href="#linear-gradient"/>
    <linearGradient id="linear-gradient-5" x1="45.1" y1="69.11" x2="18.27" y2="1.49" xlink:href="#linear-gradient"/>
  </defs>
  <title>icon_plumbing_P0</title>
  <path id="Rectangle" class="cls-1" d="M3,0H67a2.9,2.9,0,0,1,3,3V67a2.9,2.9,0,0,1-3,3H3a2.9,2.9,0,0,1-3-3V3A2.9,2.9,0,0,1,3,0Z"/>
  <g>
    <path class="cls-2" d="M14,55.8H55.9a4,4,0,0,0,4-4V20a4.1,4.1,0,0,0-4-4.1H14A4.2,4.2,0,0,0,9.9,20V51.8A4.1,4.1,0,0,0,14,55.8ZM11.4,20A2.6,2.6,0,0,1,14,17.4H55.9A2.6,2.6,0,0,1,58.5,20V51.8a2.6,2.6,0,0,1-2.6,2.6H14a2.6,2.6,0,0,1-2.6-2.6Z"/>
    <path class="cls-3" d="M17.4,23.4h1.8v.2A2.4,2.4,0,0,0,21.6,26h1.8a2.4,2.4,0,0,0,2.4-2.4v-.2h1.8a.7.7,0,1,0,0-1.4H25.8v-.2a2.4,2.4,0,0,0-2.4-2.4H21.6a2.4,2.4,0,0,0-2.4,2.4V22H17.4a.7.7,0,1,0,0,1.4Zm3.2-1.6a1.1,1.1,0,0,1,1-1h1.8a1.1,1.1,0,0,1,1,1v1.8a1,1,0,0,1-1,1H21.6a1,1,0,0,1-1-1Z"/>
    <path class="cls-4" d="M42.4,23.4h1.8v.2A2.4,2.4,0,0,0,46.6,26h1.8a2.4,2.4,0,0,0,2.4-2.4v-.2h1.8a.7.7,0,0,0,0-1.4H50.8v-.2a2.4,2.4,0,0,0-2.4-2.4H46.6a2.4,2.4,0,0,0-2.4,2.4V22H42.4a.7.7,0,1,0,0,1.4Zm3.2-1.6a1,1,0,0,1,1-1h1.8a1.1,1.1,0,0,1,1,1v1.8a1,1,0,0,1-1,1H46.6a.9.9,0,0,1-1-1Z"/>
    <path class="cls-5" d="M17.9,51.7H52.1A2.9,2.9,0,0,0,55,48.8V30.7a3,3,0,0,0-2.9-3H39.6l.2-4.7a2.6,2.6,0,0,0-.7-1.9,2.5,2.5,0,0,0-2-.9H32.8a2.5,2.5,0,0,0-1.9.9,2.3,2.3,0,0,0-.7,1.9l.2,4.7H17.9a3.1,3.1,0,0,0-3,3V48.8A3,3,0,0,0,17.9,51.7ZM31.9,22l.9-.3h4.3a1.2,1.2,0,0,1,.9.3,1.3,1.3,0,0,1,.4,1l-.5,8.7A2.8,2.8,0,0,1,35,34.5a3,3,0,0,1-3-2.8L31.6,23A1.7,1.7,0,0,1,31.9,22ZM16.4,30.7a1.5,1.5,0,0,1,1.5-1.5H30.5v2.6A4.4,4.4,0,0,0,35,36a4.5,4.5,0,0,0,4.4-4.2V29.2H52.1a1.5,1.5,0,0,1,1.5,1.5V48.8a1.5,1.5,0,0,1-1.5,1.5H17.9a1.5,1.5,0,0,1-1.5-1.5Z"/>
    <path class="cls-6" d="M35,46.9a3.3,3.3,0,1,0-3.3-3.3A3.3,3.3,0,0,0,35,46.9Zm0-5.2a1.9,1.9,0,0,1,1.8,1.9A1.8,1.8,0,0,1,35,45.4a1.9,1.9,0,0,1-1.9-1.8A2,2,0,0,1,35,41.7Z"/>
  </g>
</svg>
