<svg id="Layer_1" data-name="Layer 1" xmlns="http://www.w3.org/2000/svg" xmlns:xlink="http://www.w3.org/1999/xlink" width="70" height="70" viewBox="0 0 70 70">
  <defs>
    <style>
      .cls-1 {
        fill: #f6f6f6;
      }

      .cls-2 {
        fill: url(#linear-gradient);
      }

      .cls-3 {
        fill: url(#linear-gradient-2);
      }

      .cls-4 {
        fill: url(#linear-gradient-3);
      }

      .cls-5 {
        fill: url(#linear-gradient-4);
      }

      .cls-6 {
        fill: url(#linear-gradient-5);
      }
    </style>
    <linearGradient id="linear-gradient" x1="59.16" y1="75" x2="24.16" y2="-15.5" gradientUnits="userSpaceOnUse">
      <stop offset="0" stop-color="#75c9b9"/>
      <stop offset="1" stop-color="#72bde5"/>
    </linearGradient>
    <linearGradient id="linear-gradient-2" x1="39.56" y1="82.58" x2="4.56" y2="-7.92" xlink:href="#linear-gradient"/>
    <linearGradient id="linear-gradient-3" x1="56.15" y1="76.17" x2="21.15" y2="-14.33" xlink:href="#linear-gradient"/>
    <linearGradient id="linear-gradient-4" x1="51.72" y1="77.88" x2="16.72" y2="-12.62" xlink:href="#linear-gradient"/>
    <linearGradient id="linear-gradient-5" x1="51.6" y1="77.93" x2="16.6" y2="-12.57" xlink:href="#linear-gradient"/>
  </defs>
  <title>icon_electrical_E01</title>
  <path id="Rectangle" class="cls-1" d="M3,0H67a2.9,2.9,0,0,1,3,3V67a2.9,2.9,0,0,1-3,3H3a2.9,2.9,0,0,1-3-3V3A2.9,2.9,0,0,1,3,0Z"/>
  <g>
    <path class="cls-2" d="M40.4,34.4a2,2,0,0,0-1.3,1l-1.2,2.2-.4.7a1.8,1.8,0,0,0,.8,2.7l1.4.9,11.5,6.6,1.1.2a1.2,1.2,0,0,0,1-.4A18.8,18.8,0,0,0,54.9,46l.6-.9h0c.6-.9-.7-1.8-1.2-2.1L42.1,34.8A1.9,1.9,0,0,0,40.4,34.4ZM54.1,44.6l-.4.6a11,11,0,0,1-1.4,2.1h-.4c-3.8-2.1-7.7-4.4-11.4-6.6L39,39.8c-.4-.3-.5-.4-.3-.8l.4-.7a23.9,23.9,0,0,1,1.3-2.1.7.7,0,0,1,.3-.4h.1l.5.2,12.2,8.2Z"/>
    <path class="cls-3" d="M32.9,38.8c-.1-.3-.1-.5-.3-.7l-.7-1.4a7.5,7.5,0,0,1-.7-1.2,2.7,2.7,0,0,0-1.3-1.1,2.3,2.3,0,0,0-1.6.3l-6.1,3.5-6.8,3.9a1.9,1.9,0,0,0-.7,2.7A16.4,16.4,0,0,0,15.9,47a1.9,1.9,0,0,0,1.6.9,1.5,1.5,0,0,0,.9-.2l1.5-.8,12-5.9a2.4,2.4,0,0,0,.9-.8c0-.1.1-.2.2-.3l.3-.3-.2-.4C33,39,33,38.9,32.9,38.8Zm-1.3.5-.4.5L19.3,45.7l-1.5.7c-.3.2-.5.2-.7-.2l-1.2-2.1c-.2-.3-.2-.5.2-.7l6.8-4L29,36c.2-.2.3-.2.4-.2h.1c.1,0,.3.2.4.4a7.5,7.5,0,0,1,.7,1.2l.8,1.4c.1.1.1.3.2.5Z"/>
    <path class="cls-4" d="M33.7,31.3h2.6c1.8,0,2.5-.7,2.5-2.5V14.7c0-1.7-.7-2.4-2.4-2.4H34.5a1.8,1.8,0,0,0-2,2c-.1.6-.1,1.3-.2,2s-.1,1.1-.1,1.6L32,20.2c-.1,2.9-.3,5.8-.5,8.8a2.3,2.3,0,0,0,.5,1.7A2.2,2.2,0,0,0,33.7,31.3ZM32.9,29l.6-8.7V18a8.1,8.1,0,0,0,.1-1.6c.1-.7.1-1.4.2-2.1s.1-.6.7-.6h1.8c.9,0,1,.1,1,1V28.8c0,1,0,1-1.1,1.1H33A1.7,1.7,0,0,1,32.9,29Z"/>
    <path class="cls-5" d="M38.8,35a3.7,3.7,0,0,0-3.7-3.7h0A3.6,3.6,0,0,0,31.5,35a3.4,3.4,0,0,0,3.6,3.6h0a4.3,4.3,0,0,0,2.7-1A4,4,0,0,0,38.8,35Zm-2.1,1.5a1.9,1.9,0,0,1-1.6.7h0A2.1,2.1,0,0,1,32.9,35a2.2,2.2,0,0,1,2.2-2.3h0A2.3,2.3,0,0,1,37.4,35,1.8,1.8,0,0,1,36.7,36.5Z"/>
    <path class="cls-6" d="M35,10A25,25,0,1,0,60,35,25,25,0,0,0,35,10Zm0,48.6A23.6,23.6,0,1,1,58.6,35,23.6,23.6,0,0,1,35,58.6Z"/>
  </g>
</svg>
