<svg id="Layer_1" data-name="Layer 1" xmlns="http://www.w3.org/2000/svg" xmlns:xlink="http://www.w3.org/1999/xlink" width="374.5" height="89.4" viewBox="0 0 374.5 89.4">
  <defs>
    <style>
      .cls-1 {
        fill: url(#linear-gradient);
      }

      .cls-2, .cls-4, .cls-5 {
        fill: #fff;
      }

      .cls-2 {
        opacity: 0.3;
      }

      .cls-2, .cls-3, .cls-4 {
        isolation: isolate;
      }

      .cls-4 {
        font-size: 16px;
        font-family: Montserrat-Medium, Montserrat;
      }
    </style>
    <linearGradient id="linear-gradient" x1="405.55" y1="126.36" x2="21.53" y2="-32.27" gradientUnits="userSpaceOnUse">
      <stop offset="0" stop-color="#64dcc2"/>
      <stop offset="1" stop-color="#70bce6"/>
    </linearGradient>
  </defs>
  <title>banner_carpentry_C0</title>
  <g id="Page-1">
    <g id="UI---Screen-7---v2">
      <g id="Group-2">
        <path id="Path-4" class="cls-1" d="M0,72.4C71,74,112,68.2,210.5,71c58.9,1.7,113.3,7.8,164,18.4V0H0Z"/>
        <path id="Rectangle-Copy-2" class="cls-2" d="M26.8,22H67.3a3.3,3.3,0,0,1,3.3,3.3v.5A3.3,3.3,0,0,1,67.3,29H26.8a3.2,3.2,0,0,1-3.2-3.2v-.5A3.2,3.2,0,0,1,26.8,22Z"/>
        <rect id="Rectangle-Copy-4" class="cls-2" x="186.5" y="29" width="47" height="7" rx="3.3" ry="3.3"/>
        <rect id="Rectangle-Copy-3" class="cls-2" x="64.5" y="35" width="47" height="7" rx="3.3" ry="3.3"/>
        <rect id="Rectangle-Copy-5" class="cls-2" x="233.5" y="42" width="47" height="7" rx="3.3" ry="3.3"/>
        <g id="sweep">
          <g id="_" data-name="+" class="cls-3">
            <text class="cls-4" transform="translate(298.5 26)">+</text>
          </g>
          <g id="_-copy" data-name="+-copy" class="cls-3">
            <text class="cls-4" transform="translate(336.5 14)">+</text>
          </g>
        </g>
      </g>
    </g>
  </g>
  <path class="cls-5" d="M312.1,50a26.9,26.9,0,0,0,1.6,2.9c.4.7.9,1.3,1.3,1.9a27.3,27.3,0,0,0,2.3,2.5l.8.8a27.7,27.7,0,0,0,4.5,3.1l2,1,2.1.8a23.6,23.6,0,0,0,8,1.3,24.5,24.5,0,0,0,16.8-6.5,21.1,21.1,0,0,0,3.9-4.5,14.8,14.8,0,0,0,1.3-2.1,24.4,24.4,0,0,0,1.9-4.4l.3-1.2a18.4,18.4,0,0,0,.5-2.5,23.4,23.4,0,0,0,.3-3.8,25.1,25.1,0,0,0-23.1-24.9h-3.8a24.3,24.3,0,0,0-11.6,3.9,18.8,18.8,0,0,0-2.3,1.6,25.8,25.8,0,0,0-8.6,13.7c-.2,1-.3,1.9-.4,2.8a28.3,28.3,0,0,0-.2,2.9,26.4,26.4,0,0,0,.2,2.9A22.6,22.6,0,0,0,312.1,50Zm20.8-34.2h3.6a23.6,23.6,0,0,1-1.8,47.1h-.9V57.3h-2.6V54.6l-10-12.4V20l.7-.5A24,24,0,0,1,332.9,15.8ZM321.2,55.7V44.5l8.6,10.6v2.2h-2.2v4.5a23.3,23.3,0,0,1-8.3-4.6Z"/>
</svg>
