<svg id="Layer_1" data-name="Layer 1" xmlns="http://www.w3.org/2000/svg" xmlns:xlink="http://www.w3.org/1999/xlink" width="374.5" height="89.4" viewBox="0 0 374.5 89.4">
  <defs>
    <style>
      .cls-1 {
        fill: url(#linear-gradient);
      }

      .cls-2, .cls-4, .cls-5 {
        fill: #fff;
      }

      .cls-2 {
        opacity: 0.3;
      }

      .cls-2, .cls-3, .cls-4 {
        isolation: isolate;
      }

      .cls-4 {
        font-size: 16px;
        font-family: Montserrat-Medium, Montserrat;
      }
    </style>
    <linearGradient id="linear-gradient" x1="405.55" y1="126.36" x2="21.53" y2="-32.27" gradientUnits="userSpaceOnUse">
      <stop offset="0" stop-color="#64dcc2"/>
      <stop offset="1" stop-color="#70bce6"/>
    </linearGradient>
  </defs>
  <title>banner_carpentry_C0</title>
  <g id="Page-1">
    <g id="UI---Screen-7---v2">
      <g id="Group-2">
        <path id="Path-4" class="cls-1" d="M0,72.4C71,74,112,68.2,210.5,71c58.9,1.7,113.3,7.8,164,18.4V0H0Z"/>
        <rect id="Rectangle-Copy-2" class="cls-2" x="23.5" y="22" width="47" height="7" rx="3.2" ry="3.2"/>
        <path id="Rectangle-Copy-4" class="cls-2" d="M189.8,29h40.5a3.2,3.2,0,0,1,3.2,3.2v.5a3.2,3.2,0,0,1-3.2,3.2H189.8a3.3,3.3,0,0,1-3.2-3.2v-.5a3.3,3.3,0,0,1,3.3-3.2Z"/>
        <path id="Rectangle-Copy-3" class="cls-2" d="M67.8,35h40.5a3.2,3.2,0,0,1,3.2,3.2v.5a3.2,3.2,0,0,1-3.2,3.2H67.8a3.2,3.2,0,0,1-3.2-3.2v-.5A3.3,3.3,0,0,1,67.8,35Z"/>
        <path id="Rectangle-Copy-5" class="cls-2" d="M236.8,42h40.5a3.2,3.2,0,0,1,3.2,3.2v.5a3.2,3.2,0,0,1-3.2,3.2H236.8a3.2,3.2,0,0,1-3.2-3.2v-.5A3.3,3.3,0,0,1,236.8,42Z"/>
        <g id="sweep">
          <g id="_" data-name="+" class="cls-3">
            <text class="cls-4" transform="translate(298.5 26)">+</text>
          </g>
          <g id="_-copy" data-name="+-copy" class="cls-3">
            <text class="cls-4" transform="translate(336.5 14)">+</text>
          </g>
        </g>
      </g>
    </g>
  </g>
  <g>
    <path class="cls-5" d="M335.3,26.2a14.1,14.1,0,0,0-11.2,22.7.9.9,0,0,0,.6.3l.4-.2a.7.7,0,0,0,.1-1,12.6,12.6,0,0,1-2.6-7.7,12.7,12.7,0,1,1,25.4,0,12.6,12.6,0,0,1-2.6,7.7.7.7,0,0,0,.2,1,.8.8,0,0,0,1-.1,14.1,14.1,0,0,0-11.3-22.7Z"/>
    <path class="cls-5" d="M341.9,51.5l1.2-2.1-2.4-2.5-.8.5v-.6l-.8-6.7a5.3,5.3,0,0,0,2.1-4.5,5.8,5.8,0,0,0-11.6,0,6.1,6.1,0,0,0,2,4.4l-.7,6.8v.4l-.5-.3-2.5,2.5,1.2,2.1-.3.7-2.3.6v3.5l2.3.6.3.7-1.2,2.1,2.5,2.5,2.1-1.2.7.2.6,2.4h3.5l.6-2.4.7-.2,2.1,1.2,2.4-2.5-1.2-2.1.3-.7,2.4-.6V52.8l-2.4-.6Zm1.3,3.7-2.1.5v.4a6.1,6.1,0,0,1-.5,1.2l-.2.3,1.1,1.9-.9.9-1.9-1.1-.3.2-1.2.5h-.4l-.5,2.1h-1.3l-.6-2.1H334a4.3,4.3,0,0,1-1.2-.5l-.4-.2-1.8,1.1-.9-.9,1.1-1.9-.2-.3a6.1,6.1,0,0,1-.5-1.2v-.4l-2.1-.5V53.9l2.1-.5V53a6.1,6.1,0,0,1,.5-1.2l.2-.3-1.1-1.9.9-.9,1.8,1.1.4-.2a4.3,4.3,0,0,1,1.2-.5h.3l.4-1.4.2-.7h1.3v.7l.4,1.4h.4l1.2.5.3.2,1.9-1.1.9.9-1.1,1.9.2.3A6.1,6.1,0,0,1,341,53v.4l2.1.5ZM331,35.6a4.4,4.4,0,0,1,4.4-4.3,4.3,4.3,0,0,1,4.3,4.3,3.7,3.7,0,0,1-1.7,3.5l-.4.3.9,7.5a.8.8,0,0,1-.2.5.5.5,0,0,1-.4.2h-.1l-.5-2.1h-3.5l-.6,2.1h-.3a.5.5,0,0,1-.4-.2c-.2-.1-.2-.3-.2-.5l.9-7.5-.4-.3A4.4,4.4,0,0,1,331,35.6Z"/>
    <path class="cls-5" d="M337.9,53.9a1.5,1.5,0,0,0,1.5-1.5.7.7,0,0,0-.1-.5c0-.1,0-.1-.1-.1h-.1l-.7.6h-.3l-.3-.3v-.3l.6-.6c.1-.1.1-.1.1-.2h-.6a1.4,1.4,0,0,0-1.2.7,1.3,1.3,0,0,0-.3,1.2l-1.1,1.2L333.5,52v-.4h-.1l-1.1-.6c0-.1-.1-.1-.2,0l-.4.4c0,.1-.1.1,0,.2l.6,1.1h.5l1.9,1.9-1.1,1.1a1.9,1.9,0,0,0-1.3.2,1.6,1.6,0,0,0-.6,1.3v.5c.1,0,.1,0,.1.1h.2l.6-.6h.3l.4.3v.3l-.7.7h0a.1.1,0,0,0,.1.1h.5a1.4,1.4,0,0,0,1.2-.6,1.5,1.5,0,0,0,.2-1.3l.9-.9.2.2h-.1v.2c.1.1.2.1.2,0h.1l1.9,2.1h0a.9.9,0,1,0,1.3-1.3h0L337,55.1h.1c.1,0,.1-.1,0-.2h-.3l-.2-.2.9-.9Zm-1.3,1.2-.7.7-.2-.2.7-.7Z"/>
    <path class="cls-5" d="M335.5,16.1a25,25,0,0,0-7.6,48.8l1.4.4,2.4.5,2.1.3h3.5l2.1-.3,2.3-.5,1.4-.4a25,25,0,0,0-7.6-48.8Zm6.9,47.6-.7.2-.7.2a25.1,25.1,0,0,1-5.5.6,24.2,24.2,0,0,1-5.4-.6l-.7-.2-.7-.2a23.6,23.6,0,1,1,13.7,0Z"/>
  </g>
</svg>
