<svg id="Layer_1" data-name="Layer 1" xmlns="http://www.w3.org/2000/svg" xmlns:xlink="http://www.w3.org/1999/xlink" width="70" height="70" viewBox="0 0 70 70">
  <defs>
    <style>
      .cls-1 {
        fill: #f6f6f6;
      }

      .cls-2 {
        fill: url(#linear-gradient);
      }

      .cls-3 {
        fill: url(#linear-gradient-2);
      }

      .cls-4 {
        fill: url(#linear-gradient-3);
      }
    </style>
    <linearGradient id="linear-gradient" x1="54.11" y1="76.25" x2="7.44" y2="17.91" gradientUnits="userSpaceOnUse">
      <stop offset="0" stop-color="#75c9b9"/>
      <stop offset="1" stop-color="#72bde5"/>
    </linearGradient>
    <linearGradient id="linear-gradient-2" x1="54.11" y1="76.25" x2="7.44" y2="17.91" xlink:href="#linear-gradient"/>
    <linearGradient id="linear-gradient-3" x1="72.24" y1="61.74" x2="25.57" y2="3.41" xlink:href="#linear-gradient"/>
  </defs>
  <title>icon_horticulture_HR0</title>
  <path id="Rectangle" class="cls-1" d="M3,0H67a2.9,2.9,0,0,1,3,3V67a2.9,2.9,0,0,1-3,3H3a2.9,2.9,0,0,1-3-3V3A2.9,2.9,0,0,1,3,0Z"/>
  <g>
    <g>
      <path class="cls-2" d="M59.4,58.7H52.2c-1-3.9-.7-7.2.9-9.8a8,8,0,0,1,3-2.9,1,1,0,0,0,.4-1,.9.9,0,0,0-.8-.6,8.6,8.6,0,0,0-7.4,3.9l-.3.3a25.9,25.9,0,0,1,4.4-11.9.8.8,0,0,0,.1-1,.8.8,0,0,0-.9-.3c-4.6,1.1-7.4,6.7-8.9,10.5-.8-5.3-2.9-7.5-3-7.6a.9.9,0,0,0-1-.1.7.7,0,0,0-.3,1c.6,1.6.5,4.8-.3,9.2-.7-4.6-1.9-6.4-2-6.4a.8.8,0,0,0-.9-.3.9.9,0,0,0-.6.7,24.2,24.2,0,0,1-1.5,6.3c-.2-4.2.7-9.4,2.8-11.5a.8.8,0,0,0,.1-.9.8.8,0,0,0-.7-.5c0-.1-1.7-.2-3.6,1.4a12.7,12.7,0,0,0-3.4,6.1q-1.7-6.3-5.1-9a7,7,0,0,0-4.4-1.8,1,1,0,0,0-.8.6,1,1,0,0,0,.3.9c2.6,2,4.6,7.8,5.7,16.1a12.9,12.9,0,0,0-4.6-4.9A7.9,7.9,0,0,0,14.6,44a.8.8,0,0,0-.7.5.9.9,0,0,0,.2.9c3.5,2.9,5.5,6.2,5.8,9.5a8.9,8.9,0,0,1-.4,3.8H11a.9.9,0,0,0-.8.9.9.9,0,0,0,.8.8H59.4a.9.9,0,0,0,.8-.8A.9.9,0,0,0,59.4,58.7ZM21.6,54.9a14.4,14.4,0,0,0-4.3-8.8l1.3.6c2.8,1.6,4.9,4.9,6,9.6a.8.8,0,0,0,1,.6,1,1,0,0,0,.7-.9c-.3-3.6-1.3-15.3-5-21.1,2,1.2,4.9,4.4,6.3,12.9a.8.8,0,0,0,.8.7.9.9,0,0,0,.8-.8c.6-5.5,2.3-8.1,3.6-9.2l.4-.4c-2,4.2-2.2,10.6-1.4,14a.9.9,0,0,0,.7.6.6.6,0,0,0,.8-.4,34.8,34.8,0,0,0,2.5-6.8A39.3,39.3,0,0,1,37,54a.8.8,0,0,0,.7.8.9.9,0,0,0,.9-.6,60.2,60.2,0,0,0,1.8-11,23.4,23.4,0,0,1,1,7.1c0,.4.4.7.8.8a1,1,0,0,0,.9-.7c0-.1,2-8.6,6.4-12.1a12.4,12.4,0,0,0-1,2,28,28,0,0,0-2.2,12.2.7.7,0,0,0,.7.8.8.8,0,0,0,.9-.6,11.5,11.5,0,0,1,1.8-3.5,8.1,8.1,0,0,1,3-2.6,14.7,14.7,0,0,0-1,1.3c-1.2,2-2.5,5.6-1.2,10.8H21.2A10.3,10.3,0,0,0,21.6,54.9Z"/>
      <path class="cls-3" d="M59.4,60.6H11a1.1,1.1,0,0,1-1.1-1A1.1,1.1,0,0,1,11,58.5h8.3a10.4,10.4,0,0,0,.4-3.5c-.3-3.3-2.3-6.6-5.7-9.4a1,1,0,0,1-.4-1.1,1.2,1.2,0,0,1,1-.8A9.8,9.8,0,0,1,19.5,45a12,12,0,0,1,4.1,3.9c-1.1-7.5-3.1-12.8-5.4-14.7a1.1,1.1,0,0,1-.4-1.2,1,1,0,0,1,.9-.7,7.1,7.1,0,0,1,4.7,1.8c2.1,1.7,3.8,4.5,4.9,8.3A11.9,11.9,0,0,1,31.6,37a5.8,5.8,0,0,1,3.7-1.5,1.1,1.1,0,0,1,1,.7,1.1,1.1,0,0,1-.3,1.1c-1.8,1.9-2.7,6.2-2.7,10.1a22.4,22.4,0,0,0,1.1-5,1.2,1.2,0,0,1,.7-1,1.1,1.1,0,0,1,1.2.4c.1.1,1.1,1.5,1.8,5.1.5-3.6.6-6.3,0-7.6a1.1,1.1,0,0,1,.4-1.3,1.2,1.2,0,0,1,1.4.2c.1.1,2,2,2.9,6.8,1.7-4.1,4.5-8.8,8.7-9.9a1.1,1.1,0,0,1,1.2.5,1,1,0,0,1-.1,1.2,27.3,27.3,0,0,0-4.2,10.9,8.7,8.7,0,0,1,7.3-3.6,1.2,1.2,0,0,1,1.1.9,1.1,1.1,0,0,1-.6,1.2A8.4,8.4,0,0,0,53.3,49c-1.5,2.5-1.8,5.7-.9,9.5h7a1.1,1.1,0,0,1,1,1.1A1.1,1.1,0,0,1,59.4,60.6ZM11,59a.6.6,0,0,0-.6.6.6.6,0,0,0,.6.5H59.4a.5.5,0,0,0,.5-.5c0-.4-.2-.6-.5-.6H52v-.2c-1.1-4-.8-7.4.9-10.1a7.9,7.9,0,0,1,3.1-3,.7.7,0,0,0,.3-.6.6.6,0,0,0-.6-.5,8.4,8.4,0,0,0-7.2,3.8l-.2.4-.6.8v-1a26.6,26.6,0,0,1,4.4-12.1.6.6,0,0,0,.1-.7.6.6,0,0,0-.7-.2c-4.5,1.2-7.3,7-8.6,10.4l-.4.9V46c-.8-5.3-2.9-7.4-3-7.5a.5.5,0,0,0-.7,0,.6.6,0,0,0-.2.7c.6,1.5.5,4.7-.2,9.2l-.3,1.5-.2-1.5c-.7-4.6-1.9-6.2-2-6.3a.5.5,0,0,0-.6-.2.5.5,0,0,0-.4.5,20.7,20.7,0,0,1-1.6,6.4L32.9,50V48.8c-.2-4.1.7-9.5,2.9-11.8a.6.6,0,0,0-.4-1,5,5,0,0,0-3.4,1.4c-1.5,1.2-2.6,3.3-3.3,6l-.3.9-.2-.9c-1.2-4.1-2.8-7.2-5-8.9a6.6,6.6,0,0,0-4.3-1.7c-.3,0-.4.2-.5.4a.5.5,0,0,0,.2.6c2.6,2.1,4.6,7.8,5.8,16.2v1.3l-.6-1.1a12.3,12.3,0,0,0-4.5-4.8,9.8,9.8,0,0,0-4.7-1.2.7.7,0,0,0-.5.4.5.5,0,0,0,.2.6c3.5,2.9,5.6,6.3,5.9,9.7a11.4,11.4,0,0,1-.5,3.9V59Zm39.8,0H20.9v-.3a13.5,13.5,0,0,0,.3-3.8h0c-.1-2.1-1-5.3-4.2-8.6l-.7-.8,1,.3,1.3.7c2.9,1.6,5,5,6.2,9.7a.4.4,0,0,0,.6.4A.6.6,0,0,0,26,56c-.2-3.4-1.2-15.2-4.9-20.9l-.6-.9.9.5c2.2,1.3,5,4.6,6.4,13a.6.6,0,0,0,1.2,0c.6-5.7,2.3-8.2,3.6-9.4l.5-.4.8-.5-.5.8C31.3,42.5,31.4,49,32,52a.8.8,0,0,0,.5.5.6.6,0,0,0,.6-.3,35.6,35.6,0,0,0,2.5-6.7l.2-1,.3,1A37.4,37.4,0,0,1,37.2,54a.5.5,0,0,0,.5.5.4.4,0,0,0,.6-.4,58.4,58.4,0,0,0,1.8-10.9V41.8l.4,1.3a25.8,25.8,0,0,1,1.1,7.1.6.6,0,0,0,.5.6c.3,0,.6-.1.6-.4s2.1-8.8,6.5-12.3l1-.8-.6,1.1a12.1,12.1,0,0,0-.9,2,27,27,0,0,0-2.3,12.1.6.6,0,0,0,.5.6c.3,0,.6-.2.6-.4a13.5,13.5,0,0,1,1.9-3.6,7.8,7.8,0,0,1,3.1-2.7l1.1-.5-.8.8c-.3.5-.7.9-.9,1.3-1.3,2-2.5,5.5-1.2,10.7Zm-29.3-.5H50.2c-1.2-5.2.1-8.7,1.3-10.7l.3-.4a9.1,9.1,0,0,0-1.9,2,12,12,0,0,0-1.8,3.4,1.1,1.1,0,0,1-1.1.8,1.1,1.1,0,0,1-1-1,28.2,28.2,0,0,1,2.3-12.4l.3-.8c-3.5,3.9-5.3,11-5.3,11.1a1,1,0,0,1-1.2.8,1,1,0,0,1-.9-1,30.6,30.6,0,0,0-.7-5.6,49.9,49.9,0,0,1-1.7,9.5,1,1,0,0,1-1.1.8,1,1,0,0,1-1-1,38.5,38.5,0,0,0-.9-7.5,38.3,38.3,0,0,1-2.2,5.9,1.3,1.3,0,0,1-1.1.6,1.1,1.1,0,0,1-.9-.9,24.9,24.9,0,0,1,.9-13c-1.1,1.2-2.5,3.7-3,8.7a1.1,1.1,0,0,1-1.1.9,1.2,1.2,0,0,1-1.1-.9c-1.1-7-3.3-10.4-5.2-12,3.3,6.1,4.2,16.9,4.4,20.2,0,.6-.3,1.1-.9,1.1a1,1,0,0,1-1.2-.8c-1.1-4.6-3.2-7.8-6-9.4h-.1a14,14,0,0,1,3.5,8A10,10,0,0,1,21.5,58.5Z"/>
    </g>
    <g>
      <path class="cls-4" d="M29.1,30l7.7-.9-5.4,5.7a.8.8,0,0,0-.1.8.7.7,0,0,0,.7.4h0a9.7,9.7,0,0,0,4.4-1.8,78.9,78.9,0,0,0,7-5.8l1.6-.2a2.5,2.5,0,0,0,1.1.4v.3a1.4,1.4,0,0,0,.6,1.1,1.6,1.6,0,0,0,1.2.4l9.6-1a2.5,2.5,0,0,0,2.1-1.7,2.1,2.1,0,0,0,.1-1.1,2.6,2.6,0,0,0-.9-1.7,2.4,2.4,0,0,0-1.8-.5l-9.6,1a1.6,1.6,0,0,0-1.4,1.1,1.3,1.3,0,0,0-.1.6l-.4-.3-1.7-1.2V23a2,2,0,0,0,1.1.3,1.7,1.7,0,0,0,1.2-.5l6.5-7.1a4.7,4.7,0,0,0,.6-.9,2.5,2.5,0,0,0-.7-2.6,2.5,2.5,0,0,0-3.6.2l-5.3,5.8c-.1,0-.1,0-.1.1h-.1l-1,1.1a2.1,2.1,0,0,0-.4.6,1.8,1.8,0,0,0,.5,1.8h.2a2.7,2.7,0,0,0-.3,1.2l-1.2,1.2a68,68,0,0,0-8.8,2.1,9.2,9.2,0,0,0-4.1,2.4.8.8,0,0,0-.1.8A.7.7,0,0,0,29.1,30ZM51.6,13.2a1.1,1.1,0,0,1,.3,1.1l-.2.4-5,5.4-1.6-1.4,5-5.3A1.1,1.1,0,0,1,51.6,13.2ZM40.9,28.7a44.1,44.1,0,0,1-6.3,4.9L39,28.9Zm-9-.5c1.8-.8,4.8-1.5,9.6-2.5l1.7,1.2Zm12.9-6.4-1.2-1.1c-.1-.1-.1-.1-.1-.2s0-.1.1-.1l.5-.6,1.6,1.4-.6.6h-.3Zm2.6,5.3h1.1l.2,2h-1c-.1-.1-.1-.1-.1-.2Zm11-.3a.6.6,0,0,1-.1.4.8.8,0,0,1-.8.7l-7.4.8-.2-2.1,7.3-.7A1,1,0,0,1,58.4,26.8Z"/>
      <path class="cls-4" d="M32,36.3a1,1,0,0,1-.9-.6.9.9,0,0,1,.2-1.1l4.8-5.1-7,.8a1.2,1.2,0,0,1-1-.5,1.3,1.3,0,0,1,.1-1.2,9.7,9.7,0,0,1,4.2-2.4A64.7,64.7,0,0,1,41.2,24l1-1a2.9,2.9,0,0,1,.3-1h-.1a2.1,2.1,0,0,1-.5-2,2.5,2.5,0,0,1,.4-.7l1-1h.1a.1.1,0,0,1,.1-.1l5.3-5.8a2.9,2.9,0,0,1,4-.2,3,3,0,0,1,.7,2.9,2.7,2.7,0,0,1-.6,1L46.4,23a2.5,2.5,0,0,1-1.4.6l-.9-.2h0v2.1l1.7,1.1h0v-.2a1.8,1.8,0,0,1,1.6-1.3l9.7-1a2.5,2.5,0,0,1,2,.6,2.9,2.9,0,0,1,1,1.8,4.9,4.9,0,0,1-.1,1.2,2.8,2.8,0,0,1-2.4,1.8l-9.6,1a1.8,1.8,0,0,1-1.4-.4,2.1,2.1,0,0,1-.7-1.3h0l-.9-.3H43.5a78.9,78.9,0,0,1-7,5.8,10.1,10.1,0,0,1-4.4,1.9Zm5.4-7.5L31.6,35a.7.7,0,0,0-.1.5.5.5,0,0,0,.5.3A8.7,8.7,0,0,0,36.2,34a66.6,66.6,0,0,0,7-5.8h.1l1.8-.2h0l1.1.4h.2v.5a1.2,1.2,0,0,0,.5.9,1.1,1.1,0,0,0,1.1.3l9.6-1a2.3,2.3,0,0,0,1.9-1.5,2.8,2.8,0,0,0,.1-.9,3,3,0,0,0-.8-1.6,3.4,3.4,0,0,0-1.7-.5l-9.6,1.1a1.3,1.3,0,0,0-1.2.9c0,.2-.1.3-.1.5v.4l-.3-.2-.4-.2-1.9-1.4V23.4a.6.6,0,0,0,.1-.4v-.4l.3.2a1.6,1.6,0,0,0,.9.3,1.4,1.4,0,0,0,1-.5l6.5-7.1a1.4,1.4,0,0,0,.5-.8,2,2,0,0,0-.6-2.3,2.3,2.3,0,0,0-1.6-.6,2.1,2.1,0,0,0-1.6.8l-5.4,5.7h0l-1.1,1.2a.5.5,0,0,0-.3.5,1.4,1.4,0,0,0,.4,1.5l.3.3H43a2.3,2.3,0,0,0-.3,1.1h0l-1.2,1.3h-.1a57.5,57.5,0,0,0-8.8,2.2,8,8,0,0,0-4,2.3.7.7,0,0,0-.1.5.5.5,0,0,0,.5.3Zm-4.2,5.9,5.7-6.1,2.8-.3-.6.6a49.8,49.8,0,0,1-6.4,4.9Zm5.9-5.6-2.9,3.1A40,40,0,0,0,40.1,29Zm8.7.1h-.3a.4.4,0,0,1-.1-.3l-.2-1.7v-.2c.1-.2.2-.3.4-.3h1.1l.3,2.6H47.8Zm-.1-2.1.2,1.6h.5L48.2,27ZM49.9,29l-.3-2.6,7.6-.8a1.4,1.4,0,0,1,.9.3,1.1,1.1,0,0,1,.5.9v.5a1.4,1.4,0,0,1-1.1.9Zm.3-2.2.2,1.6,7-.7a1.1,1.1,0,0,0,.7-.6v-.3h0a.5.5,0,0,0-.3-.5c-.1-.2-.3-.2-.5-.2Zm-20,1.9,1.6-.7a45.2,45.2,0,0,1,9.7-2.5h.1l2.3,1.6ZM41.5,26A69,69,0,0,0,34,27.7l8.6-.9ZM45,22.1h-.4l-1.2-1.1a.4.4,0,0,1-.1-.5v-.2l.7-.8L46,21.2l-.7.8Zm0-.5Zm-.8-1.5-.4.5,1.2,1,.3-.4Zm2.5.4-1.9-1.8,5.1-5.5a1.4,1.4,0,0,1,1.9-.1h0a1.2,1.2,0,0,1,.3,1.3c0,.2-.1.3-.3.5Zm-1.2-1.8,1.1,1.1,4.9-5.3v-.2a.8.8,0,0,0-.2-.9.7.7,0,0,0-1.1.2Z"/>
    </g>
  </g>
</svg>
