<svg id="Layer_1" data-name="Layer 1" xmlns="http://www.w3.org/2000/svg" xmlns:xlink="http://www.w3.org/1999/xlink" width="374.5" height="89.4" viewBox="0 0 374.5 89.4">
  <defs>
    <style>
      .cls-1 {
        fill: url(#linear-gradient);
      }

      .cls-2, .cls-4, .cls-5 {
        fill: #fff;
      }

      .cls-2 {
        opacity: 0.3;
      }

      .cls-2, .cls-3, .cls-4 {
        isolation: isolate;
      }

      .cls-4 {
        font-size: 16px;
        font-family: Montserrat-Medium, Montserrat;
      }
    </style>
    <linearGradient id="linear-gradient" x1="405.55" y1="126.36" x2="21.53" y2="-32.27" gradientUnits="userSpaceOnUse">
      <stop offset="0" stop-color="#75c9b9"/>
      <stop offset="1" stop-color="#72bde5"/>
    </linearGradient>
  </defs>
  <title>banner_housekeeping_H0</title>
  <g id="Page-1">
    <g id="UI---Screen-7---v2">
      <g id="Group-2">
        <path id="Path-4" class="cls-1" d="M0,72.4C71,74,112,68.2,210.5,71c58.9,1.7,113.3,7.8,164,18.4V0H0Z"/>
        <rect id="Rectangle-Copy-2" class="cls-2" x="23.5" y="22" width="47" height="7" rx="3.3" ry="3.3"/>
        <path id="Rectangle-Copy-4" class="cls-2" d="M189.8,29h40.5a3.3,3.3,0,0,1,3.3,3.3v.5a3.3,3.3,0,0,1-3.2,3.3H189.8a3.2,3.2,0,0,1-3.2-3.2v-.5a3.2,3.2,0,0,1,3.2-3.2Z"/>
        <rect id="Rectangle-Copy-3" class="cls-2" x="64.5" y="35" width="47" height="7" rx="3.3" ry="3.3"/>
        <rect id="Rectangle-Copy-5" class="cls-2" x="233.5" y="42" width="47" height="7" rx="3.3" ry="3.3"/>
        <g id="sweep">
          <g id="_" data-name="+" class="cls-3">
            <text class="cls-4" transform="translate(298.5 26)">+</text>
          </g>
          <g id="_-copy" data-name="+-copy" class="cls-3">
            <text class="cls-4" transform="translate(336.5 14)">+</text>
          </g>
        </g>
      </g>
    </g>
  </g>
  <g>
    <path class="cls-5" d="M317.9,64.4a4,4,0,0,0,0-8,4,4,0,0,0,0,8Zm0-6.9a2.9,2.9,0,1,1,0,5.7,2.9,2.9,0,0,1,0-5.7Z"/>
    <path class="cls-5" d="M317.9,62.1a1.8,1.8,0,0,0,1.8-1.7,1.8,1.8,0,0,0-1.8-1.8,1.8,1.8,0,0,0-1.7,1.8A1.8,1.8,0,0,0,317.9,62.1Z"/>
    <path class="cls-5" d="M360.3,56.6a1.7,1.7,0,0,0,.7-1.5,1.9,1.9,0,0,0-1.8-1.9h-4.3v-.6h4.3a1.8,1.8,0,0,0,1.8-1.9,1.9,1.9,0,0,0-1.8-1.9h-4.3v-.6h4.3a1.8,1.8,0,0,0,1.8-1.9,1.8,1.8,0,0,0-1.8-1.8h-4.3v-.6h4.3A1.9,1.9,0,0,0,361,42a1.8,1.8,0,0,0-1.8-1.9h-4.3v-.6h4.3a1.9,1.9,0,0,0,1.8-1.9,1.8,1.8,0,0,0-1.8-1.9h-4.3v-.6h4.3a1.9,1.9,0,0,0,1.8-1.9,1.8,1.8,0,0,0-1.8-1.9h-4.3v-.6h4.3a1.9,1.9,0,0,0,1.8-1.9,1.8,1.8,0,0,0-1.8-1.9h-4.3v-.6h4.3a1.9,1.9,0,0,0,1.8-1.9,1.8,1.8,0,0,0-1.8-1.9h-4.3V22h4.3a1.8,1.8,0,0,0,1.8-1.9,1.9,1.9,0,0,0-1.8-1.9h-4.4a2.2,2.2,0,0,0-2-1.4H317.9a6.6,6.6,0,0,0-6.6,5.8.4.4,0,0,0-.1.3V60.4a6.7,6.7,0,0,0,6.7,6.7h36.4a6.8,6.8,0,0,0,4-1.3h.9a1.9,1.9,0,0,0,1.8-1.9,2,2,0,0,0-.3-1.1,7.6,7.6,0,0,0,.5-2.7A6.8,6.8,0,0,0,360.3,56.6Zm-1,5.8c0,.1-.1.2-.2.3v.2c0,.1-.1.2-.2.3l-.3.4-.5.6-.5.3a1,1,0,0,1-.5.4l-.3.2-1,.3-.9.2H336.2a5.5,5.5,0,0,1,1.1-10.9l1.7.2,2,.7V53.1a5.5,5.5,0,0,1,5.5-5.5,5.5,5.5,0,0,1,5.5,5.5v1.8l1.4-.2h1.6l.9.2,1.4.6.5.4.4.3.2.2.3.3c.1.2.2.3.2.4l.4.6c.1.1.1.2.2.4s.1.3.1.4.1.1.1.2a4.3,4.3,0,0,0,.1.5c0,.2.1.4.1.6v.8a.6.6,0,0,1-.1.4v.4a2.5,2.5,0,0,0-.2.7C359.4,62.1,359.4,62.2,359.3,62.4Zm-19.9-8.9a6.5,6.5,0,0,0-2.1-.4,7,7,0,0,0-6.9,7,7.1,7.1,0,0,0,2.5,5.4H322.3a6.9,6.9,0,0,0,2.4-5.1V22.6a6.5,6.5,0,0,0-2.3-4.2h30.5a.5.5,0,0,1,.5.5h0V52.7a7,7,0,0,0-13.9.4ZM317.9,18.4A5,5,0,0,1,323,23h.1V56a7,7,0,0,0-5.2-2.3,6.8,6.8,0,0,0-5.1,2.3V23.1h0A5.2,5.2,0,0,1,317.9,18.4Zm0,36.9a5.1,5.1,0,1,1-5.1,5.1A5.1,5.1,0,0,1,317.9,55.3ZM359.2,51h-4.3v-.6h4.3a.5.5,0,0,1,.3.3A.3.3,0,0,1,359.2,51Zm0-4.4h-4.3V46h4.3a.5.5,0,0,1,.3.3A.3.3,0,0,1,359.2,46.6Zm0-4.3h-4.3v-.6h4.3a.3.3,0,0,1,.3.3A.5.5,0,0,1,359.2,42.3Zm0-4.4h-4.3v-.6h4.3a.3.3,0,0,1,.3.3A.5.5,0,0,1,359.2,37.9Zm0-4.4h-4.3v-.6h4.3a.3.3,0,1,1,0,.6Zm0-4.4h-4.3v-.6h4.3a.3.3,0,0,1,.3.3A.5.5,0,0,1,359.2,29.1Zm0-4.4h-4.3v-.6h4.3a.3.3,0,0,1,.3.3A.5.5,0,0,1,359.2,24.7Zm0-4.3h-4.3v-.6h4.3a.3.3,0,0,1,0,.6Zm0,34.4a.5.5,0,0,1,.3.3.2.2,0,0,1-.2.2l-.5-.5Z"/>
    <path class="cls-5" d="M332.8,48.3a.9.9,0,0,0,.9-.9v-.8a.8.8,0,0,0-.9-.8.8.8,0,0,0-.8.8v.8A.9.9,0,0,0,332.8,48.3Z"/>
    <path class="cls-5" d="M331.2,48.3h-.9a.8.8,0,0,0-.8.8.9.9,0,0,0,.8.8h.9a.9.9,0,0,0,.8-.8A.8.8,0,0,0,331.2,48.3Z"/>
    <path class="cls-5" d="M332.8,49.9a.9.9,0,0,0-.8.9v.8a.9.9,0,0,0,.8.8.9.9,0,0,0,.9-.8v-.8A.9.9,0,0,0,332.8,49.9Z"/>
    <path class="cls-5" d="M335.3,48.3h-.8a.7.7,0,0,0-.8.8.8.8,0,0,0,.8.8h.8a.9.9,0,0,0,.9-.8A.8.8,0,0,0,335.3,48.3Z"/>
    <path class="cls-5" d="M346.3,37.8v.8a.8.8,0,0,0,.9.8.8.8,0,0,0,.8-.8v-.8a.9.9,0,0,0-.8-.9A.9.9,0,0,0,346.3,37.8Z"/>
    <path class="cls-5" d="M345.5,39.4h-.8a.9.9,0,0,0-.9.9.9.9,0,0,0,.9.8h.8a.8.8,0,0,0,.8-.8A.8.8,0,0,0,345.5,39.4Z"/>
    <path class="cls-5" d="M347.2,41.1a.9.9,0,0,0-.9.8v.9a.9.9,0,0,0,.9.8.9.9,0,0,0,.8-.8v-.9A.9.9,0,0,0,347.2,41.1Z"/>
    <path class="cls-5" d="M348.8,41.1h.9a.9.9,0,0,0,.8-.8.9.9,0,0,0-.8-.9h-.9a.9.9,0,0,0-.8.9A.9.9,0,0,0,348.8,41.1Z"/>
    <path class="cls-5" d="M344.4,35.1a2.5,2.5,0,0,0,0-5,2.5,2.5,0,0,0,0,5Zm0-3.4a.9.9,0,0,1,.8.9.9.9,0,0,1-.8.8.9.9,0,0,1-.9-.8A.9.9,0,0,1,344.4,31.7Z"/>
    <path class="cls-5" d="M343,44a3.3,3.3,0,1,0-3.3,3.3A3.3,3.3,0,0,0,343,44Zm-3.3,1.7a1.7,1.7,0,1,1,0-3.4,1.7,1.7,0,0,1,0,3.4Z"/>
  </g>
</svg>
