<svg id="Layer_1" data-name="Layer 1" xmlns="http://www.w3.org/2000/svg" xmlns:xlink="http://www.w3.org/1999/xlink" width="70" height="70" viewBox="0 0 70 70">
  <defs>
    <style>
      .cls-1 {
        fill: #f6f6f6;
      }

      .cls-2 {
        fill: url(#linear-gradient);
      }

      .cls-3 {
        fill: url(#linear-gradient-2);
      }

      .cls-4 {
        fill: url(#linear-gradient-3);
      }
    </style>
    <linearGradient id="linear-gradient" x1="55.55" y1="64.08" x2="16.3" y2="-3.71" gradientUnits="userSpaceOnUse">
      <stop offset="0" stop-color="#64dcc2"/>
      <stop offset="1" stop-color="#70bce6"/>
    </linearGradient>
    <linearGradient id="linear-gradient-2" x1="44.93" y1="70.23" x2="5.68" y2="2.43" xlink:href="#linear-gradient"/>
    <linearGradient id="linear-gradient-3" x1="49.97" y1="67.31" x2="10.72" y2="-0.49" xlink:href="#linear-gradient"/>
  </defs>
  <title>icon_ac_E00</title>
  <path id="Rectangle" class="cls-1" d="M3,0H67a2.9,2.9,0,0,1,3,3V67a2.9,2.9,0,0,1-3,3H3a2.9,2.9,0,0,1-3-3V3A2.9,2.9,0,0,1,3,0Z"/>
  <g>
    <path class="cls-2" d="M24.5,50.3l3.4,3.3L31,51.8l1.4.6.9,3.5H38l.9-3.5,1.4-.6,3.2,1.8,3.3-3.3-.7-1.2h9V10H16V49.1h9.2Zm2.4-1.2.8-1.4.3-.5-.2-.3h0l-.3-.6-.3-.7c-.1-.2-.1-.4-.2-.5v-.4l-2.7-.7-.5-.2V41.2l1.6-.4,1.6-.5v-.5l.3-.7.3-.7.2-.3.2-.3-.2-.3-.4-.8L27,36l-.6-.9v-.2l.5-.5.7-.7.6-.6.9.6,1.3.7.7.4.3-.2.4-.2a4.7,4.7,0,0,1,1.5-.6h.3l.3-1L34,32l.2-.7.2-.8h2.5l.2.8.2.7.2.7.3,1h.4l1.4.6H40l.4.2.8-.5,2-1.2.4.4,1.2,1.2.2.2-1.1,1.9-.6,1h.1v.2a3,3,0,0,1,.4.8c.1.1.1.3.2.4a6.4,6.4,0,0,1,.2.7v.3l3.3.9v2.5l-1.6.4-1.7.5V45c0,.2-.1.3-.2.5a3.1,3.1,0,0,1-.6,1.3l-.2.4.3.5.9,1.4.5.9-1.8,1.8-2.8-1.6H40a7.1,7.1,0,0,1-1.8.8h-.4l-.9,3.3H34.4l-.9-3.3h-.3a6.4,6.4,0,0,1-1.9-.8H31l-2.9,1.6L26.3,50ZM41.2,27.6H53.7v2.8l-.6-1H41.2ZM53.1,26H41.2V24.2H53.7V27Zm0-3.4H41.2V20.8H53.7v2.8Zm0-3.4H41.2V17.4H53.7v2.9Zm0-3.3H41.2V14.1H53.7v2.8Zm-7,23.4h5v4.2a.6.6,0,0,1-.6.6H49.1v-4Zm5-1.4H45l1.8-3.1h3.7a.6.6,0,0,1,.6.6ZM31,33.1l-.8-.4H32ZM17.4,30.3H33l-.3,1H17.4Zm9.1,2.4-1,1H17.4v-1Zm-1.7,2.4.5.9H17.4v-.9Zm1.3,2.4.2.3a1.4,1.4,0,0,0-.2.6H17.4v-.9Zm-2.8,2.3-1.1.3v.7H17.4v-1Zm-1.1,2.4v.9H17.4v-.9Zm0,2.4v.2l2.7.7H17.4v-.9Zm23.1,3.1-.3-.6.6-1.4h4.9a2,2,0,0,0,2-2.1V35.3a2,2,0,0,0-2-2H45.4l-1.9-2-2.3,1.3V30.9H53.7V47.7Zm8.4-34.2-.6-1H41.2V11.4H53.7ZM39.8,11.4V32.9l-.4-.2h.4V31.3H38.6l-.2-1h1.4V28.9H17.4V28H39.8V26.5H17.4v-.9H39.8V24.2H17.4v-1H39.8V21.8H17.4v-.9H39.8V19.4H17.4v-.9H39.8V17.1H17.4v-1H39.8V14.7H17.4v-1H39.8V12.3H17.4v-.9ZM17.4,47.7v-.8h8.8a.3.3,0,0,1,.1.2l-.3.6Z"/>
    <path class="cls-3" d="M19.8,51.2v4.5A4.3,4.3,0,0,0,24,60H47.1a4.3,4.3,0,0,0,4.2-4.3V51.2H49.9v4.5a2.8,2.8,0,0,1-2.8,2.8H24a2.8,2.8,0,0,1-2.8-2.8V51.2Z"/>
    <path class="cls-4" d="M29,47.1l.2.2h.3l.3-.3.7-.7h.6l.5.5v.6l-.4.4-.6.6a.4.4,0,0,0-.1.3c0,.1.1.1.2.2h.8a2.6,2.6,0,0,0,2.1-1.1h.1l.3-.8a1.6,1.6,0,0,0,0-.7v-.6h.1l.9-.9.5-.5.3.4h-.1a.2.2,0,0,0,.3.3h.2l.6.6.6.7.7.7.6.8.7.7h0a1.6,1.6,0,0,0,2.2,0,1.3,1.3,0,0,0,.4-.7,1.4,1.4,0,0,0-.4-1.5h0l-.4-.3-1.4-1.3h0l-.8-.6-.8-.8h-.1v-.2a.2.2,0,0,0-.3-.3h-.2l-.4-.3h.1l1.4-1.4h1a2,2,0,0,0,1.4-.6,2.5,2.5,0,0,0,.9-1.9,1.9,1.9,0,0,0-.2-.8.3.3,0,0,0-.1-.2h-.3l-.3.2-.7.8h-.7l-.4-.4v-.6l.4-.4h0l.6-.6a.4.4,0,0,0,.1-.3c0-.1-.1-.1-.2-.2h-.8a2.4,2.4,0,0,0-1.2.3,2.7,2.7,0,0,0-.8.7h-.1a1.5,1.5,0,0,0-.3.7,2.9,2.9,0,0,0-.2.9c0,.2.1.4.1.6l-.8.8-1,1H35l-.9-1-1.4-1.4-.7-.7v-.6c0-.1-.1-.2-.2-.3h-.1L30.5,36l-.5-.3h-.3l-.2.2-.5.5a.3.3,0,0,0-.1.2h0l.4.7.6.9v.2l.3.2h.6l1,1,1,1L34,41.9l-.2.3-1,.9-.7.7a2.3,2.3,0,0,0-1.4.1,1.5,1.5,0,0,0-.7.3.8.8,0,0,0-.4.4,1.8,1.8,0,0,0-.6.9c0,.2-.1.5-.1.7h0a1.3,1.3,0,0,0,.1.6Zm6.8-3.3.7-.7.5-.4.3.3h-.1l-1,1-.3-.2Z"/>
  </g>
</svg>
