<svg id="Layer_1" data-name="Layer 1" xmlns="http://www.w3.org/2000/svg" xmlns:xlink="http://www.w3.org/1999/xlink" width="374.5" height="89.4" viewBox="0 0 374.5 89.4">
  <defs>
    <style>
      .cls-1 {
        fill: url(#linear-gradient);
      }

      .cls-2, .cls-4, .cls-5 {
        fill: #fff;
      }

      .cls-2 {
        opacity: 0.3;
      }

      .cls-2, .cls-3, .cls-4 {
        isolation: isolate;
      }

      .cls-4 {
        font-size: 16px;
        font-family: Montserrat-Medium, Montserrat;
      }
    </style>
    <linearGradient id="linear-gradient" x1="405.55" y1="126.36" x2="21.53" y2="-32.27" gradientUnits="userSpaceOnUse">
      <stop offset="0" stop-color="#75c9b9"/>
      <stop offset="1" stop-color="#72bde5"/>
    </linearGradient>
  </defs>
  <title>banner_electrical_E01</title>
  <g id="Page-1">
    <g id="UI---Screen-7---v2">
      <g id="Group-2">
        <path id="Path-4" class="cls-1" d="M0,72.4C71,74,112,68.2,210.5,71c58.9,1.7,113.3,7.8,164,18.4V0H0Z"/>
        <rect id="Rectangle-Copy-2" class="cls-2" x="23.5" y="22" width="47" height="7" rx="3.3" ry="3.3"/>
        <rect id="Rectangle-Copy-4" class="cls-2" x="186.5" y="29" width="47" height="7" rx="3.3" ry="3.3"/>
        <path id="Rectangle-Copy-3" class="cls-2" d="M67.8,35h40.5a3.3,3.3,0,0,1,3.3,3.3v.5a3.2,3.2,0,0,1-3.2,3.2H67.8a3.3,3.3,0,0,1-3.2-3.2v-.5A3.3,3.3,0,0,1,67.8,35Z"/>
        <rect id="Rectangle-Copy-5" class="cls-2" x="233.5" y="42" width="47" height="7" rx="3.3" ry="3.3"/>
        <g id="sweep">
          <g id="_" data-name="+" class="cls-3">
            <text class="cls-4" transform="translate(298.5 26)">+</text>
          </g>
          <g id="_-copy" data-name="+-copy" class="cls-3">
            <text class="cls-4" transform="translate(336.5 14)">+</text>
          </g>
        </g>
      </g>
    </g>
  </g>
  <g>
    <path class="cls-5" d="M320.8,26.7l-3.5-4.6a.8.8,0,0,0-1-.2.8.8,0,0,0-.1,1.1l3.5,4.6a.6.6,0,0,0,.6.3l.4-.2A.7.7,0,0,0,320.8,26.7Z"/>
    <path class="cls-5" d="M349.6,27.7a.5.5,0,0,0,.4.2l.6-.3,3.5-4.6a.9.9,0,0,0-.1-1.1.8.8,0,0,0-1,.2l-3.6,4.6A.7.7,0,0,0,349.6,27.7Z"/>
    <path class="cls-5" d="M335.1,24.8v-6a.7.7,0,0,0-1.4,0v6a.7.7,0,1,0,1.4,0Z"/>
    <path class="cls-5" d="M348.2,59.4a1.4,1.4,0,0,0,.2-.7V54.8a2.8,2.8,0,0,0-1.9-2.6V39.6a12.1,12.1,0,0,0-24.2-.1h0V52.2a2.7,2.7,0,0,0-1.9,2.6v3.9a1.4,1.4,0,0,0,.2.7l.6.2h5.2L324.2,62a3.6,3.6,0,0,0-.9,2.2v3.9h1.9V64.2a1.7,1.7,0,0,1,.3-1l3.4-3.6h10.9l3.3,3.6a1.3,1.3,0,0,1,.4,1v3.9h1.8V64.2a3.5,3.5,0,0,0-.8-2.2l-2.2-2.4h5.2ZM324.1,39.6a10.5,10.5,0,0,1,3-7.3,10.6,10.6,0,0,1,7.3-3,10.2,10.2,0,0,1,7.2,3,10,10,0,0,1,3,7.3V52.1h-9.5v-17a.7.7,0,0,0-1.4,0v17h-9.6Zm22.5,18.2H322.2v-3a1,1,0,0,1,.9-.9h22.6a1,1,0,0,1,.9.9Z"/>
  </g>
</svg>
