<svg id="Layer_1" data-name="Layer 1" xmlns="http://www.w3.org/2000/svg" xmlns:xlink="http://www.w3.org/1999/xlink" width="374.5" height="89.4" viewBox="0 0 374.5 89.4">
  <defs>
    <style>
      .cls-1 {
        fill: url(#linear-gradient);
      }

      .cls-2, .cls-4, .cls-5 {
        fill: #fff;
      }

      .cls-2 {
        opacity: 0.3;
      }

      .cls-2, .cls-3, .cls-4 {
        isolation: isolate;
      }

      .cls-4 {
        font-size: 16px;
        font-family: Montserrat-Medium, Montserrat;
      }
    </style>
    <linearGradient id="linear-gradient" x1="405.55" y1="126.36" x2="21.53" y2="-32.27" gradientUnits="userSpaceOnUse">
      <stop offset="0" stop-color="#75c8b8"/>
      <stop offset="1" stop-color="#71bbe4"/>
    </linearGradient>
  </defs>
  <title>banner_pumbing_P0</title>
  <g id="Page-1">
    <g id="UI---Screen-7---v2">
      <g id="Group-2">
        <path id="Path-4" class="cls-1" d="M0,72.4C71,74,112,68.2,210.5,71c58.9,1.7,113.3,7.8,164,18.4V0H0Z"/>
        <rect id="Rectangle-Copy-2" class="cls-2" x="23.5" y="22" width="47" height="7" rx="3.3" ry="3.3"/>
        <rect id="Rectangle-Copy-4" class="cls-2" x="186.5" y="29" width="47" height="7" rx="3.3" ry="3.3"/>
        <rect id="Rectangle-Copy-3" class="cls-2" x="64.5" y="35" width="47" height="7" rx="3.3" ry="3.3"/>
        <path id="Rectangle-Copy-5" class="cls-2" d="M236.8,42h40.5a3.2,3.2,0,0,1,3.2,3.2v.5a3.2,3.2,0,0,1-3.2,3.2H236.8a3.3,3.3,0,0,1-3.2-3.2v-.5A3.3,3.3,0,0,1,236.8,42Z"/>
        <g id="sweep">
          <g id="_" data-name="+" class="cls-3">
            <text class="cls-4" transform="translate(358 26)">+</text>
          </g>
          <g id="_-copy" data-name="+-copy" class="cls-3">
            <text class="cls-4" transform="translate(336.5 14)">+</text>
          </g>
        </g>
      </g>
    </g>
  </g>
  <g>
    <path class="cls-5" d="M324.9,56.8a4.8,4.8,0,1,0-4.8-4.8A4.8,4.8,0,0,0,324.9,56.8ZM321.8,52a3.1,3.1,0,0,1,6.2,0,3.1,3.1,0,0,1-6.2,0Z"/>
    <path class="cls-5" d="M323.4,52.9h.5a.9.9,0,0,0,.8-.9.9.9,0,0,0-.8-.8h-.5a.9.9,0,0,0-.9.8A.9.9,0,0,0,323.4,52.9Z"/>
    <path class="cls-5" d="M322.7,32.6a.9.9,0,0,0-1.2.4,7.9,7.9,0,0,0-.5,2.5,3.9,3.9,0,0,0,7.8,0c0-3.2-3.2-6-3.4-6.1a.9.9,0,0,0-1,0l-1,.9a.8.8,0,0,0,.1,1.2.7.7,0,0,0,.6.3l.6-.3c0-.1.1-.2.2-.3a6.9,6.9,0,0,1,2.2,4.3,2.2,2.2,0,0,1-4.4,0,3.5,3.5,0,0,1,.4-1.7A.9.9,0,0,0,322.7,32.6Z"/>
    <path class="cls-5" d="M331.1,23.5a.9.9,0,0,0-.8-.8H319.5a.9.9,0,0,0-.8.8.9.9,0,0,0,.8.9h10.8A.9.9,0,0,0,331.1,23.5Z"/>
    <path class="cls-5" d="M356.6,34.6a2.2,2.2,0,0,0-2.2,2.2,2.3,2.3,0,0,0,1.6,2.1V68.2h-4.8V38.8a2.1,2.1,0,0,0,1.3-2,2.1,2.1,0,0,0-2.1-2.2,2.2,2.2,0,0,0-2.2,2.2,2.2,2.2,0,0,0,1.4,2V68.2H333v-.8h1.3a1.4,1.4,0,0,0,1.4-1.4V64.5a1.4,1.4,0,0,0-1.4-1.4h-1.1v-2h2.3a5.5,5.5,0,0,0,5.5-5.5V21.5a5.4,5.4,0,0,0-5.5-5.5H314.3a5.2,5.2,0,0,0-3.8,1.5.9.9,0,0,0-.3.6,1.1,1.1,0,0,0,.2.6l.6.3a.6.6,0,0,0,.6-.3,4.5,4.5,0,0,1,2.7-1h21.2a3.8,3.8,0,0,1,3.8,3.8v4.2a2.7,2.7,0,0,1-.3,1.2,2,2,0,0,1-.9.9,4.4,4.4,0,0,0-2.2,3.8v2.7a.8.8,0,0,0,.8.9.9.9,0,0,0,.9-.9V31.6a2.6,2.6,0,0,1,1.3-2.3l.4-.3V48.7l-.4-.2-1-1a3.2,3.2,0,0,1-.3-1.4V37.3a.8.8,0,0,0-.9-.8.7.7,0,0,0-.8.8v8.8a4,4,0,0,0,.6,2.2,4.4,4.4,0,0,0,1.6,1.7,2.4,2.4,0,0,1,1.2,2v3.6a3.8,3.8,0,0,1-3.8,3.8H314.3a3.8,3.8,0,0,1-3.8-3.8V52a2.4,2.4,0,0,1,1.2-2,4.4,4.4,0,0,0,1.6-1.7,4,4,0,0,0,.6-2.2V31.6a4.4,4.4,0,0,0-2.2-3.8,2,2,0,0,1-.9-.9,2.7,2.7,0,0,1-.3-1.2V21a.8.8,0,0,0-.1-.7c-.2-.1-.4-.3-.6-.3a.9.9,0,0,0-1,.7V55.6a5.5,5.5,0,0,0,5.5,5.5h2.3v2h-1.1a1.4,1.4,0,0,0-1.4,1.4V66a1.4,1.4,0,0,0,1.4,1.4h1.1v2.3h41v-31a2.1,2.1,0,0,0,1.2-1.9A2.2,2.2,0,0,0,356.6,34.6ZM319.1,64.8v.9h-3.3v-.9Zm11.6.9v-.9H334v.9Zm-20.2-17V29l.4.3a2.6,2.6,0,0,1,1.3,2.3V46.1a3.2,3.2,0,0,1-.3,1.4,4.7,4.7,0,0,1-1,1Zm7.6,19.5v-.8h1.4a1.3,1.3,0,0,0,1.3-1.4V64.5a1.3,1.3,0,0,0-1.3-1.4h-1.2v-2h13.2v2h-1.2a1.3,1.3,0,0,0-1.3,1.4V66a1.3,1.3,0,0,0,1.3,1.4h1.1v.8Z"/>
  </g>
</svg>
