<svg id="Layer_1" data-name="Layer 1" xmlns="http://www.w3.org/2000/svg" xmlns:xlink="http://www.w3.org/1999/xlink" width="70" height="70" viewBox="0 0 70 70">
  <defs>
    <style>
      .cls-1 {
        fill: #f6f6f6;
      }

      .cls-2 {
        fill: url(#linear-gradient);
      }

      .cls-3 {
        fill: url(#linear-gradient-2);
      }

      .cls-4 {
        fill: url(#linear-gradient-3);
      }

      .cls-5 {
        fill: url(#linear-gradient-4);
      }

      .cls-6 {
        fill: url(#linear-gradient-5);
      }
    </style>
    <linearGradient id="linear-gradient" x1="38.61" y1="87.12" x2="2.11" y2="-6.38" gradientUnits="userSpaceOnUse">
      <stop offset="0" stop-color="#75c9b9"/>
      <stop offset="1" stop-color="#72bde5"/>
    </linearGradient>
    <linearGradient id="linear-gradient-2" x1="60.42" y1="78.6" x2="23.92" y2="-14.9" xlink:href="#linear-gradient"/>
    <linearGradient id="linear-gradient-3" x1="68.24" y1="75.55" x2="31.74" y2="-17.95" xlink:href="#linear-gradient"/>
    <linearGradient id="linear-gradient-4" x1="46.51" y1="84.03" x2="10.01" y2="-9.47" xlink:href="#linear-gradient"/>
    <linearGradient id="linear-gradient-5" x1="53.45" y1="81.32" x2="16.95" y2="-12.18" xlink:href="#linear-gradient"/>
  </defs>
  <title>icon_electrical_E01</title>
  <path id="Rectangle" class="cls-1" d="M3,0H67a2.9,2.9,0,0,1,3,3V67a2.9,2.9,0,0,1-3,3H3a2.9,2.9,0,0,1-3-3V3A2.9,2.9,0,0,1,3,0Z"/>
  <g>
    <path class="cls-2" d="M12.6,41.3a4.1,4.1,0,0,0,3.3,1.9h.7l7.1-1.4,3-.7,1-.2-.8-1.3-.3-.6a7.6,7.6,0,0,1-1.1-5.5,3.7,3.7,0,0,0-1.4-3.8,62,62,0,0,1-4.4-4.5l-1.3-1.3a4.1,4.1,0,0,0-2.8-1.5A3.4,3.4,0,0,0,13,23.8a7.8,7.8,0,0,0-1.7,2.8,16,16,0,0,0-1,8.6A12.4,12.4,0,0,0,12.6,41.3Zm0-14.1a8.7,8.7,0,0,1,1.5-2.5,2.2,2.2,0,0,1,1.6-.9h0a2.4,2.4,0,0,1,1.7,1l1.2,1.3a48.9,48.9,0,0,0,4.5,4.6,2,2,0,0,1,.9,2.4,9.3,9.3,0,0,0,1.3,6.5c0,.1.1.1.1.2l-2,.4-7.1,1.5c-.9.2-1.7-.3-2.5-1.3a9.7,9.7,0,0,1-2-5.4A15.1,15.1,0,0,1,12.6,27.2Z"/>
    <path class="cls-3" d="M27.8,23l.8,4,.9-.6a10.2,10.2,0,0,1,7.9-1.5,1.5,1.5,0,0,0,1.5-.6,41.7,41.7,0,0,1,6.7-6.6,4.2,4.2,0,0,0,1.5-2.6,3.8,3.8,0,0,0-1.3-2.7,4.8,4.8,0,0,0-2-1.4h-.3a21.1,21.1,0,0,0-4.9-1.4,14.7,14.7,0,0,0-9.8,1.9,4.5,4.5,0,0,0-2.4,5C26.8,18.6,27.3,20.7,27.8,23Zm1.8-10.4a12.1,12.1,0,0,1,6.6-1.8l2.2.2A26,26,0,0,1,43,12.2h.3a4.2,4.2,0,0,1,1.5,1.2,2.4,2.4,0,0,1,.8,1.6,1.7,1.7,0,0,1-.9,1.4,45,45,0,0,0-6.9,6.9.1.1,0,0,0-.1.1,11,11,0,0,0-8.1,1.2l-.4-2c-.5-2.2-.9-4.4-1.4-6.6A3.2,3.2,0,0,1,29.6,12.6Z"/>
    <path class="cls-4" d="M57.8,27.6c-.5-.6-1.8-2.4-3.9-2L46.6,27l-3.1.6-1.1.2.6.9a10.1,10.1,0,0,1,1.6,7.9,1.9,1.9,0,0,0,.7,1.6l1.2,1.1,1.4,1.2,2.4,2.6,1.8,2.1a2.8,2.8,0,0,0,4.3.4,9.7,9.7,0,0,0,2.2-2.8,14.6,14.6,0,0,0,1.5-7.9A13.2,13.2,0,0,0,57.8,27.6Zm-.5,14.5a8.4,8.4,0,0,1-1.8,2.4,1.5,1.5,0,0,1-2.3-.3l-1.8-2L49,39.5l-1.6-1.4-1.1-.9-.2-.3a11.8,11.8,0,0,0-1.3-8.1l2.1-.4L54.2,27c.8-.1,1.6.3,2.4,1.4a12.3,12.3,0,0,1,2,6.6A12.4,12.4,0,0,1,57.3,42.1Z"/>
    <path class="cls-5" d="M42.5,45.7l-.6-3-.2-1.1-.9.6a10.8,10.8,0,0,1-8,1.6,1.9,1.9,0,0,0-1.5.6l-1.1,1.3-1.6,1.8-2.7,2.3L24.6,51a3.4,3.4,0,0,0-1.5,2.7,3.6,3.6,0,0,0,1.4,2.6,12.7,12.7,0,0,0,2.7,1.8,15.9,15.9,0,0,0,6.2,1.2l3.2-.3a10.6,10.6,0,0,0,5.3-2.1c1.6-1.2,2.2-2.4,2-3.8S43,48.3,42.5,45.7ZM41.1,55.8a10.5,10.5,0,0,1-4.7,1.8,15.3,15.3,0,0,1-8.6-.9,6.1,6.1,0,0,1-2.3-1.5,2,2,0,0,1-.9-1.5,2.1,2.1,0,0,1,1-1.6l1.3-1.2a29.1,29.1,0,0,0,2.7-2.4,15.4,15.4,0,0,0,1.7-1.9l1.1-1.2c0-.1.1-.1.2-.2A11.4,11.4,0,0,0,40.7,44a14.2,14.2,0,0,0,.4,2c.5,2.5.9,4.9,1.3,7.3S42.2,54.9,41.1,55.8Z"/>
    <path class="cls-6" d="M35.3,27.2a7.5,7.5,0,0,0-5.2,2A7.2,7.2,0,0,0,28,34.3a7,7,0,0,0,7,7.1h.1a7.1,7.1,0,0,0,7.1-6.9,7.8,7.8,0,0,0-1.9-5.1A7,7,0,0,0,35.3,27.2Zm-.2,12.7a5.5,5.5,0,0,1-5.6-5.6,5.7,5.7,0,0,1,1.7-4.1,5.5,5.5,0,0,1,4-1.5h.1a5.2,5.2,0,0,1,3.9,1.7,5.5,5.5,0,0,1,1.5,4.1A5.4,5.4,0,0,1,35.1,39.9Z"/>
  </g>
</svg>
