<svg id="Layer_1" data-name="Layer 1" xmlns="http://www.w3.org/2000/svg" xmlns:xlink="http://www.w3.org/1999/xlink" width="70" height="70" viewBox="0 0 70 70">
  <defs>
    <style>
      .cls-1 {
        fill: #f6f6f6;
      }

      .cls-2 {
        fill: url(#linear-gradient);
      }

      .cls-3 {
        fill: url(#linear-gradient-2);
      }

      .cls-4 {
        fill: url(#linear-gradient-3);
      }

      .cls-5 {
        fill: url(#linear-gradient-4);
      }

      .cls-6 {
        fill: url(#linear-gradient-5);
      }
    </style>
    <linearGradient id="linear-gradient" x1="38.76" y1="81.39" x2="0.42" y2="-3.28" gradientUnits="userSpaceOnUse">
      <stop offset="0" stop-color="#75c9b9"/>
      <stop offset="1" stop-color="#72bde5"/>
    </linearGradient>
    <linearGradient id="linear-gradient-2" x1="43.75" y1="79.12" x2="5.42" y2="-5.54" xlink:href="#linear-gradient"/>
    <linearGradient id="linear-gradient-3" x1="48.62" y1="76.92" x2="10.29" y2="-7.75" xlink:href="#linear-gradient"/>
    <linearGradient id="linear-gradient-4" x1="46.4" y1="77.93" x2="8.06" y2="-6.74" xlink:href="#linear-gradient"/>
    <linearGradient id="linear-gradient-5" x1="51.68" y1="75.54" x2="13.34" y2="-9.13" xlink:href="#linear-gradient"/>
  </defs>
  <title>icon_housekeeping_H0</title>
  <path id="Rectangle" class="cls-1" d="M3,0H67a2.9,2.9,0,0,1,3,3V67a2.9,2.9,0,0,1-3,3H3a2.9,2.9,0,0,1-3-3V3A2.9,2.9,0,0,1,3,0Z"/>
  <g>
    <path class="cls-2" d="M10,24.6h4.7v-.2h.1v-.2h0v-.2h-.1v-.2h-.1v-.2h.1v-.2h0v-.2h-.1v-.2H10v.4h0V22h0v.4h0v.9h0V24h0v.4Zm3.3-1.3H11.5v-.2h0v-.2h1.8Zm-1.8-1.9h1.7v.2H11.5Z"/>
    <polygon class="cls-3" points="20.6 22.6 20.6 22.5 20.6 22.1 20.6 22 20.6 21.6 20.6 21.5 20.6 21.1 20.6 20.9 20.6 20.6 20.6 20.4 20.6 20.1 20.6 20 20.6 19.9 20.5 19.9 20.4 19.9 20.4 19.9 20.2 19.8 19.9 19.9 19.8 19.9 19.4 19.8 19.3 19.8 19.2 19.9 19.1 19.9 19.1 20 19.1 20.5 19.1 20.6 19.1 21.1 19.1 21.2 19.1 21.7 19.1 21.8 19.1 21.9 19 21.9 18.9 21.9 18.8 21.9 18.4 21.9 17.9 21.9 17.8 21.9 17.5 21.9 17.4 21.9 17.3 21.9 17.2 21.9 17.2 21.9 17.2 21.8 17.2 21.7 17.2 21.1 17.2 20.6 17.2 20.5 17.2 20.2 17.2 20.1 17.2 20 17.2 19.9 17.1 19.9 17 19.9 16.9 19.9 16.8 19.9 16.5 19.9 16.4 19.9 16.1 19.9 15.9 19.9 15.8 19.9 15.7 19.9 15.7 19.9 15.6 20 15.6 20.2 15.7 20.4 15.7 20.6 15.7 20.9 15.7 21.1 15.7 21.5 15.7 21.6 15.7 22.1 15.7 22.5 15.7 22.6 15.7 23 15.7 23.1 15.7 23.5 15.7 23.6 15.7 24 15.7 24.6 15.6 24.9 15.6 25 15.7 25 15.7 25.1 15.7 25.2 15.8 25.2 15.8 25.2 15.9 25.2 16 25.2 16.4 25.2 16.5 25.2 16.8 25.2 16.9 25.2 17 25.2 17.1 25.2 17.2 25.1 17.2 25 17.2 24.9 17.2 24.5 17.2 24.4 17.2 23.9 17.2 23.8 17.2 23.4 17.2 23.3 17.2 23.2 17.3 23.2 17.4 23.2 17.8 23.2 18.4 23.2 18.5 23.2 18.8 23.2 19 23.2 19.1 23.2 19.1 23.3 19.1 23.4 19.1 23.8 19.1 23.9 19.1 24.4 19.1 24.5 19.1 25 19.1 25.1 19.2 25.2 19.3 25.2 19.4 25.2 19.8 25.2 19.9 25.2 20.3 25.2 20.4 25.2 20.5 25.2 20.6 25.1 20.6 25 20.6 24.9 20.6 24.8 20.6 24.6 20.6 24.5 20.6 24 20.6 23.6 20.6 23.5 20.6 23.1 20.6 23 20.6 22.6"/>
    <polygon class="cls-4" points="23.2 24.2 23.2 23.7 23.2 23.6 23.2 23.5 23.3 23.6 23.3 23.6 23.4 23.7 23.6 24 23.7 24.1 24 24.4 24.1 24.5 24.3 24.8 24.4 24.9 24.6 25.2 24.7 25.2 24.8 25.2 25.2 25.2 25.4 25.2 25.8 25.2 25.9 25.2 26.3 25.2 26.4 25.2 26.5 25.2 26.5 25.2 26.5 25.1 26.5 25.1 26.2 24.7 26.1 24.6 25.8 24.3 25.7 24.2 25.4 23.9 25.3 23.8 25 23.4 25 23.3 24.6 23 24.6 22.9 24.3 22.6 24.2 22.5 24.2 22.5 24.3 22.4 24.3 22.4 24.4 22.3 24.6 22.1 24.6 22 24.9 21.7 25 21.6 25.3 21.3 25.3 21.2 25.6 20.9 25.7 20.8 25.9 20.4 26 20.3 26.3 20 26.4 20 26.4 19.9 26.4 19.9 26.3 19.9 26.2 19.9 26 19.9 25.8 19.9 25.6 19.9 25.1 19.9 25 19.9 24.6 19.9 24.6 19.9 24.5 20 24.3 20.3 24.2 20.3 24 20.7 23.6 21.1 23.3 21.5 23.2 21.5 23.2 21.5 23.2 21.4 23.2 21 23.2 20.9 23.1 20.5 23.1 20.4 23.2 20.1 23.2 20.1 23.2 20 23.1 19.9 23.1 19.9 23 19.9 22.7 19.9 22.6 19.9 22.2 19.9 22.1 19.9 21.9 19.9 21.8 19.9 21.7 19.9 21.7 19.9 21.7 20 21.6 20.4 21.6 20.5 21.7 21.4 21.7 21.6 21.6 22 21.6 22.1 21.7 22.5 21.7 23 21.7 23.1 21.6 23.5 21.6 23.6 21.6 24.2 21.7 24.6 21.6 24.7 21.6 24.9 21.6 25 21.6 25.1 21.7 25.2 21.7 25.2 21.7 25.2 22.1 25.2 22.2 25.2 22.6 25.2 22.8 25.2 23 25.2 23.1 25.2 23.2 25.2 23.2 25.1 23.2 25 23.2 24.9 23.2 24.7 23.2 24.6 23.2 24.2"/>
    <polygon class="cls-5" points="20.7 16.2 20.7 16 20.7 15.8 20.7 15.7 20.7 15.5 20.7 15.3 20.6 15 20.6 14.9 20.5 14.6 20.4 14.4 20.4 14.3 20.3 14.1 20.1 13.9 19.8 13.7 19.6 13.6 19.5 13.5 19.3 13.4 19.1 13.3 18.9 13.2 18.6 13.2 18.3 13.1 18.1 13.1 17.8 13.1 17.5 13.1 17.3 13.1 16.7 13.1 16.5 13.1 16.4 13 16.3 12.9 16.3 12.7 16.3 12.4 16.3 12.3 16.4 12.2 16.6 12.1 16.8 12.1 17 12.1 17.5 12.1 18.2 12.1 19.1 12.1 19.3 12.1 19.8 12.1 20 12.1 20 12.1 20.2 12.1 20.3 12 20.3 11.8 20.3 11.7 20.3 11.5 20.3 11.1 20.4 10.8 20.3 10.6 20.3 10.5 20.3 10.4 20.3 10.3 20.2 10.3 20.1 10.3 19.7 10.3 19.4 10.3 18.4 10.3 17.8 10.3 16.8 10.2 16.1 10.3 15.9 10.3 15.3 10.3 15.1 10.3 14.7 10.3 14.4 10.3 14.3 10.3 14.2 10.4 14.2 10.5 14.2 10.6 14.2 10.8 14.2 11.2 14.2 11.4 14.2 12.1 14.2 12.2 14.2 12.9 14.2 13.1 14.2 13.8 14.2 13.9 14.2 14.6 14.2 14.7 14.3 14.8 14.5 14.9 15.8 14.8 16 14.8 16.7 14.9 17 14.9 17.3 14.8 17.5 14.9 17.7 14.9 17.9 14.9 18.1 15 18.2 15.1 18.3 15.2 18.4 15.4 18.5 15.5 18.5 15.6 18.5 15.8 18.5 16 18.4 16.2 18.2 16.4 18.1 16.5 17.9 16.5 17.7 16.6 17.5 16.6 17.3 16.6 17.1 16.6 16.9 16.5 16.8 16.5 16.6 16.4 16.5 16.3 16.4 16.1 16.3 15.9 16.3 15.8 16.2 15.7 16 15.6 15.8 15.6 15.3 15.7 15.1 15.7 14.6 15.6 14.3 15.7 14.2 15.7 14.1 15.8 14.1 15.9 14.1 16.1 14.1 16.3 14.2 16.6 14.2 16.7 14.3 16.9 14.4 17.1 14.5 17.3 14.6 17.4 14.8 17.6 14.9 17.7 15.1 17.8 15.2 17.9 15.4 18.1 15.6 18.1 15.8 18.2 15.9 18.3 16.2 18.3 16.4 18.3 16.7 18.4 16.9 18.4 17.1 18.4 17.3 18.4 17.5 18.4 17.7 18.4 17.9 18.4 18.1 18.4 18.3 18.4 18.5 18.3 18.7 18.3 18.9 18.2 19.1 18.1 19.2 18 19.4 17.9 19.6 17.8 19.9 17.6 20.1 17.4 20.3 17.2 20.4 17 20.5 16.8 20.6 16.6 20.7 16.5 20.7 16.2"/>
    <path class="cls-6" d="M58.8,35.8h-.7a3.2,3.2,0,0,0-1-1.9,4.2,4.2,0,0,0-1.6-.9,6.5,6.5,0,0,0-1-1.5,4.1,4.1,0,0,0-3-1.2h-.4a4.3,4.3,0,0,0-4-2.8,4.1,4.1,0,0,0-3.7,2.4,3.3,3.3,0,0,0-3-1.9A3.5,3.5,0,0,0,37,31.3a3.2,3.2,0,0,0-2.4,2.5H31.1V27.5a.7.7,0,1,0-1.4,0v21h-.5V17.9h.5v6.2a.7.7,0,1,0,1.4,0V10.8a1.2,1.2,0,0,0-1.2-1.2H29a1.2,1.2,0,0,0-1.2,1.2v23h-.6A1.2,1.2,0,0,0,26,35v4a1.2,1.2,0,0,0,1.2,1.2h.6v8.3h-.2a1.2,1.2,0,0,0-1.2,1.2v2.6H23.7a1.2,1.2,0,0,0-1.2,1.2v1.4h-2a2.2,2.2,0,0,0-1.3,3.9l-.3.3a.8.8,0,0,0,0,1.1l.5.2.6-.2.9-1h.5a.9.9,0,0,0,0,1l.6.2.5-.2.9-1h.5a.8.8,0,0,0,.1,1l.5.2.5-.2,1-1h.4a.8.8,0,0,0,.1,1l.5.2.5-.2,1-1h.4v.4a.7.7,0,0,0,.7.8.8.8,0,0,0,.8-.8v-.4h.3l1,1,.5.2.5-.2a.8.8,0,0,0,.1-1h.5l.9,1,.5.2.6-.2a.9.9,0,0,0,0-1h.5l.9,1,.6.2.5-.2a.9.9,0,0,0,.1-1h.4l1,1,.5.2.5-.2a.8.8,0,0,0,0-1.1l-.4-.4.5-.6h5.5a.8.8,0,0,0,.7-.8.7.7,0,0,0-.7-.7H40.6a2.3,2.3,0,0,0-2.2-1.7h-2V53.5a1.2,1.2,0,0,0-1.2-1.2H32.5V49.7a1.2,1.2,0,0,0-1.2-1.2h-.2V40.2H56.3L54.4,50.5l-9.3-4.9a3.9,3.9,0,0,0-3.9-3.8,4,4,0,1,0,0,7.9,3.6,3.6,0,0,0,2-.6l10.4,5.6-.2,1.5a.7.7,0,0,1-.5.4H49.8a.7.7,0,0,0-.7.7.8.8,0,0,0,.7.8h3.1a1.9,1.9,0,0,0,1.9-1.6l.3-1.4A2.3,2.3,0,0,0,56.7,54a2,2,0,0,0-.9-2.7h0l2-11h1A1.2,1.2,0,0,0,60,39V37.1A1.3,1.3,0,0,0,58.8,35.8ZM29.2,11.1h.5v5.3h-.5ZM27.9,50H31v2.3H27.9Zm-.4-14.8h.3v1.4h-.3Zm0,3.5v-.6h.3v.6Zm7.4,15v1.2H34a.7.7,0,0,0-.7.7.8.8,0,0,0,.7.8h4.4a.7.7,0,0,1,.7.7.7.7,0,0,1-.7.6H20.5a.7.7,0,0,1-.7-.6.7.7,0,0,1,.7-.7h9.6a.8.8,0,0,0,.8-.8.7.7,0,0,0-.8-.7H24V53.7Zm6.3-5.5a2.5,2.5,0,1,1,0-4.9,2.4,2.4,0,0,1,2.2,1.3l-.8-.4-1-.2a1.9,1.9,0,0,0-1.9,2.6,2.3,2.3,0,0,0,1,1.2l.8.4Zm14.1,5.1c0,.2-.2.3-.4.3h-.3l-13.2-7-.3-.3a.9.9,0,0,1,.1-.5.5.5,0,0,1,.4-.2h.3l13.2,7.1A.4.4,0,0,1,55.3,53.3ZM51.5,31.8a2.6,2.6,0,0,1,1.9.8,2.9,2.9,0,0,1,.8,1.3.6.6,0,0,0,.6.5,3.1,3.1,0,0,1,1.3.6,2.2,2.2,0,0,1,.5.8H53.5a2.7,2.7,0,0,0-2.6-1.9h-.4a3.9,3.9,0,0,0-.8-1.4A2.4,2.4,0,0,1,51.5,31.8ZM47.1,29a2.5,2.5,0,0,1,2.5,1.7l-1,.8-.3.3h-.7a3.4,3.4,0,0,0-1.7.5,3,3,0,0,0-1.4-1.1A2.7,2.7,0,0,1,47.1,29Zm-9.5,3.7h.3a2.1,2.1,0,0,1,1.1.4.8.8,0,0,0,1.1,0A.9.9,0,0,0,40,32a3.5,3.5,0,0,0-1.5-.7,1.9,1.9,0,0,1,1.9-1.8,1.8,1.8,0,0,1,1.8,1.8v.2a.7.7,0,0,0,.8.8h.2a1.8,1.8,0,0,1,1.7,1.2,2.2,2.2,0,0,0-.2,1.2.7.7,0,0,0,1.4,0,1.1,1.1,0,0,1,.3-.8.3.3,0,0,1,.1-.2,1.4,1.4,0,0,1,1.1-.5,1.5,1.5,0,0,1,1.5,1.5.7.7,0,0,0,.7.7h1.1a1.8,1.8,0,0,1,1,.4H41.5V35a1.2,1.2,0,0,0-1.2-1.2H36.1A1.9,1.9,0,0,1,37.6,32.7Zm-6.5,2.5h9v1.4h-9Zm27.4,3.5H31.1v-.6h9.2a1.3,1.3,0,0,0,1.2-.8h17Z"/>
  </g>
</svg>
