<svg id="Layer_1" data-name="Layer 1" xmlns="http://www.w3.org/2000/svg" xmlns:xlink="http://www.w3.org/1999/xlink" width="70" height="70" viewBox="0 0 70 70">
  <defs>
    <style>
      .cls-1 {
        fill: #f6f6f6;
      }

      .cls-2 {
        fill: url(#linear-gradient);
      }

      .cls-3 {
        fill: url(#linear-gradient-2);
      }

      .cls-4 {
        fill: url(#linear-gradient-3);
      }

      .cls-5 {
        fill: url(#linear-gradient-4);
      }

      .cls-6 {
        fill: url(#linear-gradient-5);
      }
    </style>
    <linearGradient id="linear-gradient" x1="56.65" y1="62.1" x2="18.52" y2="5.08" gradientUnits="userSpaceOnUse">
      <stop offset="0" stop-color="#64dcc2"/>
      <stop offset="1" stop-color="#70bce6"/>
    </linearGradient>
    <linearGradient id="linear-gradient-2" x1="63.6" y1="57.44" x2="25.47" y2="0.43" xlink:href="#linear-gradient"/>
    <linearGradient id="linear-gradient-3" x1="58.75" y1="60.69" x2="20.62" y2="3.68" xlink:href="#linear-gradient"/>
    <linearGradient id="linear-gradient-4" x1="51.33" y1="65.65" x2="13.2" y2="8.64" xlink:href="#linear-gradient"/>
    <linearGradient id="linear-gradient-5" x1="46.17" y1="69.1" x2="8.04" y2="12.09" xlink:href="#linear-gradient"/>
  </defs>
  <title>icon_carpentry_C0</title>
  <path id="Rectangle" class="cls-1" d="M3,0H67a2.9,2.9,0,0,1,3,3V67a2.9,2.9,0,0,1-3,3H3a2.9,2.9,0,0,1-3-3V3A2.9,2.9,0,0,1,3,0Z"/>
  <g>
    <path class="cls-2" d="M17.2,58.6l9.1-2.2c1.1.3,6.1,2,9.1,2s7.9-1.7,9-2l8.8,2H54V21.8h6V11.6H10V21.8h7.1Zm1.3-36.8h7.1V55.1l-6.9,1.7ZM43.6,55.1A40.5,40.5,0,0,1,36.1,57V21.8h7.5ZM34.7,57A41,41,0,0,1,27,55.1V21.8h7.7ZM52.5,21.8v35L45.1,55V21.8ZM11.4,13.1H58.6v7.2H11.4Z"/>
    <path class="cls-3" d="M50.9,53.6a.8.8,0,0,0,.8-.7V24.1a.8.8,0,0,0-.8-.7.7.7,0,0,0-.7.7V52.9A.7.7,0,0,0,50.9,53.6Z"/>
    <path class="cls-4" d="M41.8,47.4a.8.8,0,0,0,.8-.7V24.1a.8.8,0,0,0-.8-.7.7.7,0,0,0-.7.7V46.7A.7.7,0,0,0,41.8,47.4Z"/>
    <path class="cls-5" d="M32.8,52.6a.8.8,0,0,0,.8-.7V24.1a.8.8,0,0,0-.8-.7.7.7,0,0,0-.7.7V51.9A.7.7,0,0,0,32.8,52.6Z"/>
    <path class="cls-6" d="M24,23.4a.7.7,0,0,0-.7.7V47.9a.7.7,0,0,0,1.4,0V24.1A.7.7,0,0,0,24,23.4Z"/>
  </g>
</svg>
