<svg id="Layer_1" data-name="Layer 1" xmlns="http://www.w3.org/2000/svg" xmlns:xlink="http://www.w3.org/1999/xlink" width="70" height="70" viewBox="0 0 70 70">
  <defs>
    <style>
      .cls-1 {
        fill: #f6f6f6;
      }

      .cls-2 {
        fill: url(#linear-gradient);
      }

      .cls-3 {
        fill: url(#linear-gradient-2);
      }

      .cls-4 {
        fill: url(#linear-gradient-3);
      }
    </style>
    <linearGradient id="linear-gradient" x1="53.53" y1="70.99" x2="20.13" y2="-4.83" gradientUnits="userSpaceOnUse">
      <stop offset="0" stop-color="#75c9b9"/>
      <stop offset="1" stop-color="#72bde5"/>
    </linearGradient>
    <linearGradient id="linear-gradient-2" x1="50.04" y1="72.53" x2="16.64" y2="-3.29" xlink:href="#linear-gradient"/>
    <linearGradient id="linear-gradient-3" x1="58.27" y1="68.9" x2="24.88" y2="-6.92" xlink:href="#linear-gradient"/>
  </defs>
  <title>icon_plumbing_P0</title>
  <path id="Rectangle" class="cls-1" d="M3,0H67a2.9,2.9,0,0,1,3,3V67a2.9,2.9,0,0,1-3,3H3a2.9,2.9,0,0,1-3-3V3A2.9,2.9,0,0,1,3,0Z"/>
  <g>
    <path class="cls-2" d="M48.8,7.5H21.2a3.4,3.4,0,0,0-3.4,3.4V21.2a3.5,3.5,0,0,0,1.7,3,3.3,3.3,0,0,0-.8,2.2V46.2a16.3,16.3,0,1,0,32.6,0V26.4a3.3,3.3,0,0,0-.8-2.2,3.5,3.5,0,0,0,1.7-3V10.9A3.4,3.4,0,0,0,48.8,7.5ZM35,60.9A14.7,14.7,0,0,1,20.3,46.2V26.4a1.8,1.8,0,0,1,1.8-1.8h1.8v1.8h-.1a1.8,1.8,0,0,0-1.7,1.7V46.2a12.3,12.3,0,0,0,2.9,8,.7.7,0,0,0,.6.3h.5a.9.9,0,0,0,.1-1.2,11,11,0,0,1-2.4-7V28.1H46.2V29a.9.9,0,0,0,.9.8.9.9,0,0,0,.8-.8v-.9a1.8,1.8,0,0,0-1.7-1.7h-.1V24.6h1.8a1.8,1.8,0,0,1,1.8,1.8V46.2h0A14.7,14.7,0,0,1,35,60.9ZM25.5,26.4V24.6h1.8v1.8Zm3.4,0V24.6H41.1v1.8Zm13.8,0V24.6h1.8v1.8Zm7.9-5.2A1.8,1.8,0,0,1,48.8,23H21.2a1.8,1.8,0,0,1-1.8-1.8V10.9a1.8,1.8,0,0,1,1.8-1.8H48.8a1.8,1.8,0,0,1,1.8,1.8Z"/>
    <path class="cls-3" d="M47.1,31.6a.9.9,0,0,0-.9.8V46.2a11.2,11.2,0,0,1-17.6,9.2,1.1,1.1,0,0,0-1.2.2.9.9,0,0,0,.2,1.1A12.6,12.6,0,0,0,35,59.1,12.9,12.9,0,0,0,47.9,46.2V32.4A.9.9,0,0,0,47.1,31.6Z"/>
    <path class="cls-4" d="M38.4,13.5H31.6A2.6,2.6,0,0,0,29,16.1a2.6,2.6,0,0,0,2.6,2.5h6.8A2.6,2.6,0,0,0,41,16.1,2.6,2.6,0,0,0,38.4,13.5ZM33.3,17H31.6a1,1,0,0,1-1-.9,1.1,1.1,0,0,1,1-1h1.7Zm5.1,0H34.9V15.1h3.5a1.1,1.1,0,0,1,1,1A1,1,0,0,1,38.4,17Z"/>
  </g>
</svg>
