<svg id="Layer_1" data-name="Layer 1" xmlns="http://www.w3.org/2000/svg" xmlns:xlink="http://www.w3.org/1999/xlink" width="374.5" height="89.4" viewBox="0 0 374.5 89.4">
  <defs>
    <style>
      .cls-1 {
        fill: url(#linear-gradient);
      }

      .cls-2, .cls-4, .cls-5 {
        fill: #fff;
      }

      .cls-2 {
        opacity: 0.3;
      }

      .cls-2, .cls-3, .cls-4 {
        isolation: isolate;
      }

      .cls-4 {
        font-size: 16px;
        font-family: Montserrat-Medium, Montserrat;
      }
    </style>
    <linearGradient id="linear-gradient" x1="405.55" y1="126.36" x2="21.53" y2="-32.27" gradientUnits="userSpaceOnUse">
      <stop offset="0" stop-color="#64dcc2"/>
      <stop offset="1" stop-color="#70bce6"/>
    </linearGradient>
  </defs>
  <title>banner_carpentry_C0</title>
  <g id="Page-1">
    <g id="UI---Screen-7---v2">
      <g id="Group-2">
        <path id="Path-4" class="cls-1" d="M0,72.4C71,74,112,68.2,210.5,71c58.9,1.7,113.3,7.8,164,18.4V0H0Z"/>
        <path id="Rectangle-Copy-2" class="cls-2" d="M26.8,22H67.3a3.3,3.3,0,0,1,3.3,3.3v.5A3.3,3.3,0,0,1,67.3,29H26.8a3.2,3.2,0,0,1-3.2-3.2v-.5A3.2,3.2,0,0,1,26.8,22Z"/>
        <rect id="Rectangle-Copy-4" class="cls-2" x="186.5" y="29" width="47" height="7" rx="3.3" ry="3.3"/>
        <rect id="Rectangle-Copy-3" class="cls-2" x="64.5" y="35" width="47" height="7" rx="3.3" ry="3.3"/>
        <rect id="Rectangle-Copy-5" class="cls-2" x="233.5" y="42" width="47" height="7" rx="3.3" ry="3.3"/>
        <g id="sweep">
          <g id="_" data-name="+" class="cls-3">
            <text class="cls-4" transform="translate(298.5 26)">+</text>
          </g>
          <g id="_-copy" data-name="+-copy" class="cls-3">
            <text class="cls-4" transform="translate(336.5 14)">+</text>
          </g>
        </g>
      </g>
    </g>
  </g>
  <g>
    <path class="cls-5" d="M335.5,14a25,25,0,0,0-7.6,48.8l1.4.4,2.4.5,2.1.3h3.5l2.1-.3,2.3-.5,1.4-.4A25,25,0,0,0,335.5,14Zm0,48.6a24.2,24.2,0,0,1-5.4-.6l.7-1.2-.2-.4a3.7,3.7,0,0,1-.5-1.1v-.4l-2.1-.6V57.1l2.1-.6v-.4a3.7,3.7,0,0,1,.5-1.1l.2-.4-.2-.3-.9-1.5.9-.9,1.4.8.4.2.4-.2.9-.4h.6l.6-2h1.3l.5,2h.4l1.2.5.3.2,1.9-1,.9.9-.9,1.5-.2.3.2.4a3.6,3.6,0,0,1,.4.9.3.3,0,0,0,.1.2v.4l2.1.6v1.2l-2.1.6v.4a3.7,3.7,0,0,1-.5,1.1l-.2.4L341,62A25.1,25.1,0,0,1,335.5,62.6Zm6.9-1-.5-.8.3-.7,2.4-.7V56l-1.5-.4-.9-.3-.3-.7.4-.7.8-1.4-2.4-2.4-2.1,1.2-.7-.3-.6-2.4h-3.5V49l-.5,2-.7.3L332,51l-1.4-.8h-.2l-2.5,2.4,1.2,2.1c0,.1,0,.2-.1.2a.8.8,0,0,1-.2.5l-2.3.7v3.4l2.3.7.3.7-.4.8a23.6,23.6,0,1,1,13.7,0Z"/>
    <path class="cls-5" d="M337.9,57a1.7,1.7,0,0,0,1.3-.7,2.4,2.4,0,0,0,.2-.8.9.9,0,0,0-.1-.5.1.1,0,0,0-.2,0l-.7.6h-.3l-.3-.4v-.3l.2-.2.4-.4h.1a.1.1,0,0,0-.1-.1h-.5a1.3,1.3,0,0,0-1.2.6.8.8,0,0,0-.2.4,1.4,1.4,0,0,0-.1.9l-1,1h-.1l-1.6-1.6-.2-.3v-.3h-.1l-1.1-.7h-.2v.2l-.3.3s-.1.1,0,.1l.3.5.3.6h.5l1.4,1.4.5.4-1.1,1.2a1.2,1.2,0,0,0-1.3.2,1.4,1.4,0,0,0-.6,1.2v.5h.3l.6-.7h.3l.4.4v.3l-.7.6h0c0,.1,0,.1.1.1h.5a1.4,1.4,0,0,0,1.2-.6,1.5,1.5,0,0,0,.2-1.3l.9-.9.2.3h-.1v.3h.3l1.9,2.1h0a1,1,0,0,0,1.3,0,.9.9,0,0,0,0-1.3L337,58.3h.1c.1-.1.1-.2,0-.2s-.1-.1-.2,0h-.1l-.2-.2.9-.9Zm-1.3,1.3-.7.6-.2-.2.7-.6Z"/>
    <path class="cls-5" d="M348.9,34.8a3.6,3.6,0,0,0,.7,2.2v.2a3.4,3.4,0,0,1-3.3,3.4H325.8a3.4,3.4,0,0,1-3.3-3.4v-.3a4,4,0,0,0,.7-2.1,3.7,3.7,0,0,0-3.7-3.7,3.6,3.6,0,0,0-3.7,3.7,3.9,3.9,0,0,0,.9,2.4,8.9,8.9,0,0,0,8.8,8.3h21.1a8.9,8.9,0,0,0,8.8-8.4,3.6,3.6,0,0,0,.8-2.3,3.7,3.7,0,1,0-7.3,0Zm4.9,3.4a7.4,7.4,0,0,1-7.2,5.8H325.5a7.3,7.3,0,0,1-7.2-5.8,2.5,2.5,0,0,0,1.2.2,2.9,2.9,0,0,0,1.6-.4,4.8,4.8,0,0,0,4.7,4h20.5a4.8,4.8,0,0,0,4.7-3.9,3.8,3.8,0,0,0,1.6.3A2.5,2.5,0,0,0,353.8,38.2Z"/>
  </g>
</svg>
