<svg id="Layer_1" data-name="Layer 1" xmlns="http://www.w3.org/2000/svg" xmlns:xlink="http://www.w3.org/1999/xlink" width="70" height="70" viewBox="0 0 70 70">
  <defs>
    <style>
      .cls-1 {
        fill: #f6f6f6;
      }

      .cls-2 {
        fill: url(#linear-gradient);
      }

      .cls-3 {
        fill: url(#linear-gradient-2);
      }

      .cls-4 {
        fill: url(#linear-gradient-3);
      }

      .cls-5 {
        fill: url(#linear-gradient-4);
      }

      .cls-6 {
        fill: url(#linear-gradient-5);
      }

      .cls-7 {
        fill: url(#linear-gradient-6);
      }

      .cls-8 {
        fill: url(#linear-gradient-7);
      }

      .cls-9 {
        fill: url(#linear-gradient-8);
      }
    </style>
    <linearGradient id="linear-gradient" x1="61.73" y1="73.57" x2="18.59" y2="-12.98" gradientUnits="userSpaceOnUse">
      <stop offset="0" stop-color="#75c9b9"/>
      <stop offset="1" stop-color="#72bde5"/>
    </linearGradient>
    <linearGradient id="linear-gradient-2" x1="57.22" y1="75.82" x2="14.07" y2="-10.73" xlink:href="#linear-gradient"/>
    <linearGradient id="linear-gradient-3" x1="60.19" y1="74.34" x2="17.04" y2="-12.2" xlink:href="#linear-gradient"/>
    <linearGradient id="linear-gradient-4" x1="58.68" y1="75.09" x2="15.53" y2="-11.45" xlink:href="#linear-gradient"/>
    <linearGradient id="linear-gradient-5" x1="42.02" y1="83.4" x2="-1.13" y2="-3.15" xlink:href="#linear-gradient"/>
    <linearGradient id="linear-gradient-6" x1="47.49" y1="80.67" x2="4.34" y2="-5.88" xlink:href="#linear-gradient"/>
    <linearGradient id="linear-gradient-7" x1="52.81" y1="78.02" x2="9.66" y2="-8.53" xlink:href="#linear-gradient"/>
    <linearGradient id="linear-gradient-8" x1="50.14" y1="79.35" x2="6.99" y2="-7.19" xlink:href="#linear-gradient"/>
  </defs>
  <title>icon_PC0</title>
  <path id="Rectangle" class="cls-1" d="M3,0H67a2.9,2.9,0,0,1,3,3V67a2.9,2.9,0,0,1-3,3H3a2.9,2.9,0,0,1-3-3V3A2.9,2.9,0,0,1,3,0Z"/>
  <g>
    <g>
      <path class="cls-2" d="M59.5,21.4l-2.9-1h-.7a.9.9,0,0,0-.3.6H51.9a.7.7,0,0,0,0,1.4h3.7v.8H49.7V20.8a.7.7,0,0,0-.7-.7H47.6V18.9a.7.7,0,0,0-.7-.7H43.4v-.8H44a.9.9,0,0,0,.7-.6l.5-1.9h.6a1.5,1.5,0,0,0,0-3H39.6a1.5,1.5,0,0,0,0,3h.5l.5,1.9a.9.9,0,0,0,.7.6H42v.8H33.6a.6.6,0,0,0-.6.5l-3.3,9.8a.4.4,0,0,0,0,.5.8.8,0,0,0,.4.4h1.2a2.3,2.3,0,0,0,1.1-.2,2.3,2.3,0,0,0,1.2-1.5l2.1-6.1h2.1V27a.8.8,0,0,0,.7.8h.4v3.4H36.3a4,4,0,0,0-3.8,3.3L29.4,55.4a4.4,4.4,0,0,0,1,3.3,4.1,4.1,0,0,0,3.1,1.4H51.8a4.1,4.1,0,0,0,3.1-1.4,4,4,0,0,0,1-3.3L52.8,34.5A4,4,0,0,0,49,31.2H46.5V27.8h.4a.8.8,0,0,0,.7-.8V25.9H49a.7.7,0,0,0,.7-.7v-.4h5.9a.7.7,0,0,0,.3.6h.7l2.9-1a.6.6,0,0,0,.5-.6V22.1A.8.8,0,0,0,59.5,21.4ZM41.4,14a.8.8,0,0,0-.7-.5h3.9a.6.6,0,0,0-.6.5l-.5,1.9H41.9Zm-6.2,6.4a.7.7,0,0,0-.7.4l-2.2,6.7a.9.9,0,0,1-.6.6h-.5l2.9-8.6h3.7v.8ZM45.8,32.7H49a2.5,2.5,0,0,1,2.4,2l3.1,20.9a2.6,2.6,0,0,1-.6,2.1,3,3,0,0,1-2.1,1H33.5a2.6,2.6,0,0,1-2-1,2.7,2.7,0,0,1-.7-2.1l3.1-20.9a2.5,2.5,0,0,1,2.4-2h6.6a.8.8,0,0,0,.7-.7.8.8,0,0,0-.7-.8H40.3V27.8h4.8V32A.8.8,0,0,0,45.8,32.7Zm2.5-8.2H46.9a.7.7,0,0,0-.7.7v1.1h-7V19.6h7v1.2a.7.7,0,0,0,.7.7h1.4v3Zm10.3-1.2-1.6.6V22.1l1.6.5Z"/>
      <path class="cls-3" d="M35,42.1h0a7.7,7.7,0,0,0-1.2,4.3,8.9,8.9,0,0,0,16.5,4.5h0a.1.1,0,0,1,.1-.1,9.3,9.3,0,0,0,1.1-4.4,8.8,8.8,0,0,0-8.8-8.8A8.9,8.9,0,0,0,35,42.1Zm7.7,12a7.6,7.6,0,0,1-7.5-7.5,8.2,8.2,0,0,1,.7-3.1L40,45.9H38.7a.7.7,0,1,0,0,1.4H40V48h-.1a1.8,1.8,0,0,0-1.8,1.8v1a.7.7,0,1,0,1.4,0v-1a.4.4,0,0,1,.4-.4h.3a2.4,2.4,0,0,0,.6.9,2.6,2.6,0,0,0,1.9.8,2.7,2.7,0,0,0,1.2-.3.7.7,0,0,0-.7-1.3h-.5a1.2,1.2,0,0,1-1.3-1.2V46.7l7.3,4.2A7.3,7.3,0,0,1,42.7,54.1Zm7.4-7.5a6.4,6.4,0,0,1-.7,3.1l-8-4.6v-.2a1.3,1.3,0,0,1,1.3-1.3,1.2,1.2,0,0,1,.9.4.9.9,0,0,1,.3.7.9.9,0,0,0,.7.6h.8a1.8,1.8,0,0,0,1.8-1.9v-1a.7.7,0,1,0-1.4,0v1a.5.5,0,0,1-.4.5h-.2l-.6-.9a2.7,2.7,0,0,0-1.9-.8,2.6,2.6,0,0,0-2.5,1.7h-.3a.5.5,0,0,1-.4-.5v-1a.7.7,0,1,0-1.4,0v.8l-1.5-.9a7.5,7.5,0,0,1,6.1-3.1A7.4,7.4,0,0,1,50.1,46.6Z"/>
      <path class="cls-4" d="M46.6,45.9h-.5a.7.7,0,1,0,0,1.4h.5a.7.7,0,1,0,0-1.4Z"/>
      <path class="cls-5" d="M46.5,49.8a.7.7,0,0,0-.7.7v.3a.7.7,0,1,0,1.4,0v-.3A.7.7,0,0,0,46.5,49.8Z"/>
    </g>
    <g>
      <path class="cls-6" d="M10,26.3h0v.2h4.7l.3-.2h.3v-.2h.1v-.2h.1v-.4h0v-.2h-.1v-.2h0v-.2h-.1v-.2h-.2v-.2h.3v-.4h0v-.3h-.1v-.2h-.3v-.2H10v.5h.1v1.6h0v.5h0v1.2h0v.2h0v.5Zm3.7-1.5h-2v-.4h0v-.2h2Zm-2-2.1v-.2h1.9v.2H11.7Z"/>
      <polygon class="cls-7" points="18.1 21.8 18.1 21.7 18.2 21.3 18.2 21.2 18.2 21.1 18.1 21 18.1 21 17.9 20.9 17.8 20.9 17.7 20.9 17.4 21 17.2 21 16.9 20.9 16.7 20.9 16.6 20.9 16.5 21 16.4 21 16.4 21.1 16.4 21.3 16.4 21.6 16.5 21.7 16.5 22.2 16.5 22.3 16.4 22.7 16.4 22.9 16.4 23.5 16.4 23.9 16.4 24 16.5 24.5 16.5 24.6 16.4 25 16.4 25.2 16.4 25.6 16.4 26.3 16.4 26.6 16.4 26.7 16.4 26.8 16.4 26.9 16.5 26.9 16.5 27 16.6 27 16.7 27 16.8 27 17.2 27 17.4 27 17.7 27 17.8 27 18 27 18.1 27 18.1 26.9 18.2 26.8 18.2 26.6 18.1 26.2 18.1 26.1 18.1 25.6 18.1 25.4 18.1 24.9 18.1 24.8 18.2 24.7 18.3 24.7 18.4 24.7 18.8 24.7 19.5 24.7 19.6 24.7 20 24.7 20.2 24.7 20.3 24.7 20.3 24.8 20.3 24.9 20.3 25.4 20.3 25.6 20.3 26.1 20.3 26.2 20.3 26.8 20.3 26.9 20.4 27 20.5 27 20.6 27 21.1 27 21.2 27 21.7 27 21.8 27 21.9 27 22 26.9 22 26.8 22 26.7 22 26.5 22 26.3 22 26.2 22 25.6 22 25.2 22 25 22 24.6 22 24.5 22 24 22 23.9 22 23.5 22 23.3 22 22.9 22 22.7 22 22.3 22 22.2 22 21.7 22 21.6 22 21.3 22 21.1 22 21 21.9 20.9 21.8 20.9 21.7 20.9 21.6 20.9 21.2 20.9 21.1 20.9 20.6 20.9 20.5 20.9 20.4 20.9 20.3 21 20.3 21.1 20.3 21.7 20.3 21.8 20.3 22.4 20.3 22.5 20.3 23 20.3 23.1 20.3 23.2 20.2 23.3 20.1 23.3 20 23.3 19.5 23.2 19 23.2 18.8 23.2 18.5 23.3 18.4 23.3 18.3 23.3 18.2 23.3 18.2 23.2 18.1 23.1 18.1 23.1 18.1 22.4 18.1 21.8"/>
      <polygon class="cls-8" points="23.2 26.4 23.2 26.6 23.2 26.7 23.2 26.9 23.2 26.9 23.2 27 23.3 27 23.7 27 23.9 27 24.2 27 24.5 27 24.8 27 24.9 27 24.9 26.9 24.9 26.8 24.9 26.7 24.9 26.6 24.9 26.4 24.9 26.3 24.9 25.8 24.9 25.2 24.9 25.1 25 25.1 25 25.1 25.1 25.2 25.2 25.3 25.4 25.6 25.5 25.7 25.8 26 25.9 26.1 26.2 26.5 26.3 26.6 26.5 26.9 26.6 27 26.7 27 27.3 27 27.4 27 27.9 27 28 27 28.5 27 28.6 27 28.7 27 28.7 26.9 28.7 26.9 28.7 26.8 28.3 26.4 28.2 26.3 27.9 26 27.8 25.9 27.4 25.5 27.4 25.4 27 25 26.9 24.9 26.6 24.5 26.5 24.4 26.2 24 26.1 23.9 26.1 23.9 26.1 23.8 26.2 23.8 26.3 23.7 26.5 23.5 26.6 23.4 26.9 23 27 22.9 27.3 22.5 27.4 22.4 27.7 22.1 27.8 22 28.1 21.6 28.1 21.5 28.5 21.1 28.5 21.1 28.5 21 28.5 21 28.5 21 28.4 21 28.1 21 27.9 21 27.6 21 27.1 20.9 27 20.9 26.6 21 26.5 21 26.4 21 26.1 21.4 26.1 21.5 25.8 21.8 25.3 22.4 25.1 22.7 25 22.8 24.9 22.8 24.9 22.7 24.9 22.2 24.9 22.1 24.9 21.7 24.9 21.5 24.9 21.3 24.9 21.2 24.9 21.1 24.9 21 24.8 21 24.8 21 24.4 20.9 24.2 20.9 23.9 21 23.7 21 23.5 21 23.3 20.9 23.2 21 23.2 21 23.2 21.1 23.2 21.6 23.2 21.7 23.2 22.7 23.2 22.9 23.2 23.3 23.2 23.5 23.2 23.9 23.2 24.5 23.2 24.6 23.2 25.1 23.2 25.2 23.2 25.8 23.2 26.3 23.2 26.4"/>
      <polygon class="cls-9" points="14.5 18.1 14.5 18.9 14.5 19 14.5 19.1 14.6 19.2 14.8 19.2 15.5 19.2 16.4 19.2 18.2 19.2 19.3 19.1 20 19.1 21 19.2 21.2 19.2 21.4 19.2 21.6 19.2 22 19.1 22.1 19.1 22.1 19 22.2 18.9 22.2 18.7 22.2 18.5 22.2 18.2 22.2 17.7 22.2 17.5 22.1 17.3 22.1 17.1 22 17 21.9 17 21.7 17 21.2 17 21 17 19.6 17.1 19.4 17.1 18.7 17 17.7 17 17.2 17.1 17 17 16.9 17 16.9 16.9 16.9 16.9 17 16.7 17 16.6 17.1 16.4 17.2 16.3 17.3 16.1 17.4 16.1 17.6 16 17.7 15.9 17.9 15.9 18 15.9 18.2 15.9 18.3 15.9 18.5 15.9 18.8 15.8 19 15.8 19.2 15.8 19.4 15.7 19.7 15.7 19.9 15.7 20.1 15.6 20.3 15.6 20.6 15.5 20.8 15.4 21 15.3 21.2 15.2 21.4 15 21.5 14.9 21.7 14.7 21.8 14.5 21.9 14.3 22 14.1 22.1 13.8 22.2 13.7 22.2 13.4 22.2 13.2 22.3 12.9 22.3 12.7 22.2 12.4 22.2 12.2 22.1 12.1 22.1 11.9 22 11.7 21.9 11.5 21.7 11.3 21.6 11.1 21.4 10.9 21.3 10.8 21.1 10.6 20.9 10.5 20.7 10.4 20.5 10.3 20.3 10.3 19.9 10.2 19.7 10.1 19.4 10 19.3 10 19.1 10 18.9 10 18.6 10 18.2 10 18 10 17.7 10 17.5 10 17.3 10.1 17.1 10.1 16.8 10.2 16.6 10.2 16.4 10.3 16 10.5 15.9 10.6 15.6 10.8 15.5 10.9 15.3 11.1 15.2 11.2 15.1 11.4 15 11.6 14.8 11.8 14.8 12 14.8 12.1 14.7 12.3 14.7 12.4 14.7 12.6 14.7 12.8 14.7 12.9 14.8 12.9 15 12.9 15.3 13 15.5 13 16 13 16.6 13 16.8 13 16.9 13 17.1 13 17.2 12.9 17.2 12.7 17.3 12.5 17.4 12.4 17.5 12.3 17.6 12.2 17.8 12.2 18 12.1 18.2 12 18.4 12 18.6 12 18.8 12 18.9 12.1 19.2 12.1 19.4 12.2 19.5 12.4 19.6 12.4 19.6 12.7 19.6 12.8 19.6 13 19.6 13.3 19.5 13.5 19.4 13.5 19.2 13.7 19.1 13.7 18.8 13.8 18.5 13.8 18.3 13.8 18.2 13.8 17.6 13.8 17.3 13.9 17.1 13.9 16.9 13.9 16.6 14.1 16.4 14.1 16.2 14.2 16 14.3 15.7 14.5 15.6 14.6 15.4 14.8 15.2 14.9 15 15.1 14.9 15.3 14.8 15.5 14.8 15.6 14.7 15.8 14.7 16 14.6 16.2 14.5 16.6 14.5 17 14.5 17.2 14.5 17.9 14.5 18.1"/>
    </g>
  </g>
</svg>
