<svg id="Layer_1" data-name="Layer 1" xmlns="http://www.w3.org/2000/svg" xmlns:xlink="http://www.w3.org/1999/xlink" width="70" height="70" viewBox="0 0 70 70">
  <defs>
    <style>
      .cls-1 {
        fill: #f6f6f6;
      }

      .cls-2 {
        fill: url(#linear-gradient);
      }

      .cls-3 {
        fill: url(#linear-gradient-2);
      }

      .cls-4 {
        fill: url(#linear-gradient-3);
      }

      .cls-5 {
        fill: url(#linear-gradient-4);
      }

      .cls-6 {
        fill: url(#linear-gradient-5);
      }

      .cls-7 {
        fill: url(#linear-gradient-6);
      }

      .cls-8 {
        fill: url(#linear-gradient-7);
      }
    </style>
    <linearGradient id="linear-gradient" x1="60.07" y1="79.87" x2="16.29" y2="-8.94" gradientUnits="userSpaceOnUse">
      <stop offset="0" stop-color="#75c9b9"/>
      <stop offset="1" stop-color="#72bde5"/>
    </linearGradient>
    <linearGradient id="linear-gradient-2" x1="60.56" y1="79.62" x2="16.78" y2="-9.19" xlink:href="#linear-gradient"/>
    <linearGradient id="linear-gradient-3" x1="61.26" y1="79.28" x2="17.48" y2="-9.53" gradientTransform="translate(46.5 -17.9) rotate(49.6)" xlink:href="#linear-gradient"/>
    <linearGradient id="linear-gradient-4" x1="54.5" y1="82.61" x2="10.72" y2="-6.2" xlink:href="#linear-gradient"/>
    <linearGradient id="linear-gradient-5" x1="43.67" y1="87.95" x2="-0.11" y2="-0.86" xlink:href="#linear-gradient"/>
    <linearGradient id="linear-gradient-6" x1="49.16" y1="85.24" x2="5.38" y2="-3.57" xlink:href="#linear-gradient"/>
    <linearGradient id="linear-gradient-7" x1="52.06" y1="83.82" x2="8.28" y2="-4.99" xlink:href="#linear-gradient"/>
  </defs>
  <title>icon_PC0</title>
  <path id="Rectangle" class="cls-1" d="M3,0H67a2.9,2.9,0,0,1,3,3V67a2.9,2.9,0,0,1-3,3H3a2.9,2.9,0,0,1-3-3V3A2.9,2.9,0,0,1,3,0Z"/>
  <g>
    <g>
      <path class="cls-2" d="M49.5,49.9l-2.1-5.1c-.1-.3-.3-.4-.6-.5l-2.5-.7v-.4l1.8-1.5a1,1,0,0,0,.4-.5l2.1-5.1a.4.4,0,0,0-.7-.3l-2.1,5.1c-.1,0-.1.1-.2.2l-1.7,1.4-.5-.3v-.9l.6-.5a3.1,3.1,0,0,0,.7-2.2,2.2,2.2,0,0,0-.2-1.2L45.7,36a1.1,1.1,0,0,0,.3-.8V30.1c0-.1.1-.2.1-.4l.4-1.1a.5.5,0,0,0-.3-.5.4.4,0,0,0-.5.3l-.4,1.1a1.3,1.3,0,0,0-.1.6v5.1a.4.4,0,0,1-.1.3l-1,1.1c0-.1-.1-.2-.1-.3h-.1a3.1,3.1,0,0,0-.6-2.4.6.6,0,0,0-.6,0,.4.4,0,0,0,0,.6,1.6,1.6,0,0,1,.4,1.3,2.6,2.6,0,0,0-2,0,1.6,1.6,0,0,1,.4-1.3.4.4,0,0,0,0-.6.6.6,0,0,0-.6,0,3.1,3.1,0,0,0-.6,2.4h0c-.1.1-.2.2-.2.3l-1-1.1c0-.1-.1-.2-.1-.3V30.1a1.3,1.3,0,0,0-.1-.6l-.3-1.1a.5.5,0,0,0-.6-.3.4.4,0,0,0-.2.5l.3,1.1a.8.8,0,0,1,.1.4v5.1a1.1,1.1,0,0,0,.3.8l1.2,1.4a3.7,3.7,0,0,0-.2,1.2,3.1,3.1,0,0,0,.8,2.2,1.2,1.2,0,0,0,.5.5v.9l-.4.3-1.8-1.4a.3.3,0,0,1-.1-.2l-2.2-5.1c0-.2-.3-.3-.5-.2a.4.4,0,0,0-.2.5l2.1,5.1a1,1,0,0,0,.4.5L40,43.2v.2c0,.1,0,.1.1.2l-2.6.7c-.3.1-.5.2-.6.5l-2.1,5.1a.4.4,0,0,0,.2.5h.2l.4-.2,2.1-5.1h0l2.5-.7-.7,1.4-1.6,1.4a1.4,1.4,0,0,0-.5,1v5.5a.8.8,0,0,1-.1.4l-.7,1.4a.5.5,0,0,0,.2.6h.1a.5.5,0,0,0,.4-.2l.7-1.5a1,1,0,0,0,.2-.7V48.2c0-.1.1-.2.2-.3l.6-.6a12.4,12.4,0,0,0-.3,2.7,6.6,6.6,0,0,0,1,3.6,2.7,2.7,0,0,0,5,0,5.9,5.9,0,0,0,1-3.6,12.4,12.4,0,0,0-.3-2.7l.6.6c.1.1.2.2.2.3v5.5a1.9,1.9,0,0,0,.2.7l.7,1.5a.5.5,0,0,0,.4.2h.2c.2-.1.2-.4.1-.6L47,54.1a.8.8,0,0,1-.1-.4V48.2a1.8,1.8,0,0,0-.4-1l-1.7-1.4a6.1,6.1,0,0,0-.7-1.4l2.5.7h0l2.2,5.1.3.2h.2A.4.4,0,0,0,49.5,49.9Zm-5.3,2.8H40a2.9,2.9,0,0,1-.3-1h4.9A3,3,0,0,1,44.2,52.7Zm-4.7-1.8c0-.3-.1-.6-.1-.9h5.4a2.8,2.8,0,0,1-.1.9Zm4.4-2.7h.7a3.4,3.4,0,0,1,.1,1H39.5a3.4,3.4,0,0,1,.1-1h2.5a.4.4,0,0,0,0-.8H39.8a5,5,0,0,1,.4-1.3,5.8,5.8,0,0,0,1.9.4,5.8,5.8,0,0,0,1.9-.4c.2.4.3.8.5,1.3h-.6a.4.4,0,1,0,0,.8Zm-3.6-9.6c0-1.4.7-2.2,1.8-2.2s1.8.8,1.8,2.2-.7,2.2-1.8,2.2S40.3,40,40.3,38.6Zm1.8,3h.5v.5h-1v-.5ZM41.2,43H43c.2,0,.5.2.5.4a.5.5,0,0,1-.5.5.4.4,0,1,0,0,.8h.3l.4.6a4.2,4.2,0,0,1-1.6.4,4.7,4.7,0,0,1-1.6-.4l.4-.6h.3a.4.4,0,0,0,0-.8.5.5,0,0,1-.4-.5A.4.4,0,0,1,41.2,43Zm.9,11.4a2.1,2.1,0,0,1-1.6-.9h3.2A1.9,1.9,0,0,1,42.1,54.4Z"/>
      <path class="cls-3" d="M42,25.4A16.7,16.7,0,1,1,25.4,42,16.6,16.6,0,0,1,42,25.4m0-1.3A18,18,0,1,0,60,42,17.9,17.9,0,0,0,42,24.1Z"/>
      <rect class="cls-4" x="41.9" y="24" width="1.3" height="34.63" transform="translate(-16.5 47) rotate(-49.6)"/>
    </g>
    <g>
      <polygon class="cls-5" points="23.1 26.8 23.1 27 23.1 27.1 23.1 27.3 23.1 27.3 23.2 27.4 23.2 27.4 23.6 27.4 23.8 27.4 24.2 27.4 24.4 27.4 24.7 27.4 24.8 27.4 24.8 27.3 24.8 27.2 24.8 27.1 24.8 27 24.8 26.8 24.8 26.7 24.9 26.2 24.9 25.6 24.9 25.5 24.9 25.5 25 25.5 25 25.6 25.1 25.7 25.4 26 25.4 26.1 25.8 26.4 25.8 26.5 26.1 26.9 26.2 27 26.5 27.3 26.6 27.4 26.6 27.4 27.2 27.4 27.3 27.4 27.8 27.4 28 27.4 28.4 27.4 28.5 27.4 28.6 27.4 28.6 27.3 28.6 27.3 28.6 27.2 28.2 26.8 28.2 26.7 27.8 26.4 27.7 26.3 27.4 25.9 27.3 25.8 27 25.4 26.9 25.3 26.5 24.9 26.4 24.8 26.1 24.4 26 24.3 26 24.3 26.1 24.2 26.1 24.2 26.2 24.1 26.4 23.9 26.5 23.8 26.8 23.4 26.9 23.3 27.2 22.9 27.3 22.8 27.6 22.5 27.7 22.4 28 22 28.1 21.9 28.4 21.5 28.5 21.5 28.5 21.4 28.4 21.4 28.4 21.4 28.3 21.4 28 21.4 27.9 21.4 27.5 21.4 27 21.3 26.9 21.3 26.5 21.4 26.4 21.4 26.4 21.4 26.1 21.8 26 21.9 25.7 22.2 25.3 22.8 25 23.1 24.9 23.2 24.9 23.2 24.8 23.1 24.8 22.6 24.8 22.5 24.8 22.1 24.8 21.9 24.8 21.7 24.9 21.6 24.8 21.5 24.8 21.4 24.8 21.4 24.7 21.4 24.3 21.3 24.2 21.3 23.8 21.4 23.6 21.4 23.4 21.4 23.3 21.3 23.2 21.4 23.2 21.4 23.1 21.5 23.1 22 23.1 22.1 23.1 23.1 23.1 23.3 23.1 23.7 23.1 23.9 23.1 24.3 23.1 24.9 23.1 25 23.1 25.5 23.1 25.6 23.1 26.2 23.1 26.6 23.1 26.8"/>
      <g>
        <path class="cls-6" d="M10.1,27.3h4.6l.2-.2h.3v-.2h0V26h0v-.4h0v-.2h0V25h0v-.2h0l-.2-.2h-.2l.2-.2h.2v-.4h0v-.3h-.1v-.2h-.2l-.2-.2H10V22h0v1.6h0v.5h0v1.2h0V26h0v.5h0v.2h.1Zm3.5-2.1h-2v-.4h0v-.2h1.9Zm-2-2.1v-.2h1.9v.2h-2Z"/>
        <polygon class="cls-7" points="18.1 22.2 18.1 22.1 18.1 21.7 18.1 21.6 18.1 21.5 18.1 21.4 18 21.4 17.9 21.3 17.8 21.3 17.6 21.3 17.3 21.4 17.2 21.4 16.8 21.3 16.7 21.3 16.6 21.3 16.4 21.4 16.4 21.4 16.3 21.5 16.3 21.7 16.4 22 16.4 22.1 16.4 22.6 16.4 22.7 16.4 23.1 16.4 23.3 16.4 23.9 16.4 24.3 16.4 24.4 16.4 24.9 16.4 25 16.4 25.4 16.4 25.6 16.4 26 16.4 26.7 16.3 27 16.3 27.1 16.4 27.2 16.4 27.3 16.4 27.3 16.5 27.4 16.6 27.4 16.6 27.4 16.8 27.4 17.2 27.4 17.3 27.4 17.6 27.4 17.8 27.4 17.9 27.4 18 27.4 18.1 27.3 18.1 27.2 18.1 27 18.1 26.6 18.1 26.5 18.1 26 18.1 25.8 18.1 25.3 18.1 25.2 18.1 25.1 18.2 25.1 18.3 25.1 18.8 25.1 19.4 25.1 19.6 25.1 19.9 25.1 20.1 25.1 20.2 25.1 20.2 25.2 20.2 25.3 20.2 25.8 20.2 26 20.2 26.5 20.2 26.6 20.3 27.2 20.3 27.3 20.3 27.4 20.4 27.4 20.6 27.4 21 27.4 21.2 27.4 21.6 27.4 21.7 27.4 21.8 27.4 21.9 27.3 21.9 27.2 21.9 27.1 21.9 26.9 21.9 26.7 21.9 26.6 21.9 26 21.9 25.6 21.9 25.4 21.9 25 21.9 24.9 21.9 24.4 21.9 24.3 22 23.9 22 23.7 21.9 23.3 21.9 23.1 21.9 22.7 21.9 22.6 21.9 22.1 21.9 22 21.9 21.7 21.9 21.5 21.9 21.4 21.8 21.3 21.7 21.3 21.7 21.3 21.5 21.3 21.2 21.3 21 21.3 20.6 21.3 20.4 21.3 20.3 21.3 20.3 21.4 20.2 21.5 20.3 22.1 20.3 22.2 20.3 22.8 20.3 22.9 20.2 23.4 20.2 23.5 20.2 23.6 20.1 23.6 20 23.7 19.9 23.7 19.4 23.6 18.9 23.6 18.8 23.6 18.4 23.7 18.3 23.7 18.2 23.7 18.1 23.6 18.1 23.6 18.1 23.5 18.1 23.4 18.1 22.8 18.1 22.2"/>
        <polygon class="cls-8" points="14.3 17.3 14.4 17.6 14.5 17.7 14.6 18 14.7 18.2 14.8 18.4 14.9 18.5 15.1 18.7 15.5 19 15.6 19.1 15.9 19.3 16.1 19.4 16.3 19.4 16.4 19.5 16.7 19.6 16.9 19.6 17.1 19.6 17.3 19.7 17.8 19.7 18.5 19.7 18.7 19.7 19 19.7 19.2 19.7 19.4 19.6 19.6 19.6 19.9 19.5 20.1 19.5 20.3 19.4 20.5 19.3 20.7 19.2 20.9 19.1 21.2 18.9 21.4 18.8 21.5 18.7 21.6 18.5 21.7 18.4 21.8 18.3 22 18 22 17.9 22.1 17.7 22.1 17.5 22.2 17.3 22.2 17 22.2 16.8 22.2 16.6 22.2 16.4 22.1 16.2 22.1 16 21.9 15.7 21.8 15.6 21.7 15.5 21.6 15.3 21.4 15.2 21.1 15 21.1 14.9 21.1 14.8 21.2 14.7 21.4 14.5 21.5 14.4 21.7 14.1 21.8 13.8 21.9 13.6 21.9 13.6 22 13.4 22 13.3 22 13.1 22 12.8 21.9 12.7 21.9 12.4 21.8 12.2 21.7 12 21.6 11.8 21.5 11.7 21.5 11.6 21.3 11.4 21.2 11.3 21 11.1 20.8 11 20.6 10.9 20.5 10.8 20.3 10.7 20 10.6 19.8 10.6 19.6 10.5 19.4 10.5 19.1 10.4 18.5 10.3 18.3 10.3 18.1 10.3 17.8 10.3 17.6 10.3 17.2 10.4 17 10.4 16.8 10.5 16.5 10.5 16.3 10.6 16.1 10.7 15.9 10.8 15.7 10.9 15.6 11 15.4 11.1 15.2 11.3 15 11.4 14.9 11.6 14.8 11.8 14.7 12 14.6 12.2 14.5 12.6 14.4 12.8 14.4 13 14.4 13.2 14.4 13.3 14.5 13.3 14.7 13.3 14.9 13.3 15.1 13.4 15.5 13.3 15.7 13.3 16.2 13.4 16.5 13.4 16.7 13.3 16.8 13.3 16.9 13.1 17 12.9 17 12.9 17.2 12.7 17.3 12.7 17.4 12.6 17.5 12.6 17.7 12.5 18.1 12.5 18.2 12.5 18.5 12.5 18.7 12.5 18.9 12.6 19.1 12.6 19.3 12.8 19.3 12.9 19.4 13.1 19.4 13.3 19.4 13.4 19.3 13.6 19.3 13.6 19.1 13.8 19 13.8 18.8 13.9 18.7 14 18.5 14 18.3 14.1 18.1 14.1 18 14.1 17.8 14 17.4 14 17.2 14 16.8 14 16.7 14.1 16.6 14.2 16.6 14.3 16.6 14.6 16.6 14.8 16.6 15 16.6 15.2 16.6 15.4 16.6 15.6 16.7 15.7 16.8 15.8 16.9 15.9 17.2 15.9 17.5 15.8 17.9 15.8 18.2 15.8 18.4 15.8 18.6 15.9 18.8 15.9 19 16 19 16 19.3 16.2 19.4 16.3 19.4 16.4 19.5 16.6 19.5 16.7 19.5 16.9 19.5 17 19.4 17.1 19.4 17.2 19.3 17.4 19.2 17.4 19 17.5 18.9 17.6 18.7 17.6 18.4 17.7 18.2 17.7 18 17.6 17.7 17.6 17.5 17.5 17.4 17.5 17.3 17.4 17.2 17.3 17 17.2 17 17.1 16.9 16.9 16.8 16.8 16.8 16.7 16.7 16.6 16.5 16.5 16.2 16.5 15.6 16.6 15.4 16.6 15 16.6 14.5 16.6 14.3 16.6 14.2 16.7 14.2 16.8 14.3 17.1 14.3 17.3"/>
      </g>
    </g>
  </g>
</svg>
