<svg id="Layer_1" data-name="Layer 1" xmlns="http://www.w3.org/2000/svg" xmlns:xlink="http://www.w3.org/1999/xlink" width="374.5" height="89.4" viewBox="0 0 374.5 89.4">
  <defs>
    <style>
      .cls-1 {
        fill: url(#linear-gradient);
      }

      .cls-2, .cls-4, .cls-5 {
        fill: #fff;
      }

      .cls-2 {
        opacity: 0.3;
      }

      .cls-2, .cls-3, .cls-4 {
        isolation: isolate;
      }

      .cls-4 {
        font-size: 16px;
        font-family: Montserrat-Medium, Montserrat;
      }
    </style>
    <linearGradient id="linear-gradient" x1="405.55" y1="126.36" x2="21.53" y2="-32.27" gradientUnits="userSpaceOnUse">
      <stop offset="0" stop-color="#75c9b9"/>
      <stop offset="1" stop-color="#72bde5"/>
    </linearGradient>
  </defs>
  <title>banner_housekeeping_H0</title>
  <g id="Page-1">
    <g id="UI---Screen-7---v2">
      <g id="Group-2">
        <path id="Path-4" class="cls-1" d="M0,72.4C71,74,112,68.2,210.5,71c58.9,1.7,113.3,7.8,164,18.4V0H0Z"/>
        <rect id="Rectangle-Copy-2" class="cls-2" x="23.5" y="22" width="47" height="7" rx="3.3" ry="3.3"/>
        <path id="Rectangle-Copy-4" class="cls-2" d="M189.8,29h40.5a3.2,3.2,0,0,1,3.2,3.2v.5a3.3,3.3,0,0,1-3.2,3.3H189.8a3.2,3.2,0,0,1-3.2-3.2v-.5a3.2,3.2,0,0,1,3.2-3.2Z"/>
        <rect id="Rectangle-Copy-3" class="cls-2" x="64.5" y="35" width="47" height="7" rx="3.3" ry="3.3"/>
        <rect id="Rectangle-Copy-5" class="cls-2" x="233.5" y="42" width="47" height="7" rx="3.3" ry="3.3"/>
        <g id="sweep">
          <g id="_" data-name="+" class="cls-3">
            <text class="cls-4" transform="translate(353.7 26)">+</text>
          </g>
          <g id="_-copy" data-name="+-copy" class="cls-3">
            <text class="cls-4" transform="translate(336.5 14)">+</text>
          </g>
        </g>
      </g>
    </g>
  </g>
  <g>
    <path class="cls-5" d="M311.2,30.9h0v.2h4.4l.2-.2h.1v-.2h0v-.2h0v-.2h-.2v-.2h0v-.2h-.1v-.2h-4.6v.4h0v.4h0v.4h0v.4h0v.4h0v.8h0v.2h0v.7Zm3.3-1.4h-1.8v-.2h0v-.2h1.8Zm-1.8-1.8v-.2h0Z"/>
    <polygon class="cls-5" points="321.7 28.9 321.7 28.7 321.8 28.4 321.8 28.2 321.7 27.8 321.7 27.7 321.7 27.3 321.7 27.2 321.7 26.8 321.7 26.7 321.8 26.4 321.8 26.3 321.7 26.2 321.7 26.1 321.6 26.1 321.5 26.1 321.4 26.1 321.1 26.1 320.9 26.1 320.5 26.1 320.4 26.1 320.3 26.1 320.3 26.2 320.3 26.3 320.3 26.8 320.3 26.9 320.3 27.4 320.3 27.5 320.3 28 320.2 28.1 320.2 28.1 320.1 28.2 320.1 28.2 320 28.2 319.5 28.2 319.1 28.1 319 28.1 318.7 28.2 318.6 28.2 318.5 28.2 318.4 28.2 318.4 28.1 318.3 28.1 318.3 28 318.3 27.4 318.3 26.9 318.4 26.8 318.4 26.5 318.4 26.4 318.4 26.3 318.3 26.2 318.3 26.2 318.2 26.1 318.1 26.1 318 26.1 317.7 26.2 317.5 26.2 317.2 26.1 317.1 26.1 317 26.1 316.9 26.2 316.9 26.2 316.8 26.3 316.8 26.5 316.9 26.7 316.9 26.8 316.9 27.2 316.9 27.3 316.8 27.7 316.8 27.8 316.8 28.4 316.8 28.7 316.8 28.9 316.9 29.2 316.9 29.4 316.9 29.8 316.9 29.9 316.8 30.3 316.8 30.9 316.8 31.1 316.8 31.2 316.8 31.3 316.9 31.4 316.9 31.4 316.9 31.4 317 31.4 317.1 31.4 317.2 31.4 317.5 31.4 317.7 31.4 318 31.5 318.1 31.5 318.2 31.5 318.3 31.4 318.4 31.4 318.4 31.3 318.4 31.1 318.4 30.8 318.3 30.7 318.4 30.2 318.4 30.1 318.4 29.6 318.4 29.5 318.4 29.4 318.5 29.4 318.6 29.4 319 29.4 319.5 29.4 319.7 29.4 320 29.4 320.1 29.4 320.2 29.4 320.2 29.5 320.2 29.6 320.3 30.1 320.3 30.2 320.2 30.7 320.2 30.8 320.3 31.3 320.3 31.4 320.3 31.4 320.4 31.5 320.6 31.5 320.9 31.4 321.1 31.4 321.5 31.4 321.6 31.4 321.7 31.4 321.7 31.4 321.7 31.3 321.7 31.2 321.7 31.1 321.7 30.9 321.7 30.8 321.7 30.3 321.7 29.9 321.7 29.8 321.7 29.4 321.7 29.2 321.7 28.9"/>
    <polygon class="cls-5" points="324.3 30.4 324.3 29.9 324.3 29.8 324.4 29.8 324.4 29.8 324.4 29.9 324.5 30 324.8 30.2 324.8 30.3 325.1 30.6 325.2 30.7 325.4 31 325.5 31.1 325.7 31.4 325.8 31.4 325.9 31.5 326.3 31.4 326.5 31.4 326.9 31.4 327 31.4 327.4 31.5 327.5 31.5 327.6 31.4 327.6 31.4 327.6 31.4 327.6 31.3 327.3 31 327.2 30.9 326.9 30.6 326.8 30.5 326.5 30.1 326.4 30 326.2 29.7 326.1 29.6 325.8 29.3 325.7 29.2 325.4 28.8 325.4 28.8 325.3 28.7 325.4 28.7 325.4 28.6 325.5 28.5 325.7 28.4 325.8 28.3 326 27.9 326.1 27.9 326.4 27.5 326.4 27.4 326.7 27.1 326.8 27 327.1 26.7 327.1 26.6 327.4 26.3 327.5 26.2 327.5 26.2 327.5 26.2 327.4 26.2 327.3 26.2 327.1 26.2 326.9 26.2 326.7 26.2 326.2 26.1 326.1 26.1 325.8 26.2 325.7 26.2 325.6 26.2 325.4 26.5 325.3 26.6 325.1 26.9 324.7 27.4 324.4 27.7 324.4 27.8 324.3 27.8 324.3 27.7 324.3 27.3 324.3 27.2 324.3 26.8 324.3 26.7 324.3 26.4 324.3 26.3 324.3 26.3 324.3 26.2 324.2 26.2 324.2 26.2 323.8 26.1 323.7 26.1 323.4 26.2 323.2 26.2 323 26.2 322.9 26.1 322.8 26.2 322.8 26.2 322.8 26.3 322.8 26.7 322.8 26.8 322.8 27.7 322.8 27.8 322.8 28.2 322.8 28.4 322.8 28.7 322.8 29.3 322.8 29.4 322.8 29.8 322.8 29.9 322.8 30.4 322.8 30.8 322.8 30.9 322.8 31.1 322.8 31.2 322.8 31.3 322.8 31.4 322.8 31.4 322.9 31.5 323.2 31.4 323.4 31.4 323.7 31.5 323.9 31.5 324.2 31.4 324.2 31.4 324.3 31.4 324.3 31.3 324.3 31.2 324.3 31.1 324.3 30.9 324.3 30.8 324.3 30.4"/>
    <path class="cls-5" d="M322,23.2h.1v-.6h0v-.5h-.9V18.6h0V16.7H319l-.4.4h-.2v.2l-.2.2H318l-.4.4-.2.2-.3.4v.2l-.5.4h-.1l-.4.5h-.1l-.4.4v.2l-.4.5h-.1V23h4.1v1h2.1v-.9h.8Zm-2.9-2.7v.6h0v.2h-1.5l.4-.4h.1l.3-.4.2-.2.3-.3h.3Z"/>
    <path class="cls-5" d="M360,42h-.7a3.4,3.4,0,0,0-.9-1.9,3.2,3.2,0,0,0-1.7-.9,3.8,3.8,0,0,0-.9-1.5,4.2,4.2,0,0,0-3-1.2h-.4a4.2,4.2,0,0,0-4-2.8,4.3,4.3,0,0,0-3.7,2.3,3.1,3.1,0,0,0-2.9-1.8,3.2,3.2,0,0,0-3.3,3.2,3.4,3.4,0,0,0-2.5,2.5h-3.4V33.7a.7.7,0,0,0-.7-.8.7.7,0,0,0-.8.8V54.5h-.4V24.2h.4v6.1a.7.7,0,0,0,.8.7.7.7,0,0,0,.7-.7V17.2a1.3,1.3,0,0,0-1.2-1.3h-.9a1.3,1.3,0,0,0-1.3,1.3V39.9h-.5a1.2,1.2,0,0,0-1.2,1.2v4a1.2,1.2,0,0,0,1.2,1.2h.5v8.2h-.1a1.2,1.2,0,0,0-1.2,1.2v2.6h-2.6a1.2,1.2,0,0,0-1.3,1.2v1.4h-2a2.1,2.1,0,0,0-2.2,2.1,2.2,2.2,0,0,0,1,1.8l-.3.3a.7.7,0,0,0,0,1c.1.2.3.2.5.2s.4,0,.5-.2l1-.9h.4a.6.6,0,0,0,.1.9c.1.2.3.2.5.2s.4,0,.5-.2l1-.9h.4a.6.6,0,0,0,.1.9c.1.2.3.2.5.2s.4,0,.5-.2l1-.9h.4a.6.6,0,0,0,.1.9c.1.2.3.2.5.2s.4,0,.5-.2l1-.9h.3v.4a.8.8,0,0,0,.8.7.7.7,0,0,0,.7-.7v-.4h.4l.9.9a.7.7,0,0,0,.6.2.6.6,0,0,0,.5-.2.7.7,0,0,0,.1-.9h.4l.9.9a.7.7,0,0,0,.6.2.6.6,0,0,0,.5-.2.7.7,0,0,0,.1-.9h.4l.9.9a.7.7,0,0,0,.6.2.6.6,0,0,0,.5-.2.7.7,0,0,0,.1-.9h.4l.9.9a.7.7,0,0,0,.6.2.6.6,0,0,0,.5-.2.7.7,0,0,0,0-1l-.4-.5a.9.9,0,0,0,.4-.6h5.5a.7.7,0,0,0,.7-.7.8.8,0,0,0-.7-.8h-5.3a2.1,2.1,0,0,0-2.1-1.6h-2V59.5a1.2,1.2,0,0,0-1.2-1.2H334V55.7a1.3,1.3,0,0,0-1.3-1.2h-.1V46.3h25l-1.9,10.2-9.2-4.9a3.9,3.9,0,0,0-3.9-3.7,3.9,3.9,0,1,0,0,7.8,4.6,4.6,0,0,0,2-.5l10.3,5.5-.3,1.5c0,.2-.2.3-.4.3h-3.1a.8.8,0,0,0-.7.8.7.7,0,0,0,.7.7h3.1a2,2,0,0,0,1.9-1.5l.3-1.5a1.8,1.8,0,0,0,1.5-1,2,2,0,0,0-.8-2.7H357l2.1-11h.9a1.2,1.2,0,0,0,1.2-1.2V43.2A1.2,1.2,0,0,0,360,42ZM330.7,17.4h.4v5.3h-.4ZM329.4,56h3.1v2.3h-3.1ZM329,41.4h.2v1.4H329Zm0,3.4v-.6h.2v.6Zm7.3,14.9v1.2h-.9a.7.7,0,1,0,0,1.4h4.4a.7.7,0,0,1,0,1.4H322a.7.7,0,1,1,0-1.4h9.6a.7.7,0,0,0,0-1.4h-6.1V59.7Zm6.3-5.5a2.5,2.5,0,1,1,0-4.9,2.6,2.6,0,0,1,2.2,1.4l-.9-.4a1.4,1.4,0,0,0-.9-.3,2.1,2.1,0,0,0-1.8,1.1,2,2,0,0,0-.1,1.5,1.7,1.7,0,0,0,1,1.2l.7.4Zm14,5.1a.5.5,0,0,1-.5.3h-.2l-13.1-7-.3-.3v-.4a.5.5,0,0,1,.5-.3h.3l13.1,7A.4.4,0,0,1,356.6,59.3Zm-3.8-21.4a2.7,2.7,0,0,1,1.9.8,2.4,2.4,0,0,1,.7,1.3.9.9,0,0,0,.7.6,1.7,1.7,0,0,1,1.2.5,2,2,0,0,1,.5.9h-3a2.8,2.8,0,0,0-2.6-2h-.4a3.5,3.5,0,0,0-.8-1.3A2.5,2.5,0,0,1,352.8,37.9Zm-4.4-2.7a2.8,2.8,0,0,1,2.6,1.7l-1.1.8-.2.2h-.8a2.7,2.7,0,0,0-1.7.6,3.3,3.3,0,0,0-1.4-1.2A2.8,2.8,0,0,1,348.4,35.2ZM339,38.8h.3a1.6,1.6,0,0,1,1.1.5.7.7,0,0,0,1-1.1,3.6,3.6,0,0,0-1.5-.8,1.9,1.9,0,0,1,1.9-1.8,1.9,1.9,0,0,1,1.8,1.9v.2c-.1.2,0,.4.2.6l.6.2h.2a1.6,1.6,0,0,1,1.6,1.1,5,5,0,0,0-.2,1.2.7.7,0,0,0,.7.7.7.7,0,0,0,.8-.7,1.9,1.9,0,0,1,.2-.8h.1a1.4,1.4,0,0,1,1.1-.6,1.5,1.5,0,0,1,1.5,1.5.7.7,0,0,0,.7.7h1.1a1.4,1.4,0,0,1,1,.5H342.9v-.9a1.2,1.2,0,0,0-1.2-1.2h-4.2A1.9,1.9,0,0,1,339,38.8Zm-6.4,2.6h8.8v1.4h-8.8Zm27.2,3.4H332.6v-.6h9.1a1.1,1.1,0,0,0,1.1-.8h17Z"/>
  </g>
</svg>
