<svg id="Layer_1" data-name="Layer 1" xmlns="http://www.w3.org/2000/svg" xmlns:xlink="http://www.w3.org/1999/xlink" width="374.5" height="89.4" viewBox="0 0 374.5 89.4">
  <defs>
    <style>
      .cls-1 {
        fill: url(#linear-gradient);
      }

      .cls-2, .cls-4, .cls-5 {
        fill: #fff;
      }

      .cls-2 {
        opacity: 0.3;
      }

      .cls-2, .cls-3, .cls-4 {
        isolation: isolate;
      }

      .cls-4 {
        font-size: 16px;
        font-family: Montserrat-Medium, Montserrat;
      }
    </style>
    <linearGradient id="linear-gradient" x1="405.55" y1="126.36" x2="21.53" y2="-32.27" gradientUnits="userSpaceOnUse">
      <stop offset="0" stop-color="#75c9b9"/>
      <stop offset="1" stop-color="#72bde5"/>
    </linearGradient>
  </defs>
  <title>banner_PC001</title>
  <g id="Page-1">
    <g id="UI---Screen-7---v2">
      <g id="Group-2">
        <path id="Path-4" class="cls-1" d="M0,72.4C71,74,112,68.2,210.5,71c58.9,1.7,113.3,7.8,164,18.4V0H0Z"/>
        <rect id="Rectangle-Copy-2" class="cls-2" x="23.5" y="22" width="47" height="7" rx="3.3" ry="3.3"/>
        <rect id="Rectangle-Copy-4" class="cls-2" x="186.5" y="29" width="47" height="7" rx="3.3" ry="3.3"/>
        <rect id="Rectangle-Copy-3" class="cls-2" x="64.5" y="35" width="47" height="7" rx="3.3" ry="3.3"/>
        <rect id="Rectangle-Copy-5" class="cls-2" x="233.5" y="42" width="47" height="7" rx="3.3" ry="3.3"/>
        <g id="sweep">
          <g id="_" data-name="+" class="cls-3">
            <text class="cls-4" transform="translate(358 29.8)">+</text>
          </g>
          <g id="_-copy" data-name="+-copy" class="cls-3">
            <text class="cls-4" transform="translate(336.5 17.8)">+</text>
          </g>
        </g>
      </g>
    </g>
  </g>
  <g>
    <g>
      <path class="cls-5" d="M342.5,47l-2.1-5a.6.6,0,0,0-.6-.5l-2.5-.8h0c0-.1,0-.2-.1-.2l1.9-1.5.4-.5,2.1-5.1c.1-.2,0-.5-.2-.5a.4.4,0,0,0-.5.2l-2.1,5-.2.2-1.8,1.4a.5.5,0,0,0-.4-.2v-.9l.6-.5a3.6,3.6,0,0,0,.7-2.2,5.1,5.1,0,0,0-.2-1.3l1.2-1.3a1.1,1.1,0,0,0,.3-.8V27.3a.6.6,0,0,1,.1-.4l.3-1.1c.1-.2,0-.5-.2-.5s-.5,0-.5.2l-.4,1.1a2,2,0,0,0-.1.7v5.1a.4.4,0,0,1-.1.3l-1,1a.3.3,0,0,1-.1-.2c-.1,0-.1,0-.1-.1a2.6,2.6,0,0,0-.6-2.3c-.2-.2-.5-.2-.6,0s-.2.4,0,.6a1.5,1.5,0,0,1,.4,1.2l-1-.2-1,.2a1.5,1.5,0,0,1,.4-1.2c.2-.2.2-.5,0-.6s-.4-.2-.6,0a2.6,2.6,0,0,0-.6,2.3c0,.1,0,.1-.1.1a.3.3,0,0,1-.1.2l-1-1a.4.4,0,0,1-.1-.3V27.3a2,2,0,0,0-.1-.7l-.4-1.1c0-.2-.3-.3-.5-.2s-.3.3-.3.5l.4,1.1c0,.1.1.3.1.4v5.1a1.1,1.1,0,0,0,.3.8l1.2,1.3a2.7,2.7,0,0,0-.2,1.3,3.1,3.1,0,0,0,.7,2.2l.6.5v.9l-.4.2-1.8-1.4c-.1,0-.1-.1-.2-.2l-2.1-5a.4.4,0,0,0-.5-.2c-.2,0-.3.3-.2.5l2.1,5.1.4.5,1.8,1.5v.2h0l-2.5.8a.6.6,0,0,0-.6.5l-2.1,5a.5.5,0,0,0,.2.6h.2c.1,0,.3-.1.3-.2l2.2-5.1h0l2.5-.8a10.1,10.1,0,0,0-.7,1.5l-1.7,1.4a1.8,1.8,0,0,0-.4,1v5.4c0,.2,0,.3-.1.4l-.7,1.5c-.1.2-.1.5.1.6h.2l.4-.2.7-1.5a1.9,1.9,0,0,0,.2-.8V45.4a.8.8,0,0,1,.2-.4l.6-.5a12.4,12.4,0,0,0-.3,2.7,6.6,6.6,0,0,0,1,3.6,2.8,2.8,0,0,0,5,0,6.6,6.6,0,0,0,1-3.6,12.4,12.4,0,0,0-.3-2.7l.6.5a.8.8,0,0,1,.2.4v5.4a1.1,1.1,0,0,0,.2.8l.7,1.5.4.2h.2c.2-.1.2-.4.1-.6l-.7-1.5c-.1-.1-.1-.2-.1-.4V45.4a1.8,1.8,0,0,0-.4-1L337.8,43a10.1,10.1,0,0,0-.7-1.5l2.5.8h0l2.1,5.1.4.2h.2A.5.5,0,0,0,342.5,47Zm-5.3,2.9H333a3,3,0,0,1-.4-1h4.9A2.9,2.9,0,0,1,337.2,49.9Zm-4.7-1.8a2.8,2.8,0,0,1-.1-.9h5.4c0,.3-.1.6-.1.9Zm4.4-2.7h.7a2.8,2.8,0,0,1,.1.9h-5.2a2.8,2.8,0,0,1,.1-.9h2.5a.4.4,0,1,0,0-.8h-2.4l.5-1.4a4.7,4.7,0,0,0,3.8,0,7.4,7.4,0,0,1,.4,1.4h-.5a.4.4,0,1,0,0,.8Zm-3.6-9.6c0-1.4.7-2.3,1.8-2.3s1.8.9,1.8,2.3-.7,2.2-1.8,2.2S333.3,37.1,333.3,35.8Zm1.8,3h.5v.5h-1v-.5Zm-.9,1.3H336a.5.5,0,0,1,0,1,.4.4,0,0,0,0,.8h.3l.4.6a4.5,4.5,0,0,1-1.6.3,4.1,4.1,0,0,1-1.6-.3l.4-.6h.3a.4.4,0,0,0,0-.8.5.5,0,0,1,0-1Zm.9,11.5a1.9,1.9,0,0,1-1.6-.9h3.2A1.9,1.9,0,0,1,335.1,51.6Z"/>
      <path class="cls-5" d="M335,22.5a16.7,16.7,0,1,1-16.7,16.7A16.7,16.7,0,0,1,335,22.5m0-1.2a17.9,17.9,0,1,0,18,17.9,17.9,17.9,0,0,0-18-17.9Z"/>
      <rect class="cls-5" x="334.9" y="21.2" width="1.3" height="34.67" transform="translate(88.8 269.2) rotate(-49.6)"/>
    </g>
    <g>
      <path class="cls-5" d="M307.2,23.9h.8v-.2h.1V23h.1v-.2h0v-.2h0V22h-.1v-.2h-.1v-.2h0v-.2h0v-.2h0v-.4h-.1v-.2H303v.5h0v.5h0V21h0v1.1h0v1h0v.2h4.2ZM304.6,20v-.4h1.9V20h-1.9V20Zm2.2,2.3h-.1v.2h-2v-.2h0v-.2h0v-.2h2.1v.2Z"/>
      <polygon class="cls-5" points="313.6 18 313.5 18 313.4 18 313.3 18.1 313.3 18.3 313.3 18.8 313.3 18.9 313.3 19.5 313.3 19.6 313.3 20.2 313.3 20.3 313.3 20.3 313.2 20.4 313.1 20.4 313 20.4 312.5 20.3 311.9 20.3 311.8 20.3 311.5 20.4 311.4 20.4 311.3 20.4 311.2 20.4 311.1 20.3 311.1 20.3 311.1 20.2 311.1 19.5 311.1 18.9 311.1 18.8 311.1 18.4 311.1 18.3 311.1 18.2 311.1 18.1 311 18.1 310.9 18 310.8 18 310.7 18 310.3 18.1 310.2 18.1 309.8 18 309.7 18 309.6 18.1 309.5 18.1 309.4 18.1 309.4 18.2 309.4 18.4 309.4 18.7 309.4 18.8 309.4 19.3 309.4 19.4 309.4 19.9 309.4 20 309.4 20.6 309.4 21 309.4 21.2 309.4 21.6 309.4 21.7 309.4 22.2 309.4 22.3 309.4 22.8 309.4 23.5 309.4 23.7 309.4 23.9 309.4 23.9 309.4 24 309.4 24.1 309.5 24.1 309.6 24.1 309.7 24.1 309.8 24.1 310.2 24.1 310.3 24.1 310.7 24.1 310.8 24.1 310.9 24.1 311 24.1 311.1 24 311.2 23.9 311.2 23.7 311.1 23.4 311.1 23.2 311.1 22.7 311.1 22.6 311.1 22 311.1 21.9 311.2 21.8 311.2 21.8 311.4 21.8 311.8 21.8 312.5 21.8 312.6 21.8 313 21.8 313.2 21.8 313.2 21.8 313.3 21.9 313.3 22 313.3 22.6 313.3 22.7 313.3 23.2 313.3 23.4 313.3 23.9 313.3 24 313.4 24.1 313.5 24.1 313.6 24.1 314.1 24.1 314.2 24.1 314.7 24.1 314.8 24.1 314.9 24.1 315 24 315 23.9 315 23.8 315 23.7 315 23.5 315 23.3 315 22.8 315 22.3 315 22.2 315 21.7 315 21.6 315 21.2 315 21 315 20.6 315 20.4 315 20 315 19.9 315 19.4 315 19.3 315 18.8 315 18.7 315 18.4 315 18.2 315 18.1 314.9 18.1 314.8 18 314.7 18 314.6 18 314.2 18.1 314.1 18.1 313.6 18"/>
      <polygon class="cls-5" points="316.2 23.5 316.2 23.7 316.2 23.9 316.2 24 316.2 24.1 316.2 24.1 316.3 24.1 316.7 24.1 316.9 24.1 317.3 24.1 317.5 24.1 317.8 24.1 317.9 24.1 317.9 24.1 317.9 24 317.9 23.9 317.9 23.7 317.9 23.5 317.9 23.4 317.9 22.9 317.9 22.4 318 22.3 318 22.2 318.1 22.2 318.1 22.3 318.2 22.4 318.5 22.7 318.5 22.8 318.9 23.2 318.9 23.3 319.2 23.6 319.3 23.7 319.6 24.1 319.6 24.1 319.8 24.1 320.3 24.1 320.4 24.1 321 24.1 321.1 24.1 321.5 24.1 321.6 24.1 321.7 24.1 321.7 24.1 321.8 24 321.7 23.9 321.3 23.6 321.3 23.5 320.9 23.1 320.8 23 320.5 22.6 320.4 22.5 320.1 22.1 320 22 319.6 21.6 319.5 21.5 319.2 21.1 319.1 21 319.1 21 319.2 20.9 319.2 20.9 319.3 20.8 319.5 20.6 319.6 20.5 319.9 20.1 320 20 320.3 19.6 320.4 19.5 320.7 19.2 320.8 19.1 321.1 18.7 321.2 18.6 321.5 18.2 321.6 18.2 321.6 18.1 321.6 18.1 321.5 18.1 321.4 18.1 321.1 18.1 321 18.1 320.6 18.1 320.1 18 320 18 319.6 18.1 319.5 18.1 319.5 18.2 319.2 18.5 319.1 18.6 318.8 18.9 318.4 19.5 318.1 19.9 318 19.9 318 19.9 317.9 19.8 317.9 19.4 317.9 19.2 317.9 18.8 317.9 18.6 317.9 18.4 317.9 18.3 317.9 18.2 317.9 18.1 317.9 18.1 317.8 18.1 317.4 18.1 317.3 18.1 316.9 18.1 316.7 18.1 316.5 18.1 316.3 18.1 316.3 18.1 316.2 18.1 316.2 18.2 316.2 18.7 316.2 18.8 316.2 19.8 316.2 20 316.2 20.4 316.2 20.6 316.2 21 316.2 21.6 316.2 21.7 316.2 22.2 316.2 22.3 316.2 22.9 316.2 23.4 316.2 23.5"/>
      <polygon class="cls-5" points="308.9 15.4 308.9 15.8 308.9 16.1 308.9 16.2 308.9 16.3 308.9 16.3 309.1 16.4 309.5 16.4 310.8 16.3 311 16.3 312.7 16.4 312.9 16.4 313.4 16.4 313.8 16.4 313.9 16.4 314 16.3 314.1 16.2 314.1 16.1 314.1 15.8 314.1 15.4 314.1 15.2 314.1 14.8 314.1 14.6 314.1 14.6 314 14.4 314 14.4 313.1 14.4 312.9 14.4 312.8 14.3 312.8 14.3 312.8 14.1 312.7 13.4 312.7 13.1 312.8 12.4 312.8 12.2 312.8 11.4 312.8 11.2 312.8 10.4 312.8 8.4 312.8 8.2 312.8 7.7 312.8 7.6 312.8 7.4 312.8 7.3 312.7 7.2 312.6 7.2 312.4 7.2 312.2 7.2 312 7.3 311.7 7.4 311.5 7.5 310.9 7.7 310.7 7.8 310 8.1 309.8 8.1 309.5 8.2 309.3 8.3 309.2 8.3 309 8.4 309 8.5 308.9 8.5 308.9 8.7 308.9 8.9 308.9 9.3 308.9 9.5 308.9 9.8 308.9 10 308.9 10.1 308.9 10.3 309 10.4 309.1 10.4 309.3 10.4 309.5 10.4 309.7 10.3 310.1 10.2 310.2 10.2 310.3 10.2 310.3 10.3 310.3 10.5 310.3 10.9 310.3 11.2 310.3 11.4 310.3 11.7 310.3 11.9 310.4 12.2 310.4 12.4 310.3 13.2 310.3 13.4 310.3 14.3 310.3 14.4 310.2 14.4 310 14.4 309.7 14.4 309.5 14.4 309 14.4 308.9 14.4 308.8 14.6 308.8 14.6 308.8 14.8 308.9 15.2 308.9 15.4"/>
    </g>
  </g>
</svg>
