<svg id="Layer_1" data-name="Layer 1" xmlns="http://www.w3.org/2000/svg" xmlns:xlink="http://www.w3.org/1999/xlink" width="374.5" height="89.4" viewBox="0 0 374.5 89.4">
  <defs>
    <style>
      .cls-1 {
        fill: url(#linear-gradient);
      }

      .cls-2, .cls-4, .cls-5 {
        fill: #fff;
      }

      .cls-2 {
        opacity: 0.3;
      }

      .cls-2, .cls-3, .cls-4 {
        isolation: isolate;
      }

      .cls-4 {
        font-size: 16px;
        font-family: Montserrat-Medium, Montserrat;
      }
    </style>
    <linearGradient id="linear-gradient" x1="405.55" y1="126.36" x2="21.53" y2="-32.27" gradientUnits="userSpaceOnUse">
      <stop offset="0" stop-color="#75c9b9"/>
      <stop offset="1" stop-color="#72bde5"/>
    </linearGradient>
  </defs>
  <title>banner_PC001</title>
  <g id="Page-1">
    <g id="UI---Screen-7---v2">
      <g id="Group-2">
        <path id="Path-4" class="cls-1" d="M0,72.4C71,74,112,68.2,210.5,71c58.9,1.7,113.3,7.8,164,18.4V0H0Z"/>
        <rect id="Rectangle-Copy-2" class="cls-2" x="23.5" y="22" width="47" height="7" rx="3.3" ry="3.3"/>
        <rect id="Rectangle-Copy-4" class="cls-2" x="186.5" y="29" width="47" height="7" rx="3.3" ry="3.3"/>
        <rect id="Rectangle-Copy-3" class="cls-2" x="64.5" y="35" width="47" height="7" rx="3.3" ry="3.3"/>
        <rect id="Rectangle-Copy-5" class="cls-2" x="233.5" y="42" width="47" height="7" rx="3.3" ry="3.3"/>
        <g id="sweep">
          <g id="_" data-name="+" class="cls-3">
            <text class="cls-4" transform="translate(358 33)">+</text>
          </g>
          <g id="_-copy" data-name="+-copy" class="cls-3">
            <text class="cls-4" transform="translate(336.5 21)">+</text>
          </g>
        </g>
      </g>
    </g>
  </g>
  <g>
    <g>
      <path class="cls-5" d="M342.5,48.4l-2.1-5.1a.8.8,0,0,0-.5-.5l-2.6-.7v-.4l1.8-1.5a1,1,0,0,0,.4-.5l2.1-5.1a.4.4,0,1,0-.7-.3l-2.1,5.1c-.1,0-.1.1-.2.2L336.9,41l-.5-.3v-.9l.6-.5a3.1,3.1,0,0,0,.7-2.2,2.2,2.2,0,0,0-.2-1.2l1.2-1.4a1.1,1.1,0,0,0,.3-.8V28.6c0-.1.1-.2.1-.4l.4-1.1a.5.5,0,0,0-.3-.5.4.4,0,0,0-.5.3l-.4,1.1a1.3,1.3,0,0,0-.1.6v5.1a.4.4,0,0,1-.1.3l-1,1.1c0-.1-.1-.2-.1-.3h-.1a3.1,3.1,0,0,0-.6-2.4.6.6,0,0,0-.6,0,.4.4,0,0,0,0,.6,1.6,1.6,0,0,1,.4,1.3,2.6,2.6,0,0,0-2,0,1.6,1.6,0,0,1,.4-1.3.4.4,0,0,0,0-.6.6.6,0,0,0-.6,0,3.1,3.1,0,0,0-.6,2.4h0c-.1.1-.2.2-.2.3l-1-1.1c0-.1-.1-.2-.1-.3V28.6a1.3,1.3,0,0,0-.1-.6l-.3-1.1a.5.5,0,0,0-.6-.3.4.4,0,0,0-.2.5l.3,1.1a.8.8,0,0,1,.1.4v5.1a1.1,1.1,0,0,0,.3.8l1.2,1.4a3.7,3.7,0,0,0-.2,1.2,3.1,3.1,0,0,0,.8,2.2,1.2,1.2,0,0,0,.5.5v.9l-.4.3-1.8-1.4a.3.3,0,0,1-.1-.2l-2.2-5.1c0-.2-.3-.3-.5-.2a.4.4,0,0,0-.2.5l2.1,5.1a1,1,0,0,0,.4.5l1.9,1.5c0,.1-.1.1-.1.2s0,.1.1.2l-2.6.7c-.3.1-.5.2-.6.5l-2.1,5.1a.4.4,0,0,0,.2.5h.2l.4-.2,2.1-5.1h0l2.5-.7-.7,1.4-1.6,1.4a1.4,1.4,0,0,0-.5,1v5.5a.8.8,0,0,1-.1.4l-.7,1.4a.5.5,0,0,0,.2.6h.1a.5.5,0,0,0,.4-.2l.8-1.5a1.7,1.7,0,0,0,.1-.7V46.7c0-.1.1-.2.2-.3l.6-.6a12.4,12.4,0,0,0-.3,2.7,6.6,6.6,0,0,0,1,3.6,3,3,0,0,0,2.5,1.7,2.9,2.9,0,0,0,2.5-1.7,5.9,5.9,0,0,0,1-3.6,12.4,12.4,0,0,0-.3-2.7l.6.6c.1.1.2.2.2.3v5.5a1.9,1.9,0,0,0,.2.7l.7,1.5a.5.5,0,0,0,.4.2h.2a.4.4,0,0,0,.1-.6l-.7-1.4a.8.8,0,0,1-.1-.4V46.7a1.3,1.3,0,0,0-.4-1l-1.7-1.4a6.1,6.1,0,0,0-.7-1.4l2.5.7h0l2.2,5.1.3.2h.2A.4.4,0,0,0,342.5,48.4Zm-5.3,2.8H333l-.3-1h4.9A3,3,0,0,1,337.2,51.2Zm-4.7-1.8v-.9h5.3a2.8,2.8,0,0,1-.1.9Zm4.4-2.7h.7a3.1,3.1,0,0,1,.1,1h-5.2c0-.4.1-.7.1-1h2.5a.4.4,0,0,0,0-.8h-2.3a5,5,0,0,1,.4-1.3,4.7,4.7,0,0,0,3.8,0c.2.4.3.8.5,1.3h-.6a.4.4,0,1,0,0,.8Zm-3.6-9.6c0-1.4.7-2.2,1.8-2.2s1.8.8,1.8,2.2-.7,2.2-1.8,2.2S333.3,38.5,333.3,37.1Zm1.8,3h.5v.5h-1v-.5Zm-.9,1.4H336c.2,0,.5.2.5.4a.5.5,0,0,1-.5.5.4.4,0,1,0,0,.8h.3a2.1,2.1,0,0,1,.4.6,4.1,4.1,0,0,1-1.6.3,4.5,4.5,0,0,1-1.6-.3l.4-.6h.3a.4.4,0,0,0,0-.8.5.5,0,0,1-.4-.5A.4.4,0,0,1,334.2,41.5Zm.9,11.4a2.1,2.1,0,0,1-1.6-.9h3.2A1.9,1.9,0,0,1,335.1,52.9Z"/>
      <path class="cls-5" d="M335,23.9a16.7,16.7,0,1,1-16.6,16.6A16.6,16.6,0,0,1,335,23.9m0-1.3a18,18,0,1,0,18,17.9,17.9,17.9,0,0,0-18-17.9Z"/>
      <rect class="cls-5" x="334.9" y="22.5" width="1.3" height="34.63" transform="translate(87.8 269.7) rotate(-49.6)"/>
    </g>
    <g>
      <polygon class="cls-5" points="316.1 25.3 316.1 25.5 316.1 25.6 316.1 25.8 316.1 25.8 316.2 25.9 316.2 25.9 316.7 25.9 316.8 25.9 317.2 25.9 317.4 25.9 317.7 25.9 317.8 25.9 317.8 25.8 317.8 25.7 317.8 25.6 317.8 25.5 317.8 25.3 317.8 25.2 317.9 24.7 317.9 24.1 317.9 24 317.9 24 318 24 318 24.1 318.1 24.2 318.4 24.5 318.4 24.6 318.8 24.9 318.9 25 319.1 25.4 319.2 25.5 319.5 25.8 319.6 25.9 319.7 25.9 320.2 25.9 320.3 25.9 320.8 25.9 321 25.9 321.4 25.9 321.5 25.9 321.6 25.9 321.6 25.8 321.6 25.8 321.6 25.7 321.2 25.3 321.2 25.2 320.8 24.9 320.7 24.8 320.4 24.4 320.3 24.3 320 23.9 319.9 23.8 319.5 23.4 319.4 23.3 319.1 22.9 319.1 22.8 319 22.8 319.1 22.7 319.1 22.6 319.2 22.5 319.4 22.4 319.5 22.3 319.8 21.9 319.9 21.8 320.2 21.4 320.3 21.3 320.6 21 320.7 20.9 321 20.5 321.1 20.4 321.4 20 321.5 19.9 321.5 19.9 321.4 19.9 321.4 19.9 321.3 19.9 321 19.9 320.9 19.9 320.5 19.9 320 19.8 319.9 19.8 319.5 19.9 319.4 19.9 319.4 19.9 319.1 20.3 319 20.4 318.7 20.7 318.3 21.3 318 21.6 317.9 21.7 317.9 21.7 317.8 21.6 317.8 21.1 317.8 21 317.8 20.6 317.8 20.4 317.8 20.2 317.9 20.1 317.8 20 317.8 19.9 317.8 19.9 317.7 19.9 317.3 19.8 317.2 19.8 316.8 19.9 316.7 19.9 316.4 19.9 316.3 19.8 316.2 19.9 316.2 19.9 316.2 20 316.1 20.5 316.1 20.6 316.1 21.6 316.1 21.8 316.1 22.2 316.1 22.3 316.1 22.8 316.1 23.4 316.1 23.5 316.1 24 316.1 24.1 316.1 24.7 316.1 25.1 316.1 25.3"/>
      <g>
        <path class="cls-5" d="M303.1,25.8h4.6l.2-.2h.3v-.2h0v-.2h0V24h0v-.2h0v-.2h0v-.2h0L308,23h-.2l.2-.2h.2v-.4h0v-.3h-.1v-.2h-.2l-.2-.2H303v.5h0v1.6h0v.5h0v1.2h0v.2h0v.5h0v.2h.1Zm3.5-2.1h-2V24h0v-.2h1.9Zm-2-2.1v-.2h1.9v.2h-2Z"/>
        <polygon class="cls-5" points="311.1 20.7 311.1 20.6 311.1 20.2 311.1 20.1 311.1 20 311.1 19.9 311 19.9 310.9 19.8 310.8 19.8 310.6 19.8 310.3 19.9 310.2 19.9 309.8 19.8 309.7 19.8 309.6 19.8 309.4 19.9 309.4 19.9 309.3 20 309.3 20.2 309.4 20.5 309.4 20.6 309.4 21.1 309.4 21.2 309.4 21.6 309.4 21.8 309.4 22.3 309.4 22.8 309.4 22.9 309.4 23.4 309.4 23.5 309.4 23.9 309.4 24.1 309.4 24.5 309.4 25.2 309.3 25.5 309.3 25.6 309.4 25.7 309.4 25.8 309.4 25.8 309.5 25.9 309.6 25.9 309.6 25.9 309.8 25.9 310.2 25.9 310.3 25.9 310.6 25.9 310.8 25.9 310.9 25.9 311 25.9 311.1 25.8 311.1 25.7 311.1 25.5 311.1 25.1 311.1 25 311.1 24.5 311.1 24.3 311.1 23.8 311.1 23.7 311.1 23.6 311.2 23.6 311.3 23.6 311.8 23.6 312.4 23.6 312.6 23.6 312.9 23.6 313.1 23.6 313.2 23.6 313.2 23.7 313.2 23.8 313.2 24.3 313.2 24.5 313.2 25 313.2 25.1 313.3 25.7 313.3 25.8 313.3 25.9 313.4 25.9 313.6 25.9 314 25.9 314.2 25.9 314.6 25.9 314.7 25.9 314.8 25.9 314.9 25.8 314.9 25.7 314.9 25.6 314.9 25.4 314.9 25.2 314.9 25.1 314.9 24.5 314.9 24.1 314.9 23.9 314.9 23.5 314.9 23.4 314.9 22.9 314.9 22.8 315 22.3 315 22.2 314.9 21.8 314.9 21.6 314.9 21.2 314.9 21.1 314.9 20.6 314.9 20.5 315 20.1 315 20 314.9 19.9 314.9 19.8 314.7 19.8 314.7 19.8 314.5 19.8 314.2 19.8 314 19.8 313.6 19.8 313.4 19.8 313.3 19.8 313.3 19.9 313.2 20 313.3 20.6 313.3 20.7 313.3 21.3 313.3 21.4 313.2 21.9 313.2 22 313.2 22.1 313.1 22.1 313 22.2 312.9 22.2 312.4 22.1 311.9 22.1 311.8 22.1 311.5 22.2 311.3 22.2 311.2 22.2 311.1 22.1 311.1 22.1 311.1 22 311.1 21.9 311.1 21.3 311.1 20.7"/>
        <polygon class="cls-5" points="307.3 15.8 307.4 16.1 307.5 16.2 307.6 16.5 307.7 16.7 307.8 16.9 307.9 17 308.1 17.2 308.5 17.5 308.6 17.6 308.9 17.8 309.1 17.9 309.3 17.9 309.5 18 309.7 18.1 309.9 18.1 310.1 18.1 310.3 18.2 310.8 18.2 311.5 18.2 311.7 18.2 312 18.2 312.2 18.2 312.4 18.1 312.6 18.1 312.9 18 313.1 18 313.3 17.9 313.5 17.8 313.8 17.7 313.9 17.6 314.2 17.4 314.4 17.3 314.5 17.2 314.6 17 314.7 16.9 314.8 16.8 315 16.5 315 16.4 315.1 16.2 315.1 15.9 315.2 15.7 315.2 15.5 315.2 15.3 315.2 15.1 315.2 14.9 315.1 14.7 315.1 14.5 314.9 14.2 314.8 14.1 314.7 14 314.6 13.8 314.4 13.7 314.1 13.5 314.1 13.4 314.1 13.3 314.2 13.2 314.4 13 314.5 12.9 314.7 12.6 314.8 12.3 314.9 12.1 314.9 12.1 315 11.9 315 11.8 315 11.6 315 11.3 314.9 11.2 314.9 10.9 314.8 10.7 314.7 10.5 314.6 10.3 314.5 10.2 314.5 10.1 314.3 9.9 314.2 9.8 314 9.6 313.8 9.5 313.6 9.4 313.5 9.3 313.3 9.2 313 9.1 312.8 9.1 312.6 9 312.4 9 312.1 8.9 311.5 8.8 311.3 8.8 311.1 8.8 310.8 8.8 310.6 8.8 310.2 8.9 310 8.9 309.8 9 309.5 9 309.3 9.1 309.1 9.2 308.9 9.3 308.7 9.4 308.6 9.5 308.4 9.6 308.2 9.8 308 9.9 307.9 10.1 307.8 10.3 307.7 10.5 307.6 10.7 307.5 11.1 307.4 11.3 307.4 11.5 307.4 11.7 307.4 11.8 307.5 11.8 307.7 11.8 307.9 11.8 308.1 11.9 308.5 11.8 308.7 11.8 309.2 11.9 309.5 11.9 309.7 11.8 309.8 11.8 309.9 11.6 310 11.4 310 11.4 310.2 11.2 310.3 11.2 310.4 11.1 310.5 11.1 310.7 11 311.1 11 311.2 11 311.5 11 311.7 11 311.9 11.1 312.1 11.1 312.3 11.3 312.3 11.4 312.4 11.6 312.4 11.8 312.4 11.9 312.3 12.1 312.3 12.1 312.1 12.3 312 12.3 311.8 12.4 311.7 12.5 311.5 12.5 311.3 12.6 311.1 12.6 311 12.6 310.8 12.5 310.4 12.5 310.2 12.5 309.8 12.5 309.7 12.6 309.6 12.7 309.6 12.8 309.6 13.1 309.6 13.3 309.6 13.5 309.6 13.7 309.6 13.9 309.6 14.1 309.7 14.2 309.8 14.3 309.9 14.4 310.2 14.4 310.5 14.3 310.9 14.3 311.2 14.3 311.4 14.3 311.6 14.4 311.8 14.4 312 14.5 312 14.5 312.3 14.7 312.4 14.8 312.5 14.9 312.5 15.1 312.5 15.2 312.5 15.4 312.5 15.5 312.5 15.6 312.4 15.7 312.3 15.8 312.2 15.9 312 16 311.9 16.1 311.7 16.1 311.4 16.2 311.2 16.2 311 16.1 310.8 16.1 310.5 16 310.4 16 310.3 15.9 310.2 15.8 310 15.7 310 15.6 309.9 15.4 309.8 15.3 309.8 15.2 309.7 15.1 309.5 15 309.2 15 308.6 15.1 308.4 15.1 308 15.1 307.5 15.1 307.3 15.1 307.2 15.2 307.2 15.3 307.3 15.6 307.3 15.8"/>
      </g>
    </g>
  </g>
</svg>
