<svg id="Layer_1" data-name="Layer 1" xmlns="http://www.w3.org/2000/svg" xmlns:xlink="http://www.w3.org/1999/xlink" width="374.5" height="89.4" viewBox="0 0 374.5 89.4">
  <defs>
    <style>
      .cls-1 {
        fill: url(#linear-gradient);
      }

      .cls-2, .cls-4, .cls-5 {
        fill: #fff;
      }

      .cls-2 {
        opacity: 0.3;
      }

      .cls-2, .cls-3, .cls-4 {
        isolation: isolate;
      }

      .cls-4 {
        font-size: 16px;
        font-family: Montserrat-Medium, Montserrat;
      }
    </style>
    <linearGradient id="linear-gradient" x1="405.55" y1="126.36" x2="21.53" y2="-32.27" gradientUnits="userSpaceOnUse">
      <stop offset="0" stop-color="#75c9b9"/>
      <stop offset="1" stop-color="#72bde5"/>
    </linearGradient>
  </defs>
  <title>banner_housekeeping_H0</title>
  <g id="Page-1">
    <g id="UI---Screen-7---v2">
      <g id="Group-2">
        <path id="Path-4" class="cls-1" d="M0,72.4C71,74,112,68.2,210.5,71c58.9,1.7,113.3,7.8,164,18.4V0H0Z"/>
        <rect id="Rectangle-Copy-2" class="cls-2" x="23.5" y="22" width="47" height="7" rx="3.2" ry="3.2"/>
        <rect id="Rectangle-Copy-4" class="cls-2" x="186.5" y="29" width="47" height="7" rx="3.2" ry="3.2"/>
        <rect id="Rectangle-Copy-3" class="cls-2" x="64.5" y="35" width="47" height="7" rx="3.2" ry="3.2"/>
        <path id="Rectangle-Copy-5" class="cls-2" d="M236.8,42h40.5a3.2,3.2,0,0,1,3.2,3.2v.5a3.2,3.2,0,0,1-3.2,3.2H236.8a3.2,3.2,0,0,1-3.2-3.2v-.5A3.3,3.3,0,0,1,236.8,42Z"/>
        <g id="sweep">
          <g id="_" data-name="+" class="cls-3">
            <text class="cls-4" transform="translate(351 26)">+</text>
          </g>
          <g id="_-copy" data-name="+-copy" class="cls-3">
            <text class="cls-4" transform="translate(336.5 14)">+</text>
          </g>
        </g>
      </g>
    </g>
  </g>
  <g>
    <path class="cls-5" d="M310.7,31.6h4.2v-.2h.4V31h0v-.2h-.2v-.2h.1v-.2h.1v-.2h0v-.2h-.2v-.2h-4.3v.3h0V28h-.1v.4h0V29h0v.4h0v.9h0V31h0v.4Zm3.2-1.3h.1v.2h-1.7v-.2h0v-.2h1.7Zm-1.7-1.8v-.2h0v-.2h0Z"/>
    <polygon class="cls-5" points="321.2 29.6 321.2 29.5 321.3 29.1 321.3 29 321.2 28.6 321.2 28.5 321.2 28.1 321.2 28 321.2 27.6 321.2 27.5 321.2 27.2 321.2 27.1 321.2 27 321.2 26.9 321.1 26.9 321 26.9 320.9 26.9 320.5 26.9 320.4 26.9 320 26.9 319.9 26.9 319.8 26.9 319.8 27 319.7 27.1 319.8 27.6 319.8 27.7 319.8 28.2 319.8 28.3 319.7 28.8 319.7 28.8 319.7 28.9 319.6 28.9 319.6 28.9 319.5 28.9 319 28.9 318.6 28.9 318.4 28.9 318.2 29 318.1 29 318 28.9 317.9 28.9 317.9 28.9 317.8 28.9 317.8 28.8 317.8 28.2 317.8 27.7 317.8 27.6 317.9 27.2 317.9 27.1 317.9 27.1 317.8 27 317.8 26.9 317.7 26.9 317.6 26.9 317.4 26.9 317.1 26.9 317 26.9 316.7 26.9 316.6 26.9 316.5 26.9 316.4 26.9 316.3 27 316.3 27.1 316.3 27.2 316.3 27.5 316.4 27.6 316.4 28 316.4 28.1 316.3 28.5 316.3 28.6 316.3 29.1 316.3 29.5 316.3 29.6 316.4 30 316.4 30.1 316.3 30.5 316.3 30.6 316.3 31 316.3 31.6 316.3 31.9 316.3 32 316.3 32 316.3 32.1 316.4 32.2 316.4 32.2 316.5 32.2 316.6 32.2 316.7 32.2 317 32.2 317.1 32.2 317.5 32.2 317.6 32.2 317.7 32.2 317.8 32.2 317.8 32.2 317.9 32 317.9 31.9 317.8 31.6 317.8 31.4 317.8 31 317.8 30.9 317.8 30.4 317.8 30.3 317.9 30.2 317.9 30.2 318 30.2 318.4 30.2 319 30.2 319.1 30.2 319.4 30.2 319.6 30.2 319.7 30.2 319.7 30.3 319.7 30.4 319.7 30.9 319.7 31 319.7 31.4 319.7 31.6 319.8 32 319.8 32.1 319.8 32.2 319.9 32.2 320 32.2 320.4 32.2 320.5 32.2 320.9 32.2 321.1 32.2 321.1 32.2 321.2 32.1 321.2 32 321.2 31.9 321.2 31.8 321.2 31.7 321.2 31.5 321.2 31 321.2 30.6 321.2 30.5 321.2 30.1 321.2 30 321.2 29.6"/>
    <polygon class="cls-5" points="322.9 26.9 322.7 26.9 322.5 26.9 322.4 26.9 322.3 26.9 322.3 27 322.3 27 322.3 27.4 322.3 27.6 322.3 28.5 322.3 28.6 322.3 29 322.3 29.1 322.3 29.5 322.3 30 322.3 30.1 322.3 30.5 322.3 30.7 322.3 31.2 322.3 31.6 322.3 31.7 322.3 31.9 322.3 32 322.3 32.1 322.3 32.2 322.3 32.2 322.4 32.2 322.7 32.2 322.9 32.2 323.2 32.2 323.4 32.2 323.7 32.2 323.7 32.2 323.8 32.2 323.8 32.1 323.8 32 323.8 31.9 323.8 31.7 323.8 31.6 323.8 31.2 323.8 30.7 323.8 30.6 323.9 30.6 323.9 30.6 323.9 30.6 324 30.7 324.2 31 324.3 31.1 324.6 31.4 324.7 31.5 324.9 31.8 325 31.9 325.2 32.2 325.3 32.2 325.4 32.2 325.9 32.2 326 32.2 326.4 32.2 326.5 32.2 326.9 32.2 327 32.2 327.1 32.2 327.1 32.2 327.1 32.1 327.1 32.1 326.8 31.7 326.7 31.7 326.4 31.3 326.3 31.2 326 30.9 325.9 30.8 325.7 30.5 325.6 30.4 325.3 30 325.2 30 324.9 29.6 324.9 29.5 324.8 29.5 324.9 29.4 324.9 29.4 325 29.3 325.2 29.1 325.3 29 325.5 28.7 325.6 28.6 325.9 28.3 325.9 28.2 326.2 27.9 326.3 27.8 326.6 27.5 326.6 27.4 326.9 27.1 327 27 327 27 327 27 326.9 26.9 326.8 26.9 326.6 26.9 326.4 26.9 326.2 26.9 325.7 26.9 325.6 26.9 325.3 26.9 325.2 26.9 325.1 27 324.9 27.3 324.8 27.4 324.6 27.7 324.2 28.2 323.9 28.5 323.9 28.5 323.8 28.5 323.8 28.4 323.8 28.1 323.8 27.9 323.8 27.5 323.8 27.4 323.8 27.2 323.8 27.1 323.8 27 323.8 27 323.7 26.9 323.7 26.9 323.3 26.9 323.2 26.9 322.9 26.9"/>
    <polygon class="cls-5" points="319.1 23.1 319 23.2 319 23.3 318.9 23.4 318.8 23.5 318.7 23.6 318.6 23.6 318.4 23.6 318.1 23.7 317.9 23.7 317.7 23.7 317.5 23.6 317.4 23.6 317.3 23.5 317.1 23.4 317.1 23.4 316.9 23.3 316.9 23.2 316.8 23 316.7 22.9 316.7 22.8 316.6 22.7 316.4 22.7 316.2 22.7 315.7 22.7 315.5 22.7 315.1 22.7 314.7 22.7 314.5 22.8 314.4 22.8 314.4 23 314.5 23.2 314.5 23.4 314.6 23.6 314.7 23.7 314.7 24 314.8 24.1 314.9 24.3 315 24.4 315.2 24.6 315.5 24.9 315.7 25 315.9 25.1 316.1 25.2 316.2 25.2 316.4 25.3 316.7 25.4 316.8 25.4 317 25.4 317.2 25.4 317.6 25.5 318.2 25.5 318.4 25.5 318.6 25.5 318.8 25.5 319 25.4 319.2 25.4 319.4 25.3 319.6 25.3 319.8 25.2 320 25.1 320.2 25 320.3 25 320.6 24.8 320.7 24.7 320.8 24.6 321 24.4 321 24.4 321.1 24.2 321.3 24 321.3 23.9 321.4 23.7 321.4 23.5 321.4 23.3 321.5 23.1 321.5 22.9 321.4 22.8 321.4 22.6 321.4 22.4 321.3 22.2 321.2 22 321.1 21.9 321 21.7 320.9 21.6 320.8 21.5 320.5 21.3 320.5 21.3 320.5 21.2 320.6 21.1 320.8 20.9 320.9 20.8 321 20.6 321.2 20.3 321.2 20.1 321.2 20.1 321.3 19.9 321.3 19.8 321.3 19.6 321.3 19.4 321.2 19.3 321.2 19 321.1 18.9 321 18.7 321 18.5 320.9 18.4 320.8 18.3 320.7 18.2 320.6 18.1 320.4 17.9 320.3 17.8 320.1 17.7 319.9 17.6 319.8 17.6 319.5 17.5 319.4 17.4 319.2 17.4 319 17.3 318.8 17.3 318.2 17.2 318 17.2 317.8 17.2 317.6 17.2 317.4 17.2 317.1 17.3 316.9 17.3 316.7 17.4 316.5 17.4 316.3 17.5 316.1 17.5 316 17.6 315.8 17.7 315.6 17.8 315.5 17.9 315.3 18.1 315.2 18.2 315 18.3 314.9 18.5 314.9 18.7 314.8 18.9 314.7 19.2 314.6 19.4 314.6 19.6 314.6 19.7 314.6 19.8 314.7 19.8 314.8 19.9 315.1 19.9 315.2 19.9 315.6 19.9 315.7 19.9 316.2 19.9 316.5 19.9 316.6 19.9 316.7 19.8 316.8 19.7 316.9 19.5 316.9 19.5 317.1 19.3 317.1 19.3 317.3 19.2 317.4 19.2 317.5 19.2 317.8 19.1 318 19.1 318.2 19.1 318.4 19.2 318.6 19.2 318.7 19.3 318.9 19.4 318.9 19.5 319 19.7 319 19.8 319 19.9 318.9 20.1 318.9 20.1 318.8 20.3 318.7 20.3 318.5 20.4 318.4 20.4 318.2 20.5 318 20.5 317.8 20.5 317.7 20.5 317.6 20.5 317.2 20.5 317.1 20.5 316.7 20.5 316.6 20.5 316.6 20.6 316.5 20.7 316.5 20.9 316.5 21.2 316.5 21.4 316.5 21.5 316.5 21.7 316.6 21.8 316.6 22 316.7 22 316.8 22.1 317.1 22.1 317.3 22.1 317.6 22.1 317.9 22.1 318.1 22.1 318.3 22.1 318.5 22.1 318.6 22.2 318.7 22.2 318.9 22.4 319 22.5 319 22.6 319.1 22.7 319.1 22.8 319.1 23 319.1 23.1"/>
    <path class="cls-5" d="M355.2,38.5a4.1,4.1,0,0,0-2.9-1.3h-.5a4.1,4.1,0,0,0-3.9-2.8,4.2,4.2,0,0,0-3.8,2.3,3.2,3.2,0,0,0-2.9-1.9,3.3,3.3,0,0,0-3.3,3.3,3.4,3.4,0,0,0-2.5,2.5H332V34.4a.7.7,0,0,0-.7-.7.7.7,0,0,0-.8.7V55.3h-.4V24.9h.4v6.2a.7.7,0,0,0,.8.7.7.7,0,0,0,.7-.7V17.9a1.2,1.2,0,0,0-1.2-1.2h-.9a1.2,1.2,0,0,0-1.3,1.2V40.7h-.5a1.2,1.2,0,0,0-1.2,1.2v4a1.2,1.2,0,0,0,1.2,1.2h.5v8.2h-.1a1.2,1.2,0,0,0-1.2,1.3v2.5h-2.7a1.2,1.2,0,0,0-1.2,1.2v1.4h-2a2.2,2.2,0,0,0-1.3,3.9l-.3.3a1.1,1.1,0,0,0,0,1.1l.6.2.5-.2.9-1h.5a.8.8,0,0,0,.1,1l.5.2.5-.2.9-1h.5a.8.8,0,0,0,.1,1l.5.2.5-.2.9-1h.5a.8.8,0,0,0,.1,1l.5.2.5-.2,1-1h.3v.4a.9.9,0,0,0,.8.8.8.8,0,0,0,.7-.8V66h.4l.9,1,.6.2.5-.2a.9.9,0,0,0,.1-1h.4l.9,1,.6.2.5-.2a.9.9,0,0,0,.1-1h.4l1,1,.5.2.5-.2a.8.8,0,0,0,.1-1h.4l1,1,.5.2.5-.2a.8.8,0,0,0,0-1.1l-.4-.4.5-.6h5.4a.9.9,0,0,0,.8-.8.8.8,0,0,0-.8-.7h-5.2a2.2,2.2,0,0,0-2.1-1.7h-2.1V60.3a1.2,1.2,0,0,0-1.2-1.2h-2.6V56.6a1.3,1.3,0,0,0-1.3-1.3H332V47.1h25l-1.9,10.3-9.2-5a3.9,3.9,0,0,0-3.9-3.7,3.9,3.9,0,1,0,0,7.8,4.6,4.6,0,0,0,2-.5l10.4,5.5-.3,1.5c0,.2-.3.4-.4.4h-3.1a.8.8,0,0,0-.8.7.9.9,0,0,0,.8.8h3.1a1.8,1.8,0,0,0,1.8-1.6l.3-1.4a2.1,2.1,0,0,0,1.6-1.1,2,2,0,0,0-.9-2.7h0l2-11h1a1.2,1.2,0,0,0,1.2-1.2V44a1.2,1.2,0,0,0-1.2-1.2h-.7a3,3,0,0,0-1-1.9,2.6,2.6,0,0,0-1.6-.9A4,4,0,0,0,355.2,38.5ZM330.1,18.2h.4v5.3h-.4Zm-1.3,38.6h3.1v2.3h-3.1Zm-.4-14.6h.2v1.4h-.2Zm0,3.4V45h.2v.6Zm7.3,15v1.1h-.8a.7.7,0,0,0-.8.7.7.7,0,0,0,.8.8h4.4a.7.7,0,0,1,.6.7.6.6,0,0,1-.6.6H321.4a.7.7,0,0,1-.7-.6.7.7,0,0,1,.7-.7H331a.7.7,0,0,0,.7-.8.7.7,0,0,0-.7-.7h-6.1V60.6Zm6.3-5.5a2.5,2.5,0,0,1-2.5-2.5,2.5,2.5,0,0,1,2.5-2.5,2.6,2.6,0,0,1,2.2,1.4l-.8-.4a1.6,1.6,0,0,0-1-.2,1.9,1.9,0,0,0-1.7,1,1.6,1.6,0,0,0-.2,1.5,1.8,1.8,0,0,0,1,1.2l.8.4Zm14.1,5a.5.5,0,0,1-.5.3c-.1,0-.2,0-.2-.1l-13.2-7-.3-.3a.6.6,0,0,1,.1-.4c.1-.2.2-.3.4-.3h.3l13.2,7A.6.6,0,0,1,356.1,60.1ZM347.9,36a2.7,2.7,0,0,1,2.5,1.7l-1.1.8c0,.1-.1.1-.2.2h-.7a2.7,2.7,0,0,0-1.7.6,5.3,5.3,0,0,0-1.4-1.2A2.6,2.6,0,0,1,347.9,36Zm-9.5,3.6h.3a1.6,1.6,0,0,1,1.1.5.8.8,0,0,0,1.1-.1.8.8,0,0,0-.1-1,2.9,2.9,0,0,0-1.4-.8,1.8,1.8,0,0,1,1.8-1.8,1.8,1.8,0,0,1,1.8,1.9v.2c0,.2,0,.4.2.5a.9.9,0,0,0,.6.3h.2a1.9,1.9,0,0,1,1.7,1.2,2.7,2.7,0,0,0-.3,1.2.8.8,0,0,0,.8.7.7.7,0,0,0,.7-.7,1.9,1.9,0,0,1,.2-.8h.1a1.4,1.4,0,0,1,1.2-.6,1.5,1.5,0,0,1,1.4,1.5.8.8,0,0,0,.8.7h1.1a1.2,1.2,0,0,1,.9.5H342.3v-.9a1.2,1.2,0,0,0-1.2-1.2H337A1.8,1.8,0,0,1,338.4,39.6ZM332,42.2h8.9v1.4H332Zm27.2,2v1.4H332V45h9.1a1.3,1.3,0,0,0,1.2-.8Zm-1.9-1.4h-3.1a2.7,2.7,0,0,0-2.5-2h-.5a2.2,2.2,0,0,0-.8-1.3,2.7,2.7,0,0,1,3.8,0,3.3,3.3,0,0,1,.7,1.3.9.9,0,0,0,.7.6,1.8,1.8,0,0,1,1.2.5A4.1,4.1,0,0,1,357.3,42.8Z"/>
  </g>
</svg>
