<svg id="Layer_1" data-name="Layer 1" xmlns="http://www.w3.org/2000/svg" xmlns:xlink="http://www.w3.org/1999/xlink" width="374.5" height="89.4" viewBox="0 0 374.5 89.4">
  <defs>
    <style>
      .cls-1 {
        fill: url(#linear-gradient);
      }

      .cls-2, .cls-4, .cls-5 {
        fill: #fff;
      }

      .cls-2 {
        opacity: 0.3;
      }

      .cls-2, .cls-3, .cls-4 {
        isolation: isolate;
      }

      .cls-4 {
        font-size: 16px;
        font-family: Montserrat-Medium, Montserrat;
      }
    </style>
    <linearGradient id="linear-gradient" x1="405.55" y1="126.36" x2="21.53" y2="-32.27" gradientUnits="userSpaceOnUse">
      <stop offset="0" stop-color="#75c8b8"/>
      <stop offset="1" stop-color="#71bbe4"/>
    </linearGradient>
  </defs>
  <title>banner_pumbing_P0</title>
  <g id="Page-1">
    <g id="UI---Screen-7---v2">
      <g id="Group-2">
        <path id="Path-4" class="cls-1" d="M0,72.4C71,74,112,68.2,210.5,71c58.9,1.7,113.3,7.8,164,18.4V0H0Z"/>
        <rect id="Rectangle-Copy-2" class="cls-2" x="23.5" y="22" width="47" height="7" rx="3.3" ry="3.3"/>
        <path id="Rectangle-Copy-4" class="cls-2" d="M189.8,29h40.5a3.3,3.3,0,0,1,3.3,3.3v.5a3.3,3.3,0,0,1-3.2,3.3H189.8a3.3,3.3,0,0,1-3.3-3.3v-.5A3.2,3.2,0,0,1,189.8,29Z"/>
        <rect id="Rectangle-Copy-3" class="cls-2" x="64.5" y="35" width="47" height="7" rx="3.3" ry="3.3"/>
        <rect id="Rectangle-Copy-5" class="cls-2" x="233.5" y="42" width="47" height="7" rx="3.3" ry="3.3"/>
        <g id="sweep">
          <g id="_" data-name="+" class="cls-3">
            <text class="cls-4" transform="translate(358 26)">+</text>
          </g>
          <g id="_-copy" data-name="+-copy" class="cls-3">
            <text class="cls-4" transform="translate(336.5 14)">+</text>
          </g>
        </g>
      </g>
    </g>
  </g>
  <g>
    <path class="cls-5" d="M335,60a6.9,6.9,0,0,0,6.9-6.9V45.9h-4.1V26.3h1.7a.7.7,0,0,0,.7-.7.8.8,0,0,0-.7-.8h-1.7V18.9h1.7a.7.7,0,0,0,.7-.7.7.7,0,0,0-.7-.8h-9a.7.7,0,0,0-.7.8.7.7,0,0,0,.7.7h1.3v5.9h-1.3a.8.8,0,0,0-.7.8.7.7,0,0,0,.7.7h1.3V45.9h-3.7v7.2A6.9,6.9,0,0,0,335,60Zm5.4-6.9a5.9,5.9,0,0,1-.5,2.3l-2.3-1.5a4.3,4.3,0,0,0,.2-1.1V51.4h2.6Zm-4.1-2.6v.2h0v2a1.3,1.3,0,0,1-.1.6l-.3.2c0,.1-.1.2-.1.3a1.8,1.8,0,0,1-1,.4l-.8-.2a.2.2,0,0,0-.2-.2,1.6,1.6,0,0,1-.5-1.1V50.9c.1,0,.1-.1.1-.2a.4.4,0,0,0-.1-.3V47.3h3Zm-2.8,4.9.9.3v2.8a5.1,5.1,0,0,1-3.2-1.5Zm2.3,3.1V55.6a2,2,0,0,0,.9-.6l2.4,1.7A6.7,6.7,0,0,1,335.8,58.5Zm4.6-11.2v2.6h-2.6V47.3Zm-7.1-28.4h3v5.9h-3Zm0,7.4h3V45.9h-3Zm-1.5,21v2.6h-2.3V47.3Zm-2.3,4.1h2.3v1.4a3,3,0,0,0,.5,1.6l-2,1.4a5,5,0,0,1-.8-2.7Z"/>
    <path class="cls-5" d="M322.6,67.4h24.8a2.1,2.1,0,0,0,2.1-2.1V50a2.2,2.2,0,0,0-2.1-2.2h-2.8a.8.8,0,0,0-.7.8V53a9,9,0,0,1-18,0V48.6a.9.9,0,0,0-.8-.8h-2.5a2.2,2.2,0,0,0-2.1,2.2V65.3A2.1,2.1,0,0,0,322.6,67.4ZM322,50a.7.7,0,0,1,.6-.7h1.8V53a10.5,10.5,0,0,0,21,0V49.3h2a.7.7,0,0,1,.6.7V65.3a.6.6,0,0,1-.6.6H322.6a.6.6,0,0,1-.6-.6Z"/>
  </g>
</svg>
