<svg id="Layer_1" data-name="Layer 1" xmlns="http://www.w3.org/2000/svg" xmlns:xlink="http://www.w3.org/1999/xlink" width="374.5" height="89.4" viewBox="0 0 374.5 89.4">
  <defs>
    <style>
      .cls-1 {
        fill: url(#linear-gradient);
      }

      .cls-2, .cls-4, .cls-5 {
        fill: #fff;
      }

      .cls-2 {
        opacity: 0.3;
      }

      .cls-2, .cls-3, .cls-4 {
        isolation: isolate;
      }

      .cls-4 {
        font-size: 16px;
        font-family: Montserrat-Medium, Montserrat;
      }
    </style>
    <linearGradient id="linear-gradient" x1="405.55" y1="126.36" x2="21.53" y2="-32.27" gradientUnits="userSpaceOnUse">
      <stop offset="0" stop-color="#75c9b9"/>
      <stop offset="1" stop-color="#72bde5"/>
    </linearGradient>
  </defs>
  <title>banner_PC001</title>
  <g id="Page-1">
    <g id="UI---Screen-7---v2">
      <g id="Group-2">
        <path id="Path-4" class="cls-1" d="M0,72.4C71,74,112,68.2,210.5,71c58.9,1.7,113.3,7.8,164,18.4V0H0Z"/>
        <rect id="Rectangle-Copy-2" class="cls-2" x="23.5" y="22" width="47" height="7" rx="3.3" ry="3.3"/>
        <rect id="Rectangle-Copy-4" class="cls-2" x="186.5" y="29" width="47" height="7" rx="3.3" ry="3.3"/>
        <rect id="Rectangle-Copy-3" class="cls-2" x="64.5" y="35" width="47" height="7" rx="3.3" ry="3.3"/>
        <rect id="Rectangle-Copy-5" class="cls-2" x="233.5" y="42" width="47" height="7" rx="3.3" ry="3.3"/>
        <g id="sweep">
          <g id="_" data-name="+" class="cls-3">
            <text class="cls-4" transform="translate(358 31)">+</text>
          </g>
          <g id="_-copy" data-name="+-copy" class="cls-3">
            <text class="cls-4" transform="translate(336.5 19)">+</text>
          </g>
        </g>
      </g>
    </g>
  </g>
  <g>
    <g>
      <path class="cls-5" d="M342.5,48.4l-2.1-5.1a1,1,0,0,0-.6-.5l-2.6-.7v-.4l1.9-1.5a1,1,0,0,0,.4-.5l2.1-5.1a.4.4,0,0,0-.2-.5c-.2-.1-.5,0-.5.2l-2.2,5.1c0,.1,0,.1-.1.2L336.8,41l-.4-.3v-.9l.5-.4a3.6,3.6,0,0,0,.8-2.3,4.3,4.3,0,0,0-.2-1.2l1.2-1.4a1.1,1.1,0,0,0,.3-.8V28.6a.8.8,0,0,1,.1-.4l.3-1.1a.4.4,0,0,0-.2-.5.4.4,0,0,0-.6.3l-.3,1.1a1.3,1.3,0,0,0-.1.6v5.1c0,.1-.1.2-.1.3l-1,1.1c0-.1-.1-.2-.2-.3h-.1a2.3,2.3,0,0,0-.6-2.4.5.5,0,0,0-.5,0,.4.4,0,0,0,0,.6,1.6,1.6,0,0,1,.4,1.3,1.8,1.8,0,0,0-1-.2,2.2,2.2,0,0,0-1.1.2,1.5,1.5,0,0,1,.5-1.3.4.4,0,0,0-.6-.6,2.6,2.6,0,0,0-.6,2.4h-.1l-.2.3-.9-1.1a.4.4,0,0,1-.1-.3V28.6c0-.2-.1-.4-.1-.6l-.4-1.1c-.1-.3-.3-.4-.5-.3s-.4.3-.3.5l.4,1.1v5.5a1.2,1.2,0,0,0,.4.8l1.1,1.4a4.5,4.5,0,0,0-.1,1.2,3.5,3.5,0,0,0,.7,2.3l.6.4v.9l-.5.3-1.8-1.4c0-.1-.1-.1-.1-.2l-2.1-5.1a.4.4,0,0,0-.6-.2.4.4,0,0,0-.2.5l2.1,5.1.4.5,1.9,1.5v.4l-2.6.7a1.2,1.2,0,0,0-.5.5l-2.2,5.1a.5.5,0,0,0,.3.5h.1c.2,0,.3-.1.4-.3l2.1-5.1h0l2.6-.7a10.2,10.2,0,0,0-.8,1.5l-1.6,1.4a1.2,1.2,0,0,0-.4,1v5.4c0,.1-.1.3-.1.4l-.8,1.5a.4.4,0,0,0,.2.5h.2l.4-.2.7-1.5a2.4,2.4,0,0,0,.2-.8V46.8c0-.2,0-.3.1-.4l.7-.6a12.4,12.4,0,0,0-.3,2.7,7.2,7.2,0,0,0,.9,3.7,2.8,2.8,0,0,0,5.1,0,7.3,7.3,0,0,0,1-3.7,12.6,12.6,0,0,0-.4-2.7l.7.6a.5.5,0,0,1,.2.4v5.4a2.2,2.2,0,0,0,.1.8l.8,1.5a.5.5,0,0,0,.4.2.1.1,0,0,0,.1-.1.4.4,0,0,0,.2-.5l-.7-1.5a.6.6,0,0,1-.1-.4V46.8a1.2,1.2,0,0,0-.5-1l-1.6-1.4a10.7,10.7,0,0,0-.7-1.5l2.5.7h0l2.1,5.1c.1.2.2.3.4.3h.2A.4.4,0,0,0,342.5,48.4Zm-5.3,2.8h-4.3l-.3-.9h4.9Zm-4.7-1.7a3.1,3.1,0,0,1-.1-1h5.3v1Zm4.3-2.7h.8c0,.3.1.6.1.9h-5.3c.1-.3.1-.6.2-.9h2.5a.5.5,0,0,0,.4-.5.4.4,0,0,0-.4-.4h-2.4l.4-1.3a4.5,4.5,0,0,0,2,.4,4.3,4.3,0,0,0,1.9-.4,6.5,6.5,0,0,1,.4,1.3h-.6a.4.4,0,0,0-.4.4A.5.5,0,0,0,336.8,46.8Zm-3.5-9.7c0-1.4.7-2.2,1.8-2.2s1.8.8,1.8,2.2-.7,2.2-1.8,2.2S333.3,38.5,333.3,37.1Zm1.8,3.1h.4v.6h-.9v-.6Zm-.9,1.3h1.7a.5.5,0,0,1,.5.4.5.5,0,0,1-.5.5.4.4,0,0,0-.4.4.4.4,0,0,0,.4.4h.4a2.1,2.1,0,0,0,.4.6,3.2,3.2,0,0,1-1.6.4,2.9,2.9,0,0,1-1.6-.4,2.1,2.1,0,0,1,.4-.6h.3a.4.4,0,0,0,.4-.4.4.4,0,0,0-.4-.4.5.5,0,0,1-.5-.5A.5.5,0,0,1,334.2,41.5Zm.9,11.5a2.4,2.4,0,0,1-1.7-1h3.3A2.2,2.2,0,0,1,335.1,53Z"/>
      <path class="cls-5" d="M335,23.8a16.7,16.7,0,1,1-16.7,16.7A16.7,16.7,0,0,1,335,23.8m0-1.2a18,18,0,1,0,18,17.9,18,18,0,0,0-18-17.9Z"/>
      <rect class="cls-5" x="334.9" y="22.5" width="1.3" height="34.72" transform="translate(87.8 269.7) rotate(-49.6)"/>
    </g>
    <g>
      <path class="cls-5" d="M303,25h5v-.2h.2v-.2h.1v-.4h0v-.2h-.2l-.2-.2h0v-.2h.1v-.2h.1V21h0v-.2H308l-.2-.2H303v1h0v.5h0V22h0v1.6h0v.4h0V25Zm3.6-1.6v.2h0V24h-2.1v-.4h1.9Zm-2-2v-.2h-.1Z"/>
      <polygon class="cls-5" points="311.1 20.5 311.1 20.4 311.1 20 311.1 19.9 311.1 19.8 311.1 19.7 311 19.6 310.9 19.6 310.8 19.6 310.6 19.6 310.3 19.6 310.2 19.6 309.8 19.6 309.7 19.6 309.6 19.6 309.4 19.6 309.4 19.7 309.3 19.8 309.3 20 309.4 20.3 309.4 20.4 309.4 20.8 309.4 21 309.4 21.4 309.4 21.5 309.4 22.1 309.4 22.6 309.4 22.7 309.4 23.1 309.4 23.3 309.4 23.7 309.4 23.8 309.4 24.3 309.4 25 309.3 25.2 309.3 25.4 309.4 25.4 309.4 25.5 309.4 25.6 309.5 25.6 309.6 25.6 309.6 25.6 309.8 25.6 310.2 25.6 310.3 25.6 310.6 25.7 310.8 25.7 310.9 25.7 311 25.6 311.1 25.6 311.1 25.4 311.1 25.3 311.1 24.9 311.1 24.8 311.1 24.2 311.1 24.1 311.1 23.6 311.1 23.4 311.1 23.4 311.2 23.3 311.3 23.3 311.8 23.4 312.4 23.4 312.6 23.4 312.9 23.3 313.1 23.3 313.2 23.4 313.2 23.4 313.2 23.6 313.2 24.1 313.2 24.2 313.2 24.8 313.2 24.9 313.3 25.4 313.3 25.6 313.3 25.6 313.4 25.6 313.6 25.6 314 25.6 314.2 25.6 314.6 25.6 314.7 25.6 314.8 25.6 314.9 25.6 314.9 25.4 314.9 25.3 314.9 25.2 314.9 25 314.9 24.9 314.9 24.3 314.9 23.8 314.9 23.7 314.9 23.3 314.9 23.1 314.9 22.7 314.9 22.6 315 22.1 315 22 314.9 21.5 314.9 21.4 314.9 21 314.9 20.8 314.9 20.4 314.9 20.3 315 19.9 315 19.8 314.9 19.7 314.9 19.6 314.7 19.6 314.7 19.6 314.5 19.6 314.2 19.6 314 19.6 313.6 19.6 313.4 19.6 313.3 19.6 313.3 19.7 313.2 19.8 313.3 20.4 313.3 20.5 313.3 21 313.3 21.2 313.2 21.7 313.2 21.8 313.2 21.9 313.1 21.9 313 21.9 312.9 21.9 312.4 21.9 311.9 21.9 311.8 21.9 311.4 21.9 311.3 21.9 311.2 21.9 311.1 21.9 311.1 21.9 311.1 21.8 311.1 21.7 311.1 21 311.1 20.5"/>
      <polygon class="cls-5" points="316.1 25.1 316.1 25.3 316.1 25.4 316.1 25.5 316.1 25.6 316.2 25.6 316.2 25.7 316.7 25.6 316.8 25.6 317.2 25.7 317.4 25.7 317.7 25.6 317.8 25.6 317.8 25.6 317.8 25.5 317.8 25.4 317.8 25.3 317.8 25.1 317.8 24.9 317.9 24.5 317.9 23.9 317.9 23.8 317.9 23.8 318 23.8 318 23.9 318.1 23.9 318.4 24.3 318.4 24.4 318.8 24.7 318.8 24.8 319.1 25.2 319.2 25.3 319.5 25.6 319.6 25.6 319.7 25.6 320.2 25.6 320.3 25.6 320.8 25.6 321 25.6 321.4 25.7 321.5 25.7 321.6 25.6 321.6 25.6 321.6 25.5 321.6 25.5 321.2 25.1 321.2 25 320.8 24.6 320.7 24.5 320.4 24.1 320.3 24 320 23.6 319.9 23.5 319.5 23.2 319.4 23.1 319.1 22.7 319 22.6 319 22.5 319.1 22.5 319.1 22.4 319.2 22.3 319.4 22.1 319.5 22 319.8 21.7 319.9 21.6 320.2 21.2 320.3 21.1 320.6 20.7 320.7 20.6 321 20.2 321.1 20.1 321.4 19.8 321.5 19.7 321.5 19.7 321.4 19.7 321.4 19.6 321.3 19.6 321 19.6 320.9 19.6 320.5 19.6 320 19.6 319.9 19.6 319.5 19.6 319.4 19.6 319.4 19.7 319.1 20 319 20.1 318.7 20.5 318.3 21 318 21.4 317.9 21.5 317.9 21.4 317.8 21.4 317.8 20.9 317.8 20.8 317.8 20.3 317.8 20.2 317.8 19.9 317.9 19.8 317.8 19.7 317.8 19.7 317.8 19.6 317.7 19.6 317.3 19.6 317.2 19.6 316.8 19.6 316.7 19.6 316.4 19.6 316.3 19.6 316.2 19.6 316.2 19.7 316.1 19.8 316.1 20.2 316.1 20.4 316.1 21.4 316.1 21.5 316.1 22 316.1 22.1 316.1 22.6 316.1 23.2 316.1 23.3 316.1 23.7 316.1 23.9 316.1 24.5 316.1 24.9 316.1 25.1"/>
      <polygon class="cls-5" points="307.5 16.8 307.4 17.6 307.4 17.7 307.5 17.8 307.6 17.8 307.7 17.8 308.4 17.9 309.3 17.9 311.2 17.9 312.3 17.8 313 17.8 313.9 17.9 314.1 17.9 314.4 17.9 314.5 17.9 314.9 17.8 315 17.8 315.1 17.7 315.1 17.6 315.1 17.4 315.1 17.2 315.1 16.9 315.1 16.4 315.1 16.2 315.1 16 315 15.8 315 15.7 314.8 15.6 314.6 15.6 314.2 15.7 314 15.7 312.5 15.7 312.3 15.7 311.7 15.7 310.6 15.7 310.2 15.7 310 15.7 309.9 15.7 309.8 15.6 309.9 15.5 309.9 15.4 309.9 15.3 310 15.1 310.1 14.9 310.2 14.8 310.3 14.7 310.5 14.6 310.6 14.6 310.8 14.6 310.9 14.6 311.1 14.5 311.2 14.5 311.5 14.5 311.8 14.5 312 14.5 312.2 14.4 312.4 14.4 312.7 14.4 312.9 14.3 313.1 14.3 313.3 14.2 313.5 14.2 313.7 14.1 314 14 314.1 13.9 314.3 13.7 314.5 13.5 314.6 13.3 314.7 13.2 314.9 12.9 315 12.7 315 12.5 315.1 12.3 315.1 12 315.2 11.9 315.2 11.6 315.2 11.4 315.1 11.1 315.1 10.9 315 10.7 315 10.5 314.9 10.3 314.8 10.2 314.6 9.9 314.5 9.8 314.4 9.6 314.2 9.5 314.1 9.3 313.9 9.2 313.6 9.1 313.4 9 313.2 8.9 312.8 8.8 312.6 8.8 312.4 8.7 312.2 8.7 312 8.6 311.8 8.6 311.5 8.7 311.1 8.7 310.9 8.7 310.6 8.7 310.4 8.7 310.2 8.7 310 8.8 309.8 8.8 309.6 8.9 309.4 9 309 9.2 308.8 9.3 308.6 9.5 308.4 9.6 308.3 9.7 308.1 9.9 308 10.1 307.9 10.2 307.8 10.5 307.7 10.7 307.7 10.8 307.6 11 307.6 11.1 307.6 11.3 307.6 11.5 307.6 11.5 307.7 11.6 307.9 11.6 308.2 11.6 308.4 11.7 309 11.7 309.5 11.7 309.7 11.7 309.8 11.7 310 11.6 310.1 11.5 310.2 11.4 310.3 11.2 310.3 11.1 310.5 11 310.5 10.9 310.7 10.8 311 10.7 311.1 10.7 311.3 10.7 311.5 10.7 311.7 10.7 311.9 10.7 312.1 10.8 312.3 10.9 312.4 11 312.5 11.1 312.6 11.3 312.6 11.4 312.6 11.7 312.5 12 312.4 12.1 312.3 12.2 312.1 12.3 312 12.4 311.8 12.4 311.5 12.4 311.2 12.5 311.1 12.5 310.5 12.5 310.3 12.5 310.1 12.6 309.9 12.6 309.5 12.7 309.4 12.8 309.1 12.9 308.9 13 308.7 13.2 308.5 13.3 308.3 13.4 308.2 13.6 307.9 13.8 307.8 14 307.8 14.2 307.7 14.3 307.6 14.5 307.6 14.7 307.5 14.9 307.5 15.3 307.4 15.6 307.4 15.8 307.5 16.6 307.5 16.8"/>
    </g>
  </g>
</svg>
