<?xml version="1.0" encoding="UTF-8" standalone="no"?>
<svg width="36px" height="36px" viewBox="0 0 36 36" version="1.1" xmlns="http://www.w3.org/2000/svg" xmlns:xlink="http://www.w3.org/1999/xlink">
    <!-- Generator: sketchtool 48.1 (47250) - http://www.bohemiancoding.com/sketch -->
    <title>0B1A70DE-66A2-499F-BE62-EF413F73DCE3</title>
    <desc>Created with sketchtool.</desc>
    <defs>
        <polygon id="path-1" points="35.722 35.89985 35.722 0.0004 0.000294356458 0.0004 0.000294356458 35.89985 35.722 35.89985"></polygon>
    </defs>
    <g id="Pahal--v5---Technical-Assistance" stroke="none" stroke-width="1" fill="none" fill-rule="evenodd" transform="translate(-693.000000, -513.000000)">
        <g id="Page-1-Copy-3" transform="translate(693.000000, 513.000000)">
            <mask id="mask-2" fill="white">
                <use xlink:href="#path-1"></use>
            </mask>
            <g id="Clip-2"></g>
            <path d="M25.0566,8.3926 L28.6756,4.7746 C29.3936,4.2086 30.4316,4.3346 30.9936,5.0556 C31.4636,5.6556 31.4636,6.5006 30.9936,7.1016 L27.3896,10.7186 C26.7446,11.3676 25.7006,11.3686 25.0546,10.7206 C24.4096,10.0746 24.4086,9.0256 25.0526,8.3766 L25.0566,8.3926 Z M24.9486,0.1756 C24.1416,-0.2314 23.1576,0.0926 22.7496,0.9036 C22.7366,0.9306 22.7246,0.9566 22.7116,0.9846 L20.6316,5.8026 C20.2916,6.5936 20.6176,7.5146 21.3766,7.9136 C22.0096,8.2396 22.7786,8.1206 23.2826,7.6186 C23.4316,7.4706 23.5486,7.2936 23.6316,7.1016 L25.6936,2.2866 C26.0336,1.4966 25.7076,0.5766 24.9486,0.1756 Z M33.4726,10.0936 L28.6756,12.1636 C27.8646,12.5626 27.5286,13.5456 27.9256,14.3616 C28.2966,15.1216 29.1836,15.4736 29.9726,15.1746 L34.7706,13.0866 C34.9596,13.0046 35.1326,12.8866 35.2806,12.7396 C35.8986,12.0776 35.8636,11.0386 35.2036,10.4176 C34.7386,9.9816 34.0636,9.8556 33.4726,10.0936 Z M32.4516,22.4036 C33.1206,23.0756 33.1206,24.1656 32.4516,24.8376 C31.7816,25.5106 30.6956,25.5106 30.0256,24.8376 L29.0186,23.8286 L24.0276,26.0546 C25.9036,28.6606 25.3196,32.2986 22.7236,34.1826 C20.4086,35.8616 17.2206,35.5986 15.2076,33.5636 L12.7416,31.0856 L8.1116,33.1516 C8.6276,33.8316 8.5656,34.7906 7.9616,35.3966 C7.2916,36.0676 6.2066,36.0676 5.5356,35.3966 L0.4786,30.3236 C-0.1764,29.6406 -0.1564,28.5526 0.5246,27.8956 C1.1206,27.3186 2.0426,27.2536 2.7136,27.7416 L12.0096,6.7566 L11.0036,5.7466 C10.3346,5.0746 10.3356,3.9856 11.0056,3.3136 C11.3276,2.9926 11.7616,2.8116 12.2146,2.8106 C12.6696,2.8096 13.1076,2.9916 13.4276,3.3156 L32.4516,22.4036 Z M21.0416,27.7076 L20.8186,27.4836 L16.0356,29.6166 L17.5856,31.1716 C18.5396,32.1296 20.0866,32.1296 21.0416,31.1716 C21.9956,30.2136 21.9956,28.6626 21.0416,27.7046 L21.0416,27.7076 Z" id="Fill-1" fill="#093A66" mask="url(#mask-2)"></path>
        </g>
    </g>
</svg>