<svg id="Layer_1" data-name="Layer 1" xmlns="http://www.w3.org/2000/svg" xmlns:xlink="http://www.w3.org/1999/xlink" width="374.5" height="89.4" viewBox="0 0 374.5 89.4">
  <defs>
    <style>
      .cls-1 {
        fill: url(#linear-gradient);
      }

      .cls-2, .cls-4, .cls-5 {
        fill: #fff;
      }

      .cls-2 {
        opacity: 0.3;
      }

      .cls-2, .cls-3, .cls-4 {
        isolation: isolate;
      }

      .cls-4 {
        font-size: 16px;
        font-family: Montserrat-Medium, Montserrat;
      }
    </style>
    <linearGradient id="linear-gradient" x1="405.55" y1="126.36" x2="21.53" y2="-32.27" gradientUnits="userSpaceOnUse">
      <stop offset="0" stop-color="#75c9b9"/>
      <stop offset="1" stop-color="#72bde5"/>
    </linearGradient>
  </defs>
  <title>banner_civil_M0</title>
  <g id="Page-1">
    <g id="UI---Screen-7---v2">
      <g id="Group-2">
        <path id="Path-4" class="cls-1" d="M0,72.4C71,74,112,68.2,210.5,71c58.9,1.7,113.3,7.8,164,18.4V0H0Z"/>
        <rect id="Rectangle-Copy-2" class="cls-2" x="23.5" y="22" width="47" height="7" rx="3.3" ry="3.3"/>
        <rect id="Rectangle-Copy-4" class="cls-2" x="186.5" y="29" width="47" height="7" rx="3.3" ry="3.3"/>
        <path id="Rectangle-Copy-3" class="cls-2" d="M67.8,35h40.5a3.2,3.2,0,0,1,3.2,3.2v.5a3.3,3.3,0,0,1-3.2,3.3H67.8a3.3,3.3,0,0,1-3.2-3.2v-.5A3.3,3.3,0,0,1,67.8,35Z"/>
        <rect id="Rectangle-Copy-5" class="cls-2" x="233.5" y="42" width="47" height="7" rx="3.3" ry="3.3"/>
        <g id="sweep">
          <g id="_" data-name="+" class="cls-3">
            <text class="cls-4" transform="translate(298.5 26)">+</text>
          </g>
          <g id="_-copy" data-name="+-copy" class="cls-3">
            <text class="cls-4" transform="translate(336.5 14)">+</text>
          </g>
        </g>
      </g>
    </g>
  </g>
  <g>
    <g>
      <path class="cls-5" d="M332.8,65.7H314.2a2.4,2.4,0,0,1-2.4-2.4V44.7a.8.8,0,0,1,.8-.8h21.8a.8.8,0,0,1,.8.8V63.3A2.4,2.4,0,0,1,332.8,65.7ZM313.4,45.4V63.3a.7.7,0,0,0,.8.8h18.6a.7.7,0,0,0,.8-.8V45.4Z"/>
      <path class="cls-5" d="M332.8,65.8H314.2a2.5,2.5,0,0,1-2.5-2.5V44.7a.9.9,0,0,1,.9-.9h21.8a.9.9,0,0,1,.9.9V63.3A2.5,2.5,0,0,1,332.8,65.8ZM312.6,44a.7.7,0,0,0-.7.7V63.3a2.3,2.3,0,0,0,2.3,2.3h18.6a2.3,2.3,0,0,0,2.3-2.3V44.7a.7.7,0,0,0-.7-.7Zm20.2,20.2H314.2a.9.9,0,0,1-.9-.9V45.4h20.4V63.3A.9.9,0,0,1,332.8,64.2ZM313.5,45.5V63.3a.7.7,0,0,0,.7.7h18.6a.7.7,0,0,0,.7-.7V45.5Z"/>
    </g>
    <g>
      <path class="cls-5" d="M336,45.4H311.1a.7.7,0,0,1-.8-.7V41.5a.7.7,0,0,1,.8-.7H336a.7.7,0,0,1,.7.7v3.2A.7.7,0,0,1,336,45.4Zm-24.2-1.5h23.4V42.3H311.8Z"/>
      <path class="cls-5" d="M336,45.5H311.1a.9.9,0,0,1-.9-.8V41.5a.9.9,0,0,1,.9-.8H336a.9.9,0,0,1,.8.8v3.2A.9.9,0,0,1,336,45.5Zm-24.9-4.6a.7.7,0,0,0-.7.6v3.2a.8.8,0,0,0,.7.7H336a.8.8,0,0,0,.7-.7V41.5c0-.3-.4-.6-.7-.6ZM335.3,44H311.7V42.2h23.6Zm-23.4-.2h23.2V42.4H311.9Z"/>
    </g>
    <g>
      <path class="cls-5" d="M334.4,42.3H312.6a.8.8,0,0,1-.8-.8V40a11.7,11.7,0,0,1,23.4,0v1.5A.8.8,0,0,1,334.4,42.3Zm-21-1.5h20.2V40a10.1,10.1,0,0,0-20.2,0Z"/>
      <path class="cls-5" d="M334.4,42.4H312.6a.9.9,0,0,1-.9-.9V40a11.8,11.8,0,0,1,23.6,0v1.5A.9.9,0,0,1,334.4,42.4Zm-10.9-14A11.6,11.6,0,0,0,311.9,40v1.5a.7.7,0,0,0,.7.7h21.8a.7.7,0,0,0,.7-.7V40A11.6,11.6,0,0,0,323.5,28.4Zm10.2,12.5H313.3V40a10.2,10.2,0,0,1,20.4,0Zm-20.2-.2h20V40a10,10,0,0,0-20,0Z"/>
    </g>
    <g>
      <path class="cls-5" d="M328.2,56.3h-.4a3.9,3.9,0,0,1-3.5-4v-.6a1.6,1.6,0,0,0-1.6-1.6,1.6,1.6,0,0,0-1.5,1.6,2.3,2.3,0,0,1-2.4,2.3,2.3,2.3,0,0,1-2.3-2.3,1.6,1.6,0,0,0-1.6-1.6,1.6,1.6,0,0,0-1.5,1.6.8.8,0,0,1-1.6,0,3.2,3.2,0,0,1,6.3,0,.7.7,0,0,0,.7.7.7.7,0,0,0,.8-.7,3.1,3.1,0,0,1,6.2,0v.6a2.5,2.5,0,0,0,2.1,2.5,2.6,2.6,0,0,0,1.8-.6,2.5,2.5,0,0,0,.8-1.8V50.9a2.4,2.4,0,0,1,4.7,0,.8.8,0,0,1-1.6,0,.8.8,0,0,0-.8-.8.8.8,0,0,0-.7.8v1.5a3.9,3.9,0,0,1-1.3,2.9A3.7,3.7,0,0,1,328.2,56.3Z"/>
      <path class="cls-5" d="M328.2,56.4h-.4a4.1,4.1,0,0,1-3.6-4.1v-.6a1.5,1.5,0,0,0-1.5-1.5,1.5,1.5,0,0,0-1.4,1.5,2.5,2.5,0,0,1-4.9,0,1.5,1.5,0,0,0-1.5-1.5,1.5,1.5,0,0,0-1.4,1.5.9.9,0,0,1-1.8,0,3.2,3.2,0,0,1,3.2-3.2,3.2,3.2,0,0,1,3.2,3.2.8.8,0,0,0,.7.7.8.8,0,0,0,.7-.7,3.2,3.2,0,0,1,3.2-3.2,3.2,3.2,0,0,1,3.2,3.2v.6a2.4,2.4,0,0,0,2.1,2.4,2.7,2.7,0,0,0,1.7-.6,2.1,2.1,0,0,0,.7-1.7V50.9a2.5,2.5,0,0,1,4.9,0,.9.9,0,0,1-1.8,0,.7.7,0,0,0-.7-.7.7.7,0,0,0-.6.7v1.5a4.2,4.2,0,0,1-1.3,3A3.9,3.9,0,0,1,328.2,56.4ZM322.7,50a1.8,1.8,0,0,1,1.7,1.7v.6a3.9,3.9,0,0,0,3.4,3.9h.4a3.8,3.8,0,0,0,2.5-.9,4.1,4.1,0,0,0,1.3-2.9V50.9a.9.9,0,0,1,.8-.9.9.9,0,0,1,.9.9.7.7,0,0,0,1.4,0,2.3,2.3,0,1,0-4.5,0v1.5a2.3,2.3,0,0,1-.8,1.8,2.6,2.6,0,0,1-1.9.7,2.6,2.6,0,0,1-2.1-2.6v-.6a3.1,3.1,0,1,0-6.1,0,.9.9,0,0,1-.9.8.9.9,0,0,1-.8-.8,3.1,3.1,0,1,0-6.1,0,.7.7,0,1,0,1.4,0,1.7,1.7,0,0,1,1.6-1.7,1.7,1.7,0,0,1,1.7,1.7,2.2,2.2,0,0,0,2.2,2.2,2.2,2.2,0,0,0,2.3-2.2A1.7,1.7,0,0,1,322.7,50Z"/>
    </g>
    <g>
      <path class="cls-5" d="M355.4,26.8H333.6a1.6,1.6,0,0,1-1.5-1.6V17.4a1.5,1.5,0,0,1,1.5-1.5h21.8a1.6,1.6,0,0,1,1.6,1.5v7.8A1.6,1.6,0,0,1,355.4,26.8Zm-21.8-9.4v7.8h21.8V17.4Z"/>
      <path class="cls-5" d="M355.4,26.9H333.6a1.7,1.7,0,0,1-1.6-1.7V17.4a1.6,1.6,0,0,1,1.6-1.6h21.8a1.7,1.7,0,0,1,1.7,1.6v7.8A1.8,1.8,0,0,1,355.4,26.9ZM333.6,16a1.4,1.4,0,0,0-1.4,1.4v7.8a1.5,1.5,0,0,0,1.4,1.5h21.8a1.5,1.5,0,0,0,1.5-1.5V17.4a1.5,1.5,0,0,0-1.5-1.4Zm21.9,9.3h-22v-8h22Zm-21.8-.2h21.6V17.5H333.7Z"/>
    </g>
    <g>
      <path class="cls-5" d="M346.1,34.5a1,1,0,0,1-.8-.5.9.9,0,0,1,.5-1L358,28.7a.8.8,0,0,0,.5-.7V22.9a.7.7,0,0,0-.7-.8h-1.6a.8.8,0,0,1,0-1.6h1.6a2.4,2.4,0,0,1,2.3,2.4V28a2.2,2.2,0,0,1-1.6,2.2l-12.2,4.3Z"/>
      <path class="cls-5" d="M346.1,34.6a.8.8,0,0,1-.8-.5.8.8,0,0,1,0-.7,1.2,1.2,0,0,1,.5-.5L358,28.6a.5.5,0,0,0,.4-.6V22.9a.7.7,0,0,0-.6-.7h-1.6a.9.9,0,1,1,0-1.8h1.6a2.5,2.5,0,0,1,2.4,2.5V28a2.6,2.6,0,0,1-1.6,2.3l-12.2,4.3Zm10.1-14a.7.7,0,1,0,0,1.4h1.6a.9.9,0,0,1,.8.9V28a.8.8,0,0,1-.6.8l-12.1,4.3c-.2.1-.4.2-.4.4a.6.6,0,0,0,.6,1h.2l12.2-4.3A2.3,2.3,0,0,0,360,28V22.9a2.2,2.2,0,0,0-2.2-2.3Z"/>
    </g>
    <g>
      <path class="cls-5" d="M346.1,41.5a.8.8,0,0,1-.8-.7v-7a.8.8,0,1,1,1.6,0v7A.8.8,0,0,1,346.1,41.5Z"/>
      <path class="cls-5" d="M346.1,41.6a.8.8,0,0,1-.9-.8v-7a.9.9,0,1,1,1.8,0v7A.8.8,0,0,1,346.1,41.6Zm0-8.5a.7.7,0,0,0-.7.7v7a.7.7,0,1,0,1.4,0v-7A.7.7,0,0,0,346.1,33.1Z"/>
    </g>
    <g>
      <path class="cls-5" d="M348.4,54h-4.7a.7.7,0,0,1-.7-.8V40.8a.7.7,0,0,1,.7-.8h4.7a.8.8,0,0,1,.8.8V53.2A.8.8,0,0,1,348.4,54Zm-3.9-1.6h3.1V41.5h-3.1Z"/>
      <path class="cls-5" d="M348.4,54.1h-4.7a.9.9,0,0,1-.8-.9V40.8a.9.9,0,0,1,.8-.9h4.7a.9.9,0,0,1,.9.9V53.2A.9.9,0,0,1,348.4,54.1Zm-4.7-14a.7.7,0,0,0-.6.7V53.2a.7.7,0,0,0,.6.7h4.7a.7.7,0,0,0,.7-.7V40.8a.7.7,0,0,0-.7-.7Zm4,12.4h-3.3v-11h3.3Zm-3.1-.1h2.9V41.6h-2.9Z"/>
    </g>
    <g>
      <path class="cls-5" d="M353.1,23.6H338.3a.8.8,0,0,1-.8-.7.8.8,0,0,1,.8-.8h14.8a.8.8,0,0,1,.8.8A.8.8,0,0,1,353.1,23.6Z"/>
      <path class="cls-5" d="M353.1,23.7H338.3a.9.9,0,0,1-.9-.8.9.9,0,0,1,.9-.9h14.8a.9.9,0,0,1,.9.9A.9.9,0,0,1,353.1,23.7Zm-14.8-1.5a.7.7,0,0,0-.7.7.8.8,0,0,0,.7.7h14.8a.8.8,0,0,0,.7-.7.7.7,0,0,0-.7-.7Z"/>
    </g>
    <g>
      <path class="cls-5" d="M336,23.6a.7.7,0,0,1-.6-.2.8.8,0,0,1-.2-.5,1.4,1.4,0,0,1,.2-.6.8.8,0,0,1,1.1,0,.7.7,0,0,1,.2.6c0,.2,0,.4-.2.5S336.2,23.6,336,23.6Z"/>
      <path class="cls-5" d="M336,23.7l-.7-.2a1.4,1.4,0,0,1-.2-.6.8.8,0,0,1,.2-.6.9.9,0,0,1,1.3-.1,1.4,1.4,0,0,1,.2.7,1.4,1.4,0,0,1-.2.6Zm0-1.5-.5.2c-.2.1-.2.3-.2.5a.6.6,0,0,0,.2.5.9.9,0,0,0,1,0,1.7,1.7,0,0,0,.2-.5.5.5,0,0,0-.3-.5Z"/>
    </g>
    <g>
      <path class="cls-5" d="M336,28.3a.7.7,0,0,1-.8-.8V26a.8.8,0,0,1,.8-.8.8.8,0,0,1,.7.8v1.5A.7.7,0,0,1,336,28.3Z"/>
      <path class="cls-5" d="M336,28.4a.9.9,0,0,1-.9-.9V26a.9.9,0,0,1,.9-.9.9.9,0,0,1,.8.9v1.5A.9.9,0,0,1,336,28.4Zm0-3.1a.7.7,0,0,0-.7.7v1.5a.7.7,0,0,0,.7.7.8.8,0,0,0,.7-.7V26A.8.8,0,0,0,336,25.3Z"/>
    </g>
    <g>
      <path class="cls-5" d="M339.1,28.3a.7.7,0,0,1-.8-.8V26a.8.8,0,0,1,.8-.8.9.9,0,0,1,.8.8v1.5A.8.8,0,0,1,339.1,28.3Z"/>
      <path class="cls-5" d="M339.1,28.4a.9.9,0,0,1-.9-.9V26a.9.9,0,0,1,.9-.9.8.8,0,0,1,.8.9v1.5A.8.8,0,0,1,339.1,28.4Zm0-3.1a.7.7,0,0,0-.7.7v1.5a.7.7,0,1,0,1.4,0V26A.7.7,0,0,0,339.1,25.3Z"/>
    </g>
    <g>
      <path class="cls-5" d="M339.1,30.7a.9.9,0,0,1-.6-.3.8.8,0,0,1-.2-.5,1.4,1.4,0,0,1,.2-.6.8.8,0,0,1,1.1,0,.9.9,0,0,1,.3.6,1.2,1.2,0,0,1-.8.8Z"/>
      <path class="cls-5" d="M339.1,30.7c-.2,0-.5,0-.6-.2a.9.9,0,0,1-.3-.6.6.6,0,0,1,.3-.6.7.7,0,0,1,1.2,0c.2.1.2.3.2.6a.7.7,0,0,1-.8.8Zm0-1.5-.5.2a.8.8,0,0,0-.2.5,1.7,1.7,0,0,0,.2.5l.5.2.5-.2a1.7,1.7,0,0,0,.2-.5.8.8,0,0,0-.2-.5Z"/>
    </g>
    <g>
      <path class="cls-5" d="M336,32.2a.7.7,0,0,1-.8-.8V29.9a.7.7,0,0,1,.8-.8.7.7,0,0,1,.7.8v1.5A.7.7,0,0,1,336,32.2Z"/>
      <path class="cls-5" d="M336,32.3a.9.9,0,0,1-.9-.9V29.9a.9.9,0,0,1,.9-.9.9.9,0,0,1,.8.9v1.5A.9.9,0,0,1,336,32.3Zm0-3.1a.7.7,0,0,0-.7.7v1.5a.7.7,0,0,0,.7.7.8.8,0,0,0,.7-.7V29.9A.8.8,0,0,0,336,29.2Z"/>
    </g>
    <g>
      <path class="cls-5" d="M339.1,33l-.6-.2a1.4,1.4,0,0,1-.2-.6.8.8,0,0,1,.2-.5.8.8,0,0,1,1.1,0,.5.5,0,0,1,.3.5.9.9,0,0,1-.3.6Z"/>
      <path class="cls-5" d="M339.1,33.1a1.1,1.1,0,0,1-.9-.9.9.9,0,0,1,.3-.6.9.9,0,0,1,1.2,0,.7.7,0,0,1,.2.6c0,.2,0,.5-.2.6A.9.9,0,0,1,339.1,33.1Zm0-1.6-.5.2c-.1.2-.2.3-.2.5a.8.8,0,0,0,.2.5l.5.2.5-.2a.8.8,0,0,0,.2-.5c0-.2-.1-.3-.2-.5Z"/>
    </g>
    <g>
      <path class="cls-5" d="M342.2,29.9a.9.9,0,0,1-.8-.8V26a.8.8,0,0,1,1.6,0v3.1A.9.9,0,0,1,342.2,29.9Z"/>
      <path class="cls-5" d="M342.2,30a.9.9,0,0,1-.9-.9V26a.9.9,0,0,1,1.8,0v3.1A.9.9,0,0,1,342.2,30Zm0-4.7a.7.7,0,0,0-.7.7v3.1a.7.7,0,1,0,1.4,0V26A.7.7,0,0,0,342.2,25.3Z"/>
    </g>
    <g>
      <path class="cls-5" d="M342.2,32.2l-.6-.2a1.4,1.4,0,0,1-.2-.6.8.8,0,0,1,.2-.5.8.8,0,0,1,1.1,0,.5.5,0,0,1,.3.5.9.9,0,0,1-.3.6Z"/>
      <path class="cls-5" d="M342.2,32.3a.7.7,0,0,1-.6-.3.6.6,0,0,1-.3-.6.9.9,0,0,1,.3-.6.9.9,0,0,1,1.2,0,.9.9,0,0,1,.3.6.6.6,0,0,1-.3.6A.9.9,0,0,1,342.2,32.3Zm0-1.5h-.5l-.2.5a.8.8,0,0,0,.2.5.7.7,0,0,0,1,0,.8.8,0,0,0,.2-.5l-.2-.5Z"/>
    </g>
  </g>
</svg>
