<svg id="Layer_1" data-name="Layer 1" xmlns="http://www.w3.org/2000/svg" xmlns:xlink="http://www.w3.org/1999/xlink" width="374.5" height="89.4" viewBox="0 0 374.5 89.4">
  <defs>
    <style>
      .cls-1 {
        fill: url(#linear-gradient);
      }

      .cls-2, .cls-4, .cls-5 {
        fill: #fff;
      }

      .cls-2 {
        opacity: 0.3;
      }

      .cls-2, .cls-3, .cls-4 {
        isolation: isolate;
      }

      .cls-4 {
        font-size: 16px;
        font-family: Montserrat-Medium, Montserrat;
      }
    </style>
    <linearGradient id="linear-gradient" x1="405.55" y1="126.36" x2="21.53" y2="-32.27" gradientUnits="userSpaceOnUse">
      <stop offset="0" stop-color="#64dcc2"/>
      <stop offset="1" stop-color="#70bce6"/>
    </linearGradient>
  </defs>
  <title>banner_carpentry_C0</title>
  <g id="Page-1">
    <g id="UI---Screen-7---v2">
      <g id="Group-2">
        <path id="Path-4" class="cls-1" d="M0,72.4C71,74,112,68.2,210.5,71c58.9,1.7,113.3,7.8,164,18.4V0H0Z"/>
        <path id="Rectangle-Copy-2" class="cls-2" d="M26.8,22H67.3a3.3,3.3,0,0,1,3.3,3.3v.5A3.3,3.3,0,0,1,67.3,29H26.8a3.2,3.2,0,0,1-3.2-3.2v-.5A3.2,3.2,0,0,1,26.8,22Z"/>
        <rect id="Rectangle-Copy-4" class="cls-2" x="186.5" y="29" width="47" height="7" rx="3.3" ry="3.3"/>
        <rect id="Rectangle-Copy-3" class="cls-2" x="64.5" y="35" width="47" height="7" rx="3.3" ry="3.3"/>
        <rect id="Rectangle-Copy-5" class="cls-2" x="233.5" y="42" width="47" height="7" rx="3.3" ry="3.3"/>
        <g id="sweep">
          <g id="_" data-name="+" class="cls-3">
            <text class="cls-4" transform="translate(298.5 26)">+</text>
          </g>
          <g id="_-copy" data-name="+-copy" class="cls-3">
            <text class="cls-4" transform="translate(336.5 14)">+</text>
          </g>
        </g>
      </g>
    </g>
  </g>
  <g>
    <path class="cls-5" d="M335.5,13.9a25,25,0,1,0,25,25A24.9,24.9,0,0,0,335.5,13.9ZM316.8,53.1V39.3h-3.5V33.2h3.5V24.6a23.3,23.3,0,0,1,13-8.6V33.2h-5.6s.2,5.7,5.6,6.1V61.7A23.3,23.3,0,0,1,316.8,53.1Zm18.7,9.3a20.9,20.9,0,0,1-4.3-.4V15.7a20.9,20.9,0,0,1,4.3-.4,23.6,23.6,0,1,1,0,47.1Z"/>
    <path class="cls-5" d="M335.2,28.1a.3.3,0,0,0-.1.2.4.4,0,0,0-.1.3l.2.4.4.2h.6c0-.2-.1-.3-.2-.5A.6.6,0,0,0,335.2,28.1Z"/>
    <path class="cls-5" d="M342.8,29.2h.5a.9.9,0,0,0-.1-.5.7.7,0,0,0-.9,0v.5a.6.6,0,0,0,.1.4Z"/>
    <path class="cls-5" d="M335.8,51.8a.7.7,0,0,0-.6.1.3.3,0,0,0-.1.2.4.4,0,0,0-.1.3.8.8,0,0,0,.2.4l.4.2h.5a.1.1,0,0,1,.1-.1h0c0-.2-.1-.3-.2-.5Z"/>
    <path class="cls-5" d="M343,51.8a.9.9,0,0,0-.7.1.3.3,0,0,1-.1.2v.3a.6.6,0,0,0,.1.4l.5.2h.4a.1.1,0,0,0,.1-.1h0a.9.9,0,0,0-.1-.5Z"/>
    <path class="cls-5" d="M350.2,31.8a23.6,23.6,0,0,1-3.8,1h-.7V27.4a1.8,1.8,0,0,0-1.8-1.8h-1.2a3.6,3.6,0,0,0-3.5-3,3.5,3.5,0,0,0-3.5,3h-1.3a1.8,1.8,0,0,0-1.8,1.8V53.6a1.8,1.8,0,0,0,1.8,1.7h1.3a3.5,3.5,0,0,0,3.5,3,3.5,3.5,0,0,0,3.5-3h1.2a1.8,1.8,0,0,0,1.8-1.7V36l2.6-.3a23.4,23.4,0,0,1,3.8.3h.6l1.8.2a3.1,3.1,0,0,0,2.5-3.2,2.9,2.9,0,0,0-2.9-2.8,4.8,4.8,0,0,0-1.7.5l-.3.2Zm-5.7,21.8a.6.6,0,0,1-.6.6h-1.7c-.4,0-.6.2-.6.5a2.4,2.4,0,0,1-4.8,0,.6.6,0,0,0-.6-.5h-1.8a.6.6,0,0,1-.6-.6V27.4a.6.6,0,0,1,.6-.6h1.8a.6.6,0,0,0,.6-.6,2.4,2.4,0,0,1,4.8,0,.6.6,0,0,0,.6.6h1.7a.5.5,0,0,1,.6.6v5.5a13.4,13.4,0,0,1-3.5-.4h-.5a3.4,3.4,0,0,0-2.8.1,3.1,3.1,0,0,0-1.4,3.4,3,3,0,0,0,2.9,2.2,3.5,3.5,0,0,0,1.7-.6l.5-.2,2.2-.8.9-.2Zm8-21.5.4-.2,1.2-.4a1.8,1.8,0,0,1,1.7,1.8,1.8,1.8,0,0,1-1.4,1.8,3.2,3.2,0,0,1-1.4-.2h-.7a28.3,28.3,0,0,0-4.1-.3,20.2,20.2,0,0,0-4.9.9l-2.4.8-.5.3-1.2.4a1.7,1.7,0,0,1-1.7-1.3,1.6,1.6,0,0,1,.8-2,.8.8,0,0,1,.8-.2,2.3,2.3,0,0,1,1.1.2h.5a17.5,17.5,0,0,0,4.6.4h1.2a19.1,19.1,0,0,0,4.1-1.1Z"/>
  </g>
</svg>
