<svg id="Layer_1" data-name="Layer 1" xmlns="http://www.w3.org/2000/svg" xmlns:xlink="http://www.w3.org/1999/xlink" width="70" height="70" viewBox="0 0 70 70">
  <defs>
    <style>
      .cls-1 {
        fill: none;
      }

      .cls-2 {
        fill: #f6f6f6;
      }

      .cls-3 {
        clip-path: url(#clip-path);
      }

      .cls-4 {
        fill: url(#linear-gradient);
      }

      .cls-5 {
        fill: url(#linear-gradient-2);
      }

      .cls-6 {
        fill: url(#linear-gradient-3);
      }

      .cls-7 {
        fill: url(#linear-gradient-4);
      }

      .cls-8 {
        fill: url(#linear-gradient-5);
      }

      .cls-9 {
        fill: url(#linear-gradient-6);
      }

      .cls-10 {
        fill: url(#linear-gradient-7);
      }

      .cls-11 {
        fill: url(#linear-gradient-8);
      }

      .cls-12 {
        fill: url(#linear-gradient-9);
      }

      .cls-13 {
        fill: url(#linear-gradient-10);
      }

      .cls-14 {
        fill: url(#linear-gradient-11);
      }
    </style>
    <clipPath id="clip-path">
      <rect class="cls-1" x="10" y="10" width="50" height="50"/>
    </clipPath>
    <linearGradient id="linear-gradient" x1="49.68" y1="67.58" x2="-3.89" y2="-0.1" gradientUnits="userSpaceOnUse">
      <stop offset="0" stop-color="#75c9b9"/>
      <stop offset="1" stop-color="#72bde5"/>
    </linearGradient>
    <linearGradient id="linear-gradient-2" x1="53.94" y1="64.21" x2="0.36" y2="-3.47" xlink:href="#linear-gradient"/>
    <linearGradient id="linear-gradient-3" x1="44.98" y1="71.3" x2="-8.59" y2="3.62" xlink:href="#linear-gradient"/>
    <linearGradient id="linear-gradient-4" x1="56.13" y1="62.48" x2="2.55" y2="-5.2" xlink:href="#linear-gradient"/>
    <linearGradient id="linear-gradient-5" x1="45.74" y1="70.7" x2="-7.83" y2="3.02" xlink:href="#linear-gradient"/>
    <linearGradient id="linear-gradient-6" x1="36.78" y1="77.79" x2="-16.79" y2="10.11" xlink:href="#linear-gradient"/>
    <linearGradient id="linear-gradient-7" x1="62.95" y1="57.08" x2="9.38" y2="-10.6" xlink:href="#linear-gradient"/>
    <linearGradient id="linear-gradient-8" x1="65.33" y1="55.19" x2="11.76" y2="-12.48" xlink:href="#linear-gradient"/>
    <linearGradient id="linear-gradient-9" x1="61.09" y1="58.55" x2="7.52" y2="-9.13" xlink:href="#linear-gradient"/>
    <linearGradient id="linear-gradient-10" x1="60.03" y1="59.39" x2="6.46" y2="-8.29" xlink:href="#linear-gradient"/>
    <linearGradient id="linear-gradient-11" x1="58.41" y1="60.67" x2="4.84" y2="-7.01" xlink:href="#linear-gradient"/>
  </defs>
  <title>icon_civil_M0</title>
  <path id="Rectangle" class="cls-2" d="M3,0H67a2.9,2.9,0,0,1,3,3V67a2.9,2.9,0,0,1-3,3H3a2.9,2.9,0,0,1-3-3V3A2.9,2.9,0,0,1,3,0Z"/>
  <g class="cls-3">
    <g>
      <path class="cls-4" d="M16.3,58.6a8.1,8.1,0,0,1-.6-6.4,9.4,9.4,0,0,1,.6-1.5l1-1.4a16.9,16.9,0,0,1,5.3-4.1l1.1-.6.5-.2h.1l.8-.2a29.5,29.5,0,0,0,4.5-1.8,16.2,16.2,0,0,0,2.8-2,15.1,15.1,0,0,0,4.1-6.4c.1-.5.3-1,.4-1.5a35.3,35.3,0,0,0,.5-3.8v-.3c.1-.5.1-.9.2-1.4a7.7,7.7,0,0,1,.2-1.5l.3-1.4a21.9,21.9,0,0,1,1.5-4.1,6.4,6.4,0,0,1,.8-1.4,10.9,10.9,0,0,1,.8-1.5l1-1.3.2-.3L43.6,14a28.8,28.8,0,0,1,2.6-2.5,20.3,20.3,0,0,1,2-1.4l.2-.2-.7-1.2a20.5,20.5,0,0,0-2,1.4H41.9v3.6L41,14.8l-.6.8c0,.1-.1.1-.1.2V10.1H23.6V17H39.5a10.9,10.9,0,0,0-.8,1.5H33.8v6.9h2.5c-.1.5-.1,1-.2,1.5H23.6v7H35a13.7,13.7,0,0,1-2.6,4.3V35.3H15.7v7H26l-1.3.4-1.2.4-.4.2-.8.5H5.5v6.9h9.2l-.4,1c0,.2-.1.3-.1.4H-1.6v7H15a1.4,1.4,0,0,0,.2.6l.2.4H63.6V58.6ZM44,11.5l-.4.4-.3.3v-.7Zm-5.1,4.1H25V11.5H38.9ZM35.2,24V19.9H38A21.9,21.9,0,0,0,36.6,24ZM25,32.4V28.3H36v.2a20,20,0,0,1-.6,3.9Zm-7.9,8.4V36.7H31v2.9a9.4,9.4,0,0,1-1.8,1.2ZM6.9,49.3V45.2h13a15.4,15.4,0,0,0-4.4,4.1Zm6.7,8.4H-.2V53.6H13.6Z"/>
      <path class="cls-5" d="M22.2,10.1H5.5V17H22.2Zm-1.5,5.5H6.9V11.5H20.7Z"/>
      <path class="cls-6" d="M14.3,18.5H-2.4v6.9H14.3ZM12.8,24H-1V19.9H12.8Z"/>
      <path class="cls-7" d="M32.4,18.5H15.7v6.9H32.4ZM31,24H17.1V19.9H31Z"/>
      <path class="cls-8" d="M5.5,33.9H22.2v-7H5.5Zm1.4-5.6H20.7v4.1H6.9Z"/>
      <path class="cls-9" d="M14.3,35.3H-2.4v7H14.3Zm-1.5,5.5H-1V36.7H12.8Z"/>
      <path class="cls-10" d="M38.9,30.2v5.5a1.2,1.2,0,0,0,1.2,1.2h1v.5a.6.6,0,0,0,.6.6.7.7,0,0,0,.7-.6v-.5h.9v.5a.6.6,0,0,0,.6.6.7.7,0,0,0,.7-.6v-.5h.9v1.6a.6.6,0,0,0,.6.6.7.7,0,0,0,.7-.6V36.9h8.7a1.2,1.2,0,0,0,1.2-1.2V33.6h.5a.5.5,0,0,1,.4.5v3.6c0,.2-.1.4-.3.4l-8.6,3.1h-.4c0,.1-.1.1-.1.2h0v4.3h-1a.7.7,0,0,0-.6.7v8.8a.6.6,0,0,0,.6.6h3.3a.7.7,0,0,0,.7-.6V46.8a.7.7,0,0,0-.7-.7h-1V42.2l8.2-2.9a1.7,1.7,0,0,0,1.2-1.6V34.1a1.8,1.8,0,0,0-1.7-1.8h-.5V30.2A1.2,1.2,0,0,0,55.5,29H40.1A1.2,1.2,0,0,0,38.9,30.2ZM55.4,33v2.6H40.2V30.3H55.4V33ZM49.9,54.9h-2V47.4h2Z"/>
      <path class="cls-11" d="M53.8,33.4H43.4a.7.7,0,0,0-.7.7.7.7,0,0,0,.7.6H53.8a.7.7,0,0,0,.7-.6A.7.7,0,0,0,53.8,33.4Z"/>
      <path class="cls-12" d="M41.3,33.6c-.2.1-.2.3-.2.5a.4.4,0,0,0,.2.4l.4.2.5-.2a.6.6,0,0,0,0-.9A.7.7,0,0,0,41.3,33.6Z"/>
      <path class="cls-13" d="M43.5,38.6a.4.4,0,0,0-.2.4c0,.2,0,.4.2.5l.4.2.5-.2a.6.6,0,0,0,0-.9A.6.6,0,0,0,43.5,38.6Z"/>
      <path class="cls-14" d="M41.7,38.4a.6.6,0,0,0-.6.6v1.1a.7.7,0,0,0,.6.7.7.7,0,0,0,.7-.7V39A.7.7,0,0,0,41.7,38.4Z"/>
    </g>
  </g>
</svg>
