<svg id="Layer_1" data-name="Layer 1" xmlns="http://www.w3.org/2000/svg" xmlns:xlink="http://www.w3.org/1999/xlink" width="70" height="70" viewBox="0 0 70 70">
  <defs>
    <style>
      .cls-1 {
        fill: #f6f6f6;
      }

      .cls-2 {
        fill: url(#linear-gradient);
      }

      .cls-3 {
        fill: url(#linear-gradient-2);
      }

      .cls-4 {
        fill: url(#linear-gradient-3);
      }

      .cls-5 {
        fill: url(#linear-gradient-4);
      }

      .cls-6 {
        fill: url(#linear-gradient-5);
      }
    </style>
    <linearGradient id="linear-gradient" x1="47.8" y1="82.99" x2="-1.2" y2="0.32" gradientUnits="userSpaceOnUse">
      <stop offset="0" stop-color="#75c9b9"/>
      <stop offset="1" stop-color="#72bde5"/>
    </linearGradient>
    <linearGradient id="linear-gradient-2" x1="52.26" y1="80.34" x2="3.26" y2="-2.33" xlink:href="#linear-gradient"/>
    <linearGradient id="linear-gradient-3" x1="56.57" y1="77.79" x2="7.57" y2="-4.88" xlink:href="#linear-gradient"/>
    <linearGradient id="linear-gradient-4" x1="55.29" y1="78.55" x2="6.29" y2="-4.12" xlink:href="#linear-gradient"/>
    <linearGradient id="linear-gradient-5" x1="56.93" y1="77.57" x2="7.93" y2="-5.09" xlink:href="#linear-gradient"/>
  </defs>
  <title>icon_housekeeping_H0</title>
  <path id="Rectangle" class="cls-1" d="M3,0H67a2.9,2.9,0,0,1,3,3V67a2.9,2.9,0,0,1-3,3H3a2.9,2.9,0,0,1-3-3V3A2.9,2.9,0,0,1,3,0Z"/>
  <g>
    <path class="cls-2" d="M10,24.7h4.1l.2-.2h.4v-.2h0v-.2h-.2v-.2h.1v-.2h.1v-.2h0v-.2H10v.3h0v.4h0v.4h0v.4h0v.4h0v.9h0v.2h0v.4Zm3.2-1.3h.1V24H11.5v-.2h0v-.2h1.7Zm-1.7-1.8v-.2h0v-.2h0Z"/>
    <polygon class="cls-3" points="20.5 22.7 20.5 22.6 20.5 22.2 20.5 22.1 20.5 21.7 20.5 21.6 20.5 21.2 20.5 21.1 20.5 20.7 20.5 20.6 20.5 20.3 20.5 20.2 20.5 20.1 20.4 20 20.3 20 20.3 20 20.2 20 19.8 20 19.7 20 19.3 20 19.2 20 19.1 20 19.1 20.1 19 20.2 19 20.7 19 20.8 19.1 21.3 19.1 21.4 19 21.9 19 21.9 19 22 18.9 22 18.9 22 18.7 22 18.3 22 17.8 22 17.7 22 17.5 22.1 17.4 22.1 17.2 22 17.2 22 17.1 22 17.1 22 17.1 21.9 17.1 21.3 17.1 20.8 17.1 20.7 17.1 20.3 17.1 20.2 17.1 20.2 17.1 20.1 17.1 20 17 20 16.8 20 16.7 20 16.4 20 16.3 20 16 20 15.9 20 15.8 20 15.7 20 15.6 20.1 15.6 20.2 15.6 20.3 15.6 20.6 15.6 20.7 15.6 21.1 15.6 21.2 15.6 21.6 15.6 21.7 15.6 22.2 15.6 22.6 15.6 22.7 15.6 23.1 15.6 23.2 15.6 23.6 15.6 23.7 15.6 24.1 15.6 24.7 15.6 25 15.6 25.1 15.6 25.1 15.6 25.2 15.7 25.3 15.7 25.3 15.8 25.3 15.9 25.3 16 25.3 16.3 25.3 16.4 25.3 16.7 25.3 16.9 25.3 17 25.3 17.1 25.3 17.1 25.2 17.2 25.1 17.2 25 17.1 24.7 17.1 24.5 17.1 24.1 17.1 23.9 17.1 23.5 17.1 23.4 17.2 23.3 17.2 23.3 17.3 23.3 17.7 23.3 18.3 23.3 18.4 23.3 18.7 23.3 18.9 23.3 19 23.3 19 23.4 19 23.5 19 23.9 19 24.1 19 24.5 19 24.7 19 25.1 19.1 25.2 19.1 25.3 19.2 25.3 19.3 25.3 19.7 25.3 19.8 25.3 20.2 25.3 20.3 25.3 20.4 25.3 20.5 25.2 20.5 25.1 20.5 25 20.5 24.9 20.5 24.7 20.5 24.6 20.5 24.1 20.5 23.7 20.5 23.6 20.5 23.2 20.5 23.1 20.5 22.7"/>
    <polygon class="cls-4" points="23.1 24.3 23.1 23.8 23.1 23.7 23.1 23.7 23.2 23.7 23.2 23.7 23.3 23.8 23.5 24.1 23.6 24.2 23.9 24.5 23.9 24.6 24.2 24.9 24.2 25 24.5 25.3 24.6 25.3 24.6 25.3 25.1 25.3 25.2 25.3 25.7 25.3 25.8 25.3 26.2 25.3 26.3 25.3 26.4 25.3 26.4 25.3 26.4 25.2 26.4 25.2 26 24.8 26 24.7 25.7 24.4 25.6 24.3 25.3 24 25.2 23.9 24.9 23.6 24.8 23.5 24.5 23.1 24.4 23.1 24.2 22.7 24.1 22.6 24.1 22.6 24.1 22.5 24.2 22.5 24.3 22.4 24.4 22.2 24.5 22.1 24.8 21.8 24.9 21.7 25.1 21.4 25.2 21.3 25.5 21 25.6 20.9 25.8 20.6 25.9 20.5 26.2 20.2 26.2 20.1 26.2 20.1 26.2 20.1 26.2 20 26.1 20 25.8 20 25.7 20 25.4 20 25 20 24.9 20 24.5 20 24.5 20 24.4 20.1 24.1 20.4 24.1 20.5 23.8 20.8 23.4 21.3 23.2 21.6 23.1 21.6 23.1 21.6 23.1 21.5 23.1 21.2 23.1 21 23 20.7 23 20.5 23.1 20.3 23.1 20.2 23.1 20.1 23 20.1 23 20 22.9 20 22.6 20 22.5 20 22.1 20 22 20 21.8 20 21.7 20 21.6 20 21.6 20.1 21.6 20.2 21.6 20.6 21.6 20.7 21.6 21.6 21.6 21.7 21.6 22.1 21.6 22.2 21.6 22.6 21.6 23.1 21.6 23.2 21.5 23.6 21.5 23.8 21.5 24.3 21.6 24.7 21.6 24.8 21.5 25 21.5 25.1 21.6 25.2 21.6 25.3 21.6 25.3 21.6 25.3 22 25.3 22.1 25.3 22.5 25.3 22.7 25.3 22.9 25.3 23 25.3 23.1 25.3 23.1 25.2 23.1 25.1 23.1 25 23.1 24.8 23.1 24.7 23.1 24.3"/>
    <path class="cls-5" d="M20.7,17.1h.1V15.7h0v-.2H20v-.9h0V10.6H17.8l-.4.5h-.3l-.2.2v.2l-.5.4h-.1l-.4.5h-.1l-.4.5h-.1l-.4.4v.2l-.5.4h-.1l-.3.5h-.2V17h4v.2h.1v.7h0v.2H20v-.2h0v-.6h0v-.2h.6Zm-2.8-2.7V15H16.3l.3-.4h.2l.3-.5h.1l.4-.4h.3Z"/>
    <path class="cls-6" d="M58.8,35.8h-.7a3.2,3.2,0,0,0-1-1.9,4.2,4.2,0,0,0-1.6-.9,3.3,3.3,0,0,0-1-1.4,3.9,3.9,0,0,0-2.9-1.3h-.5a4,4,0,0,0-3.9-2.8,4.1,4.1,0,0,0-3.7,2.3,3.3,3.3,0,0,0-6.3,1.4,3.1,3.1,0,0,0-2.4,2.5H31.4V27.5a.8.8,0,0,0-.8-.7.7.7,0,0,0-.7.7V48.4h-.4V18.1h.4v6.1a.7.7,0,0,0,.7.7.8.8,0,0,0,.8-.7V11a1.3,1.3,0,0,0-1.3-1.2h-.9A1.3,1.3,0,0,0,28,11V33.8h-.5A1.2,1.2,0,0,0,26.3,35v3.9a1.2,1.2,0,0,0,1.2,1.3H28v8.2h-.1a1.2,1.2,0,0,0-1.2,1.2v2.5H24a1.3,1.3,0,0,0-1.2,1.3v1.3h-2a2.2,2.2,0,0,0-2.2,2.2,2.1,2.1,0,0,0,.9,1.7l-.3.3a1.1,1.1,0,0,0,0,1.1l.6.2.5-.2.9-1h.5a.9.9,0,0,0,0,1l.6.2.5-.2.9-1h.5a.9.9,0,0,0,0,1l.6.2.5-.2.9-1h.5a.9.9,0,0,0,0,1l.6.2.5-.2.9-1h.4v.5a.7.7,0,0,0,.7.7.7.7,0,0,0,.8-.7V59H31l.9,1,.5.2L33,60a.9.9,0,0,0,0-1h.5l.9,1,.5.2.6-.2a.9.9,0,0,0,0-1H36l.9,1,.5.2L38,60a.9.9,0,0,0,0-1h.5l.9,1,.5.2.6-.2a1.1,1.1,0,0,0,0-1.1l-.5-.4.5-.6H46a.7.7,0,0,0,.7-.7.7.7,0,0,0-.7-.8H40.7a2.2,2.2,0,0,0-2.1-1.7h-2V53.4a1.3,1.3,0,0,0-1.3-1.3H32.7V49.6a1.2,1.2,0,0,0-1.2-1.2h-.1V40.2H56.3L54.5,50.4l-9.2-4.9a4,4,0,0,0-4-3.8,4,4,0,0,0,0,7.9,3.2,3.2,0,0,0,2-.6l10.4,5.5L53.4,56a.4.4,0,0,1-.4.4H49.9a.7.7,0,0,0-.7.8.7.7,0,0,0,.7.7H53a2,2,0,0,0,1.9-1.6l.2-1.4a2,2,0,0,0,1.6-1,2.2,2.2,0,0,0-.8-2.8h-.1l2-10.9h1A1.3,1.3,0,0,0,60,38.9V37.1A1.3,1.3,0,0,0,58.8,35.8ZM29.5,11.3h.4v5.3h-.4ZM28.1,49.8h3.1v2.3H28.1Zm-.4-14.6H28v1.4h-.3Zm0,3.5v-.6H28v.6Zm7.4,14.9v1.1h-.9a.8.8,0,0,0-.7.8.7.7,0,0,0,.7.7h4.4a.7.7,0,1,1,0,1.4H20.8a.7.7,0,1,1,0-1.4h9.6a.7.7,0,0,0,.7-.7.8.8,0,0,0-.7-.8H24.3V53.6Zm6.2-5.5a2.5,2.5,0,0,1,0-4.9,2.5,2.5,0,0,1,2.2,1.4l-.8-.5-.9-.2A2,2,0,0,0,40,45a1.9,1.9,0,0,0-.1,1.5,2.2,2.2,0,0,0,.9,1.2l.8.4Zm14.1,5.1-.5.2h-.2l-13.2-7c-.1-.1-.2-.2-.2-.3s-.1-.3,0-.4a.5.5,0,0,1,.5-.3H42l13.2,7A.8.8,0,0,1,55.4,53.2ZM51.6,31.8a2.7,2.7,0,0,1,2.6,2.1.8.8,0,0,0,.7.5,2.7,2.7,0,0,1,1.2.6,2.2,2.2,0,0,1,.5.8h-3A2.8,2.8,0,0,0,51,33.9h-.5a2.7,2.7,0,0,0-.7-1.3A2.5,2.5,0,0,1,51.6,31.8ZM47.2,29a2.7,2.7,0,0,1,2.5,1.8,2.5,2.5,0,0,0-1,.8l-.3.2h-.7a2.7,2.7,0,0,0-1.7.6,2.8,2.8,0,0,0-1.4-1.2A2.8,2.8,0,0,1,47.2,29Zm-9.4,3.7H38a1.7,1.7,0,0,1,1.2.5.8.8,0,0,0,1-.1.7.7,0,0,0,0-1,3.7,3.7,0,0,0-1.5-.8,1.8,1.8,0,1,1,3.6,0v.2a.8.8,0,0,0,.2.6c.2.2.4.3.6.2h.2A1.8,1.8,0,0,1,45,33.5a4.3,4.3,0,0,0-.2,1.2.7.7,0,0,0,.7.7.8.8,0,0,0,.8-.7,1.1,1.1,0,0,1,.2-.8.1.1,0,0,1,.1-.1,1.3,1.3,0,0,1,1.1-.6,1.5,1.5,0,0,1,1.5,1.5.7.7,0,0,0,.7.7H51a1.3,1.3,0,0,1,.9.4H41.7V35a1.2,1.2,0,0,0-1.2-1.2H36.3A1.9,1.9,0,0,1,37.8,32.7Zm-6.4,2.5h8.8v1.4H31.4Zm27.1,3.5H31.4v-.6h9.1a1.2,1.2,0,0,0,1.1-.8H58.5Z"/>
  </g>
</svg>
