<svg id="Layer_1" data-name="Layer 1" xmlns="http://www.w3.org/2000/svg" xmlns:xlink="http://www.w3.org/1999/xlink" width="70" height="70" viewBox="0 0 70 70">
  <defs>
    <style>
      .cls-1 {
        fill: #f6f6f6;
      }

      .cls-2 {
        fill: url(#linear-gradient);
      }

      .cls-3 {
        fill: url(#linear-gradient-2);
      }

      .cls-4 {
        fill: url(#linear-gradient-3);
      }

      .cls-5 {
        fill: url(#linear-gradient-4);
      }

      .cls-6 {
        fill: url(#linear-gradient-5);
      }

      .cls-7 {
        fill: url(#linear-gradient-6);
      }
    </style>
    <linearGradient id="linear-gradient" x1="58.56" y1="80.25" x2="13.56" y2="-6.75" gradientUnits="userSpaceOnUse">
      <stop offset="0" stop-color="#75c9b9"/>
      <stop offset="1" stop-color="#72bde5"/>
    </linearGradient>
    <linearGradient id="linear-gradient-2" x1="44.99" y1="87.27" x2="-0.01" y2="0.27" xlink:href="#linear-gradient"/>
    <linearGradient id="linear-gradient-3" x1="49.74" y1="84.81" x2="4.74" y2="-2.19" xlink:href="#linear-gradient"/>
    <linearGradient id="linear-gradient-4" x1="54.34" y1="82.43" x2="9.34" y2="-4.57" xlink:href="#linear-gradient"/>
    <linearGradient id="linear-gradient-5" x1="52.78" y1="83.24" x2="7.78" y2="-3.76" xlink:href="#linear-gradient"/>
    <linearGradient id="linear-gradient-6" x1="56.57" y1="81.28" x2="11.57" y2="-5.72" xlink:href="#linear-gradient"/>
  </defs>
  <title>icon_housekeeping_H0</title>
  <path id="Rectangle" class="cls-1" d="M3,0H67a2.9,2.9,0,0,1,3,3V67a2.9,2.9,0,0,1-3,3H3a2.9,2.9,0,0,1-3-3V3A2.9,2.9,0,0,1,3,0Z"/>
  <g>
    <polygon class="cls-2" points="21.3 13.1 22.7 13.1 22.7 14.6 24.2 14.6 24.2 13.1 25.6 13.1 25.6 11.7 24.2 11.7 24.2 10.2 22.7 10.2 22.7 11.7 21.3 11.7 21.3 13.1"/>
    <path class="cls-3" d="M10,25.7h4.6v-.2h.1v-.4h0v-.2h-.1V24h-.3v-.2h.1V23h0v-.2h0v-.2h-.1v-.2H10v.4h0V22h0v.4h0v2h0v.2h0v.4Zm3.2-1.4H11.5v-.2h1.7Zm-1.7-1.8v-.2h1.7v.2H11.5Z"/>
    <polygon class="cls-4" points="17.2 24.3 17.2 24.2 17.3 24.2 17.7 24.3 18.3 24.3 18.4 24.3 18.7 24.2 18.9 24.2 19 24.3 19 24.3 19 24.4 19 24.9 19 25 19 25.5 19 25.6 19.1 26.1 19.1 26.2 19.1 26.3 19.2 26.3 19.3 26.3 19.7 26.2 19.8 26.2 20.2 26.3 20.4 26.3 20.4 26.2 20.5 26.2 20.5 26.1 20.5 26 20.5 25.9 20.5 25.7 20.5 25.6 20.5 25.1 20.5 24.7 20.5 24.6 20.5 24.2 20.5 24.1 20.5 23.7 20.5 23.6 20.6 23.2 20.6 23.1 20.5 22.7 20.5 22.5 20.5 22.2 20.5 22 20.5 21.6 20.5 21.5 20.5 21.2 20.5 21.1 20.5 21 20.5 21 20.4 20.9 20.3 20.9 20.2 20.9 19.8 21 19.7 21 19.3 20.9 19.2 20.9 19.1 21 19.1 21 19 21.1 19.1 21.6 19.1 21.7 19.1 22.2 19.1 22.3 19 22.8 19 22.9 19 22.9 18.9 23 18.9 23 18.8 23 18.3 23 17.9 23 17.7 23 17.5 23 17.4 23 17.3 23 17.2 23 17.2 23 17.1 22.9 17.1 22.8 17.1 22.2 17.1 21.7 17.1 21.6 17.2 21.3 17.2 21.2 17.2 21.1 17.1 21 17.1 21 17 21 16.9 20.9 16.7 20.9 16.4 21 16.3 21 16 21 15.9 21 15.8 21 15.7 21 15.6 21 15.6 21.1 15.6 21.3 15.6 21.5 15.7 21.6 15.7 22 15.7 22.2 15.6 22.5 15.6 22.7 15.6 23.2 15.6 23.6 15.6 23.7 15.7 24.1 15.7 24.2 15.6 24.6 15.6 24.7 15.6 25.1 15.6 25.7 15.6 25.9 15.6 26 15.6 26.1 15.6 26.2 15.7 26.2 15.7 26.2 15.8 26.3 15.9 26.3 16 26.3 16.3 26.2 16.4 26.3 16.8 26.3 16.9 26.3 17 26.3 17.1 26.3 17.1 26.2 17.2 26.1 17.2 25.9 17.1 25.6 17.1 25.5 17.1 25 17.1 24.9 17.1 24.4 17.1 24.3 17.2 24.3"/>
    <polygon class="cls-5" points="23.1 25.2 23.1 24.7 23.1 24.6 23.2 24.6 23.2 24.6 23.2 24.7 23.3 24.8 23.5 25.1 23.6 25.2 23.9 25.4 24 25.5 24.2 25.8 24.3 25.9 24.5 26.2 24.6 26.3 24.7 26.3 25.1 26.3 25.3 26.3 25.7 26.3 25.8 26.3 26.2 26.3 26.3 26.3 26.4 26.3 26.4 26.2 26.4 26.2 26.4 26.1 26.1 25.8 26 25.7 25.7 25.4 25.6 25.3 25.3 24.9 25.2 24.9 24.9 24.5 24.9 24.4 24.6 24.1 24.5 24 24.2 23.6 24.1 23.6 24.1 23.5 24.2 23.5 24.2 23.4 24.3 23.3 24.5 23.2 24.6 23.1 24.8 22.8 24.9 22.7 25.2 22.4 25.2 22.3 25.5 21.9 25.6 21.9 25.9 21.5 25.9 21.4 26.2 21.1 26.3 21.1 26.3 21 26.3 21 26.2 21 26.1 21 25.9 21 25.7 21 25.5 21 25 21 24.9 21 24.6 21 24.5 21 24.4 21.1 24.2 21.3 24.1 21.4 23.9 21.8 23.5 22.2 23.2 22.5 23.2 22.6 23.1 22.6 23.1 22.5 23.1 22.1 23.1 22 23.1 21.6 23.1 21.5 23.1 21.2 23.1 21.1 23.1 21.1 23.1 21 23 21 22.9 21 22.6 21 22.5 21 22.2 21 22 21 21.8 21 21.7 21 21.6 21 21.6 21 21.6 21.1 21.6 21.5 21.6 21.6 21.6 22.5 21.6 22.6 21.6 23.1 21.6 23.2 21.6 23.6 21.6 24.1 21.6 24.2 21.6 24.6 21.6 24.7 21.6 25.2 21.6 25.6 21.6 25.8 21.6 25.9 21.6 26.1 21.6 26.2 21.6 26.2 21.6 26.3 21.7 26.3 22 26.3 22.2 26.3 22.5 26.3 22.7 26.3 22.9 26.3 23 26.3 23.1 26.2 23.1 26.2 23.1 26 23.1 25.9 23.1 25.8 23.1 25.6 23.1 25.2"/>
    <polygon class="cls-6" points="16.5 13.6 16.6 13.5 16.7 13.4 16.9 13.4 17.1 13.4 17.6 13.5 18.4 13.5 19.3 13.5 19.5 13.5 19.9 13.5 20.1 13.5 20.2 13.5 20.3 13.4 20.4 13.3 20.4 13.2 20.5 13 20.5 12.8 20.5 12.5 20.5 12.1 20.5 12 20.5 11.9 20.5 11.7 20.4 11.7 20.3 11.6 20.2 11.6 19.9 11.6 19.5 11.6 18.6 11.6 17.9 11.6 16.9 11.6 16.3 11.6 16.1 11.6 15.5 11.6 15.3 11.6 14.9 11.6 14.6 11.6 14.5 11.6 14.4 11.7 14.4 11.9 14.4 12 14.4 12.2 14.4 12.5 14.4 12.7 14.4 13.4 14.4 13.6 14.4 14.2 14.4 14.4 14.4 15.1 14.4 15.2 14.4 15.9 14.4 16.1 14.5 16.1 14.6 16.2 16 16.2 16.1 16.2 16.9 16.2 17.1 16.2 17.5 16.2 17.6 16.2 17.9 16.2 18.1 16.2 18.2 16.3 18.4 16.4 18.5 16.6 18.6 16.7 18.6 16.8 18.7 16.9 18.7 17.1 18.6 17.3 18.6 17.5 18.4 17.7 18.2 17.8 18.1 17.8 17.9 17.9 17.6 17.9 17.5 17.9 17.2 17.9 17.1 17.8 16.9 17.8 16.8 17.7 16.7 17.6 16.5 17.4 16.5 17.2 16.4 17.1 16.3 17 16.2 17 15.9 17 15.4 17 15.3 17 14.8 17 14.5 17 14.4 17 14.3 17.1 14.3 17.2 14.3 17.4 14.3 17.6 14.4 17.9 14.4 18 14.5 18.2 14.6 18.4 14.7 18.5 14.8 18.7 14.9 18.9 15.1 19 15.2 19.1 15.4 19.2 15.6 19.4 15.8 19.4 15.9 19.5 16.1 19.5 16.4 19.6 16.5 19.6 16.9 19.6 17.1 19.7 17.3 19.7 17.5 19.7 17.7 19.7 17.9 19.7 18.1 19.7 18.3 19.7 18.5 19.7 18.7 19.6 18.8 19.5 19.1 19.5 19.2 19.4 19.4 19.3 19.6 19.2 19.7 19.1 20.1 18.9 20.2 18.7 20.5 18.4 20.6 18.3 20.6 18.1 20.8 17.9 20.8 17.8 20.8 17.5 20.9 17.3 20.9 17.2 20.9 17 20.9 16.8 20.8 16.6 20.8 16.3 20.7 16.2 20.7 15.9 20.6 15.7 20.5 15.6 20.4 15.4 20.3 15.3 19.9 15 19.8 14.9 19.6 14.8 19.5 14.7 19.2 14.6 19.1 14.6 18.7 14.5 18.4 14.5 18.3 14.4 17.9 14.4 17.6 14.4 17.5 14.4 16.8 14.4 16.7 14.4 16.5 14.3 16.5 14.2 16.5 14 16.5 13.7 16.5 13.6"/>
    <path class="cls-7" d="M18.5,56.9a2.1,2.1,0,0,0,1,1.8l-.3.3a.7.7,0,0,0,0,1c.1.2.3.2.5.2s.4,0,.5-.2l1-.9h.4a.6.6,0,0,0,.1.9c.1.2.3.2.5.2s.4,0,.5-.2l1-.9h.4a.6.6,0,0,0,.1.9c.1.2.3.2.5.2s.4,0,.5-.2l1-.9h.4a.6.6,0,0,0,.1.9c.1.2.3.2.5.2s.4,0,.5-.2l1-.9h.4v.4a.7.7,0,0,0,1.4,0v-.4h.4l1,.9c.1.2.3.2.5.2s.4,0,.5-.2a.6.6,0,0,0,.1-.9h.4l1,.9c.1.2.3.2.5.2s.4,0,.5-.2a.6.6,0,0,0,.1-.9h.4l1,.9c.1.2.3.2.5.2s.4,0,.5-.2a.6.6,0,0,0,.1-.9h.4l1,.9c.1.2.3.2.5.2s.4,0,.5-.2a.7.7,0,0,0,0-1l-.4-.5a1,1,0,0,0,.5-.6h5.4a.7.7,0,1,0,0-1.4H40.7a2.1,2.1,0,0,0-2.1-1.7H36.5V53.4a1.2,1.2,0,0,0-1.2-1.2H32.7V49.6a1.3,1.3,0,0,0-1.3-1.2h-.1V40.2h25L54.4,50.4l-9.2-4.9a3.9,3.9,0,0,0-7.8.2,3.9,3.9,0,0,0,3.9,3.9,3.6,3.6,0,0,0,2-.6l10.4,5.6-.3,1.5c0,.2-.3.4-.4.4H49.9a.7.7,0,1,0,0,1.4H53a2,2,0,0,0,1.9-1.5l.2-1.5a1.8,1.8,0,0,0,1.6-1,2.1,2.1,0,0,0-.8-2.7h-.1l2-10.9h1A1.3,1.3,0,0,0,60,39V37.1a1.3,1.3,0,0,0-1.2-1.3h-.7a3.2,3.2,0,0,0-1-1.9,4.2,4.2,0,0,0-1.6-.9,4.4,4.4,0,0,0-1-1.5,4.5,4.5,0,0,0-2.9-1.2h-.5a4.1,4.1,0,0,0-7.6-.4,3.5,3.5,0,0,0-3-1.9,3.3,3.3,0,0,0-3.3,3.3,3.4,3.4,0,0,0-2.5,2.5H31.3V27.5a.7.7,0,0,0-.7-.7.8.8,0,0,0-.8.7V48.4h-.4V18h.4v6.2a.8.8,0,0,0,.8.7.7.7,0,0,0,.7-.7V11a1.2,1.2,0,0,0-1.2-1.2h-.9A1.2,1.2,0,0,0,28,11V33.8h-.6A1.2,1.2,0,0,0,26.2,35v4a1.2,1.2,0,0,0,1.2,1.2H28v8.2h-.2a1.2,1.2,0,0,0-1.2,1.2v2.6H24a1.2,1.2,0,0,0-1.3,1.2v1.4h-2A2.1,2.1,0,0,0,18.5,56.9Zm22.8-8.8a2.5,2.5,0,1,1,2.2-3.5l-.8-.4a1.7,1.7,0,0,0-1-.3A1.8,1.8,0,0,0,40,45a1.9,1.9,0,0,0,.8,2.7l.8.4Zm14.1,5.1a.5.5,0,0,1-.5.3c-.1,0-.2,0-.2-.1l-13.2-7-.3-.3c0-.2,0-.3.1-.4s.2-.3.4-.3H42l13.2,7A.6.6,0,0,1,55.4,53.2ZM51.6,31.8a2.7,2.7,0,0,1,2.6,2.1.7.7,0,0,0,.7.5,2.7,2.7,0,0,1,1.2.6,2.2,2.2,0,0,1,.5.8h-3A2.8,2.8,0,0,0,51,33.9h-.5a2.2,2.2,0,0,0-.8-1.3A2.7,2.7,0,0,1,51.6,31.8ZM47.2,29a2.8,2.8,0,0,1,2.5,1.8l-1.1.7c0,.1-.1.2-.2.3h-.7a3.4,3.4,0,0,0-1.7.5,3.6,3.6,0,0,0-1.4-1.1A2.7,2.7,0,0,1,47.2,29Zm-9.5,3.7H38a1.6,1.6,0,0,1,1.1.5.9.9,0,0,0,1.1-.1.7.7,0,0,0-.1-1,2.9,2.9,0,0,0-1.4-.8,1.8,1.8,0,1,1,3.6,0v.2a1.1,1.1,0,0,0,.2.6c.2.2.4.3.6.2h.2A1.8,1.8,0,0,1,45,33.5a2.1,2.1,0,0,0-.3,1.2.8.8,0,0,0,.8.7.7.7,0,0,0,.7-.7,1.9,1.9,0,0,1,.2-.8.1.1,0,0,0,.1-.1,1.4,1.4,0,0,1,1.2-.6,1.4,1.4,0,0,1,1.4,1.5.8.8,0,0,0,.8.7H51a1.3,1.3,0,0,1,.9.4H41.7V35a1.2,1.2,0,0,0-1.3-1.2H36.3A1.8,1.8,0,0,1,37.7,32.7Zm-6.4,2.5h8.9v1.4H31.3Zm0,2.9h9.1a1.3,1.3,0,0,0,1.2-.8H58.5v1.4H31.3ZM29.4,11.2h.4v5.4h-.4ZM28.1,49.9h3.1v2.3H28.1Zm-.4-14.7H28v1.4h-.3Zm0,3.5v-.6H28v.6Zm2.6,17.5a.7.7,0,1,0,0-1.4H24.2V53.6H35.1v1.2h-.9a.7.7,0,1,0,0,1.4h4.4a.8.8,0,0,1,.7.7.8.8,0,0,1-.7.7H20.7a.7.7,0,0,1-.7-.7.8.8,0,0,1,.7-.7Z"/>
  </g>
</svg>
