<svg id="Layer_1" data-name="Layer 1" xmlns="http://www.w3.org/2000/svg" xmlns:xlink="http://www.w3.org/1999/xlink" width="374.5" height="89.4" viewBox="0 0 374.5 89.4">
  <defs>
    <style>
      .cls-1 {
        fill: url(#linear-gradient);
      }

      .cls-2, .cls-4, .cls-5 {
        fill: #fff;
      }

      .cls-2 {
        opacity: 0.3;
      }

      .cls-2, .cls-3, .cls-4 {
        isolation: isolate;
      }

      .cls-4 {
        font-size: 16px;
        font-family: Montserrat-Medium, Montserrat;
      }
    </style>
    <linearGradient id="linear-gradient" x1="405.55" y1="126.36" x2="21.53" y2="-32.27" gradientUnits="userSpaceOnUse">
      <stop offset="0" stop-color="#64dcc2"/>
      <stop offset="1" stop-color="#70bce6"/>
    </linearGradient>
  </defs>
  <title>banner_ac_E0</title>
  <g id="Page-1">
    <g id="UI---Screen-7---v2">
      <g id="Group-2">
        <path id="Path-4" class="cls-1" d="M0,72.4C71,74,112,68.2,210.5,71c58.9,1.7,113.3,7.8,164,18.4V0H0Z"/>
        <rect id="Rectangle-Copy-2" class="cls-2" x="23.5" y="22" width="47" height="7" rx="3.3" ry="3.3"/>
        <rect id="Rectangle-Copy-4" class="cls-2" x="186.5" y="29" width="47" height="7" rx="3.3" ry="3.3"/>
        <rect id="Rectangle-Copy-3" class="cls-2" x="64.5" y="35" width="47" height="7" rx="3.3" ry="3.3"/>
        <rect id="Rectangle-Copy-5" class="cls-2" x="233.5" y="42" width="47" height="7" rx="3.3" ry="3.3"/>
        <g id="sweep">
          <g id="_" data-name="+" class="cls-3">
            <text class="cls-4" transform="translate(298.5 26)">+</text>
          </g>
          <g id="_-copy" data-name="+-copy" class="cls-3">
            <text class="cls-4" transform="translate(336.5 14)">+</text>
          </g>
        </g>
      </g>
    </g>
  </g>
  <g>
    <circle class="cls-5" cx="336" cy="32.3" r="0.8"/>
    <path class="cls-5" d="M332.9,40.8a.6.6,0,0,0,.6-.6,1,1,0,0,1,.4-.8,2,2,0,0,0,.8-1.5.6.6,0,0,0-1.2,0,.8.8,0,0,1-.4.7,2.2,2.2,0,0,0-.7,1.6A.6.6,0,0,0,332.9,40.8Z"/>
    <path class="cls-5" d="M332,51.3a4.9,4.9,0,0,0,2.7,1.5,5.8,5.8,0,0,0,7-5.6c0-1.5-.8-2.6-1.9-4s-1.2-1.8-1.8-2.9a6.8,6.8,0,0,1-1.5,2.6,11.5,11.5,0,0,0-2.2,4c0,.2-.2.3-.3.4a1.2,1.2,0,0,1-1.3.1c-.8-.4-.8-1.5-.8-1.8a3.5,3.5,0,0,0-.6-1.7c-.6,1.5-1.2,3.6-.9,4.8A5.4,5.4,0,0,0,332,51.3Z"/>
    <path class="cls-5" d="M329.6,61.4h13.3a1.9,1.9,0,0,0,1.9-1.8v-2a5,5,0,0,0,3.3-4.7V31.7a5,5,0,0,0-5-5h0V21.2h1.4a.7.7,0,0,0,0-1.4H327.4a.7.7,0,1,0,0,1.4h1.3v5.5h0a5,5,0,0,0-4.8,5v.2c0,.1-.1.2-.1.3s.1.2.1.3V52.9a4.9,4.9,0,0,0,3.1,4.6v1.3A2.6,2.6,0,0,0,329.6,61.4Zm12.1-40.2v5.5h-3.4V24.4a1.6,1.6,0,0,0-1.6-1.6h-1.8a1.6,1.6,0,0,0-1.6,1.6v2.3h-3.1V21.2Zm-4.8,5.5h-2.2V24.4l.2-.2h1.8a.2.2,0,0,1,.2.2ZM325.4,52.9v-20h7.8a.7.7,0,0,0,0-1.4h-7.8a3.5,3.5,0,0,1,3.5-3.4h14.2a3.6,3.6,0,0,1,3.6,3.4h-8a.7.7,0,1,0,0,1.4h8v20a3.7,3.7,0,0,1-2.4,3.4H327.8A3.7,3.7,0,0,1,325.4,52.9Zm3.5,5h14.4v1.7a.4.4,0,0,1-.4.4H329.6a1.2,1.2,0,0,1-1.1-1.2v-.9Z"/>
    <path class="cls-5" d="M312.1,36.2h.2a.7.7,0,0,0,.7-.6,23.6,23.6,0,0,1,23-18.5,23.3,23.3,0,0,1,17.8,8.1l-.8.5,3.6,2.1V23.6l-1.5.9a25,25,0,0,0-43.5,10.8A.7.7,0,0,0,312.1,36.2Z"/>
    <path class="cls-5" d="M360.3,39.9a.8.8,0,0,0-.8.7A23.5,23.5,0,0,1,314.4,50l1.1-.6-3.7-2.1v4.2l1.3-.8A25,25,0,0,0,361,40.6.7.7,0,0,0,360.3,39.9Z"/>
  </g>
</svg>
