<svg id="Layer_1" data-name="Layer 1" xmlns="http://www.w3.org/2000/svg" xmlns:xlink="http://www.w3.org/1999/xlink" width="374.5" height="89.4" viewBox="0 0 374.5 89.4">
  <defs>
    <style>
      .cls-1 {
        fill: url(#linear-gradient);
      }

      .cls-2, .cls-4, .cls-5 {
        fill: #fff;
      }

      .cls-2 {
        opacity: 0.3;
      }

      .cls-2, .cls-3, .cls-4 {
        isolation: isolate;
      }

      .cls-4 {
        font-size: 16px;
        font-family: Montserrat-Medium, Montserrat;
      }
    </style>
    <linearGradient id="linear-gradient" x1="405.55" y1="126.36" x2="21.53" y2="-32.27" gradientUnits="userSpaceOnUse">
      <stop offset="0" stop-color="#75c9b9"/>
      <stop offset="1" stop-color="#72bde5"/>
    </linearGradient>
  </defs>
  <title>banner_civil_M0</title>
  <g id="Page-1">
    <g id="UI---Screen-7---v2">
      <g id="Group-2">
        <path id="Path-4" class="cls-1" d="M0,72.4C71,74,112,68.2,210.5,71c58.9,1.7,113.3,7.8,164,18.4V0H0Z"/>
        <rect id="Rectangle-Copy-2" class="cls-2" x="23.5" y="22" width="47" height="7" rx="3.3" ry="3.3"/>
        <rect id="Rectangle-Copy-4" class="cls-2" x="186.5" y="29" width="47" height="7" rx="3.3" ry="3.3"/>
        <rect id="Rectangle-Copy-3" class="cls-2" x="64.5" y="35" width="47" height="7" rx="3.3" ry="3.3"/>
        <rect id="Rectangle-Copy-5" class="cls-2" x="233.5" y="42" width="47" height="7" rx="3.3" ry="3.3"/>
        <g id="sweep">
          <g id="_" data-name="+" class="cls-3">
            <text class="cls-4" transform="translate(298.5 26)">+</text>
          </g>
          <g id="_-copy" data-name="+-copy" class="cls-3">
            <text class="cls-4" transform="translate(336.5 14)">+</text>
          </g>
        </g>
      </g>
    </g>
  </g>
  <g>
    <g>
      <path class="cls-5" d="M332.8,65.9H314.2a2.4,2.4,0,0,1-2.4-2.4V44.9a.8.8,0,0,1,.8-.8h21.8a.8.8,0,0,1,.8.8V63.5A2.4,2.4,0,0,1,332.8,65.9ZM313.4,45.6V63.5a.7.7,0,0,0,.8.8h18.6a.7.7,0,0,0,.8-.8V45.6Z"/>
      <path class="cls-5" d="M332.8,66H314.2a2.5,2.5,0,0,1-2.5-2.5V44.9a.9.9,0,0,1,.9-.9h21.8a.9.9,0,0,1,.9.9V63.5A2.5,2.5,0,0,1,332.8,66ZM312.6,44.2a.7.7,0,0,0-.7.7V63.5a2.3,2.3,0,0,0,2.3,2.3h18.6a2.3,2.3,0,0,0,2.3-2.3V44.9a.7.7,0,0,0-.7-.7Zm20.2,20.2H314.2a.9.9,0,0,1-.9-.9V45.6h20.4V63.5A.9.9,0,0,1,332.8,64.4ZM313.5,45.7V63.5a.7.7,0,0,0,.7.7h18.6a.7.7,0,0,0,.7-.7V45.7Z"/>
    </g>
    <g>
      <path class="cls-5" d="M336,45.6H311.1a.7.7,0,0,1-.8-.7V41.8a.7.7,0,0,1,.8-.8H336a.7.7,0,0,1,.7.8v3.1A.7.7,0,0,1,336,45.6Zm-24.2-1.5h23.4V42.5H311.8Z"/>
      <path class="cls-5" d="M336,45.7H311.1a.9.9,0,0,1-.9-.8V41.8a.9.9,0,0,1,.9-.9H336a.9.9,0,0,1,.8.9v3.1A.9.9,0,0,1,336,45.7Zm-24.9-4.6a.7.7,0,0,0-.7.7v3.1a.8.8,0,0,0,.7.7H336a.8.8,0,0,0,.7-.7V41.8a.8.8,0,0,0-.7-.7Zm24.2,3.1H311.7V42.4h23.6ZM311.9,44h23.2V42.6H311.9Z"/>
    </g>
    <g>
      <path class="cls-5" d="M334.4,42.5H312.6a.8.8,0,0,1-.8-.7V40.2a11.7,11.7,0,0,1,23.4,0v1.6A.8.8,0,0,1,334.4,42.5Zm-21-1.5h20.2v-.8a10.1,10.1,0,0,0-20.2,0Z"/>
      <path class="cls-5" d="M334.4,42.6H312.6a.9.9,0,0,1-.9-.8V40.2a11.8,11.8,0,1,1,23.6,0v1.6A.9.9,0,0,1,334.4,42.6Zm-10.9-14a11.6,11.6,0,0,0-11.6,11.6v1.6a.7.7,0,0,0,.7.6h21.8a.7.7,0,0,0,.7-.6V40.2A11.6,11.6,0,0,0,323.5,28.6Zm10.2,12.5H313.3v-.9a10.2,10.2,0,0,1,20.4,0Zm-20.2-.2h20v-.7a10,10,0,1,0-20,0Z"/>
    </g>
    <g>
      <path class="cls-5" d="M328.2,56.5h-.4a3.9,3.9,0,0,1-3.5-4v-.6a1.6,1.6,0,0,0-1.6-1.6,1.6,1.6,0,0,0-1.5,1.6,2.3,2.3,0,0,1-2.4,2.3,2.3,2.3,0,0,1-2.3-2.3,1.6,1.6,0,0,0-1.6-1.6,1.6,1.6,0,0,0-1.5,1.6.8.8,0,1,1-1.6,0,3.2,3.2,0,0,1,6.3,0,.8.8,0,0,0,.7.8.8.8,0,0,0,.8-.8,3.1,3.1,0,0,1,6.2,0v.6a2.5,2.5,0,0,0,2.1,2.5,2.6,2.6,0,0,0,1.8-.6,2.5,2.5,0,0,0,.8-1.7V51.1a2.4,2.4,0,0,1,4.7,0,.8.8,0,0,1-1.6,0,.8.8,0,0,0-.8-.8.8.8,0,0,0-.7.8v1.6a3.9,3.9,0,0,1-1.3,2.8A3.7,3.7,0,0,1,328.2,56.5Z"/>
      <path class="cls-5" d="M328.2,56.6h-.4a4.1,4.1,0,0,1-3.6-4.1v-.6a1.5,1.5,0,0,0-1.5-1.5,1.5,1.5,0,0,0-1.4,1.5,2.5,2.5,0,0,1-4.9,0,1.5,1.5,0,0,0-1.5-1.5,1.5,1.5,0,0,0-1.4,1.5.9.9,0,0,1-1.8,0,3.2,3.2,0,0,1,3.2-3.2,3.2,3.2,0,0,1,3.2,3.2.8.8,0,0,0,.7.7.7.7,0,0,0,.7-.7,3.2,3.2,0,0,1,3.2-3.2,3.2,3.2,0,0,1,3.2,3.2v.6a2.4,2.4,0,0,0,2.1,2.4,2.7,2.7,0,0,0,1.7-.6,2,2,0,0,0,.7-1.6V51.1a2.5,2.5,0,0,1,4.9,0,.9.9,0,0,1-1.8,0,.7.7,0,0,0-.7-.7.7.7,0,0,0-.6.7v1.6a4.1,4.1,0,0,1-1.3,2.9A3.9,3.9,0,0,1,328.2,56.6Zm-5.5-6.4a1.8,1.8,0,0,1,1.7,1.7v.6a3.8,3.8,0,0,0,3.4,3.9h.4a3.9,3.9,0,0,0,2.5-1,4.1,4.1,0,0,0,1.3-2.8V51.1a.9.9,0,0,1,.8-.9.9.9,0,0,1,.9.9.7.7,0,0,0,1.4,0,2.2,2.2,0,0,0-2.3-2.2,2.2,2.2,0,0,0-2.2,2.2v1.6a2.3,2.3,0,0,1-.8,1.7,2.6,2.6,0,0,1-1.9.7,2.5,2.5,0,0,1-2.1-2.6v-.6a3.1,3.1,0,0,0-6.1,0,.8.8,0,0,1-.9.8.8.8,0,0,1-.8-.8,3.1,3.1,0,0,0-6.1,0,.7.7,0,1,0,1.4,0,1.7,1.7,0,0,1,1.6-1.7,1.7,1.7,0,0,1,1.7,1.7,2.2,2.2,0,0,0,2.2,2.2,2.2,2.2,0,0,0,2.3-2.2A1.7,1.7,0,0,1,322.7,50.2Z"/>
    </g>
    <g>
      <path class="cls-5" d="M355.4,27H333.6a1.6,1.6,0,0,1-1.5-1.6V17.6a1.5,1.5,0,0,1,1.5-1.5h21.8a1.6,1.6,0,0,1,1.6,1.5v7.8A1.6,1.6,0,0,1,355.4,27Zm-21.8-9.4v7.8h21.8V17.6Z"/>
      <path class="cls-5" d="M355.4,27.1H333.6a1.7,1.7,0,0,1-1.6-1.7V17.6a1.6,1.6,0,0,1,1.6-1.6h21.8a1.7,1.7,0,0,1,1.7,1.6v7.8A1.8,1.8,0,0,1,355.4,27.1ZM333.6,16.2a1.4,1.4,0,0,0-1.4,1.4v7.8a1.5,1.5,0,0,0,1.4,1.5h21.8a1.5,1.5,0,0,0,1.5-1.5V17.6a1.5,1.5,0,0,0-1.5-1.4Zm21.9,9.3h-22v-8h22Zm-21.8-.2h21.6V17.7H333.7Z"/>
    </g>
    <g>
      <path class="cls-5" d="M346.1,34.7a1,1,0,0,1-.8-.5.9.9,0,0,1,.5-1L358,28.9a.8.8,0,0,0,.5-.7V23.1a.7.7,0,0,0-.7-.8h-1.6a.8.8,0,0,1,0-1.6h1.6a2.4,2.4,0,0,1,2.3,2.4v5.1a2.2,2.2,0,0,1-1.6,2.2l-12.2,4.3Z"/>
      <path class="cls-5" d="M346.1,34.8a.8.8,0,0,1-.8-.5.8.8,0,0,1,0-.7.7.7,0,0,1,.5-.4L358,28.8a.5.5,0,0,0,.4-.6V23.1a.7.7,0,0,0-.6-.7h-1.6a.9.9,0,1,1,0-1.8h1.6a2.5,2.5,0,0,1,2.4,2.5v5.1a2.6,2.6,0,0,1-1.6,2.3l-12.2,4.3Zm10.1-14a.7.7,0,1,0,0,1.4h1.6a.9.9,0,0,1,.8.9v5.1a.8.8,0,0,1-.6.8l-12.1,4.3c-.2.1-.4.2-.4.4a.6.6,0,0,0,.6,1h.2l12.2-4.3a2.3,2.3,0,0,0,1.5-2.1V23.1a2.2,2.2,0,0,0-2.2-2.3Z"/>
    </g>
    <g>
      <path class="cls-5" d="M346.1,41.8a.9.9,0,0,1-.8-.8V34a.8.8,0,1,1,1.6,0v7A.9.9,0,0,1,346.1,41.8Z"/>
      <path class="cls-5" d="M346.1,41.8a.8.8,0,0,1-.9-.8V34a.9.9,0,1,1,1.8,0v7A.8.8,0,0,1,346.1,41.8Zm0-8.5a.7.7,0,0,0-.7.7v7a.7.7,0,1,0,1.4,0V34A.7.7,0,0,0,346.1,33.3Z"/>
    </g>
    <g>
      <path class="cls-5" d="M348.4,54.2h-4.7a.7.7,0,0,1-.7-.8V41a.7.7,0,0,1,.7-.8h4.7a.8.8,0,0,1,.8.8V53.4A.8.8,0,0,1,348.4,54.2Zm-3.9-1.5h3.1V41.8h-3.1Z"/>
      <path class="cls-5" d="M348.4,54.3h-4.7a.9.9,0,0,1-.8-.9V41a.9.9,0,0,1,.8-.9h4.7a.9.9,0,0,1,.9.9V53.4A.9.9,0,0,1,348.4,54.3Zm-4.7-14a.7.7,0,0,0-.6.7V53.4a.7.7,0,0,0,.6.7h4.7a.7.7,0,0,0,.7-.7V41a.7.7,0,0,0-.7-.7Zm4,12.4h-3.3v-11h3.3Zm-3.1-.1h2.9V41.8h-2.9Z"/>
    </g>
    <g>
      <path class="cls-5" d="M353.1,23.8H338.3a.8.8,0,0,1-.8-.7.8.8,0,0,1,.8-.8h14.8a.8.8,0,0,1,.8.8A.8.8,0,0,1,353.1,23.8Z"/>
      <path class="cls-5" d="M353.1,23.9H338.3a.8.8,0,0,1-.9-.8.9.9,0,0,1,.9-.9h14.8a.9.9,0,0,1,.9.9A.8.8,0,0,1,353.1,23.9Zm-14.8-1.5a.7.7,0,1,0,0,1.4h14.8a.7.7,0,0,0,0-1.4Z"/>
    </g>
    <g>
      <path class="cls-5" d="M336,23.8a.7.7,0,0,1-.6-.2.8.8,0,0,1-.2-.5,1.4,1.4,0,0,1,.2-.6.8.8,0,0,1,1.1,0,.7.7,0,0,1,.2.6c0,.2,0,.4-.2.5S336.2,23.8,336,23.8Z"/>
      <path class="cls-5" d="M336,23.9l-.7-.2a1.4,1.4,0,0,1-.2-.6.8.8,0,0,1,.2-.6.9.9,0,0,1,1.3,0,.8.8,0,0,1,.2.6,1.4,1.4,0,0,1-.2.6Zm0-1.5-.5.2c-.2.1-.2.3-.2.5a.6.6,0,0,0,.2.5.9.9,0,0,0,1,0l.2-.5a.5.5,0,0,0-.3-.5Z"/>
    </g>
    <g>
      <path class="cls-5" d="M336,28.5a.7.7,0,0,1-.8-.8V26.2a.8.8,0,0,1,.8-.8.8.8,0,0,1,.7.8v1.5A.7.7,0,0,1,336,28.5Z"/>
      <path class="cls-5" d="M336,28.6a.9.9,0,0,1-.9-.9V26.2a.9.9,0,0,1,.9-.9.9.9,0,0,1,.8.9v1.5A.9.9,0,0,1,336,28.6Zm0-3.1a.7.7,0,0,0-.7.7v1.5a.7.7,0,0,0,.7.7.8.8,0,0,0,.7-.7V26.2A.8.8,0,0,0,336,25.5Z"/>
    </g>
    <g>
      <path class="cls-5" d="M339.1,28.5a.7.7,0,0,1-.8-.8V26.2a.8.8,0,0,1,.8-.8.9.9,0,0,1,.8.8v1.5A.8.8,0,0,1,339.1,28.5Z"/>
      <path class="cls-5" d="M339.1,28.6a.9.9,0,0,1-.9-.9V26.2a.9.9,0,0,1,.9-.9.8.8,0,0,1,.8.9v1.5A.8.8,0,0,1,339.1,28.6Zm0-3.1a.7.7,0,0,0-.7.7v1.5a.7.7,0,1,0,1.4,0V26.2A.7.7,0,0,0,339.1,25.5Z"/>
    </g>
    <g>
      <path class="cls-5" d="M339.1,30.9a.9.9,0,0,1-.6-.3.8.8,0,0,1-.2-.5,1.4,1.4,0,0,1,.2-.6.8.8,0,0,1,1.1,0,.9.9,0,0,1,.3.6,1.2,1.2,0,0,1-.8.8Z"/>
      <path class="cls-5" d="M339.1,30.9c-.2,0-.5,0-.6-.2a.9.9,0,0,1-.3-.6.7.7,0,0,1,.3-.6.7.7,0,0,1,1.2,0c.2.1.2.4.2.6a.7.7,0,0,1-.8.8Zm0-1.5-.5.2a.8.8,0,0,0-.2.5c0,.2.1.3.2.5l.5.2.5-.2c.1-.2.2-.3.2-.5a.8.8,0,0,0-.2-.5Z"/>
    </g>
    <g>
      <path class="cls-5" d="M336,32.4a.7.7,0,0,1-.8-.8V30.1a.7.7,0,0,1,.8-.8.7.7,0,0,1,.7.8v1.5A.7.7,0,0,1,336,32.4Z"/>
      <path class="cls-5" d="M336,32.5a.9.9,0,0,1-.9-.9V30.1a.9.9,0,0,1,.9-.9.9.9,0,0,1,.8.9v1.5A.9.9,0,0,1,336,32.5Zm0-3.1a.7.7,0,0,0-.7.7v1.5a.7.7,0,0,0,.7.7.8.8,0,0,0,.7-.7V30.1A.8.8,0,0,0,336,29.4Z"/>
    </g>
    <g>
      <path class="cls-5" d="M339.1,33.2l-.6-.2a1.4,1.4,0,0,1-.2-.6.8.8,0,0,1,.2-.5.8.8,0,0,1,1.1,0,.5.5,0,0,1,.3.5.9.9,0,0,1-.3.6Z"/>
      <path class="cls-5" d="M339.1,33.3a1.1,1.1,0,0,1-.9-.9.9.9,0,0,1,.3-.6.9.9,0,0,1,1.2,0,.7.7,0,0,1,.2.6c0,.2,0,.5-.2.6A.9.9,0,0,1,339.1,33.3Zm0-1.6-.5.2c-.1.2-.2.3-.2.5a.8.8,0,0,0,.2.5l.5.2.5-.2a.8.8,0,0,0,.2-.5c0-.2-.1-.3-.2-.5Z"/>
    </g>
    <g>
      <path class="cls-5" d="M342.2,30.1a.9.9,0,0,1-.8-.8V26.2a.8.8,0,0,1,1.6,0v3.1A.9.9,0,0,1,342.2,30.1Z"/>
      <path class="cls-5" d="M342.2,30.2a.9.9,0,0,1-.9-.9V26.2a.9.9,0,0,1,1.8,0v3.1A.9.9,0,0,1,342.2,30.2Zm0-4.7a.7.7,0,0,0-.7.7v3.1a.7.7,0,1,0,1.4,0V26.2A.7.7,0,0,0,342.2,25.5Z"/>
    </g>
    <g>
      <path class="cls-5" d="M342.2,32.4l-.6-.2a1.4,1.4,0,0,1-.2-.6.8.8,0,0,1,.2-.5.8.8,0,0,1,1.1,0,.5.5,0,0,1,.3.5.9.9,0,0,1-.3.6Z"/>
      <path class="cls-5" d="M342.2,32.5l-.6-.2a.9.9,0,0,1-.3-.7.9.9,0,0,1,.3-.6.9.9,0,0,1,1.2,0,.9.9,0,0,1,.3.6.6.6,0,0,1-.3.6A.9.9,0,0,1,342.2,32.5Zm0-1.5h-.5a1.7,1.7,0,0,0-.2.5.8.8,0,0,0,.2.5.7.7,0,0,0,1,0,.8.8,0,0,0,.2-.5,1.7,1.7,0,0,0-.2-.5Z"/>
    </g>
  </g>
</svg>
