<svg id="Layer_1" data-name="Layer 1" xmlns="http://www.w3.org/2000/svg" xmlns:xlink="http://www.w3.org/1999/xlink" width="374.5" height="89.4" viewBox="0 0 374.5 89.4">
  <defs>
    <style>
      .cls-1 {
        fill: url(#linear-gradient);
      }

      .cls-2, .cls-4, .cls-5 {
        fill: #fff;
      }

      .cls-2 {
        opacity: 0.3;
      }

      .cls-2, .cls-3, .cls-4 {
        isolation: isolate;
      }

      .cls-4 {
        font-size: 16px;
        font-family: Montserrat-Medium, Montserrat;
      }
    </style>
    <linearGradient id="linear-gradient" x1="405.55" y1="126.36" x2="21.53" y2="-32.27" gradientUnits="userSpaceOnUse">
      <stop offset="0" stop-color="#75c9b9"/>
      <stop offset="1" stop-color="#72bde5"/>
    </linearGradient>
  </defs>
  <title>banner_housekeeping_H0</title>
  <g id="Page-1">
    <g id="UI---Screen-7---v2">
      <g id="Group-2">
        <path id="Path-4" class="cls-1" d="M0,72.4C71,74,112,68.2,210.5,71c58.9,1.7,113.3,7.8,164,18.4V0H0Z"/>
        <rect id="Rectangle-Copy-2" class="cls-2" x="23.5" y="22" width="47" height="7" rx="3.3" ry="3.3"/>
        <path id="Rectangle-Copy-4" class="cls-2" d="M189.8,29h40.5a3.2,3.2,0,0,1,3.2,3.2v.5a3.2,3.2,0,0,1-3.2,3.2H189.8a3.3,3.3,0,0,1-3.2-3.2v-.5A3.3,3.3,0,0,1,189.8,29Z"/>
        <rect id="Rectangle-Copy-3" class="cls-2" x="64.5" y="35" width="47" height="7" rx="3.3" ry="3.3"/>
        <rect id="Rectangle-Copy-5" class="cls-2" x="233.5" y="42" width="47" height="7" rx="3.3" ry="3.3"/>
        <g id="sweep">
          <g id="_" data-name="+" class="cls-3">
            <text class="cls-4" transform="translate(355.8 26)">+</text>
          </g>
          <g id="_-copy" data-name="+-copy" class="cls-3">
            <text class="cls-4" transform="translate(336.5 14)">+</text>
          </g>
        </g>
      </g>
    </g>
  </g>
  <g>
    <path class="cls-5" d="M310.8,33.4h4.6l.2-.2h.1v-.2h.1v-.2h.1V32h0v-.2h0v-.2H316v-.2h-.1v-.2h0v-.2h0v-.2h0v-.4h-.1v-.2h-5.1V28h0v.5h0v.5h0v1h0v1.1h0v1h0V33h.1Zm3.6-2.2h.1v.2h-.1v.2h-2v-.2h0v-.2h0v-.2h2Zm-2-2.1v-.2h1.9v.2h-1.9v-.2h0Z"/>
    <polygon class="cls-5" points="318.8 28.3 318.8 28.1 318.8 27.7 318.8 27.6 318.8 27.6 318.8 27.5 318.7 27.4 318.6 27.4 318.5 27.4 318.4 27.4 318 27.4 317.9 27.4 317.5 27.4 317.4 27.4 317.3 27.4 317.2 27.4 317.1 27.5 317.1 27.6 317.1 27.7 317.1 28 317.1 28.2 317.1 28.6 317.1 28.7 317.1 29.2 317.1 29.3 317.1 29.9 317.1 30.3 317.1 30.5 317.1 30.9 317.1 31 317.1 31.5 317.1 31.6 317.1 32.1 317.1 32.8 317.1 33 317.1 33.1 317.1 33.2 317.1 33.3 317.1 33.3 317.2 33.4 317.3 33.4 317.4 33.4 317.5 33.4 317.9 33.4 318 33.4 318.4 33.4 318.5 33.4 318.6 33.4 318.7 33.4 318.8 33.3 318.8 33.2 318.8 33 318.8 32.7 318.8 32.5 318.8 32 318.8 31.9 318.8 31.3 318.8 31.2 318.9 31.1 318.9 31.1 319 31.1 319.5 31.1 320.2 31.1 320.3 31.1 320.6 31.1 320.8 31.1 320.9 31.1 321 31.2 321 31.3 321 31.9 321 32 321 32.5 321 32.7 321 33.2 321 33.3 321.1 33.4 321.2 33.4 321.3 33.4 321.8 33.4 321.9 33.4 322.3 33.4 322.5 33.4 322.6 33.4 322.6 33.3 322.7 33.2 322.7 33.1 322.7 33 322.6 32.8 322.6 32.6 322.6 32.1 322.6 31.6 322.6 31.5 322.6 31 322.6 30.9 322.7 30.5 322.7 30.3 322.7 29.9 322.7 29.7 322.7 29.3 322.7 29.2 322.7 28.7 322.7 28.6 322.6 28.2 322.7 28 322.7 27.7 322.7 27.6 322.6 27.4 322.6 27.4 322.5 27.4 322.4 27.4 322.3 27.4 321.9 27.4 321.8 27.4 321.3 27.4 321.2 27.4 321.1 27.4 321 27.4 321 27.6 321 28.1 321 28.3 321 28.8 321 28.9 321 29.5 321 29.6 320.9 29.6 320.8 29.7 320.8 29.7 320.7 29.7 320.2 29.7 319.6 29.6 319.5 29.6 319.2 29.7 319.1 29.7 318.9 29.7 318.9 29.7 318.8 29.6 318.8 29.6 318.8 29.5 318.8 28.8 318.8 28.3"/>
    <polygon class="cls-5" points="323.9 32.8 323.8 33 323.8 33.2 323.9 33.3 323.9 33.4 323.9 33.4 324 33.4 324.4 33.4 324.5 33.4 324.9 33.4 325.2 33.4 325.4 33.4 325.5 33.4 325.6 33.4 325.6 33.3 325.6 33.1 325.6 33 325.6 32.8 325.6 32.7 325.6 32.2 325.6 31.7 325.6 31.6 325.7 31.5 325.7 31.5 325.8 31.6 325.8 31.7 326.1 32 326.2 32.1 326.5 32.5 326.6 32.6 326.8 32.9 326.9 33 327.2 33.3 327.3 33.4 327.4 33.4 327.9 33.4 328 33.4 328.6 33.4 328.7 33.4 329.2 33.4 329.3 33.4 329.3 33.4 329.4 33.3 329.4 33.3 329.3 33.2 329 32.9 328.9 32.8 328.5 32.4 328.4 32.3 328.1 31.9 328 31.8 327.7 31.4 327.6 31.3 327.2 30.9 327.1 30.8 326.8 30.4 326.8 30.3 326.8 30.3 326.8 30.2 326.8 30.2 326.9 30.1 327.1 29.9 327.2 29.8 327.5 29.4 327.6 29.3 327.9 29 328 28.9 328.3 28.5 328.4 28.4 328.7 28 328.8 27.9 329.1 27.6 329.2 27.5 329.2 27.5 329.2 27.4 329.1 27.4 329 27.4 328.7 27.4 328.6 27.4 328.3 27.4 327.8 27.4 327.6 27.4 327.2 27.4 327.2 27.4 327.1 27.5 326.8 27.8 326.7 27.9 326.5 28.3 326 28.8 325.8 29.2 325.7 29.2 325.6 29.2 325.6 29.1 325.6 28.7 325.6 28.5 325.5 28.1 325.6 28 325.6 27.7 325.6 27.6 325.6 27.5 325.6 27.4 325.5 27.4 325.4 27.4 325 27.4 324.9 27.4 324.5 27.4 324.4 27.4 324.1 27.4 324 27.4 323.9 27.4 323.9 27.4 323.9 27.5 323.9 28 323.9 28.1 323.9 29.2 323.9 29.3 323.9 29.7 323.9 29.9 323.9 30.3 323.9 30.9 323.9 31.1 323.8 31.5 323.8 31.6 323.8 32.2 323.9 32.7 323.9 32.8"/>
    <polygon class="cls-5" points="315 23.3 315.1 23.6 315.2 23.8 315.3 24 315.4 24.2 315.5 24.4 315.6 24.6 315.8 24.8 316.2 25 316.4 25.1 316.6 25.3 316.8 25.4 317 25.5 317.2 25.5 317.5 25.6 317.7 25.6 317.9 25.7 318.1 25.7 318.5 25.7 319.2 25.8 319.4 25.8 319.7 25.7 319.9 25.7 320.1 25.7 320.3 25.6 320.6 25.6 320.8 25.5 321.1 25.4 321.2 25.4 321.5 25.3 321.6 25.2 321.9 24.9 322.1 24.8 322.2 24.7 322.4 24.5 322.4 24.5 322.6 24.3 322.7 24 322.7 24 322.8 23.8 322.9 23.5 322.9 23.3 322.9 23.1 322.9 22.9 322.9 22.7 322.9 22.5 322.9 22.3 322.8 22.1 322.7 21.8 322.5 21.6 322.4 21.5 322.3 21.4 322.1 21.2 321.8 21 321.8 20.9 321.8 20.8 321.9 20.7 322.1 20.5 322.3 20.4 322.4 20.2 322.6 19.8 322.6 19.7 322.7 19.6 322.7 19.4 322.7 19.3 322.7 19.1 322.7 18.9 322.7 18.7 322.6 18.4 322.5 18.3 322.5 18.1 322.4 17.9 322.3 17.7 322.2 17.6 322.1 17.5 321.9 17.3 321.7 17.2 321.6 17 321.4 16.9 321.2 16.8 321 16.8 320.7 16.7 320.6 16.6 320.3 16.5 320.2 16.5 319.9 16.4 319.3 16.4 319 16.4 318.8 16.3 318.6 16.4 318.3 16.4 317.9 16.5 317.7 16.5 317.5 16.5 317.3 16.6 317.1 16.6 316.9 16.7 316.7 16.8 316.5 16.9 316.3 17.1 316.1 17.2 315.9 17.3 315.8 17.5 315.6 17.6 315.5 17.8 315.4 18 315.3 18.3 315.2 18.6 315.2 18.8 315.1 19.1 315.1 19.2 315.2 19.3 315.2 19.3 315.4 19.4 315.7 19.4 315.9 19.4 316.2 19.4 316.4 19.4 317 19.4 317.3 19.4 317.5 19.4 317.6 19.3 317.6 19.1 317.7 19 317.8 18.9 317.9 18.8 318 18.7 318.2 18.6 318.3 18.6 318.5 18.6 318.8 18.5 319 18.5 319.3 18.5 319.4 18.6 319.6 18.6 319.8 18.7 320 18.9 320.1 19 320.1 19.2 320.2 19.3 320.1 19.4 320.1 19.6 320 19.7 319.9 19.8 319.8 19.9 319.6 20 319.5 20 319.3 20.1 319 20.1 318.8 20.1 318.7 20.1 318.5 20.1 318.1 20 317.9 20 317.5 20.1 317.4 20.1 317.4 20.2 317.3 20.4 317.3 20.6 317.3 20.9 317.3 21.1 317.3 21.2 317.3 21.4 317.4 21.6 317.4 21.7 317.5 21.8 317.6 21.9 317.9 21.9 318.2 21.9 318.6 21.9 318.9 21.9 319.1 21.9 319.3 21.9 319.5 21.9 319.7 22 319.8 22.1 320 22.2 320.1 22.4 320.2 22.4 320.2 22.6 320.3 22.7 320.3 22.9 320.2 23 320.2 23.2 320.1 23.2 320 23.4 319.9 23.4 319.7 23.6 319.6 23.6 319.4 23.7 319.1 23.7 318.9 23.7 318.7 23.7 318.5 23.6 318.3 23.6 318.2 23.5 318 23.4 317.9 23.4 317.8 23.2 317.7 23.2 317.6 23 317.6 22.9 317.5 22.7 317.4 22.6 317.2 22.6 316.9 22.6 316.3 22.6 316.1 22.6 315.7 22.6 315.3 22.6 315.1 22.7 315 22.7 314.9 22.9 315 23.2 315 23.3"/>
    <path class="cls-5" d="M360.7,67.3l-1.3-11.8v-.6h0V52.7a4.2,4.2,0,0,0-4.2-4.2h-.9v-.8a2.3,2.3,0,0,0-2.1-2.3v-26a2.8,2.8,0,0,0-2.8-2.8,2.7,2.7,0,0,0-2.7,2.8v26a1.7,1.7,0,0,0-1,.3l.3-3.1h0a2.8,2.8,0,0,0-.4-1.2,2.1,2.1,0,0,0-1.3-.5h-.1a4.1,4.1,0,0,0-4.8-2.7,4.2,4.2,0,0,0-3.6-2.2,4,4,0,0,0-1.5.3,3.8,3.8,0,0,0-2.8-1.2,3.6,3.6,0,0,0-2.8,1.2,4,4,0,0,0-1.5-.3,3.8,3.8,0,0,0-3.5,2.1,4.2,4.2,0,0,0-3.5,1.5h-1.6A2.5,2.5,0,0,0,316,42V54.7a2.5,2.5,0,0,0,2.5,2.5h.5l.9,10a2.5,2.5,0,0,0,2.5,2.4h36.2a2.4,2.4,0,0,0,1.6-.7A2.2,2.2,0,0,0,360.7,67.3Zm-5.2-9.2a1.1,1.1,0,0,0-1,1.1V68H354V61.3a1,1,0,0,0-1-1,1,1,0,0,0-1.1,1V68h-.5V63.4a1,1,0,1,0-2,0V68h-3.5V61.3a1,1,0,0,0-1.1-1,1,1,0,0,0-1,1V68h-.5V59.2a1.1,1.1,0,0,0-1-1.1,1.1,1.1,0,0,0-1.1,1.1V68h-1.1a.5.5,0,0,1-.4-.2.4.4,0,0,1-.1-.3l1.2-11.8h17l1.3,11.8v.3l-.4.2h-2V59.2A1.1,1.1,0,0,0,355.5,58.1Zm-37-2.5a.9.9,0,0,1-.9-.9V42a4.3,4.3,0,0,0,.1-.5h.1a.8.8,0,0,1,.7-.4h7.7a.9.9,0,0,1,.7.3,1.4,1.4,0,0,1,.2.6v.3h0V54.7a.9.9,0,0,1-.9.9h-7.7Zm12.9-19a2.3,2.3,0,0,1,1.9,1,.9.9,0,0,0,1.1.3,2,2,0,0,1,1.3-.4,2.4,2.4,0,0,1,2.3,1.9.8.8,0,0,0,.5.5.9.9,0,0,0,.7,0,2,2,0,0,1,1.1-.3,2.4,2.4,0,0,1,2,1.2h-4v6.6a.8.8,0,0,1-.7.7.7.7,0,0,1-.7-.7V40.8h-1.6v1.5h0v1.1a.8.8,0,0,1-.7.7.7.7,0,0,1-.7-.6V40.8h-5.5a2.5,2.5,0,0,0-2.2-1.3h-1.6l.2-.3a2.5,2.5,0,0,1,2.3-1.7,2,2,0,0,1,1.3.4.7.7,0,0,0,1-.3A2.6,2.6,0,0,1,331.4,36.6Zm17.9-18.4a1.1,1.1,0,0,1,1.1,1.2v26h-2.2v-26A1.1,1.1,0,0,1,349.3,18.2ZM350.4,47h1.5a.7.7,0,0,1,.7.7v2.4h-6.5V47.7a.7.7,0,0,1,.7-.7h3.6Zm-21.7-3.4V42.4h3.6v1.3a2,2,0,0,0,.3,1.1,2.4,2.4,0,0,0,2.7.9v.2h-3.9l-.3-1.4a.9.9,0,0,0-1-.5.7.7,0,0,0-.5.9l.3,1h-1.2Zm13.9,1.9v.4h-2.7V42.4h3l-.3,3Zm-7.3,2.1a2.2,2.2,0,0,0,2.3,2.1,2.4,2.4,0,0,0,2.3-2.1h2.5v1.1a4.3,4.3,0,0,0-3,3.6v1.8a8,8,0,0,1-7.2-5.8l-.2-.7Zm22.4,6.5H340.9V52.7a.4.4,0,0,1,.1-.3,2.5,2.5,0,0,1,1.7-2.1l.8-.2h1v.8a.7.7,0,0,0,.8.8h8.1a.8.8,0,0,0,.8-.8v-.8h.9a2.6,2.6,0,0,1,2.6,2.6Zm-31.5,3.1a2.5,2.5,0,0,0,2.5-2.5V47.6h1.6l.3,1.1a9.5,9.5,0,0,0,8.6,6.9L338,67.3V68H322.4a1.1,1.1,0,0,1-.9-.9l-.8-9.9Zm18.3-9.5v.8H344v-1h.4Z"/>
  </g>
</svg>
