<svg id="Layer_1" data-name="Layer 1" xmlns="http://www.w3.org/2000/svg" xmlns:xlink="http://www.w3.org/1999/xlink" width="70" height="70" viewBox="0 0 70 70">
  <defs>
    <style>
      .cls-1 {
        fill: #f6f6f6;
      }

      .cls-2 {
        fill: url(#linear-gradient);
      }

      .cls-3 {
        fill: url(#linear-gradient-2);
      }

      .cls-4 {
        fill: url(#linear-gradient-3);
      }
    </style>
    <linearGradient id="linear-gradient" x1="59.56" y1="80.96" x2="12.56" y2="-14.04" gradientUnits="userSpaceOnUse">
      <stop offset="0" stop-color="#75c9b9"/>
      <stop offset="1" stop-color="#72bde5"/>
    </linearGradient>
    <linearGradient id="linear-gradient-2" x1="59" y1="81.24" x2="12" y2="-13.76" xlink:href="#linear-gradient"/>
    <linearGradient id="linear-gradient-3" x1="58.1" y1="81.68" x2="11.1" y2="-13.32" xlink:href="#linear-gradient"/>
  </defs>
  <title>icon_electrical_E01</title>
  <path id="Rectangle" class="cls-1" d="M3,0H67a2.9,2.9,0,0,1,3,3V67a2.9,2.9,0,0,1-3,3H3a2.9,2.9,0,0,1-3-3V3A2.9,2.9,0,0,1,3,0Z"/>
  <g>
    <path class="cls-2" d="M40.5,28.4H37.2V22.9a1,1,0,0,0-.8-1,1,1,0,0,0-1.2.4L28.6,32.6a1.1,1.1,0,0,0,0,1.1.9.9,0,0,0,.9.5h3.3v5.5a1.2,1.2,0,0,0,.8,1.1h.3a1.1,1.1,0,0,0,.9-.5l6.6-10.2a1.1,1.1,0,0,0,0-1.1A.9.9,0,0,0,40.5,28.4ZM34.2,38.5V32.8H30.1l5.7-8.7v5.7h4.1Z"/>
    <path class="cls-3" d="M44.6,14.9H25.4a2.3,2.3,0,0,0-2.3,2.3v19a2,2,0,0,0,.7,1.6l1.7,1.7-1.4,1.4a2.4,2.4,0,0,0-.7,1.6v6.3a2.4,2.4,0,0,0,2.3,2.4h2.2v4a2.3,2.3,0,1,0,4.6,0v-4h4.8v4a2.4,2.4,0,0,0,2.4,2.4A2.3,2.3,0,0,0,42,55.2v-4h2.3a2.4,2.4,0,0,0,2.3-2.4V42.5a2.4,2.4,0,0,0-.7-1.6l-1.4-1.4,1.7-1.7a2,2,0,0,0,.7-1.6v-19A2.3,2.3,0,0,0,44.6,14.9Zm.9,21.3a.7.7,0,0,1-.3.6l-2.7,2.7,2.4,2.4a.9.9,0,0,1,.3.6v6.3a.9.9,0,0,1-.9.9H40.6v5.5a.9.9,0,0,1-1.8,0V49.7H31.1v5.5a.9.9,0,0,1-1.8,0V49.7H25.7a.9.9,0,0,1-.9-.9V42.5a.9.9,0,0,1,.3-.6l2.4-2.4-2.7-2.7a.7.7,0,0,1-.3-.6v-19a.9.9,0,0,1,.9-.9H44.6a.9.9,0,0,1,.9.9Z"/>
    <path class="cls-4" d="M35,10A25,25,0,1,0,60,35,25,25,0,0,0,35,10Zm0,48.6A23.6,23.6,0,1,1,58.6,35,23.6,23.6,0,0,1,35,58.6Z"/>
  </g>
</svg>
