<svg id="Layer_1" data-name="Layer 1" xmlns="http://www.w3.org/2000/svg" xmlns:xlink="http://www.w3.org/1999/xlink" width="70" height="70" viewBox="0 0 70 70">
  <defs>
    <style>
      .cls-1 {
        fill: #f6f6f6;
      }

      .cls-2 {
        fill: url(#linear-gradient);
      }

      .cls-3 {
        fill: url(#linear-gradient-2);
      }

      .cls-4 {
        fill: url(#linear-gradient-3);
      }

      .cls-5 {
        fill: url(#linear-gradient-4);
      }
    </style>
    <linearGradient id="linear-gradient" x1="56.72" y1="68.12" x2="16" y2="-2.36" gradientUnits="userSpaceOnUse">
      <stop offset="0" stop-color="#64dcc2"/>
      <stop offset="1" stop-color="#70bce6"/>
    </linearGradient>
    <linearGradient id="linear-gradient-2" x1="60.78" y1="65.77" x2="20.07" y2="-4.7" xlink:href="#linear-gradient"/>
    <linearGradient id="linear-gradient-3" x1="45.55" y1="74.57" x2="4.84" y2="4.09" xlink:href="#linear-gradient"/>
    <linearGradient id="linear-gradient-4" x1="48.74" y1="72.73" x2="8.02" y2="2.25" xlink:href="#linear-gradient"/>
  </defs>
  <title>icon_ac_E00</title>
  <path id="Rectangle" class="cls-1" d="M3,0H67a2.9,2.9,0,0,1,3,3V67a2.9,2.9,0,0,1-3,3H3a2.9,2.9,0,0,1-3-3V3A2.9,2.9,0,0,1,3,0Z"/>
  <g>
    <path class="cls-2" d="M10,10V51.1H27.1v.2l2.1.5c.1.2.1.4.2.5l-1,1.9,2.2,2.2,1.8-1.1.5.3.6,2h3.1l.6-2,.5-.3,1.9,1.1,2.2-2.2-1.1-1.9a.8.8,0,0,0,.2-.5l2.1-.5v-.2H60V10ZM41.6,49.6v.6l-1.8.4V51h0l-.4.9-.2.4.9,1.5-.7.7-1.6-.9-.3.2-1,.4H36l-.5,1.8h-.9l-.5-1.8h-.4l-1-.4-.3-.2-1.6.9-.7-.7.9-1.5V52a1.8,1.8,0,0,1-.4-.9.1.1,0,0,0-.1-.1v-.4l-1.8-.4v-1l1.8-.5v-.4l.3-.6c0-.1.1-.2.2-.3V47l-.4-.8-.3-.5-.2-.3.7-.6.4.2,1.2.7.3-.2,1-.4h.4l.2-.6.2-.7v-.4h.9l.2.4v.7l.2.6h.4l1,.4.3.2.9-.5h.1l.6-.3.7.6-.5.8h0l-.4.7.2.4c0,.1.1.2.1.3l.3.6v.4l1.8.5ZM38.6,17v.6H19.3V17ZM19.3,15.5v-.7H38.6v.7ZM38.6,19v.6H19.3V19Zm0,2.1v.6H19.3v-.6Zm0,2v.6H19.3v-.6Zm0,2.1v.6H19.3v-.6Zm0,2v.6H19.3v-.6Zm0,2.1v.6H19.3v-.6Zm0,2V32H19.3v-.7Zm0,2.1V34H19.3v-.6Zm0,2v.7H19.3v-.7Zm0,2.1v.6H19.3v-.6Zm0,2v.7H19.3v-.7Zm0,2.1v.6H36.8l-.2-.5H33.5v.5H19.3v-.6Zm-.2,2-.7.4-.5-.2v-.2Zm-5.4,0v.2l-.5.2-.7-.4Zm-3.1,0-.6.7h-10v-.7Zm-1.3,2.1.4.5H19.3v-.5ZM50.7,17.1v2.5l-.5-.9H40V17.1ZM40,15.8v-1H50.7v1.8l-.5-.8Zm10.7,4.3v2.4l-.5-.9H40V20.1Zm0,2.9v2.4l-.5-.9H40V23Zm0,2.9v2.4l-.5-.8H40V25.9Zm0,2.9v2.5l-.5-.9H40V28.8Zm0,3V46.2H41.2l.6-1L40,43.5V31.8Zm7.9,17.8H43V48.1l-1.7-.4H52.1V13.4H17.9V47.7H28.8l-1.7.4v1.5H11.4V11.4H58.6Z"/>
    <path class="cls-3" d="M42.9,44.5h4.9a2,2,0,0,0,2-2V35.7a2,2,0,0,0-2-2H42.9a2,2,0,0,0-2,2v6.8A2,2,0,0,0,42.9,44.5Zm-.6-8.8a.6.6,0,0,1,.6-.6h4.9a.6.6,0,0,1,.6.6v2H42.3Zm0,3.4h6.1v3.4a.6.6,0,0,1-.6.6H42.9a.6.6,0,0,1-.6-.6Z"/>
    <path class="cls-4" d="M42.9,57.2a1.3,1.3,0,0,1-1.3,1.3H28.4a1.3,1.3,0,0,1-1.3-1.3V54.6H25.7v2.6a2.7,2.7,0,0,0,2.7,2.7H41.6a2.7,2.7,0,0,0,2.7-2.7V54.6H42.9Z"/>
    <polygon class="cls-5" points="35 46.5 33.8 47.7 32.6 49 33.2 49.6 33.5 49.9 33.8 49.6 34.4 49 34.4 49.6 34.4 51.1 34.4 52.1 35.7 52.1 35.7 51.1 35.7 49.6 35.7 49.1 36.2 49.6 36.5 49.9 36.8 49.6 37.5 49 36.2 47.7 35 46.5"/>
  </g>
</svg>
