<svg id="Layer_1" data-name="Layer 1" xmlns="http://www.w3.org/2000/svg" xmlns:xlink="http://www.w3.org/1999/xlink" width="70" height="70" viewBox="0 0 70 70">
  <defs>
    <style>
      .cls-1 {
        fill: #f6f6f6;
      }

      .cls-2 {
        fill: url(#linear-gradient);
      }

      .cls-3 {
        fill: url(#linear-gradient-2);
      }

      .cls-4 {
        fill: url(#linear-gradient-3);
      }

      .cls-5 {
        fill: url(#linear-gradient-4);
      }

      .cls-6 {
        fill: url(#linear-gradient-5);
      }
    </style>
    <linearGradient id="linear-gradient" x1="53.39" y1="67.37" x2="18.39" y2="5.76" gradientUnits="userSpaceOnUse">
      <stop offset="0" stop-color="#64dcc2"/>
      <stop offset="1" stop-color="#70bce6"/>
    </linearGradient>
    <linearGradient id="linear-gradient-2" x1="46.81" y1="71.11" x2="11.81" y2="9.5" xlink:href="#linear-gradient"/>
    <linearGradient id="linear-gradient-3" x1="44.42" y1="72.46" x2="9.42" y2="10.85" xlink:href="#linear-gradient"/>
    <linearGradient id="linear-gradient-4" x1="46.98" y1="71.01" x2="11.98" y2="9.4" xlink:href="#linear-gradient"/>
    <linearGradient id="linear-gradient-5" x1="55.29" y1="66.29" x2="20.29" y2="4.68" xlink:href="#linear-gradient"/>
  </defs>
  <title>icon_carpentry_C0</title>
  <path id="Rectangle" class="cls-1" d="M3,0H67a2.9,2.9,0,0,1,3,3V67a2.9,2.9,0,0,1-3,3H3a2.9,2.9,0,0,1-3-3V3A2.9,2.9,0,0,1,3,0Z"/>
  <path id="Rectangle-2" data-name="Rectangle" class="cls-1" d="M3,0H67a2.9,2.9,0,0,1,3,3V67a2.9,2.9,0,0,1-3,3H3a2.9,2.9,0,0,1-3-3V3A2.9,2.9,0,0,1,3,0Z"/>
  <g>
    <polygon class="cls-2" points="10 60 21.8 60 21.8 58.6 11.4 58.6 11.4 11.4 58.6 11.4 58.6 58.6 48.4 58.6 48.4 60 60 60 60 10 10 10 10 60"/>
    <path class="cls-3" d="M42,51.8V48.9l-1.8-.5c-.1-.1-.1-.3-.2-.4l1-1.6-2.1-2-1.6.9-.4-.2-.5-1.8H33.6l-.5,1.8-.4.2-1.6-.9-2.1,2L30,48c-.1.1-.1.3-.2.4l-1.8.5v2.9l1.8.4c.1.2.1.3.2.4l-1,1.6,2.1,2.1,1.6-1,.4.2.5,1.8h2.8l.5-1.8.4-.2,1.6,1L41,54.2l-1-1.6.2-.4Zm-4.7,1.9-.3.2-.9.4h-.4l-.4,1.5h-.6l-.4-1.5h-.4l-.9-.4-.3-.2-1.4.8-.5-.5.8-1.4-.2-.3-.3-.8v-.4l-1.6-.4V50l1.6-.4v-.4l.3-.8.2-.4-.8-1.4.5-.4,1.4.7.3-.2.9-.3h.4l.4-1.5h.6l.4,1.5h.4l.9.3.3.2,1.4-.7.5.4L38.4,48l.2.4.3.8v.4l1.6.4v.7l-1.6.4v.4l-.3.8-.2.3.8,1.4-.5.5Z"/>
    <path class="cls-4" d="M27.4,60H42.6a3,3,0,0,0,3-3V54H44.2v3a1.6,1.6,0,0,1-1.6,1.6H27.4A1.6,1.6,0,0,1,25.8,57V54H24.4v3A3,3,0,0,0,27.4,60Z"/>
    <polygon class="cls-5" points="32.9 49.9 33.7 50.7 34.5 50 34.5 52.6 35.6 52.6 35.6 50 36.3 50.7 37.1 49.9 35 47.8 32.9 49.9"/>
    <path class="cls-6" d="M22.6,30.6a3.7,3.7,0,1,0-6.4,2.5A8.8,8.8,0,0,0,25,41.3H46.1A8.7,8.7,0,0,0,54.8,33a3.4,3.4,0,0,0,.9-2.4A3.7,3.7,0,0,0,52,26.9a3.8,3.8,0,0,0-3.7,3.7,3.5,3.5,0,0,0,.8,2.2v.3a3.3,3.3,0,0,1-3.3,3.3H25.3A3.3,3.3,0,0,1,22,33.1v-.4A3.7,3.7,0,0,0,22.6,30.6Zm2.7,7.2H45.8a4.6,4.6,0,0,0,4.6-3.9,3.2,3.2,0,0,0,1.6.4l1.3-.2a7.4,7.4,0,0,1-7.2,5.8H25a7.3,7.3,0,0,1-7.2-5.8l1.2.2a4.2,4.2,0,0,0,1.6-.4A4.7,4.7,0,0,0,25.3,37.8Z"/>
  </g>
</svg>
