<svg id="Layer_1" data-name="Layer 1" xmlns="http://www.w3.org/2000/svg" xmlns:xlink="http://www.w3.org/1999/xlink" width="374.5" height="89.4" viewBox="0 0 374.5 89.4">
  <defs>
    <style>
      .cls-1 {
        fill: url(#linear-gradient);
      }

      .cls-2, .cls-4, .cls-5 {
        fill: #fff;
      }

      .cls-2 {
        opacity: 0.3;
      }

      .cls-2, .cls-3, .cls-4 {
        isolation: isolate;
      }

      .cls-4 {
        font-size: 16px;
        font-family: Montserrat-Medium, Montserrat;
      }
    </style>
    <linearGradient id="linear-gradient" x1="405.55" y1="126.36" x2="21.53" y2="-32.27" gradientUnits="userSpaceOnUse">
      <stop offset="0" stop-color="#75c9b9"/>
      <stop offset="1" stop-color="#72bde5"/>
    </linearGradient>
  </defs>
  <title>banner_housekeeping_H0</title>
  <g id="Page-1">
    <g id="UI---Screen-7---v2">
      <g id="Group-2">
        <path id="Path-4" class="cls-1" d="M0,72.4C71,74,112,68.2,210.5,71c58.9,1.7,113.3,7.8,164,18.4V0H0Z"/>
        <rect id="Rectangle-Copy-2" class="cls-2" x="23.5" y="22" width="47" height="7" rx="3.2" ry="3.2"/>
        <rect id="Rectangle-Copy-4" class="cls-2" x="186.5" y="29" width="47" height="7" rx="3.2" ry="3.2"/>
        <rect id="Rectangle-Copy-3" class="cls-2" x="64.5" y="35" width="47" height="7" rx="3.2" ry="3.2"/>
        <path id="Rectangle-Copy-5" class="cls-2" d="M236.8,42h40.5a3.2,3.2,0,0,1,3.2,3.2v.5a3.2,3.2,0,0,1-3.2,3.2H236.8a3.2,3.2,0,0,1-3.2-3.2v-.5a3.3,3.3,0,0,1,3.3-3.2Z"/>
        <g id="sweep">
          <g id="_" data-name="+" class="cls-3">
            <text class="cls-4" transform="translate(353.7 26)">+</text>
          </g>
          <g id="_-copy" data-name="+-copy" class="cls-3">
            <text class="cls-4" transform="translate(336.5 14)">+</text>
          </g>
        </g>
      </g>
    </g>
  </g>
  <g>
    <path class="cls-5" d="M356.2,63.9h.1l.5.5.9-.9L356.3,62l-1.1,1.1-.9-.4v-.6h.7V60.8h-2v1.5h-.9a3.5,3.5,0,0,0-2.9,1.6h0V63h-1.3v.8a2.1,2.1,0,0,0-1.5,2,2.2,2.2,0,0,0,2.1,2.1h10.9V66.6h-1.7A7.2,7.2,0,0,0,356.2,63.9Zm-2.1.5-.2.2a1.7,1.7,0,0,1-1.3.5h-1.8v1.3h2.8l.7.2h-5.8a.9.9,0,0,1-.8-.8.8.8,0,0,1,1.1-.8,2.2,2.2,0,0,0-.1.8v.3H350v-.2a2.3,2.3,0,0,1,.6-1.6,2.1,2.1,0,0,1,1.5-.7,4.5,4.5,0,0,1,4.2,3.1h-.2a3.4,3.4,0,0,0-1.2-1.2h.1Z"/>
    <path class="cls-5" d="M361,51.8c-.1-.2-.1-.5-.2-.7a4.2,4.2,0,0,0-.9-1.4.4.4,0,0,1-.1-.3c0-.1,0-.1.1-.2a1.2,1.2,0,0,0-.2-.8.6.6,0,0,0-.7-.2c-.3.1-.5.3-.5.5V49l-.5-.2-.3-.2-.2-.2-.9-.4a3.4,3.4,0,0,0-1,0h-1a5.6,5.6,0,0,0-2.8,1.3l-.5.5a4.7,4.7,0,0,0-.5,1,1.5,1.5,0,0,0-.2.9h0a1.3,1.3,0,0,1-.4.6l-.5.2h-.9a2.2,2.2,0,0,1-1.5-.8,3.6,3.6,0,0,1-.4-.9,1.7,1.7,0,0,1-.1-.7,7.6,7.6,0,0,1,.3-1.6c.2-.3.3-.7.5-1l.9-1.2,1-.8.9-.7.8-.7h.1c0-.1,0-.2-.1-.2H351l-.3.2-1.6,1.2-.8.6-.5.6-.6.7a5.3,5.3,0,0,0-.8,1.7,3.9,3.9,0,0,0-.2,1.5,3,3,0,0,0,.2,1,.9.9,0,0,0,.4.6,2.6,2.6,0,0,0,1.3,1h1l1.1-.2a.5.5,0,0,1,.4-.2.4.4,0,0,1,.5-.1h.1a1.5,1.5,0,0,0,1.1.4.1.1,0,0,1,.1.1l.5.2h.8a.9.9,0,0,1,.7.3c.1,0,.2,0,.2.1h.2c0-.1.1-.1,0-.2l-.4-.3h.7c0,.1.1.1.1.2h.5s.1-.1,0-.1,0-.1-.1-.1h0a.2.2,0,0,1-.2-.2.1.1,0,0,0,.1.1h.2c.1.1.2.1.2.2s.1-.1.1-.2h-.2c-.1-.1-.2-.2-.2-.3h1.6c.1.2.2.2.4.3a.5.5,0,0,1,.5.3c0,.1.1.1.2,0h-.1c.1-.1,0-.2-.1-.3h.5c0-.1-.1-.1-.1-.2h0a.1.1,0,0,0,.1.1h.2v.2h.1v-.2a.2.2,0,0,0-.2-.2c.1-.1.1-.1.1.1a.2.2,0,0,0,0-.3h.9l.7.3h.5a.1.1,0,0,0,.1-.1.2.2,0,0,0,.3,0v-.4C361.1,52.5,361.1,52.1,361,51.8Z"/>
    <path class="cls-5" d="M326.5,59.3h0l-2.8-4.5a.8.8,0,0,0-.7-.4h-.9V18.9a1.9,1.9,0,0,0-1.8-2.1,2.1,2.1,0,0,0-1.9,2.1V54.3h-.9a.5.5,0,0,0-.6.4l-2.8,4.4H314l-2.7,6v.3a2.4,2.4,0,0,0,2.4,2.4h0a2.8,2.8,0,0,0,1.7-.7,2.4,2.4,0,0,0,3.2.1h.1a2.4,2.4,0,0,0,3.2.1.1.1,0,0,0,.1-.1,2.4,2.4,0,0,0,3.2.1h.2a2.7,2.7,0,0,0,1.4.7h.2a2.5,2.5,0,0,0,1.6-.6,2.5,2.5,0,0,0,.8-1.8c0-.1,0-.3-.1-.3Zm-9.6,7.2h0a1.1,1.1,0,0,1-.9-.9l1.1-3.7a.7.7,0,0,0-.1-.6c-.1-.1-.2-.3-.4-.3a.7.7,0,0,0-.9.5l-1.1,3.9v.2a.9.9,0,0,1-.9.9,1.1,1.1,0,0,1-.9-.8l2.5-5.5h3.2l-.5,5.4A.9.9,0,0,1,316.9,66.5Zm3-12.2V18.9c0-.4.2-.6.4-.6s.3.2.3.6V54.3Zm-2.4,2.2.4-.7h4.7l.5.7Zm7,2.2h-8.4l.4-.7H324Zm2.4,7.8a.9.9,0,0,1-.9-.9.4.4,0,0,0-.1-.3l-1.8-5.1h1.2l2.5,5.5A.9.9,0,0,1,326.9,66.5Zm-5-4.4a.7.7,0,0,0-.7.7v2.8a.9.9,0,0,1-.3.6.7.7,0,0,1-.6.3l-.7-.2-.3-.7.5-5.4h2.7l2,5.5a1,1,0,0,1-.9.8.9.9,0,0,1-.9-.9V62.8A.8.8,0,0,0,321.9,62.1Z"/>
    <path class="cls-5" d="M345.9,56.6c0-.1-.1-.2-.1-.3h0l-7.9-7.9a.9.9,0,0,0-1,0L334.3,51V37.4a1.8,1.8,0,0,0-1.9-1.8,1.8,1.8,0,0,0-1.8,1.8V54.7L328,57.3a.8.8,0,0,0-.2.5v3.9a1,1,0,0,0,.4.7l7.8,3.8h.3l.5-.2,8.9-8.9c.2-.1.2-.4.2-.6Zm-13.8-3.3V37.4c0-.2.1-.4.3-.4a.4.4,0,0,1,.4.4V52.5Zm6.1-.9V50.7l3.2,3.3Zm5.7,4.5-7.6,7.6-4.7-4.8,6-6Zm-14.3.9,7.1-7.1v1.8l-6.2,6.2Zm3,5.1-3.3-1.7V59.6Z"/>
    <rect class="cls-5" x="335" y="59.8" width="1.5" height="1.48"/>
    <rect class="cls-5" x="336.1" y="57.6" width="1.5" height="1.48"/>
    <rect class="cls-5" x="337.8" y="59.3" width="1.5" height="1.48"/>
    <rect class="cls-5" x="338.9" y="57.1" width="1.5" height="1.48"/>
    <rect class="cls-5" x="340" y="64.3" width="1.5" height="1.48"/>
    <rect class="cls-5" x="342.8" y="63.7" width="1.5" height="1.48"/>
    <rect class="cls-5" x="343.9" y="61.5" width="1.5" height="1.48"/>
    <path class="cls-5" d="M325.1,54.6l1.3-1.3,1.2,1.3,1.1-1.1-1.3-1.2,1.3-1.3-1.1-1-1.2,1.2L325.1,50,324,51l1.3,1.3L324,53.5Zm.4-2.3.9-.9.8.9-.8.8Z"/>
  </g>
</svg>
