<svg id="Layer_1" data-name="Layer 1" xmlns="http://www.w3.org/2000/svg" xmlns:xlink="http://www.w3.org/1999/xlink" width="374.5" height="89.4" viewBox="0 0 374.5 89.4">
  <defs>
    <style>
      .cls-1 {
        fill: url(#linear-gradient);
      }

      .cls-2, .cls-4, .cls-5 {
        fill: #fff;
      }

      .cls-2 {
        opacity: 0.3;
      }

      .cls-2, .cls-3, .cls-4 {
        isolation: isolate;
      }

      .cls-4 {
        font-size: 16px;
        font-family: Montserrat-Medium, Montserrat;
      }
    </style>
    <linearGradient id="linear-gradient" x1="405.55" y1="126.36" x2="21.53" y2="-32.27" gradientUnits="userSpaceOnUse">
      <stop offset="0" stop-color="#75c9b9"/>
      <stop offset="1" stop-color="#72bde5"/>
    </linearGradient>
  </defs>
  <title>banner_horticulture_HR0</title>
  <g id="Page-1">
    <g id="UI---Screen-7---v2">
      <g id="Group-2">
        <path id="Path-4" class="cls-1" d="M0,72.4C71,74,112,68.2,210.5,71c58.9,1.7,113.3,7.8,164,18.4V0H0Z"/>
        <rect id="Rectangle-Copy-2" class="cls-2" x="23.5" y="22" width="47" height="7" rx="3.3" ry="3.3"/>
        <path id="Rectangle-Copy-4" class="cls-2" d="M189.8,29h40.5a3.3,3.3,0,0,1,3.3,3.3v.5a3.2,3.2,0,0,1-3.2,3.2H189.8a3.3,3.3,0,0,1-3.2-3.2v-.5a3.3,3.3,0,0,1,3.3-3.2Z"/>
        <rect id="Rectangle-Copy-3" class="cls-2" x="64.5" y="35" width="47" height="7" rx="3.3" ry="3.3"/>
        <path id="Rectangle-Copy-5" class="cls-2" d="M236.8,42h40.5a3.3,3.3,0,0,1,3.3,3.3v.5a3.2,3.2,0,0,1-3.2,3.2H236.8a3.2,3.2,0,0,1-3.2-3.2v-.5A3.2,3.2,0,0,1,236.8,42Z"/>
        <g id="sweep">
          <g id="_" data-name="+" class="cls-3">
            <text class="cls-4" transform="translate(305.5 29.8)">+</text>
          </g>
          <g id="_-copy" data-name="+-copy" class="cls-3">
            <text class="cls-4" transform="translate(336.5 14)">+</text>
          </g>
        </g>
      </g>
    </g>
  </g>
  <g>
    <g>
      <path class="cls-5" d="M324.6,34.2l7.6-.8L327,38.9a.8.8,0,0,0-.2.8.8.8,0,0,0,.7.4h.1a8.8,8.8,0,0,0,4.3-1.8,61.7,61.7,0,0,0,6.9-5.7l1.6-.2,1.1.5v.2a2.4,2.4,0,0,0,.6,1.1,1.9,1.9,0,0,0,1.2.4l9.5-1a2.5,2.5,0,0,0,2.1-1.7,1.7,1.7,0,0,0,.1-1,2.2,2.2,0,0,0-.9-1.7,2.3,2.3,0,0,0-1.8-.5l-9.5,1a1.6,1.6,0,0,0-1.4,1.1,4.3,4.3,0,0,0-.1.5l-.3-.2-1.8-1.3V27.3a2,2,0,0,0,1.1.3,1.6,1.6,0,0,0,1.1-.5l6.5-7a4.1,4.1,0,0,0,.5-.9,2.5,2.5,0,0,0-.6-2.6,2.5,2.5,0,0,0-3.5.2L339,22.5h-.1l-1,1.1a2.1,2.1,0,0,0-.4.6,1.8,1.8,0,0,0,.5,1.8h.2a2.7,2.7,0,0,0-.3,1.2l-1.1,1.1a64.7,64.7,0,0,0-8.8,2.2,8.8,8.8,0,0,0-4,2.3.8.8,0,0,0-.1.8A.6.6,0,0,0,324.6,34.2Zm22.3-16.6a1.1,1.1,0,0,1,.3.8v.3l-.3.4L342,24.4,340.5,23l4.9-5.2A1.1,1.1,0,0,1,346.9,17.6ZM336.3,32.9a39.1,39.1,0,0,1-6.3,4.9l4.4-4.7Zm-8.9-.4A45.6,45.6,0,0,1,337,30l1.6,1.2Zm12.8-6.4L339,25v-.2a.1.1,0,0,1,.1-.1l.5-.6,1.5,1.4-.5.6h-.3Zm2.6,5.2h1l.2,2.1h-1Zm2.4-.4,7.3-.8.7.2a1,1,0,0,1,.4.7c0,.2,0,.3-.1.4a.8.8,0,0,1-.8.7l-7.3.8Z"/>
      <path class="cls-5" d="M327.5,40.4a1,1,0,0,1-.9-.6.8.8,0,0,1,.2-1l4.8-5.1-7,.8a1.1,1.1,0,0,1-.9-.5.9.9,0,0,1,.1-1.1,9.9,9.9,0,0,1,4.1-2.5c2-.6,4.7-1.3,8.7-2.1l1-1a2.9,2.9,0,0,1,.3-1h-.1a1.9,1.9,0,0,1-.5-1.9,1.6,1.6,0,0,1,.4-.7l1-1.1h.2l5.3-5.7a2.9,2.9,0,0,1,2-.9,2.4,2.4,0,0,1,1.8.7,2.7,2.7,0,0,1,.8,2.8,2.1,2.1,0,0,1-.6,1l-6.5,7.1a2.6,2.6,0,0,1-1.3.6l-.9-.2h0v2l1.6,1.2h0c.1-.1.1-.1.1-.2a1.8,1.8,0,0,1,1.6-1.3l9.5-1a3,3,0,0,1,2,.6,3.2,3.2,0,0,1,1,1.8,4.9,4.9,0,0,1-.1,1.2,2.8,2.8,0,0,1-2.3,1.8l-9.5,1a1.8,1.8,0,0,1-1.4-.4,1.7,1.7,0,0,1-.7-1.3h0l-1-.4h-1.4a61.7,61.7,0,0,1-6.9,5.7,9,9,0,0,1-4.4,1.9Zm5.4-7.4-5.8,6.1a.5.5,0,0,0,0,.5c0,.2.2.3.4.3a9.1,9.1,0,0,0,4.2-1.8,53.7,53.7,0,0,0,6.9-5.7h.1l1.7-.2h.1l1,.4h.2v.4a1.2,1.2,0,0,0,.5.9,1,1,0,0,0,1,.3l9.5-1a2.3,2.3,0,0,0,1.9-1.5,2.8,2.8,0,0,0,.1-.9,2.8,2.8,0,0,0-.8-1.5,2.6,2.6,0,0,0-1.7-.5l-9.5,1a1.3,1.3,0,0,0-1.1,1c-.1.1-.1.2-.1.4v.4l-.4-.2-.4-.2L339,30V27.7a4.3,4.3,0,0,0,.1-.5v-.3l.3.2a1.2,1.2,0,0,0,.9.3,1.6,1.6,0,0,0,.9-.5l6.5-7a2.1,2.1,0,0,0-.1-3.1,2.2,2.2,0,0,0-1.5-.6,2.5,2.5,0,0,0-1.7.8l-6.4,6.9a.9.9,0,0,0-.3.5,1.4,1.4,0,0,0,.4,1.5l.3.3h-.1a2.3,2.3,0,0,0-.3,1.1h0l-1.2,1.3h-.1a61.7,61.7,0,0,0-8.7,2.1,9.3,9.3,0,0,0-3.9,2.3.3.3,0,0,0-.1.5.5.5,0,0,0,.5.3h0Zm-4.2,5.8,5.6-5.9,2.8-.3-.6.5a50.7,50.7,0,0,1-6.3,4.9Zm5.9-5.5-2.9,3.1c1.1-.8,2.3-1.8,3.9-3.2Zm8.6.1h-.3c-.1-.1-.2-.2-.2-.3l-.2-1.7a.3.3,0,0,1,.1-.2c0-.1.2-.2.3-.3H344l.3,2.6Zm-.2-2.1.2,1.6h.5V31.3Zm2.2,1.9-.2-2.6,7.4-.7a1.2,1.2,0,0,1,1,.2,1.5,1.5,0,0,1,.4.9c.1.2,0,.4,0,.5a1.4,1.4,0,0,1-1.1.9Zm.3-2.1.2,1.5,7-.7a.6.6,0,0,0,.6-.5c.1-.1.1-.2.1-.4l-.3-.5-.6-.2Zm-19.7,1.8,1.5-.7c1.8-.8,4.7-1.5,9.6-2.5h.1l2.3,1.6Zm11.1-2.7a67.2,67.2,0,0,0-7.4,1.8l8.5-1Zm3.4-3.8H340l-1.2-1.1a.4.4,0,0,1-.1-.5v-.2l.7-.7,1.9,1.7-.8.8h-.3Zm-.8-1.9-.4.4,1.2,1,.4-.4Zm2.5.3-1.8-1.7,5-5.5a1.4,1.4,0,0,1,1.9-.1h0a1.3,1.3,0,0,1,.4.9c0,.1-.1.3-.1.4s-.1.3-.3.5ZM340.9,23l1.1,1.1,4.8-5.2v-.3c.1,0,.1-.1.1-.2a.9.9,0,0,0-.3-.6.8.8,0,0,0-1.1.1Z"/>
    </g>
    <g>
      <path class="cls-5" d="M359.2,59.3a6.2,6.2,0,0,0-1.5-4,6.6,6.6,0,0,0-3.7-2.1v-.3a6.4,6.4,0,0,0-6.3-6.4l-1.6.2a6.1,6.1,0,0,0-4.5-2.4,6.4,6.4,0,0,0-5-2.4,6.6,6.6,0,0,0-4.9,2.4h-.8a6.3,6.3,0,0,0-4.9-2.4,6.5,6.5,0,0,0-6.3,5.3,6.6,6.6,0,0,0-1.7,1.2,6.4,6.4,0,0,0-5.3,5.2l-.4.2a6.3,6.3,0,0,0-2.5,5.1,5.5,5.5,0,0,0,.2,1.8,7.7,7.7,0,0,0,1.4,2.5l.2.2H358l.2-.3a6.3,6.3,0,0,0,1.1-3.5C359.3,59.4,359.3,59.3,359.2,59.3Zm-11,2.6H323a5.6,5.6,0,0,1-.9-1.7,5.9,5.9,0,0,1-.2-1.4,4.7,4.7,0,0,1,2-3.9c.2-.2.3-.3.5-.3l.3-.2V54a4.8,4.8,0,0,1,4.3-4.3h.3l.2-.2a4.8,4.8,0,0,1,1.7-1.2l.4-.2v-.4a3.4,3.4,0,0,1,.5-1.7,2.1,2.1,0,0,1,.4-.6l.5-.6a4.9,4.9,0,0,1,7.4.6l.3.3h.3a5,5,0,0,1,4,2.2l.3.5.5-.2a5.1,5.1,0,0,1,1.7-.3,5,5,0,0,1,4.9,5,2.2,2.2,0,0,1-.1.8v.8h.8a4.2,4.2,0,0,1,3.4,1.7,4.3,4.3,0,0,1,1.2,3.1h0a5,5,0,0,1-.6,2.4Zm-36,0a5.3,5.3,0,0,1-.8-1.7,3.2,3.2,0,0,1-.2-1.4,4.8,4.8,0,0,1,1.9-3.9l.6-.4.3-.2V54a4.9,4.9,0,0,1,4.4-4.3h.3l.2-.2a5.2,5.2,0,0,1,1.7-1.3l.4-.2v-.4a4.9,4.9,0,0,1,4.9-4.3,4.8,4.8,0,0,1,4,2l.2.3h.7a8.8,8.8,0,0,0-.5,1.5,7,7,0,0,0-1.7,1.3,6.3,6.3,0,0,0-5.3,5.1l-.4.3a6.2,6.2,0,0,0-2.5,5,11,11,0,0,0,.2,1.8,5.2,5.2,0,0,0,.6,1.3Z"/>
      <path class="cls-5" d="M358.1,63.6H311.5l-.3-.3a9.4,9.4,0,0,1-1.4-2.6,6.3,6.3,0,0,1-.3-1.9,6.6,6.6,0,0,1,2.7-5.3h0l.3-.2a6.5,6.5,0,0,1,5.4-5.2,6.1,6.1,0,0,1,1.6-1.2,6.6,6.6,0,0,1,6.5-5.3,6.7,6.7,0,0,1,5.1,2.4h.5a6.7,6.7,0,0,1,5-2.4,6.6,6.6,0,0,1,5.1,2.4,6.1,6.1,0,0,1,4.5,2.4,3.9,3.9,0,0,1,1.5-.2,6.6,6.6,0,0,1,6.6,6.6h0a6.5,6.5,0,0,1,3.6,2.2,6.2,6.2,0,0,1,1.6,4.1v.2a6.4,6.4,0,0,1-1.1,3.6Zm-46.4-.5h46.1l.2-.2a5.9,5.9,0,0,0,1-3.4h0a5.5,5.5,0,0,0-1.5-3.8,5.5,5.5,0,0,0-3.5-2h-.2v-.5a6.1,6.1,0,0,0-6.1-6.1,4.7,4.7,0,0,0-1.6.2h-.2a6.3,6.3,0,0,0-4.3-2.4h-.2a6.2,6.2,0,0,0-4.8-2.2,6,6,0,0,0-4.7,2.3h-1.1a6.2,6.2,0,0,0-4.8-2.3,6,6,0,0,0-6,5h-.2a6.1,6.1,0,0,0-1.6,1.2h-.1a6.3,6.3,0,0,0-5.2,5h-.1l-.3.2h0a6.1,6.1,0,0,0-2.5,4.9,8.8,8.8,0,0,0,.2,1.7,7.2,7.2,0,0,0,1.4,2.4Zm45.6-.9H322.8a7.6,7.6,0,0,1-.9-1.8,3.9,3.9,0,0,1-.2-1.5,5.1,5.1,0,0,1,2-4.1l.6-.4h.2V54a5.2,5.2,0,0,1,4.6-4.5h.3a4.9,4.9,0,0,1,1.8-1.4h.3v-.2a4.8,4.8,0,0,1,.6-1.8,1.6,1.6,0,0,1,.4-.7l.5-.6a5.5,5.5,0,0,1,3.6-1.5,5,5,0,0,1,4.2,2.2h.4a5,5,0,0,1,4.2,2.3l.2.3h.4a4.7,4.7,0,0,1,1.7-.3,5.2,5.2,0,0,1,5.2,5.2c0,.3-.1.6-.1.9v.5h.5a5.3,5.3,0,0,1,4.9,5.1h0a4.3,4.3,0,0,1-.7,2.5Zm-34.2-.5h34a5.9,5.9,0,0,0,.5-2.2h0a4.4,4.4,0,0,0-1.2-3,4.7,4.7,0,0,0-3.2-1.6h-1.1l.2-1c0-.3.1-.6.1-.8a4.7,4.7,0,0,0-4.7-4.7,4.1,4.1,0,0,0-1.6.3l-.7.2-.4-.6a4.9,4.9,0,0,0-3.8-2.2h-.5l-.3-.3a4.4,4.4,0,0,0-3.8-2,4.7,4.7,0,0,0-3.3,1.4l-.4.5-.4.6a4.3,4.3,0,0,0-.5,1.6v.6l-.5.2a4.8,4.8,0,0,0-1.6,1.2l-.3.3h-.3a4.7,4.7,0,0,0-4.2,4.1v.4l-.4.3-.5.3a4.5,4.5,0,0,0-1.9,3.7,5.1,5.1,0,0,0,.2,1.3A8,8,0,0,0,323.1,61.7Zm-1.4.5h-9.6a5.4,5.4,0,0,1-1-1.8,7.7,7.7,0,0,1-.2-1.5,5.2,5.2,0,0,1,2.1-4.1l.6-.4h.2v-.3a5.2,5.2,0,0,1,4.6-4.5h.3a4.6,4.6,0,0,1,1.8-1.3h.3v-.3A5.3,5.3,0,0,1,326,43a5.1,5.1,0,0,1,4.2,2.2v.2h1l-.2.3a8.8,8.8,0,0,0-.5,1.5h-.1a5.7,5.7,0,0,0-1.6,1.1h-.1a6.3,6.3,0,0,0-5.2,4.9h-.1l-.3.3a5.8,5.8,0,0,0-2.5,4.8,4.7,4.7,0,0,0,.3,1.7,5,5,0,0,0,.5,1.3Zm-9.3-.5h8.5l-.4-1a5.8,5.8,0,0,1-.3-1.9,6.3,6.3,0,0,1,2.7-5.2l.3-.3a6.6,6.6,0,0,1,5.4-5.2,9.1,9.1,0,0,1,1.6-1.1l.3-1.1h-.4l-.3-.4a4.6,4.6,0,0,0-3.8-2,4.8,4.8,0,0,0-4.7,4.2v.5l-.5.2a4.8,4.8,0,0,0-1.6,1.2l-.3.3h-.3a4.8,4.8,0,0,0-4.2,4.1v.5l-.4.2-.5.4a4.5,4.5,0,0,0-1.9,3.7,5.9,5.9,0,0,0,.2,1.3A4.8,4.8,0,0,0,312.4,61.7Z"/>
    </g>
    <g>
      <path class="cls-5" d="M338,40.6a1.4,1.4,0,0,0,1.4,1.4h.8v-.2a1.5,1.5,0,0,0-1.4-1.4H338Z"/>
      <path class="cls-5" d="M340.4,42.3h-1a1.8,1.8,0,0,1-1.7-1.7v-.4h1.1a1.6,1.6,0,0,1,1.6,1.6Zm-2.2-1.6a1.1,1.1,0,0,0,1.2,1.1h.5a1.1,1.1,0,0,0-1.1-1.1Z"/>
    </g>
    <g>
      <path class="cls-5" d="M335.4,39.2v.2h.8a1.4,1.4,0,0,0,1.4-1.4v-.2h-.8A1.4,1.4,0,0,0,335.4,39.2Z"/>
      <path class="cls-5" d="M336.2,39.7h-1.1v-.5a1.7,1.7,0,0,1,1.7-1.6h1V38A1.7,1.7,0,0,1,336.2,39.7Zm-.6-.5h.6a1.1,1.1,0,0,0,1.1-1.1h-.5A1.3,1.3,0,0,0,335.6,39.2Z"/>
    </g>
    <g>
      <path class="cls-5" d="M342.5,36v-.8h-.2a1.4,1.4,0,0,0-1.3,1.4v.8h.1A1.4,1.4,0,0,0,342.5,36Z"/>
      <path class="cls-5" d="M341.1,37.7h-.4V36.6a1.6,1.6,0,0,1,1.6-1.6h.5v1A1.6,1.6,0,0,1,341.1,37.7Zm1.2-2.2a1.1,1.1,0,0,0-1.1,1.1v.6a1.1,1.1,0,0,0,1.1-1.2Z"/>
    </g>
    <g>
      <path class="cls-5" d="M343.9,40v-.2h-.8a1.5,1.5,0,0,0-1.4,1.4v.2h.8A1.4,1.4,0,0,0,343.9,40Z"/>
      <path class="cls-5" d="M342.5,41.7h-1v-.5a1.6,1.6,0,0,1,1.6-1.6h1.1V40A1.8,1.8,0,0,1,342.5,41.7Zm-.5-.5h.5a1.1,1.1,0,0,0,1.2-1.1h-.6A1.1,1.1,0,0,0,342,41.2Z"/>
    </g>
    <g>
      <path class="cls-5" d="M321.7,40.5h.8v-.2a1.4,1.4,0,0,0-1.4-1.4h-.8v.2A1.4,1.4,0,0,0,321.7,40.5Z"/>
      <path class="cls-5" d="M322.7,40.8h-1a1.8,1.8,0,0,1-1.7-1.7v-.4h1.1a1.6,1.6,0,0,1,1.6,1.6Zm-2.2-1.6a1.1,1.1,0,0,0,1.2,1.1h.5a1.1,1.1,0,0,0-1.1-1.1Z"/>
    </g>
    <g>
      <path class="cls-5" d="M317.3,38.4v.2h.8a1.4,1.4,0,0,0,1.4-1.4V37h-.8A1.4,1.4,0,0,0,317.3,38.4Z"/>
      <path class="cls-5" d="M318.1,38.8h-1v-.4a1.7,1.7,0,0,1,1.6-1.7h1.1v.5A1.7,1.7,0,0,1,318.1,38.8Zm-.5-.5h.5a1.2,1.2,0,0,0,1.2-1.1h-.6A1.1,1.1,0,0,0,317.6,38.3Z"/>
    </g>
    <g>
      <path class="cls-5" d="M324.5,35.2v-.8h-.2a1.4,1.4,0,0,0-1.4,1.4v.8h.2A1.4,1.4,0,0,0,324.5,35.2Z"/>
      <path class="cls-5" d="M323.1,36.8h-.5v-1a1.7,1.7,0,0,1,1.7-1.6h.4v1A1.6,1.6,0,0,1,323.1,36.8Zm1.1-2.1a1.1,1.1,0,0,0-1.1,1.1v.5a1,1,0,0,0,1.1-1.1Z"/>
    </g>
    <g>
      <path class="cls-5" d="M323.7,40.4v.2h.8a1.4,1.4,0,0,0,1.4-1.4V39h-.8A1.4,1.4,0,0,0,323.7,40.4Z"/>
      <path class="cls-5" d="M324.5,40.8h-1.1v-.4a1.8,1.8,0,0,1,1.7-1.7h1v.5A1.6,1.6,0,0,1,324.5,40.8Zm-.6-.5h.6a1.1,1.1,0,0,0,1.1-1.1h-.5A1.3,1.3,0,0,0,323.9,40.3Z"/>
    </g>
    <g>
      <path class="cls-5" d="M314,45.6h-.8v.2a1.4,1.4,0,0,0,1.4,1.4h.8V47A1.4,1.4,0,0,0,314,45.6Z"/>
      <path class="cls-5" d="M315.6,47.4h-1a1.7,1.7,0,0,1-1.7-1.6v-.5H314a1.7,1.7,0,0,1,1.6,1.7Zm-2.2-1.6a1.1,1.1,0,0,0,1.2,1.1h.5a1.1,1.1,0,0,0-1.1-1.1Z"/>
    </g>
    <g>
      <path class="cls-5" d="M310.6,44.4v.2h.8a1.5,1.5,0,0,0,1.4-1.4V43H312A1.4,1.4,0,0,0,310.6,44.4Z"/>
      <path class="cls-5" d="M311.4,44.8h-1.1v-.4a1.8,1.8,0,0,1,1.7-1.7h1v.5A1.6,1.6,0,0,1,311.4,44.8Zm-.6-.5h.6a1.1,1.1,0,0,0,1.1-1.1H312A1.3,1.3,0,0,0,310.8,44.3Z"/>
    </g>
    <g>
      <path class="cls-5" d="M317.7,41.2v-.8h-.2a1.3,1.3,0,0,0-1.3,1.4v.8h.2A1.3,1.3,0,0,0,317.7,41.2Z"/>
      <path class="cls-5" d="M316.4,42.8h-.5v-1a1.7,1.7,0,0,1,1.6-1.7h.5v1.1A1.6,1.6,0,0,1,316.4,42.8Zm1.1-2.2a1.3,1.3,0,0,0-1.1,1.2v.5a1.1,1.1,0,0,0,1.1-1.1Z"/>
    </g>
    <g>
      <path class="cls-5" d="M316.9,46.4v.2h.8a1.4,1.4,0,0,0,1.4-1.4V45h-.8A1.4,1.4,0,0,0,316.9,46.4Z"/>
      <path class="cls-5" d="M317.7,46.8h-1v-.4a1.7,1.7,0,0,1,1.6-1.7h1.1v.5A1.7,1.7,0,0,1,317.7,46.8Zm-.5-.5h.5a1.1,1.1,0,0,0,1.2-1.1h-.6A1.1,1.1,0,0,0,317.2,46.3Z"/>
    </g>
    <g>
      <path class="cls-5" d="M317.6,34.8h.8v-.2a1.4,1.4,0,0,0-1.4-1.4h-.8v.2A1.4,1.4,0,0,0,317.6,34.8Z"/>
      <path class="cls-5" d="M318.7,35h-1.1a1.6,1.6,0,0,1-1.6-1.6v-.5h1a1.8,1.8,0,0,1,1.7,1.7Zm-2.2-1.6a1.1,1.1,0,0,0,1.1,1.1h.6a1.3,1.3,0,0,0-1.2-1.1Z"/>
    </g>
    <g>
      <path class="cls-5" d="M312.4,35v-.2h-.8a1.4,1.4,0,0,0-1.4,1.4v.2h.8A1.4,1.4,0,0,0,312.4,35Z"/>
      <path class="cls-5" d="M311,36.7h-1.1v-.5a1.7,1.7,0,0,1,1.7-1.6h1V35A1.7,1.7,0,0,1,311,36.7Zm-.6-.5h.6a1.1,1.1,0,0,0,1.1-1.1h-.5A1.3,1.3,0,0,0,310.4,36.2Z"/>
    </g>
    <g>
      <path class="cls-5" d="M314.9,31.3v-.8h-.2a1.4,1.4,0,0,0-1.4,1.4v.7h.2A1.3,1.3,0,0,0,314.9,31.3Z"/>
      <path class="cls-5" d="M313.5,32.9h-.4v-1a1.6,1.6,0,0,1,1.6-1.7h.5v1.1A1.7,1.7,0,0,1,313.5,32.9Zm1.2-2.2a1.1,1.1,0,0,0-1.1,1.2v.5a1.1,1.1,0,0,0,1.1-1.1Z"/>
    </g>
    <g>
      <path class="cls-5" d="M315.1,39v-.2h-.8a1.4,1.4,0,0,0-1.4,1.4v.2h.8A1.4,1.4,0,0,0,315.1,39Z"/>
      <path class="cls-5" d="M313.7,40.6h-1.1v-.4a1.7,1.7,0,0,1,1.7-1.6h1V39A1.6,1.6,0,0,1,313.7,40.6Zm-.6-.4h.6a1.1,1.1,0,0,0,1.1-1.1h-.5A1.1,1.1,0,0,0,313.1,40.2Z"/>
    </g>
    <g>
      <path class="cls-5" d="M345,39.4h.8v-.2a1.4,1.4,0,0,0-1.4-1.4h-.8V38A1.4,1.4,0,0,0,345,39.4Z"/>
      <path class="cls-5" d="M346,39.6h-1a1.6,1.6,0,0,1-1.6-1.6v-.5h1a1.7,1.7,0,0,1,1.6,1.7ZM343.8,38a1.3,1.3,0,0,0,1.2,1.1h.5a1.1,1.1,0,0,0-1.1-1.1Z"/>
    </g>
    <g>
      <path class="cls-5" d="M331.8,41.5v.2h.8a1.4,1.4,0,0,0,1.4-1.4v-.2h-.8A1.4,1.4,0,0,0,331.8,41.5Z"/>
      <path class="cls-5" d="M332.6,41.9h-1.1v-.4a1.7,1.7,0,0,1,1.7-1.6h1v.4A1.6,1.6,0,0,1,332.6,41.9Zm-.6-.5h.6a1,1,0,0,0,1.1-1.1h-.5A1.3,1.3,0,0,0,332,41.4Z"/>
    </g>
    <g>
      <path class="cls-5" d="M341.7,38.7v-.8h-.2a1.4,1.4,0,0,0-1.4,1.4v.8h.2A1.4,1.4,0,0,0,341.7,38.7Z"/>
      <path class="cls-5" d="M340.3,40.3h-.5v-1a1.7,1.7,0,0,1,1.7-1.6h.4v1A1.6,1.6,0,0,1,340.3,40.3Zm1.1-2.1a1.1,1.1,0,0,0-1.1,1.1v.6a1.3,1.3,0,0,0,1.1-1.2Z"/>
    </g>
    <g>
      <path class="cls-5" d="M340.2,34.4v-.2h-.8a1.4,1.4,0,0,0-1.4,1.4v.2h.8A1.4,1.4,0,0,0,340.2,34.4Z"/>
      <path class="cls-5" d="M338.8,36.1h-1.1v-.5a1.7,1.7,0,0,1,1.7-1.6h1v.4A1.7,1.7,0,0,1,338.8,36.1Zm-.6-.5h.6a1.1,1.1,0,0,0,1.1-1.1h-.5A1.3,1.3,0,0,0,338.2,35.6Z"/>
    </g>
  </g>
</svg>
