<svg id="Layer_1" data-name="Layer 1" xmlns="http://www.w3.org/2000/svg" xmlns:xlink="http://www.w3.org/1999/xlink" width="70" height="70" viewBox="0 0 70 70">
  <defs>
    <style>
      .cls-1 {
        fill: #f6f6f6;
      }

      .cls-2 {
        fill: url(#linear-gradient);
      }

      .cls-3 {
        fill: url(#linear-gradient-2);
      }

      .cls-4 {
        fill: url(#linear-gradient-3);
      }

      .cls-5 {
        fill: url(#linear-gradient-4);
      }

      .cls-6 {
        fill: url(#linear-gradient-5);
      }

      .cls-7 {
        fill: url(#linear-gradient-6);
      }

      .cls-8 {
        fill: url(#linear-gradient-7);
      }
    </style>
    <linearGradient id="linear-gradient" x1="54.52" y1="73.11" x2="19.66" y2="-9.65" gradientUnits="userSpaceOnUse">
      <stop offset="0" stop-color="#75c9b9"/>
      <stop offset="1" stop-color="#72bde5"/>
    </linearGradient>
    <linearGradient id="linear-gradient-2" x1="55.04" y1="72.89" x2="20.18" y2="-9.87" xlink:href="#linear-gradient"/>
    <linearGradient id="linear-gradient-3" x1="55.73" y1="72.6" x2="20.87" y2="-10.16" gradientTransform="translate(46.5 -17.9) rotate(49.6)" xlink:href="#linear-gradient"/>
    <linearGradient id="linear-gradient-4" x1="36.29" y1="80.79" x2="1.43" y2="-1.97" xlink:href="#linear-gradient"/>
    <linearGradient id="linear-gradient-5" x1="42.05" y1="78.36" x2="7.19" y2="-4.4" xlink:href="#linear-gradient"/>
    <linearGradient id="linear-gradient-6" x1="47.7" y1="75.99" x2="12.83" y2="-6.78" xlink:href="#linear-gradient"/>
    <linearGradient id="linear-gradient-7" x1="44.3" y1="77.42" x2="9.44" y2="-5.35" xlink:href="#linear-gradient"/>
  </defs>
  <title>icon_PC0</title>
  <path id="Rectangle" class="cls-1" d="M3,0H67a2.9,2.9,0,0,1,3,3V67a2.9,2.9,0,0,1-3,3H3a2.9,2.9,0,0,1-3-3V3A2.9,2.9,0,0,1,3,0Z"/>
  <g>
    <g>
      <path class="cls-2" d="M49.6,49.9l-2.2-5.1a1.2,1.2,0,0,0-.5-.5l-2.6-.7v-.4l1.9-1.5.4-.5,2.1-5.1c.1-.2,0-.4-.3-.5a.4.4,0,0,0-.5.2l-2.1,5.1c0,.1-.1.1-.1.2l-1.8,1.4-.5-.3v-.9l.6-.4a3.5,3.5,0,0,0,.7-2.3,4.5,4.5,0,0,0-.1-1.2L45.7,36a1.2,1.2,0,0,0,.4-.8V29.7l.4-1.1c.1-.2-.1-.4-.3-.5s-.4,0-.5.3l-.4,1.1c0,.2-.1.4-.1.6v5.1a.4.4,0,0,1-.1.3l-.9,1.1c-.1-.1-.1-.2-.2-.2a.1.1,0,0,0-.1-.1,2.7,2.7,0,0,0-.6-2.4.4.4,0,0,0-.6.6,2,2,0,0,1,.5,1.3,2.2,2.2,0,0,0-1.1-.2,1.8,1.8,0,0,0-1,.2,1.6,1.6,0,0,1,.4-1.3.4.4,0,0,0,0-.6.5.5,0,0,0-.5,0,2.4,2.4,0,0,0-.6,2.4c-.1,0-.1,0-.1.1a.2.2,0,0,0-.2.2l-1-1.1c0-.1-.1-.2-.1-.3V30.1a1.3,1.3,0,0,0-.1-.6l-.3-1.1a.4.4,0,0,0-.6-.3.4.4,0,0,0-.2.5l.3,1.1a.8.8,0,0,1,.1.4v5.1a1.1,1.1,0,0,0,.3.8l1.2,1.4a4.3,4.3,0,0,0-.2,1.2,3.6,3.6,0,0,0,.8,2.3l.5.4v.9l-.4.3-1.8-1.4c-.1-.1-.1-.1-.1-.2l-2.2-5.1c0-.2-.3-.3-.5-.2a.4.4,0,0,0-.2.5l2.1,5.1a1,1,0,0,0,.4.5L40,43.2v.4l-2.6.7a1,1,0,0,0-.6.5l-2.1,5.1a.4.4,0,0,0,.2.5h.2a.5.5,0,0,0,.4-.3l2.1-5.1h0l2.5-.7a10.7,10.7,0,0,0-.7,1.5l-1.6,1.4a1.2,1.2,0,0,0-.5,1v5.4a.6.6,0,0,1-.1.4l-.7,1.5a.4.4,0,0,0,.2.5.1.1,0,0,0,.1.1.5.5,0,0,0,.4-.2l.8-1.5a2.2,2.2,0,0,0,.1-.8V48.3a.5.5,0,0,1,.2-.4l.7-.6a12.6,12.6,0,0,0-.4,2.8,7.2,7.2,0,0,0,1,3.6,3.2,3.2,0,0,0,2.5,1.6,3.3,3.3,0,0,0,2.6-1.6,7.1,7.1,0,0,0,.9-3.6,12.7,12.7,0,0,0-.3-2.8l.7.6c.1.1.1.2.1.4v5.4a2.4,2.4,0,0,0,.2.8L47,56l.4.2h.2a.4.4,0,0,0,.2-.5L47,54.1c0-.1-.1-.3-.1-.4V48.3a1.2,1.2,0,0,0-.4-1l-1.6-1.4a10.2,10.2,0,0,0-.8-1.5l2.6.7h0l2.1,5.1c.1.2.2.3.4.3a.1.1,0,0,0,.1-.1A.5.5,0,0,0,49.6,49.9Zm-5.4,2.8H40l-.3-.9h4.9A3.6,3.6,0,0,1,44.2,52.7ZM39.5,51v-.9h5.3a2.8,2.8,0,0,1-.1.9Zm4.4-2.7h.7c.1.3.1.6.2.9H39.5c0-.3.1-.6.1-.9h2.5c.3,0,.4-.2.4-.5a.4.4,0,0,0-.4-.4H39.8a6.5,6.5,0,0,1,.4-1.3,4.3,4.3,0,0,0,1.9.4,4.5,4.5,0,0,0,2-.4l.4,1.3h-.6a.4.4,0,0,0-.4.4A.5.5,0,0,0,43.9,48.3Zm-3.6-9.7c0-1.4.7-2.2,1.8-2.2s1.8.8,1.8,2.2-.7,2.2-1.8,2.2S40.3,40,40.3,38.6Zm1.8,3.1h.5v.6h-.9v-.6ZM41.2,43H43a.5.5,0,0,1,.5.4.5.5,0,0,1-.5.5.4.4,0,0,0-.4.4.4.4,0,0,0,.4.4h.3a2.1,2.1,0,0,1,.4.6,2.9,2.9,0,0,1-1.6.4,3.2,3.2,0,0,1-1.6-.4,2.1,2.1,0,0,0,.4-.6h.3c.3,0,.5-.1.5-.4a.5.5,0,0,0-.5-.4.5.5,0,0,1-.4-.5A.4.4,0,0,1,41.2,43Zm.9,11.5a2.2,2.2,0,0,1-1.6-1h3.3A2.4,2.4,0,0,1,42.1,54.5Z"/>
      <path class="cls-3" d="M42,25.3A16.7,16.7,0,1,1,25.3,42,16.7,16.7,0,0,1,42,25.3m0-1.2A18,18,0,1,0,60,42,17.9,17.9,0,0,0,42,24.1Z"/>
      <rect class="cls-4" x="41.9" y="24" width="1.3" height="34.72" transform="translate(-16.5 47) rotate(-49.6)"/>
    </g>
    <g>
      <path class="cls-5" d="M10,26.5h5l.2-.2h.1v-.2h0v-.4h0v-.2h-.2v-.2h0v-.2h0v-.2h0v-.4h0v-.2H15v-.2H10v1h0v.5H10v.5h0v1.6h0v.4h0v.6Zm3.7-1.6v.2h0v.2H11.7v-.4h2Zm-2-2v-.2h0Z"/>
      <polygon class="cls-6" points="18.1 22 18.1 21.9 18.2 21.5 18.2 21.4 18.1 21.3 18.1 21.2 18.1 21.1 17.9 21.1 17.8 21.1 17.7 21.1 17.3 21.1 17.2 21.1 16.9 21.1 16.7 21.1 16.6 21.1 16.5 21.1 16.4 21.2 16.4 21.3 16.4 21.5 16.4 21.8 16.4 21.9 16.5 22.3 16.4 22.5 16.4 22.9 16.4 23 16.4 23.6 16.4 24.1 16.4 24.2 16.4 24.6 16.4 24.8 16.4 25.2 16.4 25.3 16.4 25.8 16.4 26.5 16.4 26.7 16.4 26.9 16.4 27 16.4 27 16.5 27.1 16.5 27.1 16.6 27.1 16.7 27.1 16.8 27.1 17.2 27.1 17.3 27.1 17.7 27.2 17.8 27.2 17.9 27.2 18.1 27.1 18.1 27.1 18.2 27 18.2 26.8 18.1 26.4 18.1 26.3 18.1 25.7 18.1 25.6 18.1 25.1 18.1 24.9 18.2 24.9 18.3 24.8 18.4 24.8 18.8 24.9 19.5 24.9 19.6 24.9 20 24.8 20.2 24.8 20.2 24.9 20.3 24.9 20.3 25.1 20.3 25.6 20.3 25.7 20.3 26.3 20.3 26.4 20.3 26.9 20.3 27.1 20.4 27.1 20.5 27.2 20.6 27.2 21.1 27.1 21.2 27.1 21.7 27.1 21.8 27.1 21.9 27.1 22 27.1 22 27 22 26.8 22 26.7 22 26.5 22 26.4 22 25.8 22 25.3 22 25.2 22 24.8 22 24.6 22 24.2 22 24.1 22 23.6 22 23.5 22 23 22 22.9 22 22.5 22 22.3 22 21.9 22 21.8 22 21.4 22 21.3 22 21.2 21.9 21.1 21.8 21.1 21.7 21.1 21.6 21.1 21.2 21.1 21.1 21.1 20.6 21.1 20.5 21.1 20.4 21.1 20.3 21.2 20.3 21.3 20.3 21.9 20.3 22 20.3 22.5 20.3 22.7 20.3 23.2 20.3 23.3 20.3 23.4 20.2 23.4 20.1 23.4 20 23.4 19.5 23.4 19 23.4 18.8 23.4 18.5 23.4 18.4 23.4 18.3 23.4 18.2 23.4 18.1 23.4 18.1 23.3 18.1 23.2 18.1 22.5 18.1 22"/>
      <polygon class="cls-7" points="23.2 26.6 23.2 26.8 23.2 26.9 23.2 27 23.2 27.1 23.2 27.1 23.3 27.2 23.7 27.1 23.8 27.1 24.2 27.2 24.5 27.2 24.7 27.1 24.8 27.1 24.9 27.1 24.9 27 24.9 26.9 24.9 26.8 24.9 26.6 24.9 26.4 24.9 26 24.9 25.4 24.9 25.3 25 25.3 25 25.3 25.1 25.4 25.1 25.4 25.4 25.8 25.5 25.9 25.8 26.2 25.9 26.3 26.2 26.7 26.2 26.8 26.5 27.1 26.6 27.1 26.7 27.2 27.2 27.1 27.4 27.1 27.9 27.1 28 27.1 28.5 27.2 28.6 27.2 28.7 27.1 28.7 27.1 28.7 27 28.7 27 28.3 26.6 28.2 26.5 27.9 26.1 27.8 26 27.4 25.6 27.3 25.5 27 25.1 26.9 25 26.6 24.7 26.5 24.6 26.2 24.2 26.1 24.1 26.1 24 26.1 24 26.2 23.9 26.3 23.8 26.5 23.6 26.6 23.5 26.9 23.2 27 23.1 27.3 22.7 27.3 22.6 27.7 22.2 27.8 22.1 28 21.7 28.1 21.6 28.4 21.3 28.5 21.2 28.5 21.2 28.5 21.2 28.5 21.1 28.4 21.1 28.1 21.1 27.9 21.1 27.6 21.1 27.1 21.1 27 21.1 26.6 21.1 26.5 21.1 26.4 21.2 26.1 21.5 26.1 21.6 25.8 22 25.3 22.5 25.1 22.9 25 23 24.9 22.9 24.9 22.9 24.9 22.4 24.9 22.3 24.9 21.8 24.9 21.7 24.9 21.4 24.9 21.3 24.9 21.2 24.9 21.2 24.8 21.1 24.7 21.1 24.4 21.1 24.2 21.1 23.8 21.1 23.7 21.1 23.5 21.1 23.3 21.1 23.2 21.1 23.2 21.2 23.2 21.3 23.2 21.7 23.2 21.9 23.2 22.9 23.2 23 23.2 23.5 23.2 23.6 23.2 24.1 23.2 24.7 23.2 24.8 23.2 25.2 23.2 25.4 23.2 26 23.2 26.4 23.2 26.6"/>
      <polygon class="cls-8" points="14.5 18.3 14.5 19.1 14.5 19.2 14.5 19.3 14.6 19.3 14.8 19.3 15.5 19.4 16.4 19.4 18.2 19.4 19.3 19.3 20 19.3 21 19.4 21.1 19.4 21.4 19.4 21.6 19.4 22 19.3 22.1 19.3 22.1 19.2 22.2 19.1 22.2 18.9 22.2 18.7 22.2 18.4 22.2 17.9 22.1 17.7 22.1 17.5 22.1 17.3 22 17.2 21.9 17.1 21.7 17.1 21.2 17.2 21 17.2 19.6 17.2 19.4 17.2 18.7 17.2 17.7 17.2 17.2 17.2 17 17.2 16.9 17.2 16.9 17.1 16.9 17 17 16.9 17 16.8 17.1 16.6 17.2 16.4 17.3 16.3 17.4 16.2 17.6 16.1 17.7 16.1 17.9 16.1 18 16.1 18.2 16 18.3 16 18.5 16 18.8 16 19 16 19.2 15.9 19.4 15.9 19.7 15.9 19.9 15.8 20.1 15.8 20.3 15.7 20.6 15.7 20.7 15.6 21 15.5 21.2 15.4 21.4 15.2 21.5 15 21.7 14.8 21.8 14.7 21.9 14.4 22 14.2 22.1 14 22.1 13.8 22.2 13.5 22.2 13.4 22.2 13.1 22.2 12.9 22.2 12.6 22.2 12.4 22.1 12.2 22 12 22 11.8 21.9 11.7 21.7 11.4 21.6 11.3 21.4 11.1 21.3 11 21.1 10.8 20.9 10.7 20.7 10.6 20.5 10.5 20.3 10.4 19.9 10.3 19.7 10.3 19.4 10.2 19.2 10.2 19.1 10.1 18.9 10.1 18.6 10.2 18.1 10.2 17.9 10.2 17.7 10.2 17.5 10.2 17.3 10.2 17.1 10.3 16.8 10.3 16.6 10.4 16.4 10.5 16 10.7 15.9 10.8 15.6 11 15.5 11.1 15.3 11.2 15.2 11.4 15.1 11.6 15 11.7 14.8 12 14.8 12.2 14.7 12.3 14.7 12.5 14.7 12.6 14.7 12.8 14.7 13 14.7 13 14.8 13.1 14.9 13.1 15.3 13.1 15.5 13.2 16 13.2 16.5 13.2 16.8 13.2 16.9 13.2 17.1 13.1 17.2 13 17.2 12.9 17.3 12.7 17.4 12.6 17.5 12.5 17.6 12.4 17.8 12.3 18 12.2 18.2 12.2 18.4 12.2 18.6 12.2 18.8 12.2 18.9 12.2 19.2 12.3 19.4 12.4 19.5 12.5 19.5 12.6 19.6 12.8 19.6 12.9 19.6 13.2 19.6 13.5 19.4 13.6 19.4 13.7 19.2 13.8 19.1 13.9 18.8 13.9 18.5 13.9 18.3 14 18.2 14 17.5 14 17.3 14 17.1 14.1 16.9 14.1 16.6 14.2 16.4 14.3 16.1 14.4 16 14.5 15.7 14.7 15.6 14.8 15.4 14.9 15.2 15.1 15 15.3 14.9 15.5 14.8 15.7 14.8 15.8 14.7 16 14.6 16.2 14.6 16.4 14.5 16.8 14.5 17.1 14.5 17.3 14.5 18.1 14.5 18.3"/>
    </g>
  </g>
</svg>
