<svg id="Layer_1" data-name="Layer 1" xmlns="http://www.w3.org/2000/svg" xmlns:xlink="http://www.w3.org/1999/xlink" width="374.5" height="89.4" viewBox="0 0 374.5 89.4">
  <defs>
    <style>
      .cls-1 {
        fill: url(#linear-gradient);
      }

      .cls-2, .cls-4, .cls-5 {
        fill: #fff;
      }

      .cls-2 {
        opacity: 0.3;
      }

      .cls-2, .cls-3, .cls-4 {
        isolation: isolate;
      }

      .cls-4 {
        font-size: 16px;
        font-family: Montserrat-Medium, Montserrat;
      }
    </style>
    <linearGradient id="linear-gradient" x1="405.55" y1="126.36" x2="21.53" y2="-32.27" gradientUnits="userSpaceOnUse">
      <stop offset="0" stop-color="#75c8b8"/>
      <stop offset="1" stop-color="#71bbe4"/>
    </linearGradient>
  </defs>
  <title>banner_pumbing_P0</title>
  <g id="Page-1">
    <g id="UI---Screen-7---v2">
      <g id="Group-2">
        <path id="Path-4" class="cls-1" d="M0,72.4C71,74,112,68.2,210.5,71c58.9,1.7,113.3,7.8,164,18.4V0H0Z"/>
        <rect id="Rectangle-Copy-2" class="cls-2" x="23.5" y="22" width="47" height="7" rx="3.3" ry="3.3"/>
        <rect id="Rectangle-Copy-4" class="cls-2" x="186.5" y="29" width="47" height="7" rx="3.3" ry="3.3"/>
        <rect id="Rectangle-Copy-3" class="cls-2" x="64.5" y="35" width="47" height="7" rx="3.3" ry="3.3"/>
        <path id="Rectangle-Copy-5" class="cls-2" d="M236.8,42h40.5a3.2,3.2,0,0,1,3.2,3.2v.5a3.2,3.2,0,0,1-3.2,3.2H236.8a3.3,3.3,0,0,1-3.2-3.2v-.5A3.3,3.3,0,0,1,236.8,42Z"/>
        <g id="sweep">
          <g id="_" data-name="+" class="cls-3">
            <text class="cls-4" transform="translate(358 26)">+</text>
          </g>
          <g id="_-copy" data-name="+-copy" class="cls-3">
            <text class="cls-4" transform="translate(336.5 14)">+</text>
          </g>
        </g>
      </g>
    </g>
  </g>
  <g>
    <path class="cls-5" d="M333.8,16.8a25,25,0,1,0,25,25A25,25,0,0,0,333.8,16.8Zm14.1,7.5a2,2,0,1,1-3.9,0,2,2,0,0,1,1.9-1.9A2,2,0,0,1,347.9,24.3Zm-10.4-2.9a2,2,0,1,1-2-2A2,2,0,0,1,337.5,21.4Zm16.2,31.3a1.6,1.6,0,0,1-1.5-.1,2.2,2.2,0,0,1-1-1.1,2,2,0,0,1,.1-1.5,2.2,2.2,0,0,1,1.1-1h.7a1.9,1.9,0,0,1,1.8,1.3A2,2,0,0,1,353.7,52.7Zm2.4-3.3a3.4,3.4,0,0,0-4.2-1.7,3.5,3.5,0,0,0-1.9,1.7,3.4,3.4,0,0,0-.1,2.6,2.9,2.9,0,0,0,1.7,1.9,2.8,2.8,0,0,0,1.5.4l.8-.2a23.6,23.6,0,1,1-20.1-35.8h.4a3.3,3.3,0,0,0-2.1,3.1,3.4,3.4,0,1,0,6.8,0,3.6,3.6,0,0,0-1.6-2.9,23.4,23.4,0,0,1,7.7,2.6,3.4,3.4,0,0,0,.9,6.6,3.4,3.4,0,0,0,3.4-3.4v-.2a23.1,23.1,0,0,1,5,6.2,3.4,3.4,0,0,0-3.6,1.3,3.4,3.4,0,0,0,.9,4.7,2.7,2.7,0,0,0,1.9.6,3.5,3.5,0,0,0,2.8-1.4.3.3,0,0,1,.1-.2,23.8,23.8,0,0,1,1,6.5A23.8,23.8,0,0,1,356.1,49.4Zm-1-14.7a1.9,1.9,0,0,1-2.7.5,2.1,2.1,0,0,1-.5-2.8,2.1,2.1,0,0,1,1.6-.8,1.5,1.5,0,0,1,1.1.4A1.9,1.9,0,0,1,355.1,34.7Z"/>
    <path class="cls-5" d="M320.2,31.1a8.8,8.8,0,1,0,8.8,8.8A8.8,8.8,0,0,0,320.2,31.1Zm0,16.1a7.3,7.3,0,0,1,0-14.6,7.3,7.3,0,1,1,0,14.6Z"/>
    <path class="cls-5" d="M325.3,27.6a3.4,3.4,0,0,0,3.4-3.4,3.4,3.4,0,1,0-6.8,0A3.4,3.4,0,0,0,325.3,27.6Zm0-5.4a2,2,0,0,1,2,2,2,2,0,0,1-4,0A2,2,0,0,1,325.3,22.2Z"/>
    <path class="cls-5" d="M351.7,38.4a3.1,3.1,0,0,0-2.5-.5,3.4,3.4,0,0,0-2.2,1.5,3.5,3.5,0,0,0,1,4.7,4.1,4.1,0,0,0,1.9.5h.7a3.1,3.1,0,0,0,2.1-1.4,3.4,3.4,0,0,0,.5-2.6A3.2,3.2,0,0,0,351.7,38.4Zm-.2,3.9a2.7,2.7,0,0,1-1.2.9,2,2,0,1,1-.8-3.9h.4a1.7,1.7,0,0,1,1,.3,1.8,1.8,0,0,1,.9,1.2A2,2,0,0,1,351.5,42.3Z"/>
    <path class="cls-5" d="M345.2,54.4a3.4,3.4,0,0,0-2.6,0,3.4,3.4,0,0,0-1.7,4.5,3.4,3.4,0,0,0,1.9,1.8,2.5,2.5,0,0,0,1.2.2,3.5,3.5,0,0,0,1.4-.3,3.4,3.4,0,0,0,1.8-1.9,3.1,3.1,0,0,0-.1-2.5A3.3,3.3,0,0,0,345.2,54.4Zm.6,3.8a1.8,1.8,0,0,1-1,1.1,1.9,1.9,0,0,1-2.6-2.5c.1-.5.5-.8,1-1.1h1.5a2.2,2.2,0,0,1,1.1,1A1.9,1.9,0,0,1,345.8,58.2Z"/>
    <path class="cls-5" d="M340.8,36.3a2.7,2.7,0,0,0,1.9.6,3.5,3.5,0,0,0,2.8-1.4,3.4,3.4,0,0,0-.8-4.7,3.5,3.5,0,0,0-4.8.8A3.4,3.4,0,0,0,340.8,36.3Zm.3-3.9a2.1,2.1,0,0,1,1.6-.8,1.5,1.5,0,0,1,1.1.4,1.9,1.9,0,1,1-2.2,3.2A2.1,2.1,0,0,1,341.1,32.4Z"/>
    <path class="cls-5" d="M342.8,50.8a3.3,3.3,0,0,0,2-4.3,3.3,3.3,0,0,0-4.3-2,2.9,2.9,0,0,0-1.9,1.7,3.2,3.2,0,0,0,1.6,4.5,3.3,3.3,0,0,0,1.4.4Zm-2-1.4a1.8,1.8,0,0,1-1-1.1,1.6,1.6,0,0,1,.1-1.5,1.8,1.8,0,0,1,1.1-1h.6a2,2,0,0,1,.7,3.8A1.6,1.6,0,0,1,340.8,49.4Z"/>
    <path class="cls-5" d="M333.5,55.3a3.7,3.7,0,0,0-2.5.3,3.4,3.4,0,0,0-1.6,2.1,3.3,3.3,0,0,0,2.4,4.1l.8.2a3.4,3.4,0,0,0,3.3-2.5,3.4,3.4,0,0,0-2.4-4.2Zm1,3.8a1.9,1.9,0,0,1-2.4,1.4,2,2,0,0,1-1.3-2.4,1.9,1.9,0,0,1,2.4-1.4,1.8,1.8,0,0,1,1.2.9A2,2,0,0,1,334.5,59.1Z"/>
    <path class="cls-5" d="M331.2,33.1a3.3,3.3,0,0,0,1.9.6h.6a3.4,3.4,0,0,0,2.2-1.5h0a3.3,3.3,0,0,0-.9-4.7,3.5,3.5,0,0,0-4.7.9,3.1,3.1,0,0,0-.5,2.5A3,3,0,0,0,331.2,33.1Zm.3-3.9a1.8,1.8,0,0,1,1.6-.8,2,2,0,0,1,1.1.3,1.9,1.9,0,0,1,.5,2.7,1.4,1.4,0,0,1-1.2.8,1.9,1.9,0,0,1-2-3Z"/>
    <path class="cls-5" d="M339.2,41.2a3.4,3.4,0,1,0-3.1,2l1.2-.2A4.1,4.1,0,0,0,339.2,41.2Zm-1.3-.6c-.3.5-.6.9-1.1,1a2,2,0,0,1-2.6-1.1,2,2,0,0,1,.1-1.5,1.8,1.8,0,0,1,1.1-1l.7-.2.8.2a2.2,2.2,0,0,1,1,1.1A2,2,0,0,1,337.9,40.6Z"/>
    <path class="cls-5" d="M333.9,46a3.4,3.4,0,0,0-4.1,2.5,3.4,3.4,0,0,0,.4,2.6,3.6,3.6,0,0,0,2.1,1.5h.8a4.1,4.1,0,0,0,1.8-.5,3.6,3.6,0,0,0,1.5-2.1A3.4,3.4,0,0,0,333.9,46Zm1.1,3.8a1.8,1.8,0,0,1-.9,1.2,2.4,2.4,0,0,1-1.5.2h0a1.8,1.8,0,0,1-1.2-.9,2.5,2.5,0,0,1-.2-1.5,1.9,1.9,0,0,1,1.9-1.5h.5A1.9,1.9,0,0,1,335,49.8Z"/>
    <path class="cls-5" d="M323,52.9a3.4,3.4,0,0,0-.2,4.8,3,3,0,0,0,2.3,1.1h.2a4,4,0,0,0,2.3-.8,4.4,4.4,0,0,0,1.1-2.4,3.4,3.4,0,0,0-.9-2.4A3.4,3.4,0,0,0,323,52.9Zm3.6,4a2.4,2.4,0,0,1-1.4.5,2.1,2.1,0,0,1-1.4-.7A1.9,1.9,0,0,1,324,54a1.7,1.7,0,0,1,1.3-.5,2.2,2.2,0,0,1,1.5.6,2.4,2.4,0,0,1,.5,1.4A2.3,2.3,0,0,1,326.6,56.9Z"/>
  </g>
</svg>
