<?xml version="1.0" encoding="UTF-8"?>
<svg width="24px" height="18px" viewBox="0 0 24 18" version="1.1" xmlns="http://www.w3.org/2000/svg" xmlns:xlink="http://www.w3.org/1999/xlink">
    <!-- Generator: Sketch 53 (72520) - https://sketchapp.com -->
    <title>Group 31</title>
    <desc>Created with Sketch.</desc>
    <g id="Page-1" stroke="none" stroke-width="1" fill="none" fill-rule="evenodd">
        <g id="UI---Screen-5" transform="translate(-12.000000, -320.000000)">
            <g id="Group-31" transform="translate(13.000000, 321.000000)">
                <path d="M11.6268143,0.749037143 C11.5703143,0.823537143 11.5133143,0.827037143 11.4568143,0.749037143 L11.6268143,0.749037143 Z" id="Fill-1" fill="#020405"></path>
                <path d="M10.1249571,0.749037143 C10.1114571,0.766037143 10.0974571,0.783037143 10.0834571,0.800037143 C10.0784571,0.783037143 10.0734571,0.766037143 10.0684571,0.749037143 L10.1249571,0.749037143 Z" id="Fill-3" fill="#020405"></path>
                <path d="M1.70173143,9.11566857 C1.71573143,9.11666857 1.72973143,9.11766857 1.74373143,9.11866857 C1.72973143,9.13666857 1.71573143,9.15466857 1.70173143,9.17216857 L1.70173143,9.11566857 Z" id="Fill-5" fill="#020405"></path>
                <path d="M1.70173143,10.5753686 L1.74323143,10.6288686 C1.72973143,10.6298686 1.71573143,10.6308686 1.70173143,10.6318686 L1.70173143,10.5753686 Z" id="Fill-7" fill="#020405"></path>
                <path d="M7.48103714,6.3052 C7.48292286,6.0434 7.27769429,5.83722857 7.00929429,5.83188571 C6.72863714,5.82622857 6.50486571,6.03994286 6.50832286,6.30991429 C6.51178,6.55757143 6.73838,6.78982857 6.98415143,6.79642857 C7.24658,6.80397143 7.47915143,6.57422857 7.48103714,6.3052 Z M8.75452286,9.39525714 C7.86383714,8.83048571 7.02280857,8.84997143 6.20912286,9.4754 C6.13118,9.38457143 6.16323714,9.29122857 6.16323714,9.20605714 C6.15883714,6.3514 6.15569429,3.49674286 6.15569429,0.641771429 C6.15600857,0.0883142857 6.12175143,0.165942857 6.64283714,0.164057143 C8.16995143,0.160285714 9.69706571,0.1672 11.2244943,0.1606 C11.4294086,0.159657143 11.5230657,0.186057143 11.5221229,0.431828571 C11.5120657,2.81694286 11.5126943,5.20268571 11.5208657,7.58842857 C11.5218086,7.82288571 11.4608371,7.9024 11.22198,7.88888571 C10.8734371,7.86908571 10.5233229,7.88322857 10.1741514,7.88385714 C9.47518,7.88511429 8.98678,8.27734286 8.83246571,8.96374286 C8.80198,9.0992 8.78280857,9.23717143 8.75452286,9.39525714 Z" id="Stroke-9" stroke="#98C03C" stroke-width="1.2"></path>
                <path d="M16.5577343,12.6130086 C16.10202,12.6133229 15.64662,12.6142657 15.1905914,12.6130086 C14.7945914,12.6120657 14.5912486,12.4304086 14.5057629,12.0001514 C14.4416486,11.6745514 14.4825057,11.3442371 14.4759057,11.0161229 C14.4677343,10.5874371 14.4689914,10.1584371 14.4752771,9.72975143 C14.4843914,9.09615143 14.7172771,8.84629429 15.2848771,8.84629429 C16.1727343,8.84629429 17.0605914,8.84629429 17.9484486,8.84472286 C18.4079343,8.84440857 18.6555914,9.07006571 18.6669057,9.56915143 C18.6841914,10.3466943 18.6845057,11.1248657 18.66502,11.90178 C18.6533914,12.3713229 18.3843629,12.6136371 17.9519057,12.6130086 C17.4873914,12.61238 17.0225629,12.6130086 16.5577343,12.6130086 Z" id="Stroke-11" stroke="#98C03C" stroke-width="1.2"></path>
                <path d="M11.6710943,8.84865143 C12.1444086,8.84865143 12.6183514,8.84833714 13.09198,8.84896571 C13.4298371,8.84959429 13.6114943,8.99730857 13.71238,9.34899429 C13.7818371,9.59193714 13.7654943,9.84242286 13.7654943,10.0913371 C13.7658086,10.6199657 13.7683229,11.14828 13.7626657,11.6769086 C13.7554371,12.3739943 13.5373229,12.6100229 12.91158,12.6109657 C12.0372371,12.6122229 11.16258,12.61348 10.2885514,12.6131657 C9.84666571,12.6125371 9.58643714,12.3535657 9.57826571,11.8664229 C9.56506571,11.1083657 9.56600857,10.3503086 9.57700857,9.59288 C9.58486571,9.09348 9.82969429,8.84708 10.2772371,8.84645143 C10.7417514,8.84582286 11.2062657,8.84645143 11.6710943,8.84645143 L11.6710943,8.84865143 Z" id="Stroke-13" stroke="#98C03C" stroke-width="1.2"></path>
                <path d="M14.0976,14.28636 C12.6936857,14.28636 11.2897714,14.2807029 9.88585714,14.2913886 C9.6052,14.2935886 9.55051429,14.2147029 9.57345714,14.02456 C9.60111429,13.80016 9.61305714,13.5732457 9.60268571,13.3482171 C9.59482857,13.1860457 9.65768571,13.1376457 9.87297143,13.1382743 C11.9406571,13.1448743 14.0086571,13.1426743 16.0763429,13.1429886 C16.8353429,13.1429886 17.5943429,13.1470743 18.3533429,13.14016 C18.5566857,13.13796 18.6384,13.1759886 18.6318,13.3463314 C18.6226857,13.5858171 18.6421714,13.8271886 18.6748571,14.0651029 C18.6996857,14.2439314 18.6167143,14.2901314 18.3945143,14.2891886 C16.9623143,14.2832171 15.5301143,14.28636 14.0976,14.28636 Z" id="Stroke-15" stroke="#98C03C" stroke-width="1.2"></path>
                <path d="M9.05736857,12.9997371 C9.05139714,13.6767086 9.00174,14.2930229 8.91719714,14.9052514 C8.86408286,15.2911943 8.62931143,15.49768 8.28925429,15.5023943 C7.96176857,15.5071086 7.74962571,15.3320514 7.68834,14.9995371 C7.61039714,14.5771371 7.65785429,14.1462514 7.58839714,13.7197657 C7.48594,13.0933943 7.23356857,12.5817371 6.75051143,12.1521086 C5.94782571,11.4383657 6.18574,10.2575943 7.16474,9.96342286 C7.89168286,9.74530857 8.60479714,10.1372229 8.81536857,10.8943371 C9.01211143,11.6005371 9.05076857,12.3277943 9.05736857,12.9997371 Z" id="Stroke-17" stroke="#98C03C" stroke-width="1.2"></path>
                <path d="M19.1416657,13.03566 C19.1448086,12.3159457 19.1884943,11.6003171 19.37738,10.9019743 C19.6262943,9.98300286 20.6439514,9.60146 21.39478,10.1392029 C22.0535229,10.6109457 22.1311514,11.4818314 21.5308657,12.0557171 C21.0858371,12.4806314 20.72378,12.9335171 20.6307514,13.5620886 C20.5691514,13.9766314 20.5166657,14.3902314 20.5150943,14.8107457 C20.5141514,15.2617457 20.3148943,15.49306 19.9456086,15.5012314 C19.5631229,15.5094029 19.3132657,15.26866 19.2683229,14.8547457 C19.2026371,14.2497457 19.13758,13.6453743 19.1416657,13.03566 Z" id="Stroke-19" stroke="#98C03C" stroke-width="1.2"></path>
                <path d="M3.65360286,15.50406 C2.64411714,15.50406 1.63431714,15.5068886 0.624517143,15.5034314 C0.104688571,15.5015457 0.171631429,15.5452314 0.165345714,15.0766314 C0.16346,14.9270314 0.180117143,14.77586 0.162517143,14.6278314 C0.132031429,14.3682314 0.229145714,14.2858886 0.507917143,14.2880886 C2.03754571,14.30066 3.56780286,14.2946886 5.09774571,14.2950029 C5.62857429,14.2950029 6.16003143,14.3091457 6.68991714,14.2887171 C6.95737429,14.2789743 7.03720286,14.3660314 7.02054571,14.61086 C7.00577429,14.8283457 7.00420286,15.0536886 7.09943143,15.2592314 C7.20031714,15.47546 7.10288857,15.50846 6.90111714,15.5068886 C6.01640286,15.5006029 5.13168857,15.50406 4.24697429,15.5037457 C4.04897429,15.5037457 3.85128857,15.5037457 3.65360286,15.50406 Z" id="Stroke-21" stroke="#98C03C" stroke-width="1.2"></path>
                <path d="M14.0870086,14.7731257 L18.3678943,14.7731257 C18.4078086,14.7731257 18.4477229,14.7728114 18.4876371,14.7731257 C18.8214086,14.7790971 19.0090371,14.9101543 19.00998,15.1383257 C19.0109229,15.3605257 18.8198371,15.49944 18.4860657,15.5000686 C15.5522086,15.5025829 12.6180371,15.5032114 9.68418,15.5019543 C9.37398,15.5019543 9.19703714,15.36084 9.19640857,15.1354971 C9.19578,14.9088971 9.36360857,14.7781543 9.68606571,14.7775257 C11.1528371,14.7746971 12.6199229,14.7762686 14.0870086,14.7762686 L14.0870086,14.7731257 Z" id="Stroke-23" stroke="#98C03C" stroke-width="1.2"></path>
                <path d="M6.15651143,12.3883571 C6.69394,12.7259 6.87434,13.2042429 6.94442571,13.7445 C6.94851143,13.7734143 6.95542571,13.8211857 6.94159714,13.8303 C6.74234,13.9591571 6.52045429,13.8683286 6.30894,13.8900143 C6.19076857,13.9019571 6.15651143,13.8227571 6.15651143,13.7193571 C6.15682571,13.2935 6.15651143,12.8673286 6.15651143,12.3883571 Z" id="Stroke-25" stroke="#98C03C" stroke-width="1.2"></path>
                <path d="M4.60472571,6.79168286 C4.36272571,6.79482571 4.13015429,6.56225429 4.12701143,6.31396857 C4.12072571,6.05311143 4.36272571,5.81425429 4.62358286,5.82682571 C4.88758286,5.83939714 5.08244,6.04996857 5.07929714,6.31711143 C5.07615429,6.57796857 4.86244,6.79168286 4.60472571,6.79168286 Z M5.54129714,12.1973971 C5.54129714,12.1502543 5.54129714,12.1031114 5.53501143,12.0559686 L5.53501143,8.93825429 C5.53501143,6.10025429 5.53186857,3.26539714 5.53815429,0.427397143 C5.54129714,0.213682857 5.47529714,0.157111429 5.26786857,0.157111429 C3.65872571,0.16654 2.05272571,0.16654 0.443582857,0.157111429 C0.204725714,0.157111429 0.167011429,0.248254286 0.167011429,0.458825714 C0.173297143,2.65568286 0.173297143,4.85254 0.173297143,7.04939714 L0.173297143,9.77739714 C0.173297143,11.0533971 0.173297143,12.33254 0.170154286,13.6116829 C0.170154286,13.7876829 0.173297143,13.91654 0.415297143,13.91654 C2.03072571,13.9071114 3.64929714,13.9071114 5.26786857,13.9133971 C5.47844,13.9133971 5.54758286,13.8411114 5.54129714,13.6368257 C5.53186857,13.1559686 5.53501143,12.6782543 5.54129714,12.1973971 Z" id="Stroke-27" stroke="#98C03C" stroke-width="1.2"></path>
                <path d="M5.53501143,12.5560629 L5.53501143,12.0560629" id="Stroke-29" stroke="#98C03C" stroke-width="1.2"></path>
            </g>
        </g>
    </g>
</svg>