<?xml version="1.0" encoding="UTF-8"?>
<!-- Generator: Adobe Illustrator 16.0.0, SVG Export Plug-In . SVG Version: 6.00 Build 0)  -->
<!DOCTYPE svg PUBLIC "-//W3C//DTD SVG 1.1//EN" "http://www.w3.org/Graphics/SVG/1.1/DTD/svg11.dtd">
<svg version="1.1" id="Layer_1" xmlns="http://www.w3.org/2000/svg" xmlns:xlink="http://www.w3.org/1999/xlink" x="0px" y="0px" width="385px" height="145.5px" viewBox="0 80.5 385 145.5" enable-background="new 0 80.5 385 145.5" xml:space="preserve">
<g>
	
		<linearGradient id="SVGID_1_" gradientUnits="userSpaceOnUse" x1="-109.4104" y1="482.0859" x2="-109.0631" y2="481.2618" gradientTransform="matrix(386 0 0 -226 42341.6563 108987.5)">
		<stop offset="0" style="stop-color:#64C866"/>
		<stop offset="1" style="stop-color:#6EDADA"/>
	</linearGradient>
	<path fill="url(#SVGID_1_)" d="M0,78h386v148H0V78z"/>
	<path opacity="0.22" fill="#FFFFFF" enable-background="new    " d="M39.5,121h81c3.59,0,6.5,2.91,6.5,6.5l0,0   c0,3.59-2.91,6.5-6.5,6.5h-81c-3.59,0-6.5-2.91-6.5-6.5l0,0C33,123.91,35.91,121,39.5,121z"/>
	<path opacity="0.22" fill="#FFFFFF" enable-background="new    " d="M101.5,162h81c3.59,0,6.5,2.91,6.5,6.5l0,0   c0,3.59-2.91,6.5-6.5,6.5h-81c-3.59,0-6.5-2.91-6.5-6.5l0,0C95,164.91,97.91,162,101.5,162z"/>
	<path opacity="0.296" fill="#FFFFFF" enable-background="new    " d="M247.5,108h81c3.59,0,6.5,2.91,6.5,6.5l0,0   c0,3.59-2.91,6.5-6.5,6.5h-81c-3.59,0-6.5-2.91-6.5-6.5l0,0C241,110.91,243.91,108,247.5,108z"/>
	<path opacity="0.296" fill="#FFFFFF" enable-background="new    " d="M195.5,181h81c3.59,0,6.5,2.91,6.5,6.5l0,0   c0,3.59-2.91,6.5-6.5,6.5h-81c-3.59,0-6.5-2.91-6.5-6.5l0,0C189,183.91,191.91,181,195.5,181z"/>
</g>
</svg>