<?xml version="1.0" encoding="utf-8"?>
<!-- Generator: Adobe Illustrator 22.1.0, SVG Export Plug-In . SVG Version: 6.00 Build 0)  -->
<svg version="1.1" xmlns="http://www.w3.org/2000/svg" xmlns:xlink="http://www.w3.org/1999/xlink" x="0px" y="0px"
	 viewBox="0 0 440.3 169.2" style="enable-background:new 0 0 440.3 169.2;" xml:space="preserve">
<style type="text/css">
	.st0{clip-path:url(#SVGID_2_);}
	.st1{opacity:0.5;fill:#AFDCC9;}
	.st2{fill:#AAD1D3;}
	.st3{fill:#FFFFFF;}
	.st4{fill:#AEAEAE;}
	.st5{fill:#3D3D3D;}
	.st6{fill:#248641;}
	.st7{fill:#AFBF37;}
	.st8{fill:#A7C1D1;}
	.st9{fill:#CEE4EE;}
	.st10{fill:#DEF2FD;}
	.st11{fill:#799DAD;}
	.st12{fill:#FCCA37;}
	.st13{fill:#0B2337;}
	.st14{fill:#92B0C6;}
	.st15{fill:#335769;}
	.st16{fill:#21628C;}
	.st17{fill:#EF4237;}
	.st18{fill:#0F3751;}
	.st19{fill:#7597B4;}
	.st20{opacity:0.5;}
	.st21{fill:#C4D9E6;}
	.st22{fill:#315463;}
	.st23{fill:#A7CFE4;}
	.st24{fill:#FFD160;}
	.st25{fill:#FFC627;}
	.st26{fill:#FFE095;}
	.st27{fill:#5C5C5C;}
	.st28{fill:#D3D3D3;}
	.st29{fill:#7D7D7D;}
	.st30{fill:#F05354;}
	.st31{fill:#6896CE;}
	.st32{fill:#E9A922;}
	.st33{fill:#FBB580;}
	.st34{fill:#006836;}
	.st35{fill:#005D32;}
	.st36{fill:#31312F;}
	.st37{fill:#333334;}
	.st38{fill:#282829;}
	.st39{fill:#EF3E4E;}
	.st40{fill:#989898;}
	.st41{fill:#FEE467;}
	.st42{fill:#FFDEAE;}
	.st43{fill:#713773;}
	.st44{clip-path:url(#SVGID_4_);}
	.st45{opacity:0.6;fill:#9D622D;}
	.st46{fill:#9D622D;}
	.st47{fill:#563622;}
	.st48{opacity:0.2;fill:#563622;}
	.st49{opacity:0.5;fill:#AB734B;}
	.st50{fill:#C6A861;}
	.st51{opacity:0.1;fill:#563622;}
	.st52{opacity:0.8;fill:#D4BA7E;}
	.st53{fill:#694328;}
	.st54{opacity:0.5;fill:#C6A861;}
	.st55{opacity:0.3;fill:#9D622D;}
	.st56{fill:#B67C3B;}
	.st57{opacity:0.1;fill:#9D622D;}
	.st58{fill:#C5944A;}
	.st59{fill:#86A9A9;}
	.st60{fill:#CAD7D6;}
	.st61{fill:#F15A41;}
	.st62{fill:#F47E6F;}
	.st63{fill:#ED4B24;}
	.st64{opacity:0.16;}
	.st65{fill:#FBB043;}
	.st66{fill:#F79326;}
	.st67{opacity:0.33;}
	.st68{fill:#D89655;}
	.st69{fill:#FDC375;}
	.st70{fill:#E5A66C;}
	.st71{fill:#178D8C;}
	.st72{fill:#46C1C4;}
	.st73{fill:#D23327;}
	.st74{opacity:0.34;}
	.st75{fill:#FDC375;stroke:#000000;stroke-width:0.5;stroke-miterlimit:10;}
	.st76{fill:#5D8986;}
	.st77{fill:#6F9998;}
	.st78{fill:#AACECC;}
	.st79{fill:#5278BC;}
	.st80{fill:#F26A55;}
	.st81{fill:#4471B7;}
	.st82{fill:#CD2927;}
	.st83{fill:none;stroke:#000000;stroke-width:0.5;stroke-miterlimit:10;}
	.st84{opacity:0.3;fill:none;stroke:#000000;stroke-width:0.5;stroke-miterlimit:10;}
	.st85{fill:#D89655;stroke:#000000;stroke-width:0.5;stroke-miterlimit:10;}
	.st86{fill:#E5A66C;stroke:#000000;stroke-width:0.5;stroke-miterlimit:10;}
	.st87{fill:#273339;}
	.st88{fill:#434343;}
	.st89{opacity:0.3;fill:#434343;}
	.st90{fill:#384850;}
	.st91{fill:#B0BEC5;}
	.st92{fill:#90A4AE;}
	.st93{opacity:0.3;fill:#4896A3;}
	.st94{fill:#D0D9DC;}
	.st95{fill:#FCB74E;}
	.st96{fill:#FAA32C;}
	.st97{fill:#2F160C;}
	.st98{opacity:0.3;fill:#0DBCD4;}
	.st99{opacity:0.3;fill:#384850;}
	.st100{opacity:0.3;fill:#05808A;}
	.st101{fill:#E1BF82;}
	.st102{opacity:0.4;fill:#E1BF82;}
	.st103{fill:#F4D3A8;}
	.st104{fill:#FFE8C8;}
	.st105{fill:#465B65;}
	.st106{fill:#E97924;}
	.st107{fill:#617D8C;}
	.st108{opacity:0.3;fill:#E97924;}
	.st109{fill:#F68B29;}
	.st110{opacity:0.5;fill:#E1BF82;}
	.st111{opacity:0.6;fill:#E1BF82;}
	.st112{fill:#D1A762;}
	.st113{clip-path:url(#SVGID_6_);}
	.st114{fill:#F8961D;}
	.st115{fill:#D02027;}
	.st116{fill:#010101;}
	.st117{fill:#F15622;}
	.st118{fill:#8ED3F5;}
	.st119{fill:#BD7148;}
	.st120{fill:#B4C1D1;}
	.st121{fill:#8495B0;}
	.st122{fill:#C9EBFC;}
	.st123{fill:#9E1C20;}
	.st124{opacity:0.4;fill:#5684C4;}
	.st125{fill:#FFDBA8;}
	.st126{fill:#E4C0AF;}
	.st127{fill:#873B1E;}
	.st128{fill:#232121;}
	.st129{fill:#00522A;}
	.st130{fill:#212121;}
	.st131{fill:#C0DEE1;}
	.st132{fill:#F89B35;}
	.st133{fill:#2B5263;}
	.st134{fill:#D8C9A9;stroke:#000000;stroke-width:0.25;stroke-miterlimit:10;}
	.st135{fill:#F6F0E0;stroke:#000000;stroke-width:0.25;stroke-miterlimit:10;}
	.st136{fill:#A49571;}
	.st137{fill:#CF7534;}
	.st138{fill:#43C2CC;}
	.st139{fill:#BABCBE;}
	.st140{fill:#E7E7E0;}
	.st141{fill:#47646B;}
	.st142{fill:#92C8E9;}
	.st143{fill:#5E9CC8;}
	.st144{fill:#D3223A;}
	.st145{fill:#3C80C2;}
	.st146{fill:#192F36;}
	.st147{fill:none;stroke:#000000;stroke-width:0.25;stroke-miterlimit:10;}
	.st148{fill:#2C5796;}
	.st149{opacity:0.2;}
	.st150{fill:#6BBE49;}
	.st151{fill:#D7BA2E;}
	.st152{fill:#B4A139;}
	.st153{fill:#B2C7CA;}
	.st154{fill:#EFBD9E;}
	.st155{fill:#E2A984;}
	.st156{fill:#96D7E3;}
	.st157{fill:#74BDCA;}
	.st158{fill:#F15F50;}
	.st159{fill:#EE5747;}
	.st160{fill:#E4CCB8;}
	.st161{fill:#E25E27;}
	.st162{fill:#B1BABF;}
	.st163{fill:#D5D8D8;}
	.st164{fill:#21BDC2;}
	.st165{fill:#16B5C0;}
	.st166{fill:#8B9E9F;}
	.st167{fill:#26465E;}
	.st168{fill:#335368;}
	.st169{fill:#EFEDEA;}
	.st170{fill:#E7E4E0;}
	.st171{fill:#D8D9D3;}
	.st172{fill:#FFFFFF;stroke:#000000;stroke-width:0.25;stroke-miterlimit:10;}
	.st173{fill:#DDDDDB;}
	.st174{fill:#948EA2;}
	.st175{fill:#B6BDCD;}
	.st176{fill:#ED1C24;}
	.st177{fill:#3A53A4;}
	.st178{fill:#778C8B;}
	.st179{fill:#649A9A;}
	.st180{fill:#557580;}
	.st181{fill:#45646C;}
	.st182{fill:#F38520;}
	.st183{fill:#E8BB4D;}
	.st184{clip-path:url(#SVGID_8_);}
	.st185{fill:#321D11;}
	.st186{fill:#744621;stroke:#000000;stroke-width:0.5;stroke-miterlimit:10;}
	.st187{fill:#EAA333;stroke:#000000;stroke-width:0.5;stroke-miterlimit:10;}
	.st188{fill:#522E16;}
	.st189{fill:#7A7E7F;}
	.st190{fill:#FFFFFF;stroke:#000000;stroke-width:0.5;stroke-miterlimit:10;}
	.st191{fill:#595D5D;stroke:#000000;stroke-width:0.5;stroke-miterlimit:10;}
	.st192{fill:#FBAD32;}
	.st193{fill:#595D5D;}
	.st194{fill:#84A14A;}
	.st195{fill:#484A4C;}
	.st196{fill:#35C5F1;}
	.st197{fill:#7AD1EC;}
	.st198{fill:#F05554;stroke:#000000;stroke-width:0.5;stroke-miterlimit:10;}
	.st199{opacity:0.2;fill:#FFFFFF;}
	.st200{fill:#35383A;}
	.st201{fill:#F05554;}
	.st202{opacity:0.56;fill:#5F2C30;stroke:#000000;stroke-width:0.5;stroke-miterlimit:10;}
	.st203{opacity:0.1;}
	.st204{fill:#818586;stroke:#000000;stroke-width:0.5;stroke-miterlimit:10;}
	.st205{fill:#B2A865;}
	.st206{fill:#674227;stroke:#000000;stroke-width:0.5;stroke-miterlimit:10;}
	.st207{fill:#DAD7C5;}
	.st208{fill:#B0A690;}
	.st209{fill:#DAD7C5;stroke:#000000;stroke-width:0.5;stroke-miterlimit:10;}
	.st210{fill:#BABCBE;stroke:#000000;stroke-width:0.5;stroke-miterlimit:10;}
	.st211{fill:#B0A690;stroke:#000000;stroke-width:0.5;stroke-miterlimit:10;}
	.st212{fill:#FBAD32;stroke:#000000;stroke-width:0.5;stroke-miterlimit:10;}
	.st213{fill:#674327;}
	.st214{fill:#84A14A;stroke:#000000;stroke-width:0.5;stroke-miterlimit:10;}
	.st215{fill:#E87F42;}
	.st216{fill:#503734;}
	.st217{fill:#6B5F64;}
	.st218{fill:#82807F;}
	.st219{fill:#96DAF8;}
	.st220{fill:#36BDD1;}
	.st221{fill:#BF4633;}
	.st222{fill:#EF7B48;}
	.st223{fill:#F9D4A4;}
	.st224{fill:#F7B995;}
	.st225{fill:#321210;}
	.st226{fill:#393143;}
</style>
<g id="electicals">
	<g>
		<defs>
			<rect id="SVGID_1_" width="440.3" height="169.2"/>
		</defs>
		<clipPath id="SVGID_2_">
			<use xlink:href="#SVGID_1_"  style="overflow:visible;"/>
		</clipPath>
		<g class="st0">
			<g>
				<path class="st1" d="M293.5,104.2c0,2.3-1,4.1-2.2,4.1h-31.9c-1.2,0-2.2-1.8-2.2-4.1l0,0c0-2.3,1-4.1,2.2-4.1h31.9
					C292.5,100.1,293.5,101.9,293.5,104.2L293.5,104.2z"/>
				<path class="st1" d="M65.4,51.4c0,2.3-1.1,4.1-2.4,4.1H29c-1.3,0-2.4-1.8-2.4-4.1l0,0c0-2.3,1.1-4.1,2.4-4.1h34
					C64.3,47.3,65.4,49.1,65.4,51.4L65.4,51.4z"/>
				<path class="st1" d="M119.6,23.1c0,2.3-1.3,4.1-3,4.1h-43c-1.6,0-3-1.8-3-4.1l0,0c0-2.3,1.3-4.1,3-4.1h43
					C118.3,19,119.6,20.8,119.6,23.1L119.6,23.1z"/>
				<path class="st1" d="M203,68.4c0,2.3-1,4.1-2.3,4.1h-33.7c-1.3,0-2.3-1.8-2.3-4.1l0,0c0-2.3,1-4.1,2.3-4.1h33.7
					C202,64.2,203,66.1,203,68.4L203,68.4z"/>
				<path class="st1" d="M374.1,24.3c0,2.3-1.1,4.1-2.4,4.1h-35.3c-1.4,0-2.4-1.8-2.4-4.1l0,0c0-2.3,1.1-4.1,2.4-4.1h35.3
					C373,20.2,374.1,22,374.1,24.3L374.1,24.3z"/>
			</g>
			<rect y="158.6" class="st2" width="441.4" height="10.6"/>
			<g>
				<g>
					
						<rect x="162.6" y="72.5" transform="matrix(-1 -1.224647e-16 1.224647e-16 -1 337.2817 151.2898)" class="st3" width="12.2" height="6.2"/>
					<path class="st4" d="M169.3,75.6c0,1.1,0.9,1.9,1.9,1.9c1.1,0,1.9-0.9,1.9-1.9c0-1.1-0.9-1.9-1.9-1.9
						C170.1,73.7,169.3,74.6,169.3,75.6z"/>
					<path class="st4" d="M164,75.6c0,1.1,0.9,1.9,1.9,1.9c1.1,0,1.9-0.9,1.9-1.9c0-1.1-0.9-1.9-1.9-1.9
						C164.9,73.7,164,74.6,164,75.6z"/>
					<path class="st5" d="M171.6,75.6c0,0.2,0.2,0.4,0.4,0.4c0.2,0,0.4-0.2,0.4-0.4c0-0.2-0.2-0.4-0.4-0.4
						C171.8,75.2,171.6,75.4,171.6,75.6z"/>
					<path class="st5" d="M169.9,75.6c0,0.2,0.2,0.4,0.4,0.4c0.2,0,0.4-0.2,0.4-0.4c0-0.2-0.2-0.4-0.4-0.4
						C170.1,75.2,169.9,75.4,169.9,75.6z"/>
					<path class="st5" d="M166.3,75.6c0,0.2,0.2,0.4,0.4,0.4c0.2,0,0.4-0.2,0.4-0.4c0-0.2-0.2-0.4-0.4-0.4
						C166.5,75.2,166.3,75.4,166.3,75.6z"/>
					<path class="st5" d="M164.7,75.6c0,0.2,0.2,0.4,0.4,0.4c0.2,0,0.4-0.2,0.4-0.4c0-0.2-0.2-0.4-0.4-0.4
						C164.9,75.2,164.7,75.4,164.7,75.6z"/>
				</g>
			</g>
			<g>
				<g>
					<g>
						<g>
							<polygon class="st6" points="350.6,113.4 269.9,113.4 269.9,65.4 223.7,65.4 223.7,93.4 150.2,93.4 150.2,49.6 196.8,49.6 
								196.8,34 197.8,34 197.8,50.6 151.2,50.6 151.2,92.4 222.7,92.4 222.7,64.4 270.9,64.4 270.9,112.4 349.6,112.4 349.6,62.4 
								318.3,62.4 318.3,61.4 350.6,61.4 							"/>
						</g>
						<g>
							<polygon class="st6" points="367.2,123.1 209.7,123.1 209.7,34 210.7,34 210.7,122.1 366.2,122.1 366.2,81.9 285.7,81.9 
								285.7,35.8 286.7,35.8 286.7,80.9 367.2,80.9 							"/>
						</g>
						<g>
							<rect x="192.9" y="30.8" class="st6" width="8.2" height="5.9"/>
						</g>
						<g>
							<rect x="206.1" y="30.8" class="st6" width="8.2" height="5.9"/>
						</g>
						<g>
							<rect x="282.1" y="30.8" class="st6" width="8.2" height="5.9"/>
						</g>
						<g>
							<polygon class="st7" points="178.2,44.9 171.9,50.1 178.2,55.8 							"/>
							<path class="st6" d="M178.7,57l-7.6-6.9l7.6-6.2V57z M172.6,50.1l5.1,4.6v-8.8L172.6,50.1z"/>
						</g>
						<g>
							<rect x="171.4" y="45.9" class="st6" width="1" height="8.3"/>
						</g>
						<g>
							<polygon class="st7" points="344.9,56.4 338.5,61.6 344.9,67.4 							"/>
							<path class="st6" d="M345.4,68.5l-7.6-6.9l7.6-6.2V68.5z M339.3,61.7l5.1,4.6v-8.8L339.3,61.7z"/>
						</g>
						<g>
							<rect x="338" y="57.5" class="st6" width="1" height="8.3"/>
						</g>
						<g>
							<rect x="147.9" y="64" class="st7" width="6" height="15.7"/>
							<path class="st6" d="M154.4,80.2h-7V63.5h7V80.2z M148.4,79.2h5V64.5h-5V79.2z"/>
						</g>
						<g>
							<rect x="223.2" y="92.4" class="st6" width="47.1" height="1"/>
						</g>
						<g>
							<rect x="235" y="89.5" class="st7" width="19.9" height="6.8"/>
							<path class="st6" d="M255.5,96.8h-20.9V89h20.9V96.8z M235.5,95.8h18.9V90h-18.9V95.8z"/>
						</g>
						<g>
							<rect x="283.5" y="52.5" class="st7" width="5" height="13.9"/>
							<path class="st6" d="M288.9,66.9h-6V52h6V66.9z M284,65.9h4V53h-4V65.9z"/>
						</g>
					</g>
					<g>
						<g>
							<rect x="14.8" y="43.6" class="st8" width="47.4" height="61.6"/>
						</g>
						<g>
							<rect x="19.2" y="48" class="st9" width="38.6" height="52.8"/>
						</g>
						<g>
							<path class="st10" d="M49.8,54.4H27.2v0c0-0.7,0.9-1.4,2-1.4h18.6C48.9,53,49.8,53.6,49.8,54.4L49.8,54.4z"/>
						</g>
						<g>
							<path class="st11" d="M49.8,54.4H27.2v0c0,0.4,0.9,0.7,2,0.7h18.6C48.9,55.1,49.8,54.8,49.8,54.4L49.8,54.4z"/>
						</g>
						<g>
							<path class="st10" d="M49.8,58.1H27.2v0c0-0.7,0.9-1.4,2-1.4h18.6C48.9,56.8,49.8,57.4,49.8,58.1L49.8,58.1z"/>
						</g>
						<g>
							<path class="st11" d="M49.8,58.1H27.2v0c0,0.4,0.9,0.7,2,0.7h18.6C48.9,58.8,49.8,58.5,49.8,58.1L49.8,58.1z"/>
						</g>
						<g>
							<path class="st10" d="M49.8,61.9H27.2v0c0-0.7,0.9-1.4,2-1.4h18.6C48.9,60.5,49.8,61.1,49.8,61.9L49.8,61.9z"/>
						</g>
						<g>
							<path class="st11" d="M49.8,61.9H27.2v0c0,0.4,0.9,0.7,2,0.7h18.6C48.9,62.6,49.8,62.3,49.8,61.9L49.8,61.9z"/>
						</g>
						<g>
							<path class="st10" d="M49.8,65.7H27.2v0c0-0.7,0.9-1.4,2-1.4h18.6C48.9,64.3,49.8,64.9,49.8,65.7L49.8,65.7z"/>
						</g>
						<g>
							<path class="st11" d="M49.8,65.7H27.2v0c0,0.4,0.9,0.7,2,0.7h18.6C48.9,66.3,49.8,66,49.8,65.7L49.8,65.7z"/>
						</g>
						<g>
							<path class="st10" d="M49.8,69.4H27.2v0c0-0.7,0.9-1.4,2-1.4h18.6C48.9,68.1,49.8,68.7,49.8,69.4L49.8,69.4z"/>
						</g>
						<g>
							<path class="st11" d="M49.8,69.4H27.2v0c0,0.4,0.9,0.7,2,0.7h18.6C48.9,70.1,49.8,69.8,49.8,69.4L49.8,69.4z"/>
						</g>
						<g>
							<g>
								<path class="st12" d="M38.5,95.5H27.9c-1,0-1.7-1.1-1.2-2l5.3-9.2l5.3-9.2c0.5-0.9,1.8-0.9,2.3,0l5.3,9.2l5.3,9.2
									c0.5,0.9-0.1,2-1.2,2H38.5z"/>
							</g>
							<g>
								<g>
									<path class="st13" d="M46.9,94.3H30.1c-0.5,0-0.9-0.3-1.2-0.7c-0.2-0.4-0.2-0.9,0-1.4l8.4-14.6c0.2-0.4,0.7-0.7,1.2-0.7
										c0.5,0,0.9,0.3,1.2,0.7l8.4,14.6c0.2,0.4,0.2,0.9,0,1.4C47.9,94.1,47.4,94.3,46.9,94.3z M38.5,78.1c-0.1,0-0.1,0-0.2,0.1
										l-8.4,14.6c-0.1,0.1,0,0.2,0,0.2c0,0,0.1,0.1,0.2,0.1h16.9c0.1,0,0.2-0.1,0.2-0.1c0,0,0.1-0.1,0-0.2l-8.4-14.6
										C38.6,78.1,38.5,78.1,38.5,78.1z"/>
								</g>
							</g>
							<g>
								<polygon class="st13" points="37.5,87.4 40.9,82.9 38,83.2 35.4,88.6 38.1,88.3 36.5,92.2 40.8,86.9 								"/>
							</g>
						</g>
						<g>
							<path class="st10" d="M25.7,77.5c0,1.3-1.1,2.4-2.4,2.4s-2.4-1.1-2.4-2.4c0-1.3,1.1-2.4,2.4-2.4S25.7,76.2,25.7,77.5z"/>
						</g>
						<g>
							<path class="st11" d="M23.8,76.8c0-0.3-0.2-0.5-0.5-0.5c-0.3,0-0.5,0.2-0.5,0.5c0,0.2,0.1,0.4,0.3,0.5l-0.3,1.4h1.1l-0.3-1.4
								C23.6,77.2,23.8,77,23.8,76.8z"/>
						</g>
						<g>
							<rect x="57.8" y="54.4" class="st10" width="1.2" height="8.5"/>
						</g>
						<g>
							<rect x="57.8" y="82.3" class="st10" width="1.2" height="8.5"/>
						</g>
					</g>
					<g>
						<g>
							<rect x="356.2" y="42.6" class="st14" width="74.3" height="74.3"/>
						</g>
						<g>
							<rect x="359.3" y="45.7" class="st15" width="68.1" height="68.2"/>
						</g>
						<g>
							<g>
								<polygon class="st12" points="397.8,91.6 397.5,91.6 397.5,82.3 378.5,82.3 378.5,91.6 378.2,91.6 378.2,82 397.8,82 
																	"/>
							</g>
						</g>
						<g>
							<g>
								<polygon class="st16" points="405.1,92.3 404.8,92.3 404.8,87.4 388.3,87.4 388.3,74.3 378,74.3 378,68.2 378.3,68.2 
									378.3,74 388.6,74 388.6,87.1 405.1,87.1 								"/>
							</g>
						</g>
						<g>
							<g>
								<polygon class="st12" points="412.4,92.9 412.1,92.9 412.1,77.1 393.2,77.1 393.2,61 382,61 382,60.7 393.5,60.7 
									393.5,76.8 412.4,76.8 								"/>
							</g>
						</g>
						<g>
							<g>
								<polygon class="st17" points="419.7,91.1 419.4,91.1 419.4,83.2 401.3,83.2 401.3,79 411.1,79 411.1,69.9 411.4,69.9 
									411.4,79.3 401.6,79.3 401.6,82.9 419.7,82.9 								"/>
							</g>
						</g>
						<g>
							<g>
								
									<ellipse transform="matrix(0.2504 -0.9681 0.9681 0.2504 223.9286 412.433)" class="st13" cx="378.3" cy="61.6" rx="11.5" ry="11.5"/>
							</g>
							<g>
								<path class="st18" d="M388.5,61.6c0,5.7-4.6,10.3-10.3,10.3c-5.7,0-10.3-4.6-10.3-10.3c0-5.7,4.6-10.3,10.3-10.3
									C383.9,51.3,388.5,55.9,388.5,61.6z"/>
							</g>
							<g>
								<path class="st19" d="M385.1,66.8h-13.8c-0.7,0-1.3-0.6-1.3-1.3v-7.6c0-0.7,0.6-1.3,1.3-1.3h13.8c0.7,0,1.3,0.6,1.3,1.3v7.6
									C386.5,66.2,385.9,66.8,385.1,66.8z"/>
							</g>
							<g>
								<rect x="371.2" y="57.8" class="st13" width="14" height="3"/>
							</g>
							<g>
								<rect x="371.8" y="58.5" class="st3" width="1.8" height="1.7"/>
							</g>
							<g>
								<rect x="374.6" y="58.5" class="st3" width="1.8" height="1.7"/>
							</g>
							<g>
								<rect x="377.4" y="58.5" class="st3" width="1.8" height="1.7"/>
							</g>
							<g>
								<rect x="380.2" y="58.5" class="st3" width="1.8" height="1.7"/>
							</g>
							<g>
								<rect x="383" y="58.5" class="st3" width="1.8" height="1.7"/>
							</g>
							<g>
								<rect x="371.2" y="62.2" class="st13" width="14" height="3"/>
							</g>
							<g class="st20">
								<g>
									<path class="st18" d="M372.6,55.7c-0.7,0-1-0.9-0.5-1.3c1.7-1.4,3.8-2.2,6.1-2.2c2.2,0,4.4,0.8,6.1,2.2
										c0.5,0.4,0.2,1.3-0.5,1.3H372.6z"/>
								</g>
								<g>
									<path class="st18" d="M378.2,71.1c-2.2,0-4.4-0.8-6.1-2.2c-0.5-0.4-0.2-1.3,0.5-1.3h11.2c0.7,0,1,0.9,0.5,1.3
										C382.6,70.3,380.5,71.1,378.2,71.1z"/>
								</g>
							</g>
						</g>
						<g>
							<g>
								
									<ellipse transform="matrix(0.1596 -0.9872 0.9872 0.1596 284.0566 456.8869)" class="st13" cx="410.4" cy="61.6" rx="11.5" ry="11.5"/>
							</g>
							<g>
								<path class="st18" d="M420.6,61.6c0,5.7-4.6,10.3-10.3,10.3c-5.7,0-10.3-4.6-10.3-10.3c0-5.7,4.6-10.3,10.3-10.3
									C416,51.3,420.6,55.9,420.6,61.6z"/>
							</g>
							<g>
								<path class="st19" d="M417.2,66.8h-13.8c-0.7,0-1.3-0.6-1.3-1.3v-7.6c0-0.7,0.6-1.3,1.3-1.3h13.8c0.7,0,1.3,0.6,1.3,1.3v7.6
									C418.5,66.2,417.9,66.8,417.2,66.8z"/>
							</g>
							<g>
								<rect x="403.3" y="57.8" class="st13" width="14" height="3"/>
							</g>
							<g>
								<rect x="403.8" y="58.5" class="st3" width="1.8" height="1.7"/>
							</g>
							<g>
								<rect x="406.6" y="58.5" class="st3" width="1.8" height="1.7"/>
							</g>
							<g>
								<rect x="409.5" y="58.5" class="st3" width="1.8" height="1.7"/>
							</g>
							<g>
								<rect x="412.3" y="58.5" class="st3" width="1.8" height="1.7"/>
							</g>
							<g>
								<rect x="415.1" y="58.5" class="st3" width="1.8" height="1.7"/>
							</g>
							<g>
								<rect x="403.3" y="62.2" class="st13" width="14" height="3"/>
							</g>
							<g class="st20">
								<g>
									<path class="st18" d="M404.7,55.7c-0.7,0-1-0.9-0.5-1.3c1.7-1.4,3.8-2.2,6.1-2.2c2.2,0,4.4,0.8,6.1,2.2
										c0.5,0.4,0.2,1.3-0.5,1.3H404.7z"/>
								</g>
								<g>
									<path class="st18" d="M410.3,71.1c-2.2,0-4.4-0.8-6.1-2.2c-0.5-0.4-0.2-1.3,0.5-1.3h11.2c0.7,0,1,0.9,0.5,1.3
										C414.7,70.3,412.5,71.1,410.3,71.1z"/>
								</g>
							</g>
						</g>
						<g>
							<g>
								<circle class="st13" cx="378.3" cy="98.8" r="11.5"/>
							</g>
							<g>
								<path class="st18" d="M388.5,98.8c0,5.7-4.6,10.3-10.3,10.3c-5.7,0-10.3-4.6-10.3-10.3c0-5.7,4.6-10.3,10.3-10.3
									C383.9,88.6,388.5,93.2,388.5,98.8z"/>
							</g>
							<g>
								<path class="st19" d="M385.1,104h-13.8c-0.7,0-1.3-0.6-1.3-1.3V95c0-0.7,0.6-1.3,1.3-1.3h13.8c0.7,0,1.3,0.6,1.3,1.3v7.6
									C386.5,103.4,385.9,104,385.1,104z"/>
							</g>
							<g>
								<rect x="371.2" y="95" class="st13" width="14" height="3"/>
							</g>
							<g>
								<rect x="371.8" y="95.7" class="st3" width="1.8" height="1.7"/>
							</g>
							<g>
								<rect x="374.6" y="95.7" class="st3" width="1.8" height="1.7"/>
							</g>
							<g>
								<rect x="377.4" y="95.7" class="st3" width="1.8" height="1.7"/>
							</g>
							<g>
								<rect x="380.2" y="95.7" class="st3" width="1.8" height="1.7"/>
							</g>
							<g>
								<rect x="383" y="95.7" class="st3" width="1.8" height="1.7"/>
							</g>
							<g>
								<rect x="371.2" y="99.4" class="st13" width="14" height="3"/>
							</g>
							<g class="st20">
								<g>
									<path class="st18" d="M372.6,92.9c-0.7,0-1-0.9-0.5-1.3c1.7-1.4,3.8-2.2,6.1-2.2c2.2,0,4.4,0.8,6.1,2.2
										c0.5,0.4,0.2,1.3-0.5,1.3H372.6z"/>
								</g>
								<g>
									<path class="st18" d="M378.2,108.3c-2.2,0-4.4-0.8-6.1-2.2c-0.5-0.4-0.2-1.3,0.5-1.3h11.2c0.7,0,1,0.9,0.5,1.3
										C382.6,107.5,380.5,108.3,378.2,108.3z"/>
								</g>
							</g>
						</g>
						<g>
							<g>
								<rect x="395.5" y="90.3" class="st14" width="4.2" height="18"/>
							</g>
							<g>
								<rect x="394.7" y="94.2" class="st21" width="5.8" height="10.1"/>
							</g>
						</g>
						<g>
							<g>
								<rect x="397" y="97.1" class="st13" width="1.2" height="1.7"/>
							</g>
							<g>
								<rect x="395.9" y="96.3" class="st13" width="3.4" height="1.1"/>
							</g>
						</g>
						<g>
							<g>
								<rect x="402.8" y="90.3" class="st14" width="4.2" height="18"/>
							</g>
							<g>
								<rect x="402" y="94.2" class="st21" width="5.8" height="10.1"/>
							</g>
						</g>
						<g>
							<g>
								<rect x="404.3" y="97.1" class="st13" width="1.2" height="1.7"/>
							</g>
							<g>
								<rect x="403.2" y="96.3" class="st13" width="3.4" height="1.1"/>
							</g>
						</g>
						<g>
							<g>
								<rect x="410.1" y="90.3" class="st14" width="4.2" height="18"/>
							</g>
							<g>
								<rect x="409.3" y="94.2" class="st21" width="5.8" height="10.1"/>
							</g>
						</g>
						<g>
							<g>
								<rect x="411.6" y="97.1" class="st13" width="1.2" height="1.7"/>
							</g>
							<g>
								<rect x="410.5" y="96.3" class="st13" width="3.4" height="1.1"/>
							</g>
						</g>
						<g>
							<g>
								<rect x="417.4" y="90.3" class="st14" width="4.2" height="18"/>
							</g>
							<g>
								<rect x="416.6" y="94.2" class="st21" width="5.8" height="10.1"/>
							</g>
						</g>
						<g>
							<g>
								<rect x="418.9" y="97.1" class="st13" width="1.2" height="1.7"/>
							</g>
							<g>
								<rect x="417.8" y="96.3" class="st13" width="3.4" height="1.1"/>
							</g>
						</g>
						<g>
							<rect x="397" y="98.8" class="st14" width="1.2" height="3.6"/>
						</g>
						<g>
							<rect x="404.3" y="98.8" class="st14" width="1.2" height="3.6"/>
						</g>
						<g>
							<rect x="411.6" y="98.8" class="st14" width="1.2" height="3.6"/>
						</g>
						<g>
							<rect x="418.9" y="98.8" class="st14" width="1.2" height="3.6"/>
						</g>
					</g>
					<g>
						<g>
							<g>
								<g>
									<g>
										<g>
											<path class="st22" d="M238.8,72.1c0.9,0.2,2.1,0.6,2.2,0.6l6.3,0.2c0.4,0,1.6-0.3,2.2-0.5l0-0.1l0-1.4l0.1-3.3l-10.8-0.3
												l-0.1,3.3l0,1.4L238.8,72.1z"/>
										</g>
									</g>
									<g>
										<g>
											<path class="st22" d="M240.9,74.9c0,0-1.2-0.2-2.2-0.6l-0.2,7.3l0.5,0.8c1.3,1.2,3,1.9,4.8,1.9l0.1,0
												c1.8,0.1,3.5-0.5,4.9-1.6l0.6-0.6l0.2-7.3c-0.6,0.2-1.4,0.4-2.2,0.3L240.9,74.9z"/>
										</g>
									</g>
									<g>
										<g>
											<path class="st23" d="M249.6,70.9l0,1.4l0,0.1c-0.6,0.2-1.8,0.5-2.2,0.5l-6.3-0.2c-0.1,0-1.4-0.4-2.2-0.6l0-0.1l0-1.4
												c-1,0.4-1.6,1-1.6,1.9c0,0.8,0.7,1.4,1.5,1.8c1,0.5,2.2,0.6,2.2,0.6l6.4,0.2c0.9,0,1.6-0.1,2.2-0.3c1-0.4,1.6-1,1.6-1.9
												C251.1,72.1,250.6,71.4,249.6,70.9z"/>
										</g>
									</g>
									<g>
										<g>
											<path class="st23" d="M249.5,74.6l0,1.4l0,0.1c-0.6,0.2-1.8,0.5-2.2,0.5l-6.3-0.2c-0.1,0-1.4-0.4-2.2-0.6l0-0.1l0-1.4
												c-1,0.4-1.6,1-1.6,1.9c0,0.8,0.7,1.4,1.5,1.8c1,0.5,2.2,0.6,2.2,0.6l6.4,0.2c0.9,0,1.6-0.1,2.2-0.3c1-0.4,1.6-1,1.6-1.9
												C251,75.7,250.5,75,249.5,74.6z"/>
										</g>
									</g>
									<g>
										<g>
											<path class="st23" d="M249.4,78.3l0,1.4l0,0.1c-0.6,0.2-1.8,0.5-2.2,0.5l-6.3-0.2c-0.1,0-1.4-0.4-2.2-0.6l0-0.1l0-1.4
												c-1,0.4-1.6,1-1.6,1.9c0,0.8,0.7,1.4,1.5,1.8c1,0.5,2.2,0.6,2.2,0.6l6.4,0.2c0.9,0,1.6-0.1,2.2-0.3c1-0.4,1.6-1,1.6-1.9
												C250.9,79.4,250.3,78.7,249.4,78.3z"/>
										</g>
									</g>
								</g>
								<g>
									<g>
										<path class="st24" d="M233.8,52.9c0,1.4,0.2,2.8,0.8,4c1.1,2.6,3.1,5.2,3.6,7.9l0.7,5.7l5.4,0.8l0.2-8l0.3-10.2l0.3-10.2
											C239,42.8,234,47.2,233.8,52.9z"/>
									</g>
								</g>
								<g>
									<g>
										<path class="st25" d="M255.7,53.5c0,1.4-0.4,2.8-1,4c-1.2,2.5-3.4,5-4.1,7.7l-1.1,5.7l-5.4,0.5l0.2-8l0.3-10.2l0.3-10.2
											C251.1,43.2,255.9,47.9,255.7,53.5z"/>
									</g>
								</g>
							</g>
							<g>
								<g>
									<g>
										<path class="st25" d="M224.7,71.9c-0.1,0-0.3-0.1-0.4-0.2c-0.2-0.2-0.2-0.6,0-0.8l8.8-8.3c0.2-0.2,0.6-0.2,0.8,0
											c0.2,0.2,0.2,0.6,0,0.8l-8.8,8.3C225,71.9,224.8,71.9,224.7,71.9z"/>
									</g>
								</g>
								<g>
									<g>
										<path class="st25" d="M229.2,52.5l-12.1-0.4c-0.3,0-0.5-0.3-0.5-0.6c0-0.3,0.3-0.5,0.6-0.5l12.1,0.4
											c0.3,0,0.5,0.3,0.5,0.6C229.8,52.3,229.5,52.5,229.2,52.5z"/>
									</g>
								</g>
								<g>
									<g>
										<path class="st25" d="M234.1,41.6c-0.1,0-0.3-0.1-0.4-0.2l-8.3-8.8c-0.2-0.2-0.2-0.6,0-0.8c0.2-0.2,0.6-0.2,0.8,0l8.3,8.8
											c0.2,0.2,0.2,0.6,0,0.8C234.4,41.6,234.2,41.6,234.1,41.6z"/>
									</g>
								</g>
								<g>
									<g>
										<path class="st25" d="M245.2,37.4c-0.3,0-0.5-0.3-0.5-0.6l0.4-12.1c0-0.3,0.3-0.5,0.6-0.5c0.3,0,0.5,0.3,0.5,0.6
											l-0.4,12.1C245.8,37.2,245.5,37.4,245.2,37.4z"/>
									</g>
								</g>
								<g>
									<g>
										<path class="st25" d="M256.1,42.2c-0.1,0-0.3-0.1-0.4-0.2c-0.2-0.2-0.2-0.6,0-0.8l8.8-8.3c0.2-0.2,0.6-0.2,0.8,0
											c0.2,0.2,0.2,0.6,0,0.8l-8.8,8.3C256.4,42.2,256.2,42.2,256.1,42.2z"/>
									</g>
								</g>
								<g>
									<g>
										<path class="st25" d="M272.4,53.7l-12.1-0.4c-0.3,0-0.5-0.3-0.5-0.6c0-0.3,0.3-0.5,0.6-0.5l12.1,0.4
											c0.3,0,0.5,0.3,0.5,0.6C272.9,53.5,272.7,53.8,272.4,53.7z"/>
									</g>
								</g>
								<g>
									<g>
										<path class="st25" d="M263.7,73c-0.1,0-0.3-0.1-0.4-0.2l-8.3-8.8c-0.2-0.2-0.2-0.6,0-0.8c0.2-0.2,0.6-0.2,0.8,0l8.3,8.8
											c0.2,0.2,0.2,0.6,0,0.8C264,73,263.9,73,263.7,73z"/>
									</g>
								</g>
							</g>
						</g>
						<g>
							<g>
								<path class="st26" d="M236.4,53.1c-0.4,0-0.7-0.3-0.7-0.7c0.1-4.3,3.7-7.7,8-7.6c0.4,0,0.7,0.3,0.7,0.7
									c0,0.4-0.3,0.7-0.7,0.7c-3.6-0.1-6.5,2.7-6.7,6.3C237.1,52.8,236.7,53.1,236.4,53.1z"/>
							</g>
						</g>
					</g>
				</g>
			</g>
			<g>
				<g>
					<g>
						<rect x="66.5" y="41.3" class="st27" width="88.1" height="64.4"/>
						<g>
							<rect x="69" y="43.9" class="st4" width="40.2" height="59.2"/>
							<rect x="111.8" y="43.9" class="st4" width="40.2" height="59.2"/>
						</g>
					</g>
					<g>
						<rect x="72.7" y="48.7" class="st3" width="36.5" height="4.4"/>
						<rect x="74.2" y="51.5" class="st28" width="35" height="1.6"/>
						<rect x="71.1" y="45.6" class="st27" width="6.2" height="10.7"/>
						<rect x="71.6" y="46.2" class="st4" width="5.4" height="9.5"/>
						<rect x="72.2" y="49.9" class="st29" width="4" height="3.2"/>
						<rect x="72.7" y="50.5" class="st28" width="0.7" height="2"/>
						<rect x="73.9" y="50.5" class="st28" width="0.7" height="2"/>
						<rect x="75" y="50.5" class="st28" width="0.7" height="2"/>
						<circle class="st5" cx="99.1" cy="50.9" r="1.5"/>
						<circle class="st5" cx="103.2" cy="50.9" r="1.3"/>
						<path class="st30" d="M99.1,53.9L99.1,53.9c-0.4,0-0.7-0.3-0.7-0.7v-2.3c0-0.4,0.3-0.7,0.7-0.7l0,0c0.4,0,0.7,0.3,0.7,0.7v2.3
							C99.7,53.6,99.4,53.9,99.1,53.9z"/>
						<path class="st30" d="M103.2,51.7L103.2,51.7c-0.2,0-0.3-0.1-0.3-0.3v-1c0-0.2,0.1-0.3,0.3-0.3l0,0c0.2,0,0.3,0.1,0.3,0.3v1
							C103.5,51.6,103.4,51.7,103.2,51.7z"/>
						<rect x="72.6" y="56.3" class="st5" width="0.7" height="1.2"/>
						<rect x="73.9" y="56.3" class="st5" width="0.7" height="1.2"/>
						<rect x="75.2" y="56.3" class="st5" width="0.7" height="1.2"/>
						<rect x="101.3" y="54.4" class="st28" width="0.7" height="1.3"/>
						<rect x="102.9" y="54.4" class="st28" width="0.7" height="1.3"/>
						<rect x="104.5" y="54.4" class="st28" width="0.7" height="1.3"/>
						<rect x="89.9" y="55.7" class="st27" width="7.9" height="10.2"/>
						<rect x="89.9" y="57.6" class="st29" width="7.9" height="6.5"/>
						<rect x="100.4" y="55.7" class="st27" width="5.7" height="10.2"/>
						<rect x="100.4" y="57.6" class="st29" width="5.7" height="6.5"/>
						<rect x="91.2" y="53.1" class="st29" width="0.8" height="2.6"/>
						<rect x="93.5" y="53.1" class="st29" width="0.8" height="2.6"/>
						<rect x="95.8" y="53.1" class="st29" width="0.8" height="2.6"/>
						<rect x="90.5" y="62.1" class="st28" width="3.3" height="0.5"/>
						<rect x="72.6" y="57.5" class="st30" width="0.7" height="3.3"/>
						<rect x="73.9" y="57.5" class="st3" width="0.7" height="3.3"/>
						<rect x="75.2" y="57.5" class="st31" width="0.7" height="3.3"/>
						<path class="st5" d="M73.5,64v6.3c0,0.3,0.3,0.6,0.6,0.6c0.3,0,0.6-0.3,0.6-0.6V64H73.5z"/>
						<path class="st5" d="M78.3,64v6.3c0,0.3,0.3,0.6,0.6,0.6c0.3,0,0.6-0.3,0.6-0.6V64H78.3z"/>
						<path class="st5" d="M83.2,64v6.3c0,0.3,0.3,0.6,0.6,0.6c0.3,0,0.6-0.3,0.6-0.6V64H83.2z"/>
						<g>
							<g>
								<path class="st5" d="M71.3,100.9c0-0.1-0.8-3,1.4-4.5c1.9-1.3,1.7-3.4,1.7-3.4l0.5,0c0,0.1,0.2,2.4-1.9,3.8
									c-1.9,1.3-1.2,3.9-1.2,4L71.3,100.9z"/>
							</g>
							<g>
								<path class="st5" d="M77.7,101l-0.2-0.5c0,0-0.1,0-0.1,0c0.1-0.2,0.2-1.4-0.9-3c-1.2-1.8-1-4.9-0.9-5l0.5,0
									c0,0-0.3,3,0.9,4.7c1.1,1.6,1.1,2.9,0.9,3.4C77.9,100.9,77.9,101,77.7,101z"/>
							</g>
							<g>
								<path class="st5" d="M80.5,100.3l-0.5,0c0-2.8,0-7,0-7.3l0.2,0l0.2-0.2C80.6,92.9,80.6,92.9,80.5,100.3z"/>
							</g>
							<g>
								<path class="st5" d="M84.3,100.4l-0.5-0.1c0,0,0.5-1.7-0.5-3.4c-1-2-1.3-3.7-1.3-3.8l0.5-0.1c0,0,0.3,1.8,1.3,3.7
									C84.8,98.5,84.3,100.3,84.3,100.4z"/>
							</g>
						</g>
						<g>
							<g>
								<path class="st5" d="M86.2,100.8l-0.5,0c0-5,1.8-9.6,3.2-12.5c1.4-2.9,1.3-9.9,1.3-10l0.5,0c0,0.3,0.1,7.2-1.4,10.2
									C87.9,91.4,86.2,95.9,86.2,100.8z"/>
							</g>
							<g>
								<path class="st5" d="M90.2,99.6c0-0.1-0.3-5.3,1.4-11.9c0.8-3.2,0.9-9.3,0.9-9.3l0.5,0c0,0.3-0.1,6.2-0.9,9.4
									c-1.7,6.5-1.3,11.7-1.3,11.7L90.2,99.6z"/>
							</g>
							<g>
								<path class="st5" d="M96.2,100.1c0-0.1-0.1-5.6-0.8-7.9c-0.8-2.8-0.7-13.5-0.7-13.9l0.5,0c0,0.1-0.1,11.1,0.7,13.8
									c0.7,2.3,0.8,7.8,0.8,8L96.2,100.1z"/>
							</g>
							<g>
								<path class="st5" d="M93.1,99.6c0-0.1-0.2-2.3,0.3-4.3c0.2-1,0.9-2.5,1.6-4c0.8-1.9,1.7-3.8,1.9-4.9
									c0.3-2.2,0.3-7.8,0.3-7.9l0.5,0c0,0.2,0,5.7-0.3,7.9c-0.2,1.2-1,3.2-1.9,5.1c-0.7,1.6-1.4,3-1.6,3.9c-0.4,2-0.3,4.2-0.2,4.2
									L93.1,99.6z"/>
							</g>
							<g>
								<path class="st5" d="M107.6,100.1l-0.5,0c0.1-1.6-0.4-5.8-0.8-9.1c-0.2-1.2-0.3-2.4-0.4-3.3c-0.4-3.5-0.6-9.4-0.6-9.5l0.5,0
									c0,0.1,0.2,6,0.6,9.4c0.1,0.9,0.2,2.1,0.4,3.3C107.3,94.4,107.8,98.4,107.6,100.1z"/>
							</g>
							<g>
								<path class="st5" d="M99.2,100.1c0,0-0.1-2.4,0.2-4.4c0.2-1.7,0.9-3.5,1.6-5.5c0.4-1,0.8-2.1,1.2-3.3
									c0.8-2.5,0.7-8.5,0.7-8.5l0.5,0c0,0.2,0.1,6.1-0.8,8.7c-0.4,1.2-0.8,2.3-1.2,3.3c-0.7,2-1.4,3.8-1.6,5.4
									c-0.3,1.9-0.2,4.3-0.2,4.3L99.2,100.1z"/>
							</g>
							<g>
								<path class="st5" d="M104.1,100.1c0,0-0.1-4.3-0.3-6.7c-0.2-1.5-0.9-3.2-1.5-4.7c-0.4-0.9-0.7-1.7-0.9-2.4
									c-0.8-2.9-0.7-7.9-0.7-8.1l0.5,0c0,0.1-0.1,5.1,0.7,7.9c0.2,0.7,0.5,1.5,0.9,2.3c0.6,1.5,1.4,3.2,1.5,4.8
									c0.2,2.4,0.3,6.7,0.3,6.7L104.1,100.1z"/>
							</g>
						</g>
						<g>
							<rect x="71.1" y="60.8" class="st3" width="15.4" height="3.2"/>
							<rect x="71.7" y="61.4" class="st29" width="4.3" height="2.1"/>
							<rect x="76.7" y="61.4" class="st29" width="4.3" height="2.1"/>
							<rect x="81.6" y="61.4" class="st29" width="4.3" height="2.1"/>
							<rect x="72.6" y="61.4" class="st5" width="0.5" height="2.1"/>
							<rect x="77.4" y="61.4" class="st5" width="0.5" height="2.1"/>
							<rect x="82.5" y="61.4" class="st5" width="0.5" height="2.1"/>
						</g>
						<rect x="73.7" y="70.7" class="st30" width="0.7" height="8.4"/>
						<rect x="78.5" y="70.7" class="st3" width="0.7" height="8.4"/>
						<rect x="83.4" y="70.7" class="st31" width="0.7" height="8.4"/>
						<g>
							<rect x="69" y="99.4" class="st5" width="40.2" height="2"/>
							<circle class="st3" cx="71.4" cy="100.3" r="0.5"/>
							<circle class="st3" cx="74.6" cy="100.3" r="0.5"/>
							<circle class="st3" cx="77.8" cy="100.3" r="0.5"/>
							<circle class="st3" cx="81" cy="100.3" r="0.5"/>
							<circle class="st3" cx="84.2" cy="100.3" r="0.5"/>
							<circle class="st3" cx="87.4" cy="100.3" r="0.5"/>
							<circle class="st3" cx="90.6" cy="100.3" r="0.5"/>
							<circle class="st3" cx="93.8" cy="100.3" r="0.5"/>
							<circle class="st3" cx="97" cy="100.3" r="0.5"/>
							<path class="st3" d="M100.7,100.3c0,0.3-0.2,0.5-0.5,0.5c-0.3,0-0.5-0.2-0.5-0.5c0-0.3,0.2-0.5,0.5-0.5
								C100.5,99.8,100.7,100,100.7,100.3z"/>
							<circle class="st3" cx="103.4" cy="100.3" r="0.5"/>
							<circle class="st3" cx="106.6" cy="100.3" r="0.5"/>
						</g>
						<rect x="69" y="79.1" class="st3" width="18.8" height="1.5"/>
						<rect x="89.9" y="65.9" class="st5" width="1.1" height="8.1"/>
						<rect x="92.2" y="65.9" class="st5" width="1.1" height="8.1"/>
						<rect x="94.4" y="65.9" class="st5" width="1.1" height="8.1"/>
						<rect x="96.8" y="65.9" class="st5" width="1.1" height="8.1"/>
						<rect x="100.4" y="65.9" class="st5" width="1.1" height="8.1"/>
						<rect x="102.6" y="65.9" class="st5" width="1.1" height="8.1"/>
						<rect x="105" y="65.9" class="st5" width="1.1" height="8.1"/>
						<g>
							<path class="st3" d="M90.5,73.1L90.5,73.1c-0.5,0-0.9,0.4-0.9,0.9v0.2c0,0.5,0.4,0.9,0.9,0.9l0,0c0.5,0,0.9-0.4,0.9-0.9V74
								C91.4,73.5,91,73.1,90.5,73.1z"/>
							<path class="st29" d="M89.6,74v3.8c0,0.5,0.4,0.9,0.9,0.9c0.5,0,0.9-0.4,0.9-0.9V74H89.6z"/>
							<path class="st5" d="M90.7,73.6c0,0.1-0.1,0.2-0.2,0.2s-0.2-0.1-0.2-0.2s0.1-0.2,0.2-0.2S90.7,73.4,90.7,73.6z"/>
						</g>
						<g>
							<path class="st3" d="M92.7,73.1L92.7,73.1c-0.5,0-0.9,0.4-0.9,0.9v0.2c0,0.5,0.4,0.9,0.9,0.9l0,0c0.5,0,0.9-0.4,0.9-0.9V74
								C93.6,73.5,93.2,73.1,92.7,73.1z"/>
							<path class="st29" d="M91.8,74v3.8c0,0.5,0.4,0.9,0.9,0.9c0.5,0,0.9-0.4,0.9-0.9V74H91.8z"/>
							<path class="st5" d="M92.9,73.6c0,0.1-0.1,0.2-0.2,0.2s-0.2-0.1-0.2-0.2s0.1-0.2,0.2-0.2S92.9,73.4,92.9,73.6z"/>
						</g>
						<g>
							<path class="st3" d="M94.9,73.1L94.9,73.1c-0.5,0-0.9,0.4-0.9,0.9v0.2c0,0.5,0.4,0.9,0.9,0.9l0,0c0.5,0,0.9-0.4,0.9-0.9V74
								C95.8,73.5,95.4,73.1,94.9,73.1z"/>
							<path class="st29" d="M94,74v3.8c0,0.5,0.4,0.9,0.9,0.9c0.5,0,0.9-0.4,0.9-0.9V74H94z"/>
							<path class="st5" d="M95.1,73.6c0,0.1-0.1,0.2-0.2,0.2c-0.1,0-0.2-0.1-0.2-0.2s0.1-0.2,0.2-0.2C95,73.3,95.1,73.4,95.1,73.6z
								"/>
						</g>
						<g>
							<path class="st3" d="M97.3,73.1L97.3,73.1c-0.5,0-0.9,0.4-0.9,0.9v0.2c0,0.5,0.4,0.9,0.9,0.9l0,0c0.5,0,0.9-0.4,0.9-0.9V74
								C98.2,73.5,97.8,73.1,97.3,73.1z"/>
							<path class="st29" d="M96.4,74v3.8c0,0.5,0.4,0.9,0.9,0.9c0.5,0,0.9-0.4,0.9-0.9V74H96.4z"/>
							<path class="st5" d="M97.5,73.6c0,0.1-0.1,0.2-0.2,0.2c-0.1,0-0.2-0.1-0.2-0.2s0.1-0.2,0.2-0.2
								C97.4,73.3,97.5,73.4,97.5,73.6z"/>
						</g>
						<g>
							<path class="st3" d="M100.9,73.1L100.9,73.1c-0.5,0-0.9,0.4-0.9,0.9v0.2c0,0.5,0.4,0.9,0.9,0.9l0,0c0.5,0,0.9-0.4,0.9-0.9V74
								C101.8,73.5,101.4,73.1,100.9,73.1z"/>
							<path class="st29" d="M100,74v3.8c0,0.5,0.4,0.9,0.9,0.9c0.5,0,0.9-0.4,0.9-0.9V74H100z"/>
							<circle class="st5" cx="100.9" cy="73.6" r="0.2"/>
						</g>
						<g>
							<path class="st3" d="M103.1,73.1L103.1,73.1c-0.5,0-0.9,0.4-0.9,0.9v0.2c0,0.5,0.4,0.9,0.9,0.9l0,0c0.5,0,0.9-0.4,0.9-0.9V74
								C104,73.5,103.6,73.1,103.1,73.1z"/>
							<path class="st29" d="M102.2,74v3.8c0,0.5,0.4,0.9,0.9,0.9c0.5,0,0.9-0.4,0.9-0.9V74H102.2z"/>
							<path class="st5" d="M103.3,73.6c0,0.1-0.1,0.2-0.2,0.2s-0.2-0.1-0.2-0.2s0.1-0.2,0.2-0.2S103.3,73.4,103.3,73.6z"/>
						</g>
						<g>
							<path class="st3" d="M105.5,73.1L105.5,73.1c-0.5,0-0.9,0.4-0.9,0.9v0.2c0,0.5,0.4,0.9,0.9,0.9l0,0c0.5,0,0.9-0.4,0.9-0.9V74
								C106.4,73.5,106,73.1,105.5,73.1z"/>
							<path class="st29" d="M104.6,74v3.8c0,0.5,0.4,0.9,0.9,0.9c0.5,0,0.9-0.4,0.9-0.9V74H104.6z"/>
							<path class="st5" d="M105.7,73.6c0,0.1-0.1,0.2-0.2,0.2c-0.1,0-0.2-0.1-0.2-0.2s0.1-0.2,0.2-0.2
								C105.6,73.3,105.7,73.4,105.7,73.6z"/>
						</g>
						<rect x="69" y="80.6" class="st29" width="18.8" height="12.7"/>
						<rect x="70" y="81.8" class="st27" width="6.2" height="10.5"/>
						<rect x="77.6" y="81.8" class="st27" width="9.3" height="10.5"/>
						<rect x="70.9" y="82.7" class="st3" width="4.2" height="1.9"/>
						<rect x="78.4" y="82.7" class="st3" width="0.9" height="1.9"/>
						<rect x="80.1" y="82.7" class="st3" width="0.9" height="1.9"/>
						<rect x="81.8" y="82.7" class="st3" width="0.9" height="1.9"/>
						<rect x="83.5" y="82.7" class="st3" width="0.9" height="1.9"/>
						<rect x="85.1" y="82.7" class="st3" width="0.9" height="1.9"/>
						<rect x="70.8" y="85.9" class="st5" width="4.2" height="0.5"/>
						<rect x="70.8" y="87.4" class="st5" width="4.2" height="0.5"/>
						<path class="st5" d="M74.3,90.3c0,0.7-0.6,1.3-1.3,1.3c-0.7,0-1.3-0.6-1.3-1.3c0-0.7,0.6-1.3,1.3-1.3
							C73.7,89,74.3,89.6,74.3,90.3z"/>
						<path class="st30" d="M73,91L73,91c-0.2,0-0.3-0.1-0.3-0.3v-1c0-0.2,0.1-0.3,0.3-0.3l0,0c0.2,0,0.3,0.1,0.3,0.3v1
							C73.3,90.9,73.1,91,73,91z"/>
						<circle class="st5" cx="80.2" cy="90.3" r="1.3"/>
						<path class="st30" d="M80.2,91L80.2,91c-0.2,0-0.3-0.1-0.3-0.3v-1c0-0.2,0.1-0.3,0.3-0.3l0,0c0.2,0,0.3,0.1,0.3,0.3v1
							C80.5,90.9,80.4,91,80.2,91z"/>
						<circle class="st5" cx="84.3" cy="90.3" r="1.3"/>
						<path class="st30" d="M84.3,91L84.3,91c-0.2,0-0.3-0.1-0.3-0.3v-1c0-0.2,0.1-0.3,0.3-0.3l0,0c0.2,0,0.3,0.1,0.3,0.3v1
							C84.6,90.9,84.5,91,84.3,91z"/>
						<g>
							<path class="st3" d="M82.1,50.5l-0.5,0c0,0,0-1.1,0-3.1c0-1.3-0.4-1.9-0.7-2.1c-0.1-0.1-0.3,0-0.4,0.1
								c-0.6,0.5-0.6,2-0.6,2.5l-0.5,0c0-0.1-0.1-2,0.8-2.9c0.3-0.3,0.6-0.3,0.9-0.2c0.6,0.3,0.9,1.2,1,2.5
								C82.1,49.4,82.1,50.5,82.1,50.5z"/>
						</g>
						<rect x="79.3" y="47.4" class="st5" width="0.6" height="1.3"/>
						<g>
							<path class="st3" d="M86,50.5l-0.5,0c0,0,0-1.1,0-3.1c0-1.3-0.4-1.9-0.7-2.1c-0.1-0.1-0.3,0-0.4,0.1c-0.6,0.5-0.6,2-0.6,2.5
								l-0.5,0c0-0.1-0.1-2,0.8-2.9c0.3-0.3,0.6-0.3,0.9-0.2c0.6,0.3,0.9,1.2,1,2.5C86.1,49.4,86,50.5,86,50.5z"/>
						</g>
						<rect x="83.3" y="47.4" class="st5" width="0.6" height="1.3"/>
						<g>
							<path class="st3" d="M90.1,50.5l-0.5,0c0,0,0-1.1,0-3.1c0-1.3-0.4-1.9-0.7-2.1c-0.1-0.1-0.3,0-0.4,0.1
								c-0.6,0.5-0.6,2-0.6,2.5l-0.5,0c0-0.1-0.1-2,0.8-2.9c0.3-0.3,0.6-0.3,0.9-0.2c0.6,0.3,0.9,1.2,1,2.5
								C90.1,49.4,90.1,50.5,90.1,50.5z"/>
						</g>
						<rect x="87.4" y="47.4" class="st5" width="0.6" height="1.3"/>
						<g>
							<path class="st3" d="M94.2,50.5l-0.5,0c0,0,0-1.1,0-3.1c0-1.3-0.4-1.9-0.7-2.1c-0.1-0.1-0.3,0-0.4,0.1C92,46,92,47.4,92,47.9
								l-0.5,0c0-0.1-0.1-2,0.8-2.9c0.3-0.3,0.6-0.3,0.9-0.2c0.6,0.3,0.9,1.2,1,2.5C94.2,49.4,94.2,50.5,94.2,50.5z"/>
						</g>
						<rect x="91.4" y="47.4" class="st5" width="0.6" height="1.3"/>
						<rect x="97.2" y="47.7" class="st27" width="8.2" height="1.1"/>
						<rect x="98.5" y="46.6" class="st30" width="0.7" height="1.1"/>
						<rect x="100.1" y="46.6" class="st30" width="0.7" height="1.1"/>
						<rect x="101.8" y="46.6" class="st30" width="0.7" height="1.1"/>
						<rect x="103.4" y="46.6" class="st30" width="0.7" height="1.1"/>
					</g>
					<g>
						
							<rect x="111.8" y="48.7" transform="matrix(-1 -1.224647e-16 1.224647e-16 -1 260.1219 101.8522)" class="st3" width="36.5" height="4.4"/>
						
							<rect x="111.8" y="51.5" transform="matrix(-1 -1.224647e-16 1.224647e-16 -1 258.6209 104.6418)" class="st28" width="35" height="1.6"/>
						
							<rect x="143.7" y="45.6" transform="matrix(-1 -1.224647e-16 1.224647e-16 -1 293.5819 101.8828)" class="st27" width="6.2" height="10.7"/>
						
							<rect x="144.1" y="46.2" transform="matrix(-1 -1.224647e-16 1.224647e-16 -1 293.5818 101.8828)" class="st4" width="5.4" height="9.5"/>
						
							<rect x="144.8" y="49.9" transform="matrix(-1 -1.224647e-16 1.224647e-16 -1 293.5818 103.0176)" class="st29" width="4" height="3.2"/>
						
							<rect x="147.6" y="50.5" transform="matrix(-1 -1.224647e-16 1.224647e-16 -1 295.8894 103.0176)" class="st28" width="0.7" height="2"/>
						
							<rect x="146.4" y="50.5" transform="matrix(-1 -1.224647e-16 1.224647e-16 -1 293.5819 103.0176)" class="st28" width="0.7" height="2"/>
						
							<rect x="145.3" y="50.5" transform="matrix(-1 -1.224647e-16 1.224647e-16 -1 291.3152 103.0176)" class="st28" width="0.7" height="2"/>
						<circle class="st5" cx="122" cy="50.9" r="1.5"/>
						<path class="st5" d="M116.5,50.9c0,0.7,0.6,1.3,1.3,1.3c0.7,0,1.3-0.6,1.3-1.3c0-0.7-0.6-1.3-1.3-1.3
							C117.1,49.6,116.5,50.2,116.5,50.9z"/>
						<path class="st30" d="M122,53.9L122,53.9c0.4,0,0.7-0.3,0.7-0.7v-2.3c0-0.4-0.3-0.7-0.7-0.7l0,0c-0.4,0-0.7,0.3-0.7,0.7v2.3
							C121.3,53.6,121.6,53.9,122,53.9z"/>
						<path class="st30" d="M117.8,51.7L117.8,51.7c0.2,0,0.3-0.1,0.3-0.3v-1c0-0.2-0.1-0.3-0.3-0.3l0,0c-0.2,0-0.3,0.1-0.3,0.3v1
							C117.5,51.6,117.7,51.7,117.8,51.7z"/>
						
							<rect x="147.8" y="56.3" transform="matrix(-1 -1.224647e-16 1.224647e-16 -1 296.2365 113.7526)" class="st5" width="0.7" height="1.2"/>
						
							<rect x="146.5" y="56.3" transform="matrix(-1 -1.224647e-16 1.224647e-16 -1 293.6227 113.7526)" class="st5" width="0.7" height="1.2"/>
						
							<rect x="145.2" y="56.3" transform="matrix(-1 -1.224647e-16 1.224647e-16 -1 291.0089 113.7526)" class="st5" width="0.7" height="1.2"/>
						
							<rect x="119.1" y="54.4" transform="matrix(-1 -1.224647e-16 1.224647e-16 -1 238.8737 110.1005)" class="st28" width="0.7" height="1.3"/>
						
							<rect x="117.5" y="54.4" transform="matrix(-1 -1.224647e-16 1.224647e-16 -1 235.6115 110.1005)" class="st28" width="0.7" height="1.3"/>
						
							<rect x="115.8" y="54.4" transform="matrix(-1 -1.224647e-16 1.224647e-16 -1 232.3492 110.1005)" class="st28" width="0.7" height="1.3"/>
						
							<rect x="123.2" y="55.7" transform="matrix(-1 -1.224647e-16 1.224647e-16 -1 254.3344 121.6249)" class="st27" width="7.9" height="10.2"/>
						
							<rect x="123.2" y="57.6" transform="matrix(-1 -1.224647e-16 1.224647e-16 -1 254.3344 121.6249)" class="st29" width="7.9" height="6.5"/>
						
							<rect x="115" y="55.7" transform="matrix(-1 -1.224647e-16 1.224647e-16 -1 235.6116 121.6249)" class="st27" width="5.7" height="10.2"/>
						
							<rect x="115" y="57.6" transform="matrix(-1 -1.224647e-16 1.224647e-16 -1 235.6116 121.6249)" class="st29" width="5.7" height="6.5"/>
						
							<rect x="129" y="53.1" transform="matrix(-1 -1.224647e-16 1.224647e-16 -1 258.8253 108.8223)" class="st29" width="0.8" height="2.6"/>
						
							<rect x="126.7" y="53.1" transform="matrix(-1 -1.224647e-16 1.224647e-16 -1 254.2509 108.8223)" class="st29" width="0.8" height="2.6"/>
						
							<rect x="124.4" y="53.1" transform="matrix(-1 -1.224647e-16 1.224647e-16 -1 249.6767 108.8223)" class="st29" width="0.8" height="2.6"/>
						
							<rect x="127.2" y="62.1" transform="matrix(-1 -1.224647e-16 1.224647e-16 -1 257.7633 124.7631)" class="st28" width="3.3" height="0.5"/>
						
							<rect x="147.8" y="57.5" transform="matrix(-1 -1.224647e-16 1.224647e-16 -1 296.2365 118.2938)" class="st30" width="0.7" height="3.3"/>
						
							<rect x="146.5" y="57.5" transform="matrix(-1 -1.224647e-16 1.224647e-16 -1 293.6227 118.2938)" class="st3" width="0.7" height="3.3"/>
						
							<rect x="145.2" y="57.5" transform="matrix(-1 -1.224647e-16 1.224647e-16 -1 291.0089 118.2938)" class="st31" width="0.7" height="3.3"/>
						<path class="st5" d="M147.6,64v6.3c0,0.3-0.3,0.6-0.6,0.6c-0.3,0-0.6-0.3-0.6-0.6V64H147.6z"/>
						<path class="st5" d="M142.8,64v6.3c0,0.3-0.3,0.6-0.6,0.6c-0.3,0-0.6-0.3-0.6-0.6V64H142.8z"/>
						<path class="st5" d="M137.8,64v6.3c0,0.3-0.3,0.6-0.6,0.6c-0.3,0-0.6-0.3-0.6-0.6V64H137.8z"/>
						<g>
							<g>
								<path class="st5" d="M149.7,100.9c0-0.1,0.8-3-1.4-4.5c-1.9-1.3-1.7-3.4-1.7-3.4l-0.5,0c0,0.1-0.2,2.4,1.9,3.8
									c1.9,1.3,1.2,3.9,1.2,4L149.7,100.9z"/>
							</g>
							<g>
								<path class="st5" d="M143.3,101l0.2-0.5c0,0,0.1,0,0.1,0c-0.1-0.2-0.2-1.4,0.9-3c1.2-1.8,1-4.9,0.9-5l-0.5,0
									c0,0,0.3,3-0.9,4.7c-1.1,1.6-1.1,2.9-0.9,3.4C143.1,100.9,143.2,101,143.3,101z"/>
							</g>
							<g>
								<path class="st5" d="M140.5,100.3l0.5,0c0-2.8,0-7,0-7.3l-0.2,0l-0.2-0.2C140.5,92.9,140.5,92.9,140.5,100.3z"/>
							</g>
							<g>
								<path class="st5" d="M136.8,100.4l0.5-0.1c0,0-0.5-1.7,0.5-3.4c1-2,1.3-3.7,1.3-3.8l-0.5-0.1c0,0-0.3,1.8-1.3,3.7
									C136.3,98.5,136.7,100.3,136.8,100.4z"/>
							</g>
						</g>
						<g>
							<g>
								<path class="st5" d="M134.8,100.8l0.5,0c0-5-1.8-9.6-3.2-12.5c-1.4-2.9-1.3-9.9-1.3-10l-0.5,0c0,0.3-0.1,7.2,1.4,10.2
									C133.1,91.4,134.8,95.9,134.8,100.8z"/>
							</g>
							<g>
								<path class="st5" d="M130.8,99.6c0-0.1,0.3-5.3-1.4-11.9c-0.8-3.2-0.9-9.3-0.9-9.3l-0.5,0c0,0.3,0.1,6.2,0.9,9.4
									c1.7,6.5,1.3,11.7,1.3,11.7L130.8,99.6z"/>
							</g>
							<g>
								<path class="st5" d="M124.9,100.1c0-0.1,0.1-5.6,0.8-7.9c0.8-2.8,0.7-13.5,0.7-13.9l-0.5,0c0,0.1,0.1,11.1-0.7,13.8
									c-0.7,2.3-0.8,7.8-0.8,8L124.9,100.1z"/>
							</g>
							<g>
								<path class="st5" d="M128,99.6c0-0.1,0.2-2.3-0.3-4.3c-0.2-1-0.9-2.5-1.6-4c-0.8-1.9-1.7-3.8-1.9-4.9
									c-0.3-2.2-0.3-7.8-0.3-7.9l-0.5,0c0,0.2,0,5.7,0.3,7.9c0.2,1.2,1,3.2,1.9,5.1c0.7,1.6,1.4,3,1.6,3.9c0.4,2,0.3,4.2,0.2,4.2
									L128,99.6z"/>
							</g>
							<g>
								<path class="st5" d="M113.4,100.1l0.5,0c-0.1-1.6,0.4-5.8,0.8-9.1c0.2-1.2,0.3-2.4,0.4-3.3c0.4-3.5,0.6-9.4,0.6-9.5l-0.5,0
									c0,0.1-0.2,6-0.6,9.4c-0.1,0.9-0.2,2.1-0.4,3.3C113.8,94.4,113.3,98.4,113.4,100.1z"/>
							</g>
							<g>
								<path class="st5" d="M121.9,100.1c0,0,0.1-2.4-0.2-4.4c-0.2-1.7-0.9-3.5-1.6-5.5c-0.4-1-0.8-2.1-1.2-3.3
									c-0.8-2.5-0.7-8.5-0.7-8.5l-0.5,0c0,0.2-0.1,6.1,0.8,8.7c0.4,1.2,0.8,2.3,1.2,3.3c0.7,2,1.4,3.8,1.6,5.4
									c0.3,1.9,0.2,4.3,0.2,4.3L121.9,100.1z"/>
							</g>
							<g>
								<path class="st5" d="M117,100.1c0,0,0.1-4.3,0.3-6.7c0.2-1.5,0.9-3.2,1.5-4.7c0.4-0.9,0.7-1.7,0.9-2.4
									c0.8-2.9,0.7-7.9,0.7-8.1l-0.5,0c0,0.1,0.1,5.1-0.7,7.9c-0.2,0.7-0.5,1.5-0.9,2.3c-0.6,1.5-1.4,3.2-1.5,4.8
									c-0.2,2.4-0.3,6.7-0.3,6.7L117,100.1z"/>
							</g>
						</g>
						<g>
							
								<rect x="134.5" y="60.8" transform="matrix(-1 -1.224647e-16 1.224647e-16 -1 284.3925 124.8681)" class="st3" width="15.4" height="3.2"/>
							
								<rect x="145" y="61.4" transform="matrix(-1 -1.224647e-16 1.224647e-16 -1 294.317 124.8872)" class="st29" width="4.3" height="2.1"/>
							
								<rect x="140" y="61.4" transform="matrix(-1 -1.224647e-16 1.224647e-16 -1 284.3925 124.8872)" class="st29" width="4.3" height="2.1"/>
							
								<rect x="135.1" y="61.4" transform="matrix(-1 -1.224647e-16 1.224647e-16 -1 274.5086 124.8872)" class="st29" width="4.3" height="2.1"/>
							
								<rect x="147.9" y="61.4" transform="matrix(-1 -1.224647e-16 1.224647e-16 -1 296.4102 124.8872)" class="st5" width="0.5" height="2.1"/>
							
								<rect x="143.1" y="61.4" transform="matrix(-1 -1.224647e-16 1.224647e-16 -1 286.7503 124.8872)" class="st5" width="0.5" height="2.1"/>
							
								<rect x="138" y="61.4" transform="matrix(-1 -1.224647e-16 1.224647e-16 -1 276.5813 124.8872)" class="st5" width="0.5" height="2.1"/>
						</g>
						
							<rect x="146.7" y="70.7" transform="matrix(-1 -1.224647e-16 1.224647e-16 -1 294.0414 149.7983)" class="st30" width="0.7" height="8.4"/>
						
							<rect x="141.8" y="70.7" transform="matrix(-1 -1.224647e-16 1.224647e-16 -1 284.3923 149.7983)" class="st3" width="0.7" height="8.4"/>
						
							<rect x="136.9" y="70.7" transform="matrix(-1 -1.224647e-16 1.224647e-16 -1 274.5085 149.7983)" class="st31" width="0.7" height="8.4"/>
						<g>
							
								<rect x="111.8" y="99.4" transform="matrix(-1 -1.224647e-16 1.224647e-16 -1 263.808 200.8128)" class="st5" width="40.2" height="2"/>
							<circle class="st3" cx="149.7" cy="100.3" r="0.5"/>
							<path class="st3" d="M146,100.3c0,0.3,0.2,0.5,0.5,0.5c0.3,0,0.5-0.2,0.5-0.5c0-0.3-0.2-0.5-0.5-0.5
								C146.2,99.8,146,100,146,100.3z"/>
							<circle class="st3" cx="143.3" cy="100.3" r="0.5"/>
							<circle class="st3" cx="140.1" cy="100.3" r="0.5"/>
							<circle class="st3" cx="136.8" cy="100.3" r="0.5"/>
							<path class="st3" d="M133.1,100.3c0,0.3,0.2,0.5,0.5,0.5c0.3,0,0.5-0.2,0.5-0.5c0-0.3-0.2-0.5-0.5-0.5
								C133.4,99.8,133.1,100,133.1,100.3z"/>
							<circle class="st3" cx="130.4" cy="100.3" r="0.5"/>
							<circle class="st3" cx="127.2" cy="100.3" r="0.5"/>
							<circle class="st3" cx="124" cy="100.3" r="0.5"/>
							<path class="st3" d="M120.3,100.3c0,0.3,0.2,0.5,0.5,0.5c0.3,0,0.5-0.2,0.5-0.5c0-0.3-0.2-0.5-0.5-0.5
								C120.5,99.8,120.3,100,120.3,100.3z"/>
							<circle class="st3" cx="117.6" cy="100.3" r="0.5"/>
							<path class="st3" d="M113.9,100.3c0,0.3,0.2,0.5,0.5,0.5c0.3,0,0.5-0.2,0.5-0.5c0-0.3-0.2-0.5-0.5-0.5
								C114.1,99.8,113.9,100,113.9,100.3z"/>
						</g>
						
							<rect x="133.1" y="79.1" transform="matrix(-1 -1.224647e-16 1.224647e-16 -1 285.1476 159.7447)" class="st3" width="18.8" height="1.5"/>
						
							<rect x="130.1" y="65.9" transform="matrix(-1 -1.224647e-16 1.224647e-16 -1 261.1833 139.9579)" class="st5" width="1.1" height="8.1"/>
						
							<rect x="127.8" y="65.9" transform="matrix(-1 -1.224647e-16 1.224647e-16 -1 256.7021 139.9579)" class="st5" width="1.1" height="8.1"/>
						
							<rect x="125.6" y="65.9" transform="matrix(-1 -1.224647e-16 1.224647e-16 -1 252.2209 139.9579)" class="st5" width="1.1" height="8.1"/>
						
							<rect x="123.2" y="65.9" transform="matrix(-1 -1.224647e-16 1.224647e-16 -1 247.4857 139.9579)" class="st5" width="1.1" height="8.1"/>
						
							<rect x="119.6" y="65.9" transform="matrix(-1 -1.224647e-16 1.224647e-16 -1 240.2197 139.9579)" class="st5" width="1.1" height="8.1"/>
						
							<rect x="117.3" y="65.9" transform="matrix(-1 -1.224647e-16 1.224647e-16 -1 235.7385 139.9579)" class="st5" width="1.1" height="8.1"/>
						
							<rect x="115" y="65.9" transform="matrix(-1 -1.224647e-16 1.224647e-16 -1 231.0034 139.9579)" class="st5" width="1.1" height="8.1"/>
						<g>
							<path class="st3" d="M130.6,73.1L130.6,73.1c0.5,0,0.9,0.4,0.9,0.9v0.2c0,0.5-0.4,0.9-0.9,0.9l0,0c-0.5,0-0.9-0.4-0.9-0.9V74
								C129.7,73.5,130.1,73.1,130.6,73.1z"/>
							<path class="st29" d="M131.4,74v3.8c0,0.5-0.4,0.9-0.9,0.9c-0.5,0-0.9-0.4-0.9-0.9V74H131.4z"/>
							<circle class="st5" cx="130.6" cy="73.6" r="0.2"/>
						</g>
						<g>
							<path class="st3" d="M128.4,73.1L128.4,73.1c0.5,0,0.9,0.4,0.9,0.9v0.2c0,0.5-0.4,0.9-0.9,0.9l0,0c-0.5,0-0.9-0.4-0.9-0.9V74
								C127.5,73.5,127.9,73.1,128.4,73.1z"/>
							<path class="st29" d="M129.2,74v3.8c0,0.5-0.4,0.9-0.9,0.9c-0.5,0-0.9-0.4-0.9-0.9V74H129.2z"/>
							<path class="st5" d="M128.1,73.6c0,0.1,0.1,0.2,0.2,0.2c0.1,0,0.2-0.1,0.2-0.2s-0.1-0.2-0.2-0.2
								C128.2,73.3,128.1,73.4,128.1,73.6z"/>
						</g>
						<g>
							<path class="st3" d="M126.1,73.1L126.1,73.1c0.5,0,0.9,0.4,0.9,0.9v0.2c0,0.5-0.4,0.9-0.9,0.9l0,0c-0.5,0-0.9-0.4-0.9-0.9V74
								C125.2,73.5,125.6,73.1,126.1,73.1z"/>
							<path class="st29" d="M127,74v3.8c0,0.5-0.4,0.9-0.9,0.9c-0.5,0-0.9-0.4-0.9-0.9V74H127z"/>
							<path class="st5" d="M125.9,73.6c0,0.1,0.1,0.2,0.2,0.2c0.1,0,0.2-0.1,0.2-0.2s-0.1-0.2-0.2-0.2
								C126,73.3,125.9,73.4,125.9,73.6z"/>
						</g>
						<g>
							<path class="st3" d="M123.7,73.1L123.7,73.1c0.5,0,0.9,0.4,0.9,0.9v0.2c0,0.5-0.4,0.9-0.9,0.9l0,0c-0.5,0-0.9-0.4-0.9-0.9V74
								C122.9,73.5,123.3,73.1,123.7,73.1z"/>
							<path class="st29" d="M124.6,74v3.8c0,0.5-0.4,0.9-0.9,0.9c-0.5,0-0.9-0.4-0.9-0.9V74H124.6z"/>
							<circle class="st5" cx="123.8" cy="73.6" r="0.2"/>
						</g>
						<g>
							<path class="st3" d="M120.2,73.1L120.2,73.1c0.5,0,0.9,0.4,0.9,0.9v0.2c0,0.5-0.4,0.9-0.9,0.9l0,0c-0.5,0-0.9-0.4-0.9-0.9V74
								C119.3,73.5,119.7,73.1,120.2,73.1z"/>
							<path class="st29" d="M121.1,74v3.8c0,0.5-0.4,0.9-0.9,0.9s-0.9-0.4-0.9-0.9V74H121.1z"/>
							<path class="st5" d="M120,73.6c0,0.1,0.1,0.2,0.2,0.2s0.2-0.1,0.2-0.2s-0.1-0.2-0.2-0.2S120,73.4,120,73.6z"/>
						</g>
						<g>
							<path class="st3" d="M117.9,73.1L117.9,73.1c0.5,0,0.9,0.4,0.9,0.9v0.2c0,0.5-0.4,0.9-0.9,0.9l0,0c-0.5,0-0.9-0.4-0.9-0.9V74
								C117,73.5,117.4,73.1,117.9,73.1z"/>
							<path class="st29" d="M118.8,74v3.8c0,0.5-0.4,0.9-0.9,0.9c-0.5,0-0.9-0.4-0.9-0.9V74H118.8z"/>
							<circle class="st5" cx="117.9" cy="73.6" r="0.2"/>
						</g>
						<g>
							<path class="st3" d="M115.6,73.1L115.6,73.1c0.5,0,0.9,0.4,0.9,0.9v0.2c0,0.5-0.4,0.9-0.9,0.9l0,0c-0.5,0-0.9-0.4-0.9-0.9V74
								C114.7,73.5,115.1,73.1,115.6,73.1z"/>
							<path class="st29" d="M116.5,74v3.8c0,0.5-0.4,0.9-0.9,0.9c-0.5,0-0.9-0.4-0.9-0.9V74H116.5z"/>
							<path class="st5" d="M115.4,73.6c0,0.1,0.1,0.2,0.2,0.2c0.1,0,0.2-0.1,0.2-0.2s-0.1-0.2-0.2-0.2
								C115.5,73.3,115.4,73.4,115.4,73.6z"/>
						</g>
						
							<rect x="133.1" y="80.6" transform="matrix(-1 -1.224647e-16 1.224647e-16 -1 285.1476 174.0203)" class="st29" width="18.8" height="12.7"/>
						
							<rect x="144.8" y="81.8" transform="matrix(-1 -1.224647e-16 1.224647e-16 -1 295.8894 174.0202)" class="st27" width="6.2" height="10.5"/>
						
							<rect x="134.1" y="81.8" transform="matrix(-1 -1.224647e-16 1.224647e-16 -1 277.5616 174.0202)" class="st27" width="9.3" height="10.5"/>
						
							<rect x="146" y="82.7" transform="matrix(-1 -1.224647e-16 1.224647e-16 -1 296.1345 167.2813)" class="st3" width="4.2" height="1.9"/>
						
							<rect x="141.7" y="82.7" transform="matrix(-1 -1.224647e-16 1.224647e-16 -1 284.3586 167.2813)" class="st3" width="0.9" height="1.9"/>
						
							<rect x="140" y="82.7" transform="matrix(-1 -1.224647e-16 1.224647e-16 -1 280.9872 167.2813)" class="st3" width="0.9" height="1.9"/>
						
							<rect x="138.3" y="82.7" transform="matrix(-1 -1.224647e-16 1.224647e-16 -1 277.6158 167.2813)" class="st3" width="0.9" height="1.9"/>
						
							<rect x="136.7" y="82.7" transform="matrix(-1 -1.224647e-16 1.224647e-16 -1 274.2444 167.2813)" class="st3" width="0.9" height="1.9"/>
						
							<rect x="135" y="82.7" transform="matrix(-1 -1.224647e-16 1.224647e-16 -1 270.873 167.2813)" class="st3" width="0.9" height="1.9"/>
						
							<rect x="146" y="85.9" transform="matrix(-1 -1.224647e-16 1.224647e-16 -1 296.2366 172.2489)" class="st5" width="4.2" height="0.5"/>
						
							<rect x="146" y="87.4" transform="matrix(-1 -1.224647e-16 1.224647e-16 -1 296.2366 175.3886)" class="st5" width="4.2" height="0.5"/>
						<circle class="st5" cx="148.1" cy="90.3" r="1.3"/>
						<path class="st30" d="M148.1,91L148.1,91c0.2,0,0.3-0.1,0.3-0.3v-1c0-0.2-0.1-0.3-0.3-0.3l0,0c-0.2,0-0.3,0.1-0.3,0.3v1
							C147.8,90.9,147.9,91,148.1,91z"/>
						<circle class="st5" cx="140.8" cy="90.3" r="1.3"/>
						<path class="st30" d="M140.8,91L140.8,91c0.2,0,0.3-0.1,0.3-0.3v-1c0-0.2-0.1-0.3-0.3-0.3l0,0c-0.2,0-0.3,0.1-0.3,0.3v1
							C140.6,90.9,140.7,91,140.8,91z"/>
						<circle class="st5" cx="136.7" cy="90.3" r="1.3"/>
						<path class="st30" d="M136.7,91L136.7,91c0.2,0,0.3-0.1,0.3-0.3v-1c0-0.2-0.1-0.3-0.3-0.3l0,0c-0.2,0-0.3,0.1-0.3,0.3v1
							C136.4,90.9,136.5,91,136.7,91z"/>
						<g>
							<path class="st3" d="M139,50.5l0.5,0c0,0,0-1.1,0-3.1c0-1.3,0.4-1.9,0.7-2.1c0.1-0.1,0.3,0,0.4,0.1c0.6,0.5,0.6,2,0.6,2.5
								l0.5,0c0-0.1,0.1-2-0.8-2.9c-0.3-0.3-0.6-0.3-0.9-0.2c-0.6,0.3-0.9,1.2-1,2.5C138.9,49.4,139,50.5,139,50.5z"/>
						</g>
						
							<rect x="141.1" y="47.4" transform="matrix(-1 -1.224647e-16 1.224647e-16 -1 282.7997 96.092)" class="st5" width="0.6" height="1.3"/>
						<g>
							<path class="st3" d="M135,50.5l0.5,0c0,0,0-1.1,0-3.1c0-1.3,0.4-1.9,0.7-2.1c0.1-0.1,0.3,0,0.4,0.1c0.6,0.5,0.6,2,0.6,2.5
								l0.5,0c0-0.1,0.1-2-0.8-2.9c-0.3-0.3-0.6-0.3-0.9-0.2c-0.6,0.3-0.9,1.2-1,2.5C135,49.4,135,50.5,135,50.5z"/>
						</g>
						
							<rect x="137.1" y="47.4" transform="matrix(-1 -1.224647e-16 1.224647e-16 -1 274.9171 96.092)" class="st5" width="0.6" height="1.3"/>
						<g>
							<path class="st3" d="M130.9,50.5l0.5,0c0,0,0-1.1,0-3.1c0-1.3,0.4-1.9,0.7-2.1c0.1-0.1,0.3,0,0.4,0.1c0.6,0.5,0.6,2,0.6,2.5
								l0.5,0c0-0.1,0.1-2-0.8-2.9c-0.3-0.3-0.6-0.3-0.9-0.2c-0.6,0.3-0.9,1.2-1,2.5C130.9,49.4,130.9,50.5,130.9,50.5z"/>
						</g>
						
							<rect x="133.1" y="47.4" transform="matrix(-1 -1.224647e-16 1.224647e-16 -1 266.7431 96.092)" class="st5" width="0.6" height="1.3"/>
						<g>
							<path class="st3" d="M126.9,50.5l0.5,0c0,0,0-1.1,0-3.1c0-1.3,0.4-1.9,0.7-2.1c0.1-0.1,0.3,0,0.4,0.1c0.6,0.5,0.6,2,0.6,2.5
								l0.5,0c0-0.1,0.1-2-0.8-2.9c-0.3-0.3-0.6-0.3-0.9-0.2c-0.6,0.3-0.9,1.2-1,2.5C126.8,49.4,126.9,50.5,126.9,50.5z"/>
						</g>
						
							<rect x="129" y="47.4" transform="matrix(-1 -1.224647e-16 1.224647e-16 -1 258.5692 96.092)" class="st5" width="0.6" height="1.3"/>
						
							<rect x="115.7" y="47.7" transform="matrix(-1 -1.224647e-16 1.224647e-16 -1 239.5477 96.3823)" class="st27" width="8.2" height="1.1"/>
						
							<rect x="121.9" y="46.6" transform="matrix(-1 -1.224647e-16 1.224647e-16 -1 244.3926 94.2702)" class="st30" width="0.7" height="1.1"/>
						
							<rect x="120.2" y="46.6" transform="matrix(-1 -1.224647e-16 1.224647e-16 -1 241.1456 94.2702)" class="st30" width="0.7" height="1.1"/>
						
							<rect x="118.6" y="46.6" transform="matrix(-1 -1.224647e-16 1.224647e-16 -1 237.8987 94.2702)" class="st30" width="0.7" height="1.1"/>
						
							<rect x="117" y="46.6" transform="matrix(-1 -1.224647e-16 1.224647e-16 -1 234.6516 94.2702)" class="st30" width="0.7" height="1.1"/>
					</g>
				</g>
			</g>
			<g>
				<rect x="141.5" y="135.2" class="st3" width="9.9" height="1.8"/>
				<rect x="141.5" y="137" class="st32" width="1.1" height="3.2"/>
				<rect x="150.3" y="137" class="st32" width="1.1" height="3.2"/>
				<g>
					<path class="st4" d="M131.9,153v5.9H161V153c-4,1.4-9.1,2.3-14.6,2.3C141,155.2,135.9,154.4,131.9,153z"/>
					<path class="st29" d="M131.9,143v10c4,1.4,9.1,2.3,14.6,2.3c5.5,0,10.6-0.9,14.6-2.3v-10H131.9z"/>
				</g>
				<rect x="131" y="141.3" class="st4" width="31" height="4.7"/>
				<path class="st29" d="M160,139.3h-26.9c-1.1,0-2,0.9-2,2l0,0H162l0,0C162,140.2,161.1,139.3,160,139.3z"/>
				<g>
					<path class="st29" d="M134.2,143.1L134.2,143.1c-0.3,0-0.5-0.2-0.5-0.5v-1.2c0-0.3,0.2-0.5,0.5-0.5l0,0c0.3,0,0.5,0.2,0.5,0.5
						v1.2C134.7,142.8,134.5,143.1,134.2,143.1z"/>
					<path class="st29" d="M137.7,143.1L137.7,143.1c-0.3,0-0.5-0.2-0.5-0.5v-1.2c0-0.3,0.2-0.5,0.5-0.5l0,0c0.3,0,0.5,0.2,0.5,0.5
						v1.2C138.2,142.8,138,143.1,137.7,143.1z"/>
					<path class="st29" d="M141.2,143.1L141.2,143.1c-0.3,0-0.5-0.2-0.5-0.5v-1.2c0-0.3,0.2-0.5,0.5-0.5l0,0c0.3,0,0.5,0.2,0.5,0.5
						v1.2C141.7,142.8,141.5,143.1,141.2,143.1z"/>
					<path class="st29" d="M144.7,143.1L144.7,143.1c-0.3,0-0.5-0.2-0.5-0.5v-1.2c0-0.3,0.2-0.5,0.5-0.5l0,0c0.3,0,0.5,0.2,0.5,0.5
						v1.2C145.2,142.8,145,143.1,144.7,143.1z"/>
					<path class="st29" d="M148.2,143.1L148.2,143.1c-0.3,0-0.5-0.2-0.5-0.5v-1.2c0-0.3,0.2-0.5,0.5-0.5l0,0c0.3,0,0.5,0.2,0.5,0.5
						v1.2C148.7,142.8,148.5,143.1,148.2,143.1z"/>
					<path class="st29" d="M151.7,143.1L151.7,143.1c-0.3,0-0.5-0.2-0.5-0.5v-1.2c0-0.3,0.2-0.5,0.5-0.5l0,0c0.3,0,0.5,0.2,0.5,0.5
						v1.2C152.2,142.8,152,143.1,151.7,143.1z"/>
					<path class="st29" d="M155.2,143.1L155.2,143.1c-0.3,0-0.5-0.2-0.5-0.5v-1.2c0-0.3,0.2-0.5,0.5-0.5l0,0c0.3,0,0.5,0.2,0.5,0.5
						v1.2C155.7,142.8,155.5,143.1,155.2,143.1z"/>
					<path class="st29" d="M158.7,143.1L158.7,143.1c-0.3,0-0.5-0.2-0.5-0.5v-1.2c0-0.3,0.2-0.5,0.5-0.5l0,0c0.3,0,0.5,0.2,0.5,0.5
						v1.2C159.2,142.8,159,143.1,158.7,143.1z"/>
				</g>
				<rect x="130.5" y="143.9" class="st27" width="32" height="1.3"/>
			</g>
			<g>
				<path class="st33" d="M186.5,75.3c0,0,3.3,6.5,4.5,8.2c1.2,1.7,3.5,3.3,5.3,4.2c1.8,0.9,6.6-4.2,6.6-4.2l-2.9-5l-1.5,3
					c0,0-6.4-6.6-7.7-7.9c-1.3-1.3-3.3-1.9-4.2-1.8C185.6,72,186.5,75.3,186.5,75.3z"/>
				<g>
					<g>
						<g>
							<g>
								<g>
									<path class="st33" d="M199.6,55.9c0.3-1.2,0.6-1.7,1.8-2.6c1.2-0.9,6-1.7,8.4,0.3c2.3,2,1.4,5.6,1,6.9
										c-0.4,1.4-1.2,3.2-1.5,5.1c-0.1,0.9,0.7,2.9,1,3.4c0,0,0,0,0,0c-1,1.2-2.7,1.6-4.1,1.7c-0.8,0.1-1.5,0-2.1-0.1
										c0.1-0.1,0.2-0.2,0.2-0.4c0.2-0.5,0.1-2.6-0.3-3.1c-0.6-0.7-1.4-0.7-2.3-0.5c-1.2,0.2-0.9-1.3-1.7-1.6
										c-0.5-0.2-0.2-0.4,0-0.7c-0.1-0.2-0.5-0.3-0.5-0.4c-0.2-0.4,0.2-0.5,0.2-0.7c-0.1-0.5-1.5-0.5-1.4-1
										c0.2-0.9,1.8-2.6,1.6-3.2C199.4,57.9,199.4,57,199.6,55.9z"/>
									<path class="st5" d="M199.7,55.5c0,0,1.6-0.6,3.8,1c1.4,1.1,1.5,2.3,3.3,2.8c1.6,0.4,1.3,1.6,1.3,1.6l1.4,3.9
										c0,0,2.4-2.1,2.6-6.6c0.2-4.4-1.1-4.9-1.1-4.9s-2.4-1.8-7.1-1.5c-2.7,0.2-4.2,1.1-4.2,1.1S200,54.2,199.7,55.5z"/>
									<path class="st33" d="M206.5,59.5c0,0,0.1-1.5,1.4-1.3c1.4,0.2,1.5,2.1,0,3.3C206.4,62.7,206.5,59.5,206.5,59.5z"/>
								</g>
							</g>
						</g>
					</g>
					<g>
						<path class="st34" d="M198.5,55.3L198.5,55.3l4-0.4c0,0-0.4-2.2-2.3-2.8c0.8-1.1,2.1-2.1,4.2-2.4c6.8-1,7.9,5.5,7.9,5.5
							l-18.5,2.2l-0.2-1.2L198.5,55.3z"/>
						<path class="st35" d="M202.5,54.9l-4,0.4l0,0l0.5-0.1c0,0,0.1-1.6,1.3-3.2C202.1,52.7,202.5,54.9,202.5,54.9z"/>
					</g>
				</g>
				<g>
					<path class="st5" d="M205.2,164.4c-0.5-0.4-1-0.6-1.5-0.7c0.4-0.7,1-1.4,1.6-1.8c1.4-1,4.2-2.8,4.2-2.8l6.7-0.7
						c0,0-0.2,1.7-0.2,2.9c-1.3,1-3.4,2.6-5.1,3.1C208.3,165.3,206.5,165.3,205.2,164.4z"/>
					<path class="st5" d="M183.7,163.8c-0.5-0.3-0.9-0.6-1.4-0.7c0.4-0.7,1.1-1.5,1.7-1.9c1.4-1,4.2-2.8,4.2-2.8l6.1,0.5l0.6,0
						c0,0-0.1,0.8-0.2,1.6c-1.3,1-3.5,2.7-5.3,3.3C186.9,164.7,185.1,164.8,183.7,163.8z"/>
					<path class="st36" d="M216,161.9c0,1-1.8,2.2-4.3,3.4c-2.5,1.2-6.7,1.3-8,0.7c-0.7-0.3-0.6-1.3,0-2.2c0.5,0.1,0.9,0.3,1.5,0.7
						c1.3,0.9,3.1,0.9,5.8,0c1.7-0.6,3.8-2.1,5.1-3.1C216,161.5,216,161.7,216,161.9z"/>
					<path class="st36" d="M194.8,161.2c0,1-1.8,2.2-4.3,3.4c-2.5,1.2-6.7,1.3-8,0.7c-0.7-0.3-0.6-1.2-0.1-2.1
						c0.4,0.1,0.9,0.3,1.4,0.7c1.3,0.9,3.1,0.9,5.8,0c1.8-0.6,4-2.3,5.3-3.3C194.8,160.8,194.8,161,194.8,161.2z"/>
				</g>
				<path class="st3" d="M213.2,159c0,0-1.9,1.9-4.2,3.4c-1.9,1.2-3.4,0.8-1.9-0.7c1.6-1.5,3-2.7,3-2.7L213.2,159z"/>
				<path class="st3" d="M191.5,159c0,0-1.9,1.9-4.2,3.4c-1.9,1.2-3.4,0.8-1.9-0.7c1.6-1.5,3-2.7,3-2.7L191.5,159z"/>
				<g>
					<path class="st34" d="M212.2,102.9c-1.4,0.9-6.9-1.5-9.4-1.1c-1.5,0.3-3.9,0.8-5.6,1.2c0.8-8.9,0.5-19.7,0.9-21.4
						c1.2-4.4,3.3-8.1,5.9-11.2c3.1,0.9,6.2-1.6,6.2-1.6s3.6,2,5.1,3.9c1.8,2.3,1.9,8.9,1.7,14.8c-1.4,2.8-3.1,6.3-3.8,7.7
						C212.3,97.8,213.6,102.1,212.2,102.9z"/>
					<path class="st35" d="M217.1,106.8c0,0-9.1,0.6-12.3,0.5c-2.2-0.1-7.8-1.5-7.8-1.5c0.1-0.9,0.2-1.7,0.3-2.6
						c1.6-0.4,4-0.9,5.6-1.2c2.5-0.4,8,1.9,9.4,1.1c1.4-0.9,0.1-5.2,1.2-7.7c0.6-1.4,2.4-4.9,3.8-7.7c-0.1,1.9-0.2,3.7-0.3,5.3
						C216.6,98.2,217.3,103.1,217.1,106.8z"/>
				</g>
				<g>
					<path class="st37" d="M198,123.6c-1.3,4.5-2.4,8.5-3.9,10.1c-1.5,1.6-4.7,4.1-3.8,5c0.9,1,1.7-0.1,2.6,0
						c0.9,0.1,0.6,2.2,0.2,4.5c-0.2,0.9-1.3,10.4-2,16.4l-5.8,0c0.1-6.6,0.4-27,1.7-30.1c1.4-3.1,8-22,10-26.9
						c0.8,0.2,3.4,1.3,4.1,1.4c5.1,1.2,12.5-0.6,15.9-1.2c0.9,4.8,0.9,10.2,1.1,12.9c0.4,5.6-1.6,19.7-1.2,23.1
						c0.3,2.8,0.1,15.7,0.4,20.7h-9.7c-0.3-5.3-1.1-19.7-1.1-22.2c0-4.2-2.6-20.1-2.6-20.1l-0.9-1.5
						C203,115.9,199.3,119.2,198,123.6z"/>
					<path class="st38" d="M195.6,159.6l-4.5,0c0.7-6,1.8-15.4,2-16.4c0.4-2.3,0.7-4.3-0.2-4.5c-0.9-0.1-1.7,1-2.6,0
						c-0.9-1,2.4-3.4,3.8-5c1.5-1.6,2.6-5.6,3.9-10.1c1.3-4.5,5-7.8,5-7.8l0.9,1.5c0,0-6.7,15.3-7.2,18.6
						C196.4,138.6,195.8,154,195.6,159.6z"/>
				</g>
				<path class="st38" d="M217.3,104.5l-0.3-2.6c0,0-8.5,1.8-13.4,1.6c-4.9-0.2-6.2-1.7-6.2-1.7l-1.2,2.6c0,0,3.2,1.9,9.8,1.5
					C211.9,105.7,217.3,104.5,217.3,104.5z"/>
				<path class="st38" d="M209,104.2c0,0,0.4,6.4,2.9,8.8c2.1,2.1,6.2,1.8,6.2,1.8l0.1,1.6c0,0-5.3,0.7-8.2-2.8
					c-2.9-3.5-2.8-8.9-2.8-8.9L209,104.2z"/>
				<path class="st38" d="M203.9,117.3l-1.2-0.5c0,0-1.4-2.9-1.7-5.2c-0.3-2.3-0.6-6.3-0.4-6.3c0.2,0,1.9,0.2,1.9,0.2s0,2.9,0.3,5.8
					C202.9,113.4,203.9,117.3,203.9,117.3z"/>
				<path class="st3" d="M202,81.1c0,0.3,0.2,0.6,0.5,0.6s0.5-0.2,0.5-0.6c0-0.3-0.2-0.6-0.5-0.6S202,80.8,202,81.1z"/>
				<g>
					<path class="st39" d="M175.8,80.3L175.8,80.3c0.1-0.1,0.1-0.3,0-0.4l-3.6-3.3c-0.1-0.1-0.3-0.1-0.4,0l0,0
						c-0.1,0.1-0.1,0.3,0,0.4l3.6,3.3C175.5,80.5,175.7,80.5,175.8,80.3z"/>
					
						<rect x="172.2" y="77.5" transform="matrix(-0.674 0.7388 -0.7388 -0.674 346.6976 2.2562)" class="st39" width="1.2" height="0.3"/>
				</g>
				<g>
					<path class="st39" d="M182.6,103.3c-0.3,0-0.6,0-0.9-0.1c-3.5-0.6-3.3-4.8-3.2-8.8c0-1.1,0.1-2.3,0-3.3c-0.2-4.7-2.5-9-2.5-9
						l0.2-0.1c0,0,2.3,4.4,2.5,9.1c0,1.1,0,2.2,0,3.4c-0.1,3.9-0.3,7.9,3,8.5c1.2,0.2,2.3,0,3.1-0.8c1.7-1.5,2.6-5,2.3-9.6
						c-0.3-5.9-1.5-13.1-2.5-15l0.2-0.1c1,2,2.2,9,2.5,15.1c0.3,4.7-0.6,8.2-2.4,9.8C184.3,103,183.5,103.3,182.6,103.3z"/>
				</g>
				<path class="st33" d="M203.5,80.4c0,0-5.8,5.4-6.8,6c-1,0.7-3.9-0.7-5.7-0.9c-1.9-0.2-10.3-5.5-12.9-6.1s-6.9-1.2-6.2,0.1
					c0.4,0.8,1.4,2.7,2.1,4c0.3,0.5,2.2,2,5.3,1.9c3.1-0.1,7.3,4.3,10.1,5.5c2.8,1.2,7.2,3.6,9.8,2.6c2.5-1.1,9.6-6.3,9.6-6.3
					L203.5,80.4z"/>
				<path class="st35" d="M202.5,81.1c1.1-1.2,3.5-4,4-4.5c6.3-6.7,12.1-4.3,9.6,2.6c-1.1,3.2-4.8,6.5-7.2,8.8
					C206.8,85.6,204.5,83.6,202.5,81.1z"/>
				<g>
					<g>
						
							<rect x="180.9" y="67.1" transform="matrix(-0.8913 0.4534 -0.4534 -0.8913 380.9856 53.4572)" class="st39" width="6.4" height="10.6"/>
						
							<rect x="181.6" y="67.7" transform="matrix(-0.8913 0.4534 -0.4534 -0.8913 380.9856 53.4571)" class="st5" width="5" height="9.4"/>
						
							<rect x="180.6" y="68.6" transform="matrix(-0.8913 0.4534 -0.4534 -0.8913 376.735 48.4722)" class="st40" width="3.9" height="1.6"/>
						<g>
							<path class="st41" d="M182.7,73.5c0.4,0.8,1.4,1.1,2.2,0.7c0.8-0.4,1.1-1.4,0.7-2.2c-0.4-0.8-1.4-1.1-2.2-0.7
								C182.6,71.7,182.3,72.7,182.7,73.5z"/>
							<path class="st42" d="M183,73.3c0.3,0.6,1.1,0.9,1.7,0.5c0.6-0.3,0.9-1.1,0.5-1.7c-0.3-0.6-1.1-0.9-1.7-0.5
								C183,71.9,182.7,72.7,183,73.3z"/>
							
								<rect x="183.9" y="71.3" transform="matrix(0.8912 -0.4535 0.4535 0.8912 -12.9498 91.4294)" class="st41" width="0.5" height="2.7"/>
						</g>
						<path class="st40" d="M186.6,74.7c0.1,0.2,0.3,0.3,0.5,0.2c0.2-0.1,0.3-0.3,0.2-0.5c-0.1-0.2-0.3-0.3-0.5-0.2
							S186.5,74.5,186.6,74.7z"/>
						<path class="st43" d="M185.1,75.4c0.1,0.2,0.3,0.3,0.5,0.2c0.2-0.1,0.3-0.3,0.2-0.5c-0.1-0.2-0.3-0.3-0.5-0.2
							C185.1,75,185,75.2,185.1,75.4z"/>
						<path class="st39" d="M183.6,76.2c0.1,0.2,0.3,0.3,0.5,0.2c0.2-0.1,0.3-0.3,0.2-0.5c-0.1-0.2-0.3-0.3-0.5-0.2
							C183.6,75.7,183.5,76,183.6,76.2z"/>
						<path class="st39" d="M184.8,77.6L184.8,77.6c0.1,0,0.1-0.2,0.1-0.3l-0.6-1.2c0-0.1-0.2-0.1-0.3-0.1l0,0
							c-0.1,0-0.1,0.2-0.1,0.3l0.6,1.2C184.6,77.6,184.7,77.6,184.8,77.6z"/>
					</g>
					<path class="st33" d="M190.7,73.6c0,0-1.2-1.7-1.8-2.4c-0.5-0.7-1.8-1.5-2.3-1.9c-0.9-0.6-0.7,0.8-0.3,1.1
						c0.9,0.8,1.6,2.4,1.6,2.4L190.7,73.6z"/>
					<path class="st33" d="M179.9,71.9c0.4-0.3,1-0.7,1.3-0.2c0.3,0.5-0.4,1.1-0.9,1.3C179.7,73.2,179.1,72.5,179.9,71.9z"/>
					<path class="st33" d="M180.4,72.9c0.4-0.3,1-0.7,1.3-0.2c0.3,0.5-0.4,1.1-0.9,1.3C180.2,74.2,179.6,73.5,180.4,72.9z"/>
					<path class="st33" d="M181,73.9c0.4-0.3,1-0.7,1.3-0.2c0.3,0.5-0.4,1.1-0.9,1.3C180.8,75.3,180.2,74.6,181,73.9z"/>
					<path class="st33" d="M181.4,74.9c0.4-0.3,1-0.7,1.3-0.2c0.3,0.5-0.4,1.1-0.9,1.3C181.2,76.3,180.6,75.6,181.4,74.9z"/>
				</g>
				<path class="st35" d="M203.1,71.9l0.3-1.6c0,0,3.5-0.5,5.6-1.4c2.5-1.1,3.1,1.2,3.1,1.2s-3.1,0.5-4,1
					C205.4,72.4,203.1,71.9,203.1,71.9z"/>
			</g>
		</g>
	</g>
</g>
<g id="Carpentry">
</g>
<g id="lumbing">
</g>
<g id="Home_Cleaning">
</g>
</svg>
