<?xml version="1.0" encoding="UTF-8"?>
<svg width="70px" height="70px" viewBox="0 0 70 70" version="1.1" xmlns="http://www.w3.org/2000/svg" xmlns:xlink="http://www.w3.org/1999/xlink">
    <!-- Generator: Sketch 53 (72520) - https://sketchapp.com -->
    <title>Wash basin (standard style) </title>
    <desc>Created with Sketch.</desc>
    <defs>
        <linearGradient x1="5.63673899%" y1="-11.1485635%" x2="51.5179728%" y2="97.7255544%" id="linearGradient-1">
            <stop stop-color="#64C866" offset="0%"></stop>
            <stop stop-color="#6EDADA" offset="100%"></stop>
        </linearGradient>
    </defs>
    <g id="Page-1" stroke="none" stroke-width="1" fill="none" fill-rule="evenodd">
        <path d="M47.0403108,59.0776111 L49.6968974,69.998 L20.1200473,69.998 L22.7766338,59.0776111 L15.3616275,59.0776111 C7.83832715,59.0776111 1.57494622,53.5389119 0.385343617,46.2981648 L0.0004,46.2981648 L0.0004,40.4419434 L0.181928027,40.4419434 L0.181928027,40.4109054 L14.3629324,40.4109054 L14.3629324,32.7562384 L6.54326355,32.7562384 C4.9374387,32.7562384 3.63706966,31.4444449 3.63706966,29.8281277 C3.63706966,28.2088825 4.9374387,26.900017 6.54326355,26.900017 L20.1811384,26.900017 L20.1811384,40.4109054 L28.9084474,40.4109054 L28.9084474,15.1861102 C28.9084474,6.8117136 35.6779301,-0.002 43.9979647,-0.002 C52.3209083,-0.002 59.090391,6.8117136 59.090391,15.1861102 C59.090391,16.8024273 57.7871129,18.1142209 56.181288,18.1142209 C54.5754632,18.1142209 53.272185,16.8024273 53.272185,15.1861102 C53.272185,10.0384916 49.1121677,5.8542214 43.9979647,5.8542214 C38.8866707,5.8542214 34.7266534,10.0384916 34.7266534,15.1861102 L34.7266534,40.4109054 L43.5150536,40.4109054 L43.5150536,26.900017 L57.1529284,26.900017 C58.7587533,26.900017 60.0591223,28.2088825 60.0591223,29.8281277 C60.0591223,31.4444449 58.7587533,32.7562384 57.1529284,32.7562384 L49.3332596,32.7562384 L49.3332596,40.4109054 L70.0004,40.4109054 L70.0004,43.7958014 C70.0004,44.5999048 69.9383684,45.3896919 69.818872,46.1605737 L69.818872,46.2981648 L69.7969012,46.2981648 C68.6068233,53.5389119 62.3410918,59.0776111 54.8177914,59.0776111 L47.0403108,59.0776111 Z M63.8450443,46.2981648 L6.33440212,46.2981648 C7.4269854,50.2851027 11.061488,53.2213897 15.3616275,53.2213897 L54.8177914,53.2213897 C59.1208325,53.2213897 62.7553426,50.2851027 63.8450393,46.2981648 Z" id="Wash-basin-(standard-style)-" fill="url(#linearGradient-1)" fill-rule="nonzero"></path>
    </g>
</svg>