<?xml version="1.0" encoding="UTF-8"?>
<svg width="70px" height="70px" viewBox="0 0 70 70" version="1.1" xmlns="http://www.w3.org/2000/svg" xmlns:xlink="http://www.w3.org/1999/xlink">
    <!-- Generator: Sketch 53 (72520) - https://sketchapp.com -->
    <title>Door lock Installation (Mother lock)</title>
    <desc>Created with Sketch.</desc>
    <defs>
        <linearGradient x1="5.63673899%" y1="-11.1485635%" x2="51.5179728%" y2="97.7255544%" id="linearGradient-1">
            <stop stop-color="#64C866" offset="0%"></stop>
            <stop stop-color="#6EDADA" offset="100%"></stop>
        </linearGradient>
    </defs>
    <g id="Page-1" stroke="none" stroke-width="1" fill="none" fill-rule="evenodd">
        <path d="M0,70 L0,-1.13686838e-13 L70,-1.13686838e-13 L70,70 L0,70 Z M5.83795505,64.1666667 L64.162045,64.1666667 L64.162045,5.83333333 L5.83795505,5.83333333 L5.83795505,64.1666667 Z M40.0203494,30.1084583 C40.0203494,32.4359583 39.036654,33.6084583 37.8865769,34.346375 L38.7038906,41.722625 C38.7447563,42.090125 38.6250782,42.4605417 38.3798841,42.737625 C38.131771,43.0147083 37.7756557,43.1722083 37.4049456,43.1722083 L32.1741379,43.1722083 C31.8034277,43.1722083 31.4473125,43.0147083 31.1991994,42.737625 C30.9540053,42.4605417 30.8343272,42.090125 30.8751929,41.722625 L31.6983445,34.311375 C30.3614528,33.3372083 29.558734,31.7972083 29.558734,30.1084583 C29.558734,27.2267917 31.9085109,24.8817917 34.7895417,24.8817917 C37.6705725,24.8817917 40.0203494,27.2267917 40.0203494,30.1084583 Z M34.7297027,24.0015417 C28.6961761,24.0015417 23.783537,28.907375 23.783537,34.9390417 C23.783537,40.9707083 28.6961761,45.8765417 34.7297027,45.8765417 C40.7632292,45.8765417 45.6758684,40.9707083 45.6758684,34.9390417 C45.6758684,28.907375 40.7632292,24.0015417 34.7297027,24.0015417 Z M34.7297027,51.709875 C25.473625,51.709875 17.9455819,44.184875 17.9455819,34.9390417 C17.9455819,25.6932083 25.473625,18.1682083 34.7297027,18.1682083 C43.9857804,18.1682083 51.5138234,25.6932083 51.5138234,34.9390417 C51.5138234,44.184875 43.9857804,51.709875 34.7297027,51.709875 Z" id="Door-lock-Installation-(Mother-lock)" fill="url(#linearGradient-1)" fill-rule="nonzero"></path>
    </g>
</svg>