<?xml version="1.0" encoding="utf-8"?>
<!-- Generator: Adobe Illustrator 16.0.0, SVG Export Plug-In . SVG Version: 6.00 Build 0)  -->
<!DOCTYPE svg PUBLIC "-//W3C//DTD SVG 1.1//EN" "http://www.w3.org/Graphics/SVG/1.1/DTD/svg11.dtd">
<svg version="1.1" id="Layer_1" xmlns="http://www.w3.org/2000/svg" xmlns:xlink="http://www.w3.org/1999/xlink" x="0px" y="0px"
	 width="24px" height="24px" viewBox="0 0 24 24" enable-background="new 0 0 24 24" xml:space="preserve">
<g>
	<defs>
		<rect id="SVGID_1_" width="24" height="24"/>
	</defs>
	<clipPath id="SVGID_2_">
		<use xlink:href="#SVGID_1_"  overflow="visible"/>
	</clipPath>
	
		<line clip-path="url(#SVGID_2_)" fill="none" stroke="#98C03D" stroke-width="2" stroke-linecap="round" stroke-linejoin="round" stroke-miterlimit="10" x1="20.645" y1="3.061" x2="20.645" y2="6.121"/>
	
		<line clip-path="url(#SVGID_2_)" fill="none" stroke="#98C03D" stroke-width="2" stroke-linecap="round" stroke-linejoin="round" stroke-miterlimit="10" x1="22.156" y1="4.59" x2="19.132" y2="4.59"/>
	<path clip-path="url(#SVGID_2_)" fill="#98C03D" d="M2.505,4.752c0,0.292-0.235,0.53-0.525,0.53c-0.289,0-0.522-0.238-0.522-0.53
		c0-0.293,0.233-0.53,0.522-0.53C2.27,4.222,2.505,4.459,2.505,4.752"/>
	
		<ellipse clip-path="url(#SVGID_2_)" fill="none" stroke="#98C03D" stroke-linecap="round" stroke-linejoin="round" stroke-miterlimit="10" cx="1.981" cy="4.752" rx="0.523" ry="0.53"/>
	<path clip-path="url(#SVGID_2_)" fill="#98C03D" d="M5.275,2.066c0,0.293-0.234,0.53-0.525,0.53c-0.29,0-0.524-0.237-0.524-0.53
		c0-0.292,0.234-0.53,0.524-0.53C5.041,1.537,5.275,1.774,5.275,2.066"/>
	
		<ellipse clip-path="url(#SVGID_2_)" fill="none" stroke="#98C03D" stroke-width="2" stroke-linecap="round" stroke-linejoin="round" stroke-miterlimit="10" cx="4.75" cy="2.066" rx="0.524" ry="0.53"/>
	<path clip-path="url(#SVGID_2_)" fill="#98C03D" d="M7.241,5.518c0,0.473-0.377,0.854-0.843,0.854
		c-0.464,0-0.844-0.381-0.844-0.854c0-0.471,0.38-0.852,0.844-0.852C6.864,4.666,7.241,5.047,7.241,5.518"/>
	<path clip-path="url(#SVGID_2_)" fill="#9ABF48" d="M23.203,11.701c-0.459-0.459-0.987-0.579-1.243-0.634
		c-0.309-0.069-0.634-0.085-0.947-0.045c-1.273-2.955-4.679-4.957-8.647-4.957c-3.744,0-7.053,2.017-8.401,5.002
		c-0.395-0.085-0.799-0.085-1.193,0.005c-0.255,0.055-0.784,0.175-1.244,0.634c-0.084,0.085-0.808,0.844-0.638,1.927
		c0.164,1.073,1.093,1.741,1.887,1.912c0.274,0.06,0.554,0.055,0.829-0.005c0.025-0.005,0.049-0.011,0.069-0.016
		c0.08,0.135,0.335,0.849-0.284,3.924c-0.015,0.08-0.01,0.165,0.015,0.245c0.364,1.168,0.953,1.737,1.917,1.847
		c0.019,0,0.035,0.005,0.055,0.005v1.498c0,0.274,0.224,0.498,0.499,0.498s0.499-0.224,0.499-0.498v-1.498h11.981v1.498
		c0,0.274,0.225,0.498,0.499,0.498c0.275,0,0.5-0.224,0.5-0.498v-1.498c0.02,0,0.034,0,0.054-0.005
		c0.964-0.109,1.559-0.679,1.917-1.847c0.025-0.08,0.03-0.165,0.016-0.245c-0.619-3.08-0.364-3.794-0.284-3.924
		c0.02,0.005,0.045,0.011,0.069,0.016c0.27,0.06,0.555,0.064,0.823,0.005c0.794-0.171,1.723-0.839,1.889-1.912
		C24.008,12.544,23.283,11.786,23.203,11.701 M12.365,7.063c3.525,0,6.545,1.718,7.693,4.269c-0.169,0.095-0.334,0.2-0.489,0.314
		c-0.434,0.305-0.818,0.684-1.123,1.124c-0.235,0.344-0.42,0.719-0.559,1.112c-0.38,1.049-0.489,2.297-0.52,3.165H7.363
		c-0.029-0.868-0.144-2.116-0.519-3.165c-0.139-0.394-0.324-0.769-0.559-1.112c-0.304-0.435-0.684-0.819-1.123-1.124
		c-0.09-0.064-0.185-0.129-0.28-0.189C6.075,8.835,9.026,7.063,12.365,7.063 M22.859,13.478c-0.1,0.645-0.719,1.004-1.108,1.084
		c-0.145,0.029-0.29,0.024-0.43-0.011c-0.17-0.034-0.404-0.079-0.669,0.045c-0.834,0.375-0.923,1.803-0.309,4.918
		c-0.315,0.923-0.709,0.993-1.009,1.027H5.401c-0.299-0.034-0.698-0.104-1.008-1.027c0.614-3.115,0.524-4.543-0.309-4.918
		c-0.265-0.119-0.499-0.074-0.669-0.045c-0.14,0.035-0.29,0.04-0.43,0.011c-0.389-0.085-1.008-0.439-1.108-1.084
		c-0.095-0.604,0.355-1.068,0.355-1.073c0.254-0.255,0.564-0.324,0.753-0.364c0.255-0.06,0.524-0.06,0.779,0
		c0.33,0.075,0.534,0.219,0.824,0.419c0.339,0.24,0.639,0.534,0.874,0.873c0.184,0.275,0.329,0.575,0.439,0.885
		c0.404,1.133,0.469,2.571,0.469,3.324c0,0.275,0.225,0.499,0.499,0.499h10.983c0.274,0,0.499-0.224,0.499-0.499
		c0-0.759,0.064-2.196,0.469-3.329c0.11-0.31,0.255-0.609,0.439-0.884c0.239-0.34,0.534-0.64,0.874-0.874
		c0.284-0.2,0.494-0.344,0.818-0.419c0.26-0.055,0.524-0.055,0.783,0c0.19,0.04,0.5,0.109,0.754,0.364
		C22.5,12.41,22.949,12.874,22.859,13.478"/>
	<path clip-path="url(#SVGID_2_)" fill="none" stroke="#99BF48" stroke-miterlimit="10" d="M23.203,11.701
		c-0.459-0.459-0.987-0.579-1.243-0.634c-0.309-0.069-0.634-0.085-0.947-0.045c-1.273-2.955-4.679-4.957-8.647-4.957
		c-3.744,0-7.053,2.017-8.401,5.002c-0.395-0.085-0.799-0.085-1.193,0.005c-0.255,0.055-0.784,0.175-1.244,0.634
		c-0.084,0.085-0.808,0.844-0.638,1.927c0.164,1.073,1.093,1.741,1.887,1.912c0.274,0.06,0.554,0.055,0.829-0.005
		c0.025-0.005,0.049-0.011,0.069-0.016c0.08,0.135,0.335,0.849-0.284,3.924c-0.015,0.08-0.01,0.165,0.015,0.245
		c0.364,1.168,0.953,1.737,1.917,1.847c0.019,0,0.035,0.005,0.055,0.005v1.498c0,0.274,0.224,0.498,0.499,0.498
		s0.499-0.224,0.499-0.498v-1.498h11.981v1.498c0,0.274,0.225,0.498,0.499,0.498c0.275,0,0.5-0.224,0.5-0.498v-1.498
		c0.02,0,0.034,0,0.054-0.005c0.964-0.109,1.559-0.679,1.917-1.847c0.025-0.08,0.03-0.165,0.016-0.245
		c-0.619-3.08-0.364-3.794-0.284-3.924c0.02,0.005,0.045,0.011,0.069,0.016c0.27,0.06,0.555,0.064,0.823,0.005
		c0.794-0.171,1.723-0.839,1.889-1.912C24.008,12.544,23.283,11.786,23.203,11.701z M12.365,7.063c3.525,0,6.545,1.718,7.693,4.269
		c-0.169,0.095-0.334,0.2-0.489,0.314c-0.434,0.305-0.818,0.684-1.123,1.124c-0.235,0.344-0.42,0.719-0.559,1.112
		c-0.38,1.049-0.489,2.297-0.52,3.165H7.363c-0.029-0.868-0.144-2.116-0.519-3.165c-0.139-0.394-0.324-0.769-0.559-1.112
		c-0.304-0.435-0.684-0.819-1.123-1.124c-0.09-0.064-0.185-0.129-0.28-0.189C6.075,8.835,9.026,7.063,12.365,7.063z M22.859,13.478
		c-0.1,0.645-0.719,1.004-1.108,1.084c-0.145,0.029-0.29,0.024-0.43-0.011c-0.17-0.034-0.404-0.079-0.669,0.045
		c-0.834,0.375-0.923,1.803-0.309,4.918c-0.315,0.923-0.709,0.993-1.009,1.027H5.401c-0.299-0.034-0.698-0.104-1.008-1.027
		c0.614-3.115,0.524-4.543-0.309-4.918c-0.265-0.119-0.499-0.074-0.669-0.045c-0.14,0.035-0.29,0.04-0.43,0.011
		c-0.389-0.085-1.008-0.439-1.108-1.084c-0.095-0.604,0.355-1.068,0.355-1.073c0.254-0.255,0.564-0.324,0.753-0.364
		c0.255-0.06,0.524-0.06,0.779,0c0.33,0.075,0.534,0.219,0.824,0.419c0.339,0.24,0.639,0.534,0.874,0.873
		c0.184,0.275,0.329,0.575,0.439,0.885c0.404,1.133,0.469,2.571,0.469,3.324c0,0.275,0.225,0.499,0.499,0.499h10.983
		c0.274,0,0.499-0.224,0.499-0.499c0-0.759,0.064-2.196,0.469-3.329c0.11-0.31,0.255-0.609,0.439-0.884
		c0.239-0.34,0.534-0.64,0.874-0.874c0.284-0.2,0.494-0.344,0.818-0.419c0.26-0.055,0.524-0.055,0.783,0
		c0.19,0.04,0.5,0.109,0.754,0.364C22.5,12.41,22.949,12.874,22.859,13.478z"/>
</g>
</svg>
