<?xml version="1.0" encoding="UTF-8"?>
<svg width="48px" height="70px" viewBox="0 0 48 70" version="1.1" xmlns="http://www.w3.org/2000/svg" xmlns:xlink="http://www.w3.org/1999/xlink">
    <!-- Generator: Sketch 53 (72520) - https://sketchapp.com -->
    <title>Geyser -upto 8 litre </title>
    <desc>Created with Sketch.</desc>
    <defs>
        <linearGradient x1="29.1402136%" y1="-11.1485635%" x2="50.713757%" y2="97.7255544%" id="linearGradient-1">
            <stop stop-color="#64C866" offset="0%"></stop>
            <stop stop-color="#6EDADA" offset="100%"></stop>
        </linearGradient>
    </defs>
    <g id="Page-1" stroke="none" stroke-width="1" fill="none" fill-rule="evenodd">
        <path d="M29,61 L28.9972246,61 L25.1478677,61 C23.7656084,61 22.3829362,61 21,60.9994539 L21,67.1567831 C21,68.729082 19.659,70 18,70 C16.341,70 15,68.729082 15,67.1567831 L15,60.9920089 C14.5470319,60.9909391 14.0940586,60.9897261 13.6410853,60.9883507 C12.764499,60.9854384 10.0966279,60.9796138 8.33710332,59.2496968 C7.74318438,58.6672332 7.32712352,57.9741015 7.08892074,57.181951 C6.63474743,57.0858445 6.17739809,56.981001 5.72322479,56.8674206 C3.15063474,56.2063244 1.24183644,54.4822321 0.346193983,52.0125863 C0.13022346,51.4097365 0.0127100876,50.7661142 0.0127100876,50.1545274 L5.9391789e-06,11.4323458 C-0.00317009792,9.14326373 1.26724474,4.03797008 4.34800072,2.04303217 C8.5753061,-0.709108442 38.877876,-0.499421538 42.8034579,1.59162287 C46.1287687,3.35939996 47.5611614,7.65798149 47.8851172,9.92085266 C48.0058066,10.7450387 48.0058066,11.5925233 47.9962785,12.4400078 L47.9899265,13.0108222 L47.9867504,50.1021056 C47.9867504,53.7716264 45.4522728,56.5266794 41.529867,57.1237046 C40.9041877,57.2227234 40.2721563,57.310093 39.643301,57.3945502 C38.8019581,59.8186511 36.750308,60.6129234 35,60.8731718 L35,67.1567831 C35,68.729082 33.659,70 32,70 C30.341,70 29,68.729082 29,67.1567831 L29,61 Z M24.2998658,5.85234426 C17.0267408,5.85234426 9.59163797,6.16687462 7.83528945,6.89495414 C7.368412,7.30267868 6.34890409,9.88299253 6.35208013,11.4265211 L6.35207273,11.6915421 C13.9110484,10.2382953 21.1015964,9.60632231 28.2254476,9.78397371 C32.4464009,9.88299253 37.3756105,10.5062286 41.6473804,11.4614689 C41.6410283,11.1993603 41.6251481,10.9430763 41.5870357,10.6867923 C41.3170725,8.79378555 40.2276918,6.95320051 39.6178927,6.63284551 C38.0933949,6.14066375 31.2680911,5.85234426 24.2998658,5.85234426 Z M6.36160824,41.2107984 C6.38701654,41.2166231 6.41560087,41.2195354 6.44418521,41.22536 C10.2935422,41.8282099 14.4287425,42.1718634 19.0816368,42.2767069 C26.3420576,42.4456213 33.7104637,42.0699323 41.6346762,41.1350782 L41.6378523,17.4783182 C37.5407644,16.432796 32.3066553,15.7047164 28.0666458,15.6056976 C21.0380757,15.4542571 13.9110484,16.1066163 6.35525617,17.6501449 L6.36160824,41.2107984 Z M15.3497932,55.1666268 C19.8978783,55.1782761 24.4427874,55.1753638 28.9940486,55.1753638 L31.3189077,55.1753638 C31.258563,53.6871692 32.452753,52.3766261 34.0979402,52.1873254 L34.4981209,52.1436406 C36.4990242,51.9106552 38.4999276,51.6834944 40.4881268,51.3806133 C41.3678891,51.2466466 41.6346762,50.9466779 41.6346762,50.1050179 L41.6346762,47.0063115 C33.6882314,47.9062178 26.2499525,48.2586083 18.929187,48.1013431 C14.3525176,47.9964996 10.2300214,47.6732323 6.36478428,47.1140672 L6.36478428,50.151615 C6.69826817,51.0660829 7.20961015,51.1971372 7.42875671,51.2553836 C9.13746466,51.689319 11.0081505,51.9572523 12.6311055,52.1727638 C14.2572365,52.3882753 15.413314,53.6959062 15.3497932,55.1666268 Z" id="Geyser--upto-8-litre-" fill="url(#linearGradient-1)" fill-rule="nonzero"></path>
    </g>
</svg>