<?xml version="1.0" encoding="UTF-8"?>
<svg width="71px" height="71px" viewBox="0 0 71 71" version="1.1" xmlns="http://www.w3.org/2000/svg" xmlns:xlink="http://www.w3.org/1999/xlink">
    <!-- Generator: Sketch 53 (72520) - https://sketchapp.com -->
    <title>Towel Rod/Hanger</title>
    <desc>Created with Sketch.</desc>
    <defs>
        <linearGradient x1="5.63673899%" y1="-11.1485635%" x2="51.5179728%" y2="97.7255544%" id="linearGradient-1">
            <stop stop-color="#64C866" offset="0%"></stop>
            <stop stop-color="#6EDADA" offset="100%"></stop>
        </linearGradient>
    </defs>
    <g id="Page-1" stroke="none" stroke-width="1" fill="none" fill-rule="evenodd">
        <path d="M39.0701112,18.8215734 L30.7295525,18.8215734 L30.7295525,55.2467485 C32.0085955,55.0923176 33.2842691,55.0036947 34.5275413,55.0036947 C36.1158966,55.0036947 37.6489335,55.1476561 39.0701112,55.4838104 L39.0701112,18.8215734 Z M45.3270944,18.8215734 L45.3270944,57.8794893 C47.4044999,58.8337798 49.2708015,59.8115574 50.905195,60.6656942 C51.8812844,61.1794206 52.9637425,61.7445197 53.9304464,62.2068735 L53.9304464,18.8215734 L45.3270944,18.8215734 Z M24.4725693,18.8215734 L17.6931279,18.8215734 L17.6931279,58.5704241 C19.5738278,57.8826983 21.9239757,57.1060693 24.4725693,56.4535032 L24.4725693,18.8215734 Z M11.4361447,18.6546038 C5.42854338,17.5831471 0.8121,11.4851686 0.8121,4.14367469 C0.8121,2.11812466 2.21366425,0.4742 3.94059162,0.4742 C5.66751899,0.4742 7.06908324,2.11812466 7.06908324,4.14367469 C7.06908324,7.41880076 8.90657189,10.1989688 11.4361447,11.1407095 L11.4361447,10.1847309 L60.1874296,10.1847309 L60.1874296,11.1409424 C62.7173251,10.1994273 64.5551168,7.41907079 64.5551168,4.14367469 C64.5551168,2.11812466 65.956681,0.4742 67.6836084,0.4742 C69.4105358,0.4742 70.8121,2.11812466 70.8121,4.14367469 C70.8121,11.4854235 66.1953361,17.5835705 60.1874296,18.6547154 L60.1874296,69.817364 L57.618938,70.3641158 C57.2685469,70.4411747 56.9056419,70.4742 56.5396084,70.4742 C54.2839659,70.4742 51.7217313,69.1311723 48.3523458,67.3698244 C45.5586028,65.905704 42.3925693,64.2471015 38.6853067,62.9260906 C32.4564799,60.7133973 19.9706698,65.2085038 15.6783793,67.1276391 L11.4361447,69.021088 L11.4361447,18.6546038 Z" id="Towel-Rod/Hanger" fill="url(#linearGradient-1)" fill-rule="nonzero"></path>
    </g>
</svg>