<?xml version="1.0" encoding="utf-8"?>
<!-- Generator: Adobe Illustrator 16.0.0, SVG Export Plug-In . SVG Version: 6.00 Build 0)  -->
<!DOCTYPE svg PUBLIC "-//W3C//DTD SVG 1.1//EN" "http://www.w3.org/Graphics/SVG/1.1/DTD/svg11.dtd">
<svg version="1.1" id="Layer_1" xmlns="http://www.w3.org/2000/svg" xmlns:xlink="http://www.w3.org/1999/xlink" x="0px" y="0px"
	 width="24px" height="24px" viewBox="0 0 24 24" enable-background="new 0 0 24 24" xml:space="preserve">
<g>
	<g>
		<defs>
			<rect id="SVGID_1_" width="24" height="24"/>
		</defs>
		<clipPath id="SVGID_2_">
			<use xlink:href="#SVGID_1_"  overflow="visible"/>
		</clipPath>
		
			<line clip-path="url(#SVGID_2_)" fill="none" stroke="#98C03D" stroke-width="2" stroke-linecap="round" stroke-linejoin="round" stroke-miterlimit="10" x1="12.584" y1="1.125" x2="19.591" y2="22.973"/>
	</g>
	<g>
		<defs>
			<rect id="SVGID_3_" width="24" height="24"/>
		</defs>
		<clipPath id="SVGID_4_">
			<use xlink:href="#SVGID_3_"  overflow="visible"/>
		</clipPath>
		
			<line clip-path="url(#SVGID_4_)" fill="none" stroke="#98C03D" stroke-width="2" stroke-linecap="round" stroke-linejoin="round" stroke-miterlimit="10" x1="15.835" y1="22.973" x2="22.99" y2="22.973"/>
	</g>
	<g>
		<defs>
			<rect id="SVGID_5_" width="24" height="24"/>
		</defs>
		<clipPath id="SVGID_6_">
			<use xlink:href="#SVGID_5_"  overflow="visible"/>
		</clipPath>
		
			<polygon clip-path="url(#SVGID_6_)" fill="none" stroke="#98C03D" stroke-width="2" stroke-linejoin="round" stroke-miterlimit="10" points="
			13.104,9.069 11.479,22.98 2.967,22.98 1,9.077 		"/>
	</g>
</g>
<polygon fill="#FFFFFF" points="7.873,9.069 1.061,9.069 1.061,17.57 8.564,16.128 8.564,9.069 "/>
<g>
	<g>
		<defs>
			<rect id="SVGID_7_" width="24" height="24"/>
		</defs>
		<clipPath id="SVGID_8_">
			<use xlink:href="#SVGID_7_"  overflow="visible"/>
		</clipPath>
		
			<polygon clip-path="url(#SVGID_8_)" fill="none" stroke="#98C03D" stroke-width="2" stroke-linecap="round" stroke-linejoin="round" stroke-miterlimit="10" points="
			7.873,9.069 1.061,9.069 1.061,17.57 8.564,16.128 8.564,9.069 		"/>
	</g>
	<g>
		<defs>
			<rect id="SVGID_9_" width="24" height="24"/>
		</defs>
		<clipPath id="SVGID_10_">
			<use xlink:href="#SVGID_9_"  overflow="visible"/>
		</clipPath>
		
			<path clip-path="url(#SVGID_10_)" fill="none" stroke="#98C03D" stroke-width="1.75" stroke-linecap="round" stroke-linejoin="round" stroke-miterlimit="10" d="
			M9.624,10.198c0,0,9.05,8.31,2.391,8.922"/>
	</g>
	<g>
		<defs>
			<rect id="SVGID_11_" width="24" height="24"/>
		</defs>
		<clipPath id="SVGID_12_">
			<use xlink:href="#SVGID_11_"  overflow="visible"/>
		</clipPath>
		<path clip-path="url(#SVGID_12_)" fill="#98C03D" d="M3.931,4.752c0,0.292-0.235,0.53-0.525,0.53c-0.289,0-0.523-0.238-0.523-0.53
			c0-0.293,0.234-0.53,0.523-0.53C3.696,4.222,3.931,4.459,3.931,4.752"/>
	</g>
	<g>
		<defs>
			<rect id="SVGID_13_" width="24" height="24"/>
		</defs>
		<clipPath id="SVGID_14_">
			<use xlink:href="#SVGID_13_"  overflow="visible"/>
		</clipPath>
		
			<ellipse clip-path="url(#SVGID_14_)" fill="none" stroke="#98C03D" stroke-linecap="round" stroke-linejoin="round" stroke-miterlimit="10" cx="3.407" cy="4.752" rx="0.524" ry="0.53"/>
	</g>
	<g>
		<defs>
			<rect id="SVGID_15_" width="24" height="24"/>
		</defs>
		<clipPath id="SVGID_16_">
			<use xlink:href="#SVGID_15_"  overflow="visible"/>
		</clipPath>
		<path clip-path="url(#SVGID_16_)" fill="#98C03D" d="M6.701,2.066c0,0.293-0.234,0.53-0.525,0.53c-0.29,0-0.524-0.237-0.524-0.53
			c0-0.292,0.234-0.53,0.524-0.53C6.467,1.537,6.701,1.774,6.701,2.066"/>
	</g>
	<g>
		<defs>
			<rect id="SVGID_17_" width="24" height="24"/>
		</defs>
		<clipPath id="SVGID_18_">
			<use xlink:href="#SVGID_17_"  overflow="visible"/>
		</clipPath>
		
			<ellipse clip-path="url(#SVGID_18_)" fill="none" stroke="#98C03D" stroke-width="2" stroke-linecap="round" stroke-linejoin="round" stroke-miterlimit="10" cx="6.177" cy="2.066" rx="0.524" ry="0.53"/>
	</g>
	<g>
		<defs>
			<rect id="SVGID_19_" width="24" height="24"/>
		</defs>
		<clipPath id="SVGID_20_">
			<use xlink:href="#SVGID_19_"  overflow="visible"/>
		</clipPath>
		<path clip-path="url(#SVGID_20_)" fill="#98C03D" d="M8.667,5.518c0,0.473-0.376,0.854-0.843,0.854
			c-0.463,0-0.843-0.381-0.843-0.854c0-0.471,0.38-0.852,0.843-0.852C8.291,4.666,8.667,5.047,8.667,5.518"/>
	</g>
</g>
</svg>
