<?xml version="1.0" encoding="UTF-8"?>
<svg width="48px" height="70px" viewBox="0 0 48 70" version="1.1" xmlns="http://www.w3.org/2000/svg" xmlns:xlink="http://www.w3.org/1999/xlink">
    <!-- Generator: Sketch 53 (72520) - https://sketchapp.com -->
    <title>Changing the Condenser (Ceiling/ Exhaust/Cooler)</title>
    <desc>Created with Sketch.</desc>
    <defs>
        <linearGradient x1="29.1402136%" y1="-11.1485635%" x2="50.713757%" y2="97.7255544%" id="linearGradient-1">
            <stop stop-color="#64C866" offset="0%"></stop>
            <stop stop-color="#6EDADA" offset="100%"></stop>
        </linearGradient>
    </defs>
    <g id="Page-1" stroke="none" stroke-width="1" fill="none" fill-rule="evenodd">
        <path d="M34.3122472,24.1263431 C34.562177,24.1263431 34.7980264,24.2386613 34.9141909,24.4200985 C35.0373958,24.5986557 35.0268354,24.8204122 34.88955,24.9932096 L22.5127413,40.743684 C22.3860163,40.9049615 22.1677677,41 21.9354385,41 C21.872076,41 21.8051933,40.9913601 21.745351,40.9769604 C21.4531794,40.9078414 21.2490114,40.6860849 21.2490114,40.4384088 L21.2490114,30.8740779 L13.6877528,30.8740779 C13.4343028,30.8740779 13.2019736,30.7617596 13.0858091,30.5832024 C12.9626042,30.4017652 12.9731646,30.1828886 13.11045,30.0072114 L25.4837386,14.2596169 C25.6491851,14.0493802 25.9695178,13.9514617 26.254649,14.0234606 C26.5468206,14.0954595 26.7509886,14.314336 26.7509886,14.5648921 L26.7509886,24.1263431 L34.3122472,24.1263431 Z M33.0767021,54.2295833 L40.543522,54.2295833 L40.543522,44.96625 L34.8003447,40.1129167 L41.1054295,34.7841667 L41.1054295,5.83333333 L6.89457053,5.83333333 L6.89457053,34.7841667 L13.196208,40.1129167 L7.45647802,44.9720833 L7.45647802,54.2295833 L33.0767021,54.2295833 Z M32.5871876,70 C29.0571675,70 26.1821316,67.5675 26.1821316,64.5808333 L26.1821316,60.0629167 L21.5386383,60.0629167 L21.5386383,64.5808333 C21.5386383,67.5675 18.6636024,70 15.1335823,70 C11.6035622,70 8.72852629,67.5675 8.72852629,64.5808333 L8.72852629,60.0629167 L6.9704108,60.0629167 C3.43694341,60.0629167 0.561907498,57.6333333 0.561907498,54.64375 L0.561907498,44.8 C0.561907498,43.3504167 1.23412812,41.9854167 2.44412525,40.9645833 L3.44728526,40.1158333 L1.87532318,38.7858333 C0.686009767,37.7708333 0,36.3766667 0,34.9533333 L0,5.41916667 C0,2.42958333 2.87503591,0 6.4085033,0 L41.594944,0 C45.1249641,0 48,2.42958333 48,5.41916667 L48,34.9533333 C48,36.4058333 47.3346739,37.765 46.1212295,38.78875 L44.556162,40.1129167 L45.5627693,40.9645833 C46.7762137,41.9970833 47.4380925,43.35625 47.4380925,44.8 L47.4380925,54.64375 C47.4380925,57.6333333 44.5630566,60.0629167 41.0330365,60.0629167 L38.9922436,60.0629167 L38.9922436,64.5808333 C38.9922436,67.5675 36.120655,70 32.5871876,70 Z" id="Changing-the-Condenser-(Ceiling/-Exhaust/Cooler)" fill="url(#linearGradient-1)" fill-rule="nonzero"></path>
    </g>
</svg>