<?xml version="1.0" encoding="UTF-8"?>
<svg width="64px" height="70px" viewBox="0 0 64 70" version="1.1" xmlns="http://www.w3.org/2000/svg" xmlns:xlink="http://www.w3.org/1999/xlink">
    <!-- Generator: Sketch 53 (72520) - https://sketchapp.com -->
    <title>RO Fixing</title>
    <desc>Created with Sketch.</desc>
    <defs>
        <linearGradient x1="12.9159353%" y1="-11.1485635%" x2="51.2689013%" y2="97.7255544%" id="linearGradient-1">
            <stop stop-color="#64C866" offset="0%"></stop>
            <stop stop-color="#6EDADA" offset="100%"></stop>
        </linearGradient>
    </defs>
    <g id="Page-1" stroke="none" stroke-width="1" fill="none" fill-rule="evenodd">
        <path d="M32,70 C14.3549765,70 0,58.0393169 0,43.3308305 C0,37.2920872 3.06230154,31.028497 10.9212745,20.9892323 C11.3802694,20.4022945 12.0915362,19.9964022 12.9219315,19.8533178 C13.7523267,19.7102335 14.5967371,19.8474776 15.3009964,20.2387695 C15.9632103,20.5891802 16.4677543,21.1965586 16.6429432,21.8827794 C16.8146283,22.5631601 16.646447,23.2902622 16.1839483,23.8713598 C9.16588197,32.8360319 6.29628819,38.4776432 6.29628819,43.3308305 C6.29628819,55.142589 17.82722,64.7526007 32,64.7526007 C46.17278,64.7526007 57.7037118,55.142589 57.7037118,43.3308305 C57.7037118,35.2217443 44.5540348,18.6706819 31.9929924,5.61204554 C31.7196978,5.88653387 31.4499069,6.15810211 31.1801161,6.42967036 C29.4527538,8.15252265 27.6728348,9.93669681 23.9097777,14.489115 C23.433264,15.0643725 22.7149896,15.4556643 21.8845943,15.5812281 C21.0471915,15.6980317 20.2132925,15.5549474 19.5195445,15.1519751 C18.8468192,14.7752837 18.377313,14.1737454 18.2196431,13.4816844 C18.0654768,12.7954636 18.2546808,12.0742017 18.7311946,11.5018643 C22.6484178,6.75964037 24.5264426,4.88202338 26.3413993,3.06572825 L27.8024745,1.59108348 C29.8591919,-0.528900866 34.1373043,-0.531820955 36.1975255,1.59108348 C44.5575386,10.2170253 64,31.5453527 64,43.3308305 C64,58.0393169 49.6450235,70 32,70 Z M30.2444641,49.6914674 L33.7555359,49.6914674 L33.7555359,44.1142604 C33.7555359,42.6527901 35.1833481,41.4629466 36.9371125,41.4629466 L43.6297609,41.4629466 L43.6297609,38.5370534 L36.9371125,38.5370534 C35.1833481,38.5370534 33.7519929,37.3442575 33.7519929,35.8827871 L33.7519929,30.3085326 L30.2444641,30.3085326 L30.2444641,35.8827871 C30.2444641,37.3442575 28.8166519,38.5370534 27.0593446,38.5370534 L20.3666962,38.5370534 L20.3666962,41.4629466 L27.0628875,41.4629466 C28.8166519,41.4629466 30.2444641,42.6527901 30.2444641,44.1142604 L30.2444641,49.6914674 Z M36.9371125,55 L27.0593446,55 C25.3020372,55 23.8777679,53.8101565 23.8777679,52.3457337 L23.8777679,46.7685267 L17.1815766,46.7685267 C15.4278122,46.7685267 14,45.5757307 14,44.1142604 L14,35.8827871 C14,34.4213168 15.4278122,33.2314733 17.1815766,33.2314733 L23.8777679,33.2314733 L23.8777679,27.6513138 C23.8777679,26.1898435 25.3055802,25 27.0628875,25 L36.9371125,25 C38.6944198,25 40.1222321,26.1898435 40.1222321,27.6513138 L40.1222321,33.2314733 L46.8148804,33.2314733 C48.5721878,33.2314733 50,34.4213168 50,35.8827871 L50,44.1142604 C50,45.5757307 48.5721878,46.7685267 46.8148804,46.7685267 L40.1222321,46.7685267 L40.1222321,52.3457337 C40.1222321,53.8101565 38.6944198,55 36.9371125,55 Z" id="RO-Fixing" fill="url(#linearGradient-1)" fill-rule="nonzero"></path>
    </g>
</svg>