<?xml version="1.0" encoding="UTF-8"?>
<svg width="70px" height="70px" viewBox="0 0 70 70" version="1.1" xmlns="http://www.w3.org/2000/svg" xmlns:xlink="http://www.w3.org/1999/xlink">
    <!-- Generator: Sketch 53 (72520) - https://sketchapp.com -->
    <title>Door Peep Hole  Installation</title>
    <desc>Created with Sketch.</desc>
    <defs>
        <linearGradient x1="5.63673899%" y1="-11.1485635%" x2="51.5179728%" y2="97.7255544%" id="linearGradient-1">
            <stop stop-color="#64C866" offset="0%"></stop>
            <stop stop-color="#6EDADA" offset="100%"></stop>
        </linearGradient>
    </defs>
    <g id="Page-1" stroke="none" stroke-width="1" fill="none" fill-rule="evenodd">
        <path d="M44.8694167,35 C44.8694167,29.5604167 40.4419167,25.13 34.9994167,25.13 C29.5569167,25.13 25.1294167,29.5604167 25.1294167,35 C25.1294167,40.4395833 29.5569167,44.87 34.9994167,44.87 C40.4419167,44.87 44.8694167,40.4395833 44.8694167,35 Z M58.7031667,34.0608333 C59.1815,34.5945833 59.1815,35.4054167 58.7031667,35.9391667 C58.2744167,36.4175 47.9406667,47.6904167 34.9994167,47.6904167 C22.0581667,47.6904167 11.7273333,36.4175 11.2956667,35.9391667 C10.8173333,35.4054167 10.8173333,34.5945833 11.2956667,34.0608333 C11.7273333,33.5825 22.0581667,22.3095833 34.9994167,22.3095833 C47.9406667,22.3095833 58.2744167,33.5825 58.7031667,34.0608333 Z M36.4099167,32.1801667 C36.4099167,34.9539167 39.0903333,37.1005833 41.9311667,36.1876667 C41.3595,39.50975 38.48075,42.0501667 35.0011667,42.0501667 C31.11325,42.0501667 27.9515833,38.8885 27.9515833,35.0005833 C27.9515833,31.1126667 31.11325,27.951 35.0011667,27.951 C36.15325,27.951 37.2236667,28.2543333 38.1861667,28.74725 C37.1128333,29.5143333 36.4099167,30.7626667 36.4099167,32.1801667 Z M35,0 C54.32875,0 70,15.67125 70,35 C70,54.32875 54.32875,70 35,70 C15.67125,70 0,54.32875 0,35 C0,15.67125 15.67125,0 35,0 Z M35,5.83333333 C18.9175,5.83333333 5.83333333,18.9175 5.83333333,35 C5.83333333,51.0825 18.9175,64.1666667 35,64.1666667 C51.0825,64.1666667 64.1666667,51.0825 64.1666667,35 C64.1666667,18.9175 51.0825,5.83333333 35,5.83333333 Z" id="Door-Peep-Hole--Installation" fill="url(#linearGradient-1)" fill-rule="nonzero"></path>
    </g>
</svg>