<?xml version="1.0" encoding="UTF-8"?>
<svg width="70px" height="70px" viewBox="0 0 70 70" version="1.1" xmlns="http://www.w3.org/2000/svg" xmlns:xlink="http://www.w3.org/1999/xlink">
    <!-- Generator: Sketch 53 (72520) - https://sketchapp.com -->
    <title>Door Chain  Installation</title>
    <desc>Created with Sketch.</desc>
    <defs>
        <linearGradient x1="5.63673899%" y1="-11.1485635%" x2="51.5179728%" y2="97.7255544%" id="linearGradient-1">
            <stop stop-color="#64C866" offset="0%"></stop>
            <stop stop-color="#6EDADA" offset="100%"></stop>
        </linearGradient>
    </defs>
    <g id="Page-1" stroke="none" stroke-width="1" fill="none" fill-rule="evenodd">
        <path d="M32.7459805,24.6611373 L25.278118,24.7970241 L25.278118,59.7917092 L-4.26325641e-14,70 L-4.26325641e-14,0.000291665452 L25.278118,0.000291665452 L25.278118,6.03668403 L40.3522412,5.76243432 L40.4922377,5.76243432 C44.1063742,5.76243432 47.1756038,8.22824222 48.0649293,11.587369 L59.0333158,11.3877859 C59.6217704,11.3869663 60.2010127,11.4451057 60.7631476,11.5613627 L60.7631476,7.10542736e-15 L70,7.10542736e-15 L70,69.9997083 L60.7631476,69.9997083 L60.7631476,29.9911009 C60.3101349,30.0805248 59.8459022,30.1304116 59.3745573,30.1389578 L40.4633634,30.4860396 L40.3204503,30.4860396 C36.7063254,30.4860396 33.637104,28.0202476 32.7459805,24.6611373 Z M39.603681,24.5363531 C39.8379707,24.625647 40.0921586,24.6683019 40.3554494,24.6527306 L59.2666433,24.3056487 C59.8032966,24.2968988 60.2991175,24.0810663 60.6695249,23.6960679 C60.7020687,23.6622422 60.7332842,23.6274933 60.7631476,23.5918827 L60.7631476,18.0034004 C60.7022811,17.9241043 60.6350213,17.8488071 60.561611,17.7781759 C60.188287,17.4165108 59.6982992,17.2210949 59.1791455,17.2210949 L59.1412298,17.2210949 L48.3493618,17.4174358 C48.1865622,19.1826122 47.4360275,20.8262267 46.1883453,22.1190328 C44.7358816,23.6269432 42.7846804,24.4786063 40.6934827,24.5165228 L39.603681,24.5363531 Z M32.4633255,18.8310382 C32.6261235,17.0658089 33.3766586,15.421838 34.6243427,14.1265245 C36.0768064,12.6215307 38.0280076,11.7698676 40.1192054,11.7319511 L41.074612,11.7145663 C40.8813538,11.6516583 40.6742627,11.6112059 40.4572386,11.5957434 L25.278118,11.8719459 L25.278118,18.9617616 L32.4633255,18.8310382 Z M38.4481767,18.7221533 L40.5884853,18.6832138 C41.1222219,18.6744639 41.6180429,18.4586314 41.9884503,18.073633 C42.1464413,17.9107014 42.2725685,17.7258301 42.3648422,17.5263146 L40.2242027,17.5652601 C39.6904661,17.5740101 39.1917285,17.7898425 38.8242377,18.1748409 C38.6674825,18.337771 38.5410236,18.5226401 38.4481767,18.7221533 Z" id="Door-Chain--Installation" fill="url(#linearGradient-1)" fill-rule="nonzero"></path>
    </g>
</svg>