<?xml version="1.0" encoding="UTF-8"?>
<svg width="71px" height="70px" viewBox="0 0 71 70" version="1.1" xmlns="http://www.w3.org/2000/svg" xmlns:xlink="http://www.w3.org/1999/xlink">
    <!-- Generator: Sketch 53 (72520) - https://sketchapp.com -->
    <title>Window AC Installation with wooden frame</title>
    <desc>Created with Sketch.</desc>
    <defs>
        <linearGradient x1="5.63673899%" y1="-11.1485635%" x2="51.5179728%" y2="97.7255544%" id="linearGradient-1">
            <stop stop-color="#64C866" offset="0%"></stop>
            <stop stop-color="#6EDADA" offset="100%"></stop>
        </linearGradient>
    </defs>
    <g id="Page-1" stroke="none" stroke-width="1" fill="none" fill-rule="evenodd">
        <path d="M64.2079097,51.9485465 L44.0825816,51.9485465 L44.0825816,64.1575581 L38.2494913,64.1575581 L38.2494913,59.7877907 L5.87700683,59.7877907 L5.87700683,64.1860465 L64.2079097,64.1860465 L64.2079097,51.9485465 Z M64.2079097,46.134593 L64.2079097,5.81395349 L44.0825816,5.81395349 L44.0825816,22.3549419 C42.36182,21.1921512 40.3785693,20.3781977 38.2494913,20.0584302 L38.2494913,16.0261628 L5.87700683,16.0261628 L5.87700683,20.8729651 L28.8576326,20.8729651 C26.9035474,21.6287791 25.1827858,22.7625 23.7245132,24.2159884 C22.9662114,24.9718023 22.2954061,25.7857558 21.7412625,26.6869186 L5.87700683,26.6869186 L5.87700683,31.8906977 L19.6124762,31.8906977 C19.3791526,32.85 19.2916562,33.8674419 19.2916562,34.8848837 C19.2916562,35.844186 19.3791526,36.8034884 19.5833107,37.7046512 L5.87700683,37.7046512 L5.87700683,43.1694767 L21.799885,43.1694767 C23.5206467,45.8148256 26.0872064,47.8787791 29.0912479,48.9834302 L5.87700683,48.9834302 L5.87700683,53.9738372 L38.2494913,53.9738372 L38.2494913,49.7098837 C39.2119512,49.5936047 40.1160802,49.3319767 40.9910437,48.9831395 C41.0493747,48.9831395 41.1077056,48.9540698 41.1660365,48.925 C42.2159927,48.547093 43.1784526,48.0238372 44.0825816,47.4133721 C44.6658906,47.0357558 45.2200342,46.5997093 45.7158469,46.134593 L64.2079097,46.134593 Z M38.2494913,5.81395349 L5.87700683,5.81395349 L5.87700683,10.2122093 L38.2494913,10.2122093 L38.2494913,5.81395349 Z M0.041,59.7877907 L0.041,53.9738372 L0.0439165451,48.9834302 L0.0424582726,43.1694767 L0.0439165451,37.7046512 L0.0424582726,31.8906977 L0.0439165451,26.6869186 L0.0421666181,20.8729651 L0.0439165451,16.0261628 L0.041,10.2122093 L0.0439165451,1.42108547e-14 L70.041,1.42108547e-14 L70.041,70 L0.0439165451,70 L0.0439165451,59.7877907 Z M46.8923812,61.7703488 L46.8923812,54.622093 L52.0342503,54.622093 L52.0342503,61.7703488 L46.8923812,61.7703488 Z M56.0065848,61.7703488 L56.0065848,54.622093 L61.1484539,54.622093 L61.1484539,61.7703488 L56.0065848,61.7703488 Z M47.2610325,34.8843023 C47.2610325,36.0761628 46.2694071,37.0645349 45.0736236,37.0645349 L40.3196551,37.0645349 L43.673682,40.4075581 C43.8486747,40.5819767 43.9945019,40.7854651 44.0819983,41.0180233 C44.3736528,41.5994186 44.3736528,42.297093 44.0819983,42.8784884 C43.9945019,43.1110465 43.8486747,43.3145349 43.673682,43.4889535 C43.2362002,43.925 42.6820566,44.1284884 42.127913,44.1284884 C41.8070931,44.1284884 41.4571077,44.0703488 41.1654531,43.8959302 C40.961295,43.8087209 40.7571368,43.6633721 40.5821441,43.4889535 L37.2281172,40.1459302 L37.2281172,44.8843023 C37.2281172,46.0761628 36.2364919,47.0645349 35.0407083,47.0645349 C33.8449248,47.0645349 32.8532995,46.0761628 32.8532995,44.8843023 L32.8532995,40.1459302 L29.8200925,43.169186 L29.4992726,43.4889535 C29.0617908,43.925 28.5076472,44.1284884 27.9535036,44.1284884 C27.3993601,44.1284884 26.8452165,43.925 26.4077347,43.4889535 C26.3202384,43.4017442 26.232742,43.2854651 26.1744111,43.169186 C25.5619366,42.3261628 25.649433,41.1633721 26.4077347,40.4075581 L29.1201217,37.7040698 L29.7617616,37.0645349 L25.0077931,37.0645349 C23.8120095,37.0645349 22.8203842,36.0761628 22.8203842,34.8843023 C22.8203842,33.6633721 23.8120095,32.7040698 25.0077931,32.7040698 L29.7617616,32.7040698 L26.4077347,29.3610465 C25.6785984,28.6343023 25.5911021,27.5296512 26.1160802,26.6866279 C26.1744111,26.5412791 26.2910729,26.3959302 26.4077347,26.2796512 C27.2535328,25.4075581 28.6534745,25.4075581 29.4992726,26.2796512 L29.9075889,26.6866279 L32.8532995,29.6226744 L32.8532995,24.8843023 C32.8532995,23.6924419 33.8449248,22.7040698 35.0407083,22.7040698 C36.2364919,22.7040698 37.2281172,23.6924419 37.2281172,24.8843023 L37.2281172,29.6226744 L38.248908,28.6052326 L40.5821441,26.2796512 C40.7571368,26.1052326 40.961295,25.9598837 41.1654531,25.8726744 C41.9820858,25.4366279 43.0028766,25.5819767 43.673682,26.2796512 C43.8486747,26.4540698 43.9945019,26.6575581 44.0819983,26.8901163 C44.3736528,27.4715116 44.3736528,28.169186 44.0819983,28.7505814 C43.9945019,28.9831395 43.8486747,29.1866279 43.673682,29.3610465 L41.1654531,31.8901163 L41.1362877,31.8901163 L40.3196551,32.7040698 L45.0736236,32.7040698 C46.2694071,32.7040698 47.2610325,33.6633721 47.2610325,34.8843023 Z" id="Window-AC-Installation-with-wooden-frame" fill="url(#linearGradient-1)" fill-rule="nonzero"></path>
    </g>
</svg>