<?xml version="1.0" encoding="UTF-8"?>
<svg width="71px" height="71px" viewBox="0 0 71 71" version="1.1" xmlns="http://www.w3.org/2000/svg" xmlns:xlink="http://www.w3.org/1999/xlink">
    <!-- Generator: Sketch 53 (72520) - https://sketchapp.com -->
    <title>Face Mirror (50-100 cm) </title>
    <desc>Created with Sketch.</desc>
    <defs>
        <linearGradient x1="5.63673899%" y1="-11.1485635%" x2="51.5179728%" y2="97.7255544%" id="linearGradient-1">
            <stop stop-color="#64C866" offset="0%"></stop>
            <stop stop-color="#6EDADA" offset="100%"></stop>
        </linearGradient>
    </defs>
    <g id="Page-1" stroke="none" stroke-width="1" fill="none" fill-rule="evenodd">
        <path d="M28.6436282,5.87447695 C17.2547961,5.87447695 7.63193279,19.2235592 7.63193279,35.0194366 C7.63193279,50.8182408 17.2547961,64.167323 28.6436282,64.167323 C40.0324602,64.167323 49.6553235,50.8182408 49.6553235,35.0194366 C49.6553235,19.2235592 40.0324602,5.87447695 28.6436282,5.87447695 Z M28.6436282,70.0209 C13.3829931,70.0209 0.9679,54.3186798 0.9679,35.0194366 C0.9679,15.7231202 13.3829931,0.0209 28.6436282,0.0209 C43.9042632,0.0209 56.3193563,15.7231202 56.3193563,35.0194366 C56.3193563,54.3186798 43.9042632,70.0209 28.6436282,70.0209 Z M19.060749,52.0100291 C18.437662,52.0100291 17.8045788,51.8578361 17.2448001,51.5329625 C15.7020765,50.6519992 15.2655823,48.8403172 16.2718513,47.4852141 L35.4309456,21.6797201 C36.4405465,20.3216902 38.5030647,19.9382809 40.0424562,20.8280246 C41.5851798,21.708988 42.021674,23.5235968 41.015405,24.8757731 L21.8563108,50.6812671 C21.2132316,51.5417429 20.1503184,52.0100291 19.060749,52.0100291 Z M26.7173895,56.5087956 C26.0843064,56.5087956 25.4412272,56.3507491 24.8714524,56.0170952 C23.3387249,55.1214979 22.9255548,53.3039623 23.9484839,51.9576396 L31.6121216,41.8602193 C32.6283866,40.5138966 34.6942367,40.1480481 36.2302963,41.0494989 C37.7630238,41.9450962 38.1761939,43.7626318 37.1565968,45.1060277 L29.4929591,55.2063748 C28.853212,56.0522166 27.7936308,56.5087956 26.7173895,56.5087956 Z M22.8842378,31.8254323 C22.2511547,31.8254323 21.6047435,31.6673858 21.0383007,31.3337319 C19.5055732,30.4352078 19.0924032,28.620599 20.1153322,27.2742763 L27.7823019,17.176856 C28.7985669,15.8334601 30.8710811,15.4646848 32.4004766,16.3661356 C33.9332042,17.2617329 34.3463742,19.0792685 33.3267772,20.4226644 L25.6598075,30.5230115 C25.0200603,31.3688533 23.9604791,31.8254323 22.8842378,31.8254323 Z M53.0836352,9.20282081 C53.0836352,8.58526844 53.656742,8.08186082 54.3631295,8.08186082 C56.4789599,8.08186082 58.1949484,6.57456476 58.1949484,4.71605407 C58.1949484,4.09557492 58.7647232,3.5921673 59.4711106,3.5921673 C60.1774981,3.5921673 60.7506049,4.09557492 60.7506049,4.71605407 C60.7506049,6.57456476 62.4632614,8.08186082 64.5790918,8.08186082 C65.2854792,8.08186082 65.8585861,8.58526844 65.8585861,9.20282081 C65.8585861,9.82329997 65.2854792,10.3237808 64.5790918,10.3237808 C62.4632614,10.3237808 60.7506049,11.8310769 60.7506049,13.6895875 C60.7506049,14.3100667 60.1774981,14.8134743 59.4711106,14.8134743 C58.7647232,14.8134743 58.1949484,14.3100667 58.1949484,13.6895875 C58.1949484,11.8310769 56.4789599,10.3237808 54.3631295,10.3237808 C53.656742,10.3237808 53.0836352,9.82329997 53.0836352,9.20282081 Z M69.6884057,21.5445025 C70.3947932,21.5445025 70.9679,22.0449833 70.9679,22.6654624 C70.9679,23.2859416 70.3947932,23.7893492 69.6884057,23.7893492 C67.925769,23.7893492 66.496334,25.0449415 66.496334,26.5932126 C66.496334,27.2136917 65.9232272,27.7141726 65.2168397,27.7141726 C64.5137842,27.7141726 63.9406774,27.2136917 63.9406774,26.5932126 C63.9406774,25.0449415 62.5145744,23.7893492 60.7486057,23.7893492 C60.0422182,23.7893492 59.4724434,23.2859416 59.4724434,22.6654624 C59.4724434,22.0449833 60.0422182,21.5445025 60.7486057,21.5445025 C62.5145744,21.5445025 63.9406774,20.2889102 63.9406774,18.7406391 C63.9406774,18.1201599 64.5137842,17.6167523 65.2168397,17.6167523 C65.9232272,17.6167523 66.496334,18.1201599 66.496334,18.7406391 C66.496334,20.2889102 67.925769,21.5445025 69.6884057,21.5445025 Z" id="Face-Mirror-(50-100-cm)-" fill="url(#linearGradient-1)" fill-rule="nonzero"></path>
    </g>
</svg>