<?xml version="1.0" encoding="UTF-8"?>
<svg width="70px" height="70px" viewBox="0 0 70 70" version="1.1" xmlns="http://www.w3.org/2000/svg" xmlns:xlink="http://www.w3.org/1999/xlink">
    <!-- Generator: Sketch 53 (72520) - https://sketchapp.com -->
    <title>Tower Bolt  Installation</title>
    <desc>Created with Sketch.</desc>
    <defs>
        <linearGradient x1="5.63673899%" y1="-11.1485635%" x2="51.5179728%" y2="97.7255544%" id="linearGradient-1">
            <stop stop-color="#64C866" offset="0%"></stop>
            <stop stop-color="#6EDADA" offset="100%"></stop>
        </linearGradient>
    </defs>
    <g id="Page-1" stroke="none" stroke-width="1" fill="none" fill-rule="evenodd">
        <path d="M33.3707398,64.0486524 L64.1812136,64.0486524 L64.1812136,22.6189003 L35.2036575,22.6189003 L35.2036575,33.5796137 L33.3707398,33.5796137 L33.3707398,39.1908011 L35.2036575,39.1908011 L35.2036575,52.3619735 L37.0365752,52.3619735 C37.0365752,52.3619735 38.40399,52.216606 38.8113051,51.1990331 L38.8113051,49.8907251 L42.680798,49.8907251 L42.680798,53.4958404 L42.680798,56.8680769 L38.8113051,56.8680769 L38.8113051,55.5306954 C38.40399,54.5131225 37.0365752,54.3968285 37.0365752,54.3968285 L35.2036575,54.3968285 L35.2036575,62.0716537 L33.3707398,62.0716537 L33.3707398,64.0486524 Z M35.2036575,69.8633545 L35.2036575,70 L27.7527016,70 L27.7527016,69.8633545 L-2.84217094e-14,69.8633545 L-2.84217094e-14,16.8041982 L27.755611,16.8041982 L27.755611,10.2335849 L29.5885287,10.2335849 L29.5885287,5.81441132 L33.3707398,5.81441132 L33.3707398,10.2335849 L35.2036575,10.2335849 L35.2036575,16.8041982 L70,16.8041982 L70,69.8633545 L35.2036575,69.8633545 Z M29.5885287,64.0486524 L29.5885287,62.0716537 L27.755611,62.0716537 L27.755611,39.1908011 L29.5885287,39.1908011 L29.5885287,33.5796137 L27.755611,33.5796137 L27.755611,22.6189003 L5.81878637,22.6189003 L5.81878637,64.0486524 L29.5885287,64.0486524 Z M69.9706151,0 L69.9706151,5.81470206 L35.2033666,5.81470206 L35.2033666,2.20958678 L27.75532,2.20958678 L27.75532,5.81470206 L0.14517872,5.81470206 L0.14517872,0 L69.9706151,0 Z" id="Tower-Bolt--Installation" fill="url(#linearGradient-1)" fill-rule="nonzero"></path>
    </g>
</svg>