<?xml version="1.0" encoding="UTF-8"?>
<svg width="71px" height="50px" viewBox="0 0 71 50" version="1.1" xmlns="http://www.w3.org/2000/svg" xmlns:xlink="http://www.w3.org/1999/xlink">
    <!-- Generator: Sketch 53 (72520) - https://sketchapp.com -->
    <title>AC Servicing - Split</title>
    <desc>Created with Sketch.</desc>
    <defs>
        <linearGradient x1="5.63673899%" y1="-11.1485635%" x2="51.5179728%" y2="97.7255544%" id="linearGradient-1">
            <stop stop-color="#64C866" offset="0%"></stop>
            <stop stop-color="#6EDADA" offset="100%"></stop>
        </linearGradient>
    </defs>
    <g id="Page-1" stroke="none" stroke-width="1" fill="none" fill-rule="evenodd">
        <path d="M44.3232141,43.0161244 C44.3426856,43.1814499 44.3524035,43.3487602 44.3524066,43.516073 C44.3522751,44.2973744 44.1403018,45.0786602 43.7204401,45.6580648 L40.9169357,49.5268708 L29.2076324,49.5276768 L26.4029599,45.6572588 C25.9869614,45.0831853 25.7750433,44.3109288 25.7748963,43.5368334 C25.774904,43.4963553 25.7754907,43.4558725 25.7766577,43.4154132 C25.7967241,42.7087339 25.9938195,42.0090869 26.3737567,41.4660523 C26.3737567,41.4257522 26.3737567,41.4257522 26.4029599,41.3854521 C27.279055,40.2167503 28.651604,40.2167503 29.498496,41.3854521 L32.8562766,46.0191533 L32.8562766,39.4514521 C32.8562766,37.7991495 33.8491844,36.4289474 35.0465144,36.4289474 C36.2730475,36.4289474 37.2367521,37.7991495 37.2367521,39.4514521 L37.2367521,41.4676643 L37.2373362,46.0207653 L40.5372945,41.4668583 L40.5957008,41.3862581 C41.471796,40.2175563 42.844345,40.2175563 43.7204401,41.3862581 C43.7496433,41.4265582 43.7496433,41.4265582 43.7788464,41.4668583 C44.0757637,41.9069522 44.2567308,42.4499098 44.3233071,43.0161091 Z M5.90233413,21.1669106 L5.90233413,25.3069361 L64.2210659,25.3069361 L64.2210659,8.26041255 L5.90233413,8.26041255 L5.90233413,13.1068981 L16.6064643,13.1068981 C18.2184793,13.1068981 19.5267814,14.9123409 19.5267814,17.1369044 C19.5267814,19.3614678 18.2184793,21.1669106 16.6064643,21.1669106 L5.90233413,21.1669106 Z M5.90233413,33.3669486 L5.90233413,41.4676643 L21.9932811,41.4676643 C20.7959511,43.845368 19.9490592,46.5454722 19.569418,49.5276768 L2.98201706,49.5276768 C1.37584268,49.5276768 0.0617,47.714174 0.0617,45.4976705 L0.0617,4.23040628 C0.0617,2.01390282 1.37584268,0.2004 2.98201706,0.2004 L67.1413829,0.2004 C68.7475573,0.2004 70.0617,2.01390282 70.0617,4.23040628 L70.0617,45.4976705 C70.0617,47.714174 68.7475573,49.5276768 67.1413829,49.5276768 L50.553982,49.5276768 C50.1743408,46.5454722 49.3274489,43.845368 48.1301189,41.4676643 L64.2210659,41.4676643 L64.2210659,33.3669486 L40.2452628,33.3669486 C38.8143074,32.7221476 37.2665394,32.3997471 35.660365,32.3997471 L34.463035,32.3997471 C32.8568606,32.3997471 31.3090926,32.7624477 29.848934,33.3669486 L5.90233413,33.3669486 Z M26.1944493,21.1669106 L24.0246537,21.1669106 C22.4126387,21.1669106 21.1043366,19.3614678 21.1043366,17.1369044 C21.1043366,14.9123409 22.4126387,13.1068981 24.0246537,13.1068981 L26.1944493,13.1068981 C27.8064643,13.1068981 29.1147663,14.9123409 29.1147663,17.1369044 C29.1147663,19.3614678 27.8064643,21.1669106 26.1944493,21.1669106 Z" id="AC-Servicing---Split" fill="url(#linearGradient-1)" fill-rule="nonzero"></path>
    </g>
</svg>