<?xml version="1.0" encoding="UTF-8"?>
<svg width="71px" height="71px" viewBox="0 0 71 71" version="1.1" xmlns="http://www.w3.org/2000/svg" xmlns:xlink="http://www.w3.org/1999/xlink">
    <!-- Generator: Sketch 53 (72520) - https://sketchapp.com -->
    <title>Ceiling Fan</title>
    <desc>Created with Sketch.</desc>
    <defs>
        <linearGradient x1="5.63673899%" y1="-11.1485635%" x2="51.5179728%" y2="97.7255544%" id="linearGradient-1">
            <stop stop-color="#64C866" offset="0%"></stop>
            <stop stop-color="#6EDADA" offset="100%"></stop>
        </linearGradient>
    </defs>
    <g id="Page-1" stroke="none" stroke-width="1" fill="none" fill-rule="evenodd">
        <path d="M36.9760722,52.1791235 C36.4900155,52.283546 35.9900716,52.3377716 35.4812734,52.3393906 L35.4782987,52.3393906 L35.4604505,52.3393906 C35.1466068,52.3393906 34.8363504,52.3197101 34.5308527,52.2808747 L34.5725003,52.3987002 L33.3736931,53.9467801 C33.2963507,54.0473048 33.2249577,54.1645836 33.1535647,54.2785116 C32.7490045,54.9151678 32.1362148,55.8701523 31.0772189,56.4699495 C24.6994458,60.0720837 18.3008498,63.6172539 11.8992791,67.1657749 L9.40944882,68.5429629 C8.65387309,68.9618157 7.88044912,69.1662159 7.13379752,69.1662159 C5.51555659,69.1662159 4.01332926,68.2179331 3.04357459,66.4621021 C2.32667006,65.1586322 1.65438615,63.8283557 0.996975771,62.4880267 C-0.430883869,59.5694603 0.318742442,56.4934052 2.86509213,54.8380989 L23.5184869,41.4214057 C25.2319185,40.3055818 26.6538287,40.4027556 27.546241,40.6808739 C27.7537188,40.7446132 27.9550674,40.8235924 28.1501801,40.9176912 C28.4644643,39.8115767 28.970379,38.7901139 29.6482845,37.9079329 C29.4360176,37.7319343 29.2303535,37.5283638 29.0365695,37.2928573 C27.6503557,35.6073936 27.769344,33.4059032 27.8050405,32.6854764 C28.0757389,27.4849999 28.3821338,22.2845234 28.6885287,17.0873977 L29.1287854,9.85632274 C29.2120772,8.59641349 29.295369,7.33315341 29.3637873,6.07324415 C29.5273962,2.78608729 31.5501974,0.638210073 34.5100314,0.601351026 C35.5125079,0.594649381 36.5090349,0.591298559 37.5085367,0.601351026 C41.2715417,0.631508428 43.1902281,2.77603482 43.2110511,6.96791376 C43.2259246,9.96354906 43.2229499,12.9558335 43.2199752,15.9514689 L43.2170005,19.6809343 L43.2199752,23.3567866 C43.2199752,26.4328416 43.2229499,29.5055458 43.2110511,32.57825 C43.2024056,35.0946915 42.55756,36.8639256 41.2566514,37.9089846 C41.923497,38.7601586 42.446045,39.758304 42.7801638,40.8539299 C43.0468203,40.71938 43.3236265,40.616249 43.6102568,40.5448305 C45.5646397,40.0489088 47.159083,41.2451524 47.6826315,41.6371987 C54.2537606,46.5528552 60.8100161,51.4886168 67.3454487,56.467939 C70.8347807,59.128492 70.5849052,61.5142777 69.7638859,63.0489544 L68.8030554,64.7143131 C67.9284913,66.2422882 67.1044973,67.6864927 66.110945,69.097189 C65.3285969,70.2130128 64.1595368,70.5950066 63.0410468,70.5950066 C61.9969244,70.5950066 60.9974227,70.2599244 60.3965317,69.8779306 C54.1793929,65.9038551 48.0009252,61.8761665 41.8224576,57.845127 L39.6092751,56.4009225 C38.0455173,55.3830044 37.1404447,53.8637566 36.9760722,52.1791235 Z M43.3008873,51.0630623 L44.8031146,52.0448533 C50.6632885,55.8681418 56.5234625,59.6880794 62.4133835,63.4611055 C62.7733231,62.8713608 63.130288,62.2581603 63.4932023,61.6248548 C57.3563806,56.9538083 51.1957612,52.3162699 45.0262177,47.6954857 C44.4580485,48.7576964 43.9701965,49.7361366 43.4793697,50.7145768 L43.3008873,51.0630623 Z M6.63702135,60.122346 C6.96423918,60.7791072 7.29443173,61.4258159 7.63057368,62.0624722 L9.27261227,61.1510485 C15.3767122,57.7667178 21.4808122,54.3857379 27.5670639,50.9544957 C27.2666184,50.3580493 26.9602236,49.7683045 26.6538287,49.1718581 C26.3920544,48.6625331 26.1273054,48.1498572 25.8685059,47.6371814 L6.63702135,60.122346 Z M33.781228,32.3503941 C34.768831,32.3604466 35.7534592,32.3570958 36.7410621,32.3503941 L37.2616359,32.3470433 C37.2735348,29.351408 37.27056,26.3557727 37.27056,23.3634882 L37.2675853,19.6809343 L37.27056,15.9447672 C37.2735348,13.0630599 37.2765095,10.1813525 37.2616359,7.29964518 C36.5923267,7.29629436 35.9259922,7.29629436 35.256683,7.29964518 C35.1942142,8.34175098 35.1257959,9.35034855 35.0603523,10.3589461 L34.6230703,17.5330571 C34.3345237,22.4688186 34.0430023,27.4079309 33.781228,32.3503941 Z M35.4545011,41.6502669 C34.8327872,41.6502669 34.4401258,41.9518409 34.2199974,42.2031526 C33.9939196,42.4611659 33.7232213,42.9269302 33.7232213,43.6741636 C33.7232213,44.2672592 33.8868302,44.763181 34.1932251,45.1116665 C34.5025946,45.4568012 34.9398767,45.6377456 35.4604505,45.6377456 L35.4634252,45.6377456 C36.126785,45.6343948 36.5372946,45.3261191 36.7663471,45.064755 C36.9894502,44.8134433 37.2512244,44.3711347 37.2482497,43.6741636 C37.2423003,42.5382348 36.4540028,41.6502669 35.4545011,41.6502669 Z" id="Ceiling-Fan" fill="url(#linearGradient-1)" fill-rule="nonzero"></path>
    </g>
</svg>