<?xml version="1.0" encoding="UTF-8"?>
<svg width="71px" height="71px" viewBox="0 0 71 71" version="1.1" xmlns="http://www.w3.org/2000/svg" xmlns:xlink="http://www.w3.org/1999/xlink">
    <!-- Generator: Sketch 53 (72520) - https://sketchapp.com -->
    <title>Floor Mount WC  </title>
    <desc>Created with Sketch.</desc>
    <defs>
        <linearGradient x1="5.63673899%" y1="-11.1485635%" x2="51.5179728%" y2="97.7255544%" id="linearGradient-1">
            <stop stop-color="#64C866" offset="0%"></stop>
            <stop stop-color="#6EDADA" offset="100%"></stop>
        </linearGradient>
    </defs>
    <g id="Page-1" stroke="none" stroke-width="1" fill="none" fill-rule="evenodd">
        <path d="M56.4603888,25.3267743 L57.606835,25.3267743 C58.7124692,25.3211751 59.6288841,24.6296825 59.6288841,23.7842138 L59.6288841,8.96891476 L43.8680318,8.96891476 C51.2735546,11.3905387 56.4603888,16.9476756 56.4603888,23.3978738 L56.4603888,25.3267743 Z M11.5041159,8.96891476 L11.5041159,23.7842138 C11.5041159,24.6296825 12.4168207,25.3211751 13.5372956,25.3267743 L14.668901,25.3267743 L14.668901,23.3978738 C14.668901,16.9476756 19.8594454,11.3905387 27.261258,8.96891476 L11.5041159,8.96891476 Z M22.6086901,32.7764173 L48.5205998,32.7764173 L48.5205998,23.3978738 C48.5205998,18.0311073 42.7104551,13.6637856 35.5646449,13.6637856 C28.4188348,13.6637856 22.6086901,18.0311073 22.6086901,23.3978738 L22.6086901,32.7764173 Z M18.1416312,39.5653629 C20.0004323,45.6152233 27.157373,50.002142 35.5646449,50.0049416 C43.975627,50.002142 51.1288576,45.6152233 52.9876586,39.5653629 L18.1416312,39.5653629 Z M32.6373115,61.122015 L38.4919783,61.122015 C38.1803231,59.125925 38.2137147,56.6511094 38.4956885,54.7809998 C36.5589736,54.9545729 34.5777366,54.9545729 32.6298911,54.7809998 C32.9155751,56.6483098 32.9489667,59.125925 32.6373115,61.122015 L32.6373115,61.122015 Z M20.3714504,70.0386302 C19.5403697,70.0386302 18.709289,69.7810702 18.1045294,69.3359394 C17.4923494,68.8852094 17.1361719,68.2497081 17.1361719,67.5918102 L17.1361719,63.5996302 C17.1287516,62.2502398 18.586853,61.1360129 20.382581,61.122015 L26.014637,61.122015 C26.4190468,59.2351081 26.4338875,56.2423729 25.9812453,54.5234398 L25.6658799,53.3364242 C18.015485,50.7720225 12.6802436,45.4976416 11.4224919,39.2658094 C9.07765705,38.5967134 7.48969924,36.8441855 7.62697596,34.8704921 C7.79022396,32.5020599 10.3762207,30.6487477 13.5187447,30.6487477 L13.5298752,30.6487477 L14.668901,30.6487477 L14.668901,30.254009 L13.526165,30.254009 C8.81052396,30.2400112 4.97419598,27.3396617 4.9704858,23.7842138 L4.9704858,8.78134389 C2.34367708,8.22982954 0.5665,6.52489433 0.5665,4.50920738 C0.5665,2.05118912 3.2155698,0.0495 6.47310942,0.0495 L64.6561804,0.0495 C67.91372,0.0495 70.5665,2.05118912 70.5665,4.50920738 C70.5665,6.5752865 68.6928582,8.31941563 66.158804,8.82333736 L66.158804,23.7842138 C66.1550938,27.3396617 62.3187659,30.2400112 57.6142553,30.254009 L56.4603888,30.254009 L56.4603888,30.6487477 L57.606835,30.6487477 L57.6253859,30.6487477 C60.7530691,30.6487477 63.3390659,32.4964608 63.506024,34.8620934 C63.6470109,36.841386 62.055343,38.5911142 59.7067979,39.2602103 C58.4490462,45.494842 53.117515,50.7664233 45.4671201,53.3280255 L45.1480445,54.5234398 C44.6954023,56.2395733 44.710243,59.2351081 45.1146529,61.122015 L50.7281579,61.122015 C52.5424368,61.1360129 54.0005383,62.2502398 53.9931179,63.6052294 L53.9931179,67.5918102 C53.9931179,68.2525076 53.648071,68.868412 53.0247605,69.3331398 C52.4125805,69.7866694 51.5926303,70.1142185 50.709607,70.0386302 L20.4011319,70.0386302 L20.3714504,70.0386302 Z" id="Floor-Mount-WC--" fill="url(#linearGradient-1)" fill-rule="nonzero"></path>
    </g>
</svg>