<?xml version="1.0" encoding="utf-8"?>
<!-- Generator: Adobe Illustrator 16.0.0, SVG Export Plug-In . SVG Version: 6.00 Build 0)  -->
<!DOCTYPE svg PUBLIC "-//W3C//DTD SVG 1.1//EN" "http://www.w3.org/Graphics/SVG/1.1/DTD/svg11.dtd">
<svg version="1.1" id="Layer_1" xmlns="http://www.w3.org/2000/svg" xmlns:xlink="http://www.w3.org/1999/xlink" x="0px" y="0px"
	 width="375px" height="182px" viewBox="0 41.75 375 182" enable-background="new 0 41.75 375 182" xml:space="preserve">
<title>Group 2</title>
<desc>Created with Sketch.</desc>
<g id="Page-1">
	<g id="UI---Screen-5">
		<g id="Group-2" transform="translate(-34.000000, -28.000000)">
			
				<linearGradient id="Rectangle-Copy-6_1_" gradientUnits="userSpaceOnUse" x1="102.688" y1="226.5791" x2="103.1468" y2="226.1187" gradientTransform="matrix(386 0 0 -251 -39546 56908.5)">
				<stop  offset="0" style="stop-color:#64C866"/>
				<stop  offset="1" style="stop-color:#6EDADA"/>
			</linearGradient>
			<rect id="Rectangle-Copy-6" x="34" fill="url(#Rectangle-Copy-6_1_)" width="386" height="251"/>
			<path id="Rectangle" opacity="0.2203" fill="#FFFFFF" enable-background="new    " d="M73.5,121h81c3.59,0,6.5,2.91,6.5,6.5l0,0
				c0,3.59-2.91,6.5-6.5,6.5h-81c-3.59,0-6.5-2.91-6.5-6.5l0,0C67,123.91,69.91,121,73.5,121z"/>
			<path id="Rectangle-Copy" opacity="0.2203" fill="#FFFFFF" enable-background="new    " d="M181.5,157h81
				c3.59,0,6.5,2.91,6.5,6.5l0,0c0,3.59-2.91,6.5-6.5,6.5h-81c-3.59,0-6.5-2.91-6.5-6.5l0,0C175,159.91,177.91,157,181.5,157z"/>
			<path id="Rectangle-Copy-2" opacity="0.2961" fill="#FFFFFF" enable-background="new    " d="M281.5,108h81
				c3.59,0,6.5,2.91,6.5,6.5l0,0c0,3.59-2.91,6.5-6.5,6.5h-81c-3.59,0-6.5-2.91-6.5-6.5l0,0C275,110.91,277.91,108,281.5,108z"/>
			<path id="Rectangle-Copy-3" opacity="0.2961" fill="#FFFFFF" enable-background="new    " d="M113.5,204h81
				c3.59,0,6.5,2.91,6.5,6.5l0,0c0,3.59-2.91,6.5-6.5,6.5h-81c-3.59,0-6.5-2.91-6.5-6.5l0,0C107,206.91,109.91,204,113.5,204z"/>
			<path id="Rectangle-Copy-4" opacity="0.2961" fill="#FFFFFF" enable-background="new    " d="M267.5,191h81
				c3.59,0,6.5,2.91,6.5,6.5l0,0c0,3.59-2.91,6.5-6.5,6.5h-81c-3.59,0-6.5-2.91-6.5-6.5l0,0C261,193.91,263.91,191,267.5,191z"/>
			<g id="Home-cleaning" transform="translate(0.000000, 99.000000)">
				<g id="Group" transform="translate(28.000000, 1.000000)" opacity="0.5">
					<path id="Path" fill="#AFDCC9" d="M267.5,85.8c0,2.3-1,4.101-2.2,4.101H233.4c-1.2,0-2.2-1.801-2.2-4.101l0,0
						c0-2.3,1-4.1,2.2-4.1H265.3C266.5,81.7,267.5,83.5,267.5,85.8L267.5,85.8z"/>
					<path id="Path_1_" fill="#AFDCC9" d="M39.4,33c0,2.3-1.1,4.1-2.4,4.1H3c-1.3,0-2.4-1.8-2.4-4.1l0,0c0-2.3,1.1-4.1,2.4-4.1h34
						C38.3,28.9,39.4,30.7,39.4,33L39.4,33z"/>
					<path id="Path_2_" fill="#AFDCC9" d="M93.6,4.7c0,2.3-1.3,4.1-3,4.1h-43c-1.6,0-3-1.8-3-4.1l0,0c0-2.3,1.3-4.1,3-4.1h43
						C92.3,0.6,93.6,2.4,93.6,4.7L93.6,4.7z"/>
					<path id="Path_3_" fill="#AFDCC9" d="M177,50c0,2.3-1,4.1-2.3,4.1H141c-1.3,0-2.3-1.8-2.3-4.1l0,0c0-2.3,1-4.1,2.3-4.1h33.7
						C176,45.9,177,47.7,177,50L177,50z"/>
					<path id="Path_4_" fill="#AFDCC9" d="M348.1,5.9c0,2.3-1.1,4.1-2.399,4.1h-35.3c-1.4,0-2.4-1.8-2.4-4.1l0,0
						c0-2.3,1.1-4.1,2.4-4.1h35.3C347,1.8,348.1,3.6,348.1,5.9L348.1,5.9z"/>
				</g>
				<rect id="Rectangle_1_" x="0.9" y="141.6" fill="#AAD1D3" width="441.4" height="10.601"/>
				<g id="Group_1_" transform="translate(297.000000, 48.000000)">
					<polygon id="Path_5_" fill="#321D11" points="13.2,104.9 9,104.9 9,96.2 13.2,96.2 					"/>
					<polygon id="Path_6_" fill="#321D11" points="113.8,104.9 109.6,104.9 109.6,96.2 113.8,96.2 					"/>
					<path id="Path_7_" fill="#744621" stroke="#000000" stroke-width="0.5" d="M61.4,96.2H3.3c-0.3,0-0.5-0.4-0.5-0.9V65.6H61.4
						V96.2L61.4,96.2z"/>
					<path id="Path_8_" fill="#744621" stroke="#000000" stroke-width="0.5" d="M61.4,96.2h58.1c0.3,0,0.5-0.4,0.5-0.9V65.6H61.4
						V96.2L61.4,96.2z"/>
					<polygon id="Path_9_" fill="#EAA333" stroke="#000000" stroke-width="0.5" points="38.6,78.7 25.6,78.7 25.6,76.3 38.6,76.3 
											"/>
					<polygon id="Path_10_" fill="#EAA333" stroke="#000000" stroke-width="0.5" points="97.3,78.7 84.2,78.7 84.2,76.3 97.3,76.3 
											"/>
					<polygon id="Path_11_" fill="#522E16" points="61.4,69.2 2.8,69.2 2.8,65.6 61.4,65.6 					"/>
					<polygon id="Path_12_" fill="#522E16" points="120,69.2 61.4,69.2 61.4,65.6 120,65.6 					"/>
					<polygon id="Path_13_" fill="#321D11" points="62.2,96.2 60.6,96.2 60.6,65.6 62.2,65.6 					"/>
					<polygon id="Path_14_" fill="#744621" stroke="#000000" stroke-width="0.5" points="122.7,65.6 0.1,65.6 0.1,62.9 122.7,62.9 
											"/>
					<g transform="translate(23.000000, 0.000000)">
						<path id="Path_15_" fill="#FFFFFF" stroke="#000000" stroke-width="0.5" d="M72.7,5.8v43.9c0,0.8-0.7,1.5-1.5,1.5H5.7
							c-0.8,0-1.5-0.7-1.5-1.5V5.8c0-0.8,0.7-1.5,1.5-1.5h65.5C72,4.3,72.7,5,72.7,5.8z"/>
						<path id="Shape" fill="#595D5D" stroke="#000000" stroke-width="0.5" d="M72.7,49.7c0,0.8-0.7,1.5-1.5,1.5H5.8
							c-0.8,0-1.5-0.7-1.5-1.5V5.8C4.3,5,5,4.3,5.8,4.3h65.4c0.8,0,1.5,0.7,1.5,1.5V49.7L72.7,49.7z M71.2,0.7H5.8
							C3,0.7,0.7,3,0.7,5.8v43.9c0,2.8,2.3,5.1,5.1,5.1h65.4c2.8,0,5.1-2.3,5.1-5.1V5.8C76.4,3,74,0.7,71.2,0.7L71.2,0.7z"/>
					</g>
					<path id="Path_16_" fill="#FBAD32" d="M87.3,53.1c0,0.601-0.5,1.101-1.1,1.101C85.6,54.2,85.1,53.7,85.1,53.1
						c0-0.6,0.5-1.1,1.101-1.1C86.8,52,87.3,52.5,87.3,53.1L87.3,53.1z"/>
					<path id="Path_17_" fill="#595D5D" d="M68.3,60.6H54.8c1.7-3.399,1-2,2.9-5.8h7.6C67.5,58.9,66.7,57.3,68.3,60.6L68.3,60.6z"/>
					<path id="Path_18_" fill="#84A14A" d="M71.6,62.9H52.1V62c0-0.8,0.601-1.5,1.5-1.5H70.2c0.8,0,1.5,0.6,1.5,1.5v0.9H71.6z"/>
					<polygon id="Path_19_" fill="#484A4C" points="66.9,57.7 56.3,57.7 57.8,54.8 65.4,54.8 					"/>
				</g>
				<g id="Group_2_" transform="translate(262.000000, 113.000000)">
					<path id="Path_20_" fill="#35C5F1" d="M48.6,2.5c-0.1,0-0.199,0-0.3,0c-0.1-1.1-1-1.9-2.1-1.9C45,0.6,44.1,1.5,44.1,2.7
						c0,0.1,0,0.2,0,0.3c-0.199,0-0.3-0.1-0.5-0.1C42.4,2.9,41.5,3.8,41.5,5c0,0.2,0,0.3,0.1,0.5C41.3,5.4,41,5.2,40.7,5.2
						C40.6,4.9,40.4,4.6,40.3,4.3C40.7,4,41,3.5,41,2.9c0-1-0.8-1.801-1.8-1.801c-0.9,0-1.601,0.601-1.8,1.4c-0.101,0-0.101,0-0.2,0
						c-0.4-0.8-1.3-1.4-2.3-1.4S33,1.7,32.6,2.6C32.3,2.3,31.8,2.2,31.4,2.2c-1.101,0-2,0.899-2,2c0,0.1,0,0.2,0,0.3
						C28,5,26.9,6.3,26.9,7.9c0,2,1.6,3.6,3.6,3.6c1,0,1.9-0.4,2.5-1c0.7,0.2,1.6,0.1,2.2-0.2c0.899,0.4,2.1,0.5,3,0.101
						C38.7,10.8,39.4,11.1,40.1,11.1c0.601,0,1.2-0.199,1.7-0.6c0.3,0.1,0.7,0.1,1,0.1c0.601,0.5,1.3,0.7,2.101,0.7
						c0.899,0,1.699-0.3,2.3-0.899C47.6,10.5,48,10.6,48.4,10.6c2.199,0,4-1.8,4-4C52.6,4.2,50.8,2.5,48.6,2.5z"/>
					<g transform="translate(28.000000, 1.000000)">
						<path id="Path_21_" fill="#7AD1EC" d="M20.6,2.6C19.4,2.6,18.3,3.4,17.9,4.5C17.6,4.4,17.3,4.3,17,4.3c-0.2,0-0.4,0-0.5,0.101
							C16.6,4.3,16.6,4.1,16.6,4c0-0.5-0.399-1-1-1c-0.5,0-1,0.4-1,1c0,0.5,0.4,0.9,0.801,1C15.2,5.2,15,5.4,14.8,5.7
							c-0.1,0-0.2,0-0.3,0c-0.4,0-0.7,0.2-1,0.399c-0.3-0.5-0.9-0.8-1.5-0.8c-0.1,0-0.3,0-0.4,0c-0.1-1.5-1.3-2.7-2.8-2.7
							c-0.2,0-0.5,0-0.7,0.101V2.6C8.1,1.8,7.5,1.2,6.7,1.2S5.3,1.8,5.3,2.6C5.3,3.3,5.7,3.8,6.4,3.9C6.2,4.2,6.1,4.6,6,5
							C5.9,5,5.8,5,5.8,5C5.3,5,4.9,5.2,4.6,5.6C4.2,4.9,3.4,4.4,2.5,4.4C1.1,4.4,0,5.5,0,6.9C0,8.3,1.1,9.4,2.5,9.4
							c1,0,1.8-0.601,2.2-1.4C5,8.3,5.4,8.5,5.8,8.5c0.5,0,1-0.2,1.3-0.6C7.6,8.3,8.2,8.5,8.9,8.5c0.6,0,1.199-0.2,1.6-0.5
							c0.3,0.6,0.9,1,1.6,1c0.601,0,1.2-0.3,1.5-0.8C13.8,8.4,14.2,8.6,14.6,8.6c0.2,0,0.4,0,0.601-0.1C15.6,9,16.3,9.3,17,9.3
							c0.9,0,1.6-0.5,2-1.2c0.4,0.301,1,0.4,1.5,0.4c1.6,0,2.9-1.3,2.9-2.9C23.5,3.9,22.2,2.6,20.6,2.6z"/>
						<path id="Path_22_" fill="#7AD1EC" d="M11.1,1.2C10.7,1.2,10.4,1.5,10.4,1.9C10.4,2.3,10.7,2.6,11.1,2.6
							c0.4,0,0.7-0.3,0.7-0.699C11.8,1.5,11.5,1.2,11.1,1.2z"/>
						<circle id="Oval" fill="#7AD1EC" cx="3.4" cy="3.1" r="1"/>
						<path id="Path_23_" fill="#7AD1EC" d="M18.3,0.7c-0.5,0-1,0.399-1,1c0,0.5,0.4,1,1,1c0.5,0,1-0.4,1-1
							C19.2,1.1,18.8,0.7,18.3,0.7z"/>
					</g>
					<path id="Path_24_" fill="#F05554" stroke="#000000" stroke-width="0.5" d="M5.2,35.7C5.3,37.9,7.1,39.6,9.3,39.6H42.4
						c1.899,0,3.6-1.3,4-3.199l5.5-23.9H3.8L5.2,35.7z"/>
					<polygon id="Path_25_" opacity="0.2" enable-background="new    " points="4,16 19.8,16 4.8,30.1 4.9,31.8 24.1,16 51.1,15.9 
						51.9,12.5 3.8,12.5 					"/>
					<path id="Path_26_" fill="#F05554" stroke="#000000" stroke-width="0.5" d="M51.2,8.1H4.4C2,8.1,0,10.1,0,12.5l0,0h55.6l0,0
						C55.6,10,53.7,8.1,51.2,8.1z"/>
					<path id="Path_27_" opacity="0.2" fill="#FFFFFF" enable-background="new    " d="M49.9,8.3c4.199,0.3,5.5,3.9,5.5,3.9
						S55.2,8,49.9,8.3z"/>
					<path id="Path_28_" opacity="0.2" enable-background="new    " d="M34.9,9.3h-30C3.3,9.3,2,10.1,1.7,11.7l0,0h35.6l0,0
						C37.6,10.2,36.4,9.3,34.9,9.3z"/>
					<path id="Path_29_" fill="#F05554" stroke="#000000" stroke-width="0.5" d="M24.5,5H12.4c-0.801,0-1.5,0.4-1.9,1.1l-1.2,2h18.4
						l-1.2-2C26,5.4,25.3,5,24.5,5z"/>
					<polygon id="Path_30_" opacity="0.2" enable-background="new    " points="9.9,7 9.3,8.1 27.6,8.1 27,7 					"/>
					<path id="Path_31_" fill="#35383A" d="M28.8,9.2C28.4,8.6,27.5,8.6,27,9L1.7,29.3C1.4,29.5,1.4,29.9,1.6,30.2l0.9,1.1
						c0.2,0.3,0.6,0.3,0.9,0.101L28.7,11.1C29.2,10.6,29.2,9.8,28.8,9.2L28.8,9.2z"/>
					<path id="Path_32_" fill="#F05554" d="M27.5,9.6C27.2,9.7,27,10.1,27.1,10.4c0.101,0.3,0.5,0.5,0.801,0.399
						c0.3-0.1,0.5-0.5,0.399-0.8C28.2,9.6,27.8,9.4,27.5,9.6z"/>
					<polygon id="Path_33_" opacity="0.2" fill="#FFFFFF" enable-background="new    " points="45.5,36.3 50.2,16.3 48.1,16.3 					
						"/>
				</g>
				<g id="Group_3_" transform="translate(228.000000, 34.000000)">
					
						<rect id="Rectangle_2_" x="8.201" y="96.619" transform="matrix(-0.9944 0.106 -0.106 -0.9944 35.9019 195.6287)" opacity="0.56" fill="#5F2C30" stroke="#000000" stroke-width="0.5" enable-background="new    " width="9.101" height="4.3"/>
					
						<rect id="Rectangle_3_" x="8.197" y="96.823" transform="matrix(-0.9944 0.1061 -0.1061 -0.9944 31.3386 196.2798)" opacity="0.1" enable-background="new    " width="4.5" height="4.301"/>
					<path id="Path_34_" fill="#818586" stroke="#000000" stroke-width="0.5" d="M17.5,100.4l-9,1c0,0-3.9,1.1-7.2,6.6
						c-1.1,1.9-1.1,3.8-0.5,5.4c1.101,3.199,4.3,5.1,7.7,5.1h27.9C27.8,114.6,31.1,100.4,17.5,100.4z"/>
					<path id="Path_35_" opacity="0.2" fill="#FFFFFF" enable-background="new    " d="M17.5,100.4c0,0,8.5,3.6,8.4,10.1
						c0.5,5.6,10.5,8,10.5,8C27.8,114.6,31.1,100.4,17.5,100.4z"/>
					<path id="Path_36_" opacity="0.1" enable-background="new    " d="M1.3,108c-1.1,1.9-1.1,3.8-0.5,5.4
						c1.101,3.199,4.3,5.1,7.7,5.1v-0.1c-3.2-4.7-2.2-11.2,2.5-14.5c2-1.301,4.2-3.2,6.6-3.601l-9,1C8.5,101.4,4.6,102.5,1.3,108z"
						/>
					<path id="Shape_1_" fill="#B2A865" d="M2.2,0.2L2.2,0.2C1.2,0.3,0.6,1.1,0.7,2.1l10.1,94.8l3.4-0.4L4.1,1.7
						C4,0.7,3.2,0.1,2.2,0.2z M2.7,5.1C2.2,5.2,1.7,4.5,1.6,3.6C1.5,2.7,1.8,1.9,2.3,1.9c0.5-0.1,1,0.6,1.101,1.5
						C3.6,4.3,3.2,5,2.7,5.1z"/>
					<path id="Path_37_" opacity="0.1" enable-background="new    " d="M1.7,3.6C1.5,2,2.4,1.9,2.4,1.9C2.3,0.8,2.2,0.2,2.2,0.2l0,0
						C1.3,0.3,0.6,1.1,0.7,2.1l10.1,94.8l1.7-0.2c0,0-7.6-70.7-9.8-91.5C2.7,5.1,1.9,5.3,1.7,3.6z"/>
				</g>
				<path id="Path_38_" fill="#FFFFFF" d="M396.1,95.6L396.1,95.6c-0.1,2.101-1.8,3.9-3.899,3.9v0.1c2.1,0,3.899,1.7,3.899,3.9
					h0.101c0-2.1,1.7-3.9,3.899-3.9v-0.1C397.8,99.4,396.1,97.7,396.1,95.6z"/>
				<path id="Path_39_" fill="#FFFFFF" d="M343.6,42.3L343.6,42.3c-0.1,2.101-1.8,3.9-3.899,3.9v0.1c2.1,0,3.899,1.7,3.899,3.9
					h0.101c0-2.101,1.7-3.9,3.899-3.9v-0.1C345.3,46.2,343.6,44.5,343.6,42.3z"/>
				<path id="Path_40_" fill="#FFFFFF" d="M249.4,130.5L249.4,130.5c-0.101,2.1-1.801,3.9-3.9,3.9v0.1c2.1,0,3.9,1.7,3.9,3.9h0.1
					c0-2.101,1.7-3.9,3.9-3.9v-0.1C251.2,134.4,249.4,132.7,249.4,130.5z"/>
				<path id="Path_41_" fill="#FFFFFF" d="M313.5,114.5L313.5,114.5c-0.1,1.5-1.3,2.7-2.8,2.7v0.1c1.5,0,2.7,1.2,2.7,2.7h0.1
					c0-1.5,1.2-2.7,2.7-2.7v-0.1C314.7,117.2,313.5,115.9,313.5,114.5z"/>
				<path id="Path_42_" fill="#FFFFFF" d="M348.2,49.6L348.2,49.6C348.1,51,347,52.2,345.5,52.2v0.1c1.4,0,2.6,1.2,2.6,2.601h0.101
					c0-1.4,1.2-2.601,2.6-2.601v-0.1C349.4,52.3,348.2,51.1,348.2,49.6z"/>
				<path id="Path_43_" fill="#FFFFFF" d="M391.4,100.1L391.4,100.1c0,1-0.801,1.7-1.801,1.7l0,0c1,0,1.7,0.8,1.7,1.7l0,0
					c0-1,0.8-1.7,1.7-1.7l0,0C392.2,101.8,391.4,101.1,391.4,100.1z"/>
				<g id="Group_4_" transform="translate(67.000000, 60.000000)">
					<path id="Path_44_" fill="#674227" stroke="#000000" stroke-width="0.5" d="M24.3,92.6L24.3,92.6c-1.4,0-2.4-1.1-2.4-2.399
						V79.7H28v6.7c0,0.6-1.1,3.899-1.4,4.5C26.3,91.9,25.4,92.6,24.3,92.6L24.3,92.6z"/>
					<path id="Path_45_" fill="#674227" stroke="#000000" stroke-width="0.5" d="M130.3,92.6L130.3,92.6c1.4,0,2.4-1.1,2.4-2.399
						V79.7h-6.1v6.7c0,0.6,1.1,3.8,1.4,4.5C128.4,91.9,129.3,92.6,130.3,92.6L130.3,92.6z"/>
					<path id="Path_46_" fill="#DAD7C5" d="M77.3,11.3v39.2c0,5.2-4.3,9.3-9.3,9.3H24.8c-5.1,0-9.3-4.2-9.3-9.3V11.3
						c0-5.1,4.1-9.3,9.3-9.3H68C73,2.1,77.3,6.1,77.3,11.3L77.3,11.3z"/>
					<path id="Path_47_" fill="#B0A690" d="M32.9,26c1.7,3.2,2.3,3.5,5,5c-3.2,1.7-3.5,2.3-5,5c-1.7-3.2-2.3-3.5-5-5
						C30.6,29.5,31.2,29.2,32.9,26L32.9,26z"/>
					<path id="Path_48_" fill="#B0A690" d="M59.9,26c1.7,3.2,2.3,3.5,5,5c-3.2,1.7-3.5,2.3-5,5c-1.7-3.2-2.3-3.5-5-5
						C57.6,29.5,58.2,29.2,59.9,26L59.9,26z"/>
					<path id="Path_49_" fill="#DAD7C5" d="M139.1,11.3v39.2c0,5.1-4.2,9.3-9.3,9.3H86.6c-5.2,0-9.3-4.2-9.3-9.3V11.3
						c0-5.1,4.2-9.3,9.3-9.3h43.2C134.9,2.1,139.1,6.2,139.1,11.3L139.1,11.3z"/>
					<polygon id="Path_50_" fill="#B0A690" points="129.6,61.7 25.1,61.7 25.1,59.8 129.6,59.8 					"/>
					<path id="Path_51_" fill="#DAD7C5" stroke="#000000" stroke-width="0.5" d="M6.6,43.5L6.6,43.5c-3.2,0-5.8,2.6-5.8,5.8
						c0,5.601,2.3,7.8,5.8,7.8l0,0V70.7h8.9c0-30.5,0-3.3,0-22.2C15.5,42.7,9.3,43.5,6.6,43.5L6.6,43.5z"/>
					<path id="Path_52_" fill="#DAD7C5" stroke="#000000" stroke-width="0.5" d="M148,44.5L148,44.5c3.2,0,5.8,2.6,5.8,5.8
						c0,5.601-2.3,7.8-5.8,7.8l0,0V71.7h-9c0-30.3,0-3.7,0-22.2C139.1,43.7,145.4,44.5,148,44.5L148,44.5z"/>
					<path id="Path_53_" fill="#BABCBE" stroke="#000000" stroke-width="0.5" d="M148,70.7H6.6c0-4.9,4-9,9-9H139
						C144,61.7,148,65.7,148,70.7L148,70.7z"/>
					<path id="Path_54_" fill="#B0A690" stroke="#000000" stroke-width="0.5" d="M148,70.7c0,4.899-4,9-9,9H15.6c-5,0-9-4-9-9H148
						L148,70.7z"/>
					<path id="Path_55_" fill="#B0A690" d="M94.7,26c1.7,3.2,2.3,3.5,5,5c-3.2,1.7-3.5,2.3-5,5c-1.7-3.2-2.3-3.5-5-5
						C92.4,29.5,93,29.2,94.7,26L94.7,26z"/>
					<path id="Path_56_" fill="#B0A690" d="M121.7,26c1.7,3.2,2.3,3.5,5,5c-3.2,1.7-3.5,2.3-5,5c-1.7-3.2-2.3-3.5-5-5
						C119.4,29.5,120,29.2,121.7,26L121.7,26z"/>
					<path id="Path_57_" fill="none" stroke="#000000" stroke-width="0.5" d="M139.1,11.3v39.2c0,5.1-4.1,9.3-9.3,9.3H86.6
						c-5.2,0-9.3-4.2-9.3-9.3c0,5.2-4.3,9.3-9.3,9.3H24.8c-5.1,0-9.3-4.1-9.3-9.3V11.3c0-5.1,4.1-9.3,9.3-9.3H68c5,0,9.3,4,9.3,9.3
						c0-5.1,4.1-9.3,9.3-9.3h43.2C135,2.1,139.1,6.2,139.1,11.3z"/>
					<path id="Path_58_" fill="#FFFFFF" d="M130,8L130,8c-0.1,2.1-1.8,3.9-3.9,3.9V12c2.1,0,3.9,1.7,3.9,3.9h0.1
						c0-2.101,1.7-3.9,3.9-3.9v-0.1C131.8,11.8,130,10.1,130,8z"/>
					<path id="Path_59_" fill="#FFFFFF" d="M116.5,68.8L116.5,68.8c-0.1,2.101-1.8,3.9-3.9,3.9v0.1c2.1,0,3.9,1.7,3.9,3.9h0.1
						c0-2.101,1.7-3.9,3.9-3.9v-0.1C118.2,72.7,116.5,70.9,116.5,68.8z"/>
					<path id="Path_60_" fill="#FFFFFF" d="M104.2,72.7L104.2,72.7c-0.1,1.5-1.3,2.7-2.8,2.7v0.1c1.5,0,2.7,1.2,2.7,2.7h0.1
						c0-1.5,1.2-2.7,2.7-2.7v-0.1C105.4,75.4,104.2,74.2,104.2,72.7z"/>
					<path id="Path_61_" fill="#FFFFFF" d="M10.2,40.9L10.2,40.9C10.1,42.3,9,43.4,7.6,43.4v0.1c1.4,0,2.5,1.1,2.5,2.5h0.1
						c0-1.4,1.1-2.5,2.5-2.5v-0.1C11.4,43.5,10.2,42.3,10.2,40.9z"/>
					<path id="Path_62_" fill="#FFFFFF" d="M68.7,0.5L68.7,0.5C68.6,1.9,67.5,3,66.1,3v0.1c1.4,0,2.5,1.101,2.5,2.5h0.1
						c0-1.399,1.1-2.5,2.5-2.5V3C69.8,3,68.7,1.9,68.7,0.5z"/>
					<path id="Path_63_" fill="none" stroke="#000000" stroke-width="0.5" d="M73.6,13.7V48.1c0,4.5-3.7,8.101-8.2,8.101H27.5
						c-4.5,0-8.1-3.601-8.1-8.101V13.7C19.4,9.2,23,5.6,27.5,5.6h37.9C69.8,5.6,73.6,9.1,73.6,13.7L73.6,13.7z"/>
					<path id="Path_64_" fill="none" stroke="#000000" stroke-width="0.5" d="M135.3,13.7V48.1c0,4.5-3.7,8.101-8.2,8.101H89.2
						c-4.5,0-8.1-3.601-8.1-8.101V13.7c0-4.5,3.6-8.101,8.1-8.101h37.9C131.5,5.6,135.3,9.1,135.3,13.7L135.3,13.7z"/>
				</g>
				<g id="Group_5_" transform="translate(41.000000, 0.000000)">
					<path id="Path_65_" fill="#595D5D" d="M4.6,144h11c2.5,0,4.6,2.1,4.6,4.6v1.9H0v-1.9C0,146,2.1,144,4.6,144L4.6,144z"/>
					<path id="Path_66_" fill="#FBAD32" stroke="#000000" stroke-width="0.5" d="M33.9,10.7c-8.5,0-15.5,7-16.6,16
						c-0.2,1.3,0.8,2.4,2.1,2.4h28.9c1.3,0,2.3-1.2,2.1-2.4C49.4,17.7,42.4,10.7,33.9,10.7L33.9,10.7z"/>
					<path id="Path_67_" fill="#674327" d="M11.4,147.2H8.7V21.8c0-13,14.1-21.3,25.6-14.7L33,9.4c-9.8-5.6-21.7,1.4-21.7,12.3
						v125.5H11.4z"/>
					<path id="Path_68_" fill="#84A14A" stroke="#000000" stroke-width="0.5" d="M33.9,6.6c-2.4,0-4.3,2.1-4.3,4.8h8.7
						C38.2,8.7,36.3,6.6,33.9,6.6L33.9,6.6z"/>
					<path id="Path_69_" fill="#FFFFFF" d="M12.7,48.1L12.7,48.1C12.6,50.2,10.9,52,8.8,52l0,0c2.1,0,3.9,1.7,3.9,3.9h0.1
						c0-2.101,1.7-3.9,3.9-3.9v-0.1C14.5,51.9,12.7,50.2,12.7,48.1z"/>
					<path id="Path_70_" fill="#FFFFFF" d="M48.9,13.8L48.9,13.8c-0.1,2.1-1.8,3.9-3.9,3.9v0.1c2.1,0,3.9,1.7,3.9,3.9H49
						c0-2.1,1.7-3.9,3.9-3.9v-0.1C50.6,17.7,48.9,15.9,48.9,13.8z"/>
					<path id="Path_71_" fill="#FFFFFF" d="M23.6,0.7L23.6,0.7c-0.1,1.4-1.2,2.5-2.6,2.5v0.1c1.4,0,2.5,1.1,2.5,2.5h0.1
						c0-1.4,1.1-2.5,2.5-2.5V3.2C24.7,3.2,23.6,2.1,23.6,0.7z"/>
					<path id="Path_72_" fill="#FFFFFF" d="M19.4,8.7L19.4,8.7c-0.1,1.4-1.2,2.5-2.6,2.5v0.1c1.4,0,2.5,1.1,2.5,2.5h0.1
						c0-1.4,1.1-2.5,2.5-2.5v-0.1C20.6,11.2,19.4,10.1,19.4,8.7z"/>
				</g>
				<g id="Group_6_" transform="translate(23.000000, 19.000000)">
					<path id="Path_73_" fill="#E87F42" d="M116.3,118.2c0-0.101,0-0.2,0-0.2c0.1-0.2,0.3-0.3,0.4-0.2l8.1,3.101
						c0.2,0.1,0.3,0.3,0.2,0.399c-0.1,0.2-0.3,0.3-0.4,0.2l-8.1-3.1C116.4,118.4,116.4,118.3,116.3,118.2z"/>
					<path id="Path_74_" fill="#E87F42" d="M118,126.8c0-0.1,0-0.1,0-0.2c0.1-0.199,0.3-0.3,0.4-0.199l8.5,3.399
						c0.2,0.101,0.3,0.3,0.2,0.4c-0.1,0.2-0.3,0.3-0.4,0.2l-8.5-3.4C118.1,127,118,126.9,118,126.8z"/>
					<path id="Path_75_" fill="#E87F42" d="M110.2,119.4c0-0.101,0.1-0.101,0.1-0.2c0.2-0.101,0.4-0.101,0.5,0.1l2.9,4.101
						c0.1,0.199,0.1,0.399-0.1,0.5c-0.2,0.1-0.4,0.1-0.5-0.101l-2.9-4.1C110.2,119.6,110.2,119.5,110.2,119.4z"/>
					<path id="Path_76_" fill="#E87F42" d="M137.5,128.6c0-0.1,0-0.1,0-0.199c0.1-0.2,0.3-0.2,0.5-0.2l4.6,2.1
						c0.2,0.101,0.2,0.3,0.2,0.5c-0.1,0.2-0.3,0.2-0.5,0.2l-4.6-2.1C137.5,128.8,137.5,128.7,137.5,128.6z"/>
					<path id="Path_77_" fill="#E87F42" d="M135,126.3c0,0,0.1,0.101,0.1,0.2c0,0.2-0.1,0.4-0.3,0.4l-4.9,0.899
						c-0.2,0-0.4-0.1-0.4-0.3s0.1-0.4,0.3-0.4l4.9-0.899C134.8,126.2,134.9,126.2,135,126.3z"/>
					<path id="Path_78_" fill="#E87F42" d="M104.6,129.2c0-0.101,0-0.101,0-0.2c0-0.2,0.2-0.3,0.4-0.3l4.9,1.1
						c0.2,0,0.3,0.2,0.3,0.4s-0.2,0.3-0.4,0.3l-4.9-1.1C104.7,129.4,104.6,129.3,104.6,129.2z"/>
					<g transform="translate(0.000000, 64.000000)">
						<path id="Path_79_" fill="#503734" d="M69.5,53.2c-0.8,0-1.5-0.101-2.3-0.2c-3-0.6-5.5-2.4-7.1-4.9L57.8,44.4
							c-1.1-1.801-3.4-2.301-5.2-1.2l-10.1,6.3l-2.1-3.4l10.1-6.3c3.6-2.2,8.4-1.1,10.7,2.5l2.3,3.7c1,1.6,2.6,2.8,4.5,3.2
							c1.9,0.399,3.8,0,5.4-1.101C77.6,45.2,79.1,39.8,77,35.2L65.1,8.7c-1-2.3-0.5-4.8,1.2-6.601C68.1,0.4,70.6-0.1,72.9,0.9
							L80.5,4.3L78.8,7.9l-7.6-3.4c-1.1-0.5-1.9,0.2-2.1,0.4c-0.2,0.199-0.9,1-0.4,2.1l11.9,26.5c2.9,6.4,0.8,13.9-5,17.8
							C73.8,52.5,71.7,53.2,69.5,53.2z"/>
						<g transform="translate(40.000000, 0.000000)">
							
								<rect id="Rectangle_4_" x="37.661" y="5.564" transform="matrix(-0.413 0.9107 -0.9107 -0.413 61.5651 -27.5515)" fill="#6B5F64" width="4.001" height="1"/>
							<path id="Shape_2_" fill="#6B5F64" d="M29.5,53.2L29.5,53.2c-0.4,0-0.7,0-1.1-0.101l0.4-4c0.2,0,0.5,0,0.7,0V53.2z
								 M30.6,53.1l-0.4-4c0.2,0,0.5-0.1,0.7-0.1l0.8,3.9C31.3,53,30.9,53.1,30.6,53.1z M27.3,52.9c-0.4-0.101-0.7-0.2-1.1-0.301
								l1.2-3.8c0.2,0.101,0.4,0.101,0.7,0.2L27.3,52.9z M32.7,52.7l-1.2-3.8c0.2-0.101,0.4-0.101,0.7-0.2l1.6,3.7
								C33.4,52.4,33.1,52.6,32.7,52.7z M25.2,52.3c-0.3-0.1-0.7-0.3-1-0.5l1.9-3.5c0.2,0.101,0.4,0.2,0.6,0.3L25.2,52.3z
								 M34.7,51.8l-1.9-3.5c0.2-0.1,0.4-0.2,0.6-0.399l2.3,3.3C35.4,51.4,35.1,51.6,34.7,51.8z M23.3,51.3
								c-0.3-0.2-0.6-0.399-0.9-0.7l2.6-3.1c0.2,0.1,0.4,0.3,0.6,0.4L23.3,51.3z M36.5,50.6L34,47.5c0.2-0.2,0.4-0.3,0.6-0.5l2.7,3
								C37,50.2,36.8,50.4,36.5,50.6z M21.6,49.9c-0.3-0.301-0.5-0.5-0.7-0.801l3.1-2.5c0.1,0.2,0.3,0.4,0.5,0.5L21.6,49.9z
								 M38,49.2l-2.9-2.8c0.2-0.2,0.3-0.4,0.5-0.601l3.1,2.5C38.5,48.7,38.3,49,38,49.2z M3.6,48.6L1.5,45.2l0.8-0.5L4.4,48.1
								L3.6,48.6z M20.2,48.2l-0.5-0.8l3.4-2.101l0.5,0.7L20.2,48.2z M5.1,47.6L3,44.2l0.8-0.5L5.9,47.1L5.1,47.6z M39.4,47.6
								l-3.3-2.3c0.1-0.2,0.3-0.399,0.4-0.6l3.4,2.1C39.7,47,39.6,47.3,39.4,47.6z M6.6,46.7l-2.1-3.4l0.8-0.5l2.1,3.4L6.6,46.7z
								 M19.2,46.6l-0.5-0.8l3.4-2.1l0.5,0.8L19.2,46.6z M40.4,45.8L36.8,44c0.1-0.2,0.2-0.5,0.3-0.7l3.7,1.5
								C40.7,45.2,40.6,45.5,40.4,45.8z M8.1,45.7L6,42.3l0.8-0.5l2.1,3.4L8.1,45.7z M18.3,45.1l-0.5-0.8l3.4-2.1l0.5,0.8L18.3,45.1
								z M9.7,44.8L7.6,41.4l0.8-0.5l2.1,3.399L9.7,44.8z M41.2,43.9L37.4,42.6c0.1-0.199,0.1-0.5,0.2-0.699l3.9,1
								C41.4,43.2,41.3,43.6,41.2,43.9z M11.2,43.8L9.1,40.4l0.8-0.5L12,43.3L11.2,43.8z M17.4,43.8c-0.1-0.2-0.3-0.3-0.4-0.399
								l2.7-3c0.3,0.3,0.6,0.6,0.8,0.899L17.4,43.8z M16.6,43.1c-0.2-0.1-0.3-0.199-0.5-0.3l1.6-3.7c0.4,0.2,0.7,0.4,1.1,0.601
								L16.6,43.1z M12.7,43l-2-3.5c0.4-0.2,0.7-0.4,1.1-0.5l1.4,3.8C13,42.8,12.8,42.9,12.7,43z M15.5,42.6c-0.2,0-0.4-0.1-0.6-0.1
								l0.4-4c0.4,0,0.8,0.1,1.2,0.2L15.5,42.6z M13.8,42.5L13,38.6c0.4-0.1,0.8-0.1,1.2-0.199l0.2,4C14.1,42.5,13.9,42.5,13.8,42.5
								z M41.7,41.9l-3.9-0.7c0-0.2,0.1-0.5,0.1-0.7l4,0.4C41.8,41.2,41.8,41.5,41.7,41.9z M42,39.8l-4-0.1c0-0.101,0-0.2,0-0.3
								c0-0.101,0-0.301,0-0.4l4-0.2c0,0.2,0,0.4,0,0.601C42,39.5,42,39.6,42,39.8z M37.9,38.2c0-0.2-0.1-0.5-0.1-0.7l3.9-0.7
								c0.1,0.3,0.1,0.7,0.2,1L37.9,38.2z M37.6,36.7c-0.1-0.2-0.1-0.5-0.2-0.7l3.8-1.3c0.1,0.3,0.2,0.7,0.3,1L37.6,36.7z
								 M37.1,35.3l-0.3-0.8l3.7-1.6l0.3,0.6c0,0.1,0.1,0.2,0.1,0.3L37.1,35.3z M36.4,33.7L36,32.9l3.7-1.601l0.4,0.8L36.4,33.7z
								 M35.7,32l-0.4-0.8L39,29.6l0.4,0.801L35.7,32z M34.9,30.4L34.5,29.6l3.7-1.6l0.4,0.8L34.9,30.4z M34.2,28.8L33.8,28l3.7-1.6
								l0.4,0.8L34.2,28.8z M33.5,27.1l-0.4-0.8l3.7-1.6l0.4,0.8L33.5,27.1z M32.7,25.5l-0.4-0.8L36,23l0.4,0.8L32.7,25.5z M32,23.9
								L31.6,23.1l3.7-1.6l0.4,0.8L32,23.9z M31.3,22.2l-0.4-0.8l3.7-1.601l0.4,0.8L31.3,22.2z M30.5,20.6l-0.4-0.8l3.7-1.6l0.4,0.8
								L30.5,20.6z M29.8,19l-0.4-0.8l3.7-1.601l0.4,0.801L29.8,19z M29,17.3l-0.4-0.8l3.7-1.6l0.4,0.8L29,17.3z M28.3,15.7
								l-0.4-0.8l3.7-1.601L32,14L28.3,15.7z M27.6,14l-0.4-0.8l3.7-1.601l0.4,0.801L27.6,14z M26.8,12.4L26.4,11.6l3.7-1.6l0.4,0.8
								L26.8,12.4z M26.1,10.8L25.7,10l3.7-1.6l0.4,0.8L26.1,10.8z M25.4,9.1l-0.3-0.6c0-0.1-0.1-0.2-0.1-0.3l3.7-1.4V6.9L29,7.5
								L25.4,9.1z M37.6,7.3L36.8,6.9L38.5,3.3l0.8,0.4L37.6,7.3z M24.6,6.9c0-0.301-0.1-0.5-0.1-0.801c0-0.199,0-0.399,0-0.6l4,0.4
								c0,0.1,0,0.1,0,0.199c0,0.101,0,0.2,0,0.2L24.6,6.9z M35.9,6.6L35.1,6.2L36.8,2.6L37.6,3L35.9,6.6z M34.3,5.8L33.5,5.4
								L35.2,1.8L36,2.2L34.3,5.8z M28.7,5.5l-3.8-1.3C25,3.8,25.2,3.4,25.5,3l3.4,2.2C28.8,5.3,28.7,5.4,28.7,5.5z M32.7,5.1
								L31.9,4.7L33.6,1.1l0.8,0.4L32.7,5.1z M29.1,4.8L26.3,1.9C26.6,1.6,27,1.3,27.4,1.1l2.1,3.4C29.4,4.6,29.2,4.7,29.1,4.8z
								 M31.1,4.4C31,4.3,30.8,4.3,30.7,4.3l0.6-4c0.4,0.101,0.9,0.2,1.3,0.4L31.1,4.4z M29.9,4.3l-1.3-3.8c0.4-0.1,0.9-0.2,1.3-0.3
								l0.3,4C30.2,4.2,30,4.3,29.9,4.3z"/>
							
								<rect id="Rectangle_5_" x="1.274" y="45.362" transform="matrix(-0.8515 0.5244 -0.5244 -0.8515 28.1207 86.7604)" fill="#6B5F64" width="1" height="4"/>
						</g>
						<g id="Path_80_" transform="translate(78.000000, 3.000000)">
							<path fill="#503734" d="M24.6,56.7L43,47.1c0.5-0.3,0.7-0.899,0.4-1.3l-1.3-2.5c-0.3-0.5-0.9-0.7-1.3-0.399l-18.4,9.6
								c-0.5,0.3-0.7,0.9-0.4,1.3l1.3,2.5C23.5,56.7,24.1,56.9,24.6,56.7z"/>
							<polygon fill="#82807F" points="9.7,10 29.8,49.6 34,47.4 13.1,6.8 2.4,0.8 0.4,5 							"/>
							<polygon fill="#82807F" points="40,43 39.7,42.6 30.5,42.8 28.1,44 22.7,51.4 22.9,51.9 							"/>
							<path fill="#96DAF8" d="M42.2,43.4L42,43c-0.6-0.9-1.7-1.2-2.6-0.7L22.8,50.9c-0.9,0.5-1.3,1.6-0.9,2.6l0.2,0.4L42.2,43.4z"
								/>
						</g>
						
							<rect id="Rectangle_6_" x="40.874" y="42.611" transform="matrix(-0.8612 0.5083 -0.5083 -0.8612 106.1106 61.7411)" fill="#82807F" width="7.5" height="5.5"/>
						<path id="Path_81_" fill="#96DAF8" d="M12.3,37.9h9.8c13.1,0,23.8,10.6,23.8,23.8l0,0c0,3.6-2.9,6.5-6.5,6.5H12.3
							c-3.6,0-6.5-2.9-6.5-6.5V44.4C5.8,40.8,8.7,37.9,12.3,37.9z"/>
						<path id="Path_82_" fill="#36BDD1" d="M37.3,63.4C37.3,53.9,29.6,46.1,20,46.1H5.8V62.2c0,3.3,2.7,6,6,6h25.4v-4.8H37.3z"/>
						<path id="Path_83_" fill="#BF4633" d="M5.8,59.5v2.7c0,3.3,2.7,6,6,6h28.1c3.3,0,6-2.7,6-6v-2.3c0-0.101,0-0.2,0-0.301H5.8
							V59.5z"/>
						<circle id="Oval_1_" fill="#503734" cx="11.904" cy="58.998" r="9.7"/>
						<circle id="Oval_2_" fill="#36BDD1" cx="11.907" cy="59.003" r="7.1"/>
						<path id="Path_84_" fill="#EF7B48" d="M11.9,40.9h4V34c0-1.1-0.9-2-2-2l0,0c-1.1,0-2,0.9-2,2V40.9z"/>
					</g>
					<g id="Path_85_" transform="translate(30.000000, 0.000000)">
						<path fill="#F9D4A4" d="M55.2,15.1l-4.6,7.1l4.1,10.6l3.7-4.3l2.2-3.7c0.4-0.7,1.3-0.899,2-0.399l1.6,1.1
							c0.6,0.4,1.5,0.3,1.9-0.4l2.6-3.8l2.1,0.5l0.9-4.9l4.4-7.4l-8.7-6.4c-1.7-1.2-3.9-1.3-5.7-0.3l0,0c-2.6,1.5-4.4,4-5.2,6.9
							L55.2,15.1z"/>
						<polygon fill="#F7B995" points="71.6,17 68.6,21.4 70.7,21.9 						"/>
						<path fill="#321210" d="M62.7,10.9l0.3,0.2c0.8,0.5,1.1,1.5,0.8,2.4l-0.6,1.7L64,16l4.1-2.7l0.8-1.4c0.3-0.6,1-0.8,1.6-0.5
							l3.5,1.7l2.1-3.5l-8.7-6.4c-1.7-1.2-3.9-1.3-5.7-0.3l0,0c-2.6,1.5-4.4,4-5.2,6.9l-1.2,5l4.7,0.9l-0.1-0.9
							c-0.1-0.8,0-1.6,0.4-2.4l0.7-1.5C61.4,10.6,62.1,10.5,62.7,10.9z"/>
						<polygon fill="#F9D4A4" points="25.6,41.7 19.4,37.5 7.9,53.3 4.4,53.1 0.9,58.3 4.4,62 11.5,55.7 						"/>
						<polygon fill="#F9D4A4" points="60.2,55 53.3,59.6 60.7,76.2 58.6,79 61.2,84.8 66.2,83.8 64.6,74.4 						"/>
						<polygon fill="#333334" points="16.8,125.5 24.6,125.5 37.1,61.1 20.4,61.1 						"/>
						<path fill="#005D32" d="M20.4,61.1h25.8l18.8-28L59,28l-4.3,4.9l1.4-7.2c-1.7-1.2-5.6-4-7.5-4.9l-6.7-3.1L29.7,42.3L20.4,61.1
							z"/>
						<polygon fill="#00522A" points="27.4,46.9 38.4,24.6 45.1,26.7 37.1,37.5 						"/>
						<polygon fill="#005D32" points="25.6,41.7 19.4,37.5 41.9,17.7 49.8,23.1 						"/>
						<polygon fill="#005D32" points="53.3,59.9 54.2,39 65,33.1 60.1,55.1 						"/>
						<polygon fill="#00522A" points="53.3,59.9 53.7,51.2 62,42.6 56.1,52.6 						"/>
						<polygon fill="#282829" points="44.1,124.9 51.9,124.9 52.9,91.1 45,61.1 26.2,61.1 42.5,96.3 						"/>
						<path fill="#005D32" d="M74.8,13c0,0,3.2-6.4,2.2-7.1c-0.2-0.2-3.6-2.9-6.6-4.3c-2.8-1.3-6-1.1-8.5,0.6l-0.4,0.2
							c-2.8,1.5-4.7,4.3-5,7.5l0,0l16.2,5.2l3.2,2.3c1.3,0.9,3,1.1,4.5,0.3l0.9-0.8L74.8,13z"/>
						<path fill="#00522A" d="M72.7,11.6c0.4-1.1,0.6-2.3,0.8-3.4c-0.2-2-0.9-4-1.8-5.9c-0.4-0.2-0.9-0.4-1.3-0.6
							c-2.8-1.3-6-1.1-8.5,0.6l-0.4,0.2c-2.8,1.5-4.7,4.3-5,7.5L71,14.7C71.4,13.9,72.3,12.4,72.7,11.6z"/>
						<polygon fill="#393143" points="44.1,124.9 51.9,124.9 54.6,126.8 63.5,128.9 64.7,132 44.1,132 						"/>
						<polygon fill="#393143" points="17,125.5 24.2,125.5 24.2,132.6 14.9,132.6 						"/>
						<polygon fill="#00522A" points="60,27.5 59.4,26.9 54.8,32.3 56.4,25.9 51.2,20.2 49.4,21.2 51.7,28.5 54.9,26.9 53.7,34.7 
							58.9,28.7 58.4,32.5 59,32.6 						"/>
					</g>
				</g>
			</g>
		</g>
	</g>
</g>
</svg>
