<?xml version="1.0" encoding="utf-8"?>
<!-- Generator: Adobe Illustrator 16.0.0, SVG Export Plug-In . SVG Version: 6.00 Build 0)  -->
<!DOCTYPE svg PUBLIC "-//W3C//DTD SVG 1.1//EN" "http://www.w3.org/Graphics/SVG/1.1/DTD/svg11.dtd">
<svg version="1.1" id="Layer_1" xmlns="http://www.w3.org/2000/svg" xmlns:xlink="http://www.w3.org/1999/xlink" x="0px" y="0px"
	 width="70px" height="70px" viewBox="0 0 70 70" enable-background="new 0 0 70 70" xml:space="preserve">
<linearGradient id="SVGID_1_" gradientUnits="userSpaceOnUse" x1="59.5293" y1="13.5469" x2="60.5293" y2="13.5469">
	<stop  offset="0" style="stop-color:#6DC067"/>
	<stop  offset="1" style="stop-color:#79CDD1"/>
</linearGradient>
<line fill="#99BF48" stroke="url(#SVGID_1_)" stroke-miterlimit="10" x1="60.029" y1="9.117" x2="60.029" y2="17.977"/>
<linearGradient id="SVGID_2_" gradientUnits="userSpaceOnUse" x1="55.6494" y1="13.5459" x2="64.4063" y2="13.5459">
	<stop  offset="0" style="stop-color:#6DC067"/>
	<stop  offset="1" style="stop-color:#79CDD1"/>
</linearGradient>
<line fill="#99BF48" stroke="url(#SVGID_2_)" stroke-miterlimit="10" x1="64.406" y1="13.546" x2="55.649" y2="13.546"/>
<linearGradient id="SVGID_3_" gradientUnits="userSpaceOnUse" x1="4.4766" y1="14.0146" x2="7.5078" y2="14.0146">
	<stop  offset="0" style="stop-color:#6DC067"/>
	<stop  offset="1" style="stop-color:#79CDD1"/>
</linearGradient>
<path fill="url(#SVGID_3_)" d="M7.508,14.014c0,0.846-0.68,1.536-1.52,1.536c-0.837,0-1.511-0.69-1.511-1.536
	c0-0.848,0.674-1.534,1.511-1.534C6.828,12.48,7.508,13.166,7.508,14.014"/>
<linearGradient id="SVGID_4_" gradientUnits="userSpaceOnUse" x1="4.4766" y1="14.0146" x2="7.5078" y2="14.0146">
	<stop  offset="0" style="stop-color:#6DC067"/>
	<stop  offset="1" style="stop-color:#79CDD1"/>
</linearGradient>
<path fill="url(#SVGID_4_)" d="M7.508,14.014c0,0.846-0.68,1.536-1.52,1.536c-0.837,0-1.511-0.69-1.511-1.536
	c0-0.848,0.674-1.534,1.511-1.534C6.828,12.48,7.508,13.166,7.508,14.014z"/>
<linearGradient id="SVGID_5_" gradientUnits="userSpaceOnUse" x1="12.4912" y1="6.2383" x2="15.5278" y2="6.2383">
	<stop  offset="0" style="stop-color:#6DC067"/>
	<stop  offset="1" style="stop-color:#79CDD1"/>
</linearGradient>
<path fill="url(#SVGID_5_)" d="M15.528,6.238c0,0.849-0.677,1.534-1.52,1.534c-0.84,0-1.517-0.686-1.517-1.534
	c0-0.845,0.677-1.534,1.517-1.534C14.851,4.704,15.528,5.393,15.528,6.238"/>
<linearGradient id="SVGID_6_" gradientUnits="userSpaceOnUse" x1="12.4912" y1="6.2383" x2="15.5278" y2="6.2383">
	<stop  offset="0" style="stop-color:#6DC067"/>
	<stop  offset="1" style="stop-color:#79CDD1"/>
</linearGradient>
<path fill="url(#SVGID_6_)" d="M15.528,6.238c0,0.849-0.677,1.534-1.52,1.534c-0.84,0-1.517-0.686-1.517-1.534
	c0-0.845,0.677-1.534,1.517-1.534C14.851,4.704,15.528,5.393,15.528,6.238z"/>
<linearGradient id="SVGID_7_" gradientUnits="userSpaceOnUse" x1="16.3354" y1="16.2349" x2="21.2197" y2="16.2349">
	<stop  offset="0" style="stop-color:#6DC067"/>
	<stop  offset="1" style="stop-color:#79CDD1"/>
</linearGradient>
<path fill="url(#SVGID_7_)" d="M21.22,16.232c0,1.37-1.091,2.473-2.441,2.473c-1.343,0-2.443-1.103-2.443-2.473
	c0-1.364,1.1-2.467,2.443-2.467C20.128,13.765,21.22,14.868,21.22,16.232"/>
<linearGradient id="SVGID_8_" gradientUnits="userSpaceOnUse" x1="2.7549" y1="43.1152" x2="69.3516" y2="43.1152">
	<stop  offset="0" style="stop-color:#6DC067"/>
	<stop  offset="1" style="stop-color:#79CDD1"/>
</linearGradient>
<path fill="url(#SVGID_8_)" d="M67.438,34.133c-1.329-1.329-2.858-1.677-3.6-1.836c-0.893-0.199-1.835-0.246-2.742-0.13
	c-3.688-8.557-13.547-14.353-25.038-14.353c-10.839,0-20.421,5.84-24.324,14.483c-1.144-0.246-2.313-0.246-3.454,0.014
	c-0.738,0.16-2.271,0.507-3.602,1.836c-0.243,0.246-2.34,2.443-1.848,5.58c0.475,3.107,3.165,5.042,5.464,5.536
	c0.793,0.173,1.605,0.159,2.401-0.014c0.072-0.015,0.141-0.031,0.199-0.045c0.232,0.39,0.97,2.457-0.821,11.36
	c-0.044,0.232-0.03,0.479,0.042,0.71c1.055,3.382,2.76,5.03,5.55,5.347c0.055,0,0.102,0.015,0.16,0.015v4.337
	c0,0.795,0.649,1.442,1.445,1.442c0.796,0,1.445-0.647,1.445-1.442v-4.337h34.689v4.337c0,0.795,0.65,1.442,1.445,1.442
	c0.797,0,1.447-0.647,1.447-1.442v-4.337c0.057,0,0.1,0,0.156-0.015c2.79-0.316,4.513-1.965,5.55-5.347
	c0.074-0.231,0.088-0.478,0.046-0.71c-1.793-8.918-1.055-10.984-0.823-11.36c0.057,0.014,0.13,0.03,0.201,0.045
	c0.78,0.173,1.605,0.187,2.384,0.014c2.298-0.494,4.987-2.429,5.468-5.536C69.768,36.576,67.67,34.379,67.438,34.133 M36.058,20.704
	c10.207,0,18.95,4.974,22.275,12.361c-0.489,0.274-0.967,0.58-1.417,0.909c-1.255,0.884-2.369,1.98-3.251,3.255
	c-0.682,0.995-1.216,2.081-1.617,3.22c-1.101,3.037-1.417,6.651-1.505,9.165H21.575c-0.083-2.514-0.417-6.128-1.503-9.165
	c-0.401-1.139-0.937-2.225-1.619-3.22c-0.879-1.26-1.979-2.371-3.25-3.255c-0.261-0.185-0.536-0.373-0.812-0.547
	C17.845,25.837,26.39,20.704,36.058,20.704 M66.442,39.278c-0.288,1.866-2.081,2.906-3.209,3.139
	c-0.419,0.085-0.84,0.07-1.244-0.031c-0.492-0.099-1.171-0.229-1.938,0.13c-2.414,1.086-2.672,5.22-0.893,14.239
	c-0.914,2.673-2.054,2.876-2.921,2.975H15.894c-0.865-0.099-2.02-0.302-2.918-2.975c1.777-9.02,1.517-13.153-0.895-14.239
	c-0.768-0.345-1.445-0.215-1.937-0.13c-0.406,0.102-0.84,0.116-1.246,0.031c-1.127-0.246-2.918-1.272-3.208-3.139
	c-0.276-1.749,1.028-3.092,1.028-3.107c0.735-0.738,1.633-0.938,2.18-1.054c0.738-0.174,1.517-0.174,2.255,0
	c0.956,0.218,1.546,0.633,2.386,1.213c0.981,0.696,1.851,1.547,2.531,2.526c0.533,0.798,0.953,1.666,1.271,2.563
	c1.169,3.279,1.359,7.444,1.359,9.625c0,0.797,0.65,1.444,1.445,1.444h31.8c0.795,0,1.445-0.647,1.445-1.444
	c0-2.197,0.187-6.359,1.357-9.64c0.319-0.896,0.737-1.765,1.272-2.559c0.692-0.984,1.546-1.853,2.53-2.529
	c0.823-0.58,1.431-0.997,2.369-1.213c0.753-0.16,1.519-0.16,2.269,0c0.551,0.116,1.447,0.315,2.183,1.053
	C65.402,36.187,66.703,37.529,66.442,39.278"/>
<linearGradient id="SVGID_9_" gradientUnits="userSpaceOnUse" x1="2.7549" y1="43.1152" x2="69.3516" y2="43.1152">
	<stop  offset="0" style="stop-color:#6DC067"/>
	<stop  offset="1" style="stop-color:#79CDD1"/>
</linearGradient>
<path fill="url(#SVGID_9_)" d="M67.438,34.133c-1.329-1.329-2.858-1.677-3.6-1.836c-0.893-0.199-1.835-0.246-2.742-0.13
	c-3.688-8.557-13.547-14.353-25.038-14.353c-10.839,0-20.421,5.84-24.324,14.483c-1.144-0.246-2.313-0.246-3.454,0.014
	c-0.738,0.16-2.271,0.507-3.602,1.836c-0.243,0.246-2.34,2.443-1.848,5.58c0.475,3.107,3.165,5.042,5.464,5.536
	c0.793,0.173,1.605,0.159,2.401-0.014c0.072-0.015,0.141-0.031,0.199-0.045c0.232,0.39,0.97,2.457-0.821,11.36
	c-0.044,0.232-0.03,0.479,0.042,0.71c1.055,3.382,2.76,5.03,5.55,5.347c0.055,0,0.102,0.015,0.16,0.015v4.337
	c0,0.795,0.649,1.442,1.445,1.442c0.796,0,1.445-0.647,1.445-1.442v-4.337h34.689v4.337c0,0.795,0.65,1.442,1.445,1.442
	c0.797,0,1.447-0.647,1.447-1.442v-4.337c0.057,0,0.1,0,0.156-0.015c2.79-0.316,4.513-1.965,5.55-5.347
	c0.074-0.231,0.088-0.478,0.046-0.71c-1.793-8.918-1.055-10.984-0.823-11.36c0.057,0.014,0.13,0.03,0.201,0.045
	c0.78,0.173,1.605,0.187,2.384,0.014c2.298-0.494,4.987-2.429,5.468-5.536C69.768,36.576,67.67,34.379,67.438,34.133z
	 M36.058,20.704c10.207,0,18.95,4.974,22.275,12.361c-0.489,0.274-0.967,0.58-1.417,0.909c-1.255,0.884-2.369,1.98-3.251,3.255
	c-0.682,0.995-1.216,2.081-1.617,3.22c-1.101,3.037-1.417,6.651-1.505,9.165H21.575c-0.083-2.514-0.417-6.128-1.503-9.165
	c-0.401-1.139-0.937-2.225-1.619-3.22c-0.879-1.26-1.979-2.371-3.25-3.255c-0.261-0.185-0.536-0.373-0.812-0.547
	C17.845,25.837,26.39,20.704,36.058,20.704z M66.442,39.278c-0.288,1.866-2.081,2.906-3.209,3.139
	c-0.419,0.085-0.84,0.07-1.244-0.031c-0.492-0.099-1.171-0.229-1.938,0.13c-2.414,1.086-2.672,5.22-0.893,14.239
	c-0.914,2.673-2.054,2.876-2.921,2.975H15.894c-0.865-0.099-2.02-0.302-2.918-2.975c1.777-9.02,1.517-13.153-0.895-14.239
	c-0.768-0.345-1.445-0.215-1.937-0.13c-0.406,0.102-0.84,0.116-1.246,0.031c-1.127-0.246-2.918-1.272-3.208-3.139
	c-0.276-1.749,1.028-3.092,1.028-3.107c0.735-0.738,1.633-0.938,2.18-1.054c0.738-0.174,1.517-0.174,2.255,0
	c0.956,0.218,1.546,0.633,2.386,1.213c0.981,0.696,1.851,1.547,2.531,2.526c0.533,0.798,0.953,1.666,1.271,2.563
	c1.169,3.279,1.359,7.444,1.359,9.625c0,0.797,0.65,1.444,1.445,1.444h31.8c0.795,0,1.445-0.647,1.445-1.444
	c0-2.197,0.187-6.359,1.357-9.64c0.319-0.896,0.737-1.765,1.272-2.559c0.692-0.984,1.546-1.853,2.53-2.529
	c0.823-0.58,1.431-0.997,2.369-1.213c0.753-0.16,1.519-0.16,2.269,0c0.551,0.116,1.447,0.315,2.183,1.053
	C65.402,36.187,66.703,37.529,66.442,39.278z"/>
</svg>
