<?xml version="1.0" encoding="UTF-8"?>
<svg width="70px" height="71px" viewBox="0 0 70 71" version="1.1" xmlns="http://www.w3.org/2000/svg" xmlns:xlink="http://www.w3.org/1999/xlink">
    <!-- Generator: Sketch 53 (72520) - https://sketchapp.com -->
    <title>Wall Hanging WC  </title>
    <desc>Created with Sketch.</desc>
    <defs>
        <linearGradient x1="5.63673899%" y1="-11.1485635%" x2="51.5179728%" y2="97.7255544%" id="linearGradient-1">
            <stop stop-color="#64C866" offset="0%"></stop>
            <stop stop-color="#6EDADA" offset="100%"></stop>
        </linearGradient>
    </defs>
    <g id="Page-1" stroke="none" stroke-width="1" fill="none" fill-rule="evenodd">
        <path d="M8.5891239,13.11175 L16.9966453,13.11175 L16.9966453,10.7416667 C16.9966453,9.93958333 16.3415898,9.28333333 15.5344677,9.28333333 L10.0513015,9.28333333 C9.24417949,9.28333333 8.5891239,9.93958333 8.5891239,10.7416667 L8.5891239,13.11175 Z M8.5891239,18.9450833 L8.5891239,31.1583333 C8.5891239,31.9604167 9.24417949,32.6166667 10.0513015,32.6166667 L16.9966453,32.6166667 L16.9966453,18.9450833 L8.5891239,18.9450833 Z M28.5121716,33.0425 L28.5121716,26.0541667 L65.1572676,26.0541667 C67.8330527,26.0541667 70,28.2154167 70,30.8841667 C70,33.5529167 67.8330527,35.7170833 65.1572676,35.7170833 L64.1507046,35.7170833 L64.1507046,41.3229167 C64.1507046,47.83875 62.4428811,53.9608333 59.2143928,59.0329167 C55.4829155,64.8866667 50.7454599,67.98125 45.5079396,67.98125 L8.36365611,67.98125 L8.36365611,70.958 L6.39488462e-14,70.958 L6.39488462e-14,0.958 L8.36365611,0.958 L8.36365611,3.64609622 C8.90561338,3.517875 9.47068681,3.45 10.0513015,3.45 L15.5344677,3.45 C19.5642293,3.45 22.8453559,6.71958333 22.8453559,10.7416667 L22.8453559,33.0425 L28.5121716,33.0425 Z M8.36365611,62.1479167 L45.5079396,62.1479167 C48.6867138,62.1479167 51.6373883,60.045 54.2780811,55.9033333 C56.9100009,51.7704167 58.301994,46.7304167 58.301994,41.3229167 L58.301994,38.8758333 L8.86576791,38.8758333 C8.86869227,38.9691667 8.86869227,39.0625 8.86869227,39.1558333 C8.87746534,40.4158333 8.8862384,41.95 8.88916276,43.6125 C11.5386286,43.6445833 15.4689621,43.6825 17.7470349,43.6970833 C19.7268234,43.7145833 21.756326,45.2866667 21.8411323,48.7633333 C21.9493335,53.08 19.1536498,59.63375 12.8077988,59.9983333 C12.6684501,60.013495 10.4130446,60.0571178 8.36365611,60.0931627 L8.36365611,62.1479167 Z M8.36365611,54.2591142 C10.3165934,54.2221527 12.3775924,54.1771495 12.5446069,54.17375 C12.8107232,54.15625 13.845945,54.095 14.8197553,52.6920833 C15.542071,51.6479167 15.8725232,50.4083333 15.9690269,49.51875 C12.6583131,49.4948386 10.1955895,49.4693958 8.36365611,49.3970554 L8.36365611,54.2591142 Z" id="Wall-Hanging-WC--" fill="url(#linearGradient-1)" fill-rule="nonzero"></path>
    </g>
</svg>