<?xml version="1.0" encoding="utf-8"?>
<!-- Generator: Adobe Illustrator 16.0.0, SVG Export Plug-In . SVG Version: 6.00 Build 0)  -->
<!DOCTYPE svg PUBLIC "-//W3C//DTD SVG 1.1//EN" "http://www.w3.org/Graphics/SVG/1.1/DTD/svg11.dtd">
<svg version="1.1" id="Layer_1" xmlns="http://www.w3.org/2000/svg" xmlns:xlink="http://www.w3.org/1999/xlink" x="0px" y="0px"
	 width="24px" height="24px" viewBox="0 0 24 24" enable-background="new 0 0 24 24" xml:space="preserve">
<g>
	<g>
		<defs>
			<rect id="SVGID_1_" width="24" height="24"/>
		</defs>
		<clipPath id="SVGID_2_">
			<use xlink:href="#SVGID_1_"  overflow="visible"/>
		</clipPath>
		<path clip-path="url(#SVGID_2_)" fill="#9ABF48" d="M20.544,6.452c1.634,0,2.957-1.336,2.957-2.97c0-1.634-1.336-2.97-2.97-2.97
			h-4.596c-2.596,0-4.998,1.302-6.424,3.471L3.057,16.798c-0.038,0.058-0.067,0.123-0.087,0.187H2.526
			c-1.119,0-2.025,0.906-2.025,2.024h4.836v-0.86c0-0.461-0.268-0.859-0.657-1.049l6.1-12.282c1.146-1.741,3.074-2.787,5.158-2.787
			h4.595c0.796,0,1.442,0.655,1.442,1.451s-0.635,1.447-1.431,1.447c-1.829,0-3.305,1.492-3.305,3.321v4.988l1.265-0.227
			c0.085-0.015,0.153-0.025,0.255-0.031V8.25C18.759,7.259,19.553,6.452,20.544,6.452"/>
	</g>
	<g>
		<defs>
			<rect id="SVGID_3_" width="24" height="24"/>
		</defs>
		<clipPath id="SVGID_4_">
			<use xlink:href="#SVGID_3_"  overflow="visible"/>
		</clipPath>
		<path clip-path="url(#SVGID_4_)" fill="none" stroke="#99BF48" stroke-width="0.75" stroke-miterlimit="10" d="M20.544,6.452
			c1.634,0,2.957-1.336,2.957-2.97c0-1.634-1.336-2.97-2.97-2.97h-4.596c-2.596,0-4.998,1.302-6.424,3.471L3.057,16.798
			c-0.038,0.058-0.067,0.123-0.087,0.187H2.526c-1.119,0-2.025,0.906-2.025,2.024h4.836v-0.86c0-0.461-0.268-0.859-0.657-1.049
			l6.1-12.282c1.146-1.741,3.074-2.787,5.158-2.787h4.595c0.796,0,1.442,0.655,1.442,1.451s-0.635,1.447-1.431,1.447
			c-1.829,0-3.305,1.492-3.305,3.321v4.988l1.265-0.227c0.085-0.015,0.153-0.025,0.255-0.031V8.25
			C18.759,7.259,19.553,6.452,20.544,6.452z"/>
	</g>
	<g>
		<defs>
			<rect id="SVGID_5_" width="24" height="24"/>
		</defs>
		<clipPath id="SVGID_6_">
			<use xlink:href="#SVGID_5_"  overflow="visible"/>
		</clipPath>
		<path clip-path="url(#SVGID_6_)" fill="#9ABF48" d="M18.656,14.009l-6.109,1.093c-1.212,0.217-2.119,1.201-2.252,2.399
			c0.034-0.007,0.07-0.012,0.108-0.012h1.114c0.28,0,0.506,0.227,0.506,0.507c0,0.279-0.226,0.506-0.506,0.506h-1.114
			c-0.044,0-0.101-0.006-0.152-0.018v1.588h8.09c-0.169-0.305-0.266-0.643-0.266-1.006c0-1.108,0.889-2.015,1.998-2.015
			c0.108,0,0.204,0.005,0.306,0.021v-1.603c0-0.441-0.181-0.856-0.52-1.141C19.521,14.049,19.091,13.932,18.656,14.009"/>
	</g>
	<g>
		<defs>
			<rect id="SVGID_7_" width="24" height="24"/>
		</defs>
		<clipPath id="SVGID_8_">
			<use xlink:href="#SVGID_7_"  overflow="visible"/>
		</clipPath>
		<path clip-path="url(#SVGID_8_)" fill="none" stroke="#99BF48" stroke-width="0.75" stroke-miterlimit="10" d="M18.656,14.009
			l-6.109,1.093c-1.212,0.217-2.119,1.201-2.252,2.399c0.034-0.007,0.07-0.012,0.108-0.012h1.114c0.28,0,0.506,0.227,0.506,0.507
			c0,0.279-0.226,0.506-0.506,0.506h-1.114c-0.044,0-0.101-0.006-0.152-0.018v1.588h8.09c-0.169-0.305-0.266-0.643-0.266-1.006
			c0-1.108,0.889-2.015,1.998-2.015c0.108,0,0.204,0.005,0.306,0.021v-1.603c0-0.441-0.181-0.856-0.52-1.141
			C19.521,14.049,19.091,13.932,18.656,14.009z"/>
	</g>
	<g>
		<defs>
			<rect id="SVGID_9_" width="24" height="24"/>
		</defs>
		<clipPath id="SVGID_10_">
			<use xlink:href="#SVGID_9_"  overflow="visible"/>
		</clipPath>
		<path clip-path="url(#SVGID_10_)" fill="#9ABF48" d="M20.086,18.063c-0.551,0-0.998,0.446-0.998,0.998
			c0,0.549,0.447,0.998,0.998,0.998s0.997-0.449,0.997-0.998C21.083,18.509,20.637,18.063,20.086,18.063"/>
	</g>
	<g>
		<defs>
			<rect id="SVGID_11_" width="24" height="24"/>
		</defs>
		<clipPath id="SVGID_12_">
			<use xlink:href="#SVGID_11_"  overflow="visible"/>
		</clipPath>
		
			<circle clip-path="url(#SVGID_12_)" fill="none" stroke="#99BF48" stroke-width="0.75" stroke-miterlimit="10" cx="20.086" cy="19.061" r="0.998"/>
	</g>
	<g>
		<defs>
			<rect id="SVGID_13_" width="24" height="24"/>
		</defs>
		<clipPath id="SVGID_14_">
			<use xlink:href="#SVGID_13_"  overflow="visible"/>
		</clipPath>
		<path clip-path="url(#SVGID_14_)" fill="#99BF48" d="M21.958,21.936h-20V10.167h20V21.936z M23.958,8.167h-24v15.769h24V8.167z"/>
	</g>
	<g>
		<defs>
			<rect id="SVGID_15_" width="24" height="24"/>
		</defs>
		<clipPath id="SVGID_16_">
			<use xlink:href="#SVGID_15_"  overflow="visible"/>
		</clipPath>
		<line clip-path="url(#SVGID_16_)" fill="none" x1="6.917" y1="10.125" x2="6.917" y2="21.958"/>
	</g>
	<g>
		<defs>
			<rect id="SVGID_17_" width="24" height="24"/>
		</defs>
		<clipPath id="SVGID_18_">
			<use xlink:href="#SVGID_17_"  overflow="visible"/>
		</clipPath>
		
			<line clip-path="url(#SVGID_18_)" fill="none" stroke="#99BF48" stroke-width="2" stroke-miterlimit="10" x1="6.917" y1="10.125" x2="6.917" y2="21.958"/>
	</g>
</g>
</svg>
