<?xml version="1.0" encoding="UTF-8"?>
<svg width="71px" height="71px" viewBox="0 0 71 71" version="1.1" xmlns="http://www.w3.org/2000/svg" xmlns:xlink="http://www.w3.org/1999/xlink">
    <!-- Generator: Sketch 53 (72520) - https://sketchapp.com -->
    <title>Soap Holder </title>
    <desc>Created with Sketch.</desc>
    <defs>
        <linearGradient x1="5.63673899%" y1="-11.1485635%" x2="51.5179728%" y2="97.7255544%" id="linearGradient-1">
            <stop stop-color="#64C866" offset="0%"></stop>
            <stop stop-color="#6EDADA" offset="100%"></stop>
        </linearGradient>
    </defs>
    <g id="Page-1" stroke="none" stroke-width="1" fill="none" fill-rule="evenodd">
        <path d="M21.0987737,33.0621596 C18.5434053,33.0621596 16.0558263,34.0409787 14.0987737,35.8480294 C11.7556158,38.0095884 10.4116158,41.1405547 10.4116158,44.4377949 C10.4116158,47.7381722 11.7556158,50.8691386 14.0987737,53.0338348 C16.4419316,55.1953937 19.5455105,56.1679384 22.6107737,55.7036267 L32.7379316,54.1632415 C34.3206684,53.9216739 35.9269842,53.9216739 37.5097211,54.1632415 L47.7636158,55.7036267 C50.8318263,56.1710756 53.9413,55.1953937 56.2844579,53.0306975 C58.6276158,50.8691386 59.9686684,47.7381722 59.9686684,44.4377949 C59.9686684,41.1405547 58.6246684,38.0095884 56.2844579,35.8448922 C53.9413,33.6833333 50.8436158,32.7170631 47.7695105,33.1782375 L37.5038263,34.7154855 C35.9269842,34.9570531 34.3236158,34.9570531 32.7379316,34.7154855 L22.6107737,33.1782375 C22.1067737,33.0998065 21.5998263,33.0621596 21.0987737,33.0621596 Z M6.30593158,53.9436346 L6.30593158,59.1106703 C6.30593158,61.9090891 8.59014211,64.2745687 11.2928789,64.2745687 L59.0903526,64.2745687 C61.7636158,64.2745687 63.9417211,61.9561477 63.9417211,59.1106703 L63.9417211,53.9436346 L63.5939316,53.9436346 C60.0541421,59.9985094 53.5817211,63.2298675 46.8970895,62.2165387 L36.6402474,60.6761535 C35.6351947,60.5255659 34.6154053,60.5224287 33.6133,60.6761535 L23.4861421,62.2165387 C16.7985632,63.2330048 10.3261421,59.9953722 6.78635263,53.9436346 L6.30593158,53.9436346 Z M59.0903526,70.8565 L11.2928789,70.8565 C5.13287895,70.8565 0.1253,65.5859354 0.1253,59.1106703 L0.1253,50.652669 C0.1253,48.8393438 1.51056316,47.3648406 3.21708947,47.3648406 L4.45498421,47.3648406 C4.30466842,46.3954332 4.22803684,45.416614 4.22803684,44.4377949 C4.22803684,39.2331123 6.35014211,34.2888208 10.0490895,30.8723655 C13.7450895,27.4621847 18.6347737,25.9312111 23.4861421,26.6621883 L33.6133,28.2025735 C34.6154053,28.3562983 35.6351947,28.3562983 36.6343526,28.2025735 L46.9000368,26.6621883 C51.7396158,25.9280739 56.6351947,27.4590474 60.3311947,30.8723655 C64.0301421,34.2888208 66.1522474,39.2331123 66.1522474,44.4377949 C66.1522474,45.416614 66.0756158,46.3954332 65.9253,47.3648406 L67.0335105,47.3648406 C68.7370895,47.3648406 70.1253,48.8393438 70.1253,50.652669 L70.1253,59.1106703 C70.1253,65.5859354 65.1737211,70.8565 59.0903526,70.8565 Z M35.1255947,44.92093 C31.6329632,44.92093 28.1639105,44.1334825 24.8186474,42.5774111 L24.8157,42.5774111 C24.0582263,42.2260401 23.4746474,41.5829057 23.1740158,40.7672231 C22.8704368,39.9484032 22.8881211,39.0542896 23.2182263,38.2448815 C23.5483316,37.444885 24.1495947,36.8205741 24.9188579,36.5005755 C25.6910684,36.180577 26.5281211,36.1994004 27.2855947,36.5476342 C32.4906474,38.9601724 38.2114895,38.8566434 43.0039105,36.5413597 C44.5571737,35.7884219 46.3904368,36.5225362 47.0978053,38.1727249 C47.8022263,39.8260508 47.1154895,41.7805519 45.5622263,42.5334897 C42.3319105,44.0958356 38.7243316,44.92093 35.1255947,44.92093 Z M47.0406263,7.43717639 C44.3644158,7.43717639 42.1892579,9.75559737 42.1892579,12.6010748 C42.1892579,15.4496895 44.3644158,17.7681105 47.0406263,17.7681105 C49.7168368,17.7681105 51.8919947,15.4496895 51.8919947,12.6010748 C51.8919947,9.75559737 49.7168368,7.43717639 47.0406263,7.43717639 Z M47.0406263,20.1210411 C43.1471526,20.1210411 39.9787316,16.7485072 39.9787316,12.6010748 C39.9787316,8.45677966 43.1471526,5.08424576 47.0406263,5.08424576 C50.9341,5.08424576 54.1025211,8.45677966 54.1025211,12.6010748 C54.1025211,16.7485072 50.9341,20.1210411 47.0406263,20.1210411 Z M35.1217632,24.3500418 C33.4181842,24.3500418 32.0299737,22.8724013 32.0299737,21.0590761 C32.0299737,19.2457509 33.4181842,17.7681105 35.1217632,17.7681105 C36.8253421,17.7681105 38.2135526,19.2457509 38.2135526,21.0590761 C38.2135526,22.8724013 36.8253421,24.3500418 35.1217632,24.3500418 Z M58.9538895,24.3500418 C57.2503105,24.3500418 55.8621,22.8724013 55.8621,21.0590761 C55.8621,19.2457509 57.2503105,17.7681105 58.9538895,17.7681105 C60.6574684,17.7681105 62.0456789,19.2457509 62.0456789,21.0590761 C62.0456789,22.8724013 60.6574684,24.3500418 58.9538895,24.3500418 Z M23.2085,3.20943063 C20.5322895,3.20943063 18.3571316,5.52785161 18.3571316,8.37332906 C18.3571316,11.2219437 20.5322895,13.5403647 23.2085,13.5403647 C25.8847105,13.5403647 28.0598684,11.2219437 28.0598684,8.37332906 C28.0598684,5.52785161 25.8847105,3.20943063 23.2085,3.20943063 Z M23.2085,15.8932954 C19.3150263,15.8932954 16.1466053,12.5207614 16.1466053,8.37332906 C16.1466053,4.2290339 19.3150263,0.8565 23.2085,0.8565 C27.1019737,0.8565 30.2703947,4.2290339 30.2703947,8.37332906 C30.2703947,12.5207614 27.1019737,15.8932954 23.2085,15.8932954 Z" id="Soap-Holder-" fill="url(#linearGradient-1)" fill-rule="nonzero"></path>
    </g>
</svg>