<?xml version="1.0" encoding="UTF-8"?>
<svg width="70px" height="70px" viewBox="0 0 70 70" version="1.1" xmlns="http://www.w3.org/2000/svg" xmlns:xlink="http://www.w3.org/1999/xlink">
    <!-- Generator: Sketch 53 (72520) - https://sketchapp.com -->
    <title>4'' Drain Jali Fixing  </title>
    <desc>Created with Sketch.</desc>
    <defs>
        <linearGradient x1="5.63673899%" y1="-11.1485635%" x2="51.5179728%" y2="97.7255544%" id="linearGradient-1">
            <stop stop-color="#64C866" offset="0%"></stop>
            <stop stop-color="#6EDADA" offset="100%"></stop>
        </linearGradient>
    </defs>
    <g id="Page-1" stroke="none" stroke-width="1" fill="none" fill-rule="evenodd">
        <path d="M64.2366667,34.9622833 C62.1395833,35.2422833 60.2145833,33.7693667 59.9345833,31.6722833 C59.6575,29.5752 61.1275,27.6502 63.2245833,27.3702 C65.31875,27.0931167 67.24375,28.5660333 67.52375,30.6602 C67.80375,32.7543667 66.3308333,34.6793667 64.2366667,34.9622833 M65.8583333,46.1506167 C65.1408333,48.1397833 62.9475,49.1693667 60.9583333,48.44895 C58.9691667,47.73145 57.9395833,45.5381167 58.6570833,43.54895 C59.3775,41.5627 61.5708333,40.5302 63.56,41.2477 C65.5491667,41.9681167 66.57875,44.16145 65.8583333,46.1506167 M57.2366667,59.1268667 C55.6820833,60.55895 53.26125,60.4627 51.8291667,58.9081167 C50.3941667,57.3535333 50.4933333,54.9327 52.0479167,53.4977 C53.6025,52.0656167 56.02625,52.1618667 57.4583333,53.7193667 C58.8904167,55.27395 58.79125,57.6947833 57.2366667,59.1268667 M49.8575,45.0335333 C50.70625,43.7793667 52.4154167,43.4497833 53.6695833,44.30145 C54.9266667,45.1531167 55.2533333,46.8593667 54.4045833,48.11645 C53.5529167,49.3706167 51.84375,49.7002 50.5895833,48.8485333 C49.3354167,47.9997833 49.0058333,46.2906167 49.8575,45.0335333 M46.92625,21.4406167 C45.7945833,20.4343667 45.6954167,18.69895 46.7045833,17.5643667 C47.71375,16.4327 49.4491667,16.3335333 50.5808333,17.3427 C51.7154167,18.3547833 51.8145833,20.0872833 50.8054167,21.21895 C49.7933333,22.3535333 48.0579167,22.4527 46.92625,21.4406167 M47.2733333,34.41395 C46.3895833,34.57145 45.5408333,33.9852 45.3804167,33.10145 C45.22,32.2177 45.80625,31.3718667 46.69,31.2085333 C47.5766667,31.0481167 48.4254167,31.6343667 48.5858333,32.5181167 C48.74625,33.4047833 48.16,34.2535333 47.2733333,34.41395 M48.1891667,39.1360333 C47.92375,39.99645 47.0108333,40.4777 46.1504167,40.2093667 C45.2929167,39.94395 44.8116667,39.03395 45.0770833,38.1735333 C45.3425,37.3160333 46.2525,36.8347833 47.1129167,37.0972833 C47.9704167,37.3627 48.4516667,38.2756167 48.1891667,39.1360333 M46.1183333,55.6152 C44.7825,56.3356167 43.1170833,55.8397833 42.3966667,54.5068667 C41.6733333,53.1710333 42.1691667,51.5056167 43.505,50.7852 C44.8379167,50.0647833 46.5033333,50.5606167 47.2266667,51.8935333 C47.9470833,53.2293667 47.45125,54.8947833 46.1183333,55.6152 M43.60125,66.6635333 C41.5625,67.2206167 39.4566667,66.0131167 38.9025,63.97145 C38.35125,61.9327 39.5558333,59.8297833 41.5945833,59.2756167 C43.63625,58.72145 45.7391667,59.92895 46.2933333,61.9677 C46.8475,64.00645 45.6429167,66.1122833 43.60125,66.6635333 M37.09125,47.2472833 C36.8170833,46.3927 37.2866667,45.47395 38.14125,45.1997833 C38.9958333,44.9227 39.9145833,45.3893667 40.1916667,46.2468667 C40.46875,47.10145 39.99625,48.0231167 39.1416667,48.2972833 C38.2870833,48.5743667 37.3683333,48.1047833 37.09125,47.2472833 M35.30625,58.4472833 C33.7895833,58.4735333 32.5383333,57.2631167 32.515,55.74645 C32.48875,54.2297833 33.6991667,52.98145 35.2158333,52.9552 C36.7325,52.92895 37.9808333,54.1393667 38.0070833,55.6560333 C38.0304167,57.1727 36.8229167,58.4210333 35.30625,58.4472833 M32.5791667,64.1347833 C32.1329167,66.1997833 30.09125,67.5122833 28.02625,67.0631167 C25.96125,66.61395 24.64875,64.5722833 25.1008333,62.5072833 C25.55,60.4422833 27.58875,59.1297833 29.65375,59.57895 C31.71875,60.0310333 33.03125,62.0697833 32.5791667,64.1347833 M23.1758333,52.2872833 C23.8525,50.93395 25.5033333,50.3827 26.8595833,51.0593667 C28.2158333,51.7360333 28.7670833,53.38395 28.0904167,54.7431167 C27.41375,56.0993667 25.7629167,56.6506167 24.4066667,55.97395 C23.0504167,55.2972833 22.4991667,53.64645 23.1758333,52.2872833 M22.2541667,41.0231167 C21.86625,40.2122833 22.2104167,39.2410333 23.0241667,38.8531167 C23.835,38.4652 24.80625,38.8093667 25.1941667,39.6231167 C25.5820833,40.43395 25.235,41.4052 24.4241667,41.7931167 C23.6133333,42.1810333 22.6420833,41.83395 22.2541667,41.0231167 M20.90375,34.53645 C20.9329167,33.6381167 21.6883333,32.9352 22.5866667,32.9643667 C23.485,32.9935333 24.1908333,33.74895 24.15875,34.6472833 C24.1266667,35.5456167 23.3741667,36.2485333 22.4758333,36.2193667 C21.5775,36.1872833 20.8716667,35.4347833 20.90375,34.53645 M19.71375,49.35895 C18.4858333,50.2485333 16.7708333,49.9772833 15.8783333,48.7522833 C14.9858333,47.5243667 15.2570833,45.80645 16.485,44.91395 C17.71,44.02145 19.4279167,44.2956167 20.3204167,45.5206167 C21.2129167,46.7485333 20.9416667,48.46645 19.71375,49.35895 M19.4133333,59.7335333 C18.0629167,61.3610333 15.6508333,61.5827 14.0233333,60.2322833 C12.39875,58.87895 12.1741667,56.4668667 13.5275,54.8393667 C14.8779167,53.2147833 17.2929167,52.9931167 18.9175,54.34645 C20.545,55.69395 20.7666667,58.1118667 19.4133333,59.7335333 M9.76208333,49.7585333 C7.81375,50.5781167 5.57083333,49.6622833 4.75125,47.7110333 C3.93166667,45.7627 4.8475,43.5197833 6.79583333,42.6972833 C8.74708333,41.8806167 10.99,42.7993667 11.8095833,44.7447833 C12.6291667,46.6931167 11.7133333,48.93895 9.76208333,49.7585333 M2.29833333,32.3285333 C2.47041667,30.2197833 4.31666667,28.6506167 6.42541667,28.8256167 C8.53125,28.9947833 10.1004167,30.84395 9.92833333,32.9497833 C9.75625,35.0556167 7.90708333,36.6247833 5.80125,36.4556167 C3.6925,36.2806167 2.12625,34.43145 2.29833333,32.3285333 M7.21583333,17.54395 C8.34166667,15.7531167 10.7041667,15.2135333 12.495,16.33645 C14.2858333,17.4622833 14.8254167,19.8277 13.6995833,21.6185333 C12.57375,23.40645 10.21125,23.9460333 8.42041667,22.8202 C6.6325,21.6972833 6.09,19.3347833 7.21583333,17.54395 M17.0741667,37.5931167 C17.29875,39.0922833 16.2633333,40.4922833 14.7641667,40.7168667 C13.265,40.94145 11.865,39.90895 11.6404167,38.4097833 C11.4158333,36.9077 12.4483333,35.5106167 13.9475,35.2831167 C15.4466667,35.0585333 16.8466667,36.09395 17.0741667,37.5931167 M16.1408333,25.5706167 C17.5729167,26.0635333 18.34,27.62395 17.8470833,29.0618667 C17.3541667,30.49395 15.79375,31.2581167 14.35875,30.7681167 C12.92375,30.2752 12.1595833,28.7118667 12.6525,27.2768667 C13.1425,25.8447833 14.7058333,25.0777 16.1408333,25.5706167 M18.3983333,6.69686667 C20.2241667,5.62645 22.5691667,6.23603333 23.6395833,8.05895 C24.7070833,9.88478333 24.0975,12.2297833 22.2716667,13.3002 C20.44875,14.3677 18.10375,13.7581167 17.0333333,11.9322833 C15.9658333,10.1093667 16.5754167,7.76728333 18.3983333,6.69686667 M22.47,21.8460333 C21.3733333,22.8902 19.635,22.8493667 18.5879167,21.7527 C17.54375,20.6531167 17.5845833,18.9147833 18.6841667,17.8706167 C19.7808333,16.8235333 21.5191667,16.8672833 22.56625,17.96395 C23.6104167,19.0635333 23.5695833,20.8018667 22.47,21.8460333 M24.9170833,27.53645 C25.69875,27.9797833 25.9758333,28.97145 25.5325,29.7560333 C25.0920833,30.5377 24.0975,30.8147833 23.3158333,30.3743667 C22.53125,29.9310333 22.2541667,28.9393667 22.6975,28.1547833 C23.1379167,27.3702 24.1325,27.0960333 24.9170833,27.53645 M26.1275,43.8785333 C26.67,43.1610333 27.6879167,43.0152 28.4083333,43.5577 C29.1258333,44.1002 29.26875,45.1181167 28.72625,45.8385333 C28.18375,46.5560333 27.1629167,46.69895 26.4454167,46.15645 C25.7279167,45.61395 25.585,44.5960333 26.1275,43.8785333 M28.3733333,12.2997833 C29.8316667,11.8797833 31.3541667,12.7197833 31.7770833,14.1781167 C32.1970833,15.6335333 31.3570833,17.15895 29.9016667,17.57895 C28.4433333,18.0018667 26.9208333,17.15895 26.5008333,15.7035333 C26.0779167,14.2452 26.9179167,12.7256167 28.3733333,12.2997833 M35,2.1877 C37.1145833,2.1877 38.8295833,3.9027 38.8295833,6.01436667 C38.8295833,8.12895 37.1145833,9.84395 35,9.84395 C32.8854167,9.84395 31.1733333,8.12895 31.1733333,6.01436667 C31.1733333,3.9027 32.8854167,2.1877 35,2.1877 M39.3341667,25.2993667 C38.5175,24.9231167 38.1616667,23.9547833 38.5379167,23.1381167 C38.9141667,22.32145 39.8825,21.9656167 40.6991667,22.3418667 C41.5158333,22.7181167 41.8716667,23.68645 41.4954167,24.5031167 C41.1191667,25.3168667 40.1508333,25.6727 39.3341667,25.2993667 M32.6433333,22.77645 C32.6025,21.8781167 33.2966667,21.1168667 34.195,21.0731167 C35.0933333,21.0322833 35.8545833,21.72645 35.8983333,22.6247833 C35.9391667,23.5202 35.2479167,24.2843667 34.3466667,24.3281167 C33.4483333,24.36895 32.6870833,23.6747833 32.6433333,22.77645 M26.7545833,25.57645 C26.2645833,24.8210333 26.4775,23.8147833 27.23,23.3218667 C27.9854167,22.8318667 28.9945833,23.0447833 29.4845833,23.7972833 C29.9745833,24.5527 29.7616667,25.55895 29.0091667,26.04895 C28.2566667,26.5418667 27.2475,26.32895 26.7545833,25.57645 M34.4079167,47.4427 C34.2591667,48.3293667 33.4191667,48.9272833 32.5325,48.7785333 C31.6458333,48.6297833 31.0479167,47.7868667 31.1966667,46.9031167 C31.3483333,46.01645 32.1883333,45.4185333 33.0720833,45.5672833 C33.9616667,45.71895 34.5595833,46.55895 34.4079167,47.4427 M28.9245833,34.8777 C28.9245833,31.5206167 31.6458333,28.8022833 35,28.8022833 C38.3541667,28.8022833 41.0783333,31.5206167 41.0783333,34.8777 C41.0783333,38.2347833 38.3541667,40.9560333 35,40.9560333 C31.6458333,40.9560333 28.9245833,38.2347833 28.9245833,34.8777 M40.71375,12.0985333 C42.1808333,12.4718667 43.0704167,13.9681167 42.6970833,15.4381167 C42.32375,16.9081167 40.8304167,17.7947833 39.3604167,17.42145 C37.8904167,17.0481167 37.0008333,15.5547833 37.3741667,14.0847833 C37.7475,12.6147833 39.24375,11.7252 40.71375,12.0985333 M44.7708333,42.5193667 C45.4095833,43.1522833 45.4154167,44.1818667 44.7854167,44.8206167 C44.1525,45.4622833 43.1229167,45.4681167 42.48125,44.8381167 C41.8425,44.2052 41.83375,43.1727 42.4666667,42.53395 C43.0995833,41.8922833 44.1291667,41.88645 44.7708333,42.5193667 M43.60125,26.1772833 C44.31,25.6260333 45.3366667,25.7572833 45.885,26.4660333 C46.43625,27.1777 46.3079167,28.20145 45.59625,28.7497833 C44.8845833,29.30395 43.8608333,29.1727 43.3125,28.4610333 C42.76125,27.7493667 42.8895833,26.7285333 43.60125,26.1772833 M44.9720833,7.51645 C45.94625,5.64103333 48.2591667,4.90895 50.1345833,5.88603333 C52.01,6.8602 52.7420833,9.1702 51.765,11.0485333 C50.7908333,12.92395 48.4808333,13.6531167 46.6025,12.67895 C44.7270833,11.7018667 43.9979167,9.39186667 44.9720833,7.51645 M53.3779167,24.9552 C54.7954167,24.4185333 56.3820833,25.1302 56.91875,26.5477 C57.4583333,27.9681167 56.7466667,29.5547833 55.3291667,30.09145 C53.90875,30.6310333 52.325,29.9193667 51.7854167,28.49895 C51.2458333,27.0843667 51.9604167,25.4977 53.3779167,24.9552 M58.2954167,37.6397833 C58.1204167,39.1477 56.7583333,40.2268667 55.2504167,40.04895 C53.7454167,39.87395 52.66625,38.50895 52.84125,37.00395 C53.01625,35.49895 54.38125,34.4168667 55.8891667,34.5947833 C57.3941667,34.7697833 58.4733333,36.1318667 58.2954167,37.6397833 M56.525,15.2135333 C58.2545833,14.0002 60.6433333,14.4172833 61.8566667,16.1497833 C63.0729167,17.8793667 62.6529167,20.2652 60.9233333,21.48145 C59.19375,22.6947833 56.805,22.2747833 55.5916667,20.5481167 C54.3754167,18.8156167 54.7954167,16.4297833 56.525,15.2135333 M35,0.0002 C15.67125,0.0002 0,15.67145 0,35.0002 C0,54.32895 15.67125,70.0002 35,70.0002 C54.3316667,70.0002 70,54.32895 70,35.0002 C70,15.67145 54.3316667,0.0002 35,0.0002" id="4''-Drain-Jali-Fixing--" fill="url(#linearGradient-1)" fill-rule="nonzero"></path>
    </g>
</svg>