<svg id="Layer_1" data-name="Layer 1" xmlns="http://www.w3.org/2000/svg" xmlns:xlink="http://www.w3.org/1999/xlink" width="374.5" height="89.4" viewBox="0 0 374.5 89.4">
  <defs>
    <style>
      .cls-1 {
        fill: url(#linear-gradient);
      }

      .cls-2, .cls-4, .cls-5 {
        fill: #fff;
      }

      .cls-2 {
        opacity: 0.3;
      }

      .cls-2, .cls-3, .cls-4 {
        isolation: isolate;
      }

      .cls-4 {
        font-size: 16px;
        font-family: Montserrat-Medium, Montserrat;
      }
    </style>
    <linearGradient id="linear-gradient" x1="405.55" y1="126.36" x2="21.53" y2="-32.27" gradientUnits="userSpaceOnUse">
      <stop offset="0" stop-color="#75c9b9"/>
      <stop offset="1" stop-color="#72bde5"/>
    </linearGradient>
  </defs>
  <title>banner_PC001</title>
  <g id="Page-1">
    <g id="UI---Screen-7---v2">
      <g id="Group-2">
        <path id="Path-4" class="cls-1" d="M0,72.4C71,74,112,68.2,210.5,71c58.9,1.7,113.3,7.8,164,18.4V0H0Z"/>
        <rect id="Rectangle-Copy-2" class="cls-2" x="23.5" y="22" width="47" height="7" rx="3.3" ry="3.3"/>
        <path id="Rectangle-Copy-4" class="cls-2" d="M189.8,29h40.5a3.2,3.2,0,0,1,3.2,3.2v.5a3.2,3.2,0,0,1-3.2,3.2H189.8a3.3,3.3,0,0,1-3.2-3.2v-.5a3.3,3.3,0,0,1,3.3-3.2Z"/>
        <rect id="Rectangle-Copy-3" class="cls-2" x="64.5" y="35" width="47" height="7" rx="3.3" ry="3.3"/>
        <path id="Rectangle-Copy-5" class="cls-2" d="M236.8,42h40.5a3.3,3.3,0,0,1,3.3,3.3v.5a3.2,3.2,0,0,1-3.2,3.2H236.8a3.3,3.3,0,0,1-3.2-3.2v-.5A3.3,3.3,0,0,1,236.8,42Z"/>
        <g id="sweep">
          <g id="_" data-name="+" class="cls-3">
            <text class="cls-4" transform="translate(358 26)">+</text>
          </g>
          <g id="_-copy" data-name="+-copy" class="cls-3">
            <text class="cls-4" transform="translate(336.5 14)">+</text>
          </g>
        </g>
      </g>
    </g>
  </g>
  <g>
    <g>
      <path class="cls-5" d="M353,29.1l-3-1h-.6a.9.9,0,0,0-.3.6h-3.8a.7.7,0,1,0,0,1.4h3.8v.8h-5.9V28.5a.7.7,0,0,0-.7-.7H341V26.6a.7.7,0,0,0-.7-.7h-3.5v-.8h.7a.7.7,0,0,0,.7-.6l.5-1.9h.5a1.4,1.4,0,0,0,1.5-1.5,1.5,1.5,0,0,0-1.5-1.5h-6.1a1.5,1.5,0,0,0-1.5,1.5,1.4,1.4,0,0,0,1.5,1.5h.5l.5,1.9a.7.7,0,0,0,.7.6h.6v.8h-8.3a.6.6,0,0,0-.6.5l-3.3,9.8a.4.4,0,0,0,0,.5.8.8,0,0,0,.4.4h1.2l1.1-.2a2.6,2.6,0,0,0,1.2-1.5l2.1-6.1h2.1v5.2a.7.7,0,0,0,.7.7h.3v3.5h-2.5a3.9,3.9,0,0,0-3.8,3.3L323,63a3.9,3.9,0,0,0,.9,3.3,4.1,4.1,0,0,0,3.1,1.4h18.3a4.1,4.1,0,0,0,3.1-1.4,3.9,3.9,0,0,0,.9-3.3l-3-20.8a3.9,3.9,0,0,0-3.8-3.3h-2.6V35.4h.4a.7.7,0,0,0,.7-.7V33.6h1.5a.8.8,0,0,0,.7-.7v-.4h5.9a.7.7,0,0,0,.3.6h.6l3-1a.6.6,0,0,0,.5-.6V29.8A.8.8,0,0,0,353,29.1Zm-18.1-7.3a.7.7,0,0,0-.7-.6h3.9a.7.7,0,0,0-.7.6l-.4,1.9h-1.7Zm-6.2,6.3a.8.8,0,0,0-.7.4l-2.2,6.7a1.5,1.5,0,0,1-.5.6h-.5l2.8-8.6h3.7v.8Zm10.5,12.2h3.3a2.5,2.5,0,0,1,2.4,2.1l3,20.8a2.5,2.5,0,0,1-.6,2.2,2.9,2.9,0,0,1-2,.9H327a2.9,2.9,0,0,1-2-.9,2.5,2.5,0,0,1-.6-2.2l3-20.8a2.5,2.5,0,0,1,2.4-2.1h6.6a.7.7,0,1,0,0-1.4h-2.6V35.4h4.7v4.2A.8.8,0,0,0,339.2,40.3Zm2.6-8.1h-1.5a.7.7,0,0,0-.7.7V34h-6.9V27.3h6.9v1.2a.7.7,0,0,0,.7.7h1.5v3ZM352.1,31l-1.6.6V29.8l1.6.5Z"/>
      <path class="cls-5" d="M328.5,49.8h0a8.3,8.3,0,0,0-1.2,4.4,8.9,8.9,0,0,0,8.8,8.8,9,9,0,0,0,7.7-4.4h0a8.2,8.2,0,0,0,1.2-4.3,8.9,8.9,0,0,0-16.5-4.5Zm7.6,11.9a7.4,7.4,0,0,1-7.4-7.4,7.8,7.8,0,0,1,.7-3.1l4.1,2.3h-1.3a.7.7,0,1,0,0,1.4h1.3v.6h-.1a1.8,1.8,0,0,0-1.8,1.8v1.1a.7.7,0,1,0,1.4,0V57.4a.4.4,0,0,1,.4-.4h.3a2.4,2.4,0,0,0,.6.9,2.5,2.5,0,0,0,1.8.8,2.8,2.8,0,0,0,1.3-.3.8.8,0,0,0,.3-1,.9.9,0,0,0-1-.3l-.6.2a1.8,1.8,0,0,1-.9-.4,1.4,1.4,0,0,1-.3-.9V54.3l7.3,4.3A7.5,7.5,0,0,1,336.1,61.7Zm7.5-7.4a8.2,8.2,0,0,1-.7,3.1l-8-4.7v-.2a1.2,1.2,0,0,1,1.2-1.2,1.2,1.2,0,0,1,.9.3,1.3,1.3,0,0,1,.4.7.7.7,0,0,0,.7.6h.8a1.8,1.8,0,0,0,1.8-1.8v-1a.7.7,0,1,0-1.4,0v1a.4.4,0,0,1-.4.4h-.3a2.4,2.4,0,0,0-.6-.9,2.6,2.6,0,0,0-1.9-.8,2.6,2.6,0,0,0-2.4,1.7h-.3a.4.4,0,0,1-.4-.4v-1a.7.7,0,1,0-1.4,0v.7l-1.5-.8a7.4,7.4,0,0,1,6-3.2A7.6,7.6,0,0,1,343.6,54.3Z"/>
      <path class="cls-5" d="M340.1,53.6h-.5a.7.7,0,0,0,0,1.4h.5a.7.7,0,0,0,0-1.4Z"/>
      <path class="cls-5" d="M340,57.5a.7.7,0,0,0-.7.7v.3a.7.7,0,1,0,1.4,0v-.3A.7.7,0,0,0,340,57.5Z"/>
    </g>
    <g>
      <polygon class="cls-5" points="316.6 34.3 316.6 34.5 316.6 34.6 316.6 34.8 316.6 34.8 316.7 34.9 316.7 34.9 317.2 34.9 317.3 34.9 317.7 34.9 317.9 34.9 318.2 34.9 318.3 34.9 318.3 34.8 318.3 34.7 318.4 34.6 318.4 34.5 318.3 34.3 318.3 34.2 318.4 33.7 318.4 33.1 318.4 33 318.4 33 318.5 33 318.5 33.1 318.6 33.2 318.9 33.5 319 33.6 319.3 33.9 319.4 34 319.6 34.4 319.7 34.5 320 34.8 320.1 34.9 320.2 34.9 320.7 34.9 320.8 34.9 321.4 34.9 321.5 34.9 321.9 34.9 322 34.9 322.1 34.9 322.1 34.8 322.2 34.8 322.1 34.7 321.7 34.3 321.7 34.2 321.3 33.9 321.2 33.8 320.9 33.4 320.8 33.3 320.5 32.9 320.4 32.8 320 32.4 319.9 32.3 319.6 31.9 319.6 31.8 319.5 31.8 319.6 31.7 319.6 31.7 319.7 31.6 319.9 31.4 320 31.3 320.3 30.9 320.4 30.8 320.7 30.4 320.8 30.3 321.1 30 321.2 29.9 321.5 29.5 321.6 29.4 321.9 29 322 29 322 28.9 322 28.9 321.9 28.9 321.8 28.9 321.5 28.9 321.4 28.9 321.1 28.9 320.5 28.8 320.4 28.8 320 28.9 319.9 28.9 319.9 28.9 319.6 29.3 319.5 29.4 319.2 29.7 318.8 30.3 318.5 30.6 318.4 30.7 318.4 30.7 318.4 30.6 318.3 30.2 318.3 30 318.3 29.6 318.3 29.4 318.4 29.2 318.4 29.1 318.4 29 318.3 28.9 318.3 28.9 318.2 28.9 317.8 28.8 317.7 28.8 317.3 28.9 317.2 28.9 316.9 28.9 316.8 28.8 316.7 28.9 316.7 28.9 316.7 29 316.6 29.5 316.6 29.6 316.6 30.6 316.6 30.8 316.6 31.2 316.6 31.4 316.6 31.8 316.6 32.4 316.6 32.5 316.6 33 316.6 33.1 316.6 33.7 316.6 34.2 316.6 34.3"/>
      <g>
        <path class="cls-5" d="M303.6,34.8h4.6l.2-.2h.3v-.2h0v-.2h0V33h0v-.2h0v-.2h0v-.2h0l-.2-.2h-.2l.2-.2h.2v-.4h0v-.3h-.1v-.2h-.2l-.2-.2h-4.6v.5h0v.5h0v1h0v.5h0v1.2h0v.2h0v.5h0v.2h.1Zm3.5-2.1h-2v-.2h.1v-.4h1.9Zm-2-2.1v-.2h1.9v.2h-2v-.2h0Z"/>
        <polygon class="cls-5" points="311.6 29.7 311.6 29.6 311.6 29.2 311.6 29.1 311.6 29 311.6 28.9 311.5 28.9 311.4 28.8 311.3 28.8 311.1 28.8 310.8 28.9 310.7 28.9 310.3 28.8 310.2 28.8 310.1 28.8 309.9 28.9 309.9 28.9 309.8 29 309.8 29.2 309.9 29.5 309.9 29.6 309.9 30.1 309.9 30.2 309.9 30.6 309.9 30.8 309.9 31.4 309.9 31.8 309.9 31.9 309.9 32.4 309.9 32.5 309.9 33 309.9 33.1 309.9 33.5 309.9 34.2 309.8 34.5 309.8 34.6 309.9 34.7 309.9 34.8 309.9 34.8 310 34.9 310.1 34.9 310.1 34.9 310.3 34.9 310.7 34.9 310.8 34.9 311.1 34.9 311.3 34.9 311.4 34.9 311.5 34.9 311.6 34.8 311.6 34.7 311.6 34.5 311.6 34.1 311.6 34 311.6 33.5 311.6 33.3 311.6 32.8 311.6 32.7 311.6 32.6 311.7 32.6 311.8 32.6 312.3 32.6 312.9 32.6 313.1 32.6 313.4 32.6 313.6 32.6 313.7 32.6 313.7 32.7 313.7 32.8 313.7 33.3 313.7 33.5 313.7 34 313.7 34.1 313.8 34.7 313.8 34.8 313.8 34.9 314 34.9 314.1 34.9 314.5 34.9 314.7 34.9 315.1 34.9 315.2 34.9 315.3 34.9 315.4 34.8 315.4 34.7 315.4 34.6 315.4 34.4 315.4 34.2 315.4 34.1 315.4 33.5 315.4 33.1 315.4 33 315.4 32.5 315.4 32.4 315.4 31.9 315.4 31.8 315.5 31.4 315.5 31.2 315.4 30.8 315.4 30.6 315.4 30.2 315.4 30.1 315.4 29.6 315.4 29.5 315.5 29.2 315.5 29 315.4 28.9 315.4 28.8 315.2 28.8 315.2 28.8 315 28.8 314.7 28.8 314.5 28.8 314.1 28.8 313.9 28.8 313.8 28.8 313.8 28.9 313.8 29 313.8 29.6 313.8 29.7 313.8 30.3 313.8 30.4 313.7 30.9 313.7 31 313.7 31.1 313.6 31.2 313.6 31.2 313.4 31.2 312.9 31.1 312.4 31.1 312.3 31.1 312 31.2 311.8 31.2 311.7 31.2 311.6 31.2 311.6 31.1 311.6 31.1 311.6 31 311.6 30.3 311.6 29.7"/>
        <polygon class="cls-5" points="307.8 24.8 307.9 25.1 308 25.2 308.1 25.5 308.2 25.7 308.3 25.9 308.4 26 308.6 26.2 309 26.5 309.1 26.6 309.4 26.8 309.6 26.9 309.8 26.9 310 27 310.2 27.1 310.4 27.1 310.6 27.1 310.9 27.2 311.3 27.2 312 27.2 312.2 27.2 312.5 27.2 312.7 27.2 312.9 27.1 313.1 27.1 313.4 27 313.6 27 313.8 26.9 314 26.8 314.3 26.7 314.4 26.6 314.7 26.4 314.9 26.3 315 26.2 315.1 26 315.2 25.9 315.3 25.8 315.5 25.5 315.5 25.4 315.6 25.2 315.6 25 315.7 24.8 315.7 24.5 315.7 24.3 315.7 24.1 315.7 23.9 315.6 23.7 315.6 23.5 315.4 23.3 315.3 23.1 315.2 23 315.1 22.8 314.9 22.7 314.6 22.5 314.6 22.4 314.6 22.3 314.7 22.2 314.9 22 315 21.9 315.2 21.6 315.4 21.3 315.4 21.1 315.4 21.1 315.5 20.9 315.5 20.8 315.5 20.6 315.5 20.4 315.4 20.2 315.4 19.9 315.3 19.7 315.2 19.5 315.1 19.3 315 19.2 315 19.1 314.8 19 314.7 18.8 314.5 18.6 314.3 18.5 314.2 18.4 314 18.3 313.8 18.2 313.5 18.1 313.3 18.1 313.1 18 312.9 18 312.6 17.9 312 17.8 311.8 17.8 311.6 17.8 311.3 17.8 311.1 17.8 310.7 17.9 310.5 17.9 310.3 18 310 18 309.8 18.1 309.6 18.2 309.4 18.3 309.2 18.4 309.1 18.5 308.9 18.6 308.7 18.8 308.5 18.9 308.4 19.1 308.3 19.3 308.2 19.5 308.1 19.7 308 20.1 307.9 20.3 307.9 20.5 307.9 20.7 307.9 20.8 308 20.8 308.2 20.8 308.4 20.8 308.6 20.9 309 20.8 309.2 20.8 309.7 20.9 310 20.9 310.2 20.8 310.3 20.8 310.4 20.6 310.5 20.4 310.5 20.4 310.7 20.2 310.8 20.2 311 20.1 311.1 20.1 311.2 20 311.6 20 311.7 20 312 20 312.2 20 312.4 20.1 312.6 20.1 312.8 20.3 312.8 20.4 312.9 20.6 312.9 20.8 312.9 20.9 312.8 21.1 312.8 21.1 312.6 21.3 312.6 21.3 312.4 21.4 312.3 21.5 312 21.5 311.8 21.6 311.6 21.6 311.5 21.6 311.3 21.5 310.9 21.5 310.7 21.5 310.3 21.5 310.2 21.6 310.1 21.7 310.1 21.8 310.1 22.1 310.1 22.3 310.1 22.5 310.1 22.7 310.1 22.9 310.1 23.1 310.2 23.2 310.3 23.3 310.4 23.4 310.7 23.4 311 23.4 311.4 23.3 311.7 23.3 311.9 23.3 312.1 23.4 312.3 23.4 312.5 23.5 312.6 23.5 312.8 23.7 312.9 23.8 313 23.9 313 24.1 313 24.2 313 24.4 313 24.5 313 24.6 312.9 24.7 312.8 24.9 312.7 24.9 312.5 25 312.4 25.1 312.2 25.1 311.9 25.2 311.7 25.2 311.5 25.1 311.3 25.1 311 25 311 25 310.8 24.9 310.7 24.8 310.5 24.7 310.5 24.6 310.4 24.4 310.3 24.3 310.3 24.2 310.2 24.1 310 24 309.7 24 309.1 24.1 308.9 24.1 308.5 24.1 308 24.1 307.8 24.1 307.7 24.2 307.7 24.3 307.8 24.6 307.8 24.8"/>
      </g>
    </g>
  </g>
</svg>
