<svg id="Layer_1" data-name="Layer 1" xmlns="http://www.w3.org/2000/svg" xmlns:xlink="http://www.w3.org/1999/xlink" width="374.5" height="89.4" viewBox="0 0 374.5 89.4">
  <defs>
    <style>
      .cls-1 {
        fill: url(#linear-gradient);
      }

      .cls-2, .cls-4, .cls-5 {
        fill: #fff;
      }

      .cls-2 {
        opacity: 0.3;
      }

      .cls-2, .cls-3, .cls-4 {
        isolation: isolate;
      }

      .cls-4 {
        font-size: 16px;
        font-family: Montserrat-Medium, Montserrat;
      }
    </style>
    <linearGradient id="linear-gradient" x1="405.55" y1="126.36" x2="21.53" y2="-32.27" gradientUnits="userSpaceOnUse">
      <stop offset="0" stop-color="#75c9b9"/>
      <stop offset="1" stop-color="#72bde5"/>
    </linearGradient>
  </defs>
  <title>banner_electrical_E01</title>
  <g id="Page-1">
    <g id="UI---Screen-7---v2">
      <g id="Group-2">
        <path id="Path-4" class="cls-1" d="M0,72.4C71,74,112,68.2,210.5,71c58.9,1.7,113.3,7.8,164,18.4V0H0Z"/>
        <rect id="Rectangle-Copy-2" class="cls-2" x="23.5" y="22" width="47" height="7" rx="3.3" ry="3.3"/>
        <path id="Rectangle-Copy-4" class="cls-2" d="M189.8,29h40.5a3.2,3.2,0,0,1,3.2,3.2v.5a3.2,3.2,0,0,1-3.2,3.2H189.8a3.3,3.3,0,0,1-3.2-3.2v-.5A3.3,3.3,0,0,1,189.8,29Z"/>
        <rect id="Rectangle-Copy-3" class="cls-2" x="64.5" y="35" width="47" height="7" rx="3.3" ry="3.3"/>
        <rect id="Rectangle-Copy-5" class="cls-2" x="233.5" y="42" width="47" height="7" rx="3.2" ry="3.2"/>
        <g id="sweep">
          <g id="_" data-name="+" class="cls-3">
            <text class="cls-4" transform="translate(298.5 26)">+</text>
          </g>
          <g id="_-copy" data-name="+-copy" class="cls-3">
            <text class="cls-4" transform="translate(336.5 14)">+</text>
          </g>
        </g>
      </g>
    </g>
  </g>
  <g>
    <path class="cls-5" d="M341.7,39.7a2.2,2.2,0,0,0-1.3,1.1l-1.2,2.1-.4.7a1.9,1.9,0,0,0,.7,2.8l1.5.8c3.8,2.2,7.6,4.5,11.5,6.6a1.6,1.6,0,0,0,1.1.3,1.2,1.2,0,0,0,1-.4l1.6-2.3.6-.9h0c.5-1-.7-1.8-1.2-2.1l-12.2-8.2A2.3,2.3,0,0,0,341.7,39.7ZM355.4,50l-.4.6-1.4,2.1h-.4L341.7,46l-1.4-.9c-.5-.2-.5-.4-.3-.8l.4-.6,1.2-2.2.4-.4h0a1,1,0,0,1,.6.2l12.2,8.2Z"/>
    <path class="cls-5" d="M334.2,44.1l-.3-.6a6.4,6.4,0,0,0-.8-1.4,7.5,7.5,0,0,0-.7-1.2,1.9,1.9,0,0,0-2.9-.8l-6,3.5-6.8,3.9a1.8,1.8,0,0,0-.8,2.7c.4.6.8,1.4,1.3,2.1a1.7,1.7,0,0,0,1.6,1l.9-.2,1.5-.8,12-5.9a2.3,2.3,0,0,0,.8-.9l.2-.2.3-.4v-.4Zm-1.3.6c-.1.2-.3.4-.4.4L320.6,51l-1.6.8c-.2.1-.4.1-.6-.2a15.7,15.7,0,0,1-1.2-2.1c-.2-.4-.2-.6.2-.8l6.8-3.9,6-3.5.5-.2a.1.1,0,0,1,.1.1c.1,0,.3.1.4.4l.7,1.2.8,1.3c0,.2.1.3.2.5Z"/>
    <path class="cls-5" d="M334.9,36.6h2.7c1.8,0,2.5-.7,2.5-2.4V20c0-1.7-.7-2.3-2.4-2.3h-1.9a1.9,1.9,0,0,0-2.1,1.9c0,.7-.1,1.4-.1,2.1a8.1,8.1,0,0,0-.1,1.6l-.2,2.3c-.2,2.9-.4,5.8-.5,8.7a2.2,2.2,0,0,0,.4,1.7A2,2,0,0,0,334.9,36.6Zm-.7-2.2c.2-2.9.4-5.8.5-8.7l.2-2.3c0-.6.1-1.1.1-1.6s.1-1.4.2-2.1.1-.6.6-.6h1.8c1,0,1,.1,1.1,1V34.2c-.1.9-.1,1-1.1,1h-3.3C334.2,35,334.2,34.9,334.2,34.4Z"/>
    <path class="cls-5" d="M340.1,40.3a3.8,3.8,0,0,0-3.7-3.7h0a3.7,3.7,0,0,0-3.7,3.7,3.5,3.5,0,0,0,1.1,2.6,3.6,3.6,0,0,0,2.6,1.1h0a3.8,3.8,0,0,0,3.7-3.7ZM338,41.9a2.4,2.4,0,0,1-1.6.7h0a2.4,2.4,0,0,1-1.6-.7,2.3,2.3,0,0,1,1.6-3.8h0a2.2,2.2,0,0,1,2.2,2.2A2.3,2.3,0,0,1,338,41.9Z"/>
    <path class="cls-5" d="M336.3,15.4a25,25,0,1,0,25,25A25,25,0,0,0,336.3,15.4Zm0,48.5a23.6,23.6,0,1,1,23.5-23.5A23.6,23.6,0,0,1,336.3,63.9Z"/>
  </g>
</svg>
