<svg id="Layer_1" data-name="Layer 1" xmlns="http://www.w3.org/2000/svg" xmlns:xlink="http://www.w3.org/1999/xlink" width="374.5" height="89.4" viewBox="0 0 374.5 89.4">
  <defs>
    <style>
      .cls-1 {
        fill: url(#linear-gradient);
      }

      .cls-2, .cls-4, .cls-5 {
        fill: #fff;
      }

      .cls-2 {
        opacity: 0.3;
      }

      .cls-2, .cls-3, .cls-4 {
        isolation: isolate;
      }

      .cls-4 {
        font-size: 16px;
        font-family: Montserrat-Medium, Montserrat;
      }
    </style>
    <linearGradient id="linear-gradient" x1="405.55" y1="126.36" x2="21.53" y2="-32.27" gradientUnits="userSpaceOnUse">
      <stop offset="0" stop-color="#75c9b9"/>
      <stop offset="1" stop-color="#72bde5"/>
    </linearGradient>
  </defs>
  <title>banner_PC001</title>
  <g id="Page-1">
    <g id="UI---Screen-7---v2">
      <g id="Group-2">
        <path id="Path-4" class="cls-1" d="M0,72.4C71,74,112,68.2,210.5,71c58.9,1.7,113.3,7.8,164,18.4V0H0Z"/>
        <rect id="Rectangle-Copy-2" class="cls-2" x="23.5" y="22" width="47" height="7" rx="3.3" ry="3.3"/>
        <path id="Rectangle-Copy-4" class="cls-2" d="M189.8,29h40.5a3.2,3.2,0,0,1,3.2,3.2v.5a3.2,3.2,0,0,1-3.2,3.2H189.8a3.3,3.3,0,0,1-3.2-3.2v-.5a3.3,3.3,0,0,1,3.3-3.2Z"/>
        <rect id="Rectangle-Copy-3" class="cls-2" x="64.5" y="35" width="47" height="7" rx="3.3" ry="3.3"/>
        <path id="Rectangle-Copy-5" class="cls-2" d="M236.8,42h40.5a3.2,3.2,0,0,1,3.2,3.2v.5a3.2,3.2,0,0,1-3.2,3.2H236.8a3.3,3.3,0,0,1-3.2-3.2v-.5a3.3,3.3,0,0,1,3.3-3.2Z"/>
        <g id="sweep">
          <g id="_" data-name="+" class="cls-3">
            <text class="cls-4" transform="translate(358 26)">+</text>
          </g>
          <g id="_-copy" data-name="+-copy" class="cls-3">
            <text class="cls-4" transform="translate(336.5 14)">+</text>
          </g>
        </g>
      </g>
    </g>
  </g>
  <g>
    <g>
      <path class="cls-5" d="M353,28l-3-1h-.6a.9.9,0,0,0-.3.6h-3.8a.7.7,0,1,0,0,1.4h3.8v.7h-5.9V27.4a.7.7,0,0,0-.7-.7H341V25.5a.7.7,0,0,0-.7-.7h-3.5V24h.7a.9.9,0,0,0,.7-.6l.5-1.9h.5a1.4,1.4,0,0,0,1.5-1.5,1.5,1.5,0,0,0-1.5-1.5H333a1.5,1.5,0,0,0-1.5,1.5,1.5,1.5,0,0,0,1.5,1.5h.6l.5,1.9a.9.9,0,0,0,.7.6h.6v.8h-8.3a.6.6,0,0,0-.6.5l-3.3,9.8a.4.4,0,0,0,0,.5.8.8,0,0,0,.4.4h1.1l1.2-.2a2.3,2.3,0,0,0,1.2-1.5l2.1-6.1h2v5.2a.8.8,0,0,0,.7.7h.4v3.5h-2.5a3.9,3.9,0,0,0-3.8,3.3l-3.1,20.8a4.4,4.4,0,0,0,1,3.3,4.1,4.1,0,0,0,3.1,1.4h18.3a4.1,4.1,0,0,0,3.1-1.4,3.9,3.9,0,0,0,.9-3.3l-3.1-20.8a3.8,3.8,0,0,0-3.7-3.3h-2.6V34.3h.4a.7.7,0,0,0,.7-.7V32.5h1.5a.8.8,0,0,0,.7-.7v-.4h5.9a.7.7,0,0,0,.3.6h.6l3-1a.7.7,0,0,0,.5-.7V28.7A.8.8,0,0,0,353,28Zm-18.2-7.4a.6.6,0,0,0-.6-.5H333a.1.1,0,0,1-.1-.1h6.3a.1.1,0,0,1,.1.1c0,.1,0,.1-.1.1h-1.1a.8.8,0,0,0-.7.5l-.5,2h-1.6ZM328.7,27a.7.7,0,0,0-.7.4l-2.2,6.7a1.2,1.2,0,0,1-.6.6h-.5l2.9-8.6h3.6V27Zm10.5,12.2h3.3a2.5,2.5,0,0,1,2.4,2.1l3,20.8a2.9,2.9,0,0,1-.6,2.2,2.5,2.5,0,0,1-2,.9H327a2.5,2.5,0,0,1-2-.9,2.6,2.6,0,0,1-.7-2.2l3.1-20.8a2.5,2.5,0,0,1,2.4-2.1h6.6a.7.7,0,1,0,0-1.4h-2.7V34.3h4.8v4.2A.7.7,0,0,0,339.2,39.2Zm2.6-8.1h-1.5a.7.7,0,0,0-.7.7v1.1h-7V26.2h7v1.2a.7.7,0,0,0,.7.7h1.5v3ZM352,29.9l-1.5.5V28.7l1.5.5Z"/>
      <path class="cls-5" d="M328.5,48.7h-.1a9.3,9.3,0,0,0-1.1,4.4,8.8,8.8,0,0,0,8.8,8.8,8.9,8.9,0,0,0,7.7-4.3h0a7.7,7.7,0,0,0,1.2-4.3,8.9,8.9,0,0,0-16.5-4.5Zm7.6,11.9a7.4,7.4,0,0,1-7.4-7.4,6.4,6.4,0,0,1,.7-3.1l4,2.3h-1.2a.7.7,0,1,0,0,1.4h1.2v.6h0a1.8,1.8,0,0,0-1.8,1.9v1a.7.7,0,1,0,1.4,0v-1a.5.5,0,0,1,.4-.5h.2a3.5,3.5,0,0,0,.6.9,2.7,2.7,0,0,0,1.9.8,2.8,2.8,0,0,0,1.3-.3.8.8,0,0,0,.3-.9.7.7,0,0,0-1-.3h-.6a1.2,1.2,0,0,1-1.2-1.3V53.3l7.3,4.2A7.5,7.5,0,0,1,336.1,60.6Zm7.5-7.4a8.2,8.2,0,0,1-.7,3.1l-8-4.7v-.2a1.2,1.2,0,0,1,1.2-1.2,1.2,1.2,0,0,1,.9.3,2,2,0,0,1,.4.8.7.7,0,0,0,.7.6h.7a1.9,1.9,0,0,0,1.9-1.9V49a.7.7,0,1,0-1.4,0v1a.5.5,0,0,1-.5.4h-.2a2.4,2.4,0,0,0-.6-.9,2.6,2.6,0,0,0-1.9-.7,2.8,2.8,0,0,0-2.5,1.6h-.2a.4.4,0,0,1-.4-.4V49a.7.7,0,1,0-1.4,0v.7l-1.5-.8a7.3,7.3,0,0,1,6-3.2A7.6,7.6,0,0,1,343.6,53.2Z"/>
      <path class="cls-5" d="M340.1,52.5h-.5a.7.7,0,0,0,0,1.4h.5a.7.7,0,0,0,0-1.4Z"/>
      <path class="cls-5" d="M340,56.4a.7.7,0,0,0-.7.7v.3a.7.7,0,1,0,1.4,0v-.3A.7.7,0,0,0,340,56.4Z"/>
    </g>
    <g>
      <path class="cls-5" d="M307.7,33.3h.5l.2-.2h.3v-.2h.1v-.2h0v-.4h-.1v-.2h-.1v-.2h-.1v-.2h.1v-.4h0v-.4h-.1v-.2h-.2V28h-4.9v1.6h0v.5h0v.5h0v1h0v.2h0v.2h0v.5h0v.2h4.2Zm-2.6-4h0V29h-.1Zm2.2,2.4h-2.1v-.4h2.1Z"/>
      <polygon class="cls-5" points="314.1 27.4 314 27.4 313.9 27.4 313.8 27.5 313.8 27.6 313.8 28.2 313.8 28.3 313.8 28.8 313.8 29 313.8 29.5 313.8 29.6 313.8 29.7 313.7 29.7 313.6 29.7 313.5 29.7 313 29.7 312.4 29.7 312.3 29.7 312 29.7 311.9 29.7 311.8 29.7 311.7 29.7 311.6 29.7 311.6 29.6 311.6 29.5 311.6 28.8 311.6 28.3 311.6 28.2 311.6 27.8 311.6 27.6 311.6 27.6 311.6 27.5 311.5 27.4 311.4 27.4 311.3 27.4 311.2 27.4 310.8 27.4 310.7 27.4 310.3 27.4 310.2 27.4 310.1 27.4 310 27.4 309.9 27.5 309.9 27.6 309.9 27.8 309.9 28.1 309.9 28.2 309.9 28.6 309.9 28.8 309.9 29.2 309.9 29.3 309.9 29.9 309.9 30.4 309.9 30.5 309.9 31 309.9 31.1 309.9 31.5 309.9 31.7 309.9 32.1 309.9 32.8 309.9 33.1 309.9 33.2 309.9 33.3 309.9 33.4 309.9 33.4 310 33.5 310.1 33.5 310.2 33.5 310.3 33.5 310.7 33.5 310.8 33.5 311.2 33.5 311.3 33.5 311.4 33.5 311.5 33.5 311.6 33.4 311.7 33.3 311.7 33.1 311.6 32.7 311.6 32.6 311.6 32 311.6 31.9 311.6 31.4 311.6 31.3 311.7 31.2 311.8 31.2 311.9 31.1 312.3 31.2 313 31.2 313.1 31.2 313.5 31.2 313.7 31.2 313.8 31.2 313.8 31.3 313.8 31.4 313.8 31.9 313.8 32 313.8 32.6 313.8 32.7 313.8 33.3 313.8 33.4 313.9 33.5 314 33.5 314.1 33.5 314.6 33.5 314.7 33.5 315.2 33.5 315.3 33.5 315.4 33.5 315.5 33.4 315.5 33.3 315.5 33.2 315.5 33 315.5 32.8 315.5 32.7 315.5 32.1 315.5 31.7 315.5 31.5 315.5 31.1 315.5 31 315.5 30.5 315.5 30.4 315.5 29.9 315.5 29.8 315.5 29.3 315.5 29.2 315.5 28.8 315.5 28.6 315.5 28.2 315.5 28.1 315.5 27.7 315.5 27.6 315.5 27.5 315.4 27.4 315.3 27.4 315.2 27.4 315.1 27.4 314.7 27.4 314.6 27.4 314.1 27.4"/>
      <polygon class="cls-5" points="316.7 32.9 316.7 33.1 316.7 33.2 316.7 33.3 316.7 33.4 316.7 33.5 316.8 33.5 317.2 33.5 317.4 33.5 317.8 33.5 318 33.5 318.3 33.5 318.4 33.5 318.4 33.4 318.4 33.3 318.4 33.2 318.4 33.1 318.4 32.9 318.4 32.8 318.4 32.3 318.4 31.7 318.5 31.6 318.5 31.6 318.6 31.6 318.6 31.7 318.7 31.8 319 32.1 319 32.2 319.4 32.5 319.4 32.6 319.7 33 319.8 33.1 320.1 33.4 320.2 33.5 320.3 33.5 320.8 33.5 320.9 33.5 321.5 33.5 321.6 33.5 322 33.5 322.2 33.5 322.2 33.5 322.2 33.4 322.3 33.4 322.2 33.3 321.8 32.9 321.8 32.8 321.4 32.4 321.3 32.3 321 32 320.9 31.9 320.6 31.5 320.5 31.4 320.1 31 320 30.9 319.7 30.5 319.6 30.4 319.6 30.3 319.7 30.3 319.7 30.2 319.8 30.1 320 29.9 320.1 29.8 320.4 29.5 320.5 29.4 320.8 29 320.9 28.9 321.2 28.5 321.3 28.4 321.6 28 321.7 27.9 322 27.6 322.1 27.5 322.1 27.5 322.1 27.5 322 27.4 321.9 27.4 321.6 27.4 321.5 27.4 321.2 27.4 320.6 27.4 320.5 27.4 320.1 27.4 320 27.4 320 27.5 319.7 27.8 319.6 27.9 319.3 28.3 318.9 28.9 318.6 29.2 318.5 29.3 318.5 29.3 318.4 29.2 318.4 28.7 318.4 28.6 318.4 28.1 318.4 28 318.4 27.7 318.4 27.6 318.4 27.5 318.4 27.5 318.4 27.4 318.3 27.4 317.9 27.4 317.8 27.4 317.4 27.4 317.2 27.4 317 27.4 316.8 27.4 316.8 27.4 316.7 27.5 316.7 27.6 316.7 28 316.7 28.2 316.7 29.2 316.7 29.3 316.7 29.8 316.7 29.9 316.7 30.4 316.7 31 316.7 31.1 316.7 31.6 316.7 31.7 316.7 32.3 316.7 32.7 316.7 32.9"/>
      <polygon class="cls-5" points="309.4 24.8 309.4 25.2 309.4 25.4 309.4 25.6 309.4 25.6 309.4 25.7 309.6 25.7 310 25.8 311.3 25.7 311.5 25.7 313.2 25.7 313.4 25.7 314 25.8 314.3 25.8 314.4 25.7 314.5 25.6 314.6 25.6 314.6 25.4 314.6 25.2 314.6 24.8 314.6 24.6 314.6 24.2 314.6 24 314.6 23.9 314.5 23.8 314.5 23.8 313.6 23.8 313.4 23.7 313.3 23.7 313.3 23.6 313.3 23.5 313.2 22.7 313.2 22.5 313.3 21.7 313.3 21.5 313.3 20.7 313.3 20.5 313.3 19.8 313.3 17.8 313.3 17.6 313.3 17.1 313.3 16.9 313.3 16.8 313.3 16.6 313.2 16.5 313.1 16.5 312.9 16.5 312.7 16.6 312.5 16.7 312.2 16.8 312 16.9 311.4 17.1 311.2 17.2 310.5 17.4 310.3 17.5 310 17.6 309.8 17.7 309.7 17.7 309.5 17.8 309.5 17.8 309.4 17.9 309.4 18.1 309.4 18.3 309.4 18.7 309.4 18.9 309.4 19.2 309.4 19.4 309.4 19.5 309.4 19.6 309.5 19.7 309.6 19.8 309.8 19.8 310 19.7 310.2 19.7 310.6 19.5 310.7 19.5 310.8 19.6 310.8 19.7 310.8 19.8 310.8 20.2 310.8 20.6 310.8 20.8 310.8 21.1 310.8 21.3 310.9 21.6 310.9 21.8 310.8 22.5 310.8 22.7 310.8 23.6 310.8 23.7 310.7 23.7 310.5 23.8 310.2 23.8 310 23.8 309.5 23.7 309.4 23.8 309.3 23.9 309.3 24 309.3 24.2 309.4 24.6 309.4 24.8"/>
    </g>
  </g>
</svg>
