<svg id="Layer_1" data-name="Layer 1" xmlns="http://www.w3.org/2000/svg" xmlns:xlink="http://www.w3.org/1999/xlink" width="70" height="70" viewBox="0 0 70 70">
  <defs>
    <style>
      .cls-1 {
        fill: #f6f6f6;
      }

      .cls-2 {
        fill: url(#linear-gradient);
      }

      .cls-3 {
        fill: url(#linear-gradient-2);
      }

      .cls-4 {
        fill: url(#linear-gradient-3);
      }

      .cls-5 {
        fill: url(#linear-gradient-4);
      }

      .cls-6 {
        fill: url(#linear-gradient-5);
      }

      .cls-7 {
        fill: url(#linear-gradient-6);
      }
    </style>
    <linearGradient id="linear-gradient" x1="51.39" y1="68.41" x2="18.53" y2="1.44" gradientUnits="userSpaceOnUse">
      <stop offset="0" stop-color="#64dcc2"/>
      <stop offset="1" stop-color="#70bce6"/>
    </linearGradient>
    <linearGradient id="linear-gradient-2" x1="51.89" y1="68.16" x2="19.03" y2="1.2" xlink:href="#linear-gradient"/>
    <linearGradient id="linear-gradient-3" x1="51.56" y1="68.32" x2="18.7" y2="1.36" xlink:href="#linear-gradient"/>
    <linearGradient id="linear-gradient-4" x1="45.33" y1="71.38" x2="12.47" y2="4.42" xlink:href="#linear-gradient"/>
    <linearGradient id="linear-gradient-5" x1="43.15" y1="72.45" x2="10.29" y2="5.48" xlink:href="#linear-gradient"/>
    <linearGradient id="linear-gradient-6" x1="45.49" y1="71.3" x2="12.63" y2="4.34" xlink:href="#linear-gradient"/>
  </defs>
  <title>icon_carpentry_C0</title>
  <path id="Rectangle" class="cls-1" d="M3,0H67a2.9,2.9,0,0,1,3,3V67a2.9,2.9,0,0,1-3,3H3a2.9,2.9,0,0,1-3-3V3A2.9,2.9,0,0,1,3,0Z"/>
  <path id="Rectangle-2" data-name="Rectangle" class="cls-1" d="M3,0H67a2.9,2.9,0,0,1,3,3V67a2.9,2.9,0,0,1-3,3H3a2.9,2.9,0,0,1-3-3V3A2.9,2.9,0,0,1,3,0Z"/>
  <g>
    <polygon class="cls-2" points="10 60 21.8 60 21.8 58.6 11.4 58.6 11.4 11.4 58.6 11.4 58.6 58.6 48.4 58.6 48.4 60 60 60 60 10 10 10 10 60"/>
    <path class="cls-3" d="M40.6,29.5a5.8,5.8,0,1,0-11.5,0,5.7,5.7,0,0,0,2,4.4l-.7,6.8a1.7,1.7,0,0,0,.5,1.5,1.9,1.9,0,0,0,1.4.7h5.1a2.1,2.1,0,0,0,1.5-.7,2.7,2.7,0,0,0,.5-1.5L38.6,34A5.2,5.2,0,0,0,40.6,29.5ZM37.5,33l-.4.2.8,7.6c.1.2,0,.3-.1.5H31.9a.9.9,0,0,1-.1-.5l.8-7.6-.3-.2a4.3,4.3,0,0,1,2.6-7.8,4.3,4.3,0,0,1,4.3,4.3A3.7,3.7,0,0,1,37.5,33Z"/>
    <path class="cls-4" d="M42.8,45.8a14.1,14.1,0,1,0-15.9.1h.4a.7.7,0,0,0,.6-.3.8.8,0,0,0-.2-1A12.7,12.7,0,1,1,47.5,34.2,12.3,12.3,0,0,1,42,44.6a.7.7,0,1,0,.8,1.2Z"/>
    <path class="cls-5" d="M42,51.8V48.9l-1.8-.5L40,48l1-1.6-2.1-2-1.6.9h-.4l-.5-1.9H33.6l-.5,1.9h-.4l-1.6-.9-2.1,2L30,48l-.2.4-1.8.5v2.9l1.8.5.2.3-1,1.6,2.1,2.1,1.6-1,.4.2.5,1.8h2.8l.5-1.8.4-.2,1.6,1L41,54.2l-1-1.6.2-.3Zm-4.7,1.9-.3.2-.9.4h-.4l-.4,1.5h-.6l-.4-1.5h-.4l-.9-.4-.3-.2-1.4.8-.5-.5.8-1.3-.2-.4-.3-.8v-.4l-1.6-.4V50l1.6-.4v-.4l.3-.8.2-.4-.8-1.3.5-.5,1.4.7H33l.9-.4h.4l.4-1.5h.6l.4,1.5h.4l.9.4h.3l1.4-.7.5.5L38.4,48l.2.4.3.8v.4l1.6.4v.7l-1.6.4v.4l-.3.8-.2.4.8,1.3-.5.5Z"/>
    <path class="cls-6" d="M27.4,60H42.6a3,3,0,0,0,3-3V54H44.2v3a1.6,1.6,0,0,1-1.6,1.6H27.4A1.6,1.6,0,0,1,25.8,57V54H24.4v3A3,3,0,0,0,27.4,60Z"/>
    <polygon class="cls-7" points="32.9 49.9 33.7 50.8 34.4 50 34.4 52.6 35.6 52.6 35.6 50.1 36.3 50.8 37.1 49.9 35 47.8 32.9 49.9"/>
  </g>
</svg>
