<svg id="Layer_1" data-name="Layer 1" xmlns="http://www.w3.org/2000/svg" xmlns:xlink="http://www.w3.org/1999/xlink" width="374.5" height="89.4" viewBox="0 0 374.5 89.4">
  <defs>
    <style>
      .cls-1 {
        fill: url(#linear-gradient);
      }

      .cls-2, .cls-4, .cls-5 {
        fill: #fff;
      }

      .cls-2 {
        opacity: 0.3;
      }

      .cls-2, .cls-3, .cls-4 {
        isolation: isolate;
      }

      .cls-4 {
        font-size: 16px;
        font-family: Montserrat-Medium, Montserrat;
      }
    </style>
    <linearGradient id="linear-gradient" x1="405.55" y1="126.36" x2="21.53" y2="-32.27" gradientUnits="userSpaceOnUse">
      <stop offset="0" stop-color="#75c8b8"/>
      <stop offset="1" stop-color="#71bbe4"/>
    </linearGradient>
  </defs>
  <title>banner_pumbing_P0</title>
  <g id="Page-1">
    <g id="UI---Screen-7---v2">
      <g id="Group-2">
        <path id="Path-4" class="cls-1" d="M0,72.4C71,74,112,68.2,210.5,71c58.9,1.7,113.3,7.8,164,18.4V0H0Z"/>
        <rect id="Rectangle-Copy-2" class="cls-2" x="23.5" y="22" width="47" height="7" rx="3.3" ry="3.3"/>
        <rect id="Rectangle-Copy-4" class="cls-2" x="186.5" y="29" width="47" height="7" rx="3.3" ry="3.3"/>
        <rect id="Rectangle-Copy-3" class="cls-2" x="64.5" y="35" width="47" height="7" rx="3.3" ry="3.3"/>
        <rect id="Rectangle-Copy-5" class="cls-2" x="233.5" y="42" width="47" height="7" rx="3.3" ry="3.3"/>
        <g id="sweep">
          <g id="_" data-name="+" class="cls-3">
            <text class="cls-4" transform="translate(322 27.8)">+</text>
          </g>
          <g id="_-copy" data-name="+-copy" class="cls-3">
            <text class="cls-4" transform="translate(336.5 14)">+</text>
          </g>
        </g>
      </g>
    </g>
  </g>
  <g>
    <path class="cls-5" d="M351.8,27.1a9.1,9.1,0,0,0-1.5,3.4,1.6,1.6,0,0,0,1.5,1.6,1.6,1.6,0,0,0,1.6-1.6A8.9,8.9,0,0,0,351.8,27.1Z"/>
    <path class="cls-5" d="M310.9,43.5h-1.3V45h1.3v5.1a3.9,3.9,0,0,0,3.9,3.9h10.7L323,63.9h23.1L343.7,54h10.6a3.9,3.9,0,0,0,4-3.9V45h1.3V43.5H345.8V35.3h6.9a.8.8,0,0,0,.8-.7.9.9,0,0,0-.8-.8h-8.4v9.6h-9.2V25.1a8,8,0,0,1,16,0,.8.8,0,0,0,.7.8.9.9,0,0,0,.8-.8,9.5,9.5,0,0,0-19,0V43.4h-8.7V33.8h-8.4a.9.9,0,0,0-.8.8.8.8,0,0,0,.8.7h6.9v8.1H310.9ZM325,62.4l1.7-7h15.8l1.7,7Zm31.8-12.3a2.4,2.4,0,0,1-2.5,2.4H314.8a2.4,2.4,0,0,1-2.4-2.4V45h44.4Z"/>
  </g>
</svg>
