<svg id="Layer_1" data-name="Layer 1" xmlns="http://www.w3.org/2000/svg" xmlns:xlink="http://www.w3.org/1999/xlink" width="374.5" height="89.4" viewBox="0 0 374.5 89.4">
  <defs>
    <style>
      .cls-1 {
        fill: url(#linear-gradient);
      }

      .cls-2, .cls-4, .cls-5 {
        fill: #fff;
      }

      .cls-2 {
        opacity: 0.3;
      }

      .cls-2, .cls-3, .cls-4 {
        isolation: isolate;
      }

      .cls-4 {
        font-size: 16px;
        font-family: Montserrat-Medium, Montserrat;
      }
    </style>
    <linearGradient id="linear-gradient" x1="405.55" y1="126.36" x2="21.53" y2="-32.27" gradientUnits="userSpaceOnUse">
      <stop offset="0" stop-color="#75c9b9"/>
      <stop offset="1" stop-color="#72bde5"/>
    </linearGradient>
  </defs>
  <title>banner_horticulture_HR0</title>
  <g id="Page-1">
    <g id="UI---Screen-7---v2">
      <g id="Group-2">
        <path id="Path-4" class="cls-1" d="M0,72.4C71,74,112,68.2,210.5,71c58.9,1.7,113.3,7.8,164,18.4V0H0Z"/>
        <rect id="Rectangle-Copy-2" class="cls-2" x="23.5" y="22" width="47" height="7" rx="3.3" ry="3.3"/>
        <path id="Rectangle-Copy-4" class="cls-2" d="M189.8,29h40.5a3.2,3.2,0,0,1,3.2,3.2v.5a3.2,3.2,0,0,1-3.2,3.2H189.8a3.3,3.3,0,0,1-3.2-3.2v-.5a3.3,3.3,0,0,1,3.3-3.2Z"/>
        <rect id="Rectangle-Copy-3" class="cls-2" x="64.5" y="35" width="47" height="7" rx="3.3" ry="3.3"/>
        <path id="Rectangle-Copy-5" class="cls-2" d="M236.8,42h40.5a3.3,3.3,0,0,1,3.3,3.3v.5a3.2,3.2,0,0,1-3.2,3.2H236.8a3.2,3.2,0,0,1-3.2-3.2v-.5A3.2,3.2,0,0,1,236.8,42Z"/>
        <g id="sweep">
          <g id="_" data-name="+" class="cls-3">
            <text class="cls-4" transform="translate(298.5 26)">+</text>
          </g>
          <g id="_-copy" data-name="+-copy" class="cls-3">
            <text class="cls-4" transform="translate(336.5 14)">+</text>
          </g>
        </g>
      </g>
    </g>
  </g>
  <g>
    <g>
      <path class="cls-5" d="M329.9,30.5c-.2.5-.6,1-.8,1.5a2.5,2.5,0,0,0-.1,1.2.8.8,0,0,0,.9.9,1,1,0,0,0,1-.9,3.6,3.6,0,0,0-.8-2.7Z"/>
      <path class="cls-5" d="M329.9,34.3h0a1.1,1.1,0,0,1-1.2-1.1,2.7,2.7,0,0,1,.2-1.3,3.9,3.9,0,0,1,.6-1.1l.2-.5h.6v.3a3.5,3.5,0,0,1,.7,2.6C330.9,34.1,330.4,34.3,329.9,34.3Zm.1-3.5V31l-.6,1.1a3.4,3.4,0,0,0-.1,1c.1.5.3.7.7.7s.6-.2.7-.7a3.3,3.3,0,0,0-.6-2.3Z"/>
    </g>
    <g>
      <path class="cls-5" d="M325,36.5h.4a15.8,15.8,0,0,0-.3,5.3h2.1c-.6-1.7-1.1-3.5-1.7-5.2l1.5.2a2.7,2.7,0,0,0,1.2-.3.8.8,0,0,0,.4-1,.9.9,0,0,0-1-.7C326.4,34.8,325.8,35.6,325,36.5Z"/>
      <path class="cls-5" d="M324.9,42.2V42a15.3,15.3,0,0,1,.2-5.2h-.6l.5-.6a3.5,3.5,0,0,1,2.6-1.6,1.1,1.1,0,0,1,1.2.9,1,1,0,0,1-.5,1.3,2.4,2.4,0,0,1-1.3.4l-1.1-.2,1.6,5.1Zm.6-4.9a16.4,16.4,0,0,0-.2,4.4h1.6Zm.2-.9h0l1.3.2,1-.3c.5-.2.4-.6.4-.8a.8.8,0,0,0-.8-.5,2.8,2.8,0,0,0-2.1,1.3Z"/>
    </g>
    <g>
      <path class="cls-5" d="M335.3,19.7a3.1,3.1,0,0,0-.2,1.9c.2.5.5.8,1,.7a.8.8,0,0,0,.8-.9,3.3,3.3,0,0,0-1.2-2.5A5.9,5.9,0,0,1,335.3,19.7Z"/>
      <path class="cls-5" d="M336,22.6a1.1,1.1,0,0,1-1.1-.9,2.5,2.5,0,0,1,.2-2.1h0l.2-.5.3-.6.3.3a3.6,3.6,0,0,1,1.2,2.6,1.1,1.1,0,0,1-.9,1.2Zm-.4-2.8a1.9,1.9,0,0,0-.2,1.8c.1.4.3.5.7.5a.7.7,0,0,0,.5-.7,2.6,2.6,0,0,0-.8-2,.8.8,0,0,0-.2.4Z"/>
    </g>
    <g>
      <path class="cls-5" d="M323.1,27.9a3.9,3.9,0,0,0,.6,2.6,1.1,1.1,0,0,0,1.3.3.9.9,0,0,0,.2-1.3C324.8,28.6,324,28.3,323.1,27.9Z"/>
      <path class="cls-5" d="M324.5,31.1a1.1,1.1,0,0,1-1-.5,3.7,3.7,0,0,1-.7-2.7v-.3h.4a3.6,3.6,0,0,1,2.3,1.7,1.3,1.3,0,0,1-.4,1.6Zm-1.2-2.8a2.8,2.8,0,0,0,.6,2,.6.6,0,0,0,.9.2c.2-.1.5-.3.2-.9A2.8,2.8,0,0,0,323.3,28.3Z"/>
    </g>
    <g>
      <path class="cls-5" d="M322.9,33a4.4,4.4,0,0,0,1.1.9,2.9,2.9,0,0,0,1.3.5c.3,0,.7-.2.7-.5a1.4,1.4,0,0,0,0-.9,2,2,0,0,0-.8-.4A3.8,3.8,0,0,0,322.9,33Z"/>
      <path class="cls-5" d="M325.4,34.6h-.2l-1.3-.4-.8-.7-.3-.3-.3-.2.4-.2v0a4,4,0,0,1,2.4-.4,1.6,1.6,0,0,1,.9.5,1.2,1.2,0,0,1,.1,1A1,1,0,0,1,325.4,34.6Zm-2-1.5h.1l.6.5a4.2,4.2,0,0,0,1.2.4c.2,0,.5,0,.5-.3a.6.6,0,0,0,0-.6l-.7-.4A3.6,3.6,0,0,0,323.4,33.1Z"/>
    </g>
    <g>
      <path class="cls-5" d="M327.3,28.7a7,7,0,0,0-.3,1.2,2.2,2.2,0,0,0,.1,1.4.7.7,0,0,0,.9.6.8.8,0,0,0,.7-.9C328.7,30,328,29.4,327.3,28.7Z"/>
      <path class="cls-5" d="M327.8,32.2a1.1,1.1,0,0,1-1-.8,6.6,6.6,0,0,1-.1-1.5,1.9,1.9,0,0,1,.2-.8l.2-.4v-.4l.3.2-.2.2h.2a3.3,3.3,0,0,1,1.4,2.4,1,1,0,0,1-.8,1.1Zm-.4-3h0a2.5,2.5,0,0,0-.2.7,5.7,5.7,0,0,0,.1,1.4c.1.2.2.5.7.3s.4-.1.4-.6A2.2,2.2,0,0,0,327.4,29.2Z"/>
    </g>
    <g>
      <path class="cls-5" d="M337.4,25a.8.8,0,0,0,0,1.2c.3.3.7.3,1.1-.1a2.7,2.7,0,0,0,1-2.1A3.2,3.2,0,0,0,337.4,25Z"/>
      <path class="cls-5" d="M337.9,26.7a1.1,1.1,0,0,1-.7-.3c-.3-.3-.6-.8,0-1.6h0a3.2,3.2,0,0,1,2.2-1h.4v.4a2.9,2.9,0,0,1-1,2.2C338.4,26.5,338.2,26.7,337.9,26.7Zm-.3-1.6c-.4.5-.2.7,0,.9s.5.2.8-.1a2.3,2.3,0,0,0,.8-1.6,3,3,0,0,0-1.6.8Z"/>
    </g>
    <g>
      <path class="cls-5" d="M334.1,24.8h-1.7v.2a9.4,9.4,0,0,0,1,1l1.1.4a.7.7,0,0,0,.7-.5,1.1,1.1,0,0,0-.2-.8A1.2,1.2,0,0,0,334.1,24.8Z"/>
      <path class="cls-5" d="M334.5,26.7h-.1a3.3,3.3,0,0,1-1.3-.4l-.7-.7-.3-.3H332l.2-.6h.6a5.6,5.6,0,0,1,1.3,0h0a1.5,1.5,0,0,1,1,.4,1.2,1.2,0,0,1,.2,1,.7.7,0,0,1-.3.6Zm-1.8-1.6h.1l.6.7a2,2,0,0,0,1.1.3.1.1,0,0,0,.2,0c.1-.1.1-.1.1-.2a.8.8,0,0,0-.1-.7l-.6-.2h0a4.8,4.8,0,0,0-1.2,0Z"/>
    </g>
    <g>
      <path class="cls-5" d="M337.7,23.7c.4.2.8,0,1-.5a3,3,0,0,0,0-2.1,2.9,2.9,0,0,0-1.4,1.5C337.1,23.2,337.2,23.6,337.7,23.7Z"/>
      <path class="cls-5" d="M338,24h-.4a1,1,0,0,1-.5-1.5,3.3,3.3,0,0,1,1.5-1.6l.3-.2v.4a3.4,3.4,0,0,1-.1,2.2A.9.9,0,0,1,338,24Zm.6-2.5a3.1,3.1,0,0,0-1.1,1.2c-.1.4,0,.7.3.8h0c.1.1.4.2.7-.4A2.9,2.9,0,0,0,338.6,21.5Z"/>
    </g>
    <g>
      <path class="cls-5" d="M334.3,22.5,333,22h-.1a3.5,3.5,0,0,0,.5,1.3,1.3,1.3,0,0,0,.6.7.6.6,0,0,0,.9-.1.6.6,0,0,0,.1-.8A2.3,2.3,0,0,0,334.3,22.5Z"/>
      <path class="cls-5" d="M334.4,24.5a.7.7,0,0,1-.6-.2,1.9,1.9,0,0,1-.7-.8l-.3-.9a.8.8,0,0,1-.1-.4V22l.3-.2h.6l1,.4h0l.7.7a1,1,0,0,1-.1,1.2Zm-1.2-2.2h.1a3.2,3.2,0,0,0,.3.9,1.6,1.6,0,0,0,.5.6c.2.2.4.1.6-.1s.2-.3.1-.5a1.7,1.7,0,0,0-.6-.6h0l-.9-.3Z"/>
    </g>
    <g>
      <path class="cls-5" d="M341.4,41.4c-.1.5.3.8.8.9a3.2,3.2,0,0,0,1.9-.5,3.1,3.1,0,0,0-1.6-1C341.9,40.7,341.5,40.9,341.4,41.4Z"/>
      <path class="cls-5" d="M342.5,42.5h-.3a1.3,1.3,0,0,1-.9-.4.8.8,0,0,1-.1-.7.9.9,0,0,1,.3-.7,1.1,1.1,0,0,1,1-.1,2.9,2.9,0,0,1,1.8,1l.2.3h-.3A3.4,3.4,0,0,1,342.5,42.5Zm-.3-1.5h-.4c-.1.1-.1.2-.2.4h0c0,.1.1.2.1.3a.8.8,0,0,0,.6.2,1.9,1.9,0,0,0,1.4-.3,3.3,3.3,0,0,0-1.3-.7Z"/>
    </g>
    <g>
      <path class="cls-5" d="M344,38.5a.7.7,0,0,0,.5-.6c.1-.6.1-1.1.2-1.8s-1.5.8-1.7,1.6a.6.6,0,0,0,.2.8A1.1,1.1,0,0,0,344,38.5Z"/>
      <path class="cls-5" d="M343.7,38.8h-.6a.9.9,0,0,1-.4-1.1,3.3,3.3,0,0,1,1.8-1.7l.4-.3v1.1a4.9,4.9,0,0,0-.1,1.2,1.4,1.4,0,0,1-.7.8Zm.7-2.3a2.5,2.5,0,0,0-1.2,1.3c0,.1-.1.4.1.4s.5.2.6.1h0a1,1,0,0,0,.4-.5c0-.4.1-.7.1-1.2Z"/>
    </g>
    <g>
      <path class="cls-5" d="M341.9,36.5h-.2a2.4,2.4,0,0,0-.8,1.9c0,.4.2.6.5.6a.7.7,0,0,0,.8-.3c0-.2.1-.4.1-.6S342,37.1,341.9,36.5Z"/>
      <path class="cls-5" d="M341.6,39.3h-.2a.8.8,0,0,1-.7-.8,2.6,2.6,0,0,1,.8-2.1h.6v.2c.1.1.1.3.2.4a5,5,0,0,1,.2,1.2.9.9,0,0,1-.1.7A.9.9,0,0,1,341.6,39.3Zm.1-2.4a2.8,2.8,0,0,0-.6,1.5c.1.2.2.4.4.4s.4-.1.4-.2a1.7,1.7,0,0,0,.2-.5l-.3-1C341.8,37,341.7,37,341.7,36.9Z"/>
    </g>
    <g>
      <path class="cls-5" d="M343.5,39.3c-.4.2-.6.6-.4.9a.6.6,0,0,0,.9.4c.7-.1,1.1-.7,1.5-1.2A2.8,2.8,0,0,0,343.5,39.3Z"/>
      <path class="cls-5" d="M343.7,40.9a.8.8,0,0,1-.8-.6.9.9,0,0,1,.5-1.2h0a3.3,3.3,0,0,1,2.2,0h.3l-.2.3a3.1,3.1,0,0,1-1.6,1.4Zm-.1-1.4a.5.5,0,0,0-.3.6c.1.2.2.4.7.3a2.3,2.3,0,0,0,1.1-.9,2.6,2.6,0,0,0-1.5,0Z"/>
    </g>
    <g>
      <path class="cls-5" d="M339.4,39.8a.7.7,0,0,0,.8.5c.4,0,.6-.3.6-.7s-.5-1.2-1-1.8A2.9,2.9,0,0,0,339.4,39.8Z"/>
      <path class="cls-5" d="M340.1,40.6a.9.9,0,0,1-.9-.8,2.7,2.7,0,0,1,.4-2.1v-.3l.3.3a2.7,2.7,0,0,1,1,1.9,1,1,0,0,1-.8,1Zm-.2-2.3a1.4,1.4,0,0,0-.2,1.4h0c.1.4.3.4.4.4s.4-.1.4-.5A2,2,0,0,0,339.9,38.3Z"/>
    </g>
    <g>
      <path class="cls-5" d="M346.6,27.6a3.1,3.1,0,0,0,.1-1.9c-.6.4-1.1.7-1.3,1.4a.7.7,0,0,0,.3.9A.7.7,0,0,0,346.6,27.6Z"/>
      <path class="cls-5" d="M346,28.3h-.4c-.5-.2-.6-.6-.4-1.2a2.3,2.3,0,0,1,1.3-1.4l.3-.2v.3a2.4,2.4,0,0,1-.1,2h0A.9.9,0,0,1,346,28.3Zm.5-2.2a2.4,2.4,0,0,0-.9,1.1.5.5,0,0,0,.2.6q.3.1.6-.3h0A2.1,2.1,0,0,0,346.5,26.1Z"/>
    </g>
    <g>
      <path class="cls-5" d="M345.1,30.8a.5.5,0,0,0-.2.7.5.5,0,0,0,.7.3c.6-.1.9-.6,1.3-1.1A1.9,1.9,0,0,0,345.1,30.8Z"/>
      <path class="cls-5" d="M345.4,32.1a.8.8,0,0,1-.7-.5c-.2-.2-.3-.7.3-1h0a2.1,2.1,0,0,1,1.9-.2h.4l-.2.3a2.6,2.6,0,0,1-1.4,1.3Zm-.1-1.1c-.3.1-.3.3-.2.4s.2.2.4.2a1.9,1.9,0,0,0,1-.8,1.2,1.2,0,0,0-1.2.2Z"/>
    </g>
    <g>
      <path class="cls-5" d="M342.7,28.9c.1.6.1,1.2.6,1.6s.5.3.8,0,.3-.4.1-.7S343.3,29.1,342.7,28.9Z"/>
      <path class="cls-5" d="M343.7,30.9c-.2,0-.4,0-.5-.2a1.8,1.8,0,0,1-.7-1.6v-.5h.4v0a2.3,2.3,0,0,1,1.6,1,.8.8,0,0,1-.1,1A.7.7,0,0,1,343.7,30.9Zm-.7-1.6a1.6,1.6,0,0,0,.5,1c.2.2.3.2.5.1a.8.8,0,0,0,0-.5A1.3,1.3,0,0,0,343,29.3Z"/>
    </g>
    <g>
      <path class="cls-5" d="M346.2,28.9c-.3.1-.4.4-.2.8a.6.6,0,0,0,.9,0,12.5,12.5,0,0,0,.8-1.2v-.2A5.9,5.9,0,0,0,346.2,28.9Z"/>
      <path class="cls-5" d="M346.5,30.1h-.1a.5.5,0,0,1-.5-.3c-.2-.3-.3-.5-.2-.6s.2-.4.4-.6h0l1-.4h.5l.4.5v.2l-.2.3-.7.9C346.9,30.1,346.7,30.1,346.5,30.1Zm-.2-1c-.1,0-.1.1-.1.2s0,.1,0,.2h.5l.6-.7c0-.1,0-.1.1-.1h-.2Z"/>
    </g>
    <g>
      <path class="cls-5" d="M344,26.9a1.7,1.7,0,0,0-.3,1.5c.2.4.4.6.7.4a.5.5,0,0,0,.3-.8A3.4,3.4,0,0,0,344,26.9Z"/>
      <path class="cls-5" d="M344.2,29.1h-.3c-.2-.1-.3-.3-.4-.7a1.8,1.8,0,0,1,.3-1.6l.2-.4.2.4.3.3a3.5,3.5,0,0,0,.5.8.8.8,0,0,1,0,.7.8.8,0,0,1-.5.5Zm-.1-1.7a1,1,0,0,0-.2.9l.3.3h.1a.2.2,0,0,0,.2-.2c.1,0,.1-.2,0-.3Z"/>
    </g>
    <g>
      <path class="cls-5" d="M328.5,63.3h-.8v.2l.7.4Z"/>
      <polygon class="cls-5" points="328.5 64.3 327.4 63.7 327.5 63.1 328.8 63 328.5 64.3"/>
    </g>
    <g>
      <path class="cls-5" d="M324.5,42.6c-1.6.3-1.6.4-2.8-.3s-1.4-1-2.2-1.5l-.6.6a6.8,6.8,0,0,0,2.7,2,14.6,14.6,0,0,0-3,1.7l-.7.5h0c.3.3,0,0,.3.4,3.3-2.6,7.5-2.7,11.6-2.1l.4-1.4h-.3A16.3,16.3,0,0,0,324.5,42.6Z"/>
      <path class="cls-5" d="M318.2,46.4l-.2-.2-.2-.2v-.2h-.1v-.3l.4-.3.4-.3a11,11,0,0,1,2.6-1.5,7.1,7.1,0,0,1-2.3-1.8l-.2-.2,1-.9h.2l.7.5a7.1,7.1,0,0,0,1.4,1c1.1.6,1.1.6,2.5.3h.2a13.9,13.9,0,0,1,5.4-.1h.6l-.5,1.8h-.2c-5.2-.8-8.8-.1-11.4,2Zm0-.7h0c3.6-2.6,8.2-2.4,11.4-1.9l.3-1h0a13.4,13.4,0,0,0-5.3.1h-.2c-1.5.3-1.7.3-2.8-.4a7.8,7.8,0,0,1-1.5-1l-.5-.4-.4.4a12.1,12.1,0,0,0,2.5,1.7l.5.3-.5.2a14.3,14.3,0,0,0-3,1.6l-.5.3Z"/>
    </g>
    <g>
      <path class="cls-5" d="M327.4,44.3h-1.7a8,8,0,0,0,1.8,3.7l1.2-1.6a8.8,8.8,0,0,0-.5-1.5C328,44.3,328,44.3,327.4,44.3Z"/>
      <path class="cls-5" d="M327.5,48.4l-.2-.2a9.7,9.7,0,0,1-1.9-3.8v-.2h2c.7,0,.8.1,1.1.8l.5,1.7ZM326,44.6a8.9,8.9,0,0,0,1.5,3.1l1-1.2-.5-1.4c-.1-.5-.1-.5-.6-.5H326Z"/>
    </g>
    <g>
      <path class="cls-5" d="M321.1,49.8c1.8-.6,3-3,2.1-4.3A3.3,3.3,0,0,0,321.1,49.8Z"/>
      <path class="cls-5" d="M320.9,50.1v-.3a3.4,3.4,0,0,1,2.2-4.5h.3a3,3,0,0,1,.2,2.3,4.1,4.1,0,0,1-2.4,2.4Zm2.2-4.3a3,3,0,0,0-1.8,3.6,3.4,3.4,0,0,0,1.8-1.9A2.5,2.5,0,0,0,323.1,45.8Z"/>
    </g>
    <g>
      <path class="cls-5" d="M334.5,16.9a24.8,24.8,0,1,0,24.8,24.8A24.7,24.7,0,0,0,334.5,16.9Zm9,46.3h-.7a.1.1,0,0,0-.1-.1h-.1l-1.4-.3h0c-.5-.3-.5-.3-1-.2s-.4-.1-.5-.2-.2-.3-.4-.4l-.9-.4H338a.6.6,0,0,1-.9-.6c0-5.5-.1-11.1-.1-16.6,0-.2.1-.4.2-.4l2.3-1.4,1.6-1.3,2-1.9.4-.2c-.5-.3-.6-.3-.8-.1a12.8,12.8,0,0,1-4.9,3.4l-.6.2h-.3a.1.1,0,0,1-.1-.1l-.3-4.8c0-.1.2-.3.3-.4a39.7,39.7,0,0,0,3.6-1.7c1.2-.9,2.3-2,3.4-3s0-.1.1-.2,1.1-2.2,1.7-3.3a4.3,4.3,0,0,0,.1-.5l-.9,1.3a17,17,0,0,1-3.3,4.2,9.2,9.2,0,0,1-2.1,1.3l-3,1.1c-.1-1.5-.1-2.9-.1-4.3a.8.8,0,0,1,.2-.4l1.7-1a1,1,0,0,0,.5-.4l2.4-3.6c.1-.1.1-.3.2-.5h-.1a35.5,35.5,0,0,0-2.3,3.1c-.6,1-1.6,1.3-2.6,1.8.1-2.7.2-5.5.4-8.2h-1c-.2,3.7-.3,7.4-.5,11.1h-.1a6.1,6.1,0,0,1-2.1-3.3c-.2-1-.6-1.9-.9-2.9H332c0,.2-.1.4,0,.6l.6,2a5.8,5.8,0,0,0,2.1,3.9c.8.7.5,1.6.6,2.5l-4.5-1.7a7.3,7.3,0,0,1-2.6-1.7L325.6,31l-.3.4a.3.3,0,0,1,.1.2l3.2,3.2.5.3,3.4,1.5v.2c-.8,2.9-1.7,5.8-2.5,8.7a2.6,2.6,0,0,1-.9,1.6,9.7,9.7,0,0,0-2.3,3.6h-.1c-.1.3-.3.4-.4.7l-.3,1.1a1.3,1.3,0,0,1-.4.6c-.1.1-.3.2-.3.4l-.9,3.1a.8.8,0,0,0,.6,1.1c.5.2.9-.1,1.1-.6a28.1,28.1,0,0,0,.8-3.1.4.4,0,0,0,0-.5,1.1,1.1,0,0,1,0-.8,1.4,1.4,0,0,0,.2-.6c.1-.4.4-.8.2-1.2a.3.3,0,0,1,.1-.2,4.1,4.1,0,0,1,1.7-1.2h.4a3,3,0,0,1,1.7,1.2c.1,0,.1.1.1.2a1.7,1.7,0,0,1,.1.7c.1.4.3.8.4,1.3s0,.2,0,.4a2.5,2.5,0,0,0,.1.8c.2.9.6,1.9.9,2.8a.9.9,0,0,0,1.1.7.9.9,0,0,0,.5-1.2l-.9-2.9c-.1-.3-.3-.4-.5-.6l-.2-.3a7.2,7.2,0,0,0-.9-2,13.9,13.9,0,0,1-1.1-2.1,14.8,14.8,0,0,0,2-11.9l2.2,1a.5.5,0,0,1,.3.5c0,1.9.1,3.8.1,5.7v.7l-1.8-1.1a11.3,11.3,0,0,1-.4,1.5h0l2.1,1.3v.4c-.1,1.4-.1,2.8-.2,4.2s-.3,4.5-.4,6.8-.1,2.1-.2,3.1l-.6.2-1.9.8c-.4.1-.8.2-.7.7a.1.1,0,0,1-.1.1c-1-.3-1.7.2-1.7,1.1l-.4.3-.5.2a23.2,23.2,0,1,1,14.9-1ZM329.8,48.3a.6.6,0,0,1-.5.6.5.5,0,0,1-.5-.5.6.6,0,0,1,.5-.6A.5.5,0,0,1,329.8,48.3Z"/>
      <path class="cls-5" d="M334.5,66.7a25,25,0,1,1,25-25A25,25,0,0,1,334.5,66.7Zm0-49.5A24.5,24.5,0,1,0,359,41.7,24.5,24.5,0,0,0,334.5,17.2Zm-5.8,47.3h-.2a23.7,23.7,0,1,1,15.1-1.1h-.1l-.9-.2h0l-1.7-.4v-.2a.9.9,0,0,0-.7,0h-.1a1.1,1.1,0,0,1-.6-.3h-.1l-.2-.3a.1.1,0,0,1-.1-.1l-.9-.4H338c-.4.1-.7,0-.8-.2s-.3-.3-.3-.7c-.1-5.5-.1-11.1-.2-16.6a.7.7,0,0,1,.4-.6l1-.6,1.3-.9a8.3,8.3,0,0,0,1.6-1.2l.6-.5a13.6,13.6,0,0,1-3.7,2.1l-.4.2h-.4l-.4.2v-.4h0v-.7c-.1-1.4-.2-2.7-.2-4.1a.8.8,0,0,1,.4-.6l1.2-.5a16.7,16.7,0,0,0,2.3-1.2,12.1,12.1,0,0,0,2.4-2.1l1-.9.4-.7a19.5,19.5,0,0,1-2.4,2.6,6.7,6.7,0,0,1-2.2,1.3l-2,.7-.9.4h-.4V35.4c0-1.1-.1-2.2-.1-3.3a.7.7,0,0,1,.4-.6l.9-.6h.1l-.4.2-.6.3-.4.2.4-8.5h-.5l-.5,11.3-.5-.2-.4-.5.4.4a2.5,2.5,0,0,1,.6,2v1.1l-.4-.2-1.4-.5-3-1.2a7.3,7.3,0,0,1-2.8-1.7l-1.7-1.7-.6-.5h-.1l.6.6,2.6,2.6.4.2,2.3,1.1,2.2,1,1.4.5a.9.9,0,0,1,.5.8v3.2c0,.8.1,1.6.1,2.5V45l-.4-.2-1.5-.9a4.1,4.1,0,0,0-.3,1l2.1,1.3v.5c-.1,1.2-.2,2.3-.2,3.4L334.7,61H334l-.7.3-1.2.5c-.5.2-.6.2-.6.5v.2l-.2.2h-.1a1.2,1.2,0,0,0-1.1.2.8.8,0,0,0-.3.7v.2l-.7.3-.3.2Zm5.8-45.9a23.1,23.1,0,0,0-6,45.4l.5-.3h.3a1.2,1.2,0,0,1,.4-1,1.5,1.5,0,0,1,1.3-.3c.1-.5.5-.6.9-.7l1.2-.6.7-.3h.5v-3c-.1.2-.2.3-.4.3a1.1,1.1,0,0,1-1.4-.8l-.3-.6c-.2-.8-.5-1.5-.7-2.3s0-.4,0-.6V53l-.2-.5a2.4,2.4,0,0,1-.2-.8.6.6,0,0,1-.1-.4V51h0a4.5,4.5,0,0,0-1.7-1.1h-.2a3.6,3.6,0,0,0-1.6,1.2h0a1.3,1.3,0,0,1-.1.9.4.4,0,0,0-.1.3c-.1.2-.1.5-.2.7a.6.6,0,0,0,0,.6c.1.2,0,.5,0,.7l-.9,3.1a1.2,1.2,0,0,1-1.4.8,1.8,1.8,0,0,1-.7-.5,2.8,2.8,0,0,1-.1-.9c.3-1.1.6-2.1,1-3.2a.7.7,0,0,1,.4-.5.5.5,0,0,0,.2-.4,5.6,5.6,0,0,1,.4-1.2c0-.2.2-.3.3-.5s0-.1.1-.2,0-.1.1-.1a11,11,0,0,1,2.3-3.7,2.6,2.6,0,0,0,.9-1.5l1.8-6.6.6-2.1-.9-.4-2.3-1-.6-.4-2.6-2.5-.5-.6v-.2l-.2-.2.6-.7h.2l.8.8,1.8,1.6a5.1,5.1,0,0,0,2.5,1.6L334,36l1,.4v-.3a1.8,1.8,0,0,0-.5-1.6,7.6,7.6,0,0,1-2.2-4l-.3-1.3-.3-.8v-.8h.6v.2l.3.8.6,2a4.8,4.8,0,0,0,1.7,2.9l.4-10.8h1.5l-.3,8.1h.2a4.3,4.3,0,0,0,1.9-1.4l1.6-2.3.6-.9h.7v.3h0l-.2.5c-.8,1.3-1.6,2.4-2.4,3.5l-.6.5-.7.4-.9.6-.2.2c0,1.1.1,2.2.1,3.3V36l.6-.2,2.1-.8a5.1,5.1,0,0,0,2-1.2,16.5,16.5,0,0,0,3.3-4.1,4.8,4.8,0,0,1,.9-1.3l.8-.8-.4,1.2a.4.4,0,0,1-.1.3c-.4.8-.8,1.7-1.3,2.5l-.4.9a.1.1,0,0,0-.1.1l-1,1a25.2,25.2,0,0,1-2.5,2.1,10.8,10.8,0,0,1-2.4,1.2l-1.2.5a.3.3,0,0,1-.1.2c0,1.4.1,2.7.2,4v.6h.2l.4-.2a12.3,12.3,0,0,0,4.8-3.2c.4-.4.6-.3,1.1,0l.3.2-.3.2h-.3l-.8.7-1.2,1.2-1.7,1.3-1.3.8-.9.6a.2.2,0,0,0-.2.2c0,5.5.1,11.1.2,16.6a.6.6,0,0,0,.1.4h1l1,.4c.1.1.2.2.2.3h.2c0,.1.2.2.2.2h.1a1.4,1.4,0,0,1,1.2.2h.1l1.1.2h.3l.5.2a23.1,23.1,0,0,0-8.9-44.4Zm-3.3,44ZM328.6,48a11.2,11.2,0,0,0-1.6,2.8.3.3,0,0,1-.1.2.3.3,0,0,0-.1.2l-.3.4-.3,1.1a1.2,1.2,0,0,1-.5.7l-.2.3-.9,3.1a.7.7,0,0,0,.1.5.3.3,0,0,0,.3.3.6.6,0,0,0,.8-.5l.9-3v-.4a1.2,1.2,0,0,1,0-1,1.4,1.4,0,0,0,.2-.6c0-.1.1-.2.1-.3a2,2,0,0,0,.1-.7c-.1-.2,0-.3.1-.4a3.2,3.2,0,0,1,1.8-1.3.6.6,0,0,1,.6,0,4.1,4.1,0,0,1,1.8,1.2.8.8,0,0,1,.2.4v.2c0,.2,0,.3.1.4a1.4,1.4,0,0,0,.2.7,1.4,1.4,0,0,0,.2.6v.4h0v.7l.7,2.2.2.7c.2.4.5.6.8.4a.5.5,0,0,0,.4-.2.6.6,0,0,0,0-.6L334,56a22.5,22.5,0,0,0-.8-2.4c0-.1-.1-.2-.2-.3s-.1-.1-.2-.2h0a.2.2,0,0,1-.2-.2,1.6,1.6,0,0,1-.3-.8,4.5,4.5,0,0,0-.6-1.2,6.4,6.4,0,0,1-.8-1.4l-.3-.7h0a14.2,14.2,0,0,0,2-11.3l-.5,1.8-1.8,6.6a3.7,3.7,0,0,1-1,1.7l-.4.4h.4a.8.8,0,0,1,.8.7h0a1.4,1.4,0,0,1-.2.6l-.6.2h0a.8.8,0,0,1-.8-.7C328.5,48.3,328.6,48.1,328.6,48Zm2.5.6a1.7,1.7,0,0,1,.2.5,6.4,6.4,0,0,0,.8,1.4,2.5,2.5,0,0,1,.6,1.3l.3.7a.3.3,0,0,0,.1.2h.1l.2.2.3.5c.3.8.5,1.6.8,2.3V56l.4-5.9c0-1.1.1-2.3.2-3.4v-.2l-2.2-1.4h.1a11.6,11.6,0,0,0,.3-1.5v-.3A15.8,15.8,0,0,1,331.1,48.6Zm-3.6,2.3Zm1.8-2.8h-.2a.3.3,0,0,0-.1.2c0,.1.2.2.3.2s.2,0,.2-.1a.1.1,0,0,0,.1-.1h0A.3.3,0,0,0,329.3,48.1Zm4-5.1.4.3,1.5.9v-.3c0-.9-.1-1.7-.1-2.5V38.2c0-.2-.1-.2-.2-.3l-1.4-.6-.4-.2A17,17,0,0,1,333.3,43Zm9.7-4.1Z"/>
    </g>
  </g>
</svg>
