<svg id="Layer_1" data-name="Layer 1" xmlns="http://www.w3.org/2000/svg" xmlns:xlink="http://www.w3.org/1999/xlink" width="374.5" height="89.4" viewBox="0 0 374.5 89.4">
  <defs>
    <style>
      .cls-1 {
        fill: url(#linear-gradient);
      }

      .cls-2, .cls-4, .cls-5 {
        fill: #fff;
      }

      .cls-2 {
        opacity: 0.3;
      }

      .cls-2, .cls-3, .cls-4 {
        isolation: isolate;
      }

      .cls-4 {
        font-size: 16px;
        font-family: Montserrat-Medium, Montserrat;
      }
    </style>
    <linearGradient id="linear-gradient" x1="405.55" y1="126.36" x2="21.53" y2="-32.27" gradientUnits="userSpaceOnUse">
      <stop offset="0" stop-color="#64dcc2"/>
      <stop offset="1" stop-color="#70bce6"/>
    </linearGradient>
  </defs>
  <title>banner_ac_E0</title>
  <g id="Page-1">
    <g id="UI---Screen-7---v2">
      <g id="Group-2">
        <path id="Path-4" class="cls-1" d="M0,72.4C71,74,112,68.2,210.5,71c58.9,1.7,113.3,7.8,164,18.4V0H0Z"/>
        <rect id="Rectangle-Copy-2" class="cls-2" x="23.5" y="22" width="47" height="7" rx="3.3" ry="3.3"/>
        <rect id="Rectangle-Copy-4" class="cls-2" x="186.5" y="29" width="47" height="7" rx="3.2" ry="3.2"/>
        <rect id="Rectangle-Copy-3" class="cls-2" x="64.5" y="35" width="47" height="7" rx="3.3" ry="3.3"/>
        <path id="Rectangle-Copy-5" class="cls-2" d="M236.8,42h40.5a3.2,3.2,0,0,1,3.2,3.2v.5a3.3,3.3,0,0,1-3.2,3.3H236.8a3.3,3.3,0,0,1-3.2-3.2v-.5A3.3,3.3,0,0,1,236.8,42Z"/>
        <g id="sweep">
          <g id="_" data-name="+" class="cls-3">
            <text class="cls-4" transform="translate(298.5 26)">+</text>
          </g>
          <g id="_-copy" data-name="+-copy" class="cls-3">
            <text class="cls-4" transform="translate(336.5 14)">+</text>
          </g>
        </g>
      </g>
    </g>
  </g>
  <g>
    <path class="cls-5" d="M314.7,35h0v1.5a1.5,1.5,0,0,0,1.5,1.5h.8v6.8h-.8a1.5,1.5,0,0,0-1.5,1.5v5.9a1.5,1.5,0,0,0,1.5,1.5h0v7.4a1.5,1.5,0,0,0,1.5,1.5h4.6a1.5,1.5,0,0,0,1.5-1.5V53.7h0a1.5,1.5,0,0,0,1.5-1.5h.9a3.7,3.7,0,0,0,3.7,3,3.8,3.8,0,0,0,3.7-3h3.2a1.4,1.4,0,0,0,1.5,1.5h9.1c8.5,8.2,8.5,8.2,9.1,8.2a1.2,1.2,0,0,0,1-.4l5.4-5.2a1.6,1.6,0,0,0,.5-1.1,1.4,1.4,0,0,0-.5-1l-3.3-3.3h0V36.5h0a1.5,1.5,0,0,0,1.5-1.5V31.3a1.5,1.5,0,0,0-1.5-1.5h0v-9a6,6,0,0,0-6.1-5.9h-6.3a1.6,1.6,0,0,0-1.3-.8h-2.3a1.5,1.5,0,0,0-1.5-1.5H314.7a1.5,1.5,0,0,0-1.5,1.5V33.5A1.4,1.4,0,0,0,314.7,35Zm1.5,1.5v-3h7.6v2.9h-7.6Zm2.2,1.5h3.2v6.8h-3.2Zm3.9,23.2h-4.6V53.7h4.6Zm1.5-9h-7.6v-6h7.6Zm2.4-1.4h-.9V47.7h2.3A11.9,11.9,0,0,0,326.2,50.8Zm7.4,0a11.9,11.9,0,0,0-1.4-3.1h4.6v3.1Zm4.6,1.4v-6h1.3l6.3,6h-7.7Zm18.3,9v-.7h0Zm5.4-5.9-5.3,5.1c-.6-.4-2.8-2.6-9.1-8.6l-8.9-8.6-.4.2a9.4,9.4,0,0,1-9.2-2.2l6.4-6.3L329,28.7a9.3,9.3,0,0,1,12.3-.6h.2l.5.5a8.6,8.6,0,0,1,2.2,8.9V38ZM326.8,35.6a4.3,4.3,0,0,1,1.1-2.8l3.8,3.7-3.2,3.1A5.2,5.2,0,0,1,326.8,35.6Zm20.6-12.4h2.3v6.6h0a1.5,1.5,0,0,0-1.5,1.5V35a1.5,1.5,0,0,0,1.5,1.5h0v4.9h0l-4-3.8a10,10,0,0,0-2.7-10c-.1-.1-.2-.1-.2-.2h0a12.8,12.8,0,0,0,.7-2.8h2.4A1.5,1.5,0,0,0,347.4,23.2Zm0-1.5V16.3h.8v5.4Zm10.7,27.8-6.9-6.7V36.5h6.9Zm1.5-18.2V35h-9.9V31.3Zm-8.4-1.5V25.3h6.9v4.5Zm6.9-5.9h-6.8l5.9-5.7a3.9,3.9,0,0,1,.9,2.6ZM356,17.1h0l-5.3,5a1.5,1.5,0,0,0-1-.4h0V16.3h3.8A4.4,4.4,0,0,1,356,17.1Zm-10.1-1.5v7.5h-2.3V15.6Zm-31.2-1.5h27.4v9a12.1,12.1,0,0,1-.5,3.4,10.9,10.9,0,0,0-13.7,1.1,1.5,1.5,0,0,0-.4,1.1,1.3,1.3,0,0,0,.4,1l5.4,5.2-.5.5h0l-3.9-3.6a1.4,1.4,0,0,0-2.1,0,5.8,5.8,0,0,0-1.5,3.8,7.4,7.4,0,0,0,2.2,5.2h0v.4a1.2,1.2,0,0,0,.4,1,10.9,10.9,0,0,0,9.5,2.9h0a1.3,1.3,0,0,0-.6,1.2h-5.5a4.8,4.8,0,0,0-.8-1.2.8.8,0,0,0-1.2,0,4.8,4.8,0,0,0-.8,1.2h-3.2a1.5,1.5,0,0,0-1.5-1.5H323V38h.8a1.5,1.5,0,0,0,1.5-1.5V33.6a1.5,1.5,0,0,0-1.5-1.5h-7.6a1.5,1.5,0,0,0-1.5,1.5h-.1Z"/>
    <path class="cls-5" d="M343.4,37a1.5,1.5,0,0,0-.4-1.1l-2.2-2a1.5,1.5,0,0,0-2.1,0L334.4,38a1.7,1.7,0,0,0,0,2.2l2.2,2a1.4,1.4,0,0,0,1,.5,1.6,1.6,0,0,0,1.1-.5l4.3-4.1A1.5,1.5,0,0,0,343.4,37Zm-5.8,4.2h0v0l-2.2-2.1,1.7-1.6-.2.7,2.8,1Zm2.7-2.6.2-.7-2.8-1,2.1-2L342,37Z"/>
    <rect class="cls-5" x="335.2" y="25.6" width="1.5" height="9" transform="translate(73.9 242.5) rotate(-44.2)"/>
    <path class="cls-5" d="M353.5,55.3a2.9,2.9,0,0,0,3,2.9h0a2.9,2.9,0,0,0,3-2.9,3,3,0,1,0-6,0Zm1.9-1.1a1.6,1.6,0,0,1,2.2,0,1.4,1.4,0,0,1,0,2.1,1.5,1.5,0,0,1-1.1.4h0a1.5,1.5,0,0,1-1.1-.4,1.4,1.4,0,0,1,0-2.1Z"/>
    <polygon class="cls-5" points="341.5 41.7 353.5 53.1 354.4 52.2 342.5 40.8 341.5 41.7"/>
    <path class="cls-5" d="M336.8,53.7a.6.6,0,0,0-.6.3c-.4.4-2.5,2.8-2.5,4.2a3.1,3.1,0,0,0,6.1,0c0-1.4-2.1-3.8-2.5-4.2A.5.5,0,0,0,336.8,53.7Z"/>
    <rect class="cls-5" x="316.9" y="16.4" width="3" height="1.42"/>
    <rect class="cls-5" x="321.5" y="16.4" width="9.1" height="1.42"/>
    <rect class="cls-5" x="327.6" y="19.4" width="3" height="1.42"/>
    <rect class="cls-5" x="316.9" y="19.4" width="9.1" height="1.42"/>
    <rect class="cls-5" x="332.2" y="16.4" width="1.5" height="1.42"/>
  </g>
</svg>
