<svg id="Layer_1" data-name="Layer 1" xmlns="http://www.w3.org/2000/svg" xmlns:xlink="http://www.w3.org/1999/xlink" width="374.5" height="89.4" viewBox="0 0 374.5 89.4">
  <defs>
    <style>
      .cls-1 {
        fill: url(#linear-gradient);
      }

      .cls-2, .cls-4, .cls-5 {
        fill: #fff;
      }

      .cls-2 {
        opacity: 0.3;
      }

      .cls-2, .cls-3, .cls-4 {
        isolation: isolate;
      }

      .cls-4 {
        font-size: 16px;
        font-family: Montserrat-Medium, Montserrat;
      }
    </style>
    <linearGradient id="linear-gradient" x1="405.55" y1="126.36" x2="21.53" y2="-32.27" gradientUnits="userSpaceOnUse">
      <stop offset="0" stop-color="#75c9b9"/>
      <stop offset="1" stop-color="#72bde5"/>
    </linearGradient>
  </defs>
  <title>banner_electrical_E01</title>
  <g id="Page-1">
    <g id="UI---Screen-7---v2">
      <g id="Group-2">
        <path id="Path-4" class="cls-1" d="M0,72.4C71,74,112,68.2,210.5,71c58.9,1.7,113.3,7.8,164,18.4V0H0Z"/>
        <rect id="Rectangle-Copy-2" class="cls-2" x="23.5" y="22" width="47" height="7" rx="3.3" ry="3.3"/>
        <rect id="Rectangle-Copy-4" class="cls-2" x="186.5" y="29" width="47" height="7" rx="3.3" ry="3.3"/>
        <path id="Rectangle-Copy-3" class="cls-2" d="M67.8,35h40.5a3.3,3.3,0,0,1,3.3,3.3v.5a3.2,3.2,0,0,1-3.2,3.2H67.8a3.3,3.3,0,0,1-3.2-3.2v-.5A3.3,3.3,0,0,1,67.8,35Z"/>
        <rect id="Rectangle-Copy-5" class="cls-2" x="233.5" y="42" width="47" height="7" rx="3.3" ry="3.3"/>
        <g id="sweep">
          <g id="_" data-name="+" class="cls-3">
            <text class="cls-4" transform="translate(314.3 26)">+</text>
          </g>
          <g id="_-copy" data-name="+-copy" class="cls-3">
            <text class="cls-4" transform="translate(336.5 14)">+</text>
          </g>
        </g>
      </g>
    </g>
  </g>
  <g>
    <path class="cls-5" d="M343.6,58.3H311.9V33.4h8.6a.9.9,0,0,0,0-1.8H311a.9.9,0,0,0-.9.9V59.2a.9.9,0,0,0,.9.8h32.6a.9.9,0,0,0,.9-.8A.9.9,0,0,0,343.6,58.3Z"/>
    <path class="cls-5" d="M359.2,31.6h-23V26.9a2.6,2.6,0,0,0,1.7-2.5,2.5,2.5,0,0,0-2.6-2.5,2.6,2.6,0,0,0-2.6,2.5,2.7,2.7,0,0,0,1.7,2.5v4.7h-11a.9.9,0,1,0,0,1.8h34.9V58.3H346.5a.9.9,0,0,0-.9.9.9.9,0,0,0,.9.8h12.7a.9.9,0,0,0,.9-.8V32.5A.9.9,0,0,0,359.2,31.6Zm-24.7-7.2a.9.9,0,0,1,.8-.8.8.8,0,0,1,.8.8.7.7,0,0,1-.8.8A.8.8,0,0,1,334.5,24.4Z"/>
    <path class="cls-5" d="M341.2,39a.9.9,0,1,0-.9-.9A.9.9,0,0,0,341.2,39Z"/>
    <path class="cls-5" d="M338.4,39a.9.9,0,1,0-.9-.9A.9.9,0,0,0,338.4,39Z"/>
    <path class="cls-5" d="M344,37.2a.9.9,0,1,0,.9.9A.9.9,0,0,0,344,37.2Z"/>
    <path class="cls-5" d="M346.8,39a.9.9,0,0,0,0-1.8.9.9,0,1,0,0,1.8Z"/>
    <path class="cls-5" d="M352.3,39a.9.9,0,1,0-.9-.9A.9.9,0,0,0,352.3,39Z"/>
    <path class="cls-5" d="M349.5,39a.9.9,0,1,0,0-1.8.9.9,0,1,0,0,1.8Z"/>
    <path class="cls-5" d="M352.3,42.7a.9.9,0,1,0-.9-.9A.9.9,0,0,0,352.3,42.7Z"/>
    <path class="cls-5" d="M349.5,42.7a.9.9,0,1,0,0-1.8.9.9,0,0,0,0,1.8Z"/>
    <path class="cls-5" d="M341.2,42.7a.9.9,0,1,0-.9-.9A.9.9,0,0,0,341.2,42.7Z"/>
    <path class="cls-5" d="M346.8,42.7a.9.9,0,1,0,0-1.8.9.9,0,1,0,0,1.8Z"/>
    <path class="cls-5" d="M344,40.9a.9.9,0,1,0,.9.9A.9.9,0,0,0,344,40.9Z"/>
    <path class="cls-5" d="M338.4,42.7a.9.9,0,1,0-.9-.9A.9.9,0,0,0,338.4,42.7Z"/>
    <path class="cls-5" d="M352.3,46.5a.9.9,0,1,0-.9-.9A.9.9,0,0,0,352.3,46.5Z"/>
    <path class="cls-5" d="M338.4,46.5a.9.9,0,1,0-.9-.9A.9.9,0,0,0,338.4,46.5Z"/>
    <path class="cls-5" d="M341.2,46.5a.9.9,0,1,0-.9-.9A.9.9,0,0,0,341.2,46.5Z"/>
    <path class="cls-5" d="M346.8,46.5a.9.9,0,0,0,0-1.8.9.9,0,1,0,0,1.8Z"/>
    <path class="cls-5" d="M344,44.7a.9.9,0,1,0,.9.9A.9.9,0,0,0,344,44.7Z"/>
    <path class="cls-5" d="M349.5,46.5a.9.9,0,1,0,0-1.8.9.9,0,1,0,0,1.8Z"/>
    <path class="cls-5" d="M340.2,56a3.8,3.8,0,1,0-3.8-3.8A3.8,3.8,0,0,0,340.2,56Zm-2-3.8a2,2,0,0,1,2-2,2,2,0,1,1,0,4A2,2,0,0,1,338.2,52.2Z"/>
    <path class="cls-5" d="M346,52.2a3.8,3.8,0,1,0,3.8-3.8A3.8,3.8,0,0,0,346,52.2Zm1.8,0a2,2,0,1,1,2,2A2,2,0,0,1,347.8,52.2Z"/>
    <path class="cls-5" d="M314.6,46a9.5,9.5,0,1,0,9.5-9.4A9.5,9.5,0,0,0,314.6,46Zm1.8,0a7.7,7.7,0,1,1,7.7,7.6A7.7,7.7,0,0,1,316.4,46Z"/>
    <path class="cls-5" d="M324.1,50.4a4.4,4.4,0,1,0-4.5-4.4A4.5,4.5,0,0,0,324.1,50.4ZM321.4,46a2.7,2.7,0,0,1,5.4,0,2.7,2.7,0,0,1-5.4,0Z"/>
    <path class="cls-5" d="M335.3,18.8a5.4,5.4,0,0,0-5.4,5.4.7.7,0,1,0,1.4,0,4,4,0,1,1,8,0,.9.9,0,0,0,.8.7.8.8,0,0,0,.7-.7A5.5,5.5,0,0,0,335.3,18.8Z"/>
    <path class="cls-5" d="M343,24.9a.8.8,0,0,0,.7-.7,8.4,8.4,0,0,0-16.8,0,.8.8,0,0,0,.7.7.9.9,0,0,0,.8-.7,7,7,0,0,1,13.9,0A.8.8,0,0,0,343,24.9Z"/>
  </g>
</svg>
