<svg id="Layer_1" data-name="Layer 1" xmlns="http://www.w3.org/2000/svg" xmlns:xlink="http://www.w3.org/1999/xlink" width="374.5" height="89.4" viewBox="0 0 374.5 89.4">
  <defs>
    <style>
      .cls-1 {
        fill: url(#linear-gradient);
      }

      .cls-2, .cls-4, .cls-5 {
        fill: #fff;
      }

      .cls-2 {
        opacity: 0.3;
      }

      .cls-2, .cls-3, .cls-4 {
        isolation: isolate;
      }

      .cls-4 {
        font-size: 16px;
        font-family: Montserrat-Medium, Montserrat;
      }
    </style>
    <linearGradient id="linear-gradient" x1="405.55" y1="126.36" x2="21.53" y2="-32.27" gradientUnits="userSpaceOnUse">
      <stop offset="0" stop-color="#64dcc2"/>
      <stop offset="1" stop-color="#70bce6"/>
    </linearGradient>
  </defs>
  <title>banner_carpentry_C0</title>
  <g id="Page-1">
    <g id="UI---Screen-7---v2">
      <g id="Group-2">
        <path id="Path-4" class="cls-1" d="M0,72.4C71,74,112,68.2,210.5,71c58.9,1.7,113.3,7.8,164,18.4V0H0Z"/>
        <path id="Rectangle-Copy-2" class="cls-2" d="M26.8,22H67.3a3.3,3.3,0,0,1,3.3,3.3v.5A3.3,3.3,0,0,1,67.3,29H26.8a3.2,3.2,0,0,1-3.2-3.2v-.5A3.2,3.2,0,0,1,26.8,22Z"/>
        <rect id="Rectangle-Copy-4" class="cls-2" x="186.5" y="29" width="47" height="7" rx="3.3" ry="3.3"/>
        <rect id="Rectangle-Copy-3" class="cls-2" x="64.5" y="35" width="47" height="7" rx="3.3" ry="3.3"/>
        <path id="Rectangle-Copy-5" class="cls-2" d="M236.8,42h40.5a3.3,3.3,0,0,1,3.3,3.3v.5a3.3,3.3,0,0,1-3.2,3.3H236.8a3.2,3.2,0,0,1-3.2-3.2v-.5A3.3,3.3,0,0,1,236.8,42Z"/>
        <g id="sweep">
          <g id="_" data-name="+" class="cls-3">
            <text class="cls-4" transform="translate(298.5 26)">+</text>
          </g>
          <g id="_-copy" data-name="+-copy" class="cls-3">
            <text class="cls-4" transform="translate(336.5 14)">+</text>
          </g>
        </g>
      </g>
    </g>
  </g>
  <g>
    <polygon class="cls-5" points="309.7 65.2 321.5 65.2 321.5 63.7 311.1 63.7 311.1 16.6 358.3 16.6 358.3 63.7 348.1 63.7 348.1 65.2 359.7 65.2 359.7 15.1 309.7 15.1 309.7 65.2"/>
    <path class="cls-5" d="M340.3,34.7a5.8,5.8,0,1,0-11.5,0,5.5,5.5,0,0,0,2,4.3l-.7,6.8a1.9,1.9,0,0,0,.5,1.6,1.8,1.8,0,0,0,1.4.6h5.1a2,2,0,0,0,1.5-.6,3,3,0,0,0,.5-1.6l-.8-6.7A5,5,0,0,0,340.3,34.7Zm-3.1,3.5-.4.2.8,7.6c.1.1,0,.3-.1.4a.5.5,0,0,1-.4.2H332l-.4-.2a.6.6,0,0,1-.1-.4l.8-7.6-.3-.3a4.2,4.2,0,0,1-1.8-3.4,4.4,4.4,0,0,1,4.4-4.4,4.4,4.4,0,0,1,4.3,4.4A3.8,3.8,0,0,1,337.2,38.2Z"/>
    <path class="cls-5" d="M342.5,51a14.3,14.3,0,0,0,6.1-11.7,14.1,14.1,0,1,0-22,11.7l.4.2a.7.7,0,0,0,.6-.3.8.8,0,0,0-.2-1,12.7,12.7,0,1,1,14.3-.1.8.8,0,0,0-.2,1A.8.8,0,0,0,342.5,51Z"/>
    <path class="cls-5" d="M341.7,56.9V54l-1.8-.4c-.1-.2-.1-.3-.2-.4l.9-1.6-2-2.1-1.6,1-.4-.2-.5-1.8h-2.8l-.5,1.8-.4.2-1.6-1-2.1,2.1,1,1.6-.2.4-1.8.4v2.9l1.8.5c.1.1.1.3.2.4l-1,1.6,2.1,2,1.6-.9h.4l.5,1.9h2.8l.5-1.9h.4l1.6.9,2-2-.9-1.6c.1-.1.1-.3.2-.4Zm-4.7,2-.3.2-.9.3h-.4L335,61h-.6l-.5-1.5h-.3l-.9-.3-.3-.2-1.4.7-.5-.4.8-1.4-.2-.4-.3-.8v-.4l-1.6-.4v-.7l1.6-.4v-.4l.3-.8.2-.4-.8-1.3.5-.5,1.4.8.3-.2.9-.4h.3l.5-1.5h.6l.4,1.5h.4l.9.4.3.2,1.4-.8.5.5-.8,1.3.2.4.3.8v.4l1.6.4v.7l-1.6.4v.4l-.3.8-.2.4.8,1.4-.5.4Z"/>
    <path class="cls-5" d="M327.1,65.2h15.2a3,3,0,0,0,3-3.1v-3h-1.4v3a1.6,1.6,0,0,1-1.6,1.6H327.1a1.6,1.6,0,0,1-1.6-1.6v-3h-1.4v3A3,3,0,0,0,327.1,65.2Z"/>
    <polygon class="cls-5" points="332.6 55.1 333.4 55.9 334.1 55.1 334.1 57.8 335.3 57.8 335.3 55.2 336 55.9 336.8 55.1 334.7 52.9 332.6 55.1"/>
  </g>
</svg>
