<svg id="Layer_1" data-name="Layer 1" xmlns="http://www.w3.org/2000/svg" xmlns:xlink="http://www.w3.org/1999/xlink" width="374.5" height="89.4" viewBox="0 0 374.5 89.4">
  <defs>
    <style>
      .cls-1 {
        fill: url(#linear-gradient);
      }

      .cls-2, .cls-4, .cls-5 {
        fill: #fff;
      }

      .cls-2 {
        opacity: 0.3;
      }

      .cls-2, .cls-3, .cls-4 {
        isolation: isolate;
      }

      .cls-4 {
        font-size: 16px;
        font-family: Montserrat-Medium, Montserrat;
      }
    </style>
    <linearGradient id="linear-gradient" x1="405.55" y1="126.36" x2="21.53" y2="-32.27" gradientUnits="userSpaceOnUse">
      <stop offset="0" stop-color="#64dcc2"/>
      <stop offset="1" stop-color="#70bce6"/>
    </linearGradient>
  </defs>
  <title>banner_carpentry_C0</title>
  <g id="Page-1">
    <g id="UI---Screen-7---v2">
      <g id="Group-2">
        <path id="Path-4" class="cls-1" d="M0,72.4C71,74,112,68.2,210.5,71c58.9,1.7,113.3,7.8,164,18.4V0H0Z"/>
        <path id="Rectangle-Copy-2" class="cls-2" d="M26.8,22H67.3a3.3,3.3,0,0,1,3.3,3.3v.5A3.3,3.3,0,0,1,67.3,29H26.8a3.2,3.2,0,0,1-3.2-3.2v-.5A3.2,3.2,0,0,1,26.8,22Z"/>
        <rect id="Rectangle-Copy-4" class="cls-2" x="186.5" y="29" width="47" height="7" rx="3.3" ry="3.3"/>
        <rect id="Rectangle-Copy-3" class="cls-2" x="64.5" y="35" width="47" height="7" rx="3.3" ry="3.3"/>
        <rect id="Rectangle-Copy-5" class="cls-2" x="233.5" y="42" width="47" height="7" rx="3.3" ry="3.3"/>
        <g id="sweep">
          <g id="_" data-name="+" class="cls-3">
            <text class="cls-4" transform="translate(298.5 26)">+</text>
          </g>
          <g id="_-copy" data-name="+-copy" class="cls-3">
            <text class="cls-4" transform="translate(336.5 14)">+</text>
          </g>
        </g>
      </g>
    </g>
  </g>
  <path class="cls-5" d="M335.5,15.2a25,25,0,1,0,25,25A25,25,0,0,0,335.5,15.2Zm-.6,8.4h1.2l7.7,9.3H327.4Zm15.7,34.7-1.4,1.2V36.2h-2.4a1.7,1.7,0,0,0,.6-1.1,1.1,1.1,0,0,0-.3-.8h3.5ZM326.8,35.1a1.1,1.1,0,0,0-.3-.8h18.2a1.9,1.9,0,0,0-.2.8,1.4,1.4,0,0,0,.6,1.1H326.2A1.7,1.7,0,0,0,326.8,35.1Zm-2.3,1.1h-2.6V59.5l-1.5-1.2v-24h3.7a1.9,1.9,0,0,0-.2.8A1.4,1.4,0,0,0,324.5,36.2Zm-1.2,24.2V37.6h24.4V60.4a22.8,22.8,0,0,1-12.2,3.4A23.3,23.3,0,0,1,323.3,60.4ZM352.1,57V32.9h-7.4l-8-9.8a1.9,1.9,0,0,0,.3-.8,1.5,1.5,0,0,0-1.5-1.5,1.5,1.5,0,0,0-1.4,1.5,1.1,1.1,0,0,0,.3.8l-7.9,9.8H319V57a23.2,23.2,0,0,1-7-16.8A23.6,23.6,0,1,1,352.1,57Z"/>
</svg>
