<?xml version="1.0" encoding="UTF-8" standalone="no"?>
<svg width="39px" height="35px" viewBox="0 0 39 35" version="1.1" xmlns="http://www.w3.org/2000/svg" xmlns:xlink="http://www.w3.org/1999/xlink">
    <!-- Generator: sketchtool 48.1 (47250) - http://www.bohemiancoding.com/sketch -->
    <title>FFD463DC-4DA0-4C1B-A3DC-CC23F50B76EE</title>
    <desc>Created with sketchtool.</desc>
    <defs></defs>
    <g id="Pahal--v5---Technical-Assistance" stroke="none" stroke-width="1" fill="none" fill-rule="evenodd" transform="translate(-444.000000, -513.000000)">
        <g id="Group-2-Copy" transform="translate(444.000000, 513.000000)" fill="#093A66">
            <path d="M38.5645669,0 L37.7404586,0 L1.25954141,0 L0.434458987,0 C0.197747028,0 0,0.199752594 0,0.439849307 L0,28.1277236 C0,28.3678203 0.197747028,28.5675729 0.434458987,28.5675729 L1.25954141,28.5675729 L19.0645669,28.5675729 L19.0645669,31.6839101 C18.3524828,31.8836627 17.8381457,32.5232646 17.8381457,33.322275 C17.8381457,34.2413337 18.5901688,35 19.5,35 C20.4098312,35 21.1608802,34.2413337 21.1608802,33.322275 C21.1608802,32.5636088 20.645569,31.8836627 19.934459,31.6839101 L19.934459,28.5675729 L37.7404586,28.5675729 L38.5645669,28.5675729 C38.802253,28.5675729 39,28.3678203 39,28.1277236 L39,0.439849307 C39,0.199752594 38.802253,0 38.5645669,0 Z M12.3996153,23.573758 C12.3996153,23.7331665 12.2807723,23.8532149 12.1219902,23.8532149 L9.19572385,23.8532149 C9.03694175,23.8532149 8.91809871,23.7331665 8.91809871,23.573758 L8.91809871,21.8950491 C8.91809871,21.7356406 9.03694175,21.6155922 9.19572385,21.6155922 L12.1219902,21.6155922 C12.2807723,21.6155922 12.3996153,21.7356406 12.3996153,21.8950491 L12.3996153,23.573758 Z M15.9200969,14.82302 C15.5246029,14.82302 15.2070387,14.5032191 15.2070387,14.1037139 L15.2070387,9.86856532 C15.2070387,9.46906014 15.5246029,9.14925919 15.9200969,9.14925919 L23.276676,9.14925919 C23.67217,9.14925919 23.9887601,9.46906014 23.9887601,9.86856532 L23.9887601,14.1037139 C23.9887601,14.5032191 23.67217,14.82302 23.276676,14.82302 L20.1526626,14.82302 L20.1526626,17.2603953 L28.3401688,17.2603953 C28.6168199,17.2603953 28.8934709,17.500492 28.8545059,17.820293 L28.8545059,20.4564368 L27.7469278,20.4564368 L27.7469278,18.3792066 L20.1526626,18.3792066 L20.1526626,20.4564368 L19.0450844,20.4564368 L19.0450844,18.3792066 L11.2131332,18.3792066 L11.2131332,20.4564368 L10.105555,20.4564368 L10.105555,17.820293 C10.105555,17.500492 10.3432411,17.2603953 10.6598312,17.2603953 L19.0450844,17.2603953 L19.0450844,14.82302 L15.9200969,14.82302 Z M13.5081676,23.1742529 L16.8299281,23.1742529 L16.8299281,22.2551941 L13.5081676,22.2551941 L13.5081676,23.1742529 Z M20.2909881,33.2819309 C20.2909881,33.7217802 19.934459,34.0809413 19.5,34.0809413 C19.0645669,34.0809413 18.7090119,33.7217802 18.7090119,33.2819309 C18.7090119,32.8430656 19.0645669,32.4829205 19.5,32.4829205 C19.934459,32.4829205 20.2909881,32.8430656 20.2909881,33.2819309 Z M21.3381706,23.573758 C21.3381706,23.7331665 21.2203017,23.8532149 21.0624938,23.8532149 L18.1352533,23.8532149 C17.9764712,23.8532149 17.8586023,23.7331665 17.8586023,23.573758 L17.8586023,21.8950491 C17.8586023,21.7356406 17.9764712,21.6155922 18.1352533,21.6155922 L21.0624938,21.6155922 C21.2203017,21.6155922 21.3381706,21.7356406 21.3381706,21.8950491 L21.3381706,23.573758 Z M22.1301329,23.1742529 L25.4528674,23.1742529 L25.4528674,22.2551941 L22.1301329,22.2551941 L22.1301329,23.1742529 Z M30.079953,23.573758 C30.079953,23.7331665 29.9620841,23.8532149 29.803302,23.8532149 L26.8760615,23.8532149 C26.7182536,23.8532149 26.5994105,23.7331665 26.5994105,23.573758 L26.5994105,21.8950491 C26.5994105,21.7356406 26.7182536,21.6155922 26.8760615,21.6155922 L29.803302,21.6155922 C29.9620841,21.6155922 30.079953,21.7356406 30.079953,21.8950491 L30.079953,23.573758 Z M34.9252423,5.23391155 L4.07378359,5.23391155 C3.83609751,5.23391155 3.63835048,5.03415896 3.63835048,4.79406225 C3.63835048,4.55494953 3.83609751,4.35519694 4.07378359,4.35519694 L34.9252423,4.35519694 C35.1629284,4.35519694 35.3606754,4.55494953 35.3606754,4.79406225 C35.3606754,5.03415896 35.1629284,5.23391155 34.9252423,5.23391155 Z" id="Fill-1"></path>
        </g>
    </g>
</svg>