<svg id="Layer_1" data-name="Layer 1" xmlns="http://www.w3.org/2000/svg" xmlns:xlink="http://www.w3.org/1999/xlink" width="70" height="70" viewBox="0 0 70 70">
  <defs>
    <style>
      .cls-1 {
        fill: #f6f6f6;
      }

      .cls-2 {
        fill: url(#linear-gradient);
      }

      .cls-3 {
        fill: url(#linear-gradient-2);
      }

      .cls-4 {
        fill: url(#linear-gradient-3);
      }

      .cls-5 {
        fill: url(#linear-gradient-4);
      }

      .cls-6 {
        fill: url(#linear-gradient-5);
      }

      .cls-7 {
        fill: url(#linear-gradient-6);
      }

      .cls-8 {
        fill: url(#linear-gradient-7);
      }

      .cls-9 {
        fill: url(#linear-gradient-8);
      }

      .cls-10 {
        fill: url(#linear-gradient-9);
      }

      .cls-11 {
        fill: url(#linear-gradient-10);
      }

      .cls-12 {
        fill: url(#linear-gradient-11);
      }

      .cls-13 {
        fill: url(#linear-gradient-12);
      }

      .cls-14 {
        fill: url(#linear-gradient-13);
      }

      .cls-15 {
        fill: url(#linear-gradient-14);
      }

      .cls-16 {
        fill: url(#linear-gradient-15);
      }

      .cls-17 {
        fill: url(#linear-gradient-16);
      }

      .cls-18 {
        fill: url(#linear-gradient-17);
      }

      .cls-19 {
        fill: url(#linear-gradient-18);
      }

      .cls-20 {
        fill: url(#linear-gradient-19);
      }

      .cls-21 {
        fill: url(#linear-gradient-20);
      }

      .cls-22 {
        fill: url(#linear-gradient-21);
      }

      .cls-23 {
        fill: url(#linear-gradient-22);
      }

      .cls-24 {
        fill: url(#linear-gradient-23);
      }
    </style>
    <linearGradient id="linear-gradient" x1="55.95" y1="64.34" x2="25.64" y2="2.28" gradientUnits="userSpaceOnUse">
      <stop offset="0" stop-color="#75c9b9"/>
      <stop offset="1" stop-color="#72bde5"/>
    </linearGradient>
    <linearGradient id="linear-gradient-2" x1="56.89" y1="63.88" x2="26.58" y2="1.82" xlink:href="#linear-gradient"/>
    <linearGradient id="linear-gradient-3" x1="58.63" y1="63.03" x2="28.32" y2="0.97" xlink:href="#linear-gradient"/>
    <linearGradient id="linear-gradient-4" x1="53.41" y1="65.58" x2="23.1" y2="3.52" xlink:href="#linear-gradient"/>
    <linearGradient id="linear-gradient-5" x1="49.93" y1="67.28" x2="19.62" y2="5.22" xlink:href="#linear-gradient"/>
    <linearGradient id="linear-gradient-6" x1="55.15" y1="64.73" x2="24.84" y2="2.67" xlink:href="#linear-gradient"/>
    <linearGradient id="linear-gradient-7" x1="62.1" y1="61.33" x2="31.8" y2="-0.73" xlink:href="#linear-gradient"/>
    <linearGradient id="linear-gradient-8" x1="48.19" y1="68.13" x2="17.88" y2="6.07" xlink:href="#linear-gradient"/>
    <linearGradient id="linear-gradient-9" x1="60.37" y1="62.18" x2="30.06" y2="0.12" xlink:href="#linear-gradient"/>
    <linearGradient id="linear-gradient-10" x1="63.85" y1="60.48" x2="33.54" y2="-1.58" xlink:href="#linear-gradient"/>
    <linearGradient id="linear-gradient-11" x1="65.58" y1="59.63" x2="35.28" y2="-2.43" xlink:href="#linear-gradient"/>
    <linearGradient id="linear-gradient-12" x1="51.67" y1="66.43" x2="21.36" y2="4.37" xlink:href="#linear-gradient"/>
    <linearGradient id="linear-gradient-13" x1="42.81" y1="70.75" x2="12.5" y2="8.69" xlink:href="#linear-gradient"/>
    <linearGradient id="linear-gradient-14" x1="56.73" y1="63.96" x2="26.42" y2="1.9" xlink:href="#linear-gradient"/>
    <linearGradient id="linear-gradient-15" x1="49.77" y1="67.36" x2="19.46" y2="5.3" xlink:href="#linear-gradient"/>
    <linearGradient id="linear-gradient-16" x1="54.99" y1="64.81" x2="24.68" y2="2.75" xlink:href="#linear-gradient"/>
    <linearGradient id="linear-gradient-17" x1="41.07" y1="71.6" x2="10.76" y2="9.54" xlink:href="#linear-gradient"/>
    <linearGradient id="linear-gradient-18" x1="51.51" y1="66.51" x2="21.2" y2="4.45" xlink:href="#linear-gradient"/>
    <linearGradient id="linear-gradient-19" x1="48.03" y1="68.21" x2="17.72" y2="6.15" xlink:href="#linear-gradient"/>
    <linearGradient id="linear-gradient-20" x1="44.55" y1="69.9" x2="14.24" y2="7.84" xlink:href="#linear-gradient"/>
    <linearGradient id="linear-gradient-21" x1="53.25" y1="65.66" x2="22.94" y2="3.6" xlink:href="#linear-gradient"/>
    <linearGradient id="linear-gradient-22" x1="58.47" y1="63.11" x2="28.16" y2="1.05" xlink:href="#linear-gradient"/>
    <linearGradient id="linear-gradient-23" x1="46.29" y1="69.06" x2="15.98" y2="6.99" xlink:href="#linear-gradient"/>
  </defs>
  <title>icon_plumbing_P0</title>
  <path id="Rectangle" class="cls-1" d="M3,0H67a2.9,2.9,0,0,1,3,3V67a2.9,2.9,0,0,1-3,3H3a2.9,2.9,0,0,1-3-3V3A2.9,2.9,0,0,1,3,0Z"/>
  <g>
    <path class="cls-2" d="M17.9,23.7h.9v1.1c0,5.9,1.5,11.9,4.5,11.9h3V60.4l4.1-2.7L38.3,60l7.5-2.3,8,2.6V23.6h0A7.8,7.8,0,0,0,60,15.9a.8.8,0,0,0-.7-.8.9.9,0,0,0-.8.8,6.4,6.4,0,0,1-4.8,6.2c-.4-4.9-1.9-9.3-4.4-9.3h-26c-2.6,0-4.1,4.5-4.4,9.5h-1a6.5,6.5,0,0,1-6.5-6.4.8.8,0,0,0-.7-.8.8.8,0,0,0-.7.8A7.8,7.8,0,0,0,17.9,23.7Zm2.3,1.1V23.7h6.1v3.1c-.4,5.2-1.9,8.5-3,8.5S20.2,31.2,20.2,24.8Zm5.3,10.5c.3-.4.5-.9.8-1.4v1.4ZM52.3,24.8v4.1a.6.6,0,0,0-.1.4c0,.2,0,.3.1.4V46.9a.7.7,0,0,0-.1.5.6.6,0,0,0,.1.4V58.3l-6.4-2.2-7.6,2.4-8.1-2.4-2.5,1.6v-10a.4.4,0,0,0,.1-.3c0-.2,0-.3-.1-.4V29.7c.1-.1.1-.2.1-.4a.8.8,0,0,0-.1-.4v-2c0-.7.1-1.4.1-2.1,0-4.2-.8-8.4-2.3-10.5H49.3C50.5,14.3,52.3,18.4,52.3,24.8Zm-29-10.5c1,0,2.5,3,2.9,8H20.3C20.7,17.3,22.2,14.3,23.3,14.3Z"/>
    <path class="cls-3" d="M40,30a.7.7,0,1,0,0-1.4h0A.7.7,0,0,0,40,30Z"/>
    <path class="cls-4" d="M42.2,30a.7.7,0,0,0,0-1.4h-.1a.7.7,0,0,0-.7.7A.8.8,0,0,0,42.2,30Z"/>
    <path class="cls-5" d="M35.7,30a.7.7,0,1,0,0-1.4h-.1c-.4,0-.6.3-.6.7A.7.7,0,0,0,35.7,30Z"/>
    <path class="cls-6" d="M31.4,30a.7.7,0,0,0,0-1.4h-.1a.7.7,0,0,0-.7.7A.8.8,0,0,0,31.4,30Z"/>
    <path class="cls-7" d="M37.9,30a.7.7,0,1,0,0-1.4h-.1a.7.7,0,0,0-.7.7A.8.8,0,0,0,37.9,30Z"/>
    <path class="cls-8" d="M46.5,30a.7.7,0,1,0,0-1.4h-.1a.7.7,0,0,0-.7.7A.8.8,0,0,0,46.5,30Z"/>
    <path class="cls-9" d="M29.2,30a.7.7,0,1,0,0-1.4h0a.7.7,0,0,0,0,1.4Z"/>
    <path class="cls-10" d="M44.3,30a.7.7,0,1,0,0-1.4h0a.7.7,0,1,0,0,1.4Z"/>
    <path class="cls-11" d="M48.6,30a.7.7,0,1,0,0-1.4h0a.7.7,0,0,0,0,1.4Z"/>
    <path class="cls-12" d="M50.8,30a.7.7,0,1,0,0-1.4h-.1a.7.7,0,0,0-.7.7A.8.8,0,0,0,50.8,30Z"/>
    <path class="cls-13" d="M33.6,30a.7.7,0,1,0,0-1.4h-.1a.7.7,0,0,0-.7.7A.8.8,0,0,0,33.6,30Z"/>
    <path class="cls-14" d="M31.4,48.1a.7.7,0,0,0,.7-.7.8.8,0,0,0-.7-.8h-.1a.8.8,0,1,0,.1,1.5Z"/>
    <path class="cls-15" d="M48.6,48.1a.8.8,0,0,0,.8-.7.9.9,0,0,0-.8-.8h0a.8.8,0,0,0-.7.8A.7.7,0,0,0,48.6,48.1Z"/>
    <path class="cls-16" d="M40,48.1a.7.7,0,0,0,.7-.7.8.8,0,0,0-.7-.8h0a.8.8,0,0,0-.7.8A.7.7,0,0,0,40,48.1Z"/>
    <path class="cls-17" d="M46.5,48.1a.7.7,0,0,0,.7-.7.8.8,0,0,0-.7-.8h-.1a.8.8,0,1,0,.1,1.5Z"/>
    <path class="cls-18" d="M29.2,48.1a.8.8,0,0,0,.8-.7.9.9,0,0,0-.8-.8h0a.8.8,0,0,0-.7.8A.7.7,0,0,0,29.2,48.1Z"/>
    <path class="cls-19" d="M42.2,48.1a.7.7,0,0,0,.7-.7.8.8,0,0,0-.7-.8h-.1a.8.8,0,0,0,.1,1.5Z"/>
    <path class="cls-20" d="M37.9,48.1a.7.7,0,0,0,.7-.7.8.8,0,0,0-.7-.8h-.1a.8.8,0,1,0,.1,1.5Z"/>
    <path class="cls-21" d="M33.6,48.1a.7.7,0,0,0,.7-.7.8.8,0,0,0-.7-.8h-.1a.8.8,0,0,0,.1,1.5Z"/>
    <path class="cls-22" d="M44.3,48.1a.8.8,0,0,0,.8-.7.9.9,0,0,0-.8-.8h0a.8.8,0,0,0-.7.8A.7.7,0,0,0,44.3,48.1Z"/>
    <path class="cls-23" d="M50.8,48.1a.7.7,0,0,0,.7-.7.8.8,0,0,0-.7-.8h-.1a.8.8,0,1,0,.1,1.5Z"/>
    <path class="cls-24" d="M35.7,48.1a.7.7,0,0,0,.7-.7.8.8,0,0,0-.7-.8h-.1c-.4,0-.6.4-.6.8A.7.7,0,0,0,35.7,48.1Z"/>
  </g>
</svg>
