<svg id="Layer_1" data-name="Layer 1" xmlns="http://www.w3.org/2000/svg" xmlns:xlink="http://www.w3.org/1999/xlink" width="70" height="70" viewBox="0 0 70 70">
  <defs>
    <style>
      .cls-1 {
        fill: #f6f6f6;
      }

      .cls-2 {
        fill: url(#linear-gradient);
      }

      .cls-3 {
        fill: url(#linear-gradient-2);
      }

      .cls-4 {
        fill: url(#linear-gradient-3);
      }

      .cls-5 {
        fill: url(#linear-gradient-4);
      }

      .cls-6 {
        fill: url(#linear-gradient-5);
      }

      .cls-7 {
        fill: url(#linear-gradient-6);
      }

      .cls-8 {
        fill: url(#linear-gradient-7);
      }

      .cls-9 {
        fill: url(#linear-gradient-8);
      }

      .cls-10 {
        fill: url(#linear-gradient-9);
      }

      .cls-11 {
        fill: url(#linear-gradient-10);
      }

      .cls-12 {
        fill: url(#linear-gradient-11);
      }

      .cls-13 {
        fill: url(#linear-gradient-12);
      }

      .cls-14 {
        fill: url(#linear-gradient-13);
      }

      .cls-15 {
        fill: url(#linear-gradient-14);
      }

      .cls-16 {
        fill: url(#linear-gradient-15);
      }

      .cls-17 {
        fill: url(#linear-gradient-16);
      }

      .cls-18 {
        fill: url(#linear-gradient-17);
      }

      .cls-19 {
        fill: url(#linear-gradient-18);
      }

      .cls-20 {
        fill: url(#linear-gradient-19);
      }

      .cls-21 {
        fill: url(#linear-gradient-20);
      }

      .cls-22 {
        fill: url(#linear-gradient-21);
      }

      .cls-23 {
        fill: url(#linear-gradient-22);
      }

      .cls-24 {
        fill: url(#linear-gradient-23);
      }

      .cls-25 {
        fill: url(#linear-gradient-24);
      }

      .cls-26 {
        fill: url(#linear-gradient-25);
      }

      .cls-27 {
        fill: url(#linear-gradient-26);
      }
    </style>
    <linearGradient id="linear-gradient" x1="45.31" y1="76.92" x2="-6.69" y2="17.25" gradientUnits="userSpaceOnUse">
      <stop offset="0" stop-color="#75c9b9"/>
      <stop offset="1" stop-color="#72bde5"/>
    </linearGradient>
    <linearGradient id="linear-gradient-2" x1="66.38" y1="58.56" x2="14.38" y2="-1.11" xlink:href="#linear-gradient"/>
    <linearGradient id="linear-gradient-3" x1="63.59" y1="60.99" x2="11.59" y2="1.33" xlink:href="#linear-gradient"/>
    <linearGradient id="linear-gradient-4" x1="62" y1="62.38" x2="10" y2="2.71" xlink:href="#linear-gradient"/>
    <linearGradient id="linear-gradient-5" x1="65.18" y1="59.61" x2="13.18" y2="-0.06" xlink:href="#linear-gradient"/>
    <linearGradient id="linear-gradient-6" x1="66.77" y1="58.22" x2="14.77" y2="-1.45" xlink:href="#linear-gradient"/>
    <linearGradient id="linear-gradient-7" x1="69.95" y1="55.45" x2="17.95" y2="-4.22" xlink:href="#linear-gradient"/>
    <linearGradient id="linear-gradient-8" x1="68.36" y1="56.84" x2="16.36" y2="-2.83" xlink:href="#linear-gradient"/>
    <linearGradient id="linear-gradient-9" x1="68.08" y1="57.08" x2="16.08" y2="-2.59" xlink:href="#linear-gradient"/>
    <linearGradient id="linear-gradient-10" x1="66.49" y1="58.46" x2="14.49" y2="-1.2" xlink:href="#linear-gradient"/>
    <linearGradient id="linear-gradient-11" x1="61.72" y1="62.62" x2="9.72" y2="2.95" xlink:href="#linear-gradient"/>
    <linearGradient id="linear-gradient-12" x1="64.9" y1="59.85" x2="12.9" y2="0.18" xlink:href="#linear-gradient"/>
    <linearGradient id="linear-gradient-13" x1="63.31" y1="61.24" x2="11.31" y2="1.57" xlink:href="#linear-gradient"/>
    <linearGradient id="linear-gradient-14" x1="60.13" y1="64.01" x2="8.13" y2="4.34" xlink:href="#linear-gradient"/>
    <linearGradient id="linear-gradient-15" x1="66.21" y1="58.71" x2="14.21" y2="-0.96" xlink:href="#linear-gradient"/>
    <linearGradient id="linear-gradient-16" x1="58.26" y1="65.63" x2="6.26" y2="5.97" xlink:href="#linear-gradient"/>
    <linearGradient id="linear-gradient-17" x1="59.85" y1="64.25" x2="7.85" y2="4.58" xlink:href="#linear-gradient"/>
    <linearGradient id="linear-gradient-18" x1="63.03" y1="61.48" x2="11.03" y2="1.81" xlink:href="#linear-gradient"/>
    <linearGradient id="linear-gradient-19" x1="61.44" y1="62.86" x2="9.44" y2="3.2" xlink:href="#linear-gradient"/>
    <linearGradient id="linear-gradient-20" x1="64.62" y1="60.09" x2="12.62" y2="0.43" xlink:href="#linear-gradient"/>
    <linearGradient id="linear-gradient-21" x1="56.07" y1="67.54" x2="4.07" y2="7.88" xlink:href="#linear-gradient"/>
    <linearGradient id="linear-gradient-22" x1="61.49" y1="62.82" x2="9.49" y2="3.15" xlink:href="#linear-gradient"/>
    <linearGradient id="linear-gradient-23" x1="49.96" y1="72.87" x2="-2.04" y2="13.21" xlink:href="#linear-gradient"/>
    <linearGradient id="linear-gradient-24" x1="49.96" y1="72.87" x2="-2.04" y2="13.21" xlink:href="#linear-gradient"/>
    <linearGradient id="linear-gradient-25" x1="67.59" y1="57.51" x2="15.59" y2="-2.16" xlink:href="#linear-gradient"/>
    <linearGradient id="linear-gradient-26" x1="67.86" y1="57.27" x2="15.86" y2="-2.39" xlink:href="#linear-gradient"/>
  </defs>
  <title>icon_electrical_E01</title>
  <path id="Rectangle" class="cls-1" d="M3,0H67a2.9,2.9,0,0,1,3,3V67a2.9,2.9,0,0,1-3,3H3a2.9,2.9,0,0,1-3-3V3A2.9,2.9,0,0,1,3,0Z"/>
  <g>
    <path class="cls-2" d="M43.5,55.3H11.8V30.5h8.6a.9.9,0,1,0,0-1.8H10.9a.9.9,0,0,0-.9.9V56.2a.9.9,0,0,0,.9.9H43.5a.9.9,0,1,0,0-1.8Z"/>
    <path class="cls-3" d="M59.1,28.7h-23V23.9a2.6,2.6,0,0,0,1.7-2.4,2.6,2.6,0,1,0-5.2,0,2.6,2.6,0,0,0,1.7,2.4v4.8h-11a.9.9,0,1,0,0,1.8H58.2V55.3H46.4a.9.9,0,1,0,0,1.8H59.1a.9.9,0,0,0,.9-.9V29.6A.9.9,0,0,0,59.1,28.7ZM34.4,21.5a.8.8,0,1,1,.8.8A.9.9,0,0,1,34.4,21.5Z"/>
    <path class="cls-4" d="M41,36a.9.9,0,1,0-.9-.9A.9.9,0,0,0,41,36Z"/>
    <path class="cls-5" d="M38.2,36a.9.9,0,1,0-.9-.9A.9.9,0,0,0,38.2,36Z"/>
    <path class="cls-6" d="M43.8,34.2a.9.9,0,1,0,.9.9A.9.9,0,0,0,43.8,34.2Z"/>
    <path class="cls-7" d="M46.6,36a.9.9,0,1,0-.9-.9A.9.9,0,0,0,46.6,36Z"/>
    <path class="cls-8" d="M52.2,36a.9.9,0,1,0-.9-.9A.9.9,0,0,0,52.2,36Z"/>
    <path class="cls-9" d="M49.4,36a.9.9,0,1,0-.9-.9A.9.9,0,0,0,49.4,36Z"/>
    <path class="cls-10" d="M52.2,39.8a.9.9,0,1,0-.9-.9A.9.9,0,0,0,52.2,39.8Z"/>
    <path class="cls-11" d="M49.4,39.8a.9.9,0,1,0-.9-.9A.9.9,0,0,0,49.4,39.8Z"/>
    <path class="cls-12" d="M41,39.8a.9.9,0,1,0-.9-.9A.9.9,0,0,0,41,39.8Z"/>
    <path class="cls-13" d="M46.6,39.8a.9.9,0,1,0-.9-.9A.9.9,0,0,0,46.6,39.8Z"/>
    <path class="cls-14" d="M43.8,38a.9.9,0,1,0,.9.9A.9.9,0,0,0,43.8,38Z"/>
    <path class="cls-15" d="M38.2,39.8a.9.9,0,1,0-.9-.9A.9.9,0,0,0,38.2,39.8Z"/>
    <path class="cls-16" d="M52.2,43.5a.9.9,0,0,0,.9-.8.9.9,0,0,0-1.8,0A.9.9,0,0,0,52.2,43.5Z"/>
    <path class="cls-17" d="M38.2,43.5a.9.9,0,0,0,.9-.8.9.9,0,0,0-1.8,0A.9.9,0,0,0,38.2,43.5Z"/>
    <path class="cls-18" d="M41,43.5a.9.9,0,0,0,.9-.8.9.9,0,0,0-1.8,0A.9.9,0,0,0,41,43.5Z"/>
    <path class="cls-19" d="M46.6,43.5a.9.9,0,0,0,.9-.8.9.9,0,0,0-1.8,0A.9.9,0,0,0,46.6,43.5Z"/>
    <path class="cls-20" d="M43.8,41.8a.9.9,0,0,0-.9.9.9.9,0,0,0,1.8,0A.9.9,0,0,0,43.8,41.8Z"/>
    <path class="cls-21" d="M49.4,43.5a.9.9,0,0,0,.9-.8.9.9,0,0,0-1.8,0A.9.9,0,0,0,49.4,43.5Z"/>
    <path class="cls-22" d="M40.1,53a3.8,3.8,0,1,0,0-7.5,3.8,3.8,0,1,0,0,7.5Zm-2-3.8a2,2,0,1,1,2,2A2,2,0,0,1,38.1,49.2Z"/>
    <path class="cls-23" d="M45.8,49.2A3.9,3.9,0,0,0,49.7,53a3.8,3.8,0,1,0,0-7.5A3.9,3.9,0,0,0,45.8,49.2Zm1.8,0a2,2,0,0,1,2.1-2,2,2,0,0,1,0,4A2,2,0,0,1,47.6,49.2Z"/>
    <path class="cls-24" d="M14.5,43.1A9.5,9.5,0,1,0,24,33.7,9.4,9.4,0,0,0,14.5,43.1Zm1.8,0A7.7,7.7,0,1,1,24,50.6,7.6,7.6,0,0,1,16.3,43.1Z"/>
    <path class="cls-25" d="M24,47.5a4.5,4.5,0,1,0-4.5-4.4A4.4,4.4,0,0,0,24,47.5Zm-2.7-4.4a2.7,2.7,0,1,1,5.3,0,2.7,2.7,0,0,1-5.3,0Z"/>
    <path class="cls-26" d="M35.2,15.8a5.4,5.4,0,0,0-5.4,5.4.7.7,0,0,0,1.4,0,4,4,0,0,1,8,0,.7.7,0,1,0,1.4,0A5.4,5.4,0,0,0,35.2,15.8Z"/>
    <path class="cls-27" d="M42.9,21.9a.7.7,0,0,0,.7-.7,8.4,8.4,0,0,0-16.8,0,.7.7,0,0,0,1.4,0,7,7,0,0,1,14,0A.7.7,0,0,0,42.9,21.9Z"/>
  </g>
</svg>
