<svg id="Layer_1" data-name="Layer 1" xmlns="http://www.w3.org/2000/svg" xmlns:xlink="http://www.w3.org/1999/xlink" width="374.5" height="89.4" viewBox="0 0 374.5 89.4">
  <defs>
    <style>
      .cls-1 {
        fill: url(#linear-gradient);
      }

      .cls-2, .cls-4, .cls-5 {
        fill: #fff;
      }

      .cls-2 {
        opacity: 0.3;
      }

      .cls-2, .cls-3, .cls-4 {
        isolation: isolate;
      }

      .cls-4 {
        font-size: 16px;
        font-family: Montserrat-Medium, Montserrat;
      }
    </style>
    <linearGradient id="linear-gradient" x1="405.55" y1="126.36" x2="21.53" y2="-32.27" gradientUnits="userSpaceOnUse">
      <stop offset="0" stop-color="#75c8b8"/>
      <stop offset="1" stop-color="#71bbe4"/>
    </linearGradient>
  </defs>
  <title>banner_pumbing_P0</title>
  <g id="Page-1">
    <g id="UI---Screen-7---v2">
      <g id="Group-2">
        <path id="Path-4" class="cls-1" d="M0,72.4C71,74,112,68.2,210.5,71c58.9,1.7,113.3,7.8,164,18.4V0H0Z"/>
        <rect id="Rectangle-Copy-2" class="cls-2" x="23.5" y="22" width="47" height="7" rx="3.3" ry="3.3"/>
        <rect id="Rectangle-Copy-4" class="cls-2" x="186.5" y="29" width="47" height="7" rx="3.3" ry="3.3"/>
        <rect id="Rectangle-Copy-3" class="cls-2" x="64.5" y="35" width="47" height="7" rx="3.3" ry="3.3"/>
        <rect id="Rectangle-Copy-5" class="cls-2" x="233.5" y="42" width="47" height="7" rx="3.3" ry="3.3"/>
        <g id="sweep">
          <g id="_" data-name="+" class="cls-3">
            <text class="cls-4" transform="translate(305.5 26)">+</text>
          </g>
          <g id="_-copy" data-name="+-copy" class="cls-3">
            <text class="cls-4" transform="translate(336.5 14)">+</text>
          </g>
        </g>
      </g>
    </g>
  </g>
  <g>
    <path class="cls-5" d="M323.3,19.1a2.5,2.5,0,1,0,2.4,2.4A2.4,2.4,0,0,0,323.3,19.1Zm0,3.2a.7.7,0,0,1-.8-.8.8.8,0,0,1,.8-.8.9.9,0,0,1,.8.8A.8.8,0,0,1,323.3,22.3Z"/>
    <path class="cls-5" d="M329.7,19.1a2.5,2.5,0,0,0,0,4.9,2.4,2.4,0,0,0,2.4-2.5A2.4,2.4,0,0,0,329.7,19.1Zm0,3.2a.8.8,0,0,1-.8-.8.9.9,0,0,1,.8-.8.8.8,0,0,1,.8.8A.7.7,0,0,1,329.7,22.3Z"/>
    <path class="cls-5" d="M336.2,19.1a2.4,2.4,0,0,0-2.4,2.4,2.4,2.4,0,0,0,2.4,2.5,2.5,2.5,0,0,0,0-4.9Zm0,3.2a.7.7,0,0,1-.8-.8.8.8,0,0,1,.8-.8.9.9,0,0,1,.8.8A.8.8,0,0,1,336.2,22.3Z"/>
    <rect class="cls-5" x="354.7" y="22.4" width="1.6" height="1.61"/>
    <rect class="cls-5" x="354.7" y="19.1" width="1.6" height="1.61"/>
    <rect class="cls-5" x="351.5" y="22.4" width="1.6" height="1.61"/>
    <rect class="cls-5" x="351.5" y="19.1" width="1.6" height="1.61"/>
    <rect class="cls-5" x="348.3" y="22.4" width="1.6" height="1.61"/>
    <rect class="cls-5" x="348.3" y="19.1" width="1.6" height="1.61"/>
    <rect class="cls-5" x="345" y="22.4" width="1.6" height="1.61"/>
    <rect class="cls-5" x="345" y="19.1" width="1.6" height="1.61"/>
    <path class="cls-5" d="M356.9,53.7l1.2-2.1-2.4-2.4-2.1,1.2-.7-.3v-.3a15.6,15.6,0,0,0,1.1-5.7,15.3,15.3,0,1,0-30.6,0,15.8,15.8,0,0,0,.5,3.8,5.1,5.1,0,0,0-2.1-.6,4.1,4.1,0,0,0-1.9.5l-.5-.4V27.2h38.6V46h1.7V16.7a.9.9,0,0,0-.9-.8H318.5a.9.9,0,0,0-.9.8V46.6h-.8a4,4,0,0,0-4,4.1h0a3.8,3.8,0,0,0-1.5,2.4h-.9a.7.7,0,0,0-.8.8V57a.8.8,0,0,0,.8.8h.8v2.4a5.7,5.7,0,0,0,5.6,5.7h20.9V64.3h-5.6a6.1,6.1,0,0,0,1.7-4.1V58.6a15.1,15.1,0,0,0,4.8.8,14,14,0,0,0,4.1-.6l1.1.3.3.7-1.2,2.1,2.4,2.5,2.2-1.2.7.3.6,2.3h3.4l.7-2.3.7-.3,2.1,1.2,2.4-2.5-1.2-2.1.3-.7,2.4-.6V55l-2.4-.6ZM319.3,17.5h38.6v8.1H319.3Zm38.9,39.9-2.1.6v.3a6.1,6.1,0,0,1-.5,1.2l-.2.4,1.1,1.8-.9.9-1.9-1.1-.3.2-1.2.5h-.4l-.5,2.1h-1.3l-.6-2.1h-.4l-1.1-.5-.4-.2-1.8,1.1-.9-.9,1-1.8v-.4a3.1,3.1,0,0,1-.5-1.2V58h0l-2.1-.6V56.1l2.1-.5v-.4a3.1,3.1,0,0,1,.5-1.2h0v-.3l-.7-1.3-.3-.6.9-.9.6.4,1.2.7.4-.2h.2l.9-.4h.4l.6-2.1h1.3v.3l.5,1.8h.4l1.2.5.3.2,1.9-1.1.9.9-1.1,1.9.2.3a6.1,6.1,0,0,1,.5,1.2v.4l2.1.5ZM349,44.9h-.7a1.1,1.1,0,0,1-.8-.3l-.5-.5a2.9,2.9,0,0,0-3.9,0l-.5.5a1.2,1.2,0,0,1-1.6,0l-.5-.5a2.8,2.8,0,0,0-3.8,0l-.5.5a1.2,1.2,0,0,1-1.6,0l-.5-.5a2.9,2.9,0,0,0-3.9,0l-.5.5a1.1,1.1,0,0,1-.8.3h-.7a2.2,2.2,0,0,1-.1-.8,10.5,10.5,0,0,1,21,0A2.2,2.2,0,0,1,349,44.9ZM338.6,30.4a13.6,13.6,0,0,1,13.2,17.3h-1.7a10.5,10.5,0,0,0,.6-3.6,12.1,12.1,0,1,0-24.2,0,12.5,12.5,0,0,0,1.6,6l-.5.3a3,3,0,0,0-1.8-1.3,14.3,14.3,0,0,1-.9-5A13.7,13.7,0,0,1,338.6,30.4ZM314.1,51.7a1.2,1.2,0,0,0,.4-.8h-.1v-.2a2.4,2.4,0,0,1,4.5-1.3.7.7,0,0,0,.6.4c.2.1.4,0,.6-.2a3,3,0,0,1,1.6-.6,2.6,2.6,0,0,1,2.1,1.3c.1.3.5.4.8.4a1.6,1.6,0,0,1,1.9,1.3c0,.3.3.5.6.6a.7.7,0,0,0,.8-.3,2.5,2.5,0,0,1,1.8-.8A2.3,2.3,0,0,1,332,53H313A2,2,0,0,1,314.1,51.7Zm18,8.5a4.1,4.1,0,0,1-4,4.1H316.8a4.1,4.1,0,0,1-4-4.1V57.8h19.3Zm1.7-4H311.2V54.6h22.6Zm.8-3.2h-.9a4.1,4.1,0,0,0-3.9-3.2,9.7,9.7,0,0,1-1.4-3.3h.5a2.8,2.8,0,0,0,2-.8l.4-.5a1.4,1.4,0,0,1,1.7,0l.4.5a2.7,2.7,0,0,0,3.9,0l.5-.5a1.2,1.2,0,0,1,1.6,0l.5.5a2.7,2.7,0,0,0,3.9,0l.4-.5a1.4,1.4,0,0,1,1.7,0l.4.5a2.8,2.8,0,0,0,2,.8h.5a9.6,9.6,0,0,1-1.7,3.7l-1.8-1-2.4,2.4.9,1.6a10.1,10.1,0,0,1-5.2,1.4,11.3,11.3,0,0,1-3.2-.5v-.3A.8.8,0,0,0,334.6,53Zm.7,4.4c0-.1.1-.3.1-.4V55.8a16.5,16.5,0,0,0,3.2.4,12.7,12.7,0,0,0,2.8-.3v1.6a12.7,12.7,0,0,1-2.8.3A11.9,11.9,0,0,1,335.3,57.4Z"/>
    <polygon class="cls-5" points="350.4 53.1 347.6 55.9 347.9 56.2 348.7 57 349.7 56 349.7 59.5 351.3 59.5 351.3 56.1 352.2 57 353.3 55.9 350.8 53.4 350.4 53.1"/>
  </g>
</svg>
