<svg id="Layer_1" data-name="Layer 1" xmlns="http://www.w3.org/2000/svg" xmlns:xlink="http://www.w3.org/1999/xlink" width="70" height="70" viewBox="0 0 70 70">
  <defs>
    <style>
      .cls-1 {
        fill: #f6f6f6;
      }

      .cls-2 {
        fill: url(#linear-gradient);
      }

      .cls-3 {
        fill: url(#linear-gradient-2);
      }

      .cls-4 {
        fill: url(#linear-gradient-3);
      }

      .cls-5 {
        fill: url(#linear-gradient-4);
      }
    </style>
    <linearGradient id="linear-gradient" x1="42" y1="72.75" x2="7.95" y2="6.09" gradientUnits="userSpaceOnUse">
      <stop offset="0" stop-color="#64dcc2"/>
      <stop offset="1" stop-color="#70bce6"/>
    </linearGradient>
    <linearGradient id="linear-gradient-2" x1="63.23" y1="61.91" x2="29.18" y2="-4.75" xlink:href="#linear-gradient"/>
    <linearGradient id="linear-gradient-3" x1="44" y1="71.73" x2="9.95" y2="5.07" xlink:href="#linear-gradient"/>
    <linearGradient id="linear-gradient-4" x1="60.27" y1="63.42" x2="26.22" y2="-3.24" xlink:href="#linear-gradient"/>
  </defs>
  <title>icon_carpentry_C0</title>
  <path id="Rectangle" class="cls-1" d="M3,0H67a2.9,2.9,0,0,1,3,3V67a2.9,2.9,0,0,1-3,3H3a2.9,2.9,0,0,1-3-3V3A2.9,2.9,0,0,1,3,0Z"/>
  <g>
    <path class="cls-2" d="M10,60.1l25.4-4.2V9.9H10Zm1.4-48.8H34V54.7L11.4,58.4Z"/>
    <path class="cls-3" d="M36.8,55.9,60,60.1V9.9H36.8Zm1.5-44.6H58.6V58.4L38.3,54.7Z"/>
    <path class="cls-4" d="M25,23.3H24a.7.7,0,0,0,0,1.4h1a2.6,2.6,0,0,1,2.6,2.6V43.8A2.6,2.6,0,0,1,25,46.3H24a.7.7,0,1,0,0,1.4h1a3.9,3.9,0,0,0,4-3.9V27.3A4,4,0,0,0,25,23.3Z"/>
    <path class="cls-5" d="M45.5,23.3h-1a.7.7,0,0,0,0,1.4h1a2.6,2.6,0,0,1,2.6,2.6V43.8a2.6,2.6,0,0,1-2.6,2.5h-1a.7.7,0,0,0,0,1.4h1a3.9,3.9,0,0,0,4-3.9V27.3A4,4,0,0,0,45.5,23.3Z"/>
  </g>
</svg>
