<svg id="Layer_1" data-name="Layer 1" xmlns="http://www.w3.org/2000/svg" xmlns:xlink="http://www.w3.org/1999/xlink" width="70" height="70" viewBox="0 0 70 70">
  <defs>
    <style>
      .cls-1 {
        fill: #f6f6f6;
      }

      .cls-2 {
        fill: url(#linear-gradient);
      }

      .cls-3 {
        fill: url(#linear-gradient-2);
      }

      .cls-4 {
        fill: url(#linear-gradient-3);
      }

      .cls-5 {
        fill: url(#linear-gradient-4);
      }

      .cls-6 {
        fill: url(#linear-gradient-5);
      }
    </style>
    <linearGradient id="linear-gradient" x1="42.08" y1="80.17" x2="4.13" y2="6.58" gradientUnits="userSpaceOnUse">
      <stop offset="0" stop-color="#75c9b9"/>
      <stop offset="1" stop-color="#72bde5"/>
    </linearGradient>
    <linearGradient id="linear-gradient-2" x1="47.4" y1="77.42" x2="9.46" y2="3.83" xlink:href="#linear-gradient"/>
    <linearGradient id="linear-gradient-3" x1="52.57" y1="74.76" x2="14.62" y2="1.17" xlink:href="#linear-gradient"/>
    <linearGradient id="linear-gradient-4" x1="53.75" y1="69.02" x2="17.45" y2="2.24" xlink:href="#linear-gradient"/>
    <linearGradient id="linear-gradient-5" x1="56.57" y1="77.26" x2="7.57" y2="-5.4" xlink:href="#linear-gradient"/>
  </defs>
  <title>icon_housekeeping_H004</title>
  <path id="Rectangle" class="cls-1" d="M3,0H67a2.9,2.9,0,0,1,3,3V67a2.9,2.9,0,0,1-3,3H3a2.9,2.9,0,0,1-3-3V3A2.9,2.9,0,0,1,3,0Z"/>
  <g>
    <path class="cls-2" d="M10,24.8h4.9l.2-.2h.2v-.2h.1v-.3h-.1v-.2h0v-.2h-.1v-.2h-.2V22H15v-.2h.1v-.4h0v-.4h-.1v-.2H10v.4h0v.5h0v1h0v.5h0v1h0v.2h0v.2h0v.5Zm3.6-1.5H11.7v-.4h1.9Zm-1.9-2.1V21h1.9v.2H11.7v-.2h-.1Z"/>
    <polygon class="cls-3" points="20.3 19.5 20.2 19.5 20.2 19.6 20.1 19.7 20.1 20.2 20.1 20.4 20.2 20.9 20.2 21 20.1 21.6 20.1 21.6 20.1 21.7 20 21.8 19.9 21.8 19.8 21.8 19.3 21.7 18.8 21.7 18.7 21.7 18.4 21.8 18.3 21.8 18.1 21.8 18.1 21.8 18 21.7 18 21.7 18 21.6 18 20.9 18 20.4 18 20.2 18 19.9 18 19.7 18 19.7 18 19.6 17.9 19.5 17.8 19.5 17.7 19.5 17.6 19.5 17.2 19.5 17.1 19.5 16.7 19.5 16.6 19.5 16.5 19.5 16.4 19.5 16.3 19.6 16.3 19.7 16.3 19.8 16.3 20.1 16.3 20.3 16.3 20.7 16.3 20.8 16.3 21.3 16.3 21.4 16.3 22 16.3 22.4 16.3 22.5 16.3 23 16.3 23.1 16.3 23.5 16.3 23.7 16.3 24.1 16.3 24.8 16.3 25 16.3 25.2 16.3 25.2 16.3 25.3 16.4 25.4 16.4 25.4 16.5 25.4 16.6 25.4 16.7 25.4 17.1 25.4 17.2 25.4 17.6 25.4 17.7 25.5 17.8 25.4 17.9 25.4 18 25.4 18 25.2 18 25.1 18 24.7 18 24.6 18 24 18 23.9 18 23.4 18 23.3 18 23.2 18.1 23.2 18.2 23.2 18.7 23.2 19.3 23.2 19.5 23.2 19.8 23.2 20 23.2 20.1 23.2 20.1 23.3 20.1 23.4 20.1 23.9 20.1 24 20.1 24.6 20.1 24.7 20.2 25.2 20.2 25.4 20.2 25.4 20.3 25.4 20.5 25.4 20.9 25.4 21 25.4 21.5 25.4 21.6 25.4 21.7 25.4 21.8 25.4 21.8 25.2 21.8 25.1 21.8 25 21.8 24.8 21.8 24.7 21.8 24.1 21.8 23.7 21.8 23.5 21.8 23.1 21.8 23 21.8 22.5 21.8 22.4 21.8 22 21.8 21.8 21.8 21.4 21.8 21.3 21.8 20.8 21.8 20.7 21.8 20.3 21.8 20.1 21.8 19.8 21.8 19.7 21.8 19.6 21.7 19.5 21.6 19.5 21.5 19.5 21.4 19.5 21 19.5 20.9 19.5 20.5 19.5 20.3 19.5"/>
    <polygon class="cls-4" points="23 24.9 23 25.1 23 25.2 23 25.3 23 25.4 23 25.4 23.1 25.5 23.5 25.4 23.6 25.4 24 25.4 24.3 25.4 24.5 25.4 24.6 25.4 24.7 25.4 24.7 25.3 24.7 25.2 24.7 25.1 24.7 24.9 24.7 24.7 24.7 24.3 24.7 23.7 24.7 23.6 24.7 23.6 24.8 23.6 24.8 23.7 24.9 23.8 25.2 24.1 25.3 24.2 25.6 24.5 25.7 24.6 25.9 25 26 25.1 26.3 25.4 26.4 25.4 26.5 25.4 27 25.4 27.1 25.4 27.6 25.4 27.8 25.4 28.2 25.5 28.3 25.5 28.4 25.4 28.4 25.4 28.4 25.3 28.4 25.3 28 24.9 27.9 24.8 27.6 24.4 27.5 24.3 27.2 24 27.1 23.9 26.8 23.5 26.7 23.4 26.3 23 26.2 22.9 25.9 22.5 25.9 22.4 25.8 22.4 25.9 22.3 25.9 22.3 26 22.2 26.2 22 26.3 21.9 26.6 21.5 26.7 21.4 27 21 27.1 20.9 27.4 20.6 27.5 20.5 27.8 20.1 27.9 20 28.2 19.7 28.2 19.6 28.2 19.6 28.2 19.6 28.2 19.5 28.1 19.5 27.8 19.5 27.6 19.5 27.3 19.5 26.8 19.5 26.7 19.5 26.3 19.5 26.2 19.5 26.2 19.6 25.9 19.9 25.8 20 25.5 20.4 25.1 20.9 24.8 21.3 24.8 21.3 24.7 21.3 24.7 21.2 24.7 20.8 24.7 20.6 24.6 20.2 24.6 20.1 24.7 19.8 24.7 19.7 24.7 19.6 24.6 19.5 24.6 19.5 24.5 19.5 24.1 19.5 24 19.5 23.6 19.5 23.5 19.5 23.2 19.5 23.1 19.5 23 19.5 23 19.5 23 19.6 23 20.1 23 20.2 23 21.2 23 21.4 23 21.8 23 22 23 22.4 23 23 23 23.1 23 23.6 23 23.7 23 24.3 23 24.7 23 24.9"/>
    <path class="cls-5" d="M60,59.2,58.7,47.4v-.6h0V44.6a4.2,4.2,0,0,0-4.2-4.2h-.9v-.8a2.3,2.3,0,0,0-2.1-2.3V11.2a2.8,2.8,0,0,0-2.8-2.7,2.7,2.7,0,0,0-2.7,2.7V37.3a1.7,1.7,0,0,0-1,.3l.3-3.1h0a2.8,2.8,0,0,0-.4-1.2,2.1,2.1,0,0,0-1.3-.5h-.1A4.1,4.1,0,0,0,38.6,30,4.2,4.2,0,0,0,35,27.8a4,4,0,0,0-1.5.3,3.8,3.8,0,0,0-2.8-1.2,3.9,3.9,0,0,0-2.8,1.2,4,4,0,0,0-1.5-.3,3.8,3.8,0,0,0-3.5,2.1,4.2,4.2,0,0,0-3.5,1.5H17.8a2.5,2.5,0,0,0-2.5,2.5V46.6a2.5,2.5,0,0,0,2.5,2.5h.5l.9,10a2.5,2.5,0,0,0,2.5,2.4H57.9a2.4,2.4,0,0,0,1.6-.7A1.8,1.8,0,0,0,60,59.2ZM54.8,50a1.1,1.1,0,0,0-1,1.1v8.8h-.5V53.2a1,1,0,0,0-1-1,1,1,0,0,0-1.1,1v6.7h-.5V55.3a1,1,0,0,0-2,0v4.6H45.2V53.2a1,1,0,0,0-1.1-1,1,1,0,0,0-1,1v6.7h-.5V51.1a1.1,1.1,0,0,0-1-1.1,1.1,1.1,0,0,0-1.1,1.1v8.8H39.4l-.4-.2a.4.4,0,0,1-.1-.3l1.3-11.8H57.1l1.3,11.8a1,1,0,0,1-.1.3l-.4.2h-2V51.1A1.1,1.1,0,0,0,54.8,50Zm-37-2.5a.9.9,0,0,1-.9-.9V33.9a4.3,4.3,0,0,0,.1-.5h.1a.8.8,0,0,1,.7-.4h7.7a.9.9,0,0,1,.7.3,1.4,1.4,0,0,1,.2.6v.3h0V46.6a.9.9,0,0,1-.9.9H17.8Zm12.9-19a2.3,2.3,0,0,1,1.9,1,.7.7,0,0,0,1.1.2,2.8,2.8,0,0,1,1.3-.3,2.4,2.4,0,0,1,2.3,1.9l.5.5h.7a2,2,0,0,1,1.1-.3,2.4,2.4,0,0,1,2,1.2h-4v6.6a.8.8,0,0,1-.7.7.7.7,0,0,1-.7-.7V32.7H34.6v1.5h0v1.1a.8.8,0,0,1-.7.7.7.7,0,0,1-.7-.6V32.7H27.7a2.5,2.5,0,0,0-2.2-1.3H23.9l.2-.3a2.5,2.5,0,0,1,2.3-1.7,2.8,2.8,0,0,1,1.3.3.6.6,0,0,0,1-.2A2.6,2.6,0,0,1,30.7,28.5ZM48.6,10.1a1.1,1.1,0,0,1,1.2,1.1V37.3H47.5V11.2A1.1,1.1,0,0,1,48.6,10.1Zm1.2,28.8h1.4a.7.7,0,0,1,.7.7V42H45.4V39.6a.7.7,0,0,1,.7-.7h3.7ZM28,35.5V34.3h3.6v1.3a2,2,0,0,0,.3,1.1,2.5,2.5,0,0,0,2.7.9v.2H30.8l-.4-1.4a.8.8,0,0,0-1-.5.7.7,0,0,0-.5.9l.3,1H28Zm13.9,1.9v.4H39.2V34.3h3l-.3,3Zm-7.3,2a2.2,2.2,0,0,0,2.3,2.2,2.4,2.4,0,0,0,2.3-2.2h2.5v1.2a4.3,4.3,0,0,0-3,3.6V46a8.1,8.1,0,0,1-7.2-5.8l-.2-.8ZM57,46H40.2V44.6a.4.4,0,0,1,.1-.3A2.8,2.8,0,0,1,42,42.1h1.8v.8a.7.7,0,0,0,.8.8h8.1a.8.8,0,0,0,.8-.8V42h.9A2.6,2.6,0,0,1,57,44.6ZM25.5,49.1A2.5,2.5,0,0,0,28,46.6V39.4h1.6l.3,1.2a9.5,9.5,0,0,0,8.6,6.9L37.3,59.2v.7H21.7a1.1,1.1,0,0,1-.9-.9L20,49.1Zm18.3-9.5v.8h-.5v-1h.4Z"/>
    <path class="cls-6" d="M22,15.8h.1V14.4h-.9V10.3h0V9.3H19.1l-.4.4h-.3v.4H18l-.4.4v.2l-.4.4v.2l-.4.4h-.1l-.4.5h-.2l-.4.4v.2l-.3.4h-.2v.7h0v.7h4v.8h0v.2h2.1v-.2h0v-.6H22Zm-2.8-2.7v.6h0V14H17.5l.4-.4H18l.4-.4v-.2l.4-.4h.3Z"/>
  </g>
</svg>
