<svg id="Layer_1" data-name="Layer 1" xmlns="http://www.w3.org/2000/svg" xmlns:xlink="http://www.w3.org/1999/xlink" width="374.5" height="89.4" viewBox="0 0 374.5 89.4">
  <defs>
    <style>
      .cls-1 {
        fill: url(#linear-gradient);
      }

      .cls-2, .cls-4, .cls-5 {
        fill: #fff;
      }

      .cls-2 {
        opacity: 0.3;
      }

      .cls-2, .cls-3, .cls-4 {
        isolation: isolate;
      }

      .cls-4 {
        font-size: 16px;
        font-family: Montserrat-Medium, Montserrat;
      }
    </style>
    <linearGradient id="linear-gradient" x1="405.55" y1="126.36" x2="21.53" y2="-32.27" gradientUnits="userSpaceOnUse">
      <stop offset="0" stop-color="#75c8b8"/>
      <stop offset="1" stop-color="#71bbe4"/>
    </linearGradient>
  </defs>
  <title>banner_pumbing_P0</title>
  <g id="Page-1">
    <g id="UI---Screen-7---v2">
      <g id="Group-2">
        <path id="Path-4" class="cls-1" d="M0,72.4C71,74,112,68.2,210.5,71c58.9,1.7,113.3,7.8,164,18.4V0H0Z"/>
        <rect id="Rectangle-Copy-2" class="cls-2" x="23.5" y="22" width="47" height="7" rx="3.3" ry="3.3"/>
        <rect id="Rectangle-Copy-4" class="cls-2" x="186.5" y="29" width="47" height="7" rx="3.3" ry="3.3"/>
        <rect id="Rectangle-Copy-3" class="cls-2" x="64.5" y="35" width="47" height="7" rx="3.3" ry="3.3"/>
        <rect id="Rectangle-Copy-5" class="cls-2" x="233.5" y="42" width="47" height="7" rx="3.3" ry="3.3"/>
        <g id="sweep">
          <g id="_" data-name="+" class="cls-3">
            <text class="cls-4" transform="translate(358 26)">+</text>
          </g>
          <g id="_-copy" data-name="+-copy" class="cls-3">
            <text class="cls-4" transform="translate(336.5 14)">+</text>
          </g>
        </g>
      </g>
    </g>
  </g>
  <g>
    <path class="cls-5" d="M356.9,34.2h-7.6v-10l.9-5.4a1,1,0,0,0-.8-1.1h-5.6a.9.9,0,0,0-.9.9v.2l.7,4.4h-6.2a.9.9,0,0,0-.9.9v7.4a.9.9,0,0,0,.9.9H341a.9.9,0,0,0,1-.9h0V28.6h1.8v5.5H314.5a1,1,0,0,0-1,.9c0,.1.1.2.1.3a18.5,18.5,0,0,0,4.2,6.8A22.2,22.2,0,0,0,328,47.9l-1.6,23.7a.8.8,0,0,0,.8,1h16.6a.9.9,0,0,0,.9-.9h0l-1.6-23.7a22.2,22.2,0,0,0,10.2-5.8,18.5,18.5,0,0,0,4.2-6.8A.9.9,0,0,0,356.9,34.2Zm-8.7-14.7-.6,3.6h-2.1l-.6-3.6Zm-.7,5.5v9.1h-1.9V25Zm-7.4,5.5h-1.8V28.6h1.8Zm-1.8-3.7V25h5.5v1.8Zm-10,44,1.5-22.5a31.8,31.8,0,0,0,11.5,0l1.5,22.5ZM335.5,47c-13.5,0-18.4-8-19.7-11h39.5C353.9,39,349,47,335.5,47Z"/>
    <path class="cls-5" d="M335.5,45.1c8.2,0,12.9-3.1,15.3-5.8a.9.9,0,0,0,0-1.3.9.9,0,0,0-1.3.1c-2.2,2.4-6.5,5.2-14,5.2s-11.7-2.8-13.9-5.2a.9.9,0,1,0-1.4,1.2C322.7,42,327.4,45.1,335.5,45.1Z"/>
    <path class="cls-5" d="M340,56.1a1,1,0,0,0-1-.9.8.8,0,0,0-.8,1l.7,10.9h-7.7a.9.9,0,0,0-.9.9,1,1,0,0,0,.9,1h8.7a1,1,0,0,0,.9-1h0Z"/>
    <path class="cls-5" d="M338.9,54.3h.1a1,1,0,0,0,.8-1v-.9a1,1,0,0,0-1.9.1v.9A.9.9,0,0,0,338.9,54.3Z"/>
  </g>
</svg>
