<svg id="Layer_1" data-name="Layer 1" xmlns="http://www.w3.org/2000/svg" xmlns:xlink="http://www.w3.org/1999/xlink" width="374.5" height="89.4" viewBox="0 0 374.5 89.4">
  <defs>
    <style>
      .cls-1 {
        fill: url(#linear-gradient);
      }

      .cls-2, .cls-4, .cls-5 {
        fill: #fff;
      }

      .cls-2 {
        opacity: 0.3;
      }

      .cls-2, .cls-3, .cls-4 {
        isolation: isolate;
      }

      .cls-4 {
        font-size: 16px;
        font-family: Montserrat-Medium, Montserrat;
      }
    </style>
    <linearGradient id="linear-gradient" x1="405.55" y1="126.36" x2="21.53" y2="-32.27" gradientUnits="userSpaceOnUse">
      <stop offset="0" stop-color="#75c9b9"/>
      <stop offset="1" stop-color="#72bde5"/>
    </linearGradient>
  </defs>
  <title>banner_civil_M0</title>
  <g id="Page-1">
    <g id="UI---Screen-7---v2">
      <g id="Group-2">
        <path id="Path-4" class="cls-1" d="M0,72.4C71,74,112,68.2,210.5,71c58.9,1.7,113.3,7.8,164,18.4V0H0Z"/>
        <rect id="Rectangle-Copy-2" class="cls-2" x="23.5" y="22" width="47" height="7" rx="3.3" ry="3.3"/>
        <path id="Rectangle-Copy-4" class="cls-2" d="M189.8,29h40.5a3.3,3.3,0,0,1,3.3,3.3v.5a3.2,3.2,0,0,1-3.2,3.2H189.8a3.3,3.3,0,0,1-3.2-3.2v-.5A3.3,3.3,0,0,1,189.8,29Z"/>
        <rect id="Rectangle-Copy-3" class="cls-2" x="64.5" y="35" width="47" height="7" rx="3.3" ry="3.3"/>
        <path id="Rectangle-Copy-5" class="cls-2" d="M236.8,42h40.5a3.3,3.3,0,0,1,3.3,3.3v.5a3.2,3.2,0,0,1-3.2,3.2H236.8a3.2,3.2,0,0,1-3.2-3.2v-.5A3.3,3.3,0,0,1,236.8,42Z"/>
        <g id="sweep">
          <g id="_" data-name="+" class="cls-3">
            <text class="cls-4" transform="translate(298.5 26)">+</text>
          </g>
          <g id="_-copy" data-name="+-copy" class="cls-3">
            <text class="cls-4" transform="translate(336.5 14)">+</text>
          </g>
        </g>
      </g>
    </g>
  </g>
  <g>
    <path class="cls-5" d="M339.2,39.6a1.5,1.5,0,0,0-.4-1l-2.2-2.1a1.3,1.3,0,0,0-2,0l-4.3,4.1a1.6,1.6,0,0,0-.5,1.1,1.2,1.2,0,0,0,.5,1l2.1,2.1a1.3,1.3,0,0,0,1,.4h0a1.5,1.5,0,0,0,1.1-.4l4.3-4.1A2.1,2.1,0,0,0,339.2,39.6Zm-5.7,4.2h-.1v0l-2.1-2.1,1.6-1.6-.2.7,2.9,1Zm2.6-2.5.2-.8-2.8-1,2.1-2,2.2,2.1Z"/>
    <rect class="cls-5" x="331" y="28.3" width="1.4" height="8.96" transform="translate(70.9 240.3) rotate(-44.2)"/>
    <path class="cls-5" d="M358.6,56.7l-3.3-3.2V39.1h0a1.4,1.4,0,0,0,1.5-1.4V33.9a1.4,1.4,0,0,0-1.5-1.4h0v-9a5.9,5.9,0,0,0-6-5.9H343a1.6,1.6,0,0,0-1.3-.8h-2.3a1.5,1.5,0,0,0-1.5-1.5H310.6a1.5,1.5,0,0,0-1.5,1.5V36.2a1.5,1.5,0,0,0,1.5,1.4h0v1.5a1.5,1.5,0,0,0,1.5,1.5h.8v6.8h-.8a1.5,1.5,0,0,0-1.5,1.4v6a1.5,1.5,0,0,0,1.5,1.4h0v7.4a1.5,1.5,0,0,0,1.5,1.5h4.6a1.4,1.4,0,0,0,1.4-1.5V56.2h.1a1.5,1.5,0,0,0,1.5-1.4h.8a3.8,3.8,0,0,0,7.5,0h3.1a1.5,1.5,0,0,0,1.5,1.4h9.1c8.4,8.2,8.5,8.2,9,8.2a1.5,1.5,0,0,0,1.1-.4l5.3-5.2a1.4,1.4,0,0,0,.5-1A1.6,1.6,0,0,0,358.6,56.7Zm-4.7-4.6L347,45.4V39.1h6.9ZM338.8,30.3l-.3-.2a10.5,10.5,0,0,0,.8-2.9h2.4a1.4,1.4,0,0,0,1.4-1.4h2.4v6.6h0a1.5,1.5,0,0,0-1.5,1.4v3.8a1.5,1.5,0,0,0,1.5,1.4h0V44l-4-3.8A9.9,9.9,0,0,0,338.8,30.3Zm4.4-5.9V19h.8v5.4Zm12.2,9.5v3.8h-10V33.9ZM347,32.5V27.9h6.9v4.6Zm6.9-6h-6.8l5.8-5.7a4.5,4.5,0,0,1,1,2.7Zm-2.2-6.8-5.2,5.1a1.3,1.3,0,0,0-1-.4h-.1V19h3.9A4.8,4.8,0,0,1,351.7,19.7Zm-10-1.4v7.5h-2.3V18.3ZM312.1,39.1v-3h7.6v2.9h-7.6Zm2.2,1.5h3.2v6.8h-3.2Zm3.9,23.1h-4.6V56.2h4.6Zm1.5-8.9h-7.6v-6h7.6Zm2.4-1.5h-.9v-3h2.2A10.9,10.9,0,0,0,322.1,53.3Zm3.6-6c-.2,0-.4.2-.6.4l-.8,1.2h-3.1a1.5,1.5,0,0,0-1.5-1.4h-.8V40.6h.8a1.5,1.5,0,0,0,1.5-1.5V36.2a1.5,1.5,0,0,0-1.5-1.5h-7.6a1.5,1.5,0,0,0-1.5,1.5h-.1V16.8h27.3v8.9a11.6,11.6,0,0,1-.5,3.4,10.9,10.9,0,0,0-13.6,1.2,1.2,1.2,0,0,0-.4,1,1.5,1.5,0,0,0,.4,1.1l5.4,5.1-.6.6-3.8-3.7a1.5,1.5,0,0,0-2.1,0,5.5,5.5,0,0,0-1.5,3.8,7.4,7.4,0,0,0,2.2,5.2v.4a1.3,1.3,0,0,0,.4,1,11,11,0,0,0,9.5,2.8,1.5,1.5,0,0,0-.7,1.2h-5.4l-.8-1.2A1,1,0,0,0,325.7,47.3Zm-1.4-5.1a5.5,5.5,0,0,1-1.6-4,4.3,4.3,0,0,1,1.1-2.8l3.8,3.7Zm5.1,11.1a11.4,11.4,0,0,0-1.4-3h4.6v3Zm4.7,1.5v-6h1.4l6.2,6Zm18.1,8.9V63h0Zm.1-.8c-.6-.4-2.8-2.5-9-8.5l-8.9-8.6H334a9.2,9.2,0,0,1-9.2-2.2l6.4-6.2-6.4-6.2a9.5,9.5,0,0,1,12.3-.6.1.1,0,0,0,.1.1l.6.5a8.6,8.6,0,0,1,2.2,8.9v.4l17.7,17.2Z"/>
    <path class="cls-5" d="M349.2,57.8a3.3,3.3,0,0,0,.9,2.1,3.2,3.2,0,0,0,2.1.8h0a3,3,0,0,0,2.1-.8,2.9,2.9,0,0,0,.9-2.1,2.7,2.7,0,0,0-.9-2.1,3.1,3.1,0,0,0-4.2,0A3.1,3.1,0,0,0,349.2,57.8Zm1.9-1.1a1.7,1.7,0,0,1,2.2,0,1.6,1.6,0,0,1,.5,1.1,1.4,1.4,0,0,1-.5,1,1.3,1.3,0,0,1-1.1.5h0a1.6,1.6,0,0,1-1.1-.5,1.3,1.3,0,0,1-.4-1A1.5,1.5,0,0,1,351.1,56.7Z"/>
    <polygon class="cls-5" points="337.3 44.3 349.2 55.7 350.2 54.7 338.3 43.4 337.3 44.3"/>
    <path class="cls-5" d="M332.6,56.3l-.6.2c-.4.5-2.5,2.8-2.5,4.2a3.1,3.1,0,0,0,6.1,0c0-1.4-2-3.7-2.5-4.2Z"/>
    <rect class="cls-5" x="312.8" y="19.1" width="3" height="1.41"/>
    <rect class="cls-5" x="317.4" y="19.1" width="9.1" height="1.41"/>
    <rect class="cls-5" x="323.5" y="22.1" width="3" height="1.41"/>
    <rect class="cls-5" x="312.8" y="22.1" width="9.1" height="1.41"/>
    <rect class="cls-5" x="328" y="19.1" width="1.5" height="1.41"/>
  </g>
</svg>
