<svg id="Layer_1" data-name="Layer 1" xmlns="http://www.w3.org/2000/svg" xmlns:xlink="http://www.w3.org/1999/xlink" width="70" height="70" viewBox="0 0 70 70">
  <defs>
    <style>
      .cls-1 {
        fill: #f6f6f6;
      }

      .cls-2 {
        fill: url(#linear-gradient);
      }

      .cls-3 {
        fill: url(#linear-gradient-2);
      }

      .cls-4 {
        fill: url(#linear-gradient-3);
      }

      .cls-5 {
        fill: url(#linear-gradient-4);
      }

      .cls-6 {
        fill: url(#linear-gradient-5);
      }
    </style>
    <linearGradient id="linear-gradient" x1="44.37" y1="81.75" x2="1.98" y2="3.18" gradientUnits="userSpaceOnUse">
      <stop offset="0" stop-color="#75c9b9"/>
      <stop offset="1" stop-color="#72bde5"/>
    </linearGradient>
    <linearGradient id="linear-gradient-2" x1="49.66" y1="78.9" x2="7.27" y2="0.33" xlink:href="#linear-gradient"/>
    <linearGradient id="linear-gradient-3" x1="54.78" y1="76.14" x2="12.39" y2="-2.44" xlink:href="#linear-gradient"/>
    <linearGradient id="linear-gradient-4" x1="52.48" y1="77.38" x2="10.09" y2="-1.2" xlink:href="#linear-gradient"/>
    <linearGradient id="linear-gradient-5" x1="53.75" y1="69.08" x2="17.45" y2="2.31" xlink:href="#linear-gradient"/>
  </defs>
  <title>icon_housekeeping_H0</title>
  <path id="Rectangle" class="cls-1" d="M3,0H67a2.9,2.9,0,0,1,3,3V67a2.9,2.9,0,0,1-3,3H3a2.9,2.9,0,0,1-3-3V3A2.9,2.9,0,0,1,3,0Z"/>
  <g>
    <path class="cls-2" d="M10,24.7h0v.2h4.7l.2-.2h.3v-.2h0V24h0v-.4h-.1v-.2h-.1v-.2h-.1v-.2h.1v-.2h0v-.2h0v-.2h0v-.4h-.1v-.2H10v.2h0V20h0v.5h0v1.6h0v1.2h0v.8Zm3.7-1.5h-2v-.2h0v-.4h2Zm-2-2.1v-.2h1.9v.2H11.7v-.2h0Z"/>
    <polygon class="cls-3" points="18.1 20.2 18.1 20.1 18.1 19.7 18.1 19.6 18.1 19.6 18.1 19.4 18 19.4 17.9 19.4 17.8 19.4 17.6 19.4 17.3 19.4 17.2 19.4 16.8 19.4 16.7 19.4 16.6 19.4 16.5 19.4 16.4 19.5 16.4 19.6 16.4 19.7 16.4 20 16.4 20.1 16.4 20.6 16.4 20.7 16.4 21.2 16.4 21.3 16.4 21.9 16.4 22.3 16.4 22.4 16.4 22.9 16.4 23 16.4 23.5 16.4 23.6 16.4 24 16.4 24.7 16.4 25 16.4 25.1 16.4 25.2 16.4 25.3 16.4 25.3 16.5 25.4 16.6 25.4 16.6 25.4 16.8 25.4 17.2 25.4 17.3 25.4 17.7 25.4 17.8 25.4 17.9 25.4 18 25.4 18.1 25.3 18.1 25.2 18.1 25 18.1 24.6 18.1 24.5 18.1 24 18.1 23.8 18.1 23.3 18.1 23.2 18.1 23.1 18.2 23.1 18.3 23.1 18.8 23.1 19.4 23.1 19.6 23.1 19.9 23.1 20.1 23.1 20.2 23.1 20.2 23.2 20.2 23.3 20.2 23.8 20.2 24 20.2 24.5 20.2 24.6 20.3 25.2 20.3 25.3 20.3 25.4 20.5 25.4 20.6 25.4 21 25.4 21.2 25.4 21.6 25.4 21.7 25.4 21.8 25.4 21.9 25.3 21.9 25.2 21.9 25.1 21.9 25 21.9 24.7 21.9 24.6 21.9 24 21.9 23.6 21.9 23.5 21.9 23 21.9 22.9 21.9 22.4 21.9 22.3 22 21.9 22 21.7 21.9 21.3 21.9 21.2 21.9 20.7 21.9 20.6 21.9 20.1 21.9 20 22 19.7 22 19.6 21.9 19.4 21.9 19.4 21.7 19.4 21.7 19.4 21.5 19.3 21.2 19.4 21 19.4 20.6 19.3 20.4 19.3 20.3 19.4 20.3 19.4 20.3 19.6 20.3 20.1 20.3 20.2 20.3 20.8 20.3 20.9 20.2 21.5 20.2 21.6 20.2 21.6 20.1 21.7 20.1 21.7 19.9 21.7 19.4 21.6 18.9 21.6 18.8 21.6 18.5 21.7 18.3 21.7 18.2 21.7 18.1 21.7 18.1 21.6 18.1 21.6 18.1 21.5 18.1 20.8 18.1 20.2"/>
    <polygon class="cls-4" points="23.1 24.8 23.1 25 23.1 25.1 23.1 25.3 23.1 25.3 23.2 25.4 23.2 25.4 23.6 25.4 23.8 25.4 24.2 25.4 24.4 25.4 24.7 25.4 24.8 25.4 24.8 25.3 24.8 25.3 24.8 25.1 24.8 25 24.8 24.8 24.8 24.7 24.9 24.2 24.9 23.6 24.9 23.5 24.9 23.5 25 23.5 25 23.6 25.1 23.7 25.4 24 25.4 24.1 25.8 24.4 25.8 24.5 26.1 24.9 26.2 25 26.5 25.3 26.5 25.4 26.6 25.4 27.2 25.4 27.3 25.4 27.8 25.4 28 25.4 28.4 25.4 28.5 25.4 28.6 25.4 28.6 25.3 28.6 25.3 28.6 25.2 28.2 24.8 28.1 24.7 27.8 24.4 27.7 24.3 27.4 23.9 27.3 23.8 26.9 23.4 26.9 23.3 26.5 22.9 26.4 22.8 26.1 22.4 26 22.3 26 22.3 26.1 22.2 26.1 22.2 26.2 22.1 26.4 21.9 26.5 21.8 26.8 21.4 26.9 21.3 27.2 20.9 27.3 20.8 27.6 20.5 27.7 20.4 28 20 28.1 19.9 28.4 19.6 28.4 19.5 28.4 19.5 28.4 19.4 28.4 19.4 28.3 19.4 28 19.4 27.8 19.4 27.5 19.4 27 19.4 26.9 19.4 26.5 19.4 26.4 19.4 26.4 19.5 26.1 19.8 26 19.9 25.7 20.3 25.3 20.8 25 21.2 24.9 21.2 24.9 21.2 24.8 21.1 24.8 20.7 24.8 20.5 24.8 20.1 24.8 20 24.8 19.7 24.9 19.6 24.8 19.5 24.8 19.4 24.8 19.4 24.7 19.4 24.3 19.4 24.2 19.4 23.8 19.4 23.6 19.4 23.4 19.4 23.3 19.4 23.2 19.4 23.2 19.4 23.1 19.5 23.1 20 23.1 20.1 23.1 21.1 23.1 21.3 23.1 21.7 23.1 21.9 23.1 22.3 23.1 22.9 23.1 23 23.1 23.5 23.1 23.6 23.1 24.2 23.1 24.7 23.1 24.8"/>
    <polygon class="cls-5" points="14.5 16.6 14.5 17.3 14.5 17.5 14.5 17.5 14.6 17.6 14.7 17.6 15.4 17.6 16.4 17.6 18.2 17.6 19.3 17.6 20 17.6 20.9 17.6 21.1 17.6 21.4 17.7 21.6 17.6 22 17.6 22 17.5 22.1 17.5 22.1 17.3 22.1 17.2 22.1 17 22.1 16.6 22.1 16.1 22.1 15.9 22.1 15.7 22.1 15.6 22 15.5 21.8 15.4 21.6 15.4 21.2 15.5 21 15.5 19.5 15.5 19.3 15.5 18.7 15.5 17.7 15.5 17.2 15.5 17 15.5 16.9 15.5 16.9 15.4 16.9 15.3 16.9 15.1 16.9 15 17 14.9 17.1 14.7 17.3 14.6 17.3 14.5 17.5 14.4 17.6 14.4 17.8 14.3 17.9 14.3 18.2 14.3 18.3 14.3 18.5 14.3 18.8 14.3 19 14.2 19.2 14.2 19.4 14.2 19.7 14.2 19.9 14.1 20.1 14.1 20.3 14 20.5 14 20.7 13.9 21 13.7 21.1 13.6 21.3 13.5 21.5 13.3 21.6 13.1 21.7 12.9 21.9 12.7 22 12.5 22 12.3 22.1 12.1 22.2 11.8 22.2 11.6 22.2 11.4 22.2 11.2 22.2 10.9 22.1 10.7 22.1 10.5 22 10.3 21.9 10.1 21.8 10 21.6 9.7 21.5 9.6 21.4 9.4 21.2 9.2 21.1 9.1 20.9 9 20.6 8.9 20.4 8.8 20.2 8.7 19.8 8.6 19.7 8.6 19.4 8.5 19.2 8.5 19 8.4 18.8 8.4 18.5 8.5 18.1 8.5 17.9 8.5 17.6 8.5 17.5 8.5 17.3 8.5 17.1 8.6 16.8 8.6 16.6 8.7 16.4 8.8 16 9 15.8 9.1 15.6 9.3 15.4 9.4 15.3 9.5 15.1 9.7 15 9.9 14.9 10 14.8 10.3 14.7 10.5 14.7 10.5 14.7 10.7 14.7 10.9 14.6 11 14.6 11.3 14.7 11.3 14.8 11.4 14.9 11.4 15.2 11.4 15.5 11.4 16 11.4 16.5 11.5 16.7 11.5 16.8 11.5 17 11.4 17.1 11.3 17.2 11.2 17.3 11 17.4 10.9 17.5 10.8 17.6 10.7 17.7 10.6 18 10.5 18.2 10.5 18.3 10.5 18.5 10.5 18.7 10.5 18.9 10.5 19.2 10.6 19.3 10.7 19.5 10.8 19.5 10.9 19.6 11.1 19.6 11.2 19.6 11.5 19.5 11.7 19.4 11.9 19.3 12 19.1 12.1 19 12.2 18.8 12.2 18.5 12.2 18.3 12.2 18.1 12.3 17.5 12.3 17.3 12.3 17.1 12.4 16.9 12.4 16.6 12.5 16.4 12.6 16.1 12.7 15.9 12.8 15.7 12.9 15.5 13 15.3 13.2 15.2 13.3 15 13.6 14.9 13.7 14.8 13.9 14.7 14 14.7 14.2 14.6 14.4 14.6 14.7 14.5 15 14.5 15.4 14.5 15.6 14.5 16.4 14.5 16.6"/>
    <path class="cls-6" d="M60,59.2,58.7,47.4v-.6h0V44.7a4.2,4.2,0,0,0-4.2-4.2h-.9v-.8a2.3,2.3,0,0,0-2.1-2.3V11.3a2.8,2.8,0,0,0-2.8-2.7,2.7,2.7,0,0,0-2.7,2.7V37.4a1.7,1.7,0,0,0-1,.3l.3-3.1v-.2a2.1,2.1,0,0,0-.4-1.1,1.7,1.7,0,0,0-1.3-.5h-.1a3.3,3.3,0,0,0-1.3-1.9,4.1,4.1,0,0,0-3.5-.8A4.1,4.1,0,0,0,35,27.8a4,4,0,0,0-1.5.3A4.1,4.1,0,0,0,30.7,27a4.3,4.3,0,0,0-2.8,1.1,4,4,0,0,0-1.5-.3A3.9,3.9,0,0,0,22.9,30a4.2,4.2,0,0,0-3.5,1.5H17.8A2.5,2.5,0,0,0,15.3,34V46.6a2.5,2.5,0,0,0,2.5,2.5h.5l.9,10.1a2.6,2.6,0,0,0,2.5,2.4H57.9a2.4,2.4,0,0,0,1.6-.7A2.2,2.2,0,0,0,60,59.2Zm-5.2-9.1a1.1,1.1,0,0,0-1,1v8.8h-.5V53.3a1.1,1.1,0,0,0-1-1.1,1.1,1.1,0,0,0-1.1,1.1v6.6h-.5V55.4a1,1,0,1,0-2,0v4.5H45.2V53.3a1.1,1.1,0,0,0-1.1-1.1,1.1,1.1,0,0,0-1,1.1v6.6h-.5V51.1a1.1,1.1,0,0,0-1-1,1.1,1.1,0,0,0-1.1,1v8.8H39.4c-.2,0-.3,0-.4-.2a.4.4,0,0,1-.1-.3l1.3-11.7H57.1l1.3,11.8c0,.2-.1.3-.1.4H55.9V51.1A1.1,1.1,0,0,0,54.8,50.1Zm-37-2.6a.9.9,0,0,1-.9-.9V34a4.3,4.3,0,0,1,.1-.5h.1a.7.7,0,0,1,.7-.4h7.7a.9.9,0,0,1,.7.3,1.4,1.4,0,0,1,.2.6v.3h0V46.6a.9.9,0,0,1-.9.9H17.8ZM30.7,28.6a2.3,2.3,0,0,1,1.9,1,.9.9,0,0,0,1.1.2,2.8,2.8,0,0,1,1.3-.3,2.3,2.3,0,0,1,2.3,1.8,1,1,0,0,0,.5.6.9.9,0,0,0,.7,0,2,2,0,0,1,1.1-.3,2.1,2.1,0,0,1,2,1.2h-4v6.5a.8.8,0,0,1-.7.7.7.7,0,0,1-.7-.7V32.8H34.6v1.5h0v1.1a.8.8,0,0,1-.7.7.7.7,0,0,1-.7-.7V32.8H27.7a2.5,2.5,0,0,0-2.2-1.3H23.9a.5.5,0,0,0,.2-.4,2.4,2.4,0,0,1,2.3-1.6,2.8,2.8,0,0,1,1.3.3.8.8,0,0,0,1-.2A2.6,2.6,0,0,1,30.7,28.6ZM48.6,10.2a1.1,1.1,0,0,1,1.2,1.1V37.4H47.5V11.3A1.1,1.1,0,0,1,48.6,10.2ZM49.8,39h1.4a.7.7,0,0,1,.7.7v2.4H45.4V39.7a.7.7,0,0,1,.7-.7h3.7ZM28,35.5V34.4h3.6v1.3a2.3,2.3,0,0,0,.3,1.1,2.5,2.5,0,0,0,2.7.9v.2H30.8l-.4-1.4a.8.8,0,0,0-1-.5.7.7,0,0,0-.5.9l.3,1H28Zm13.9,2v.4H39.2V34.4h3l-.3,3.1Zm-7.3,2a2.2,2.2,0,0,0,2.3,2.2,2.4,2.4,0,0,0,2.3-2.2h2.5v1.1a4.3,4.3,0,0,0-3,3.6v1.9a8.2,8.2,0,0,1-7.2-5.9l-.2-.7ZM57,46H40.2V44.7a.8.8,0,0,1,.1-.4A2.5,2.5,0,0,1,42,42.2h1.8v.8a.8.8,0,0,0,.8.8h8.1a.9.9,0,0,0,.8-.8v-.8h.9A2.6,2.6,0,0,1,57,44.7ZM25.5,49.1A2.5,2.5,0,0,0,28,46.6V39.5h1.6l.3,1.1a9.7,9.7,0,0,0,8.6,7L37.3,59.2v.7H21.7a1,1,0,0,1-.9-.9L20,49.1Zm18.3-9.4v.8h-.5v-1h.4Z"/>
  </g>
</svg>
