<svg id="Layer_1" data-name="Layer 1" xmlns="http://www.w3.org/2000/svg" xmlns:xlink="http://www.w3.org/1999/xlink" width="70" height="70" viewBox="0 0 70 70">
  <defs>
    <style>
      .cls-1 {
        fill: #f6f6f6;
      }

      .cls-2 {
        fill: url(#linear-gradient);
      }

      .cls-3 {
        fill: url(#linear-gradient-2);
      }

      .cls-4 {
        fill: url(#linear-gradient-3);
      }

      .cls-5 {
        fill: url(#linear-gradient-4);
      }

      .cls-6 {
        fill: url(#linear-gradient-5);
      }

      .cls-7 {
        fill: url(#linear-gradient-6);
      }

      .cls-8 {
        fill: url(#linear-gradient-7);
      }

      .cls-9 {
        fill: url(#linear-gradient-8);
      }

      .cls-10 {
        fill: url(#linear-gradient-9);
      }

      .cls-11 {
        fill: url(#linear-gradient-10);
      }

      .cls-12 {
        fill: url(#linear-gradient-11);
      }

      .cls-13 {
        fill: url(#linear-gradient-12);
      }

      .cls-14 {
        fill: url(#linear-gradient-13);
      }
    </style>
    <linearGradient id="linear-gradient" x1="31.22" y1="79.76" x2="-3.67" y2="16.46" gradientUnits="userSpaceOnUse">
      <stop offset="0" stop-color="#75c9b9"/>
      <stop offset="1" stop-color="#72bde5"/>
    </linearGradient>
    <linearGradient id="linear-gradient-2" x1="31.22" y1="79.76" x2="-3.67" y2="16.46" xlink:href="#linear-gradient"/>
    <linearGradient id="linear-gradient-3" x1="53.42" y1="67.52" x2="18.54" y2="4.22" xlink:href="#linear-gradient"/>
    <linearGradient id="linear-gradient-4" x1="48.29" y1="70.35" x2="13.4" y2="7.05" xlink:href="#linear-gradient"/>
    <linearGradient id="linear-gradient-5" x1="45.81" y1="71.72" x2="10.93" y2="8.42" xlink:href="#linear-gradient"/>
    <linearGradient id="linear-gradient-6" x1="46.53" y1="71.32" x2="11.64" y2="8.02" xlink:href="#linear-gradient"/>
    <linearGradient id="linear-gradient-7" x1="49" y1="69.96" x2="14.11" y2="6.66" xlink:href="#linear-gradient"/>
    <linearGradient id="linear-gradient-8" x1="63.01" y1="62.24" x2="28.13" y2="-1.06" xlink:href="#linear-gradient"/>
    <linearGradient id="linear-gradient-9" x1="60.54" y1="63.6" x2="25.66" y2="0.3" xlink:href="#linear-gradient"/>
    <linearGradient id="linear-gradient-10" x1="61.26" y1="63.21" x2="26.37" y2="-0.09" xlink:href="#linear-gradient"/>
    <linearGradient id="linear-gradient-11" x1="63.73" y1="61.84" x2="28.84" y2="-1.46" xlink:href="#linear-gradient"/>
    <linearGradient id="linear-gradient-12" x1="63.23" y1="62.12" x2="28.35" y2="-1.18" xlink:href="#linear-gradient"/>
    <linearGradient id="linear-gradient-13" x1="54.82" y1="66.76" x2="19.93" y2="3.46" xlink:href="#linear-gradient"/>
  </defs>
  <title>icon_housekeeping_H0</title>
  <path id="Rectangle" class="cls-1" d="M3,0H67a2.9,2.9,0,0,1,3,3V67a2.9,2.9,0,0,1-3,3H3a2.9,2.9,0,0,1-3-3V3A2.9,2.9,0,0,1,3,0Z"/>
  <g>
    <path class="cls-2" d="M16.7,57.4a4,4,0,0,0,4-4,4,4,0,0,0-8,0A4,4,0,0,0,16.7,57.4Zm0-6.8a2.9,2.9,0,1,1,0,5.7,2.9,2.9,0,0,1,0-5.7Z"/>
    <path class="cls-3" d="M16.7,55.2a1.8,1.8,0,0,0,1.8-1.8,1.8,1.8,0,0,0-1.8-1.7A1.8,1.8,0,0,0,15,53.4,1.8,1.8,0,0,0,16.7,55.2Z"/>
    <path class="cls-4" d="M59.1,49.7a2,2,0,0,0,.7-1.5,1.8,1.8,0,0,0-1.9-1.9H53.7v-.5h4.2a1.8,1.8,0,0,0,1.9-1.9,1.9,1.9,0,0,0-1.9-1.9H53.7v-.6h4.2a1.8,1.8,0,0,0,1.9-1.9,1.9,1.9,0,0,0-1.9-1.9H53.7v-.6h4.2A1.8,1.8,0,0,0,59.8,35a1.9,1.9,0,0,0-1.9-1.9H53.7v-.6h4.2a1.8,1.8,0,0,0,1.9-1.8,1.8,1.8,0,0,0-1.9-1.9H53.7v-.6h4.2a1.9,1.9,0,0,0,1.9-1.9,1.8,1.8,0,0,0-1.9-1.9H53.7v-.7h4.2a1.8,1.8,0,0,0,1.9-1.9,1.9,1.9,0,0,0-1.9-1.9H53.7v-.6h4.2a1.8,1.8,0,0,0,1.9-1.9,1.9,1.9,0,0,0-1.9-1.9H53.7v-.4h4.2a1.9,1.9,0,0,0,1.9-1.9,1.8,1.8,0,0,0-1.9-1.9H53.6a2.1,2.1,0,0,0-2-1.5H16.7a6.7,6.7,0,0,0-6.6,5.9.4.4,0,0,0-.1.3V53.4a6.7,6.7,0,0,0,6.7,6.8H53a6.7,6.7,0,0,0,4.1-1.3h.8A1.8,1.8,0,0,0,59.8,57a2.4,2.4,0,0,0-.3-1.2,7.5,7.5,0,0,0,.5-2.6A6.8,6.8,0,0,0,59.1,49.7Zm-1,5.7c-.1.1-.1.3-.2.4h-.1c-.1.2-.1.3-.2.4l-.3.4a3.4,3.4,0,0,1-.6.6l-.4.3-.5.4h-.3l-1,.4-.9.2H35a5.7,5.7,0,0,1-4.4-5.4,5.5,5.5,0,0,1,5.5-5.5,5,5,0,0,1,1.7.2l2,.7-.2-2.2v-.2a5.6,5.6,0,0,1,11.1,0v1.7l1.4-.2h1.6l.9.2a3.1,3.1,0,0,1,1.3.6l.6.3a.8.8,0,0,0,.4.4c0,.1.1.1.1.2l.3.3.3.4.4.6c0,.1.1.2.1.4s.1.2.2.4h0c.1.2.1.4.2.6v.6c.1.1.1.2.1.4v.2a.3.3,0,0,1-.1.2V54a.6.6,0,0,1-.1.4,1.9,1.9,0,0,1-.2.7C58.2,55.2,58.1,55.3,58.1,55.4ZM38.2,46.5a7.6,7.6,0,0,0-2.1-.3,7,7,0,0,0-7,7,6.9,6.9,0,0,0,2.6,5.4H21a6.8,6.8,0,0,0,2.4-5.2V15.7a7,7,0,0,0-2.3-4.3H51.6a.5.5,0,0,1,.5.5V45.8a7,7,0,0,0-13.9.4ZM16.7,11.4a5,5,0,0,1,5.1,4.7h0V49.1a6.7,6.7,0,0,0-5.1-2.4,6.9,6.9,0,0,0-5.1,2.4V16.2h0A5.1,5.1,0,0,1,16.7,11.4Zm0,36.9a5.2,5.2,0,1,1-5.1,5.1A5.1,5.1,0,0,1,16.7,48.3Zm41.2-4.2H53.7v-.6h4.2a.3.3,0,0,1,0,.6Zm0-4.4H53.7v-.6h4.2a.3.3,0,0,1,.3.3A.3.3,0,0,1,57.9,39.7Zm0-4.4H53.7v-.6h4.2a.3.3,0,0,1,.3.3A.3.3,0,0,1,57.9,35.3Zm0-4.4H53.7v-.6h4.2c.2,0,.3.2.3.4S58.1,30.9,57.9,30.9Zm0-4.3H53.7V26h4.2a.3.3,0,0,1,.3.3A.3.3,0,0,1,57.9,26.6Zm0-4.5H53.7v-.6h4.2a.3.3,0,0,1,.3.3A.3.3,0,0,1,57.9,22.1Zm0-4.4H53.7v-.6h4.2a.3.3,0,0,1,.3.3A.3.3,0,0,1,57.9,17.7Zm0-4.2H53.7v-.6h4.2a.3.3,0,0,1,.3.3A.3.3,0,0,1,57.9,13.5Zm0,34.4a.3.3,0,0,1,.3.3c0,.1,0,.2-.1.2l-.5-.5Z"/>
    <path class="cls-5" d="M31.6,41.3a.7.7,0,0,0,.8-.8v-.8a.8.8,0,1,0-1.6,0v.8A.7.7,0,0,0,31.6,41.3Z"/>
    <path class="cls-6" d="M29.9,41.3h-.8a.9.9,0,0,0-.8.9.9.9,0,0,0,.8.8h.8a.9.9,0,0,0,.9-.8A.9.9,0,0,0,29.9,41.3Z"/>
    <path class="cls-7" d="M31.6,43a.8.8,0,0,0-.8.8v.9a.8.8,0,1,0,1.6,0v-.9A.8.8,0,0,0,31.6,43Z"/>
    <path class="cls-8" d="M34.1,41.3h-.8a.9.9,0,0,0-.9.9.9.9,0,0,0,.9.8h.8a.8.8,0,0,0,.8-.8A.8.8,0,0,0,34.1,41.3Z"/>
    <path class="cls-9" d="M45.1,30.8v.9a.9.9,0,0,0,.8.8.9.9,0,0,0,.9-.8v-.9a.9.9,0,0,0-.9-.8A.9.9,0,0,0,45.1,30.8Z"/>
    <path class="cls-10" d="M44.3,32.5h-.9a.9.9,0,0,0-.8.8.9.9,0,0,0,.8.9h.9a.9.9,0,0,0,.8-.9A.9.9,0,0,0,44.3,32.5Z"/>
    <path class="cls-11" d="M45.9,34.2a.8.8,0,0,0-.8.8v.8a.9.9,0,0,0,.8.9.9.9,0,0,0,.9-.9V35A.8.8,0,0,0,45.9,34.2Z"/>
    <path class="cls-12" d="M47.6,34.2h.8a.9.9,0,0,0,.9-.9.9.9,0,0,0-.9-.8h-.8a.8.8,0,0,0-.8.8A.8.8,0,0,0,47.6,34.2Z"/>
    <path class="cls-13" d="M43.1,28.1a2.5,2.5,0,1,0,0-4.9,2.5,2.5,0,1,0,0,4.9Zm0-3.3a.9.9,0,0,1,.9.8.9.9,0,0,1-.9.9.9.9,0,0,1-.8-.9A.9.9,0,0,1,43.1,24.8Z"/>
    <path class="cls-14" d="M41.8,37.1a3.4,3.4,0,0,0-6.7,0,3.4,3.4,0,0,0,6.7,0Zm-3.3,1.6a1.6,1.6,0,0,1-1.7-1.6,1.7,1.7,0,0,1,1.7-1.7,1.7,1.7,0,0,1,1.6,1.7A1.6,1.6,0,0,1,38.5,38.7Z"/>
  </g>
</svg>
