<svg id="Layer_1" data-name="Layer 1" xmlns="http://www.w3.org/2000/svg" xmlns:xlink="http://www.w3.org/1999/xlink" width="374.5" height="89.4" viewBox="0 0 374.5 89.4">
  <defs>
    <style>
      .cls-1 {
        fill: url(#linear-gradient);
      }

      .cls-2, .cls-4, .cls-5 {
        fill: #fff;
      }

      .cls-2 {
        opacity: 0.3;
      }

      .cls-2, .cls-3, .cls-4 {
        isolation: isolate;
      }

      .cls-4 {
        font-size: 16px;
        font-family: Montserrat-Medium, Montserrat;
      }
    </style>
    <linearGradient id="linear-gradient" x1="405.55" y1="126.36" x2="21.53" y2="-32.27" gradientUnits="userSpaceOnUse">
      <stop offset="0" stop-color="#64dcc2"/>
      <stop offset="1" stop-color="#70bce6"/>
    </linearGradient>
  </defs>
  <title>banner_carpentry_C0</title>
  <g id="Page-1">
    <g id="UI---Screen-7---v2">
      <g id="Group-2">
        <path id="Path-4" class="cls-1" d="M0,72.4C71,74,112,68.2,210.5,71c58.9,1.7,113.3,7.8,164,18.4V0H0Z"/>
        <path id="Rectangle-Copy-2" class="cls-2" d="M26.8,22H67.3a3.3,3.3,0,0,1,3.3,3.3v.5A3.3,3.3,0,0,1,67.3,29H26.8a3.2,3.2,0,0,1-3.2-3.2v-.5A3.2,3.2,0,0,1,26.8,22Z"/>
        <rect id="Rectangle-Copy-4" class="cls-2" x="186.5" y="29" width="47" height="7" rx="3.3" ry="3.3"/>
        <rect id="Rectangle-Copy-3" class="cls-2" x="64.5" y="35" width="47" height="7" rx="3.3" ry="3.3"/>
        <rect id="Rectangle-Copy-5" class="cls-2" x="233.5" y="42" width="47" height="7" rx="3.3" ry="3.3"/>
        <g id="sweep">
          <g id="_" data-name="+" class="cls-3">
            <text class="cls-4" transform="translate(298.5 26)">+</text>
          </g>
          <g id="_-copy" data-name="+-copy" class="cls-3">
            <text class="cls-4" transform="translate(336.5 14)">+</text>
          </g>
        </g>
      </g>
    </g>
  </g>
  <g>
    <path class="cls-5" d="M335.5,38.5c-.5,0-.9.6-.9,1.2s.4,1.3.9,1.3,1-.6,1-1.3A1.1,1.1,0,0,0,335.5,38.5Z"/>
    <path class="cls-5" d="M335.5,14.7a25,25,0,0,0-7.6,48.9l1.4.4,2.4.4,2.1.3h3.5l2.1-.3,2.3-.4,1.4-.4a25,25,0,0,0-7.6-48.9Zm5.2,36.1L338.6,52l-.7-.3-.6-2.4h-3.5v-26l12.2,2.2V54l-3.6.7.8-1.5Zm-5.2,12.5a24.2,24.2,0,0,1-5.4-.6l.7-1.2-.2-.4a3.7,3.7,0,0,1-.5-1.1v-.4l-2.1-.6V57.8l2.1-.6v-.4a3.7,3.7,0,0,1,.5-1.1l.2-.4-.2-.3-.9-1.5.9-.9h0l1.4.8.4.2.4-.2.9-.4h.3l.3-.2.6-2h1.3l.5,2,.4.2,1.2.4.3.2,1.9-1,.9.9-.9,1.5-.2.3.2.4a3,3,0,0,1,.4,1h.1v.4l2.1.6V59l-2.1.6V60a3.7,3.7,0,0,1-.5,1.1l-.2.4.7,1.2A25.1,25.1,0,0,1,335.5,63.3Zm6.9-1-.5-.8.3-.7,2.4-.7V56.7l-1.5-.4,4.6-.8V24L332,21.2V51.7l-1.4-.8v-27h-7.2V55.5H329a.8.8,0,0,1-.2.5l-2.3.7v3.4l2.3.7.3.7-.4.8a23.6,23.6,0,1,1,13.7,0Z"/>
    <path class="cls-5" d="M337.9,57.7a1.7,1.7,0,0,0,1.3-.7,1.9,1.9,0,0,0,.2-.8.9.9,0,0,0-.1-.5.1.1,0,0,0-.2,0l-.7.6h-.3l-.3-.3v-.3l.2-.3.4-.4a.1.1,0,0,0,0-.2h-.5a1.3,1.3,0,0,0-1.2.6c-.1.2-.2.3-.2.4a1.4,1.4,0,0,0-.1.9l-1,1.1h-.1l-1.5-1.5h-.1l-.2-.2v-.4a.1.1,0,0,0-.1-.1l-1.1-.7h-.2v.2l-.3.3a.1.1,0,0,0,0,.2l.3.4.3.6a.1.1,0,0,0,.1.1h.4l1.4,1.4.5.5-1.1,1.1a1.5,1.5,0,0,0-1.3.2,1.4,1.4,0,0,0-.6,1.2v.5h.3l.6-.7h.3l.4.4v.3l-.7.6v.2h.6a1.4,1.4,0,0,0,1.2-.6,1.5,1.5,0,0,0,.2-1.3l.9-.9.2.3h-.1v.2h.3l1.9,2.1h0a1,1,0,0,0,1.3,0,.9.9,0,0,0,0-1.3L337,59h.1c.1-.1.1-.2,0-.2s-.1-.1-.2,0h-.1l-.2-.2.9-.9ZM336.6,59l-.7.7-.2-.3.7-.6Z"/>
  </g>
</svg>
