<svg id="Layer_1" data-name="Layer 1" xmlns="http://www.w3.org/2000/svg" xmlns:xlink="http://www.w3.org/1999/xlink" width="374.5" height="89.4" viewBox="0 0 374.5 89.4">
  <defs>
    <style>
      .cls-1 {
        fill: url(#linear-gradient);
      }

      .cls-2, .cls-4, .cls-5 {
        fill: #fff;
      }

      .cls-2 {
        opacity: 0.3;
      }

      .cls-2, .cls-3, .cls-4 {
        isolation: isolate;
      }

      .cls-4 {
        font-size: 16px;
        font-family: Montserrat-Medium, Montserrat;
      }
    </style>
    <linearGradient id="linear-gradient" x1="405.55" y1="126.36" x2="21.53" y2="-32.27" gradientUnits="userSpaceOnUse">
      <stop offset="0" stop-color="#75c8b8"/>
      <stop offset="1" stop-color="#71bbe4"/>
    </linearGradient>
  </defs>
  <title>banner_pumbing_P0</title>
  <g id="Page-1">
    <g id="UI---Screen-7---v2">
      <g id="Group-2">
        <path id="Path-4" class="cls-1" d="M0,72.4C71,74,112,68.2,210.5,71c58.9,1.7,113.3,7.8,164,18.4V0H0Z"/>
        <rect id="Rectangle-Copy-2" class="cls-2" x="23.5" y="22" width="47" height="7" rx="3.3" ry="3.3"/>
        <rect id="Rectangle-Copy-4" class="cls-2" x="186.5" y="29" width="47" height="7" rx="3.3" ry="3.3"/>
        <rect id="Rectangle-Copy-3" class="cls-2" x="64.5" y="35" width="47" height="7" rx="3.3" ry="3.3"/>
        <path id="Rectangle-Copy-5" class="cls-2" d="M236.8,42h40.5a3.2,3.2,0,0,1,3.2,3.2v.5a3.2,3.2,0,0,1-3.2,3.2H236.8a3.3,3.3,0,0,1-3.2-3.2v-.5A3.3,3.3,0,0,1,236.8,42Z"/>
        <g id="sweep">
          <g id="_" data-name="+" class="cls-3">
            <text class="cls-4" transform="translate(358 26)">+</text>
          </g>
          <g id="_-copy" data-name="+-copy" class="cls-3">
            <text class="cls-4" transform="translate(336.5 14)">+</text>
          </g>
        </g>
      </g>
    </g>
  </g>
  <g>
    <path class="cls-5" d="M347.6,17.8H320a3.4,3.4,0,0,0-3.4,3.4V31.5a3.2,3.2,0,0,0,1.7,2.9,3.6,3.6,0,0,0-.8,2.3V56.5a16.3,16.3,0,0,0,32.6,0V36.7a3.6,3.6,0,0,0-.8-2.3,3.2,3.2,0,0,0,1.7-2.9V21.2A3.4,3.4,0,0,0,347.6,17.8ZM333.8,71.2a14.7,14.7,0,0,1-14.7-14.7V36.7a1.8,1.8,0,0,1,1.8-1.8h1.8v1.8h-.1a1.8,1.8,0,0,0-1.7,1.7V56.5a12.3,12.3,0,0,0,2.9,8,.7.7,0,0,0,.6.3h.5a.9.9,0,0,0,.1-1.2,11.1,11.1,0,0,1-2.5-7V38.4H345v.9a.9.9,0,0,0,.8.8.9.9,0,0,0,.9-.8v-.9a1.8,1.8,0,0,0-1.7-1.7h-.1V34.9h1.8a1.8,1.8,0,0,1,1.8,1.8V56.5h0A14.7,14.7,0,0,1,333.8,71.2Zm-9.5-34.5V34.9h1.8v1.8Zm3.4,0V34.9h12.2v1.8Zm13.8,0V34.9h1.8v1.8Zm7.8-5.2a1.7,1.7,0,0,1-1.7,1.8H320a1.8,1.8,0,0,1-1.8-1.8V21.2a1.8,1.8,0,0,1,1.8-1.8h27.6a1.7,1.7,0,0,1,1.7,1.8Z"/>
    <path class="cls-5" d="M345.8,41.9a.9.9,0,0,0-.8.8V56.5a11.2,11.2,0,0,1-17.6,9.2,1.1,1.1,0,0,0-1.2.2.9.9,0,0,0,.2,1.1,12.9,12.9,0,0,0,20.3-10.5V42.7A.9.9,0,0,0,345.8,41.9Z"/>
    <path class="cls-5" d="M337.2,23.8h-6.9a2.6,2.6,0,0,0,0,5.1h6.9a2.6,2.6,0,1,0,0-5.1Zm-5.1,3.5h-1.8a1,1,0,0,1-.9-1,.9.9,0,0,1,.9-.9h1.8Zm5.1,0h-3.5V25.4h3.5a1,1,0,0,1,1,.9A1.1,1.1,0,0,1,337.2,27.3Z"/>
  </g>
</svg>
