<svg id="Layer_1" data-name="Layer 1" xmlns="http://www.w3.org/2000/svg" xmlns:xlink="http://www.w3.org/1999/xlink" width="70" height="70" viewBox="0 0 70 70">
  <defs>
    <style>
      .cls-1 {
        fill: #f6f6f6;
      }

      .cls-2 {
        fill: url(#linear-gradient);
      }

      .cls-3 {
        fill: url(#linear-gradient-2);
      }

      .cls-4 {
        fill: url(#linear-gradient-3);
      }

      .cls-5 {
        fill: url(#linear-gradient-4);
      }
    </style>
    <linearGradient id="linear-gradient" x1="52.03" y1="73.2" x2="25.71" y2="-1.05" gradientUnits="userSpaceOnUse">
      <stop offset="0" stop-color="#75c9b9"/>
      <stop offset="1" stop-color="#72bde5"/>
    </linearGradient>
    <linearGradient id="linear-gradient-2" x1="50.95" y1="73.58" x2="24.63" y2="-0.67" xlink:href="#linear-gradient"/>
    <linearGradient id="linear-gradient-3" x1="43.24" y1="76.32" x2="16.91" y2="2.07" xlink:href="#linear-gradient"/>
    <linearGradient id="linear-gradient-4" x1="49.43" y1="74.12" x2="23.11" y2="-0.13" xlink:href="#linear-gradient"/>
  </defs>
  <title>icon_plumbing_P0</title>
  <path id="Rectangle" class="cls-1" d="M3,0H67a2.9,2.9,0,0,1,3,3V67a2.9,2.9,0,0,1-3,3H3a2.9,2.9,0,0,1-3-3V3A2.9,2.9,0,0,1,3,0Z"/>
  <g>
    <path class="cls-2" d="M56.3,24H48.7V14l1-5.4a1.1,1.1,0,0,0-.8-1.1H43.2a.9.9,0,0,0-.9.9v.2l.8,4.4H36.8a.9.9,0,0,0-.9.9v7.4a.9.9,0,0,0,.9.9h3.7a.9.9,0,0,0,.9-.9h0V18.5h1.8V24H13.9a.9.9,0,0,0-.9.9v.3A18.7,18.7,0,0,0,17.3,32a20.8,20.8,0,0,0,10.1,5.7L25.8,61.5a1,1,0,0,0,.9,1H43.2a.9.9,0,0,0,1-.9h0L42.6,37.7A21.3,21.3,0,0,0,52.7,32,18.7,18.7,0,0,0,57,25.2,1.1,1.1,0,0,0,56.3,24ZM47.7,9.3,47.1,13H44.9l-.6-3.7Zm-.8,5.5V24H45.1V14.8Zm-7.3,5.5H37.8V18.5h1.8Zm-1.8-3.6V14.8h5.4v1.9Zm-10.1,44,1.5-22.6a32.3,32.3,0,0,0,11.6,0l1.5,22.6ZM35,36.8c-13.6,0-18.4-7.9-19.8-11H54.7C53.4,28.9,48.4,36.8,35,36.8Z"/>
    <path class="cls-3" d="M35,35c8.2,0,12.8-3.1,15.3-5.8a1.1,1.1,0,0,0,0-1.3A.9.9,0,0,0,49,28c-2.3,2.3-6.5,5.2-14,5.2S23.3,30.3,21,28a.9.9,0,1,0-1.3,1.2C22.2,31.9,26.8,35,35,35Z"/>
    <path class="cls-4" d="M39.5,45.9a1,1,0,0,0-1-.8,1,1,0,0,0-.9,1L38.4,57H30.7a.9.9,0,1,0,0,1.8h8.6a.9.9,0,0,0,.9-.9h0Z"/>
    <path class="cls-5" d="M38.4,44.2h0a1.1,1.1,0,0,0,.9-1v-.9a1,1,0,0,0-1-.9.9.9,0,0,0-.8,1v.9A1.1,1.1,0,0,0,38.4,44.2Z"/>
  </g>
</svg>
