<svg id="Layer_1" data-name="Layer 1" xmlns="http://www.w3.org/2000/svg" xmlns:xlink="http://www.w3.org/1999/xlink" width="70" height="70" viewBox="0 0 70 70">
  <defs>
    <style>
      .cls-1 {
        fill: #f6f6f6;
      }

      .cls-2 {
        fill: url(#linear-gradient);
      }
    </style>
    <linearGradient id="linear-gradient" x1="50.71" y1="67.93" x2="21.18" y2="6.03" gradientUnits="userSpaceOnUse">
      <stop offset="0" stop-color="#75c9b9"/>
      <stop offset="1" stop-color="#72bde5"/>
    </linearGradient>
  </defs>
  <title>icon_plumbing_P0</title>
  <path id="Rectangle" class="cls-1" d="M3,0H67a2.9,2.9,0,0,1,3,3V67a2.9,2.9,0,0,1-3,3H3a2.9,2.9,0,0,1-3-3V3A2.9,2.9,0,0,1,3,0Z"/>
  <path class="cls-2" d="M35,10A25,25,0,1,0,60,35,25,25,0,0,0,35,10ZM11.4,35a23.4,23.4,0,0,1,7.3-17,9.8,9.8,0,0,0,6.6,2.9V23a3.7,3.7,0,0,0,3.9,3.4A3.6,3.6,0,0,0,33,23h0a2.3,2.3,0,0,1,2.5-2,2.2,2.2,0,0,1,2.4,2V33.3h0v8.9H36.3a.1.1,0,0,0,.1.1h1.5v1.3l-2.9.2A23.6,23.6,0,0,1,11.4,35ZM39.3,58.2V57.1h1.5a.1.1,0,0,0,.1-.1H39.3V45.3h0V22.8a3.6,3.6,0,0,0-3.8-3.4,3.6,3.6,0,0,0-3.9,3.4h0a2.2,2.2,0,0,1-2.4,2,2.2,2.2,0,0,1-2.4-2V20.9A10.1,10.1,0,0,0,36,11.5a23.6,23.6,0,0,1,3.3,46.7Z"/>
</svg>
