<svg id="Layer_1" data-name="Layer 1" xmlns="http://www.w3.org/2000/svg" xmlns:xlink="http://www.w3.org/1999/xlink" width="70" height="70" viewBox="0 0 70 70">
  <defs>
    <style>
      .cls-1 {
        fill: #f6f6f6;
      }

      .cls-2 {
        fill: url(#linear-gradient);
      }

      .cls-3 {
        fill: url(#linear-gradient-2);
      }

      .cls-4 {
        fill: url(#linear-gradient-3);
      }

      .cls-5 {
        fill: url(#linear-gradient-4);
      }
    </style>
    <linearGradient id="linear-gradient" x1="57.96" y1="79.27" x2="8.46" y2="-8.73" gradientUnits="userSpaceOnUse">
      <stop offset="0" stop-color="#75c9b9"/>
      <stop offset="1" stop-color="#72bde5"/>
    </linearGradient>
    <linearGradient id="linear-gradient-2" x1="65.53" y1="75.01" x2="16.03" y2="-12.99" xlink:href="#linear-gradient"/>
    <linearGradient id="linear-gradient-3" x1="65.73" y1="74.9" x2="16.23" y2="-13.1" xlink:href="#linear-gradient"/>
    <linearGradient id="linear-gradient-4" x1="43.91" y1="87.17" x2="-5.59" y2="-0.83" xlink:href="#linear-gradient"/>
  </defs>
  <title>icon_electrical_E01</title>
  <path id="Rectangle" class="cls-1" d="M3,0H67a2.9,2.9,0,0,1,3,3V67a2.9,2.9,0,0,1-3,3H3a2.9,2.9,0,0,1-3-3V3A2.9,2.9,0,0,1,3,0Z"/>
  <g>
    <path class="cls-2" d="M41.6,38.5A6.6,6.6,0,1,0,35,45.1,6.6,6.6,0,0,0,41.6,38.5ZM35,43.6a5.1,5.1,0,1,1,5.1-5.1A5.1,5.1,0,0,1,35,43.6Z"/>
    <path class="cls-3" d="M30.1,32.3A7.4,7.4,0,0,1,35,30.5a7.9,7.9,0,0,1,5,1.8l.8.7,4.7-16.2-.8-.9A12.8,12.8,0,0,0,35,11.7a13,13,0,0,0-9.7,4.2l-.8.9L29.2,33ZM26.4,16.9A11.6,11.6,0,0,1,35,13.2a11.4,11.4,0,0,1,8.6,3.7l.2.3L40,30.5a9.6,9.6,0,0,0-10,0L26.2,17.2Z"/>
    <path class="cls-4" d="M42.9,37.3v1.2a8,8,0,0,1-5,7.4l-1,.4L48.6,58.4l1.1-.2a13.5,13.5,0,0,0,8.5-6.3,13,13,0,0,0,1.2-10.5L59,40.3,42.7,36.2Zm15,4.2v.4h0a11.1,11.1,0,0,1-1.1,9.2,11.7,11.7,0,0,1-7.5,5.6H49l-9.6-10a9.3,9.3,0,0,0,5-8.3v-.4Z"/>
    <path class="cls-5" d="M20.2,58.1l1.2.3L33.1,46.3l-1-.4a8,8,0,0,1-5-7.4,4.9,4.9,0,0,1,.1-1.2V36.2L11,40.2l-.4,1.2a12.7,12.7,0,0,0,1.2,10.4A12.7,12.7,0,0,0,20.2,58.1ZM12,41.8v-.3l13.5-3.4v.4a9.3,9.3,0,0,0,5,8.3l-9.7,9.9h-.3a11.5,11.5,0,0,1-7.5-5.6A11.4,11.4,0,0,1,12,41.8Z"/>
  </g>
</svg>
