<svg id="Layer_1" data-name="Layer 1" xmlns="http://www.w3.org/2000/svg" xmlns:xlink="http://www.w3.org/1999/xlink" width="70" height="70" viewBox="0 0 70 70">
  <defs>
    <style>
      .cls-1 {
        fill: #f6f6f6;
      }

      .cls-2 {
        fill: url(#linear-gradient);
      }

      .cls-3 {
        fill: url(#linear-gradient-2);
      }

      .cls-4 {
        fill: url(#linear-gradient-3);
      }

      .cls-5 {
        fill: url(#linear-gradient-4);
      }

      .cls-6 {
        fill: url(#linear-gradient-5);
      }

      .cls-7 {
        fill: url(#linear-gradient-6);
      }

      .cls-8 {
        fill: url(#linear-gradient-7);
      }
    </style>
    <linearGradient id="linear-gradient" x1="58.7" y1="70.76" x2="13.63" y2="-4.12" gradientUnits="userSpaceOnUse">
      <stop offset="0" stop-color="#75c9b9"/>
      <stop offset="1" stop-color="#72bde5"/>
    </linearGradient>
    <linearGradient id="linear-gradient-2" x1="59.16" y1="70.49" x2="14.08" y2="-4.39" xlink:href="#linear-gradient"/>
    <linearGradient id="linear-gradient-3" x1="59.85" y1="70.07" x2="14.78" y2="-4.81" gradientTransform="translate(46.5 -17.9) rotate(49.6)" xlink:href="#linear-gradient"/>
    <linearGradient id="linear-gradient-4" x1="45.35" y1="78.8" x2="0.28" y2="3.92" xlink:href="#linear-gradient"/>
    <linearGradient id="linear-gradient-5" x1="50.43" y1="75.74" x2="5.35" y2="0.87" xlink:href="#linear-gradient"/>
    <linearGradient id="linear-gradient-6" x1="55.33" y1="72.79" x2="10.25" y2="-2.08" xlink:href="#linear-gradient"/>
    <linearGradient id="linear-gradient-7" x1="53.53" y1="73.87" x2="8.45" y2="-1" xlink:href="#linear-gradient"/>
  </defs>
  <title>icon_PC0</title>
  <path id="Rectangle" class="cls-1" d="M3,0H67a2.9,2.9,0,0,1,3,3V67a2.9,2.9,0,0,1-3,3H3a2.9,2.9,0,0,1-3-3V3A2.9,2.9,0,0,1,3,0Z"/>
  <g>
    <g>
      <path class="cls-2" d="M49.5,49.9l-2.1-5.1a1.2,1.2,0,0,0-.5-.5l-2.6-.7v-.4l1.9-1.5a.9.9,0,0,0,.3-.5l2.1-5.1a.4.4,0,0,0-.7-.3l-2.1,5.1c-.1,0-.1.1-.2.2l-1.7,1.4-.5-.3v-.9l.6-.4a3.5,3.5,0,0,0,.7-2.3,2.3,2.3,0,0,0-.2-1.2L45.7,36a1.1,1.1,0,0,0,.3-.8V30.1c0-.1.1-.2.1-.4l.4-1.1a.5.5,0,0,0-.3-.5c-.2-.1-.4.1-.5.3l-.4,1.1c0,.2-.1.4-.1.6v5.1a.4.4,0,0,1-.1.3l-.9,1.1c-.1-.1-.2-.2-.2-.3h-.1a3.1,3.1,0,0,0-.6-2.4.6.6,0,0,0-.6,0,.4.4,0,0,0,0,.6,1.6,1.6,0,0,1,.4,1.3,1.6,1.6,0,0,0-1-.2,1.8,1.8,0,0,0-1,.2,1.6,1.6,0,0,1,.4-1.3.4.4,0,0,0,0-.6.5.5,0,0,0-.5,0,2.6,2.6,0,0,0-.7,2.4h0c-.1.1-.2.2-.2.3l-1-1.1c0-.1-.1-.2-.1-.3V30.1a1.3,1.3,0,0,0-.1-.6l-.3-1.1a.5.5,0,0,0-.6-.3.4.4,0,0,0-.2.5l.3,1.1a.8.8,0,0,1,.1.4v5.1a1.1,1.1,0,0,0,.3.8l1.2,1.4a4.3,4.3,0,0,0-.2,1.2,3.6,3.6,0,0,0,.8,2.3l.5.4v.9l-.4.3-1.8-1.4a.3.3,0,0,1-.1-.2l-2.2-5.1c0-.2-.3-.3-.5-.2a.4.4,0,0,0-.2.5l2.1,5.1a1,1,0,0,0,.4.5L40,43.2v.2c0,.1.1.1.1.2l-2.6.7a1,1,0,0,0-.6.5l-2.1,5.1a.4.4,0,0,0,.2.5h.2l.4-.2,2.1-5.1h0l2.5-.7-.7,1.4-1.6,1.5a1.2,1.2,0,0,0-.5.9v5.5a.6.6,0,0,1-.1.4l-.7,1.5a.4.4,0,0,0,.2.5h.1c.2,0,.3-.1.4-.3l.8-1.5a1.7,1.7,0,0,0,.1-.7V48.2c0-.1.1-.2.2-.3l.6-.6a12.4,12.4,0,0,0-.3,2.7,7.3,7.3,0,0,0,1,3.7,3.2,3.2,0,0,0,2.5,1.6,3,3,0,0,0,2.5-1.6,6.4,6.4,0,0,0,1-3.7,12.4,12.4,0,0,0-.3-2.7l.6.6c.1.1.2.2.2.3v5.5a1.9,1.9,0,0,0,.2.7l.7,1.5c.1.2.2.3.4.3h.2a.4.4,0,0,0,.2-.5L47,54.1c0-.1-.1-.3-.1-.4V48.2a1.1,1.1,0,0,0-.4-.9l-1.7-1.5a6.1,6.1,0,0,0-.7-1.4l2.5.7h.1l2.1,5.1.3.2h.2A.4.4,0,0,0,49.5,49.9Zm-5.3,2.8H40l-.3-.9h4.9A3.6,3.6,0,0,1,44.2,52.7Zm-4.7-1.8V50h5.3a2.8,2.8,0,0,1-.1.9Zm4.4-2.7h.7a3.8,3.8,0,0,1,.1,1H39.5c0-.3.1-.6.1-1h2.5a.4.4,0,0,0,.4-.4.4.4,0,0,0-.4-.4H39.8a5,5,0,0,1,.4-1.3,6.5,6.5,0,0,0,1.9.4,7.1,7.1,0,0,0,2-.4c.1.4.3.8.4,1.3h-.6a.4.4,0,0,0-.4.4C43.5,48.1,43.6,48.2,43.9,48.2Zm-3.6-9.6c0-1.4.7-2.2,1.8-2.2s1.8.8,1.8,2.2-.7,2.2-1.8,2.2S40.3,40,40.3,38.6Zm1.8,3.1h.5v.5h-.9v-.5ZM41.2,43H43a.5.5,0,0,1,.5.4.5.5,0,0,1-.5.5.4.4,0,1,0,0,.8h.3a2.1,2.1,0,0,1,.4.6,4.2,4.2,0,0,1-1.6.4,4.7,4.7,0,0,1-1.6-.4l.4-.6h.3a.4.4,0,1,0,0-.8.5.5,0,0,1-.4-.5A.4.4,0,0,1,41.2,43Zm.9,11.5a2.2,2.2,0,0,1-1.6-1h3.2A2,2,0,0,1,42.1,54.5Z"/>
      <path class="cls-3" d="M42,25.4A16.7,16.7,0,1,1,25.4,42,16.6,16.6,0,0,1,42,25.4m0-1.3A18,18,0,1,0,60,42,17.9,17.9,0,0,0,42,24.1Z"/>
      <rect class="cls-4" x="41.9" y="24" width="1.3" height="34.67" transform="translate(-16.5 47) rotate(-49.6)"/>
    </g>
    <g>
      <path class="cls-5" d="M14.2,26.8H15l.2-.2h.2v-.6h0v-.2h-.2v-.2h0v-.2h0v-.2h0v-.2h0v-.2h0V22h-.1v-.2H10v1h0v.5h0v.5h0V25h0v.4h0v.5h4.2Zm-2.5-4h0v-.2h1.8v.2H11.7Zm2.1,2.3v.2H11.7v-.4h2v.2h0Z"/>
      <polygon class="cls-6" points="20.7 20.9 20.5 20.9 20.4 20.9 20.4 21 20.3 21.1 20.3 21.6 20.3 21.8 20.4 22.3 20.4 22.4 20.3 23 20.3 23.1 20.3 23.2 20.2 23.2 20.1 23.2 20 23.2 19.5 23.2 19 23.2 18.8 23.2 18.5 23.2 18.4 23.2 18.3 23.2 18.2 23.2 18.2 23.2 18.1 23.1 18.1 23 18.1 22.3 18.1 21.8 18.1 21.6 18.2 21.3 18.2 21.1 18.2 21.1 18.1 21 18.1 20.9 18 20.9 17.8 20.9 17.7 20.9 17.4 20.9 17.2 20.9 16.9 20.9 16.7 20.9 16.6 20.9 16.5 20.9 16.4 21 16.4 21.1 16.4 21.2 16.4 21.5 16.4 21.7 16.5 22.1 16.4 22.2 16.4 22.7 16.4 22.8 16.4 23.4 16.4 23.9 16.4 24 16.4 24.4 16.4 24.6 16.4 25 16.4 25.1 16.4 25.6 16.4 26.3 16.4 26.6 16.4 26.7 16.4 26.8 16.4 26.9 16.5 26.9 16.5 26.9 16.6 26.9 16.7 26.9 16.8 27 17.2 26.9 17.4 26.9 17.7 27 17.8 27 18 27 18.1 26.9 18.1 26.9 18.2 26.8 18.2 26.6 18.1 26.2 18.1 26.1 18.2 25.5 18.2 25.4 18.1 24.9 18.2 24.7 18.2 24.7 18.3 24.6 18.4 24.6 18.8 24.7 19.5 24.7 19.6 24.7 20 24.6 20.2 24.6 20.3 24.7 20.3 24.7 20.3 24.9 20.3 25.4 20.3 25.5 20.3 26.1 20.3 26.2 20.3 26.8 20.4 26.9 20.4 26.9 20.5 27 20.7 27 21.1 26.9 21.2 26.9 21.7 27 21.8 26.9 21.9 26.9 22 26.9 22 26.8 22 26.6 22 26.5 22 26.3 22 26.2 22 25.6 22 25.1 22 25 22 24.6 22 24.4 22 24 22 23.9 22.1 23.4 22.1 23.3 22 22.8 22 22.7 22 22.2 22 22.1 22 21.7 22 21.5 22 21.2 22 21.1 22 21 21.9 20.9 21.8 20.9 21.8 20.9 21.6 20.9 21.2 20.9 21.1 20.9 20.7 20.9"/>
      <polygon class="cls-7" points="23.2 26.4 23.2 26.6 23.2 26.7 23.2 26.8 23.2 26.9 23.3 27 23.3 27 23.8 26.9 23.9 26.9 24.3 27 24.5 27 24.8 27 24.9 26.9 24.9 26.9 24.9 26.8 25 26.7 25 26.6 24.9 26.4 24.9 26.2 25 25.8 25 25.2 25 25.1 25 25.1 25.1 25.1 25.1 25.2 25.2 25.2 25.5 25.6 25.6 25.7 25.9 26 26 26.1 26.2 26.5 26.3 26.6 26.6 26.9 26.7 27 26.8 27 27.3 26.9 27.4 26.9 28 26.9 28.1 26.9 28.6 27 28.7 27 28.7 26.9 28.8 26.9 28.8 26.9 28.7 26.8 28.4 26.4 28.3 26.3 27.9 25.9 27.8 25.8 27.5 25.4 27.4 25.3 27.1 24.9 27 24.8 26.6 24.5 26.5 24.4 26.2 24 26.2 23.9 26.2 23.8 26.2 23.8 26.2 23.7 26.3 23.6 26.5 23.4 26.6 23.3 26.9 22.9 27 22.8 27.3 22.5 27.4 22.4 27.7 22 27.8 21.9 28.1 21.5 28.2 21.4 28.5 21.1 28.6 21 28.6 21 28.6 21 28.5 20.9 28.4 20.9 28.1 20.9 28 20.9 27.7 20.9 27.2 20.9 27 20.9 26.6 20.9 26.6 20.9 26.5 21 26.2 21.3 26.1 21.4 25.8 21.8 25.4 22.3 25.1 22.7 25 22.8 25 22.7 25 22.6 24.9 22.2 24.9 22.1 24.9 21.6 24.9 21.5 25 21.2 25 21.1 25 21 24.9 20.9 24.9 20.9 24.8 20.9 24.4 20.9 24.3 20.9 23.9 20.9 23.8 20.9 23.5 20.9 23.4 20.9 23.3 20.9 23.3 20.9 23.3 21 23.2 21.5 23.2 21.6 23.2 22.7 23.2 22.8 23.2 23.3 23.2 23.4 23.2 23.9 23.2 24.4 23.2 24.6 23.2 25 23.2 25.2 23.2 25.8 23.2 26.2 23.2 26.4"/>
      <polygon class="cls-8" points="15.9 18.3 15.9 18.6 15.9 18.9 15.9 19.1 15.9 19.1 16 19.2 16.1 19.2 16.5 19.2 17.8 19.2 18 19.2 19.7 19.2 19.9 19.2 20.5 19.2 20.8 19.2 20.9 19.2 21 19.1 21.1 19.1 21.1 18.9 21.1 18.7 21.1 18.3 21.1 18.1 21.1 17.7 21.1 17.5 21.1 17.4 21.1 17.3 21 17.3 20.1 17.2 19.9 17.2 19.9 17.2 19.8 17.1 19.8 17 19.8 16.2 19.8 16 19.8 15.2 19.8 15 19.8 14.2 19.8 14 19.8 13.2 19.8 11.3 19.8 11.1 19.9 10.6 19.9 10.4 19.8 10.3 19.8 10.1 19.7 10 19.6 10 19.5 10 19.3 10.1 19.1 10.1 18.8 10.3 18.6 10.4 17.9 10.6 17.7 10.6 17 10.9 16.9 10.9 16.5 11.1 16.3 11.1 16.2 11.2 16.1 11.2 16 11.3 15.9 11.4 15.9 11.5 15.9 11.7 15.9 12.1 15.9 12.4 15.9 12.7 15.9 12.9 15.9 13 16 13.1 16 13.2 16.1 13.2 16.3 13.2 16.5 13.2 16.7 13.2 17.1 13 17.3 13 17.3 13.1 17.4 13.2 17.4 13.3 17.3 13.7 17.3 14.1 17.3 14.3 17.3 14.6 17.4 14.8 17.4 15 17.4 15.2 17.3 16 17.3 16.2 17.3 17.1 17.3 17.2 17.2 17.2 17 17.3 16.8 17.3 16.6 17.3 16 17.2 15.9 17.3 15.9 17.4 15.8 17.5 15.8 17.7 15.9 18.1 15.9 18.3"/>
    </g>
  </g>
</svg>
