<svg id="Layer_1" data-name="Layer 1" xmlns="http://www.w3.org/2000/svg" xmlns:xlink="http://www.w3.org/1999/xlink" width="70" height="70" viewBox="0 0 70 70">
  <defs>
    <style>
      .cls-1 {
        fill: #f6f6f6;
      }

      .cls-2 {
        font-size: 6px;
        font-family: MyriadPro-Regular, Myriad Pro;
      }

      .cls-3 {
        letter-spacing: -0.01em;
      }

      .cls-4 {
        letter-spacing: -0.01em;
      }

      .cls-5 {
        letter-spacing: 0.02em;
      }

      .cls-6 {
        letter-spacing: 0em;
      }

      .cls-7 {
        letter-spacing: 0em;
      }

      .cls-8 {
        letter-spacing: 0em;
      }

      .cls-9 {
        letter-spacing: 0em;
      }

      .cls-10 {
        letter-spacing: 0em;
      }

      .cls-11 {
        letter-spacing: -0.01em;
      }

      .cls-12 {
        fill: url(#linear-gradient);
      }

      .cls-13 {
        fill: url(#linear-gradient-2);
      }

      .cls-14 {
        fill: url(#linear-gradient-3);
      }

      .cls-15 {
        fill: url(#linear-gradient-4);
      }

      .cls-16 {
        fill: url(#linear-gradient-5);
      }
    </style>
    <linearGradient id="linear-gradient" x1="48.39" y1="76.55" x2="17.79" y2="0.04" gradientUnits="userSpaceOnUse">
      <stop offset="0" stop-color="#64dcc2"/>
      <stop offset="1" stop-color="#70bce6"/>
    </linearGradient>
    <linearGradient id="linear-gradient-2" x1="57.42" y1="72.94" x2="26.82" y2="-3.57" xlink:href="#linear-gradient"/>
    <linearGradient id="linear-gradient-3" x1="64.55" y1="70.08" x2="33.95" y2="-6.42" xlink:href="#linear-gradient"/>
    <linearGradient id="linear-gradient-4" x1="47.92" y1="76.74" x2="17.32" y2="0.23" xlink:href="#linear-gradient"/>
    <linearGradient id="linear-gradient-5" x1="55.05" y1="73.89" x2="24.44" y2="-2.62" xlink:href="#linear-gradient"/>
  </defs>
  <title>icon_carpentry_C0</title>
  <path id="Rectangle" class="cls-1" d="M3,0H67a2.9,2.9,0,0,1,3,3V67a2.9,2.9,0,0,1-3,3H3a2.9,2.9,0,0,1-3-3V3A2.9,2.9,0,0,1,3,0Z"/>
  <text class="cls-2" transform="translate(9.2 -12)">Sh<tspan class="cls-3" x="6.3" y="0">o</tspan><tspan class="cls-4" x="9.5" y="0">w</tspan><tspan x="13.9" y="0">er cu</tspan><tspan class="cls-5" x="26.1" y="0">r</tspan><tspan x="28.2" y="0">tain </tspan><tspan class="cls-6" x="39.1" y="0">r</tspan><tspan class="cls-7" x="41.1" y="0">ail</tspan><tspan x="-8.6" y="7.2">install</tspan><tspan class="cls-8" x="6.2" y="7.2">a</tspan><tspan class="cls-9" x="9.1" y="7.2">tion/</tspan><tspan class="cls-10" x="21.2" y="7.2">R</tspan><tspan class="cls-9" x="24.4" y="7.2">epla</tspan><tspan class="cls-11" x="35.1" y="7.2">c</tspan><tspan x="37.8" y="7.2">eme</tspan><tspan class="cls-8" x="48.8" y="7.2">n</tspan><tspan class="cls-9" x="52.1" y="7.2">t </tspan></text>
  <g>
    <path class="cls-12" d="M50.9,25.7a18.7,18.7,0,0,1,3.4.3H55a7.5,7.5,0,0,0,2.1.2,3.5,3.5,0,0,0-.5-6.9,5.3,5.3,0,0,0-1.9.6l-.5.2-2.1.9-1.2.4V6.1H10V63.9H50.9Zm1.7-3.4,2.2-.9.4-.2a3.3,3.3,0,0,1,1.4-.4,2.1,2.1,0,0,1,.3,4.1,4.4,4.4,0,0,1-1.6-.2h-.8a21.9,21.9,0,0,0-3.6-.3H49.3a22.7,22.7,0,0,0-5.2.9,21.5,21.5,0,0,0-2.7,1l-.7.3a3.4,3.4,0,0,1-1.4.5,2.1,2.1,0,0,1-2-1.5,2.1,2.1,0,0,1,1-2.3,1.4,1.4,0,0,1,.9-.3l1.3.2.6.2a18.7,18.7,0,0,0,5.3.5l1.4-.2a4,4,0,0,0,1.5-.3l1.6-.4ZM36,25.8a3.5,3.5,0,0,0,3.3,2.6,6.6,6.6,0,0,0,2-.6l.6-.3a11.4,11.4,0,0,1,2.6-.9l1-.3v20a.7.7,0,0,1-.7.7h-2a.7.7,0,0,0-.7.7,2.8,2.8,0,0,1-5.5,0,.7.7,0,0,0-.7-.7H33.8a.7.7,0,0,1-.7-.7V16a.7.7,0,0,1,.7-.7h2.1a.7.7,0,0,0,.7-.7,2.8,2.8,0,1,1,5.5,0,.7.7,0,0,0,.7.7h2a.7.7,0,0,1,.7.7v6.4a14.4,14.4,0,0,1-4.1-.5h-.5a4.3,4.3,0,0,0-3.3.2A3.3,3.3,0,0,0,36,25.8ZM49.3,62.3H11.7V7.7H49.3V21.9l-1.6.4h-.8V16a2.1,2.1,0,0,0-2.1-2.1H43.4a4.1,4.1,0,0,0-4.1-3.4,4,4,0,0,0-4,3.4H33.8a2,2,0,0,0-2,2.1V46.3a2.1,2.1,0,0,0,2,2.1h1.5a4,4,0,0,0,4,3.4,4.1,4.1,0,0,0,4.1-3.4h1.4a2.1,2.1,0,0,0,2.1-2.1V26a9.9,9.9,0,0,1,2.4-.3Z"/>
    <path class="cls-13" d="M34.7,16.9c-.1,0-.1.1-.1.2a.4.4,0,0,0-.1.3.8.8,0,0,0,.2.4.4.4,0,0,0,.5.2h.3l.2-.2h.2a.8.8,0,0,0-.2-.5A.7.7,0,0,0,34.7,16.9Z"/>
    <path class="cls-14" d="M43.5,18h.2l.3-.2h.2a.8.8,0,0,0-.2-.5.7.7,0,0,0-1,0c-.1,0-.1.1-.2.2v.3a.4.4,0,0,0,.2.4A.4.4,0,0,0,43.5,18Z"/>
    <path class="cls-15" d="M35.5,44.3a.8.8,0,0,0-.8.1.4.4,0,0,0-.1.3c-.1,0-.1.1-.1.2a.8.8,0,0,0,.2.5l.5.2h.3c0-.1.1-.1.2-.2h.1a.1.1,0,0,1,.1-.1v-.2c0-.2-.1-.3-.2-.5Z"/>
    <path class="cls-16" d="M43.5,45.6h.2l.3-.2h.1c.1-.1.1-.1.1-.2s-.1-.3-.2-.5h-.3a.6.6,0,0,0-.7.1l-.2.3v.2c0,.2,0,.4.2.5Z"/>
  </g>
</svg>
