<svg id="Layer_1" data-name="Layer 1" xmlns="http://www.w3.org/2000/svg" xmlns:xlink="http://www.w3.org/1999/xlink" width="70" height="70" viewBox="0 0 70 70">
  <defs>
    <style>
      .cls-1 {
        fill: #f6f6f6;
      }

      .cls-2 {
        fill: url(#linear-gradient);
      }

      .cls-3 {
        fill: url(#linear-gradient-2);
      }

      .cls-4 {
        fill: url(#linear-gradient-3);
      }

      .cls-5 {
        fill: url(#linear-gradient-4);
      }

      .cls-6 {
        fill: url(#linear-gradient-5);
      }
    </style>
    <linearGradient id="linear-gradient" x1="39.78" y1="76.1" x2="2.98" y2="4.06" gradientUnits="userSpaceOnUse">
      <stop offset="0" stop-color="#75c9b9"/>
      <stop offset="1" stop-color="#72bde5"/>
    </linearGradient>
    <linearGradient id="linear-gradient-2" x1="45.2" y1="73.33" x2="8.4" y2="1.29" xlink:href="#linear-gradient"/>
    <linearGradient id="linear-gradient-3" x1="50.46" y1="70.64" x2="13.66" y2="-1.4" xlink:href="#linear-gradient"/>
    <linearGradient id="linear-gradient-4" x1="48.18" y1="71.81" x2="11.38" y2="-0.24" xlink:href="#linear-gradient"/>
    <linearGradient id="linear-gradient-5" x1="53.75" y1="69.16" x2="17.45" y2="2.38" xlink:href="#linear-gradient"/>
  </defs>
  <title>icon_housekeeping_H0</title>
  <path id="Rectangle" class="cls-1" d="M3,0H67a2.9,2.9,0,0,1,3,3V67a2.9,2.9,0,0,1-3,3H3a2.9,2.9,0,0,1-3-3V3A2.9,2.9,0,0,1,3,0Z"/>
  <g>
    <path class="cls-2" d="M10.1,25.4H15l.2-.2h.1v-.2h0v-.4h-.1v-.2h-.2v-.2h0v-.2h0v-.2h0v-.2h0v-.2h-.1v-.2H15V20H10v1h0v.5h0v.5h0v1.6h0v.4h0v.6h0V25h.1Zm3.6-2.2h0v.2h0v.2h-2v-.2h0v-.2h0v-.2h2Zm-2-2V21h0Z"/>
    <polygon class="cls-3" points="18.1 20.3 18.1 20.1 18.1 19.8 18.1 19.6 18.1 19.6 18.1 19.5 18 19.4 17.9 19.4 17.8 19.4 17.7 19.4 17.3 19.4 17.2 19.4 16.8 19.4 16.7 19.4 16.6 19.4 16.5 19.4 16.4 19.5 16.4 19.6 16.4 19.8 16.4 20 16.4 20.2 16.4 20.6 16.4 20.8 16.4 21.2 16.4 21.3 16.4 21.9 16.4 22.4 16.4 22.5 16.4 22.9 16.4 23.1 16.4 23.5 16.4 23.6 16.4 24.1 16.4 24.8 16.4 25 16.4 25.2 16.4 25.2 16.4 25.3 16.4 25.4 16.5 25.4 16.6 25.4 16.7 25.4 16.8 25.4 17.2 25.4 17.3 25.4 17.7 25.4 17.8 25.5 17.9 25.4 18 25.4 18.1 25.4 18.1 25.2 18.1 25 18.1 24.7 18.1 24.6 18.1 24 18.1 23.9 18.1 23.3 18.1 23.2 18.2 23.2 18.2 23.1 18.3 23.1 18.8 23.1 19.5 23.2 19.6 23.2 19.9 23.1 20.1 23.1 20.2 23.2 20.3 23.2 20.3 23.3 20.3 23.9 20.3 24 20.3 24.6 20.3 24.7 20.3 25.2 20.3 25.4 20.4 25.4 20.5 25.4 20.6 25.4 21.1 25.4 21.2 25.4 21.6 25.4 21.8 25.4 21.9 25.4 21.9 25.4 22 25.2 22 25.1 22 25 22 24.8 21.9 24.7 21.9 24.1 22 23.6 22 23.5 21.9 23.1 21.9 22.9 22 22.5 22 22.4 22 21.9 22 21.8 22 21.3 22 21.2 22 20.8 22 20.6 22 20.2 22 20 22 19.7 22 19.6 22 19.5 21.9 19.4 21.8 19.4 21.7 19.4 21.6 19.4 21.2 19.4 21.1 19.4 20.6 19.4 20.5 19.4 20.4 19.4 20.3 19.5 20.3 19.6 20.3 20.1 20.3 20.3 20.3 20.8 20.3 21 20.3 21.5 20.3 21.6 20.2 21.7 20.1 21.7 20.1 21.7 20 21.7 19.5 21.7 18.9 21.7 18.8 21.7 18.5 21.7 18.4 21.7 18.3 21.7 18.2 21.7 18.1 21.7 18.1 21.6 18.1 21.5 18.1 20.8 18.1 20.3"/>
    <polygon class="cls-4" points="23.2 24.8 23.2 25.1 23.2 25.2 23.2 25.3 23.2 25.4 23.2 25.4 23.3 25.5 23.7 25.4 23.8 25.4 24.2 25.4 24.5 25.4 24.7 25.4 24.8 25.4 24.9 25.4 24.9 25.3 24.9 25.2 24.9 25 24.9 24.8 24.9 24.7 24.9 24.3 24.9 23.7 24.9 23.6 25 23.5 25 23.6 25.1 23.6 25.1 23.7 25.4 24.1 25.5 24.2 25.8 24.5 25.9 24.6 26.1 24.9 26.2 25 26.5 25.4 26.6 25.4 26.7 25.4 27.2 25.4 27.4 25.4 27.9 25.4 28 25.4 28.5 25.5 28.6 25.5 28.6 25.4 28.7 25.4 28.7 25.3 28.6 25.3 28.3 24.9 28.2 24.8 27.8 24.4 27.7 24.3 27.4 23.9 27.3 23.8 27 23.4 26.9 23.3 26.5 23 26.4 22.9 26.1 22.5 26.1 22.4 26.1 22.3 26.1 22.3 26.1 22.2 26.2 22.1 26.4 21.9 26.5 21.8 26.8 21.4 26.9 21.3 27.2 21 27.3 20.9 27.6 20.5 27.7 20.4 28 20 28.1 19.9 28.4 19.6 28.5 19.5 28.5 19.5 28.5 19.5 28.4 19.4 28.3 19.4 28 19.4 27.9 19.4 27.6 19.4 27.1 19.4 26.9 19.4 26.6 19.4 26.5 19.4 26.4 19.5 26.1 19.8 26 19.9 25.8 20.3 25.3 20.8 25.1 21.2 25 21.3 24.9 21.2 24.9 21.1 24.9 20.7 24.9 20.6 24.8 20.1 24.9 20 24.9 19.7 24.9 19.6 24.9 19.5 24.9 19.5 24.8 19.4 24.7 19.4 24.3 19.4 24.2 19.4 23.8 19.4 23.7 19.4 23.4 19.4 23.3 19.4 23.2 19.4 23.2 19.5 23.2 19.6 23.2 20 23.2 20.1 23.2 21.2 23.2 21.3 23.2 21.8 23.2 21.9 23.2 22.4 23.2 22.9 23.2 23.1 23.1 23.5 23.1 23.7 23.1 24.3 23.2 24.7 23.2 24.8"/>
    <polygon class="cls-5" points="14.3 15.4 14.4 15.6 14.5 15.8 14.6 16.1 14.7 16.2 14.8 16.4 14.9 16.6 15.1 16.8 15.5 17.1 15.7 17.2 15.9 17.3 16.1 17.4 16.3 17.5 16.5 17.6 16.8 17.6 17 17.7 17.2 17.7 17.4 17.7 17.8 17.8 18.5 17.8 18.7 17.8 19 17.8 19.2 17.7 19.4 17.7 19.6 17.7 19.9 17.6 20.1 17.5 20.4 17.4 20.5 17.4 20.8 17.3 20.9 17.2 21.3 17 21.4 16.8 21.5 16.7 21.7 16.6 21.7 16.5 21.9 16.3 22 16.1 22 16 22.1 15.8 22.2 15.5 22.2 15.3 22.2 15.1 22.2 14.9 22.2 14.7 22.2 14.5 22.2 14.3 22.1 14.1 22 13.8 21.8 13.7 21.7 13.5 21.6 13.4 21.4 13.3 21.2 13.1 21.1 13 21.1 12.9 21.2 12.8 21.4 12.6 21.6 12.4 21.7 12.2 21.9 11.9 21.9 11.7 22 11.6 22 11.4 22 11.3 22 11.1 22 10.9 22 10.7 21.9 10.5 21.8 10.3 21.8 10.1 21.7 9.9 21.6 9.7 21.5 9.7 21.4 9.5 21.2 9.4 21.1 9.2 20.9 9.1 20.7 9 20.5 8.9 20.3 8.8 20 8.7 19.9 8.6 19.7 8.6 19.5 8.5 19.2 8.5 18.6 8.4 18.3 8.4 18.1 8.4 17.9 8.4 17.6 8.4 17.2 8.5 17 8.5 16.8 8.5 16.6 8.6 16.4 8.7 16.2 8.8 16 8.9 15.8 9 15.6 9.1 15.4 9.2 15.2 9.4 15.1 9.5 14.9 9.7 14.8 9.9 14.7 10 14.7 10.3 14.5 10.6 14.5 10.8 14.4 11.1 14.4 11.2 14.5 11.3 14.6 11.4 14.7 11.4 15 11.4 15.2 11.4 15.5 11.4 15.7 11.4 16.3 11.4 16.6 11.4 16.8 11.4 16.9 11.3 16.9 11.2 17 11 17.1 10.9 17.2 10.8 17.3 10.7 17.5 10.7 17.6 10.6 17.8 10.6 18.1 10.6 18.3 10.6 18.6 10.6 18.7 10.6 18.9 10.6 19.1 10.7 19.3 10.9 19.4 11 19.5 11.2 19.5 11.3 19.5 11.4 19.4 11.6 19.3 11.7 19.2 11.8 19.1 11.9 18.9 12 18.8 12 18.6 12.1 18.3 12.1 18.1 12.1 18 12.1 17.8 12.1 17.4 12.1 17.2 12.1 16.8 12.1 16.7 12.1 16.7 12.2 16.6 12.4 16.6 12.6 16.6 12.9 16.6 13.1 16.6 13.3 16.6 13.4 16.7 13.6 16.7 13.8 16.8 13.9 16.9 13.9 17.2 13.9 17.5 13.9 17.9 13.9 18.2 13.9 18.4 13.9 18.6 13.9 18.8 14 19 14 19.1 14.1 19.3 14.2 19.4 14.4 19.5 14.5 19.6 14.6 19.6 14.7 19.6 14.9 19.6 15 19.5 15.2 19.4 15.3 19.3 15.4 19.2 15.5 19 15.6 18.9 15.6 18.7 15.7 18.4 15.7 18.2 15.7 18 15.7 17.8 15.7 17.6 15.6 17.5 15.5 17.3 15.5 17.2 15.4 17.1 15.3 17 15.2 16.9 15 16.9 14.9 16.8 14.7 16.7 14.6 16.5 14.6 16.2 14.6 15.6 14.6 15.4 14.6 15 14.6 14.6 14.6 14.4 14.7 14.3 14.8 14.2 14.9 14.3 15.2 14.3 15.4"/>
    <path class="cls-6" d="M60,59.3,58.7,47.5v-.6h0V44.8a4.2,4.2,0,0,0-4.2-4.3h-.9v-.7a2.3,2.3,0,0,0-2.1-2.4v-26a2.9,2.9,0,0,0-2.8-2.8,2.8,2.8,0,0,0-2.7,2.8v26l-1,.3.3-3.1h0a2.1,2.1,0,0,0-.4-1.1,1.8,1.8,0,0,0-1.3-.6h-.1a4.1,4.1,0,0,0-1.3-1.9,4,4,0,0,0-3.5-.7A4.1,4.1,0,0,0,35,27.9a4,4,0,0,0-1.5.3A4.2,4.2,0,0,0,30.7,27a4.4,4.4,0,0,0-2.8,1.2,4,4,0,0,0-1.5-.3,3.7,3.7,0,0,0-3.5,2.2,4.2,4.2,0,0,0-3.5,1.4H17.8a2.6,2.6,0,0,0-2.5,2.6V46.7a2.5,2.5,0,0,0,2.5,2.5h.5l.9,10a2.5,2.5,0,0,0,2.5,2.4H57.9a2,2,0,0,0,1.6-.7A1.8,1.8,0,0,0,60,59.3Zm-5.2-9.1a1,1,0,0,0-1,1V60h-.5V53.3a1.1,1.1,0,0,0-1-1,1.1,1.1,0,0,0-1.1,1V60h-.5V55.5a1,1,0,0,0-2,0V60H45.2V53.3a1.1,1.1,0,0,0-1.1-1,1.1,1.1,0,0,0-1,1V60h-.5V51.2a1,1,0,0,0-1-1,1,1,0,0,0-1.1,1V60H39.4c-.2,0-.3,0-.4-.2a.4.4,0,0,1-.1-.3l1.3-11.7H57.1l1.3,11.8c0,.2-.1.3-.1.4H55.9V51.2A1,1,0,0,0,54.8,50.2Zm-37-2.6a.9.9,0,0,1-.9-.9V34.1a4.3,4.3,0,0,1,.1-.5h.1a.7.7,0,0,1,.7-.4h7.7a.9.9,0,0,1,.7.3.8.8,0,0,1,.2.6v.2h0V46.7a.9.9,0,0,1-.9.9H17.8ZM30.7,28.7a2.1,2.1,0,0,1,1.9,1,.9.9,0,0,0,1.1.2,2,2,0,0,1,1.3-.4,2.4,2.4,0,0,1,2.3,1.9c.1.2.3.5.5.5a.5.5,0,0,0,.7,0l1.1-.2a2.3,2.3,0,0,1,2,1.1h-4v6.6a.8.8,0,0,1-.7.7.7.7,0,0,1-.7-.7V32.8H34.6v1.5h0v1.2a.8.8,0,0,1-.7.7.7.7,0,0,1-.7-.7V32.8H27.7a2.5,2.5,0,0,0-2.2-1.3H23.9c.1,0,.2-.2.2-.3a2.5,2.5,0,0,1,2.3-1.7,2.8,2.8,0,0,1,1.3.4.8.8,0,0,0,1-.2A2.3,2.3,0,0,1,30.7,28.7ZM48.6,10.3a1.1,1.1,0,0,1,1.2,1.1v26H47.5v-26A1.1,1.1,0,0,1,48.6,10.3ZM49.8,39h1.4a.8.8,0,0,1,.7.8v2.3H45.4V39.8a.8.8,0,0,1,.7-.8h3.7ZM28,35.6V34.4h3.6v1.4a1.9,1.9,0,0,0,.3,1,2.4,2.4,0,0,0,2.7,1V38H30.8l-.4-1.4a.9.9,0,0,0-1-.6.8.8,0,0,0-.5,1l.3,1H28Zm13.9,2V38H39.2V34.5h3l-.3,3.1Zm-7.3,2a2.2,2.2,0,0,0,2.3,2.1,2.3,2.3,0,0,0,2.3-2.1h2.5v1.1a4.3,4.3,0,0,0-3,3.6v1.8a8,8,0,0,1-7.2-5.8l-.2-.7ZM57,46.1H40.2V44.8c0-.2,0-.3.1-.4A2.5,2.5,0,0,1,42,42.3h1.8v.7a.8.8,0,0,0,.8.9h8.1a.9.9,0,0,0,.8-.9v-.7h.9A2.5,2.5,0,0,1,57,44.8ZM25.5,49.2A2.5,2.5,0,0,0,28,46.7V39.6h1.6l.3,1.1a9.5,9.5,0,0,0,8.6,6.9L37.3,59.3V60H21.7a1.1,1.1,0,0,1-.9-.9L20,49.2Zm18.3-9.4v.7h-.5v-.9h.4Z"/>
  </g>
</svg>
