<svg id="Layer_1" data-name="Layer 1" xmlns="http://www.w3.org/2000/svg" xmlns:xlink="http://www.w3.org/1999/xlink" width="374.5" height="89.4" viewBox="0 0 374.5 89.4">
  <defs>
    <style>
      .cls-1 {
        fill: url(#linear-gradient);
      }

      .cls-2, .cls-4, .cls-5 {
        fill: #fff;
      }

      .cls-2 {
        opacity: 0.3;
      }

      .cls-2, .cls-3, .cls-4 {
        isolation: isolate;
      }

      .cls-4 {
        font-size: 16px;
        font-family: Montserrat-Medium, Montserrat;
      }
    </style>
    <linearGradient id="linear-gradient" x1="405.55" y1="126.36" x2="21.53" y2="-32.27" gradientUnits="userSpaceOnUse">
      <stop offset="0" stop-color="#75c9b9"/>
      <stop offset="1" stop-color="#72bde5"/>
    </linearGradient>
  </defs>
  <title>banner_PC001</title>
  <g id="Page-1">
    <g id="UI---Screen-7---v2">
      <g id="Group-2">
        <path id="Path-4" class="cls-1" d="M0,72.4C71,74,112,68.2,210.5,71c58.9,1.7,113.3,7.8,164,18.4V0H0Z"/>
        <rect id="Rectangle-Copy-2" class="cls-2" x="23.5" y="22" width="47" height="7" rx="3.3" ry="3.3"/>
        <path id="Rectangle-Copy-4" class="cls-2" d="M189.8,29h40.5a3.2,3.2,0,0,1,3.2,3.2v.5a3.2,3.2,0,0,1-3.2,3.2H189.8a3.3,3.3,0,0,1-3.2-3.2v-.5a3.3,3.3,0,0,1,3.3-3.2Z"/>
        <rect id="Rectangle-Copy-3" class="cls-2" x="64.5" y="35" width="47" height="7" rx="3.3" ry="3.3"/>
        <path id="Rectangle-Copy-5" class="cls-2" d="M236.8,42h40.5a3.2,3.2,0,0,1,3.2,3.2v.5a3.2,3.2,0,0,1-3.2,3.2H236.8a3.3,3.3,0,0,1-3.2-3.2v-.5a3.3,3.3,0,0,1,3.3-3.2Z"/>
        <g id="sweep">
          <g id="_" data-name="+" class="cls-3">
            <text class="cls-4" transform="translate(358 26)">+</text>
          </g>
          <g id="_-copy" data-name="+-copy" class="cls-3">
            <text class="cls-4" transform="translate(336.5 14)">+</text>
          </g>
        </g>
      </g>
    </g>
  </g>
  <g>
    <g>
      <path class="cls-5" d="M353,29l-3-1a.6.6,0,0,0-.6.1.6.6,0,0,0-.3.6h-3.8a.7.7,0,1,0,0,1.4h3.8v.8h-5.9V28.3a.7.7,0,0,0-.7-.7H341V26.4a.8.8,0,0,0-.7-.7h-3.5v-.8h.7a.6.6,0,0,0,.6-.5l.5-1.9h.6a1.5,1.5,0,0,0,0-3H333a1.5,1.5,0,0,0,0,3h.6l.5,1.9a.6.6,0,0,0,.6.5h.7v.8h-8.3a.8.8,0,0,0-.7.5l-3.3,9.9c-.1.1,0,.3,0,.5s.3.3.4.4h1.2a2,2,0,0,0,1.1-.3,2.5,2.5,0,0,0,1.3-1.4l2-6.2h2.1v5.3a.7.7,0,0,0,.7.7h.4v3.5h-2.5a3.8,3.8,0,0,0-3.8,3.3l-3.1,20.8a4,4,0,0,0,4,4.7h18.4a4.1,4.1,0,0,0,3.1-1.4,4.3,4.3,0,0,0,.9-3.3l-3.1-20.8a3.8,3.8,0,0,0-3.8-3.3h-2.5V35.3h.4a.7.7,0,0,0,.7-.7V33.4h1.5a.7.7,0,0,0,.7-.7v-.4h5.9a.9.9,0,0,0,.3.6h.6l3-1a.8.8,0,0,0,.5-.7V29.6A.6.6,0,0,0,353,29Zm-18.2-7.4a.8.8,0,0,0-.7-.5h-1.2a.1.1,0,0,1,.1-.1h6.2c.1,0,.1,0,.1.1a.1.1,0,0,1-.1.1h-1.1a.8.8,0,0,0-.7.5l-.5,1.9h-1.6Zm-6.2,6.3a.6.6,0,0,0-.6.5L325.7,35c0,.3-.2.5-.5.7h-.5l2.9-8.6h3.6v.7Zm10.6,12.3h3.2a2.4,2.4,0,0,1,2.4,2.1l3.1,20.8a2.9,2.9,0,0,1-.6,2.2,2.7,2.7,0,0,1-2,.9H326.9a2.7,2.7,0,0,1-2-.9,2.9,2.9,0,0,1-.6-2.2l3.1-20.8a2.4,2.4,0,0,1,2.4-2.1h6.5a.7.7,0,0,0,0-1.4h-2.6V35.3h4.8v4.2A.7.7,0,0,0,339.2,40.2Zm2.6-8.2h-1.5a.7.7,0,0,0-.7.7v1.2h-7V27.2h7v1.1a.7.7,0,0,0,.7.7h1.5v3ZM352,30.9l-1.5.5V29.6l1.5.5Z"/>
      <path class="cls-5" d="M328.5,49.7h-.1a9.3,9.3,0,0,0-1.2,4.4,8.8,8.8,0,0,0,8.9,8.8,8.7,8.7,0,0,0,7.6-4.3.1.1,0,0,0,.1-.1h0a9.3,9.3,0,0,0,1.2-4.4,8.9,8.9,0,0,0-16.5-4.5Zm7.6,11.9a7.4,7.4,0,0,1-7.4-7.4,7.8,7.8,0,0,1,.6-3.1l4.1,2.4h-1.2a.7.7,0,1,0,0,1.4h1.2v.6h0a2,2,0,0,0-1.9,1.9v1a.8.8,0,0,0,.7.7.8.8,0,0,0,.8-.7v-1c0-.3.1-.5.4-.5h.2a1.5,1.5,0,0,0,.6.9,2.7,2.7,0,0,0,1.9.8,2.4,2.4,0,0,0,1.2-.3.6.6,0,0,0,.3-.9.6.6,0,0,0-.9-.3h-.6a1.1,1.1,0,0,1-.9-.4,1.3,1.3,0,0,1-.4-.9V54.3l7.4,4.2A7.5,7.5,0,0,1,336.1,61.6Zm7.4-7.4a8.1,8.1,0,0,1-.6,3.1l-8.1-4.7v-.2a1.2,1.2,0,0,1,1.3-1.2,1.4,1.4,0,0,1,.9.3,2,2,0,0,1,.4.8.7.7,0,0,0,.7.6h.7a2,2,0,0,0,1.9-1.9V50a.8.8,0,0,0-.7-.7.8.8,0,0,0-.8.7v1c0,.3-.1.4-.4.4h-.2a2.4,2.4,0,0,0-.6-.9,2.6,2.6,0,0,0-1.9-.7,2.8,2.8,0,0,0-2.5,1.6h-.2c-.3,0-.4-.1-.4-.4V50a.8.8,0,0,0-.8-.7.8.8,0,0,0-.7.7v.7l-1.5-.8a7.6,7.6,0,0,1,6.1-3.2A7.5,7.5,0,0,1,343.5,54.2Z"/>
      <path class="cls-5" d="M340.1,53.5h-.5a.7.7,0,0,0,0,1.4h.5a.7.7,0,0,0,0-1.4Z"/>
      <path class="cls-5" d="M340,57.4a.8.8,0,0,0-.8.7v.3a.8.8,0,0,0,.8.7.8.8,0,0,0,.7-.7v-.3A.8.8,0,0,0,340,57.4Z"/>
    </g>
    <g>
      <path class="cls-5" d="M303.5,33.9h5v-.2h.2v-.2h.1v-.4h0v-.2h-.2l-.2-.2h0v-.2h.1v-.2h.1v-.4h0v-.2h-.2l-.2-.2h-4.8v1h0v.5h0v.5h0v1.6h0v.4h0v.6Zm3.6-1.6v.2h0v.2h-2.1v-.4h1.9Zm-2-2v-.2h-.1Z"/>
      <polygon class="cls-5" points="311.6 29.4 311.6 29.3 311.6 28.9 311.6 28.7 311.6 28.7 311.6 28.6 311.5 28.5 311.4 28.5 311.3 28.5 311.1 28.5 310.8 28.5 310.7 28.5 310.3 28.5 310.2 28.5 310.1 28.5 309.9 28.5 309.9 28.6 309.8 28.7 309.8 28.9 309.9 29.1 309.9 29.3 309.9 29.7 309.9 29.9 309.9 30.3 309.9 30.4 309.9 31 309.9 31.5 309.9 31.6 309.9 32 309.9 32.2 309.9 32.6 309.9 32.7 309.9 33.2 309.9 33.9 309.8 34.1 309.8 34.3 309.9 34.3 309.9 34.4 309.9 34.5 310 34.5 310.1 34.5 310.1 34.5 310.3 34.5 310.7 34.5 310.8 34.5 311.1 34.6 311.3 34.6 311.4 34.6 311.5 34.5 311.6 34.5 311.6 34.3 311.6 34.2 311.6 33.8 311.6 33.7 311.6 33.1 311.6 33 311.6 32.5 311.6 32.3 311.6 32.3 311.7 32.2 311.8 32.2 312.3 32.3 312.9 32.3 313.1 32.3 313.4 32.2 313.6 32.2 313.7 32.3 313.7 32.3 313.7 32.5 313.7 33 313.7 33.1 313.7 33.7 313.7 33.8 313.8 34.3 313.8 34.5 313.8 34.5 314 34.5 314.1 34.5 314.5 34.5 314.7 34.5 315.1 34.5 315.2 34.5 315.3 34.5 315.4 34.5 315.4 34.3 315.4 34.2 315.4 34.1 315.4 33.9 315.4 33.8 315.4 33.2 315.4 32.7 315.4 32.6 315.4 32.2 315.4 32 315.4 31.6 315.4 31.5 315.5 31 315.5 30.9 315.4 30.4 315.4 30.3 315.4 29.9 315.4 29.7 315.4 29.3 315.4 29.1 315.5 28.8 315.5 28.7 315.4 28.6 315.4 28.5 315.2 28.5 315.2 28.5 315 28.5 314.7 28.5 314.5 28.5 314.1 28.5 313.9 28.5 313.8 28.5 313.8 28.6 313.8 28.7 313.8 29.3 313.8 29.4 313.8 29.9 313.8 30.1 313.7 30.6 313.7 30.7 313.7 30.8 313.6 30.8 313.5 30.8 313.4 30.8 312.9 30.8 312.4 30.8 312.3 30.8 312 30.8 311.8 30.8 311.7 30.8 311.6 30.8 311.6 30.8 311.6 30.7 311.6 30.6 311.6 29.9 311.6 29.4"/>
      <polygon class="cls-5" points="316.6 34 316.6 34.2 316.6 34.3 316.6 34.4 316.6 34.5 316.7 34.5 316.7 34.6 317.2 34.5 317.3 34.5 317.7 34.6 317.9 34.6 318.2 34.5 318.3 34.5 318.3 34.5 318.3 34.4 318.4 34.3 318.4 34.2 318.3 34 318.3 33.8 318.4 33.4 318.4 32.8 318.4 32.7 318.4 32.7 318.5 32.7 318.5 32.8 318.6 32.8 318.9 33.2 319 33.3 319.3 33.6 319.4 33.7 319.6 34.1 319.7 34.2 320 34.5 320.1 34.5 320.2 34.5 320.7 34.5 320.8 34.5 321.4 34.5 321.5 34.5 321.9 34.6 322 34.6 322.1 34.5 322.1 34.5 322.2 34.4 322.1 34.4 321.7 34 321.7 33.9 321.3 33.5 321.2 33.4 320.9 33 320.8 32.9 320.5 32.5 320.4 32.4 320 32.1 319.9 32 319.6 31.6 319.6 31.5 319.5 31.4 319.6 31.4 319.6 31.3 319.7 31.2 319.9 31 320 30.9 320.3 30.6 320.4 30.5 320.7 30.1 320.8 30 321.1 29.6 321.2 29.5 321.5 29.1 321.6 29 321.9 28.7 322 28.6 322 28.6 322 28.6 321.9 28.5 321.8 28.5 321.5 28.5 321.4 28.5 321.1 28.5 320.5 28.5 320.4 28.5 320 28.5 319.9 28.5 319.9 28.6 319.6 28.9 319.5 29 319.2 29.4 318.8 29.9 318.5 30.3 318.4 30.4 318.4 30.3 318.4 30.3 318.3 29.8 318.3 29.7 318.3 29.2 318.3 29.1 318.4 28.8 318.4 28.7 318.4 28.6 318.3 28.6 318.3 28.5 318.2 28.5 317.8 28.5 317.7 28.5 317.3 28.5 317.2 28.5 316.9 28.5 316.8 28.5 316.7 28.5 316.7 28.6 316.7 28.7 316.6 29.1 316.6 29.3 316.6 30.3 316.6 30.4 316.6 30.9 316.6 31 316.6 31.5 316.6 32 316.6 32.2 316.6 32.6 316.6 32.8 316.6 33.4 316.6 33.8 316.6 34"/>
      <polygon class="cls-5" points="308 25.7 307.9 26.5 307.9 26.6 308 26.7 308.1 26.7 308.2 26.7 308.9 26.8 309.8 26.8 311.7 26.8 312.8 26.7 313.5 26.7 314.4 26.8 314.6 26.8 314.9 26.8 315 26.8 315.5 26.7 315.5 26.7 315.6 26.6 315.6 26.5 315.6 26.3 315.6 26.1 315.6 25.8 315.6 25.3 315.6 25.1 315.6 24.9 315.6 24.7 315.5 24.6 315.3 24.5 315.1 24.5 314.7 24.6 314.5 24.6 313 24.6 312.8 24.6 312.2 24.6 311.1 24.6 310.7 24.6 310.5 24.6 310.4 24.6 310.3 24.5 310.4 24.4 310.4 24.2 310.4 24.1 310.5 24 310.6 23.8 310.7 23.7 310.8 23.6 311 23.5 311.1 23.5 311.3 23.5 311.4 23.5 311.6 23.4 311.7 23.4 312 23.4 312.3 23.4 312.5 23.4 312.7 23.3 312.9 23.3 313.2 23.3 313.4 23.2 313.6 23.2 313.8 23.1 314 23.1 314.2 23 314.5 22.9 314.6 22.8 314.8 22.6 315 22.4 315.1 22.2 315.2 22.1 315.4 21.8 315.5 21.6 315.5 21.4 315.6 21.2 315.7 20.9 315.7 20.8 315.7 20.5 315.7 20.3 315.7 20 315.6 19.8 315.6 19.6 315.5 19.4 315.4 19.2 315.3 19.1 315.1 18.8 315 18.7 314.9 18.5 314.7 18.3 314.6 18.2 314.4 18.1 314.1 18 313.9 17.9 313.7 17.8 313.3 17.7 313.1 17.7 312.9 17.6 312.7 17.6 312.5 17.5 312.3 17.5 312 17.6 311.6 17.6 311.4 17.6 311.1 17.6 310.9 17.6 310.7 17.6 310.5 17.7 310.3 17.7 310.1 17.8 309.9 17.9 309.5 18.1 309.3 18.2 309.1 18.4 308.9 18.5 308.8 18.6 308.6 18.8 308.5 19 308.4 19.1 308.3 19.4 308.2 19.6 308.2 19.6 308.2 19.8 308.1 20 308.1 20.1 308.1 20.4 308.1 20.4 308.2 20.5 308.4 20.5 308.7 20.5 308.9 20.6 309.5 20.6 310 20.6 310.2 20.6 310.3 20.6 310.5 20.5 310.6 20.4 310.7 20.3 310.8 20.1 310.8 20 311 19.9 311 19.8 311.2 19.7 311.5 19.6 311.6 19.6 311.8 19.6 312 19.6 312.2 19.6 312.4 19.6 312.7 19.7 312.8 19.8 312.9 19.9 313 20 313.1 20.2 313.1 20.3 313.1 20.6 313 20.9 312.9 21 312.8 21.1 312.6 21.2 312.5 21.3 312.3 21.3 312 21.3 311.7 21.3 311.6 21.4 311 21.4 310.8 21.4 310.6 21.5 310.4 21.5 310 21.6 309.9 21.7 309.6 21.8 309.4 21.9 309.2 22.1 309 22.2 308.8 22.3 308.7 22.5 308.4 22.7 308.3 22.8 308.3 23.1 308.2 23.2 308.2 23.4 308.1 23.6 308.1 23.8 308 24.1 307.9 24.5 307.9 24.7 308 25.5 308 25.7"/>
    </g>
  </g>
</svg>
