<svg id="Layer_1" data-name="Layer 1" xmlns="http://www.w3.org/2000/svg" xmlns:xlink="http://www.w3.org/1999/xlink" width="70" height="70" viewBox="0 0 70 70">
  <defs>
    <style>
      .cls-1 {
        fill: #f6f6f6;
      }

      .cls-2 {
        fill: url(#linear-gradient);
      }

      .cls-3 {
        fill: url(#linear-gradient-2);
      }

      .cls-4 {
        fill: url(#linear-gradient-3);
      }

      .cls-5 {
        fill: url(#linear-gradient-4);
      }

      .cls-6 {
        fill: url(#linear-gradient-5);
      }

      .cls-7 {
        fill: url(#linear-gradient-6);
      }

      .cls-8 {
        fill: url(#linear-gradient-7);
      }

      .cls-9 {
        fill: url(#linear-gradient-8);
      }

      .cls-10 {
        fill: url(#linear-gradient-9);
      }

      .cls-11 {
        fill: url(#linear-gradient-10);
      }

      .cls-12 {
        fill: url(#linear-gradient-11);
      }

      .cls-13 {
        fill: url(#linear-gradient-12);
      }
    </style>
    <linearGradient id="linear-gradient" x1="48.81" y1="67.74" x2="19.88" y2="-0.83" gradientUnits="userSpaceOnUse">
      <stop offset="0" stop-color="#75c9b9"/>
      <stop offset="1" stop-color="#72bde5"/>
    </linearGradient>
    <linearGradient id="linear-gradient-2" x1="37.99" y1="72.3" x2="9.07" y2="3.73" xlink:href="#linear-gradient"/>
    <linearGradient id="linear-gradient-3" x1="47.94" y1="68.11" x2="19.01" y2="-0.47" xlink:href="#linear-gradient"/>
    <linearGradient id="linear-gradient-4" x1="62.69" y1="61.89" x2="33.76" y2="-6.69" xlink:href="#linear-gradient"/>
    <linearGradient id="linear-gradient-5" x1="51.84" y1="66.46" x2="22.92" y2="-2.11" xlink:href="#linear-gradient"/>
    <linearGradient id="linear-gradient-6" x1="59.35" y1="63.29" x2="30.42" y2="-5.28" xlink:href="#linear-gradient"/>
    <linearGradient id="linear-gradient-7" x1="53.39" y1="65.81" x2="24.46" y2="-2.76" xlink:href="#linear-gradient"/>
    <linearGradient id="linear-gradient-8" x1="41.85" y1="70.68" x2="12.92" y2="2.1" xlink:href="#linear-gradient"/>
    <linearGradient id="linear-gradient-9" x1="52.37" y1="66.24" x2="23.44" y2="-2.33" xlink:href="#linear-gradient"/>
    <linearGradient id="linear-gradient-10" x1="51.47" y1="66.62" x2="22.54" y2="-1.95" xlink:href="#linear-gradient"/>
    <linearGradient id="linear-gradient-11" x1="45.56" y1="69.11" x2="16.63" y2="0.54" xlink:href="#linear-gradient"/>
    <linearGradient id="linear-gradient-12" x1="36.73" y1="72.83" x2="7.81" y2="4.26" xlink:href="#linear-gradient"/>
  </defs>
  <title>icon_plumbing_P0</title>
  <path id="Rectangle" class="cls-1" d="M3,0H67a2.9,2.9,0,0,1,3,3V67a2.9,2.9,0,0,1-3,3H3a2.9,2.9,0,0,1-3-3V3A2.9,2.9,0,0,1,3,0Z"/>
  <g>
    <path class="cls-2" d="M35,10A25,25,0,1,0,60,35,25,25,0,0,0,35,10Zm14.1,7.5a2,2,0,1,1-2-2A2,2,0,0,1,49.1,17.5ZM38.7,14.6a2,2,0,1,1-2-2A2,2,0,0,1,38.7,14.6ZM54.9,45.9a2.6,2.6,0,0,1-1.5-.1,2.2,2.2,0,0,1-1-1.1,2,2,0,0,1,.1-1.5,1.8,1.8,0,0,1,1.1-1h.7a1.9,1.9,0,0,1,1.8,1.3A1.9,1.9,0,0,1,54.9,45.9Zm2.4-3.3a3.3,3.3,0,0,0-4.2-1.8,3.7,3.7,0,0,0-1.9,1.8,3.3,3.3,0,0,0-.1,2.6,3.5,3.5,0,0,0,1.7,1.9,4,4,0,0,0,1.5.3h.8A23.6,23.6,0,1,1,35,11.4h.4a3.7,3.7,0,0,0-2.1,3.2,3.4,3.4,0,0,0,6.8,0,3.2,3.2,0,0,0-1.6-2.9,23.4,23.4,0,0,1,7.7,2.6,3.4,3.4,0,0,0,.9,6.6,3.4,3.4,0,0,0,3.4-3.4v-.2a22.7,22.7,0,0,1,5,6.1,3.5,3.5,0,0,0-3.6,1.4,3.4,3.4,0,0,0,.9,4.7,3.3,3.3,0,0,0,1.9.6,3.5,3.5,0,0,0,2.8-1.4c0-.1.1-.2.1-.3a23.9,23.9,0,0,1,1,6.6A24.3,24.3,0,0,1,57.3,42.6Zm-1-14.8a1.9,1.9,0,1,1-1.6-3.1,2.1,2.1,0,0,1,1.1.4A1.9,1.9,0,0,1,56.3,27.8Z"/>
    <path class="cls-3" d="M21.4,24.3A8.8,8.8,0,1,0,30.2,33,8.7,8.7,0,0,0,21.4,24.3Zm0,16.1A7.4,7.4,0,1,1,28.8,33,7.4,7.4,0,0,1,21.4,40.4Z"/>
    <path class="cls-4" d="M26.5,20.7a3.4,3.4,0,0,0,3.4-3.4,3.4,3.4,0,1,0-6.8,0A3.4,3.4,0,0,0,26.5,20.7Zm0-5.3a1.9,1.9,0,0,1,2,1.9,2,2,0,0,1-2,2,1.9,1.9,0,0,1-1.9-2A1.8,1.8,0,0,1,26.5,15.4Z"/>
    <path class="cls-5" d="M52.9,31.5a3.1,3.1,0,0,0-2.5-.4,3.7,3.7,0,0,0-2.2,1.4,3.5,3.5,0,0,0,1,4.7,3.3,3.3,0,0,0,1.9.6h.7a3.2,3.2,0,0,0,2.1-1.5,3.1,3.1,0,0,0,.5-2.5A3.4,3.4,0,0,0,52.9,31.5Zm-.2,4a2,2,0,0,1-1.2.8A2.1,2.1,0,0,1,50,36a2,2,0,0,1-.6-2.7,2.2,2.2,0,0,1,1.3-.8h.4a2.3,2.3,0,0,1,1.1.3A2.2,2.2,0,0,1,53,34,2.1,2.1,0,0,1,52.7,35.5Z"/>
    <path class="cls-6" d="M46.4,47.5a3.4,3.4,0,0,0-4.3,4.6A3.7,3.7,0,0,0,44,53.9l1.2.2a3.5,3.5,0,0,0,1.4-.3,4.1,4.1,0,0,0,1.8-1.9,3.5,3.5,0,0,0-2-4.4Zm.6,3.9a1.8,1.8,0,0,1-1,1.1,2,2,0,0,1-1.5,0,1.8,1.8,0,0,1-1.1-1,2,2,0,0,1,0-1.5,1.6,1.6,0,0,1,1-1.1l.8-.2.7.2a1.6,1.6,0,0,1,1.1,1A1.9,1.9,0,0,1,47,51.4Z"/>
    <path class="cls-7" d="M42,29.5a3.3,3.3,0,0,0,1.9.6,3.4,3.4,0,1,0-2.8-5.3A3.4,3.4,0,0,0,42,29.5Zm.3-3.9a1.9,1.9,0,0,1,1.6-.9,2.1,2.1,0,0,1,1.1.4,1.9,1.9,0,1,1-2.7.5Z"/>
    <path class="cls-8" d="M44,44a3.3,3.3,0,0,0,2-4.3,3.4,3.4,0,0,0-4.3-2.1,3.1,3.1,0,0,0-1.9,1.8,3.3,3.3,0,0,0-.2,2.6,4.1,4.1,0,0,0,1.8,1.9,3.5,3.5,0,0,0,1.4.3Zm-2-1.4a1.8,1.8,0,0,1-1-1.1A2,2,0,0,1,42.2,39l.6-.2a2,2,0,0,1,.7,3.9A2.6,2.6,0,0,1,42,42.6Z"/>
    <path class="cls-9" d="M34.7,48.5a2.8,2.8,0,0,0-2.5.3,3.2,3.2,0,0,0-1.6,2A3.4,3.4,0,0,0,33,55h.9A3.4,3.4,0,0,0,36.8,50,3.6,3.6,0,0,0,34.7,48.5Zm1,3.7a1.9,1.9,0,0,1-2.4,1.4A1.9,1.9,0,0,1,32,51.2a1.8,1.8,0,0,1,.9-1.2,2.5,2.5,0,0,1,1.5-.2,2.7,2.7,0,0,1,1.2.9A2,2,0,0,1,35.7,52.2Z"/>
    <path class="cls-10" d="M32.4,26.3a3.3,3.3,0,0,0,1.9.6h.6a3.7,3.7,0,0,0,2.2-1.4h0a3.3,3.3,0,0,0-.9-4.7,3.4,3.4,0,0,0-4.7.8,3.4,3.4,0,0,0-.5,2.6A4,4,0,0,0,32.4,26.3Zm.3-3.9a1.9,1.9,0,0,1,1.6-.9,2,2,0,0,1,1.1.3,2,2,0,1,1-2.2,3.3,2.2,2.2,0,0,1-.8-1.3A1.7,1.7,0,0,1,32.7,22.4Z"/>
    <path class="cls-11" d="M40.4,34.3a3.3,3.3,0,0,0,0-2.6,3.3,3.3,0,0,0-4.3-1.9,2.9,2.9,0,0,0-1.9,1.8,3.3,3.3,0,0,0-.1,2.6,3.4,3.4,0,0,0,3.2,2.1,2.5,2.5,0,0,0,1.2-.2A3.3,3.3,0,0,0,40.4,34.3Zm-1.3-.5a2.7,2.7,0,0,1-1.1,1,2,2,0,0,1-2.6-1.1,1.9,1.9,0,0,1,.1-1.5,2,2,0,0,1,1.1-1.1h.7a1.3,1.3,0,0,1,.8.2,2.2,2.2,0,0,1,1,1.1A1.9,1.9,0,0,1,39.1,33.8Z"/>
    <path class="cls-12" d="M35.1,39.1A3.5,3.5,0,0,0,31,41.6a3.4,3.4,0,0,0,.4,2.6,3.2,3.2,0,0,0,2.1,1.5h.8a3.1,3.1,0,0,0,1.8-.5,3,3,0,0,0,1.5-2.1A3.5,3.5,0,0,0,35.1,39.1Zm1.1,3.8a1.8,1.8,0,0,1-.9,1.2,1.6,1.6,0,0,1-1.5.2h0a2,2,0,0,1-1.2-.8,2.6,2.6,0,0,1-.2-1.5,1.9,1.9,0,0,1,1.9-1.5h.5A2,2,0,0,1,36.2,42.9Z"/>
    <path class="cls-13" d="M24.2,46a3.4,3.4,0,0,0-.2,4.8A3.5,3.5,0,0,0,26.3,52h.2a3.5,3.5,0,0,0,2.3-.9,3.4,3.4,0,0,0,.2-4.8A3.4,3.4,0,0,0,24.2,46Zm3.6,4a1.6,1.6,0,0,1-1.4.5,2,2,0,0,1-1.4-.6,2,2,0,0,1,.2-2.8,2.1,2.1,0,0,1,1.3-.5,1.9,1.9,0,0,1,1.5.7,2.4,2.4,0,0,1,.5,1.4A2.1,2.1,0,0,1,27.8,50Z"/>
  </g>
</svg>
