<svg id="Layer_1" data-name="Layer 1" xmlns="http://www.w3.org/2000/svg" xmlns:xlink="http://www.w3.org/1999/xlink" width="374.5" height="89.4" viewBox="0 0 374.5 89.4">
  <defs>
    <style>
      .cls-1 {
        fill: url(#linear-gradient);
      }

      .cls-2, .cls-4, .cls-5 {
        fill: #fff;
      }

      .cls-2 {
        opacity: 0.3;
      }

      .cls-2, .cls-3, .cls-4 {
        isolation: isolate;
      }

      .cls-4 {
        font-size: 16px;
        font-family: Montserrat-Medium, Montserrat;
      }
    </style>
    <linearGradient id="linear-gradient" x1="405.55" y1="126.36" x2="21.53" y2="-32.27" gradientUnits="userSpaceOnUse">
      <stop offset="0" stop-color="#75c8b8"/>
      <stop offset="1" stop-color="#71bbe4"/>
    </linearGradient>
  </defs>
  <title>banner_pumbing_P0</title>
  <g id="Page-1">
    <g id="UI---Screen-7---v2">
      <g id="Group-2">
        <path id="Path-4" class="cls-1" d="M0,72.4C71,74,112,68.2,210.5,71c58.9,1.7,113.3,7.8,164,18.4V0H0Z"/>
        <rect id="Rectangle-Copy-2" class="cls-2" x="23.5" y="22" width="47" height="7" rx="3.3" ry="3.3"/>
        <rect id="Rectangle-Copy-4" class="cls-2" x="186.5" y="29" width="47" height="7" rx="3.3" ry="3.3"/>
        <path id="Rectangle-Copy-3" class="cls-2" d="M67.8,35h40.5a3.2,3.2,0,0,1,3.2,3.2v.5a3.3,3.3,0,0,1-3.2,3.3H67.8a3.2,3.2,0,0,1-3.2-3.2v-.5A3.2,3.2,0,0,1,67.8,35Z"/>
        <rect id="Rectangle-Copy-5" class="cls-2" x="233.5" y="42" width="47" height="7" rx="3.2" ry="3.2"/>
        <g id="sweep">
          <g id="_" data-name="+" class="cls-3">
            <text class="cls-4" transform="translate(302.5 26)">+</text>
          </g>
          <g id="_-copy" data-name="+-copy" class="cls-3">
            <text class="cls-4" transform="translate(330.8 16.5)">+</text>
          </g>
        </g>
      </g>
    </g>
  </g>
  <g>
    <path class="cls-5" d="M334.5,23.4H316.2v9.3H318V53.1h1.9V69.7h5.5V53.1h1.9V32.7h7.3a1.9,1.9,0,0,0,2-1.9V25.5Q336.5,23.4,334.5,23.4Zm-11,44.5h-1.8V53.1h1.8Zm11.2-37.1h-9.2V51.2h-5.6V30.9h-1.8V25.3h16.6Z"/>
    <path class="cls-5" d="M312.4,40.1h-1.8v-13h4.6V25.3h-6.4V41.9h5.5V30.8h.9V29h-2.8Z"/>
    <path class="cls-5" d="M356.1,17.9l-3.8,1.3a.9.9,0,0,0-.5,1c.1.5.5.7,1.1.8l3.8-1.5c.4-.1.5-.6.4-1S356.5,17.7,356.1,17.9Z"/>
    <path class="cls-5" d="M356.4,36.4l-3.2-1.1-.5-.2a1,1,0,0,0-.9.8.9.9,0,0,0,.6,1.1l3.4,1.2a1,1,0,1,0,.6-1.8Z"/>
    <path class="cls-5" d="M346.4,23.2l3.8-1.4a.7.7,0,0,0,.4-1c-.1-.3-.5-.6-.7-.8l-4.2,1.5a.8.8,0,0,0-.3,1.1A.8.8,0,0,0,346.4,23.2Z"/>
    <path class="cls-5" d="M350,34.2,346.7,33a1,1,0,0,0-1.3.5,1,1,0,0,0,.7,1.3l3.2,1.1h.4a1,1,0,0,0,1-.7A1,1,0,0,0,350,34.2Z"/>
    <path class="cls-5" d="M343.7,32l-3.6-1.3a.9.9,0,1,0-.6,1.8l3.5,1.2c.7.2,1.3-.2,1.3-1.1S344,32.1,343.7,32Z"/>
    <path class="cls-5" d="M339.7,25.6v-.2h.3l3.6-1.3a.9.9,0,0,0,.5-1.1.8.8,0,0,0-1-.6l-3.9,1.3a.8.8,0,0,0-.4,1.1C339.1,25.1,339.5,25.3,339.7,25.6Z"/>
    <path class="cls-5" d="M344.2,27.1h-3.7a1,1,0,0,0,.1,1.9h3.7c.5,0,.8-.4.8-1A.8.8,0,0,0,344.2,27.1Z"/>
    <path class="cls-5" d="M351,27.1h-3.6a.9.9,0,0,0-1,1,.9.9,0,0,0,1,.9H351a.9.9,0,0,0,1-1A.9.9,0,0,0,351,27.1Z"/>
    <path class="cls-5" d="M357.8,27.1h-3.6a.9.9,0,0,0-1,.9.9.9,0,0,0,1,1h3.6a.9.9,0,0,0,1-.9A.9.9,0,0,0,357.8,27.1Z"/>
  </g>
</svg>
