<svg id="Layer_1" data-name="Layer 1" xmlns="http://www.w3.org/2000/svg" xmlns:xlink="http://www.w3.org/1999/xlink" width="70" height="70" viewBox="0 0 70 70">
  <defs>
    <style>
      .cls-1 {
        fill: #f6f6f6;
      }

      .cls-2 {
        fill: url(#linear-gradient);
      }

      .cls-3 {
        fill: url(#linear-gradient-2);
      }

      .cls-4 {
        fill: url(#linear-gradient-3);
      }

      .cls-5 {
        fill: url(#linear-gradient-4);
      }

      .cls-6 {
        fill: url(#linear-gradient-5);
      }

      .cls-7 {
        fill: url(#linear-gradient-6);
      }
    </style>
    <linearGradient id="linear-gradient" x1="34.93" y1="79.19" x2="5.31" y2="5.73" gradientUnits="userSpaceOnUse">
      <stop offset="0" stop-color="#75c9b9"/>
      <stop offset="1" stop-color="#72bde5"/>
    </linearGradient>
    <linearGradient id="linear-gradient-2" x1="40.4" y1="76.99" x2="10.78" y2="3.52" xlink:href="#linear-gradient"/>
    <linearGradient id="linear-gradient-3" x1="45.76" y1="74.83" x2="16.14" y2="1.36" xlink:href="#linear-gradient"/>
    <linearGradient id="linear-gradient-4" x1="42.9" y1="75.98" x2="13.29" y2="2.51" xlink:href="#linear-gradient"/>
    <linearGradient id="linear-gradient-5" x1="49.27" y1="73.41" x2="19.65" y2="-0.06" xlink:href="#linear-gradient"/>
    <linearGradient id="linear-gradient-6" x1="53.75" y1="69.02" x2="17.45" y2="2.24" xlink:href="#linear-gradient"/>
  </defs>
  <title>icon_housekeeping_H0</title>
  <path id="Rectangle" class="cls-1" d="M3,0H67a2.9,2.9,0,0,1,3,3V67a2.9,2.9,0,0,1-3,3H3a2.9,2.9,0,0,1-3-3V3A2.9,2.9,0,0,1,3,0Z"/>
  <g>
    <path class="cls-2" d="M10,25.2h4.7V25H15v-.2h0v-.2h0v-.2h-.2v-.2h0v-.2h0V22h0v-.3h-.1v-.2H10v1h0v.4h0v.5h0v.4h0v1h0v.2h0v.5Zm3.5-1.5h0v.2h-2v-.2h0v-.2h1.9Zm-1.9-1.9v-.2h0Z"/>
    <polygon class="cls-3" points="21.2 23 21.2 22.9 21.3 22.5 21.3 22.4 21.2 21.9 21.2 21.8 21.2 21.4 21.2 21.3 21.2 20.9 21.2 20.7 21.3 20.4 21.3 20.3 21.2 20.2 21.2 20.1 21.1 20.1 21 20.1 20.9 20.1 20.5 20.1 20.4 20.1 20 20.1 19.8 20.1 19.7 20.1 19.7 20.2 19.7 20.3 19.7 20.8 19.7 21 19.7 21.5 19.7 21.6 19.6 22.1 19.6 22.2 19.6 22.3 19.5 22.3 19.5 22.3 19.3 22.3 18.9 22.3 18.4 22.3 18.3 22.3 18 22.3 17.9 22.3 17.7 22.3 17.7 22.3 17.6 22.3 17.6 22.2 17.6 22.1 17.6 21.5 17.6 21 17.6 20.8 17.6 20.5 17.6 20.4 17.6 20.3 17.6 20.2 17.5 20.1 17.4 20.1 17.3 20.1 17.2 20.1 16.9 20.1 16.8 20.1 16.4 20.1 16.3 20.1 16.2 20.1 16.1 20.2 16 20.2 16 20.3 16 20.5 16 20.7 16 20.9 16 21.3 16 21.4 16 21.8 16 21.9 16 22.5 16 22.9 16 23 16 23.4 16 23.6 16 24 16 24.1 16 24.5 16 25.2 16 25.4 16 25.6 16 25.6 16 25.7 16 25.7 16.1 25.8 16.2 25.8 16.3 25.8 16.4 25.8 16.8 25.8 16.9 25.8 17.2 25.8 17.3 25.8 17.4 25.8 17.5 25.8 17.6 25.7 17.6 25.6 17.6 25.4 17.6 25.1 17.6 25 17.6 24.5 17.6 24.3 17.6 23.8 17.6 23.7 17.7 23.7 17.7 23.6 17.8 23.6 18.3 23.7 18.9 23.7 19 23.7 19.3 23.6 19.5 23.6 19.6 23.7 19.6 23.7 19.6 23.8 19.6 24.3 19.6 24.5 19.6 25 19.6 25.1 19.7 25.6 19.7 25.7 19.7 25.8 19.8 25.8 20 25.8 20.4 25.8 20.5 25.8 20.9 25.8 21.1 25.8 21.1 25.8 21.2 25.7 21.2 25.6 21.2 25.5 21.2 25.4 21.2 25.2 21.2 25.1 21.2 24.5 21.2 24.1 21.2 24 21.2 23.6 21.2 23.4 21.2 23"/>
    <polygon class="cls-4" points="26 20.1 25.9 20.1 25.5 20.2 25.5 20.2 25.4 20.2 25.1 20.5 25 20.6 24.8 21 24.4 21.5 24.1 21.8 24 21.9 24 21.9 24 21.8 24 21.4 24 21.2 23.9 20.8 23.9 20.7 24 20.4 24 20.3 24 20.3 23.9 20.2 23.9 20.2 23.8 20.2 23.5 20.1 23.3 20.1 23 20.2 22.8 20.2 22.6 20.1 22.5 20.1 22.4 20.2 22.4 20.2 22.4 20.3 22.3 20.7 22.3 20.8 22.4 21.8 22.4 21.9 22.3 22.4 22.3 22.5 22.4 22.9 22.4 23.5 22.4 23.6 22.3 24 22.3 24.1 22.3 24.7 22.4 25.1 22.3 25.3 22.3 25.4 22.3 25.6 22.3 25.7 22.4 25.8 22.4 25.8 22.4 25.8 22.8 25.8 23 25.8 23.3 25.8 23.6 25.8 23.8 25.8 23.9 25.8 23.9 25.8 24 25.7 24 25.6 24 25.4 24 25.3 24 25.1 24 24.7 24 24.2 24 24.1 24 24 24.1 24.1 24.1 24.1 24.2 24.2 24.4 24.5 24.5 24.6 24.8 24.9 24.9 25 25.1 25.3 25.2 25.4 25.5 25.7 25.6 25.8 25.7 25.8 26.2 25.8 26.3 25.8 26.8 25.8 26.9 25.8 27.3 25.8 27.4 25.8 27.5 25.8 27.5 25.7 27.5 25.7 27.5 25.6 27.1 25.3 27.1 25.2 26.7 24.8 26.7 24.8 26.3 24.4 26.3 24.3 25.9 23.9 25.9 23.8 25.5 23.5 25.4 23.4 25.1 23 25.1 22.9 25.1 22.9 25.1 22.8 25.2 22.8 25.2 22.7 25.4 22.5 25.5 22.4 25.8 22.1 25.9 22 26.2 21.6 26.3 21.5 26.6 21.2 26.6 21.1 26.9 20.7 27 20.6 27.3 20.3 27.4 20.2 27.4 20.2 27.3 20.2 27.3 20.2 27.2 20.2 26.9 20.2 26.8 20.2 26.5 20.2 26 20.1"/>
    <polygon class="cls-5" points="19 16.1 18.9 16.2 18.7 16.4 18.6 16.5 18.4 16.6 18.2 16.6 17.9 16.7 17.8 16.7 17.5 16.6 17.3 16.6 17.2 16.5 17 16.4 16.9 16.3 16.8 16.1 16.7 15.9 16.6 15.8 16.5 15.7 16.4 15.7 16.1 15.7 15.6 15.7 15.4 15.7 14.8 15.7 14.6 15.7 14.4 15.7 14.3 15.8 14.3 16 14.3 16.2 14.4 16.4 14.4 16.6 14.5 16.8 14.6 17 14.7 17.2 14.8 17.4 14.9 17.5 15 17.7 15.2 17.8 15.4 18 15.5 18.1 15.8 18.2 15.9 18.3 16.1 18.4 16.3 18.4 16.6 18.5 16.8 18.5 17.1 18.5 17.3 18.6 17.5 18.6 17.8 18.6 18 18.6 18.2 18.6 18.4 18.6 18.6 18.6 18.8 18.6 19 18.5 19.2 18.4 19.4 18.3 19.6 18.3 19.8 18.2 20 18.1 20.2 18 20.5 17.7 20.7 17.6 20.9 17.3 21 17.1 21.1 16.9 21.3 16.7 21.3 16.5 21.3 16.3 21.4 16.1 21.4 15.9 21.4 15.7 21.4 15.5 21.3 15.3 21.3 15 21.2 14.8 21.1 14.6 21.1 14.4 21 14.2 20.9 14.1 20.7 13.9 20.4 13.6 20.2 13.5 20.1 13.4 19.9 13.3 19.6 13.2 19.5 13.1 19.1 13 18.8 13 18.6 13 18.2 13 17.9 12.9 17.7 12.9 17.1 13 16.9 12.9 16.8 12.9 16.7 12.7 16.7 12.6 16.7 12.2 16.7 12.1 16.8 12 17 11.9 17.2 11.9 17.4 11.9 17.9 11.9 18.7 11.9 19.7 12 19.9 12 20.4 11.9 20.6 11.9 20.6 11.9 20.8 11.9 20.9 11.8 20.9 11.6 20.9 11.4 21 11.2 21 10.9 21 10.5 21 10.3 21 10.3 20.9 10.1 20.9 10 20.8 10 20.7 10 20.3 10 19.9 10 18.9 10 18.2 10 17.2 9.9 16.5 9.9 16.3 10 15.6 10 15.4 10 15 10 14.7 10 14.6 10 14.5 10.1 14.4 10.3 14.4 10.4 14.4 10.5 14.5 10.9 14.5 11.2 14.4 11.9 14.4 12 14.5 12.8 14.5 12.9 14.5 13.7 14.5 13.8 14.5 14.6 14.5 14.7 14.6 14.8 14.7 14.8 16.1 14.8 16.3 14.8 17.1 14.9 17.4 14.8 17.7 14.8 17.9 14.8 18.2 14.9 18.4 14.9 18.6 15 18.7 15.1 18.9 15.2 19 15.4 19 15.5 19 15.7 19 15.9 19 16.1"/>
    <polygon class="cls-6" points="23.3 8.6 23.3 10.2 21.8 10.2 21.8 11.7 23.3 11.7 23.3 13.2 24.9 13.2 24.9 11.7 26.4 11.7 26.4 10.2 24.9 10.2 24.9 8.6 23.3 8.6"/>
    <path class="cls-7" d="M60,59.2,58.7,47.4v-.6h0V44.6a4.2,4.2,0,0,0-4.2-4.2h-.9v-.8a2.3,2.3,0,0,0-2.1-2.3V11.2a2.8,2.8,0,0,0-2.8-2.7,2.7,2.7,0,0,0-2.7,2.7V37.3a1.7,1.7,0,0,0-1,.3l.3-3.1h0a2.8,2.8,0,0,0-.4-1.2,2.1,2.1,0,0,0-1.3-.5h-.1A4.1,4.1,0,0,0,38.6,30,4.2,4.2,0,0,0,35,27.8a4,4,0,0,0-1.5.3,3.8,3.8,0,0,0-2.8-1.2,3.9,3.9,0,0,0-2.8,1.2,4,4,0,0,0-1.5-.3,3.8,3.8,0,0,0-3.5,2.1,4.2,4.2,0,0,0-3.5,1.5H17.8a2.5,2.5,0,0,0-2.5,2.5V46.6a2.5,2.5,0,0,0,2.5,2.5h.5l.9,10a2.5,2.5,0,0,0,2.5,2.4H57.9a2.4,2.4,0,0,0,1.6-.7A1.8,1.8,0,0,0,60,59.2ZM54.8,50a1.1,1.1,0,0,0-1,1.1v8.8h-.5V53.2a1,1,0,0,0-1-1,1,1,0,0,0-1.1,1v6.7h-.5V55.3a1,1,0,0,0-2,0v4.6H45.2V53.2a1,1,0,0,0-1.1-1,1,1,0,0,0-1,1v6.7h-.5V51.1a1.1,1.1,0,0,0-1-1.1,1.1,1.1,0,0,0-1.1,1.1v8.8H39.4l-.4-.2a.4.4,0,0,1-.1-.3l1.3-11.8H57.1l1.3,11.8a1,1,0,0,1-.1.3l-.4.2h-2V51.1A1.1,1.1,0,0,0,54.8,50Zm-37-2.5a.9.9,0,0,1-.9-.9V33.9a4.3,4.3,0,0,0,.1-.5h.1a.8.8,0,0,1,.7-.4h7.7a.9.9,0,0,1,.7.3,1.4,1.4,0,0,1,.2.6v.3h0V46.6a.9.9,0,0,1-.9.9H17.8Zm12.9-19a2.3,2.3,0,0,1,1.9,1,.7.7,0,0,0,1.1.2,2.8,2.8,0,0,1,1.3-.3,2.4,2.4,0,0,1,2.3,1.9l.5.5h.7a2,2,0,0,1,1.1-.3,2.3,2.3,0,0,1,2,1.2h-4v6.6a.8.8,0,0,1-.7.7.7.7,0,0,1-.7-.7V32.7H34.6v1.5h0v1.1a.8.8,0,0,1-.7.7.7.7,0,0,1-.7-.6V32.7H27.7a2.5,2.5,0,0,0-2.2-1.3H23.9l.2-.3a2.5,2.5,0,0,1,2.3-1.7,2.8,2.8,0,0,1,1.3.3.6.6,0,0,0,1-.2A2.6,2.6,0,0,1,30.7,28.5ZM48.6,10.1a1.1,1.1,0,0,1,1.2,1.1V37.3H47.5V11.2A1.1,1.1,0,0,1,48.6,10.1Zm1.2,28.8h1.4a.7.7,0,0,1,.7.7V42H45.4V39.6a.7.7,0,0,1,.7-.7h3.7ZM28,35.5V34.3h3.6v1.3a2,2,0,0,0,.3,1.1,2.5,2.5,0,0,0,2.7.9v.2H30.8l-.4-1.4a.8.8,0,0,0-1-.5.7.7,0,0,0-.5.9l.3,1H28Zm13.9,1.9v.4H39.2V34.3h3l-.3,3Zm-7.3,2a2.2,2.2,0,0,0,2.3,2.2,2.4,2.4,0,0,0,2.3-2.2h2.5v1.2a4.3,4.3,0,0,0-3,3.6V46a8.1,8.1,0,0,1-7.2-5.8l-.2-.8ZM57,46H40.2V44.6a.4.4,0,0,1,.1-.3A2.8,2.8,0,0,1,42,42.1h1.8v.8a.7.7,0,0,0,.8.8h8.1a.8.8,0,0,0,.8-.8V42h.9A2.6,2.6,0,0,1,57,44.6ZM25.5,49.1A2.5,2.5,0,0,0,28,46.6V39.4h1.6l.3,1.2a9.5,9.5,0,0,0,8.6,6.9L37.3,59.2v.7H21.7a1.1,1.1,0,0,1-.9-.9L20,49.1Zm18.3-9.5v.8h-.5v-1h.4Z"/>
  </g>
</svg>
