<svg id="Layer_1" data-name="Layer 1" xmlns="http://www.w3.org/2000/svg" xmlns:xlink="http://www.w3.org/1999/xlink" width="374.5" height="89.4" viewBox="0 0 374.5 89.4">
  <defs>
    <style>
      .cls-1 {
        fill: url(#linear-gradient);
      }

      .cls-2, .cls-4, .cls-5 {
        fill: #fff;
      }

      .cls-2 {
        opacity: 0.3;
      }

      .cls-2, .cls-3, .cls-4 {
        isolation: isolate;
      }

      .cls-4 {
        font-size: 16px;
        font-family: Montserrat-Medium, Montserrat;
      }
    </style>
    <linearGradient id="linear-gradient" x1="405.55" y1="126.36" x2="21.53" y2="-32.27" gradientUnits="userSpaceOnUse">
      <stop offset="0" stop-color="#75c8b8"/>
      <stop offset="1" stop-color="#71bbe4"/>
    </linearGradient>
  </defs>
  <title>banner_pumbing_P0</title>
  <g id="Page-1">
    <g id="UI---Screen-7---v2">
      <g id="Group-2">
        <path id="Path-4" class="cls-1" d="M0,72.4C71,74,112,68.2,210.5,71c58.9,1.7,113.3,7.8,164,18.4V0H0Z"/>
        <rect id="Rectangle-Copy-2" class="cls-2" x="23.5" y="22" width="47" height="7" rx="3.3" ry="3.3"/>
        <rect id="Rectangle-Copy-4" class="cls-2" x="186.5" y="29" width="47" height="7" rx="3.3" ry="3.3"/>
        <rect id="Rectangle-Copy-3" class="cls-2" x="64.5" y="35" width="47" height="7" rx="3.3" ry="3.3"/>
        <rect id="Rectangle-Copy-5" class="cls-2" x="233.5" y="42" width="47" height="7" rx="3.3" ry="3.3"/>
        <g id="sweep">
          <g id="_" data-name="+" class="cls-3">
            <text class="cls-4" transform="translate(359 34.3)">+</text>
          </g>
          <g id="_-copy" data-name="+-copy" class="cls-3">
            <text class="cls-4" transform="translate(336.5 14)">+</text>
          </g>
        </g>
      </g>
    </g>
  </g>
  <path class="cls-5" d="M356.5,16.2H312.6a3,3,0,1,0,0,5.9h.3V37.7a5,5,0,0,0,5.1,4.9h2.2v3H318a3,3,0,0,0-.4,5.9,16.6,16.6,0,0,0,10.7,13.6l2.4.7a17.1,17.1,0,0,0,7.8,0l2.3-.7a16.4,16.4,0,0,0,10.7-13.6,3.1,3.1,0,0,0,2.8-3.1,3.1,3.1,0,0,0-3.1-2.8h-2.3v-3h2.3a5,5,0,0,0,5.1-4.9V22.1h.2a3,3,0,1,0,0-5.9Zm-21.9,48c-7.6,0-14-5.5-14.8-12.7h29.6A14.7,14.7,0,0,1,334.6,64.2Zm16.6-16.5a.9.9,0,0,1,0,1.8H318a.9.9,0,1,1,0-1.8ZM334.6,26.6c-6.1,0-11.2,4.8-11.2,10.7v8.3h-1V37.3c0-6.4,5.5-11.7,12.2-11.7s12.2,5.3,12.2,11.7v8.3h-1V37.3C345.8,31.4,340.7,26.6,334.6,26.6Zm9,10.7v8.3H325.5V37.3a9.1,9.1,0,0,1,18.1,0Zm10.5.4a2.9,2.9,0,0,1-2.9,2.8h-2.3V37.3c0-7.6-6.4-13.7-14.3-13.7s-14.4,6.1-14.4,13.7v3.2H318a2.9,2.9,0,0,1-3-2.8V22.1h39.1Zm2.4-17.6H312.6a.9.9,0,1,1,0-1.8h43.9a.9.9,0,1,1,0,1.8Z"/>
</svg>
