<svg id="Layer_1" data-name="Layer 1" xmlns="http://www.w3.org/2000/svg" xmlns:xlink="http://www.w3.org/1999/xlink" width="70" height="70" viewBox="0 0 70 70">
  <defs>
    <style>
      .cls-1 {
        fill: #f6f6f6;
      }

      .cls-2 {
        fill: url(#linear-gradient);
      }

      .cls-3 {
        fill: url(#linear-gradient-2);
      }

      .cls-4 {
        fill: url(#linear-gradient-3);
      }

      .cls-5 {
        fill: url(#linear-gradient-4);
      }

      .cls-6 {
        fill: url(#linear-gradient-5);
      }

      .cls-7 {
        fill: url(#linear-gradient-6);
      }

      .cls-8 {
        fill: url(#linear-gradient-7);
      }

      .cls-9 {
        fill: url(#linear-gradient-8);
      }
    </style>
    <linearGradient id="linear-gradient" x1="61.01" y1="72.45" x2="19.71" y2="-11.14" gradientUnits="userSpaceOnUse">
      <stop offset="0" stop-color="#75c9b9"/>
      <stop offset="1" stop-color="#72bde5"/>
    </linearGradient>
    <linearGradient id="linear-gradient-2" x1="56.52" y1="74.67" x2="15.22" y2="-8.92" xlink:href="#linear-gradient"/>
    <linearGradient id="linear-gradient-3" x1="59.49" y1="73.21" x2="18.19" y2="-10.39" xlink:href="#linear-gradient"/>
    <linearGradient id="linear-gradient-4" x1="58" y1="73.94" x2="16.7" y2="-9.65" xlink:href="#linear-gradient"/>
    <linearGradient id="linear-gradient-5" x1="41.38" y1="82.15" x2="0.08" y2="-1.45" xlink:href="#linear-gradient"/>
    <linearGradient id="linear-gradient-6" x1="46.8" y1="79.48" x2="5.5" y2="-4.12" xlink:href="#linear-gradient"/>
    <linearGradient id="linear-gradient-7" x1="52.06" y1="76.88" x2="10.76" y2="-6.72" xlink:href="#linear-gradient"/>
    <linearGradient id="linear-gradient-8" x1="50.05" y1="77.87" x2="8.75" y2="-5.73" xlink:href="#linear-gradient"/>
  </defs>
  <title>icon_PC0</title>
  <path id="Rectangle" class="cls-1" d="M3,0H67a2.9,2.9,0,0,1,3,3V67a2.9,2.9,0,0,1-3,3H3a2.9,2.9,0,0,1-3-3V3A2.9,2.9,0,0,1,3,0Z"/>
  <g>
    <g>
      <path class="cls-2" d="M59.5,21.4l-3-.9a.5.5,0,0,0-.6.1.5.5,0,0,0-.3.5H51.8a.7.7,0,0,0,0,1.4h3.8v.8H49.7V20.8a.7.7,0,0,0-.7-.7H47.5V18.9a.7.7,0,0,0-.7-.7H43.4v-.8H44a.8.8,0,0,0,.7-.5l.5-1.9h.5a1.5,1.5,0,0,0,1.5-1.5A1.4,1.4,0,0,0,45.7,12H39.6a1.4,1.4,0,0,0-1.5,1.5A1.5,1.5,0,0,0,39.6,15h.5l.5,1.9a.8.8,0,0,0,.7.5h.6v.8H33.6a.6.6,0,0,0-.6.5l-3.3,9.8a.6.6,0,0,0,0,.6c.1.1.2.3.4.3h.4l.8.2,1.1-.3a2.3,2.3,0,0,0,1.2-1.5l2.1-6.1h2.1v5.3a.7.7,0,0,0,.7.7h.3v3.5H36.3a3.9,3.9,0,0,0-3.8,3.2l-3,20.8a3.9,3.9,0,0,0,.9,3.3A4.1,4.1,0,0,0,33.5,60H51.8a4.1,4.1,0,0,0,3.1-1.4,3.9,3.9,0,0,0,.9-3.3l-3-20.8A4,4,0,0,0,49,31.3H46.4V27.8h.4a.7.7,0,0,0,.7-.7V25.9H49a.7.7,0,0,0,.7-.7v-.4h5.9a.6.6,0,0,0,.3.6.5.5,0,0,0,.4.2h.2l3-1a.6.6,0,0,0,.5-.6V22.1A.8.8,0,0,0,59.5,21.4ZM41.4,14.1a.8.8,0,0,0-.7-.5h3.9a.8.8,0,0,0-.7.5L43.5,16H41.8Zm-6.2,6.3a.8.8,0,0,0-.7.5l-2.2,6.6a1,1,0,0,1-.5.6l-.5.2,2.8-8.7h3.7v.8ZM45.7,32.7H49a2.5,2.5,0,0,1,2.4,2l3,20.8a2.6,2.6,0,0,1-2.6,3.1H33.5a2.6,2.6,0,0,1-2.6-3.1l3-20.8a2.5,2.5,0,0,1,2.4-2h6.6a.7.7,0,1,0,0-1.4H40.3V27.8H45V32A.8.8,0,0,0,45.7,32.7Zm2.6-8.2H46.8a.7.7,0,0,0-.7.7v1.2H39.2V19.6h6.9v1.2a.7.7,0,0,0,.7.7h1.5v3Zm10.3-1.1-1.6.5V22.1l1.6.5Z"/>
      <path class="cls-3" d="M35,42.1h0a8.3,8.3,0,0,0-1.2,4.4,8.8,8.8,0,0,0,8.8,8.8,8.9,8.9,0,0,0,7.7-4.3h0a8.3,8.3,0,0,0,1.2-4.4A8.9,8.9,0,0,0,35,42.1ZM42.6,54a7.4,7.4,0,0,1-7.4-7.4,8.2,8.2,0,0,1,.7-3.1L40,45.9H38.7a.7.7,0,1,0,0,1.4H40v.6h-.1a1.9,1.9,0,0,0-1.8,1.9v1a.7.7,0,1,0,1.4,0v-1a.5.5,0,0,1,.4-.5h.3a1.5,1.5,0,0,0,.6.9,2.5,2.5,0,0,0,1.8.8,2.8,2.8,0,0,0,1.3-.3.7.7,0,1,0-.7-1.2h-.6a1.2,1.2,0,0,1-1.2-1.3V46.7l7.3,4.2A7.5,7.5,0,0,1,42.6,54Zm7.5-7.4a8.2,8.2,0,0,1-.7,3.1l-8-4.6v-.2a1.2,1.2,0,0,1,1.2-1.3,1,1,0,0,1,.9.4,1,1,0,0,1,.4.7.9.9,0,0,0,.7.6h.8a1.9,1.9,0,0,0,1.8-1.9v-1a.7.7,0,1,0-1.4,0v1a.5.5,0,0,1-.4.5h-.3a1.5,1.5,0,0,0-.6-.9,2.6,2.6,0,0,0-1.9-.8,2.6,2.6,0,0,0-2.4,1.7h-.3a.5.5,0,0,1-.4-.5v-1a.7.7,0,1,0-1.4,0v.8l-1.5-.9a7.3,7.3,0,0,1,6-3.1A7.5,7.5,0,0,1,50.1,46.6Z"/>
      <path class="cls-4" d="M46.6,45.9h-.5a.7.7,0,1,0,0,1.4h.5a.7.7,0,1,0,0-1.4Z"/>
      <path class="cls-5" d="M46.5,49.8a.7.7,0,0,0-.7.7v.3a.7.7,0,0,0,1.4,0v-.3A.7.7,0,0,0,46.5,49.8Z"/>
    </g>
    <g>
      <path class="cls-6" d="M10,25.6h0v.2h4.6l.2-.2h.3v-.2h.1v-.2h0v-.4h0v-.2h-.1v-.2H15v-.2h0v-.2h0V22h0v-.2h-.1v-.2h-.2v-.2H10v1h0v.5h0v1h0v1.2h0v.2h0v.5Zm3.6-1.5h-2v-.2h0v-.4h2Zm-2-2v-.2h1.9v.2H11.6Z"/>
      <polygon class="cls-7" points="20.3 20.3 20.2 20.3 20.1 20.4 20.1 20.5 20.1 21 20.1 21.2 20.1 21.7 20.1 21.8 20.1 22.4 20.1 22.5 20.1 22.5 20 22.6 19.9 22.6 19.8 22.6 19.3 22.6 18.8 22.5 18.7 22.6 18.3 22.6 18.2 22.6 18.1 22.6 18 22.6 18 22.6 18 22.5 18 22.4 18 21.7 18 21.2 18 21 18 20.7 18 20.5 18 20.5 18 20.4 17.9 20.3 17.8 20.3 17.7 20.3 17.5 20.3 17.2 20.3 17.1 20.3 16.7 20.3 16.6 20.3 16.5 20.3 16.4 20.3 16.3 20.4 16.3 20.5 16.3 20.7 16.3 20.9 16.3 21.1 16.3 21.5 16.3 21.6 16.3 22.1 16.3 22.2 16.3 22.8 16.3 23.2 16.3 23.4 16.3 23.8 16.3 23.9 16.3 24.4 16.3 24.5 16.3 24.9 16.3 25.6 16.3 25.9 16.3 26 16.3 26.1 16.3 26.2 16.3 26.2 16.4 26.2 16.5 26.3 16.5 26.3 16.7 26.3 17.1 26.2 17.2 26.2 17.5 26.3 17.7 26.3 17.8 26.3 17.9 26.3 18 26.2 18 26.1 18 25.9 18 25.5 18 25.4 18 24.9 18 24.7 18 24.2 18 24.1 18 24 18.1 24 18.2 24 18.6 24 19.3 24 19.4 24 19.8 24 20 24 20.1 24 20.1 24.1 20.1 24.2 20.1 24.7 20.1 24.9 20.1 25.4 20.1 25.5 20.1 26.1 20.1 26.2 20.2 26.2 20.3 26.3 20.4 26.3 20.9 26.2 21 26.2 21.5 26.3 21.6 26.2 21.7 26.2 21.7 26.2 21.8 26.1 21.8 26 21.8 25.8 21.8 25.6 21.8 25.5 21.8 24.9 21.8 24.5 21.8 24.4 21.8 23.9 21.8 23.8 21.8 23.4 21.8 23.2 21.8 22.8 21.8 22.6 21.8 22.2 21.8 22.1 21.8 21.6 21.8 21.5 21.8 21.1 21.8 20.9 21.8 20.6 21.8 20.5 21.8 20.4 21.7 20.3 21.6 20.3 21.5 20.3 21.4 20.3 21 20.3 20.9 20.3 20.4 20.3 20.3 20.3"/>
      <polygon class="cls-8" points="23 25.7 22.9 25.9 22.9 26 23 26.1 23 26.2 23 26.3 23.1 26.3 23.5 26.3 23.6 26.2 24 26.3 24.2 26.3 24.5 26.3 24.6 26.2 24.6 26.2 24.6 26.1 24.7 26 24.7 25.9 24.6 25.7 24.6 25.6 24.7 25.1 24.7 24.5 24.7 24.4 24.7 24.4 24.8 24.4 24.8 24.5 24.9 24.6 25.2 24.9 25.2 25 25.6 25.3 25.6 25.4 25.9 25.8 26 25.9 26.3 26.2 26.3 26.3 26.4 26.3 27 26.2 27.1 26.2 27.6 26.3 27.7 26.3 28.2 26.3 28.3 26.3 28.4 26.3 28.4 26.2 28.4 26.2 28.4 26.1 28 25.7 27.9 25.6 27.6 25.3 27.5 25.2 27.1 24.8 27.1 24.7 26.7 24.3 26.7 24.2 26.3 23.8 26.2 23.7 25.9 23.3 25.8 23.2 25.8 23.2 25.9 23.1 25.9 23.1 26 23 26.2 22.8 26.3 22.7 26.6 22.3 26.7 22.2 27 21.9 27.1 21.8 27.4 21.4 27.5 21.3 27.8 20.9 27.8 20.8 28.1 20.5 28.2 20.4 28.2 20.4 28.2 20.4 28.2 20.3 28.1 20.3 27.8 20.3 27.6 20.3 27.3 20.3 26.8 20.3 26.7 20.3 26.3 20.3 26.2 20.3 26.2 20.4 25.9 20.7 25.8 20.8 25.5 21.2 25.1 21.7 24.8 22.1 24.7 22.1 24.7 22.1 24.7 22 24.6 21.6 24.6 21.5 24.6 21 24.6 20.9 24.7 20.6 24.7 20.5 24.7 20.4 24.6 20.4 24.6 20.3 24.5 20.3 24.1 20.3 24 20.3 23.6 20.3 23.5 20.3 23.2 20.3 23.1 20.3 23 20.3 23 20.4 23 20.5 23 20.9 23 21 23 22.1 23 22.2 23 22.6 23 22.8 23 23.2 23 23.8 23 23.9 22.9 24.4 22.9 24.5 22.9 25.1 23 25.5 23 25.7"/>
      <path class="cls-9" d="M22,16.6h.1v-.6h0v-.5h-.9V12h0V10.1H19.1l-.5.4h-.2V11l-.2.2H18l-.4.4v.2l-.4.4v.2l-.4.4h-.2l-.4.5h-.1l-.4.4v.2l-.4.5h-.1v.7H15v.7h4v1h2.2v-.9H22Zm-2.9-2.7v.6h0v.2H17.5l.4-.4H18l.4-.4v-.2l.4-.4h.2Z"/>
    </g>
  </g>
</svg>
