<svg id="Layer_1" data-name="Layer 1" xmlns="http://www.w3.org/2000/svg" xmlns:xlink="http://www.w3.org/1999/xlink" width="374.5" height="89.4" viewBox="0 0 374.5 89.4">
  <defs>
    <style>
      .cls-1 {
        fill: url(#linear-gradient);
      }

      .cls-2, .cls-4, .cls-5 {
        fill: #fff;
      }

      .cls-2 {
        opacity: 0.3;
      }

      .cls-2, .cls-3, .cls-4 {
        isolation: isolate;
      }

      .cls-4 {
        font-size: 16px;
        font-family: Montserrat-Medium, Montserrat;
      }
    </style>
    <linearGradient id="linear-gradient" x1="405.55" y1="126.36" x2="21.53" y2="-32.27" gradientUnits="userSpaceOnUse">
      <stop offset="0" stop-color="#75c8b8"/>
      <stop offset="1" stop-color="#71bbe4"/>
    </linearGradient>
  </defs>
  <title>banner_pumbing_P0</title>
  <g id="Page-1">
    <g id="UI---Screen-7---v2">
      <g id="Group-2">
        <path id="Path-4" class="cls-1" d="M0,72.4C71,74,112,68.2,210.5,71c58.9,1.7,113.3,7.8,164,18.4V0H0Z"/>
        <rect id="Rectangle-Copy-2" class="cls-2" x="23.5" y="22" width="47" height="7" rx="3.2" ry="3.2"/>
        <path id="Rectangle-Copy-4" class="cls-2" d="M189.8,29h40.5a3.2,3.2,0,0,1,3.2,3.2v.5a3.3,3.3,0,0,1-3.2,3.3H189.8a3.2,3.2,0,0,1-3.2-3.2v-.5a3.2,3.2,0,0,1,3.2-3.2Z"/>
        <rect id="Rectangle-Copy-3" class="cls-2" x="64.5" y="35" width="47" height="7" rx="3.2" ry="3.2"/>
        <path id="Rectangle-Copy-5" class="cls-2" d="M236.8,42h40.5a3.3,3.3,0,0,1,3.3,3.3v.5a3.3,3.3,0,0,1-3.2,3.3H236.8a3.2,3.2,0,0,1-3.2-3.2v-.5A3.2,3.2,0,0,1,236.8,42Z"/>
        <g id="sweep">
          <g id="_" data-name="+" class="cls-3">
            <text class="cls-4" transform="translate(318.8 26)">+</text>
          </g>
          <g id="_-copy" data-name="+-copy" class="cls-3">
            <text class="cls-4" transform="translate(336.5 14)">+</text>
          </g>
        </g>
      </g>
    </g>
  </g>
  <g>
    <path class="cls-5" d="M351,28.7c-.3,0-4.2,6.6-4.2,9.3a4.3,4.3,0,0,0,8.5,0C355.3,35.3,351.3,28.7,351,28.7Zm0,12a2.7,2.7,0,0,1-2.7-2.7c0-1.4,1.6-4.6,2.7-6.6,1.2,2,2.8,5.2,2.8,6.6A2.8,2.8,0,0,1,351,40.7Z"/>
    <path class="cls-5" d="M351.7,64.1a5.3,5.3,0,1,0-5.3-5.3A5.3,5.3,0,0,0,351.7,64.1Zm0-9.2a3.8,3.8,0,0,1,3.9,3.9,3.9,3.9,0,0,1-3.9,4,4,4,0,0,1-4-4A3.9,3.9,0,0,1,351.7,54.9Z"/>
    <path class="cls-5" d="M322.8,58.8a5.3,5.3,0,1,0-5.3,5.3A5.3,5.3,0,0,0,322.8,58.8Zm-5.3,4a4,4,0,0,1-4-4,4,4,0,0,1,8,0A4,4,0,0,1,317.5,62.8Z"/>
    <path class="cls-5" d="M319.1,66.6h.3v-.3a2.3,2.3,0,0,1,.7-.7h1l.3.2.3-.2a13.9,13.9,0,0,0,2.1-2.1h21.4a7.6,7.6,0,0,0,2,2l.3.2h.3a1,1,0,0,1,.9,0,1.2,1.2,0,0,1,.7.7l.2.3h.3a4.7,4.7,0,0,0,1.7.2h1.9v-.3a1.6,1.6,0,0,1,.7-.7h1.5a8.8,8.8,0,0,0,2.4-2.3v-.6a1.2,1.2,0,0,1,.1-1,.9.9,0,0,1,.6-.6l.3-.2v-.3a9.2,9.2,0,0,0,0-3.3v-.3h-.3a1.6,1.6,0,0,1-.7-.7h0a1.7,1.7,0,0,1,0-1v-.3l-.2-.3a8,8,0,0,0-2.2-2.3l-.3-.2-.3.2a1.2,1.2,0,0,1-1-.1,1.3,1.3,0,0,1-.7-.6v-.3h-.3a6.2,6.2,0,0,0-3.3,0h-.3v.3a1.6,1.6,0,0,1-.7.7,1.7,1.7,0,0,1-1,0h-.3l-.3.2a8,8,0,0,0-2.1,2h-6.8V26.6a3.3,3.3,0,0,1,3.3-3.3h2a2.5,2.5,0,0,1,1.2.2,3.4,3.4,0,0,1,2.1,3.1v.6h.1a6.9,6.9,0,0,0,3.9,1.1,7.1,7.1,0,0,0,3.9-1.1h0v-.6a11,11,0,0,0-2.5-7.1,11.3,11.3,0,0,0-8.7-4.1h-2a11.2,11.2,0,0,0-11.2,11.2V54.2h-6.7a9.5,9.5,0,0,0-2-2l-.3-.2-.3.2a1.2,1.2,0,0,1-1-.1.9.9,0,0,1-.6-.6l-.2-.3h-.3a6.2,6.2,0,0,0-3.3,0h-.3v.3a1.6,1.6,0,0,1-.7.7,1.7,1.7,0,0,1-1,0h-.3l-.3.2a6.9,6.9,0,0,0-2.3,2.2l-.2.3V55a1.2,1.2,0,0,1,0,1,1.2,1.2,0,0,1-.7.7h-.3v.3a7.4,7.4,0,0,0-.1,3.3v.3h.3a1.6,1.6,0,0,1,.7.7,1.7,1.7,0,0,1,0,1v.6a8.4,8.4,0,0,0,2.3,2.3l.3.2h1.3a1.1,1.1,0,0,1,.6.7l.2.3h.3a5,5,0,0,0,1.7.2Zm27.1-10.1a3,3,0,0,0,.2-1.6,5.4,5.4,0,0,1,1.5-1.5,2.2,2.2,0,0,0,1.6-.1,2.3,2.3,0,0,0,1.2-1h2.1a2.3,2.3,0,0,0,1.2,1,2.2,2.2,0,0,0,1.6.2,10.6,10.6,0,0,1,1.5,1.5,2.2,2.2,0,0,0,.1,1.6,2.3,2.3,0,0,0,1,1.2,7.4,7.4,0,0,1,0,2.1,3.2,3.2,0,0,0-1.1,1.2,2.9,2.9,0,0,0-.1,1.6,5.4,5.4,0,0,1-1.5,1.5,2.5,2.5,0,0,0-2.8,1.1,7.4,7.4,0,0,1-2.1,0,2.3,2.3,0,0,0-1.2-1,3,3,0,0,0-1.6-.2,5.4,5.4,0,0,1-1.5-1.5,2.5,2.5,0,0,0-1.1-2.8,5,5,0,0,1,0-2.1A2.9,2.9,0,0,0,346.2,56.5Zm-22.1-1H332V26.6a9.8,9.8,0,0,1,9.8-9.9h2a9.9,9.9,0,0,1,6.8,2.7,9.6,9.6,0,0,1,3.1,6.5h-5.3a4.8,4.8,0,0,0-3-3.7l-1.6-.2h-2a4.6,4.6,0,0,0-4.6,4.6V55.5h7.9a1.3,1.3,0,0,1-.1.5,1.6,1.6,0,0,1-.7.7H344v.3a9.2,9.2,0,0,0,0,3.3v.3h.3a1.3,1.3,0,0,1,.6.7,1.8,1.8,0,0,1,.1.6H324.1a1.3,1.3,0,0,1,.1-.5.9.9,0,0,1,.7-.6l.3-.2v-.3a7.4,7.4,0,0,0,.1-3.3v-.3h-.3a1.6,1.6,0,0,1-.7-.7A3.5,3.5,0,0,0,324.1,55.5Zm-7.7,9.8a2.3,2.3,0,0,0-1.2-1,3,3,0,0,0-1.6-.2,5.4,5.4,0,0,1-1.5-1.5,2.5,2.5,0,0,0-1.1-2.8,7.4,7.4,0,0,1,0-2.1,2.3,2.3,0,0,0,1-1.2,3,3,0,0,0,.2-1.6,5.4,5.4,0,0,1,1.5-1.5,2.2,2.2,0,0,0,1.6-.1,2.3,2.3,0,0,0,1.2-1h2.1a2.3,2.3,0,0,0,1.2,1,2.3,2.3,0,0,0,1.6.2,5.4,5.4,0,0,1,1.5,1.5,2.5,2.5,0,0,0,1.1,2.8,7.4,7.4,0,0,1,0,2.1,2.3,2.3,0,0,0-1,1.2,3,3,0,0,0-.2,1.6,5.4,5.4,0,0,1-1.5,1.5,2.5,2.5,0,0,0-2.8,1.1A7.4,7.4,0,0,1,316.4,65.3Z"/>
  </g>
</svg>
