<svg id="Layer_1" data-name="Layer 1" xmlns="http://www.w3.org/2000/svg" xmlns:xlink="http://www.w3.org/1999/xlink" width="70" height="70" viewBox="0 0 70 70">
  <defs>
    <style>
      .cls-1 {
        fill: #f6f6f6;
      }

      .cls-2 {
        fill: url(#linear-gradient);
      }

      .cls-3 {
        fill: url(#linear-gradient-2);
      }

      .cls-4 {
        fill: url(#linear-gradient-3);
      }

      .cls-5 {
        fill: url(#linear-gradient-4);
      }

      .cls-6 {
        fill: url(#linear-gradient-5);
      }

      .cls-7 {
        fill: url(#linear-gradient-6);
      }

      .cls-8 {
        fill: url(#linear-gradient-7);
      }

      .cls-9 {
        fill: url(#linear-gradient-8);
      }

      .cls-10 {
        fill: url(#linear-gradient-9);
      }

      .cls-11 {
        fill: url(#linear-gradient-10);
      }

      .cls-12 {
        fill: url(#linear-gradient-11);
      }
    </style>
    <linearGradient id="linear-gradient" x1="50.84" y1="68.01" x2="18.65" y2="1.42" gradientUnits="userSpaceOnUse">
      <stop offset="0" stop-color="#75c9b9"/>
      <stop offset="1" stop-color="#72bde5"/>
    </linearGradient>
    <linearGradient id="linear-gradient-2" x1="51.67" y1="67.61" x2="19.48" y2="1.02" gradientTransform="translate(28.3 -14.7) rotate(44.1)" xlink:href="#linear-gradient"/>
    <linearGradient id="linear-gradient-3" x1="49.24" y1="68.78" x2="17.05" y2="2.19" xlink:href="#linear-gradient"/>
    <linearGradient id="linear-gradient-4" x1="58.5" y1="64.31" x2="26.3" y2="-2.28" xlink:href="#linear-gradient"/>
    <linearGradient id="linear-gradient-5" x1="54.86" y1="66.06" x2="22.67" y2="-0.52" xlink:href="#linear-gradient"/>
    <linearGradient id="linear-gradient-6" x1="41.38" y1="72.58" x2="9.18" y2="6" xlink:href="#linear-gradient"/>
    <linearGradient id="linear-gradient-7" x1="42.69" y1="71.95" x2="10.5" y2="5.36" xlink:href="#linear-gradient"/>
    <linearGradient id="linear-gradient-8" x1="48.84" y1="68.98" x2="16.64" y2="2.39" xlink:href="#linear-gradient"/>
    <linearGradient id="linear-gradient-9" x1="50.13" y1="68.35" x2="17.94" y2="1.77" xlink:href="#linear-gradient"/>
    <linearGradient id="linear-gradient-10" x1="43.98" y1="71.32" x2="11.79" y2="4.74" xlink:href="#linear-gradient"/>
    <linearGradient id="linear-gradient-11" x1="54.37" y1="66.3" x2="22.18" y2="-0.28" xlink:href="#linear-gradient"/>
  </defs>
  <title>icon_plumbing_P0</title>
  <path id="Rectangle" class="cls-1" d="M3,0H67a2.9,2.9,0,0,1,3,3V67a2.9,2.9,0,0,1-3,3H3a2.9,2.9,0,0,1-3-3V3A2.9,2.9,0,0,1,3,0Z"/>
  <g>
    <path class="cls-2" d="M39.8,34.4a1.6,1.6,0,0,0-.5-1.1l-2.1-2.1a1.7,1.7,0,0,0-2.1,0l-4.3,4.2a1.5,1.5,0,0,0-.4,1.1,1.4,1.4,0,0,0,.4,1L33,39.6a1.2,1.2,0,0,0,1,.4h0a1.2,1.2,0,0,0,1-.4l4.3-4.2A1.2,1.2,0,0,0,39.8,34.4ZM34,38.5h0v0l-2.2-2.1,1.7-1.6-.2.8,2.8.9ZM36.6,36l.3-.8-2.8-.9,2.1-2,2.1,2.1Z"/>
    <rect class="cls-3" x="31.6" y="23.1" width="1.5" height="8.96" transform="translate(-10.1 30.3) rotate(-44.1)"/>
    <path class="cls-4" d="M55.9,48.2V33.9h0a1.5,1.5,0,0,0,1.5-1.5V28.7a1.5,1.5,0,0,0-1.5-1.5h0V18.3a6,6,0,0,0-6.1-5.9H43.5a1.3,1.3,0,0,0-1.2-.8H39.9a1.5,1.5,0,0,0-1.4-1.5H11.2a1.5,1.5,0,0,0-1.5,1.5V30.9a1.4,1.4,0,0,0,1.5,1.5h0v1.5a1.5,1.5,0,0,0,1.5,1.5h.8v6.7h-.8a1.5,1.5,0,0,0-1.5,1.5v5.9A1.5,1.5,0,0,0,12.7,51h0v7.4a1.5,1.5,0,0,0,1.5,1.5h4.5a1.5,1.5,0,0,0,1.5-1.5V51h.1a1.4,1.4,0,0,0,1.4-1.5h.9a3.8,3.8,0,0,0,3.7,3,3.7,3.7,0,0,0,3.7-3h3.2A1.4,1.4,0,0,0,34.7,51h9c8.5,8.2,8.5,8.2,9.1,8.2a1.5,1.5,0,0,0,1-.4l5.4-5.2a1.6,1.6,0,0,0,.5-1.1,1.4,1.4,0,0,0-.5-1Zm-1.5-1.4-6.9-6.6V33.9h6.9ZM39.3,25c0-.1-.1-.1-.2-.2a9,9,0,0,0,.8-2.8h2.4a1.4,1.4,0,0,0,1.4-1.4h2.4v6.6H46a1.5,1.5,0,0,0-1.4,1.5v3.7A1.5,1.5,0,0,0,46,33.9h.1v4.9l-4-3.9A10,10,0,0,0,39.3,25Zm4.4-5.8V13.8h.9v5.4Zm12.2,9.5v3.7H46V28.7Zm-8.4-1.5V22.7h6.9v4.5Zm6.9-5.9H47.6l5.9-5.7a4.4,4.4,0,0,1,.9,2.7Zm-2.1-6.8-5.2,5.1a1.5,1.5,0,0,0-1.1-.4h0V13.8h3.8A5.2,5.2,0,0,1,52.3,14.5Zm-10-1.4v7.4H39.9V13.1ZM12.6,33.9v-3h7.6v3H12.6Zm2.3,1.5H18v6.7H14.9Zm3.8,23H14.2V51h4.6Zm1.6-8.9H12.6V43.6h7.6Zm2.3-1.4h-.9V45H24A20.1,20.1,0,0,0,22.6,48.1Zm3.7-6a.7.7,0,0,0-.6.3,8,8,0,0,1-.8,1.2H21.7a1.5,1.5,0,0,0-1.4-1.5h-.9V35.4h.9a1.5,1.5,0,0,0,1.4-1.5v-3a1.4,1.4,0,0,0-1.4-1.4H12.7a1.5,1.5,0,0,0-1.5,1.4h-.1V11.6H38.5v8.9a9,9,0,0,1-.6,3.4A10.7,10.7,0,0,0,24.4,25a1.6,1.6,0,0,0-.5,1.1,1.2,1.2,0,0,0,.5,1l5.3,5.2-.5.5-3.8-3.6a1.5,1.5,0,0,0-2.1,0A5.4,5.4,0,0,0,21.8,33,6.6,6.6,0,0,0,24,38.1c0,.2-.1.3-.1.4a1.6,1.6,0,0,0,.5,1.1,10.8,10.8,0,0,0,9.4,2.8,1.4,1.4,0,0,0-.6,1.2H27.8l-.9-1.2A.6.6,0,0,0,26.3,42.1ZM24.9,37a5.5,5.5,0,0,1-1.6-4,3.7,3.7,0,0,1,1.1-2.8l3.7,3.6ZM30,48.1A13.6,13.6,0,0,0,28.6,45h4.6v3.1Zm4.6,1.4V43.6H36l6.2,5.9Zm18.2,9v-.8h0Zm.1-.8-9-8.6L35,40.6h-.4a9.2,9.2,0,0,1-9.2-2.2l6.4-6.2-6.4-6.2a9.5,9.5,0,0,1,12.3-.6.1.1,0,0,0,.1.1,1.2,1.2,0,0,1,.5.5,8.6,8.6,0,0,1,2.3,8.8l-.2.5L58.2,52.5Z"/>
    <path class="cls-5" d="M49.8,52.5a2.7,2.7,0,0,0,.9,2.1,2.9,2.9,0,0,0,2.1.9h0a3.1,3.1,0,0,0,3-3,3,3,0,0,0-.9-2.1,3.1,3.1,0,0,0-4.2,0A3,3,0,0,0,49.8,52.5Zm1.9-1a1.6,1.6,0,0,1,2.2,0,1.4,1.4,0,0,1,.5,1,1.6,1.6,0,0,1-.5,1.1,1.5,1.5,0,0,1-1.1.4h0a1.4,1.4,0,0,1-1.5-1.5A1.3,1.3,0,0,1,51.7,51.5Z"/>
    <polygon class="cls-6" points="37.9 39.1 49.8 50.4 50.8 49.5 38.8 38.1 37.9 39.1"/>
    <path class="cls-7" d="M33.2,51a.6.6,0,0,0-.6.3c-.4.4-2.5,2.7-2.5,4.2a3.1,3.1,0,0,0,6.1,0c0-1.5-2.1-3.8-2.5-4.2A.5.5,0,0,0,33.2,51Z"/>
    <rect class="cls-8" x="13.4" y="13.9" width="3" height="1.41"/>
    <rect class="cls-9" x="18" y="13.9" width="9.1" height="1.41"/>
    <rect class="cls-10" x="24" y="16.8" width="3" height="1.41"/>
    <rect class="cls-11" x="13.4" y="16.8" width="9.1" height="1.41"/>
    <rect class="cls-12" x="28.6" y="13.9" width="1.5" height="1.41"/>
  </g>
</svg>
