<svg id="Layer_1" data-name="Layer 1" xmlns="http://www.w3.org/2000/svg" xmlns:xlink="http://www.w3.org/1999/xlink" width="70" height="70" viewBox="0 0 70 70">
  <defs>
    <style>
      .cls-1 {
        fill: #f6f6f6;
      }

      .cls-2 {
        fill: url(#linear-gradient);
      }

      .cls-3 {
        fill: url(#linear-gradient-2);
      }

      .cls-4 {
        fill: url(#linear-gradient-3);
      }

      .cls-5 {
        fill: url(#linear-gradient-4);
      }
    </style>
    <linearGradient id="linear-gradient" x1="48.45" y1="65.17" x2="10.78" y2="4.5" gradientUnits="userSpaceOnUse">
      <stop offset="0" stop-color="#75c9b9"/>
      <stop offset="1" stop-color="#72bde5"/>
    </linearGradient>
    <linearGradient id="linear-gradient-2" x1="72.46" y1="50.26" x2="34.8" y2="-10.41" xlink:href="#linear-gradient"/>
    <linearGradient id="linear-gradient-3" x1="61.27" y1="57.21" x2="23.61" y2="-3.46" xlink:href="#linear-gradient"/>
    <linearGradient id="linear-gradient-4" x1="48.07" y1="65.41" x2="10.4" y2="4.74" xlink:href="#linear-gradient"/>
  </defs>
  <title>icon_electrical_E01</title>
  <path id="Rectangle" class="cls-1" d="M3,0H67a2.9,2.9,0,0,1,3,3V67a2.9,2.9,0,0,1-3,3H3a2.9,2.9,0,0,1-3-3V3A2.9,2.9,0,0,1,3,0Z"/>
  <g>
    <path class="cls-2" d="M20.7,18.6,17.2,14a.7.7,0,0,0-1.2.8l3.6,4.7a.5.5,0,0,0,.5.3l.5-.2A.8.8,0,0,0,20.7,18.6Z"/>
    <path class="cls-3" d="M49.4,19.6l.5.2a.5.5,0,0,0,.5-.3L54,14.8a.7.7,0,0,0-1.2-.8l-3.5,4.6A.8.8,0,0,0,49.4,19.6Z"/>
    <path class="cls-4" d="M35,16.7v-6a.7.7,0,1,0-1.4,0v6a.7.7,0,1,0,1.4,0Z"/>
    <path class="cls-5" d="M48,51.2a.7.7,0,0,0,.3-.6V46.7a2.7,2.7,0,0,0-2-2.6V31.4a12.1,12.1,0,1,0-24.1,0h0V44.1a2.7,2.7,0,0,0-2,2.6v3.9a1.1,1.1,0,0,0,.9.9h5.2l-2.2,2.3a3.2,3.2,0,0,0-.9,2.3V60H25V56.1a1.5,1.5,0,0,1,.4-1l3.4-3.6H39.6L43,55.1a1.5,1.5,0,0,1,.4,1V60h1.8V56.1a3.2,3.2,0,0,0-.9-2.3l-2.2-2.3h5.3A.7.7,0,0,0,48,51.2ZM24,31.4a10.3,10.3,0,0,1,20.5,0V44H35V27a.7.7,0,0,0-.7-.7.8.8,0,0,0-.8.7V44H24ZM46.5,49.7H22.1v-3a.8.8,0,0,1,.8-.9H45.6a.9.9,0,0,1,.9.9Z"/>
  </g>
</svg>
