<svg id="Layer_1" data-name="Layer 1" xmlns="http://www.w3.org/2000/svg" xmlns:xlink="http://www.w3.org/1999/xlink" width="70" height="70" viewBox="0 0 70 70">
  <defs>
    <style>
      .cls-1 {
        fill: #f6f6f6;
      }

      .cls-2 {
        fill: url(#linear-gradient);
      }

      .cls-3 {
        fill: url(#linear-gradient-2);
      }

      .cls-4 {
        fill: url(#linear-gradient-3);
      }

      .cls-5 {
        fill: url(#linear-gradient-4);
      }

      .cls-6 {
        fill: url(#linear-gradient-5);
      }

      .cls-7 {
        fill: url(#linear-gradient-6);
      }

      .cls-8 {
        fill: url(#linear-gradient-7);
      }

      .cls-9 {
        fill: url(#linear-gradient-8);
      }

      .cls-10 {
        fill: url(#linear-gradient-9);
      }

      .cls-11 {
        fill: url(#linear-gradient-10);
      }

      .cls-12 {
        fill: url(#linear-gradient-11);
      }

      .cls-13 {
        fill: url(#linear-gradient-12);
      }
    </style>
    <linearGradient id="linear-gradient" x1="56.85" y1="67.83" x2="16.81" y2="-0.66" gradientUnits="userSpaceOnUse">
      <stop offset="0" stop-color="#75c9b9"/>
      <stop offset="1" stop-color="#72bde5"/>
    </linearGradient>
    <linearGradient id="linear-gradient-2" x1="64.08" y1="63.6" x2="24.04" y2="-4.89" xlink:href="#linear-gradient"/>
    <linearGradient id="linear-gradient-3" x1="40.37" y1="77.47" x2="0.32" y2="8.98" xlink:href="#linear-gradient"/>
    <linearGradient id="linear-gradient-4" x1="48.03" y1="72.98" x2="7.99" y2="4.5" xlink:href="#linear-gradient"/>
    <linearGradient id="linear-gradient-5" x1="46.6" y1="73.82" x2="6.55" y2="5.34" xlink:href="#linear-gradient"/>
    <linearGradient id="linear-gradient-6" x1="48.39" y1="72.78" x2="8.34" y2="4.29" xlink:href="#linear-gradient"/>
    <linearGradient id="linear-gradient-7" x1="48.9" y1="72.48" x2="8.86" y2="3.99" xlink:href="#linear-gradient"/>
    <linearGradient id="linear-gradient-8" x1="50.69" y1="71.43" x2="10.65" y2="2.94" xlink:href="#linear-gradient"/>
    <linearGradient id="linear-gradient-9" x1="48.38" y1="72.78" x2="8.34" y2="4.29" xlink:href="#linear-gradient"/>
    <linearGradient id="linear-gradient-10" x1="50.68" y1="71.43" x2="10.64" y2="2.95" xlink:href="#linear-gradient"/>
    <linearGradient id="linear-gradient-11" x1="52.47" y1="70.39" x2="12.43" y2="1.9" xlink:href="#linear-gradient"/>
    <linearGradient id="linear-gradient-12" x1="43.2" y1="75.81" x2="3.16" y2="7.32" xlink:href="#linear-gradient"/>
  </defs>
  <title>icon_housekeeping_H0</title>
  <path id="Rectangle" class="cls-1" d="M3,0H67a2.9,2.9,0,0,1,3,3V67a2.9,2.9,0,0,1-3,3H3a2.9,2.9,0,0,1-3-3V3A2.9,2.9,0,0,1,3,0Z"/>
  <g>
    <path class="cls-2" d="M54.9,56.5H55l.5.6,1-1L55,54.6l-1.1,1.1-.9-.4v-.6h.8V53.4H51.7v1.5h-.8A3.5,3.5,0,0,0,48,56.4h-.1v-.8H46.6v.8a2.2,2.2,0,0,0-1.4,2,2.1,2.1,0,0,0,2.1,2.1H58.1V59.2H56.4A5.2,5.2,0,0,0,54.9,56.5Zm-2,.5-.2.2a1.8,1.8,0,0,1-1.3.6H49.6V59h2.8l.7.2H47.3a.8.8,0,0,1-.8-.8.8.8,0,0,1,1-.8v1.1h1.3v-.2a2.2,2.2,0,0,1,.5-1.6,2.4,2.4,0,0,1,1.6-.7,4.5,4.5,0,0,1,4.2,3.1h-.2a2.4,2.4,0,0,0-1.3-1.1l.2-.2Z"/>
    <path class="cls-3" d="M59.7,44.4c0-.2-.1-.4-.1-.7a4.2,4.2,0,0,0-.9-1.4c-.1-.1-.2-.2-.1-.3h0a1,1,0,0,0-.1-.9.7.7,0,0,0-.7-.2c-.3.1-.5.3-.5.5a.4.4,0,0,0-.1.3l-.4-.2-.3-.2-.3-.2a1.1,1.1,0,0,0-.8-.3h-2A5.9,5.9,0,0,0,50.5,42l-.4.5a3.9,3.9,0,0,0-.6,1.1,1.1,1.1,0,0,0-.1.8h0l-.4.5-.5.2a2.7,2.7,0,0,1-.9,0,1.9,1.9,0,0,1-1.5-.8,3,3,0,0,1-.4-.8,2.2,2.2,0,0,1-.1-.8,4.1,4.1,0,0,1,.3-1.6,4.1,4.1,0,0,1,.5-.9,6.2,6.2,0,0,1,.9-1.2,4.3,4.3,0,0,1,1-.9l.8-.7.8-.6.2-.2c0-.1,0-.2-.1-.1h-.2l-.4.2-1.5,1.2-.9.6-.5.6L46,40a5.6,5.6,0,0,0-.9,1.7,3.8,3.8,0,0,0-.1,1.5,3,3,0,0,0,.2,1l.3.7a4.2,4.2,0,0,0,1.4.9h1l1-.2.5-.2h.5a3.1,3.1,0,0,0,1.2.5h.1l.5.2h.8a1.1,1.1,0,0,1,.7.3h.3c.1,0,.1-.1.1-.2l-.4-.3h.7c0,.1.1.1.1.2s.2.1.3,0h0c.1,0,.1.1.2.2v-.2a.1.1,0,0,0-.1-.1.1.1,0,0,1-.1-.1v-.2c0,.1.1.1.1.2h.2c.1,0,.2,0,.2.1s.1-.1,0-.1-.1-.1-.1-.2h-.1l-.2-.3H56q.2.3.3.3a.9.9,0,0,1,.6.3.1.1,0,0,0,.1.1h0c0-.1-.1-.2-.1-.3h.2c.1.1.1.1.1.2h.2c-.1,0-.1-.1-.2-.2h.1c0,.1.1.1.1.2h.3v-.2c0-.1-.1-.1-.2-.2s.1,0,.1.1a.1.1,0,0,0,0-.2l-.3-.2h1.2l.6.3a.7.7,0,0,0,.6-.1h.1c.1.1.2.1.2,0v-.4Z"/>
    <path class="cls-4" d="M25.3,51.9h0l-2.9-4.6a.5.5,0,0,0-.6-.4h-.9V11.5A2.1,2.1,0,0,0,19,9.4a2,2,0,0,0-1.8,2.1V46.9h-.9a.8.8,0,0,0-.7.4l-2.7,4.4v.2h0l-2.7,6a.4.4,0,0,0-.1.3,2.4,2.4,0,0,0,2.4,2.4h0a2.8,2.8,0,0,0,1.7-.7,2.4,2.4,0,0,0,3.2.1.1.1,0,0,1,.1-.1,2.4,2.4,0,0,0,3.2.1h.1a2.4,2.4,0,0,0,3.2.1H24a2.6,2.6,0,0,0,1.5.7h.2a2.5,2.5,0,0,0,1.6-.6,2.5,2.5,0,0,0,.8-1.8.4.4,0,0,0-.1-.3Zm-9.6,7.2h0a.9.9,0,0,1-.9-.8l1.1-3.8a1.3,1.3,0,0,0-.1-.6c-.1-.1-.2-.3-.4-.3a.7.7,0,0,0-.9.5L13.3,58v.2a.9.9,0,0,1-.9.9.9.9,0,0,1-.9-.8L14,52.8h3.1l-.5,5.4A.9.9,0,0,1,15.7,59.1Zm3-12.2V11.5c0-.3.2-.6.3-.6s.4.3.4.6V46.9Zm-2.5,2.2.5-.7h4.7l.5.7Zm7,2.2H14.8l.5-.7h7.5Zm2.5,7.8a.9.9,0,0,1-.9-.9c0-.1-.1-.2-.1-.3l-1.8-5.1h1.2l2.5,5.5A.9.9,0,0,1,25.7,59.1Zm-5-4.4a.7.7,0,0,0-.7.7v2.8a.7.7,0,0,1-.3.6.9.9,0,0,1-.6.3l-.7-.2a.9.9,0,0,1-.3-.7l.5-5.4h2.7l2,5.5a1.1,1.1,0,0,1-.9.8,1,1,0,0,1-1-.9V55.4A.7.7,0,0,0,20.7,54.7Z"/>
    <path class="cls-5" d="M44.7,49.2c0-.1-.1-.2-.1-.3h0L36.7,41a.9.9,0,0,0-1,0l-2.6,2.7V30a1.9,1.9,0,0,0-1.9-1.8A1.8,1.8,0,0,0,29.4,30V47.4l-2.6,2.5a.8.8,0,0,0-.2.5v3.9a1,1,0,0,0,.4.7l7.8,3.8h.3l.5-.2,8.9-8.9a1.1,1.1,0,0,0,.2-.6ZM30.8,45.9V30a.4.4,0,0,1,.8,0V45.1Zm6.1-.9V43.4l3.3,3.2Zm5.8,4.5-7.6,7.6-4.8-4.7,6-6.1Zm-14.3.9,7.1-7v1.7l-6.2,6.2Zm2.9,5.1-3.2-1.7V52.2Z"/>
    <rect class="cls-6" x="33.8" y="52.5" width="1.5" height="1.48"/>
    <rect class="cls-7" x="34.9" y="50.2" width="1.5" height="1.48"/>
    <rect class="cls-8" x="36.6" y="51.9" width="1.5" height="1.48"/>
    <rect class="cls-9" x="37.7" y="49.7" width="1.5" height="1.48"/>
    <rect class="cls-10" x="38.8" y="56.9" width="1.5" height="1.48"/>
    <rect class="cls-11" x="41.5" y="56.3" width="1.5" height="1.48"/>
    <rect class="cls-12" x="42.6" y="54.1" width="1.5" height="1.48"/>
    <path class="cls-13" d="M23.9,47.2l1.2-1.3,1.3,1.3,1-1-1.2-1.3,1.2-1.3-1-1-1.3,1.2-1.2-1.2-1.1,1,1.3,1.3-1.3,1.3Zm.4-2.3.8-.8.9.8-.9.8Z"/>
  </g>
</svg>
