<svg id="Layer_1" data-name="Layer 1" xmlns="http://www.w3.org/2000/svg" xmlns:xlink="http://www.w3.org/1999/xlink" width="70" height="70" viewBox="0 0 70 70">
  <defs>
    <style>
      .cls-1 {
        fill: #f6f6f6;
      }

      .cls-2 {
        fill: url(#linear-gradient);
      }

      .cls-3 {
        fill: url(#linear-gradient-2);
      }

      .cls-4 {
        fill: url(#linear-gradient-3);
      }
    </style>
    <linearGradient id="linear-gradient" x1="54.57" y1="68.32" x2="14.93" y2="0.82" gradientUnits="userSpaceOnUse">
      <stop offset="0" stop-color="#64dcc2"/>
      <stop offset="1" stop-color="#70bce6"/>
    </linearGradient>
    <linearGradient id="linear-gradient-2" x1="54.57" y1="68.32" x2="14.93" y2="0.82" xlink:href="#linear-gradient"/>
    <linearGradient id="linear-gradient-3" x1="46.35" y1="73.15" x2="6.7" y2="5.65" xlink:href="#linear-gradient"/>
  </defs>
  <title>icon_carpentry_C0</title>
  <path id="Rectangle" class="cls-1" d="M3,0H67a2.9,2.9,0,0,1,3,3V67a2.9,2.9,0,0,1-3,3H3a2.9,2.9,0,0,1-3-3V3A2.9,2.9,0,0,1,3,0Z"/>
  <g>
    <path class="cls-2" d="M35,33.8A1.2,1.2,0,1,0,36,35,1.1,1.1,0,0,0,35,33.8Z"/>
    <path class="cls-3" d="M35,10a25,25,0,0,0-7.6,48.8l1.4.4,2.3.5,2.2.2h3.4l2.2-.2,2.3-.5,1.4-.4A25,25,0,0,0,35,10Zm5.2,36.1-2.1,1.2-.7-.3-.7-2.4H33.3V18.5l12.2,2.2V49.3l-3.6.6.8-1.4ZM35,58.6a19,19,0,0,1-5.4-.7l.6-1.1-.2-.4-.5-1.2v-.3l-2-.6V53l2-.5v-.4l.5-1.2.2-.3-.2-.4-.8-1.5.8-.8h.1l1.3.8.5.3.4-.2.9-.4h.6l.6-2.1h1.2l.6,2.1h.4l1.1.5.4.2,1.8-1.1.9.9L40,50.2l-.2.4.2.3a10.4,10.4,0,0,0,.4,1c0,.1,0,.1.1.2v.4l2,.5v1.3l-2,.6v.3L40,56.4l-.2.4.6,1.1A19,19,0,0,1,35,58.6Zm6.9-1-.5-.9.3-.7,2.4-.6V51.9l-1.5-.4,4.5-.8V19.3L31.4,16.5V47L30,46.2v-27H22.9V50.8h5.6l-.2.5-2.4.6v3.5l2.4.6.3.7-.5.9A23.6,23.6,0,1,1,58.6,35,23.8,23.8,0,0,1,41.9,57.6Z"/>
    <path class="cls-4" d="M37.4,53a1.6,1.6,0,0,0,1.3-.8,1.4,1.4,0,0,0,.2-.7,4.3,4.3,0,0,0-.1-.5.1.1,0,0,0-.1-.1h-.2l-.6.7h-.3l-.3-.4v-.3l.2-.2.4-.4a.1.1,0,0,0,0-.2h-.5a1.6,1.6,0,0,0-1.3.6l-.2.4a1.4,1.4,0,0,0,0,.9l-1.1,1h0l-1.5-1.4h-.1l-.3-.3v-.5L31.8,50a.1.1,0,0,0-.2,0l-.2.2-.2.2a.3.3,0,0,0-.1.2l.3.5.4.6h.5l1.4,1.3.4.5L33,54.7a1.3,1.3,0,0,0-1.2.3,1.4,1.4,0,0,0-.7,1.2c0,.2.1.3.1.5h.3l.6-.6h.3l.3.3v.3l-.6.7s-.1.1,0,.1,0,.1.1.1h.4a1.6,1.6,0,0,0,1.3-.6,2,2,0,0,0,.2-1.3l.9-.9.2.2h-.1c-.1.1-.1.2,0,.2s.2.1.2,0h.1l1.9,2.1h0a.9.9,0,1,0,1.3-1.3l-2.1-1.9h.1a.2.2,0,0,0,0-.3h-.3l-.2-.2.9-.9Zm-1.3,1.3-.7.6-.2-.2.7-.7Z"/>
  </g>
</svg>
