<svg id="Layer_1" data-name="Layer 1" xmlns="http://www.w3.org/2000/svg" xmlns:xlink="http://www.w3.org/1999/xlink" width="70" height="70" viewBox="0 0 70 70">
  <defs>
    <style>
      .cls-1 {
        fill: #f6f6f6;
      }

      .cls-2 {
        fill: url(#linear-gradient);
      }

      .cls-3 {
        fill: url(#linear-gradient-2);
      }

      .cls-4 {
        fill: url(#linear-gradient-3);
      }

      .cls-5 {
        fill: url(#linear-gradient-4);
      }

      .cls-6 {
        fill: url(#linear-gradient-5);
      }

      .cls-7 {
        fill: url(#linear-gradient-6);
      }

      .cls-8 {
        fill: url(#linear-gradient-7);
      }

      .cls-9 {
        fill: url(#linear-gradient-8);
      }

      .cls-10 {
        fill: url(#linear-gradient-9);
      }

      .cls-11 {
        fill: url(#linear-gradient-10);
      }

      .cls-12 {
        fill: url(#linear-gradient-11);
      }

      .cls-13 {
        fill: url(#linear-gradient-12);
      }

      .cls-14 {
        fill: url(#linear-gradient-13);
      }

      .cls-15 {
        fill: url(#linear-gradient-14);
      }

      .cls-16 {
        fill: url(#linear-gradient-15);
      }

      .cls-17 {
        fill: url(#linear-gradient-16);
      }

      .cls-18 {
        fill: url(#linear-gradient-17);
      }

      .cls-19 {
        fill: url(#linear-gradient-18);
      }

      .cls-20 {
        fill: url(#linear-gradient-19);
      }

      .cls-21 {
        fill: url(#linear-gradient-20);
      }

      .cls-22 {
        fill: url(#linear-gradient-21);
      }
    </style>
    <linearGradient id="linear-gradient" x1="43.96" y1="73.88" x2="11.58" y2="8.17" gradientUnits="userSpaceOnUse">
      <stop offset="0" stop-color="#75c9b9"/>
      <stop offset="1" stop-color="#72bde5"/>
    </linearGradient>
    <linearGradient id="linear-gradient-2" x1="45.39" y1="73.18" x2="13.01" y2="7.46" xlink:href="#linear-gradient"/>
    <linearGradient id="linear-gradient-3" x1="48.1" y1="71.84" x2="15.72" y2="6.13" xlink:href="#linear-gradient"/>
    <linearGradient id="linear-gradient-4" x1="49.54" y1="71.14" x2="17.16" y2="5.42" xlink:href="#linear-gradient"/>
    <linearGradient id="linear-gradient-5" x1="52.25" y1="69.8" x2="19.87" y2="4.08" xlink:href="#linear-gradient"/>
    <linearGradient id="linear-gradient-6" x1="53.68" y1="69.09" x2="21.3" y2="3.38" xlink:href="#linear-gradient"/>
    <linearGradient id="linear-gradient-7" x1="56.4" y1="67.76" x2="24.01" y2="2.04" xlink:href="#linear-gradient"/>
    <linearGradient id="linear-gradient-8" x1="43.22" y1="74.25" x2="10.84" y2="8.53" xlink:href="#linear-gradient"/>
    <linearGradient id="linear-gradient-9" x1="47.37" y1="72.2" x2="14.99" y2="6.49" xlink:href="#linear-gradient"/>
    <linearGradient id="linear-gradient-10" x1="51.51" y1="70.16" x2="19.13" y2="4.45" xlink:href="#linear-gradient"/>
    <linearGradient id="linear-gradient-11" x1="55.66" y1="68.12" x2="23.28" y2="2.4" xlink:href="#linear-gradient"/>
    <linearGradient id="linear-gradient-12" x1="57.83" y1="67.05" x2="25.45" y2="1.34" xlink:href="#linear-gradient"/>
    <linearGradient id="linear-gradient-13" x1="42.04" y1="74.83" x2="9.66" y2="9.11" xlink:href="#linear-gradient"/>
    <linearGradient id="linear-gradient-14" x1="46.19" y1="72.79" x2="13.81" y2="7.07" xlink:href="#linear-gradient"/>
    <linearGradient id="linear-gradient-15" x1="50.33" y1="70.74" x2="17.95" y2="5.03" xlink:href="#linear-gradient"/>
    <linearGradient id="linear-gradient-16" x1="54.48" y1="68.7" x2="22.1" y2="2.99" xlink:href="#linear-gradient"/>
    <linearGradient id="linear-gradient-17" x1="40.25" y1="75.71" x2="7.87" y2="10" xlink:href="#linear-gradient"/>
    <linearGradient id="linear-gradient-18" x1="44.4" y1="73.67" x2="12.02" y2="7.95" xlink:href="#linear-gradient"/>
    <linearGradient id="linear-gradient-19" x1="48.54" y1="71.62" x2="16.16" y2="5.91" xlink:href="#linear-gradient"/>
    <linearGradient id="linear-gradient-20" x1="52.69" y1="69.58" x2="20.31" y2="3.87" xlink:href="#linear-gradient"/>
    <linearGradient id="linear-gradient-21" x1="52.17" y1="69.84" x2="19.79" y2="4.13" xlink:href="#linear-gradient"/>
  </defs>
  <title>icon_plumbing_P0</title>
  <path id="Rectangle" class="cls-1" d="M3,0H67a2.9,2.9,0,0,1,3,3V67a2.9,2.9,0,0,1-3,3H3a2.9,2.9,0,0,1-3-3V3A2.9,2.9,0,0,1,3,0Z"/>
  <g>
    <path class="cls-2" d="M26.3,37.1a.6.6,0,0,0-.6.6v.7a.6.6,0,1,0,1.2,0v-.7A.6.6,0,0,0,26.3,37.1Z"/>
    <path class="cls-3" d="M28.9,37.1a.7.7,0,0,0-.7.6v3.9c0,.4.3.6.7.6a.6.6,0,0,0,.6-.6V37.7A.6.6,0,0,0,28.9,37.1Z"/>
    <path class="cls-4" d="M31.5,37.1a.7.7,0,0,0-.7.6v.7a.7.7,0,0,0,.7.6.6.6,0,0,0,.6-.6v-.7A.6.6,0,0,0,31.5,37.1Z"/>
    <path class="cls-5" d="M34,37.1a.6.6,0,0,0-.6.6v3.9a.6.6,0,0,0,.6.6c.4,0,.7-.2.7-.6V37.7A.7.7,0,0,0,34,37.1Z"/>
    <path class="cls-6" d="M36.6,37.1a.6.6,0,0,0-.6.6v.7a.6.6,0,0,0,.6.6.7.7,0,0,0,.7-.6v-.7A.7.7,0,0,0,36.6,37.1Z"/>
    <path class="cls-7" d="M39.2,37.1a.7.7,0,0,0-.7.6v3.9c0,.4.3.6.7.6a.6.6,0,0,0,.6-.6V37.7A.6.6,0,0,0,39.2,37.1Z"/>
    <path class="cls-8" d="M41.8,37.1a.7.7,0,0,0-.7.6v.7a.7.7,0,0,0,.7.6.6.6,0,0,0,.6-.6v-.7A.6.6,0,0,0,41.8,37.1Z"/>
    <path class="cls-9" d="M28.9,43.5a.7.7,0,0,0-.7.7v1.9a.7.7,0,0,0,.7.7.7.7,0,0,0,.6-.7V44.2A.7.7,0,0,0,28.9,43.5Z"/>
    <path class="cls-10" d="M34,43.5a.7.7,0,0,0-.6.7v1.9a.7.7,0,0,0,.6.7.7.7,0,0,0,.7-.7V44.2A.7.7,0,0,0,34,43.5Z"/>
    <path class="cls-11" d="M39.2,43.5a.7.7,0,0,0-.7.7v1.9a.7.7,0,0,0,.7.7.7.7,0,0,0,.6-.7V44.2A.7.7,0,0,0,39.2,43.5Z"/>
    <path class="cls-12" d="M44.3,43.5a.7.7,0,0,0-.6.7v1.9a.7.7,0,0,0,.6.7.7.7,0,0,0,.7-.7V44.2A.7.7,0,0,0,44.3,43.5Z"/>
    <path class="cls-13" d="M44.3,37.1a.6.6,0,0,0-.6.6v3.9a.6.6,0,0,0,.6.6c.4,0,.7-.2.7-.6V37.7A.7.7,0,0,0,44.3,37.1Z"/>
    <path class="cls-14" d="M26.3,40.3c-.4,0-.6.3-.6.7v3.8c0,.4.2.7.6.7s.6-.3.6-.7V41C26.9,40.6,26.7,40.3,26.3,40.3Z"/>
    <path class="cls-15" d="M31.5,40.3a.7.7,0,0,0-.7.7v3.8a.7.7,0,0,0,.7.7.7.7,0,0,0,.6-.7V41A.7.7,0,0,0,31.5,40.3Z"/>
    <path class="cls-16" d="M36.6,40.3a.7.7,0,0,0-.6.7v3.8a.7.7,0,0,0,.6.7.7.7,0,0,0,.7-.7V41A.7.7,0,0,0,36.6,40.3Z"/>
    <path class="cls-17" d="M41.8,40.3a.7.7,0,0,0-.7.7v3.8a.7.7,0,0,0,.7.7.7.7,0,0,0,.6-.7V41A.7.7,0,0,0,41.8,40.3Z"/>
    <path class="cls-18" d="M26.8,46.9h-1c0,.1-.1.2-.1.3v.2a.5.5,0,0,0,.4.6.9.9,0,0,0,.7-.1.9.9,0,0,0,.1-.7C26.9,47.1,26.8,47,26.8,46.9Z"/>
    <path class="cls-19" d="M31.9,46.9a.7.7,0,0,0-.9,0,.4.4,0,0,0-.1.3.6.6,0,0,0,.1.7h.2a.8.8,0,0,0,.7-.1.7.7,0,0,0,.2-.7Z"/>
    <path class="cls-20" d="M37.1,46.9h-.9c-.1.1-.2.2-.2.3a.7.7,0,0,0,.2.7h.2a.9.9,0,0,0,.7-.1.6.6,0,0,0,.1-.7C37.2,47.1,37.1,47,37.1,46.9Z"/>
    <path class="cls-21" d="M42.2,46.9a.7.7,0,0,0-.9,0,.4.4,0,0,0-.1.3c-.1,0-.1.1-.1.2s.1.3.2.5h.2a.5.5,0,0,0,.6-.1.5.5,0,0,0,.3-.5v-.2Z"/>
    <path class="cls-22" d="M35,10A25,25,0,1,0,60,35,25,25,0,0,0,35,10ZM56.5,25.5c-2.1-.4-5.1-2-5.1-3.9V18.1A22.3,22.3,0,0,1,56.5,25.5ZM26.3,31.9a7.2,7.2,0,0,1,7.1-6.4h3.9a7.1,7.1,0,0,1,7,6.4ZM45,33.2a.7.7,0,0,1,.6.7.6.6,0,0,1-.6.6H25.7a.7.7,0,0,1-.7-.6.7.7,0,0,1,.7-.7Zm-11.5-9c.2-.6.7-1.3,1.2-1.3H36c.4,0,.9.7,1.1,1.3Zm3.1-5.8a.7.7,0,0,0-.6.7v2.5H34.7V19.1a1.9,1.9,0,0,1,1.9-2H50.1v1.3ZM35,58.6a23.6,23.6,0,0,1,0-47.2,24,24,0,0,1,13.7,4.4H36.6a3.2,3.2,0,0,0-3.2,3.3v3a3.5,3.5,0,0,0-1.2,2.2A8.5,8.5,0,0,0,25,32.1a1.8,1.8,0,0,0-1.2,2.1,1.9,1.9,0,0,0,1.9,1.6H45a2,2,0,0,0,1.9-1.6,2,2,0,0,0-1.3-2.1,8.4,8.4,0,0,0-7.1-7.8,4.8,4.8,0,0,0-1.2-2.2V19.7H50.1v1.9c0,2.9,4.2,5.1,7,5.2A24.4,24.4,0,0,1,58.6,35,23.6,23.6,0,0,1,35,58.6Z"/>
  </g>
</svg>
