<svg id="Layer_1" data-name="Layer 1" xmlns="http://www.w3.org/2000/svg" xmlns:xlink="http://www.w3.org/1999/xlink" width="70" height="70" viewBox="0 0 70 70">
  <defs>
    <style>
      .cls-1 {
        fill: #f6f6f6;
      }

      .cls-2 {
        fill: url(#linear-gradient);
      }

      .cls-3 {
        fill: url(#linear-gradient-2);
      }

      .cls-4 {
        fill: url(#linear-gradient-3);
      }

      .cls-5 {
        fill: url(#linear-gradient-4);
      }
    </style>
    <linearGradient id="linear-gradient" x1="44.58" y1="60.11" x2="12.58" y2="1.78" gradientUnits="userSpaceOnUse">
      <stop offset="0" stop-color="#75c9b9"/>
      <stop offset="1" stop-color="#72bde5"/>
    </linearGradient>
    <linearGradient id="linear-gradient-2" x1="52.85" y1="55.58" x2="20.85" y2="-2.76" xlink:href="#linear-gradient"/>
    <linearGradient id="linear-gradient-3" x1="34.86" y1="65.45" x2="2.86" y2="7.11" xlink:href="#linear-gradient"/>
    <linearGradient id="linear-gradient-4" x1="56.19" y1="53.75" x2="24.19" y2="-4.59" xlink:href="#linear-gradient"/>
  </defs>
  <title>icon_electrical_E01</title>
  <path id="Rectangle" class="cls-1" d="M3,0H67a2.9,2.9,0,0,1,3,3V67a2.9,2.9,0,0,1-3,3H3a2.9,2.9,0,0,1-3-3V3A2.9,2.9,0,0,1,3,0Z"/>
  <g>
    <path class="cls-2" d="M58.3,30.3H11.7V54.1a2.5,2.5,0,0,0,2.8,2.8H55.4a3.1,3.1,0,0,0,2.2-.8,2.9,2.9,0,0,0,.8-2.1c-.1-4.7-.1-9.5-.1-14.1ZM56.6,55.1a1.7,1.7,0,0,1-1.2.4H14.5c-1,0-1.4-.4-1.4-1.4V31.8H56.9V54A1.6,1.6,0,0,1,56.6,55.1Z"/>
    <path class="cls-3" d="M55.3,16.8H48.1v3.4H44.7V15.3a2.1,2.1,0,0,0-2.2-2.2H27.8a1.9,1.9,0,0,0-2.1,2.1v5H21.9V16.8H14.7v3.5H10v5.5H60V20.3H55.3Zm3.3,4.9v2.7H11.4V21.7h4.7V18.2h4.4v3.5h6.7V15.2c0-.5.1-.7.6-.7H42.5l.6.2a.8.8,0,0,1,.2.6v6.4h6.2V18.2h4.3v3.5Z"/>
    <path class="cls-4" d="M22.5,35.7H19.4v2.8H16.5v3.2h2.8v3h3.2v-3h2.9V38.4H22.5Z"/>
    <path class="cls-5" d="M44.2,41.7h9.1V38.6H44.2Z"/>
  </g>
</svg>
