<svg id="Layer_1" data-name="Layer 1" xmlns="http://www.w3.org/2000/svg" xmlns:xlink="http://www.w3.org/1999/xlink" width="70" height="70" viewBox="0 0 70 70">
  <defs>
    <style>
      .cls-1 {
        fill: #f6f6f6;
      }

      .cls-2 {
        fill: url(#linear-gradient);
      }

      .cls-3 {
        fill: url(#linear-gradient-2);
      }

      .cls-4 {
        fill: url(#linear-gradient-3);
      }

      .cls-5 {
        fill: url(#linear-gradient-4);
      }

      .cls-6 {
        fill: url(#linear-gradient-5);
      }
    </style>
    <linearGradient id="linear-gradient" x1="53.56" y1="70.02" x2="16.2" y2="1.28" gradientUnits="userSpaceOnUse">
      <stop offset="0" stop-color="#75c9b9"/>
      <stop offset="1" stop-color="#72bde5"/>
    </linearGradient>
    <linearGradient id="linear-gradient-2" x1="41.8" y1="76.42" x2="4.43" y2="7.68" xlink:href="#linear-gradient"/>
    <linearGradient id="linear-gradient-3" x1="47.11" y1="73.53" x2="9.74" y2="4.79" xlink:href="#linear-gradient"/>
    <linearGradient id="linear-gradient-4" x1="52.25" y1="70.74" x2="14.89" y2="1.99" xlink:href="#linear-gradient"/>
    <linearGradient id="linear-gradient-5" x1="49.95" y1="71.99" x2="12.58" y2="3.25" xlink:href="#linear-gradient"/>
  </defs>
  <title>icon_housekeeping_H0</title>
  <path id="Rectangle" class="cls-1" d="M3,0H67a2.9,2.9,0,0,1,3,3V67a2.9,2.9,0,0,1-3,3H3a2.9,2.9,0,0,1-3-3V3A2.9,2.9,0,0,1,3,0Z"/>
  <g>
    <path class="cls-2" d="M60,59.9,58.7,47.7v-.6h0V44.9a4.3,4.3,0,0,0-4.4-4.3h-.9v-.8a2.4,2.4,0,0,0-2.2-2.4V10.5a2.9,2.9,0,0,0-2.8-2.8,2.8,2.8,0,0,0-2.8,2.8V37.4a1.7,1.7,0,0,0-1,.3l.3-3.2h0a1.7,1.7,0,0,0-.5-1.2,1.6,1.6,0,0,0-1.2-.6h-.2a4.1,4.1,0,0,0-1.3-1.9,4.3,4.3,0,0,0-3.6-.8,4.2,4.2,0,0,0-3.8-2.3l-1.5.2a4.2,4.2,0,0,0-2.9-1.1A4.1,4.1,0,0,0,27,27.8l-1.6-.2a4,4,0,0,0-3.6,2.2,4.1,4.1,0,0,0-3.5,1.5H16.6A2.6,2.6,0,0,0,14,33.9v13a2.6,2.6,0,0,0,2.6,2.6h.5L18,59.8a2.6,2.6,0,0,0,2.6,2.5H57.8a2.2,2.2,0,0,0,1.6-.7A1.9,1.9,0,0,0,60,59.9Zm-5.3-9.4a1,1,0,0,0-1.1,1v9.1h-.5V53.7a1.1,1.1,0,0,0-1.1-1,1.1,1.1,0,0,0-1,1v6.9h-.5V55.9a1.1,1.1,0,0,0-2.2,0v4.7H44.7V53.7a1,1,0,0,0-1-1,1.1,1.1,0,0,0-1.1,1v6.9h-.5V51.5a1,1,0,0,0-1.1-1,.9.9,0,0,0-1,1v9.1H38.8a.6.6,0,0,1-.5-.2v-.3L39.6,48H57l1.3,12.1c.1.2,0,.3-.1.4H55.7V51.5A.9.9,0,0,0,54.7,50.5ZM16.6,47.8a1,1,0,0,1-1-.9v-13a.8.8,0,0,1,.2-.5h0a.9.9,0,0,1,.8-.4h7.9a.9.9,0,0,1,.7.3,1.1,1.1,0,0,1,.2.6v.3h0V46.9a.9.9,0,0,1-.9.9H16.6ZM29.8,28.3a2.3,2.3,0,0,1,2,1.1,1.1,1.1,0,0,0,1.2.2,1.7,1.7,0,0,1,1.2-.4,2.6,2.6,0,0,1,2.5,2,.7.7,0,0,0,.4.5.8.8,0,0,0,.7,0,2.7,2.7,0,0,1,1.2-.3,2.4,2.4,0,0,1,2.1,1.2H36.9v6.8a.7.7,0,1,1-1.4,0V32.6H33.8v1.6h0v1.1a.8.8,0,0,1-.7.8.8.8,0,0,1-.7-.7V32.6H26.8a2.8,2.8,0,0,0-2.3-1.3H22.8l.3-.4a2.4,2.4,0,0,1,2.3-1.7,2.8,2.8,0,0,1,1.3.4.9.9,0,0,0,1.1-.2A2.4,2.4,0,0,1,29.8,28.3ZM48.3,9.4a1.2,1.2,0,0,1,1.2,1.1V37.4H47.2V10.5A1.1,1.1,0,0,1,48.3,9.4ZM49.5,39h1.4a.9.9,0,0,1,.8.8v2.4H44.9V39.8a.9.9,0,0,1,.8-.8h3.8ZM27.1,35.5V34.3h3.6v1.3a5.6,5.6,0,0,0,.4,1.2,2.5,2.5,0,0,0,2.7.9v.2H29.9l-.4-1.4a.9.9,0,0,0-1-.6.8.8,0,0,0-.5,1l.3,1H27.1Zm14.3,2v.4H38.6V34.3h3.1l-.3,3.2Zm-7.6,2.1a2.4,2.4,0,0,0,2.4,2.2,2.3,2.3,0,0,0,2.3-2.2h2.7v1.1A4.4,4.4,0,0,0,38,44.4v1.9a8.1,8.1,0,0,1-7.4-6l-.2-.7Zm23.1,6.7H39.7V44.5a2.5,2.5,0,0,1,1.8-2.1l.8-.2h1V43a.9.9,0,0,0,.8.9h8.4a.9.9,0,0,0,.8-.9v-.8h.9a2.7,2.7,0,0,1,2.7,2.7ZM24.5,49.5a2.6,2.6,0,0,0,2.6-2.6V39.6h1.6l.4,1.1a9.9,9.9,0,0,0,8.8,7.2l-1.3,12a1.7,1.7,0,0,0,.1.7H20.6a.9.9,0,0,1-.9-.9l-.9-10.2Zm18.8-9.7v.8h-.5v-1h.4Z"/>
    <path class="cls-3" d="M14.3,25.1h.4l.3-.2h.3v-.2h.1v-.2h.1v-.4h0v-.2h-.1v-.2h0v-.2h-.1v-.2h-.2v-.2h.3v-.4h0v-.4h-.1v-.2H15v-.2H10v.5h0v1h0v.5h0v.5h0v1.2h0v.2h0v.5h0V25h4.3Zm-2.6-4h0v-.2h1.9v.2H11.7Zm2.1,2.4H11.7v-.4h0v-.2h2.1Z"/>
    <polygon class="cls-4" points="20.7 19.2 20.5 19.2 20.4 19.2 20.4 19.3 20.3 19.4 20.3 20 20.3 20.1 20.4 20.7 20.4 20.8 20.3 21.3 20.3 21.4 20.3 21.5 20.2 21.5 20.1 21.5 20 21.5 19.5 21.5 19 21.5 18.8 21.5 18.5 21.6 18.4 21.6 18.3 21.5 18.2 21.5 18.2 21.5 18.1 21.4 18.1 21.3 18.1 20.7 18.1 20.1 18.2 20 18.2 19.6 18.2 19.5 18.2 19.4 18.1 19.3 18.1 19.2 18 19.2 17.8 19.2 17.7 19.2 17.4 19.2 17.2 19.2 16.9 19.2 16.8 19.2 16.6 19.2 16.5 19.3 16.4 19.3 16.4 19.4 16.4 19.6 16.4 19.9 16.5 20 16.5 20.4 16.5 20.6 16.4 21 16.4 21.2 16.4 21.7 16.4 22.2 16.4 22.3 16.5 22.8 16.5 22.9 16.4 23.3 16.4 23.5 16.4 23.9 16.4 24.6 16.4 24.9 16.4 25 16.4 25.1 16.4 25.2 16.5 25.2 16.5 25.3 16.6 25.3 16.7 25.3 16.8 25.3 17.2 25.3 17.4 25.3 17.7 25.3 17.8 25.3 18 25.3 18.1 25.3 18.2 25.2 18.2 25.1 18.2 24.9 18.2 24.5 18.1 24.4 18.2 23.9 18.2 23.7 18.2 23.2 18.2 23.1 18.2 23 18.3 23 18.4 23 18.8 23 19.5 23 19.6 23 20 23 20.2 23 20.3 23 20.3 23.1 20.3 23.2 20.3 23.7 20.3 23.9 20.3 24.4 20.3 24.5 20.4 25.1 20.4 25.2 20.4 25.3 20.5 25.3 20.7 25.3 21.1 25.3 21.2 25.3 21.7 25.3 21.8 25.3 21.9 25.3 22 25.2 22 25.1 22 25 22 24.8 22 24.6 22 24.5 22 23.9 22 23.5 22 23.3 22 22.9 22 22.8 22 22.3 22 22.2 22.1 21.7 22.1 21.6 22 21.2 22 21 22 20.6 22 20.4 22 20 22 19.9 22 19.5 22 19.4 22 19.3 21.9 19.2 21.8 19.2 21.8 19.2 21.6 19.2 21.2 19.2 21.1 19.2 20.7 19.2"/>
    <polygon class="cls-5" points="23.2 24.7 23.2 24.9 23.2 25 23.2 25.2 23.2 25.2 23.3 25.3 23.3 25.3 23.8 25.3 23.9 25.3 24.3 25.3 24.5 25.3 24.8 25.3 24.9 25.3 24.9 25.2 24.9 25.1 25 25 25 24.9 24.9 24.7 24.9 24.6 25 24.1 25 23.5 25 23.4 25 23.4 25.1 23.4 25.1 23.5 25.2 23.6 25.5 23.9 25.6 24 25.9 24.3 26 24.4 26.2 24.8 26.3 24.9 26.6 25.2 26.7 25.3 26.8 25.3 27.3 25.3 27.4 25.3 28 25.3 28.1 25.3 28.6 25.3 28.7 25.3 28.7 25.3 28.7 25.2 28.8 25.2 28.7 25.1 28.4 24.7 28.3 24.6 27.9 24.3 27.8 24.2 27.5 23.8 27.4 23.7 27.1 23.3 27 23.2 26.6 22.8 26.5 22.7 26.2 22.3 26.2 22.2 26.1 22.2 26.2 22.1 26.2 22 26.3 21.9 26.5 21.8 26.6 21.6 26.9 21.3 27 21.2 27.3 20.8 27.4 20.7 27.7 20.3 27.8 20.2 28.1 19.9 28.2 19.8 28.5 19.4 28.6 19.3 28.6 19.3 28.6 19.3 28.5 19.3 28.4 19.3 28.1 19.3 28 19.3 27.7 19.3 27.1 19.2 27 19.2 26.6 19.2 26.5 19.3 26.5 19.3 26.2 19.7 26.1 19.8 25.8 20.1 25.4 20.7 25.1 21 25 21.1 25 21.1 25 21 24.9 20.5 24.9 20.4 24.9 20 24.9 19.8 25 19.5 25 19.4 25 19.4 24.9 19.3 24.9 19.3 24.8 19.3 24.4 19.2 24.3 19.2 23.9 19.3 23.8 19.3 23.5 19.2 23.4 19.2 23.3 19.2 23.3 19.3 23.2 19.4 23.2 19.8 23.2 20 23.2 21 23.2 21.1 23.2 21.6 23.2 21.7 23.2 22.2 23.2 22.8 23.2 22.9 23.2 23.4 23.2 23.5 23.2 24.1 23.2 24.6 23.2 24.7"/>
    <polygon class="cls-6" points="15.9 16.6 15.9 17 15.9 17.3 15.9 17.4 15.9 17.5 16 17.5 16.1 17.5 16.5 17.6 17.8 17.5 18 17.5 19.7 17.5 19.9 17.5 20.5 17.6 20.8 17.6 20.9 17.5 21 17.5 21.1 17.4 21.1 17.2 21.1 17 21.1 16.6 21.1 16.4 21.1 16 21.1 15.8 21.1 15.7 21.1 15.6 21 15.6 20.1 15.6 19.9 15.6 19.9 15.5 19.8 15.4 19.8 15.3 19.8 14.5 19.8 14.3 19.8 13.6 19.8 13.4 19.8 12.6 19.8 12.4 19.8 11.6 19.8 9.6 19.8 9.4 19.9 8.9 19.9 8.8 19.8 8.6 19.8 8.5 19.7 8.4 19.6 8.3 19.5 8.4 19.3 8.4 19.1 8.5 18.8 8.6 18.6 8.7 17.9 8.9 17.7 9 17 9.2 16.9 9.3 16.5 9.4 16.3 9.5 16.2 9.5 16.1 9.6 16 9.6 16 9.7 15.9 9.9 15.9 10.1 16 10.5 16 10.7 15.9 11 15.9 11.2 15.9 11.3 16 11.5 16 11.5 16.1 11.6 16.3 11.6 16.5 11.6 16.7 11.5 17.1 11.4 17.3 11.4 17.3 11.4 17.4 11.5 17.4 11.6 17.3 12.1 17.3 12.4 17.3 12.6 17.3 12.9 17.4 13.1 17.4 13.4 17.4 13.6 17.3 14.3 17.3 14.5 17.3 15.4 17.3 15.5 17.2 15.6 17.1 15.6 16.8 15.6 16.6 15.6 16.1 15.6 15.9 15.6 15.9 15.7 15.9 15.8 15.9 16 15.9 16.4 15.9 16.6"/>
  </g>
</svg>
