<svg id="Layer_1" data-name="Layer 1" xmlns="http://www.w3.org/2000/svg" xmlns:xlink="http://www.w3.org/1999/xlink" width="374.5" height="89.4" viewBox="0 0 374.5 89.4">
  <defs>
    <style>
      .cls-1 {
        fill: none;
      }

      .cls-2 {
        fill: url(#linear-gradient);
      }

      .cls-3, .cls-5, .cls-7 {
        fill: #fff;
      }

      .cls-3 {
        opacity: 0.3;
      }

      .cls-3, .cls-4, .cls-5 {
        isolation: isolate;
      }

      .cls-5 {
        font-size: 16px;
        font-family: Montserrat-Medium, Montserrat;
      }

      .cls-6 {
        clip-path: url(#clip-path);
      }
    </style>
    <linearGradient id="linear-gradient" x1="405.55" y1="126.36" x2="21.53" y2="-32.27" gradientUnits="userSpaceOnUse">
      <stop offset="0" stop-color="#75c9b9"/>
      <stop offset="1" stop-color="#72bde5"/>
    </linearGradient>
    <clipPath id="clip-path">
      <rect class="cls-1" x="309.1" y="14.6" width="50" height="50.98"/>
    </clipPath>
  </defs>
  <title>banner_civil_M0</title>
  <g id="Page-1">
    <g id="UI---Screen-7---v2">
      <g id="Group-2">
        <path id="Path-4" class="cls-2" d="M0,72.4C71,74,112,68.2,210.5,71c58.9,1.7,113.3,7.8,164,18.4V0H0Z"/>
        <rect id="Rectangle-Copy-2" class="cls-3" x="23.5" y="22" width="47" height="7" rx="3.3" ry="3.3"/>
        <path id="Rectangle-Copy-4" class="cls-3" d="M189.8,29h40.5a3.3,3.3,0,0,1,3.3,3.3v.5a3.2,3.2,0,0,1-3.2,3.2H189.8a3.3,3.3,0,0,1-3.2-3.2v-.5A3.3,3.3,0,0,1,189.8,29Z"/>
        <path id="Rectangle-Copy-3" class="cls-3" d="M67.8,35h40.5a3.2,3.2,0,0,1,3.2,3.2v.5a3.3,3.3,0,0,1-3.2,3.3H67.8a3.3,3.3,0,0,1-3.2-3.2v-.5A3.3,3.3,0,0,1,67.8,35Z"/>
        <path id="Rectangle-Copy-5" class="cls-3" d="M236.8,42h40.5a3.3,3.3,0,0,1,3.3,3.3v.5a3.2,3.2,0,0,1-3.2,3.2H236.8a3.2,3.2,0,0,1-3.2-3.2v-.5A3.3,3.3,0,0,1,236.8,42Z"/>
        <g id="sweep">
          <g id="_" data-name="+" class="cls-4">
            <text class="cls-5" transform="translate(298.5 26)">+</text>
          </g>
          <g id="_-copy" data-name="+-copy" class="cls-4">
            <text class="cls-5" transform="translate(336.5 14)">+</text>
          </g>
        </g>
      </g>
    </g>
  </g>
  <g class="cls-6">
    <g>
      <path class="cls-7" d="M365.1,63.2H317.8a8.9,8.9,0,0,1-.7-6.5,6.1,6.1,0,0,1,.7-1.4,13,13,0,0,1,1-1.5,18.5,18.5,0,0,1,5.3-4.1l1.1-.5.5-.3h.1l.7-.3a18.1,18.1,0,0,0,4.5-1.8,12.6,12.6,0,0,0,2.9-2,13.8,13.8,0,0,0,4-6.4,5.7,5.7,0,0,0,.4-1.4,21.6,21.6,0,0,0,.6-3.8v-.3c0-.5.1-1,.1-1.4l.3-1.5.3-1.5a28.6,28.6,0,0,1,1.5-4.1c.2-.5.5-.9.7-1.4l.9-1.4.9-1.3.3-.4,1.2-1.3a21.2,21.2,0,0,1,2.6-2.6l2-1.4h.2l-.7-1.2a9.1,9.1,0,0,0-2,1.3h-3.9v3.7l-.8,1.1-.6.8h-.1V14.6H325.1v7.1h15.8a8.3,8.3,0,0,0-.7,1.3v.2h-4.8v7.1h2.5a5,5,0,0,0-.2,1.2v.3H325.1v7.1h11.1a12.2,12.2,0,0,1-2.3,3.9V39.9H317.2v6.9h10.3l-1.4.5-1.1.4-.4.2-.9.4-1.1.7H306.9v7.1h9c0,.1-.1.1-.1.2s-.1.3-.1.4a3.1,3.1,0,0,0-.2.8H299.8v7.1h65.3ZM344.8,16.1h.7l-.4.3-.3.4Zm-4.5,4.2H326.5V16.1h13.8Zm-3.6,8.5V24.6h2.7a22.3,22.3,0,0,0-1.3,3.9.4.4,0,0,1-.1.3Zm-10.2,8.6V33.3h10.9a14.4,14.4,0,0,1-.5,3.7c-.1.1-.1.3-.2.4Zm-7.9,8V41.3h13.8v2.8l-1.8,1.3ZM301.3,63.2V59h14a14.5,14.5,0,0,0,.4,2.8l.5,1.4Zm7.1-8.6V50.4h12a18.2,18.2,0,0,0-3.4,3.4,2.2,2.2,0,0,1-.5.8Z"/>
      <path class="cls-7" d="M323.6,14.6H306.9v7.1h16.7Zm-1.4,5.7H308.4V16.1h13.8Z"/>
      <path class="cls-7" d="M315.7,23.2H299v7.1h16.7Zm-1.4,5.6H300.5V24.6h13.8Z"/>
      <path class="cls-7" d="M333.9,23.2H317.2v7.1h16.7Zm-1.5,5.6H318.6V24.6h13.8Z"/>
      <path class="cls-7" d="M306.9,38.9h16.7V31.8H306.9Zm1.5-5.6h13.8v4.1H308.4Z"/>
      <path class="cls-7" d="M315.7,40.4H299v7.1h16.7ZM314.3,46H300.5V41.8h13.8Z"/>
      <path class="cls-7" d="M342,27.5a1.8,1.8,0,0,0-1.1,1.7l.3,14.7a1.8,1.8,0,0,0,.8,1.5,1.9,1.9,0,0,0,1.8.1l3.9-1.8,1,2.1-.9.4a.8.8,0,0,0-.3.9l.5,1a1.6,1.6,0,0,0,1.4.9l.3.6h-.4a.6.6,0,0,0-.1.8l2.8,5.9a2.9,2.9,0,0,0,1.9,1.7l1.1.2a4,4,0,0,0,1.5-.3,3.4,3.4,0,0,0,1.7-2,3.1,3.1,0,0,0-.1-2.5l-2.8-6-.2-.2h-.9l-.3-.6.3-.5a1.4,1.4,0,0,0-.1-1.1l-.4-1c-.1-.1-.2-.3-.4-.3a.4.4,0,0,0-.5,0l-.9.4-1-2.1,3.9-1.9a2.2,2.2,0,0,0,.9-1c0-.1.1-.3.1-.4a1.9,1.9,0,0,0-.6-1.6L344,27.8A1.8,1.8,0,0,0,342,27.5Zm5.2,12.1v-.3c0-.2.1-.2.2-.3a.5.5,0,0,1,.6.2l2.7,5.7-.8.4Zm7.2,9.2,2.5,5.3h0a2.1,2.1,0,0,1-.4,2.4l-3.4-7.1Zm.9,8.3a2,2,0,0,1-2.1-1.2l-2.6-5.3,1.3-.6ZM350.9,49l-.3-.5,2.2-1,.2.5Zm1.9-3.6v.4c.1,0,0,.2-.1.2l-3.4,1.6c-.1.1-.2,0-.2-.1l-.2-.3Zm1.7-6.7c0,.2-.1.3-.3.4l-3.9,1.8-1.1-2.3a1.8,1.8,0,0,0-2.3-.8,1.9,1.9,0,0,0-1,1,2.3,2.3,0,0,0,.1,1.4l1.1,2.3-3.9,1.8h0c-.2.1-.3.1-.4,0s-.3-.2-.3-.4l-.2-14.7a.5.5,0,0,1,.3-.5h.2l.3.2,11.2,9.5A.8.8,0,0,1,354.5,38.7Z"/>
    </g>
  </g>
</svg>
