<svg id="Layer_1" data-name="Layer 1" xmlns="http://www.w3.org/2000/svg" xmlns:xlink="http://www.w3.org/1999/xlink" width="374.5" height="89.4" viewBox="0 0 374.5 89.4">
  <defs>
    <style>
      .cls-1 {
        fill: none;
      }

      .cls-2 {
        fill: url(#linear-gradient);
      }

      .cls-3, .cls-5, .cls-7 {
        fill: #fff;
      }

      .cls-3 {
        opacity: 0.3;
      }

      .cls-3, .cls-4, .cls-5 {
        isolation: isolate;
      }

      .cls-5 {
        font-size: 16px;
        font-family: Montserrat-Medium, Montserrat;
      }

      .cls-6 {
        clip-path: url(#clip-path);
      }
    </style>
    <linearGradient id="linear-gradient" x1="405.55" y1="126.36" x2="21.53" y2="-32.27" gradientUnits="userSpaceOnUse">
      <stop offset="0" stop-color="#75c9b9"/>
      <stop offset="1" stop-color="#72bde5"/>
    </linearGradient>
    <clipPath id="clip-path">
      <rect class="cls-1" x="310.2" y="16.5" width="50" height="50"/>
    </clipPath>
  </defs>
  <title>banner_civil_M0</title>
  <g id="Page-1">
    <g id="UI---Screen-7---v2">
      <g id="Group-2">
        <path id="Path-4" class="cls-2" d="M0,72.4C71,74,112,68.2,210.5,71c58.9,1.7,113.3,7.8,164,18.4V0H0Z"/>
        <rect id="Rectangle-Copy-2" class="cls-3" x="23.5" y="22" width="47" height="7" rx="3.3" ry="3.3"/>
        <rect id="Rectangle-Copy-4" class="cls-3" x="186.5" y="29" width="47" height="7" rx="3.3" ry="3.3"/>
        <rect id="Rectangle-Copy-3" class="cls-3" x="64.5" y="35" width="47" height="7" rx="3.3" ry="3.3"/>
        <rect id="Rectangle-Copy-5" class="cls-3" x="233.5" y="42" width="47" height="7" rx="3.3" ry="3.3"/>
        <g id="sweep">
          <g id="_" data-name="+" class="cls-4">
            <text class="cls-5" transform="translate(298.5 26)">+</text>
          </g>
          <g id="_-copy" data-name="+-copy" class="cls-4">
            <text class="cls-5" transform="translate(336.5 14)">+</text>
          </g>
        </g>
      </g>
    </g>
  </g>
  <g class="cls-6">
    <g>
      <path class="cls-7" d="M316.5,65.1a8.1,8.1,0,0,1-.6-6.4,9.4,9.4,0,0,1,.6-1.5,7.1,7.1,0,0,1,1-1.4,16.9,16.9,0,0,1,5.3-4.1l1.1-.6.5-.2a.1.1,0,0,1,.1-.1l.8-.2a32.2,32.2,0,0,0,4.5-1.9,15.4,15.4,0,0,0,2.8-1.9,15.8,15.8,0,0,0,4.1-6.5,10.3,10.3,0,0,1,.4-1.4,35.3,35.3,0,0,0,.5-3.8v-.3c0-.5.1-1,.1-1.4l.3-1.5.3-1.4a21.9,21.9,0,0,1,1.5-4.1l.7-1.5.9-1.4a6.4,6.4,0,0,1,1-1.3c.1-.1.1-.2.2-.4l1.2-1.3a19.4,19.4,0,0,1,2.6-2.5,16.3,16.3,0,0,1,2-1.5h.2l-.7-1.2-2,1.3H342v3.7a7.6,7.6,0,0,1-.8,1.1l-.6.8a.3.3,0,0,0-.1.2V16.5H323.8v7h15.9a10,10,0,0,0-.8,1.4H334v7h2.5c-.1.5-.1,1-.2,1.5H323.8v6.9h11.3a12.4,12.4,0,0,1-2.5,4.4V41.8H315.9v6.9h10.3l-1.4.5-1.1.4-.4.2-.8.4H305.7v7h9.2l-.4,1c0,.2-.1.3-.1.4H298.5v7h16.6l.3.6.2.3h48.2V65.1ZM344.2,18c-.1.1-.3.2-.4.4l-.3.3V18Zm-5.1,4.1H325.2V18h13.9Zm-3.7,8.4V26.4h2.8a21.9,21.9,0,0,0-1.4,4.1Zm-10.2,8.4V34.8h11V35a20,20,0,0,1-.6,3.9Zm-7.9,8.4V43.2h13.8v2.9l-1.8,1.2Zm-10.2,8.5V51.7H320a15.1,15.1,0,0,0-4.3,4.1Zm6.7,8.4H300V60.1h13.8Z"/>
      <path class="cls-7" d="M322.4,16.5H305.7v7h16.7Zm-1.5,5.6H307.1V18h13.8Z"/>
      <path class="cls-7" d="M314.4,24.9H297.7v7h16.7ZM313,30.5H299.2V26.4H313Z"/>
      <path class="cls-7" d="M332.6,24.9H315.9v7h16.7Zm-1.5,5.6H317.3V26.4h13.8Z"/>
      <path class="cls-7" d="M305.7,40.3h16.7V33.4H305.7Zm1.4-5.5h13.8v4.1H307.1Z"/>
      <path class="cls-7" d="M314.4,41.8H297.7v6.9h16.7ZM313,47.3H299.2V43.2H313Z"/>
      <path class="cls-7" d="M339.1,36.7v5.5a1.1,1.1,0,0,0,1.1,1.2h1.1v.5a.6.6,0,1,0,1.2,0v-.5h1v.5a.6.6,0,0,0,.6.6.6.6,0,0,0,.6-.6v-.5h1V45a.6.6,0,0,0,.6.6.7.7,0,0,0,.7-.6V43.4h8.7a1.2,1.2,0,0,0,1.2-1.2V40.1h.4a.5.5,0,0,1,.5.5v3.6c0,.2-.1.4-.3.4l-8.6,3.1h-.3a.1.1,0,0,0-.1.1h0v.2h0v4.3h-1a.6.6,0,0,0-.6.6v8.9a.6.6,0,0,0,.6.6h3.3a.7.7,0,0,0,.7-.6V53.2a.7.7,0,0,0-.7-.6h-1V48.7l8.2-2.9a1.7,1.7,0,0,0,1.2-1.6V40.6a1.8,1.8,0,0,0-1.8-1.8h-.4V36.7a1.2,1.2,0,0,0-1.2-1.2H340.2A1.1,1.1,0,0,0,339.1,36.7Zm16.5,2.8v2.6H340.3V36.8h15.3v2.6h0Zm-5.5,21.9h-2V53.9h2Z"/>
      <path class="cls-7" d="M354,39.9H343.6a.7.7,0,0,0-.7.7.7.7,0,0,0,.7.6H354a.7.7,0,0,0,.7-.6A.7.7,0,0,0,354,39.9Z"/>
      <path class="cls-7" d="M341.4,40.1a.7.7,0,0,0-.1.5.6.6,0,0,0,.1.4l.5.2.5-.2a.6.6,0,0,0,.1-.4.7.7,0,0,0-.1-.5A.9.9,0,0,0,341.4,40.1Z"/>
      <path class="cls-7" d="M343.6,45.1c-.1.1-.1.2-.1.4a.6.6,0,0,0,.2.5.5.5,0,0,0,.4.2l.5-.2a.9.9,0,0,0,.1-.5c0-.2,0-.3-.1-.4A.7.7,0,0,0,343.6,45.1Z"/>
      <path class="cls-7" d="M341.9,44.9a.6.6,0,0,0-.6.6v1.1c0,.4.2.7.6.7s.6-.3.6-.7V45.5A.6.6,0,0,0,341.9,44.9Z"/>
    </g>
  </g>
</svg>
