<svg id="Layer_1" data-name="Layer 1" xmlns="http://www.w3.org/2000/svg" xmlns:xlink="http://www.w3.org/1999/xlink" width="374.5" height="89.4" viewBox="0 0 374.5 89.4">
  <defs>
    <style>
      .cls-1 {
        fill: url(#linear-gradient);
      }

      .cls-2, .cls-4, .cls-5 {
        fill: #fff;
      }

      .cls-2 {
        opacity: 0.3;
      }

      .cls-2, .cls-3, .cls-4 {
        isolation: isolate;
      }

      .cls-4 {
        font-size: 16px;
        font-family: Montserrat-Medium, Montserrat;
      }
    </style>
    <linearGradient id="linear-gradient" x1="405.55" y1="126.36" x2="21.53" y2="-32.27" gradientUnits="userSpaceOnUse">
      <stop offset="0" stop-color="#75c9b9"/>
      <stop offset="1" stop-color="#72bde5"/>
    </linearGradient>
  </defs>
  <title>banner_electrical_E01</title>
  <g id="Page-1">
    <g id="UI---Screen-7---v2">
      <g id="Group-2">
        <path id="Path-4" class="cls-1" d="M0,72.4C71,74,112,68.2,210.5,71c58.9,1.7,113.3,7.8,164,18.4V0H0Z"/>
        <rect id="Rectangle-Copy-2" class="cls-2" x="23.5" y="22" width="47" height="7" rx="3.3" ry="3.3"/>
        <path id="Rectangle-Copy-4" class="cls-2" d="M189.8,29h40.5a3.2,3.2,0,0,1,3.2,3.2v.5a3.2,3.2,0,0,1-3.2,3.2H189.8a3.3,3.3,0,0,1-3.2-3.2v-.5A3.3,3.3,0,0,1,189.8,29Z"/>
        <rect id="Rectangle-Copy-3" class="cls-2" x="64.5" y="35" width="47" height="7" rx="3.3" ry="3.3"/>
        <rect id="Rectangle-Copy-5" class="cls-2" x="233.5" y="42" width="47" height="7" rx="3.2" ry="3.2"/>
        <g id="sweep">
          <g id="_" data-name="+" class="cls-3">
            <text class="cls-4" transform="translate(298.5 26)">+</text>
          </g>
          <g id="_-copy" data-name="+-copy" class="cls-3">
            <text class="cls-4" transform="translate(336.5 14)">+</text>
          </g>
        </g>
      </g>
    </g>
  </g>
  <g>
    <path class="cls-5" d="M341.8,34.8h-3.3V29.2a1.2,1.2,0,0,0-.8-1,1.1,1.1,0,0,0-1.2.5l-6.6,10.2a1.1,1.1,0,0,0,.9,1.7h3.3v5.5a1,1,0,0,0,.8,1h.3a1.2,1.2,0,0,0,.9-.5l6.6-10.3a1.1,1.1,0,0,0,0-1.1A1.1,1.1,0,0,0,341.8,34.8Zm-6.3,10.1V39.2h-4.1l5.6-8.8v5.8h4.1Z"/>
    <path class="cls-5" d="M345.8,21.2H326.7a2.3,2.3,0,0,0-2.3,2.4V42.5a2.1,2.1,0,0,0,.7,1.7l1.6,1.7-1.3,1.3a2.3,2.3,0,0,0-.7,1.7v6.3a2.3,2.3,0,0,0,2.3,2.3h2.1v4.1a2.4,2.4,0,0,0,4.7,0V57.5h4.8v4.1a2.4,2.4,0,0,0,4.7,0V57.5h2.2a2.3,2.3,0,0,0,2.4-2.3V48.9a2.8,2.8,0,0,0-.7-1.7l-1.4-1.3,1.7-1.7a2.4,2.4,0,0,0,.7-1.7V23.6A2.4,2.4,0,0,0,345.8,21.2Zm.9,21.3a1.4,1.4,0,0,1-.2.7l-2.7,2.7,2.4,2.3a1.4,1.4,0,0,1,.2.7v6.3a.9.9,0,0,1-.9.9h-3.7v5.5a.9.9,0,0,1-1.8,0V56.1h-7.7v5.5a.9.9,0,0,1-.9.9.9.9,0,0,1-.8-.9V56.1H327a.9.9,0,0,1-.9-.9V48.9a.9.9,0,0,1,.3-.7l2.4-2.3-2.7-2.7a.9.9,0,0,1-.3-.7V23.6a.9.9,0,0,1,.9-.9h19.1a.9.9,0,0,1,.9.9Z"/>
    <path class="cls-5" d="M336.3,16.4a25,25,0,1,0,25,25A25,25,0,0,0,336.3,16.4Zm0,48.5a23.6,23.6,0,1,1,23.5-23.5A23.6,23.6,0,0,1,336.3,64.9Z"/>
  </g>
</svg>
