<svg id="Layer_1" data-name="Layer 1" xmlns="http://www.w3.org/2000/svg" xmlns:xlink="http://www.w3.org/1999/xlink" width="374.5" height="89.4" viewBox="0 0 374.5 89.4">
  <defs>
    <style>
      .cls-1 {
        fill: url(#linear-gradient);
      }

      .cls-2, .cls-4, .cls-5 {
        fill: #fff;
      }

      .cls-2 {
        opacity: 0.3;
      }

      .cls-2, .cls-3, .cls-4 {
        isolation: isolate;
      }

      .cls-4 {
        font-size: 16px;
        font-family: Montserrat-Medium, Montserrat;
      }
    </style>
    <linearGradient id="linear-gradient" x1="405.55" y1="126.36" x2="21.53" y2="-32.27" gradientUnits="userSpaceOnUse">
      <stop offset="0" stop-color="#75c8b8"/>
      <stop offset="1" stop-color="#71bbe4"/>
    </linearGradient>
  </defs>
  <title>banner_pumbing_P0</title>
  <g id="Page-1">
    <g id="UI---Screen-7---v2">
      <g id="Group-2">
        <path id="Path-4" class="cls-1" d="M0,72.4C71,74,112,68.2,210.5,71c58.9,1.7,113.3,7.8,164,18.4V0H0Z"/>
        <rect id="Rectangle-Copy-2" class="cls-2" x="23.5" y="22" width="47" height="7" rx="3.3" ry="3.3"/>
        <rect id="Rectangle-Copy-4" class="cls-2" x="186.5" y="29" width="47" height="7" rx="3.3" ry="3.3"/>
        <rect id="Rectangle-Copy-3" class="cls-2" x="64.5" y="35" width="47" height="7" rx="3.3" ry="3.3"/>
        <path id="Rectangle-Copy-5" class="cls-2" d="M236.8,42h40.5a3.2,3.2,0,0,1,3.2,3.2v.5a3.2,3.2,0,0,1-3.2,3.2H236.8a3.3,3.3,0,0,1-3.2-3.2v-.5A3.3,3.3,0,0,1,236.8,42Z"/>
        <g id="sweep">
          <g id="_" data-name="+" class="cls-3">
            <text class="cls-4" transform="translate(358 26)">+</text>
          </g>
          <g id="_-copy" data-name="+-copy" class="cls-3">
            <text class="cls-4" transform="translate(336.5 14)">+</text>
          </g>
        </g>
      </g>
    </g>
  </g>
  <path class="cls-5" d="M340,22.7H316.4l-1.6,1.6H340a.8.8,0,0,1,.8.8.7.7,0,0,1-.8.7H313.7l-1.2,1.7h25.6V40.4a2.3,2.3,0,0,1-2.4,2.3h-1.8V40.1a11.7,11.7,0,0,0-23.4,0v2.6h-1.6a9.9,9.9,0,0,0,.2,1.7h1.4v2.5h-.9a8.4,8.4,0,0,0,.5,1.7h25.6a.9.9,0,0,1,.8.8.8.8,0,0,1-.8.7h-25a12.2,12.2,0,0,0,.7,1.7h22.8a11.9,11.9,0,0,1-10,10.3l-2,.2h-.9a29.6,29.6,0,0,0,3.1,1.5l1-.2v.5l1.6.6h.1l.2-1.3V63A13.5,13.5,0,0,0,336,51.8a2.5,2.5,0,0,0-.3-4.9h-1.8V44.4h1.8a4,4,0,0,0,4.1-4V27.5h.2a2.5,2.5,0,0,0,2.5-2.4A2.4,2.4,0,0,0,340,22.7ZM329.6,46.9H314.9V40.1a7.3,7.3,0,0,1,7.3-7.2,7.3,7.3,0,0,1,7.4,7.2Zm2.5,0h-.8V40.1a9.1,9.1,0,0,0-18.2,0v6.8h-.8V40.1a9.9,9.9,0,0,1,19.8,0Zm2.1-18a1.6,1.6,0,0,0-1.3-.7,1.6,1.6,0,0,0-1.5,1.6,1.6,1.6,0,0,0,1.5,1.6,1.7,1.7,0,0,0,1.4-.7h3V28.9Zm0,0a1.6,1.6,0,0,0-1.3-.7,1.6,1.6,0,0,0-1.5,1.6,1.6,1.6,0,0,0,1.5,1.6,1.7,1.7,0,0,0,1.4-.7h3V28.9Zm0,0a1.6,1.6,0,0,0-1.3-.7,1.6,1.6,0,0,0-1.5,1.6,1.6,1.6,0,0,0,1.5,1.6,1.7,1.7,0,0,0,1.4-.7h3V28.9Zm-.4-13.3a24.9,24.9,0,0,0-17.4,7.1l-1.6,1.6-1.1,1.5-1.2,1.7a25.3,25.3,0,0,0-3.7,13.1,14.8,14.8,0,0,0,.1,2.1,9.9,9.9,0,0,0,.2,1.7,18.4,18.4,0,0,0,.5,2.5,8.4,8.4,0,0,0,.5,1.7l.6,1.5a12.2,12.2,0,0,0,.7,1.7,25,25,0,0,0,9.9,10.5,29.6,29.6,0,0,0,3.1,1.5l.9.3,1.6.6a26.1,26.1,0,0,0,6.9.9,25,25,0,1,0,0-50Zm0,48.6a23.9,23.9,0,0,1-6.6-.9,18.8,18.8,0,0,1-3-1.2A23.8,23.8,0,0,1,313,51.8l-.8-1.7-.6-1.5a27.5,27.5,0,0,1-1.1-4.1h0c-.1-.6-.1-1.1-.2-1.7s-.1-1.4-.1-2.1a23.8,23.8,0,0,1,4-13.1l1.3-1.7,1.3-1.5a9.3,9.3,0,0,1,1.8-1.6,23.3,23.3,0,0,1,15.2-5.6,23.6,23.6,0,1,1,0,47.1Zm-.9-36a1.6,1.6,0,0,0-1.5,1.6,1.6,1.6,0,0,0,1.5,1.6,1.7,1.7,0,0,0,1.4-.7h3V28.9h-3.1A1.6,1.6,0,0,0,332.9,28.2Zm1.3.7a1.6,1.6,0,0,0-1.3-.7,1.6,1.6,0,0,0-1.5,1.6,1.6,1.6,0,0,0,1.5,1.6,1.7,1.7,0,0,0,1.4-.7,2,2,0,0,0,.2-.9A1.4,1.4,0,0,0,334.2,28.9Zm-1.1,0v1.8h4.2V28.9Z"/>
</svg>
