<svg id="Layer_1" data-name="Layer 1" xmlns="http://www.w3.org/2000/svg" xmlns:xlink="http://www.w3.org/1999/xlink" width="374.5" height="89.4" viewBox="0 0 374.5 89.4">
  <defs>
    <style>
      .cls-1 {
        fill: url(#linear-gradient);
      }

      .cls-2, .cls-4, .cls-5 {
        fill: #fff;
      }

      .cls-2 {
        opacity: 0.3;
      }

      .cls-2, .cls-3, .cls-4 {
        isolation: isolate;
      }

      .cls-4 {
        font-size: 16px;
        font-family: Montserrat-Medium, Montserrat;
      }
    </style>
    <linearGradient id="linear-gradient" x1="405.55" y1="126.36" x2="21.53" y2="-32.27" gradientUnits="userSpaceOnUse">
      <stop offset="0" stop-color="#75c9b9"/>
      <stop offset="1" stop-color="#72bde5"/>
    </linearGradient>
  </defs>
  <title>banner_electrical_E01</title>
  <g id="Page-1">
    <g id="UI---Screen-7---v2">
      <g id="Group-2">
        <path id="Path-4" class="cls-1" d="M0,72.4C71,74,112,68.2,210.5,71c58.9,1.7,113.3,7.8,164,18.4V0H0Z"/>
        <rect id="Rectangle-Copy-2" class="cls-2" x="23.5" y="22" width="47" height="7" rx="3.3" ry="3.3"/>
        <rect id="Rectangle-Copy-4" class="cls-2" x="186.5" y="29" width="47" height="7" rx="3.3" ry="3.3"/>
        <path id="Rectangle-Copy-3" class="cls-2" d="M67.8,35h40.5a3.3,3.3,0,0,1,3.3,3.3v.5a3.2,3.2,0,0,1-3.2,3.2H67.8a3.3,3.3,0,0,1-3.2-3.2v-.5A3.3,3.3,0,0,1,67.8,35Z"/>
        <rect id="Rectangle-Copy-5" class="cls-2" x="233.5" y="42" width="47" height="7" rx="3.3" ry="3.3"/>
        <g id="sweep">
          <g id="_" data-name="+" class="cls-3">
            <text class="cls-4" transform="translate(298.5 26)">+</text>
          </g>
          <g id="_-copy" data-name="+-copy" class="cls-3">
            <text class="cls-4" transform="translate(336.5 14)">+</text>
          </g>
        </g>
      </g>
    </g>
  </g>
  <g>
    <path class="cls-5" d="M325.4,33.7h-12a3.3,3.3,0,0,0-3.3,3.3V65.4a3.3,3.3,0,0,0,3.3,3.3h12a3.3,3.3,0,0,0,3.3-3.3V37A3.3,3.3,0,0,0,325.4,33.7ZM312.1,50.2V37a1.3,1.3,0,0,1,1.3-1.3h12a1.3,1.3,0,0,1,1.3,1.3V50.2Zm13.3,12.1h-12a1.3,1.3,0,0,1-1.3-1.3V52.2h14.6V61A1.3,1.3,0,0,1,325.4,62.3Zm0,2a2.8,2.8,0,0,0,1.3-.3v1.4a1.3,1.3,0,0,1-1.3,1.4h-12a1.3,1.3,0,0,1-1.3-1.4V64a3.1,3.1,0,0,0,1.3.3Z"/>
    <path class="cls-5" d="M319.4,39a3.6,3.6,0,1,0,3.6,3.6A3.6,3.6,0,0,0,319.4,39Zm1.6,3.6a1.6,1.6,0,1,1-1.6-1.6A1.6,1.6,0,0,1,321,42.6Z"/>
    <path class="cls-5" d="M319.4,54.1a1.1,1.1,0,0,0-1,1v4.4a1,1,0,0,0,1,.9.9.9,0,0,0,1-.9V55.1A1,1,0,0,0,319.4,54.1Z"/>
    <path class="cls-5" d="M354.1,32.8V28.6a7.7,7.7,0,0,0-4.4-6.8l-1.2-.4a3.1,3.1,0,0,0-3.1-2.8,3,3,0,0,0-3,2.8l-1.1.4a7.9,7.9,0,0,0-4.5,6.8v4.2a9.7,9.7,0,0,1-2.9,7.1,1.3,1.3,0,0,0-.3,1.2,1.2,1.2,0,0,0,.9.8l4.5.8,1.9.3a5.4,5.4,0,0,0,9.2,0l2-.3,4.4-.8a1.2,1.2,0,0,0,.9-.8,1,1,0,0,0-.3-1.2A9.8,9.8,0,0,1,354.1,32.8Zm-2.3,8.4-2.2.4h-.4l-.2.4a4,4,0,0,1-3.5,2.2A4.1,4.1,0,0,1,342,42v-.4h-.4l-2.3-.4-3.9-.7a10.8,10.8,0,0,0,3-7.7V28.6a6,6,0,0,1,3.7-5.4l1.3-.5.6-.2v-.8a1.6,1.6,0,0,1,1.5-1.6,1.6,1.6,0,0,1,1.6,1.6v.8h.6a9.4,9.4,0,0,1,1.5.6,6,6,0,0,1,3.5,5.4v4.2a11.2,11.2,0,0,0,3.1,7.7Z"/>
    <path class="cls-5" d="M348.3,24.8a6.8,6.8,0,0,0-5.6,0,4.4,4.4,0,0,0-2.6,3.8.8.8,0,0,0,.7.8h0a.8.8,0,0,0,.7-.8,3.1,3.1,0,0,1,1.8-2.5,5.6,5.6,0,0,1,4.4,0,.8.8,0,0,0,1-.3A.7.7,0,0,0,348.3,24.8Z"/>
    <path class="cls-5" d="M333.6,35.9a4.7,4.7,0,0,1-1.4-3.3,4.5,4.5,0,0,1,1.4-3.3.7.7,0,0,0,0-1,.8.8,0,0,0-1.1,0,6,6,0,0,0-1.7,4.3,6.1,6.1,0,0,0,1.7,4.3.7.7,0,0,0,.6.2.6.6,0,0,0,.5-.2A.7.7,0,0,0,333.6,35.9Z"/>
    <path class="cls-5" d="M335.5,29.2a.7.7,0,0,0-1,0,4.8,4.8,0,0,0,0,6.7l.5.2.5-.2a.8.8,0,0,0,0-1.1,3.4,3.4,0,0,1,0-4.6A.7.7,0,0,0,335.5,29.2Z"/>
    <path class="cls-5" d="M357.3,28.3a.7.7,0,0,0,0,1,4.5,4.5,0,0,1,1.4,3.3,4.7,4.7,0,0,1-1.4,3.3.7.7,0,0,0,0,1c.1.2.3.2.5.2s.4,0,.5-.2a5.8,5.8,0,0,0,1.8-4.3,5.7,5.7,0,0,0-1.8-4.3A.7.7,0,0,0,357.3,28.3Z"/>
    <path class="cls-5" d="M355.3,35.9l.6.2.5-.2a4.8,4.8,0,0,0,0-6.7.8.8,0,0,0-1.1,0,.7.7,0,0,0,0,1,3.2,3.2,0,0,1,0,4.6A.8.8,0,0,0,355.3,35.9Z"/>
  </g>
</svg>
