<svg id="Layer_1" data-name="Layer 1" xmlns="http://www.w3.org/2000/svg" xmlns:xlink="http://www.w3.org/1999/xlink" width="374.5" height="89.4" viewBox="0 0 374.5 89.4">
  <defs>
    <style>
      .cls-1 {
        fill: url(#linear-gradient);
      }

      .cls-2, .cls-4, .cls-5 {
        fill: #fff;
      }

      .cls-2 {
        opacity: 0.3;
      }

      .cls-2, .cls-3, .cls-4 {
        isolation: isolate;
      }

      .cls-4 {
        font-size: 16px;
        font-family: Montserrat-Medium, Montserrat;
      }
    </style>
    <linearGradient id="linear-gradient" x1="405.55" y1="126.36" x2="21.53" y2="-32.27" gradientUnits="userSpaceOnUse">
      <stop offset="0" stop-color="#75c9b9"/>
      <stop offset="1" stop-color="#72bde5"/>
    </linearGradient>
  </defs>
  <title>banner_horticulture_HR0</title>
  <g id="Page-1">
    <g id="UI---Screen-7---v2">
      <g id="Group-2">
        <path id="Path-4" class="cls-1" d="M0,72.4C71,74,112,68.2,210.5,71c58.9,1.7,113.3,7.8,164,18.4V0H0Z"/>
        <path id="Rectangle-Copy-2" class="cls-2" d="M26.8,22H67.3a3.2,3.2,0,0,1,3.2,3.2v.5A3.3,3.3,0,0,1,67.3,29H26.8a3.3,3.3,0,0,1-3.2-3.2v-.5A3.3,3.3,0,0,1,26.8,22Z"/>
        <path id="Rectangle-Copy-4" class="cls-2" d="M189.8,29h40.5a3.2,3.2,0,0,1,3.2,3.2v.5a3.2,3.2,0,0,1-3.2,3.2H189.8a3.3,3.3,0,0,1-3.2-3.2v-.5a3.3,3.3,0,0,1,3.3-3.2Z"/>
        <rect id="Rectangle-Copy-3" class="cls-2" x="64.5" y="35" width="47" height="7" rx="3.3" ry="3.3"/>
        <path id="Rectangle-Copy-5" class="cls-2" d="M236.8,42h40.5a3.3,3.3,0,0,1,3.3,3.3v.5a3.2,3.2,0,0,1-3.2,3.2H236.8a3.2,3.2,0,0,1-3.2-3.2v-.5A3.2,3.2,0,0,1,236.8,42Z"/>
        <g id="sweep">
          <g id="_" data-name="+" class="cls-3">
            <text class="cls-4" transform="translate(315.2 32)">+</text>
          </g>
          <g id="_-copy" data-name="+-copy" class="cls-3">
            <text class="cls-4" transform="translate(336.5 14)">+</text>
          </g>
        </g>
      </g>
    </g>
  </g>
  <g>
    <g>
      <path class="cls-5" d="M358.4,61.7h-7c-1.1-3.8-.8-7.1.9-9.7a8.4,8.4,0,0,1,2.9-2.9.8.8,0,0,0,.4-.9,1,1,0,0,0-.7-.7,8.5,8.5,0,0,0-7.4,3.9l-.3.4a25.2,25.2,0,0,1,4.4-11.9.8.8,0,0,0,0-.9.8.8,0,0,0-.9-.4c-4.5,1.2-7.3,6.7-8.7,10.5-.9-5.3-2.9-7.4-3-7.5a.8.8,0,0,0-1-.1.8.8,0,0,0-.4,1c.7,1.5.6,4.7-.2,9-.7-4.6-1.9-6.3-2-6.3a.8.8,0,0,0-.9-.3,1.1,1.1,0,0,0-.6.7,18.8,18.8,0,0,1-1.5,6.3c-.2-4.3.7-9.4,2.8-11.5a1,1,0,0,0,.2-.9.9.9,0,0,0-.8-.5,5.5,5.5,0,0,0-3.5,1.4,11.9,11.9,0,0,0-3.4,6.1c-1.1-4.1-2.8-7.2-5-9a6.6,6.6,0,0,0-4.5-1.7.9.9,0,0,0-.7.6.8.8,0,0,0,.3.9c2.5,2,4.6,7.7,5.6,15.9a11.7,11.7,0,0,0-4.5-4.8,9.5,9.5,0,0,0-4.8-1.3,1.1,1.1,0,0,0-.7.6.8.8,0,0,0,.3.9c3.4,2.8,5.4,6.1,5.7,9.4a10.7,10.7,0,0,1-.4,3.7h-8.4a.8.8,0,0,0-.8.9.8.8,0,0,0,.8.8h47.8a.9.9,0,0,0,.9-.8A.9.9,0,0,0,358.4,61.7ZM321,57.9c-.1-2.1-1-5.3-4.2-8.7l1.2.6c2.9,1.6,4.9,4.9,6.1,9.5a.8.8,0,0,0,1.6-.2c-.3-3.6-1.3-15.2-4.9-20.9,2,1.2,4.8,4.4,6.2,12.7a.8.8,0,0,0,1.6,0c.6-5.6,2.2-8.1,3.5-9.2l.5-.3c-2.1,4-2.2,10.4-1.4,13.8a.7.7,0,0,0,.7.6.9.9,0,0,0,.8-.4,39,39,0,0,0,2.4-6.7,37.2,37.2,0,0,1,1.2,8.4.8.8,0,0,0,.7.8,1,1,0,0,0,.9-.7,66.9,66.9,0,0,0,1.8-10.8,26.9,26.9,0,0,1,1,7,.8.8,0,0,0,.7.8,1,1,0,0,0,.9-.7c0-.1,2.1-8.5,6.4-12a12.4,12.4,0,0,0-1,2,28.7,28.7,0,0,0-2.2,12.1.8.8,0,0,0,1.6.2,11.5,11.5,0,0,1,1.8-3.5,7.4,7.4,0,0,1,3-2.6,11.3,11.3,0,0,0-1,1.3c-1.3,2.1-2.5,5.5-1.2,10.7h-29A10.6,10.6,0,0,0,321,57.9Z"/>
      <path class="cls-5" d="M358.4,63.6H310.6a1,1,0,0,1-1.1-1,1.1,1.1,0,0,1,1.1-1.1h8.2a8.5,8.5,0,0,0,.3-3.5c-.2-3.3-2.2-6.4-5.6-9.2a1.1,1.1,0,0,1-.3-1.2,1,1,0,0,1,.9-.7,8.7,8.7,0,0,1,4.9,1.3,12.4,12.4,0,0,1,4,3.8c-1.1-7.4-3-12.7-5.3-14.5a1.1,1.1,0,0,1-.4-1.2,1,1,0,0,1,.9-.7,7.1,7.1,0,0,1,4.6,1.7,16.7,16.7,0,0,1,4.9,8.3,11.8,11.8,0,0,1,3.2-5.4,5.4,5.4,0,0,1,3.8-1.4,1.1,1.1,0,0,1,.9.6,1.6,1.6,0,0,1-.2,1.2c-1.8,1.8-2.7,6.1-2.8,9.9a20.5,20.5,0,0,0,1.1-4.9,1.1,1.1,0,0,1,.7-1,1,1,0,0,1,1.2.4c.1.1,1.1,1.5,1.8,5,.5-3.5.5-6.2,0-7.4a1.1,1.1,0,0,1,.4-1.3,1.1,1.1,0,0,1,1.4.1c.1.1,1.9,2,2.9,6.8,1.6-4.1,4.4-8.7,8.6-9.8a.9.9,0,0,1,1.1.4,1.1,1.1,0,0,1,0,1.3,24.2,24.2,0,0,0-4.2,10.8,8.5,8.5,0,0,1,7.3-3.6,1.1,1.1,0,0,1,1,.8,1.1,1.1,0,0,1-.6,1.2,8.9,8.9,0,0,0-2.8,2.8c-1.6,2.5-1.9,5.7-.9,9.4h6.8a1.1,1.1,0,0,1,1.1,1.1A1,1,0,0,1,358.4,63.6ZM310.6,62a.6.6,0,0,0-.6.6.6.6,0,0,0,.6.5h47.8c.4,0,.6-.2.6-.5a.6.6,0,0,0-.6-.6h-7.2v-.2c-1.1-3.9-.8-7.3.9-10a9.1,9.1,0,0,1,3-2.9.8.8,0,0,0,.3-.7.7.7,0,0,0-.6-.4,8.4,8.4,0,0,0-7.1,3.7l-.3.4-.5.9V51.7a24.6,24.6,0,0,1,4.4-11.9c.1-.2.2-.5,0-.7a.5.5,0,0,0-.6-.2c-4.5,1.1-7.3,6.9-8.6,10.3l-.3.9-.2-1c-.8-5.2-2.8-7.3-2.9-7.3a.5.5,0,0,0-.7-.1.6.6,0,0,0-.2.7c.6,1.5.5,4.7-.2,9.2l-.3,1.4-.2-1.4c-.7-4.6-1.9-6.2-2-6.3a.5.5,0,0,0-.6-.2.7.7,0,0,0-.4.5,22.3,22.3,0,0,1-1.6,6.4l-.4,1.1V51.9c-.2-4.1.6-9.4,2.8-11.7.2-.1.2-.4.1-.6a.5.5,0,0,0-.5-.3c0-.1-1.6-.2-3.3,1.3a12.3,12.3,0,0,0-3.4,6l-.2.9-.2-.9c-1.1-4.1-2.8-7.1-5-8.9s-4-1.7-4.2-1.6-.5.1-.5.4,0,.4.2.6c2.5,2,4.6,7.7,5.7,16l.2,1.3-.7-1.1a11.9,11.9,0,0,0-4.5-4.7,7.9,7.9,0,0,0-4.6-1.2.7.7,0,0,0-.5.4c0,.2,0,.5.2.6,3.5,2.9,5.5,6.2,5.8,9.6a8.9,8.9,0,0,1-.4,3.8V62ZM350,62H320.4v-.3a9.4,9.4,0,0,0,.4-3.7h0a14,14,0,0,0-4.2-8.6l-.7-.8,1,.4,1.3.6c2.8,1.6,5,5,6.1,9.7a.7.7,0,0,0,.6.4.6.6,0,0,0,.5-.6c-.2-3.4-1.2-15.1-4.9-20.8l-.5-.9.9.6c2.1,1.2,4.9,4.5,6.3,12.9a.6.6,0,0,0,.6.5c.3,0,.5-.3.6-.6.5-5.6,2.2-8.1,3.5-9.3l.5-.3.8-.6-.4.9c-2.1,4.2-2.1,10.6-1.4,13.6,0,.3.2.4.5.5a.6.6,0,0,0,.6-.4,38.1,38.1,0,0,0,2.4-6.6l.2-.9.3.9a38.2,38.2,0,0,1,1.1,8.5.5.5,0,0,0,.5.5c.3,0,.6-.1.6-.4a60.2,60.2,0,0,0,1.8-10.8V45l.4,1.3a24.8,24.8,0,0,1,1,7.1.6.6,0,0,0,.6.5c.2.1.5-.1.6-.4s2.1-8.7,6.4-12.2l1-.7-.6,1-1,2a28.2,28.2,0,0,0-2.2,12,.6.6,0,0,0,.5.6c.3,0,.6-.2.6-.4a13.5,13.5,0,0,1,1.9-3.6,7.2,7.2,0,0,1,3.1-2.7l1-.5-.7.9a6.4,6.4,0,0,0-1,1.3c-1.2,1.9-2.4,5.3-1.2,10.5Zm-29-.5h28.4c-1.2-5.1,0-8.6,1.3-10.6l.2-.3a6.6,6.6,0,0,0-1.8,1.9,12,12,0,0,0-1.8,3.4,1.1,1.1,0,0,1-2.1-.3,27.8,27.8,0,0,1,2.3-12.2l.3-.8c-3.5,3.8-5.2,10.9-5.2,11a1.1,1.1,0,0,1-2.2-.2,23.2,23.2,0,0,0-.6-5.5,60.5,60.5,0,0,1-1.7,9.4,1.1,1.1,0,0,1-1.1.8,1.1,1.1,0,0,1-1-1,36.5,36.5,0,0,0-.9-7.4,33.4,33.4,0,0,1-2.2,5.8,1.1,1.1,0,0,1-1.1.6,1.2,1.2,0,0,1-.9-.9,25.8,25.8,0,0,1,1-12.9c-1.2,1.2-2.5,3.7-3,8.6a1.3,1.3,0,0,1-1.1,1,1.3,1.3,0,0,1-1.1-.9c-1.1-7-3.3-10.4-5.1-11.9,3.2,6,4.1,16.7,4.3,20a1,1,0,0,1-.9,1.1,1.1,1.1,0,0,1-1.2-.8c-1.1-4.6-3.1-7.8-5.9-9.4a.1.1,0,0,1-.1-.1,14.4,14.4,0,0,1,3.5,8A12.4,12.4,0,0,1,321,61.5Z"/>
    </g>
    <g>
      <path class="cls-5" d="M328.4,33.3l7.7-.8L330.8,38a.8.8,0,0,0-.1.9.7.7,0,0,0,.6.4h.1a9.8,9.8,0,0,0,4.3-1.9,61.7,61.7,0,0,0,6.9-5.7l1.6-.2,1.1.5v.2a1.4,1.4,0,0,0,.6,1.1,1.6,1.6,0,0,0,1.2.4l9.5-1a2.5,2.5,0,0,0,2.1-1.7,3.4,3.4,0,0,0,.1-1,2.6,2.6,0,0,0-.9-1.7,2.4,2.4,0,0,0-1.8-.5l-9.5,1a1.5,1.5,0,0,0-1.4,1.1.7.7,0,0,0-.1.5l-.4-.2-1.7-1.3V26.8c0-.1.1-.3.1-.4a1.7,1.7,0,0,0,1,.3,1.7,1.7,0,0,0,1.2-.5l6.5-7a4.1,4.1,0,0,0,.5-.9,2.5,2.5,0,0,0-.7-2.6,2.3,2.3,0,0,0-3.5.2l-5.3,5.7h-.1l-1.1,1.1-.3.6a2,2,0,0,0,.4,1.8h.2a2.7,2.7,0,0,0-.3,1.2l-1.1,1.1a58.8,58.8,0,0,0-8.7,2.2,9.2,9.2,0,0,0-4.1,2.3.8.8,0,0,0-.1.8C327.9,33.2,328.1,33.4,328.4,33.3Zm22.4-16.6a.9.9,0,0,1,.2,1.1l-.2.4-4.9,5.3-1.5-1.4,4.9-5.2A1.1,1.1,0,0,1,350.8,16.7ZM340.2,32a44.1,44.1,0,0,1-6.3,4.9l4.4-4.7Zm-9-.4a49.5,49.5,0,0,1,9.6-2.5l1.7,1.2ZM344,25.2l-1.2-1.1c0-.1-.1-.1,0-.2h0l.6-.6,1.5,1.4-.6.6H344Zm2.6,5.2h1.1l.2,2.1h-1a.1.1,0,0,1-.1-.1Zm10.9-.3c0,.2,0,.3-.1.4a.8.8,0,0,1-.8.7l-7.3.8-.2-2,7.2-.8A1.1,1.1,0,0,1,357.5,30.1Z"/>
      <path class="cls-5" d="M331.3,39.5a1.2,1.2,0,0,1-.9-.5,1.1,1.1,0,0,1,.2-1.1l4.8-5.1-6.9.8a1.2,1.2,0,0,1-1-.5,1.1,1.1,0,0,1,.1-1.1,9.7,9.7,0,0,1,4.2-2.5,80.3,80.3,0,0,1,8.7-2.1l1-1a3,3,0,0,1,.2-1h0a1.7,1.7,0,0,1-.5-2c0-.2.2-.4.4-.6l1-1.1h0a.1.1,0,0,0,.1-.1l5.3-5.7a2.8,2.8,0,0,1,1.9-.9,2.4,2.4,0,0,1,2,.7,2.5,2.5,0,0,1,.7,2.8,3.1,3.1,0,0,1-.5,1l-6.5,7a2.7,2.7,0,0,1-1.4.7l-.8-.2h0v2L345,30h0v-.2a2.1,2.1,0,0,1,1.6-1.3l9.6-1a3,3,0,0,1,2,.6,3.2,3.2,0,0,1,1,1.8,2.5,2.5,0,0,1-.2,1.2,2.6,2.6,0,0,1-2.3,1.8l-9.5,1a1.8,1.8,0,0,1-1.4-.4,2.1,2.1,0,0,1-.7-1.3h0l-.9-.4h-1.5a53.7,53.7,0,0,1-6.9,5.7,9,9,0,0,1-4.4,1.9Zm5.4-7.4L331,38.2c-.2.2-.2.4-.1.5s.2.3.4.3a8.4,8.4,0,0,0,4.3-1.8,72.6,72.6,0,0,0,6.9-5.7h0l1.8-.2h.1l1,.4h.2v.4a1.3,1.3,0,0,0,.5.9,1.1,1.1,0,0,0,1.1.3l9.5-1a2.3,2.3,0,0,0,1.9-1.5,2.8,2.8,0,0,0,.1-.9,2.4,2.4,0,0,0-.9-1.5,2.2,2.2,0,0,0-1.6-.5l-9.5,1a1.5,1.5,0,0,0-1.2,1c0,.1-.1.2-.1.4v.4l-.3-.2-.4-.2-1.9-1.3V26l.3.2a1.6,1.6,0,0,0,.9.3,1.9,1.9,0,0,0,1-.5l6.5-7a3.5,3.5,0,0,0,.5-.8,2.6,2.6,0,0,0-.6-2.4,1.9,1.9,0,0,0-1.6-.5,2.4,2.4,0,0,0-1.6.7l-5.3,5.8H343L341.9,23l-.3.5A1.7,1.7,0,0,0,342,25l.3.3h-.1a4.3,4.3,0,0,0-.2,1.1h-.1l-1.2,1.3h0a64,64,0,0,0-8.8,2.1,9.3,9.3,0,0,0-3.9,2.3c-.1.1-.2.4-.1.5a.5.5,0,0,0,.5.3Zm-4.1,5.8,5.6-5.9,2.7-.3-.6.5a44.1,44.1,0,0,1-6.3,4.9Zm5.8-5.5-2.9,3.1a40,40,0,0,0,3.9-3.2Zm8.6.1h-.3a.4.4,0,0,1-.1-.3l-.2-1.7h0l.4-.4h1.1l.2,2.6H347Zm-.1-2.1.2,1.6h.5l-.2-1.5Zm2.2,1.9-.3-2.6,7.5-.7a1,1,0,0,1,.9.2,1.2,1.2,0,0,1,.5.9v.5a1.4,1.4,0,0,1-1.1.9Zm.3-2.1v1.5l7-.7a.8.8,0,0,0,.7-.5v-.4h0a.5.5,0,0,0-.3-.5l-.5-.2ZM329.6,32l1.5-.7a54.8,54.8,0,0,1,9.7-2.5h.1l2.2,1.6Zm11.1-2.7a67.2,67.2,0,0,0-7.4,1.8l8.5-1Zm3.5-3.8c-.1,0-.3,0-.3-.1l-1.2-1.1c-.2-.1-.2-.3-.2-.5v-.2l.8-.8,1.8,1.8-.7.8Zm0-.5Zm-.8-1.5-.4.5,1.2,1,.3-.4Zm2.5.4L344,22.1l5.1-5.4a1.4,1.4,0,0,1,1.8-.2h0a1.5,1.5,0,0,1,.4,1.4l-.3.4Zm-1.2-1.8,1.2,1.1,4.7-5.2c.1-.1.2-.2.2-.3a.8.8,0,0,0-.2-.8.8.8,0,0,0-1.1.1Z"/>
    </g>
  </g>
</svg>
