<svg id="Layer_1" data-name="Layer 1" xmlns="http://www.w3.org/2000/svg" xmlns:xlink="http://www.w3.org/1999/xlink" width="374.5" height="89.4" viewBox="0 0 374.5 89.4">
  <defs>
    <style>
      .cls-1 {
        fill: url(#linear-gradient);
      }

      .cls-2, .cls-4, .cls-5 {
        fill: #fff;
      }

      .cls-2 {
        opacity: 0.3;
      }

      .cls-2, .cls-3, .cls-4 {
        isolation: isolate;
      }

      .cls-4 {
        font-size: 16px;
        font-family: Montserrat-Medium, Montserrat;
      }
    </style>
    <linearGradient id="linear-gradient" x1="405.55" y1="126.36" x2="21.53" y2="-32.27" gradientUnits="userSpaceOnUse">
      <stop offset="0" stop-color="#75c9b9"/>
      <stop offset="1" stop-color="#72bde5"/>
    </linearGradient>
  </defs>
  <title>banner_housekeeping_H0</title>
  <g id="Page-1">
    <g id="UI---Screen-7---v2">
      <g id="Group-2">
        <path id="Path-4" class="cls-1" d="M0,72.4C71,74,112,68.2,210.5,71c58.9,1.7,113.3,7.8,164,18.4V0H0Z"/>
        <rect id="Rectangle-Copy-2" class="cls-2" x="23.5" y="22" width="47" height="7" rx="3.3" ry="3.3"/>
        <path id="Rectangle-Copy-4" class="cls-2" d="M189.8,29h40.5a3.3,3.3,0,0,1,3.3,3.3v.5a3.2,3.2,0,0,1-3.2,3.2H189.8a3.3,3.3,0,0,1-3.2-3.2v-.5A3.3,3.3,0,0,1,189.8,29Z"/>
        <rect id="Rectangle-Copy-3" class="cls-2" x="64.5" y="35" width="47" height="7" rx="3.3" ry="3.3"/>
        <rect id="Rectangle-Copy-5" class="cls-2" x="233.5" y="42" width="47" height="7" rx="3.3" ry="3.3"/>
        <g id="sweep">
          <g id="_" data-name="+" class="cls-3">
            <text class="cls-4" transform="translate(358 26)">+</text>
          </g>
          <g id="_-copy" data-name="+-copy" class="cls-3">
            <text class="cls-4" transform="translate(336.5 14)">+</text>
          </g>
        </g>
      </g>
    </g>
  </g>
  <g>
    <path class="cls-5" d="M360.7,68.2,359.4,56v-.6h0V53.2a4.4,4.4,0,0,0-4.4-4.4H354V48a2.4,2.4,0,0,0-2.2-2.3V18.8A2.9,2.9,0,0,0,349,16a2.8,2.8,0,0,0-2.8,2.8V45.7a1.7,1.7,0,0,0-1,.3l.3-3.2v-.2a1.9,1.9,0,0,0-1.8-1.7h-.1a3.6,3.6,0,0,0-1.3-1.9,4,4,0,0,0-3.6-.8,4.1,4.1,0,0,0-3.8-2.4,4,4,0,0,0-1.5.3,4.4,4.4,0,0,0-2.9-1.1,4.6,4.6,0,0,0-2.9,1.1,3.7,3.7,0,0,0-1.5-.3,4.1,4.1,0,0,0-3.6,2.3,4.1,4.1,0,0,0-3.6,1.5h-1.6a2.6,2.6,0,0,0-2.6,2.6v13a2.6,2.6,0,0,0,2.6,2.6h.5l.9,10.3a2.6,2.6,0,0,0,2.6,2.5h37.2a1.9,1.9,0,0,0,1.6-.8A1.7,1.7,0,0,0,360.7,68.2Zm-5.3-9.4a1,1,0,0,0-1.1,1v9.1h-.5V62a1,1,0,0,0-1.1-1,1,1,0,0,0-1,1v6.9h-.6V64.2a.9.9,0,0,0-1-1,1,1,0,0,0-1.1,1v4.7h-3.6V62a.9.9,0,0,0-1-1,1,1,0,0,0-1.1,1v6.9h-.5V59.8a1,1,0,0,0-1.1-1,.9.9,0,0,0-1,1v9.1h-1.2l-.5-.2v-.3l1.3-12.1h17.4L359,68.4a.2.2,0,0,1-.1.3l-.4.2h-2.1V59.8A.9.9,0,0,0,355.4,58.8Zm-38.1-2.7a1,1,0,0,1-1-.9v-13a.8.8,0,0,1,.2-.5h0a1,1,0,0,1,.8-.5h7.9a1,1,0,0,1,.7.4,1.1,1.1,0,0,1,.2.6v.3h0V55.2a.9.9,0,0,1-.9.9h-7.9Zm13.2-19.5a2.3,2.3,0,0,1,2,1.1.9.9,0,0,0,1.1.2,2.2,2.2,0,0,1,1.3-.4,2.6,2.6,0,0,1,2.5,1.9.7.7,0,0,0,.4.6.9.9,0,0,0,.7,0,2.7,2.7,0,0,1,1.2-.3,2.4,2.4,0,0,1,2.1,1.2h-4.2v6.8a.7.7,0,0,1-1.4,0V40.9h-1.7v1.6h0v1.1a.7.7,0,1,1-1.4,0V40.9h-5.7a2.5,2.5,0,0,0-2.2-1.3h-1.7l.3-.4a2.4,2.4,0,0,1,2.3-1.7,2,2,0,0,1,1.3.4.9.9,0,0,0,1.1-.2A2.4,2.4,0,0,1,330.5,36.6ZM349,17.7a1.1,1.1,0,0,1,1.1,1.1V45.6h-2.2V18.8A1.1,1.1,0,0,1,349,17.7Zm1.1,29.6h1.5a.8.8,0,0,1,.8.7v2.5h-6.8V48a.8.8,0,0,1,.8-.7h3.7Zm-22.3-3.5V42.6h3.6v1.3a3.6,3.6,0,0,0,.4,1.1,2.4,2.4,0,0,0,2.7,1v.2h-3.9l-.4-1.4a.8.8,0,0,0-1-.6.8.8,0,0,0-.5,1l.3,1h-1.2Zm14.3,2v.4h-2.7V42.6h3.1l-.3,3.2Zm-7.6,2.1a2.4,2.4,0,0,0,2.4,2.2,2.3,2.3,0,0,0,2.3-2.2h2.7V49a4.4,4.4,0,0,0-3.1,3.7v1.9a8.1,8.1,0,0,1-7.4-6l-.3-.7Zm23.1,6.7H340.4V52.8a2.7,2.7,0,0,1,1.8-2.2H344v.8a.9.9,0,0,0,.8.9h8.4a.9.9,0,0,0,.8-.9v-.8h.9a2.7,2.7,0,0,1,2.7,2.7Zm-32.4,3.2a2.6,2.6,0,0,0,2.6-2.6V47.9h1.6l.4,1.1a9.9,9.9,0,0,0,8.8,7.2l-1.3,12a1.7,1.7,0,0,0,.1.7H321.3a.9.9,0,0,1-.9-.9l-.9-10.2ZM344,48v.8h-.5v-1h.4Z"/>
    <path class="cls-5" d="M315,33.4h.4l.2-.2h.3v-.2h.2v-.2h.1v-.3h-.1v-.2h0V31h-.1v-.2h.1v-.4h0v-.4h0v-.2h-.2v-.2h-4.9v1.6h0v.5h0v.5h0v1h0v.2h0v.2h0v.5h0v.2H315Zm-2.6-4h0v-.2h0Zm2.1,2.4h-2.1v-.4h2.1Z"/>
    <polygon class="cls-5" points="321.4 27.5 321.2 27.5 321.1 27.5 321.1 27.6 321 27.7 321 28.3 321 28.4 321.1 28.9 321.1 29.1 321 29.6 321 29.7 321 29.8 320.9 29.8 320.8 29.8 320.7 29.8 320.2 29.8 319.7 29.8 319.5 29.8 319.2 29.8 319.1 29.8 319 29.8 318.9 29.8 318.9 29.8 318.8 29.7 318.8 29.6 318.8 28.9 318.8 28.4 318.8 28.3 318.9 27.9 318.9 27.8 318.9 27.7 318.8 27.6 318.8 27.5 318.7 27.5 318.5 27.5 318.4 27.5 318.1 27.5 317.9 27.5 317.6 27.5 317.4 27.5 317.3 27.5 317.2 27.5 317.1 27.6 317.1 27.7 317.1 27.9 317.1 28.2 317.2 28.3 317.2 28.7 317.2 28.9 317.1 29.3 317.1 29.4 317.1 30 317.1 30.5 317.1 30.6 317.2 31.1 317.2 31.2 317.1 31.6 317.1 31.8 317.1 32.2 317.1 32.9 317.1 33.2 317.1 33.3 317.1 33.4 317.1 33.5 317.2 33.5 317.2 33.5 317.3 33.6 317.4 33.6 317.5 33.6 317.9 33.5 318.1 33.6 318.4 33.6 318.5 33.6 318.7 33.6 318.8 33.6 318.8 33.5 318.9 33.4 318.9 33.2 318.8 32.8 318.8 32.7 318.9 32.1 318.9 32 318.8 31.5 318.9 31.4 318.9 31.3 319 31.3 319.1 31.2 319.5 31.3 320.2 31.3 320.3 31.3 320.7 31.3 320.9 31.3 321 31.3 321 31.4 321 31.5 321 32 321 32.1 321 32.7 321 32.8 321 33.4 321.1 33.5 321.1 33.6 321.2 33.6 321.4 33.6 321.8 33.5 321.9 33.5 322.4 33.6 322.5 33.6 322.6 33.5 322.7 33.5 322.7 33.4 322.7 33.3 322.7 33.1 322.7 32.9 322.7 32.8 322.7 32.2 322.7 31.8 322.7 31.6 322.7 31.2 322.7 31.1 322.7 30.6 322.7 30.5 322.7 30 322.7 29.9 322.7 29.4 322.7 29.3 322.7 28.9 322.7 28.7 322.7 28.3 322.7 28.2 322.7 27.8 322.7 27.7 322.7 27.6 322.6 27.5 322.5 27.5 322.5 27.5 322.3 27.5 321.9 27.5 321.8 27.5 321.4 27.5"/>
    <polygon class="cls-5" points="323.9 33 323.9 33.2 323.9 33.3 323.9 33.4 323.9 33.5 324 33.6 324 33.6 324.4 33.6 324.6 33.6 325 33.6 325.2 33.6 325.5 33.6 325.6 33.6 325.6 33.5 325.6 33.4 325.6 33.3 325.6 33.2 325.6 33 325.6 32.8 325.7 32.4 325.7 31.8 325.7 31.7 325.7 31.7 325.8 31.7 325.8 31.8 325.9 31.9 326.2 32.2 326.3 32.3 326.6 32.6 326.7 32.7 326.9 33.1 327 33.2 327.3 33.5 327.4 33.6 327.5 33.6 328 33.6 328.1 33.6 328.7 33.6 328.8 33.6 329.2 33.6 329.4 33.6 329.4 33.6 329.4 33.5 329.5 33.5 329.4 33.4 329.1 33 329 32.9 328.6 32.5 328.5 32.4 328.2 32.1 328.1 32 327.8 31.6 327.7 31.5 327.3 31.1 327.2 31 326.9 30.6 326.9 30.5 326.8 30.4 326.9 30.4 326.9 30.3 327 30.2 327.2 30 327.3 29.9 327.6 29.6 327.7 29.5 328 29.1 328.1 29 328.4 28.6 328.5 28.5 328.8 28.1 328.9 28 329.2 27.7 329.3 27.6 329.3 27.6 329.3 27.6 329.2 27.5 329.1 27.5 328.8 27.5 328.7 27.5 328.4 27.5 327.8 27.5 327.7 27.5 327.3 27.5 327.2 27.5 327.2 27.6 326.9 27.9 326.8 28 326.5 28.4 326.1 29 325.8 29.3 325.7 29.4 325.7 29.4 325.6 29.3 325.6 28.8 325.6 28.7 325.6 28.2 325.6 28.1 325.6 27.8 325.7 27.7 325.6 27.6 325.6 27.6 325.6 27.5 325.5 27.5 325.1 27.5 325 27.5 324.6 27.5 324.4 27.5 324.2 27.5 324.1 27.5 324 27.5 324 27.6 323.9 27.7 323.9 28.1 323.9 28.3 323.9 29.3 323.9 29.4 323.9 29.9 323.9 30 323.9 30.5 323.9 31.1 323.9 31.2 323.9 31.7 323.9 31.8 323.9 32.4 323.9 32.8 323.9 33"/>
    <polygon class="cls-5" points="316.6 24.9 316.6 25.3 316.6 25.6 316.6 25.7 316.6 25.8 316.7 25.8 316.8 25.8 317.2 25.9 318.5 25.8 318.7 25.8 320.4 25.8 320.6 25.8 321.2 25.9 321.5 25.9 321.6 25.8 321.7 25.8 321.8 25.7 321.8 25.5 321.8 25.3 321.8 24.9 321.8 24.7 321.8 24.3 321.8 24.1 321.8 24 321.8 23.9 321.7 23.9 320.8 23.9 320.6 23.9 320.6 23.8 320.5 23.7 320.5 23.6 320.4 22.8 320.5 22.6 320.5 21.8 320.5 21.6 320.5 20.9 320.5 20.7 320.5 19.9 320.5 17.9 320.5 17.7 320.6 17.2 320.6 17.1 320.5 16.9 320.5 16.8 320.4 16.7 320.3 16.6 320.2 16.6 320 16.7 319.8 16.8 319.5 16.9 319.3 17 318.6 17.2 318.4 17.3 317.7 17.5 317.6 17.6 317.2 17.7 317 17.8 316.9 17.8 316.8 17.9 316.7 17.9 316.7 18 316.6 18.2 316.6 18.4 316.7 18.8 316.7 19 316.6 19.3 316.6 19.5 316.6 19.6 316.7 19.7 316.7 19.8 316.8 19.9 317 19.9 317.2 19.9 317.4 19.8 317.8 19.7 318 19.7 318 19.7 318.1 19.8 318.1 19.9 318 20.4 318 20.7 318 20.9 318 21.2 318.1 21.4 318.1 21.7 318.1 21.9 318 22.6 318 22.8 318 23.7 318 23.8 317.9 23.9 317.8 23.9 317.5 23.9 317.3 23.9 316.8 23.9 316.6 23.9 316.6 24 316.6 24.1 316.6 24.3 316.6 24.7 316.6 24.9"/>
  </g>
</svg>
