<svg id="Layer_1" data-name="Layer 1" xmlns="http://www.w3.org/2000/svg" xmlns:xlink="http://www.w3.org/1999/xlink" width="374.5" height="89.4" viewBox="0 0 374.5 89.4">
  <defs>
    <style>
      .cls-1 {
        fill: url(#linear-gradient);
      }

      .cls-2, .cls-4, .cls-5 {
        fill: #fff;
      }

      .cls-2 {
        opacity: 0.3;
      }

      .cls-2, .cls-3, .cls-4 {
        isolation: isolate;
      }

      .cls-4 {
        font-size: 16px;
        font-family: Montserrat-Medium, Montserrat;
      }
    </style>
    <linearGradient id="linear-gradient" x1="405.55" y1="126.36" x2="21.53" y2="-32.27" gradientUnits="userSpaceOnUse">
      <stop offset="0" stop-color="#75c9b9"/>
      <stop offset="1" stop-color="#72bde5"/>
    </linearGradient>
  </defs>
  <title>banner_housekeeping_H0</title>
  <g id="Page-1">
    <g id="UI---Screen-7---v2">
      <g id="Group-2">
        <path id="Path-4" class="cls-1" d="M0,72.4C71,74,112,68.2,210.5,71c58.9,1.7,113.3,7.8,164,18.4V0H0Z"/>
        <rect id="Rectangle-Copy-2" class="cls-2" x="23.5" y="22" width="47" height="7" rx="3.3" ry="3.3"/>
        <path id="Rectangle-Copy-4" class="cls-2" d="M189.8,29h40.5a3.2,3.2,0,0,1,3.2,3.2v.5a3.3,3.3,0,0,1-3.2,3.3H189.8a3.2,3.2,0,0,1-3.2-3.2v-.5a3.2,3.2,0,0,1,3.2-3.2Z"/>
        <rect id="Rectangle-Copy-3" class="cls-2" x="64.5" y="35" width="47" height="7" rx="3.3" ry="3.3"/>
        <rect id="Rectangle-Copy-5" class="cls-2" x="233.5" y="42" width="47" height="7" rx="3.3" ry="3.3"/>
        <g id="sweep">
          <g id="_" data-name="+" class="cls-3">
            <text class="cls-4" transform="translate(353.8 26)">+</text>
          </g>
          <g id="_-copy" data-name="+-copy" class="cls-3">
            <text class="cls-4" transform="translate(336.5 14)">+</text>
          </g>
        </g>
      </g>
    </g>
  </g>
  <g>
    <path class="cls-5" d="M311.2,29.6h4.7v-.2h.2v-.4h0v-.2h-.2v-.2h0v-.2h0v-.2h-4.6v.4h0v.4h0v.4h0v.4h0v1.5h.1V29h0v.4Zm3.3-1.4h-1.8v-.2h0v-.2h1.8Zm-1.8-1.8v-.2h0Z"/>
    <polygon class="cls-5" points="321.8 27.6 321.8 27.4 321.8 27.1 321.8 26.9 321.8 26.5 321.8 26.4 321.8 26 321.8 25.9 321.8 25.5 321.8 25.4 321.8 25.1 321.8 25 321.8 24.9 321.8 24.8 321.7 24.8 321.6 24.8 321.5 24.8 321.1 24.8 321 24.8 320.6 24.8 320.5 24.8 320.4 24.8 320.4 24.9 320.3 25 320.3 25.5 320.3 25.6 320.4 26.1 320.4 26.2 320.3 26.7 320.3 26.8 320.3 26.8 320.2 26.9 320.2 26.9 320 26.9 319.6 26.9 319.1 26.8 319 26.8 318.7 26.9 318.6 26.9 318.5 26.9 318.5 26.9 318.4 26.8 318.4 26.8 318.4 26.7 318.4 26.1 318.4 25.6 318.4 25.5 318.4 25.2 318.4 25.1 318.4 25 318.4 24.9 318.3 24.8 318.2 24.8 318.1 24.8 318 24.8 317.7 24.8 317.6 24.8 317.3 24.8 317.2 24.8 317.1 24.8 317 24.9 316.9 24.9 316.9 25 316.9 25.2 316.9 25.4 316.9 25.5 316.9 25.9 316.9 26 316.9 26.4 316.9 26.5 316.9 27.1 316.9 27.4 316.9 27.6 316.9 28 316.9 28.1 316.9 28.5 316.9 28.6 316.9 29 316.9 29.6 316.9 29.8 316.9 29.9 316.9 30 316.9 30.1 316.9 30.1 317 30.2 317.1 30.2 317.1 30.2 317.2 30.2 317.6 30.2 317.7 30.2 318 30.2 318.1 30.2 318.2 30.2 318.3 30.2 318.4 30.1 318.4 30 318.4 29.8 318.4 29.5 318.4 29.4 318.4 28.9 318.4 28.8 318.4 28.3 318.4 28.2 318.5 28.2 318.5 28.1 318.6 28.1 319 28.1 319.6 28.2 319.7 28.2 320 28.1 320.2 28.1 320.3 28.2 320.3 28.2 320.3 28.3 320.3 28.8 320.3 28.9 320.3 29.4 320.3 29.5 320.3 30 320.4 30.1 320.4 30.2 320.5 30.2 320.6 30.2 321 30.2 321.1 30.2 321.5 30.2 321.7 30.2 321.7 30.2 321.8 30.1 321.8 30 321.8 29.9 321.8 29.8 321.8 29.6 321.8 29.5 321.8 29 321.8 28.6 321.8 28.5 321.8 28.1 321.8 28 321.8 27.6"/>
    <polygon class="cls-5" points="324.4 29.1 324.4 28.6 324.4 28.5 324.5 28.5 324.5 28.5 324.6 28.6 324.6 28.7 324.9 29 324.9 29.1 325.2 29.3 325.3 29.4 325.5 29.7 325.6 29.8 325.8 30.1 325.9 30.2 326 30.2 326.5 30.2 326.6 30.2 327.1 30.2 327.2 30.2 327.6 30.2 327.7 30.2 327.7 30.2 327.7 30.1 327.8 30.1 327.7 30 327.4 29.7 327.3 29.6 327 29.3 326.9 29.2 326.6 28.8 326.6 28.8 326.3 28.4 326.2 28.3 325.9 28 325.8 27.9 325.5 27.5 325.5 27.5 325.4 27.4 325.5 27.4 325.5 27.3 325.6 27.2 325.8 27.1 325.9 27 326.1 26.6 326.2 26.6 326.5 26.2 326.6 26.1 326.8 25.8 326.9 25.7 327.2 25.4 327.3 25.3 327.5 25 327.6 24.9 327.6 24.9 327.6 24.9 327.5 24.9 327.5 24.9 327.2 24.9 327.1 24.9 326.8 24.9 326.3 24.8 326.2 24.8 325.9 24.9 325.8 24.9 325.7 24.9 325.5 25.2 325.4 25.3 325.2 25.6 324.8 26.1 324.6 26.4 324.5 26.5 324.4 26.5 324.4 26.4 324.4 26 324.4 25.9 324.4 25.5 324.4 25.4 324.4 25.1 324.4 25 324.4 24.9 324.4 24.9 324.3 24.9 324.3 24.9 323.9 24.8 323.8 24.8 323.5 24.9 323.3 24.9 323.1 24.8 323 24.8 322.9 24.9 322.9 24.9 322.9 25 322.9 25.4 322.9 25.5 322.9 26.4 322.9 26.5 322.9 26.9 322.9 27.1 322.9 27.5 322.9 28 322.9 28.1 322.9 28.5 322.9 28.6 322.9 29.1 322.9 29.5 322.9 29.7 322.9 29.8 322.9 30 322.9 30.1 322.9 30.1 322.9 30.2 323 30.2 323.3 30.2 323.5 30.2 323.8 30.2 324 30.2 324.3 30.2 324.3 30.2 324.4 30.1 324.4 30.1 324.4 29.9 324.4 29.8 324.4 29.7 324.4 29.5 324.4 29.1"/>
    <polygon class="cls-5" points="321.9 21.2 321.9 21 321.9 20.8 321.9 20.6 321.9 20.4 321.9 20.3 321.9 20 321.8 19.8 321.7 19.6 321.7 19.4 321.6 19.2 321.5 19.1 321.3 18.9 321 18.7 320.9 18.6 320.7 18.5 320.5 18.4 320.3 18.3 320.1 18.2 319.8 18.1 319.5 18.1 319.3 18.1 319 18.1 318.7 18 318.5 18 317.9 18.1 317.7 18.1 317.6 18 317.5 17.8 317.5 17.7 317.5 17.4 317.5 17.2 317.6 17.1 317.8 17.1 318 17.1 318.2 17.1 318.7 17.1 319.4 17.1 320.4 17.1 320.5 17.1 321 17.1 321.2 17.1 321.3 17.1 321.4 17.1 321.5 17 321.5 16.8 321.5 16.6 321.6 16.4 321.6 16.1 321.6 15.8 321.6 15.6 321.6 15.5 321.5 15.4 321.5 15.3 321.4 15.3 321.3 15.3 320.9 15.2 320.6 15.3 319.6 15.3 319 15.3 318 15.2 317.3 15.2 317.2 15.2 316.5 15.3 316.3 15.3 315.9 15.2 315.7 15.2 315.5 15.3 315.4 15.3 315.4 15.5 315.4 15.6 315.4 15.8 315.4 16.2 315.5 16.4 315.4 17 315.4 17.2 315.5 17.9 315.5 18.1 315.4 18.7 315.4 18.9 315.5 19.6 315.5 19.7 315.5 19.8 315.7 19.8 317 19.8 317.2 19.8 317.9 19.9 318.2 19.8 318.5 19.8 318.7 19.8 319 19.9 319.1 19.9 319.3 20 319.5 20.1 319.6 20.2 319.7 20.4 319.7 20.4 319.7 20.6 319.7 20.8 319.7 21 319.6 21.2 319.5 21.3 319.3 21.4 319.1 21.5 319 21.5 318.7 21.6 318.6 21.6 318.3 21.5 318.1 21.5 318 21.4 317.8 21.3 317.7 21.2 317.6 21.1 317.5 20.9 317.5 20.7 317.4 20.7 317.3 20.6 317 20.6 316.5 20.7 316.3 20.7 315.8 20.6 315.5 20.6 315.4 20.7 315.3 20.7 315.3 20.9 315.3 21.1 315.3 21.3 315.4 21.5 315.4 21.7 315.5 21.9 315.6 22.1 315.7 22.2 315.8 22.4 316 22.5 316.1 22.7 316.3 22.8 316.4 22.9 316.7 23 316.8 23.1 317 23.2 317.2 23.2 317.4 23.3 317.6 23.3 318 23.3 318.1 23.3 318.3 23.4 318.6 23.4 318.7 23.4 319 23.4 319.1 23.4 319.4 23.4 319.6 23.3 319.7 23.3 319.9 23.2 320.1 23.1 320.3 23.1 320.5 23 320.7 22.9 320.8 22.8 321.2 22.5 321.3 22.4 321.5 22.1 321.6 22 321.7 21.8 321.8 21.6 321.9 21.4 321.9 21.2"/>
    <path class="cls-5" d="M360,40.8h-.7a3.4,3.4,0,0,0-.9-1.9,3.2,3.2,0,0,0-1.7-.9,3.1,3.1,0,0,0-1-1.5,4,4,0,0,0-2.9-1.2h-.5a4.2,4.2,0,0,0-4-2.8,4.1,4.1,0,0,0-3.7,2.3,3.5,3.5,0,0,0-3-1.9,3.3,3.3,0,0,0-3.3,3.3,3.4,3.4,0,0,0-2.5,2.5h-3.4V32.4a.8.8,0,0,0-.8-.7.7.7,0,0,0-.7.7v21h-.4V22.9h.4v6.2a.7.7,0,0,0,.7.7.8.8,0,0,0,.8-.7V15.8a1.2,1.2,0,0,0-1.3-1.2h-.9a1.2,1.2,0,0,0-1.2,1.2V38.7h-.5a1.3,1.3,0,0,0-1.3,1.3v3.9a1.3,1.3,0,0,0,1.3,1.3h.5v8.2h-.1a1.3,1.3,0,0,0-1.3,1.3v2.5H325a1.3,1.3,0,0,0-1.3,1.3v1.4h-2a2.1,2.1,0,0,0-2.2,2.1,2.3,2.3,0,0,0,.9,1.8l-.3.3a.9.9,0,0,0,0,1,.9.9,0,0,0,.6.3.5.5,0,0,0,.5-.3l.9-.9h.5a.6.6,0,0,0,.1.9.6.6,0,0,0,1,0l1-.9h.4a.6.6,0,0,0,.1.9.6.6,0,0,0,1,0l1-.9h.4a.7.7,0,0,0,.1.9l.5.3a.9.9,0,0,0,.6-.3l.9-.9h.4v.4a.8.8,0,0,0,.7.8.8.8,0,0,0,.8-.8v-.4h.4l.9.9.5.3a.9.9,0,0,0,.6-.3.7.7,0,0,0,.1-.9h.4l.9.9.6.3c.2,0,.3-.1.5-.3a.7.7,0,0,0,.1-.9h.4l1,.9a.6.6,0,0,0,1,0,.6.6,0,0,0,.1-.9h.4l1,.9a.6.6,0,0,0,1,0,.7.7,0,0,0,0-1l-.4-.4a1.8,1.8,0,0,0,.5-.7h5.5a.7.7,0,0,0,.7-.7.8.8,0,0,0-.7-.8h-5.3a2.2,2.2,0,0,0-2.1-1.6h-2.1V58.5a1.2,1.2,0,0,0-1.2-1.3h-2.7V54.7a1.2,1.2,0,0,0-1.2-1.3h-.1V45.2h25.1l-1.9,10.3-9.2-5a4,4,0,0,0-4-3.8,4,4,0,0,0,0,8,3.2,3.2,0,0,0,2-.6l10.5,5.6-.3,1.5c0,.2-.3.3-.5.3h-3a.8.8,0,0,0-.8.8.7.7,0,0,0,.8.7h3a2.1,2.1,0,0,0,2-1.5l.2-1.5a1.8,1.8,0,0,0,1.6-1,2.2,2.2,0,0,0-.8-2.8H357l2.1-11h.9a1.2,1.2,0,0,0,1.2-1.3V42.1A1.2,1.2,0,0,0,360,40.8ZM330.5,16.1h.4v5.3h-.4Zm-1.4,38.8h3.1v2.3h-3.1Zm-.4-14.7h.3v1.4h-.3Zm0,3.5v-.6h.3v.6Zm7.4,15v1.2h-.9a.7.7,0,1,0,0,1.4h4.5a.7.7,0,0,1,0,1.4h-18a.7.7,0,1,1,0-1.4h9.7a.7.7,0,1,0,0-1.4h-6.2V58.7Zm6.3-5.5a2.5,2.5,0,1,1,2.2-3.6l-.8-.4a1.6,1.6,0,0,0-.9-.3,2.1,2.1,0,0,0-1.8,1.1,2.2,2.2,0,0,0-.2,1.6,1.8,1.8,0,0,0,1,1.1l.8.5Zm14.2,5.1a.9.9,0,0,1-.5.3h-.2l-13.3-7.1c-.1,0-.2-.1-.2-.3a.3.3,0,0,1,0-.4.5.5,0,0,1,.5-.3h.2l13.3,7A.8.8,0,0,1,356.6,58.3Zm-3.8-21.5a2.6,2.6,0,0,1,1.9.7,3.3,3.3,0,0,1,.7,1.3.7.7,0,0,0,.7.6,1.6,1.6,0,0,1,1.2.6,2.2,2.2,0,0,1,.5.8h-3.1a2.6,2.6,0,0,0-2.5-1.9h-.5a2.5,2.5,0,0,0-.8-1.4A2.6,2.6,0,0,1,352.8,36.8ZM348.3,34a2.8,2.8,0,0,1,2.6,1.7l-1.1.8-.2.2h-.8a3.4,3.4,0,0,0-1.7.5,2.6,2.6,0,0,0-1.4-1.1A2.8,2.8,0,0,1,348.3,34Zm-9.5,3.7h.3a2.2,2.2,0,0,1,1.1.5.7.7,0,1,0,1-1.1,3.9,3.9,0,0,0-1.4-.8,1.8,1.8,0,0,1,1.8-1.8,1.9,1.9,0,0,1,1.8,1.9v.2a1.4,1.4,0,0,0,.2.6l.6.2h.2a1.6,1.6,0,0,1,1.7,1.2,3.6,3.6,0,0,0-.2,1.1.8.8,0,0,0,.7.8.9.9,0,0,0,.8-.8,2.4,2.4,0,0,1,.2-.8h.1a1.7,1.7,0,0,1,1.1-.6,1.5,1.5,0,0,1,1.5,1.5.8.8,0,0,0,.7.8h1.2a1.1,1.1,0,0,1,.9.4H342.8V40a1.3,1.3,0,0,0-1.3-1.3h-4.1A1.7,1.7,0,0,1,338.8,37.7Zm-6.4,2.5h8.9v1.4h-8.9Zm27.3,3.5H332.4v-.6h9.1a1.2,1.2,0,0,0,1.2-.8h17Z"/>
  </g>
</svg>
