<svg id="Layer_1" data-name="Layer 1" xmlns="http://www.w3.org/2000/svg" xmlns:xlink="http://www.w3.org/1999/xlink" width="70" height="70" viewBox="0 0 70 70">
  <defs>
    <style>
      .cls-1 {
        fill: #f6f6f6;
      }

      .cls-2 {
        fill: url(#linear-gradient);
      }
    </style>
    <linearGradient id="linear-gradient" x1="49.06" y1="70.64" x2="22.99" y2="4.57" gradientUnits="userSpaceOnUse">
      <stop offset="0" stop-color="#75c9b9"/>
      <stop offset="1" stop-color="#72bde5"/>
    </linearGradient>
  </defs>
  <title>icon_plumbing_P0</title>
  <path id="Rectangle" class="cls-1" d="M3,0H67a2.9,2.9,0,0,1,3,3V67a2.9,2.9,0,0,1-3,3H3a2.9,2.9,0,0,1-3-3V3A2.9,2.9,0,0,1,3,0Z"/>
  <path class="cls-2" d="M41.2,17H17.6L16,18.7H41.2a.7.7,0,0,1,.8.7.7.7,0,0,1-.8.8H14.9l-1.2,1.7H39.3V34.7a2.4,2.4,0,0,1-2.4,2.4H35.1V34.4A11.6,11.6,0,0,0,23.4,23.1,11.6,11.6,0,0,0,11.7,34.4v2.7H10.1a11.1,11.1,0,0,0,.2,1.7h1.4v2.5h-.9l.5,1.7H36.9a.8.8,0,0,1,.8.7.9.9,0,0,1-.8.8h-25a12.2,12.2,0,0,0,.7,1.7H35.4a11.9,11.9,0,0,1-10,10.3l-2,.2h-.9l3.1,1.6,1-.2v.5l1.6.5h.1l.2-1.3v-.2a13.7,13.7,0,0,0,8.7-11.3,2.4,2.4,0,0,0,2.2-2.5,2.5,2.5,0,0,0-2.5-2.3H35.1V38.8h1.8A4.1,4.1,0,0,0,41,34.7V21.9h.2a2.5,2.5,0,1,0,0-4.9ZM30.8,41.3H16.1V34.4a7.2,7.2,0,0,1,7.3-7.1,7.3,7.3,0,0,1,7.4,7.1Zm2.6,0h-.9V34.4a9.1,9.1,0,0,0-18.2,0v6.9h-.8V34.4a9.8,9.8,0,0,1,9.9-9.6,9.8,9.8,0,0,1,10,9.6Zm2-18.1a1.8,1.8,0,0,0-1.3-.6,1.6,1.6,0,0,0,0,3.2,1.7,1.7,0,0,0,1.4-.7h3V23.2Zm0,0a1.8,1.8,0,0,0-1.3-.6,1.6,1.6,0,0,0,0,3.2,1.7,1.7,0,0,0,1.4-.7h3V23.2Zm0,0a1.8,1.8,0,0,0-1.3-.6,1.6,1.6,0,0,0,0,3.2,1.7,1.7,0,0,0,1.4-.7h3V23.2ZM35,10a25.3,25.3,0,0,0-17.4,7L16,18.7l-1.1,1.5-1.2,1.7A25.3,25.3,0,0,0,10,35a14.8,14.8,0,0,0,.1,2.1,11.1,11.1,0,0,0,.2,1.7,22.1,22.1,0,0,0,.5,2.5l.5,1.7.6,1.5a12.2,12.2,0,0,0,.7,1.7,24.8,24.8,0,0,0,9.9,10.4l3.1,1.6.9.3,1.6.5A22.6,22.6,0,0,0,35,60a25,25,0,0,0,0-50Zm0,48.6a23.9,23.9,0,0,1-6.6-1,18.2,18.2,0,0,1-3-1.1A23.8,23.8,0,0,1,14.2,46.2c-.3-.6-.5-1.2-.8-1.7L12.8,43a25.8,25.8,0,0,1-1.1-4.2h0c-.1-.6-.1-1.2-.2-1.7s-.1-1.4-.1-2.1a23.3,23.3,0,0,1,4-13.1,10.9,10.9,0,0,1,1.3-1.7L18,18.7A14.9,14.9,0,0,1,19.8,17,23.3,23.3,0,0,1,35,11.4a23.6,23.6,0,0,1,0,47.2Zm-.9-36a1.6,1.6,0,0,0,0,3.2,1.7,1.7,0,0,0,1.4-.7h3V23.2H35.4A1.8,1.8,0,0,0,34.1,22.6Zm1.3.6a1.8,1.8,0,0,0-1.3-.6,1.6,1.6,0,0,0,0,3.2,1.7,1.7,0,0,0,1.4-.7,2.9,2.9,0,0,0,.2-.9A1.9,1.9,0,0,0,35.4,23.2Zm-1.1,0v1.9h4.2V23.2Z"/>
</svg>
